<?xml version="1.0" encoding="utf-8"?>
<!-- Generator: Adobe Illustrator 23.0.6, SVG Export Plug-In . SVG Version: 6.00 Build 0)  -->
<svg version="1.1" id="Layer_1" xmlns="http://www.w3.org/2000/svg" xmlns:xlink="http://www.w3.org/1999/xlink" x="0px" y="0px"
	 viewBox="0 0 100 100" style="enable-background:new 0 0 100 100;" xml:space="preserve">
<style type="text/css">
	.st0{fill:#1576D4;}
</style>
<g>
	<path class="st0" d="M83,69h-0.8v1.1H83c0.4,0,0.7-0.2,0.7-0.6C83.7,69.2,83.4,69,83,69z"/>
	<path class="st0" d="M82.8,67.2c-1.7,0-3,1.4-3,3v0c0,1.6,1.3,3,3,3c1.7,0,3-1.4,3-3v0C85.8,68.5,84.5,67.2,82.8,67.2z M83.7,71.8
		l-0.8-1.2h-0.7v1.2h-0.7v-3.4H83c0.8,0,1.3,0.4,1.3,1.1c0,0.6-0.3,0.9-0.8,1l0.9,1.3H83.7z"/>
	<path class="st0" d="M50,0C22.4,0,0,22.4,0,50s22.4,50,50,50s50-22.4,50-50S77.6,0,50,0z M25.4,73.7c-4.4,0-7.9-3.6-7.9-8
		c0-2.1,0.7-4.1,2.1-5.5C27.4,52.7,36.3,44,36.3,44c1.7-1.7,1.7-4.6,0-6.3c-1.7-1.7-4.6-1.7-6.3,0c-0.9,0.9-1.3,2.1-1.3,3.3H17.5
		c0-4,1.5-8.1,4.5-11.2c6.1-6.1,16-6.2,22.1-0.1c3.1,3.1,4.5,7.1,4.5,11.1v0c0,4-1.4,8.1-4.5,11.1c-6.1,6.1-11,10.5-11,10.5h16.3
		c0.2,0.7,0.5,1.5,0.8,2.3c0.9,2.1,2.1,3.9,3.7,5.5c1.4,1.4,2.9,2.5,4.6,3.4H25.4z M66.1,73.5c-8.7,0-15.7-7-15.7-15.7V25.4h11.2v33
		c0,2.5,2,4.5,4.5,4.5c2.5,0,4.5-2,4.5-4.5v-33h11.2v32.5C81.8,66.5,74.8,73.5,66.1,73.5z M82.8,73.5c-1.9,0-3.4-1.5-3.4-3.4v0
		c0-1.8,1.5-3.4,3.4-3.4c1.9,0,3.4,1.5,3.4,3.4v0C86.2,72,84.7,73.5,82.8,73.5z"/>
</g>
</svg>
