<svg xmlns="http://www.w3.org/2000/svg" viewBox="0 0 518.93 37.73"><defs><style>.cls-1{fill:#2e2e2e;}.cls-2{fill:#3bdaa0;}.cls-3{fill:#f42684;}</style></defs><title>Asset 1</title><g id="Layer_2" data-name="Layer 2"><g id="Layer_1-2" data-name="Layer 1"><path class="cls-1" d="M0,19.53C0,8.66,8.23,1.32,19.06,1.32a16.27,16.27,0,0,1,15.36,9.44l-7.82,3.7a8.45,8.45,0,0,0-7.54-5.12c-5.76,0-9.82,4.43-9.82,10.19s4.06,10.18,9.82,10.18a8.45,8.45,0,0,0,7.54-5.12l7.82,3.7a16.37,16.37,0,0,1-15.36,9.44C8.23,37.73,0,30.35,0,19.53Z"/><path class="cls-1" d="M59.18,37.1,53.27,25.28H48.62V37.1H39.54V1.9H57.17C65,1.9,69.42,7.07,69.42,13.61c0,6.12-3.75,9.4-7,10.56L69.57,37.1Zm1-23.54c0-2.37-2-3.74-4.38-3.74H48.62v7.54H55.8C58.17,17.36,60.18,16,60.18,13.56Z"/><path class="cls-1" d="M74.45,37.1V1.9h25.81V9.82H83.53V15.3H99.89v7.92H83.53v6h16.73V37.1Z"/><path class="cls-1" d="M131.87,37.1,130.13,32H116.25l-1.74,5.07h-10.3L117.46,1.9h11.4l13.3,35.2Zm-8.71-26.23-4.48,13.25h9Z"/><path class="cls-1" d="M148.16,37.1V9.82h-9.88V1.9h28.77V9.82h-9.82V37.1Z"/><path class="cls-2" d="M172.68,6.71a6.72,6.72,0,0,1,13.43,0,6.72,6.72,0,1,1-13.43,0Z"/><path class="cls-1" d="M204.44,37.1,191.19,1.9h10.3l8.65,25.38L218.85,1.9h10.29l-13.3,35.2Z"/><path class="cls-1" d="M234.15,37.1V1.9H260V9.82H243.23V15.3h16.36v7.92H243.23v6H260V37.1Z"/><path class="cls-1" d="M290.69,32.14l4.81-6.81A15.88,15.88,0,0,0,306.74,30c3.11,0,5-1.22,5-2.91,0-4.8-19.95-.95-19.95-14.51,0-5.92,5-11.19,14-11.19a21.49,21.49,0,0,1,14.31,4.91l-5,6.49a16.55,16.55,0,0,0-10.29-3.64c-2.64,0-3.8,1.06-3.8,2.53,0,4.49,19.9,1.22,19.9,14.31,0,7.07-5.22,11.76-14.67,11.76C299.19,37.73,294.23,35.52,290.69,32.14Z"/><path class="cls-1" d="M333.4,37.1V9.82h-9.87V1.9H352.3V9.82h-9.82V37.1Z"/><path class="cls-1" d="M357.47,22.85V1.9h9.24V22.54c0,4.17,2.47,7.17,7.43,7.17s7.39-3,7.39-7.17V1.9h9.19V22.8c0,8.76-5.33,14.93-16.58,14.93S357.47,31.51,357.47,22.85Z"/><path class="cls-1" d="M395.87,37.1V1.9h14.78c11.08,0,19.05,6.65,19.05,17.57s-8,17.63-19,17.63Zm24.54-17.63c0-5.43-3.27-9.65-9.71-9.65H405V29.18h5.7A9.34,9.34,0,0,0,420.41,19.47Z"/><path class="cls-1" d="M434.78,37V29.23h9.08V37Z"/><path class="cls-1" d="M448.92,19.53c0-10.72,8.08-18.21,18.84-18.21s18.8,7.49,18.8,18.21-8,18.2-18.8,18.2S448.92,30.24,448.92,19.53Zm28.4,0c0-5.76-3.75-10.19-9.56-10.19s-9.6,4.43-9.6,10.19,3.75,10.18,9.6,10.18S477.32,25.23,477.32,19.53Z"/><path class="cls-1" d="M488.64,32.14l4.8-6.81A15.88,15.88,0,0,0,504.68,30c3.12,0,5-1.22,5-2.91,0-4.8-19.94-.95-19.94-14.51,0-5.92,5-11.19,14-11.19a21.45,21.45,0,0,1,14.3,4.91l-5,6.49a16.53,16.53,0,0,0-10.29-3.64c-2.64,0-3.8,1.06-3.8,2.53,0,4.49,19.9,1.22,19.9,14.31,0,7.07-5.23,11.76-14.68,11.76C497.13,37.73,492.17,35.52,488.64,32.14Z"/><path class="cls-3" d="M432.82,6.71a6.72,6.72,0,0,1,13.43,0,6.72,6.72,0,1,1-13.43,0Z"/></g></g></svg>