<?xml version="1.0" encoding="utf-8"?>
<!-- Generator: Adobe Illustrator 26.0.1, SVG Export Plug-In . SVG Version: 6.00 Build 0)  -->
<svg version="1.1" id="Layer_1" xmlns="http://www.w3.org/2000/svg" xmlns:xlink="http://www.w3.org/1999/xlink" x="0px" y="0px"
	 viewBox="0 0 518.9 37.7" style="enable-background:new 0 0 518.9 37.7;" xml:space="preserve">
<style type="text/css">
	.st0{fill:#FFFFFF;}
	.st1{fill:#3BDAA0;}
	.st2{fill:#F42684;}
</style>
<g id="Layer_2_00000097502162152422552680000015964305496582055335_">
	<g id="Layer_1-2">
		<path class="st0" d="M0,19.5C0,8.7,8.2,1.3,19.1,1.3c6.6-0.2,12.6,3.5,15.4,9.4l-7.8,3.7c-1.3-3-4.2-5-7.5-5.1
			c-5.8,0-9.8,4.4-9.8,10.2s4.1,10.2,9.8,10.2c3.3-0.1,6.2-2.1,7.5-5.1l7.8,3.7c-2.8,5.9-8.8,9.7-15.4,9.4C8.2,37.7,0,30.4,0,19.5z"
			/>
		<path class="st0" d="M59.2,37.1l-5.9-11.8h-4.7v11.8h-9.1V1.9h17.6c7.8,0,12.2,5.2,12.2,11.7c0,6.1-3.8,9.4-7,10.6l7.2,12.9H59.2z
			 M60.2,13.6c0-2.4-2-3.7-4.4-3.7h-7.2v7.5h7.2C58.2,17.4,60.2,16,60.2,13.6z"/>
		<path class="st0" d="M74.4,37.1V1.9h25.8v7.9H83.5v5.5h16.4v7.9H83.5v6h16.7v7.9H74.4z"/>
		<path class="st0" d="M131.9,37.1l-1.7-5.1h-13.9l-1.7,5.1h-10.3l13.2-35.2h11.4l13.3,35.2L131.9,37.1z M123.2,10.9l-4.5,13.2h9
			L123.2,10.9z"/>
		<path class="st0" d="M148.2,37.1V9.8h-9.9V1.9h28.8v7.9h-9.8v27.3H148.2z"/>
		<path class="st1" d="M172.7,6.7c0.1-3.7,3.3-6.6,7-6.5c3.5,0.1,6.3,2.9,6.5,6.5c0.1,3.7-2.7,6.8-6.5,7c-3.7,0.1-6.8-2.7-7-6.5
			C172.7,7.1,172.7,6.9,172.7,6.7z"/>
		<path class="st0" d="M204.4,37.1L191.2,1.9h10.3l8.6,25.4l8.7-25.4h10.3l-13.3,35.2L204.4,37.1z"/>
		<path class="st0" d="M234.1,37.1V1.9H260v7.9h-16.8v5.5h16.4v7.9h-16.4v6H260v7.9H234.1z"/>
		<path class="st0" d="M290.7,32.1l4.8-6.8c3,3,7,4.7,11.2,4.7c3.1,0,5-1.2,5-2.9c0-4.8-20-1-20-14.5c0-5.9,5-11.2,14-11.2
			c5.2-0.2,10.3,1.6,14.3,4.9l-5,6.5c-2.9-2.3-6.5-3.6-10.3-3.6c-2.6,0-3.8,1.1-3.8,2.5c0,4.5,19.9,1.2,19.9,14.3
			c0,7.1-5.2,11.8-14.7,11.8C299.2,37.7,294.2,35.5,290.7,32.1z"/>
		<path class="st0" d="M333.4,37.1V9.8h-9.9V1.9h28.8v7.9h-9.8v27.3H333.4z"/>
		<path class="st0" d="M357.5,22.9v-21h9.2v20.6c0,4.2,2.5,7.2,7.4,7.2s7.4-3,7.4-7.2V1.9h9.2v20.9c0,8.8-5.3,14.9-16.6,14.9
			S357.5,31.5,357.5,22.9z"/>
		<path class="st0" d="M395.9,37.1V1.9h14.8c11.1,0,19,6.7,19,17.6s-8,17.6-19,17.6H395.9z M420.4,19.5c0-5.4-3.3-9.6-9.7-9.6H405
			v19.4h5.7c5.2,0.2,9.5-3.8,9.7-9C420.4,20,420.4,19.7,420.4,19.5z"/>
		<path class="st0" d="M434.8,37v-7.8h9.1V37H434.8z"/>
		<path class="st0" d="M448.9,19.5c0-10.7,8.1-18.2,18.8-18.2s18.8,7.5,18.8,18.2s-8,18.2-18.8,18.2S448.9,30.2,448.9,19.5z
			 M477.3,19.5c0-5.8-3.8-10.2-9.6-10.2s-9.6,4.4-9.6,10.2s3.8,10.2,9.6,10.2S477.3,25.2,477.3,19.5z"/>
		<path class="st0" d="M488.6,32.1l4.8-6.8c3,3,7,4.7,11.2,4.7c3.1,0,5-1.2,5-2.9c0-4.8-19.9-1-19.9-14.5c0-5.9,5-11.2,14-11.2
			C508.9,1.2,514,3,518,6.3l-5,6.5c-2.9-2.3-6.5-3.6-10.3-3.6c-2.6,0-3.8,1.1-3.8,2.5c0,4.5,19.9,1.2,19.9,14.3
			c0,7.1-5.2,11.8-14.7,11.8C497.1,37.7,492.2,35.5,488.6,32.1z"/>
		<path class="st2" d="M432.8,6.7c0.1-3.7,3.3-6.6,7-6.5c3.5,0.1,6.3,2.9,6.5,6.5c0.1,3.7-2.7,6.8-6.5,7c-3.7,0.1-6.8-2.7-7-6.5
			C432.8,7.1,432.8,6.9,432.8,6.7z"/>
	</g>
</g>
</svg>
