<?xml version="1.0" encoding="utf-8"?>
<!-- Generator: Adobe Illustrator 26.0.1, SVG Export Plug-In . SVG Version: 6.00 Build 0)  -->
<svg version="1.1" xmlns="http://www.w3.org/2000/svg" xmlns:xlink="http://www.w3.org/1999/xlink" x="0px" y="0px"
	 viewBox="0 0 883.5 852" style="enable-background:new 0 0 883.5 852;" xml:space="preserve">
<style type="text/css">
	.st0{clip-path:url(#SVGID_00000111149388335377309010000017256016017934038923_);}
	.st1{fill:#EA5964;}
	.st2{opacity:0.77;fill:#FF7676;}
	.st3{fill:#FFFFFF;}
	.st4{fill:none;stroke:#FFFFFF;stroke-width:2;stroke-miterlimit:10;}
	.st5{fill:none;stroke:#FFFFFF;stroke-miterlimit:10;}
	.st6{fill:#FF7676;stroke:#FFFFFF;stroke-width:2;stroke-miterlimit:10;}
	.st7{fill:none;stroke:#EDCCD2;stroke-linecap:round;stroke-miterlimit:10;}
	.st8{fill:#EDCCD2;}
	.st9{fill:#F4C940;}
	.st10{fill:#FFB832;}
	.st11{fill:#EACACF;}
	.st12{clip-path:url(#SVGID_00000144334960444280208670000016118637696530449053_);}
	.st13{fill:#FBD6DB;}
	.st14{fill:#D0D2D3;}
	.st15{fill:#07388E;}
	.st16{fill:#062C82;}
	.st17{clip-path:url(#SVGID_00000106118387287460634730000006741846231466316468_);}
	.st18{fill:none;stroke:#C48427;stroke-width:2;stroke-linecap:round;stroke-linejoin:round;stroke-miterlimit:10;}
	.st19{fill:none;stroke:#FF6065;stroke-width:4;stroke-linecap:round;stroke-miterlimit:10;}
	.st20{opacity:0.27;fill:#B08774;}
	.st21{fill:none;stroke:#FBD6DB;stroke-width:2;stroke-linecap:round;stroke-miterlimit:10;}
	.st22{fill:none;stroke:#FFFFFF;stroke-width:2;stroke-linecap:round;stroke-linejoin:round;stroke-miterlimit:10;}
	.st23{clip-path:url(#XMLID_00000110457294059898699590000007124161457881484934_);}
	.st24{fill:none;stroke:#FF6065;stroke-width:1.5;stroke-linecap:round;stroke-linejoin:round;stroke-miterlimit:10;}
	.st25{fill:#FF6065;}
	.st26{display:none;}
	.st27{display:inline;fill:none;stroke:#D00069;stroke-miterlimit:10;}
	.st28{display:inline;fill:none;stroke:#D00069;stroke-linejoin:bevel;stroke-miterlimit:10;}
	.st29{display:inline;}
	.st30{fill:none;stroke:#D00069;stroke-linecap:round;stroke-miterlimit:10;}
</style>
<g id="bg">
	<g>
		<defs>
			<path id="SVGID_1_" d="M285,211c-3.6,2.3-7.1,4.7-10.6,7.2c-60.9,43-110.3,108.5-128.2,181.5c-5.7,23.4-8.1,47.5-6.9,71.5
				c0.2,3.4,0.4,6.9,0.7,10.3c0.7,8.6,1.9,17.3,3.7,26c0.6,2.9,1.3,5.8,2,8.6c1,3.2,2.2,6.4,3.4,9.5c1.2,3.1,2.6,6.2,4,9.2
				c4.1,8.1,8.3,16.3,12.9,24.1c1.6,2.6,3.2,5.2,4.8,7.8c1.4,2.3,2.9,4.6,4.5,6.8c1.6,2.2,3.3,4.3,5,6.4c3.6,5.5,9.6,8.5,13,13.2
				c2.5,2.3,5,4.6,7.6,6.9c10.1,9,20.4,17.4,31,25.3c2.5,1.8,5,3.5,7.5,5.2c22.6,15.4,46.8,28.3,69.8,38.7
				c77,34.9,164.2,46.6,247.6,32.7c68.8-11.4,148.5-37.4,157-117.8c2.3-21.7-2-43.9-13.1-62.8c-16-27.4-38.3-51-41.4-84.1
				c-2.2-23.7,5.9-46.4,12.6-68.8c16.2-54.4,29.9-121-2.7-171.9c-42.4-66.3-128.8-69.3-199.2-61.8C401.7,141.9,341.7,174.1,285,211z
				"/>
		</defs>
		<use xlink:href="#SVGID_1_"  style="overflow:visible;fill:#FF6065;"/>
		<clipPath id="SVGID_00000012432471602062425980000018229597876177465518_">
			<use xlink:href="#SVGID_1_"  style="overflow:visible;"/>
		</clipPath>
		<g style="clip-path:url(#SVGID_00000012432471602062425980000018229597876177465518_);">
			<path class="st1" d="M633,288.5c0.1,0,0.7-0.5,2.1-1.9c0,0,0,0,0,0C634.4,287.3,633.7,287.9,633,288.5z"/>
			<path class="st1" d="M432.5,542.8c-0.1-0.3-0.3,0.2-0.6,2.3c0,0,0,0,0,0C432,544.4,432.2,543.6,432.5,542.8z"/>
			<g>
				<path class="st1" d="M332,391.2c0.4-0.1,0.8-0.1,1.2-0.2c0.9-0.2-0.2-0.1-1.7,0.2c0,0,0.1,0,0.1,0
					C331.8,391.2,331.9,391.2,332,391.2z"/>
				<path class="st1" d="M731.7,197c-1.4-4.3-3.8-8.1-7.1-11c4.9-0.9,9.7-1.8,14.6-2.8c11.9-2.2,19.7-17.2,16.1-28.3
					c-4.1-12.7-15.6-18.4-28.3-16.1c-48.9,9.1-98.2,18.8-144.3,38.1c-23.9,10-46.7,21.9-67.4,37.7c-23.6,18.1-42.6,39.7-60,63.8
					c-2.6,3.6-5.2,7.3-7.8,11c-1.2,1.8-10.9,3.3-13.3,4.3c-5.1,2.1-9.9,4.5-14.5,7.4c-21.2,13.3-38.4,33.8-53.5,52.3
					c-29.3,36-61.4,34.9-102,47.3c-18,5.5-33.6,17.3-46.9,30.4c-13.1,13-25.8,28.8-39.2,42.4c-14.5,14.8-32.2,20.2-48.4,32.4
					c-9.1,6.8-7.1,21.1-6.9,31.1c0.2,8.3,3.4,16.9,9.6,22.5c1.6,1.5,3.3,2.7,5,3.7c-7.1,15.1-12.1,31.2-14.7,47.5
					c-1,6.3-1,12,2.3,17.7c2.8,4.8,8.3,9.3,13.7,10.6c11,2.5,26.3-3.4,28.3-16.1c1.2-8,3.1-15.8,5.5-23.5c1.2-0.6,2.4-1.3,3.5-2.2
					c4.5,5.1,10.8,8.5,17.2,7.8c2.8-0.3,5.7-0.7,8.4-1.1c0.4,8.7,4.9,16.9,13.3,21.6c7,4,16.2,4.9,24.4,5c3.2,8.7,9.6,16,17.5,20.9
					c-0.8,8,2.2,15.8,8.8,20.9c7,5.4,17.7,6.7,25.5,1.8c2-1.3,4-2.7,5.9-4.2c2.8,3.2,6.6,5.8,11.2,7.5c1.3,0.5,2.7,0.8,4.2,1
					c0.2,3.1,1,6.1,2.8,9.2c2.8,4.8,8.3,9.3,13.7,10.6c4.6,1.1,9.1,0.8,13.2-0.5c1.2,11.9,9.8,23.5,23,22.9
					c11.5-0.5,24.2-10.2,23-23c-0.2-2.7-0.4-5.3-0.3-8c0-1.1,0.1-2.1,0.2-3.2c0-0.5,0.1-1.1,0.1-1.6c0.3-2.6,0.2-2.1-0.2,1.4
					c-1.3-0.9,3.7-13.6,4.3-15.2c0.1-0.3,0.2-0.6,0.2-0.8c0.4-0.7,0.8-1.3,1.1-1.8c1.1-2.2,2.3-4.3,3.5-6.4
					c2.8-4.7,5.9-9.2,9.1-13.6c0,0,0,0,0-0.1c0.9-1.1,1.7-2.2,2.6-3.2c1.8-2.1,3.6-4.2,5.4-6.3c3.6-4,7.4-7.9,11.1-11.8
					c7.1-7.4,14.3-14.7,21-22.4c15.5-17.7,29.3-37.9,34.2-61.3c2.7-13,3.2-26.3,4.4-39.6c0.1-1.2,0.2-2.4,0.3-3.5c0-0.1,0-0.5,0.1-1
					c0,0.7,0.4-3.1,0.5-3.4c0.2-1.2,0.4-2.3,0.7-3.4c0.6-2.9,1.3-5.7,2.2-8.5c0.3-1,0.7-1.9,1-2.8c1.9-3.8,3.9-7.5,6.3-11
					c0.4-0.5,0.7-1,1.1-1.5c1.8-1.3,3.7-4.5,5.1-6.1c6-6.6,12.6-12.5,19.4-18.3c15.2-13.2,30.2-25.8,42.5-41.9
					c6.6-8.7,11.9-18.2,16.6-28.2c2.7-5.8,5.2-11.7,7.7-17.6c1.1-2.6,2.1-5.1,3.2-7.7c0.4-1,0.9-2,1.3-3.1c0.1-0.2,0.1-0.3,0.2-0.5
					c0,0,0-0.1,0.1-0.1c4.4-10.1,9-20.2,14.9-29.6c1.1-1.7,2.2-3.4,3.4-5.1c0.2-0.2,0.5-0.7,0.8-1.3c0.1-0.1,0.4-0.4,1-1.2
					c3.2-3.8,6.5-7.5,10-10.9c3.1-3.1,6.6-5.7,9.9-8.6c-0.1,0,1-1.1,1.8-1.7c0.1-0.1,0.2-0.1,0.3-0.2c0.1-0.1,0.2-0.1,0.2-0.2
					c-0.1,0.1-0.1,0.1-0.2,0.2c1.1-0.8,2.2-1.6,3.3-2.4c2.2-1.6,4.5-3.1,6.8-4.6c9.3-6,19.2-11.2,29.2-15.9c2.3-1.1,4.6-2.1,7-3.1
					c0.4-0.2,0.8-0.4,1.2-0.7c1-0.5,2.2-0.8,3.2-1.2c5.2-2.1,10.5-4.1,15.8-6.1c10.5-3.8,21.2-7.4,31.9-10.9
					c11.4-3.7,20-16.1,16.1-28.3C747,205.5,739.9,198.8,731.7,197z M253.4,548.2c-0.2-0.1-0.4-0.2-0.6-0.3c0.5-0.3,1-0.7,1.6-1
					C254,547.3,253.7,547.7,253.4,548.2z M434.6,537.2c-0.5,1.8-1.5,3.7-2.1,5.6c0,0.3-0.1,1.2-0.5,2.1c0,0.1-0.1,0.1-0.1,0.1
					c0,0.1,0,0.2-0.1,0.3c0-0.1,0-0.2,0-0.3c-0.5,1.1-1.1,2.2-1.6,3.3c-1.1,2.1-2.2,4.1-3.5,6.2c-1.2,2-2.5,4-3.9,6
					c-0.9,1.3-1.8,2.6-2.8,3.9c-0.1,0.1-0.2,0.3-0.3,0.4c0,0,0,0,0,0c-11.9,14.6-25.4,27.7-38,41.6c0.1-0.2,0-0.1-0.5,0.5
					c0,0-0.1,0.1-0.1,0.1c0,0,0,0-0.1,0.1c0.2-0.3,0.5-0.6,0.5-0.7c0.7-0.9,1.5-1.9,2.3-2.8c18.9-23.1,36.6-46.5,51.9-71.9
					C435.5,533.7,435.1,535.4,434.6,537.2z M491.2,317c-5.1,10.1-9.7,20.4-15,30.4c-2.5,4.7-5.1,9.4-7.9,13.9
					c-1.5,2.5-3.2,4.9-4.9,7.2c-0.3,0.4-0.5,0.8-0.7,1.2c-0.7,0.8-1.5,1.6-2.1,2.2c-1.9,2.2-3.9,4.3-6,6.3c-1,1-2.1,1.9-3.1,2.8
					c-0.1,0.1-0.7,0.6-1.3,1.1c-0.8,0.6-2,1.5-2.1,1.6c-1.2,0.8-2.3,1.6-3.5,2.4c-2.9,1.9-5.8,3.6-8.8,5.2c-3.2,1.7-6.5,3.3-9.8,4.9
					c18.9-22.2,35.8-46.1,52.2-70.3c1.3-1.4,2.5-2.9,3.3-4.3c0.4-0.7,0.8-1.4,1.1-2.2c3.2-4.8,6.5-9.5,9.8-14.2
					c1.9-2.7,3.8-5.3,5.7-7.9c1.1-1.4,2.1-2.8,3.2-4.3c0.2-0.2,0.3-0.4,0.4-0.5c0.1-0.1,0.2-0.3,0.3-0.4c7.5-9.4,15.4-18.4,24-26.7
					C512.4,281,500.6,298.2,491.2,317z"/>
				<path class="st2" d="M848.5,277.4c-1.4-7.7-5.6-15.3-12.1-19.6c-1.7-1.1-3.3-2-5-2.8c4.1-15.2,6.1-30.9,5.9-46.6
					c-0.1-6.1-0.9-11.4-4.8-16.2c-3.2-4.1-8.8-7.5-14-7.9c-10.3-0.7-23.1,7-23,19.1c0.1,7.6-0.4,15.3-1.3,22.8c-1,0.8-2,1.6-2.8,2.5
					c-4.8-4.1-11-6.4-16.6-4.8c-2.5,0.7-5,1.5-7.4,2.3c-1.7-8-7-15.1-15.2-18.3c-1.8-0.7-3.8-1.2-5.8-1.5
					c-4.9,12.7-10.6,25-16.6,37.1c-3,6.1-6.1,12.1-9.2,18.1c-8.4,13.8-20.5,24.9-32.7,35.3c-9.5,8-19.9,13.7-26.8,24.1
					c-6.3,9.5-10.7,20.1-15.8,30.3c-3.4,6.8-7.4,13.3-11.8,19.5c-1.4,1.9-4.4,0.5-3.7-1.8c0,0,0-0.1,0-0.1c1.1-4.1,2.2-8.1,3.3-12.2
					c1.7-6.3,3.5-12.5,5.2-18.8c0.8-3.1,1.7-6.1,2.7-9.2c1.3-3,2.6-5.9,3.9-8.8c1.3-2.9,2.6-5.9,4-8.8c8.1-17.9,23.1-31.9,29.1-51.9
					c4-15,7-29,13.7-41.7c1.2-2.5,2.4-4.9,3.6-7.4c1.2-2.5,2.3-5,3.4-7.5c0.3-0.7,0.8-1.5,1.1-2.3c0.2-0.5,0.4-1.2,0.8-2
					c1-2.2,1.8-4.5,2.6-6.7c1.3-3.7,3.3-7,5.7-9.6c-1.8-4.3-4.9-7.9-9.2-10.3c-7.2-4.1-17-3.7-23.2,2c-1.6,1.5-3.2,3.1-4.6,4.8
					c-3-2.6-6.8-4.4-11.2-5.4c-1.3-0.3-2.6-0.4-3.9-0.4c-0.7-2.9-1.8-5.6-3.9-8.2c-2.5-3.2-6.5-5.9-10.5-7.2
					c0.4,11.7-0.4,23.3-2.3,34.9c-1.3,7.9-2.9,15.9-5,23.7c-0.7,2.6-1.5,5.2-2.4,7.7c-5.7,18.7-14.7,36.7-22.1,54.7
					c-1.2,2.8-2.3,5.6-3.4,8.4c-2.2,5.6-4,11.4-5.3,17.3c-0.7,3.2-1.2,6.5-1.6,9.8c-0.6,4.8-1,9.7-1.2,14.5
					c-0.8,21.3,1.4,42.8-2.4,63.9c-2.4,13.3-6.5,25.5-13.6,37c-7.1,11.4-17.7,19.4-28.6,26.8c-4.9,3.3-9.5,6.8-13.9,10.7
					c-0.1,0.1-0.1,0.1-0.2,0.2c-0.9,1.3-1.8,2.6-2.8,3.8c-0.2,0.3-0.3,0.5-0.5,0.6c-1.1,2.1-2.3,4.2-3.5,6.2
					c-0.5,0.9-0.9,1.8-1.3,2.6c-0.8,1.5-1.5,3.1-2.2,4.7c-1.5,3.2-2.8,6.4-4.1,9.6c-2.4,6-4.5,12.1-6.5,18.3
					c-7.1,22.5-11.1,46-19.1,68.2c-8.5,23.7-22.2,44.2-40.2,61.8c-19.7,19.2-44.1,32.9-68.5,45.1c-12,6-24.1,11.7-35.9,17.9
					c-5.9,3.1-11.8,6.4-17.6,9.8c-0.2,0.1-0.7,0.4-1.2,0.7c-0.1,0.2-0.2,0.3-0.3,0.5c-0.2,3.6,0.4,7.2,1.9,10.3
					c5.6,11.3,16.8,15,27.9,10.9c42.5-15.7,85.3-31.9,123.8-56.6c20-12.8,38.7-27.3,54.8-45.1c18.5-20.4,32.3-43.3,44.2-68.4
					c1.8-3.8,3.6-7.6,5.3-11.4c0.8-1.9,9.3-4.7,11.3-6c4.2-2.7,8.2-5.7,11.9-9.1c17-15.5,29.4-37.2,40.1-56.7
					c20.9-38,49.9-41.6,84.4-59.1c15.3-7.8,27.6-21.1,37.5-35.3c9.8-14.1,18.8-30.7,28.8-45.4c10.8-15.9,25.9-23.6,38.6-37.4
					C854.1,299.9,850.2,286.8,848.5,277.4z M728.8,287.5c0.1-0.2,1.1-1.2,1.3-1.2C729.6,286.7,729.2,287.1,728.8,287.5z"/>
				<path class="st2" d="M497.8,45.6c-1.4-7.7-5.6-15.3-12.1-19.6c-1.7-1.1-3.3-2-5-2.8c4.1-15.2,6.1-30.9,5.9-46.6
					c-0.1-6.1-0.9-11.4-4.8-16.2c-3.2-4.1-8.8-7.5-14-7.9c-10.3-0.7-23.1,7-23,19.1c0.1,7.6-0.4,15.3-1.3,22.8c-1,0.8-2,1.6-2.8,2.5
					c-4.8-4.1-11-6.4-16.6-4.8c-2.5,0.7-5,1.5-7.4,2.3c-1.7-8-7-15.1-15.2-18.3c-1.8-0.7-3.8-1.2-5.8-1.5
					c-4.9,12.7-10.6,25-16.6,37.1c-3,6.1-6.1,12.1-9.2,18.1c-8.4,13.8-20.5,24.9-32.7,35.3c-9.5,8-19.9,13.7-26.8,24.1
					c-6.3,9.5-10.7,20.1-15.8,30.3c-3.4,6.8-7.4,13.3-11.8,19.5c-1.4,1.9-4.4,0.5-3.7-1.8c0,0,0-0.1,0-0.1c1.1-4.1,2.2-8.1,3.3-12.2
					c1.7-6.3,3.5-12.5,5.2-18.8c0.8-3.1,1.7-6.1,2.7-9.2c1.3-3,2.6-5.9,3.9-8.8c1.3-2.9,2.6-5.9,4-8.8c8.1-17.9,23.1-31.9,29.1-51.9
					c4-15,7-29,13.7-41.7c1.2-2.5,2.4-4.9,3.6-7.4c1.2-2.5,2.3-5,3.4-7.5c0.3-0.7,0.8-1.5,1.1-2.3c0.2-0.5,0.4-1.2,0.8-2
					c1-2.2,1.8-4.5,2.6-6.7c1.3-3.7,3.3-7,5.7-9.6c-1.8-4.3-4.9-7.9-9.2-10.3c-7.2-4.1-17-3.7-23.2,2c-1.6,1.5-3.2,3.1-4.6,4.8
					c-3-2.6-6.8-4.4-11.2-5.4c-1.3-0.3-2.6-0.4-3.9-0.4c-0.7-2.9-1.8-5.6-3.9-8.2c-2.5-3.2-6.5-5.9-10.5-7.2
					c0.4,11.7-0.4,23.3-2.3,34.9c-1.3,7.9-2.9,15.9-5,23.7c-0.7,2.6-1.5,5.2-2.4,7.7c-5.7,18.7-14.7,36.7-22.1,54.7
					c-1.2,2.8-2.3,5.6-3.4,8.4c-2.2,5.6-4,11.4-5.3,17.3c-0.7,3.2-1.2,6.5-1.6,9.8c-0.6,4.8-1,9.7-1.2,14.5
					c-0.8,21.3,1.4,42.8-2.4,63.9c-2.4,13.3-6.5,25.5-13.6,37c-7.1,11.4-17.7,19.4-28.6,26.8c-4.9,3.3-9.5,6.8-13.9,10.7
					c-0.1,0.1-0.1,0.1-0.2,0.2c-0.9,1.3-1.8,2.6-2.8,3.8c-0.2,0.3-0.3,0.5-0.5,0.6c-1.1,2.1-2.3,4.2-3.5,6.2
					c-0.5,0.9-0.9,1.8-1.3,2.6c-0.8,1.5-1.5,3.1-2.2,4.7c-1.5,3.2-2.8,6.4-4.1,9.6c-2.4,6-4.5,12.1-6.5,18.3
					c-7.1,22.5-11.1,46-19.1,68.2c-8.5,23.7-22.2,44.2-40.2,61.8c-19.7,19.2-44.1,32.9-68.5,45.1c-12,6-24.1,11.7-35.9,17.9
					c-5.9,3.1-11.8,6.4-17.6,9.8c-0.2,0.1-0.7,0.4-1.2,0.7c-0.1,0.2-0.2,0.3-0.3,0.5c-0.2,3.6,0.4,7.2,1.9,10.3
					c5.6,11.3,16.8,15,27.9,10.9c42.5-15.7,85.3-31.9,123.8-56.6c36.1-23.2,47.7-37.6,66.4-76.9c4.9-10.4,10-21,17.8-29.7
					c8.3-9.3,42.7-30.7,51-39.9c11.7-13.1,19.1-28.9,28-43.9c9.2-15.3,20.8-29.8,35.6-40.1c16-11.2,36.1-16.4,53.5-25.3
					c15.3-7.8,27.6-21.1,37.5-35.3c9.8-14.1,18.8-30.7,28.8-45.4c10.8-15.9,25.9-23.6,38.6-37.4C503.4,68,499.5,54.9,497.8,45.6z
					 M378.1,55.6c0.1-0.2,1.1-1.2,1.3-1.2C378.9,54.9,378.5,55.3,378.1,55.6z"/>
			</g>
		</g>
		<g style="clip-path:url(#SVGID_00000012432471602062425980000018229597876177465518_);">
			<path class="st1" d="M643.5,599.8C641.8,602.2,642.7,601.2,643.5,599.8L643.5,599.8z"/>
			<path class="st1" d="M751.3,535.8c-1.2-1.8-2.6-3.5-4.1-4.9c6.1-7.2,7.2-19.2,2.3-26.8c-7.3-11.4-19.7-13.6-31.5-8.3
				c-21.7,9.8-42.8,21.5-56.3,41.9c-7.3,10.9-10.3,23.8-12.3,36.6c-0.9,5.8-1.7,11.7-3.2,17.4c-0.6,2.3-1.3,4.6-2.1,6.9
				c-0.1,0.4-0.4,0.9-0.6,1.3c0.2-0.2,0.3-0.5,0.6-0.8c-0.8,1.2-1.4,3-2,4.3c-1.2,2.4-2.5,4.7-3.9,6.9c-0.8,1.4-1.8,2.6-2.7,4
				c-0.4,0.6-0.6,1.2-0.7,1.5c-2.8,3.8-7.4,7.2-10.7,10c-0.9,0.6-1.7,1.2-2.6,1.8c-2,1.4-4.1,2.7-6.1,4c-4.6,2.9-9.2,5.6-13.8,8.5
				c-9.2,5.8-18.4,12.3-25.4,20.7c-10.2,12.3-15.6,26.2-16.6,42.1c-2.2,32.7,18,59.8,36.9,84.2c3.4,4.3,11.1,6.7,16.3,6.7
				c5.6,0,12.4-2.5,16.3-6.7c4-4.4,7-10.1,6.7-16.3c-0.3-6.5-2.8-11.2-6.7-16.3c0-0.1-1-1.3-1.6-2.1c-0.6-0.8-1.2-1.6-1.3-1.7
				c-1.6-2.1-3.2-4.3-4.7-6.5c-2-2.8-4-5.8-5.8-8.7c8.6,4.9,21.1,3.5,27.8-3.8c8.4-9.1,8.6-21.6,1.2-31.1c-0.1-0.1-0.2-0.3-0.2-0.4
				c0-0.2,0-0.5,0-0.6c0-0.3,0-0.6,0-0.8c0.3-1.2,0.6-2.3,1-3.5c0,0,0-0.1,0-0.1c0.7-1.2,1.4-2.3,2.1-3.5c0.4-0.5,0.9-1.1,1.1-1.4
				c9.5-10.6,21.6-18.4,31.2-28.9c10.4-11.2,19.4-23.9,26.5-37.5c5.7-10.9,10.4-22.3,16.3-33c1.7-3.1,3.5-6.2,5.4-9.1
				c0.8-1.2,1.7-2.4,2.5-3.6c0.2-0.2,0.3-0.4,0.5-0.6c2.2-2.6,4.6-5,7.2-7.3c0,0,0,0,0,0c0.1,0,0.1-0.1,0.2-0.1c1.6-1,3.1-2,4.8-2.9
				C753.6,561.5,757.9,546.1,751.3,535.8z"/>
		</g>
	</g>
	<path class="st2" d="M726.7,309.3c-0.4-5-1.6-9.4-4-12.4c-4.4-5.6-10.2,0.6-12.5,7c-7.4,20.1-9.8,44.4-13.7,66.2
		c-1.1,6.4-0.5,15.7,5.8,11.3c9.2-6.5,16.7-27.9,20.5-41C725.1,332.5,727.6,319.7,726.7,309.3z"/>
	<g>
		<path class="st1" d="M166.1,598.2c-17.7-19.1-29.5-41-38.3-65.4c-0.6-1.7-1.4-3.6-3-4.4c-4-2-8.5,3.8-10.5,6.7
			c-4.2,6.3-6.2,13.5-6.2,21c-0.1,15.1,7,29.9,15.8,41.8c12.7,17.2,27.8,32.2,46.8,42.2c0.2,0.1,0.5,0.2,0.7,0.4
			c3.2,1.6,6.6,3,10.2,2.5c7.4-1.1,10.8-10.2,7.8-16.6C184.3,615.6,174,606.8,166.1,598.2z"/>
		<path class="st1" d="M240.7,657.5c-0.1-0.2-0.2-0.4-0.3-0.5c-4.1-7.5-13.2-11.7-20.4-15.6c-8.1-4.4-28.6,6-18.8,14.6
			C208.7,662.5,253.8,683.2,240.7,657.5z"/>
	</g>
</g>
<g id="stars">
	<path class="st3" d="M202.8,447.4c-0.5-1.7-2.3-2.5-3.9-2.1c-1,0.3-1.9,0.9-2.4,1.7c-0.7,1.1-0.5,2.4,0,3.5
		c0.7,1.3,2.5,1.7,3.7,1.1c0.5-0.2,0.9-0.5,1.3-0.9c0,0,0,0,0.1-0.1c0,0,0,0,0,0.1c0,0,0.1-0.1,0.1-0.1c0.3-0.2,0.6-0.5,0.8-0.8
		C202.9,449,203,448.1,202.8,447.4z"/>
	<path class="st3" d="M215.9,404.7c-1.8,0-1.8,2.8,0,2.8C217.7,407.5,217.7,404.7,215.9,404.7z"/>
	<path class="st3" d="M225.6,425.3c-1.4-2.5-3.4-1.5-4.4-0.5c-1,2,0,3,2.3,3.2C224.8,427.7,225.7,426.5,225.6,425.3z"/>
	<path class="st3" d="M167.3,498.1c-1.4-2.5-3.4-1.5-4.4-0.5c-1,2,0,3,2.3,3.2C166.5,500.5,167.4,499.3,167.3,498.1z"/>
	<path class="st3" d="M189.9,429c-0.7,0-0.7,1,0,1C190.6,430,190.6,429,189.9,429z"/>
	<path class="st3" d="M130.6,588.3c-2.1,0-2.1,3.3,0,3.3C132.7,591.6,132.7,588.3,130.6,588.3z"/>
	<path class="st3" d="M176.6,526.1c-2.1,0-2.1,3.3,0,3.3C178.7,529.4,178.7,526.1,176.6,526.1z"/>
	<g>
		<g>
			<path class="st3" d="M538.7,426.7c0.3,0.1,0.7,0.2,1,0.3c0.7,0.1,1.3,0,1.9-0.1c0.9-0.2,1.6-1.2,1.6-2c0-0.9-0.6-1.9-1.6-2
				c-0.7-0.1-1.3-0.3-1.9-0.1c-0.3,0.1-0.7,0.2-1,0.3c-0.8,0.2-1.5,1-1.4,1.9C537.3,425.7,537.9,426.5,538.7,426.7L538.7,426.7z"/>
		</g>
	</g>
	<g>
		<g>
			<path class="st3" d="M555.1,642.1c0.4,0,0.7-0.1,1.1-0.2c0.3-0.1,0.6-0.3,0.9-0.6c0.3-0.3,0.5-0.5,0.6-0.9
				c0.2-0.3,0.3-0.7,0.2-1.1c0-0.2-0.1-0.5-0.1-0.7c-0.1-0.5-0.4-0.9-0.7-1.2c-0.5-0.5-1.2-0.8-2-0.8c-0.4,0-0.7,0.1-1.1,0.2
				c-0.3,0.1-0.6,0.3-0.9,0.6c-0.3,0.3-0.5,0.5-0.6,0.9c-0.2,0.3-0.3,0.7-0.2,1.1c0,0.2,0.1,0.5,0.1,0.7c0.1,0.5,0.4,0.9,0.7,1.2
				C553.7,641.8,554.4,642.1,555.1,642.1L555.1,642.1z"/>
		</g>
	</g>
	<g>
		<g>
			<path class="st3" d="M543.4,389.1c0.3-1.3,0.6-2.5,0.4-3.8c-0.1-1.1-0.2-2.1-0.7-3.1c-0.2-0.3-0.4-0.7-0.6-1
				c-1.2-2.2-4.4-2.6-6.1-0.8c-0.3,0.3-0.5,0.5-0.8,0.8c-0.7,0.8-1.1,1.7-1.5,2.8c-0.5,1.2-0.5,2.5-0.5,3.8c0,2.5,1.9,4.6,4.3,4.9
				C540.4,393,542.8,391.5,543.4,389.1L543.4,389.1z"/>
		</g>
	</g>
	<g>
		<g>
			<path class="st3" d="M573.9,446.8c1.7,0,1.8-2.7,0-2.7C572.2,444.1,572.2,446.8,573.9,446.8L573.9,446.8z"/>
		</g>
	</g>
	<g>
		<g>
			<path class="st3" d="M586.7,244.6c0.2,0,0.4-0.1,0.6-0.1c0.2,0,0.4-0.2,0.5-0.4c0.1-0.2,0.2-0.4,0.2-0.6c0-0.2-0.1-0.4-0.1-0.5
				c-0.1-0.2-0.4-0.4-0.6-0.5c-0.2,0-0.4-0.1-0.6-0.1c-0.4-0.1-0.8,0-1.1,0.3c-0.2,0.2-0.3,0.5-0.3,0.8c0,0.3,0.1,0.6,0.3,0.8
				C585.9,244.6,586.3,244.7,586.7,244.6L586.7,244.6z"/>
		</g>
	</g>
	<g>
		<g>
			<path class="st3" d="M593.8,267.8c0.2,0,0.4-0.1,0.6-0.1c0.2,0,0.4-0.2,0.5-0.4c0.1-0.2,0.2-0.4,0.2-0.6c0-0.2-0.1-0.4-0.1-0.5
				c-0.1-0.2-0.4-0.4-0.6-0.5c-0.2,0-0.4-0.1-0.6-0.1c-0.4-0.1-0.8,0-1.1,0.3c-0.2,0.2-0.3,0.5-0.3,0.8c0,0.3,0.1,0.6,0.3,0.8
				C592.9,267.8,593.3,267.8,593.8,267.8L593.8,267.8z"/>
		</g>
	</g>
	<g>
		<g>
			<path class="st3" d="M516,330.9c0.1,0.1,0.1,0.1,0.2,0.2c0.4,0.2,0.9,0.4,1.3,0.4c0.5,0,0.9-0.1,1.3-0.4c0,0,0,0,0,0
				c0.2-0.1,0.4-0.3,0.5-0.4c0.1-0.1,0.3-0.4,0.4-0.6c0,0,0-0.1,0.1-0.1c0.2-0.4,0.3-0.8,0.3-1.2c0-0.4-0.1-0.8-0.3-1.2
				c0,0,0-0.1-0.1-0.1c-0.1-0.1-0.2-0.2-0.2-0.3c-0.1-0.2-0.3-0.4-0.5-0.5c-0.1-0.1-0.2-0.2-0.3-0.2c-0.4-0.2-0.9-0.4-1.3-0.4
				c-0.5,0-0.9,0.1-1.3,0.4c-0.1,0.1-0.1,0.1-0.2,0.2c-0.4,0.2-0.7,0.5-0.9,0.9c-0.2,0.4-0.3,0.8-0.3,1.3c0,0.4,0.1,0.9,0.3,1.3
				C515.3,330.4,515.6,330.7,516,330.9L516,330.9z"/>
		</g>
	</g>
	<g>
		<g>
			<path class="st3" d="M573.9,287c0.3,0.1,0.7,0.2,1,0.3c0.7,0.1,1.3,0,1.9-0.1c0.9-0.2,1.6-1.2,1.6-2c0-0.9-0.6-1.9-1.6-2
				c-0.7-0.1-1.3-0.3-1.9-0.1c-0.3,0.1-0.7,0.2-1,0.3c-0.8,0.2-1.5,1-1.4,1.9C572.5,286,573,286.7,573.9,287L573.9,287z"/>
		</g>
	</g>
	<g>
		<g>
			<path class="st3" d="M716.3,319.2c0.3,0.1,0.7,0.2,1,0.3c0.7,0.1,1.3,0,1.9-0.1c0.9-0.2,1.6-1.2,1.6-2c0-0.9-0.6-1.9-1.6-2
				c-0.6-0.1-1.3-0.3-1.9-0.1c-0.3,0.1-0.7,0.2-1,0.3c-0.8,0.2-1.5,1-1.4,1.9C714.9,318.1,715.4,318.9,716.3,319.2L716.3,319.2z"/>
		</g>
	</g>
	<g>
		<g>
			<path class="st3" d="M521.5,478.7c0.4,0,0.7-0.1,1.1-0.2c0.3-0.1,0.6-0.3,0.9-0.6c0.3-0.3,0.5-0.5,0.6-0.9
				c0.2-0.3,0.3-0.7,0.2-1.1c0-0.2-0.1-0.5-0.1-0.7c-0.1-0.5-0.4-0.9-0.7-1.2c-0.5-0.5-1.2-0.8-2-0.8c-0.4,0-0.7,0.1-1.1,0.2
				c-0.3,0.1-0.6,0.3-0.9,0.6c-0.3,0.3-0.5,0.5-0.6,0.9c-0.2,0.3-0.3,0.7-0.2,1.1c0,0.2,0.1,0.5,0.1,0.7c0.1,0.5,0.4,0.9,0.7,1.2
				C520.1,478.4,520.7,478.7,521.5,478.7L521.5,478.7z"/>
		</g>
	</g>
	<g>
		<g>
			<path class="st3" d="M504.2,551.9c0,0.1-0.1,0.3-0.1,0.4c0.3-0.4,0.7-0.9,1-1.3c-0.7,0.5-1.2,1-1.5,1.9c-0.1,0.4-0.1,0.8-0.1,1.1
				c0,1.2,0.5,2.2,1.3,3.1c1.1,1.2,2.6,1.4,4.1,1.1c1.1-0.2,2-0.9,2.6-1.8c0.4-0.6,0.5-1.7,0.3-2.4c-0.3-0.8-0.7-1.3-1.4-1.8
				c1.2,0.9,0-0.1-0.3-0.2c-0.1-0.1-0.2-0.1-0.3-0.2c0.2,0.2,0.5,0.4,0.7,0.6c-0.7-0.5-1.2-1.1-2.1-1.2c-0.5-0.1-1-0.2-1.6-0.3
				c0.3,0,0.6,0.1,0.9,0.1c-0.5-0.1-0.9-0.2-1.4-0.2c0.7,0.5,1.4,1.1,2.1,1.6c-0.1-0.1-0.1-0.3-0.1-0.4c-0.2-0.9-1.2-1.6-2-1.5
				C505.3,550.4,504.5,551,504.2,551.9L504.2,551.9z"/>
		</g>
	</g>
	<g>
		<g>
			<path class="st3" d="M543.6,549.8c1.7,0,1.8-2.7,0-2.7C541.8,547.1,541.8,549.8,543.6,549.8L543.6,549.8z"/>
		</g>
	</g>
	<g>
		<g>
			<path class="st3" d="M553.8,487.8c0.2,0,0.4-0.1,0.6-0.1c0.2,0,0.4-0.2,0.5-0.4c0.1-0.2,0.2-0.4,0.2-0.6c0-0.2-0.1-0.4-0.1-0.5
				c-0.1-0.2-0.4-0.4-0.6-0.5c-0.2,0-0.4-0.1-0.6-0.1c-0.4-0.1-0.8,0-1.1,0.3c-0.2,0.2-0.3,0.5-0.3,0.8c0,0.3,0.1,0.6,0.3,0.8
				C553,487.8,553.4,487.9,553.8,487.8L553.8,487.8z"/>
		</g>
	</g>
	<g>
		<g>
			<path class="st3" d="M485.7,433.9c0.1,0.1,0.1,0.1,0.2,0.2c0.4,0.2,0.9,0.4,1.3,0.4c0.5,0,0.9-0.1,1.3-0.4c0,0,0,0,0,0
				c0.2-0.1,0.4-0.3,0.5-0.4c0.1-0.1,0.3-0.4,0.4-0.6c0,0,0-0.1,0.1-0.1c0.2-0.4,0.3-0.8,0.3-1.2c0-0.4-0.1-0.8-0.3-1.2
				c0,0,0-0.1-0.1-0.1c-0.1-0.1-0.2-0.2-0.2-0.3c-0.1-0.2-0.3-0.4-0.5-0.5c-0.1-0.1-0.2-0.2-0.3-0.2c-0.4-0.2-0.9-0.4-1.3-0.4
				c-0.5,0-0.9,0.1-1.3,0.4c-0.1,0.1-0.1,0.1-0.2,0.2c-0.4,0.2-0.7,0.5-0.9,0.9c-0.2,0.4-0.3,0.8-0.3,1.3c0,0.4,0.1,0.9,0.3,1.3
				C485,433.4,485.3,433.7,485.7,433.9L485.7,433.9z"/>
		</g>
	</g>
	<g>
		<g>
			<path class="st3" d="M191.1,490.4c-0.1-0.2-0.2-0.3-0.3-0.5c-0.3-0.6-0.9-0.9-1.6-0.9c-0.6,0-1.3,0.3-1.6,0.9
				c-0.1,0.2-0.2,0.3-0.3,0.5c-0.4,0.7-0.4,1.5,0,2.2c0.4,0.7,1.1,1.1,1.9,1.1c0.8,0,1.5-0.4,1.9-1.1
				C191.5,491.9,191.5,491.1,191.1,490.4L191.1,490.4z"/>
		</g>
	</g>
	<path class="st3" d="M293,577.8c-0.4-1.4-1.9-2.1-3.2-1.7c-0.8,0.2-1.5,0.7-1.9,1.4c-0.5,0.9-0.4,1.9,0,2.8c0.6,1.1,2,1.4,3,0.9
		c0.4-0.2,0.8-0.4,1-0.7c0,0,0,0,0.1,0c0,0,0,0,0,0c0,0,0.1-0.1,0.1-0.1c0.2-0.2,0.5-0.4,0.6-0.7C293.1,579.2,293.2,578.4,293,577.8
		z"/>
	<path class="st3" d="M303.6,543.3c-1.5,0-1.5,2.3,0,2.3C305.1,545.5,305.1,543.3,303.6,543.3z"/>
	<path class="st3" d="M302.7,615c-1.3-2.6-4.6-3.4-6.2-0.2c-0.8,2.4-0.8,4.9,1.6,6.5c3.2,0.8,4.9-0.8,4.8-3.8
		C303,616.6,302.9,615.8,302.7,615z"/>
	<path class="st3" d="M581,668.7c-1.1-2-2.8-1.2-3.6-0.4c-0.8,1.6,0,2.4,1.9,2.6C580.3,670.6,581.1,669.6,581,668.7z"/>
	<path class="st3" d="M282.6,562.9c-0.5,0-0.5,0.8,0,0.8C283.1,563.7,283.1,562.9,282.6,562.9z"/>
	<path class="st3" d="M266.4,622.4c-1.7,0-1.7,2.7,0,2.7C268.1,625.1,268.1,622.4,266.4,622.4z"/>
	<path class="st3" d="M231.7,653.9c-1.7,0-1.7,2.7,0,2.7C233.4,656.6,233.4,653.9,231.7,653.9z"/>
	<g>
		<g>
			<path class="st3" d="M283.9,612.5c-0.1-0.1-0.2-0.2-0.3-0.4c-0.2-0.3-0.4-0.5-0.7-0.7c-0.3-0.2-0.6-0.2-0.9-0.2
				c-0.3,0-0.6,0.1-0.9,0.2c-0.3,0.2-0.5,0.4-0.7,0.7c-0.1,0.1-0.2,0.2-0.3,0.4c-0.2,0.3-0.3,0.7-0.3,1.1c0,0.4,0.1,0.8,0.3,1.1
				c0.4,0.7,1.1,1.1,1.9,1.1c0.8,0,1.5-0.4,1.9-1.1c0.2-0.3,0.3-0.7,0.3-1.1C284.2,613.2,284.1,612.8,283.9,612.5L283.9,612.5z"/>
		</g>
	</g>
	<g>
		<g>
			<path class="st3" d="M221.6,653.1c-0.1-0.1-0.2-0.2-0.3-0.4c-0.2-0.3-0.4-0.5-0.7-0.7c-0.3-0.2-0.6-0.2-0.9-0.2
				c-0.3,0-0.6,0.1-0.9,0.2c-0.3,0.2-0.5,0.4-0.7,0.7c-0.1,0.1-0.2,0.2-0.3,0.4c-0.2,0.3-0.3,0.7-0.3,1.1c0,0.4,0.1,0.8,0.3,1.1
				c0.4,0.7,1.1,1.1,1.9,1.1s1.5-0.4,1.9-1.1c0.2-0.3,0.3-0.7,0.3-1.1C221.9,653.8,221.8,653.4,221.6,653.1L221.6,653.1z"/>
		</g>
	</g>
	<path class="st3" d="M570,310.4c-1.5,0-1.5,2.3,0,2.3C571.5,312.7,571.5,310.4,570,310.4z"/>
	<path class="st3" d="M706.7,349.9c-1.5,0-1.5,2.3,0,2.3C708.2,352.2,708.2,349.9,706.7,349.9z"/>
	<path class="st3" d="M571.1,357.6c-1.5,0-1.5,2.3,0,2.3C572.6,359.9,572.6,357.6,571.1,357.6z"/>
	<path class="st3" d="M548.9,453.7c-1.1-2-2.8-1.2-3.6-0.4c-0.8,1.6,0,2.4,1.9,2.6C548.2,455.7,548.9,454.7,548.9,453.7z"/>
	<path class="st3" d="M618.4,288.5c-0.8,0-0.8,1.2,0,1.2C619.1,289.7,619.1,288.5,618.4,288.5z"/>
	<path class="st3" d="M604.6,694.6c-1.7,0-1.7,2.7,0,2.7C606.3,697.2,606.3,694.6,604.6,694.6z"/>
	<g>
		<g>
			<path class="st3" d="M585.9,611.8c-0.1-0.1-0.2-0.2-0.3-0.4c-0.2-0.3-0.4-0.5-0.7-0.7c-0.3-0.2-0.6-0.2-0.9-0.2
				c-0.3,0-0.6,0.1-0.9,0.2c-0.3,0.2-0.5,0.4-0.7,0.7c-0.1,0.1-0.2,0.2-0.3,0.4c-0.2,0.3-0.3,0.7-0.3,1.1c0,0.4,0.1,0.8,0.3,1.1
				c0.4,0.7,1.1,1.1,1.9,1.1c0.8,0,1.5-0.4,1.9-1.1c0.2-0.3,0.3-0.7,0.3-1.1C586.2,612.5,586.1,612.2,585.9,611.8L585.9,611.8z"/>
		</g>
	</g>
	<path class="st3" d="M595,563.3c-0.4-1.4-1.9-2.1-3.2-1.7c-0.8,0.2-1.5,0.7-1.9,1.4c-0.5,0.9-0.4,1.9,0,2.8c0.6,1.1,2,1.4,3,0.9
		c0.4-0.2,0.8-0.4,1-0.7c0,0,0,0,0.1,0c0,0,0,0,0,0c0,0,0.1-0.1,0.1-0.1c0.2-0.2,0.5-0.4,0.6-0.7C595.1,564.7,595.2,564,595,563.3z"
		/>
	<path class="st3" d="M605.6,528.8c-1.5,0-1.5,2.3,0,2.3C607.1,531.1,607.1,528.8,605.6,528.8z"/>
	<path class="st3" d="M613.5,545.5c-1.1-2-2.8-1.2-3.6-0.4c-0.8,1.6,0,2.4,1.9,2.6C612.9,547.4,613.6,546.5,613.5,545.5z"/>
	<path class="st3" d="M584.6,548.4c-0.5,0-0.5,0.8,0,0.8C585.1,549.3,585.1,548.4,584.6,548.4z"/>
	<path class="st3" d="M330.9,490.2c-1.7,0-1.7,2.7,0,2.7C332.6,492.9,332.6,490.2,330.9,490.2z"/>
	<g>
		<g>
			<path class="st3" d="M631.6,257.7c-0.1-0.1-0.2-0.2-0.3-0.4c-0.2-0.3-0.4-0.5-0.7-0.7c-0.3-0.2-0.6-0.2-0.9-0.2
				c-0.3,0-0.6,0.1-0.9,0.2c-0.3,0.2-0.5,0.4-0.7,0.7c-0.1,0.1-0.2,0.2-0.3,0.4c-0.2,0.3-0.3,0.7-0.3,1.1c0,0.4,0.1,0.8,0.3,1.1
				c0.4,0.7,1.1,1.1,1.9,1.1c0.8,0,1.5-0.4,1.9-1.1c0.2-0.3,0.3-0.7,0.3-1.1C631.9,258.4,631.8,258,631.6,257.7L631.6,257.7z"/>
		</g>
	</g>
	<path class="st3" d="M286.4,234c-0.5-1.7-2.3-2.5-3.9-2.1c-1,0.3-1.9,0.9-2.4,1.7c-0.7,1.1-0.5,2.4,0,3.5c0.7,1.3,2.5,1.7,3.7,1.1
		c0.5-0.2,0.9-0.5,1.3-0.9c0,0,0,0,0.1-0.1c0,0,0,0,0,0.1c0,0,0.1-0.1,0.1-0.1c0.3-0.2,0.6-0.5,0.8-0.8
		C286.5,235.6,286.6,234.7,286.4,234z"/>
	<path class="st3" d="M299.5,191.3c-1.8,0-1.8,2.8,0,2.8C301.3,194.2,301.3,191.3,299.5,191.3z"/>
	<path class="st3" d="M309.2,211.9c-1.4-2.5-3.4-1.5-4.4-0.5c-1,2,0,3,2.3,3.2C308.4,214.3,309.3,213.2,309.2,211.9z"/>
	<path class="st3" d="M273.5,215.6c-0.7,0-0.7,1,0,1C274.1,216.6,274.1,215.6,273.5,215.6z"/>
	<path class="st3" d="M259.5,301.1c-2.1,0-2.1,3.3,0,3.3C261.6,304.4,261.6,301.1,259.5,301.1z"/>
	<g>
		<g>
			<path class="st3" d="M274.7,277c-0.1-0.2-0.2-0.3-0.3-0.5c-0.3-0.6-0.9-0.9-1.6-0.9s-1.3,0.3-1.6,0.9c-0.1,0.2-0.2,0.3-0.3,0.5
				c-0.4,0.7-0.4,1.5,0,2.2c0.4,0.7,1.1,1.1,1.9,1.1c0.8,0,1.5-0.4,1.9-1.1C275.1,278.5,275.1,277.7,274.7,277L274.7,277z"/>
		</g>
	</g>
	<path class="st3" d="M252,329c-0.5-1.7-2.3-2.5-3.9-2.1c-1,0.3-1.9,0.9-2.4,1.7c-0.7,1.1-0.5,2.4,0,3.5c0.7,1.3,2.5,1.7,3.7,1.1
		c0.5-0.2,0.9-0.5,1.3-0.9c0,0,0,0,0.1-0.1c0,0,0,0,0,0.1c0,0,0.1-0.1,0.1-0.1c0.3-0.2,0.6-0.5,0.8-0.8
		C252,330.6,252.2,329.7,252,329z"/>
	<path class="st3" d="M265,286.3c-1.8,0-1.8,2.8,0,2.8C266.9,289.1,266.9,286.3,265,286.3z"/>
	<path class="st3" d="M549,340.6c-1.8,0-1.8,2.8,0,2.8C550.9,343.4,550.9,340.6,549,340.6z"/>
	<path class="st3" d="M274.8,306.9c-1.4-2.5-3.4-1.5-4.4-0.5c-1,2,0,3,2.3,3.2C274,309.3,274.8,308.1,274.8,306.9z"/>
	<path class="st3" d="M239,310.5c-0.7,0-0.7,1,0,1C239.7,311.6,239.7,310.5,239,310.5z"/>
	<path class="st3" d="M225,396.1c-2.1,0-2.1,3.3,0,3.3C227.2,399.4,227.2,396.1,225,396.1z"/>
	<g>
		<g>
			<path class="st3" d="M590.8,328.6c0.3,0.1,0.7,0.2,1,0.3c0.7,0.1,1.3,0,1.9-0.1c0.9-0.2,1.6-1.2,1.6-2c0-0.9-0.6-1.9-1.6-2
				c-0.7-0.1-1.3-0.3-1.9-0.1c-0.3,0.1-0.7,0.2-1,0.3c-0.8,0.2-1.5,1-1.4,1.9C589.4,327.6,590,328.4,590.8,328.6L590.8,328.6z"/>
		</g>
	</g>
	<g>
		<g>
			<path class="st3" d="M606.5,167.6c1.7,0,1.8-2.7,0-2.7C604.7,164.9,604.7,167.6,606.5,167.6L606.5,167.6z"/>
		</g>
	</g>
	<g>
		<g>
			<path class="st3" d="M583.6,192.5c0.2,0,0.4-0.1,0.6-0.1c0.2,0,0.4-0.2,0.5-0.4c0.1-0.2,0.2-0.4,0.2-0.6c0-0.2-0.1-0.4-0.1-0.5
				c-0.1-0.2-0.4-0.4-0.6-0.5c-0.2,0-0.4-0.1-0.6-0.1c-0.4-0.1-0.8,0-1.1,0.3c-0.2,0.2-0.3,0.5-0.3,0.8c0,0.3,0.1,0.6,0.3,0.8
				C582.8,192.5,583.2,192.6,583.6,192.5L583.6,192.5z"/>
		</g>
	</g>
	<g>
		<g>
			<path class="st3" d="M638.4,202.5c0.1,0.1,0.1,0.1,0.2,0.2c0.4,0.2,0.9,0.4,1.3,0.4c0.5,0,0.9-0.1,1.3-0.4c0,0,0,0,0,0
				c0.2-0.1,0.4-0.3,0.5-0.4c0.1-0.1,0.3-0.4,0.4-0.6c0,0,0-0.1,0.1-0.1c0.2-0.4,0.3-0.8,0.3-1.2c0-0.4-0.1-0.8-0.3-1.2
				c0,0,0-0.1-0.1-0.1c-0.1-0.1-0.2-0.2-0.2-0.3c-0.1-0.2-0.3-0.4-0.5-0.5c-0.1-0.1-0.2-0.2-0.3-0.2c-0.4-0.2-0.9-0.4-1.3-0.4
				c-0.5,0-0.9,0.1-1.3,0.4c-0.1,0.1-0.1,0.1-0.2,0.2c-0.4,0.2-0.7,0.5-0.9,0.9c-0.2,0.4-0.3,0.8-0.3,1.3c0,0.4,0.1,0.9,0.3,1.3
				C637.7,202,638,202.3,638.4,202.5L638.4,202.5z"/>
		</g>
	</g>
	<g>
		<g>
			<path class="st3" d="M240.2,372c-0.1-0.2-0.2-0.3-0.3-0.5c-0.3-0.6-0.9-0.9-1.6-0.9s-1.3,0.3-1.6,0.9c-0.1,0.2-0.2,0.3-0.3,0.5
				c-0.4,0.7-0.4,1.5,0,2.2c0.4,0.7,1.1,1.1,1.9,1.1s1.5-0.4,1.9-1.1C240.6,373.5,240.6,372.6,240.2,372L240.2,372z"/>
		</g>
	</g>
	<path class="st3" d="M361.3,206.4h-0.7c-2.4,0-4.3-1.9-4.3-4.3v-0.7c0-0.6-0.5-1.1-1.1-1.1l0,0c-0.6,0-1.1,0.5-1.1,1.1v0.7
		c0,2.4-1.9,4.3-4.3,4.3h-0.7c-0.6,0-1.1,0.5-1.1,1.1l0,0c0,0.6,0.5,1.1,1.1,1.1h0.7c2.4,0,4.3,1.9,4.3,4.3v0.7
		c0,0.6,0.5,1.1,1.1,1.1l0,0c0.6,0,1.1-0.5,1.1-1.1v-0.7c0-2.4,1.9-4.3,4.3-4.3h0.7c0.6,0,1.1-0.5,1.1-1.1l0,0
		C362.4,206.9,361.9,206.4,361.3,206.4z"/>
	<path class="st3" d="M614.9,217.7h-0.4c-1.5,0-2.7-1.2-2.7-2.7v-0.4c0-0.4-0.3-0.7-0.7-0.7l0,0c-0.4,0-0.7,0.3-0.7,0.7v0.4
		c0,1.5-1.2,2.7-2.7,2.7h-0.4c-0.4,0-0.7,0.3-0.7,0.7l0,0c0,0.4,0.3,0.7,0.7,0.7h0.4c1.5,0,2.7,1.2,2.7,2.7v0.4
		c0,0.4,0.3,0.7,0.7,0.7l0,0c0.4,0,0.7-0.3,0.7-0.7v-0.4c0-1.5,1.2-2.7,2.7-2.7h0.4c0.4,0,0.7-0.3,0.7-0.7l0,0
		C615.6,218,615.3,217.7,614.9,217.7z"/>
	<path class="st3" d="M644.2,316.6h-0.4c-1.5,0-2.7-1.2-2.7-2.7v-0.4c0-0.4-0.3-0.7-0.7-0.7l0,0c-0.4,0-0.7,0.3-0.7,0.7v0.4
		c0,1.5-1.2,2.7-2.7,2.7h-0.4c-0.4,0-0.7,0.3-0.7,0.7l0,0c0,0.4,0.3,0.7,0.7,0.7h0.4c1.5,0,2.7,1.2,2.7,2.7v0.4
		c0,0.4,0.3,0.7,0.7,0.7l0,0c0.4,0,0.7-0.3,0.7-0.7v-0.4c0-1.5,1.2-2.7,2.7-2.7h0.4c0.4,0,0.7-0.3,0.7-0.7l0,0
		C644.9,316.9,644.6,316.6,644.2,316.6z"/>
	<path class="st3" d="M521.7,497.9h-0.5c-1.7,0-3.2-1.4-3.2-3.2v-0.5c0-0.4-0.4-0.8-0.8-0.8l0,0c-0.4,0-0.8,0.4-0.8,0.8v0.5
		c0,1.7-1.4,3.2-3.2,3.2h-0.5c-0.4,0-0.8,0.4-0.8,0.8l0,0c0,0.4,0.4,0.8,0.8,0.8h0.5c1.7,0,3.2,1.4,3.2,3.2v0.5
		c0,0.4,0.4,0.8,0.8,0.8l0,0c0.4,0,0.8-0.4,0.8-0.8v-0.5c0-1.7,1.4-3.2,3.2-3.2h0.5c0.4,0,0.8-0.4,0.8-0.8l0,0
		C522.5,498.2,522.2,497.9,521.7,497.9z"/>
	<path class="st3" d="M590.8,377.5h-0.5c-1.7,0-3.2-1.4-3.2-3.2v-0.5c0-0.4-0.4-0.8-0.8-0.8l0,0c-0.4,0-0.8,0.4-0.8,0.8v0.5
		c0,1.7-1.4,3.2-3.2,3.2h-0.5c-0.4,0-0.8,0.4-0.8,0.8l0,0c0,0.4,0.4,0.8,0.8,0.8h0.5c1.7,0,3.2,1.4,3.2,3.2v0.5
		c0,0.4,0.4,0.8,0.8,0.8l0,0c0.4,0,0.8-0.4,0.8-0.8v-0.5c0-1.7,1.4-3.2,3.2-3.2h0.5c0.4,0,0.8-0.4,0.8-0.8l0,0
		C591.6,377.8,591.3,377.5,590.8,377.5z"/>
	<path class="st3" d="M195.3,366.7h-0.5c-1.9,0-3.4-1.5-3.4-3.4v-0.5c0-0.5-0.4-0.9-0.9-0.9l0,0c-0.5,0-0.9,0.4-0.9,0.9v0.5
		c0,1.9-1.5,3.4-3.4,3.4h-0.5c-0.5,0-0.9,0.4-0.9,0.9l0,0c0,0.5,0.4,0.9,0.9,0.9h0.5c1.9,0,3.4,1.5,3.4,3.4v0.5
		c0,0.5,0.4,0.9,0.9,0.9l0,0c0.5,0,0.9-0.4,0.9-0.9v-0.5c0-1.9,1.5-3.4,3.4-3.4h0.5c0.5,0,0.9-0.4,0.9-0.9l0,0
		C196.1,367.1,195.7,366.7,195.3,366.7z"/>
	<path class="st3" d="M678.4,582.7H678c-1.4,0-2.5-1.1-2.5-2.5v-0.4c0-0.4-0.3-0.6-0.6-0.6l0,0c-0.4,0-0.6,0.3-0.6,0.6v0.4
		c0,1.4-1.1,2.5-2.5,2.5h-0.4c-0.4,0-0.6,0.3-0.6,0.6l0,0c0,0.4,0.3,0.6,0.6,0.6h0.4c1.4,0,2.5,1.1,2.5,2.5v0.4
		c0,0.4,0.3,0.6,0.6,0.6l0,0c0.4,0,0.6-0.3,0.6-0.6v-0.4c0-1.4,1.1-2.5,2.5-2.5h0.4c0.4,0,0.6-0.3,0.6-0.6l0,0
		C679,583,678.7,582.7,678.4,582.7z"/>
	<path class="st3" d="M716.3,337.5H716c-1.1,0-2-0.9-2-2v-0.3c0-0.3-0.2-0.5-0.5-0.5l0,0c-0.3,0-0.5,0.2-0.5,0.5v0.3
		c0,1.1-0.9,2-2,2h-0.3c-0.3,0-0.5,0.2-0.5,0.5l0,0c0,0.3,0.2,0.5,0.5,0.5h0.3c1.1,0,2,0.9,2,2v0.3c0,0.3,0.2,0.5,0.5,0.5l0,0
		c0.3,0,0.5-0.2,0.5-0.5v-0.3c0-1.1,0.9-2,2-2h0.3c0.3,0,0.5-0.2,0.5-0.5l0,0C716.8,337.8,716.6,337.5,716.3,337.5z"/>
	<path class="st3" d="M355.9,494.1h-0.4c-1.5,0-2.7-1.2-2.7-2.7v-0.4c0-0.4-0.3-0.7-0.7-0.7l0,0c-0.4,0-0.7,0.3-0.7,0.7v0.4
		c0,1.5-1.2,2.7-2.7,2.7h-0.4c-0.4,0-0.7,0.3-0.7,0.7v0c0,0.4,0.3,0.7,0.7,0.7h0.4c1.5,0,2.7,1.2,2.7,2.7v0.4c0,0.4,0.3,0.7,0.7,0.7
		l0,0c0.4,0,0.7-0.3,0.7-0.7v-0.4c0-1.5,1.2-2.7,2.7-2.7h0.4c0.4,0,0.7-0.3,0.7-0.7v0C356.6,494.4,356.3,494.1,355.9,494.1z"/>
	<path class="st3" d="M134,570.1h-0.4c-1.5,0-2.7-1.2-2.7-2.7v-0.4c0-0.4-0.3-0.7-0.7-0.7l0,0c-0.4,0-0.7,0.3-0.7,0.7v0.4
		c0,1.5-1.2,2.7-2.7,2.7h-0.4c-0.4,0-0.7,0.3-0.7,0.7l0,0c0,0.4,0.3,0.7,0.7,0.7h0.4c1.5,0,2.7,1.2,2.7,2.7v0.4
		c0,0.4,0.3,0.7,0.7,0.7l0,0c0.4,0,0.7-0.3,0.7-0.7v-0.4c0-1.5,1.2-2.7,2.7-2.7h0.4c0.4,0,0.7-0.3,0.7-0.7l0,0
		C134.7,570.4,134.4,570.1,134,570.1z"/>
	<g>
		<path class="st4" d="M624.4,396.7c0.3-1.3,5.2-1.2,10.8,0.3c5.6,1.5,9.9,3.8,9.5,5.1"/>
		<path class="st5" d="M634,401.8"/>
		<circle class="st6" cx="634.5" cy="399.7" r="4.7"/>
		<path class="st4" d="M644.7,402.1c-0.3,1.3-5.2,1.2-10.8-0.3c-5.6-1.5-9.9-3.8-9.5-5.1"/>
	</g>
	<g id="XMLID_6_">
		<g>
			<path class="st3" d="M210.9,544.9c1,0.5,2,1.3,2.6,2.4c0,0-2.8-0.3-5.4,3c-2.4,3-6.6,0.6-6.6,0.6c0-0.9,0.1-1.7,0.4-2.5
				c1.3,0.5,4,1.3,5.8-1C208.9,546.1,209.9,545.3,210.9,544.9z"/>
			<path class="st3" d="M208.1,550.3c2.6-3.3,5.4-3,5.4-3c0.5,0.8,0.8,1.6,0.9,2.5l-0.1,0c0,0-2.8-0.3-5.4,3c-2.4,3-6.6,0.6-6.6,0.6
				l-0.2,0.1c-0.4-0.8-0.6-1.7-0.6-2.6C201.6,550.9,205.7,553.3,208.1,550.3z"/>
			<path class="st1" d="M214.3,549.8l0.1,0c0.1,0.6,0.1,1.2,0,1.8c-1,0.1-2.8,0.7-4.6,3c-2.1,2.6-5.4,1.2-6.3,0.7
				c-0.3-0.3-0.6-0.7-0.9-1.1c-0.1-0.2-0.2-0.4-0.3-0.6l0.2-0.1c0,0,4.2,2.4,6.6-0.6C211.5,549.5,214.3,549.8,214.3,549.8z"/>
			<path class="st1" d="M210.9,544.9c-0.9,0.4-2,1.2-3.1,2.5c-1.8,2.2-4.5,1.5-5.8,1c0.5-1.3,1.4-2.4,2.6-3.2
				C206.6,544,208.9,544,210.9,544.9z"/>
			<path class="st3" d="M209.8,554.5c1.8-2.3,3.6-2.8,4.6-3c-0.2,1.8-1.3,3.6-3,4.6c-2.6,1.6-5.9,1.2-8-0.9
				C204.3,555.7,207.7,557.1,209.8,554.5z"/>
		</g>
		<g>
			<path class="st4" d="M213.5,547.3c0.5,0.8,0.8,1.6,0.9,2.5c0.1,0.6,0.1,1.2,0,1.8c-0.2,1.8-1.3,3.6-3,4.6c-2.6,1.6-5.9,1.2-8-0.9
				c-0.3-0.3-0.6-0.7-0.9-1.1c-0.1-0.2-0.2-0.4-0.3-0.6c-0.4-0.8-0.6-1.7-0.6-2.6c0-0.9,0.1-1.7,0.4-2.5c0.5-1.3,1.4-2.4,2.6-3.2
				c2-1.2,4.3-1.3,6.3-0.3C211.9,545.4,212.8,546.2,213.5,547.3z"/>
		</g>
	</g>
	<g>
		<path class="st3" d="M641.2,637.9l-5-5l13.4-13.4c0.7-0.7,1.6-1.2,2.5-1.3l4.8-0.9c0.9-0.2,1.9,0.1,2.6,0.8l0,0
			c1.1,1.1,1.1,2.9,0,4l-15.9,15.9C642.9,638.6,641.8,638.6,641.2,637.9z"/>
		<path class="st3" d="M640.2,628.9l-4,4l-2-2c-0.8-0.8-0.2-2.1,0.9-2.1L640.2,628.9z"/>
		
			<rect x="635.8" y="635.6" transform="matrix(0.7071 0.7071 -0.7071 0.7071 636.981 -265.1795)" class="st3" width="5.6" height="1.4"/>
		<path class="st7" d="M658.3,619.1l-1.1,1.1c-0.5,0.5-1.4,0.5-2,0l-1.9-1.9"/>
		<path class="st3" d="M655.5,623.5l-4.6,13.8c-0.4,1.1-1.8,1.4-2.7,0.6l-3.8-3.8"/>
		<path class="st7" d="M655.5,623.5l-4.6,13.8c-0.4,1.1-1.8,1.4-2.7,0.6l-3.8-3.8"/>
		<g>
			<path class="st8" d="M636.1,634.9c-2.5,2.2-5.3,4.9-7.6,7.7c-0.4,0.4,0.1,1.1,0.7,0.8l2.9-1.6c-2.1,2.9-3.9,5.3-5.7,8.1
				c-0.3,0.5,0.2,1,0.7,0.7c1.2-0.7,2.3-1.6,3.4-2.6c1.1-1,2.2-2,3.4-3c-1.1,1.9-1.9,3.8-2.3,5.9c-0.1,0.6,0.6,0.9,1,0.4
				c2.7-4.2,5.4-7.8,7.7-12.5"/>
		</g>
	</g>
</g>
<g id="char">
	<g id="XMLID_2_">
		<path class="st9" d="M356.5,409.1l4.2,25.6c-1,1.4-1.6,2.2-2.6,3.5c-23.1,3.9-56.9,10.1-70.4,30.7c-5.1,7.8-7,16.8-2.3,25
			c6,10.5,16.7,16.4,27.7,21.3c0.8,0.4,1.6,0.7,2.5,1.1c2.3,1,4.7,2,7.2,3c0.6,14.1-1.7,27.8-9.5,39.5c-2.3,3.5-5.1,6.7-8.3,9.4
			c-7.1-4.4-14-9.2-20.5-14.4c-18.6-14.8-41.5-37.2-41.5-62.7c0-15.2,10.4-29,21.6-38.2c11-9,24.4-17,38.8-23.2
			c10.9-4.7,22.4-8.3,33.6-10.5L356.5,409.1z"/>
		<path class="st10" d="M355,399.7l1.5,9.4L337,419.2c-11.2,2.2-22.6,5.8-33.6,10.5c-14.3,6.2-27.8,14.2-38.8,23.2
			c-11.3,9.3-21.7,23-21.6,38.2c0,25.4,22.9,47.9,41.5,62.7c6.5,5.2,13.4,10,20.5,14.4c-3.5,3.1-7.4,5.6-11.7,7.5
			c-12-6.2-23.3-13.5-33.8-21.9c-18.6-14.8-41.5-37.2-41.5-62.7c0-15.2,10.4-29,21.6-38.2c10.9-9,24.4-17,38.8-23.2
			c10.9-4.7,22.4-8.3,33.6-10.5l40.7-21.1C353.8,397.9,354.8,398.6,355,399.7z"/>
	</g>
	<g id="XMLID_3_">
		<path class="st10" d="M614.8,436.2c17.1,18.1,30.4,41.4,28.5,66c-2.2,28.4-20.5,52-42.9,68.2c-8.1,5.9-16.8,10.9-25.9,15.1
			c-2.8-1.9-5.3-4-7.6-6.5c4.6-2.6,9.1-5.5,13.5-8.7c22.5-16.2,40.7-39.8,42.9-68.2c1.9-24.6-11.4-47.8-28.5-66
			c-5.9-6.3-13-11.6-20.7-16.3c-22.4-13.6-49.9-21.4-66.7-27.3v-4.6l18.2,4c16.6,6,45.2,13.8,68.5,28
			C601.8,424.5,608.9,429.9,614.8,436.2z"/>
		<path class="st9" d="M594.8,436.2c17.1,18.1,30.4,41.4,28.5,66c-2.2,28.4-20.5,52-42.9,68.2c-4.3,3.1-8.8,6-13.5,8.7
			c-5.8-6.2-9.9-14-12.4-22.2c-3.4-11.2-3.9-23.2-3.3-34.9c4.2-1.7,8.1-3.8,11.7-6.3c8.7-6.1,14.8-15.4,16.8-25.4
			c7.8-38.1-35.4-58.9-68.3-64.8l-4.1-0.3v-32.6c16.8,6,44.2,13.7,66.7,27.3C581.8,424.5,588.9,429.9,594.8,436.2z"/>
	</g>
	<g>
		<g>
			<path class="st9" d="M519.6,372.4c6.7-2.7,13.7-5,20.9-5.5s14.8,0.8,20.8,4.9c6,4.1,10.2,11.1,9.8,18.3
				c-0.5,10.3-9.8,18.2-19.5,21.6c-5.4,1.9-11.2,2.8-16.9,1.9c-5.6-0.9-13.7-4.3-17.3-8.8"/>
		</g>
		<g>
			<path class="st9" d="M337.2,335.9c-4.2,37.7-3.8,83.5,22.5,113.6c32.4,37.2,92.2,42.2,129.6,9.3c28.8-25.4,33.3-72,29.5-110.8
				c-0.7-7.2,4.1-11.7,2.9-18.2l-2.2-20.2c-1.5-13.7-10.8-25.3-23.9-29.6C450.3,265.3,348.9,243.1,337.2,335.9z"/>
		</g>
		<g id="XMLID_4_">
			<path class="st10" d="M502.4,346.9c0.2,6.9,0.3,13.9,0.1,20.9c-0.3,11.4-1.4,22.8-3.7,34c-2.2,10.9-5.5,21.6-10.5,31.6
				c-4.8,9.6-11.1,18.4-19.1,25.5c-5.6,4.9-11.7,9-18.2,12.3c-13.3,6.7-28.8,6.8-42.2,0.4c-10.9-5.2-20.9-12.6-29.2-22
				c-26.2-30.2-26.7-75.9-22.5-113.6c5.7-45.6,33-63.4,64.8-68c20.4,2.4,39.6,7.7,53.6,12.2c13.1,4.3,22.4,15.9,23.9,29.5
				c0.6,5.7,1.2,11.5,1.9,17.2C502,333.5,502.2,340.3,502.4,346.9z"/>
		</g>
		<g>
			<path class="st9" d="M335.6,378.3c-7-1.8-14.2-3.1-21.5-2.7c-7.2,0.4-14.5,2.8-19.9,7.6c-5.4,4.8-8.6,12.3-7.3,19.5
				c1.9,10.1,12.2,16.7,22.3,18.8c5.6,1.1,11.5,1.3,17-0.3c5.5-1.6,14.3-6.3,17.2-11.3"/>
		</g>
		<path class="st10" d="M554.7,391.5c0.8,4.1-1.1,8.6-5.1,11.1c-3.2,2-7.2,2.5-11,2.6c-6.4,0-14.8-2.3-15.9-9.7
			c-1-6.6,5.1-12.1,11-13.5c0.2-0.1,0.5-0.1,0.7-0.1c5.4-0.9,11.9,0.7,16.3,3.9C553,387.2,554.3,389.3,554.7,391.5z"/>
		<path class="st10" d="M338.4,403.6c0.2,4-2.6,7.8-6.1,9.9c-6,3.5-14.9,4.3-21.3,1.8c-4.3-1.7-8-5.3-9-9.7
			c-2.2-10.1,9.7-15.1,17.8-15.1c6.8,0,17.4,4.9,18.5,12.4C338.3,403.2,338.3,403.4,338.4,403.6z"/>
	</g>
	<g>
		<path class="st9" d="M473.2,514.6c-0.3,0.3-0.5,0.7-0.8,1.1c-4.4,8.4-10.4,13.7-19.5,17.2c-7.5,2.9-15.9,3-22.8,0.3
			c-8.5-3.3-14.4-7.9-21.6-16.8c-0.3-0.3-0.6-0.6-0.9-0.9c8.9-10.4,12.1-25.7,10.2-38.7l46.6-8.7c-0.4,13.1-2.4,29.6,4.7,41.5
			C470.2,511.3,471.6,513,473.2,514.6z"/>
		<path class="st10" d="M446.3,480.7c-2.8,0.4-5.7,0.7-8.4,0.9c-5.8,0.5-10.6,4.9-11.5,10.7c-1.9,12.3-4.7,22.8-11.1,31.4
			c14.1,14.2,37.1,16.5,52.7-1.3c-5-5.1-9.4-20.2-11.3-33.8C455.9,483.6,451.3,480.1,446.3,480.7z"/>
	</g>
	<g>
		<g>
			<path class="st11" d="M400.9,308.8c6.4,0,6.4-10,0-10C394.5,298.8,394.5,308.8,400.9,308.8L400.9,308.8z"/>
		</g>
	</g>
	<g>
		<path class="st3" d="M499.3,403.6c2.5-9,2.5-18.6-1.1-27.2c-1.2-3-4-5.1-7.2-5.5c-26.3-3.5-51.1,2.7-75.2,12.4
			c-16.2,6.5-32,14.4-45.5,25.6c-1.7,1.4-2.3,3.7-1.5,5.7c4.5,10.9,10.7,19.3,20.7,25.6c14,8.8,31.2,10.9,47.4,8.9
			C464.1,445.7,491.5,431.9,499.3,403.6z"/>
	</g>
	<g>
		<defs>
			<path id="SVGID_00000008832441583285670490000014985501869031102862_" d="M499.3,403.6c2.5-9,2.5-18.6-1.1-27.2
				c-1.2-3-4-5.1-7.2-5.5c-26.3-3.5-51.1,2.7-75.2,12.4c-17.1,6.9-33.7,15.3-47.8,27.5c-0.3,0.3-0.4,0.7-0.3,1.1
				c4.6,12.3,11,21.6,21.8,28.3c14,8.8,31.2,10.9,47.4,8.9C464.1,445.7,491.5,431.9,499.3,403.6z"/>
		</defs>
		<clipPath id="SVGID_00000116234496731483763680000007935479071644197794_">
			<use xlink:href="#SVGID_00000008832441583285670490000014985501869031102862_"  style="overflow:visible;"/>
		</clipPath>
		<g style="clip-path:url(#SVGID_00000116234496731483763680000007935479071644197794_);">
			<path class="st13" d="M496.4,372.5c-5-1.2-13.7,0.3-18,3.9c-0.8,0.6-1.8,0.9-2.7,0.5c-2.9-0.9-9.3-2.2-9.8-2.3
				c-8.3-0.6-16.4,0.2-23.2,5.3c-0.3,0.2-0.6,0.5-1,0.6c-0.5,0.1-1.1,0-1.6-0.1c-5.4-1.2-11.2,0.1-16.5,1.4
				c-6.3,1.5-12.5,3.2-18.7,5.1l19.8-14.4l36.4-12.1l24,2.3l15.9,6.1L496.4,372.5z"/>
		</g>
		<g style="clip-path:url(#SVGID_00000116234496731483763680000007935479071644197794_);">
			<path class="st13" d="M488.8,427.8c-3.2,3.1-8,4.6-12.4,4c-1-0.1-2.1-0.4-3.1-0.1c-0.8,0.2-1.4,0.7-2.1,1.2
				c-7,5.3-15.4,10.5-23.8,8.2c-0.6-0.2-1.3-0.4-1.9-0.1c-0.7,0.3-1.1,1.1-1.4,1.8c-3.1,6.8-20.9,10.4-28,8.3c0,0,5.8,0.2,2.2,2.5
				s8.8,6.8,8.8,6.8l42.2-8.2l19.4-11V427.8z"/>
		</g>
	</g>
	<g>
		<g>
			<path class="st14" d="M491.5,391.9C491.6,391.9,491.6,391.9,491.5,391.9C491.5,391.9,491.5,391.9,491.5,391.9L491.5,391.9z"/>
		</g>
	</g>
	<g>
		<g>
			<g>
				<g id="XMLID_1_">
					<g>
						<path class="st15" d="M312,584.1c-1.3,1-2.7,1.8-4.2,2.6c-5.2,2.7-11.5,3.5-17,1.5c-1.1-0.4-2.2-0.9-3.2-1.7
							c-2.2-1.7-3.5-4.5-3.9-7.3c-0.4-2.8-0.1-5.6,0.2-8.4l0.1-0.2c3.1,1.8,6.2,3.5,9.4,5.1c8.1-3.6,15.1-9.6,20-16.9
							c7.8-11.7,10.1-25.4,9.5-39.5c-2.5-1-4.9-2-7.2-3c-0.1-0.1-0.3-0.1-0.4-0.2l0.4-1c3.4-3.9,6.4-6.6,11.5-6.6
							c4.9,0,9,4,10.7,8.5c0.9,2.4,1.3,5,1.3,7.6h0c18.4,5.1,38.5,7,55.1,0.2c2.1-0.9,4-1.9,5.8-3.1c0.1,0.2,0.3,0.5,0.5,0.7
							c8.4,10.3,15.6,15.9,25.8,19.9c4.5,1.8,9.4,2.6,14.4,2.6c5.2,0,10.6-1,15.6-2.9c11.4-4.3,19.2-11.3,24.8-21.8
							c7.1,3.9,15.7,6.2,22.9,7c9.8,1.1,20.7,0.8,30.9-1.1h0c0.2-0.8,0.4-1.7,0.7-2.5c1.5-5.4,4.2-11.3,9.5-13.2
							c5.5-1.9,11.5,1.3,15.8,5.3l0.4,0.7c-3.2,2.1-6.7,3.8-10.3,5.3c-0.6,11.7-0.1,23.7,3.3,34.9c3.4,11.4,10.1,22,20,28.6
							c3-1.4,6-2.9,9-4.5l0.1,0.2c2.6,9.7-7.1,20.2-17,18.4c-4-0.8-8.2-3.1-11.9-6.3c-4.2,1.4-8.4,2.6-12.7,3.6
							c-4.6,1.1-13.2,3.6-15.9,8c-2.8,4.7-0.6,13.5-0.2,18.8c3,37.3,19.5,85.5-9.5,117c-22.8,24.8-64.1,18.9-92.7,9
							c-28.3-9.8-54.5-29.8-60.7-60.5c-5.5-27.3,0.3-55.8-1.3-83.1c-0.4-6.5-2.7-9-8.9-10.6C339,591.7,325.4,589,312,584.1
							L312,584.1z"/>
						<path class="st16" d="M479.2,513.6c2.5,1.3,3.4,4.3,2.1,6.7c0,0,0,0.1-0.1,0.1c-3-1.6-5.7-3.6-8-5.8
							C474.7,513,477.1,512.5,479.2,513.6z"/>
						<path class="st16" d="M473.2,514.6c2.3,2.2,5.1,4.2,8,5.8c-5.5,10.5-13.4,17.4-24.8,21.8c-5,1.9-10.3,2.9-15.6,2.9
							c-5,0-9.9-0.9-14.4-2.6c-10.2-4-17.4-9.5-25.8-19.9c-0.2-0.2-0.3-0.4-0.5-0.7c2.8-1.8,5.2-4,7.3-6.5c0.3,0.2,0.6,0.5,0.9,0.9
							c7.2,9,13.1,13.5,21.6,16.8c7,2.7,15.3,2.6,22.8-0.3c9.1-3.5,15.1-8.8,19.5-17.2C472.6,515.3,472.9,514.9,473.2,514.6z"/>
						<path class="st16" d="M401.4,515.5c1.8-1.5,4.3-1.5,6.1-0.1c-2.1,2.5-4.5,4.7-7.3,6.5C399,519.8,399.5,517.1,401.4,515.5z"/>
					</g>
				</g>
			</g>
			<g>
				<path class="st15" d="M479.2,513.6c-2.4-1.3-5.5-0.3-6.7,2.1c-0.8,1.6-1.7,3.1-2.7,4.5c3.2-0.5,6.7,2.5,8.4,5.4
					c1.1-1.6,2.2-3.4,3.2-5.2C482.6,517.9,481.6,514.8,479.2,513.6z"/>
				<path class="st15" d="M404.4,526.9c1.3-2.9,4.5-6.1,7.7-6.4c-1.2-1.3-2.4-2.7-3.6-4.3c-1.7-2.1-4.9-2.5-7-0.7
					c-2.1,1.7-2.5,4.9-0.7,7C401.9,524.1,403.2,525.6,404.4,526.9z"/>
			</g>
			<g>
				<path class="st16" d="M535.1,530.4c-4.8,1.8-10,3.1-15.5,3.6c-7.5,0.7-15,0.1-22.3-1.5c-3.6-0.8-7.1-1.8-10.5-3.2
					c-1.1-0.4-8.7-3.7-8.7-3.7s-34.7,18.7-37.1,18.7c-2.7,0-35.5-16.5-36.6-17.4c-13,8.2-28.1,11.1-43.7,8.3
					c-7-1.3-15.4-2.6-22.1-4.7c0.1,1.5,0.3,32.2-23.3,50.9c3.2,0.8,10.9,2.8,10.9,2.8l0.1-0.1c0,0,27,7.5,40.9,11.4
					c6.2,1.7,8.5,4.2,8.9,10.6c1.6,27.3-4.2,55.8,1.3,83.1c6.2,30.7,32.4,50.7,60.7,60.5c5,1.7,10.4,3.3,16.1,4.7
					c16.1,3.9,33.4-0.5,45.1-12.3c0.4-0.4,0.9-0.9,1.3-1.4c29-31.5,12.5-79.7,9.5-117c-0.4-5.2-2.6-14.1,0.2-18.8
					c2.2-3.5,8-5.8,12.7-7.2c9.1-3.8,18.5-7,28-9.6c0,0,0.1,0,0.1,0c1.8-0.6-1.8,0.6,0,0C534.1,561.5,535.1,535.6,535.1,530.4z"/>
			</g>
		</g>
		<g>
			<g>
				<path class="st15" d="M497.2,587.5c0.8,7.4,1.6,15.2-0.2,22.5c-1.4,5.6-4.8,12.3-11.1,13.5c-1.3,0.2-2.1,1.9-1.7,3.1
					c0.4,1.4,1.7,2,3.1,1.7c7.5-1.4,12.2-9,14.2-15.7c2.4-8.2,1.6-16.8,0.8-25.1c-0.1-1.3-1-2.5-2.5-2.5
					C498.4,585,497.1,586.2,497.2,587.5L497.2,587.5z"/>
			</g>
		</g>
	</g>
	<g>
		<g>
			<path class="st13" d="M356.2,264.1c-0.1-2.8-0.3-5.6-1.3-8.2c-1.2-3.5-3.8-6.7-7.4-7.6c-3.6-0.9-7.3,0.5-10.5,2.4
				c-8.9,5.3-15.3,14-19.2,23.5c-3.9,9.5-5.6,19.8-6.4,30.1c0.3-3.9-4.8-6.6-8.5-5.1c-3.7,1.4-5.8,5.4-6.6,9.2
				c-2.9,12.7,4.1,24.4,9.9,35.1c5.2,9.5,10.5,19,16.2,28.3c3.1,5,5.8,10.3,9.7,14.7c0.9,1,2.7,3,4.1,1.6c1.3-1.3,0.5-6.2,0.5-7.9
				c0-13.9-0.3-28.1,1.1-41.9c0.1-0.8,0.2-1.7,1.3-1.9c0.7-0.1,1.5,0.3,1.9,0.9c2,3,6.1,3.9,9.4,2.7c3.5-1.3,6.1-4.8,6.6-8.5
				c0.2-1.4,0.6-2.7,1.4-3.8c2.2-2.9,4.2-2,5.9-1c2.1,1.3,4,2.9,6.3,3.6c2.3,0.7,5.3,0.3,6.5-1.8c1.4-2.2,0.6-6,3.4-6.6
				c0.7-0.2,1.5-0.1,2.2,0.2c8.3,3.4,16.9,6,25.7,7.6c4.3,0.8,8.8,1.4,12.9-0.2c4.6-1.8,6.3-10.1,6.9-14c0.2-1.1,1.2-1.7,2.3-1.4
				c9.9,3.3,24.1,7.6,33.8,1.6c5.1-3.2,13.3-15,19.7-8.1c2.4,2.6,4.9,5.2,7.3,7.8c1.8,1.9,3.8,3.9,6.3,4.4c3.8,0.7,7.5-2.3,9.8-4.9
				c1.2-1.3,2.5-2.4,4-3.3c1-0.6,2.3-1.4,3.6-1.2c7.1,1.1,2.6,17.8,2,22c-1.8,12.6-0.7,25.3,0.5,38c0.1,1,1.7,6.2,2.6,3.2
				c5-16.1,8-35.8,6.7-49.1c-0.2-1.8,1.5-3.2,3.2-2.8c3.5,0.7,7.5-0.7,10.1-3.3c3.3-3.3,4.8-7.9,5.7-12.4c1-5,1.3-10,1-15.1
				c-0.6-8.4-3.2-16.7-6.9-24.3c-1.1-2.2-2.4-4.6-4.7-5.6c4.2,1.4,8.7,1.8,13.1,1.2c1.3-0.2,2.7-0.5,3.7-1.3c2.4-1.9,2.2-5.6,1-8.4
				c-3.6-8.6-14.2-13.5-23-10.3c7.7-9.2,14.4-17.3,14.6-29.5c0.2-9.3-2.7-19.8-10.9-25.1c-8.5-5.4-19.9-2-28.6,3.2
				c-12.6,7.4-23.2,18-30.7,30.4c3.3-8.6,3.5-18.4,0.6-27.1c-1.3-3.9-3.4-7.8-6.9-10.1c-4-2.7-9.2-2.8-13.8-1.5
				c-4.6,1.4-8.6,4.1-12.4,7.1c-14.3,11.1-26.4,25-35.2,40.8c0.4-3.8,0.7-7.7-0.2-11.5c-0.9-3.7-3.4-7.3-7-8.5
				c-2.6-0.9-5.5-0.4-8.1,0.3c-25.2,7.2-28.8,34.5-35.2,56.2C356.2,266,356.2,265.1,356.2,264.1z"/>
		</g>
		<g>
			<defs>
				<path id="SVGID_00000033343739927411120650000010871365034750044581_" d="M356.2,264.1c-0.1-2.8-0.3-5.6-1.3-8.2
					c-1.2-3.5-3.8-6.7-7.4-7.6c-3.6-0.9-7.3,0.5-10.5,2.4c-8.9,5.3-15.3,14-19.2,23.5c-3.9,9.5-5.6,19.8-6.4,30.1
					c0.3-3.9-4.8-6.6-8.5-5.1c-3.7,1.4-5.8,5.4-6.6,9.2c-2.9,12.7,4.1,24.4,9.9,35.1c5.2,9.5,10.5,19,16.2,28.3
					c3.1,5,5.8,10.3,9.7,14.7c0.9,1,2.7,3,4.1,1.6c1.3-1.3,0.5-6.2,0.5-7.9c0-13.9-0.3-28.1,1.1-41.9c0.1-0.8,0.2-1.7,1.3-1.9
					c0.7-0.1,1.5,0.3,1.9,0.9c2,3,6.1,3.9,9.4,2.7c3.5-1.3,6.1-4.8,6.6-8.5c0.2-1.4,0.6-2.7,1.4-3.8c2.2-2.9,4.2-2,5.9-1
					c2.1,1.3,4,2.9,6.3,3.6c2.3,0.7,5.3,0.3,6.5-1.8c1.4-2.2,0.6-6,3.4-6.6c0.7-0.2,1.5-0.1,2.2,0.2c8.3,3.4,16.9,6,25.7,7.6
					c4.3,0.8,8.8,1.4,12.9-0.2c4.6-1.8,6.3-10.1,6.9-14c0.2-1.1,1.2-1.7,2.3-1.4c9.9,3.3,24.1,7.6,33.8,1.6
					c5.1-3.2,13.3-15,19.7-8.1c2.4,2.6,4.9,5.2,7.3,7.8c1.8,1.9,3.8,3.9,6.3,4.4c3.8,0.7,7.5-2.3,9.8-4.9c1.2-1.3,2.5-2.4,4-3.3
					c1-0.6,2.3-1.4,3.6-1.2c7.1,1.1,2.6,17.8,2,22c-1.8,12.6-0.7,25.3,0.5,38c0.1,1,1.7,6.2,2.6,3.2c5-16.1,8-35.8,6.7-49.1
					c-0.2-1.8,1.5-3.2,3.2-2.8c3.5,0.7,7.5-0.7,10.1-3.3c3.3-3.3,4.8-7.9,5.7-12.4c1-5,1.3-10,1-15.1c-0.6-8.4-3.2-16.7-6.9-24.3
					c-1.1-2.2-2.4-4.6-4.7-5.6c4.2,1.4,8.7,1.8,13.1,1.2c1.3-0.2,2.7-0.5,3.7-1.3c2.4-1.9,2.2-5.6,1-8.4c-3.6-8.6-14.2-13.5-23-10.3
					c7.7-9.2,14.4-17.3,14.6-29.5c0.2-9.3-2.7-19.8-10.9-25.1c-8.5-5.4-19.9-2-28.6,3.2c-12.6,7.4-23.2,18-30.7,30.4
					c3.3-8.6,3.5-18.4,0.6-27.1c-1.3-3.9-3.4-7.8-6.9-10.1c-4-2.7-9.2-2.8-13.8-1.5c-4.6,1.4-8.6,4.1-12.4,7.1
					c-14.3,11.1-26.4,25-35.2,40.8c0.4-3.8,0.7-7.7-0.2-11.5c-0.9-3.7-3.4-7.3-7-8.5c-2.6-0.9-5.5-0.4-8.1,0.3
					c-25.2,7.2-28.8,34.5-35.2,56.2C356.2,266,356.2,265.1,356.2,264.1z"/>
			</defs>
			<use xlink:href="#SVGID_00000033343739927411120650000010871365034750044581_"  style="overflow:visible;fill:#FBD6DB;"/>
			<clipPath id="SVGID_00000171716833669903000410000014498996358075877309_">
				<use xlink:href="#SVGID_00000033343739927411120650000010871365034750044581_"  style="overflow:visible;"/>
			</clipPath>
			<g style="clip-path:url(#SVGID_00000171716833669903000410000014498996358075877309_);">
				<g>
					<path class="st8" d="M532.9,118.2c4.5,0,4.5-7,0-7C528.4,111.2,528.4,118.2,532.9,118.2L532.9,118.2z"/>
				</g>
			</g>
		</g>
	</g>
	<g>
		<path class="st8" d="M526.9,324.5c0.1,0.7,0.1,1.5,0.2,2.2c0.3-1.5,0.6-3,0.9-4.6C527.2,322.7,526.8,323.5,526.9,324.5z"/>
		<path class="st8" d="M537.8,263.2c0.7-0.4,1.3-0.8,1.8-1.1c-1.5-0.2-3-0.6-4.4-1.1C536.2,261.5,537.1,262.3,537.8,263.2z"/>
		<g>
			<path class="st13" d="M517,363.9c0.2,2.2,0.4,4.3,0.6,6.5c0.1,1,1.7,6.2,2.6,3.2c4.7-15.3,7.6-33.7,6.9-46.8
				c-1.9,9.2-4.4,18.2-7.3,27C518.9,357.2,518,360.5,517,363.9z"/>
		</g>
		<g>
			<path class="st8" d="M542.7,248.1c-4.5-2.7-12.1-3.3-17.8-2.8c0.5-0.6,0.9-1.2,1.4-1.8c8.1-11.2,18.1-29.9,3.1-40.1
				c-13-8.8-29.3,0.6-40.1,8.7c-7,5.2-13.2,11.3-19.7,17.1c0.3-1.7,0.6-3.5,0.8-5.3c1.2-9.8,1.4-24.7-9.1-29.6
				c-10.9-5-20.7,3.1-28,10.4c-6,6-11.6,12.4-16.8,19.1c-2.4,3.1-4.7,6.3-6.9,9.5c-1.2,1.8-2.4,3.7-3.6,5.5c-0.6,1-3.3,4.2-3.2,5.3
				c-0.6-4-1.4-8.2-3.8-11.4c-3.8-4.8-10-5.6-15.6-3.8c-16.6,5.3-23.4,24.3-26.9,41.4c-1.9-3-4.6-5.5-8.3-6.3
				c-7.4-1.7-12.9,4.4-16.9,9.6c-11,14.2-14.1,31.3-12.9,48.5c-0.5,0.1-1,0.2-1.5,0.5c-11.9,5.4-2.7,25.8,0.4,34.2
				c2.7,7.3,5.4,14.6,9.1,21.4c1.7,2.8,3.6,5.6,5.7,8.1c0.9,1,2.7,3,4.1,1.6c1.3-1.3,0.5-6.2,0.5-7.9c0-13.9-0.3-28.1,1.1-41.9
				c0.1-0.8,0.2-1.7,1.3-1.9c0.7-0.1,1.5,0.3,1.9,0.9c2,3,6.1,3.9,9.4,2.7c3.5-1.3,6.1-4.8,6.6-8.5c0.2-1.4,0.6-2.7,1.4-3.8
				c2.2-2.9,4.2-2,5.9-1c2.1,1.3,4,2.9,6.3,3.6s5.3,0.3,6.5-1.8c1.4-2.2,0.6-6,3.4-6.6c0.7-0.2,1.5-0.1,2.2,0.2
				c8.3,3.4,16.9,6,25.7,7.6c4.3,0.8,8.8,1.4,12.9-0.2c4.6-1.8,6.3-10.1,6.9-14c0.2-1.1,1.2-1.7,2.3-1.4c9.9,3.3,24.1,7.6,33.8,1.6
				c5.1-3.2,13.3-15,19.7-8.1c2.4,2.6,4.9,5.2,7.3,7.8c1.8,1.9,3.8,3.9,6.3,4.4c3.8,0.7,7.5-2.3,9.8-4.9c1.2-1.3,2.5-2.4,4-3.3
				c1-0.6,2.3-1.4,3.6-1.2c7.1,1.1,2.6,17.8,2,22c-1.5,10.4-1,21-0.1,31.5c1-3.3,1.9-6.7,2.7-10.1c3-8.9,5.4-17.9,7.3-27
				c0-0.8-0.1-1.5-0.2-2.2c-0.1-1,0.4-1.8,1.1-2.3c0.5-2.6,1-5.3,1.4-8c1.1-3.1,2.1-6.2,2.9-9.4c3.1-12.6,3.1-28.8-6.5-37.6
				c1.9,1.7,8.1-1.6,12.1-4c-0.7-0.9-1.6-1.7-2.7-2.2c1.4,0.5,2.9,0.8,4.4,1.1c0.6-0.4,1.1-0.7,1.4-0.9
				C545.6,257.8,548.9,251.8,542.7,248.1z"/>
		</g>
	</g>
</g>
<g id="deets">
	<path class="st18" d="M432.5,364.2c-1.4-1.4-3.5-2.4-5.4-3c-0.9-0.3-1.8-0.5-2.7-0.4c-3.7,0.2-5.9,4.1-7.9,6.7"/>
	<path class="st19" d="M446.6,347.7c6.9-4.5,13.9-9,21.8-11.5s21.2-1.8,28.5,1.9"/>
	<path class="st19" d="M403.6,354.4c-9-3.2-19.3-3.9-29.1-2.9c-10.9,1.2-19.4,6.8-26,14.9"/>
	<path class="st20" d="M382.2,381.2c-0.5,8.1-7.7,12.9-14.1,15.3c-7.2,2.4-16,2.4-20.8-4.8c-2.4-4.8-4-10.4-0.8-15.2
		c8-11.2,26.4-13.6,34.5-1.3C381.8,377.1,382.3,379.1,382.2,381.2z"/>
	<path class="st20" d="M512.9,356.6c-1.9,6.3-8.4,8.7-13.8,9.5c-6.1,0.6-12.9-1-15.4-7.5c-1-4.2-1.3-8.8,2.1-12
		c8.2-7.3,23-5.9,27.3,5.2C513.4,353.3,513.4,354.9,512.9,356.6z"/>
	<g>
		<path class="st18" d="M555.5,384.1c-9.3-4-20.5-3.4-29.3,1.5"/>
		<path class="st18" d="M549,397.5c-0.1-3.5-1.5-6.9-3.9-9.5c-2.4-2.5-8.3-5-11.8-5.3"/>
	</g>
	<g>
		<path class="st18" d="M301.6,394.8c8.7-5.2,19.8-6.1,29.3-2.4c1.5,0.6,3.1,1.4,4.2,2.6"/>
		<path class="st18" d="M309.7,407.2c-0.4-3.5,0.5-7.1,2.6-9.9c2-2.8,7.6-6.1,11-6.8"/>
	</g>
	<path class="st21" d="M381.4,425.1c10.7-4.9,21.8-8.9,33.1-11.8"/>
	<path class="st21" d="M482.7,395c4.2-0.8,8.4-1.2,12.7-1.1"/>
	<path class="st18" d="M347,401.1c11.3-9.8,24.3-17.6,38.2-22.9"/>
	<path class="st18" d="M348.5,381.4c8.4-2.5,16.9-5,25.3-7.5"/>
	<path class="st18" d="M519,398.8c-0.2,1.3-0.4,2.5-0.7,3.8c-2.1,11.4-5.8,22.6-10.9,33c-9.3,16.5-23.2,30.8-40.7,38.5
		c-11.5,5-24,7.5-36.5,7.9"/>
	<path class="st22" d="M500,618c0.8-1.7,1.4-3.4,1.8-5.2c1.3-4.9,1.4-10,1.4-15.1c0-1.1-0.9-13.6-0.9-13.6s-26.7,0.2-40,0.3
		c-0.1,0,0.6,9.2,0.7,9.8c0.6,5,0.7,10,1.7,14.9c1.3,5.7,3.5,11.8,8.1,15.4c4,3.2,9.3,4.6,14.3,3.8c2.6-0.4,5.2-1.5,7.3-3.1
		C496.9,623.4,498.7,620.8,500,618z"/>
	<g>
		<path class="st22" d="M519.8,370.6c5.4-17.7,7.8-36.4,7.1-54.9c1.5,3.4,3.6,8.6,7.8,9c0.4,0,0.7,0.1,1.1,0
			c9.4-0.4,11.5-18.3,12.1-25.1c0.8-10.3-0.9-21.1-6.3-30c-0.8-1.4-3.9-5.6-3.9-5.6s13.3,5.5,18.3,1.2c3.4-2.9,3.9-8.2,2.6-12.5
			c-2.5-7.8-9.9-13.3-17.8-15.5c-7.9-2.3-16.3-1.9-24.5-1.5c12.7-11.6,25.6-23.6,33-39.2c2.2-4.7,3.8-10.5,0.8-14.7
			c-2.2-3.1-6.3-4.3-10.1-4.8c-12.8-1.6-25.8,1.9-37.7,7.2c-21.5,9.6-40.4,25.1-54,44.3c4.7-7.1,9.5-14.3,12.2-22.4
			c2.7-8.1,3.1-17.3-0.7-24.9c-0.9-1.8-2.2-3.6-3.9-4.7c-4.4-2.6-10-0.1-14.2,2.8c-22.5,15.1-39.3,38.4-46.5,64.5
			c1-6.4,4.4-12.2,5.8-18.5c1.4-6.3-0.2-14.2-6.1-16.8c-6.8-3-14.2,1.6-19.2,6.1c-13.3,12-21.3,31.3-24.3,48.7
			c-0.1,0.6-0.2,1.1-0.3,1.7c-0.6,4.4-0.6,9.1,1,13.3c0.2,0.6,0.6,1.3,1.1,1.6c0.8,0.5,1.9,0.2,2.6-0.4c0.7-0.6,1.1-1.5,1.5-2.4
			c4.2-10.2,1.4-20.8-2.8-30.5c-1-2.3-2.3-4.6-4.5-5.8c-5.4-3-11.7,2-15.3,7c-15.1,20.9-17,53.5-14.7,73.5
			c-1.7-7.3-4.1-14.7-8.9-20.5c-2.6-3.1-6.1-6.1-10.2-6.1c-4.9-0.1-9,4.3-10.3,9c-1.2,4.8-0.2,9.8,1.3,14.5
			c6.4,21,19.5,38.9,33.9,55.1"/>
		<path class="st22" d="M338.4,331c0.7,5,4,16.1,11.1,13.5c1.1-0.4,2.1-1.1,2.9-1.9c5.6-5.2,7.4-12.9,8.9-20.2
			c1.6,3.4,3.3,6.8,6.7,8.8c1.6,1,3.6,1.4,5.4,1c4.9-1.2,6-6.9,6.4-11.7c7.1,4.7,15.1,7.7,23.5,8.9c2.3,0.3,4.7,0.5,6.9-0.1
			c2.5-0.7,4.6-2.2,6.4-4.1c2.9-3,5.5-10.6,6.4-13.5c0.2-0.6,0.8-0.9,1.4-0.6c3.1,1.5,12,6,16.9,7.9c6.5,2.5,13.6,3.8,20.6,3.2
			c6.7-0.5,13.1-3.4,18.4-7.5c2.7-2.1,5-4.5,7.1-7.1c0.6-0.8,1.1-1.5,1.4-2.2c0.7-1.4,2.7-1.4,3.3,0c1.6,3.4,3.5,6.6,6.6,9
			c0.9,0.7,2,1.4,3.1,1.8c6.7,2.6,18.9-3.5,22.9-11.9"/>
		<path class="st22" d="M384.1,298.1c-0.7-5.5,0-11.1,1.8-16.3c1-2.9,2.2-5.8,3.9-8.4c1-1.6,4.1-5.8,6.3-3.5c0.6,0.6,0.8,1.4,1,2.2
			c1.1,4.2,1.4,8.5,0.9,12.8c1.3-7,5.5-13.9,9.6-19.6c4.4-6.1,9.7-11.5,15.8-15.9c2.6-1.9,6.2-3.7,9.2-2.4c1.3,0.6,2.2,1.6,2.9,2.7
			c4.1,5.7,5.8,12.8,4.6,19.5c4.4-15,15.3-28.5,29.9-36.9c7-4.1,15.7-7.1,23.7-5.1c9.6,2.3,15.8,11.5,15.5,20.3
			c-0.3,8.8-6,17-13.7,22.6c-7.7,5.6-17.1,8.9-26.6,11.5"/>
	</g>
	<path class="st22" d="M219.8,218.4c-0.2,0.4-0.5,0.9-0.7,1.3"/>
	<path class="st22" d="M535.4,525.1c-2.6,14.2-0.3,29.3,6.5,42.1"/>
	<path class="st22" d="M339,520.7c2.7,16.4-1,33.8-10.3,47.6"/>
	<g>
		<g>
			<defs>
				<path id="XMLID_10_" d="M594.2,419.9c7.7,4.7,14.8,10.1,20.7,16.3c17.1,18.1,30.4,41.4,28.5,66c-2.2,28.4-20.5,52-42.9,68.2
					c-8.1,5.9-16.8,10.9-25.9,15.1c-9.9-6.6-16.5-17.3-20-28.6c-3.4-11.2-3.9-23.2-3.3-34.9c4.2-1.7,8.1-3.8,11.7-6.3
					c8.7-6.1,14.8-15.4,16.8-25.4c7.8-38.1-35.4-58.9-68.3-64.8l-4.1-0.3v-37.2l18.2,4C542.3,397.9,570.9,405.7,594.2,419.9z"/>
			</defs>
			<clipPath id="XMLID_00000139260820584820160070000007924254462781287342_">
				<use xlink:href="#XMLID_10_"  style="overflow:visible;"/>
			</clipPath>
			<g style="clip-path:url(#XMLID_00000139260820584820160070000007924254462781287342_);">
				<path class="st24" d="M572.1,505.4c1.2,3,2.5,5.9,3.7,8.9c0.1,0.3,0.3,0.5,0.5,0.6c0.1,0,0.3,0,0.4-0.1
					c9.1-4,18.1-7.9,27.2-11.9c-5.2-9.4-9.5-19.4-12.8-29.6c-3.2,0.2-6.3,0.4-9.5,0.6c-0.9,2.7-1.7,5.5-2.6,8.2"/>
				<g>
					<g>
						<path class="st25" d="M576.9,515.5c1.7-2.1,2.5-4.9,3.5-7.3c1.1-2.7,2.1-5.5,3.1-8.3c2-5.5,3.9-11.1,5.6-16.7
							c1-3.2,2-6.4,2.9-9.6c0.3-0.9-1.2-1.3-1.4-0.4c-3.2,11.1-6.8,22.1-10.9,32.9c-0.6,1.5-1.2,3-1.7,4.5c-0.5,1.3-1.1,2.7-2,3.9
							C575.3,515.2,576.3,516.2,576.9,515.5L576.9,515.5z"/>
					</g>
				</g>
				<g>
					<g>
						<path class="st25" d="M581.5,504.7c7-0.9,14.1-1.2,21.2-0.8c1,0,1-1.5,0-1.5c-7.1-0.3-14.2-0.1-21.2,0.8
							C580.6,503.3,580.6,504.8,581.5,504.7L581.5,504.7z"/>
					</g>
				</g>
				<g>
					<g>
						<path class="st25" d="M587.5,485.6c2.6,3.4,5.3,6.6,8.1,9.8c2.3,2.7,4.6,5.3,6.8,8.1c0.6,0.8,1.9,0,1.3-0.8
							c-2.1-2.8-4.4-5.5-6.8-8.2c-2.8-3.2-5.5-6.4-8.1-9.8C588.2,484.1,586.9,484.8,587.5,485.6L587.5,485.6z"/>
					</g>
				</g>
				<g>
					<g>
						<path class="st25" d="M572.5,505.9c2.3,0,4.6-0.3,6.8-0.6c0.7-0.1,1.5-0.2,2.1-0.4c0.2-0.1,0.5-0.2,0.6-0.4
							c0.4-0.5-0.1-1.1-0.3-1.6c-1.2-2.8-2.1-5.8-3.1-8.7c-0.5-1.4-0.9-2.8-1.5-4.1c-0.3-0.6-0.5-1.3-0.8-1.9c0-0.1-0.1-0.1-0.1-0.2
							c-0.1-0.3-0.2-0.2-0.2,0.3c0,0,0.4-0.1,0.5-0.1c0.4-0.1,0.9-0.2,1.3-0.3c3.1-0.8,6.1-1.7,9.2-2.4c0.5-0.1,0.7-0.9,0.3-1.3
							c-1.5-1.3-2.6-2.8-3.3-4.7c-0.7-1.9-1.2-3.8-1.8-5.7c-0.3-0.9-1.8-0.5-1.4,0.4c0.7,2,1.2,4.1,2,6c0.8,1.9,2,3.6,3.6,5
							c0.1-0.4,0.2-0.8,0.3-1.3c-2.7,0.6-5.3,1.4-8,2.1c-0.7,0.2-1.4,0.4-2.1,0.5c-0.7,0.2-1.6,0.2-1.8,0.9
							c-0.2,0.6,0.2,1.3,0.5,1.8c0.3,0.7,0.6,1.4,0.8,2.1c1,2.8,1.9,5.7,2.9,8.6c0.2,0.6,0.5,1.3,0.7,1.9c0.1,0.3,0.3,0.7,0.4,1
							c0.1,0.3,0.3,0.8,0.5,1.1c0.3,0.4,0-0.1,0.3-0.5c0,0,0.1-0.1,0.1-0.1c0,0-0.3,0.1-0.3,0.1c-0.3,0.1-0.7,0.2-1,0.2
							c-2.4,0.4-4.8,0.7-7.3,0.7C571.6,504.4,571.6,505.9,572.5,505.9L572.5,505.9z"/>
					</g>
				</g>
				<g>
					<g>
						<path class="st25" d="M589.9,525.5c0.8,1.5,1.6,2.9,2.4,4.4c0.2,0.3,0.7,0.5,1,0.3c0.3-0.2,0.5-0.7,0.3-1
							c-0.8-1.5-1.6-2.9-2.4-4.4c-0.2-0.3-0.7-0.5-1-0.3C589.8,524.7,589.7,525.2,589.9,525.5L589.9,525.5z"/>
					</g>
				</g>
				<g>
					<g>
						<path class="st25" d="M575.8,529c-0.4,1.7-0.7,3.3-1.1,5c-0.1,0.4,0.1,0.8,0.5,0.9c0.4,0.1,0.8-0.1,0.9-0.5
							c0.4-1.7,0.7-3.3,1.1-5c0.1-0.4-0.1-0.8-0.5-0.9C576.3,528.4,575.9,528.6,575.8,529L575.8,529z"/>
					</g>
				</g>
				<g>
					<g>
						<path class="st25" d="M583.8,462.6c0.1-2.8-0.3-5.7-1.2-8.4c-0.3-0.9-1.8-0.5-1.4,0.4c0.9,2.6,1.3,5.3,1.2,8
							C582.2,463.6,583.7,463.6,583.8,462.6L583.8,462.6z"/>
					</g>
				</g>
				<g>
					<g>
						<path class="st25" d="M595.7,463.6c1.1-1.5,1.9-3.1,2.4-4.9c0.1-0.4-0.1-0.8-0.5-0.9c-0.4-0.1-0.8,0.1-0.9,0.5
							c-0.5,1.7-1.2,3.1-2.2,4.6c-0.2,0.3-0.1,0.9,0.3,1C595.1,464.1,595.5,464,595.7,463.6L595.7,463.6z"/>
					</g>
				</g>
				<g>
					<g>
						<path class="st25" d="M606.9,482c2.4-1.1,4.7-2.1,7.1-3.2c0.4-0.2,0.5-0.7,0.3-1c-0.2-0.4-0.7-0.4-1-0.3
							c-2.4,1.1-4.7,2.1-7.1,3.2c-0.4,0.2-0.5,0.7-0.3,1C606.1,482.1,606.5,482.2,606.9,482L606.9,482z"/>
					</g>
				</g>
			</g>
		</g>
		<g>
			<g>
				<path class="st25" d="M565.2,518.9c-1,1.4-2,2.8-3,4.2c-0.1,0.2-0.3,0.4-0.4,0.6c-0.2,0.3-0.1,0.8,0.3,1c0.4,0.2,0.8,0.1,1-0.3
					c1-1.4,2-2.8,3-4.2c0.1-0.2,0.3-0.4,0.4-0.6c0.2-0.3,0.1-0.8-0.3-1C565.9,518.4,565.5,518.5,565.2,518.9L565.2,518.9z"/>
			</g>
		</g>
	</g>
	<path class="st18" d="M561.3,406.4c-11.9,9-32.3,10.9-43.2-0.8"/>
	<path class="st18" d="M359.7,449.6c-12-11.8-17.5-30.5-18.9-35.8c-0.1-0.5-0.7-0.7-1.1-0.3c-1.1,1-2.9,2.3-3.3,2.5
		c-1.4,1-2.9,2-4.5,2.8c-7,3.7-15.1,4.3-22.7,2.7"/>
</g>
<g id="x" class="st26">
	<polygon class="st27" points="612.2,527.9 589.4,530 586.7,521 586.9,520.8 593.7,512.5 600.5,504.2 609.8,505.1 	"/>
	<line class="st27" x1="593.7" y1="512.5" x2="593.7" y2="512.5"/>
	<polyline class="st27" points="589.4,530 596.3,521.6 603.1,513.3 609.8,505.1 	"/>
	<line class="st27" x1="603.1" y1="513.3" x2="603.1" y2="513.3"/>
	<line class="st27" x1="593.7" y1="512.5" x2="593.7" y2="512.5"/>
	<line class="st27" x1="586.9" y1="520.8" x2="586.9" y2="520.8"/>
	<line class="st27" x1="603.1" y1="513.3" x2="603.1" y2="513.3"/>
	<line class="st27" x1="603.1" y1="513.3" x2="603.1" y2="513.3"/>
	<polyline class="st28" points="600.5,504.2 603.1,513.3 593.7,512.5 596.3,521.6 586.9,520.8 	"/>
	<line class="st27" x1="593.7" y1="512.5" x2="593.7" y2="512.5"/>
	<line class="st27" x1="596.3" y1="521.6" x2="596.3" y2="521.6"/>
	<polyline class="st28" points="596.3,521.6 612.2,527.9 603.1,513.3 	"/>
	<g class="st29">
		<line class="st30" x1="616" y1="498.4" x2="620.8" y2="492.5"/>
		<line class="st30" x1="607.6" y1="486" x2="605.9" y2="493.3"/>
		<line class="st30" x1="622.9" y1="507.3" x2="629.8" y2="504.1"/>
	</g>
	<g class="st29">
		<line class="st30" x1="583.7" y1="537.6" x2="578.9" y2="543.4"/>
		<line class="st30" x1="593.8" y1="542.7" x2="592" y2="550"/>
		<line class="st30" x1="570" y1="531.8" x2="576.7" y2="528.7"/>
	</g>
</g>
</svg>
