<svg xmlns="http://www.w3.org/2000/svg" viewBox="0 0 439.94 326.78"><defs><style>.cls-1{fill:#abc8cb;}.cls-1,.cls-2,.cls-3,.cls-4,.cls-5,.cls-6{stroke:#003e72;stroke-width:2px;}.cls-1,.cls-2,.cls-3,.cls-4,.cls-5,.cls-6,.cls-7{stroke-miterlimit:10;}.cls-2,.cls-7{fill:#fff;}.cls-3{fill:#82bae8;}.cls-4{fill:#f5f6e0;}.cls-5{fill:none;}.cls-6{fill:#cbd266;}.cls-7{stroke:#fff;}</style></defs><g id="Layer_2" data-name="Layer 2"><g id="Into__page" data-name="Into _page"><polyline class="cls-1" points="12.58 40.87 1 40.87 1 306.85 187.33 306.85 187.33 325.78 257.87 325.78 257.87 307.12 438.94 307.12 438.94 40.87 1 40.87"/><polyline class="cls-2" points="32.06 32.16 16.79 32.16 16.79 290.94 219.97 290.94 219.97 248.64"/><path class="cls-2" d="M221,272.28c0-24.88-30.54-32.35-30.54-32.35H34.69V11L189.44,13.5S209.44,16,220,40.87Z"/><polyline class="cls-2" points="409.47 32.61 424.74 32.61 424.74 291.39 221.56 291.39 219.97 258.6"/><path class="cls-2" d="M220.5,272.73c0-24.88,30.53-32.35,30.53-32.35H406.84V11.46L252.09,14s-20,2.48-30.53,27.37Z"/><rect class="cls-3" x="54.69" y="35.89" width="38.95" height="47.28"/><path class="cls-2" d="M105.34,111.18h12.51"/><path class="cls-2" d="M51.53,111.18H90.74"/><path class="cls-2" d="M79.17,136.68h39.21"/><path class="cls-2" d="M52.06,136.68H64.57"/><line class="cls-2" x1="51.53" y1="164.04" x2="117.85" y2="164.04"/><path class="cls-2" d="M95.57,191.41h21.76"/><path class="cls-2" d="M51,191.41h29.3"/><path class="cls-2" d="M93.81,219.13c-17,0-31.51,0-38.26.13l0,.15h38.3C93.82,219.31,93.81,219.22,93.81,219.13Z"/><path class="cls-2" d="M177.11,219.41h6l-6,0Z"/><path class="cls-2" d="M168.07,219.34l-7.27,0a.38.38,0,0,1,0,.1h7.29Z"/><path class="cls-2" d="M151.75,219.28c-14.51-.06-32.11-.11-48.51-.14,0,.09,0,.17,0,.27h48.51A.53.53,0,0,0,151.75,219.28Z"/><line class="cls-2" x1="39.95" y1="260.46" x2="199.44" y2="260.46"/><line class="cls-2" x1="38.9" y1="272.89" x2="198.39" y2="272.89"/><line class="cls-2" x1="247.34" y1="260.46" x2="406.83" y2="260.46"/><line class="cls-2" x1="246.29" y1="272.89" x2="405.77" y2="272.89"/><line class="cls-2" x1="237.34" y1="51.44" x2="388.4" y2="51.44"/><line class="cls-2" x1="237.34" y1="76.33" x2="388.4" y2="76.33"/><line class="cls-2" x1="237.34" y1="101.21" x2="388.4" y2="101.21"/><path class="cls-4" d="M258.92,1h43.16V132.11l-20-17.06L262.6,131.66S258.92-1.65,258.92,1Z"/><line class="cls-5" x1="273.32" y1="172.66" x2="283.02" y2="172.66"/><line class="cls-5" x1="296.37" y1="172.66" x2="306.06" y2="172.66"/><line class="cls-5" x1="285.48" y1="202.85" x2="292.37" y2="196.02"/><line class="cls-5" x1="301.84" y1="186.62" x2="308.72" y2="179.79"/><line class="cls-5" x1="285.17" y1="142.53" x2="291.8" y2="149.6"/><line class="cls-5" x1="300.93" y1="159.33" x2="307.57" y2="166.4"/><line class="cls-5" x1="315.42" y1="132.09" x2="315.29" y2="141.79"/><line class="cls-5" x1="315.11" y1="155.13" x2="314.98" y2="164.83"/><circle class="cls-6" cx="315.42" cy="123.12" r="5.22"/><circle class="cls-3" cx="279.95" cy="136.94" r="5.22"/><circle class="cls-6" cx="265.38" cy="172.66" r="5.22"/><path class="cls-3" d="M285.17,207.92a5.22,5.22,0,0,1-10.44,0,6,6,0,0,1,5.74-5.52C283.36,202.4,285.17,205,285.17,207.92Z"/><line class="cls-5" x1="355.6" y1="172.06" x2="345.91" y2="172.32"/><line class="cls-5" x1="332.57" y1="172.68" x2="322.88" y2="172.94"/><line class="cls-5" x1="342.64" y1="142.21" x2="335.94" y2="149.22"/><line class="cls-5" x1="326.72" y1="158.87" x2="320.03" y2="165.88"/><line class="cls-5" x1="344.57" y1="202.5" x2="337.75" y2="195.61"/><line class="cls-5" x1="328.36" y1="186.12" x2="321.54" y2="179.23"/><line class="cls-5" x1="314.6" y1="213.74" x2="314.48" y2="204.04"/><line class="cls-5" x1="314.3" y1="190.7" x2="314.17" y2="181"/><circle class="cls-6" cx="314.84" cy="222.71" r="5.22"/><circle class="cls-3" cx="349.94" cy="207.94" r="5.22"/><circle class="cls-6" cx="363.55" cy="171.85" r="5.22"/><path class="cls-3" d="M342.82,137.13a6,6,0,0,1,5.61-5.65c2.88-.08,4.75,2.49,4.83,5.37a5.22,5.22,0,1,1-10.44.28Z"/><circle class="cls-7" cx="314.84" cy="172.94" r="9.83"/></g></g></svg>