<svg xmlns="http://www.w3.org/2000/svg" viewBox="0 0 107.48 107.48"><defs><style>.cls-1{fill:#ebf2ee;}.cls-1,.cls-2,.cls-3,.cls-4{stroke:#003e72;stroke-miterlimit:10;stroke-width:0.75px;}.cls-2{fill:#d5e8f7;}.cls-3{fill:#66abe2;}.cls-4{fill:#a8b400;}</style></defs><g id="Layer_2" data-name="Layer 2"><g id="Layer_27" data-name="Layer 27"><circle class="cls-1" cx="53.74" cy="53.74" r="53.36"/><line class="cls-2" x1="38.4" y1="28.53" x2="53.28" y2="28.53"/><path class="cls-2" d="M90.09,62.37l5.06,5.06"/><path class="cls-2" d="M59.65,31.93C68.5,40.54,77,49.49,85.79,58.07"/><path class="cls-2" d="M64.58,87.45l5.06,5.07"/><path class="cls-2" d="M34.14,57C43,65.63,51.52,74.58,60.28,83.15"/><line class="cls-2" x1="30.74" y1="34.48" x2="30.74" y2="54.04"/><line class="cls-2" x1="48.17" y1="65.94" x2="48.6" y2="45.11"/><line class="cls-2" x1="72.84" y1="45.11" x2="72.84" y2="69.34"/><circle class="cls-3" cx="30.32" cy="26.83" r="11.05"/><circle class="cls-4" cx="57.1" cy="28.53" r="6.8"/><circle class="cls-4" cx="30.74" cy="54.89" r="6.8"/><circle class="cls-4" cx="47.75" cy="70.19" r="6.8"/><circle class="cls-4" cx="73.26" cy="45.96" r="6.8"/><circle class="cls-2" cx="48.6" cy="47.24" r="4.59"/><circle class="cls-2" cx="73.23" cy="69.06" r="4.59"/></g></g></svg>