<svg xmlns="http://www.w3.org/2000/svg" viewBox="0 0 56 56"><defs><style>.cls-1{fill:#fff;}.cls-1,.cls-2,.cls-3,.cls-4{stroke:#003e72;stroke-linecap:round;stroke-linejoin:round;}.cls-2{fill:none;}.cls-3{fill:#eef0cc;}.cls-4{fill:#cbd266;}</style></defs><g id="Layer_2" data-name="Layer 2"><g id="icons"><circle class="cls-1" cx="28" cy="28" r="27.5"/><path class="cls-2" d="M26.9,47.69c-.61-2.08-.25-4.3-.07-6.47.28-3.48-.86-6.4-3.85-8.32a27.19,27.19,0,0,1-4.54-3c-1-1-1.77-2.19-2.76-3.2A4.53,4.53,0,0,0,12,25.1c1.38,4.26,2.25,7.53,6.15,10.13"/><path class="cls-2" d="M14.89,14.49a3.89,3.89,0,0,1,3.21,3.7c.16,3.24,0,8.06,0,8.06"/><path class="cls-2" d="M12,25.09V13c4.46,0,3.38,7.92,3.38,10.42"/><path class="cls-2" d="M12,19c0-1-1.33-2.15-2.21-2.35-1.45-.31-1.12.18-1.2,1.51-.13,2,.25,5.89.25,7.91,0,2.33-.2,5.68,1.25,7.71,3.29,4.57,8.79,7.58,8.25,13.91"/><path class="cls-2" d="M29.79,47.69c.6-2.08.24-4.3.07-6.47-.29-3.48.85-6.4,3.84-8.32a27.69,27.69,0,0,0,4.55-3c1-1,1.77-2.19,2.75-3.2a4.54,4.54,0,0,1,3.74-1.61c-1.39,4.26-2.26,7.53-6.15,10.13"/><path class="cls-2" d="M41.94,14.27a4.33,4.33,0,0,0-3.35,3.92c-.17,3.24,0,8.06,0,8.06"/><path class="cls-2" d="M44.74,25.09V13c-4.46,0-3.37,7.81-3.37,10.31"/><path class="cls-2" d="M44.74,19c0-1,1.32-2.15,2.21-2.35,1.45-.31,1.11.18,1.2,1.51.13,2-.26,5.89-.26,7.91,0,2.33.21,5.68-1.25,7.71-3.28,4.57-8.79,7.58-8.25,13.91"/><circle class="cls-3" cx="28.3" cy="21.32" r="11.53"/><circle class="cls-4" cx="28.3" cy="21.32" r="8.57"/><path class="cls-2" d="M28.56,15.91A5.45,5.45,0,0,1,33,24.58"/></g></g></svg>