<svg xmlns="http://www.w3.org/2000/svg" viewBox="0 0 141 141"><defs><style>.cls-1,.cls-3{fill:#fff;}.cls-1,.cls-2,.cls-3,.cls-4,.cls-5,.cls-6{stroke:#003e72;stroke-miterlimit:10;}.cls-2{fill:none;}.cls-2,.cls-3,.cls-5,.cls-6{stroke-linecap:round;}.cls-4{fill:#9eb03a;}.cls-5{fill:#2e8cd8;}.cls-6{fill:#aeba00;}</style></defs><g id="Layer_2" data-name="Layer 2"><g id="icons"><circle class="cls-1" cx="70.5" cy="70.5" r="70"/><rect class="cls-2" x="95.02" y="98.85" width="7.52" height="7.52" transform="translate(-28.14 167.24) rotate(-73.08)"/><line class="cls-2" x1="32.17" y1="56" x2="41.67" y2="57.67"/><line class="cls-2" x1="111.74" y1="55.92" x2="102.24" y2="57.59"/><line class="cls-2" x1="71.48" y1="22.9" x2="71.48" y2="32.49"/><path class="cls-3" d="M80.86,93.89H63.34c-1.39,0-2.41.58-2.41,2v17.51a2.49,2.49,0,0,0,1.39,2.28h0l.21.09,7.69,3a5,5,0,0,0,3.77,0l7.76-3.06A2.37,2.37,0,0,0,83,113.38V95.87C83,94.47,82.25,93.89,80.86,93.89Z"/><path class="cls-3" d="M97.33,62.57a25.33,25.33,0,1,0-44.8,16.19h0c3.9,5,4.07,9.34,4.07,9.34a8.34,8.34,0,0,0,8.15,7.7h14.5A8.35,8.35,0,0,0,87.41,88s.18-4.16,4.07-9.21v0A25.34,25.34,0,0,0,97.33,62.57Z"/><line class="cls-2" x1="65.73" y1="100.99" x2="78.2" y2="100.99"/><line class="cls-2" x1="65.72" y1="105.88" x2="78.19" y2="105.88"/><line class="cls-2" x1="65.73" y1="110.77" x2="78.2" y2="110.77"/><path class="cls-4" d="M86.45,54.51l-1.61-2.33a1,1,0,0,0-1.24-.29l-3.68,2a12.33,12.33,0,0,0-2.09-1.48l.63-4.13a1,1,0,0,0-.69-1.07L75,46.45A1,1,0,0,0,73.9,47l-1.54,3.89a11.5,11.5,0,0,0-2.56.21l-2.16-3.58a1,1,0,0,0-1.22-.37l-2.57,1.19a1,1,0,0,0-.51,1.16l1.32,4a11.91,11.91,0,0,0-1.82,1.8l-4-1.35a1,1,0,0,0-1.17.5L56.5,57a1,1,0,0,0,.37,1.22l3.56,2.19v0A12.06,12.06,0,0,0,60.19,63l-3.9,1.51a.94.94,0,0,0-.57,1.13l.72,2.74a1,1,0,0,0,1.06.7l4.14-.61a12.21,12.21,0,0,0,1.46,2.11l-2,3.67a.94.94,0,0,0,.28,1.23l2.32,1.64A1,1,0,0,0,65,77l2.78-3.13a11.47,11.47,0,0,0,2,.6l.45.08L71,78.6a1,1,0,0,0,1,.77l2.82-.24a1,1,0,0,0,.88-.92L75.85,74A12.24,12.24,0,0,0,78.17,73l3.27,2.62a.94.94,0,0,0,1.26-.06l2-2a1,1,0,0,0,.07-1.26L82.2,69a12.41,12.41,0,0,0,1.09-2.33l4.18-.08a1,1,0,0,0,.93-.87l.26-2.82a1,1,0,0,0-.76-1L83.81,61a12.16,12.16,0,0,0-.66-2.47l3.15-2.76A1,1,0,0,0,86.45,54.51ZM74.87,68.85A6.7,6.7,0,1,1,78.15,60,6.7,6.7,0,0,1,74.87,68.85Z"/><polygon class="cls-5" points="50.34 32.21 36.93 27.7 39.73 41.56 50.34 32.21"/><polygon class="cls-6" points="111.27 85.77 111.93 71.64 99.36 78.13 111.27 85.77"/><rect class="cls-2" x="31.02" y="73.65" width="9.73" height="9.73" transform="translate(-40.38 38.08) rotate(-37.5)"/><circle class="cls-3" cx="98.91" cy="34.04" r="6.34"/><circle class="cls-6" cx="40.87" cy="103.56" r="3.95"/></g></g></svg>