<svg xmlns="http://www.w3.org/2000/svg" viewBox="0 0 134.43 134.43"><defs><style>.cls-1{fill:#e0e0e0;}.cls-1,.cls-2,.cls-3,.cls-4,.cls-5,.cls-6{stroke:#003e72;stroke-miterlimit:10;stroke-width:0.75px;}.cls-2{fill:none;}.cls-3{fill:#cbd266;}.cls-4{fill:#66abe2;}.cls-5{fill:#0073cf;}.cls-6{fill:#a8b400;}</style></defs><g id="Layer_2" data-name="Layer 2"><g id="Layer_163" data-name="Layer 163"><circle class="cls-1" cx="67.22" cy="67.22" r="66.84"/><ellipse class="cls-2" cx="67.5" cy="68.31" rx="12.01" ry="43.27" transform="translate(-12.67 15.44) rotate(-11.94)"/><ellipse class="cls-2" cx="65.28" cy="68.78" rx="43.27" ry="12.01" transform="translate(-29.52 66.31) rotate(-45)"/><ellipse class="cls-2" cx="67.5" cy="68.31" rx="12.01" ry="43.27" transform="translate(-14.29 118.63) rotate(-76.94)"/><path class="cls-2" d="M25.35,58.53S23.48,41.76,61.51,32.25c0,0,26.71-6.65,34.37,5.93"/><path class="cls-2" d="M95.88,38.18s17.13,8.09,5.37,45.48c0,0-8.27,26.26-23,26.22"/><path class="cls-2" d="M74,110.31s-10.59,8-36.83-21.08c0,0-18.42-20.46-10.9-33.13"/><path class="cls-2" d="M33.55,95.28s-14.31-7.91,1.19-43.92c0,0,6.17-24.46,20.83-22.92"/><path class="cls-2" d="M60.61,26.14s10.1-9.71,35.5,20.14c0,0,21.42,19.35,13.55,31.81"/><path class="cls-2" d="M108.92,79.57c1.54,5.71-8.27,11.36-12.23,13.69-8,4.7-17,7-25.66,10.2-8.24,3-26.3,5.83-32.25-2.95"/><circle class="cls-3" cx="88.12" cy="61.82" r="6.77"/><circle class="cls-4" cx="42.6" cy="74.03" r="3.82"/><circle class="cls-5" cx="52.93" cy="35.49" r="2.64"/><circle class="cls-6" cx="66.14" cy="103.17" r="5.54"/></g></g></svg>