<svg xmlns="http://www.w3.org/2000/svg" viewBox="0 0 160.55 160.55"><defs><style>.cls-1,.cls-2{fill:#fff;}.cls-1,.cls-2,.cls-3,.cls-4,.cls-5,.cls-6{stroke:#003e72;stroke-miterlimit:10;}.cls-1{stroke-width:1.5px;}.cls-3{fill:#a1c6e5;}.cls-4{fill:#ebf2ee;}.cls-5{fill:#66abe2;}.cls-6{fill:#a8b400;}</style></defs><g id="Layer_2" data-name="Layer 2"><g id="Layer_19" data-name="Layer 19"><circle class="cls-1" cx="80.28" cy="80.28" r="79.53"/><path class="cls-2" d="M42.46,107h75.62a2.09,2.09,0,0,1,2.09,2.09v8.54a7.47,7.47,0,0,1-7.47,7.47H47.84a7.47,7.47,0,0,1-7.47-7.47v-8.54A2.09,2.09,0,0,1,42.46,107Z"/><polygon class="cls-3" points="42.09 100.32 118.46 100.32 118.46 106.91 112.08 106.91 101.14 119.3 90.21 106.91 42.09 106.91 42.09 100.32"/><rect class="cls-4" x="39.4" y="91.18" width="81.76" height="12.7" rx="3.35"/><polygon class="cls-5" points="118.91 82.96 41.74 82.96 41.74 92.38 48.19 92.38 59.24 100.11 70.29 92.38 118.91 92.38 118.91 82.96"/><path class="cls-6" d="M118.91,67.87H41.74V85h2.72c2.35,3.14,6.68,5.24,11.63,5.24S65.36,88.09,67.71,85h1c2.35,3.13,6.67,5.24,11.62,5.24S89.6,88.09,92,85h1.56c2.35,3.13,6.67,5.24,11.62,5.24s9.27-2.1,11.62-5.24h2.16Z"/><path class="cls-2" d="M114.29,80.92H44.78c-4.35,0-6.43-4-6.44-9-.1-51.1,83.88-52.23,83.88,0C122.22,76.88,118.65,80.92,114.29,80.92Z"/><line class="cls-2" x1="63.47" y1="45.73" x2="67.26" y2="49.91"/><line class="cls-2" x1="73.11" y1="45.73" x2="76.9" y2="49.91"/><line class="cls-2" x1="82.75" y1="45.73" x2="86.54" y2="49.91"/><line class="cls-2" x1="92.39" y1="45.73" x2="96.18" y2="49.91"/><line class="cls-2" x1="48.03" y1="61.21" x2="51.81" y2="65.38"/><line class="cls-2" x1="58.68" y1="61.21" x2="62.46" y2="65.38"/><line class="cls-2" x1="69.32" y1="61.21" x2="73.11" y2="65.38"/><line class="cls-2" x1="79.97" y1="61.21" x2="83.76" y2="65.38"/><line class="cls-2" x1="90.62" y1="61.21" x2="94.41" y2="65.38"/><line class="cls-2" x1="101.27" y1="61.21" x2="105.06" y2="65.38"/><line class="cls-2" x1="111.92" y1="61.21" x2="115.71" y2="65.38"/></g></g></svg>