<svg xmlns="http://www.w3.org/2000/svg" viewBox="0 0 189.33 189.33"><defs><style>.cls-1,.cls-2{fill:#fff;}.cls-1,.cls-2,.cls-3,.cls-4,.cls-5,.cls-6,.cls-7{stroke:#003e72;stroke-miterlimit:10;}.cls-1{stroke-width:1.5px;}.cls-3{fill:#ebf2ee;}.cls-4{fill:#c9d87d;}.cls-5{fill:#66abe2;}.cls-6{fill:#0073cf;}.cls-7{fill:#a8b400;}</style></defs><g id="Layer_2" data-name="Layer 2"><g id="Layer_128" data-name="Layer 128"><circle class="cls-1" cx="94.67" cy="94.67" r="93.92"/><line class="cls-2" x1="75.71" y1="38.71" x2="75.71" y2="87.11"/><rect class="cls-2" x="68.52" y="46.38" width="68.04" height="7.67" rx="3.75" transform="translate(27.99 -36.27) rotate(23.15)"/><path class="cls-2" d="M81.78,87.59c.6-.08.29.33.91.33a15.8,15.8,0,0,1,1.84.12h.62v.09c7,1.14,12.29,7.12,11.54,14.09-.68,6.24-6.31,11.21-13.11,11.6a15.28,15.28,0,0,1-4.41-.38h-.85v16.31h-33v-25a4.42,4.42,0,0,1,1.08-2.88L56.68,90A7,7,0,0,1,62,87.59Z"/><path class="cls-3" d="M68.07,103.4h.59a12.8,12.8,0,0,1,12.8,12.8v13.39a0,0,0,0,1,0,0H55.27a0,0,0,0,1,0,0V116.2A12.8,12.8,0,0,1,68.07,103.4Z"/><polyline class="cls-2" points="110.53 61.39 103.82 107.71 103.18 131.35"/><path class="cls-2" d="M108.21,60.76l-4.27,29.46c-1.15,8-2.47,15.73-2.69,23.76l-.47,17.37c-.08,3.09,4.72,3.09,4.8,0l.4-14.67.21-7.9c0-.34.08-1.84,0-.46,0-.33.1-.66.14-1l4.86-33.5,1.7-11.8c.44-3-4.19-4.33-4.63-1.27Z"/><path class="cls-2" d="M118.13,61.31l4.27,29.47c1.15,8,2.48,15.73,2.7,23.76l.47,17.36c.08,3.1-4.72,3.09-4.81,0l-.39-14.66-.22-7.9c0-.35-.08-1.85.06-.46,0-.33-.1-.67-.15-1l-4.85-33.49-1.71-11.8c-.44-3,4.19-4.33,4.63-1.28Z"/><rect class="cls-4" x="102.86" y="78" width="21.1" height="3.65"/><rect class="cls-4" x="98.43" y="110.59" width="29.68" height="3.43"/><circle class="cls-5" cx="113.24" cy="55.32" r="9.34"/><circle class="cls-5" cx="75.4" cy="91.18" r="8.56"/><path class="cls-6" d="M101,122.09H124a5.1,5.1,0,0,1,5.1,5.1v4.17a0,0,0,0,1,0,0H96.15a0,0,0,0,1,0,0V127A4.89,4.89,0,0,1,101,122.09Z"/><rect class="cls-2" x="37.7" y="129.28" width="106.37" height="12.51"/><path class="cls-7" d="M133.4,87.75h4.27A2.93,2.93,0,0,0,140.36,86l2.86-6.65a4.49,4.49,0,0,0,.37-1.77v-20a2.93,2.93,0,0,0-2.93-2.92h-4.9a2.92,2.92,0,0,0-2.93,2.87l-.56,29A1.13,1.13,0,0,0,133.4,87.75Z"/></g></g></svg>