<svg xmlns="http://www.w3.org/2000/svg" viewBox="0 0 56 56"><defs><style>.cls-1{fill:#fff;}.cls-1,.cls-2,.cls-3,.cls-4,.cls-5,.cls-6,.cls-7,.cls-8,.cls-9{stroke:#003e72;stroke-miterlimit:10;}.cls-2{fill:#2e8cd8;}.cls-2,.cls-3,.cls-4,.cls-5,.cls-6,.cls-7,.cls-8,.cls-9{stroke-linecap:round;}.cls-3,.cls-4,.cls-5,.cls-6,.cls-7,.cls-8{fill:none;}.cls-4{stroke-dasharray:1.19 7.16;}.cls-5{stroke-dasharray:0.85 5.08;}.cls-6{stroke-dasharray:0.83 4.99;}.cls-7{stroke-dasharray:0.86 5.16;}.cls-8{stroke-dasharray:0.87 5.21;}.cls-9{fill:#ebf2ee;}</style></defs><g id="Layer_2" data-name="Layer 2"><g id="icons"><path class="cls-1" d="M28,55.5a27.5,27.5,0,0,1,0-55"/><path class="cls-1" d="M28,.5a27.5,27.5,0,0,1,0,55"/><line class="cls-2" x1="28.16" y1="11.7" x2="28.16" y2="45.46"/><line class="cls-2" x1="12.15" y1="19.8" x2="43.81" y2="36.31"/><line class="cls-2" x1="43.81" y1="19.8" x2="12.15" y2="36.31"/><polyline class="cls-3" points="12.58 36.56 12.15 36.31 12.15 35.81"/><line class="cls-4" x1="12.15" y1="28.65" x2="12.15" y2="23.88"/><polyline class="cls-3" points="12.15 20.3 12.15 19.8 12.59 19.58"/><line class="cls-5" x1="17.13" y1="17.28" x2="25.44" y2="13.08"/><polyline class="cls-3" points="27.71 11.93 28.16 11.7 28.6 11.93"/><line class="cls-6" x1="33.03" y1="14.22" x2="41.15" y2="18.43"/><polyline class="cls-3" points="43.36 19.57 43.81 19.8 43.81 20.3"/><line class="cls-4" x1="43.81" y1="27.46" x2="43.81" y2="32.23"/><polyline class="cls-3" points="43.81 35.81 43.81 36.31 43.37 36.56"/><line class="cls-7" x1="38.91" y1="39.16" x2="30.74" y2="43.91"/><polyline class="cls-3" points="28.51 45.2 28.08 45.45 27.64 45.21"/><line class="cls-8" x1="23.12" y1="42.61" x2="14.84" y2="37.86"/><circle class="cls-9" cx="28.16" cy="11.7" r="3.2"/><circle class="cls-9" cx="12.15" cy="19.8" r="3.2"/><circle class="cls-9" cx="28.08" cy="45.46" r="3.2"/><circle class="cls-9" cx="43.81" cy="19.8" r="3.2"/><circle class="cls-9" cx="43.81" cy="36.31" r="3.2"/><circle class="cls-9" cx="12.15" cy="36.31" r="3.2"/><circle class="cls-2" cx="28.16" cy="28.06" r="3.2"/></g></g></svg>