<svg xmlns="http://www.w3.org/2000/svg" viewBox="0 0 302.45 102.81"><defs><style>.cls-1{fill:#fff;}.cls-1,.cls-2,.cls-3,.cls-4{stroke:#003e72;}.cls-1,.cls-2,.cls-3,.cls-4,.cls-6,.cls-7{stroke-miterlimit:10;stroke-width:0.75px;}.cls-2,.cls-7{fill:none;}.cls-3{fill:#ccd8e3;}.cls-4{fill:#d0e2f2;}.cls-5{fill:#cedae4;}.cls-6{fill:#99b2c7;}.cls-6,.cls-7{stroke:#08355a;}</style></defs><g id="Layer_2" data-name="Layer 2"><g id="Layer_45" data-name="Layer 45"><polygon class="cls-1" points="4.24 74.03 3.31 81.75 24.61 87.3 4.24 74.03"/><path class="cls-1" d="M27.7,90.7l.31-4L3.13,81.87a2.31,2.31,0,0,0-2.64,3h0a6.73,6.73,0,0,0,5.44,4.62l12.51,1.86s7.72,9,15.44,8.64S27.7,90.7,27.7,90.7Z"/><circle class="cls-1" cx="263.71" cy="76.34" r="14.05"/><path class="cls-1" d="M295.33,53.34c-2.6-3.48-6.58-5.61-10.45-7.58C244.65,25.22,201.39,9.67,156.54,3.33,115.73-2.44,75.42,0,36.61,12.76c-9.17,3-10.45,12.65-24.27,15-2.81.49-3.52,3.58-3.51,3.59C28.17,51.8,58.59,59.05,77.94,79.46c4,4.27,8.32,8.69,13.87,10.67,4.12,1.47,8.6,1.46,13,1.44l130.83-.8a31,31,0,1,1,56.94-3.18,10.54,10.54,0,0,0,.88-.77c2.68-2.68,3.46-6.67,4.12-10.4C298.94,68.57,300.09,59.72,295.33,53.34Z"/><path class="cls-2" d="M140.07,30.81s6.49,8,4.63,32.11"/><circle class="cls-1" cx="263.59" cy="76.53" r="25.9"/><path class="cls-3" d="M129.89,4c2.69.08,60.92,1.88,109.48,26.29a9.54,9.54,0,0,1,3.92,13.45L231.05,64.1a1,1,0,0,1-.62.46l-77.7,19.9a72.35,72.35,0,0,1-22.56,2.11L95.28,84.33a1,1,0,0,1-.78-1.61l36.59-52.23a1,1,0,0,0-.33-1.47l-30.51-18"/><path class="cls-3" d="M135.75,7S220,17.23,225,30.81s-37.66,44.45-37.66,44.45"/><path class="cls-2" d="M100.25,11.05a382.4,382.4,0,0,1,56.2,7.08c13.88,2.7,29.5,5.87,39.2,17.09a11.77,11.77,0,0,1,1.84,2.69"/><line class="cls-2" x1="129.89" y1="3.95" x2="137.29" y2="30.19"/><path class="cls-1" d="M42.93,7.94l157,30a3.5,3.5,0,0,1,1.81,5.91l-5.07,5.07a13.39,13.39,0,0,1-7.57,3.8C173.7,55,120.94,64.23,92.59,89a45.54,45.54,0,0,1-30.3,11.14L34.49,100a2,2,0,0,1-1.12-.35h0A154.4,154.4,0,0,1,3.86,73h0C2.79,71.77,27.2,35.64,28,34.21l7.82-23A6.71,6.71,0,0,1,42.93,7.94Z"/><polyline class="cls-2" points="45.91 12.6 195.95 41.3 190.08 48.41 147.17 46.55"/><path class="cls-2" d="M140.69,45.63s-27.48-.93-29-.62"/><circle class="cls-4" cx="60.89" cy="71.1" r="31.03"/><path class="cls-2" d="M61.18,90.58a19.92,19.92,0,0,1,0-39.83"/><circle class="cls-5" cx="263.82" cy="76.39" r="17.14"/><path class="cls-6" d="M2.79,40.94C-.44,50,3.23,62.85,3.86,73c11.42-2.77,25.71-34.69,26-37.47.43-3.91-16-7.08-18.69-5.78A11.93,11.93,0,0,0,7.43,33,25.08,25.08,0,0,0,2.79,40.94Z"/><path class="cls-2" d="M10.72,36.67l8.56,1a3,3,0,0,1,2.24,4.44c-3.66,6.43-11,18.75-15.12,20.79"/><line class="cls-6" x1="32.18" y1="55.97" x2="23.84" y2="48.56"/><path class="cls-7" d="M163.69,85.61H222l13.58,5.16"/><path class="cls-3" d="M297.67,58l.9.22A4.63,4.63,0,0,1,302,63.43c-.8,5-2.35,12.62-4.46,13"/></g></g></svg>