<svg xmlns="http://www.w3.org/2000/svg" viewBox="0 0 188.37 188.37"><defs><style>.cls-1,.cls-12,.cls-2,.cls-8{fill:#fff;}.cls-1,.cls-10,.cls-11,.cls-12,.cls-2,.cls-4,.cls-6,.cls-9{stroke:#003e72;}.cls-1,.cls-10,.cls-11,.cls-12,.cls-2,.cls-4,.cls-5,.cls-6,.cls-7,.cls-8,.cls-9{stroke-miterlimit:10;}.cls-1{stroke-width:1.5px;}.cls-3,.cls-7{fill:#cbd266;}.cls-4,.cls-5{fill:none;}.cls-5,.cls-7,.cls-8{stroke:#0d3e63;}.cls-10,.cls-6{fill:#66abe2;}.cls-11,.cls-9{fill:#ebf2ee;}.cls-10,.cls-11,.cls-12{stroke-width:0.75px;}</style></defs><g id="Layer_2" data-name="Layer 2"><g id="Layer_189" data-name="Layer 189"><circle class="cls-1" cx="94.18" cy="94.18" r="93.43"/><rect class="cls-2" x="47.14" y="77.22" width="83.33" height="66.23"/><path class="cls-3" d="M81.57,49.78c.29-.44-2.32,27.05-2.32,27.05l19.1.15-.72-27.2Z"/><polygon class="cls-3" points="65.94 49.92 61.17 77.41 40.48 77.27 50.17 50.21 65.94 49.92"/><path class="cls-4" d="M65.94,49.92C66.23,49.49,61,77.26,61,77.26H79.69l1.88-27.48Z"/><polygon class="cls-3" points="112.53 49.92 117.45 77.55 136.1 77.15 127.06 50.09 112.53 49.92"/><line class="cls-5" x1="97.63" y1="49.78" x2="98.35" y2="76.98"/><line class="cls-5" x1="112.24" y1="49.63" x2="116.87" y2="77.26"/><path class="cls-6" d="M53.4,43h70.48a3.83,3.83,0,0,1,3.83,3.83v3a0,0,0,0,1,0,0H49.57a0,0,0,0,1,0,0v-3A3.83,3.83,0,0,1,53.4,43Z"/><path class="cls-7" d="M61,77.77a10.46,10.46,0,1,1-20.91,0"/><path class="cls-8" d="M80,77.41c0,6.31-4.26,11.43-9.51,11.43S61,83.72,61,77.41"/><path class="cls-8" d="M116.94,77.41c0,6-4.26,10.85-9.51,10.85s-9.51-4.86-9.51-10.85"/><path class="cls-7" d="M98.35,77.41c0,6.23-4.16,11.28-9.29,11.28s-9.3-5-9.3-11.28"/><path class="cls-7" d="M136,77.84c0,5.92-4.26,10.71-9.51,10.71S117,83.76,117,77.84"/><polygon class="cls-4" points="135.77 77.27 40.24 77.27 50.03 49.78 127.29 49.78 135.77 77.27"/><rect class="cls-9" x="60.53" y="95.95" width="21.26" height="28.05"/><polygon class="cls-6" points="81.79 104.69 70.6 104.69 60.52 104.69 60.52 95.94 81.79 95.94 81.79 104.69"/><line class="cls-2" x1="70.92" y1="124.26" x2="70.92" y2="104.69"/><rect class="cls-6" x="94.36" y="104.31" width="25.95" height="39.19"/><line class="cls-6" x1="107.01" y1="104.47" x2="107.01" y2="143.16"/><polygon class="cls-2" points="47.22 143.57 33.61 143.57 33.61 112.95 47.22 99.35 47.22 143.57"/><rect class="cls-2" x="129.81" y="92.94" width="24.63" height="50.38"/><path class="cls-10" d="M131.94,89.46h20a3,3,0,0,1,3,3v3.11a0,0,0,0,1,0,0h-26a0,0,0,0,1,0,0V92.47A3,3,0,0,1,131.94,89.46Z"/><rect class="cls-11" x="137.78" y="104.32" width="10.53" height="20.12"/><polygon class="cls-10" points="148.32 110.59 142.78 110.59 137.78 110.59 137.78 104.32 148.32 104.32 148.32 110.59"/><line class="cls-12" x1="142.93" y1="124.62" x2="142.93" y2="110.59"/><rect class="cls-2" x="89.31" y="136.73" width="66.95" height="7.37"/></g></g></svg>