<svg xmlns="http://www.w3.org/2000/svg" viewBox="0 0 176.85 176.85"><defs><style>.cls-1,.cls-3{fill:#fff;}.cls-1,.cls-3,.cls-4,.cls-5,.cls-6,.cls-7{stroke:#003e72;stroke-miterlimit:10;}.cls-1{stroke-width:1.5px;}.cls-2,.cls-6{fill:#66abe2;}.cls-4{fill:#ccc;}.cls-5{fill:none;}.cls-7{fill:#cbd266;}</style></defs><g id="Layer_2" data-name="Layer 2"><g id="Layer_121" data-name="Layer 121"><circle class="cls-1" cx="88.42" cy="88.42" r="87.67"/><path class="cls-2" d="M56.31,60.25c.52.14,55.79,0,55.79,0s-7.13-4.54-12-4.11-38.75,0-38.75,0Z"/><line class="cls-3" x1="57" y1="60.14" x2="111.23" y2="60.25"/><path class="cls-3" d="M95.38,78.84H90.11a1.78,1.78,0,0,1-1.78-1.77V67.41a1.78,1.78,0,0,1,1.78-1.77H92.6a1.77,1.77,0,0,1,1.7,1.28l2.79,9.65A1.77,1.77,0,0,1,95.38,78.84Z"/><path class="cls-3" d="M71.57,79.49H66.29a1.78,1.78,0,0,1-1.77-1.78V68.06a1.78,1.78,0,0,1,1.77-1.78h2.49a1.77,1.77,0,0,1,1.7,1.29l2.79,9.65A1.77,1.77,0,0,1,71.57,79.49Z"/><path class="cls-4" d="M110.45,61.71h2.18a0,0,0,0,1,0,0V64a1.81,1.81,0,0,1-1.81,1.81h-.36a0,0,0,0,1,0,0V61.71A0,0,0,0,1,110.45,61.71Z"/><line class="cls-4" x1="82.38" y1="60.66" x2="82.38" y2="77.35"/><path class="cls-5" d="M64.9,56H99a20,20,0,0,1,15.42,7.35L126.51,78l-81.9-.5L56.26,61.08C58.76,57.55,60.62,56,64.9,56Z"/><path class="cls-6" d="M74.61,105.72H34a3.47,3.47,0,0,1-3.38-3.55v-9c0-8.52,5.9-15.43,13.17-15.43h96.39c4.32,0,7.81,4.1,7.81,9.15v18.78H105.78"/><polyline class="cls-6" points="72.33 105.72 72.33 105.72 104.46 105.72 104.46 105.72"/><polyline class="cls-3" points="33.87 82.96 67.26 82.96 72.1 82.96 83.23 82.96"/><line class="cls-3" x1="126.51" y1="82.62" x2="138" y2="82.62"/><circle class="cls-3" cx="117.66" cy="107.5" r="12.77"/><circle class="cls-3" cx="54.39" cy="107.5" r="12.77"/><path class="cls-7" d="M140.39,86.73h7.33a0,0,0,0,1,0,0V93a0,0,0,0,1,0,0H134.52a0,0,0,0,1,0,0v-.38A5.88,5.88,0,0,1,140.39,86.73Z"/><line class="cls-6" x1="70.21" y1="100.64" x2="101.32" y2="100.64"/><rect class="cls-3" x="68.89" y="103.84" width="34.27" height="4.27"/><rect class="cls-3" x="132.33" y="103.42" width="19.27" height="5.21" rx="2.49"/><rect class="cls-3" x="26.91" y="100.96" width="13.11" height="6.8" rx="2.49"/><path class="cls-3" d="M60.45,106.77a7.18,7.18,0,0,1-6.19,8.06"/><path class="cls-3" d="M123.59,106.89a7.18,7.18,0,0,1-6.18,8.06"/><path class="cls-6" d="M117.14,83a1.81,1.81,0,0,1-2,1.57h0a1.8,1.8,0,0,1-2-1.57V72.43a1.8,1.8,0,0,1,2-1.57h0a1.81,1.81,0,0,1,2,1.57"/><path class="cls-7" d="M31.71,87h1a0,0,0,0,1,0,0V98.44a0,0,0,0,1,0,0h-1a2.66,2.66,0,0,1-2.66-2.66V89.63A2.66,2.66,0,0,1,31.71,87Z"/><rect class="cls-3" x="134.17" y="92.82" width="14.25" height="2.78"/></g></g></svg>