<svg xmlns="http://www.w3.org/2000/svg" viewBox="0 0 141 141"><defs><style>.cls-1,.cls-4{fill:#fff;}.cls-1,.cls-2,.cls-3,.cls-4,.cls-5{stroke:#003e72;stroke-miterlimit:10;}.cls-2{fill:#0073cf;}.cls-3{fill:#a8b400;}.cls-4{stroke-linecap:round;}.cls-5{fill:none;}</style></defs><g id="Layer_2" data-name="Layer 2"><g id="icons"><circle class="cls-1" cx="70.5" cy="70.5" r="70"/><path class="cls-2" d="M60.34,38.25l-1.66-2.39a1,1,0,0,0-1.26-.3l-3.78,2a12.49,12.49,0,0,0-2.14-1.51l.65-4.24a1,1,0,0,0-.71-1.09L48.64,30a1,1,0,0,0-1.17.59l-1.58,4a12.64,12.64,0,0,0-2.62.22L41.05,31.1a1,1,0,0,0-1.25-.38l-2.63,1.22a1,1,0,0,0-.52,1.19L38,37.21a12.11,12.11,0,0,0-1.87,1.85l-4.06-1.38a1,1,0,0,0-1.2.5l-1.23,2.63A1,1,0,0,0,30,42.06l3.65,2.25v0a12,12,0,0,0-.23,2.58l-4,1.55a1,1,0,0,0-.59,1.16l.74,2.81a1,1,0,0,0,1.08.72l4.25-.63a11.91,11.91,0,0,0,1.5,2.16l-2.07,3.76a1,1,0,0,0,.3,1.27L37,61.41a1,1,0,0,0,1.29-.15l2.86-3.21a11.78,11.78,0,0,0,2.07.61l.46.08L44.51,63a1,1,0,0,0,1,.78l2.9-.24a1,1,0,0,0,.89-.94l.13-4.29a12.23,12.23,0,0,0,2.38-1.1l3.35,2.69a1,1,0,0,0,1.3-.07l2.06-2.05a1,1,0,0,0,.08-1.3L56,53.07a12.31,12.31,0,0,0,1.11-2.38l4.3-.09a1,1,0,0,0,1-.89l.26-2.89a1,1,0,0,0-.77-1l-4.2-.86A12,12,0,0,0,57,42.37l3.23-2.83A1,1,0,0,0,60.34,38.25ZM48.47,53a6.87,6.87,0,1,1,3.35-9.12A6.88,6.88,0,0,1,48.47,53Z"/><rect class="cls-3" x="63.57" y="50.58" width="14.23" height="14.23"/><rect class="cls-4" x="63.57" y="68.08" width="14.23" height="14.23"/><rect class="cls-3" x="45.97" y="68.08" width="14.23" height="14.23"/><polyline class="cls-5" points="81.49 40.21 81.49 85.94 25.5 85.94 25.5 46.31"/><rect class="cls-5" x="25.55" y="85.94" width="89.91" height="12.7"/><path class="cls-5" d="M81.57,51.27l24.48.36,8.79,16.77a8.61,8.61,0,0,1,1,4.16l-.33,13.38h-34Z"/><circle class="cls-1" cx="48.38" cy="101.21" r="9.84"/><circle class="cls-1" cx="92.96" cy="101.21" r="9.84"/><path class="cls-1" d="M86.47,55.18V68.65h21A1.74,1.74,0,0,0,109,66l-6.09-10.61Z"/></g></g></svg>