<svg xmlns="http://www.w3.org/2000/svg" viewBox="0 0 184.73 184.73"><defs><style>.cls-1,.cls-4{fill:#fff;}.cls-1,.cls-2,.cls-3,.cls-4,.cls-5,.cls-6,.cls-7{stroke:#003e72;stroke-miterlimit:10;}.cls-1{stroke-width:1.5px;}.cls-2{fill:#ebf2ee;}.cls-3{fill:#66abe2;}.cls-5{fill:#a8b400;}.cls-6{fill:#0073cf;}.cls-7{fill:#c9d87d;}</style></defs><g id="Layer_2" data-name="Layer 2"><g id="Layer_129" data-name="Layer 129"><circle class="cls-1" cx="92.37" cy="92.37" r="91.62"/><path class="cls-2" d="M95.4,102.08,35,47.51V139.6l59.51-.19S95.4,100.38,95.4,102.08Z"/><circle class="cls-3" cx="49.23" cy="77.04" r="8.32"/><rect class="cls-4" x="51.08" y="89.79" width="88.15" height="49.9"/><rect class="cls-4" x="74.09" y="109.2" width="42.14" height="30.14"/><rect class="cls-3" x="69.1" y="101.99" width="52.12" height="7.76"/><line class="cls-3" x1="74.73" y1="118.9" x2="115.76" y2="118.9"/><line class="cls-3" x1="74.73" y1="129.43" x2="115.76" y2="129.43"/><rect class="cls-5" x="122.68" y="122.74" width="17.07" height="17.07"/><rect class="cls-5" x="142.76" y="122.74" width="17.07" height="17.07"/><rect class="cls-5" x="132.25" y="102.98" width="17.07" height="17.07"/><polygon class="cls-4" points="106.33 89.65 68.33 89.65 80.29 53.68 95.46 53.68 106.33 89.65"/><polygon class="cls-6" points="96.49 54.45 78.81 54.33 78.81 51.19 96.49 51.31 96.49 54.45"/><polygon class="cls-4" points="135.86 89.79 108.14 89.79 116.86 53.82 127.92 53.82 135.86 89.79"/><rect class="cls-6" x="115.78" y="51.33" width="13.15" height="3.14"/><polygon class="cls-7" points="94.14 89.56 94.14 76.88 117.5 89.89 94.14 89.56"/></g></g></svg>