<svg xmlns="http://www.w3.org/2000/svg" viewBox="0 0 134.43 134.43"><defs><style>.cls-1{fill:#e0e0e0;}.cls-1,.cls-2,.cls-3,.cls-4,.cls-5,.cls-6,.cls-7{stroke:#003e72;stroke-miterlimit:10;stroke-width:0.75px;}.cls-2{fill:#0073cf;}.cls-3{fill:none;}.cls-4{fill:#003e72;}.cls-5{fill:#d5e8f7;}.cls-6{fill:#a8b400;}.cls-7{fill:#cbd266;}</style></defs><g id="Layer_2" data-name="Layer 2"><g id="Layer_170" data-name="Layer 170"><circle class="cls-1" cx="67.22" cy="67.22" r="66.84"/><line class="cls-2" x1="27.92" y1="79.21" x2="27.92" y2="95.18"/><path class="cls-3" d="M27.92,55.75,46.65,37a3.56,3.56,0,0,1,5.05,0L68.88,54.21a3.3,3.3,0,0,0,4.67,0L94.87,32.89"/><line class="cls-3" x1="39.19" y1="86.55" x2="39.19" y2="95.08"/><line class="cls-2" x1="49.6" y1="58.24" x2="49.6" y2="94.75"/><line class="cls-3" x1="60.24" y1="79.21" x2="60.24" y2="95.08"/><line class="cls-2" x1="71.56" y1="70.69" x2="71.56" y2="95.08"/><line class="cls-3" x1="85.14" y1="64.13" x2="85.14" y2="94.75"/><line class="cls-2" x1="96.23" y1="51.45" x2="96.23" y2="95.08"/><line class="cls-3" x1="107.55" y1="58.24" x2="107.55" y2="95.08"/><polygon class="cls-4" points="97.55 36.78 101.07 26.39 90.69 29.91 97.55 36.78"/><circle class="cls-5" cx="49.6" cy="64.13" r="2.66"/><circle class="cls-6" cx="71.56" cy="76.51" r="2.66"/><circle class="cls-2" cx="96.23" cy="58.24" r="2.66"/><circle class="cls-7" cx="27.92" cy="83.89" r="2.66"/><path class="cls-5" d="M30.91,95.08h73a9.61,9.61,0,0,1,9.61,9.61v0a0,0,0,0,1,0,0H21.3a0,0,0,0,1,0,0v0A9.61,9.61,0,0,1,30.91,95.08Z"/></g></g></svg>