<svg xmlns="http://www.w3.org/2000/svg" viewBox="0 0 66.56 84.9"><defs><style>.cls-1{fill:#dbe5a8;}.cls-1,.cls-2,.cls-3{stroke:#003e72;stroke-miterlimit:10;stroke-width:0.75px;}.cls-2{fill:none;}.cls-3{fill:#71a9d8;}</style></defs><g id="Layer_2" data-name="Layer 2"><g id="Layer_56" data-name="Layer 56"><path class="cls-1" d="M65.75,6.79A4.35,4.35,0,0,0,61.82,4.3H58.31a4.4,4.4,0,0,0-2.68.93H31.17a3.65,3.65,0,0,0-2.41.91l-5.21,4.54a4.45,4.45,0,0,0-2.14.91l-.15.11-1.08,1-2.57-3-8.33,7.1L12,19.85l-1.41,1.23-.54.47a4.37,4.37,0,0,0-1.49,3.29V80.16a4.17,4.17,0,0,0,.11.94,4.4,4.4,0,0,0,4.26,3.42H61.82a4.37,4.37,0,0,0,4.37-4.36V8.66A4.36,4.36,0,0,0,65.75,6.79ZM52.26,11.05a4.14,4.14,0,0,1-3.6,2.41H28.25L30,10.54a3.46,3.46,0,0,1,2.91-1.78H52.74a3.5,3.5,0,0,0,.65-.07Z"/><path class="cls-2" d="M34.33,54.94,16.73,79.11a1.41,1.41,0,0,1-2,.3,1.38,1.38,0,0,1-.31-2l17.6-24.17a1.4,1.4,0,1,1,2.27,1.65Z"/><path class="cls-2" d="M34,47a1.4,1.4,0,0,1-2-.31L14.46,22.49a1.4,1.4,0,1,1,2.27-1.65L34.33,45A1.4,1.4,0,0,1,34,47Z"/><path class="cls-2" d="M59.75,79.41a1.4,1.4,0,0,1-2-.3L40.18,54.94a1.4,1.4,0,0,1,2.27-1.65l17.6,24.17A1.39,1.39,0,0,1,59.75,79.41Z"/><path class="cls-2" d="M60.05,22.49,42.45,46.65A1.4,1.4,0,1,1,40.18,45L57.79,20.84a1.4,1.4,0,1,1,2.26,1.65Z"/><path class="cls-3" d="M20,6.31,15.31.9A1.55,1.55,0,0,0,13.16.73L.91,11a1.48,1.48,0,0,0-.17,2.11l4.69,5.41a1.54,1.54,0,0,0,2.15.17L19.84,8.42A1.48,1.48,0,0,0,20,6.31Z"/></g></g></svg>