<svg xmlns="http://www.w3.org/2000/svg" viewBox="0 0 48.48 106.34"><defs><style>.cls-1{fill:#ccd8e3;stroke-linecap:round;stroke-linejoin:round;}.cls-1,.cls-2,.cls-3{stroke:#003e72;stroke-width:0.75px;}.cls-2{fill:#99b2c7;}.cls-2,.cls-3{stroke-miterlimit:10;}.cls-3{fill:#dbe5a8;}</style></defs><g id="Layer_2" data-name="Layer 2"><g id="Layer_52" data-name="Layer 52"><path class="cls-1" d="M31.7,100.79a5.9,5.9,0,0,1-6.58,5.13l-19.56-2.4A5.91,5.91,0,0,1,.42,96.94l.9-7.29,3.89.48A12,12,0,0,0,28.7,93l3.9.48ZM8.38,87.43l-2.8-.5-3.87-.47.62-5A5.92,5.92,0,0,1,8.9,76.28,3.85,3.85,0,0,0,13.28,73L18.5,38.71C12,39.82,6.74,43.35,5,46.69H1.79V11.79H48.1V46.69H44.86c-2-3.87-8.41-6.85-16.45-7.53L25,74.49a3.84,3.84,0,0,0,3.37,4.19,5.93,5.93,0,0,1,5.23,6.59l-.62,5-3.87-.47-2.62-.24M48.1,11.7h0v0H1.79V4.11H48.07v0h0Zm0-7.55H1.79V.38H48.1Z"/><path class="cls-2" d="M40.27,15.89a85.33,85.33,0,0,0-30.65,0,3.53,3.53,0,0,0-3,3V30.78a3.54,3.54,0,0,0,3,3,85.33,85.33,0,0,0,30.65,0,3.54,3.54,0,0,0,3-3V18.93A3.53,3.53,0,0,0,40.27,15.89ZM24.94,31.74a6.89,6.89,0,1,1,6.89-6.89A6.88,6.88,0,0,1,24.94,31.74Z"/><path class="cls-3" d="M18.28,80.78a9.15,9.15,0,1,0,8,10.2A9.14,9.14,0,0,0,18.28,80.78Z"/></g></g></svg>