<svg xmlns="http://www.w3.org/2000/svg" viewBox="0 0 221.81 278.43"><defs><style>.cls-1,.cls-4,.cls-5{fill:#fff;}.cls-1,.cls-2,.cls-3,.cls-4,.cls-5{stroke:#003e72;stroke-miterlimit:10;}.cls-1,.cls-2{stroke-width:0.75px;}.cls-2,.cls-3{fill:none;}.cls-3{stroke-width:2px;}.cls-4{stroke-width:0.5px;}</style></defs><g id="Layer_2" data-name="Layer 2"><g id="Layer_15" data-name="Layer 15"><rect class="cls-1" x="52.87" y="224.34" width="95.11" height="51.18" rx="13.36"/><path class="cls-1" d="M69.43,222.8l13.66-43.49c5.36-17.06,22.67-26.26,38.65-20.53h0c16,5.72,24.6,24.19,19.24,41.25l-13.67,43.49c-5.36,17.07-22.67,26.26-38.65,20.53h0C72.68,258.33,64.06,239.86,69.43,222.8Z"/><ellipse class="cls-2" cx="97.74" cy="236.29" rx="16.89" ry="18.03"/><ellipse class="cls-2" cx="97.74" cy="236.23" rx="9.25" ry="9.88"/><path class="cls-1" d="M44.43,95h0A17.32,17.32,0,0,1,41,71.85L84.24,8A14.92,14.92,0,0,1,106,4.28h0a17.34,17.34,0,0,1,3.48,23.17L66.14,91.31A14.92,14.92,0,0,1,44.43,95Z"/><line class="cls-1" x1="86.34" y1="27.14" x2="63.73" y2="60.74"/><path class="cls-1" d="M163.1,42.65,153,39.13a6,6,0,0,1-3.55-7.5h0a5.49,5.49,0,0,1,7-3.79l10.07,3.52a6,6,0,0,1,3.56,7.49h0A5.51,5.51,0,0,1,163.1,42.65Z"/><path class="cls-3" d="M170.13,38.85l11.54,5.32A16.34,16.34,0,0,1,189.93,53L191.88,58"/><path class="cls-1" d="M145.53,43.44,92,24.45c-5.77-2.05-8.89-8.7-7-14.86l.36-1.17C87.33,2.26,93.56-1.07,99.33,1l53.51,19c5.77,2.05,8.89,8.7,7,14.86L159.45,36C157.53,42.16,151.3,45.49,145.53,43.44Z"/><ellipse class="cls-2" cx="97.87" cy="13.88" rx="4.88" ry="5.21"/><line class="cls-2" x1="109.4" y1="14.36" x2="155.95" y2="30.92"/><path class="cls-2" d="M125.88,26.85l10.56,3.75"/><path class="cls-2" d="M108.07,20.51,118,24"/><path class="cls-1" d="M124.11,201h0c-7.92,5.48-18.5,3.06-23.64-5.4L39.26,94.65c-5.13-8.45-2.87-19.75,5.05-25.23h0c7.93-5.48,18.51-3.06,23.64,5.4l61.22,100.91C134.3,184.19,132,195.49,124.11,201Z"/><ellipse class="cls-2" cx="113.36" cy="185.49" rx="9.25" ry="9.88"/><ellipse class="cls-2" cx="54.04" cy="84.77" rx="10.67" ry="11.39"/><line class="cls-2" x1="63.73" y1="102.39" x2="104.52" y2="169.6"/><path class="cls-4" d="M197.72,278.18,4.63,278.06.25,277.9c0-5.83,5.82-10,11.65-10l172.92-.31c5.42,0,12.33,2.59,13.07,8.38a5.94,5.94,0,0,1-.17,2.26Z"/><path class="cls-5" d="M200,83.11l1.89,7.71"/><path class="cls-5" d="M196.82,70.25l1.05,4.29"/><path class="cls-5" d="M192.4,52.25l2.95,12"/><path class="cls-5" d="M188.08,34.68l2.4,9.76"/><path class="cls-5" d="M184.81,81,181,87.91"/><path class="cls-5" d="M191.09,69.55,189,73.37"/><path class="cls-5" d="M199.89,53.48,194,64.19"/><path class="cls-5" d="M208.48,37.81l-4.77,8.7"/><path class="cls-5" d="M176.31,68.26l-7.23,2"/><path class="cls-5" d="M188.35,64.88l-4,1.13"/><path class="cls-5" d="M205.22,60.16,194,63.31"/><path class="cls-5" d="M221.67,55.56l-9.14,2.56"/><path class="cls-5" d="M176.43,54.81l-6.81-3.29"/><path class="cls-5" d="M187.77,60.3,184,58.47"/><path class="cls-5" d="M203.65,68l-10.59-5.12"/><path class="cls-5" d="M219.14,75.49l-8.61-4.17"/><ellipse class="cls-5" cx="194.83" cy="62.14" rx="6.75" ry="7.2"/></g></g></svg>