<svg xmlns="http://www.w3.org/2000/svg" viewBox="0 0 126.28 126.28"><defs><style>.cls-1,.cls-6{fill:#fff;}.cls-1,.cls-2,.cls-3,.cls-4,.cls-5,.cls-6,.cls-7{stroke:#003e72;stroke-width:0.75px;}.cls-1,.cls-2,.cls-3,.cls-7{stroke-miterlimit:10;}.cls-2{fill:#ebf2ee;}.cls-3{fill:#cce3f5;}.cls-4{fill:none;}.cls-4,.cls-5,.cls-6{stroke-linecap:round;stroke-linejoin:round;}.cls-5{fill:#eef0cc;}.cls-7{fill:#e6e6e6;}</style></defs><g id="Layer_2" data-name="Layer 2"><g id="Layer_8" data-name="Layer 8"><path class="cls-1" d="M63.14,125.91A62.77,62.77,0,0,1,63.14.38"/><path class="cls-1" d="M63.14.38a62.77,62.77,0,1,1,0,125.53"/><circle class="cls-2" cx="63.07" cy="102.17" r="7.54"/><circle class="cls-3" cx="63.22" cy="24.16" r="7.54"/><line class="cls-4" x1="82.69" y1="43.62" x2="41.91" y2="44.09"/><polyline class="cls-4" points="23.68 62.78 43.6 82.7 83.3 83.48 102.92 63.86"/><circle class="cls-3" cx="24.14" cy="63.24" r="7.54"/><circle class="cls-5" cx="43.6" cy="82.7" r="7.54"/><circle class="cls-2" cx="82.53" cy="82.7" r="7.54"/><circle class="cls-3" cx="43.6" cy="43.78" r="7.54"/><circle class="cls-5" cx="82.69" cy="43.62" r="7.54"/><circle class="cls-6" cx="102.15" cy="63.09" r="7.54"/><path class="cls-7" d="M67.11,49.66l-2.34-.43a.81.81,0,0,0-.91.56l-1,3.37a9.7,9.7,0,0,0-2.12.36l-2.07-2.83a.8.8,0,0,0-1-.22l-2.07,1.18a.8.8,0,0,0-.34,1l1.4,3.23a9.37,9.37,0,0,0-1.39,1.64l-3.41-.84a.81.81,0,0,0-1,.5L50,59.42a.8.8,0,0,0,.39,1L53.57,62a10.3,10.3,0,0,0,0,2.15l-3.15,1.55a.82.82,0,0,0-.4,1l.81,2.24a.81.81,0,0,0,.94.51l3.41-.81,0,0a9.41,9.41,0,0,0,1.36,1.63l-1.42,3.21a.81.81,0,0,0,.33,1l2.06,1.19a.78.78,0,0,0,1-.21l2.1-2.82a9.53,9.53,0,0,0,2.12.38l1,3.38a.79.79,0,0,0,.9.56l2.35-.4a.81.81,0,0,0,.66-.84l-.21-3.5A10.73,10.73,0,0,0,69,71.39l.31-.22,2.92,2a.79.79,0,0,0,1-.15l1.54-1.81a.81.81,0,0,0,0-1.07L72.4,67.54a10,10,0,0,0,.74-2l3.5-.38a.8.8,0,0,0,.71-.79V62a.8.8,0,0,0-.71-.8l-3.48-.41a10.23,10.23,0,0,0-.74-2l2.44-2.54a.79.79,0,0,0,0-1.06l-1.52-1.83a.8.8,0,0,0-1-.16l-2.94,1.93A9.59,9.59,0,0,0,67.53,54l.24-3.5A.81.81,0,0,0,67.11,49.66Zm1.64,15.39a5.62,5.62,0,1,1-3.33-7.22A5.62,5.62,0,0,1,68.75,65.05Z"/></g></g></svg>