<svg xmlns="http://www.w3.org/2000/svg" viewBox="0 0 189.03 189.03"><defs><style>.cls-1,.cls-3{fill:#fff;}.cls-1,.cls-2,.cls-3,.cls-4,.cls-5,.cls-6,.cls-7,.cls-8{stroke:#003e72;stroke-miterlimit:10;}.cls-1{stroke-width:1.5px;}.cls-2,.cls-7{fill:none;}.cls-2{stroke-linecap:round;stroke-dasharray:1 6;}.cls-4{fill:#0073cf;}.cls-5{fill:#a8b400;}.cls-6{fill:#66abe2;}.cls-8{fill:#ebf2ee;}</style></defs><g id="Layer_2" data-name="Layer 2"><g id="Layer_10" data-name="Layer 10"><circle class="cls-1" cx="94.51" cy="94.51" r="93.76"/><path class="cls-2" d="M71.47,27.68c8.88-5.12,13.67,1.25,21.86,6.37"/><path class="cls-2" d="M104.21,27.68c8.88-5.12,13.66,1.25,21.86,6.37"/><polygon class="cls-3" points="82.04 98.38 61.89 98.38 68.23 40.68 76.28 40.68 82.04 98.38"/><polygon class="cls-3" points="106.55 98.38 86.4 98.38 92.75 40.68 100.79 40.68 106.55 98.38"/><polygon class="cls-3" points="130.99 98.38 110.84 98.38 117.18 40.68 125.22 40.68 130.99 98.38"/><rect class="cls-4" x="64.87" y="39.14" width="14.2" height="2.59"/><rect class="cls-4" x="89.38" y="39.14" width="14.19" height="2.59"/><rect class="cls-4" x="114.26" y="39.45" width="14.49" height="2.59"/><rect class="cls-3" x="42.07" y="98.46" width="104.69" height="51.77"/><rect class="cls-5" x="38.9" y="94.44" width="111.02" height="5.75"/><rect class="cls-3" x="32.13" y="124.49" width="64.42" height="25.66"/><rect class="cls-6" x="68.19" y="133.09" width="21.47" height="17.07"/><line class="cls-6" x1="78.92" y1="133.47" x2="78.92" y2="150.73"/><polygon class="cls-5" points="49.27 124.01 49.27 114.3 67.17 124.27 49.27 124.01"/><polygon class="cls-5" points="68.96 124.01 68.96 114.3 86.86 124.27 68.96 124.01"/><rect class="cls-7" x="39.55" y="133.27" width="6.01" height="6.01"/><rect class="cls-7" x="52.59" y="133.27" width="6.01" height="6.01"/><rect class="cls-6" x="57.72" y="104.85" width="5.88" height="5.87"/><rect class="cls-6" x="77.58" y="104.85" width="5.88" height="5.87"/><rect class="cls-6" x="97.43" y="104.85" width="5.88" height="5.87"/><rect class="cls-8" x="119.42" y="104.71" width="21.11" height="17.26"/><rect class="cls-7" x="102.89" y="133.22" width="37.45" height="17"/><line class="cls-7" x1="102.76" y1="137.57" x2="140.47" y2="137.57"/></g></g></svg>