<svg xmlns="http://www.w3.org/2000/svg" viewBox="0 0 98.82 190.34"><defs><style>.cls-1{fill:#fff;stroke:#003e72;stroke-miterlimit:10;stroke-width:0.75px;}</style></defs><g id="Layer_2" data-name="Layer 2"><g id="Layer_112" data-name="Layer 112"><rect class="cls-1" x="30.13" y="60.39" width="37.77" height="118.68"/><rect class="cls-1" x="24.53" y="48.31" width="48.99" height="20.06"/><line class="cls-1" x1="30.85" y1="48.42" x2="30.85" y2="68.41"/><line class="cls-1" x1="36.37" y1="48.42" x2="36.37" y2="68.41"/><line class="cls-1" x1="42.53" y1="48.42" x2="42.53" y2="68.41"/><line class="cls-1" x1="48.7" y1="48.42" x2="48.7" y2="68.41"/><line class="cls-1" x1="54.86" y1="48.42" x2="54.86" y2="68.41"/><line class="cls-1" x1="61.03" y1="48.42" x2="61.03" y2="68.41"/><line class="cls-1" x1="67.19" y1="48.42" x2="67.19" y2="68.41"/><line class="cls-1" x1="68.17" y1="68.88" x2="30.66" y2="98.58"/><line class="cls-1" x1="68.17" y1="99.1" x2="30.66" y2="128.8"/><line class="cls-1" x1="68.17" y1="129.06" x2="30.66" y2="158.75"/><rect class="cls-1" x="33.44" y="35.66" width="31.94" height="12.65"/><rect class="cls-1" x="39.25" y="17.89" width="20.32" height="17.78"/><path class="cls-1" d="M63.62,18.08,54.34,6.41c-1.54-1.93-3-4-4.64-5.83-.25-.28-.29-.27-.53,0s-.4.51-.6.76L47.41,2.81,45.09,5.73,35.8,17.4l-.6.76Z"/><path class="cls-1" d="M54.14,35.74H44.68l1.43-12.12a3.08,3.08,0,0,1,3.07-2.73h.46a3.08,3.08,0,0,1,3.07,2.73Z"/><rect class="cls-1" x="7.02" y="161.75" width="84.79" height="28.21"/><rect class="cls-1" x="0.38" y="158.23" width="98.07" height="8.6"/><line class="cls-1" x1="11.32" y1="176.6" x2="87.51" y2="176.6"/><line class="cls-1" x1="11.32" y1="183.63" x2="87.51" y2="183.63"/></g></g></svg>