<svg xmlns="http://www.w3.org/2000/svg" viewBox="0 0 141 141"><defs><style>.cls-1{fill:#fff;}.cls-1,.cls-2,.cls-3,.cls-4,.cls-5{stroke:#003e72;}.cls-1,.cls-2,.cls-3,.cls-4{stroke-miterlimit:10;}.cls-2{fill:#66abe2;}.cls-3{fill:#ebf2ee;}.cls-4{fill:#c9d87d;}.cls-5{fill:none;stroke-linecap:round;stroke-linejoin:round;stroke-dasharray:1 6;}</style></defs><g id="Layer_2" data-name="Layer 2"><g id="icons"><circle class="cls-1" cx="70.5" cy="70.5" r="70"/><polygon class="cls-1" points="114.38 99.4 77.51 99.4 77.51 59.77 114.38 42.98 114.38 99.4"/><rect class="cls-2" x="72.84" y="50.84" width="46.36" height="3.11" transform="translate(-13.25 47.31) rotate(-25.96)"/><rect class="cls-1" x="22.06" y="80.41" width="51.57" height="18.89"/><path class="cls-3" d="M73.39,61.18h.47a9.75,9.75,0,0,1,9.75,9.75V99.41a0,0,0,0,1,0,0h-20a0,0,0,0,1,0,0V70.93A9.75,9.75,0,0,1,73.39,61.18Z"/><path class="cls-3" d="M96.12,61.1h.47a9.75,9.75,0,0,1,9.75,9.75V99.36a0,0,0,0,1,0,0h-20a0,0,0,0,1,0,0V70.85A9.75,9.75,0,0,1,96.12,61.1Z"/><polygon class="cls-4" points="41.05 80.41 30.23 80.41 32.32 44.37 38.97 44.37 41.05 80.41"/><polygon class="cls-4" points="57.69 80.41 46.87 80.41 48.95 57.95 55.6 57.95 57.69 80.41"/><polygon class="cls-2" points="57.27 99.26 28.43 99.26 28.43 87.34 42.3 87.34 57.27 87.34 57.27 99.26"/><line class="cls-1" x1="42.85" y1="99.54" x2="42.99" y2="87.34"/><rect class="cls-1" x="103.29" y="55" width="6.6" height="4.9"/><path class="cls-1" d="M63.51,82.49s8.59,4.76,19.82.05"/><path class="cls-1" d="M86.66,82.71a27.54,27.54,0,0,0,19.54,0"/><line class="cls-5" x1="63.91" y1="51.33" x2="106.2" y2="33.02"/><line class="cls-5" x1="50.94" y1="45.34" x2="93.23" y2="27.04"/></g></g></svg>