<svg xmlns="http://www.w3.org/2000/svg" viewBox="0 0 329.25 329.25"><defs><style>.cls-1{fill:#fff;}.cls-1,.cls-3,.cls-4,.cls-5,.cls-6{stroke:#003e72;stroke-miterlimit:10;stroke-width:2px;}.cls-2{fill:#d5e8f7;}.cls-3{fill:#cbd266;}.cls-4{fill:none;}.cls-5{fill:#a8b400;}.cls-6{fill:#66abe2;}</style></defs><g id="Layer_2" data-name="Layer 2"><g id="U_02"><circle class="cls-1" cx="164.62" cy="164.62" r="163.62"/><path class="cls-2" d="M116,319.38c96,20.18,145.82-26.38,147.12-26.38,7.43,0-16.28-1.31-16.28-1.31l6.19-4.55c10.74-43.95-40.69-41.34-40.69-41.34,9.12-26.37-26-32.55-26-32.55,2.28-6.84-6.83-8.14-6.83-8.14,5.86-11.07-4.24-19.85-4.24-19.85l-21.76.85s-10.09,8.79-4.23,19.86c0,0-9.11,1.3-6.83,8.13,0,0-35.16,6.19-26,32.55,0,0-51.43-2.6-40.69,41.34l-6.9,1.62s-8.83,3.21-1.39,3.21c1.3,0,43.7,41.32,136.79,28.95"/><path class="cls-3" d="M144.5,166.85s-14.4,6.59-12.45,16.6-23.68-32.47,7.82-46.63"/><path class="cls-3" d="M183.11,166.53s14.4,6.59,12.45,16.6,22.67-33.37-8.82-47.53"/><path class="cls-4" d="M163.3,65.54S126.44,104.59,146.7,172h34.18C183.81,170.51,197.72,96.29,163.3,65.54Z"/><polygon class="cls-5" points="156.22 172.46 148.16 188.08 179.41 188.08 171.6 172.46 156.22 172.46"/><circle class="cls-6" cx="164.4" cy="123.15" r="10.86"/><path class="cls-4" d="M145,100h36.86"/><path class="cls-4" d="M151.09,189.3c0-.73-7.81,5.62-2.92,17.09,0,0-8.06.74-5.86,8.06,0,0-30.27-1.22-26.61,33,0,0-49.56-6.84-40,42a12.54,12.54,0,0,1,1.63,3.25c-3.34-3.07-10.25-5.28-13.06-.09"/><path class="cls-4" d="M177,188.73c0-.73,7.81,5.61,2.93,17.09,0,0,8.05.73,5.86,8.05,0,0,30.27-1.22,26.6,33,0,0,49.56-6.84,40,42l-2.69,1.95s11.23-3.42,12.45,4.64"/></g></g></svg>