<svg xmlns="http://www.w3.org/2000/svg" viewBox="0 0 256.03 215.35"><defs><style>.cls-1{fill:#ccd8e3;}.cls-1,.cls-2,.cls-4,.cls-7{stroke:#003e72;}.cls-1,.cls-2,.cls-4,.cls-6,.cls-7{stroke-miterlimit:10;stroke-width:2px;}.cls-2,.cls-6{fill:#eef0cc;}.cls-3{font-size:41.23px;font-family:OpenSans-Bold, Open Sans;font-weight:700;}.cls-3,.cls-5{fill:#003e72;}.cls-4{fill:#cbd266;}.cls-6{stroke:#668baa;}.cls-7{fill:none;}</style></defs><g id="Layer_2" data-name="Layer 2"><g id="Into__page" data-name="Into _page"><path class="cls-1" d="M192,55.8s16.16-25.21,42.12-20.94h0c4.36.45,7.23,4.2,6,7.89L229.72,74.6"/><path class="cls-2" d="M103.06,49.87A63.17,63.17,0,0,0,39.89,113v14.22a63.19,63.19,0,0,0,44.4,60.33,10.46,10.46,0,0,0-.52,3.23v13.1a10.43,10.43,0,0,0,10.44,10.43h24a10.43,10.43,0,0,0,10.44-10.43v-13.1c0-.13,0-.26,0-.39H148c0,.13,0,.25,0,.39v13.1a10.44,10.44,0,0,0,10.44,10.43h24a10.43,10.43,0,0,0,10.44-10.43v-13.1a10.08,10.08,0,0,0-.19-1.92,63.21,63.21,0,0,0,47.73-47.25H247a8.06,8.06,0,0,0,8.06-8.06V108A8.06,8.06,0,0,0,247,99.93h-6.23a63.19,63.19,0,0,0-60.14-50A1.35,1.35,0,0,1,179.19,51"/><text class="cls-3" transform="translate(125.27 60.24)">$</text><path class="cls-4" d="M105.79,56.14a32.67,32.67,0,1,1,62.27.68,58.61,58.61,0,0,1,10.48,8.61,45.58,45.58,0,1,0-83.42-.91A59,59,0,0,1,105.79,56.14Z"/><circle class="cls-5" cx="208.47" cy="93.45" r="5.59"/><path class="cls-2" d="M188.58,54.79S200.2,31,223.89,35.42h0a6.51,6.51,0,0,1,5.5,8.25L219.87,77"/><path class="cls-6" d="M192.83,68c-16-14.91-26.55-14.95-58-14.95-31,0-49.5,4.23-58.44,15.18"/><path class="cls-7" d="M40.19,123.29c-12.2,1.52-24.11-4.52-25.86-17.6a23.63,23.63,0,0,1,1.86-12.44,29.2,29.2,0,0,1,3.16-5.68c2-2.66,6.56-3.73,7.54.45.7,3-1.23,6.71-2.5,9.31-1.8,3.74-4.24,7.8-7.36,10.57C9.32,114.78,2.58,103,1.7,96.61A71.52,71.52,0,0,1,4.51,64.42"/></g></g></svg>