<svg xmlns="http://www.w3.org/2000/svg" viewBox="0 0 162.09 539.02"><defs><style>.cls-1{fill:#d0e0e2;}.cls-2{fill:#eef0cc;}.cls-2,.cls-3{stroke:#003e72;stroke-miterlimit:10;stroke-width:2px;}.cls-3{fill:none;}</style></defs><g id="Layer_2" data-name="Layer 2"><g id="Into__page" data-name="Into _page"><rect class="cls-1" x="15.32" y="413.54" width="131.47" height="104.23" rx="3.17"/><path class="cls-2" d="M82.69,1.31c-49.23,54-1.93,99.4-1.93,99.4,3.86-1.93,22.62-17.21,21.59-51.27C101.26,13.61,82.69,1.31,82.69,1.31Z"/><path class="cls-2" d="M161.05,103.17c-73-4.12-78.37,61.19-78.37,61.19,3.93,1.78,27.63,6.7,53.41-15.57C163.21,125.35,161.05,103.17,161.05,103.17Z"/><path class="cls-2" d="M1.14,146.85c13.92,71.76,78.55,61,78.55,61,.76-4.24-.28-28.43-28.2-48C22.11,139.3,1.14,146.85,1.14,146.85Z"/><line class="cls-2" x1="81.72" y1="99.03" x2="81.72" y2="509.45"/><rect class="cls-3" x="39.38" y="245.24" width="85.05" height="36.92" rx="4.71"/><path class="cls-3" d="M158.84,359.27a23.19,23.19,0,0,0-.65-2.58c-2.14-6.81-7.34-12.18-12.61-17a211.53,211.53,0,0,0-35.77-26.41c-1.64-1-3.36-2-4.31-3.61a10.53,10.53,0,0,1-1-5.19q-.17-11.12.65-22.2c-2.91-.16-49.15-.15-49.14,0a214.64,214.64,0,0,1,.68,22.54,10.35,10.35,0,0,1-.87,4.69c-.94,1.74-2.75,2.8-4.45,3.79a204.7,204.7,0,0,0-36.31,26.93c-5,4.62-9.86,9.73-11.95,16.18-1.46,4.48-1.45,9.28-1.43,14l.73,163a5.44,5.44,0,0,0,.59,3C4,537.86,6.1,538,7.89,538H153.53c1.75,0,3.8-.16,4.73-1.63a5.32,5.32,0,0,0,.56-2.85l.73-163A55.57,55.57,0,0,0,158.84,359.27Z"/><line class="cls-3" x1="3.55" y1="526.82" x2="158.45" y2="526.82"/></g></g></svg>