<svg xmlns="http://www.w3.org/2000/svg" viewBox="0 0 98.45 98.45"><defs><style>.cls-1,.cls-5{fill:#fff;}.cls-1,.cls-2,.cls-3,.cls-4,.cls-5,.cls-6{stroke:#003e72;stroke-miterlimit:10;}.cls-1{stroke-width:1.5px;}.cls-2{fill:#a8b400;}.cls-2,.cls-3,.cls-4,.cls-5,.cls-6{stroke-width:0.75px;}.cls-3{fill:#c9d87d;}.cls-4{fill:none;}.cls-6{fill:#ebf2ee;}</style></defs><g id="Layer_2" data-name="Layer 2"><g id="Layer_97" data-name="Layer 97"><circle class="cls-1" cx="49.23" cy="49.23" r="48.48"/><rect class="cls-2" x="44.43" y="35.43" width="9.85" height="9.85"/><rect class="cls-3" x="32.42" y="35.64" width="9.85" height="9.85"/><rect class="cls-3" x="44.43" y="47.55" width="9.85" height="9.85"/><rect class="cls-2" x="32.24" y="47.55" width="9.85" height="9.85"/><polyline class="cls-4" points="56.84 28.25 56.84 59.92 18.07 59.92 18.07 32.47"/><rect class="cls-5" x="18.1" y="59.92" width="62.26" height="8.8"/><path class="cls-5" d="M56.89,35.91l17,.25,6.08,11.61a6,6,0,0,1,.66,2.89l-.23,9.26H56.84Z"/><circle class="cls-5" cx="33.91" cy="70.49" r="6.81"/><circle class="cls-5" cx="64.78" cy="70.49" r="6.81"/><path class="cls-5" d="M60.28,38.62v9.32H74.81a1.2,1.2,0,0,0,1-1.8l-4.22-7.35Z"/><rect class="cls-6" x="20.5" y="35.51" width="9.73" height="22.04"/></g></g></svg>