<svg xmlns="http://www.w3.org/2000/svg" viewBox="0 0 216.92 226.86"><defs><style>.cls-1{fill:#d5e8f7;}.cls-1,.cls-2,.cls-3,.cls-4{stroke:#003e72;stroke-miterlimit:10;stroke-width:2px;}.cls-2{fill:none;}.cls-3{fill:#0073cf;}.cls-4{fill:#a8b400;}</style></defs><g id="Layer_2" data-name="Layer 2"><g id="Extra_Icons"><path class="cls-1" d="M126.43,1V223.47s-46.83,13.84-68.65-25c0,0-50.34,4.79-43.27-50.56,0,0-32.84-31.4,3.88-71.31,0,0-10.25-39.92,30.34-43.11,0,0,11.18-31.94,47.37-32.47Z"/><path class="cls-1" d="M66.68,70.31s-19,4.14-18-36.84"/><path class="cls-1" d="M89.45,20.58c1.16,1.88,17.57,18.87,36.6,9.58"/><path class="cls-1" d="M126.43,97.86S105.13,84,84.65,102.65c0,0-9.84,12.25-27.41,6.92"/><path class="cls-1" d="M37.55,88.28c13.54-.9,34.93,21.85,7.66,36.2"/><path class="cls-1" d="M57.78,198.45c-3.57-4.69-4-20-2.47-29.67,2.09-13.27,11.86-23.55,23.32-30.23a79.31,79.31,0,0,1,17.51-7.32"/><path class="cls-2" d="M45,139.47a12.38,12.38,0,0,0-4,14.08c2.3,6,8.72,9.29,15.25,13.33"/><path class="cls-1" d="M98.74,179.81c7.91-7,17.12-10.46,27.69-9"/><path class="cls-3" d="M207.9,115.54,202,107.08a3.44,3.44,0,0,0-4.48-1.07l-13.39,7.22a42.64,42.64,0,0,0-7.61-5.38l2.32-15A3.45,3.45,0,0,0,176.35,89l-9.94-2.71a3.46,3.46,0,0,0-4.12,2.06l-5.62,14.14a42.73,42.73,0,0,0-9.28.77l-7.88-13a3.45,3.45,0,0,0-4.41-1.35l-9.35,4.31a3.46,3.46,0,0,0-1.83,4.24l4.78,14.44a43.09,43.09,0,0,0-6.61,6.55l-14.4-4.9a3.46,3.46,0,0,0-4.24,1.81l-4.39,9.31a3.45,3.45,0,0,0,1.31,4.42l12.95,8,0,.14a43.14,43.14,0,0,0-.82,9.13l-14.18,5.5a3.46,3.46,0,0,0-2.09,4.11l2.62,10a3.47,3.47,0,0,0,3.85,2.55l15-2.21a43.34,43.34,0,0,0,5.32,7.64l-7.33,13.34a3.45,3.45,0,0,0,1,4.49l8.41,5.94a3.46,3.46,0,0,0,4.58-.52l10.12-11.37a43,43,0,0,0,7.35,2.16c.54.11,1.08.19,1.62.28l3,14.93a3.45,3.45,0,0,0,3.68,2.77l10.26-.86a3.44,3.44,0,0,0,3.17-3.34l.45-15.21a43.45,43.45,0,0,0,8.45-3.9l11.86,9.53a3.46,3.46,0,0,0,4.6-.24l7.31-7.26a3.46,3.46,0,0,0,.28-4.6l-9.43-11.92a43.07,43.07,0,0,0,4-8.43l15.21-.33a3.45,3.45,0,0,0,3.37-3.14l.94-10.26a3.45,3.45,0,0,0-2.75-3.7l-14.88-3.08a43.11,43.11,0,0,0-2.39-9l11.44-10A3.46,3.46,0,0,0,207.9,115.54Zm-42.09,52.14a24.34,24.34,0,1,1,11.9-32.3A24.35,24.35,0,0,1,165.81,167.68Z"/><path class="cls-4" d="M119.75,53.12l-3.93-5.66a2.32,2.32,0,0,0-3-.71l-8.94,4.82A29.45,29.45,0,0,0,98.8,48l1.55-10a2.33,2.33,0,0,0-1.68-2.59L92,33.55a2.31,2.31,0,0,0-2.76,1.37l-3.75,9.45a29,29,0,0,0-6.2.52L74.05,36.2a2.3,2.3,0,0,0-3-.9l-6.25,2.88A2.32,2.32,0,0,0,63.63,41l3.2,9.65A28.6,28.6,0,0,0,62.41,55l-9.62-3.28A2.32,2.32,0,0,0,50,53L47,59.2a2.3,2.3,0,0,0,.87,2.95l8.66,5.34,0,.09a28.83,28.83,0,0,0-.54,6.1L46.5,77.36a2.33,2.33,0,0,0-1.4,2.75l1.76,6.65a2.31,2.31,0,0,0,2.57,1.7L59.49,87A28.91,28.91,0,0,0,63,92.09L58.14,101a2.32,2.32,0,0,0,.7,3l5.62,4a2.32,2.32,0,0,0,3.06-.35l6.76-7.6a29.29,29.29,0,0,0,4.91,1.44c.37.08.73.13,1.09.19l2,10a2.31,2.31,0,0,0,2.46,1.85l6.86-.57a2.32,2.32,0,0,0,2.12-2.24L94,100.52a28.7,28.7,0,0,0,5.65-2.61l7.92,6.37a2.31,2.31,0,0,0,3.08-.16l4.89-4.85a2.32,2.32,0,0,0,.18-3.08l-6.3-8a28.83,28.83,0,0,0,2.65-5.64l10.16-.21a2.32,2.32,0,0,0,2.26-2.1l.62-6.86a2.32,2.32,0,0,0-1.83-2.48l-10-2a28.48,28.48,0,0,0-1.6-6l7.65-6.7A2.31,2.31,0,0,0,119.75,53.12ZM91.62,88a16.27,16.27,0,1,1,7.95-21.58A16.27,16.27,0,0,1,91.62,88Z"/></g></g></svg>