<svg xmlns="http://www.w3.org/2000/svg" viewBox="0 0 134.43 134.43"><defs><style>.cls-1{fill:#e0e0e0;}.cls-1,.cls-2,.cls-3,.cls-4,.cls-5{stroke:#003e72;}.cls-1,.cls-3,.cls-4,.cls-5{stroke-miterlimit:10;}.cls-1,.cls-2,.cls-3,.cls-4{stroke-width:0.75px;}.cls-2{fill:#ccd8e3;stroke-linecap:round;stroke-linejoin:round;}.cls-3{fill:#668baa;}.cls-4{fill:#d5dadf;}.cls-5{fill:#a3cdee;stroke-width:0.5px;}.cls-6{fill:#003e72;}</style></defs><g id="Layer_2" data-name="Layer 2"><g id="Layer_163" data-name="Layer 163"><circle class="cls-1" cx="67.22" cy="67.22" r="66.84"/><path class="cls-2" d="M98.36,77.64A1.73,1.73,0,0,1,97.65,79C94.1,81.25,83.06,68.64,67,68.66h0c-16,0-27.09,12.59-30.65,10.29a1.79,1.79,0,0,1-.71-1.31,29.83,29.83,0,0,0-5.51,4.84A37,37,0,0,0,67,116h0a37.06,37.06,0,0,0,36.88-33.51A29.58,29.58,0,0,0,98.36,77.64ZM42,99a32.24,32.24,0,0,1-5.15-9,1.66,1.66,0,0,1,2-2.2,46.91,46.91,0,0,0,10.46,1.42C54,88.79,50.15,105.32,42,99Zm34.95,10.13A28.58,28.58,0,0,1,67,111h0a28.53,28.53,0,0,1-9.93-1.8c-7.43-3.79-2.56-19.43,6.4-19.68,1.35,0,2.14.06,3.53.07h0c1.39,0,2.18-.05,3.54-.07C79.5,89.72,84.37,105.36,76.94,109.15ZM97.15,90A32,32,0,0,1,92,99c-8.16,6.3-12-10.23-7.29-9.78a47,47,0,0,0,10.47-1.42A1.65,1.65,0,0,1,97.15,90Z"/><path class="cls-3" d="M67,41.91h0A37,37,0,0,0,30,79c0,.69,0,1.37.07,2a31.55,31.55,0,0,1,5-4.25l.62-.43c0-.31.06-.61.09-.88.14-1.19-.33-2.49-.07-3.64s1.25-2.12,1.64-3.23.22-2.5.74-3.56,1.69-1.79,2.32-2.79.77-2.37,1.52-3.3,2-1.37,2.88-2.21S46,54.56,47,53.81s2.3-.87,3.3-1.5S52,50.5,53,50s2.43-.34,3.56-.73,2.07-1.38,3.24-1.64,2.44.2,3.63.07,2.32-.88,3.52-.88h0c1.2,0,2.36.75,3.52.88s2.49-.34,3.63-.07,2.13,1.24,3.25,1.64,2.48.22,3.55.73,1.79,1.69,2.79,2.33,2.37.76,3.3,1.5,1.37,2,2.21,2.89,2.14,1.28,2.88,2.21.88,2.29,1.52,3.3S95.45,63.92,96,65s.34,2.43.74,3.56,1.37,2.07,1.64,3.23-.21,2.45-.08,3.64c0,.27.07.57.09.88l.62.43A31.2,31.2,0,0,1,104,81q.06-1,.06-2A37,37,0,0,0,67,41.91Z"/><path class="cls-4" d="M51,85.36C54.59,87.71,61.37,88,67,88s12.4-.32,16-2.67c2.5-1.66,2.74-5.19,2.74-6.79,0-3.88-9.11-8.4-18.7-8.51-9.59.11-18.7,4.63-18.7,8.51C48.3,80.17,48.54,83.7,51,85.36Z"/><circle class="cls-5" cx="67" cy="79.05" r="5.81"/><path class="cls-6" d="M39.07,25.33A41.16,41.16,0,0,1,49.5,18,37.57,37.57,0,0,1,76,14.61c7.14,1.85,13.47,5.85,18.93,10.72.72.64,1.78-.41,1.06-1.06-9-8.07-20.48-13.46-32.82-12a44.55,44.55,0,0,0-21.33,8.81A34.71,34.71,0,0,0,38,24.27c-.68.69.38,1.75,1.06,1.06Z"/><path class="cls-6" d="M48,35.16C54.75,29,63.7,25.5,72.8,27.86a32.87,32.87,0,0,1,13.07,7.28c.73.62,1.8-.43,1.06-1.06-6.23-5.37-14-9.19-22.39-8.37a29.16,29.16,0,0,0-14.62,5.9c-1,.78-2,1.62-3,2.49-.71.65.35,1.71,1.06,1.06Z"/></g></g></svg>