<svg xmlns="http://www.w3.org/2000/svg" viewBox="0 0 85.24 85.24"><defs><style>.cls-1,.cls-2{fill:#fff;}.cls-1,.cls-2,.cls-3,.cls-4{stroke:#003e72;stroke-miterlimit:10;}.cls-1{stroke-width:1.5px;}.cls-3{fill:#66abe2;}.cls-4{fill:#ebf2ee;}</style></defs><g id="Layer_2" data-name="Layer 2"><g id="Layer_114" data-name="Layer 114"><circle class="cls-1" cx="42.62" cy="42.62" r="41.87"/><path class="cls-2" d="M52.58,23.82C45.35,21.55,39.05,28,32.2,28H26.38V23.76c0-3.12-2.14-5.65-4.78-5.65s-4.78,2.53-4.78,5.65V44.64c0,3.12,2.14,5.65,4.78,5.65h4.78V39.35c5.65,0,11.23-1.59,15.75,2.66,2.51,2.35,3,4.46,2.72,7.67-.06.71-1.05,8.15-1.46,8.15H61.93c.68-9.78,1.36-29.47-8.29-33.61A9.15,9.15,0,0,0,52.58,23.82Z"/><rect class="cls-2" x="15.12" y="57.86" width="53.88" height="6.11" rx="2.9"/><line class="cls-2" x1="22.35" y1="49.82" x2="22.35" y2="54.1"/><line class="cls-2" x1="49.33" y1="54.08" x2="57.35" y2="54.08"/><circle class="cls-3" cx="51.12" cy="35.25" r="4.66"/><rect class="cls-4" x="64.86" y="29.84" width="5.26" height="12.86" rx="2.49"/><line class="cls-2" x1="64.86" y1="36.41" x2="61.52" y2="36.41"/><line class="cls-2" x1="21.97" y1="18.11" x2="21.97" y2="45.82"/></g></g></svg>