<svg xmlns="http://www.w3.org/2000/svg" viewBox="0 0 107.48 107.48"><defs><style>.cls-1{fill:#ebf2ee;}.cls-1,.cls-2,.cls-3,.cls-4,.cls-5,.cls-6{stroke:#003e72;stroke-miterlimit:10;stroke-width:0.75px;}.cls-2{fill:none;}.cls-3{fill:#2e8cd8;}.cls-4{fill:#cbd266;}.cls-5{fill:#82bae8;}.cls-6{fill:#66abe2;}</style></defs><g id="Layer_2" data-name="Layer 2"><g id="Layer_27" data-name="Layer 27"><circle class="cls-1" cx="53.74" cy="53.74" r="53.36"/><polyline class="cls-2" points="12.91 63.77 46.57 23.54 79.51 62.94"/><polyline class="cls-2" points="81.36 60.48 88.13 36.16 49.03 22.92"/><polyline class="cls-2" points="14.24 64.18 38.57 53.71 85.06 35.54"/><polyline class="cls-2" points="10.86 66.64 50.57 75.57 38.57 53.71 45.95 25.69"/><line class="cls-2" x1="81.67" y1="62.94" x2="50.57" y2="75.57"/><path class="cls-2" d="M50,70s-3.7-45.88-1.54-45.88"/><line class="cls-2" x1="89.67" y1="33.39" x2="52.42" y2="73.41"/><circle class="cls-3" cx="50.57" cy="75.87" r="7.08"/><circle class="cls-4" cx="11.47" cy="66.02" r="4.44"/><circle class="cls-4" cx="46.88" cy="23.84" r="4.44"/><circle class="cls-5" cx="38.42" cy="54.07" r="4.44"/><circle class="cls-6" cx="80.85" cy="62.07" r="4.44"/><circle class="cls-3" cx="88.44" cy="35.24" r="7.08"/></g></g></svg>