<svg xmlns="http://www.w3.org/2000/svg" viewBox="0 0 188.48 188.48"><defs><style>.cls-1,.cls-3,.cls-5{fill:#fff;}.cls-1,.cls-2,.cls-5,.cls-7{stroke:#003e72;stroke-miterlimit:10;}.cls-1{stroke-width:1.5px;}.cls-2{fill:none;}.cls-4{fill:#ebf2ee;}.cls-6{fill:#003e72;}.cls-7{fill:#a8b400;}</style></defs><g id="Layer_2" data-name="Layer 2"><g id="Layer_132" data-name="Layer 132"><circle class="cls-1" cx="94.24" cy="94.24" r="93.49"/><rect class="cls-2" x="39.87" y="77.82" width="44.81" height="47.66" rx="16.95"/><rect class="cls-2" x="47.47" y="88.44" width="29.62" height="26.41" rx="7.06" transform="translate(163.92 39.37) rotate(90)"/><path class="cls-3" d="M63,62.18h67.57a0,0,0,0,1,0,0v73.95a10.69,10.69,0,0,1-10.69,10.69H73.68A10.69,10.69,0,0,1,63,136.13V62.18A0,0,0,0,1,63,62.18Z"/><rect class="cls-4" x="63.33" y="82.1" width="67.39" height="43.14"/><path class="cls-2" d="M63,62.18h67.57a0,0,0,0,1,0,0v73.95a10.69,10.69,0,0,1-10.69,10.69H73.68A10.69,10.69,0,0,1,63,136.13V62.18A0,0,0,0,1,63,62.18Z"/><line class="cls-5" x1="130.56" y1="125.1" x2="102.47" y2="125.1"/><line class="cls-2" x1="63.27" y1="114.47" x2="84.26" y2="114.47"/><line class="cls-5" x1="130.56" y1="103.76" x2="92.86" y2="103.76"/><line class="cls-2" x1="63.27" y1="93.13" x2="91.01" y2="93.13"/><line class="cls-5" x1="130.56" y1="82.42" x2="102.47" y2="82.42"/><rect class="cls-6" x="62.63" y="62.18" width="67.93" height="5.33"/><polygon class="cls-7" points="119.18 48.4 99.76 48.4 101.7 44.44 117.24 44.44 119.18 48.4"/><polygon class="cls-7" points="127.02 59.81 65.37 59.81 71.53 47.24 120.84 47.24 127.02 59.81"/><rect class="cls-7" x="61.23" y="57.02" width="70.8" height="6.12"/></g></g></svg>