<svg xmlns="http://www.w3.org/2000/svg" viewBox="0 0 55.31 55.31"><defs><style>.cls-1{fill:#cbd266;stroke-miterlimit:10;}.cls-1,.cls-2{stroke:#003e72;stroke-width:0.75px;}.cls-2{fill:#ccd8e3;stroke-linecap:round;stroke-linejoin:round;}</style></defs><g id="Layer_2" data-name="Layer 2"><g id="Layer_126" data-name="Layer 126"><circle class="cls-1" cx="27.66" cy="27.66" r="27.28"/><path class="cls-2" d="M43.82,18.55,42,16a1.09,1.09,0,0,0-1.4-.32l-4.19,2.18A14,14,0,0,0,34,16.22l.72-4.54A1,1,0,0,0,34,10.51l-3.11-.82a1.09,1.09,0,0,0-1.29.62l-1.75,4.28a14.62,14.62,0,0,0-2.9.23l-2.47-3.93a1.1,1.1,0,0,0-1.38-.41l-2.92,1.31a1,1,0,0,0-.57,1.28l1.49,4.37a13.3,13.3,0,0,0-2.06,2l-4.5-1.48a1.1,1.1,0,0,0-1.33.54L9.8,21.3a1,1,0,0,0,.41,1.34l4,2.42v0A11.84,11.84,0,0,0,14,27.86L9.56,29.53a1,1,0,0,0-.66,1.24l.82,3a1.11,1.11,0,0,0,1.21.77l4.7-.67a13.53,13.53,0,0,0,1.66,2.31l-2.29,4a1,1,0,0,0,.33,1.36L18,43.4a1.12,1.12,0,0,0,1.43-.16l3.16-3.44a14.18,14.18,0,0,0,2.3.65l.51.08.92,4.52a1.07,1.07,0,0,0,1.15.84l3.21-.26a1.05,1.05,0,0,0,1-1l.14-4.6a13.9,13.9,0,0,0,2.64-1.18l3.71,2.88a1.12,1.12,0,0,0,1.44-.07l2.28-2.2a1,1,0,0,0,.09-1.39l-3-3.61a12.8,12.8,0,0,0,1.24-2.55L45,31.8A1.07,1.07,0,0,0,46,30.85l.29-3.1a1.06,1.06,0,0,0-.86-1.13l-4.65-.93A12.75,12.75,0,0,0,40.06,23l3.58-3A1,1,0,0,0,43.82,18.55ZM30.66,34.33a7.71,7.71,0,0,1-10.09-3.6A7.27,7.27,0,0,1,24.28,21a7.72,7.72,0,0,1,10.1,3.61A7.26,7.26,0,0,1,30.66,34.33Z"/></g></g></svg>