<svg xmlns="http://www.w3.org/2000/svg" viewBox="0 0 141 141"><defs><style>.cls-1{fill:#fff;}.cls-2{fill:none;stroke:#003e72;stroke-miterlimit:10;}.cls-3{fill:#d5e8f7;}.cls-4{fill:#cbd266;}.cls-5{fill:#003e72;}</style></defs><g id="Layer_2" data-name="Layer 2"><g id="icons"><circle class="cls-1" cx="70.5" cy="70.5" r="69.98" transform="translate(-2.71 138.19) rotate(-87.76)"/><circle class="cls-2" cx="70.5" cy="70.5" r="69.98" transform="translate(-2.71 138.19) rotate(-87.76)"/><polygon class="cls-1" points="120.23 87.67 114.28 77.38 108.34 87.67 120.23 87.67"/><polygon class="cls-2" points="120.23 87.67 114.28 77.38 108.34 87.67 120.23 87.67"/><polygon class="cls-1" points="47.36 37.53 41.41 27.24 35.47 37.53 47.36 37.53"/><polygon class="cls-2" points="47.36 37.53 41.41 27.24 35.47 37.53 47.36 37.53"/><rect class="cls-1" x="20.89" y="79.27" width="9.9" height="9.9" transform="translate(-45.93 33.13) rotate(-37.5)"/><rect class="cls-2" x="20.89" y="79.27" width="9.9" height="9.9" transform="translate(-45.93 33.13) rotate(-37.5)"/><rect class="cls-1" x="91.18" y="30.77" width="9.9" height="9.9" transform="translate(-0.26 70.74) rotate(-40.35)"/><rect class="cls-2" x="91.18" y="30.77" width="9.9" height="9.9" transform="translate(-0.26 70.74) rotate(-40.35)"/><path class="cls-1" d="M75,117.53a4.35,4.35,0,1,1-4.35-4.35A4.35,4.35,0,0,1,75,117.53Z"/><path class="cls-2" d="M75,117.53a4.35,4.35,0,1,1-4.35-4.35A4.35,4.35,0,0,1,75,117.53Z"/><path class="cls-3" d="M101.83,71.58A31.18,31.18,0,1,1,70.65,40.4,31.18,31.18,0,0,1,101.83,71.58Z"/><path class="cls-4" d="M62.7,41.67c-.88,2.13-1.8,3.84-.54,6.14s-4.82,3.51-4.93,4.71c-.36,3.89,2.74,6.24,3.4,9.68.47,2.45-.5,5.35-3.41,5.22-4.81-.22-4.37,1.77-5.79,2.86s-4.62,2.1-4.62,5.41A13.92,13.92,0,0,0,47.34,80c.21.68,1.55,2.26,1.43,2.78a1,1,0,0,1-.31.49c-1.12,1.13-3.23,1.49-4-.14-1.76-3.51-3.24-1.45-4.38-6.24-.93-3.88-.26-8.55.46-12.39a27.58,27.58,0,0,1,8-14.55,46.87,46.87,0,0,1,6.77-5.21,24.94,24.94,0,0,1,4.33-2.15c.65-.27,1.3-.52,2-.73C61.63,41.78,62.79,41.45,62.7,41.67Z"/><path class="cls-2" d="M62.7,41.67c-.88,2.13-1.8,3.84-.54,6.14s-4.82,3.51-4.93,4.71c-.36,3.89,2.74,6.24,3.4,9.68.47,2.45-.5,5.35-3.41,5.22-4.81-.22-4.37,1.77-5.79,2.86s-4.62,2.1-4.62,5.41A13.92,13.92,0,0,0,47.34,80c.21.68,1.55,2.26,1.43,2.78a1,1,0,0,1-.31.49c-1.12,1.13-3.23,1.49-4-.14-1.76-3.51-3.24-1.45-4.38-6.24-.93-3.88-.26-8.55.46-12.39a27.58,27.58,0,0,1,8-14.55,46.87,46.87,0,0,1,6.77-5.21,24.94,24.94,0,0,1,4.33-2.15c.65-.27,1.3-.52,2-.73C61.63,41.78,62.79,41.45,62.7,41.67Z"/><path class="cls-4" d="M100.69,63.86c-1.94.56-.72,4-2,4.37S96.13,67,96.13,65.34s-1.52-3.52-2.57-3.68-2.68,1.84-2.68,3.21c0,1.71-.64,3.23-2.29,3.81-1.47.51-4.61,2-6,.63-.86-.89-.69-3,0-3.92s1.42-4.52,3.63-4.83,2.57-2.21,2.47-3.52a7,7,0,0,1,.79-3.68c.65-1.43,2.39-2.06,3.61-3,2.72,3.16,5.32,6.65,6.65,10.41C99.86,61.06,100.86,64.86,100.69,63.86Z"/><path class="cls-2" d="M100.69,63.86c-1.94.56-.72,4-2,4.37S96.13,67,96.13,65.34s-1.52-3.52-2.57-3.68-2.68,1.84-2.68,3.21c0,1.71-.64,3.23-2.29,3.81-1.47.51-4.61,2-6,.63-.86-.89-.69-3,0-3.92s1.42-4.52,3.63-4.83,2.57-2.21,2.47-3.52a7,7,0,0,1,.79-3.68c.65-1.43,2.39-2.06,3.61-3,2.72,3.16,5.32,6.65,6.65,10.41C99.86,61.06,100.86,64.86,100.69,63.86Z"/><path class="cls-4" d="M92.88,93.39c.25-1.54.93-3.09,1.25-4.64.2-1,1-3.91-.31-4.53-2.95-1.45-4.19-.61-6.75-1.43-3-1-2-6.16-1.92-8.57s4.52-2.74,7.41-2.64,9,1.1,9,1.1-.26,3.36-.29,3.7c-.51,6.34-4.1,11.36-7.79,16.28A4,4,0,0,1,92.88,93.39Z"/><path class="cls-2" d="M92.88,93.39c.25-1.54.93-3.09,1.25-4.64.2-1,1-3.91-.31-4.53-2.95-1.45-4.19-.61-6.75-1.43-3-1-2-6.16-1.92-8.57s4.52-2.74,7.41-2.64,9,1.1,9,1.1-.26,3.36-.29,3.7c-.51,6.34-4.1,11.36-7.79,16.28A4,4,0,0,1,92.88,93.39Z"/><path class="cls-4" d="M44.1,87.83c1.66.49,3.18,1.56,5,1.46,2-.1,3.62.68,5.57-.21s3.15,1.89,4.83,2.58c2.43,1,.12,3.46-.18,4.88-.35,1.65.28,4.48,2.25,4.87-6-1.18-11.54-5.87-15.26-10.45A15.8,15.8,0,0,1,44.1,87.83Z"/><path class="cls-2" d="M44.1,87.83c1.66.49,3.18,1.56,5,1.46,2-.1,3.62.68,5.57-.21s3.15,1.89,4.83,2.58c2.43,1,.12,3.46-.18,4.88-.35,1.65.28,4.48,2.25,4.87-6-1.18-11.54-5.87-15.26-10.45A15.8,15.8,0,0,1,44.1,87.83Z"/><line class="cls-1" x1="70.6" y1="35.72" x2="70.6" y2="13.21"/><line class="cls-2" x1="70.6" y1="35.72" x2="70.6" y2="14.84"/><polygon class="cls-5" points="76.74 19.81 75.64 20.84 70.6 15.42 65.57 20.84 64.47 19.81 70.6 13.21 76.74 19.81"/><line class="cls-1" x1="36.54" y1="60.54" x2="15.13" y2="53.59"/><line class="cls-2" x1="36.54" y1="60.54" x2="16.68" y2="54.09"/><polygon class="cls-5" points="23.3 49.79 23.94 51.16 17.23 54.27 20.82 60.73 19.51 61.46 15.13 53.59 23.3 49.79"/><line class="cls-1" x1="49.62" y1="100.61" x2="36.39" y2="118.82"/><line class="cls-2" x1="49.62" y1="100.61" x2="37.35" y2="117.51"/><polygon class="cls-5" points="35.3 109.88 36.8 109.7 37.68 117.04 44.94 115.61 45.23 117.09 36.39 118.82 35.3 109.88"/><line class="cls-1" x1="91.77" y1="100.55" x2="105" y2="118.76"/><line class="cls-2" x1="91.77" y1="100.55" x2="104.04" y2="117.44"/><polygon class="cls-5" points="96.16 117.03 96.44 115.56 103.7 116.98 104.59 109.64 106.08 109.82 105 118.76 96.16 117.03"/><line class="cls-1" x1="104.74" y1="60.45" x2="126.14" y2="53.49"/><line class="cls-2" x1="104.74" y1="60.45" x2="124.6" y2="54"/><polygon class="cls-5" points="121.76 61.37 120.45 60.64 124.05 54.17 117.34 51.06 117.97 49.7 126.14 53.49 121.76 61.37"/><path class="cls-2" d="M101.83,71.58A31.18,31.18,0,1,1,70.65,40.4,31.18,31.18,0,0,1,101.83,71.58Z"/></g></g></svg>