<svg xmlns="http://www.w3.org/2000/svg" viewBox="0 0 141 141"><defs><style>.cls-1,.cls-5{fill:#fff;}.cls-1,.cls-2,.cls-3,.cls-5,.cls-6{stroke:#003e72;}.cls-1,.cls-3,.cls-5,.cls-6{stroke-miterlimit:10;}.cls-2{fill:#66abe2;stroke-linejoin:round;}.cls-2,.cls-5{stroke-linecap:round;}.cls-3{fill:none;}.cls-4{fill:#003e72;}.cls-6{fill:#a8b400;}</style></defs><g id="Layer_2" data-name="Layer 2"><g id="icons"><circle class="cls-1" cx="70.5" cy="70.5" r="70"/><path class="cls-2" d="M62.86,102.2l-.1-8.4a4.27,4.27,0,0,0-4.07-3h-6s-3-.1-3.07-4.44-1.21-4.64-1.21-4.64l.47-.87L47.72,80a29.72,29.72,0,0,1,0-3.23c.1-1.05-5.3-1.37-5-2.64s5.4-10,5.4-10,.64-1.08.32-3.93,1.6-10.15,6.36-14.07,15.66-7.23,25.92-3.61S96.09,53.9,94.4,62.79s-5.61,12.58-5.51,22c.11,10.22.22,16.32.26,17.59C89.15,102.4,75.41,106.47,62.86,102.2Z"/><path class="cls-3" d="M72.15,26a44.94,44.94,0,0,1,42.93,35.86"/><polygon class="cls-4" points="75.28 30.25 75.99 29.55 72.53 26.04 76.29 22.84 75.64 22.08 71.06 25.97 75.28 30.25"/><path class="cls-3" d="M26.14,69.82A44.94,44.94,0,0,1,62,26.89"/><polygon class="cls-4" points="30.41 66.69 29.71 65.98 26.19 69.44 23 65.69 22.24 66.33 26.13 70.91 30.41 66.69"/><path class="cls-3" d="M71.46,115.84h-.4A44.93,44.93,0,0,1,26.8,78.67"/><polygon class="cls-4" points="68.23 111.64 67.54 112.36 71.08 115.79 67.4 119.07 68.07 119.82 72.55 115.82 68.23 111.64"/><path class="cls-3" d="M116,72a45,45,0,0,1-33.15,42.3"/><polygon class="cls-4" points="111.73 75.13 112.43 75.84 115.93 72.38 119.14 76.13 119.9 75.47 116 70.91 111.73 75.13"/><rect class="cls-5" x="79.58" y="109.96" width="8.14" height="8.14" transform="translate(-28.7 28.13) rotate(-16.34)"/><rect class="cls-6" x="22.61" y="75.82" width="8.14" height="8.14" transform="matrix(0.97, -0.26, 0.26, 0.97, -19.54, 9.48)"/><rect class="cls-6" x="110.26" y="56.93" width="8.14" height="8.14" transform="translate(-11.8 31.27) rotate(-14.82)"/><rect class="cls-5" x="58.3" y="22.83" width="8.14" height="8.14" transform="translate(-4.81 16.85) rotate(-14.82)"/></g></g></svg>