<svg xmlns="http://www.w3.org/2000/svg" viewBox="0 0 177.73 177.73"><defs><style>.cls-1,.cls-2{fill:#fff;}.cls-1,.cls-2,.cls-3,.cls-4,.cls-5,.cls-6{stroke:#003e72;stroke-miterlimit:10;}.cls-1{stroke-width:1.5px;}.cls-3{fill:none;}.cls-4{fill:#a8b400;}.cls-5{fill:#0073cf;}.cls-6{fill:#66abe2;}</style></defs><g id="Layer_2" data-name="Layer 2"><g id="Layer_121" data-name="Layer 121"><circle class="cls-1" cx="88.87" cy="88.87" r="88.12"/><line class="cls-2" x1="24.94" y1="39.27" x2="152.8" y2="39.27"/><rect class="cls-2" x="91.13" y="39.27" width="18.13" height="23.27"/><polyline class="cls-3" points="98.38 62.48 98.38 76.26 127.4 76.26 127.4 45.07"/><rect class="cls-4" x="120.14" y="39.27" width="14.51" height="7.25"/><path class="cls-5" d="M60.49,45.8H90.95a0,0,0,0,1,0,0V58.13a0,0,0,0,1,0,0H72.12A11.64,11.64,0,0,1,60.49,46.49V45.8A0,0,0,0,1,60.49,45.8Z"/><line class="cls-2" x1="71.55" y1="58.13" x2="71.55" y2="71.91"/><path class="cls-2" d="M69.7,85.69h35.42a15,15,0,0,1,11.5,5.38l10,12H51.05l9-12.49A11.86,11.86,0,0,1,69.7,85.69Z"/><line class="cls-2" x1="71.18" y1="90.41" x2="71.18" y2="102.92"/><line class="cls-2" x1="104.37" y1="90.41" x2="104.37" y2="102.92"/><path class="cls-6" d="M35.36,115.25V125H51.05a12.55,12.55,0,0,1,16.52-11.89A12.39,12.39,0,0,1,76.08,125h28.83a12.55,12.55,0,0,1,16.52-11.89,12.38,12.38,0,0,1,8.5,11.89h14V111.36a8.44,8.44,0,0,0-8.44-8.44H47.69A12.33,12.33,0,0,0,35.36,115.25Z"/><polyline class="cls-2" points="52.14 107 79.01 107 82.9 107 91.86 107"/><line class="cls-2" x1="126.67" y1="106.73" x2="135.92" y2="106.73"/><rect class="cls-2" x="80.14" y="125.22" width="20.42" height="13.06"/><polyline class="cls-2" points="64.83 74.81 64.83 70.82 78.25 70.82 78.25 74.81"/><path class="cls-4" d="M51.84,138.46h74.75"/></g></g></svg>