<svg xmlns="http://www.w3.org/2000/svg" viewBox="0 0 125.93 125.93"><defs><style>.cls-1,.cls-4{fill:#fff;}.cls-1,.cls-2,.cls-3,.cls-4,.cls-5{stroke:#003e72;stroke-miterlimit:10;stroke-width:0.75px;}.cls-1{stroke-linecap:round;}.cls-2{fill:#eef0cc;}.cls-3{fill:#d5e8f7;}.cls-5{fill:#cce3f5;}</style></defs><g id="Layer_2" data-name="Layer 2"><g id="Layer_8" data-name="Layer 8"><path class="cls-1" d="M63,125.56A62.59,62.59,0,0,1,63,.38"/><path class="cls-1" d="M63,.38a62.59,62.59,0,0,1,0,125.18"/><path class="cls-2" d="M20.35,96H100"/><rect class="cls-3" x="28.44" y="73.54" width="11.21" height="22.41"/><rect class="cls-2" x="46.5" y="50.15" width="11.21" height="45.81"/><rect class="cls-3" x="64.99" y="61.77" width="11.21" height="34.18"/><rect class="cls-2" x="82.82" y="54.14" width="11.21" height="41.81"/><circle class="cls-4" cx="34.38" cy="53.88" r="6.94"/><circle class="cls-5" cx="51.68" cy="32.69" r="6.94"/><circle class="cls-4" cx="70.35" cy="42.22" r="6.94"/><circle class="cls-5" cx="88.64" cy="34.34" r="6.94"/><line class="cls-2" x1="38.34" y1="47.61" x2="46.6" y2="37.7"/><line class="cls-2" x1="58.16" y1="35.72" x2="64.1" y2="38.36"/><line class="cls-2" x1="76.98" y1="38.69" x2="81.94" y2="37.04"/></g></g></svg>