<svg xmlns="http://www.w3.org/2000/svg" viewBox="0 0 229 204"><defs><style>.cls-1{opacity:0.57;}.cls-2{fill:none;}.cls-2,.cls-3,.cls-4,.cls-5,.cls-6,.cls-7{stroke:#003e72;stroke-miterlimit:10;stroke-width:2px;}.cls-3{fill:#abc8cb;}.cls-4{fill:#a8b400;}.cls-5{fill:#73a3a9;}.cls-6{fill:#cbd266;}.cls-7{fill:#fff;}</style></defs><g id="Layer_2" data-name="Layer 2"><g id="Into__page" data-name="Into _page"><g class="cls-1"><line class="cls-2" x1="4.99" y1="59.56" x2="223.33" y2="59.56"/><line class="cls-2" x1="25.87" y1="44.12" x2="25.87" y2="172.24"/><line class="cls-2" x1="206.53" y1="45.03" x2="206.53" y2="173.04"/><path class="cls-3" d="M30.68,171.67h169a19.59,19.59,0,0,1,19.59,19.59v8.82a2.91,2.91,0,0,1-2.91,2.91H13.8a2.91,2.91,0,0,1-2.91-2.91v-8.62a19.79,19.79,0,0,1,19.79-19.79Z"/><line class="cls-2" y1="203" x2="229" y2="203"/><path class="cls-2" d="M26.1,153.06H151.84"/><path class="cls-4" d="M58.57,1.45h24a2,2,0,0,1,2,2V121.76a12.92,12.92,0,0,1-12.92,12.92H70.43a13.82,13.82,0,0,1-13.82-13.82V3.41a2,2,0,0,1,2-2Z"/><path class="cls-5" d="M105.44,1.45h24a2,2,0,0,1,2,2V121.76a12.92,12.92,0,0,1-12.92,12.92H117.3a13.82,13.82,0,0,1-13.82-13.82V3.41a2,2,0,0,1,2-2Z"/><path class="cls-6" d="M152.2,1.45h24a2,2,0,0,1,2,2V121.76a12.92,12.92,0,0,1-12.92,12.92h-1.18a13.82,13.82,0,0,1-13.82-13.82V3.41a2,2,0,0,1,2-2Z"/><line class="cls-2" x1="83.98" y1="29.14" x2="56.97" y2="29.14"/><path class="cls-2" d="M103.72,95.19h27"/><line class="cls-2" x1="150.25" y1="38.68" x2="177.48" y2="38.68"/><path class="cls-7" d="M59.07,1.68H81.28a2.81,2.81,0,0,1,2.81,2.81v24.3a.18.18,0,0,1-.18.18H56.46a0,0,0,0,1,0,0V4.29A2.61,2.61,0,0,1,59.07,1.68Z"/><path class="cls-7" d="M153,1.23h22.4A2.81,2.81,0,0,1,178.24,4V38.48a.18.18,0,0,1-.18.18H150.42a0,0,0,0,1,0,0V3.83A2.61,2.61,0,0,1,153,1.23Z"/><path class="cls-7" d="M106.57,1h21.54a2.81,2.81,0,0,1,2.81,2.81V95.16a.18.18,0,0,1-.18.18H104a0,0,0,0,1,0,0V3.61A2.61,2.61,0,0,1,106.57,1Z"/></g></g></g></svg>