<svg xmlns="http://www.w3.org/2000/svg" viewBox="0 0 96.82 390.82"><defs><style>.cls-1{fill:#ccd8e3;}.cls-1,.cls-2,.cls-3,.cls-4,.cls-5,.cls-6{stroke:#003e72;stroke-miterlimit:10;stroke-width:0.5px;}.cls-2{fill:#e5e5e5;}.cls-3{fill:#fff;}.cls-4{fill:#d0e2f2;}.cls-5{fill:#ebf2ee;}.cls-6{fill:#b6cb51;}</style></defs><g id="Layer_2" data-name="Layer 2"><g id="Layer_154" data-name="Layer 154"><rect class="cls-1" x="39.55" y="130.18" width="14.76" height="226.81"/><path class="cls-2" d="M95.39,19.44h1.18a0,0,0,0,1,0,0V41.39a0,0,0,0,1,0,0H73.44a0,0,0,0,1,0,0v0A21.95,21.95,0,0,1,95.39,19.44Z" transform="translate(170.01 60.82) rotate(-180)"/><path class="cls-2" d="M95.39,51.86h1.18a0,0,0,0,1,0,0V73.81a0,0,0,0,1,0,0H73.44a0,0,0,0,1,0,0v0A21.95,21.95,0,0,1,95.39,51.86Z" transform="translate(170.01 125.67) rotate(180)"/><path class="cls-2" d="M95.39,84.29h1.18a0,0,0,0,1,0,0v21.95a0,0,0,0,1,0,0H73.44a0,0,0,0,1,0,0v0A21.95,21.95,0,0,1,95.39,84.29Z" transform="translate(170.01 190.52) rotate(180)"/><path class="cls-2" d="M.25,18.77H23.38a0,0,0,0,1,0,0V40.72a0,0,0,0,1,0,0H22.2A21.95,21.95,0,0,1,.25,18.77v0A0,0,0,0,1,.25,18.77Z"/><path class="cls-2" d="M.25,51.2H23.38a0,0,0,0,1,0,0V73.15a0,0,0,0,1,0,0H22.2A21.95,21.95,0,0,1,.25,51.2v0A0,0,0,0,1,.25,51.2Z"/><path class="cls-2" d="M.25,83.62H23.38a0,0,0,0,1,0,0v21.95a0,0,0,0,1,0,0H22.2A21.95,21.95,0,0,1,.25,83.62v0A0,0,0,0,1,.25,83.62Z"/><rect class="cls-2" x="33.39" y="125.96" width="27.53" height="6.03"/><rect class="cls-2" x="30.16" y="0.25" width="33.99" height="6.22"/><rect class="cls-3" x="18.51" y="5.62" width="57.31" height="121.09" rx="15.32"/><ellipse class="cls-4" cx="47.16" cy="32.46" rx="15.35" ry="14.56"/><ellipse class="cls-5" cx="47.16" cy="67.22" rx="15.35" ry="14.56"/><ellipse class="cls-6" cx="47.16" cy="101.98" rx="15.35" ry="14.56"/><polygon class="cls-1" points="65.23 384.92 29.09 384.92 33.84 318.08 61.01 318.08 65.23 384.92"/><path class="cls-1" d="M28.34,381.93H66a7.29,7.29,0,0,1,7.29,7.29v1.36a0,0,0,0,1,0,0H21.05a0,0,0,0,1,0,0v-1.36A7.29,7.29,0,0,1,28.34,381.93Z"/></g></g></svg>