<svg xmlns="http://www.w3.org/2000/svg" viewBox="0 0 182.42 182.42"><defs><style>.cls-1,.cls-2{fill:#fff;}.cls-1,.cls-2,.cls-3,.cls-4,.cls-5,.cls-6{stroke:#003e72;stroke-miterlimit:10;}.cls-1{stroke-width:1.5px;}.cls-3{fill:none;}.cls-4{fill:#0073cf;}.cls-5{fill:#66abe2;}.cls-6{fill:#a8b400;}</style></defs><g id="Layer_2" data-name="Layer 2"><g id="Layer_114" data-name="Layer 114"><circle class="cls-1" cx="91.21" cy="91.21" r="90.46"/><path class="cls-2" d="M108.5,119.39V46.23a17.4,17.4,0,0,1,34.8,0v71.9"/><path class="cls-2" d="M143.52,118.8c0,9.47-8.1,17.15-17.57,17.15a17.15,17.15,0,0,1,0-34.3C135.42,101.65,143.52,109.33,143.52,118.8Z"/><polyline class="cls-3" points="108.5 46.23 39.32 46.23 39.32 134.9 119.8 134.9"/><line class="cls-3" x1="108.56" y1="118.8" x2="71.6" y2="134.9"/><circle class="cls-4" cx="126.16" cy="119.54" r="11.11"/><line class="cls-2" x1="38.9" y1="74.32" x2="108.92" y2="74.32"/><rect class="cls-5" x="39.32" y="55.27" width="69.25" height="6.28"/><rect class="cls-6" x="39.32" y="69.75" width="69.25" height="6.28"/><rect class="cls-5" x="39.52" y="84.52" width="69" height="6.28"/><rect class="cls-6" x="39.23" y="102.99" width="68.96" height="6.28"/></g></g></svg>