<svg xmlns="http://www.w3.org/2000/svg" viewBox="0 0 86.79 86.79"><defs><style>.cls-1,.cls-3{fill:#fff;}.cls-1,.cls-2,.cls-3,.cls-4,.cls-6{stroke:#003e72;stroke-miterlimit:10;}.cls-1{stroke-width:1.5px;}.cls-2{fill:#0073cf;}.cls-4{fill:#ebf2ee;}.cls-5{fill:#003e72;}.cls-6{fill:#a8b400;}</style></defs><g id="Layer_2" data-name="Layer 2"><g id="Layer_114" data-name="Layer 114"><circle class="cls-1" cx="43.39" cy="43.39" r="42.64"/><path class="cls-2" d="M59.35,39.26c4-3.49,8-6.94,12.09-10.23,6.33-5.05-1.91-14.85-8.57-12.29-3.72,1.43-5.56,5.39-5.59,9.18s.61,6.65-2,9.83a26.4,26.4,0,0,1-2.57,2.67l3.55,3.75Z"/><path class="cls-3" d="M59.58,34.56s9.28-8.74,9.41-8.84c2.62-2.22-.7-4.62-2.64-5-6.14-1.17-5.08,7.75-5.61,11.13Z"/><path class="cls-4" d="M37.18,43.15c1-1.14,4.29-5.16,4.88-5.74s0-22.2,0-22.2H23v55H42.06s.68-21.52,0-22.2Z"/><polyline class="cls-3" points="47.99 41.82 42.07 49.41 42.11 58.18 54.83 44.13"/><path class="cls-3" d="M35.65,22.93l12.1,19.86h3.08l2.66,2.62,3.69-2.87L42.34,25.29a7,7,0,0,0-5.51-2.41Z"/><circle class="cls-5" cx="49.96" cy="39.69" r="0.72"/><path class="cls-6" d="M59.84,44.18c4.09,3.35,8.2,6.65,12.44,9.8,6.51,4.83-1.38,14.91-8.13,12.59-3.77-1.3-5.75-5.2-5.91-9s.37-6.67-2.38-9.76a27.08,27.08,0,0,0-2.67-2.57l3.41-3.87Z"/><path class="cls-3" d="M60.23,48.87s9.59,8.41,9.72,8.51c2.7,2.12-.53,4.63-2.46,5.07-6.09,1.39-5.35-7.57-6-10.92Z"/><path class="cls-3" d="M27.71,43.15H23"/><path class="cls-3" d="M32.78,43.15H30.89"/><path class="cls-3" d="M37.18,43.15H35.3"/></g></g></svg>