<svg xmlns="http://www.w3.org/2000/svg" viewBox="0 0 181.73 181.73"><defs><style>.cls-1{fill:#fff;stroke-width:1.5px;}.cls-1,.cls-2,.cls-3,.cls-4{stroke:#003e72;stroke-miterlimit:10;}.cls-2{fill:none;}.cls-3{fill:#9eb03a;}.cls-4{fill:#66abe2;}</style></defs><g id="Layer_2" data-name="Layer 2"><g id="Layer_114" data-name="Layer 114"><circle class="cls-1" cx="90.87" cy="90.87" r="90.12"/><path class="cls-2" d="M111.19,133.48H70.55L63.51,64a6.76,6.76,0,0,1,6.73-7.44H111.5A6.75,6.75,0,0,1,118.22,64Z"/><rect class="cls-3" x="69.35" y="49.24" width="43.03" height="7.05"/><path class="cls-4" d="M84.28,35.28H97.45a7.41,7.41,0,0,1,7.41,7.41v6.1a0,0,0,0,1,0,0h-28a0,0,0,0,1,0,0v-6.1A7.41,7.41,0,0,1,84.28,35.28Z"/><line class="cls-2" x1="116.39" y1="77.68" x2="63.51" y2="63.96"/><path class="cls-2" d="M64.26,78.93c.94.32,50.56,13.2,50.56,13.2"/><line class="cls-2" x1="65.51" y1="92.44" x2="113.25" y2="104.69"/><path class="cls-2" d="M70.55,133.48c1.24-1.47,12.55-36,12.55-36"/><line class="cls-2" x1="96.29" y1="100.29" x2="84.36" y2="133.27"/><line class="cls-2" x1="107.91" y1="103.43" x2="97.23" y2="133.27"/><line class="cls-2" x1="81.22" y1="68.25" x2="86.56" y2="56.32"/><line class="cls-2" x1="92.21" y1="71.4" x2="99.75" y2="56.32"/><line class="cls-2" x1="112.38" y1="56.29" x2="103.83" y2="74.54"/><rect class="cls-4" x="77.37" y="133.5" width="28.27" height="7.64"/><path class="cls-3" d="M80,141.23H103a0,0,0,0,1,0,0v5.39a9.58,9.58,0,0,1-9.58,9.58H89.62A9.58,9.58,0,0,1,80,146.62v-5.39A0,0,0,0,1,80,141.23Z"/></g></g></svg>