<svg xmlns="http://www.w3.org/2000/svg" viewBox="0 0 181.18 181.18"><defs><style>.cls-1,.cls-2{fill:#fff;}.cls-1,.cls-2,.cls-3,.cls-4,.cls-5,.cls-6{stroke:#003e72;stroke-miterlimit:10;}.cls-1{stroke-width:1.5px;}.cls-3{fill:#0073cf;}.cls-4{fill:#ebf2ee;}.cls-5{fill:#a8b400;}.cls-6{fill:#66abe2;}</style></defs><g id="Layer_2" data-name="Layer 2"><g id="Layer_121" data-name="Layer 121"><circle class="cls-1" cx="90.59" cy="90.59" r="89.84"/><polygon class="cls-2" points="76.33 73.79 110.53 32.58 117.98 38.28 86.42 95.27 76.33 73.79"/><polyline class="cls-2" points="121.05 36.52 149.09 92.42 142.53 93.95 108.34 38.28 121.05 36.52"/><line class="cls-2" x1="144.5" y1="92.42" x2="145.6" y2="108.86"/><path class="cls-3" d="M117.54,109.73l19.25-8a6.47,6.47,0,0,1,8.53,3.7l.68,1.82a6.82,6.82,0,0,1-3.54,8.6l-6,2.77a7.94,7.94,0,0,1-8.25-1l-15.47-12.31"/><path class="cls-4" d="M47.79,90.88H60.12a0,0,0,0,1,0,0v22.8a0,0,0,0,1,0,0H47.79a10.9,10.9,0,0,1-10.9-10.9v-1a10.9,10.9,0,0,1,10.9-10.9Z"/><circle class="cls-5" cx="114.04" cy="36.52" r="7.01"/><circle class="cls-5" cx="144.5" cy="92.42" r="4.6"/><rect class="cls-2" x="32.09" y="120.69" width="70.27" height="21.48" rx="10.28"/><circle class="cls-6" cx="43.46" cy="131.79" r="5.26"/><circle class="cls-6" cx="58.37" cy="131.79" r="5.26"/><circle class="cls-6" cx="73.28" cy="131.79" r="5.26"/><circle class="cls-6" cx="88.18" cy="131.79" r="5.26"/><rect class="cls-5" x="56.61" y="112.36" width="20.6" height="8.33"/><path class="cls-2" d="M65.46,69.84h1.67A27.61,27.61,0,0,1,94.75,97.45v15.79a0,0,0,0,1,0,0H56.17a0,0,0,0,1,0,0V79.13A9.29,9.29,0,0,1,65.46,69.84Z"/><path class="cls-4" d="M66.6,81.24h5.11A15.81,15.81,0,0,1,87.52,97.05V98a4.74,4.74,0,0,1-4.74,4.74H66.6A4.74,4.74,0,0,1,61.86,98V86a4.74,4.74,0,0,1,4.74-4.74Z"/></g></g></svg>