<svg xmlns="http://www.w3.org/2000/svg" viewBox="0 0 96.85 83.49"><defs><style>.cls-1{fill:#cbd266;}.cls-2{fill:none;}.cls-2,.cls-3{stroke:#003e72;stroke-miterlimit:10;stroke-width:2px;}.cls-3{fill:#66abe2;}</style></defs><g id="Layer_2" data-name="Layer 2"><g id="Extra_Icons"><path class="cls-1" d="M59.83,48.05s-29-17.09-24-45.43c0,0-19,11.25-7.92,38.56,0,0,7.3,13.13-1.87,18.54s-12.72-6.87-12.72-6.87.84-10,3.55-12.72S-2,46,1.27,61.6C4.81,78.48,15.85,80.77,15.85,80.77A12.55,12.55,0,0,0,17.94,82c.62.21,14.59,1,14.59,1l21-.63-.21-26.88-3.13,1.87L63.37,45.76Z"/><path class="cls-2" d="M54.56,43s-22-14.09-18.62-40.6A34.57,34.57,0,0,0,32.68,5.7a33.34,33.34,0,0,0-4.11,37.69c2.56,4.85,4.31,11.29-1.08,15.42-4,3-7.31,2.29-9.81.36a11.25,11.25,0,0,1-3.44-12.91l2.53-6.63S-9.17,49.78,5.49,74c0,0,6.2,7.33,12.41,7.9"/><polyline class="cls-2" points="50.04 57.68 70.91 36.81 94.6 60.5"/><line class="cls-2" x1="53.99" y1="82.68" x2="53.99" y2="53.17"/><line class="cls-2" x1="29.74" y1="82.49" x2="96.85" y2="82.49"/><line class="cls-2" x1="82.75" y1="38.5" x2="82.75" y2="48.47"/><line class="cls-2" x1="89.52" y1="55.99" x2="89.52" y2="82.3"/><rect class="cls-3" x="60.04" y="55.76" width="11.05" height="11.05"/></g></g></svg>