<svg xmlns="http://www.w3.org/2000/svg" viewBox="0 0 262.32 177.29"><defs><style>.cls-1{fill:#b3b3b3;}.cls-1,.cls-10,.cls-11,.cls-12,.cls-13,.cls-2,.cls-6,.cls-7,.cls-8{stroke:#9b999a;}.cls-1,.cls-11,.cls-12,.cls-2,.cls-5{stroke-miterlimit:10;}.cls-1,.cls-10,.cls-11,.cls-12,.cls-13,.cls-2,.cls-5,.cls-6,.cls-7,.cls-8,.cls-9{stroke-width:2px;}.cls-2{fill:#c1c1c1;}.cls-3{fill:#55acee;}.cls-4{fill:#8371e2;}.cls-10,.cls-5{fill:none;}.cls-5{stroke:#96c;}.cls-10,.cls-13,.cls-5,.cls-6,.cls-7,.cls-8,.cls-9{stroke-linecap:round;}.cls-6{fill:#e40e23;}.cls-10,.cls-13,.cls-6,.cls-7,.cls-8,.cls-9{stroke-linejoin:round;}.cls-7{fill:#eceaea;}.cls-8{fill:#f9f9f9;}.cls-9{fill:#fff;stroke:#fff;opacity:0.37;}.cls-11,.cls-13{fill:#ccc;}.cls-12{fill:#e6e6e6;}</style></defs><title>Asset 9</title><g id="Layer_2" data-name="Layer 2"><g id="Layer_1-2" data-name="Layer 1"><path class="cls-1" d="M148.94,161.6c-4.84-6-7.08-12.1-5.73-18.44H126.76l-16.46,0c1.36,6.34-.87,12.48-5.69,18.46-2.59,3.2-1.41,6.13,2.71,6.19h.07l19.39,0,19.39,0h.07C150.36,167.73,151.53,164.81,148.94,161.6Z"/><rect class="cls-2" x="18.36" y="1.09" width="212.46" height="142.24" rx="8.01"/><path class="cls-3" d="M22.3,9.2a4,4,0,0,1,4-4L222.73,5a4,4,0,0,1,4,4l.1,107.1L22.4,116.3Z"/><path d="M222.74,9h0l.1,103.1L26.4,112.3,26.31,9.19,222.73,9h0m0-8h0L26.3,1.19a8,8,0,0,0-8,8l.1,111.09,212.46-.2L230.75,9a8,8,0,0,0-8-8Z"/><circle cx="124.64" cy="132.11" r="5.19"/><rect class="cls-4" x="35.5" y="32.58" width="32.16" height="71.33" rx="2.6"/><line class="cls-5" x1="41.56" y1="56.86" x2="63.07" y2="56.84"/><line class="cls-5" x1="41.57" y1="62.65" x2="60.17" y2="62.63"/><line class="cls-5" x1="41.57" y1="68.44" x2="55.68" y2="68.42"/><line class="cls-5" x1="41.58" y1="74.23" x2="60.18" y2="74.21"/><line class="cls-5" x1="41.58" y1="80.01" x2="63.09" y2="79.99"/><line class="cls-5" x1="41.59" y1="85.8" x2="55.7" y2="85.79"/><line class="cls-5" x1="41.59" y1="91.59" x2="55.71" y2="91.58"/><line class="cls-5" x1="41.6" y1="97.38" x2="60.2" y2="97.37"/><rect class="cls-4" x="75.12" y="53.18" width="21.84" height="21.84" rx="4.56"/><rect class="cls-4" x="103.87" y="53.15" width="21.84" height="21.84" rx="4.56"/><rect class="cls-4" x="132.63" y="53.12" width="21.84" height="21.84" rx="4.56"/><rect class="cls-4" x="161.39" y="53.09" width="21.84" height="21.84" rx="4.56"/><rect class="cls-4" x="190.15" y="53.07" width="21.84" height="21.84" rx="4.56"/><rect class="cls-4" x="75.14" y="82.04" width="21.84" height="21.84" rx="4.56"/><rect class="cls-4" x="103.9" y="82.01" width="21.84" height="21.84" rx="4.56"/><rect class="cls-4" x="132.66" y="81.98" width="21.84" height="21.84" rx="4.56"/><rect class="cls-4" x="161.42" y="81.96" width="21.84" height="21.84" rx="4.56"/><rect class="cls-4" x="190.17" y="81.93" width="21.84" height="21.84" rx="4.56"/><path class="cls-6" d="M1,27.67H25.72a0,0,0,0,1,0,0V43.73A11.86,11.86,0,0,1,13.86,55.59h-1A11.86,11.86,0,0,1,1,43.73V27.67A0,0,0,0,1,1,27.67Z"/><path class="cls-7" d="M25.72,27.64H50.43a0,0,0,0,1,0,0V43.7A11.86,11.86,0,0,1,38.57,55.56h-1A11.86,11.86,0,0,1,25.72,43.7V27.64a0,0,0,0,1,0,0Z"/><path class="cls-6" d="M50.43,27.62H75.14a0,0,0,0,1,0,0V43.68A11.86,11.86,0,0,1,63.28,55.54h-1A11.86,11.86,0,0,1,50.43,43.68V27.62a0,0,0,0,1,0,0Z"/><path class="cls-7" d="M75.14,27.6H99.85a0,0,0,0,1,0,0V43.66A11.86,11.86,0,0,1,88,55.52H87A11.86,11.86,0,0,1,75.14,43.66V27.6a0,0,0,0,1,0,0Z"/><path class="cls-6" d="M99.85,27.57h24.71a0,0,0,0,1,0,0V43.63A11.86,11.86,0,0,1,112.7,55.49h-1A11.86,11.86,0,0,1,99.85,43.63V27.57A0,0,0,0,1,99.85,27.57Z"/><path class="cls-7" d="M124.56,27.55h24.71a0,0,0,0,1,0,0V43.61a11.86,11.86,0,0,1-11.86,11.86h-1a11.86,11.86,0,0,1-11.86-11.86V27.55a0,0,0,0,1,0,0Z"/><path class="cls-6" d="M149.26,27.53H174a0,0,0,0,1,0,0V43.59a11.86,11.86,0,0,1-11.86,11.86h-1a11.86,11.86,0,0,1-11.86-11.86V27.53a0,0,0,0,1,0,0Z"/><path class="cls-7" d="M174,27.5h24.71a0,0,0,0,1,0,0V43.56a11.86,11.86,0,0,1-11.86,11.86h-1A11.86,11.86,0,0,1,174,43.56V27.5a0,0,0,0,1,0,0Z"/><path class="cls-6" d="M198.68,27.48h24.71a0,0,0,0,1,0,0V43.54A11.86,11.86,0,0,1,211.53,55.4h-1a11.86,11.86,0,0,1-11.86-11.86V27.48a0,0,0,0,1,0,0Z"/><path class="cls-7" d="M223.39,27.46H248.1a0,0,0,0,1,0,0V43.52a11.86,11.86,0,0,1-11.86,11.86h-1a11.86,11.86,0,0,1-11.86-11.86V27.46a0,0,0,0,1,0,0Z"/><polygon class="cls-6" points="25.71 27.66 1 27.68 25.69 9.04 45.46 9.02 25.71 27.66"/><polygon class="cls-8" points="50.42 27.63 25.71 27.66 45.46 9.02 65.22 9 50.42 27.63"/><polygon class="cls-6" points="75.13 27.61 50.42 27.63 65.22 9 84.99 8.98 75.13 27.61"/><polygon class="cls-8" points="99.83 27.59 75.13 27.61 84.99 8.98 104.76 8.96 99.83 27.59"/><polygon class="cls-6" points="124.54 27.56 99.83 27.59 104.76 8.96 124.53 8.95 124.54 27.56"/><polygon class="cls-8" points="149.25 27.54 124.54 27.56 124.53 8.95 144.29 8.93 149.25 27.54"/><polygon class="cls-6" points="173.96 27.51 149.25 27.54 144.29 8.93 164.06 8.91 173.96 27.51"/><polygon class="cls-8" points="198.67 27.49 173.96 27.51 164.06 8.91 183.82 8.89 198.67 27.49"/><polygon class="cls-6" points="223.38 27.47 198.67 27.49 183.82 8.89 203.59 8.87 223.38 27.47"/><polygon class="cls-8" points="248.09 27.44 223.38 27.47 203.59 8.87 223.36 8.85 248.09 27.44"/><polygon class="cls-9" points="223.36 8.85 203.59 8.87 183.82 8.89 164.06 8.91 144.29 8.93 124.53 8.95 104.76 8.96 84.99 8.98 65.22 9 45.46 9.02 25.69 9.04 1 27.68 25.71 27.66 50.42 27.63 75.13 27.61 99.83 27.59 124.54 27.56 149.25 27.54 173.96 27.51 198.67 27.49 223.38 27.47 248.09 27.44 223.36 8.85"/><path class="cls-10" d="M208.12,74.48h15.23a0,0,0,0,1,0,0V87.29a7.61,7.61,0,0,1-7.61,7.61h0a7.61,7.61,0,0,1-7.61-7.61V74.48A0,0,0,0,1,208.12,74.48Z" transform="translate(431.56 169.17) rotate(179.95)"/><path class="cls-10" d="M182,74.5h15.23a0,0,0,0,1,0,0V87.31a7.61,7.61,0,0,1-7.61,7.61h0A7.61,7.61,0,0,1,182,87.31V74.5A0,0,0,0,1,182,74.5Z" transform="translate(379.36 169.25) rotate(179.95)"/><polygon class="cls-11" points="195.43 176.26 239.33 176.22 232.5 91.96 202.09 91.99 195.43 176.26"/><polygon class="cls-12" points="171.19 176.29 208.27 176.25 202.49 91.99 176.81 92.01 171.19 176.29"/><polygon class="cls-13" points="208.27 176.25 188.55 156.58 171.19 176.29 208.27 176.25"/><line class="cls-11" x1="188.55" y1="156.58" x2="188.49" y2="92.01"/><path class="cls-10" d="M241.91,113.18h9.43a0,0,0,0,1,0,0v7.93a4.72,4.72,0,0,1-4.72,4.72h0a4.72,4.72,0,0,1-4.72-4.72v-7.93A0,0,0,0,1,241.91,113.18Z" transform="translate(493.37 238.79) rotate(179.95)"/><path class="cls-10" d="M225.75,113.2h9.43a0,0,0,0,1,0,0v7.93a4.72,4.72,0,0,1-4.72,4.72h0a4.72,4.72,0,0,1-4.72-4.72V113.2A0,0,0,0,1,225.75,113.2Z" transform="translate(461.05 238.83) rotate(179.95)"/><polygon class="cls-11" points="234.05 176.23 261.24 176.2 257.01 124.01 238.18 124.03 234.05 176.23"/><polygon class="cls-12" points="219.04 176.24 242 176.22 238.43 124.03 222.52 124.05 219.04 176.24"/><polygon class="cls-13" points="242 176.22 229.79 164.03 219.04 176.24 242 176.22"/><line class="cls-11" x1="229.79" y1="164.03" x2="229.75" y2="124.05"/></g></g></svg>