<svg xmlns="http://www.w3.org/2000/svg" viewBox="0 0 271.93 305.04"><defs><style>.cls-1{fill:#999;}.cls-12,.cls-15,.cls-2,.cls-4,.cls-7,.cls-8{fill:none;}.cls-2{stroke:#7b7b7b;stroke-miterlimit:10;}.cls-15,.cls-2,.cls-4,.cls-8{stroke-width:1.13px;}.cls-3,.cls-5{fill:#fff;}.cls-4{stroke:#0e4571;}.cls-12,.cls-15,.cls-4,.cls-5,.cls-7,.cls-8{stroke-linecap:round;stroke-linejoin:round;}.cls-5,.cls-7{stroke:#333;}.cls-6{fill:#008a9d;}.cls-12,.cls-8{stroke:#9fb5c6;}.cls-9{fill:#66b9c4;}.cls-10{fill:#333;}.cls-11{fill:#9fb5c6;}.cls-13{fill:#ebebeb;}.cls-14{fill:#858585;}.cls-15{stroke:#000;}</style></defs><g id="Layer_2" data-name="Layer 2"><g id="Layer_1-2" data-name="Layer 1"><path class="cls-1" d="M84.45,224.73a14.49,14.49,0,0,0,11.37,17l-12.53,63h76.07L169,256.39l3.3.66s28.67,5.38,31.4-8.29l-83.19-16.62a14.91,14.91,0,0,1-11.7-17.54L121,153.72l.15-.32a40.64,40.64,0,0,1,8.29-3.07,119,119,0,0,1,18.9-3.17s19.75.91,28.59-11.77c4.42-6.35,3.08-10.44.63-12.94a9.27,9.27,0,0,0-10-1.94l-5.7,2.22a26.24,26.24,0,0,1-13.21,1.55,123.08,123.08,0,0,0-13.79-1.23l-18.64-.49a13.43,13.43,0,0,0-13.54,10.81Z"/><path class="cls-2" d="M114,193.83l-1.68-.37a4.68,4.68,0,0,1,.54.08C113.28,193.62,113.64,193.72,114,193.83Z"/><path class="cls-3" d="M142.48,43.36h0a1.76,1.76,0,0,1,1.38,2.06L140,64.82a1.75,1.75,0,0,1-3.44-.69l3.88-19.4a1.75,1.75,0,0,1,2.06-1.37"/><path class="cls-4" d="M142.48,43.36h0a1.76,1.76,0,0,1,1.38,2.06L140,64.82a1.75,1.75,0,0,1-3.44-.69l3.88-19.4A1.75,1.75,0,0,1,142.48,43.36Z"/><path class="cls-3" d="M259.46,104.45l-2,9.83a1.75,1.75,0,0,1-2.05,1.37h0a1.75,1.75,0,0,1-1.37-2l2-9.8a1.43,1.43,0,0,1,.35-.72,1.69,1.69,0,0,1,1.7-.65h0a1.74,1.74,0,0,1,1.38,2"/><path class="cls-4" d="M259.46,104.45l-2,9.83a1.75,1.75,0,0,1-2.05,1.37h0a1.75,1.75,0,0,1-1.37-2l2-9.8a1.43,1.43,0,0,1,.35-.72,1.69,1.69,0,0,1,1.7-.65h0A1.74,1.74,0,0,1,259.46,104.45Z"/><path class="cls-3" d="M261.64,84.56h0A1.75,1.75,0,0,1,263,86.62l-1.95,9.8a1.75,1.75,0,0,1-3.44-.69l1.95-9.8a1.76,1.76,0,0,1,2.07-1.37"/><path class="cls-4" d="M261.64,84.56h0A1.75,1.75,0,0,1,263,86.62l-1.95,9.8a1.75,1.75,0,0,1-3.44-.69l1.95-9.8A1.76,1.76,0,0,1,261.64,84.56Z"/><path class="cls-5" d="M271.14,36.94l-40.36,202a14.7,14.7,0,0,1-2,5,14.91,14.91,0,0,1-15.55,6.73l-93.13-18.6a14.93,14.93,0,0,1-11.69-17.58l40.36-202A14.91,14.91,0,0,1,166.31.79L259.44,19.4a14.93,14.93,0,0,1,11.7,17.54"/><path class="cls-6" d="M158.9,221.84a11.69,11.69,0,1,1,9.17,13.76A11.68,11.68,0,0,1,158.9,221.84Z"/><path class="cls-7" d="M122,192l105.19,21a1,1,0,0,0,1.16-.77L263,38.94a1,1,0,0,0-.77-1.16L157,16.76a1,1,0,0,0-1.16.78L121.23,190.82A1,1,0,0,0,122,192"/><line class="cls-8" x1="168.86" y1="123.07" x2="232.7" y2="135.83"/><line class="cls-8" x1="166.98" y1="132.47" x2="230.82" y2="145.23"/><line class="cls-8" x1="141.98" y1="137.26" x2="228.94" y2="154.63"/><line class="cls-8" x1="158.67" y1="150.37" x2="227.06" y2="164.04"/><line class="cls-8" x1="133.76" y1="178.39" x2="220.72" y2="195.77"/><circle class="cls-9" cx="153.64" cy="124.46" r="10.04"/><path class="cls-10" d="M156,128.45,154,128l-.06-2.94c0-.12,0-.37,0-.73s0-.67,0-.91c-.06.19-.15.42-.26.69s-.21.53-.31.76l-1.23,2.77-2.07-.41-.31-6.79,1.69.33.06,3.39c0,.75,0,1.34,0,1.78.1-.29.25-.69.45-1.19s.38-.9.54-1.23l1.06-2.33,1.62.32.06,2.56c0,.41,0,.89,0,1.42s0,.93,0,1.19c.11-.32.32-.87.66-1.64l1.36-3.11,1.69.33Z"/><circle class="cls-11" cx="148.82" cy="148.4" r="2.27"/><line class="cls-8" x1="156.58" y1="160.83" x2="224.97" y2="174.5"/><circle class="cls-11" cx="146.73" cy="158.87" r="2.27"/><line class="cls-8" x1="154.48" y1="171.33" x2="222.87" y2="185"/><circle class="cls-11" cx="144.64" cy="169.36" r="2.27"/><rect class="cls-9" x="157.4" y="27.55" width="99.83" height="22.4" transform="translate(11.61 -39.87) rotate(11.3)"/><line class="cls-8" x1="181.52" y1="67.35" x2="243.89" y2="79.82"/><line class="cls-8" x1="179.65" y1="76.76" x2="214.86" y2="83.79"/><line class="cls-8" x1="183.4" y1="57.95" x2="245.77" y2="70.41"/><path class="cls-11" d="M172.24,100.15l-2.07-.41,1.13-5.67.21-.93.24-1c-.42.27-.7.45-.86.53l-1.3.68-.75-1.45L172.49,90l1.71.34Z"/><path class="cls-11" d="M186,102.89l-2-.4.87-4.38c.22-1.08-.08-1.7-.88-1.86a1.39,1.39,0,0,0-1.36.33,3.71,3.71,0,0,0-.76,1.81l-.7,3.53-2.05-.41,2.09-10.43,2,.41-.42,2.13c0,.16-.13.55-.28,1.15l-.17.6.11,0a2.41,2.41,0,0,1,2.39-.67,2.73,2.73,0,0,1,1.86,1.11,2.93,2.93,0,0,1,.28,2.18Z"/><path class="cls-11" d="M195.63,100.92a4.14,4.14,0,0,1-1.54,2.67,3.56,3.56,0,0,1-2.89.49,3.81,3.81,0,0,1-1.81-.85,3.23,3.23,0,0,1-1-1.61,4.6,4.6,0,0,1,0-2.16,4.12,4.12,0,0,1,1.53-2.66,3.61,3.61,0,0,1,2.9-.48,3.86,3.86,0,0,1,1.81.85,3.2,3.2,0,0,1,1,1.6A4.83,4.83,0,0,1,195.63,100.92Zm-5.18-1a3.3,3.3,0,0,0,0,1.76,1.35,1.35,0,0,0,1.08.8,1.3,1.3,0,0,0,1.29-.33,4.12,4.12,0,0,0,.67-3.35,1.35,1.35,0,0,0-1.08-.8,1.34,1.34,0,0,0-1.29.32A3.1,3.1,0,0,0,190.45,99.88Z"/><path class="cls-11" d="M201.87,106.07l-.08-1-.11,0a2.19,2.19,0,0,1-1.09.62,3.27,3.27,0,0,1-1.43,0,2.64,2.64,0,0,1-1.85-1.1,2.91,2.91,0,0,1-.26-2.17l1-4.89,2,.41-.88,4.38a2.18,2.18,0,0,0,.05,1.27,1.07,1.07,0,0,0,.84.59,1.39,1.39,0,0,0,1.35-.33,3.62,3.62,0,0,0,.76-1.82l.71-3.53,2,.41-1.5,7.5Z"/><path class="cls-11" d="M211.3,100a3.08,3.08,0,0,1,.68.2l-.54,1.88a2.41,2.41,0,0,0-.59-.19,2.24,2.24,0,0,0-1.63.2,1.82,1.82,0,0,0-.82,1.3l-.77,3.81-2-.4,1.5-7.5,1.54.31.05,1.32.1,0a2.83,2.83,0,0,1,1.15-.82A2.38,2.38,0,0,1,211.3,100Z"/><path class="cls-11" d="M220.15,109.73l-.19-1.1h-.06a3.18,3.18,0,0,1-1.24.69,3.57,3.57,0,0,1-1.48,0,2.35,2.35,0,0,1-1.57-1,2.43,2.43,0,0,1-.27-1.88,2,2,0,0,1,1.19-1.6,5,5,0,0,1,2.64-.12l1.31.22.06-.33a1,1,0,0,0-.94-1.37,5.42,5.42,0,0,0-2.22.12l-.4-1.52a6.35,6.35,0,0,1,3-.1,3.63,3.63,0,0,1,2.18,1.12,2.46,2.46,0,0,1,.4,2.16l-1,5Zm.09-3.6-.8-.13a2.57,2.57,0,0,0-1.39.06,1,1,0,0,0-.61.81c-.12.58.15.93.82,1.06a1.55,1.55,0,0,0,1.21-.18,1.47,1.47,0,0,0,.64-1Z"/><path class="cls-11" d="M231.7,104.24l-.21,1-1.23.07a2.08,2.08,0,0,1,.1,1.19,2.33,2.33,0,0,1-1.22,1.71,3.69,3.69,0,0,1-2.47.21l-.37-.1-.29-.09a.71.71,0,0,0-.42.47c-.06.3.28.52,1,.67l1.28.25a3,3,0,0,1,1.77.91,1.93,1.93,0,0,1,.34,1.69,2.36,2.36,0,0,1-1.5,1.81,5.84,5.84,0,0,1-3.3.1,4.41,4.41,0,0,1-2.28-1,1.76,1.76,0,0,1-.53-1.69,1.67,1.67,0,0,1,.65-1,2.37,2.37,0,0,1,1.37-.4,1.56,1.56,0,0,1-.46-.55,1.09,1.09,0,0,1-.1-.7,1,1,0,0,1,.39-.66,2.78,2.78,0,0,1,.83-.42,2.09,2.09,0,0,1-.78-1,2.62,2.62,0,0,1-.08-1.4,2.41,2.41,0,0,1,1.18-1.74,3.5,3.5,0,0,1,2.41-.21,6.49,6.49,0,0,1,.74.2c.28.1.46.16.54.2Zm-7.49,7.4a.73.73,0,0,0,.27.74,2.26,2.26,0,0,0,1.09.47,4,4,0,0,0,1.78,0,.92.92,0,0,0,.79-.7.6.6,0,0,0-.25-.65,3,3,0,0,0-1.11-.39l-1.06-.21a1.62,1.62,0,0,0-1,.07A.83.83,0,0,0,224.21,111.64Zm2-6a1.56,1.56,0,0,0,.09,1,1,1,0,0,0,.77.52,1,1,0,0,0,.92-.18,1.64,1.64,0,0,0,.46-.92c.18-.9-.1-1.42-.84-1.57S226.35,104.78,226.17,105.69Z"/><path class="cls-11" d="M239,109.58a4.1,4.1,0,0,1-1.54,2.67,3.55,3.55,0,0,1-2.89.5,3.87,3.87,0,0,1-1.81-.86,3.18,3.18,0,0,1-1-1.61,4.84,4.84,0,0,1,0-2.15,4.12,4.12,0,0,1,1.53-2.66,3.53,3.53,0,0,1,2.9-.48,3.76,3.76,0,0,1,1.81.85,3.16,3.16,0,0,1,1,1.6A4.52,4.52,0,0,1,239,109.58Zm-5.18-1a3.26,3.26,0,0,0,0,1.75,1.34,1.34,0,0,0,1.08.81,1.3,1.3,0,0,0,1.29-.33,3.22,3.22,0,0,0,.7-1.62,3.11,3.11,0,0,0,0-1.74,1.57,1.57,0,0,0-2.37-.47A3.19,3.19,0,0,0,233.82,108.55Z"/><path class="cls-11" d="M219.22,89.11a1.17,1.17,0,0,1,.48-.79,1.23,1.23,0,0,1,.93-.11,1.25,1.25,0,0,1,.81.46,1.18,1.18,0,0,1,.13.91,1.15,1.15,0,0,1-.47.77,1.39,1.39,0,0,1-1.73-.34A1.13,1.13,0,0,1,219.22,89.11Zm.68-2.25.1-.49a2.18,2.18,0,0,1,.5-1.07,3.55,3.55,0,0,1,1.2-.81,4.14,4.14,0,0,0,1.09-.63,1.15,1.15,0,0,0,.37-.66.77.77,0,0,0-.19-.73,1.54,1.54,0,0,0-.85-.41,5.44,5.44,0,0,0-2.43.2l-.43-1.61a6.52,6.52,0,0,1,3.33-.21,3.49,3.49,0,0,1,2.07,1.11,2.21,2.21,0,0,1,.46,1.93,2.43,2.43,0,0,1-.59,1.2,4.92,4.92,0,0,1-1.52,1,3.55,3.55,0,0,0-.95.56,1.18,1.18,0,0,0-.31.61l-.08.41Z"/><circle class="cls-12" cx="158.21" cy="92.36" r="6.28"/><polyline class="cls-12" points="159.05 88.17 158.21 92.36 161.92 93.1"/><circle class="cls-13" cx="165.56" cy="64.63" r="10.04"/><path class="cls-10" d="M171.89,64.93a.75.75,0,0,0,.26-1.24.8.8,0,0,0,.27-.44.74.74,0,0,0-.5-.85.82.82,0,0,0,.24-.41.74.74,0,0,0-.59-.87h0a.85.85,0,0,0,.09-.24A.74.74,0,0,0,171,60a.81.81,0,0,0-.31,0,.58.58,0,0,0,.05-.14.74.74,0,0,0-.59-.88.78.78,0,0,0-.34,0,.75.75,0,0,0-.59-.79.72.72,0,0,0-.54.1.74.74,0,0,0-.59-.66.73.73,0,0,0-.64.17.71.71,0,0,0-.55-.48.73.73,0,0,0-.79.36.79.79,0,0,0-.52-.38.73.73,0,0,1-1.15.28.73.73,0,0,0-.89.74.71.71,0,0,0-.32-.14.74.74,0,0,0-.87.58.55.55,0,0,0,0,.22l-.07,0a.74.74,0,0,0-.88.58.81.81,0,0,0,0,.31.75.75,0,0,0-.72.6.72.72,0,0,0,.11.54.76.76,0,0,0-.68.6.74.74,0,0,0,.2.66.74.74,0,0,0-.48.56.72.72,0,0,0,.32.77.72.72,0,0,0-.32.47.74.74,0,0,0,.46.84.74.74,0,0,0-.2.38.74.74,0,0,0,.58.88h.07a.7.7,0,0,0-.12.28.74.74,0,0,0,.58.88h.18v0a.75.75,0,0,0,.58.88.74.74,0,0,0,.87-.56l4.32,1.2a.74.74,0,0,0,1.47.16.22.22,0,0,0,0-.08.92.92,0,0,0,.23.09.74.74,0,0,0,.89-.79l.13,0a.74.74,0,0,0,.88-.58.77.77,0,0,0,0-.37.74.74,0,0,0,.69-1.14.74.74,0,0,0,.66-.59.75.75,0,0,0-.23-.69"/><path class="cls-10" d="M162.61,68a.75.75,0,0,1,.88-.59.75.75,0,1,1-.29,1.47.76.76,0,0,1-.59-.88"/><path class="cls-10" d="M165.92,68.63a.75.75,0,1,1,1.47.29.76.76,0,0,1-.88.59.75.75,0,0,1-.59-.88"/><polygon class="cls-1" points="169.08 72.5 165.91 70.38 166.38 68.06 165.12 67.81 163.86 67.56 163.4 69.88 159.66 70.62 163.69 74.53 169.08 72.5"/><path class="cls-14" d="M164.75,69.88c.43.08.92-.3,1.33-.57l.06,0,.13-.68-.05,0a1.73,1.73,0,0,1-1.29.32h-.07a1.8,1.8,0,0,1-1.07-.79l0-.06-.14.68,0,0c.27.41.58,1,1,1h.08Z"/><path class="cls-1" d="M169.07,63.52c0-.57.29-1.85-.42-2.64a4.19,4.19,0,0,0-4.12-.83c-1,.46-1.22,1.74-1.41,2.28a9.5,9.5,0,0,0-.59,3.83,6.66,6.66,0,0,0,1.19,2.36,1.73,1.73,0,0,0,1.06.8h.08a1.7,1.7,0,0,0,1.28-.32,6.82,6.82,0,0,0,2-1.73,9.27,9.27,0,0,0,.92-3.76"/><path class="cls-10" d="M167.21,60.58a.74.74,0,1,1,.58.88.74.74,0,0,1-.58-.88"/><path class="cls-10" d="M165.88,60.2a.74.74,0,1,1,.58.88.74.74,0,0,1-.58-.88"/><path class="cls-10" d="M168.06,61.73a.75.75,0,1,1,.59.88.75.75,0,0,1-.59-.88"/><path class="cls-10" d="M168.65,63.1a.75.75,0,1,1,1.47.29.75.75,0,0,1-1.47-.29"/><path class="cls-10" d="M166,60.33a.75.75,0,1,0-1.47-.29.74.74,0,0,0,.59.88.75.75,0,0,0,.88-.59"/><path class="cls-10" d="M164.74,61.06a.74.74,0,1,0-1.46-.29.74.74,0,1,0,1.46.29"/><path class="cls-10" d="M163.67,62.1a.75.75,0,0,0-1.47-.29.76.76,0,0,0,.59.88.74.74,0,0,0,.88-.59"/><path class="cls-10" d="M167.08,59.63A.75.75,0,0,1,168,59a.76.76,0,0,1,.59.88.75.75,0,0,1-.88.59.74.74,0,0,1-.59-.88"/><rect class="cls-10" x="163.91" y="59.68" width="0.92" height="0.55" transform="translate(73.38 209.39) rotate(-78.7)"/><rect class="cls-10" x="165.46" y="59.52" width="0.92" height="0.55" transform="translate(74.78 210.78) rotate(-78.7)"/><rect class="cls-10" x="168.37" y="60.64" width="0.92" height="0.55" transform="translate(76.02 214.53) rotate(-78.7)"/><path class="cls-9" d="M167.72,71.53a5.09,5.09,0,0,1-3.29.66l-.16,0-.1,0-.1,0-.15,0a5,5,0,0,1-2.79-1.87l-3.45.63a10,10,0,0,0,12.85,2.51Z"/><path class="cls-7" d="M167.72,71.53a5.09,5.09,0,0,1-3.29.66l-.51-.11a5,5,0,0,1-2.79-1.87"/><path class="cls-15" d="M194.94,16.53a1.51,1.51,0,1,0,1.78-1.19A1.52,1.52,0,0,0,194.94,16.53Z"/><path class="cls-1" d="M113.19,173.92c15.42-4.15,16.95-30.17,16.95-30.17A41.06,41.06,0,0,1,134,135.8a119.18,119.18,0,0,1,11.48-15.34s14.92-13,12.56-28.26c-1.19-7.65-5-9.68-8.48-9.8A9.28,9.28,0,0,0,141,87.89l-2.59,5.54A26.12,26.12,0,0,1,130,103.66a126.38,126.38,0,0,0-10.82,8.64L105.3,124.82a13.36,13.36,0,0,0-3.8,5.9c-1.16,3.68-17,94-17,94"/><rect class="cls-1" x="226.82" y="131.17" width="34.14" height="23.82" rx="11.91" transform="translate(61.49 -72.98) rotate(19.43)"/><rect class="cls-1" x="215.2" y="208.69" width="27.48" height="23.82" rx="11.91" transform="translate(37.22 -33.02) rotate(8.98)"/><rect class="cls-1" x="218.75" y="157.45" width="38.13" height="23.82" rx="11.91" transform="translate(37.8 -43.32) rotate(11.3)"/><rect class="cls-1" x="211.75" y="181.92" width="38.13" height="23.82" rx="11.91" transform="translate(42.45 -41.47) rotate(11.3)"/><polygon class="cls-6" points="169.43 304.12 74.06 304.12 77.06 289.21 172.43 289.21 169.43 304.12"/><line class="cls-7" x1="257.99" y1="304.54" x2="0.5" y2="304.54"/></g></g></svg>