<?xml version="1.0" encoding="utf-8"?>
<!-- Generator: Adobe Illustrator 23.0.6, SVG Export Plug-In . SVG Version: 6.00 Build 0)  -->
<svg version="1.1" id="Layer_1" xmlns="http://www.w3.org/2000/svg" xmlns:xlink="http://www.w3.org/1999/xlink" x="0px" y="0px"
	 viewBox="0 0 269.6 224.3" style="enable-background:new 0 0 269.6 224.3;" xml:space="preserve">
<style type="text/css">
	.st0{fill:#ccc;}
</style>
<g>
	<g>
		<path class="st0" d="M183.3,163.7H86.2c-10.5,0-19-8.5-19-19v-65c0-10.5,8.5-19,19-19h97.1c10.5,0,19,8.5,19,19v65
			C202.4,155.1,193.8,163.7,183.3,163.7z M86.2,72.1c-4.2,0-7.6,3.4-7.6,7.6v65c0,4.2,3.4,7.6,7.6,7.6h97.1c4.2,0,7.6-3.4,7.6-7.6
			v-65c0-4.2-3.4-7.6-7.6-7.6H86.2z"/>
	</g>
	<g>
		<g>
			<circle class="st0" cx="102" cy="96.1" r="10.4"/>
		</g>
		<g>
			<path class="st0" d="M175.3,114.7l-19.4-19.4c-1.4-1.4-3.6-1.4-5,0l-29.3,29.3c-1.4,1.4-3.6,1.4-5,0l-7.9-7.9
				c-1.4-1.4-3.6-1.4-5,0l-11,11c-0.7,0.7-1,1.6-1,2.5v4.8c0,2,1.6,3.6,3.6,3.6h79.4c2,0,3.6-1.6,3.6-3.6v-16c0-0.9-0.4-1.8-1-2.5
				L175.3,114.7z"/>
		</g>
	</g>
</g>
</svg>
