<svg xmlns="http://www.w3.org/2000/svg" viewBox="0 0 129.6 129.6"><defs><style>.cls-1{fill:#eceaea;}.cls-2{fill:#e5e5e5;}.cls-3{fill:none;stroke:#b0b1b2;stroke-miterlimit:10;stroke-width:2px;}.cls-4{fill:#fff;}.cls-5{fill:#24aef4;}.cls-6{fill:#ff434e;}</style></defs><title>Asset 7</title><g id="Layer_2" data-name="Layer 2"><g id="Layer_1-2" data-name="Layer 1"><path class="cls-1" d="M129.6,64.74A64.8,64.8,0,1,1,64.74,0,64.45,64.45,0,0,1,129.6,64.74"/><rect class="cls-2" x="72.83" y="49.72" width="7.13" height="17.86" transform="translate(-19.08 71.3) rotate(-45.06)"/><rect class="cls-3" x="72.83" y="49.72" width="7.13" height="17.86" transform="translate(-19.08 71.3) rotate(-45.06)"/><path class="cls-4" d="M81.44,48.55,66.31,63.7a3.54,3.54,0,0,1-2.52,1,3.59,3.59,0,0,1-2.52-1l-2.52-2.53L78.9,41l2.53,2.52a3.54,3.54,0,0,1,1,2.52,3.61,3.61,0,0,1-1,2.52"/><path class="cls-3" d="M81.44,48.55,66.31,63.7a3.54,3.54,0,0,1-2.52,1,3.59,3.59,0,0,1-2.52-1l-2.52-2.53L78.9,41l2.53,2.52a3.54,3.54,0,0,1,1,2.52A3.61,3.61,0,0,1,81.44,48.55Z"/><path class="cls-4" d="M49.94,72.54l-2.53,2.52a1.78,1.78,0,0,1-2.51,0L24.77,54.92a1.79,1.79,0,0,1-.53-1.27,1.84,1.84,0,0,1,.52-1.27l2.46-2.53a5.35,5.35,0,0,1,7.56,0L49.93,65a5.34,5.34,0,0,1,0,7.59"/><path class="cls-3" d="M49.94,72.54l-2.53,2.52a1.78,1.78,0,0,1-2.51,0L24.77,54.92a1.79,1.79,0,0,1-.53-1.27,1.84,1.84,0,0,1,.52-1.27l2.46-2.53a5.35,5.35,0,0,1,7.56,0L49.93,65a5.34,5.34,0,0,1,0,7.59Z"/><path class="cls-4" d="M92.76,29.62l-2.52,2.54a5.32,5.32,0,0,1-7.57,0L67.52,17a5.35,5.35,0,0,1,0-7.56L70,7a1.77,1.77,0,0,1,2.53,0L92.75,27.11a1.77,1.77,0,0,1,0,2.51"/><path class="cls-3" d="M92.76,29.62l-2.52,2.54a5.32,5.32,0,0,1-7.57,0L67.52,17a5.35,5.35,0,0,1,0-7.56L70,7a1.77,1.77,0,0,1,2.53,0L92.75,27.11A1.77,1.77,0,0,1,92.76,29.62Z"/><path class="cls-2" d="M82.67,32.17l-8.84-8.82L67.53,17a3.56,3.56,0,0,0-5,0L34.78,44.8a3.55,3.55,0,0,0,0,5l3.8,3.8L49.93,65a3.57,3.57,0,0,0,5,0L82.67,37.21a3.55,3.55,0,0,0,0-5"/><path class="cls-3" d="M82.67,32.17l-8.84-8.82L67.53,17a3.56,3.56,0,0,0-5,0L34.78,44.8a3.55,3.55,0,0,0,0,5l3.8,3.8L49.93,65a3.57,3.57,0,0,0,5,0L82.67,37.21a3.55,3.55,0,0,0,0-5Z"/><path class="cls-4" d="M124.34,96.41l-3.78-3.77-5-5-24-23.92-5.1-5a3.57,3.57,0,0,0-2.52-1.05,3.62,3.62,0,0,0-2.53,1.05L79.59,60.5l-3.11,3.19a3.56,3.56,0,0,0,0,5l5,5c0,.18-.29-.27,24,23.94l5,5,3.78,3.78a7.14,7.14,0,1,0,10.08-10.11"/><path class="cls-3" d="M124.34,96.41l-3.78-3.77-5-5-24-23.92-5.1-5a3.57,3.57,0,0,0-2.52-1.05,3.62,3.62,0,0,0-2.53,1.05L79.59,60.5l-3.11,3.19a3.56,3.56,0,0,0,0,5l5,5c0,.18-.29-.27,24,23.94l5,5,3.78,3.78a7.14,7.14,0,1,0,10.08-10.11Z"/><line class="cls-4" x1="86.72" y1="79.07" x2="96.82" y2="68.96"/><line class="cls-3" x1="86.72" y1="79.07" x2="96.82" y2="68.96"/><path class="cls-5" d="M64,96.17v7.13l-35.65,0V96.2a5.35,5.35,0,0,1,5.34-5.35l25,0A5.35,5.35,0,0,1,64,96.17"/><path class="cls-3" d="M64,96.17v7.13l-35.65,0V96.2a5.35,5.35,0,0,1,5.34-5.35l25,0A5.35,5.35,0,0,1,64,96.17Z"/><path class="cls-4" d="M69.38,103.3v3.56a1.79,1.79,0,0,1-1.79,1.79l-42.78,0A1.79,1.79,0,0,1,23,106.91v-3.57a3.56,3.56,0,0,1,3.56-3.57l39.22,0a3.57,3.57,0,0,1,3.57,3.57"/><path class="cls-3" d="M69.38,103.3v3.56a1.79,1.79,0,0,1-1.79,1.79l-42.78,0A1.79,1.79,0,0,1,23,106.91v-3.57a3.56,3.56,0,0,1,3.56-3.57l39.22,0A3.57,3.57,0,0,1,69.38,103.3Z"/><line class="cls-4" x1="66.02" y1="87.25" x2="73.85" y2="79.09"/><line class="cls-3" x1="66.02" y1="87.25" x2="73.85" y2="79.09"/><line class="cls-4" x1="68.2" y1="92.71" x2="79.52" y2="92.47"/><line class="cls-3" x1="68.2" y1="92.71" x2="79.52" y2="92.47"/><line class="cls-4" x1="60.81" y1="84.74" x2="60.12" y2="73.45"/><line class="cls-3" x1="60.81" y1="84.74" x2="60.12" y2="73.45"/><line class="cls-4" x1="38.58" y1="53.64" x2="71.32" y2="20.84"/><line class="cls-3" x1="38.58" y1="53.64" x2="71.32" y2="20.84"/><rect class="cls-6" x="103.42" y="88.27" width="14.03" height="8.37" transform="translate(-33.01 105.32) rotate(-45.06)"/><rect class="cls-3" x="103.42" y="88.27" width="14.03" height="8.37" transform="translate(-33.01 105.32) rotate(-45.06)"/></g></g></svg>