<svg xmlns="http://www.w3.org/2000/svg" viewBox="0 0 283.6 223.16"><defs><style>.cls-1{fill:#eceaea;}.cls-1,.cls-10,.cls-4,.cls-5,.cls-6,.cls-7,.cls-8,.cls-9{stroke:#9b999a;stroke-miterlimit:10;stroke-width:2px;}.cls-2{fill:#e40e23;}.cls-3{fill:#55acee;}.cls-4{fill:#d3d3d3;}.cls-5{fill:#fff;}.cls-6{fill:#f9f9f9;}.cls-7{fill:#c6c6c6;}.cls-8{fill:#c1c1c1;}.cls-9{fill:#d6d6d6;}.cls-10{fill:none;}</style></defs><title>Asset 1</title><g id="Layer_2" data-name="Layer 2"><g id="Layer_1-2" data-name="Layer 1"><path class="cls-1" d="M37.16,138.9s-2.33-5.5,0-10.57h6.48c2.33,5.06,0,10.57,0,10.57Z"/><rect class="cls-1" x="37.01" y="127.96" width="6.79" height="0.37" rx="0.19" transform="translate(80.94 256.25) rotate(179.95)"/><rect class="cls-1" x="37.02" y="138.9" width="6.79" height="0.37" rx="0.19" transform="translate(80.97 278.13) rotate(179.95)"/><path class="cls-1" d="M41.11,138.89s.68-6.89,0-10.56"/><path class="cls-1" d="M42.43,138.89s1.38-6.16,0-10.56"/><path class="cls-1" d="M39.71,138.89s-.69-6.89,0-10.56"/><path class="cls-1" d="M38.32,138.89s-1.38-6.15,0-10.56"/><path class="cls-1" d="M36.91,129h7a.16.16,0,0,1,.16.12l.18.71a.16.16,0,0,1-.16.2H36.69a.17.17,0,0,1-.15-.22l.22-.7A.16.16,0,0,1,36.91,129Z"/><path class="cls-1" d="M43.89,138.35h-7a.16.16,0,0,1-.16-.12l-.18-.71a.17.17,0,0,1,.16-.2h7.41a.16.16,0,0,1,.15.22l-.22.7A.16.16,0,0,1,43.89,138.35Z"/><rect class="cls-1" x="35.93" y="133.08" width="8.91" height="1.06" rx="0.21" transform="translate(80.9 267.19) rotate(179.95)"/><circle class="cls-1" cx="43.45" cy="129.47" r="0.09"/><circle class="cls-1" cx="42.02" cy="129.48" r="0.09"/><circle class="cls-1" cx="40.41" cy="129.48" r="0.09"/><circle class="cls-1" cx="38.78" cy="129.48" r="0.09"/><circle class="cls-1" cx="37.43" cy="129.48" r="0.09"/><circle class="cls-1" cx="43.45" cy="137.83" r="0.09"/><circle class="cls-1" cx="42.03" cy="137.83" r="0.09"/><circle class="cls-1" cx="40.42" cy="137.83" r="0.09"/><circle class="cls-1" cx="38.78" cy="137.84" r="0.09"/><circle class="cls-1" cx="37.44" cy="137.84" r="0.09"/><circle class="cls-1" cx="43.9" cy="133.65" r="0.09"/><circle class="cls-1" cx="42.28" cy="133.65" r="0.09"/><circle class="cls-1" cx="40.41" cy="133.66" r="0.09"/><circle class="cls-1" cx="38.59" cy="133.66" r="0.09"/><circle class="cls-1" cx="36.92" cy="133.66" r="0.09"/><path class="cls-1" d="M22.13,138.92s-2.33-5.51,0-10.57H28.6c2.33,5.06,0,10.57,0,10.57Z"/><rect class="cls-1" x="21.98" y="127.97" width="6.79" height="0.37" rx="0.19" transform="translate(50.87 256.29) rotate(179.95)"/><rect class="cls-1" x="21.99" y="138.91" width="6.79" height="0.37" rx="0.19" transform="translate(50.9 278.18) rotate(179.95)"/><path class="cls-1" d="M26.07,138.91s.69-6.89,0-10.56"/><path class="cls-1" d="M27.4,138.9s1.38-6.15,0-10.56"/><path class="cls-1" d="M24.68,138.91s-.7-6.89,0-10.56"/><path class="cls-1" d="M23.29,138.91s-1.39-6.16,0-10.56"/><path class="cls-1" d="M21.88,129h7a.16.16,0,0,1,.16.13l.18.7a.17.17,0,0,1-.16.2H21.66a.16.16,0,0,1-.15-.21l.21-.71A.17.17,0,0,1,21.88,129Z"/><path class="cls-1" d="M28.86,138.36h-7a.16.16,0,0,1-.16-.13l-.18-.7a.16.16,0,0,1,.16-.2h7.4a.17.17,0,0,1,.16.21l-.22.71A.16.16,0,0,1,28.86,138.36Z"/><rect class="cls-1" x="20.9" y="133.09" width="8.91" height="1.06" rx="0.21" transform="translate(50.83 267.23) rotate(179.95)"/><circle class="cls-1" cx="28.41" cy="129.49" r="0.09"/><circle class="cls-1" cx="26.99" cy="129.49" r="0.09"/><circle class="cls-1" cx="25.38" cy="129.49" r="0.09"/><circle class="cls-1" cx="23.74" cy="129.49" r="0.09"/><circle class="cls-1" cx="22.4" cy="129.49" r="0.09"/><circle class="cls-1" cx="28.42" cy="137.85" r="0.09"/><circle class="cls-1" cx="27" cy="137.85" r="0.09"/><circle class="cls-1" cx="25.38" cy="137.85" r="0.09"/><circle class="cls-1" cx="23.75" cy="137.85" r="0.09"/><circle class="cls-1" cx="22.4" cy="137.85" r="0.09"/><circle class="cls-1" cx="28.87" cy="133.67" r="0.09"/><circle class="cls-1" cx="27.25" cy="133.67" r="0.09"/><circle class="cls-1" cx="25.38" cy="133.67" r="0.09"/><circle class="cls-1" cx="23.55" cy="133.67" r="0.09"/><circle class="cls-1" cx="21.88" cy="133.67" r="0.09"/><path class="cls-1" d="M14.63,138.92s-2.33-5.5,0-10.56H21.1c2.33,5.06,0,10.57,0,10.57Z"/><rect class="cls-1" x="14.48" y="127.98" width="6.79" height="0.37" rx="0.19" transform="translate(35.87 256.31) rotate(179.95)"/><rect class="cls-1" x="14.49" y="138.92" width="6.79" height="0.37" rx="0.19" transform="translate(35.9 278.2) rotate(179.95)"/><path class="cls-1" d="M18.57,138.91s.69-6.89,0-10.56"/><path class="cls-1" d="M19.9,138.91s1.38-6.16,0-10.56"/><path class="cls-1" d="M17.18,138.91s-.69-6.88,0-10.56"/><path class="cls-1" d="M15.79,138.92s-1.39-6.16,0-10.57"/><path class="cls-1" d="M14.38,129h7a.16.16,0,0,1,.16.12l.18.71a.17.17,0,0,1-.16.2H14.16a.16.16,0,0,1-.15-.21l.22-.71A.15.15,0,0,1,14.38,129Z"/><path class="cls-1" d="M21.36,138.37h-7a.16.16,0,0,1-.16-.12l-.18-.7a.17.17,0,0,1,.16-.21h7.4a.16.16,0,0,1,.16.21l-.22.7A.16.16,0,0,1,21.36,138.37Z"/><rect class="cls-1" x="13.4" y="133.1" width="8.91" height="1.06" rx="0.21" transform="translate(35.83 267.25) rotate(179.95)"/><circle class="cls-1" cx="20.91" cy="129.5" r="0.09"/><circle class="cls-1" cx="19.49" cy="129.5" r="0.09"/><circle class="cls-1" cx="17.88" cy="129.5" r="0.09"/><circle class="cls-1" cx="16.24" cy="129.5" r="0.09"/><circle class="cls-1" cx="14.9" cy="129.5" r="0.09"/><circle class="cls-1" cx="20.92" cy="137.85" r="0.09"/><circle class="cls-1" cx="19.5" cy="137.85" r="0.09"/><circle class="cls-1" cx="17.88" cy="137.86" r="0.09"/><circle class="cls-1" cx="16.25" cy="137.86" r="0.09"/><circle class="cls-1" cx="14.9" cy="137.86" r="0.09"/><circle class="cls-1" cx="21.37" cy="133.67" r="0.09"/><circle class="cls-1" cx="19.75" cy="133.67" r="0.09"/><circle class="cls-1" cx="17.88" cy="133.68" r="0.09"/><circle class="cls-1" cx="16.06" cy="133.68" r="0.09"/><circle class="cls-1" cx="14.39" cy="133.68" r="0.09"/><path class="cls-1" d="M29.43,138.91s-2.32-5.51,0-10.57h6.49c2.32,5,0,10.56,0,10.56Z"/><rect class="cls-1" x="29.28" y="127.96" width="6.79" height="0.37" rx="0.19" transform="translate(65.48 256.27) rotate(179.95)"/><rect class="cls-1" x="29.29" y="138.91" width="6.79" height="0.37" rx="0.19" transform="translate(65.51 278.16) rotate(179.95)"/><path class="cls-1" d="M33.38,138.9s.68-6.89,0-10.56"/><path class="cls-1" d="M34.71,138.9s1.37-6.16,0-10.56"/><path class="cls-1" d="M32,138.9s-.69-6.89,0-10.56"/><path class="cls-1" d="M30.59,138.9s-1.38-6.15,0-10.56"/><path class="cls-1" d="M29.18,129h7a.17.17,0,0,1,.16.13l.18.7a.16.16,0,0,1-.16.21H29a.16.16,0,0,1-.16-.21l.22-.7A.16.16,0,0,1,29.18,129Z"/><path class="cls-1" d="M36.16,138.35h-7a.16.16,0,0,1-.16-.12l-.18-.71a.17.17,0,0,1,.16-.2h7.41a.16.16,0,0,1,.15.21l-.21.71A.17.17,0,0,1,36.16,138.35Z"/><rect class="cls-1" x="28.2" y="133.09" width="8.91" height="1.06" rx="0.21" transform="translate(65.44 267.21) rotate(179.95)"/><circle class="cls-1" cx="35.72" cy="129.48" r="0.09"/><circle class="cls-1" cx="34.29" cy="129.48" r="0.09"/><circle class="cls-1" cx="32.68" cy="129.48" r="0.09"/><circle class="cls-1" cx="31.05" cy="129.49" r="0.09"/><circle class="cls-1" cx="29.7" cy="129.49" r="0.09"/><circle class="cls-1" cx="35.73" cy="137.84" r="0.09"/><circle class="cls-1" cx="34.3" cy="137.84" r="0.09"/><circle class="cls-1" cx="32.69" cy="137.84" r="0.09"/><circle class="cls-1" cx="31.05" cy="137.84" r="0.09"/><circle class="cls-1" cx="29.71" cy="137.84" r="0.09"/><circle class="cls-1" cx="36.17" cy="133.66" r="0.09"/><circle class="cls-1" cx="34.55" cy="133.66" r="0.09"/><circle class="cls-1" cx="32.68" cy="133.66" r="0.09"/><circle class="cls-1" cx="30.86" cy="133.66" r="0.09"/><circle class="cls-1" cx="29.19" cy="133.67" r="0.09"/><path class="cls-1" d="M123.43,172.56s-2.32-5.51,0-10.57h6.49c2.32,5.06,0,10.57,0,10.57Z"/><rect class="cls-1" x="123.29" y="161.61" width="6.79" height="0.37" rx="0.19" transform="translate(253.52 323.48) rotate(179.95)"/><rect class="cls-1" x="123.3" y="172.56" width="6.79" height="0.37" rx="0.19" transform="translate(253.55 345.36) rotate(179.95)"/><path class="cls-1" d="M127.38,172.55s.68-6.89,0-10.56"/><path class="cls-1" d="M128.71,172.55s1.37-6.16,0-10.56"/><path class="cls-1" d="M126,172.55s-.7-6.89,0-10.56"/><path class="cls-1" d="M124.59,172.55s-1.38-6.16,0-10.56"/><path class="cls-1" d="M123.19,162.62h7a.17.17,0,0,1,.16.13l.17.7a.16.16,0,0,1-.16.21H123a.16.16,0,0,1-.16-.21l.22-.7A.17.17,0,0,1,123.19,162.62Z"/><path class="cls-1" d="M130.16,172h-7a.17.17,0,0,1-.16-.12l-.17-.71a.16.16,0,0,1,.16-.2h7.4a.17.17,0,0,1,.16.21l-.22.71A.16.16,0,0,1,130.16,172Z"/><rect class="cls-1" x="122.2" y="166.74" width="8.91" height="1.06" rx="0.21" transform="translate(253.48 334.42) rotate(179.95)"/><circle class="cls-1" cx="129.72" cy="163.13" r="0.09"/><circle class="cls-1" cx="128.3" cy="163.13" r="0.09"/><circle class="cls-1" cx="126.68" cy="163.13" r="0.09"/><circle class="cls-1" cx="125.05" cy="163.13" r="0.09"/><circle class="cls-1" cx="123.7" cy="163.14" r="0.09"/><circle class="cls-1" cx="129.73" cy="171.49" r="0.09"/><circle class="cls-1" cx="128.3" cy="171.49" r="0.09"/><circle class="cls-1" cx="126.69" cy="171.49" r="0.09"/><circle class="cls-1" cx="125.06" cy="171.49" r="0.09"/><circle class="cls-1" cx="123.71" cy="171.49" r="0.09"/><circle class="cls-1" cx="130.17" cy="167.31" r="0.09"/><circle class="cls-1" cx="128.56" cy="167.31" r="0.09"/><circle class="cls-1" cx="126.69" cy="167.31" r="0.09"/><circle class="cls-1" cx="124.86" cy="167.31" r="0.09"/><circle class="cls-1" cx="123.19" cy="167.31" r="0.09"/><path class="cls-1" d="M108.29,172.57s-2.33-5.5,0-10.57h6.48c2.33,5.06,0,10.57,0,10.57Z"/><rect class="cls-1" x="108.14" y="161.63" width="6.79" height="0.37" rx="0.19" transform="translate(223.22 323.52) rotate(179.95)"/><rect class="cls-1" x="108.15" y="172.57" width="6.79" height="0.37" rx="0.19" transform="translate(223.25 345.41) rotate(179.95)"/><path class="cls-1" d="M112.23,172.56s.69-6.89,0-10.56"/><path class="cls-1" d="M113.56,172.56s1.37-6.16,0-10.56"/><path class="cls-1" d="M110.84,172.56s-.7-6.89,0-10.56"/><path class="cls-1" d="M109.45,172.56s-1.39-6.15,0-10.56"/><path class="cls-1" d="M108,162.63h7a.16.16,0,0,1,.16.12l.17.71a.16.16,0,0,1-.15.2h-7.41a.16.16,0,0,1-.15-.22l.21-.7A.18.18,0,0,1,108,162.63Z"/><path class="cls-1" d="M115,172h-7a.15.15,0,0,1-.16-.12l-.18-.71a.16.16,0,0,1,.16-.2h7.4a.17.17,0,0,1,.16.22l-.22.7A.16.16,0,0,1,115,172Z"/><rect class="cls-1" x="107.05" y="166.75" width="8.91" height="1.06" rx="0.21" transform="translate(223.18 334.46) rotate(179.95)"/><circle class="cls-1" cx="114.57" cy="163.14" r="0.09"/><circle class="cls-1" cx="113.15" cy="163.15" r="0.09"/><circle class="cls-1" cx="111.54" cy="163.15" r="0.09"/><circle class="cls-1" cx="109.9" cy="163.15" r="0.09"/><circle class="cls-1" cx="108.55" cy="163.15" r="0.09"/><circle class="cls-1" cx="114.58" cy="171.5" r="0.09"/><circle class="cls-1" cx="113.16" cy="171.5" r="0.09"/><circle class="cls-1" cx="111.54" cy="171.5" r="0.09"/><circle class="cls-1" cx="109.91" cy="171.51" r="0.09"/><circle class="cls-1" cx="108.56" cy="171.51" r="0.09"/><circle class="cls-1" cx="115.03" cy="167.32" r="0.09"/><circle class="cls-1" cx="113.41" cy="167.32" r="0.09"/><circle class="cls-1" cx="111.54" cy="167.33" r="0.09"/><circle class="cls-1" cx="109.71" cy="167.33" r="0.09"/><circle class="cls-1" cx="108.04" cy="167.33" r="0.09"/><path class="cls-1" d="M116,172.57s-2.33-5.51,0-10.57h6.48c2.32,5.06,0,10.57,0,10.57Z"/><rect class="cls-1" x="115.8" y="161.62" width="6.79" height="0.37" rx="0.19" transform="translate(238.54 323.5) rotate(179.95)"/><rect class="cls-1" x="115.81" y="172.56" width="6.79" height="0.37" rx="0.19" transform="translate(238.57 345.39) rotate(179.95)"/><path class="cls-1" d="M119.89,172.55s.69-6.89,0-10.56"/><path class="cls-1" d="M121.22,172.55s1.37-6.15,0-10.56"/><path class="cls-1" d="M118.5,172.56s-.7-6.89,0-10.56"/><path class="cls-1" d="M117.11,172.56s-1.39-6.16,0-10.56"/><path class="cls-1" d="M115.7,162.63h7a.17.17,0,0,1,.16.12l.17.71a.16.16,0,0,1-.15.2h-7.41a.17.17,0,0,1-.16-.21l.22-.71A.16.16,0,0,1,115.7,162.63Z"/><path class="cls-1" d="M122.67,172h-7a.15.15,0,0,1-.15-.13l-.18-.7a.16.16,0,0,1,.16-.21h7.4a.16.16,0,0,1,.16.21l-.22.7A.16.16,0,0,1,122.67,172Z"/><rect class="cls-1" x="114.71" y="166.74" width="8.91" height="1.06" rx="0.21" transform="translate(238.5 334.44) rotate(179.95)"/><circle class="cls-1" cx="122.23" cy="163.14" r="0.09"/><circle class="cls-1" cx="120.81" cy="163.14" r="0.09"/><circle class="cls-1" cx="119.2" cy="163.14" r="0.09"/><circle class="cls-1" cx="117.56" cy="163.14" r="0.09"/><circle class="cls-1" cx="116.21" cy="163.14" r="0.09"/><circle class="cls-1" cx="122.24" cy="171.49" r="0.09"/><circle class="cls-1" cx="120.82" cy="171.5" r="0.09"/><circle class="cls-1" cx="119.2" cy="171.5" r="0.09"/><circle class="cls-1" cx="117.57" cy="171.5" r="0.09"/><circle class="cls-1" cx="116.22" cy="171.5" r="0.09"/><circle class="cls-1" cx="122.69" cy="167.32" r="0.09"/><circle class="cls-1" cx="121.07" cy="167.32" r="0.09"/><circle class="cls-1" cx="119.2" cy="167.32" r="0.09"/><circle class="cls-1" cx="117.37" cy="167.32" r="0.09"/><circle class="cls-1" cx="115.7" cy="167.32" r="0.09"/><path class="cls-1" d="M147.13,172.54s-2.33-5.51,0-10.57h6.48c2.33,5.06,0,10.57,0,10.57Z"/><rect class="cls-1" x="146.98" y="161.59" width="6.79" height="0.37" rx="0.19" transform="translate(300.91 323.41) rotate(179.95)"/><rect class="cls-1" x="146.99" y="172.53" width="6.79" height="0.37" rx="0.19" transform="translate(300.94 345.3) rotate(179.95)"/><path class="cls-1" d="M151.08,172.53s.68-6.9,0-10.57"/><path class="cls-1" d="M152.4,172.52s1.38-6.15,0-10.56"/><path class="cls-1" d="M149.68,172.53s-.69-6.89,0-10.56"/><path class="cls-1" d="M148.29,172.53s-1.38-6.16,0-10.56"/><path class="cls-1" d="M146.88,162.6h7a.16.16,0,0,1,.16.12l.18.71a.16.16,0,0,1-.16.2h-7.41a.16.16,0,0,1-.15-.21l.22-.71A.15.15,0,0,1,146.88,162.6Z"/><path class="cls-1" d="M153.86,172h-7a.16.16,0,0,1-.16-.13l-.18-.7a.17.17,0,0,1,.16-.21h7.41a.15.15,0,0,1,.15.21l-.22.71A.16.16,0,0,1,153.86,172Z"/><rect class="cls-1" x="145.9" y="166.71" width="8.91" height="1.06" rx="0.21" transform="translate(300.87 334.35) rotate(179.95)"/><circle class="cls-1" cx="153.42" cy="163.11" r="0.09"/><circle class="cls-1" cx="151.99" cy="163.11" r="0.09"/><circle class="cls-1" cx="150.38" cy="163.11" r="0.09"/><circle class="cls-1" cx="148.75" cy="163.11" r="0.09"/><circle class="cls-1" cx="147.4" cy="163.11" r="0.09"/><circle class="cls-1" cx="153.42" cy="171.46" r="0.09"/><circle class="cls-1" cx="152" cy="171.47" r="0.09"/><circle class="cls-1" cx="150.39" cy="171.47" r="0.09"/><circle class="cls-1" cx="148.75" cy="171.47" r="0.09"/><circle class="cls-1" cx="147.41" cy="171.47" r="0.09"/><circle class="cls-1" cx="153.87" cy="167.29" r="0.09"/><circle class="cls-1" cx="152.25" cy="167.29" r="0.09"/><circle class="cls-1" cx="150.38" cy="167.29" r="0.09"/><circle class="cls-1" cx="148.56" cy="167.29" r="0.09"/><circle class="cls-1" cx="146.89" cy="167.29" r="0.09"/><path class="cls-1" d="M132,172.55S129.66,167,132,162h6.49c2.32,5.05,0,10.56,0,10.56Z"/><rect class="cls-1" x="131.84" y="161.6" width="6.79" height="0.37" rx="0.19" transform="translate(270.62 323.46) rotate(179.95)"/><rect class="cls-1" x="131.85" y="172.55" width="6.79" height="0.37" rx="0.19" transform="translate(270.65 345.34) rotate(179.95)"/><path class="cls-1" d="M135.93,172.54s.68-6.89,0-10.56"/><path class="cls-1" d="M137.26,172.54s1.37-6.16,0-10.56"/><path class="cls-1" d="M134.54,172.54s-.7-6.89,0-10.56"/><path class="cls-1" d="M133.14,172.54s-1.38-6.15,0-10.56"/><path class="cls-1" d="M131.74,162.61h7a.15.15,0,0,1,.15.12l.18.7a.16.16,0,0,1-.16.21h-7.4a.16.16,0,0,1-.16-.21l.22-.7A.16.16,0,0,1,131.74,162.61Z"/><path class="cls-1" d="M138.71,172h-7a.17.17,0,0,1-.16-.12l-.17-.71a.16.16,0,0,1,.15-.2h7.41a.17.17,0,0,1,.16.21l-.22.71A.16.16,0,0,1,138.71,172Z"/><rect class="cls-1" x="130.75" y="166.73" width="8.91" height="1.06" rx="0.21" transform="translate(270.58 334.39) rotate(179.95)"/><circle class="cls-1" cx="138.27" cy="163.12" r="0.09"/><circle class="cls-1" cx="136.85" cy="163.12" r="0.09"/><circle class="cls-1" cx="135.23" cy="163.12" r="0.09"/><circle class="cls-1" cx="133.6" cy="163.13" r="0.09"/><circle class="cls-1" cx="132.25" cy="163.13" r="0.09"/><circle class="cls-1" cx="138.28" cy="171.48" r="0.09"/><circle class="cls-1" cx="136.85" cy="171.48" r="0.09"/><circle class="cls-1" cx="135.24" cy="171.48" r="0.09"/><circle class="cls-1" cx="133.61" cy="171.48" r="0.09"/><circle class="cls-1" cx="132.26" cy="171.48" r="0.09"/><circle class="cls-1" cx="138.72" cy="167.3" r="0.09"/><circle class="cls-1" cx="137.11" cy="167.3" r="0.09"/><circle class="cls-1" cx="135.24" cy="167.3" r="0.09"/><circle class="cls-1" cx="133.41" cy="167.3" r="0.09"/><circle class="cls-1" cx="131.74" cy="167.31" r="0.09"/><path class="cls-1" d="M139.64,172.54s-2.32-5.5,0-10.56h6.49c2.32,5.06,0,10.57,0,10.57Z"/><rect class="cls-1" x="139.49" y="161.6" width="6.79" height="0.37" rx="0.19" transform="translate(285.93 323.43) rotate(179.95)"/><rect class="cls-1" x="139.5" y="172.54" width="6.79" height="0.37" rx="0.19" transform="translate(285.97 345.32) rotate(179.95)"/><path class="cls-1" d="M143.59,172.53s.68-6.89,0-10.56"/><path class="cls-1" d="M144.92,172.53s1.37-6.16,0-10.56"/><path class="cls-1" d="M142.2,172.53s-.7-6.89,0-10.56"/><path class="cls-1" d="M140.8,172.53s-1.38-6.15,0-10.56"/><path class="cls-1" d="M139.4,162.6h7a.15.15,0,0,1,.15.12l.18.71a.16.16,0,0,1-.16.2h-7.4a.17.17,0,0,1-.16-.22l.22-.7A.16.16,0,0,1,139.4,162.6Z"/><path class="cls-1" d="M146.37,172h-7a.17.17,0,0,1-.16-.12l-.17-.7a.16.16,0,0,1,.15-.21h7.41a.17.17,0,0,1,.16.22l-.22.7A.17.17,0,0,1,146.37,172Z"/><rect class="cls-1" x="138.41" y="166.72" width="8.91" height="1.06" rx="0.21" transform="translate(285.89 334.37) rotate(179.95)"/><circle class="cls-1" cx="145.93" cy="163.11" r="0.09"/><circle class="cls-1" cx="144.5" cy="163.12" r="0.09"/><circle class="cls-1" cx="142.89" cy="163.12" r="0.09"/><circle class="cls-1" cx="141.26" cy="163.12" r="0.09"/><circle class="cls-1" cx="139.91" cy="163.12" r="0.09"/><circle class="cls-1" cx="145.94" cy="171.47" r="0.09"/><circle class="cls-1" cx="144.51" cy="171.47" r="0.09"/><circle class="cls-1" cx="142.9" cy="171.47" r="0.09"/><circle class="cls-1" cx="141.27" cy="171.48" r="0.09"/><circle class="cls-1" cx="139.92" cy="171.48" r="0.09"/><circle class="cls-1" cx="146.38" cy="167.29" r="0.09"/><circle class="cls-1" cx="144.77" cy="167.29" r="0.09"/><circle class="cls-1" cx="142.9" cy="167.3" r="0.09"/><circle class="cls-1" cx="141.07" cy="167.3" r="0.09"/><circle class="cls-1" cx="139.4" cy="167.3" r="0.09"/><path class="cls-2" d="M120.22,4.49a22.9,22.9,0,0,0,8.18-.69c3.87-1.18,10.37-2.3,14.86-.57V13c-4.49-1.74-11-.61-14.86.57a23.17,23.17,0,0,1-8.18.69Z"/><path class="cls-2" d="M175,13.93a19.47,19.47,0,0,0,6.89-.57c3.25-1,8.73-1.95,12.5-.49v8.22c-3.78-1.46-9.25-.52-12.51.48a19.41,19.41,0,0,1-6.88.57Z"/><path class="cls-1" d="M154.57,50.63a87.79,87.79,0,0,1,11.37-2h0a94.25,94.25,0,0,1,18.49-.29,68.18,68.18,0,0,1,12.37,2.21l-7.72-25.46-26.21,0Z"/><path class="cls-3" d="M165.94,48.67h0a94.25,94.25,0,0,1,18.49-.29h0c-.56-10.18-5.12-23.24-5.12-23.24H169.14S165.45,39.41,165.94,48.67Z"/><rect class="cls-1" x="160.81" y="24.05" width="29.82" height="1.1" rx="0.36" transform="translate(351.47 49.02) rotate(179.95)"/><path class="cls-1" d="M97.3,49A73,73,0,0,1,111,45.77a83.62,83.62,0,0,1,18.38-.61,70.67,70.67,0,0,1,17.94,3.75l-9.93-30.74-30.72,0Z"/><path class="cls-3" d="M111,45.7l0,.07a83.62,83.62,0,0,1,18.38-.61s2.16-11.21-2.82-27H113.76C108.81,34,111,45.7,111,45.7Z"/><rect class="cls-1" x="105.31" y="17.09" width="32.58" height="1.1" rx="0.36" transform="translate(243.23 35.16) rotate(179.95)"/><rect class="cls-1" x="119.45" y="4.49" width="1.57" height="43.18" transform="translate(240.5 52.04) rotate(179.95)"/><rect class="cls-1" x="174.3" y="13.17" width="1.34" height="36.81" transform="translate(349.98 62.98) rotate(179.95)"/><polygon class="cls-4" points="69.26 152.4 60.3 139.12 8.27 131.67 11.64 144.63 26.18 150.78 51.78 154.45 69.26 152.4"/><path class="cls-1" d="M61.61,138.38a.83.83,0,0,1-1,.82L7.08,131.47a.8.8,0,0,1-.66-.59h0a.8.8,0,0,1,.89-1l53.59,7.69a.85.85,0,0,1,.71.82Z"/><path class="cls-1" d="M7.31,129.87l-3.55-4.39h-1l3.66,5A.79.79,0,0,1,7.31,129.87Z"/><polygon class="cls-5" points="3.76 125.48 4.85 124.62 4.85 121.42 1.69 121.38 1.7 124.5 2.73 125.48 3.76 125.48"/><line class="cls-5" x1="3.76" y1="125.48" x2="3.75" y2="121.41"/><line class="cls-5" x1="2.73" y1="125.48" x2="2.73" y2="121.41"/><path class="cls-1" d="M1.69,121.38H1.16a.16.16,0,0,1-.11-.28l.76-.77a.21.21,0,0,1,.12,0H4.78a.16.16,0,0,1,.11,0l.76.75a.16.16,0,0,1-.11.28Z"/><path class="cls-6" d="M142.6,99.61l0,39.36s7.17-1.19,17.47-1.84h0a173.09,173.09,0,0,1,29.76.52,86.32,86.32,0,0,1,20.81,4.74l-3.86-42.84Z"/><path class="cls-3" d="M160.1,137.13h0a173.09,173.09,0,0,1,29.76.52,102.12,102.12,0,0,0-6.46-38.08l-19.45,0C161.05,114.15,160.1,137.13,160.1,137.13Z"/><path class="cls-6" d="M78.63,150.85s9.71-4.27,28.77-5.41a177.91,177.91,0,0,1,28.95.77,236.13,236.13,0,0,1,27.4,4.56L160.69,106,82,106Z"/><path class="cls-6" d="M142.59,94.88a116.44,116.44,0,0,1,22.53-4.95,102.28,102.28,0,0,1,23.77-.27,70,70,0,0,1,20,5.16l-7.6-36.92-45.21,0Z"/><path class="cls-6" d="M83,98.57a90.91,90.91,0,0,1,21.32-5.4,148.08,148.08,0,0,1,34.31-.26,157.3,157.3,0,0,1,20.57,3.36l-9.67-40.64-54.64,0Z"/><path class="cls-3" d="M104.32,93.17a148.08,148.08,0,0,1,34.31-.26C138.3,67.44,132,55.64,132,55.64l-19.88,0a5.83,5.83,0,0,0-.32.72S105.42,70.11,104.32,93.17Z"/><rect class="cls-1" x="119.71" y="48.1" width="1.19" height="52.1" transform="translate(240.69 148.2) rotate(179.95)"/><rect class="cls-1" x="174.06" y="50.71" width="1.19" height="47.15" transform="translate(349.39 148.39) rotate(179.95)"/><path class="cls-3" d="M107.4,145.44a177.91,177.91,0,0,1,28.95.77s6.57-21.54,0-40.22l-28.91,0C101.09,124,106.94,143.91,107.4,145.44Z"/><rect class="cls-1" x="54.9" y="49.22" width="1.33" height="40.97" transform="translate(111.19 139.35) rotate(179.95)"/><rect class="cls-1" x="52.93" y="91.54" width="1.33" height="45.63" transform="translate(107.29 228.67) rotate(179.95)"/><path class="cls-4" d="M30,173.07c-.39,3,.67,5.17,1.45,7.28a5.53,5.53,0,0,1-1.05,5.77c-1.44,1.78-2.07,6.14-2.07,6.14a20.33,20.33,0,0,0,4.63,16l148.73-.14c8.3-3.14,21.57-18.65,26.36-25.86s31.35-15.71,36.52-16.64a7.34,7.34,0,0,0,6.08-5.35l-39.3,7.22s-10.41,1-12.66-4.13a39.21,39.21,0,0,1-.94-6.55l-29,0s-.52,11.78-16.53,11.8-45.41-.83-45.41-.83l-6.8-12s-76.73-8.27-88.39-11.22c0,0,3.69,11.1,4.87,16.45h0l3,4.13,10,3.8.49,4.06"/><path class="cls-7" d="M33.39,176.88s2,24.08,13.88,31.41l36.6,0Z"/><path class="cls-1" d="M74.93,206.71q-9.45-1.44-19.32-3.48"/><path class="cls-1" d="M206.9,179.32s-2.68,3.53-5.7,4.93-9,3.32-9,3.32-45.86,8-70.27,5-76.71-4-87.52-14.05a23.49,23.49,0,0,0-12.47-10.64v-1.69l27.85,8,40.05,6.05,40.74,2.07,35.26-.92,27.07-3Z"/><path class="cls-8" d="M215.62,173.87l11.46-3.79,4-4.1s-45.33,10.75-101.79,10.81-93.32-14.31-93.32-14.31v5.19l2.3,3.58,83.25,11.5,45.42-1.52,36.73-3.37Z"/><path class="cls-9" d="M17.7,166.43l-1.18-5.35s73.31,32.75,199.1,12.79c0,0-7,2.5-8.72,5.45,0,0-5.07.86-9.42,1.55-4.73.75-47.86,4.44-76.84,3.46S56.21,179.91,17.7,166.43Z"/><rect class="cls-1" x="168.4" y="155.92" width="30.12" height="1.96" transform="translate(367.07 313.63) rotate(179.95)"/><circle class="cls-9" cx="152.64" cy="187.53" r="1.71"/><circle class="cls-9" cx="139.07" cy="187.83" r="1.71"/><circle class="cls-9" cx="127.17" cy="187.55" r="1.71"/><circle class="cls-9" cx="72.42" cy="182.86" r="1.71"/><circle class="cls-9" cx="61.9" cy="181.16" r="1.71"/><circle class="cls-9" cx="49.51" cy="178.55" r="1.71"/><path class="cls-1" d="M92.64,178.45l1.07,7.93a.55.55,0,0,1-.55.62h0a.55.55,0,0,1-.55-.47l-1.09-8.08Z"/><path class="cls-1" d="M93.69,171.62l-1,7.07H91.49l1.08-7.21a.49.49,0,0,1,.48-.42h.16A.48.48,0,0,1,93.69,171.62Z"/><path class="cls-1" d="M98,171.62l-1,7.07H95.82l1.08-7.22a.49.49,0,0,1,.48-.41h.16A.48.48,0,0,1,98,171.62Z"/><path class="cls-1" d="M101.79,171.62l-1.05,7.07H99.59l1.08-7.22a.48.48,0,0,1,.48-.41h.16A.49.49,0,0,1,101.79,171.62Z"/><path class="cls-1" d="M106,171.61l-1.06,7.07h-1.14l1.07-7.21a.5.5,0,0,1,.49-.42h.15A.5.5,0,0,1,106,171.61Z"/><path class="cls-1" d="M109.49,171.59l-.74,7.09h-1.14l.74-7.19a.5.5,0,0,1,.49-.44H109A.49.49,0,0,1,109.49,171.59Z"/><path class="cls-1" d="M113.36,171.52l.24,7.15h-1.14l-.24-7.12a.49.49,0,0,1,.48-.51h.17A.49.49,0,0,1,113.36,171.52Z"/><path class="cls-1" d="M116.54,171.52l.08,7.15h-1.14l-.08-7.14a.48.48,0,0,1,.49-.49h.17A.49.49,0,0,1,116.54,171.52Z"/><path class="cls-1" d="M120.08,171.52l.08,7.15H119l-.08-7.14a.49.49,0,0,1,.49-.49h.17A.48.48,0,0,1,120.08,171.52Z"/><path class="cls-1" d="M97,178.44l.58,8A.55.55,0,0,1,97,187h0a.55.55,0,0,1-.55-.51l-.59-8.05Z"/><path class="cls-1" d="M100.74,178.44l.58,8a.55.55,0,0,1-.55.6h0a.57.57,0,0,1-.56-.52l-.59-8Z"/><path class="cls-1" d="M104.89,178.43l-.06,8a.55.55,0,0,1-.55.54h0a.56.56,0,0,1-.56-.55l.07-8Z"/><path class="cls-1" d="M108.75,178.43l-.88,8.07a.55.55,0,0,1-.55.49h0a.55.55,0,0,1-.55-.61l.88-7.95Z"/><path class="cls-1" d="M113.59,178.43l-2.23,8.15a.55.55,0,0,1-.53.41h0a.55.55,0,0,1-.53-.7l2.15-7.86Z"/><path class="cls-1" d="M116.62,178.42l-1.72,8.13a.55.55,0,0,1-.54.43h0a.55.55,0,0,1-.54-.66l1.68-7.9Z"/><path class="cls-1" d="M120.16,178.42l-2.06,8.14a.54.54,0,0,1-.53.42h0a.55.55,0,0,1-.53-.69l2-7.87Z"/><path class="cls-1" d="M113.31,100.21h9.62a.83.83,0,0,1,.83.83v.44a0,0,0,0,1,0,0H112.48a0,0,0,0,1,0,0V101A.83.83,0,0,1,113.31,100.21Z" transform="translate(236.33 201.57) rotate(179.95)"/><polygon class="cls-10" points="112.48 100.21 110.7 94.22 125.53 94.2 123.75 100.2 112.48 100.21"/><line class="cls-1" x1="116.97" y1="100.21" x2="115.88" y2="94.21"/><line class="cls-1" x1="119.85" y1="100.21" x2="120.93" y2="94.21"/><line class="cls-1" x1="124.54" y1="97.2" x2="111.69" y2="97.21"/><path class="cls-1" d="M49.16,90.19h9.62a.83.83,0,0,1,.83.83v.44a0,0,0,0,1,0,0H48.33a0,0,0,0,1,0,0V91a.83.83,0,0,1,.83-.83Z" transform="translate(108.03 181.6) rotate(179.95)"/><polygon class="cls-10" points="48.33 90.2 46.55 84.2 61.38 84.19 59.6 90.19 48.33 90.2"/><line class="cls-1" x1="52.82" y1="90.19" x2="51.73" y2="84.19"/><line class="cls-1" x1="55.71" y1="90.19" x2="56.78" y2="84.19"/><line class="cls-1" x1="60.39" y1="87.19" x2="47.55" y2="87.2"/><path class="cls-1" d="M170,50h9.62a.83.83,0,0,1,.83.83v.44a0,0,0,0,1,0,0H169.17a0,0,0,0,1,0,0v-.44A.83.83,0,0,1,170,50Z" transform="translate(349.65 101.06) rotate(179.95)"/><polygon class="cls-10" points="169.16 49.98 167.39 43.99 182.21 43.97 180.44 49.97 169.16 49.98"/><line class="cls-1" x1="173.65" y1="49.98" x2="172.57" y2="43.98"/><line class="cls-1" x1="176.54" y1="49.98" x2="177.61" y2="43.98"/><line class="cls-1" x1="181.22" y1="46.97" x2="168.38" y2="46.99"/><path class="cls-1" d="M115.37,47.66H125a.83.83,0,0,1,.83.83v.44a0,0,0,0,1,0,0H114.55a0,0,0,0,1,0,0v-.44A.83.83,0,0,1,115.37,47.66Z" transform="translate(240.41 96.48) rotate(179.95)"/><polygon class="cls-10" points="114.55 47.67 112.77 41.67 127.59 41.66 125.82 47.66 114.55 47.67"/><line class="cls-1" x1="119.03" y1="47.67" x2="117.95" y2="41.67"/><line class="cls-1" x1="121.92" y1="47.66" x2="122.99" y2="41.66"/><line class="cls-1" x1="126.6" y1="44.66" x2="113.76" y2="44.67"/><line class="cls-1" x1="119.55" y1="172.57" x2="120.93" y2="101.77"/><line class="cls-1" x1="101.31" y1="171.05" x2="115.28" y2="101.48"/><line class="cls-1" x1="105.46" y1="171.05" x2="116.43" y2="101.48"/><line class="cls-1" x1="109" y1="171.05" x2="117.63" y2="101.47"/><line class="cls-1" x1="112.7" y1="171.04" x2="119.02" y2="101.47"/><line class="cls-1" x1="115.89" y1="171.04" x2="119.86" y2="101.47"/><line class="cls-1" x1="119.8" y1="160.99" x2="103.56" y2="159.86"/><line class="cls-1" x1="119.86" y1="156.84" x2="104.35" y2="155.9"/><line class="cls-1" x1="119.94" y1="152.59" x2="105.16" y2="151.9"/><line class="cls-1" x1="120.02" y1="148.57" x2="105.97" y2="147.83"/><line class="cls-1" x1="120.1" y1="144.53" x2="106.73" y2="144.08"/><line class="cls-1" x1="120.17" y1="140.8" x2="107.5" y2="140.2"/><line class="cls-1" x1="120.25" y1="136.76" x2="108.29" y2="136.27"/><line class="cls-1" x1="120.33" y1="132.73" x2="109.1" y2="132.24"/><line class="cls-1" x1="120.41" y1="128.76" x2="109.88" y2="128.36"/><line class="cls-1" x1="120.48" y1="125.01" x2="110.67" y2="124.44"/><line class="cls-1" x1="120.56" y1="120.92" x2="111.45" y2="120.55"/><line class="cls-1" x1="120.64" y1="117" x2="112.22" y2="116.72"/><line class="cls-1" x1="120.72" y1="112.97" x2="113.05" y2="112.6"/><line class="cls-1" x1="120.79" y1="109" x2="113.83" y2="108.72"/><line class="cls-1" x1="120.94" y1="104.91" x2="114.69" y2="104.77"/><path class="cls-1" d="M116.76,91.39h6.94a.66.66,0,0,1,.66.66v.35a0,0,0,0,1,0,0h-8.26a0,0,0,0,1,0,0v-.35A.66.66,0,0,1,116.76,91.39Z" transform="translate(240.54 183.69) rotate(179.95)"/><line class="cls-1" x1="124.36" y1="91.39" x2="120.88" y2="48.93"/><line class="cls-1" x1="116.09" y1="91.4" x2="118.97" y2="48.93"/><line class="cls-1" x1="124.11" y1="88.35" x2="116.3" y2="88.36"/><line class="cls-1" x1="123.81" y1="84.68" x2="116.55" y2="84.69"/><line class="cls-1" x1="123.48" y1="80.66" x2="116.82" y2="80.67"/><line class="cls-1" x1="123.17" y1="76.93" x2="117.07" y2="76.93"/><line class="cls-1" x1="122.82" y1="72.62" x2="117.37" y2="72.63"/><line class="cls-1" x1="122.54" y1="69.13" x2="117.6" y2="69.13"/><line class="cls-1" x1="122.19" y1="64.9" x2="117.89" y2="64.91"/><line class="cls-1" x1="121.91" y1="61.45" x2="118.12" y2="61.45"/><line class="cls-1" x1="121.59" y1="57.51" x2="118.4" y2="57.51"/><line class="cls-1" x1="121.27" y1="53.68" x2="118.65" y2="53.68"/><rect class="cls-1" x="93.02" y="53.46" width="58.41" height="2.19" rx="0.44" transform="translate(244.5 109) rotate(179.95)"/><rect class="cls-1" x="139.63" y="97.39" width="69.24" height="2.19" rx="0.44" transform="translate(348.6 196.8) rotate(179.95)"/><rect class="cls-1" x="154.01" y="55.73" width="50.69" height="2.19" rx="0.44" transform="translate(358.76 113.48) rotate(179.95)"/><rect class="cls-1" x="78.59" y="103.81" width="88.81" height="2.19" rx="0.44" transform="translate(246.09 209.69) rotate(179.95)"/><rect class="cls-1" x="176.67" y="166.62" width="1.62" height="8.7" rx="0.53" transform="translate(355.12 341.77) rotate(179.95)"/><rect class="cls-1" x="172.93" y="168.17" width="1.62" height="8.7" rx="0.53" transform="translate(347.63 344.88) rotate(179.95)"/><rect class="cls-1" x="169.34" y="169.26" width="1.62" height="8.7" rx="0.53" transform="translate(340.46 347.06) rotate(179.95)"/><circle class="cls-1" cx="54.97" cy="142.4" r="1.37"/><circle class="cls-1" cx="51.13" cy="142.41" r="1.37"/><circle class="cls-1" cx="46.39" cy="141.91" r="1.37"/><circle class="cls-1" cx="41.67" cy="141.23" r="1.37"/><rect class="cls-1" x="165.74" y="168.35" width="1.62" height="8.7" rx="0.53" transform="translate(333.27 345.24) rotate(179.95)"/><rect class="cls-1" x="162.16" y="169.67" width="1.62" height="8.7" rx="0.53" transform="translate(326.1 347.9) rotate(179.95)"/><rect class="cls-1" x="54.15" y="134.2" width="1.62" height="8.7" rx="0.53" transform="translate(110.06 277.05) rotate(179.95)"/><rect class="cls-1" x="50.51" y="134.2" width="1.62" height="8.7" rx="0.53" transform="translate(95.72 279.48) rotate(-177.17)"/><rect class="cls-1" x="46.06" y="133.58" width="1.62" height="8.7" rx="0.53" transform="translate(76.75 280.51) rotate(-173.07)"/><rect class="cls-1" x="41.33" y="133" width="1.62" height="8.7" rx="0.53" transform="translate(67.39 278.79) rotate(-173.07)"/><path class="cls-1" d="M250.93,157.53l-48.24,9.12-1.82-.87L250.65,156a.75.75,0,0,1,.9.74h0A.77.77,0,0,1,250.93,157.53Z"/><line class="cls-1" x1="249.52" y1="157.79" x2="249.52" y2="160.52"/><line class="cls-1" x1="246.08" y1="158.36" x2="246.08" y2="161.09"/><line class="cls-1" x1="241.78" y1="159.32" x2="241.78" y2="162.04"/><line class="cls-1" x1="238.33" y1="159.96" x2="238.33" y2="162.69"/><line class="cls-1" x1="234.91" y1="160.69" x2="234.91" y2="163.41"/><line class="cls-1" x1="231.32" y1="161.33" x2="231.32" y2="164.06"/><line class="cls-1" x1="227.34" y1="162.06" x2="227.34" y2="164.78"/><line class="cls-1" x1="223.46" y1="162.7" x2="223.46" y2="165.43"/><line class="cls-1" x1="219.9" y1="163.43" x2="219.91" y2="166.15"/><line class="cls-1" x1="216.45" y1="164.07" x2="216.45" y2="166.8"/><line class="cls-1" x1="212.5" y1="164.8" x2="212.51" y2="167.52"/><line class="cls-1" x1="208.87" y1="165.44" x2="208.88" y2="167.64"/><line class="cls-1" x1="177.48" y1="166.62" x2="177.62" y2="99.11"/><line class="cls-1" x1="170.04" y1="169.23" x2="173.99" y2="99.58"/><line class="cls-1" x1="173.73" y1="168.17" x2="175.7" y2="99.58"/><line class="cls-1" x1="177.46" y1="154.53" x2="170.94" y2="154.53"/><line class="cls-1" x1="177.46" y1="150.22" x2="171.11" y2="150.22"/><line class="cls-1" x1="177.52" y1="146.73" x2="171.31" y2="146.74"/><line class="cls-1" x1="177.45" y1="142.42" x2="171.56" y2="142.43"/><line class="cls-1" x1="177.45" y1="138.93" x2="171.75" y2="138.94"/><line class="cls-1" x1="177.55" y1="134.4" x2="172.01" y2="134.63"/><line class="cls-1" x1="177.65" y1="130.25" x2="172.25" y2="130.26"/><line class="cls-1" x1="177.44" y1="126.59" x2="172.45" y2="126.59"/><line class="cls-1" x1="177.53" y1="122.57" x2="172.68" y2="122.58"/><line class="cls-1" x1="177.58" y1="119.03" x2="172.88" y2="119.03"/><line class="cls-1" x1="177.64" y1="114.89" x2="173.12" y2="114.9"/><line class="cls-1" x1="177.57" y1="110.82" x2="173.35" y2="110.82"/><line class="cls-1" x1="177.57" y1="106.74" x2="173.67" y2="106.75"/><line class="cls-1" x1="162.96" y1="169.67" x2="170.44" y2="99.12"/><line class="cls-1" x1="166.55" y1="168.35" x2="172.43" y2="99.58"/><line class="cls-1" x1="97.54" y1="171.06" x2="118.64" y2="49.07"/><line class="cls-1" x1="115.45" y1="49.07" x2="93.21" y2="171.06"/><line class="cls-1" x1="54.96" y1="134.2" x2="55.71" y2="91.46"/><line class="cls-1" x1="47.4" y1="133.61" x2="51.27" y2="91.46"/><line class="cls-1" x1="51.53" y1="134.21" x2="53.32" y2="91.46"/><line class="cls-1" x1="55.04" y1="129.53" x2="47.79" y2="129.54"/><line class="cls-1" x1="55.11" y1="125.32" x2="48.13" y2="125.33"/><line class="cls-1" x1="55.11" y1="121.4" x2="48.52" y2="121.4"/><line class="cls-1" x1="55.34" y1="117.59" x2="48.87" y2="117.6"/><line class="cls-1" x1="55.1" y1="114.65" x2="49.33" y2="114.66"/><line class="cls-1" x1="55.33" y1="110.32" x2="49.53" y2="110.33"/><line class="cls-1" x1="55.44" y1="106.57" x2="49.88" y2="106.58"/><line class="cls-1" x1="55.44" y1="103.06" x2="50.2" y2="103.06"/><line class="cls-1" x1="55.44" y1="99.89" x2="50.49" y2="99.89"/><line class="cls-1" x1="55.62" y1="96.71" x2="50.76" y2="96.72"/><line class="cls-1" x1="42.67" y1="133.03" x2="49.6" y2="91.46"/><polygon class="cls-1" points="200.87 165.78 281.87 141.32 282.17 141.91 221.94 161.66 200.87 165.78"/><path class="cls-1" d="M77.8,64.57l-43-12.87a.47.47,0,0,0-.6.45v.48a.47.47,0,0,0,.33.45l43,12.86a.46.46,0,0,0,.59-.44V65A.44.44,0,0,0,77.8,64.57Z"/><path class="cls-6" d="M20.71,73.15a59.41,59.41,0,0,1,37.83,8.63A59.5,59.5,0,0,1,74.41,95.72c7.67-13.24,3.13-29.78,3.13-29.78L65.07,62.21,50.45,57.84,34.54,53.08C33.78,66.21,20.71,73.15,20.71,73.15Z"/><path class="cls-1" d="M170,97.85h9.62a.83.83,0,0,1,.83.83v.44a0,0,0,0,1,0,0H169.17a0,0,0,0,1,0,0v-.44A.83.83,0,0,1,170,97.85Z" transform="translate(349.71 196.8) rotate(179.95)"/><polygon class="cls-10" points="169.17 97.86 167.39 91.86 182.22 91.84 180.44 97.85 169.17 97.86"/><line class="cls-1" x1="173.66" y1="97.85" x2="172.57" y2="91.85"/><line class="cls-1" x1="176.54" y1="97.85" x2="177.62" y2="91.85"/><line class="cls-1" x1="181.23" y1="94.85" x2="168.38" y2="94.86"/><rect class="cls-1" x="132.03" y="103.16" width="0.77" height="3.63" transform="translate(264.92 209.82) rotate(179.95)"/><rect class="cls-1" x="153.42" y="103.14" width="0.77" height="3.63" transform="translate(307.71 209.76) rotate(179.95)"/><rect class="cls-1" x="88.75" y="103.2" width="0.77" height="3.63" transform="translate(178.38 209.94) rotate(179.95)"/><rect class="cls-1" x="110.15" y="103.18" width="0.77" height="3.63" transform="translate(221.16 209.88) rotate(179.95)"/><rect class="cls-1" x="97.13" y="52.77" width="0.77" height="3.63" transform="translate(195.09 109.07) rotate(179.95)"/><rect class="cls-1" x="111.77" y="52.75" width="0.77" height="3.63" transform="translate(224.37 109.03) rotate(179.95)"/><rect class="cls-1" x="128.02" y="52.74" width="0.77" height="3.63" transform="translate(256.86 108.98) rotate(179.95)"/><rect class="cls-1" x="142.66" y="52.72" width="0.77" height="3.63" transform="translate(286.14 108.94) rotate(179.95)"/><path class="cls-1" d="M118.77,1h2.82a0,0,0,0,1,0,0V3.57a.92.92,0,0,1-.92.92h-1a.92.92,0,0,1-.92-.92V1A0,0,0,0,1,118.77,1Z" transform="translate(240.37 5.37) rotate(179.95)"/><path class="cls-1" d="M173.55,9.68h2.82a0,0,0,0,1,0,0v2.57a.92.92,0,0,1-.92.92h-1a.92.92,0,0,1-.92-.92V9.68A0,0,0,0,1,173.55,9.68Z" transform="translate(349.92 22.68) rotate(179.95)"/><path class="cls-1" d="M100,155.85l.64,1.12h0s-46.77-4.12-72.56-8.15L28,147.3C54.18,150.91,100,155.85,100,155.85Z"/><polygon class="cls-8" points="30.44 154.8 30.44 153.31 8.58 148.84 10.66 150.81 30.44 154.8"/><path class="cls-1" d="M29.84,153.18v-4.56A2.67,2.67,0,0,0,27.66,146l-16.07-3a2.66,2.66,0,0,0-3.15,2.75l.14,3.1Z"/><line class="cls-1" x1="13.47" y1="143.34" x2="13.47" y2="149.84"/><line class="cls-1" x1="18.79" y1="144.41" x2="18.8" y2="150.91"/><line class="cls-1" x1="24.02" y1="145.58" x2="24.03" y2="152.07"/><line class="cls-10" x1="198.72" y1="163.4" x2="165.74" y2="163.75"/><path class="cls-10" d="M104.27,163.65s-42.19-3.09-73.83-8.85"/><line class="cls-1" x1="230.44" y1="138.88" x2="208.39" y2="99.55"/><line class="cls-1" x1="230.44" y1="139.75" x2="229.59" y2="157.11"/><line class="cls-1" x1="231.08" y1="139.45" x2="243.08" y2="153.04"/><line class="cls-1" x1="230.75" y1="139.69" x2="234.17" y2="155.52"/><line class="cls-1" x1="230.9" y1="139.61" x2="238.56" y2="154.4"/><circle class="cls-1" cx="230.44" cy="138.88" r="0.86"/><line class="cls-1" x1="204.21" y1="57.9" x2="249.49" y2="126.52"/><line class="cls-1" x1="268.12" y1="145.47" x2="249.49" y2="126.52"/><line class="cls-1" x1="249.49" y1="126.52" x2="253.68" y2="149.83"/><circle class="cls-1" cx="249.49" cy="126.52" r="0.86"/><rect class="cls-1" x="242.74" y="152.65" width="0.83" height="2.19" transform="translate(521.89 224.95) rotate(162.03)"/><rect class="cls-1" x="238.43" y="154.2" width="0.83" height="2.19" transform="translate(513.96 229.3) rotate(162.03)"/><rect class="cls-1" x="234.1" y="155.46" width="0.83" height="2.19" transform="translate(505.9 233.09) rotate(162.03)"/><rect class="cls-1" x="253.52" y="149.31" width="0.83" height="2.19" transform="translate(541.89 215.1) rotate(162.03)"/><rect class="cls-1" x="267.7" y="144.86" width="0.83" height="2.19" transform="translate(568.19 202.04) rotate(162.03)"/><rect class="cls-1" x="229.3" y="157.06" width="0.83" height="2.19" transform="translate(481.99 277.09) rotate(170.69)"/><path class="cls-3" d="M43.29,75a60.08,60.08,0,0,1,15.25,6.74s6.61-6.68,6.53-19.57L50.45,57.84C51.09,66.13,43.29,75,43.29,75Z"/><path class="cls-3" d="M165.12,89.93a102.28,102.28,0,0,1,23.77-.27h0c-.28-19.58-3.51-31.75-3.51-31.75l-19.47,0C162,81.28,165.12,89.93,165.12,89.93Z"/><path class="cls-8" d="M65.31,206.27C42,202.49,34.36,178.5,34.36,178.5,139,204.16,201.2,184.25,201.2,184.25a41,41,0,0,1-30.39,21.92C148.32,209.83,65.31,206.27,65.31,206.27Z"/><path class="cls-10" d="M199.21,187.79S127.13,206.65,36,182.37"/><path class="cls-10" d="M196,192.26c-14.8,3.23-78.92,14.88-157.75-5.57"/><path class="cls-10" d="M189.82,198C168.09,202,111,209.25,42,192.16"/><path class="cls-10" d="M179,204c-25.94,3.66-74.47,7-131.73-6.34"/><line class="cls-10" x1="223.51" y1="208.12" x2="238.9" y2="208.11"/><line class="cls-10" x1="31.22" y1="222.16" x2="78.28" y2="222.12"/><line class="cls-10" x1="143.46" y1="218.22" x2="166.6" y2="218.19"/></g></g></svg>