<svg xmlns="http://www.w3.org/2000/svg" viewBox="0 0 114.48 114.48"><defs><style>.cls-1{fill:#6aa2b8;}.cls-2,.cls-7{fill:none;stroke-miterlimit:10;}.cls-2{stroke:#cadde5;}.cls-3{fill:#00698a;}.cls-4{fill:#fff;}.cls-5{fill:#a11f34;}.cls-6{fill:#b7b7b7;}.cls-7{stroke:#292b30;stroke-linecap:round;stroke-width:2px;}</style></defs><title>Asset 15</title><g id="Layer_2" data-name="Layer 2"><g id="Extra_icons" data-name="Extra icons"><circle class="cls-1" cx="57.24" cy="57.24" r="57.24"/><circle class="cls-2" cx="57.63" cy="56.38" r="41.4"/><circle class="cls-3" cx="57.63" cy="56.38" r="32.57"/><circle class="cls-1" cx="57.63" cy="56.38" r="23.73"/><circle class="cls-4" cx="57.63" cy="56.38" r="14.9"/><circle class="cls-5" cx="57.63" cy="56.38" r="6.07"/><path class="cls-6" d="M93.36,14.26l.74,4.44a1.89,1.89,0,0,0,1.55,1.54l4.44.74a1.88,1.88,0,0,1,1,3.18L88.69,36.59a1.9,1.9,0,0,1-1.47.54l-7.68-.59a1.88,1.88,0,0,1-1.73-1.73l-.59-7.68a1.87,1.87,0,0,1,.54-1.47L90.18,13.24A1.88,1.88,0,0,1,93.36,14.26Z"/><line class="cls-7" x1="58.3" y1="56.09" x2="94.7" y2="19.64"/></g></g></svg>