<svg xmlns="http://www.w3.org/2000/svg" viewBox="0 0 890.16 694.81"><defs><style>.cls-1{fill:#4b4e52;}.cls-2,.cls-7{fill:#323437;}.cls-2{stroke:#64686d;}.cls-14,.cls-16,.cls-2,.cls-5{stroke-miterlimit:10;}.cls-2,.cls-5{stroke-width:0.82px;}.cls-3{fill:#f4e4e7;}.cls-4{fill:#848587;}.cls-5{fill:#af1b38;stroke:#a31f34;}.cls-6,.cls-9{fill:#7a1727;}.cls-8{fill:#a31f34;}.cls-11,.cls-9{opacity:0.48;}.cls-10{fill:#fdfafa;}.cls-11{fill:#3d0c14;}.cls-12{fill:#c87985;}.cls-13{fill:#deafb6;}.cls-14,.cls-16{fill:none;}.cls-14{stroke:#a5a5a5;stroke-width:4.93px;}.cls-15{fill:#5a5d60;}.cls-16{stroke:#3e4042;stroke-width:2.46px;}</style></defs><g id="Layer_2" data-name="Layer 2"><g id="Back_of_car" data-name="Back of car"><polygon class="cls-1" points="87.43 234.76 43.46 239.31 43.46 298.44 87.43 234.76"/><rect class="cls-2" x="101.08" y="550.14" width="699" height="53.07"/><rect class="cls-2" x="48.99" y="412.29" width="90.08" height="197.9" rx="9.86"/><rect class="cls-1" x="65.37" y="496.91" width="90.08" height="197.9" rx="9.86"/><rect class="cls-2" x="787.11" y="412.29" width="90.08" height="197.9" rx="9.86" transform="translate(1664.29 1022.49) rotate(-180)"/><rect class="cls-1" x="770.73" y="496.91" width="90.08" height="197.9" rx="9.86" transform="translate(1631.54 1191.72) rotate(-180)"/><polygon class="cls-2" points="87.43 454.62 38.91 457.65 32.85 354.54 87.43 354.54 87.43 454.62"/><polygon class="cls-2" points="884.99 448.55 836.47 451.58 830.4 348.48 884.99 348.48 884.99 448.55"/><rect class="cls-3" x="122.31" y="404.58" width="43.97" height="48.52"/><circle class="cls-1" cx="176.13" cy="545.59" r="22.74"/><circle class="cls-4" cx="30.07" cy="231.3" r="30.07"/><rect class="cls-2" x="782.42" y="411.4" width="90.08" height="197.9" rx="9.86" transform="translate(1654.92 1020.7) rotate(-180)"/><rect class="cls-1" x="766.04" y="496.02" width="90.08" height="197.9" rx="9.86" transform="translate(1622.16 1189.93) rotate(-180)"/><polygon class="cls-2" points="834.06 453.72 882.58 456.75 888.64 353.65 834.06 353.65 834.06 453.72"/><rect class="cls-3" x="755.21" y="403.68" width="43.97" height="48.52" transform="translate(1554.39 855.89) rotate(-180)"/><path class="cls-1" d="M755.21,71.62s63.68,144,62.17,153.15,21.22,0,21.22,0L778,54.94Z"/><path class="cls-5" d="M295.12,488.6H846.19a0,0,0,0,1,0,0v77.33a0,0,0,0,1,0,0H253.33a0,0,0,0,1,0,0V530.38a41.79,41.79,0,0,1,41.79-41.79Z" transform="translate(1099.51 1054.52) rotate(-180)"/><path class="cls-6" d="M341.91,452.2H873.48a0,0,0,0,1,0,0v60.65a0,0,0,0,1,0,0H321.56a0,0,0,0,1,0,0v-40.3a20.35,20.35,0,0,1,20.35-20.35Z" transform="translate(1195.04 965.06) rotate(-180)"/><path class="cls-7" d="M813.7,218.86c-27.09-1.49-72.14-3.19-72.14-3.19l33.36,42.45L823.44,249,826.93,238A14.71,14.71,0,0,0,813.7,218.86Z"/><path class="cls-6" d="M778,42.81s63.69,148.6,56.11,177.41c0,0-62.17-168.31-71.27-168.31s-1.51-13.64-1.51-13.64Z"/><path class="cls-6" d="M771.89,59.49c-7.58,4.55,3,147.08,24.26,162.24l-59.14-3L761.28,53.43Z"/><path class="cls-8" d="M840.12,224.77s28.81,65.2,39.42,63.68,9.1,77.33,9.1,77.33S862.86,333.94,865.9,437l1.51,10.62-172.85,1.51,4.55-57.62S737,221.73,747.63,221.73s31.84,25.78,44,24.26,37.91-21.22,37.91-21.22Z"/><path class="cls-9" d="M720.34,317.26s34.87-3,40.94,21.23,21.22,86.42,21.22,86.42l39.43,22.75H696.08S697.59,333.94,720.34,317.26Z"/><rect class="cls-6" x="271.52" y="365.78" width="394.23" height="165.27" transform="translate(937.27 896.83) rotate(-180)"/><rect class="cls-10" x="776.24" y="405.56" width="21.42" height="46.64" transform="translate(1573.91 857.77) rotate(-180)"/><path class="cls-8" d="M661.69,441.59h222.4a0,0,0,0,1,0,0V470.4a0,0,0,0,1,0,0h-238a0,0,0,0,1,0,0V457.16A15.57,15.57,0,0,1,661.69,441.59Z" transform="translate(1530.21 911.99) rotate(180)"/><path class="cls-5" d="M750.66,224.77s-218.34-97-582.24-4.55L220,399.14H699.11Z"/><path class="cls-1" d="M404.42,56.91H517.7a0,0,0,0,1,0,0V84.31a8.09,8.09,0,0,1-8.09,8.09H412.51a8.09,8.09,0,0,1-8.09-8.09V56.91a0,0,0,0,1,0,0Z"/><rect class="cls-11" x="326.87" y="430.22" width="260.8" height="65.2" transform="translate(914.53 925.64) rotate(-180)"/><rect class="cls-12" x="703.66" y="405.2" width="131.91" height="47" transform="translate(1539.23 857.41) rotate(-180)"/><rect class="cls-13" x="776.44" y="405.2" width="60.65" height="47" transform="translate(1613.53 857.41) rotate(-180)"/><path class="cls-7" d="M703.66,79.21s-363.91-34.88-514,10.61L179,42.81,321.56,24.62l342.67,9.1,65.2,15.16Z"/><rect class="cls-7" x="705.17" y="484.05" width="184.98" height="15.16" rx="4.1" transform="translate(1595.33 983.26) rotate(180)"/><path class="cls-8" d="M138.82,49.44C162.92,52.47,165,225.9,165,225.9s113.48-35.47,292.44-35.5,292.43,35.5,292.43,35.5,3.39-174.37,27.49-177.41c0,0-16.24-42.45-135.14-45.48L457.4,0,272.62,3C153.72,6,138.82,49.44,138.82,49.44Zm70.37,29.31c6.29-12,22.1-15.64,36.48-17.35l2.73-.31c135.18-14.23,272-14,407.31-1.2,16.78,1.58,41.67,2.73,48.92,19.19,8.06,18.3.37,52.72-2.5,71.77-1.19,7.87-2.83,16.06-8,22.32-11.31,13.58-33.18,12.26-51.37,10a1497.25,1497.25,0,0,0-371.89,0c-18.68,2.35-41.44,3.5-52.32-11-5.13-6.81-6.12-15.55-6.95-23.86q-2.31-23.1-4.61-46.19C206.16,94.23,205.46,85.87,209.19,78.75Z"/><path class="cls-14" d="M245.24,59.52l2.74-.31C383.43,45,520.5,45.22,656.12,58c16.81,1.58,41.75,2.73,49,19.19,8.08,18.3.36,52.72-2.51,71.77-1.19,7.87-2.84,16.06-8.06,22.32-11.33,13.58-33.24,12.26-51.47,10a1502.87,1502.87,0,0,0-372.65,0c-18.72,2.34-41.52,3.5-52.43-11-5.14-6.81-6.13-15.55-7-23.86l-4.62-46.19c-.79-7.9-1.49-16.27,2.24-23.38C215,64.85,230.82,61.22,245.24,59.52Z"/><circle class="cls-1" cx="172.33" cy="545.59" r="22.74"/><path class="cls-1" d="M166.28,72.52s-63.68,144-62.17,153.14-21.23,0-21.23,0L143.54,55.84Z"/><path class="cls-5" d="M75.3,489.49H668.16a0,0,0,0,1,0,0v77.33a0,0,0,0,1,0,0H117.09A41.79,41.79,0,0,1,75.3,525V489.49a0,0,0,0,1,0,0Z"/><rect class="cls-6" x="134.44" y="525.88" width="81.88" height="40.94" rx="9.86"/><path class="cls-6" d="M48,453.1H599.93a0,0,0,0,1,0,0v60.65a0,0,0,0,1,0,0H68.37A20.35,20.35,0,0,1,48,493.4V453.1A0,0,0,0,1,48,453.1Z"/><path class="cls-7" d="M107.79,219.75c27.09-1.49,72.14-3.19,72.14-3.19L146.57,259l-48.52-9.1-3.49-11A14.71,14.71,0,0,1,107.79,219.75Z"/><path class="cls-6" d="M143.54,43.71S79.85,192.3,87.43,221.11c0,0,62.17-168.3,71.27-168.3s1.51-13.65,1.51-13.65Z"/><path class="cls-6" d="M149.6,60.39c7.58,4.55-3,147.08-24.26,162.24l59.13-3L160.21,54.32Z"/><path class="cls-8" d="M81.37,225.66S52.56,290.86,42,289.34s-9.1,77.33-9.1,77.33,25.77-31.84,22.74,71.27l-1.51,10.61,172.85,1.52-4.55-57.62s-37.91-169.82-48.52-169.82-31.84,25.77-44,24.26S92,225.66,92,225.66Z"/><path class="cls-9" d="M201.15,318.15s-34.87-3-40.94,21.23S139,425.81,139,425.81L99.56,448.55H225.41S223.9,334.83,201.15,318.15Z"/><rect class="cls-6" x="255.74" y="366.67" width="443.07" height="165.27"/><rect class="cls-10" x="123.82" y="406.46" width="21.42" height="46.64"/><path class="cls-8" d="M37.4,442.49h238a0,0,0,0,1,0,0V471.3a0,0,0,0,1,0,0H53A15.57,15.57,0,0,1,37.4,455.73V442.49a0,0,0,0,1,0,0Z"/><path class="cls-5" d="M170.83,225.66s218.34-97,582.24-4.55L701.52,400H222.38Z"/><rect class="cls-15" x="217.83" y="387.9" width="62.17" height="175.89" rx="5.78"/><path class="cls-1" d="M411.89,57.81H509a8.09,8.09,0,0,1,8.09,8.09V93.29a0,0,0,0,1,0,0H403.79a0,0,0,0,1,0,0V65.9A8.09,8.09,0,0,1,411.89,57.81Z" transform="translate(920.87 151.1) rotate(180)"/><rect class="cls-11" x="333.83" y="431.11" width="260.8" height="65.2"/><rect class="cls-12" x="85.92" y="406.1" width="131.91" height="47"/><rect class="cls-13" x="84.4" y="406.1" width="60.65" height="47"/><path class="cls-7" d="M217.83,80.1s363.9-34.87,514,10.61l10.62-47L599.93,25.51l-342.68,9.1L192.06,49.77Z"/><rect class="cls-7" x="31.33" y="484.94" width="184.98" height="15.16" rx="4.1"/><path class="cls-8" d="M648.87,3.9,464.09.9l-184.78,3c-118.9,3-138.18,45.49-138.18,45.49,24.1,3,30.53,177.4,30.53,177.4s113.47-35.46,292.43-35.49,292.44,35.49,292.44,35.49,1.75-173.65,25.86-176.68C782.39,50.11,767.77,6.93,648.87,3.9ZM714.54,103q-2.31,23.1-4.61,46.2c-.83,8.31-1.82,17-6.95,23.86-10.88,14.45-33.64,13.3-52.32,11a1496.29,1496.29,0,0,0-371.89,0c-18.19,2.28-40.06,3.6-51.37-10-5.21-6.27-6.85-14.46-8-22.33-2.87-19-10.57-53.46-2.5-71.76,7.25-16.46,32.14-17.61,48.92-19.2C401.12,48,537.91,47.76,673.09,62l2.73.3C690.2,64,706,67.63,712.3,79.64,716,86.76,715.33,95.13,714.54,103Z"/><path class="cls-14" d="M676.25,60.41l-2.74-.3C538.06,45.88,401,46.12,265.37,58.9c-16.81,1.59-41.75,2.73-49,19.19-8.08,18.31-.37,52.72,2.51,71.77,1.19,7.87,2.84,16.06,8.06,22.32,11.33,13.59,33.24,12.27,51.47,10a1503.35,1503.35,0,0,1,372.65,0c18.72,2.35,41.52,3.5,52.43-11,5.14-6.82,6.13-15.56,7-23.87l4.62-46.19c.79-7.89,1.49-16.26-2.24-23.38C706.5,65.75,690.67,62.12,676.25,60.41Z"/><rect class="cls-15" x="640.87" y="387.9" width="62.17" height="175.89" rx="5.78" transform="translate(1343.9 951.69) rotate(-180)"/><circle class="cls-7" cx="174.26" cy="545.3" r="22.02"/><path class="cls-15" d="M451,205.34c-161.61-1.84-239.57,16.71-239.57,16.71l6.06,50s114-6.79,233.51-9Z"/><path class="cls-15" d="M480.52,205.34c161.61-1.84,239.57,16.71,239.57,16.71l-6.06,50s-114-6.79-233.51-9Z"/><path class="cls-16" d="M213,230c4.55,0,100.41-22.57,238.39-12"/><path class="cls-16" d="M214.29,241.5c4.55,0,97.55-23.42,235.53-12.81"/><path class="cls-16" d="M215.64,251.61c4.55,0,95.86-24.1,233.84-13.48"/><path class="cls-16" d="M216.32,262.39c4.54,0,95.18-24.09,233.16-13.48"/><path class="cls-16" d="M218.34,271.15c4.55,0,93.84-24.09,231.82-13.48"/><path class="cls-16" d="M720.64,228.4c-4.55,0-100.41-22.58-238.39-12"/><path class="cls-16" d="M719.29,239.85c-4.55,0-97.54-23.42-235.52-12.8"/><path class="cls-16" d="M718,250c-4.55,0-95.87-24.09-233.85-13.48"/><path class="cls-16" d="M717.27,260.74c-4.55,0-95.19-24.09-233.17-13.47"/><path class="cls-16" d="M715.25,269.5c-4.55,0-93.84-24.09-231.82-13.47"/></g></g></svg>