<svg xmlns="http://www.w3.org/2000/svg" viewBox="0 0 164.17 164.17"><defs><style>.cls-1{fill:#e5e5e5;}.cls-2{fill:none;stroke:#5b5b5b;stroke-miterlimit:10;stroke-width:2px;}.cls-3{fill:#999;}.cls-4{fill:#292b30;}.cls-5{fill:#932c37;}.cls-6{fill:#fff;}.cls-7{fill:#00698a;}.cls-8{fill:#666;}</style></defs><g id="Layer_2" data-name="Layer 2"><g id="Layer_4" data-name="Layer 4"><circle class="cls-1" cx="82.09" cy="82.09" r="82.09"/><line class="cls-2" x1="83.07" y1="118.17" x2="83.07" y2="46.9"/><line class="cls-2" x1="52.47" y1="100.25" x2="114.3" y2="64.82"/><line class="cls-2" x1="113.99" y1="100.25" x2="52.15" y2="64.81"/><polygon class="cls-3" points="104.69 95.01 104.69 70.05 83.07 57.57 61.45 70.05 61.45 95.01 83.07 107.5 104.69 95.01"/><path class="cls-4" d="M77.08,82.78h12a4.88,4.88,0,0,1,4.88,4.88v5a0,0,0,0,1,0,0H72.2a0,0,0,0,1,0,0v-5A4.88,4.88,0,0,1,77.08,82.78Z"/><circle class="cls-4" cx="83.07" cy="74.96" r="6.35"/><circle class="cls-5" cx="82.66" cy="37.56" r="11.34"/><path class="cls-6" d="M79.57,38h6.18a2,2,0,0,1,2,2v2.65a0,0,0,0,1,0,0H77.58a0,0,0,0,1,0,0V40A2,2,0,0,1,79.57,38Z"/><circle class="cls-6" cx="82.66" cy="33.49" r="2.97"/><circle class="cls-7" cx="120.76" cy="58.77" r="11.34"/><path class="cls-6" d="M117.67,59.23h6.18a2,2,0,0,1,2,2v2.65a0,0,0,0,1,0,0H115.68a0,0,0,0,1,0,0V61.22A2,2,0,0,1,117.67,59.23Z"/><circle class="cls-6" cx="120.76" cy="54.69" r="2.97"/><circle class="cls-7" cx="45.41" cy="58.77" r="11.34"/><path class="cls-6" d="M42.32,59.23H48.5a2,2,0,0,1,2,2v2.65a0,0,0,0,1,0,0H40.33a0,0,0,0,1,0,0V61.22A2,2,0,0,1,42.32,59.23Z"/><circle class="cls-6" cx="45.41" cy="54.69" r="2.97"/><circle class="cls-8" cx="45.99" cy="104.46" r="11.34"/><path class="cls-6" d="M42.89,104.93h6.18a2,2,0,0,1,2,2v2.65a0,0,0,0,1,0,0H40.91a0,0,0,0,1,0,0v-2.65A2,2,0,0,1,42.89,104.93Z"/><circle class="cls-6" cx="45.99" cy="100.39" r="2.97"/><circle class="cls-8" cx="120.47" cy="104.46" r="11.34"/><path class="cls-6" d="M117.38,104.93h6.18a2,2,0,0,1,2,2v2.65a0,0,0,0,1,0,0H115.4a0,0,0,0,1,0,0v-2.65A2,2,0,0,1,117.38,104.93Z"/><circle class="cls-6" cx="120.47" cy="100.39" r="2.97"/><circle class="cls-5" cx="82.66" cy="126.61" r="11.34"/><path class="cls-6" d="M87.74,131.71H77.58v-2.65a2,2,0,0,1,2-2h6.19a2,2,0,0,1,2,2Z"/><circle class="cls-6" cx="82.66" cy="122.54" r="2.97"/></g></g></svg>