<svg xmlns="http://www.w3.org/2000/svg" viewBox="0 0 138.42 138.42"><defs><style>.cls-1{fill:#00698a;}.cls-2{fill:#a6c7d4;}.cls-3{fill:#757575;}.cls-4{fill:#292b30;}.cls-5{fill:#fcfdff;}.cls-6{fill:#3387a1;}</style></defs><title>Asset 2</title><g id="Layer_2" data-name="Layer 2"><g id="Icons"><circle class="cls-1" cx="69.21" cy="69.21" r="69.21"/><rect class="cls-2" x="53.28" y="28.52" width="53.59" height="72.45" rx="5.43"/><path class="cls-3" d="M100.23,102.21H59.91A7.89,7.89,0,0,1,52,94.33V35.16a7.9,7.9,0,0,1,7.88-7.88h40.32a7.89,7.89,0,0,1,7.88,7.88V94.33A7.88,7.88,0,0,1,100.23,102.21ZM59.91,29.77a5.4,5.4,0,0,0-5.39,5.39V94.33a5.4,5.4,0,0,0,5.39,5.4h40.32a5.4,5.4,0,0,0,5.39-5.4V35.16a5.4,5.4,0,0,0-5.39-5.39Z"/><path class="cls-4" d="M37.36,80.75H67.11A8.93,8.93,0,0,1,76,89.68v12.78a0,0,0,0,1,0,0H28.43a0,0,0,0,1,0,0V89.68A8.93,8.93,0,0,1,37.36,80.75Z"/><circle class="cls-4" cx="52.23" cy="63.63" r="13.91"/><path class="cls-5" d="M105.56,94.35V80.93h-13a7.74,7.74,0,0,0-7.74,7.74V99.78h15.26A5.43,5.43,0,0,0,105.56,94.35Z"/><path class="cls-5" d="M94.17,65.18a13.06,13.06,0,0,0,11.39,13V52.23A13.05,13.05,0,0,0,94.17,65.18Z"/><path class="cls-6" d="M84.23,34.69,96,44.81l1.64,1.41c.61.52,1.49-.35.88-.88L86.75,35.23l-1.64-1.42c-.61-.52-1.49.36-.88.88Z"/><path class="cls-6" d="M94,36.49l3.84,3.36.55.48a.62.62,0,0,0,.88-.88L95.4,36.09l-.54-.48a.65.65,0,0,0-.88,0,.62.62,0,0,0,0,.88Z"/></g></g></svg>