<svg xmlns="http://www.w3.org/2000/svg" viewBox="0 0 238.91 227.6"><defs><style>.cls-1{fill:#323437;}.cls-1,.cls-3{stroke:#64686d;}.cls-1,.cls-10,.cls-3,.cls-8{stroke-miterlimit:10;}.cls-2{fill:#4b4e52;}.cls-3{fill:#5b5d5f;}.cls-4,.cls-7{fill:#00698a;}.cls-5{fill:#004f68;}.cls-6{fill:#3387a1;}.cls-7{opacity:0.49;}.cls-8{fill:none;stroke:#004f68;stroke-width:5px;}.cls-9{fill:#b5b6b7;}.cls-10{fill:#dedfdf;stroke:#838689;stroke-width:4px;}.cls-11{fill:#727272;}.cls-12{fill:#5d5e5e;}.cls-13{fill:#636465;}.cls-14{fill:#848587;}.cls-15{fill:#9d9d9f;}</style></defs><g id="Layer_2" data-name="Layer 2"><g id="Scene_01" data-name="Scene 01"><rect class="cls-1" x="178.65" y="143.85" width="28.45" height="62.51" rx="14.23"/><rect class="cls-1" x="31.84" y="143.85" width="28.45" height="62.51" rx="14.23"/><rect class="cls-2" x="9.08" y="165.09" width="28.45" height="62.51" rx="12"/><rect class="cls-2" x="199.89" y="165.09" width="28.45" height="62.51" rx="12"/><rect class="cls-3" x="110.93" y="64.94" width="17.45" height="91.81"/><rect class="cls-4" x="90.63" y="176.09" width="58.24" height="18.45" rx="9.23"/><path class="cls-5" d="M5.09,163.57s-7.21,6.45,0,14,83.46,13.28,120.64,11.76l1.14-15.93L28.61,170,5.09,163.57"/><path class="cls-5" d="M234.71,163.19s7.44,6.45,0,14S148.59,190.51,110.23,189l-1.17-15.93,101.38-3.42,24.27-6.45"/><path class="cls-4" d="M78.31,163.51C54,92.7,31.65,77,31.65,77l-1.9,19.52S2.82,95,1.68,111.46C.82,123.82-.89,143.54.57,156.31a11.63,11.63,0,0,0,11,10.3L79.07,170l2.65-2.3Z"/><path class="cls-6" d="M32.38,84.51c.09-.82.24-1.65.25-2.45.06-3.49-.75-3.15,2.21-4.93C42,72.79,53.76,71.81,61.9,70.51c4.6-.73,55-5.29,55.1-3.48,1.51,33.62,1.21,67.82,1.9,101.46-13.53.44-25.92,1.09-39.45,1.53-13.22-24.71-26.22-50.24-42.19-73.23-2.2-3.15-4.56-6.54-4.94-10.48A8.39,8.39,0,0,1,32.38,84.51Z"/><path class="cls-4" d="M160.6,164.24c24.28-70.82,45.93-84.94,45.93-84.94l2.63,18s26.93-1.53,28.07,14.93c.81,11.74,2.39,30.09,1.31,42.85a13.43,13.43,0,0,1-12.81,12.29L158,170l-.79-1.57Z"/><path class="cls-6" d="M206.53,85.24a23.57,23.57,0,0,1-.25-2.46c-.06-3.49.75-3.14-2.21-4.93-7.18-4.34-18.93-5.31-27.07-6.61-4.59-.74-55-5.3-55.09-3.48q-2.26,50.42-3.31,100.89L159.2,170c13.22-24.7,26.47-49.48,42.45-72.46,2.19-3.16,4.56-6.55,4.94-10.49A9,9,0,0,0,206.53,85.24Z"/><path class="cls-1" d="M48.72,68.59c0-1.15,1.14-39.05,1.14-39.05l13.65-18,77-6.89,43.25,14.55,4.55,20.67-.38,27.94L168.6,66.67s6.45-19.9-6.45-24.88-70.56-3.06-70.56-3.06-36.8-2.68-22.39,26"/><path class="cls-3" d="M56.7,56.44H179.59A12.91,12.91,0,0,1,192.5,69.35v0a0,0,0,0,1,0,0H43.79a0,0,0,0,1,0,0v0A12.91,12.91,0,0,1,56.7,56.44Z"/><path class="cls-2" d="M50.24,36.81S51,20.74,63.13,19.21s66.39-2.3,66.39-2.3l.76-11.48L87,6.19,51,18.44,36.2,69.35v5l48.56-8.42-37.18.38s-6.45-3.06-4.17-9.19,6.83-20.29,6.83-20.29"/><path class="cls-2" d="M184,36.43s-.76-16.07-12.9-17.61-66.39-2.29-66.39-2.29L103.92,5l43.24.77,36,12.25L198,69v5l-48.56-8.42,37.18.39s6.45-3.07,4.17-9.19S184,36.43,184,36.43"/><path class="cls-4" d="M206.15,79.73c-3.91-17.31-9.88-34.35-13.79-51.67-.7-3.11-1.43-6.29-3.16-9a22.12,22.12,0,0,0-7.14-6.42C164.25,1.52,142.21.32,121.25.05,97.8-.26,73.11.55,53,12.66a21.45,21.45,0,0,0-6.89,5.87c-1.84,2.67-2.59,5.93-3.3,9.09L36.92,53.51,34,66.46c-.94,4.15-2.85,9.07-2.82,13.29,4.18-.81,8.39-3.33,12.68-4.38,4.65-1.14,11.12-3,15.87-3.6,37.7-5,76.05-4.53,113.81,0C184.58,73.09,196.08,75,206.15,79.73ZM117.51,61h-4.12c-19,.1-38.15.58-56.81,4.52-4.59,1-9.13,2.14-13.6,3.56-2.87.92-3.66,1.59-3-1.73.53-2.67,1.39-5.31,2.07-7.94L50,29a15.18,15.18,0,0,1,1.56-4.22,12.58,12.58,0,0,1,3.81-3.63c6.36-4.3,13.93-6.38,21.45-7.86C96,9.47,115.73,9.17,135.23,10.4c15.2,1,30.79,3,44.12,10.43A11.07,11.07,0,0,1,183,23.74,12.31,12.31,0,0,1,184.76,28q5.49,21,11,42.07C170.62,62,143.91,61,117.51,61Z"/><path class="cls-2" d="M120,63c-39.79,2.06-88.39,14.8-88.39,14.8,6.83.38,85.73-19.73,173.74.76C205.39,78.6,142,61.9,120,63Z"/><path class="cls-7" d="M114.35,69.1l-.38,72s1.14,18.36-2.66,18.72C89.73,161.87,83,138,76.62,124.85,68.08,107.13,59.4,89,45.09,74.64,45.09,74.64,99.93,67.3,114.35,69.1Z"/><path class="cls-7" d="M124.67,69.69l.38,72s-1.14,18.36,2.66,18.72c21.59,2.05,28.35-21.81,34.69-35,8.54-17.71,17.23-35.9,31.53-50.2C193.93,75.24,139.09,67.89,124.67,69.69Z"/><path class="cls-8" d="M29.75,96.53S43,91.87,79.07,167"/><path class="cls-8" d="M209,97.67S195.77,93,159.73,168.12"/><rect class="cls-9" x="13.06" y="176.09" width="217.67" height="5.21" rx="2.61"/><ellipse class="cls-10" cx="32.79" cy="131.33" rx="17.45" ry="19.73"/><ellipse class="cls-10" cx="204.26" cy="132.84" rx="17.45" ry="19.73"/><rect class="cls-9" x="115.49" y="140.05" width="7.59" height="30.73" rx="3.79"/><path class="cls-11" d="M227.43,164.07c-16.14,1.08-58.25,3.63-108.14,4.57-49.9-.94-92-3.49-108.14-4.57C8,163.86,5.7,166.81,7,169.44a4.13,4.13,0,0,0,2.93,2.16c24.28,4.87,64.21,5.45,105.19,5.67l0,0c1.38,0,2.79.06,4.18.06h4.16v0c41-.22,80.9-.8,105.19-5.67a4.13,4.13,0,0,0,2.93-2.16C232.88,166.81,230.61,163.86,227.43,164.07Z"/><rect class="cls-12" x="112.83" y="12.21" width="5.69" height="12.14"/><rect class="cls-13" x="102.02" y="20.93" width="26.56" height="9.1" rx="4.55"/><path class="cls-14" d="M230.93,167.86c0-12.63-13.06-19.07-24.05-19.42-2.94-.09-5.89-.06-8.84-.09l-46.14-.49-110-1.16c-4,0-8.06-.13-12.09-.12C17.44,146.59,5,153.72,5,167.29c0,7.73,12,7.74,12,0,0-11,17.16-8.67,24.69-8.59l44.26.47,104.2,1.09c6.21.07,28.81-2.29,28.81,7.6,0,7.72,12,7.73,12,0Z"/><rect class="cls-15" x="54.98" y="133.61" width="9.1" height="38.94" rx="4.55"/><rect class="cls-15" x="173.34" y="133.35" width="9.1" height="38.94" rx="4.55"/><rect class="cls-9" x="52.89" y="165.47" width="12.52" height="17.07"/><rect class="cls-9" x="171.82" y="165.66" width="12.52" height="17.07"/><rect class="cls-14" x="115.11" y="114.26" width="7.59" height="20.86"/></g></g></svg>