<svg xmlns="http://www.w3.org/2000/svg" viewBox="0 0 255.39 256.93"><defs><style>.cls-1{fill:#e6e6e6;}.cls-2{fill:#262528;}.cls-3{fill:#a31f34;}.cls-4{fill:#bfc1c1;}.cls-5{fill:#6f7070;}.cls-6{fill:#b3b4b4;}.cls-7{fill:#9e9e9e;}.cls-8{fill:#333d47;}.cls-9{fill:#c9c8c7;}.cls-10,.cls-11,.cls-12,.cls-13{fill:none;stroke-linecap:round;stroke-miterlimit:10;}.cls-10,.cls-11{stroke:#333d47;}.cls-10{stroke-width:1.61px;}.cls-11{stroke-width:1.61px;}.cls-12,.cls-13{stroke:#666766;}.cls-12{stroke-width:1.61px;}.cls-13{stroke-width:1.33px;}.cls-14{fill:#891f30;}</style></defs><g id="Layer_2" data-name="Layer 2"><g id="Layer_1-2" data-name="Layer 1"><path class="cls-1" d="M236.46,0H18.93A18.94,18.94,0,0,0,0,18.93V236.46a18.93,18.93,0,0,0,18.93,18.93H236.46a18.92,18.92,0,0,0,18.93-18.93V18.93A18.93,18.93,0,0,0,236.46,0"/><path class="cls-2" d="M150.27,48.33l-10-.07-14.2-5.17L99,44.39S77.82,45.62,70.47,62.7C65.8,73.56,70,88.16,64.8,96.35s-14.25,12.23-13.39,21.44,6.13,14.26,1.81,26-5.45,13.46-7.6,23.4c-1.41,6.44,2.1,9.61,3.56,12.93a10.17,10.17,0,0,0,9.32,6.07H192.28a7.63,7.63,0,0,0,7.35-5.2c1.15-3.66,5.41-6.8,3.89-13.8-2.16-9.94-6.09-11.68-10.41-23.4s1.93-16.77,2.8-26-5.43-16.86-10.61-25-2.58-13.15-8.46-27.57c-4.46-10.94-26.57-16.85-26.57-16.85"/><path class="cls-3" d="M82.68,256.9c-22.12-.48-29.67-7.75-16.79-34.61S97.71,175.7,108,175.7l36.16-.08c10.31,0,30.85,20.6,42.08,48.45h0c11.23,27.84,2.33,33.32-19.79,32.83"/><path class="cls-4" d="M146.81,182.23l1.77-23.55L105,155.4,103.27,179l43.54,3.28"/><path class="cls-3" d="M58.11,196.54s-25.69,14.7-25.69,60.36H113.8V196.2Z"/><path class="cls-3" d="M192.21,196.54s25.7,14.7,25.7,60.36H136.53V196.2Z"/><path class="cls-5" d="M104.25,165.82h0s18,18.79,42.85,2l.84-.55.64-8.55L105,155.4c-.43,5.7-.63,8.34-.79,10.42"/><path class="cls-4" d="M192.21,196.54C179,188.47,156.74,180.05,147.16,176l-43.34-1.25c-12.15,4.85-31.28,14.83-45.59,21.79,26.28,33.07,117.41,26,134,0"/><line class="cls-6" x1="174.62" y1="112.42" x2="75.58" y2="110.57"/><path class="cls-2" d="M142.64,156.19s-28-58.24-45-20.74c-7.76,17.07-23.41-2.76-23.25-37.21.13-29.26-3.73-76.52,65.47-52.16,0,0,11-5.92,21.94,0,12.46,6.76,10.79,12.17,15.83,40.22,3.2,17.77-1.11,39.85-12.18,54.12C159.17,148.47,151.37,152.56,142.64,156.19Z"/><path class="cls-7" d="M92.43,116c0,5.88.15,10.64-4.16,10.64S76.82,121.92,76.82,116s3.49-10.63,7.81-10.63S92.43,110.17,92.43,116Z"/><path class="cls-7" d="M160.88,116c0,5.88-.15,10.64,4.16,10.64S176.5,121.92,176.5,116s-3.5-10.63-7.81-10.63S160.88,110.17,160.88,116Z"/><path class="cls-4" d="M126.84,61.71c-22.89,0-42.21,5.55-42.21,32v30.93c2.49,22.8,27.09,43.53,41.93,43.53s39.14-20,41.93-43.53V103.41C166.72,75.61,149.72,61.71,126.84,61.71Z"/><path class="cls-8" d="M136.63,101.22c-2.47.16-3.49-1.93-1.31-2.69.74-.26,1.54-.51,2.41-.76a39,39,0,0,1,11-1.47,32.1,32.1,0,0,1,6.2.86,16.39,16.39,0,0,1,6.93,4.21s-6.27-2.39-10.61-2.28C145.46,99.23,142.31,100.83,136.63,101.22Z"/><path class="cls-8" d="M116.53,101.22c2.47.16,3.49-1.93,1.3-2.69-.73-.26-1.53-.51-2.4-.76a39,39,0,0,0-11-1.47,32.1,32.1,0,0,0-6.2.86,16.39,16.39,0,0,0-6.93,4.21s6.27-2.39,10.61-2.28C107.69,99.23,110.85,100.83,116.53,101.22Z"/><ellipse class="cls-9" cx="106.41" cy="112.42" rx="6.28" ry="4.2"/><circle class="cls-8" cx="106.41" cy="112.94" r="3.22"/><path class="cls-10" d="M97.29,110.57s9.12-5.3,17.42,0"/><ellipse class="cls-9" cx="147.31" cy="112.42" rx="6.28" ry="4.2"/><circle class="cls-8" cx="147.31" cy="112.94" r="3.22"/><path class="cls-11" d="M156.43,110.57s-9.12-5.3-17.43,0"/><path class="cls-12" d="M120.34,133.14c.1.7,2.16.9,2.16.9s1.92-.2,2.52.6c0,0,1.51,1,2.62.1,0,0,1.91-1.11,2.62-.7,0,0,2.11-.2,2.51-.9"/><path class="cls-11" d="M113.4,143.77a33.19,33.19,0,0,0,26.32,0"/><path class="cls-13" d="M126.47,143.28c0-1.28-1.6-2.05-3.91-2.05s-4.45.77-4.45,2.05"/><path class="cls-13" d="M134.84,143.28c0-1.28-1.61-2.05-3.92-2.05s-4.45.77-4.45,2.05"/><path class="cls-13" d="M118.11,149.8a18.06,18.06,0,0,0,16.73,0"/><path class="cls-2" d="M139,61.71s-10.71,18.11-26.32,23.62-24.2,7.75-28.05,22.2-2.8-25.29-2.8-25.29L92.44,60.55S120.34,50.53,139,61.71Z"/><path class="cls-2" d="M138.2,63s6.72,10.47,16.49,13.07,12.58,26.39,14,35.45l5.93-10.13-6.13-37.91Z"/><path class="cls-14" d="M73.76,64s20.5,5.89,48.67,5.89a238.24,238.24,0,0,0,52-5.89s.18-7.7-.6-10.72C171.75,45,162.46,29.48,122.7,29.48c-39.25,0-47.33,15.08-48.79,23.43C73.35,56.11,73.76,64,73.76,64Z"/><polygon class="cls-3" points="214.28 32.46 121.35 55.68 28.43 32.46 121.35 4.17 214.28 32.46"/></g></g></svg>