<svg xmlns="http://www.w3.org/2000/svg" viewBox="0 0 179.77 179.77"><defs><style>.cls-1{fill:#c9c9c9;}.cls-2{fill:#898a8b;}.cls-3{fill:#30373f;}.cls-4{fill:#fff;}.cls-5{fill:none;stroke:#383d3f;stroke-miterlimit:10;}</style></defs><g id="Layer_2" data-name="Layer 2"><g id="PSY"><circle class="cls-1" cx="89.88" cy="89.88" r="89.88"/><path class="cls-2" d="M32.94,104.72a29,29,0,0,1-1.49-10.13c0-1.44,0-6.24,1.29-7.15,2-1.4,4.65,1.64,5.25,3.27.77,2.15.61,4.51,1,6.76,1,5,4.77,8.93,8.4,12.53,2.51,2.48,5.61,5.18,9.09,4.56-1.3-3.72-4.72-6.19-7.28-9.19a8.48,8.48,0,0,1-2.35-4.92c-.08-1.85,1.15-3.85,3-4.06a4.7,4.7,0,0,1,2.64.65c3.92,2,6.44,6,9.79,8.85,5.72,4.93,14.07,7,18,13.4a21.47,21.47,0,0,1,2.53,7.06c1.81,8.84,1.18,18,.55,27l-16.75-.24c.85-4.55,1.67-9.39-.06-13.68-1.62-4-5.27-6.9-9-9.1s-7.83-3.95-11.18-6.74a45,45,0,0,1-6.53-7.25,56.72,56.72,0,0,1-4.85-6.9A27.91,27.91,0,0,1,32.94,104.72Z"/><path class="cls-2" d="M146.82,104.72a28.8,28.8,0,0,0,1.5-10.13c0-1.44,0-6.24-1.29-7.15-2-1.4-4.66,1.64-5.25,3.27-.78,2.15-.62,4.51-1.05,6.76-1,5-4.77,8.93-8.39,12.53-2.51,2.48-5.61,5.18-9.09,4.56,1.29-3.72,4.72-6.19,7.28-9.19a8.48,8.48,0,0,0,2.35-4.92c.08-1.85-1.15-3.85-3-4.06a4.68,4.68,0,0,0-2.64.65c-3.93,2-6.45,6-9.79,8.85-5.73,4.93-14.08,7-18,13.4a21.45,21.45,0,0,0-2.52,7.06c-1.81,8.84-1.19,18-.56,27l16.76-.24c-.85-4.55-1.68-9.39,0-13.68,1.63-4,5.28-6.9,9-9.1s7.82-3.95,11.17-6.74a45.09,45.09,0,0,0,6.54-7.25,56.64,56.64,0,0,0,4.84-6.9A27.13,27.13,0,0,0,146.82,104.72Z"/><path class="cls-3" d="M89.49,117.88c-10.16-6.36-20.07-12.7-27.63-21.45C57.43,91.3,54.49,85.53,54.37,79c-.24-12.9-.07-25.81-.07-39.08A70.17,70.17,0,0,0,89.46,26.43c10.39,7.41,21.91,12.32,35.37,13.5,0,5.81,0,11.37,0,16.94-.07,7.8,0,15.6-.38,23.4-.27,6-3.17,11.29-7.22,16C109.66,105.16,99.64,111.53,89.49,117.88Z"/><path class="cls-4" d="M79.63,45.44a8.46,8.46,0,0,0-1.74.64C75,47.53,73.13,51,74,54.05A10.2,10.2,0,0,0,67.1,65.6a8.24,8.24,0,0,1,.35,2,6.71,6.71,0,0,1-.79,2.54c-3,7.06-1.35,16.56,5.24,21.19,3.89,2.74,9.53,3.25,13.51.65A3.93,3.93,0,0,0,87.11,90a4.71,4.71,0,0,0,.15-1.45V50.25a5.06,5.06,0,0,0-4.7-5A9.58,9.58,0,0,0,79.63,45.44Z"/><path class="cls-5" d="M82.52,65.53a3.74,3.74,0,0,1,5-2.83"/><path class="cls-5" d="M73.05,76.77s7.92,9.8,14.9-1"/><path class="cls-5" d="M74.53,86s6.12.79,6.41-4.74"/><path class="cls-5" d="M75.22,71.45s7.2-2.76,8.39,4.93"/><path class="cls-5" d="M77.1,60.2s7,1.68,2.36,10.75"/><path class="cls-5" d="M81,50.93s5.23,5.92-.89,11.34"/><path class="cls-4" d="M98.82,45.42a8.38,8.38,0,0,1,1.73.64c2.91,1.45,4.76,4.91,3.88,8a10.2,10.2,0,0,1,6.91,11.55,8.24,8.24,0,0,0-.35,2,7.08,7.08,0,0,0,.79,2.54c3,7.06,1.35,16.56-5.24,21.2C102.65,94,97,94.53,93,91.92A3.86,3.86,0,0,1,91.34,90a4.43,4.43,0,0,1-.16-1.45V50.23a5.07,5.07,0,0,1,4.7-5A9.67,9.67,0,0,1,98.82,45.42Z"/><path class="cls-5" d="M95.92,65.51a3.75,3.75,0,0,0-5-2.83"/><path class="cls-5" d="M105.39,76.76s-7.92,9.79-14.9-1"/><path class="cls-5" d="M103.91,85.93s-6.12.79-6.41-4.73"/><path class="cls-5" d="M103.22,71.43s-7.2-2.76-8.38,4.93"/><path class="cls-5" d="M101.35,60.18s-7,1.68-2.37,10.76"/><path class="cls-5" d="M97.4,50.91s-5.23,5.92.89,11.35"/></g></g></svg>