<svg xmlns="http://www.w3.org/2000/svg" viewBox="0 0 64.77 64.77"><defs><style>.cls-1{fill:#6aa2b8;}.cls-2{fill:#333d47;}.cls-3{fill:#fff;}</style></defs><g id="Layer_2" data-name="Layer 2"><g id="Layer_21" data-name="Layer 21"><circle class="cls-1" cx="32.39" cy="32.39" r="32.39"/><circle class="cls-2" cx="19.5" cy="25.77" r="3.36"/><circle class="cls-2" cx="45.27" cy="25.77" r="3.36"/><path class="cls-3" d="M46.8,36.1A14.41,14.41,0,1,1,18,36.1Z"/><path class="cls-2" d="M45.3,36.1a12.91,12.91,0,1,1-25.82,0L18,37.6H46.8a1.5,1.5,0,0,0,0-3H18a1.52,1.52,0,0,0-1.5,1.5,15.9,15.9,0,0,0,28,10.29A16.27,16.27,0,0,0,48.3,36.1,1.5,1.5,0,0,0,45.3,36.1Z"/></g></g></svg>