<svg xmlns="http://www.w3.org/2000/svg" viewBox="0 0 152.21 195.56"><defs><style>.cls-1{fill:#737373;}.cls-2{fill:#292b30;}.cls-3{fill:#7a7a7a;}.cls-4{fill:#5b5b5b;}.cls-5{fill:#fcfdff;}.cls-6{fill:#f0f5f8;}.cls-7{fill:#876176;}.cls-8{fill:#9f8191;}.cls-9{fill:#333d47;}.cls-10{fill:#c9c8c7;}.cls-11,.cls-12{fill:none;stroke-linecap:round;stroke-miterlimit:10;}.cls-11{stroke:#333d47;}.cls-12{stroke:#545759;}.cls-13{fill:#f4f4f4;}</style></defs><title>Asset 11</title><g id="Layer_2" data-name="Layer 2"><g id="Characters"><path class="cls-1" d="M109.45,53.33c.28-.13,1.7-.13,2-.2a6.39,6.39,0,0,1,5.13.72,5.78,5.78,0,0,1,1.92,2.37,6.69,6.69,0,0,1-.07,6c-.79,1.49-2.19,2.67-2.75,4.27a24.8,24.8,0,0,0-.54,2.88c-.78,3.7-4.63,6.19-8.6,6.16a1.65,1.65,0,0,0-1.79,1.25"/><path class="cls-1" d="M43.19,52.91c-.29-.13-1.7-.13-2-.2a6.39,6.39,0,0,0-5.13.72,5.78,5.78,0,0,0-1.92,2.37,6.72,6.72,0,0,0,.07,6C35,63.24,36.4,64.42,37,66a25.2,25.2,0,0,1,.54,2.88c.79,3.7,4.63,6.19,8.6,6.16a1.65,1.65,0,0,1,1.79,1.25"/><path class="cls-2" d="M116,56.72H36.23V39.86A39.86,39.86,0,0,1,76.09,0h0A39.87,39.87,0,0,1,116,39.86Z"/><rect class="cls-3" x="55.3" y="92.43" width="41.21" height="48.28"/><path class="cls-4" d="M96.51,92.43v5.75s-9.64,16.29-41.21,15.24v-21Z"/><path class="cls-5" d="M138.44,124.21c-9.1-1.49-27.63-2.12-34.4-6.14a15.75,15.75,0,0,1-7.54-10.84L75.91,133.51,55.3,107.23a15.71,15.71,0,0,1-7.54,10.84c-6.77,4-25.3,4.65-34.4,6.14C4.65,125.63,1.66,174,0,181.87c13.86,16.62,37.9,6.4,60.14,10.23a93.15,93.15,0,0,0,32,0c22.26-3.82,46.27,3.44,60.12-13.19C150.53,171,147.15,125.63,138.44,124.21Z"/><polygon class="cls-6" points="55.3 104.53 42.47 120.53 54.64 151.19 67.94 123.36 55.3 104.53"/><polygon class="cls-6" points="96.51 104.53 109.33 120.53 97.17 151.19 83.86 123.36 96.51 104.53"/><path class="cls-7" d="M91.25,194.19a93.82,93.82,0,0,1-31.95,0l10.81-48H81.68Z"/><path class="cls-8" d="M75.9,133.52A47,47,0,0,0,62,135.74s5.41,12.48,13.87,12.48,13.86-12.48,13.86-12.48A46.92,46.92,0,0,0,75.9,133.52Z"/><path class="cls-3" d="M75.9,103.05c20.95,0,35-27.09,35-58.4a35,35,0,0,0-69.93,0C40.94,76,55,103.05,75.9,103.05Z"/><path class="cls-2" d="M75.89,27.08c14.56,0,20.59-5.5,20.59-5.5,3.8,13.39,10.45,18.2,10.45,18.2V60.35A2.31,2.31,0,0,0,110.85,62h0V46.76c1.74-10.34-6.83-38.61-35-38.61s-36,26.92-34.95,38.61V62h0a2.3,2.3,0,0,0,3.91-1.65V39.78S51.5,35,55.3,21.58C55.3,21.58,61.33,27.08,75.89,27.08Z"/><path class="cls-9" d="M83.2,45.37c-1.83.12-2.58-1.42-1-2,.55-.19,1.14-.38,1.79-.56a29,29,0,0,1,8.13-1.09,24.76,24.76,0,0,1,4.59.64,12.12,12.12,0,0,1,5.12,3.12S97.23,43.72,94,43.8C89.74,43.9,87.4,45.09,83.2,45.37Z"/><path class="cls-9" d="M67.7,45.37c1.82.12,2.58-1.42,1-2-.54-.19-1.13-.38-1.78-.56a29,29,0,0,0-8.13-1.09,24.76,24.76,0,0,0-4.59.64A12,12,0,0,0,49,45.49s4.63-1.77,7.84-1.69C61.16,43.9,63.5,45.09,67.7,45.37Z"/><ellipse class="cls-10" cx="60.21" cy="53.66" rx="4.64" ry="3.11"/><circle class="cls-9" cx="60.21" cy="54.05" r="2.38"/><path class="cls-11" d="M53.47,52.29s6.74-3.92,12.89,0"/><ellipse class="cls-10" cx="91.1" cy="53.66" rx="4.64" ry="3.11"/><circle class="cls-9" cx="91.1" cy="54.05" r="2.38"/><path class="cls-11" d="M97.84,52.29s-6.74-3.92-12.89,0"/><path class="cls-11" d="M69.32,85.71s7.29,1.82,13.16-.32"/><path class="cls-12" d="M65,66c.17,1.2,3.66,1.52,3.66,1.52s3.24-.34,4.26,1c0,0,2.56,1.7,4.43.17,0,0,3.11-1.66,4.43-1.2,0,0,3.57-.32,4.25-1.52"/><path class="cls-13" d="M87.12,76.91c0,.15.12,0-.05.34-3.42,6.5-18.53,7-22.28.36-.28-.49.6,0,.08-.11,6.51,1.54,9.4,3.35,19.57.58C85.05,77.92,86.92,76.37,87.12,76.91Z"/><path class="cls-11" d="M64.12,77a33.57,33.57,0,0,0,23.71-.54"/></g></g></svg>