<svg xmlns="http://www.w3.org/2000/svg" xmlns:xlink="http://www.w3.org/1999/xlink" viewBox="0 0 128.21 128.21"><defs><style>.cls-1{fill:none;}.cls-2,.cls-3{fill:#a31f34;stroke:#a31f34;stroke-miterlimit:10;}.cls-2{opacity:0.5;}.cls-4{fill:url(#Degradado_sin_nombre_101);}.cls-5{clip-path:url(#clip-path);}.cls-6{fill:#7a1727;}</style><linearGradient id="Degradado_sin_nombre_101" x1="1417.08" y1="1617.86" x2="1496.48" y2="1617.86" gradientTransform="translate(2082.6 879.53) rotate(154)" gradientUnits="userSpaceOnUse"><stop offset="0" stop-color="#e6e6e6"/><stop offset="0.54" stop-color="#f7f7f7"/><stop offset="1" stop-color="#fff"/></linearGradient><clipPath id="clip-path"><circle class="cls-1" cx="65.01" cy="63.44" r="39.7" transform="translate(-18.31 99.6) rotate(-67.76)"/></clipPath></defs><g id="Layer_2" data-name="Layer 2"><g id="Layer_9" data-name="Layer 9"><circle class="cls-2" cx="64.1" cy="64.1" r="63.59" transform="translate(-6.84 120.55) rotate(-83.51)"/><circle class="cls-3" cx="64.1" cy="64.1" r="52.95" transform="translate(-26.55 64.1) rotate(-45)"/><circle class="cls-4" cx="64.1" cy="64.1" r="39.7" transform="translate(-19.49 99.18) rotate(-67.76)"/></g><g id="Layer_17" data-name="Layer 17"><g class="cls-5"><g id="knUesk"><path class="cls-6" d="M94.61,88.84v-49a23.9,23.9,0,0,0-15.5,8.71,9.57,9.57,0,0,0,1,.35c3.27.73,5.09,2.51,5.07,5.21,0,3-1.75,4.67-4.51,5.45a38.56,38.56,0,0,0-5.35,1.65,3.45,3.45,0,0,0-1.84,2.33A22.49,22.49,0,0,0,77,77.09,24.32,24.32,0,0,0,94.61,88.84Zm-35.43-21c2.16-2.5,4.09-4.86,6.18-7.07a4.9,4.9,0,0,1,2.5-1.15c4-.83,8.06-1.51,12.07-2.33,2-.41,3.39-1.63,2.76-3.75s-2.4-2.49-4.54-1.87c-2.72.8-5.51,1.85-8.29,1.9-11.62.22-9.21-.76-17,7.85l-.78.88c-3.24,3.62-3.31,4.07,0,7.58,4.26,4.52,8.68,8.83,7.17,16a2.68,2.68,0,0,0,3,3.24c2-.06,2.76-1.47,2.89-3.4.43-6,.22-11.81-4.75-16.25A10.83,10.83,0,0,1,59.18,67.85ZM49.6,70.72c-.13,6.4-4.47,9.29-7.89,12.82-.21.21-.41.42-.6.65-1.18,1.44-1.37,3.15.19,4.1a4.18,4.18,0,0,0,3.85,0,53.24,53.24,0,0,0,7.69-7.69,6.29,6.29,0,0,0,.89-5C53.22,74,51.43,72.76,49.6,70.72ZM68.65,39.48a5.9,5.9,0,1,0,5.91,5.74A6,6,0,0,0,68.65,39.48Z"/><path class="cls-6" d="M59.18,67.85a10.83,10.83,0,0,0,1.19,1.63c5,4.44,5.18,10.23,4.75,16.25-.13,1.93-.86,3.34-2.89,3.4a2.68,2.68,0,0,1-3-3.24c1.51-7.17-2.91-11.48-7.17-16-3.32-3.51-3.25-4,0-7.58l.78-.88c7.78-8.61,5.37-7.63,17-7.85,2.78,0,5.57-1.1,8.29-1.9,2.14-.62,3.89-.32,4.54,1.87s-.79,3.34-2.76,3.75c-4,.82-8.06,1.5-12.07,2.33a4.9,4.9,0,0,0-2.5,1.15C63.27,63,61.34,65.35,59.18,67.85Z"/><path class="cls-6" d="M49.6,70.72c1.83,2,3.62,3.24,4.13,4.84a6.29,6.29,0,0,1-.89,5,53.24,53.24,0,0,1-7.69,7.69,4.18,4.18,0,0,1-3.85,0c-1.56-1-1.37-2.66-.19-4.1.19-.23.39-.44.6-.65C45.13,80,49.47,77.12,49.6,70.72Z"/><path class="cls-6" d="M68.65,39.48a5.9,5.9,0,1,1-5.89,5.76A6,6,0,0,1,68.65,39.48Z"/></g><path class="cls-6" d="M95.61,40.08a24.18,24.18,0,0,0-16.5,8.5,9.57,9.57,0,0,0,1,.35c3.27.73,5.09,2.51,5.07,5.21,0,3-1.75,4.67-4.51,5.45a38.56,38.56,0,0,0-5.35,1.65,3.45,3.45,0,0,0-1.84,2.33A22.49,22.49,0,0,0,77,77.09c4,6.47,12.26,11.8,20,12,12.8.39,23.91-12.2,23.91-24.53,0-12.09-9.22-22-20.89-24.23A19,19,0,0,0,95.61,40.08Z"/></g></g></g></svg>