<svg xmlns="http://www.w3.org/2000/svg" xmlns:xlink="http://www.w3.org/1999/xlink" viewBox="0 0 128.21 128.21"><defs><style>.cls-1,.cls-2{fill:#a31f34;stroke:#a31f34;stroke-miterlimit:10;}.cls-1{opacity:0.5;}.cls-3{fill:url(#Degradado_sin_nombre_101);}.cls-4{fill:#7a1727;}</style><linearGradient id="Degradado_sin_nombre_101" x1="1136.59" y1="1882.99" x2="1216" y2="1882.99" gradientTransform="matrix(-0.9, 0.44, -0.44, -0.9, 1946.74, 1240.77)" gradientUnits="userSpaceOnUse"><stop offset="0" stop-color="#e6e6e6"/><stop offset="0.54" stop-color="#f7f7f7"/><stop offset="1" stop-color="#fff"/></linearGradient></defs><g id="Layer_2" data-name="Layer 2"><g id="Layer_9" data-name="Layer 9"><circle class="cls-1" cx="64.1" cy="64.1" r="63.59" transform="translate(-6.84 120.55) rotate(-83.51)"/><circle class="cls-2" cx="64.1" cy="64.1" r="52.95" transform="translate(-26.55 64.1) rotate(-45)"/><circle class="cls-3" cx="64.1" cy="64.1" r="39.7" transform="translate(-19.49 99.18) rotate(-67.76)"/></g><g id="Layer_16" data-name="Layer 16"><g id="HpsOg6.tif"><path class="cls-4" d="M82.59,63.67a25.25,25.25,0,0,1-.66,2.45,10.18,10.18,0,0,1-9.47,6.81c-5.62.06-11.23,0-16.84,0a6.25,6.25,0,1,0-.08,12.5c1,0,2,0,3,0,4.46.05,7.33,2.91,7.38,7.38,0,2.21,0,4.43,0,6.64a2.48,2.48,0,0,1-1.62,2.66h-1a2.48,2.48,0,0,1-1.62-2.66c.06-2.17,0-4.34,0-6.51s-1-3.27-3.33-3.34A29.41,29.41,0,0,1,53,89.24a10.25,10.25,0,0,1-7.78-10.75,10.39,10.39,0,0,1,8.92-9.57A15.63,15.63,0,0,1,56,68.8H72.26a6.23,6.23,0,0,0,2.1-12.08,9,9,0,0,0-2.43-.39,41.31,41.31,0,0,1-4.47-.21c-3.51-.61-5.64-3.4-5.67-7.2,0-3.18,0-6.36,0-9.55v-.88c-.26.23-.42.35-.56.49-1.35,1.35-2.69,2.71-4,4.06a2.11,2.11,0,0,1-3.12.13,2.09,2.09,0,0,1,.18-3.08l8-8a2.08,2.08,0,0,1,3.27,0l8,8a2.1,2.1,0,0,1,.19,3.13A2.13,2.13,0,0,1,70.55,43l-4-4c-.15-.15-.32-.3-.57-.53,0,.29,0,.48,0,.67q0,4.78,0,9.55c0,2.38,1,3.36,3.42,3.42a24.38,24.38,0,0,1,5.21.33c4.43,1.08,7,4,7.87,8.53a2,2,0,0,0,.12.31Z"/></g></g></g></svg>