<svg xmlns="http://www.w3.org/2000/svg" viewBox="0 0 164.17 164.17"><defs><style>.cls-1{fill:#e5e5e5;}.cls-2{fill:#9b9b9b;}.cls-3{fill:#545759;opacity:0.18;}.cls-4{fill:#666;}.cls-5{fill:#32373e;}.cls-6{fill:#932c37;}.cls-7{fill:#fff;}</style></defs><g id="Layer_2" data-name="Layer 2"><g id="Layer_4" data-name="Layer 4"><circle class="cls-1" cx="82.09" cy="82.09" r="82.09"/><circle class="cls-2" cx="80.92" cy="84.84" r="42.8"/><path class="cls-3" d="M70,77.69C70,62.09,74.45,50.5,86.92,43a43.24,43.24,0,0,0-5.37-.35,42.8,42.8,0,1,0,22,79.53C82.43,119.57,70,99.51,70,77.69Z"/><path class="cls-4" d="M81.07,128a43,43,0,0,1-28.52-10.77,1.12,1.12,0,0,1-.3-1.22,1.09,1.09,0,0,1,1-.71h55.58a1.1,1.1,0,0,1,1,.71,1.12,1.12,0,0,1-.3,1.22A43.08,43.08,0,0,1,81.07,128Zm-24.71-10.5a40.93,40.93,0,0,0,49.42,0Z"/><path class="cls-4" d="M108.86,117.54H53.28a1.13,1.13,0,0,1-.73-.27A43.11,43.11,0,0,1,37.94,85a1.1,1.1,0,0,1,1.1-1.1h84a1.11,1.11,0,0,1,1.11,1.1,43.14,43.14,0,0,1-14.6,32.32A1.18,1.18,0,0,1,108.86,117.54Zm-55.16-2.2h54.74A40.88,40.88,0,0,0,122,86.05H40.16A40.85,40.85,0,0,0,53.7,115.34Z"/><path class="cls-4" d="M123.08,86.05H39a1.1,1.1,0,0,1-1.1-1.1A43.11,43.11,0,0,1,52.55,52.63a1.08,1.08,0,0,1,.73-.27h55.58a1.12,1.12,0,0,1,.73.27A43.14,43.14,0,0,1,124.19,85,1.11,1.11,0,0,1,123.08,86.05Zm-82.92-2.2H122a40.88,40.88,0,0,0-13.53-29.29H53.7A40.85,40.85,0,0,0,40.16,83.85Z"/><path class="cls-4" d="M108.86,54.56H53.28a1.09,1.09,0,0,1-1-.71,1.12,1.12,0,0,1,.3-1.22,43.15,43.15,0,0,1,57,0,1.12,1.12,0,0,1,.3,1.22A1.1,1.1,0,0,1,108.86,54.56Zm-52.5-2.2h49.42a40.93,40.93,0,0,0-49.42,0Z"/><path class="cls-4" d="M81.07,128C72.91,128,68.5,105.84,68.5,85s4.41-43.09,12.57-43.09S93.63,64.06,93.63,85,89.22,128,81.07,128Zm0-84c-4.9,0-10.36,16.79-10.36,40.89s5.46,40.89,10.36,40.89S91.42,109.05,91.42,85,86,44.06,81.07,44.06Z"/><path class="cls-4" d="M108.86,54.56H53.27a1.1,1.1,0,0,1,0-2.2h55.59a1.1,1.1,0,0,1,0,2.2Z"/><path class="cls-4" d="M123.08,86.05H39a1.1,1.1,0,0,1,0-2.2h84a1.1,1.1,0,1,1,0,2.2Z"/><path class="cls-4" d="M108.86,117.54H53.27a1.1,1.1,0,0,1,0-2.2h55.59a1.1,1.1,0,0,1,0,2.2Z"/><ellipse class="cls-5" cx="81.94" cy="64.63" rx="12.08" ry="5.2"/><path class="cls-6" d="M81.89,64.3C89.52,57,96.62,43.13,96.62,43.13a16.58,16.58,0,1,0-29.45,0S74.26,57,81.89,64.3Z"/><circle class="cls-7" cx="81.89" cy="35.55" r="7.21"/></g></g></svg>