<svg xmlns="http://www.w3.org/2000/svg" viewBox="0 0 593.09 241.6"><defs><style>.cls-1,.cls-4,.cls-6,.cls-8{fill:none;}.cls-1,.cls-4,.cls-5,.cls-8{stroke:#fff;}.cls-1,.cls-4,.cls-5{stroke-miterlimit:10;}.cls-1,.cls-6,.cls-8{stroke-width:2px;}.cls-2{fill:#c9c8c7;}.cls-3{fill:#b54c5d;}.cls-5{fill:#fff;}.cls-6{stroke:#8a8b8c;}.cls-6,.cls-8{stroke-linecap:round;stroke-linejoin:round;}.cls-7{fill:#8a8b8c;}.cls-9{fill:#a31f34;}</style></defs><g id="Layer_2" data-name="Layer 2"><g id="LineBlock"><rect class="cls-1" x="1" y="1" width="591.09" height="239.6" rx="24.2"/></g><g id="SoundBlock"><rect class="cls-2" x="31.86" y="30.82" width="529.36" height="179.95"/><rect class="cls-3" x="54.72" y="46.48" width="483.64" height="37.17" rx="18.58"/><path class="cls-4" d="M88.84,108.42H504.25a34.12,34.12,0,0,1,34.12,34.12v0a34.12,34.12,0,0,1-34.12,34.12H88.84a8.56,8.56,0,0,1-8.56-8.56V117a8.56,8.56,0,0,1,8.56-8.56Z"/></g><g id="MicOff_Icon"><circle class="cls-5" cx="88.84" cy="142.54" r="34.12"/><path class="cls-6" d="M98.62,136.13v7.38a9.78,9.78,0,0,1-9.78,9.78h0a9.78,9.78,0,0,1-9.78-9.78v-7.38"/><rect class="cls-7" x="81.94" y="119.77" width="13.81" height="29.9" rx="6.9"/><line class="cls-8" x1="85.76" y1="134.71" x2="81.94" y2="134.71"/><line class="cls-8" x1="85.76" y1="129.67" x2="81.94" y2="129.67"/><line class="cls-8" x1="85.76" y1="139.76" x2="81.94" y2="139.76"/><line class="cls-8" x1="95.75" y1="134.71" x2="91.92" y2="134.71"/><line class="cls-8" x1="95.75" y1="129.67" x2="91.92" y2="129.67"/><line class="cls-8" x1="95.75" y1="139.76" x2="91.92" y2="139.76"/><line class="cls-6" x1="88.84" y1="153.29" x2="88.84" y2="165.32"/><line class="cls-6" x1="93.41" y1="165.32" x2="84.27" y2="165.32"/></g><g id="AudioLine_Silence"><rect class="cls-9" x="195.59" y="140.94" width="2.91" height="3.21"/><rect class="cls-9" x="189.62" y="140.94" width="2.91" height="3.21"/><rect class="cls-9" x="183.66" y="140.94" width="2.91" height="3.21"/><rect class="cls-9" x="177.7" y="140.94" width="2.91" height="3.21"/><rect class="cls-9" x="171.73" y="140.94" width="2.91" height="3.21"/><rect class="cls-9" x="225.41" y="140.94" width="2.91" height="3.21"/><rect class="cls-9" x="219.45" y="140.94" width="2.91" height="3.21"/><rect class="cls-9" x="213.48" y="140.94" width="2.91" height="3.21"/><rect class="cls-9" x="207.52" y="140.94" width="2.91" height="3.21"/><rect class="cls-9" x="201.55" y="140.94" width="2.91" height="3.21"/><rect class="cls-9" x="255.24" y="140.94" width="2.91" height="3.21"/><rect class="cls-9" x="249.27" y="140.94" width="2.91" height="3.21"/><rect class="cls-9" x="243.31" y="140.94" width="2.91" height="3.21"/><rect class="cls-9" x="237.34" y="140.94" width="2.91" height="3.21"/><rect class="cls-9" x="231.38" y="140.94" width="2.91" height="3.21"/><rect class="cls-9" x="285.06" y="140.94" width="2.91" height="3.21"/><rect class="cls-9" x="279.1" y="140.94" width="2.91" height="3.21"/><rect class="cls-9" x="273.13" y="140.94" width="2.91" height="3.21"/><rect class="cls-9" x="267.17" y="140.94" width="2.91" height="3.21"/><rect class="cls-9" x="261.2" y="140.94" width="2.91" height="3.21"/><rect class="cls-9" x="314.89" y="140.94" width="2.91" height="3.21"/><rect class="cls-9" x="308.92" y="140.94" width="2.91" height="3.21"/><rect class="cls-9" x="302.96" y="140.94" width="2.91" height="3.21"/><rect class="cls-9" x="296.99" y="140.94" width="2.91" height="3.21"/><rect class="cls-9" x="291.03" y="140.94" width="2.91" height="3.21"/><rect class="cls-9" x="344.71" y="140.94" width="2.91" height="3.21"/><rect class="cls-9" x="338.75" y="140.94" width="2.91" height="3.21"/><rect class="cls-9" x="332.78" y="140.94" width="2.91" height="3.21"/><rect class="cls-9" x="326.82" y="140.94" width="2.91" height="3.21"/><rect class="cls-9" x="320.85" y="140.94" width="2.91" height="3.21"/><rect class="cls-9" x="374.53" y="140.94" width="2.91" height="3.21"/><rect class="cls-9" x="368.57" y="140.94" width="2.91" height="3.21"/><rect class="cls-9" x="362.6" y="140.94" width="2.91" height="3.21"/><rect class="cls-9" x="356.64" y="140.94" width="2.91" height="3.21"/><rect class="cls-9" x="350.67" y="140.94" width="2.91" height="3.21"/><rect class="cls-9" x="404.36" y="140.94" width="2.91" height="3.21"/><rect class="cls-9" x="398.39" y="140.94" width="2.91" height="3.21"/><rect class="cls-9" x="392.43" y="140.94" width="2.91" height="3.21"/><rect class="cls-9" x="386.46" y="140.94" width="2.91" height="3.21"/><rect class="cls-9" x="380.5" y="140.94" width="2.91" height="3.21"/><rect class="cls-9" x="410.32" y="140.94" width="2.91" height="3.21" transform="translate(823.56 285.08) rotate(180)"/><rect class="cls-9" x="434.18" y="140.94" width="2.91" height="3.21"/><rect class="cls-9" x="428.22" y="140.94" width="2.91" height="3.21"/><rect class="cls-9" x="422.25" y="140.94" width="2.91" height="3.21"/><rect class="cls-9" x="416.29" y="140.94" width="2.91" height="3.21"/><rect class="cls-9" x="440.15" y="140.94" width="2.91" height="3.21" transform="translate(883.2 285.08) rotate(180)"/><rect class="cls-9" x="464.01" y="140.94" width="2.91" height="3.21"/><rect class="cls-9" x="458.04" y="140.94" width="2.91" height="3.21"/><rect class="cls-9" x="452.08" y="140.94" width="2.91" height="3.21"/><rect class="cls-9" x="446.11" y="140.94" width="2.91" height="3.21"/></g></g></svg>