<svg xmlns="http://www.w3.org/2000/svg" viewBox="0 0 120 120"><defs><style>.cls-1{fill:#40474e;}.cls-2{fill:#a31f34;}.cls-3{fill:#b3b4b4;}.cls-4{fill:#c9c8c7;}</style></defs><g id="Layer_2" data-name="Layer 2"><g id="Layer_2-2" data-name="Layer 2"><circle class="cls-1" cx="60" cy="60" r="60"/><path class="cls-2" d="M91.78,92.34,89,74.37a6.36,6.36,0,0,0-3.72-4.71L69,62.55h-.91V53H52v9.55H51L34.73,69.66A6.36,6.36,0,0,0,31,74.37l-2.79,18S40,103,60,103,91.78,92.34,91.78,92.34Z"/><path class="cls-3" d="M68.53,66.5a10.94,10.94,0,0,0,2.38-3.1l-2-.85-.91-.47V53H52v9.08l-.91.47-2,.85a17.91,17.91,0,0,0,2.39,3.1A12.43,12.43,0,0,0,68.53,66.5Z"/><path class="cls-4" d="M74.76,46.54a14.78,14.78,0,0,1-29.52,0V35.87a14.76,14.76,0,0,1,29.52,0Z"/><path class="cls-4" d="M70.67,92.29l8.18-8.17A1.32,1.32,0,1,0,77,82.25L73.1,86.12a.25.25,0,0,1-.35-.35l5.48-5.47a1.32,1.32,0,1,0-1.86-1.88l-5.11,5.1a.25.25,0,0,1-.35-.35l6.53-6.52a1.33,1.33,0,1,0-1.87-1.88L69,81.32a.25.25,0,0,1-.35-.35l5.46-5.45a1.32,1.32,0,1,0-1.86-1.87l-9.33,9.28a.23.23,0,0,1-.28,0,.24.24,0,0,1-.14-.24l.33-4.7V78a1.35,1.35,0,0,0-.39-.91h0a1.29,1.29,0,0,0-.92-.38c-.44,0-1,.24-1.34,1.4-.49,1.76-.88,3.52-1.21,5.08-.24,1.16-.35,1.63-.56,2.67C58.31,86.41,69.55,93.4,70.67,92.29Z"/><path class="cls-4" d="M60.27,82.62a7.1,7.1,0,0,0,10,10c2.78-2.78,2.28-6.78-.49-9.55-.95-.94-1.6-2.06-2.81-2.36-1-.25-3.3,4.58-4.31,4.78C61.35,85.79,61.31,81.58,60.27,82.62Z"/></g></g></svg>