<svg xmlns="http://www.w3.org/2000/svg" viewBox="0 0 1305.98 844.26"><defs><style>.cls-1{fill:#3387a1;}.cls-2{fill:#777;}.cls-3{fill:#c9c8c7;}.cls-4,.cls-7{fill:#b2b2b2;}.cls-5{fill:#bfbfbf;}.cls-6{fill:none;stroke-dasharray:13.55;}.cls-6,.cls-7{stroke:#fff;stroke-miterlimit:10;stroke-width:3px;}.cls-6,.cls-9{fill-rule:evenodd;}.cls-8{fill:#fff;}.cls-9{fill:#00698a;}</style></defs><g id="Layer_2" data-name="Layer 2"><g id="Maps"><path class="cls-1" d="M57,74.15c-2.38,4.14-2.64,11.1-.75,15.44A22.82,22.82,0,0,0,58,92.87c1.73,1.79,6.16-5.58,6.16-7.44,0-1.54-2.23-4-3-5.2C59.88,78.28,58.64,75.73,57,74.15Z"/><path class="cls-1" d="M76.85,62,73.22,80.17s5.62-3.62,6.17-4.17,0-23.93,0-23.93Z"/><path class="cls-2" d="M238.06,84.16s4.17,5.08,4.71,4.72,6.35-9.25,6.35-9.25L238,77.18Z"/><path class="cls-2" d="M291.74,105.56c-1.09-.9-28.29-13.24-28.29-13.24l-9.61,2.54v10.52l4.71,6.89,43.34,8.16s4.53,0,4.53-.54a10,10,0,0,1,.37-1.82s.18-7.25-.37-7.43S292.82,106.47,291.74,105.56Z"/><polygon class="cls-2" points="308.6 132.22 318.94 132.58 318.94 123.88 308.96 123.7 308.6 132.22"/><path class="cls-2" d="M350.85,117.12a15,15,0,0,0,1.26,6l3.82,8.74s12.33-.55,12.51-1.09-17.59-22.31-17.59-22.31Z"/><path class="cls-2" d="M303.34,88.88s2.9,2.72,3.45,2.54,6.71-3.81,6.71-3.81v-7.8l-10.16.91Z"/><polygon class="cls-2" points="283.94 49.35 289.56 49.53 289.56 41.73 274.14 40.46 263.99 41.37 263.81 48.8 276.68 52.07 283.94 49.35"/><path class="cls-2" d="M296.45,73.28l9.79-4.71-.18-10s-14.87,6.34-16.14,7.25S296.45,73.28,296.45,73.28Z"/><polygon class="cls-2" points="303.52 49.35 313.41 37.65 313.41 30.22 308.24 33.93 297.99 40.1 298.08 47.72 303.52 49.35"/><path class="cls-2" d="M156.91,407.4s2.45,11.7,3.26,12.51.82-8.7.82-8.7l-1.09-6.8Z"/><path class="cls-2" d="M281.76,417.74l-6.53.27.28,8.43s7.88-1.09,9.24-1.36,17.68,3.81,17.68,3.81,0-4.35-.81-5.44S281.76,417.74,281.76,417.74Z"/><polygon class="cls-2" points="327.46 440.86 336.44 448.48 348.13 443.85 347.86 436.51 327.46 440.86"/><polygon class="cls-2" points="261.09 436.24 261.09 426.99 254.29 425.63 261.09 436.24"/><polygon class="cls-1" points="387.85 837.72 395.73 842.35 401.99 842.35 401.99 834.73 393.56 832.28 387.85 837.72"/><polygon class="cls-1" points="377.24 775.43 374.79 781.41 380.23 786.04 381.59 783.32 381.32 775.43 377.24 775.43"/><polygon class="cls-1" points="404.44 713.96 401.72 728.1 406.61 729.19 410.42 725.65 410.15 715.59 404.44 713.96"/><polygon class="cls-1" points="483.05 567.34 483.59 577.68 486.31 580.94 488.22 575.23 487.94 566.53 483.05 567.34"/><polygon class="cls-2" points="396.28 297.78 390.84 303.5 392.47 308.94 396.82 307.03 396.28 297.78"/><path class="cls-2" d="M364.18,185.44s1.09-10.06-1.9-12a4.79,4.79,0,0,0-5.44,0L336.72,169a1.15,1.15,0,0,0-.83-.18c-3.26.54-1.36,1.9-1.36,1.9l1.36,8.71,2,1.22a2.56,2.56,0,0,0,1.56.95c1.36,0,13.33-1.63,13.33-1.63l9.52,7.89Z"/><polygon class="cls-2" points="378.96 154.89 388.48 155.61 388.66 147.63 379.5 147.54 378.96 154.89"/><path class="cls-2" d="M412.33,177.83l-9-6.53-33.46-.55v7.71s23.67,20,25.57,20,19-1.09,19-1.09l2.18-2.18-.55-10.6Z"/><path class="cls-2" d="M353.75,215.73l5.53,10.79s7.08,2.17,7.89-.55-13.42-18.59-13.42-18.59Z"/><path class="cls-2" d="M325.92,42.82c.81,0,11.88,14.51,11.88,14.51l3.8-1.91s.55-7.34,0-8.16-15.5-11.69-15.5-11.69S325.1,42.82,325.92,42.82Z"/><polygon class="cls-2" points="358.2 57.42 358.11 49.71 347.5 49.44 347.59 56.69 358.2 57.42"/><path class="cls-2" d="M334.26,93.78,334,85.07s-15.51,2.45-17.14,4.9-.27,10.88-.27,10.88l3.54,7.34L331,93.78Z"/><path class="cls-2" d="M832.13,631.27l-2.36,3.8-.59,10.4a7.89,7.89,0,0,0,1,4.31l6.68,8.69s4.9-5.26,5.44-6-2.54-12-2.72-12.69S832.13,631.27,832.13,631.27Z"/><path class="cls-2" d="M872.44,475.53l-3-2.21s-2.17,15.05-2.17,16.14,5.44,7.25,5.44,7.25c1.46-3.94,3.07-7.55,2.69-11.86C875.17,481.76,874.56,477.89,872.44,475.53Z"/><polygon class="cls-1" points="901.04 441.58 906.66 441.4 910.65 437.6 910.83 424.9 896.32 438.14 901.04 441.58"/><path class="cls-2" d="M1076.94,505.05c-1.33-1.22-4.22,0-4.14,1.84l1,3.6,4.36,6.35s1.63-1.27,1.81-2.18-2.36-8-2.36-8Z"/><polygon class="cls-2" points="1124.45 477.31 1130.25 472.59 1130.07 462.62 1128.62 459.36 1120.82 468.06 1124.45 477.31"/><path class="cls-2" d="M1166.46,410a2.82,2.82,0,0,0,3.32,2.38l2.54-5.44-.54-11.24-7.26-4.17.37,7.61Z"/><path class="cls-2" d="M349.58,71.11a15.72,15.72,0,0,0,.82-2.27c0-.36-4-8.07-4-8.07l.09,7.62Z"/><polygon class="cls-2" points="364.91 44.63 361.64 35.11 359.56 34.93 359.47 42.46 361.19 46.99 364.91 44.63"/><path class="cls-2" d="M389,33.93a27.8,27.8,0,0,0-2.53-2.9l-6.62-3.63-.18,7.53s5.44,1.63,5.71,1.63A17.4,17.4,0,0,0,389,33.93Z"/><path class="cls-2" d="M386.58,55.88l-.28-7.71s-3,5.44-3.08,6.44,1.27,2,1.63,2.17S386.58,55.88,386.58,55.88Z"/><path class="cls-2" d="M380,72.65l-4.9-4.35L375,76.64s2.72-.91,3-1.09A34.33,34.33,0,0,0,380,72.65Z"/><path class="cls-2" d="M391.29,95.41l.09-7.62-4.26.91s-.27,3.08,0,3.35a37.62,37.62,0,0,1,1.54,3.81Z"/><path class="cls-2" d="M424.48,85.52c.36-.18,3.17-4.8,3.17-5.71s-6.89-3.9-6.89-3.9l-.18,8.71S424.11,85.71,424.48,85.52Z"/><path class="cls-2" d="M364.63,137.3c-.63.18,1.45,6.43,1.45,6.43L369,145l-.09-9.15S365.27,137.12,364.63,137.3Z"/><path class="cls-1" d="M422.75,168.31c-1.18.63,3.54,7.25,4.08,7.7s2.63.27,2.63.27l.09-3.62-.36-8.43S423.93,167.67,422.75,168.31Z"/><path class="cls-2" d="M328.25,246.64l-.28-8.7s-4.86,5.08-4.86,5.35,4.44,2.63,4.44,2.63Z"/><path class="cls-2" d="M450.14,45.9c-.68.82.4,4.49.54,5s9.25-3.4,9.93-3.4,0-7.48,0-7.48S450.82,45.09,450.14,45.9Z"/><path class="cls-2" d="M578.52,65.49c1.36-.68.28-8.57.28-8.57s-5,1.49-6.12,2S574,65.62,574,65.62A29.48,29.48,0,0,0,578.52,65.49Z"/><path class="cls-2" d="M603.68,75.41l3.54-2.17-.13-7.62s-7.48,4.76-7.62,5.17,2,3.4,2.31,3.81S603.68,75.41,603.68,75.41Z"/><path class="cls-2" d="M597.29,189.52c-3-.68-11,.14-11,.14H560.16s-.68,8,.41,10.88,2.59,3.54,3.13,3.81,17.82,1.22,18.5,1.36,16.45-2.86,16.45-2.86S600.28,190.2,597.29,189.52Z"/><path class="cls-2" d="M620.14,249,613.79,236a17.93,17.93,0,0,0,0,13.23C616.7,255.89,620.14,249,620.14,249Z"/><path class="cls-2" d="M609.26,280.92l3.81-8.53-13.42-12.33s-4,8.16,0,16.14C602.45,281.8,609.26,280.92,609.26,280.92Z"/><path class="cls-2" d="M629.75,276.75h-8.7L620,278.56s-1.27,9.07.36,10.34,16.87-.55,16.87-.55l8-3.44V275.3l-2.36-2.91Z"/><path class="cls-2" d="M627.76,296.15c.36.54-1.27,8.16.18,10s12,.19,12,.19l-4.35-9.07Z"/><path class="cls-2" d="M603.64,343.84s-1.27,11.43.18,13.06,8.89,8.34,8.89,8.34l15.95-4.35-13.23-15.05Z"/><path class="cls-2" d="M695.32,345.92l-1.55,1.73s-3.09,5.8.18,13.42c.79,1.84,12.15.18,12.15-.54a54,54,0,0,0-2.18-6S695.57,346.82,695.32,345.92Z"/><path class="cls-1" d="M695.32,345.92l.08-.08C695.32,345.83,695.3,345.86,695.32,345.92Z"/><path class="cls-2" d="M708.27,345.47c.73,1.09,1.63,9.62,1.63,9.62l4.54-.55.18-11.79S707.55,344.39,708.27,345.47Z"/><polygon class="cls-2" points="735.65 350.01 733.48 362.52 741.64 362.34 742.55 358.53 742 350.55 735.65 350.01"/><polygon class="cls-2" points="1154.19 582.3 1133.7 577.23 1126.62 572.69 1121 568.34 1115.92 564.53 1115.92 571.79 1145.85 589.01 1196.26 588.29 1196.26 581.03 1182.11 583.75 1154.19 582.3"/><path class="cls-2" d="M1171.6,509.41c1.45-1.82-.37-11.61-.37-11.61l-1.63-2.18-8.52,13.06S1170.15,511.22,1171.6,509.41Z"/><path class="cls-2" d="M1130.43,540.6c4.35,2.9,7.26-7.44,7.07-8.16s-8.34-9.61-8.34-9.61S1126.08,537.69,1130.43,540.6Z"/><path class="cls-2" d="M1170.51,566.89c3.26.73,9.61-5.8,9.61-5.8l.72-4-1.81-2.72h-9.43S1167.24,566.17,1170.51,566.89Z"/><path class="cls-2" d="M699.15,101l-10.32-3.59-1.51.37c-.15-2.25-.42-5.86-.53-6.63-.15-1.1-8.6-6.73-8.6-6.73s-3,10.8-.31,14.39c2.29,3.11,7.73,1.79,9.17,1.06l.53,10s2,3.91,2.66,3.91,8.29-7.51,8.29-7.51Z"/><path class="cls-2" d="M710.26,98.85l-4.85-1.09a25.43,25.43,0,0,0-1.25,4.07c-.16,1.25,3.44,4.69,3.44,4.69l3,.15Z"/><path class="cls-2" d="M715.58,80.24c-1.57.78-.79,4.22-1.1,5.47s3.13,1.88,3.13,1.88,1.46,2.59,3.91,1.56c3.75-1.56.94-12,.94-12S717.14,79.46,715.58,80.24Z"/><path class="cls-2" d="M777.21,66.32s-.63,8.13-.16,8.13,6.73,1.41,7.35,1.25S793,72.57,793,72.57l.15-7.66-11.1-.47Z"/><path class="cls-1" d="M798.48,56v0S798.46,56,798.48,56Z"/><path class="cls-2" d="M819.13,64.6s.16-7.51-.31-7.67l-3.6,5.79s-2.66-4.07-3.44-4.22a7.62,7.62,0,0,0-2,.11V58.5S799,56.22,798.48,56v7.65l10.8,3.28,5.63.47Z"/><path class="cls-2" d="M843.22,89.47c-2,.94-1.72,2.81-1.88,3.75S847,94.63,847,94.63l9.7-3.29L856.36,84S845.25,88.53,843.22,89.47Z"/><path class="cls-2" d="M835.55,150.63l.16-7.35s-10.48-5-11.42-5.32-5.47-7.51-5.47-7.51.84-15.21-2.51-11.57c-3.59,3.91.63,18.61.63,18.61s3.13,1.1,3.28,1.72,10.95,10.48,10.95,10.48Z"/><polygon class="cls-2" points="915.8 34.41 915.64 42.07 916.74 44.89 929.41 41.76 929.88 37.53 917.21 35.34 915.8 34.41"/><path class="cls-2" d="M871.53,127.17s-1.25-12.67-1.25-13.46-5.32-8.13-5.32-8.13-3,13.92-.62,18S871.53,127.17,871.53,127.17Z"/><path class="cls-2" d="M897.34,126.85c0-.78-13-10.63-13-10.63l-.14,7a3.24,3.24,0,0,0,.35,1.53l6.83,13.51,8.13.94S897.34,127.64,897.34,126.85Z"/><path class="cls-2" d="M900.94,108.08c1.72,1.1,11.89-.47,11.89-.47l.31-2.81-12.67-6.26S899.22,107,900.94,108.08Z"/><path class="cls-2" d="M989.32,53.49l-3,8.92,3,4.38s3,1.87,6.41-5-1.87-12.2-1.87-12.2Z"/><path class="cls-2" d="M1095.22,24.86l5.16-4.53-.15-7.51s-4.85,1.25-6.26,1.72-.31,4.07-.16,6.41A7.59,7.59,0,0,0,1095.22,24.86Z"/><path class="cls-2" d="M1100.85,33.47l-10,3.28a25.11,25.11,0,0,1-3.81-1.07c.21,1.16-.1,7.33-.1,7.33l3.91,2.19,9.54-3.29Z"/><path class="cls-1" d="M1086.93,35.5c-.07,0,0,.11.1.18C1087,35.54,1087,35.47,1086.93,35.5Z"/><polygon class="cls-2" points="1121.5 19.7 1121.34 14.07 1114.93 13.76 1107.11 14.07 1107.11 22.83 1121.97 21.89 1121.5 19.7"/><path class="cls-2" d="M1095.38,45.2l.15,7.51,4.38,2.66s5.95-.16,5.95-2.19a23,23,0,0,0-.32-3.76Z"/><polygon class="cls-2" points="1187.2 336.78 1186.42 327.55 1178.6 332.55 1178.44 335.84 1186.1 342.41 1187.2 336.78"/><path class="cls-2" d="M1173.9,452.22c4.85,6.57,11.58-.47,11.42-1.25s-10.48-19.71-10.48-19.71S1169.05,445.65,1173.9,452.22Z"/><g id="Fgbn2k"><path class="cls-2" d="M810.19,65.86l4.74,4.88c1.42-1.95,3.36-3.74,4.06-5.92.35-1.06-1.62-2.86-2.54-4.32-1.62,1.56-3.21,3.14-4.86,4.66a8.86,8.86,0,0,1-1.61,1l-4.49-10.4-7,7.75C805.08,73,805.7,73.11,810.19,65.86Zm433.41-41.4c2.29-3.9,7.05-9,1.09-13.69-6.45-5.13-13.74-3.92-15.45,1.94-.82,2.77,0,6.72,1.48,9.26s4.78,3.71,7.23,5.46c-3.74,2.28-8.24,4.26-11.77,7.34C1212.73,46.45,1197,50.25,1180,47.39c-14.86-2.51-28.46,0-41.73,6.4a26.84,26.84,0,0,1-20,1.57c-6.58-1.89-13.75-1.74-22.56-2.69,4.19,9.1,1,13.62-4.55,17.69-5,3.71-8.45,10-16.27,9.64-.45-1.87-.85-3.59-1.24-5.22-8.9.23-8.9.23-14.84-6.85s-10.3-7.71-18-3.08c-3.08,1.86-6.34,3.4-9.52,5.09l2.65,2.87c-14.64-1.35-28.29.52-39.23,11.53-1,1-2.53,2.11-3.7,2a74.48,74.48,0,0,1-9.14-1.88c.7-2.31.92-4.93,2.2-6.84,2-3,4.65-5.45,7.1-8.08,3.51-3.78,6.31-9,2.84-12.76-2.81-3-8.67-4-13.28-4.3-2.9-.18-6.06,2.45-9,4-2.46,1.34-4.74,3-7.53,4.79,1.76-13.81,1.68-13.72-6.43-20.05-10.68-8.34-22.6-8.14-34.76-4.95-2.64.7-4.72,3.55-7.05,5.41.25,1,.51,2,.77,3,9,1.46,17.88,3.18,26.87,4.31,10.17,1.27,14.49,4.46,16.89,13.92-5.39,1.76-11.14,2.9-16.16,5.47-5.59,2.86-12.42,5.9-15.34,10.85-6.32,10.72-13.77,19.27-25.28,24.29-4.08,1.79-4.42,4-.25,7.2a137.56,137.56,0,0,1,16.34,15c4.45,4.69,3.06,6.1-3.19,8.32-8.19,2.91-11.73-1.26-15.17-7.29-5.44-9.54-9.42-10-17.12-2.77,1.4,5.15,1.91,10.52,4.31,14.84,2.53,4.56,6.87,8.12,9.8,11.43l-5.27-2.65c-2.39,6.53-4.69,12.81-7,19.09-1.61-1-1.88-1.51-1.74-1.86,7-17.42-2.71-32-8.66-47-1-2.61-7-3.25-10.7-4.8a88.73,88.73,0,0,0-.79,9.6c0,1.83,1.15,3.62,1.6,5.47,1.6,6.48,3.78,12.9,4.48,19.48.83,7.71-3,9.92-10.19,6.62-3.25-1.49-6.15-4.32-9.49-4.88-2.87-.47-8.84,1.58-8.81,2.24.4,6.88-4.85,7.11-9,8.11-8.66,2.09-16.71,4.37-23.07,11.72-5.25,6.08-21.74,7.3-25.78,2.89-17.61-19.25-53.3-23-78.07-10.05A31.46,31.46,0,0,0,689.5,184c-3.52,11.93-5.27,12.83-17.26,14.54-3.13.45-7.85,3.36-8.38,5.88a155.48,155.48,0,0,0-3.42,28.84c-.07,3.19,3,7.9,5.92,9.24,2.31,1.07,6.54-1.8,9.84-3.13,1.17-.47,2.09-1.53,3.47-2.59,2.5,5.54,4.07,11,7.2,15.34,2.52,3.48,7.51,8.28,10.38,7.67,3.77-.8,8.4-5.92,9.31-9.93,1.59-7,1.4-14.7.55-21.94-1.61-13.82,1.8-25.79,12.19-36.51v39.87L740.18,225l1.06,2.66L732.66,232l1.76.74c-1.41,3.62-2.11,7.8-4.4,10.73-3.41,4.34-8,7.76-12,11.66a7.51,7.51,0,0,0-1.73,2.9c-3.19,9.52-6.2,11.63-16,11.25-8.72-.35-17.48-1.14-26.16-.7a19.16,19.16,0,0,0-11.23,4.7c-5.38,5-9.49,11.4-14.64,16.71a21.33,21.33,0,0,1-9.35,5.8c-12,3.05-14,7.64-7.69,17.84,1.64,2.67,2.36,7.05,1.3,9.79-.6,1.54-5.7,1.78-8.78,1.83-5.19.07-10.4-.47-13.88-.66-2.22,9.15-3.64,16.3-5.74,23.25-2.4,8,1.08,13.52,6.69,18.24a12.51,12.51,0,0,0,16,.61c8.1-6,17.19-12.05,22.36-20.28,5.81-9.25,13.42-13.74,22.69-17.15,5.39-2,9.8-.71,13.13,4.17,3.08,4.53,6.32,8.95,9.55,13.37,2.07,2.83,3,5.16-.54,7.93-1,.83-.13,4.1-.12,6.25,5.08-.12,10.53.87,15.14-.66,5-1.65,6.8-7.19,4.88-12s-5.06-9-8.33-12.95c-2.4-2.88-6.19-4.58-8.74-7.37-1.32-1.44-1.29-4.11-1.88-6.22l2.31-.73c15.28,8.44,29.7,17.57,30.91,37.81.1,1.58.72,3.9,1.83,4.5,2.89,1.55,6.24,3.17,9.3,3,1.19-.07,3-4.86,3-7.47-.06-3.76-1.72-7.48-2.61-11.22l2.13-1.4c2.11,1.64,4.82,2.89,6.18,5,4.83,7.51,10.79,12.44,20.28,12.66a69.46,69.46,0,0,1,16.23,2.58c2.42.66,5.8,3,6.06,5s-2.16,5.89-4.24,6.64a92.09,92.09,0,0,1-20.48,5.22c-14.69,1.65-29.53,1.89-44.19,3.68-11.15,1.35-20.28-.16-28.68-8.68-10.14-10.27-22.61-16.06-37.76-12-9.47,2.51-19.35,4-28.34,7.67s-18.93,8-25.64,14.81c-10,10.12-18,22.32-25.85,34.26a51.76,51.76,0,0,0-7.57,39.23c3.18,16.57,10.78,31.05,21.89,43.75,3.12,3.56,8.33,5.82,7.65,12-.08.7,2.31,2.12,3.74,2.49,12.25,3.16,23.82,3.11,34.9-4.83,4-2.9,10.26-4.06,15.39-3.83,6.81.31,13.6,2.5,20.27,4.35,7.5,2.07,11,6.93,11.72,15.12.61,6.92,2.47,14.34,6,20.27,7.83,13.31,9.56,27,7.83,42.08-1.26,11-2.54,22.72-.14,33.28,4.8,21.13,12,41.72,18.48,62.45,1,3.13,2.16,6.2,3.38,9.21a10.58,10.58,0,0,0,14,5.73c8-3.47,15.44-6.72,22.94-9.89a45.87,45.87,0,0,0,23.84-21.86c4.84-9.58,8.53-19.73,13.33-29.33,3.92-7.85,7.32-16.72,13.44-22.52,11.26-10.68,15.87-22.27,12.32-37.29a54.63,54.63,0,0,1-1.27-10c-.47-10,2-18.48,10.15-25.47a399.19,399.19,0,0,0,31.67-30.16c5.28-5.64,9.36-12.7,12.78-19.7,3.29-6.73,3.07-13.84-2.72-19.25-2.13,1.56-3.78,3.75-5.67,4-6.39.8-12.87,1.07-19.32,1.27-15.14.46-20.33-2.72-23.06-17.54-2.83-15.31-10.09-27.54-20.64-38.48-4.63-4.79-8.38-10.43-12.36-15.81-1.31-1.78-2.11-3.94-3.81-7.21,5.27,2.16,9.59,2.89,12.5,5.31,14.3,11.91,24.58,26.24,28.5,45.12,3.42,16.4,12.82,22.12,27.78,16.32,16.64-6.46,32.73-14.56,48.47-23.06,9.53-5.14,11.34-14.21,7-24.26-.91-2.09-2.1-4.06-3.28-6.3,19.61-.07,35.53,5.56,45.73,23.29,7.63,13.25,16.17,26,24.43,38.86a131.49,131.49,0,0,0,9.17,12.78c3.05,3.69,6.71,3.13,8.37-1.13,2.13-5.49,4.22-11.34,4.53-17.13.84-16.26,8.14-29.34,18.72-40.86,12.55-13.66,19.83-13.23,31.08,1.52,5.91,7.76,12.55,14.41,22.06,17.6,7.14,2.39,7.39,7.79,7.43,14.37a58.54,58.54,0,0,0,3.71,20.57c4,10.13,9.2,19.8,14.37,29.4a60.29,60.29,0,0,0,5.89,8.51,2.71,2.71,0,0,0,4.77-1.07c1.92-8.13-1.13-14.53-3.73-21.65-4.26-11.66-7.49-23.71-11.16-35.59l1.91-1.08c4,4.43,7.88,8.94,12,13.28,6.64,7.1,13.74,8,20.14,2.68s7.1-12.77,1.76-20.5c-3.4-4.91-7.74-9.25-10.56-14.45-1.72-3.16-2.54-7.79-1.62-11.17,1.21-4.45,4.47-8.36,7-12.43s5.12-5.05,7.59.14l0,0a4.11,4.11,0,0,0,5.75,1.78c12.6-7.18,22-16.9,27.29-30.43,4.37-11.23,5.16-23-2.27-32.93-6.6-8.85-9-18-8.49-28.73.43-10.19-.57-10.53-10.78-12-1.68-.24-3.8-2.68-4.24-4.46-.33-1.36,1.32-4.18,2.75-4.78,3.38-1.42,6.63-1.58,9,2.81,1.74,3.28,4.31,8.64,9.08,5.73,6.52-4,8.21.2,11,4.3a128.72,128.72,0,0,0,11.13,14.76c1.41,1.56,4.67,1.45,7.08,2.11.27-2.44,1.43-5.23.63-7.25a141.28,141.28,0,0,0-8.84-18.7c-5.89-10.23-2.89-25.22,6.12-28.34,12-4.14,14.2-7,13.77-19.9-.5-15.44-1.56-30.86-2.38-46.29l.88-.22,15.52,33c5-19.7-7.59-47.4-23-52.81-.16,1.85-.31,3.57-.41,4.83-5.11-1.53-10.27-3.21-15.49-4.62-10.26-2.78-13.19-8.46-8.85-18.28s11.33-17,20.14-22.8c2.19-1.45,3.64-4,5.84-5.44,2.9-1.85,6.13-3.67,9.41-4.13.92-.13,2.53,4.57,3.8,7.06.39.78.69,1.61,1,2.37,11.12-3.52,13.52-9.36,8.75-20.48-5-11.65-1.72-20.26,9.14-25.26,1.84,6,3.7,12.1,5.56,18.19l2.15.23,5.45-9.83,2.16.88c-2.5,9.07-4.85,18.18-7.53,27.19-2.58,8.7-3.87,17.2.43,25.81,7,13.92,20,21.88,31.07,32.2a20.54,20.54,0,0,0-.27-8.33c-3.93-18.94-8.24-37.8-11.72-56.82-1.74-9.54,1.71-14.23,11.19-15.71,8.23-1.28,11.66-6.57,12.59-13.49,1-7.49,3.71-13,10.48-16.76,5.17-2.85,6.18-8.39,4.44-13.18-1.36-3.74-5.06-6.75-8.07-9.73-1.18-1.15-3.33-1.33-5.63-2.17,1.31-3.33,2.4-6.11,3.62-9.23,5.43,1.76,10.32,3.55,15.33,4.89,5.27,1.4,9.56-.24,11.65-6.9A17.25,17.25,0,0,0,1294.75,41c-4.07-1.54-8.53-2.26-12.73-3.58-7.69-2.42-15.36-4.95-23-7.51C1253.94,28.19,1248.93,26.34,1243.6,24.46ZM1275,597.8l-3.09.22q-1.25,6-2.51,12c-1.23,5.83-1.68,12-4,17.33-1.34,3-5.71,6.38-8.85,6.52-2.49.12-6.24-4-7.56-7-1.76-4-1.23-8.95-2.57-13.21a13.28,13.28,0,0,0-5.16-7.09c-3-1.76-6.76-2.27-10.28-2.87-8.65-1.49-12.87,1-17.58,8.75a9.25,9.25,0,0,1-6.91,3.73c-8.94-.26-17.29.74-23.77,7.58a104,104,0,0,0-10.62,12.57c-4.85,7.1-11.47,10.28-19.73,11.44-17.3,2.44-23.21,9.43-25.45,27.13-2.28,18-5.46,35.81-8.19,53.71a44.68,44.68,0,0,0,0,5.65c3.87-.39,7.47-.27,10.79-1.17,13.36-3.61,26.54-8,40-11.27,22.1-5.45,40.31,5.33,44.87,26.29,1.17,5.34,1.3,10.9,1.85,16.37,1,10,6.21,15.17,16.28,15.29,10.91.13,20.71-4.22,28.68-11,9.06-7.7,17.11-16.67,25.08-25.56,21.12-23.57,24.74-46,9.83-73.66-9.69-18-17.37-35.86-16.61-56.79C1279.62,607.86,1276.58,602.8,1275,597.8ZM571.94,74c2.59-3.61,7.6-7.85,6.82-10.12-1.36-4-5.77-8.85-9.74-9.78-10.6-2.47-22.26-5.85-32.33-3.62C526,52.83,516,58,504.56,56.28c-.21,0-.46.17-.69.16-3.72-.08-7.81.79-11.1-.45-11.58-4.4-22.48-2.48-33.49,1.81q-11.62,4.53-23.54,8.32c-8.14,2.61-15,10.5-15.15,18.15-.17,7,4.25,12.22,13.43,15.7,2.9,1.1,6.11,1.65,8.7,3.24,4.61,2.83,10.2,5.35,13,9.57,10.22,15.43,15.69,31.37,7.86,50.6-4,9.9-3.8,21.91-3.83,33,0,9.55,4.95,17.88,11.75,24.7,6.48,6.5,13.14,6.52,19.22-.39,3.42-3.88,6.8-8.38,8.39-13.2,4.28-13,13.49-19.88,26-23.28,6.44-1.76,13.16-2.56,19.48-4.64a180.94,180.94,0,0,0,22.88-9.31c2-1,3.92-4.57,3.93-7,0-6.73-.91-13.47-1.53-20.86,8-1.21,8.76-7.89,9.12-16.1.85-18.88,7.13-35.49,23.35-47,2-1.43,3.23-4,4.81-6-3-1.48-6.14-4.46-8.88-4.11-4.81.61-9.41,3.12-14,5.1S575.13,77,571.94,74Zm-214.3,62.59c1.68.69,1.95.91,2.11.85,6-2.36,23.15,2.29,26.81,7.54a93.4,93.4,0,0,1,5.74,9.9c2.76,5.25,1.17,9.36-4,11.84-4.07,2-8.5,3.16-12.62,5-6.23,2.81-7.36,6.28-4.15,12.62,6.2-4.53,9.08.07,12.56,4.34,5.26,6.46,7.5,18.27,20.36,12.52.13-.05.39.28.61.32,8,1.53,13.32-4.5,10.64-12.16-.85-2.44-2.78-4.49-3.64-6.93-.52-1.47.07-3.33.16-5a11,11,0,0,1,4.53,3.33c3.2,3.35,7.57,4.84,10.7,1.45,2-2.18,2.19-6.76,1.91-10.16-.18-2.29-2.63-4.38-4-6.6-5.61-9-11-18.24-16.85-27.11-3.24-4.87-6.75-9.84-11.13-13.62-7.36-6.36-15.76-11.52-23.25-17.75-4.73-3.94-9-7.21-15.25-3.57-5.81,3.42-9.47,11.24-7.51,17.92C353,126.92,355.81,132.2,357.64,136.58Zm103.05-89a43.06,43.06,0,0,0-4.56-3c-20.7-9-42.87-11.31-64.92-13.85-3.6-.41-7.61,2.71-11.43,4.2,3.1,3.24,5.67,7.52,9.44,9.46C394.33,47,400.37,47.88,407.7,50a45.39,45.39,0,0,1-5.41,1.77c-5.76.87-12.66,1.61-14.05,7.89-1.17,5.24-.76,11.9,6.19,15.06,1.18.53,1.37,3.22,2.18,5.34l-19-8.67c-6.78,7.14,1.34,9.79,3.18,14.13-9.39-.58-16.91-4-22-12.39-2.64-4.34-6.45-7.77-12.3-4.78,1.9,24.35,25.39,38.64,44.92,27.21l-3.54-6.5c4.49-1.18,10.62-.89,12.64-3.64,7-9.57,16.49-15,26.89-19.54,7-3.06,14.05-6.07,20.81-9.62C452.29,54.11,455.88,51,460.69,47.61Zm701.55,513.85c1.14-4.93,3.69-10.9,3.64-16.85-.09-10.89,1.09-21.28,4.87-31.51,2.58-7-.17-12.37-6.24-16.29-6.68,4.91-13.27,9.25-19.26,14.31-4.87,4.1-9.81,8.53-13.33,13.75-6.53,9.69-3.79,18.29,6.46,23.78Zm-534-289.59c-2.91,3.4-6,5.77-7.3,8.89-1.19,2.95-1.75,7.71-.15,9.8s6.2,2,9.54,2.3c1.75.17,3.59-1.2,5.41-1.25,7.18-.2,10-4.32,9.21-10.8A72.22,72.22,0,0,0,627,240.2c-1.9-2.13-7.18-3.89-9.06-2.77-2.65,1.58-4.76,6-4.92,9.28-.17,3.66,2.1,7.44,3.27,11a55.61,55.61,0,0,0-7.69,1.08c-9.35,2.6-12.85,12.71-7.24,20.52,4,5.52,11.77,5,14.53-1.1,2.1-4.66,3.78-9.5,5.86-14.82C623.83,266.13,625.93,268.89,628.2,271.87ZM846.91,653.66c2.27-1.84,3.91-4.92,5-7.76,4.23-11.65,8.54-23.3,11.9-35.21,1.15-4.07.24-9.06-.84-13.35-1.37-5.46-5-5.86-8.69-1.44-2.1,2.54-3.7,5.73-6.26,7.63-14,10.35-15.88,25.84-18.27,39.39.15,3.05-.14,4.4.32,5.41M707.07,95.05c3.63-1.33,8-2.53,12-4.52,4.64-2.31,4.81-6.48.79-9a16.91,16.91,0,0,0-11.25-2.1c-4.52.89-8.57,4-12.94,5.85-2.05.87-4.83,2.1-6.51,1.37-5.57-2.39-8.84-.24-10.85,4.57-2.3,5.51-1.19,10.34,4.21,13.58,1.78,1.06,3.73,1.82,5.54,2.68-.07,1.35-.39,2.39-.12,3.23.86,2.65,1.94,5.23,2.94,7.83,2.2-2.21,4.73-4.18,6.48-6.7,1.25-1.8,1.43-4.33,1.65-5H710.4C709.34,103.11,708.29,99.38,707.07,95.05ZM315.57,449.73c12.2,3.65,25.51,1.56,32.55-5.66-2.67-2-5.1-5.25-7.8-5.5-6.81-.62-13.75.13-21.11.34-4.54-12.69-21.95-18.15-36.34-17.48-2.49.12-4.89,2.5-7.32,3.83l.62,2.74c9.41-3.85,15.39,1.28,21.18,7,5.14,5.06,10.19,10.32,18.64,9C315.83,446.23,315.7,448,315.57,449.73ZM578.66,188.24c-5.06,1.42-10.35,2.67-15.44,4.47a5.76,5.76,0,0,0-2.94,4.08c-.72,5.76,4.24,14,9.76,14.07,7.93,0,16.28-.82,23.69-3.44,7.18-2.54,6.86-11.63-.14-15C589.18,190.36,584.08,189.71,578.66,188.24Zm533.85,383.38c0-7.42.27-13.81-.19-20.15-.12-1.71-2.32-4.45-3.85-4.67-8.63-1.23-13.2-7-17.07-13.86-3.15-5.62-6.13-11.38-9.88-16.58a34.87,34.87,0,0,0-7.49-7.86c3.9,8.09,6,15.77,9.07,22.54,3.52,7.83,6.65,15.83,10.13,23.68S1102.26,568.48,1112.51,571.62Zm-726-516c-1-1.83-3-5.51-5.21-9-1.91-3-3.8-6.11-6.39-8.41-2.32-2.06-6.67-5-8.19-4.15-3.21,1.81-7.56,6.23-7.15,8.93,1.35,8.9,4.62,17.54,13,22.73C379.34,69.85,386.25,66,386.52,55.59ZM264.17,48.81c3.33,1.86,5.51,4.11,7.69,4.11,7.93,0,9.29,5.31,9.58,11.21.26,5.29,1.89,10.26,7,11.11s11.08-.13,16.32-1.56c1.14-.31,2.28-7.36.88-8.74a16,16,0,0,0-10.51-4C286,61,284,60,281.38,50.53l8.31-.92C287.83,38.49,286.76,38.43,264.17,48.81ZM1115.86,572c10,18,59.56,28.31,80.69,16.52-3.19-1-5.43-2.24-7.73-2.39-9.78-.66-19.58-1-29.38-1.45-13.77-.6-27.17-2.43-38.66-11.06C1119.65,572.72,1118,572.61,1115.86,572Zm58.2-33.58c-1.66,8.6-3.76,17.07-4.68,25.66-.31,2.86,2.42,6,3.76,9.07,2-2.43,4.09-4.82,6-7.32a8.53,8.53,0,0,0,.85-2.53c8.3,5.22,11.44,4.49,11.83-2.31C1192.35,552,1184.17,541.08,1174.06,538.37ZM835.91,150.93c-3.19-2.57-5.5-4.47-7.84-6.33-9.92-7.89-11.3-16.42-3-26.26C830,112.57,836.2,107.92,842,103c4.44-3.75,9.19-7.15,14.72-11.42-10.38-1.81-18.1,1-23.6,7.25A135.43,135.43,0,0,0,817.77,121C810.88,133.12,819,149.32,835.91,150.93Zm362.2,328.28c4-5.53,4-11.1-1.93-19.18-6.26-8.61-13.06-16.81-19.5-25-6.71,13.75-5,20.38,7.66,28.83,2.78,1.86,5.89,3.5,8.05,5.94C1194.74,472.43,1196.18,475.92,1198.11,479.21ZM1097.74,23.08l2.66-2.66c-2-.64-3.89-1.41-5.88-1.88-6.84-1.59-18.15,3.27-20.76,9.86-1.34,3.38-.43,7.65-.53,11.51,3.21-.06,6.63.59,9.58-.31C1090.6,37.22,1097.78,28.82,1097.74,23.08ZM355.84,167.59l-1.38-2c-5.43,2.57-11.38,4.43-16.13,7.92-4.92,3.62-1.62,8.27,1.06,12,2.81,3.88,6,3.33,8.85-.16,3.5-4.32,6.73-3.55,10.09.19a29.82,29.82,0,0,0,4.25,3.28C368.83,178.43,353,176.09,355.84,167.59ZM332.59,94.2l1.84.14c-1.58-7.1-4.83-8.6-10.84-5.44-5.3,2.79-7.45,7.18-6.66,12.77.36,2.55,2.22,4.89,3.4,7.32,2.32-1.85,5-3.39,6.84-5.65C329.37,100.61,330.81,97.27,332.59,94.2ZM786,63.86c-4,4.1-8.49,6.57-8.83,9.52-.58,5.09,4.6,7.65,8.86,6.78,2.87-.59,6.25-4.31,7-7.26C793.49,71.1,789.45,68.12,786,63.86ZM313.43,37.65c-3.17-.44-7.14-2.14-8.43-.94-3.06,2.83-5,7-6.93,10.8-.2.4,2.44,2.82,4.07,3.33,1,.3,2.92-1,3.78-2.09C308.14,45.91,310,42.79,313.43,37.65ZM326,42.76c4.29,6.15,6.93,10.15,9.84,13.94.75,1,2.78,2.08,3.46,1.71,1.19-.64,2.75-2.63,2.49-3.6-.94-3.44-1.76-7.62-4.19-9.75C335.41,43.18,331.19,43.65,326,42.76Zm761,.35c1.73,4.85,4.64,8.58,9.77,6,2.31-1.19,4.9-7.28,4-8.35C1095.57,34.47,1091.8,41.6,1087,43.11Zm34.51-21-.33-2.73c-2.12-.81-4.19-2.12-6.36-2.33-4.34-.42-7.84,1.38-7.71,6.21,0,1.41,3.31,4.18,4.34,3.86C1115,26,1118.19,23.85,1121.52,22.09Zm-814,109.33,7.5,6.52c1.49-2.12,4.14-4.24,4.14-6.35s-2.65-4.24-4.13-6.36Zm859.41,281.31,2.68-.3c4.3-.49,2.05-11.19,1.1-13.42a4.14,4.14,0,0,0-3.14-2.14c-1,.06-2.9,1.67-2.82,2.44C1165.2,403.81,1166.13,408.26,1166.91,412.73ZM358.19,57.32c-2.82-2.2-4.59-4.41-6.75-4.88-1-.23-4.19,3.38-3.85,4.48.84,2.82,3.12,5.21,4.83,7.76ZM313.72,87.56c-2.76-2-4.7-4.17-5.57-3.81-2,.83-4.41,2.72-4.79,4.56-.26,1.26,2.8,4.62,4,4.46C309.3,92.52,310.9,90,313.72,87.56Z"/><path class="cls-2" d="M0,179.7c13.93-5,27.8-10.11,41.8-14.86,9-3.05,12.34-8.78,6.45-16-9.71-12-4.62-23.53-1-35.07,1-3.22,5.78-5.8,9.38-7.52,3.26-1.56,7.27-1.56,13.12-2.65-3.24-2.79-4.93-4.14-6.5-5.62-2.07-1.94-5-3.65-5.82-6-1.12-3.13-1.79-7.47-.4-10.1,1-2,5.6-2.79,8.64-2.92,3.68-.16,7.42.94,11.7,1.59-.12-1.66-.13-2.78-.28-3.89-2-14.76,4.88-25.75,19.23-30.11,13.06-4,25.93-2.63,37.37,4.44,9,5.6,17.16,12.78,25.35,19.67a60.47,60.47,0,0,1,9.51,10.72c8.47,11.54,18.7,16.07,33.33,12.09,7.25-2,15.61-.56,23.36.27a18.78,18.78,0,0,1,10.19,4.85c9,8.65,17.58,17.84,26.28,26.86,3.79,3.94,7.49,8,11.71,12.46,2.34-4.92,4.34-9.14,6.63-13.94-11,2.4-17.38-4.85-24-11.19-1.7-1.64-2.16-5-2.38-7.65-.22-2.8.71-5.67.82-8.53.16-3.93-1.35-5.53-5.73-4.58-7.94,1.71-12.64-3.25-10.15-10.9A33.21,33.21,0,0,1,245,70c5.59-6.52,13.1-5.89,16.78,1.91,4.05,8.57,10.56,13.52,19.1,16,14.26,4.13,19.13,16.53,25,27.9,2.69,5.26-1.63,7.53-6.12,7.73-3.94.17-7.92-.8-12.69-1.35,6.86,9.89,16.19,14.73,26.87,17,5.53,1.17,9.36-1.52,9.56-7.7.12-3.82-.9-8,.22-11.41,1.26-3.88,3.89-9.67,6.75-10.2,5.74-1.08,7.09,5.09,8.32,9.68.54,2,.21,4.28.25,6.43.05,3.35-.13,6.72.17,10.05,1,11.33,5.24,13.2,14.69,6.73a22.47,22.47,0,0,1,6.91-3.59c6.19-1.54,9.15,1.45,8,7.65-2.12,11.83-6.39,15.43-18.69,16.55a19.37,19.37,0,0,0-8.79,3c-13.13,8.58-25.83,17.84-39.19,26-6.42,4-6.46,8.7-3.59,13.77,3.14,5.55,7.32,10.57,11.52,15.42s9.06,9.21,13.55,13.84c4.11,4.24,5.74,9.11,4.38,15.11-.64,2.83-.11,5.93,1.5,9.61,5.68-12.35,17.92-15.4,27-22.35,4.78-3.66,5.56-7.74,1.54-12.88-6-7.67-5.71-11.44.45-19,3.92-4.79,8-9.48,12.08-14.4,1.91.29,4.19.73,6.5,1,8.77,1,11.38,3.43,13.34,12.21a86.71,86.71,0,0,0,3.21,11.72c1.71,4.56,4.34,6.21,8.27,1.65,1.6-1.85,3.86-3.14,6.7-5.38.91,2.81,1.71,4.46,1.95,6.18,2.63,19.19,9.31,36.95,18,54.18,2,4,1.48,9.44,1.68,14.23.15,3.46-.42,6.94-.68,10.54-9.59,2.78-18.64-1.26-18.86-8.67-9.7,2.92-12,1.77-15.52-7.83a30.41,30.41,0,0,0-4.81.67c-2.51.72-4.93,1.74-7.34,2.62,1.58,7.4,4.66,13.24,11.09,17.51,3.85,2.55,3.55,6.73-.71,9.39-5.65,3.53-11.15,7.12-18.63,4.8-6.69-2.08-12.61-.42-16.87,6-1.48,2.23-4.37,5.05-6.57,5-8.22-.14-10.58,6.07-13.79,11.35-2.48,4.07-4.42,8.47-6.52,12.77a30.45,30.45,0,0,1-16.88,15.64c-14.26,5.66-18.32,12.56-18.11,28.24.08,6.07,0,12.15,0,18.22l-3.74,1c-1.76-3.11-4.79-6.11-5.05-9.34-1.14-14-10.8-20.7-25.56-20.1a91.8,91.8,0,0,0-19,3c-10.5,2.74-17.57,9.6-20.35,20.2a100.44,100.44,0,0,0-3.53,19c-.55,9.2,4.49,13,13.19,10.08,5.14-1.72,9.83-4.8,14.77-7.17,4.11-2,8.52-4.51,12.41-.06,4.15,4.75,1.19,8.86-2,12.68-1.24,1.47-2.6,2.83-3.75,4.35-5,6.55-3.91,9.93,3.73,12.24,8.42,2.55,14.21,7.36,15.67,16.65,2.42,15.35,13.75,20.77,27.89,13.29,5.48-2.9,10.61-6.47,15.86-9.81,9.59-6.09,19.34-6.67,29-.44,9.24,6,18,12.73,27.41,18.3,7.68,4.53,16,8,24.22,11.54,4.54,1.95,9.82,2.36,14.11,4.68,5.32,3.12,0,7.68,7.81,15.66,3.37,3.47,1.09,7.86,4.75,9.23a221.27,221.27,0,0,0,23.79,7.27c6.24,1.56,12.77,1.94,19.05,3.37,9.51,2.17,16.08,8,19.75,17.12,2.73,6.79,2.33,13.06-2.44,18.83-2.28,2.77-4.44,5.65-6.8,8.35a33.79,33.79,0,0,0-8.45,23.42c.15,4.4,0,8.82-.2,13.21q-.75,14.51-13.81,21.06c-4.27,2.15-9.06,3.94-12.34,7.18a56.71,56.71,0,0,0-10.05,14.31c-3.37,6.55-5.42,13.76-8.61,20.41s-7.63,12.68-15.26,15.36c-1.87.65-3.37,2.32-5.47,3.82l3.21,3.63c7.17,8.11,5.21,15.74-5.22,17.81-8.09,1.61-11.35,7-16.21,12.87a38.2,38.2,0,0,0-9,22.21c-.27,3.08,2.72,6.38,4,9.66.8,2.06,2.21,4.62,1.62,6.37-6.69,19.67-.32,39.21,16.86,51.66,1.9,1.38,2.7,4.26,4,6.44-2.5.47-5.29,1.91-7.44,1.25-27.63-8.5-42.81-29-50.09-55.45-9.9-36-15.07-72.58-9.41-110,4-26.31-4.07-48.07-24.75-65.09-6.65-5.47-13.25-11.07-19.31-17.16-17.22-17.32-19.78-36.52-8.79-58.33,4.48-8.9,8.08-18.25,12-27.43a7.14,7.14,0,0,0,0-2.69c-.65-.31-1.11-.74-1.5-.68-15.41,2.26-24.55-6.64-33.65-17.39-13.91-16.43-30.32-29.75-51.94-35.42-5.89-1.54-11.48-4.72-16.8-7.85-6.95-4.08-9.87-10.95-12.58-18.45-6.65-18.39-14.3-36.42-21.61-54.57-.33-.8-1.1-1.42-2.35-2.72a.54.54,0,0,0-.93.3c-2.15,18.53,10.95,33.7,6.53,51.56a50.36,50.36,0,0,1-3-5,288.83,288.83,0,0,1-25.08-93c-1.15-11.47.81-22.77,6.68-32.57,13.55-22.61,10.65-46.49,6.5-70.45s-13.43-45.75-31-63.42c-6-6-11.94-7.77-19.91-4.19-8.32,3.73-10.42,2-10.7-9.19-2.23,3-4.19,4.7-4.94,6.83-3,8.41-9.86,11.95-17.52,14.53-19.32,6.52-37.78,12.67-55.67,18.59h0A3.67,3.67,0,0,1,0,181.33Z"/><path class="cls-2" d="M1243.67,24.36a.09.09,0,0,0,0,.14c5.28,1.87,10.26,3.7,15.29,5.39,7.65,2.56,15.32,5.09,23,7.51,4.37,1.38,9,2.1,13.23,3.77a17.15,17.15,0,0,1,10.08,20.64c-2,7.18-6.4,9-11.83,7.53-5-1.33-9.85-3.11-15.24-4.86a.11.11,0,0,0-.13.06c-1.19,3-2.26,5.79-3.54,9a.11.11,0,0,0,.07.14c2.26.81,4.36,1,5.52,2.13,3,3,6.71,6,8.07,9.73,1.74,4.79.73,10.33-4.44,13.18-6.77,3.74-9.49,9.27-10.48,16.76-.93,6.92-4.36,12.21-12.59,13.49-9.48,1.48-12.93,6.17-11.19,15.71,3.48,19,7.79,37.88,11.72,56.82a20.68,20.68,0,0,1,.3,8.14.1.1,0,0,1-.17.06c-11.06-10.26-24-18.2-30.93-32.07-4.3-8.61-3-17.11-.43-25.81s4.89-17.58,7.31-26.38l-2.34-1-4.94,8.88-2.33-.24-5.45-17.86a.11.11,0,0,0-.15-.06c-10.78,5-14,13.6-9,25.21,4.75,11.09,2.39,16.93-8.66,20.45a.1.1,0,0,1-.13,0c-.31-.74-.6-1.54-1-2.29-1.27-2.49-2.88-7.19-3.8-7.06-3.28.46-6.51,2.28-9.41,4.13-2.2,1.41-3.65,4-5.84,5.44-8.81,5.79-15.87,13.12-20.14,22.8s-1.41,15.5,8.85,18.28c5.18,1.4,10.3,3.06,15.37,4.58a.08.08,0,0,0,.12-.08c.11-1.21.25-2.83.4-4.58a.11.11,0,0,1,.14-.09c15.29,5.49,27.77,32.86,23,52.49a.1.1,0,0,1-.19,0l-15.18-32.26-1.07.26c.81,15.26,1.86,30.52,2.35,45.78.43,12.94-1.82,15.76-13.77,19.9-9,3.12-12,18.11-6.12,28.34a141.28,141.28,0,0,1,8.84,18.7c.79,2-.33,4.73-.62,7.14a.1.1,0,0,1-.12.08c-2.4-.62-5.58-.54-7-2.08A128.72,128.72,0,0,1,1168,325.6c-2.75-4.1-4.44-8.28-11-4.3-4.77,2.91-7.34-2.45-9.08-5.73-2.33-4.39-5.58-4.23-9-2.81-1.43.6-3.08,3.42-2.75,4.78.44,1.78,2.56,4.22,4.24,4.46,10.21,1.45,11.21,1.79,10.78,12-.46,10.72,1.89,19.88,8.49,28.73,7.43,10,6.64,21.7,2.27,32.93-5.27,13.53-14.69,23.25-27.29,30.43a4.11,4.11,0,0,1-5.75-1.78l0,0c-2.47-5.19-5-4.27-7.59-.14s-5.76,8-7,12.43c-.92,3.38-.1,8,1.62,11.17,2.82,5.2,7.16,9.54,10.56,14.45,5.34,7.73,4.58,15.25-1.76,20.5s-13.5,4.42-20.14-2.68c-4-4.23-7.77-8.61-11.65-12.93l-2.07,1.17c3.61,11.74,6.81,23.63,11,35.15,2.84,7.79,6.76,6.55,3.6,21.8-.4,1.91-3.19,2.73-4.39,1.2a61.91,61.91,0,0,1-6.14-8.79c-5.17-9.6-10.41-19.27-14.37-29.4a58.54,58.54,0,0,1-3.71-20.57c0-6.58-.29-12-7.43-14.37-9.51-3.19-16.15-9.84-22.06-17.6-11.25-14.75-18.53-15.18-31.08-1.52-10.58,11.52-17.88,24.6-18.72,40.86-.31,5.79-2.4,11.64-4.53,17.13-1.66,4.26-5.32,4.82-8.37,1.13a131.49,131.49,0,0,1-9.17-12.78c-8.26-12.88-16.8-25.61-24.43-38.86-10.2-17.73-26.12-23.36-45.73-23.29,1.18,2.24,3.37.32,4.28,2.41,4.36,10,1.55,23-8,28.15-15.74,8.5-31.83,16.6-48.47,23.06-15,5.8-24.36.08-27.78-16.32-3.92-18.88-14.2-33.21-28.5-45.12-2.86-2.38-7.09-3.12-12.24-5.21a.11.11,0,0,0-.13.15c1.61,3.13,2.4,5.23,3.68,7,4,5.38,7.73,11,12.36,15.81,10.55,10.94,17.81,23.17,20.64,38.48,2.73,14.82,7.92,18,23.06,17.54,6.45-.2,12.93-.47,19.32-1.27,1.87-.24,3.51-2.38,5.6-3.94a.1.1,0,0,1,.13,0c5.73,5.4,5.94,12.49,2.66,19.19-3.42,7-7.5,14.06-12.78,19.7a399.19,399.19,0,0,1-31.67,30.16c-8.16,7-10.62,15.49-10.15,25.47a54.63,54.63,0,0,0,1.27,10c3.55,15-1.06,26.61-12.32,37.29-6.12,5.8-9.52,14.67-13.44,22.52-4.8,9.6-8.49,19.75-13.33,29.33a45.87,45.87,0,0,1-23.84,21.86c-7.29,3.08-14.55,6.24-22.28,9.6a11.26,11.26,0,0,1-15-6.11c-1.13-2.8-2.2-5.64-3.11-8.54C709,668.73,701.8,648.14,697,627c-2.4-10.56-1.12-22.28.14-33.28,1.73-15.06,0-28.77-7.83-42.08-3.49-5.93-5.35-13.35-6-20.27-.72-8.19-4.22-13-11.72-15.12-6.67-1.85-13.46-4-20.27-4.35-5.13-.23-11.34.93-15.39,3.83-11.08,7.94-22.65,8-34.9,4.83-1.43-.37-3.82-1.79-3.74-2.49.68-6.2-4.53-8.46-7.65-12-11.11-12.7-18.71-27.18-21.89-43.75a51.76,51.76,0,0,1,7.57-39.23c7.87-11.94,15.89-24.14,25.85-34.26,6.71-6.8,16.52-11.1,25.64-14.81s18.87-5.16,28.34-7.67c15.15-4,27.62,1.77,37.76,12,8.4,8.52,17.53,10,28.68,8.68,14.66-1.79,29.5-2,44.19-3.68a92.09,92.09,0,0,0,20.48-5.22c2.08-.75,4.52-4.57,4.24-6.64s-3.64-4.33-6.06-5A69.46,69.46,0,0,0,768.25,364c-9.49-.22-15.45-5.15-20.28-12.66-1.31-2.05-3.88-3.28-6-4.84l-2.3,1.51c.91,3.65,2.49,7.28,2.55,10.94,0,2.61-1.78,7.4-3,7.47-3.06.17-6.41-1.45-9.3-3-1.11-.6-1.73-2.92-1.83-4.5-1.2-20.22-15.61-29.35-30.87-37.79a.08.08,0,0,0-.08,0l-2.18.69a.09.09,0,0,0-.06.12c.55,2.1.55,4.71,1.85,6.13,2.55,2.79,6.34,4.49,8.74,7.37,3.27,3.93,6.47,8.25,8.33,12.95s.12,10.38-4.88,12c-4.58,1.52-10,.55-15,.65a.08.08,0,0,1-.1-.09c0-2.15-.9-5.33.12-6.15,3.5-2.77,2.61-5.1.54-7.93-3.23-4.42-6.47-8.84-9.55-13.37-3.33-4.88-7.74-6.15-13.13-4.17-9.27,3.41-16.88,7.9-22.69,17.15-5.17,8.23-14.26,14.28-22.36,20.28a12.51,12.51,0,0,1-16-.61c-5.61-4.72-9.09-10.27-6.69-18.24,2.09-6.93,3.51-14.06,5.72-23.17a.11.11,0,0,1,.1-.08c3.48.2,8.65.73,13.8.66,3.08-.05,8.18-.29,8.78-1.83,1.06-2.74.34-7.12-1.3-9.79-6.29-10.2-4.31-14.79,7.69-17.84a21.33,21.33,0,0,0,9.35-5.8c5.15-5.31,9.26-11.68,14.64-16.71a19.16,19.16,0,0,1,11.23-4.7c8.68-.44,17.44.35,26.16.7,9.83.38,12.84-1.73,16-11.25a7.51,7.51,0,0,1,1.73-2.9c4-3.9,8.56-7.32,12-11.66,2.27-2.91,3-7,4.37-10.64a.1.1,0,0,0,0-.13l-1.68-.7,7.57-3.84-1.13-2.85-19.66,5.87a.11.11,0,0,1-.14-.1V191.65a.1.1,0,0,0-.17-.07c-10.26,10.66-13.62,22.58-12,36.32.85,7.24,1,14.92-.55,21.94-.91,4-5.54,9.13-9.31,9.93-2.87.61-7.86-4.19-10.38-7.67-3.11-4.3-4.67-9.72-7.14-15.22a.11.11,0,0,0-.16,0,16.78,16.78,0,0,1-3.37,2.51c-3.3,1.33-7.53,4.2-9.84,3.13-2.89-1.34-6-6-5.92-9.24a155.48,155.48,0,0,1,3.42-28.84c.53-2.52,5.25-5.43,8.38-5.88,12-1.71,13.74-2.61,17.26-14.54a31.46,31.46,0,0,1,16.44-19.78c24.77-13,60.46-9.2,78.07,10.05,4,4.41,20.53,3.19,25.78-2.89,6.36-7.35,14.41-9.63,23.07-11.72,4.13-1,9.38-1.23,9-8.11,0-.66,5.94-2.71,8.81-2.24,3.34.56,6.24,3.39,9.49,4.88,7.2,3.3,11,1.09,10.19-6.62-.7-6.58-2.88-13-4.48-19.48-.45-1.85-1.56-3.64-1.6-5.47a89.07,89.07,0,0,1,.77-9.47.1.1,0,0,1,.14-.08c3.7,1.51,9.55,2.17,10.58,4.75,6,15,15.63,29.55,8.66,47-.14.35.12.84,1.62,1.79a.11.11,0,0,0,.16-.05l6.9-18.87a.09.09,0,0,1,.13-.06l4.7,2.36a.1.1,0,0,0,.12-.15c-2.92-3.2-7-6.65-9.44-11s-2.9-9.65-4.3-14.78a.11.11,0,0,1,0-.1c7.67-7.18,11.65-6.71,17.08,2.81,3.44,6,7,10.2,15.17,7.29,6.25-2.22,7.64-3.63,3.19-8.32a137.56,137.56,0,0,0-16.34-15c-4.17-3.17-3.83-5.41.25-7.2,11.51-5,19-13.57,25.28-24.29,2.92-5,9.75-8,15.34-10.85,5-2.56,10.7-3.7,16.07-5.45a.09.09,0,0,0,.06-.12C958,53.42,953.7,50.25,943.56,49c-9-1.13-17.87-2.84-26.8-4.3a.11.11,0,0,1-.08-.07l-.75-2.82a.11.11,0,0,1,0-.11c2.32-1.86,4.39-4.68,7-5.37,12.16-3.19,24.08-3.39,34.76,4.95,8.07,6.3,8.19,6.24,6.45,19.82a.11.11,0,0,0,.17.1c2.7-1.74,4.94-3.35,7.34-4.66,2.92-1.59,6.08-4.22,9-4,4.61.29,10.47,1.27,13.28,4.3,3.47,3.76.67,9-2.84,12.76-2.45,2.63-5.12,5.13-7.1,8.08-1.27,1.88-1.5,4.46-2.17,6.74a.1.1,0,0,0,.08.12,72.71,72.71,0,0,0,9,1.86c1.17.11,2.73-1,3.7-2,10.88-10.94,24.43-12.86,39-11.55a.1.1,0,0,0,.08-.17L1031.31,70a.11.11,0,0,1,0-.16c3.15-1.66,6.37-3.19,9.41-5,7.7-4.63,12.12-3.93,18,3.08s5.94,7.08,14.76,6.85a.11.11,0,0,1,.1.08c.37,1.58.77,3.25,1.2,5.06a.12.12,0,0,0,.1.09c7.76.27,11.17-6,16.19-9.65,5.5-4,8.7-8.53,4.62-17.53a.1.1,0,0,1,.11-.14c8.73.93,15.84.79,22.38,2.67a26.84,26.84,0,0,0,20-1.57c13.27-6.38,26.87-8.91,41.73-6.4,17,2.86,32.74-.94,46.19-12.62,3.49-3,7.92-5,11.63-7.26a.1.1,0,0,0,0-.17c-2.44-1.7-5.69-3-7.1-5.37-1.52-2.54-2.3-6.49-1.48-9.26,1.71-5.86,9-7.07,15.45-1.94C1250.6,15.46,1246,20.47,1243.67,24.36Zm-485.09,314a.1.1,0,0,0,.1.09c11,0,20.73.16,30.43-.06a117.24,117.24,0,0,0,18.37-1.51c2-.36,3.48-3.35,5.19-5.19a.09.09,0,0,0,0-.13c-1.59-1.52-2.94-3.54-4.83-4.43-8.78-4.15-17.65-8-18.67-20.14A.1.1,0,0,0,789,307a21.59,21.59,0,0,0-2.81,2.59c-2.62,3.82-4.56,10.07-7.88,10.9-3.64.92-8.51-3.19-12.88-5-4.88-2.08-7.6,0-7.7,4.89C757.6,326.16,758.24,332,758.58,338.39Zm128.57,74.05a.1.1,0,0,0,0-.18c-6.57-4.55-12.26-8.33-17.78-12.35-4.64-3.38-7.91-1.6-10.76,2.39s-.83,7,2.34,9.78C869.21,419.28,877.59,416.17,887.15,412.44ZM785.21,185.15l-28.79-1.56-.52,1.93c5.61,2.79,11,6.11,16.89,8.16,8.22,2.88,11.57.21,12.51-8.41A.1.1,0,0,0,785.21,185.15Z"/><path class="cls-2" d="M1275,597.8c1.56,5,4.6,10.06,4.42,15-.76,20.93,6.92,38.78,16.61,56.79,14.91,27.7,11.29,50.09-9.83,73.66-8,8.89-16,17.86-25.08,25.56-8,6.78-17.77,11.13-28.68,11-10.07-.12-15.27-5.3-16.28-15.29-.55-5.47-.68-11-1.85-16.37-4.56-21-22.77-31.74-44.87-26.29-13.43,3.32-26.61,7.66-40,11.27-3.32.9-6.92.78-10.79,1.17a44.68,44.68,0,0,1,0-5.65c2.73-17.9,5.91-35.75,8.19-53.71,2.24-17.7,8.15-24.69,25.45-27.13,8.26-1.16,14.88-4.34,19.73-11.44a104,104,0,0,1,10.62-12.57c6.48-6.84,14.83-7.84,23.77-7.58a9.25,9.25,0,0,0,6.91-3.73c4.71-7.71,8.93-10.24,17.58-8.75,3.52.6,7.33,1.11,10.28,2.87a13.28,13.28,0,0,1,5.16,7.09c1.34,4.26.81,9.21,2.57,13.21,1.32,3,5.07,7.1,7.56,7,3.14-.14,7.51-3.47,8.85-6.52,2.34-5.33,2.79-11.5,4-17.33q1.27-6,2.51-12Z"/><path class="cls-2" d="M571.94,74c3.19,3,7.6,2.29,12.3.25s9.18-4.49,14-5.1c2.74-.35,5.91,2.63,8.88,4.11-1.58,2-2.8,4.58-4.81,6-16.22,11.54-22.5,28.15-23.35,47-.36,8.21-1.13,14.89-9.12,16.1.62,7.39,1.58,14.13,1.53,20.86,0,2.41-1.89,6-3.93,7a180.94,180.94,0,0,1-22.88,9.31c-6.32,2.08-13,2.88-19.48,4.64-12.47,3.4-21.68,10.3-26,23.28-1.59,4.82-5,9.32-8.39,13.2-6.08,6.91-12.74,6.89-19.22.39-6.8-6.82-11.77-15.15-11.75-24.7,0-11.06-.2-23.07,3.83-33,7.83-19.23,2.36-35.17-7.86-50.6-2.8-4.22-8.39-6.74-13-9.57-2.59-1.59-5.8-2.14-8.7-3.24-9.18-3.48-13.6-8.68-13.43-15.7.18-7.65,7-15.54,15.15-18.15q11.89-3.8,23.54-8.32c11-4.29,21.91-6.21,33.49-1.81,3.29,1.24,7.38.37,11.1.45.23,0,.48-.19.69-.16C516,58,526,52.83,536.69,50.47c10.07-2.23,21.73,1.15,32.33,3.62,4,.93,8.38,5.76,9.74,9.78C579.54,66.14,574.53,70.38,571.94,74Z"/><path class="cls-2" d="M357.64,136.58c-1.83-4.38-4.6-9.66-6.24-15.26-2-6.68,1.7-14.5,7.51-17.92,6.21-3.64,10.52-.37,15.25,3.57,7.49,6.23,15.89,11.39,23.25,17.75,4.38,3.78,7.89,8.75,11.13,13.62,5.87,8.87,11.24,18.07,16.85,27.11,1.37,2.22,3.82,4.31,4,6.6.28,3.4.11,8-1.91,10.16-3.13,3.39-7.5,1.9-10.7-1.45a11,11,0,0,0-4.53-3.33c-.09,1.68-.68,3.54-.16,5,.86,2.44,2.79,4.49,3.64,6.93,2.68,7.66-2.69,13.69-10.64,12.16-.22,0-.48-.37-.61-.32-12.86,5.75-15.1-6.06-20.36-12.52-3.48-4.27-6.36-8.87-12.56-4.34-3.21-6.34-2.08-9.81,4.15-12.62,4.12-1.86,8.55-3.06,12.62-5,5.14-2.48,6.73-6.59,4-11.84a93.4,93.4,0,0,0-5.74-9.9c-3.66-5.25-20.82-9.9-26.81-7.54C359.59,137.49,359.32,137.27,357.64,136.58Z"/><path class="cls-2" d="M460.69,47.61c-4.81,3.38-8.4,6.5-12.49,8.64-6.76,3.55-13.81,6.56-20.81,9.62-10.4,4.54-19.86,10-26.89,19.54-2,2.75-8.15,2.46-12.64,3.64l3.54,6.5c-19.53,11.43-43-2.86-44.92-27.21,5.85-3,9.66.44,12.3,4.78,5.11,8.39,12.63,11.81,22,12.39-1.84-4.34-10-7-3.18-14.13l19,8.67c-.81-2.12-1-4.81-2.18-5.34-6.95-3.16-7.36-9.82-6.19-15.06,1.39-6.28,8.29-7,14.05-7.89A45.39,45.39,0,0,0,407.7,50c-7.33-2.11-13.37-3-18.48-5.59-3.77-1.94-6.34-6.22-9.44-9.46,3.82-1.49,7.83-4.61,11.43-4.2,22.05,2.54,44.22,4.89,64.92,13.85A43.06,43.06,0,0,1,460.69,47.61Z"/><path class="cls-2" d="M1162.24,561.46l-23.86-12.81c-10.25-5.49-13-14.09-6.46-23.78,3.52-5.22,8.46-9.65,13.33-13.75,6-5.06,12.58-9.4,19.26-14.31,6.07,3.92,8.82,9.31,6.24,16.29-3.78,10.23-5,20.62-4.87,31.51C1165.93,550.56,1163.38,556.53,1162.24,561.46Z"/><path class="cls-2" d="M628.2,271.87c-2.27-3-4.37-5.74-6.43-8.43-2.08,5.32-3.76,10.16-5.86,14.82-2.76,6.12-10.57,6.62-14.53,1.1-5.61-7.81-2.11-17.92,7.24-20.52a55.61,55.61,0,0,1,7.69-1.08c-1.17-3.61-3.44-7.39-3.27-11,.16-3.3,2.27-7.7,4.92-9.28,1.88-1.12,7.16.64,9.06,2.77a72.22,72.22,0,0,1,17.89,40.61c.75,6.48-2,10.6-9.21,10.8-1.82.05-3.66,1.42-5.41,1.25-3.34-.32-8-.26-9.54-2.3s-1-6.85.15-9.8C622.16,277.64,625.29,275.27,628.2,271.87Z"/><path class="cls-2" d="M829.7,642.92c2.39-13.55,4.3-29,18.27-39.39,2.56-1.9,4.16-5.09,6.26-7.63,3.65-4.42,7.9-8,9.27-2.53,1.08,4.29,2.36,12.33.26,17.32-3.36,11.91-7.67,23.56-11.9,35.21-1,2.84-2.68,5.92-5,7.76a44.13,44.13,0,0,1-8.21,4.77,3.35,3.35,0,0,1-4.48-1.5c-1.44-2.85-2.89-5.69-4.2-8.6C829.56,647.32,829.85,646,829.7,642.92Z"/><path class="cls-2" d="M707.07,95.05c1.22,4.33,2.27,8.06,3.33,11.79H699.05c-.22.71-.4,3.24-1.65,5-1.75,2.52-4.28,4.49-6.48,6.7-1-2.6-2.08-5.18-2.94-7.83-.27-.84,0-1.88.12-3.23-1.81-.86-3.76-1.62-5.54-2.68-5.4-3.24-6.51-8.07-4.21-13.58,2-4.81,5.28-7,10.85-4.57,1.68.73,4.46-.5,6.51-1.37,4.37-1.86,8.42-5,12.94-5.85a16.91,16.91,0,0,1,11.25,2.1c4,2.48,3.85,6.65-.79,9C715.1,92.52,710.7,93.72,707.07,95.05Z"/><path class="cls-2" d="M315.57,449.73c.13-1.71.26-3.5.42-5.71-8.45,1.28-13.5-4-18.64-9-5.79-5.7-11.77-10.83-21.18-7l-.62-2.74c2.43-1.33,4.83-3.71,7.32-3.83,14.39-.67,31.8,4.79,36.34,17.48,7.36-.21,14.3-1,21.11-.34,2.7.25,5.13,3.52,7.8,5.5C341.08,451.29,327.77,453.38,315.57,449.73Z"/><path class="cls-2" d="M578.66,188.24c5.42,1.47,10.52,2.12,14.93,4.22,7,3.33,7.32,12.42.14,15C586.32,210,578,210.91,570,210.86c-5.52,0-10.48-8.31-9.76-14.07a5.76,5.76,0,0,1,2.94-4.08C568.31,190.91,573.6,189.66,578.66,188.24Z"/><path class="cls-2" d="M1112.51,569.56a1.48,1.48,0,0,1-2,1.4c-9-3.26-14-8.83-17.3-16.24-3.48-7.85-6.61-15.85-10.13-23.68-2.85-6.37-5.14-13.14-8.74-20.59a.4.4,0,0,1,.58-.5,26,26,0,0,1,6.58,6.41c3.75,5.2,6.73,11,9.88,16.58,3.87,6.89,8.44,12.63,17.07,13.86,1.53.22,3.73,3,3.85,4.67C1112.74,557.21,1112.55,563,1112.51,569.56Z"/><path class="cls-2" d="M386.52,55.59c-.27,10.36-7.18,14.26-13.92,10.1-8.4-5.19-11.67-13.83-13-22.73-.41-2.7,3.94-7.12,7.15-8.93,1.52-.86,5.87,2.09,8.19,4.15,2.59,2.3,4.48,5.45,6.39,8.41C383.55,50.08,385.48,53.76,386.52,55.59Z"/><path class="cls-2" d="M264.17,48.81c22.59-10.38,23.66-10.32,25.52.8l-8.31.92C284,60,286,61,295.16,60.9a16,16,0,0,1,10.51,4c1.4,1.38.26,8.43-.88,8.74-5.24,1.43-11.05,2.43-16.32,1.56s-6.77-5.82-7-11.11c-.29-5.9-1.65-11.2-9.58-11.21C269.68,52.92,267.5,50.67,264.17,48.81Z"/><path class="cls-2" d="M1115.86,572c2.11.66,3.79.77,4.92,1.62,11.49,8.63,24.89,10.46,38.66,11.06,9.8.43,19.6.79,29.38,1.45,2.3.15,4.54,1.37,7.73,2.39C1175.42,600.26,1125.81,590,1115.86,572Z"/><path class="cls-2" d="M1174.06,538.37c10.11,2.71,18.29,13.67,17.79,22.57-.39,6.8-3.53,7.53-11.83,2.31a8.53,8.53,0,0,1-.85,2.53c-1.94,2.5-4,4.89-6,7.32-1.34-3-4.07-6.21-3.76-9.07C1170.3,555.44,1172.4,547,1174.06,538.37Z"/><path class="cls-2" d="M835.91,150.93c-16.92-1.61-25-17.81-18.14-29.89a135.43,135.43,0,0,1,15.37-22.22c5.5-6.28,13.22-9.06,23.6-7.25C851.21,95.84,846.46,99.24,842,103c-5.82,4.93-12.07,9.58-16.95,15.35-8.3,9.84-6.92,18.37,3,26.26C830.41,146.46,832.72,148.36,835.91,150.93Z"/><path class="cls-2" d="M1198.11,479.21c-1.93-3.29-3.37-6.78-5.72-9.44-2.16-2.44-5.27-4.08-8.05-5.94-12.66-8.45-14.37-15.08-7.66-28.83,6.44,8.22,13.24,16.42,19.5,25C1202.06,468.11,1202.14,473.68,1198.11,479.21Z"/><path class="cls-2" d="M1097.74,23.08c0,5.74-7.14,14.14-14.93,16.52-3,.9-6.37.25-9.58.31.1-3.86-.81-8.13.53-11.51,2.61-6.59,13.92-11.45,20.76-9.86,2,.47,3.92,1.24,5.88,1.88Z"/><path class="cls-2" d="M355.84,167.59c-2.89,8.5,13,10.84,6.74,21.17a29.82,29.82,0,0,1-4.25-3.28c-3.36-3.74-6.59-4.51-10.09-.19-2.83,3.49-6,4-8.85.16-2.68-3.69-6-8.34-1.06-12,4.75-3.49,10.7-5.35,16.13-7.92Z"/><path class="cls-2" d="M332.59,94.2c-1.78,3.07-3.22,6.41-5.42,9.14-1.82,2.26-4.52,3.8-6.84,5.65-1.18-2.43-3-4.77-3.4-7.32-.79-5.59,1.36-10,6.66-12.77s8.62-1.9,10.35,3.58a1.32,1.32,0,0,1-1.35,1.72Z"/><path class="cls-2" d="M786,63.86c3.49,4.26,7.53,7.24,7.06,9-.78,2.95-4.16,6.67-7,7.26-4.26.87-9.44-1.69-8.86-6.78C777.47,70.43,782,68,786,63.86Z"/><path class="cls-2" d="M1087,43.11c4.79-1.51,8.56-8.64,13.79-2.4.88,1.07-1.71,7.16-4,8.35C1091.65,51.69,1088.74,48,1087,43.11Z"/><path class="cls-2" d="M1121.52,22.09c-3.33,1.76-6.53,3.93-10.06,5-1,.32-4.3-2.45-4.34-3.86-.13-4.83,3.37-6.63,7.71-6.21,2.17.21,4.24,1.52,6.36,2.33Z"/><path class="cls-2" d="M307.5,131.42l7.51-6.19c1.48,2.12,4.13,4.24,4.13,6.36s-2.65,4.23-4.14,6.35Z"/><path class="cls-2" d="M358.19,57.32l-5.77,7.36c-1.71-2.55-4-4.94-4.83-7.76-.34-1.1,2.86-4.71,3.85-4.48C353.6,52.91,355.37,55.12,358.19,57.32Z"/><path class="cls-2" d="M810.2,65.84c-4.5,7.27-5.12,7.17-11.74-2.38l7-7.75L810,66.11Z"/><path class="cls-2" d="M387.51,157.34l-2.36,1.95a2.73,2.73,0,0,1-3.83-.33c-1.24-1.44-2.44-2.89-2.36-4.25s1.61-2.51,3.14-3.72a2.75,2.75,0,0,1,3.7.26l2,2.08A2.75,2.75,0,0,1,387.51,157.34Z"/><path class="cls-2" d="M810,66.11a8.86,8.86,0,0,0,1.61-1c1.65-1.52,3.24-3.1,4.86-4.66.92,1.46,2.89,3.26,2.54,4.32-.7,2.18-2.64,4-4.06,5.92l-4.73-4.89Z"/><path class="cls-2" d="M311.29,85.66a2.75,2.75,0,0,1,.22,4c-1.58,1.61-2.77,2.89-4.11,3.07s-4.3-3.2-4-4.46c.38-1.84,2.8-3.73,4.79-4.56C308.74,83.51,309.81,84.43,311.29,85.66Z"/><path class="cls-3" d="M758.58,338.48c-.33-6.38-1-12.29-.85-18.18.1-4.84,2.82-7,7.7-4.89,4.37,1.85,9.24,6,12.88,5,3.32-.83,5.26-7.08,7.88-10.9a24.36,24.36,0,0,1,3-2.73c1,12.26,9.86,16.17,18.69,20.34,1.91.9,3.28,3,4.9,4.49-1.74,1.83-3.25,4.9-5.26,5.26a117.24,117.24,0,0,1-18.37,1.51C779.38,338.64,769.64,338.48,758.58,338.48Z"/><path class="cls-3" d="M887.33,412.37c-9.63,3.76-18.07,7-26.36-.29-3.17-2.77-5.31-5.64-2.34-9.78s6.12-5.77,10.76-2.39C875,404,880.69,407.78,887.33,412.37Z"/><path class="cls-3" d="M785.32,185.16c-.93,8.7-4.27,11.41-12.53,8.52-6-2.1-11.52-5.51-17.25-8.34l.39-1.77Z"/></g><path class="cls-4" d="M810.19,58.32l4.74,4.88c1.42-2,3.36-3.73,4.06-5.92.35-1.05-1.62-2.85-2.54-4.31-1.62,1.55-3.21,3.14-4.86,4.66a8.82,8.82,0,0,1-1.61.94c-1.25-2.89-2.5-5.78-4.49-10.4l-7,7.76C805.08,65.48,805.7,65.57,810.19,58.32ZM1243.6,16.93c2.29-3.91,7.05-9,1.09-13.7-6.45-5.13-13.74-3.91-15.45,1.95-.82,2.77,0,6.71,1.48,9.26s4.78,3.71,7.23,5.46c-3.74,2.28-8.24,4.26-11.77,7.33C1212.73,38.92,1197,42.72,1180,39.85c-14.86-2.5-28.46,0-41.73,6.41a26.79,26.79,0,0,1-20,1.56c-6.58-1.88-13.75-1.73-22.56-2.68,4.19,9.1,1,13.61-4.55,17.69-5,3.71-8.45,10-16.27,9.64-.45-1.87-.85-3.59-1.24-5.22-8.9.22-8.9.22-14.84-6.86s-10.3-7.7-18-3.07c-3.08,1.85-6.34,3.4-9.52,5.08l2.65,2.88c-14.64-1.35-28.29.52-39.23,11.53-1,1-2.53,2.11-3.7,2a74.48,74.48,0,0,1-9.14-1.88c.7-2.31.92-4.94,2.2-6.85,2-3,4.65-5.44,7.1-8.07,3.51-3.78,6.31-9,2.84-12.76-2.81-3-8.67-4-13.28-4.3-2.9-.19-6.06,2.45-9,4-2.46,1.33-4.74,3-7.53,4.78,1.76-13.8,1.68-13.71-6.43-20.05-10.68-8.33-22.6-8.13-34.76-4.94-2.64.69-4.72,3.55-7.05,5.41.25,1,.51,2,.77,3,9,1.45,17.88,3.17,26.87,4.3,10.17,1.28,14.49,4.47,16.89,13.92-5.39,1.76-11.14,2.91-16.16,5.47-5.59,2.87-12.42,5.9-15.34,10.85C922.63,82.4,915.18,91,903.67,96c-4.08,1.78-4.42,4-.25,7.19a137.64,137.64,0,0,1,16.34,15c4.45,4.69,3.06,6.1-3.19,8.32-8.19,2.91-11.73-1.26-15.17-7.3-5.44-9.53-9.42-10-17.12-2.76,1.4,5.15,1.91,10.52,4.31,14.84,2.53,4.56,6.87,8.12,9.8,11.42L893.12,140c-2.39,6.54-4.69,12.82-7,19.1-1.61-1-1.88-1.51-1.74-1.86,7-17.43-2.71-32-8.66-47-1-2.61-7-3.25-10.7-4.8a88.75,88.75,0,0,0-.79,9.59c0,1.83,1.15,3.62,1.6,5.48,1.6,6.47,3.78,12.89,4.48,19.47.83,7.71-3,9.93-10.19,6.63-3.25-1.49-6.15-4.33-9.49-4.88-2.87-.48-8.84,1.57-8.81,2.24.4,6.87-4.85,7.1-9,8.1-8.66,2.1-16.71,4.38-23.07,11.73-5.25,6.07-21.74,7.3-25.78,2.89-17.61-19.25-53.3-23-78.07-10.05a31.43,31.43,0,0,0-16.44,19.78c-3.52,11.92-5.27,12.83-17.26,14.54-3.13.45-7.85,3.36-8.38,5.88a155.38,155.38,0,0,0-3.42,28.84c-.07,3.18,3,7.89,5.92,9.23,2.31,1.08,6.54-1.8,9.84-3.12,1.17-.47,2.09-1.54,3.47-2.59,2.5,5.54,4.07,11,7.2,15.33,2.52,3.49,7.51,8.28,10.38,7.67,3.77-.8,8.4-5.91,9.31-9.93,1.59-7,1.4-14.7.55-21.94-1.61-13.82,1.8-25.79,12.19-36.5v39.87l20.88-6.23,1.06,2.66-8.58,4.34,1.76.74C733,228.86,732.31,233,730,236c-3.41,4.35-8,7.77-12,11.67a7.47,7.47,0,0,0-1.73,2.89c-3.19,9.52-6.2,11.64-16,11.25-8.72-.34-17.48-1.13-26.16-.69a19.1,19.1,0,0,0-11.23,4.7c-5.38,5-9.49,11.4-14.64,16.71a21.33,21.33,0,0,1-9.35,5.8c-12,3-14,7.64-7.69,17.84,1.64,2.67,2.36,7.05,1.3,9.79-.6,1.54-5.7,1.78-8.78,1.82-3.63.05-7.27-.2-10.32-.42a4.21,4.21,0,0,0-4.39,3.24c-1.77,7.53-3.08,13.73-4.91,19.78-2.4,8,1.08,13.52,6.69,18.24a12.52,12.52,0,0,0,16,.61c8.1-6,17.19-12.05,22.36-20.29,5.81-9.25,13.42-13.73,22.69-17.14,5.39-2,9.8-.71,13.13,4.17,3.08,4.53,6.32,8.95,9.55,13.37,2.07,2.83,3,5.15-.54,7.93a1.66,1.66,0,0,0-.48,1.18,4.81,4.81,0,0,0,4.66,5.14c3.74.16,7.51.37,10.84-.73,5-1.65,6.8-7.19,4.88-12-1.86-4.69-5.06-9-8.33-13-2.4-2.88-6.19-4.57-8.74-7.36-1.32-1.44-1.29-4.11-1.88-6.23l2.31-.73c15.28,8.45,29.7,17.58,30.91,37.82.1,1.58.72,3.9,1.83,4.5,2.89,1.55,6.24,3.16,9.3,3,1.19-.07,3-4.86,3-7.48-.06-3.75-1.72-7.47-2.61-11.21l2.13-1.4c2.11,1.63,4.82,2.88,6.18,5,4.83,7.52,10.79,12.44,20.28,12.67A69.46,69.46,0,0,1,784.48,359c2.42.65,5.8,3,6.06,5s-2.16,5.89-4.24,6.63a91.57,91.57,0,0,1-20.48,5.23c-14.69,1.64-29.53,1.89-44.19,3.67-11.15,1.36-20.28-.15-28.68-8.67-10.14-10.27-22.61-16.06-37.76-12.05-9.47,2.51-19.35,4-28.34,7.67s-18.93,8-25.64,14.82c-10,10.11-18,22.31-25.85,34.26a51.73,51.73,0,0,0-7.57,39.22c3.18,16.58,10.78,31.06,21.89,43.75,3.12,3.57,8.33,5.82,7.65,12-.08.71,2.31,2.13,3.74,2.49,12.25,3.16,23.82,3.12,34.9-4.82,4-2.9,10.26-4.06,15.39-3.83,6.81.31,13.6,2.5,20.27,4.34,7.5,2.08,11,6.94,11.72,15.13.61,6.92,2.47,14.34,6,20.26,7.83,13.31,9.56,27,7.83,42.08-1.26,11-2.54,22.72-.14,33.29,4.8,21.12,12,41.72,18.48,62.44,1.2,3.85,2.7,7.6,4.22,11.26a8.48,8.48,0,0,0,11.23,4.54c8.71-3.79,16.79-7.32,24.9-10.74a45.89,45.89,0,0,0,23.84-21.87c4.84-9.57,8.53-19.73,13.33-29.33,3.92-7.84,7.32-16.72,13.44-22.52C817.7,602.59,822.31,591,818.76,576a54.51,54.51,0,0,1-1.27-10c-.47-10,2-18.48,10.15-25.47a397.39,397.39,0,0,0,31.67-30.16c5.28-5.64,9.36-12.69,12.78-19.7,2.48-5.05,3-10.33.59-14.94a4.49,4.49,0,0,0-6.71-1.43,4.77,4.77,0,0,1-2.27,1.11c-6.39.81-12.87,1.08-19.32,1.27-15.14.47-20.33-2.71-23.06-17.54-2.83-15.31-10.09-27.53-20.64-38.47-4.63-4.79-8.38-10.44-12.36-15.81-1.31-1.78-2.11-3.94-3.81-7.21,5.27,2.16,9.59,2.88,12.5,5.31,14.3,11.91,24.58,26.24,28.5,45.12,3.42,16.4,12.82,22.12,27.78,16.32,16.64-6.46,32.73-14.57,48.47-23.06,9.53-5.14,11.34-14.22,7-24.27-.91-2.09-2.1-4.05-3.28-6.3,19.61-.06,35.53,5.57,45.73,23.29,7.63,13.25,16.17,26,24.43,38.87a131.49,131.49,0,0,0,9.17,12.78c3.05,3.69,6.71,3.13,8.37-1.14a55.75,55.75,0,0,0,3.26-17.24c.85-16.27,9.41-29.22,20-40.74,12.55-13.67,19.83-13.23,31.08,1.52,5.91,7.76,12.55,14.41,22.06,17.59,7.14,2.4,7.39,7.8,7.43,14.38a58.44,58.44,0,0,0,3.71,20.56c4,10.14,9.2,19.8,14.37,29.41,2.51,4.66,6.11,8.74,9.21,13.08,4.91-10.67.83-18.76-2.28-27.29-4.26-11.67-7.49-23.71-11.16-35.59l1.91-1.08c4,4.43,7.88,8.93,12,13.28,6.64,7.1,13.74,8,20.14,2.68s7.1-12.78,1.76-20.5c-3.4-4.91-7.74-9.26-10.56-14.45-1.72-3.17-2.54-7.79-1.62-11.17,1.21-4.45,4.47-8.37,7-12.44s5.12-5,7.59.14l0,0a4.1,4.1,0,0,0,5.75,1.77c12.6-7.17,22-16.9,27.29-30.42,4.37-11.23,5.16-23-2.27-32.93-6.6-8.86-9-18-8.49-28.74.43-10.18-.57-10.53-10.78-12-1.68-.24-3.8-2.68-4.24-4.47-.33-1.35,1.32-4.18,2.75-4.78,3.38-1.41,6.63-1.58,9,2.82,1.74,3.28,4.31,8.63,9.08,5.72,6.52-4,8.21.21,11,4.31a129.59,129.59,0,0,0,11.13,14.76c1.41,1.56,4.67,1.45,7.08,2.1.27-2.43,1.43-5.22.63-7.24A141.41,141.41,0,0,0,1178,309c-5.89-10.22-2.89-25.21,6.12-28.33,12-4.14,14.2-7,13.77-19.9-.5-15.44-1.56-30.86-2.38-46.29l.88-.23c4.95,10.52,9.9,21,15.52,33,5-19.71-7.59-47.41-23-52.82-.16,1.86-.31,3.57-.41,4.83-5.11-1.53-10.27-3.2-15.49-4.62-10.26-2.78-13.19-8.45-8.85-18.27s11.33-17,20.14-22.81c2.19-1.44,3.64-4,5.84-5.43,2.9-1.85,6.13-3.68,9.41-4.14.92-.13,2.53,4.57,3.8,7.07.39.78.69,1.6,1,2.37,11.12-3.52,13.52-9.36,8.75-20.48-5-11.65-1.72-20.27,9.14-25.27,1.84,6,3.7,12.1,5.56,18.2l2.15.23,5.45-9.83,2.16.88c-2.5,9.07-4.85,18.18-7.53,27.19-2.58,8.69-3.87,17.2.43,25.8,7,13.93,20,21.88,31.07,32.2a20.5,20.5,0,0,0-.27-8.32c-3.93-18.94-8.24-37.8-11.72-56.82-1.74-9.54,1.71-14.24,11.19-15.71,8.23-1.29,11.66-6.58,12.59-13.49,1-7.49,3.71-13,10.48-16.76,5.17-2.85,6.18-8.4,4.44-13.18-1.36-3.75-5.06-6.75-8.07-9.73-1.18-1.16-3.33-1.33-5.63-2.17,1.31-3.33,2.4-6.12,3.62-9.23,5.43,1.75,10.32,3.55,15.33,4.88,5.27,1.41,9.56-.24,11.65-6.9a17.26,17.26,0,0,0-10.4-21.46c-4.07-1.53-8.53-2.25-12.73-3.57q-11.54-3.64-23-7.51C1253.94,20.66,1248.93,18.81,1243.6,16.93ZM1275,590.27l-3.09.22q-1.25,6-2.51,12c-1.23,5.82-1.68,12-4,17.33-1.34,3-5.71,6.37-8.85,6.52-2.49.12-6.24-4-7.56-7-1.76-4-1.23-9-2.57-13.21a13.3,13.3,0,0,0-5.16-7.1c-3-1.75-6.76-2.26-10.28-2.87-8.65-1.48-12.87,1-17.58,8.76a9.25,9.25,0,0,1-6.91,3.73c-8.94-.27-17.29.74-23.77,7.58a104,104,0,0,0-10.62,12.57c-4.85,7.09-11.47,10.27-19.73,11.44-17.3,2.44-23.21,9.43-25.45,27.13-2.28,18-5.46,35.8-8.19,53.71a44.65,44.65,0,0,0,0,5.65c3.87-.39,7.47-.27,10.79-1.17,13.36-3.62,26.54-8,40-11.27,22.1-5.46,40.31,5.32,44.87,26.28,1.17,5.34,1.3,10.91,1.85,16.38,1,10,6.21,15.17,16.28,15.29,10.91.13,20.71-4.22,28.68-11,9.06-7.7,17.11-16.67,25.08-25.56,21.12-23.57,24.74-46,9.83-73.66-9.69-18-17.37-35.86-16.61-56.79C1279.62,600.32,1276.58,595.27,1275,590.27ZM571.94,66.46c2.59-3.61,7.6-7.85,6.82-10.12-1.36-4-5.77-8.85-9.74-9.78-10.6-2.47-22.26-5.86-32.33-3.63C526,45.29,516,50.48,504.56,48.74c-.21,0-.46.17-.69.17-3.72-.09-7.81.79-11.1-.46-11.58-4.4-22.48-2.48-33.49,1.82q-11.62,4.53-23.54,8.32c-8.14,2.61-15,10.5-15.15,18.14-.17,7,4.25,12.23,13.43,15.7,2.9,1.1,6.11,1.66,8.7,3.25,4.61,2.82,10.2,5.35,13,9.57,10.22,15.42,15.69,31.37,7.86,50.59-4,9.91-3.8,21.92-3.83,33,0,9.55,4.95,17.88,11.75,24.69,6.48,6.51,13.14,6.53,19.22-.38,3.42-3.89,6.8-8.38,8.39-13.2,4.28-13,13.49-19.88,26-23.29,6.44-1.75,13.16-2.56,19.48-4.64a180.89,180.89,0,0,0,22.88-9.3c2-1,3.92-4.57,3.93-7,0-6.73-.91-13.47-1.53-20.86,8-1.21,8.76-7.89,9.12-16.1.85-18.89,7.13-35.5,23.35-47,2-1.43,3.23-4,4.81-6-3-1.48-6.14-4.45-8.88-4.1-4.81.61-9.41,3.12-14,5.1S575.13,69.49,571.94,66.46ZM357.64,129c1.68.69,1.95.92,2.11.85,6-2.36,23.15,2.3,26.81,7.55a93.26,93.26,0,0,1,5.74,9.89c2.76,5.26,1.17,9.37-4,11.85-4.07,2-8.5,3.16-12.62,5-6.23,2.81-7.36,6.28-4.15,12.62,6.2-4.53,9.08.06,12.56,4.34,5.26,6.45,7.5,18.27,20.36,12.52.13-.06.39.27.61.32,8,1.53,13.32-4.5,10.64-12.17-.85-2.43-2.78-4.49-3.64-6.92-.52-1.47.07-3.33.16-5a11.07,11.07,0,0,1,4.53,3.33c3.2,3.36,7.57,4.85,10.7,1.46,2-2.19,2.19-6.76,1.91-10.16-.18-2.29-2.63-4.38-4-6.6-5.61-9-11-18.25-16.85-27.11-3.24-4.88-6.75-9.84-11.13-13.62-7.36-6.36-15.76-11.52-23.25-17.75-4.73-3.94-9-7.22-15.25-3.57-5.81,3.42-9.47,11.23-7.51,17.91C353,119.39,355.81,124.66,357.64,129Zm103.05-89a44.07,44.07,0,0,0-4.56-3c-20.7-9-42.87-11.31-64.92-13.85-3.6-.42-7.61,2.71-11.43,4.2,3.1,3.23,5.67,7.51,9.44,9.45,5.11,2.64,11.15,3.49,18.48,5.59a41.84,41.84,0,0,1-5.41,1.77c-5.76.88-12.66,1.62-14.05,7.89-1.17,5.25-.76,11.9,6.19,15.06,1.18.54,1.37,3.23,2.18,5.34l-19-8.66C370.84,71,379,73.64,380.8,78c-9.39-.58-16.91-4-22-12.39-2.64-4.35-6.45-7.78-12.3-4.78,1.9,24.34,25.39,38.64,44.92,27.21l-3.54-6.51c4.49-1.17,10.62-.89,12.64-3.63,7-9.58,16.49-15,26.89-19.55,7-3.06,14.05-6.07,20.81-9.61C452.29,46.58,455.88,43.46,460.69,40.07Zm701.55,513.85c1.14-4.92,3.69-10.9,3.64-16.85-.09-10.88,1.09-21.27,4.87-31.51,2.58-7-.17-12.37-6.24-16.29-6.68,4.91-13.27,9.26-19.26,14.31-4.87,4.11-9.81,8.54-13.33,13.76-6.53,9.68-3.79,18.29,6.46,23.78C1146.57,545.5,1154.75,549.91,1162.24,553.92Zm-534-289.58c-2.91,3.4-6,5.76-7.3,8.88-1.19,3-1.75,7.72-.15,9.81s6.2,2,9.54,2.3c1.75.16,3.59-1.2,5.41-1.25,7.18-.21,10-4.33,9.21-10.8A72.22,72.22,0,0,0,627,232.67c-1.9-2.14-7.18-3.9-9.06-2.77-2.65,1.58-4.76,6-4.92,9.27-.17,3.67,2.1,7.45,3.27,11.06a57.16,57.16,0,0,0-7.69,1.07c-9.35,2.6-12.85,12.71-7.24,20.53,4,5.52,11.77,5,14.53-1.11,2.1-4.65,3.78-9.49,5.86-14.82ZM846.91,646.12c2.27-1.83,3.91-4.91,5-7.76,4.23-11.64,8.54-23.29,11.9-35.2,1.15-4.07.24-9.06-.84-13.35-1.37-5.46-5-5.86-8.69-1.45-2.1,2.55-3.7,5.73-6.26,7.63-14,10.36-15.88,25.85-18.27,39.4.15,3.05-.14,4.39.32,5.4M707.07,87.52c3.63-1.34,8-2.54,12-4.53,4.64-2.3,4.81-6.47.79-8.95a17,17,0,0,0-11.25-2.11c-4.52.9-8.57,4-12.94,5.86-2.05.87-4.83,2.09-6.51,1.37-5.57-2.4-8.84-.24-10.85,4.57-2.3,5.5-1.19,10.34,4.21,13.58,1.78,1.06,3.73,1.81,5.54,2.68-.07,1.34-.39,2.38-.12,3.23.86,2.65,1.94,5.22,2.94,7.83,2.2-2.21,4.73-4.18,6.48-6.7,1.25-1.8,1.43-4.33,1.65-5H710.4C709.34,95.58,708.29,91.85,707.07,87.52ZM315.57,442.2c12.2,3.64,25.51,1.56,32.55-5.66-2.67-2-5.1-5.25-7.8-5.5-6.81-.62-13.75.12-21.11.34-4.54-12.69-21.95-18.15-36.34-17.48-2.49.12-4.89,2.5-7.32,3.83l.62,2.73c9.41-3.85,15.39,1.29,21.18,7,5.14,5.06,10.19,10.32,18.64,9.05C315.83,438.7,315.7,440.49,315.57,442.2ZM582.31,181.61a15.52,15.52,0,0,0-7.48.14c-3.87,1-7.8,2.08-11.61,3.43a5.76,5.76,0,0,0-2.94,4.07c-.72,5.77,4.24,14,9.76,14.07,7.93.06,16.28-.81,23.69-3.43,7.18-2.55,6.86-11.63-.14-15C590.18,183.3,586.37,182.55,582.31,181.61ZM386.52,48.05c-1-1.82-3-5.51-5.21-9-1.91-3-3.8-6.12-6.39-8.41-2.32-2.06-6.67-5-8.19-4.15-3.21,1.81-7.56,6.23-7.15,8.92,1.35,8.9,4.62,17.55,13,22.73C379.34,62.32,386.25,58.42,386.52,48.05ZM264.17,41.28c3.33,1.86,5.51,4.11,7.69,4.11,7.93,0,9.29,5.31,9.58,11.2.26,5.3,1.89,10.27,7,11.12s11.08-.14,16.32-1.56c1.14-.31,2.28-7.36.88-8.74a15.93,15.93,0,0,0-10.51-4C286,53.5,284,52.51,281.38,43l8.31-.91C287.83,31,286.76,30.9,264.17,41.28Zm851.69,523.13c10,18,59.56,28.32,80.69,16.53-3.19-1-5.43-2.24-7.73-2.4-9.78-.65-19.58-1-29.38-1.44-13.77-.61-27.17-2.43-38.66-11.07C1119.65,565.19,1118,565.08,1115.86,564.41Zm58.2-33.57c-1.66,8.6-3.76,17.06-4.68,25.66-.31,2.86,2.42,6,3.76,9.07,2-2.43,4.09-4.83,6-7.33a8.34,8.34,0,0,0,.85-2.53c8.3,5.23,11.44,4.5,11.83-2.31C1192.35,544.51,1184.17,533.54,1174.06,530.84ZM835.91,143.4c-3.19-2.58-5.5-4.47-7.84-6.33-9.92-7.9-11.3-16.42-3-26.26C830,105,836.2,100.39,842,95.46c4.44-3.76,9.19-7.15,14.72-11.43-10.38-1.8-18.1,1-23.6,7.25a135.85,135.85,0,0,0-15.37,22.22C810.88,125.58,819,141.79,835.91,143.4Zm362.2,328.28c4-5.53,4-11.11-1.93-19.19-6.26-8.6-13.06-16.81-19.5-25-6.71,13.75-5,20.39,7.66,28.84,2.78,1.85,5.89,3.49,8.05,5.93C1194.74,464.9,1196.18,468.39,1198.11,471.68ZM1097.74,15.54l2.66-2.66c-2-.63-3.89-1.4-5.88-1.87-6.84-1.59-18.15,3.27-20.76,9.86-1.34,3.37-.43,7.64-.53,11.51,3.21-.06,6.63.59,9.58-.31C1090.6,29.69,1097.78,21.29,1097.74,15.54ZM355.84,160.05l-1.38-2c-5.43,2.57-11.38,4.43-16.13,7.92-4.92,3.61-1.62,8.27,1.06,12,2.81,3.87,6,3.33,8.85-.16,3.5-4.32,6.73-3.56,10.09.19a31.36,31.36,0,0,0,4.25,3.28C368.83,170.89,353,168.55,355.84,160.05ZM332.59,86.66l1.84.14c-1.58-7.09-4.83-8.59-10.84-5.43-5.3,2.79-7.45,7.18-6.66,12.77.36,2.55,2.22,4.88,3.4,7.32,2.32-1.86,5-3.4,6.84-5.65C329.37,93.08,330.81,89.74,332.59,86.66ZM786,56.33c-4,4.1-8.49,6.57-8.83,9.52-.58,5.09,4.6,7.65,8.86,6.78,2.87-.59,6.25-4.32,7-7.26C793.49,63.57,789.45,60.58,786,56.33ZM313.43,30.12c-3.17-.44-7.14-2.14-8.43-.95-3.06,2.84-5,7-6.93,10.81-.2.39,2.44,2.82,4.07,3.32,1,.31,2.92-1,3.78-2.08C308.14,38.38,310,35.25,313.43,30.12ZM326,35.22c4.29,6.15,6.93,10.16,9.84,14,.75,1,2.78,2.08,3.46,1.71,1.19-.64,2.75-2.63,2.49-3.6-.94-3.45-1.76-7.63-4.19-9.75C335.41,35.64,331.19,36.12,326,35.22Zm761,.36c1.73,4.85,4.64,8.58,9.77,6,2.31-1.19,4.9-7.29,4-8.35C1095.57,26.93,1091.8,34.07,1087,35.58Zm34.51-21-.33-2.72c-2.12-.82-4.19-2.13-6.36-2.34-4.34-.41-7.84,1.38-7.71,6.21,0,1.42,3.31,4.19,4.34,3.87C1115,18.49,1118.19,16.31,1121.52,14.55ZM310,126l2.31,2a3.56,3.56,0,0,0,5.06-.43,6.12,6.12,0,0,0,1.82-3.55c0-1.39-1.14-2.77-2.34-4.16a2.89,2.89,0,0,0-4-.35L310,121.82A2.76,2.76,0,0,0,310,126Zm857,279.18,2.68-.31c3.16-4.09,3.1-8.7,1.1-13.41a4.12,4.12,0,0,0-3.14-2.14c-1,.06-2.9,1.67-2.82,2.43C1165.2,396.27,1166.13,400.73,1166.91,405.2ZM358.19,49.78c-2.82-2.19-4.59-4.4-6.75-4.88-1-.22-4.19,3.39-3.85,4.49.84,2.82,3.12,5.2,4.83,7.76C354,55.1,355.63,53.06,358.19,49.78ZM313.72,80c-2.76-2-4.7-4.17-5.57-3.81-2,.83-4.41,2.71-4.79,4.56-.26,1.26,2.8,4.62,4,4.45C309.3,85,310.9,82.51,313.72,80Z"/><path class="cls-4" d="M0,172.17c13.93-5,27.8-10.11,41.8-14.87,9-3,12.34-8.78,6.45-16-9.71-12-4.62-23.53-1-35.06,1-3.23,5.78-5.8,9.38-7.52,3.26-1.57,7.27-1.56,13.12-2.65-3.24-2.79-4.93-4.15-6.5-5.63-2.07-1.94-5-3.64-5.82-6.05-1.12-3.12-1.79-7.47-.4-10.09,1-2,5.6-2.79,8.64-2.93,3.68-.16,7.42,1,11.7,1.59-.12-1.65-.13-2.78-.28-3.88-2-14.76,4.88-25.75,19.23-30.12,13.06-4,25.93-2.63,37.37,4.45C142.73,49,150.84,56.15,159,63a61.18,61.18,0,0,1,9.51,10.72c8.47,11.55,18.7,16.07,33.33,12.1,7.25-2,15.61-.57,23.36.27A18.71,18.71,0,0,1,235.42,91c9,8.65,17.58,17.83,26.28,26.85,3.79,3.94,7.49,8,11.71,12.46L280,116.34c-11,2.41-17.38-4.84-24-11.19-1.7-1.64-2.16-5-2.38-7.65-.22-2.8.71-5.67.82-8.52.16-3.94-1.35-5.53-5.73-4.59-7.94,1.71-12.64-3.24-10.15-10.89A33.12,33.12,0,0,1,245,62.42c5.59-6.52,13.1-5.89,16.78,1.9,4.05,8.58,10.56,13.53,19.1,16,14.26,4.14,19.13,16.53,25,27.9,2.69,5.26-1.63,7.53-6.12,7.73-3.94.18-7.92-.79-12.69-1.34,6.86,9.88,16.19,14.72,26.87,17,5.53,1.16,9.36-1.52,9.56-7.7.12-3.83-.9-7.95.22-11.41,1.26-3.89,3.89-9.67,6.75-10.21,5.74-1.07,7.09,5.1,8.32,9.69.54,2,.21,4.28.25,6.43.05,3.35-.13,6.72.17,10,1,11.34,5.24,13.21,14.69,6.74a22.25,22.25,0,0,1,6.91-3.59c6.19-1.54,9.15,1.45,8,7.65-2.12,11.83-6.39,15.43-18.69,16.55a19.26,19.26,0,0,0-8.79,3c-13.13,8.58-25.83,17.84-39.19,26-6.42,3.94-6.46,8.7-3.59,13.77,3.14,5.54,7.32,10.57,11.52,15.41s9.06,9.21,13.55,13.85c4.11,4.23,5.74,9.11,4.38,15.1-.64,2.84-.11,5.93,1.5,9.61,5.68-12.34,17.92-15.39,27-22.35,4.78-3.65,5.56-7.73,1.54-12.87-6-7.67-5.71-11.44.45-19,3.92-4.78,8-9.47,12.08-14.39,1.91.29,4.19.73,6.5,1,8.77,1,11.38,3.42,13.34,12.21a87.11,87.11,0,0,0,3.21,11.72c1.71,4.55,4.34,6.2,8.27,1.65,1.6-1.86,3.86-3.15,6.7-5.38.91,2.81,1.71,4.45,1.95,6.17,2.63,19.2,9.31,37,18,54.19,2,4,1.48,9.43,1.68,14.23.15,3.45-.42,6.94-.68,10.54-9.59,2.77-18.64-1.27-18.86-8.68-9.7,2.93-12,1.78-15.52-7.82a31.6,31.6,0,0,0-4.81.66c-2.51.73-4.93,1.75-7.34,2.63,1.58,7.39,4.66,13.24,11.09,17.5,3.85,2.56,3.55,6.74-.71,9.4-5.65,3.52-11.15,7.12-18.63,4.79-6.69-2.07-12.61-.41-16.87,6-1.48,2.24-4.37,5.06-6.57,5-8.22-.15-10.58,6.07-13.79,11.34-2.48,4.08-4.42,8.48-6.52,12.77a30.43,30.43,0,0,1-16.88,15.65c-14.26,5.65-18.32,12.56-18.11,28.23.08,6.08,0,12.15,0,18.23l-3.74,1c-1.76-3.11-4.79-6.11-5.05-9.34-1.14-14-10.8-20.71-25.56-20.1a91.14,91.14,0,0,0-19,3c-10.5,2.73-17.57,9.6-20.35,20.2a100.34,100.34,0,0,0-3.53,19c-.55,9.2,4.49,13,13.19,10.08,5.14-1.71,9.83-4.79,14.77-7.16,4.11-2,8.52-4.52,12.41-.06,4.15,4.75,1.19,8.86-2,12.68-1.24,1.46-2.6,2.83-3.75,4.35-5,6.55-3.91,9.93,3.73,12.24,8.42,2.55,14.21,7.36,15.67,16.64,2.42,15.36,13.75,20.77,27.89,13.3,5.48-2.9,10.61-6.48,15.86-9.81,9.59-6.09,19.34-6.67,29-.44,9.24,5.95,18,12.73,27.41,18.3,7.68,4.52,16,8,24.22,11.53,4.54,1.95,9.82,2.37,14.11,4.69,5.87,3.19,8.05,9,6.87,15.82-.83,4.76,2,7.7,5.69,9.06a221.32,221.32,0,0,0,23.79,7.28c6.24,1.56,12.77,1.93,19.05,3.37,9.51,2.17,16.08,8,19.75,17.12,2.73,6.79,2.33,13.06-2.44,18.83-2.28,2.77-4.44,5.64-6.8,8.34a33.83,33.83,0,0,0-8.45,23.43c.15,4.4,0,8.81-.2,13.21q-.75,14.51-13.81,21.06c-4.27,2.14-9.06,3.93-12.34,7.17a56.89,56.89,0,0,0-10.05,14.31c-3.37,6.55-5.42,13.76-8.61,20.41s-7.63,12.69-15.26,15.36c-1.87.66-3.37,2.32-5.47,3.82l3.21,3.64c7.17,8.11,5.21,15.73-5.22,17.81-8.09,1.61-11.35,7-16.21,12.87a38.17,38.17,0,0,0-9,22.21c-.27,3.07,2.72,6.37,4,9.66.8,2.06,2.21,4.62,1.62,6.37-6.69,19.66-.32,39.21,16.86,51.66,1.9,1.37,2.7,4.25,4,6.44-2.5.46-5.29,1.91-7.44,1.25-27.63-8.51-42.81-29-50.09-55.45-9.9-36-15.07-72.59-9.41-110,4-26.31-4.07-48.07-24.75-65.09-6.65-5.47-13.25-11.07-19.31-17.16-17.22-17.33-19.78-36.53-8.79-58.33,4.48-8.9,8.08-18.25,12-27.43a7.14,7.14,0,0,0,0-2.69c-.65-.31-1.11-.75-1.5-.69-15.41,2.27-24.55-6.63-33.65-17.38-13.91-16.44-30.32-29.76-51.94-35.42-5.89-1.54-11.48-4.73-16.8-7.85-6.95-4.08-9.87-11-12.58-18.45-6.65-18.39-14.3-36.42-21.61-54.57a1,1,0,0,0,0-.1,1.82,1.82,0,0,0-3.46.71c-.54,17.17,10.92,31.65,6.75,48.52a48.15,48.15,0,0,1-3-5,288.84,288.84,0,0,1-25.08-93c-1.15-11.47.81-22.78,6.68-32.57,13.55-22.62,10.65-46.49,6.5-70.46s-13.43-45.74-31-63.41c-6-6-11.94-7.78-19.91-4.19-8.32,3.73-10.42,2-10.7-9.19-2.23,3-4.19,4.7-4.94,6.82-3,8.42-9.86,11.95-17.52,14.54q-27.81,9.38-55.67,18.58h0A3.7,3.7,0,0,1,0,173.75Z"/><path class="cls-5" d="M1294.05,33.19c-3.88-1.37-8.07-2.08-12-3.32q-11.54-3.64-23-7.51c-4.78-1.61-9.52-3.34-14.51-5.12l-.4-1.12c2.39-3.78,6.15-8.47.59-12.89-6.45-5.13-13.74-3.91-15.45,1.95-.82,2.77,0,6.71,1.48,9.26,1.25,2.1,3.92,3.34,6.2,4.78v1.29c-3.51,2-7.52,3.93-10.73,6.72C1212.73,38.92,1197,42.72,1180,39.85c-14.86-2.5-28.46,0-41.73,6.41a26.79,26.79,0,0,1-20,1.56c-6.26-1.79-13-1.74-21.27-2.55a.76.76,0,0,0-.78,1c3.39,8.32.23,12.61-5.06,16.51-4.9,3.61-8.27,9.63-15.67,9.65l-.74-.6c-.34-1.43-.66-2.76-1-4l-.76-.58c-8.28.21-8.42,0-14.22-6.87s-10.3-7.7-18-3.07c-2.79,1.68-5.74,3.11-8.65,4.62l-.2,1.19.66.72a.76.76,0,0,1-.61,1.27c-13.91-1-26.84,1.17-37.3,11.69-1,1-2.53,2.11-3.7,2a62.43,62.43,0,0,1-8.37-1.71l-.56-.93c.55-2.11.84-4.38,2-6.09,2-3,4.65-5.44,7.1-8.07,3.51-3.78,6.31-9,2.84-12.76-2.81-3-8.67-4-13.28-4.3-2.9-.19-6.06,2.45-9,4-2,1.11-4,2.43-6.15,3.88a.77.77,0,0,1-1.18-.74c1.54-12.17,1.15-12.33-6.63-18.41-10.68-8.33-22.6-8.13-34.76-4.94-2.5.66-4.5,3.25-6.69,5.11l-.24.77c.17.66.35,1.33.53,2l.61.56c8.79,1.44,17.55,3.11,26.38,4.22,9.91,1.25,14.27,4.31,16.7,13.21l-.51.93c-5.18,1.64-10.66,2.8-15.46,5.25-5.59,2.87-12.42,5.9-15.34,10.85C922.63,82.4,915.18,91,903.67,96c-4.08,1.78-4.42,4-.25,7.19a137.64,137.64,0,0,1,16.34,15c4.45,4.69,3.06,6.1-3.19,8.32-8.19,2.91-11.73-1.26-15.17-7.3-5.36-9.39-9.3-10-16.78-3.08l-.22.76c1.32,5,1.86,10.2,4.19,14.4a39.81,39.81,0,0,0,6.75,8.24.76.76,0,0,1-.88,1.21l-.59-.3h0c-.42.15-.59.22-1,.38l0,0-6.36,17.41-1.17.34c-.87-.63-1-1-.9-1.29,7-17.43-2.71-32-8.66-47-1-2.41-6.11-3.14-9.8-4.46l-1,.64a71.51,71.51,0,0,0-.69,8.61c0,1.83,1.15,3.62,1.6,5.48,1.6,6.47,3.78,12.89,4.48,19.47.83,7.71-3,9.93-10.19,6.63-3.25-1.49-6.15-4.33-9.49-4.88-2.87-.48-8.84,1.57-8.81,2.24.4,6.87-4.85,7.1-9,8.1-8.66,2.1-16.71,4.38-23.07,11.73-5.25,6.07-21.74,7.3-25.78,2.89-17.61-19.25-53.3-23-78.07-10.05a31.43,31.43,0,0,0-16.44,19.78c-3.52,11.92-5.27,12.83-17.26,14.54-3.13.45-7.85,3.36-8.38,5.88a155.38,155.38,0,0,0-3.42,28.84c-.07,3.18,3,7.89,5.92,9.23,2.31,1.08,6.54-1.8,9.84-3.12a11.06,11.06,0,0,0,2.69-2l1.19.28c2.27,5.23,3.83,10.33,6.79,14.42,2.52,3.49,7.51,8.28,10.38,7.67,3.77-.8,8.4-5.91,9.31-9.93,1.59-7,1.4-14.7.55-21.94-1.54-13.21,1.51-24.73,10.86-35.08l1.33.51V222.7l1,.73,11.75-3.51,1.62,4.07-1,.51,1.1.46.41,1c-1.25,3.46-2,7.3-4.15,10.05-3.41,4.35-8,7.77-12,11.67a7.47,7.47,0,0,0-1.73,2.89c-3.19,9.52-6.2,11.64-16,11.25-8.72-.34-17.48-1.13-26.16-.69a19.1,19.1,0,0,0-11.23,4.7c-5.38,5-9.49,11.4-14.64,16.71a21.33,21.33,0,0,1-9.35,5.8c-12,3-14,7.64-7.69,17.84,1.64,2.67,2.36,7.05,1.3,9.79-.6,1.54-5.7,1.78-8.78,1.82-3.67.06-7.35-.2-10.42-.42a4.08,4.08,0,0,0-4.27,3.14c-1.78,7.58-3.1,13.81-4.93,19.88-2.4,8,1.08,13.52,6.69,18.24a12.52,12.52,0,0,0,16,.61c8.1-6,17.19-12.05,22.36-20.29,5.81-9.25,13.42-13.73,22.69-17.14,5.39-2,9.8-.71,13.13,4.17,3.08,4.53,6.32,8.95,9.55,13.37,2.07,2.83,3,5.15-.54,7.93-.5.39-.55,1.35-.47,2.47a4.13,4.13,0,0,0,4,3.82c4,.16,8,.47,11.53-.7,5-1.65,6.8-7.19,4.88-12-1.86-4.69-5.06-9-8.33-13-2.4-2.88-6.19-4.57-8.74-7.36a7.77,7.77,0,0,1-1.41-3.93,2.69,2.69,0,0,1,1.83-3h0c15.27,8.44,29.7,17.57,30.9,37.81.1,1.58.72,3.9,1.83,4.5,2.89,1.55,6.24,3.16,9.3,3,1.19-.07,3-4.86,3-7.48,0-3.05-1.16-6.08-2-9.11l3.2-2.35c1.73,1.15,3.52,2.26,4.55,3.85,4.83,7.52,10.79,12.44,20.28,12.67A69.46,69.46,0,0,1,784.48,359c2.42.65,5.8,3,6.06,5s-2.16,5.89-4.24,6.63a91.51,91.51,0,0,1-20.49,5.23c-14.68,1.64-29.52,1.89-44.18,3.67-11.15,1.36-20.28-.15-28.68-8.67-10.14-10.27-22.61-16.06-37.76-12.05-9.47,2.51-19.35,4-28.34,7.67s-18.93,8-25.64,14.82c-10,10.11-18,22.31-25.85,34.26a51.73,51.73,0,0,0-7.57,39.22c3.18,16.58,10.78,31.06,21.89,43.75,3.12,3.57,8.33,5.82,7.65,12-.07.71,2.31,2.13,3.74,2.49,12.25,3.16,23.82,3.12,34.9-4.82,4-2.9,10.26-4.06,15.39-3.83,6.81.31,13.6,2.5,20.27,4.34,7.5,2.08,11,6.94,11.72,15.13.61,6.92,2.47,14.34,6,20.26,7.83,13.31,9.56,27,7.83,42.08-1.26,11-2.54,22.72-.14,33.29,4.8,21.12,12,41.72,18.48,62.44,1.27,4.07,2.88,8,4.48,11.9A7.84,7.84,0,0,0,730.33,698c8.94-3.89,17.2-7.5,25.5-11a45.83,45.83,0,0,0,23.83-21.87c4.85-9.57,8.54-19.73,13.34-29.33,3.92-7.84,7.32-16.72,13.44-22.52C817.7,602.59,822.31,591,818.76,576a54.51,54.51,0,0,1-1.27-10c-.47-10,2-18.48,10.15-25.47a397.39,397.39,0,0,0,31.67-30.16c5.28-5.64,9.36-12.69,12.78-19.7,2.55-5.19,3-10.62.39-15.32a4.19,4.19,0,0,0-6.31-1.21,5.06,5.06,0,0,1-2.47,1.27c-6.39.81-12.87,1.08-19.32,1.27-15.14.47-20.33-2.71-23.06-17.54-2.83-15.31-10.09-27.53-20.64-38.47-4.63-4.79-8.38-10.44-12.36-15.81a18.67,18.67,0,0,1-1.73-3,1.88,1.88,0,0,1,2.29-2.62c3.31,1.13,6.07,2,8.13,3.71,14.3,11.91,24.58,26.24,28.5,45.12,3.42,16.4,12.82,22.12,27.78,16.32,16.64-6.46,32.73-14.57,48.47-23.06,9.53-5.14,11.34-14.22,7-24.27-.25-.56-.52-1.12-.8-1.68a3.1,3.1,0,0,1,2.95-4.48c17.12,1,31.06,7.09,40.3,23.15,7.63,13.25,16.17,26,24.43,38.87a131.49,131.49,0,0,0,9.17,12.78c3.05,3.69,6.72,3.13,8.37-1.14,2.12-5.49,2.17-11.26,3.62-16.88h0c.85-16.27,9.05-29.58,19.63-41.1,12.55-13.67,19.83-13.23,31.08,1.52,5.91,7.76,12.55,14.41,22.06,17.59,7.14,2.4,7.39,7.8,7.43,14.38a58.44,58.44,0,0,0,3.71,20.56c4,10.14,9.2,19.8,14.37,29.41,2.32,4.3,5.46,11.1,8.37,15.53a1.29,1.29,0,0,0,2.25-.17c4.34-9.27-.71-21.41-3.69-29.57-3.87-10.59-6.88-21.49-10.15-32.3l3.2-1.79c3.19,3.59,6.36,7.2,9.65,10.7,6.64,7.1,13.74,8,20.14,2.68s7.1-12.78,1.76-20.5c-3.4-4.91-7.74-9.26-10.56-14.45-1.72-3.17-2.54-7.79-1.62-11.17,1.21-4.45,4.47-8.37,7-12.44s5.12-5,7.59.14h0a4.14,4.14,0,0,0,5.81,1.79c12.58-7.17,22-16.89,27.25-30.4,4.37-11.23,5.16-23-2.27-32.93-6.6-8.86-9-18-8.49-28.74.43-10.18-.57-10.53-10.78-12-1.68-.23-3.8-2.67-4.24-4.46-.33-1.35,1.32-4.18,2.75-4.78,3.38-1.41,6.63-1.58,9,2.82,1.74,3.28,4.31,8.63,9.08,5.72,6.52-4,8.21.21,11,4.31a129.59,129.59,0,0,0,11.13,14.76c1.27,1.4,4,1.45,6.3,1.92l.89-.6c.38-2.24,1.23-4.66.52-6.46A141.41,141.41,0,0,0,1178,309c-5.89-10.22-2.89-25.21,6.12-28.33,12-4.14,14.2-7,13.77-19.9-.46-14.15-1.39-28.28-2.17-42.42l2.32-.58c4.12,8.76,8.3,17.63,12.91,27.44l1.45-.17c3.52-19.09-8.13-44.3-22.56-50.25l-1,.65c-.09,1.06-.17,2.05-.25,2.9l-1,.66c-4.82-1.46-9.68-3-14.6-4.36-10.26-2.78-13.19-8.45-8.85-18.27s11.33-17,20.14-22.81c2.19-1.44,3.64-4,5.84-5.43,2.9-1.85,6.13-3.68,9.41-4.14.92-.13,2.53,4.57,3.8,7.07.28.56.52,1.14.75,1.71l1,.44c10.54-3.55,12.74-9.37,8.07-20.26-4.87-11.36-1.88-19.84,8.34-24.89l1.06.46,4.78,15.65,3.53.37c.52-.92,1-1.85,1.55-2.78l3.55,1.45c-1.91,7.06-3.8,14.13-5.88,21.14-2.58,8.69-3.87,17.2.43,25.8,6.75,13.49,19.16,21.37,30,31.23l1.27-.47a21.49,21.49,0,0,0-.48-6.88c-3.93-18.94-8.24-37.8-11.72-56.82-1.74-9.54,1.71-14.24,11.19-15.71,8.23-1.29,11.67-6.58,12.59-13.49,1-7.49,3.71-13,10.48-16.76,5.17-2.85,6.18-8.4,4.44-13.18-1.36-3.75-5.06-6.75-8.07-9.73-1-1-2.85-1.28-4.84-1.91l-.49-1,3.05-7.81,1-.45c5.15,1.68,9.84,3.39,14.64,4.66,5.08,1.35,9.25-.12,11.41-6.19A17.63,17.63,0,0,0,1294.05,33.19Zm-534.54,143,25,1.35.71.85c-1.05,8.07-4.43,10.52-12.43,7.71-4.9-1.71-9.5-4.31-14.15-6.75Zm48,153.15a118.46,118.46,0,0,1-18.37,1.51c-9.52.21-19,.07-29.8.06l-.77-.72c-.34-6.11-.93-11.8-.81-17.47.1-4.83,2.82-7,7.7-4.88,4.37,1.85,9.24,5.95,12.88,5,3.32-.84,5.26-7.09,7.88-10.9a10.22,10.22,0,0,1,1.87-1.78l1.25.48c1.5,11.14,10.06,14.9,18.53,18.91,1.71.8,3,2.54,4.39,4l0,1C810.73,326.47,809.31,329.05,807.48,329.38Zm78.52,76c-9.09,3.52-17.12,6.11-25-.81-3.17-2.77-5.31-5.64-2.34-9.78s6.12-5.76,10.76-2.39c5.23,3.81,10.62,7.41,16.76,11.65Z"/><path class="cls-4" d="M1275,590.27c1.56,5,4.6,10.05,4.42,15-.76,20.93,6.92,38.78,16.61,56.79,14.91,27.7,11.29,50.09-9.83,73.66-8,8.89-16,17.86-25.08,25.56-8,6.78-17.77,11.13-28.68,11-10.07-.12-15.27-5.3-16.28-15.29-.55-5.47-.68-11-1.85-16.38-4.56-21-22.77-31.74-44.87-26.28-13.43,3.32-26.61,7.65-40,11.27-3.32.9-6.92.78-10.79,1.17a44.65,44.65,0,0,1,0-5.65c2.73-17.91,5.91-35.75,8.19-53.71,2.24-17.7,8.15-24.69,25.45-27.13,8.26-1.17,14.88-4.35,19.73-11.44a104,104,0,0,1,10.62-12.57c6.48-6.84,14.83-7.85,23.77-7.58a9.25,9.25,0,0,0,6.91-3.73c4.71-7.71,8.93-10.24,17.58-8.76,3.52.61,7.33,1.12,10.28,2.87a13.3,13.3,0,0,1,5.16,7.1c1.34,4.26.81,9.2,2.57,13.21,1.32,3,5.07,7.1,7.56,7,3.14-.15,7.51-3.47,8.85-6.52,2.34-5.34,2.79-11.51,4-17.33q1.27-6,2.51-12Z"/><path class="cls-5" d="M571.94,66.46c3.19,3,7.6,2.28,12.3.25s9.18-4.49,14-5.1c2.74-.35,5.91,2.62,8.88,4.1-1.58,2-2.8,4.58-4.81,6-16.22,11.54-22.5,28.15-23.35,47-.36,8.21-1.13,14.89-9.12,16.1.62,7.39,1.58,14.13,1.53,20.86,0,2.41-1.89,6-3.93,7a180.89,180.89,0,0,1-22.88,9.3c-6.32,2.08-13,2.89-19.48,4.64-12.47,3.41-21.68,10.3-26,23.29-1.59,4.82-5,9.31-8.39,13.2-6.08,6.91-12.74,6.89-19.22.38-6.8-6.81-11.77-15.14-11.75-24.69,0-11.06-.2-23.07,3.83-33,7.83-19.22,2.36-35.17-7.86-50.59-2.8-4.22-8.39-6.75-13-9.57-2.59-1.59-5.8-2.15-8.7-3.25-9.18-3.47-13.6-8.67-13.43-15.7.18-7.64,7-15.53,15.15-18.14q11.89-3.81,23.54-8.32c11-4.3,21.91-6.22,33.49-1.82,3.29,1.25,7.38.37,11.1.46.23,0,.48-.2.69-.17C516,50.48,526,45.29,536.69,42.93c10.07-2.23,21.73,1.16,32.33,3.63,4,.93,8.38,5.76,9.74,9.78C579.54,58.61,574.53,62.85,571.94,66.46Z"/><path class="cls-4" d="M357.64,129c-1.83-4.38-4.6-9.65-6.24-15.26-2-6.68,1.7-14.49,7.51-17.91,6.21-3.65,10.52-.37,15.25,3.57,7.49,6.23,15.89,11.39,23.25,17.75,4.38,3.78,7.89,8.74,11.13,13.62,5.87,8.86,11.24,18.06,16.85,27.11,1.37,2.22,3.82,4.31,4,6.6.28,3.4.11,8-1.91,10.16-3.13,3.39-7.5,1.9-10.7-1.46a11.07,11.07,0,0,0-4.53-3.33c-.09,1.69-.68,3.55-.16,5,.86,2.43,2.79,4.49,3.64,6.92,2.68,7.67-2.69,13.7-10.64,12.17-.22-.05-.48-.38-.61-.32-12.86,5.75-15.1-6.07-20.36-12.52-3.48-4.28-6.36-8.87-12.56-4.34-3.21-6.34-2.08-9.81,4.15-12.62,4.12-1.86,8.55-3.06,12.62-5,5.14-2.48,6.73-6.59,4-11.85a93.26,93.26,0,0,0-5.74-9.89c-3.66-5.25-20.82-9.91-26.81-7.55C359.59,130,359.32,129.73,357.64,129Z"/><path class="cls-4" d="M460.69,40.07c-4.81,3.39-8.4,6.51-12.49,8.65-6.76,3.54-13.81,6.55-20.81,9.61-10.4,4.55-19.86,10-26.89,19.55-2,2.74-8.15,2.46-12.64,3.63L391.4,88c-19.53,11.43-43-2.87-44.92-27.21,5.85-3,9.66.43,12.3,4.78C363.89,74,371.41,77.4,380.8,78c-1.84-4.34-10-7-3.18-14.13l19,8.66c-.81-2.11-1-4.8-2.18-5.34-6.95-3.16-7.36-9.81-6.19-15.06,1.39-6.27,8.29-7,14.05-7.89a41.84,41.84,0,0,0,5.41-1.77c-7.33-2.1-13.37-3-18.48-5.59-3.77-1.94-6.34-6.22-9.44-9.45,3.82-1.49,7.83-4.62,11.43-4.2,22.05,2.54,44.22,4.88,64.92,13.85A44.07,44.07,0,0,1,460.69,40.07Z"/><path class="cls-4" d="M1162.24,553.92c-7.49-4-15.67-8.42-23.86-12.8-10.25-5.49-13-14.1-6.46-23.78,3.52-5.22,8.46-9.65,13.33-13.76,6-5.05,12.58-9.4,19.26-14.31,6.07,3.92,8.82,9.32,6.24,16.29-3.78,10.24-5,20.63-4.87,31.51C1165.93,543,1163.38,549,1162.24,553.92Z"/><path class="cls-5" d="M628.2,264.34l-6.43-8.44c-2.08,5.33-3.76,10.17-5.86,14.82-2.76,6.12-10.57,6.63-14.53,1.11-5.61-7.82-2.11-17.93,7.24-20.53a57.16,57.16,0,0,1,7.69-1.07c-1.17-3.61-3.44-7.39-3.27-11.06.16-3.29,2.27-7.69,4.92-9.27,1.88-1.13,7.16.63,9.06,2.77a72.22,72.22,0,0,1,17.89,40.61c.75,6.47-2,10.59-9.21,10.8-1.82.05-3.66,1.41-5.41,1.25-3.34-.32-8-.26-9.54-2.3s-1-6.85.15-9.81C622.16,270.1,625.29,267.74,628.2,264.34Z"/><path class="cls-4" d="M829.72,635.73a3,3,0,0,1,0-.67c2.36-13.47,4.35-28.79,18.21-39.07,2.56-1.9,4.16-5.08,6.26-7.63,3.65-4.41,7.32-4,8.69,1.45,1.08,4.29,2,9.28.84,13.35-3.36,11.91-7.67,23.56-11.9,35.2-1,2.85-2.68,5.93-5,7.76a44.7,44.7,0,0,1-8.4,4.87,3.12,3.12,0,0,1-4.19-1.38c-1.47-2.92-3-5.84-4.3-8.82C829.58,639.82,829.83,638.54,829.72,635.73Z"/><path class="cls-5" d="M707.07,87.52c1.22,4.33,2.27,8.06,3.33,11.79H699.05c-.22.71-.4,3.24-1.65,5-1.75,2.52-4.28,4.49-6.48,6.7-1-2.61-2.08-5.18-2.94-7.83-.27-.85,0-1.89.12-3.23-1.81-.87-3.76-1.62-5.54-2.68-5.4-3.24-6.51-8.08-4.21-13.58,2-4.81,5.28-7,10.85-4.57,1.68.72,4.46-.5,6.51-1.37,4.37-1.86,8.42-5,12.94-5.86A17,17,0,0,1,719.9,74c4,2.48,3.85,6.65-.79,8.95C715.1,85,710.7,86.18,707.07,87.52Z"/><path class="cls-4" d="M315.57,442.2c.13-1.71.26-3.5.42-5.71-8.45,1.27-13.5-4-18.64-9.05-5.79-5.69-11.77-10.83-21.18-7l-.62-2.73c2.43-1.33,4.83-3.71,7.32-3.83,14.39-.67,31.8,4.79,36.34,17.48,7.36-.22,14.3-1,21.11-.34,2.7.25,5.13,3.52,7.8,5.5C341.08,443.76,327.77,445.84,315.57,442.2Z"/><path class="cls-5" d="M575,181.7a14.79,14.79,0,0,1,7.12-.13c4.12,1,8,1.71,11.46,3.35,7,3.34,7.32,12.42.14,15-7.41,2.62-15.76,3.49-23.69,3.43-5.52,0-10.48-8.3-9.76-14.07a5.76,5.76,0,0,1,2.94-4.07C567.1,183.8,571.09,182.75,575,181.7Z"/><path class="cls-4" d="M1112.51,564.08c-10.25-3.13-15.77-9-19.28-16.89s-6.61-15.85-10.13-23.68c-2.46-5.5-5.14-10.91-8.15-17.08a1.3,1.3,0,0,1,1.88-1.65,17.67,17.67,0,0,1,4.69,4.05c3.75,5.2,6.73,11,9.88,16.57,3.87,6.9,8.44,12.63,17.07,13.87,1.53.22,3.73,3,3.85,4.66C1112.78,550.27,1112.51,556.66,1112.51,564.08Z"/><path class="cls-4" d="M386.52,48.05c-.27,10.37-7.18,14.27-13.92,10.1-8.4-5.18-11.67-13.83-13-22.73-.41-2.69,3.94-7.11,7.15-8.92,1.52-.86,5.87,2.09,8.19,4.15,2.59,2.29,4.48,5.44,6.39,8.41C383.55,42.54,385.48,46.23,386.52,48.05Z"/><path class="cls-4" d="M264.17,41.28c22.59-10.38,23.66-10.32,25.52.8l-8.31.91C284,52.51,286,53.5,295.16,53.37a15.93,15.93,0,0,1,10.51,4c1.4,1.38.26,8.43-.88,8.74-5.24,1.42-11.05,2.43-16.32,1.56s-6.77-5.82-7-11.12c-.29-5.89-1.65-11.2-9.58-11.2C269.68,45.39,267.5,43.14,264.17,41.28Z"/><path class="cls-4" d="M1115.86,564.41c2.11.67,3.79.78,4.92,1.62,11.49,8.64,24.89,10.46,38.66,11.07,9.8.43,19.6.79,29.38,1.44,2.3.16,4.54,1.37,7.73,2.4C1175.42,592.73,1125.81,582.42,1115.86,564.41Z"/><path class="cls-4" d="M1174.06,530.84c10.11,2.7,18.29,13.67,17.79,22.56-.39,6.81-3.53,7.54-11.83,2.31a8.34,8.34,0,0,1-.85,2.53c-1.94,2.5-4,4.9-6,7.33-1.34-3-4.07-6.21-3.76-9.07C1170.3,547.9,1172.4,539.44,1174.06,530.84Z"/><path class="cls-5" d="M835.91,143.4c-16.92-1.61-25-17.82-18.14-29.9a135.85,135.85,0,0,1,15.37-22.22c5.5-6.28,13.22-9,23.6-7.25-5.53,4.28-10.28,7.67-14.72,11.43-5.82,4.93-12.07,9.57-16.95,15.35-8.3,9.84-6.92,18.36,3,26.26C830.41,138.93,832.72,140.82,835.91,143.4Z"/><path class="cls-4" d="M1198.11,471.68c-1.93-3.29-3.37-6.78-5.72-9.45-2.16-2.44-5.27-4.08-8.05-5.93-12.66-8.45-14.37-15.09-7.66-28.84,6.44,8.22,13.24,16.43,19.5,25C1202.06,460.57,1202.14,466.15,1198.11,471.68Z"/><path class="cls-4" d="M1097.74,15.54c0,5.75-7.14,14.15-14.93,16.53-3,.9-6.37.25-9.58.31.1-3.87-.81-8.14.53-11.51,2.61-6.59,13.92-11.45,20.76-9.86,2,.47,3.92,1.24,5.88,1.87Z"/><path class="cls-4" d="M355.84,160.05c-2.89,8.5,13,10.84,6.74,21.18a31.36,31.36,0,0,1-4.25-3.28c-3.36-3.75-6.59-4.51-10.09-.19-2.83,3.49-6,4-8.85.16-2.68-3.69-6-8.35-1.06-12,4.75-3.49,10.7-5.35,16.13-7.92Z"/><path class="cls-4" d="M332.59,86.66c-1.78,3.08-3.22,6.42-5.42,9.15-1.82,2.25-4.52,3.79-6.84,5.65-1.18-2.44-3-4.77-3.4-7.32-.79-5.59,1.36-10,6.66-12.77s8.62-1.9,10.35,3.57a1.32,1.32,0,0,1-1.35,1.72Z"/><path class="cls-5" d="M786,56.33c3.49,4.25,7.53,7.24,7.06,9-.78,2.94-4.16,6.67-7,7.26-4.26.87-9.44-1.69-8.86-6.78C777.47,62.9,782,60.43,786,56.33Z"/><path class="cls-4" d="M1087,35.58c4.79-1.51,8.56-8.65,13.79-2.4.88,1.06-1.71,7.16-4,8.35C1091.65,44.16,1088.74,40.43,1087,35.58Z"/><path class="cls-4" d="M1121.52,14.55c-3.33,1.76-6.53,3.94-10.06,5-1,.32-4.3-2.45-4.34-3.87-.13-4.83,3.37-6.62,7.71-6.21,2.17.21,4.24,1.52,6.36,2.34Z"/><path class="cls-4" d="M309.92,126a2.72,2.72,0,0,1,.05-4.14l2.78-2.29a2.92,2.92,0,0,1,4.07.35c1.2,1.38,2.32,2.76,2.32,4.14s-1.1,2.73-2.28,4.09a2.92,2.92,0,0,1-4.12.3Z"/><path class="cls-4" d="M1166.91,405.2c-.78-4.47-1.71-8.93-2.18-13.43-.08-.76,1.79-2.37,2.82-2.43a4.12,4.12,0,0,1,3.14,2.14c2,4.71,2.06,9.32-1.1,13.41Z"/><path class="cls-4" d="M358.19,49.78c-2.56,3.28-4.17,5.32-5.77,7.37-1.71-2.56-4-4.94-4.83-7.76-.34-1.1,2.86-4.71,3.85-4.49C353.6,45.38,355.37,47.59,358.19,49.78Z"/><path class="cls-5" d="M810.2,58.31c-4.5,7.26-5.12,7.17-11.74-2.38l7-7.76c2,4.62,3.24,7.51,4.49,10.4Z"/><path class="cls-4" d="M387.88,149.89l-2.37,2a2.73,2.73,0,0,1-3.83-.33c-1.24-1.45-2.43-2.89-2.35-4.26s1.6-2.5,3.14-3.71a2.74,2.74,0,0,1,3.69.26l2,2.08A2.75,2.75,0,0,1,387.88,149.89Z"/><path class="cls-5" d="M810,58.57a8.82,8.82,0,0,0,1.61-.94c1.65-1.52,3.24-3.11,4.86-4.66.92,1.46,2.89,3.26,2.54,4.31-.7,2.19-2.64,4-4.06,5.92q-2.37-2.43-4.73-4.88Z"/><path class="cls-4" d="M311.43,78.24a2.59,2.59,0,0,1,.2,3.8c-1.64,1.67-2.86,3-4.23,3.19s-4.3-3.19-4-4.45c.38-1.85,2.8-3.73,4.79-4.56C308.75,76,309.87,77,311.43,78.24Z"/><path class="cls-5" d="M758.58,331c-.33-6.38-1-12.29-.85-18.19.1-4.83,2.82-7,7.7-4.88,4.37,1.85,9.24,5.95,12.88,5,3.32-.84,5.26-7.09,7.88-10.9a23.38,23.38,0,0,1,3-2.74c1,12.26,9.86,16.18,18.69,20.35,1.91.9,3.28,3,4.9,4.49-1.74,1.83-3.25,4.9-5.26,5.26a118.46,118.46,0,0,1-18.37,1.51C779.38,331.11,769.64,331,758.58,331Z"/><path class="cls-4" d="M785.32,177.62c-.93,8.71-4.27,11.42-12.53,8.52-6-2.09-11.52-5.51-17.25-8.33l.39-1.78Z"/></g><g id="paths"><path class="cls-6" d="M159.56,198.94s31.95,119.37,151.31,131.14"/><path class="cls-6" d="M684.1,204S471.71,159.15,303.59,340.73"/><path class="cls-6" d="M684.1,210.15s112.64,82.94,99.19,246"/><path class="cls-6" d="M958.14,113.2c-159.72-38.67-262.27,82.38-262.27,82.38"/><path class="cls-6" d="M1191.83,61.08s-158.6-16.81-229.21,52.12"/><path class="cls-6" d="M1187.34,56s28,78.46-47.63,197.82"/><path class="cls-6" d="M1146.43,247.7S1022,257.79,995.13,402.37"/><path class="cls-6" d="M1147.56,243.22c5,1.68,142.34,218.55,100.31,502.68"/><path class="cls-6" d="M994.57,391.72s-135.06-40.35-209,57.16"/><path class="cls-6" d="M778.25,440.48c5,.33,53.43,88.14-41.47,234.25"/><path class="cls-6" d="M734.54,672.49S529.43,601.87,379.8,708.35"/><path class="cls-6" d="M374.76,689.86S370.83,608,416.23,542.47"/><path class="cls-6" d="M410.06,552.56s90.79-85.18,208.47-75.1"/><path class="cls-6" d="M683.54,210.71S565.86,389.48,611.25,468.5"/></g><g id="Pins"><circle class="cls-7" cx="162.08" cy="200.62" r="15.13"/><circle class="cls-8" cx="162.08" cy="200.62" r="9.25"/><circle class="cls-7" cx="315.63" cy="329.52" r="15.13"/><circle class="cls-8" cx="315.63" cy="329.52" r="9.25"/><circle class="cls-7" cx="684.94" cy="209.03" r="15.13"/><circle class="cls-8" cx="684.94" cy="209.03" r="9.25"/><circle class="cls-7" cx="959.82" cy="114.88" r="15.13"/><circle class="cls-8" cx="959.82" cy="114.88" r="9.25"/><circle class="cls-7" cx="1188.47" cy="62.77" r="15.13"/><circle class="cls-7" cx="1144.75" cy="244.34" r="15.13"/><circle class="cls-8" cx="1144.75" cy="244.34" r="9.25"/><circle class="cls-7" cx="996.81" cy="390.6" r="15.13"/><circle class="cls-8" cx="996.81" cy="390.6" r="9.25"/><circle class="cls-7" cx="781.61" cy="446.08" r="15.13"/><circle class="cls-8" cx="781.61" cy="446.08" r="9.25"/><circle class="cls-7" cx="376.44" cy="706.67" r="15.13"/><circle class="cls-8" cx="376.44" cy="706.67" r="9.25"/><circle class="cls-7" cx="406.7" cy="553.68" r="15.13"/><circle class="cls-8" cx="406.7" cy="553.68" r="9.25"/><circle class="cls-7" cx="733.7" cy="669.12" r="15.13"/><circle class="cls-8" cx="733.7" cy="669.12" r="9.25"/><circle class="cls-7" cx="603.4" cy="478.59" r="15.13"/><circle class="cls-8" cx="603.4" cy="478.59" r="9.25"/></g><g id="Planes"><path class="cls-9" d="M498.82,219.6l9.52,6.46,1.75.13-.73-.85.44.4-6.4-9.84c2.57-1.5,4.09-2.44,4.09-2.44l-.49-1.55a.61.61,0,0,0-.71-.79l-4.44,1-2.13-10.91v-.39l-1.44,1.73-2.37,10.67h0c0-.14,0,0,0,0h0v0l-20.53,5-.84-33.31c.1-2.91.07-2.89.07-2.89,1.73-1.76.55-1.94.55-1.94l-3,1.78-5.81,29-1.55.57-.21,0-6.5.6a2.14,2.14,0,0,0-1.93,2.34l.11,1.16a2.13,2.13,0,0,0,2.33,1.93l5.12-.48c-.26,2-.45,3.38-.58,4.32-4.78,1.75-15.28,6.08-17.83,11a5.1,5.1,0,0,0-.95,2.31c0,.06.1.12.15.18l-.05,0c3.92,4.05,13.48,2.25,24-1.66l3,2.26L467.68,237c-2.29.42-2.72,1.48-2.63,2.35a2.21,2.21,0,0,0,.16,1.13l.64,1.46a2.21,2.21,0,0,0,2.89,1.14l7.74-3.38,20.71,17.64,3.78-1-.5-.68-2.32-.91c-2.56-3.81-14.08-21-18.35-26.42C487.05,225,493.71,222.48,498.82,219.6Z"/><path class="cls-9" d="M813.61,116l-8.6-7.63-1.73-.36.61.94-.38-.45L808.59,119c-2.74,1.16-4.37,1.9-4.37,1.9l.28,1.6a.62.62,0,0,0,.61.88l4.53-.39.7,11.09-.06.38,1.66-1.53,3.73-10.27h0c0,.14,0,0,0,0h0l21-2.3-3.47,33.14c-.48,2.87-.44,2.85-.44,2.85-1.94,1.52-.8,1.85-.8,1.85l3.25-1.37,9.5-28,1.61-.38h.21l6.52.23a2.13,2.13,0,0,0,2.22-2.06l.05-1.16a2.15,2.15,0,0,0-2.07-2.22l-5.14-.19c.52-1.95.89-3.29,1.14-4.2,5-1.13,15.93-4.06,19.1-8.62a5.1,5.1,0,0,0,1.24-2.17c0-.07-.09-.13-.13-.19l.06,0c-3.37-4.53-13.08-4-24-1.45l-2.69-2.63,3.93-1.14c2.32-.12,2.88-1.11,2.91-2a2.11,2.11,0,0,0,0-1.14l-.44-1.53a2.2,2.2,0,0,0-2.72-1.5l-8.11,2.36L820.1,78.73l-3.88.51.41.75,2.19,1.2c2,4.11,11.25,22.63,14.77,28.57C826,112.16,819.05,113.78,813.61,116Z"/><path class="cls-9" d="M1177.64,176.94l-10.44,4.81-1,1.44,1.1-.19-.57.17,11.73-.4c0,3,0,4.77,0,4.77l1.59.38a.61.61,0,0,0,1-.2l1.46-4.31,10.44,3.81.33.21-.74-2.13-7.91-7.55h0c.11.1,0,0,0,0v-.06h0L1191,157.6l29,16.48c2.44,1.59,2.44,1.55,2.44,1.55.61,2.39,1.38,1.47,1.38,1.47l0-3.52L1202,153.64l.3-1.62c0-.07.06-.13.09-.19l2.84-5.88a2.15,2.15,0,0,0-1-2.86l-1-.51a2.15,2.15,0,0,0-2.86,1l-2.24,4.64-3.39-2.73c1-5,2.68-16.22-.22-21a5.14,5.14,0,0,0-1.49-2,.93.93,0,0,0-.23,0v-.06c-5.5,1.26-8.89,10.38-11,21.41l-3.48,1.41.53-4.06c.82-2.17.14-3.08-.65-3.46a2.15,2.15,0,0,0-1.05-.44l-1.58-.21a2.2,2.2,0,0,0-2.47,1.89l-1.1,8.37L1146.14,156l-1.08,3.76.84-.07,2-1.52c4.58-.22,25.24-1.22,32.1-2.07C1179.12,164.08,1177.82,171.08,1177.64,176.94Z"/><path class="cls-9" d="M922.14,386l8.25,8,1.71.44-.57-1,.36.47-4.6-10.79c2.79-1,4.45-1.7,4.45-1.7l-.22-1.62a.6.6,0,0,0-.56-.9l-4.54.19L926.21,368l.07-.38-1.72,1.45-4.18,10.1h0c0-.14,0,0,0,0h0l-21.08,1.36,4.94-32.95c.6-2.85.56-2.83.56-2.83,2-1.43.88-1.81.88-1.81l-3.3,1.22-10.74,27.53L890,372l-.2,0-6.51-.52a2.14,2.14,0,0,0-2.31,2l-.09,1.16a2.14,2.14,0,0,0,2,2.31l5.13.42c-.61,1.91-1,3.24-1.33,4.14-5,.91-16.09,3.35-19.46,7.76a5.14,5.14,0,0,0-1.34,2.11c0,.08.09.14.12.2h-.05c3.16,4.68,12.89,4.55,23.93,2.53l2.56,2.74-4,1c-2.32,0-2.93,1-3,1.86a2.2,2.2,0,0,0,0,1.14l.37,1.55a2.2,2.2,0,0,0,2.66,1.62l8.2-2,17.35,21,3.89-.34-.37-.76-2.13-1.3c-1.86-4.2-10.24-23.11-13.5-29.2C909.61,389.22,916.61,387.91,922.14,386Z"/><path class="cls-9" d="M550.4,653.93l8,8.27,1.69.5-.54-1,.35.48-4.25-10.94c2.83-.94,4.51-1.55,4.51-1.55l-.16-1.62a.61.61,0,0,0-.53-.92l-4.55,0,.17-11.11.08-.38-1.77,1.39-4.52,9.95h0c.06-.13,0,0,0,0h0v0l-21.11.67,6-32.77c.7-2.83.66-2.81.66-2.81,2-1.36.94-1.78.94-1.78l-3.34,1.11L520.4,638.62l-1.63.25-.21,0-6.49-.74A2.13,2.13,0,0,0,509.7,640l-.13,1.16a2.14,2.14,0,0,0,1.88,2.37l5.11.59c-.67,1.9-1.13,3.2-1.46,4.1-5,.73-16.19,2.8-19.71,7.11a5.09,5.09,0,0,0-1.4,2.06,2.12,2.12,0,0,0,.11.21H494c3,4.78,12.73,5,23.83,3.32l2.48,2.83-4,.83c-2.33-.06-3,.89-3.06,1.76a2.15,2.15,0,0,0-.08,1.13l.33,1.57a2.2,2.2,0,0,0,2.6,1.7L524.4,669,541,690.55l3.91-.21-.35-.77-2.09-1.37c-1.71-4.26-9.46-23.44-12.51-29.64C537.78,656.76,544.81,655.69,550.4,653.93Z"/><path class="cls-9" d="M467,506l-9.74-6.11-1.77-.07.77.83-.46-.39,6.76,9.6c-2.51,1.59-4,2.59-4,2.59l.55,1.53a.61.61,0,0,0,.74.77l4.4-1.14,2.53,10.82v.39L468.2,523l2-10.75h0c0,.14-.05,0-.05,0h.05v0h0l20.33-5.74,2.06,33.26c0,2.91,0,2.88,0,2.88-1.67,1.82-.48,2-.48,2l3-1.88,4.75-29.17,1.52-.63.21,0,6.47-.85a2.14,2.14,0,0,0,1.85-2.4l-.15-1.16a2.13,2.13,0,0,0-2.4-1.84l-5.11.66c.2-2,.33-3.38.43-4.33,4.71-1.93,15-6.64,17.42-11.66A5.17,5.17,0,0,0,521,489a1.33,1.33,0,0,0-.16-.17l.05,0c-4.07-3.92-13.55-1.76-23.93,2.53l-3.08-2.14,3.68-1.78c2.27-.5,2.66-1.57,2.54-2.44a2.09,2.09,0,0,0-.2-1.12l-.69-1.44a2.2,2.2,0,0,0-2.93-1l-7.6,3.66-21.35-16.87-3.74,1.14.52.67,2.36.82c2.69,3.72,14.84,20.46,19.3,25.74C478.6,500.14,472,502.88,467,506Z"/></g></g></svg>