<svg xmlns="http://www.w3.org/2000/svg" viewBox="0 0 130.48 200.39"><defs><style>.cls-1{fill:#292b30;}.cls-2{fill:#afafaf;}.cls-3{fill:#9b9b9b;}.cls-4{fill:#876176;}.cls-5{fill:#9f8191;}.cls-6{fill:#fcfdff;}.cls-7{fill:#f0f5f8;}.cls-8{fill:#c9c8c7;}.cls-9{fill:#333d47;}.cls-10,.cls-11,.cls-12{fill:none;stroke-linecap:round;stroke-miterlimit:10;}.cls-10{stroke:#333d47;}.cls-11{stroke:#666766;}.cls-12{stroke:gray;}.cls-13{fill:gray;}</style></defs><title>Asset 10</title><g id="Layer_2" data-name="Layer 2"><g id="Characters"><path class="cls-1" d="M108.05,152.63H22.25V42.9A42.9,42.9,0,0,1,65.15,0h0a42.9,42.9,0,0,1,42.9,42.9Z"/><rect class="cls-2" x="51.71" y="98.97" width="26.55" height="51.81"/><path class="cls-3" d="M78.25,104.37s-2.93,9.27-26.55,10.4V96.2H78.25Z"/><path class="cls-2" d="M64.87,103.06c15.77,0,29-18.85,32.62-43.94a96.61,96.61,0,0,0,1-13.8c0-19.52-15-35.35-33.6-35.35S31.28,25.8,31.28,45.32a96.61,96.61,0,0,0,1,13.8C35.87,84.21,49.1,103.06,64.87,103.06Z"/><path class="cls-1" d="M26.72,48.15s-3.1-41,38.43-41,38.43,41,38.43,41H83L81.11,29.2l-1.8,19H68.07L65.34,26.39,62.55,48.15H48.86L47.34,29.2l-2.4,19Z"/><path class="cls-1" d="M29.17,48.15s-6.06,18.94,4.88,27.38c0,0-3.53-17.41,0-29.26Z"/><path class="cls-1" d="M101.13,48.15s6.06,18.94-4.88,27.38c0,0,3.53-17.41,0-29.26Z"/><path class="cls-4" d="M130.46,184.83c-17,15.4-41.06,14-65.85,14s-47.53,1.39-64.56-14c-.45-11.58,2.32-51.52,8.06-52.66,5.57-1.09,12.67-2.69,23.76-4.85,8.73-1.68,19.83-3.75,19.83-8.15s13.45,36.43,13.45,36.43,13.11-40.85,13.11-36.43,11.1,6.47,19.85,8.17c11.09,2.14,18.18,3.74,23.74,4.83S130.76,173.83,130.46,184.83Z"/><path class="cls-5" d="M44.28,124.59S23.7,143.59,24,143.81,44.28,152,44.28,152l-3.59,8.6,25,39.81Z"/><path class="cls-5" d="M85.7,124.59s20.58,19,20.25,19.22S85.7,152,85.7,152l3.58,8.6L65.36,199.64Z"/><path class="cls-6" d="M85.7,124.59,65.15,199.26,44.28,124.59c4.27-1.32,7.42-3.35,7.42-5.7,0-4.41,0-8.48,0-8.48L65.15,151l13.12-40.54s0,4.07,0,8.48C78.26,121.24,81.54,123,85.7,124.59Z"/><path class="cls-7" d="M78.27,110.41l-4.66,14.47S72.65,132,84.09,142l7.36-15.88S81,119.24,78.27,110.41Z"/><path class="cls-7" d="M51.71,110.41l5.23,15.77S57.69,132,46.25,142l-7.36-16S49,119.24,51.71,110.41Z"/><path class="cls-1" d="M73.12,51c-1.72.2-2.43-2.35-.91-3.28a18.64,18.64,0,0,1,1.68-.93A16.61,16.61,0,0,1,81.56,45a13.67,13.67,0,0,1,4.32,1c2.74,1.22,4.84,5.14,4.84,5.14s-4.37-2.91-7.4-2.78C79.28,48.6,77.08,50.56,73.12,51Z"/><path class="cls-1" d="M56.58,50.48c1.72.2,2.43-2.35.91-3.28a18.64,18.64,0,0,0-1.68-.93,16.57,16.57,0,0,0-7.67-1.79,13.67,13.67,0,0,0-4.32,1.05C41.08,46.75,39,50.67,39,50.67s4.37-2.92,7.4-2.78C50.42,48.05,52.62,50,56.58,50.48Z"/><path class="cls-8" d="M54.15,59.75c-.5,1.8-3.08,2.65-5.76,1.91s-5.48-4.33-5-6.12,4.1-1.13,6.78-.39S54.64,58,54.15,59.75Z"/><circle class="cls-9" cx="49.33" cy="58.19" r="2.59"/><path class="cls-10" d="M42.63,55S50.72,52.58,56,59.43"/><path class="cls-11" d="M57.67,72.27a2.14,2.14,0,0,0,2,1.24,3.09,3.09,0,0,1,2.49.83,5.12,5.12,0,0,0,5,.14,3.25,3.25,0,0,1,2.63-1A2.1,2.1,0,0,0,72,72.27"/><path class="cls-12" d="M60.63,93A18.24,18.24,0,0,0,70,93"/><path class="cls-13" d="M72.91,83.52S69,80.57,68,80.34a3.49,3.49,0,0,0-3.17,1.33C64,81,63,80,61.63,80.34c-1,.23-5.32,3.45-5.32,3.45s1.61,5.17,2.27,5.93c1.54,1.76,3.5,1.18,6.14,1.18,2.14,0,4.46.49,6.22-1.48C71.61,88.67,72.91,83.52,72.91,83.52Z"/><path class="cls-8" d="M74.12,59.75c.5,1.8,3.08,2.65,5.76,1.91s5.48-4.33,5-6.12-4.1-1.13-6.78-.39S73.62,58,74.12,59.75Z"/><circle class="cls-9" cx="78.93" cy="58.19" r="2.59"/><path class="cls-10" d="M85.64,55s-8.09-2.44-13.38,4.41"/></g></g></svg>