<svg xmlns="http://www.w3.org/2000/svg" viewBox="0 0 855.3 662.62"><defs><style>.cls-1{fill:#707070;}.cls-2{fill:#333d47;}.cls-3{fill:#959595;}.cls-4{fill:#3387a1;}.cls-5{fill:#fff9f8;}.cls-6{fill:#353c3d;}.cls-7{fill:#fff;}.cls-8{fill:#e4efee;}.cls-9{fill:#778482;}.cls-10{fill:#adcfd9;}.cls-11{fill:#292b30;}.cls-12{fill:#8b8b8b;}.cls-13{fill:#d1d1d1;}.cls-14{fill:#bababa;}.cls-15{fill:#8a8b8c;}.cls-16{fill:#9dc5d2;stroke:#bababa;stroke-width:30px;}.cls-16,.cls-19,.cls-20{stroke-miterlimit:10;}.cls-17{fill:#e8e8e8;}.cls-18{fill:#c9c8c7;}.cls-19,.cls-20{fill:none;stroke-linecap:round;}.cls-19{stroke:#333d47;stroke-width:1.8px;}.cls-20{stroke:#545759;}.cls-21{fill:#85b7c7;}</style></defs><g id="Layer_2" data-name="Layer 2"><g id="Extra"><polygon class="cls-1" points="354.49 393.14 51.21 390.48 51.21 222.88 346.51 337.27 354.49 393.14"/><polygon class="cls-2" points="808.63 395.88 808.63 484.93 461.14 387.77 91.22 485.06 91.22 395.88 78.81 395.88 78.81 555.63 91.22 555.63 91.22 491.22 461.02 393.96 808.63 491.15 808.63 555.63 821.04 555.63 821.04 395.88 808.63 395.88"/><rect class="cls-3" x="25.02" y="384.98" width="830.28" height="24.13"/><rect class="cls-4" x="31.41" y="241.22" width="318.48" height="58.18" rx="16" transform="translate(162.56 -59.27) rotate(30.32)"/><rect class="cls-4" x="331.83" y="323.48" width="510.69" height="61.13" rx="22.44"/><path class="cls-5" d="M196.76,241.11,73.83,172.46a3.88,3.88,0,0,1-1.51-5.26l17.73-32.33c3.35-6.11,8.83-9.57,12.23-7.67l97.78,54.61c13.62,7.61,14.35,32.87,2.09,57.61l0,0A3.86,3.86,0,0,1,196.76,241.11Z"/><path class="cls-2" d="M84.53,526.17H819.24a2.25,2.25,0,0,1,2.25,2.25v25.08a0,0,0,0,1,0,0H82.28a0,0,0,0,1,0,0V528.43A2.25,2.25,0,0,1,84.53,526.17Z"/><path class="cls-2" d="M142.42,577.83a33.07,33.07,0,0,0-22.09,1.75v-33c0-6.78-4.82-12.28-10.76-12.28h0c-5.94,0-10.76,5.5-10.76,12.28V604a48.45,48.45,0,0,0-1.66,25.27c3.49,17.6,16.63,31.07,32.35,33.08,24.1,3.07,44.29-19.87,41.76-47.35C169.6,597,157.85,581.92,142.42,577.83Z"/><path class="cls-6" d="M133.84,662.6c-20.74,0-37.61-19.27-37.61-42.94s16.87-42.95,37.61-42.95,37.6,19.27,37.6,42.95S154.57,662.6,133.84,662.6Z"/><path class="cls-7" d="M133.84,648.57c-14,0-25.32-13-25.32-28.91s11.36-28.91,25.32-28.91,25.31,13,25.31,28.91S147.79,648.57,133.84,648.57Z"/><path class="cls-8" d="M141.32,620.88c0,5.26-3.74,9.52-8.35,9.52s-8.35-4.26-8.35-9.52,3.74-9.53,8.35-9.53S141.32,615.61,141.32,620.88Z"/><path class="cls-6" d="M133,611.35c-4.61,0-8.35,4.26-8.35,9.53s3.74,9.52,8.35,9.52,8.35-4.26,8.35-9.52-3.74-9.53-8.35-9.53Z"/><path class="cls-9" d="M113.43,547.45a3.6,3.6,0,1,1-3.56-4.07A3.83,3.83,0,0,1,113.43,547.45Z"/><path class="cls-2" d="M775.05,577.83a33.09,33.09,0,0,1,22.1,1.75v-33c0-6.78,4.81-12.28,10.76-12.28h0c5.94,0,10.76,5.5,10.76,12.28V604a48.45,48.45,0,0,1,1.66,25.27c-3.49,17.6-16.63,31.07-32.35,33.08-24.1,3.07-44.29-19.87-41.76-47.35C747.88,597,759.63,581.92,775.05,577.83Z"/><path class="cls-6" d="M783.64,662.6c20.74,0,37.61-19.27,37.61-42.94s-16.87-42.95-37.61-42.95S746,596,746,619.66,762.91,662.6,783.64,662.6Z"/><path class="cls-7" d="M783.64,648.57c14,0,25.32-13,25.32-28.91s-11.36-28.91-25.32-28.91-25.31,13-25.31,28.91S769.68,648.57,783.64,648.57Z"/><path class="cls-8" d="M776.16,620.88c0,5.26,3.74,9.52,8.35,9.52s8.34-4.26,8.34-9.52-3.73-9.53-8.34-9.53S776.16,615.61,776.16,620.88Z"/><path class="cls-6" d="M784.51,611.35c4.61,0,8.34,4.26,8.34,9.53s-3.73,9.52-8.34,9.52-8.35-4.26-8.35-9.52,3.74-9.53,8.35-9.53Z"/><path class="cls-9" d="M804.05,547.45a3.59,3.59,0,1,0,3.56-4.07A3.83,3.83,0,0,0,804.05,547.45Z"/><rect class="cls-2" y="165.47" width="27.93" height="241.99" rx="13.97"/><path class="cls-10" d="M713.63,507.53l-365.79-5.32L363.24,191l220.63,55a40.84,40.84,0,0,1,27.5,23.7Z"/><path class="cls-11" d="M164.87,38.78l-.06.76a15.89,15.89,0,0,0,.14,2.12c.12.91.34,2,.61,3.33.13.66.28,1.37.42,2.16.07.4.13.82.18,1.31a7.77,7.77,0,0,1,0,.87,6.55,6.55,0,0,1-.11,1,7.63,7.63,0,0,1-.26,1l-.24.76a12.29,12.29,0,0,0-.35,1.23,2.94,2.94,0,0,0-.09.87,1.77,1.77,0,0,0,.18.46,1.37,1.37,0,0,0,.29.34l.21.21.06.06-2.15,1.2h0l0,0,.06,0a2.79,2.79,0,0,0,.24-.19l.17-.16.07-.09c2.4-2.5.67-.69,1.21-1.25h0a2.12,2.12,0,0,1,.58.3c.22.14.44.28.64.43a6.6,6.6,0,0,1,1.11,1,4.42,4.42,0,0,1,.83,1.24,6.42,6.42,0,0,1,.64,1.41,8,8,0,0,1-.89,6.36c-.29.51-.63,1.08-.92,1.54-.17.27-.23.42-.34.6l-.05.16s0,.07,0,.06h0l-.09,0c-.43-.19-1.06-.34-1.18-.41s-.24-.07-.37-.09l-.2,0c-.08,0-.14,0-.14,0a.54.54,0,0,0-.26,0H165l.1,0,0,0,.1,0a1.75,1.75,0,0,0,.32-.12,2.69,2.69,0,0,0,.29-.16l.12-.1h0l-.51.31h0l0,0a1,1,0,0,0,.15-.11s.18-.14.25-.21l.3-.3a4.79,4.79,0,0,0,.43-.47c.18-.23.13-.15.15-.16l0,0,.18.12,1.32.79A11.85,11.85,0,0,1,170,67.89a8.07,8.07,0,0,1,2.14,3.35,13.41,13.41,0,0,1,.32,1.79,8.14,8.14,0,0,1-.09,1.84,14.5,14.5,0,0,1-1.22,3.59l-.21.41c0,.06,0,0-.05,0l-.11,0a.63.63,0,0,0-.19.23.58.58,0,0,0-.05.35,1.94,1.94,0,0,0,.05.2c0,.09,0,.13.39.42A18.42,18.42,0,0,1,173,82.09a8.55,8.55,0,0,1,1.8,3.11,10.47,10.47,0,0,1,.4,2.4,9.42,9.42,0,0,1-.15,2.18l-.26,1.27a3.5,3.5,0,0,0,0,1.12,2.72,2.72,0,0,0,.51,1.14,5,5,0,0,0,.45.52c.18.18.43.38.67.59a10.8,10.8,0,0,1,1.4,1.39,6.66,6.66,0,0,1,.94,1.68l-.22-.14a4.2,4.2,0,0,0-.63-.37,8.38,8.38,0,0,0-2.56-.78,7.51,7.51,0,0,1-2.33-.82A5.75,5.75,0,0,1,170.82,93a8.2,8.2,0,0,1-.69-1.79c-.16-.6-.25-1.18-.36-1.61a3.64,3.64,0,0,0-.37-1,6.07,6.07,0,0,0-.54-.82,2,2,0,0,0-.56-.34l-1-.44-.83-.37a13,13,0,0,1-1.43-.85,8.21,8.21,0,0,1-2.52-2.59,5.06,5.06,0,0,1-.44-.83,4.12,4.12,0,0,1-.32-.89,7.15,7.15,0,0,1-.34-1.9,10,10,0,0,1,.7-4l.23-.66c0-.11,0-.12,0-.12v0l0-.07a.17.17,0,0,0-.12-.06.13.13,0,0,0-.09,0h0s0,0,0,0l-.66-.4a11.75,11.75,0,0,1-1.67-1.32,8.22,8.22,0,0,1-1.62-2.28,7.72,7.72,0,0,1-.8-3.06,8.45,8.45,0,0,1,.1-1.62,9,9,0,0,1,.36-1.38,11,11,0,0,1,.47-1.1l.48-.86.45-.67.2-.29.09-.12h0a.54.54,0,0,0,.19,0,.43.43,0,0,0,.23-.51V60.9s0,0,0,0l-.12-.13a8.1,8.1,0,0,1-.61-.73l-.29-.44a3.67,3.67,0,0,1-.2-.39c-.13-.32-.26-.63-.38-.94s-.21-.71-.3-1.06a8.36,8.36,0,0,1,.17-4.36,9.82,9.82,0,0,1,1.64-3.08c.29-.39.53-.67.74-.91a2.11,2.11,0,0,0,.41-.43,3.16,3.16,0,0,0,.34-.89l.34-1.21c.23-.84.47-1.72.75-2.58A13.33,13.33,0,0,1,164.87,38.78Z"/><path class="cls-11" d="M182,19.12l-.39.65a14.66,14.66,0,0,0-.83,1.95c-.31.86-.61,1.94-1,3.23-.18.65-.37,1.35-.61,2.12a12.34,12.34,0,0,1-.43,1.24,6.66,6.66,0,0,1-.92,1.61,9.59,9.59,0,0,1-.68.75l-.57.57c-.35.35-.63.64-.86.92a2.51,2.51,0,0,0-.43.71,1.7,1.7,0,0,0-.05.49,1.32,1.32,0,0,0,.12.43l.09.29v.06l-2.42.1h0l.18,0a2,2,0,0,0,.35-.08l1.84-.62a8.1,8.1,0,0,1,1.31,2.67,4.84,4.84,0,0,1,.17,1.48,6.13,6.13,0,0,1-.08,1.54,8,8,0,0,1-3.69,5.23c-.49.32-1,.67-1.53,1-.27.16-.38.26-.55.37a1.14,1.14,0,0,1-.11.11s0,0,0,0h0l-.21-.25c-.16-.18-.34-.36-.52-.53s-.18-.2-.28-.29a2.17,2.17,0,0,0-.29-.24l-.17-.11c-.06,0,0,0-.06,0a.53.53,0,0,0-.21-.12.49.49,0,0,0,.22.06h.05l.16,0,.35,0a1.87,1.87,0,0,0,.34,0h.14l-.6,0h.1l.18,0a1.68,1.68,0,0,0,.36-.08c.16-.06.69-.21,1.05-.38,0,0,0,.08.17.26.26.43.53.86.8,1.29a11.17,11.17,0,0,1,.88,1.85,8,8,0,0,1,.39,4,11.61,11.61,0,0,1-.52,1.74,7.94,7.94,0,0,1-.91,1.6,13.72,13.72,0,0,1-2.72,2.66l-.37.26h-.17a.55.55,0,0,0-.27.11.58.58,0,0,0-.2.29,1.18,1.18,0,0,0,0,.2l0,.12.2.47a19.67,19.67,0,0,1,1,2.66A8.64,8.64,0,0,1,170,65a10.87,10.87,0,0,1-.72,2.32,9.2,9.2,0,0,1-1.13,1.88l-.8,1a3.35,3.35,0,0,0-.5,1,2.62,2.62,0,0,0-.06,1.25,6.63,6.63,0,0,0,.5,1.52,10.57,10.57,0,0,1,.6,1.88,6.31,6.31,0,0,1,.08,1.93l-.13-.22a5.59,5.59,0,0,0-.39-.62,8.94,8.94,0,0,0-1.94-1.88,7.71,7.71,0,0,1-1.69-1.78,5.86,5.86,0,0,1-.92-3.15,11.85,11.85,0,0,1,.6-3.53,4.58,4.58,0,0,0,0-2,2.12,2.12,0,0,0-.35-.56l-.69-.86-.56-.71-.16-.22-.25-.38c-.17-.25-.31-.51-.46-.77a8.58,8.58,0,0,1-1.1-3.46,7.88,7.88,0,0,1,.64-3.74A9.8,9.8,0,0,1,163,50.59l.53-.5c.09-.09.07-.08.08-.09v0s0-.06,0-.08a.18.18,0,0,0-.07-.11.13.13,0,0,0-.09,0h0s0,0,0,0l-.4-.65a11.37,11.37,0,0,1-.87-1.89,8,8,0,0,1-.43-2.72c0-.24,0-.48,0-.72a3.75,3.75,0,0,1,.11-.77,8.09,8.09,0,0,1,.48-1.59,9.45,9.45,0,0,1,.81-1.43,11.38,11.38,0,0,1,.95-1.1c.3-.28.62-.54.94-.79l.82-.55c.26-.16.48-.27.72-.41l.32-.16c.13-.07.13-.06.14-.06a.56.56,0,0,0,.18,0,.43.43,0,0,0,.45-.36v0s0,0,0-.15a6.24,6.24,0,0,1-.31-1.9l.09-1a8.88,8.88,0,0,1,2.26-4.9,9.91,9.91,0,0,1,2.89-2c.43-.2.79-.35,1.07-.47a1.77,1.77,0,0,0,.57-.2,2.72,2.72,0,0,0,.7-.61l.84-.92c.59-.65,1.19-1.31,1.83-2A13.2,13.2,0,0,1,182,19.12Z"/><polygon class="cls-12" points="238.36 127.94 209.21 128.54 203.26 95.24 230.03 95.24 238.36 127.94"/><path class="cls-13" d="M206.27,117.91s-27.42,7.85-4,61.72c9.23,21.18,15.24,44.76,19.14,65.58,5.78,30.79,39,50.86,72.66,43.71l28.78-6.11S276.78,138,240,124.93C240,124.93,221.85,112.18,206.27,117.91Z"/><ellipse class="cls-14" cx="215.43" cy="138.85" rx="17.44" ry="15.76"/><path class="cls-14" d="M260.59,207.24l28.15-12c-21.45-19.24-44.13-46.65-61.11-66.71L201.4,147.67C219,168.4,237.94,186.92,260.59,207.24Z"/><path class="cls-15" d="M301,196.75l22.65-7.61s5.18,3.26,12.35-3.24c2.95-2.68,5.71-3.28,7.16-2.91a6.64,6.64,0,0,1,3.55,1.48c1.87,1.36,4.83-.18,1.93-3.62,0,0,2.79-.42-.24-3.88,0,0,2-.92-1.3-3.53a26.22,26.22,0,0,0-5.22-3.08c-6-2.81-8.39-1.21-9.52-.81s-11.94,6.89-11.94,6.89l-26.31,4.24Z"/><path class="cls-16" d="M313.2,186.22c-18.06,4.35-49.31,5-52.16,5.06"/><path class="cls-12" d="M261.82,74.13l-5.61-6.29c0-1.22,1.52-7.7,1.48-8.93-.74-23-20-32.81-40.9-30.28s-33.24,23.44-28.8,46c4.76,24.22,33.41,32.09,55.28,35.12,9,1.25,11-4.93,13.22-12.18l1.6-.37a2.32,2.32,0,0,0,1.4-2.2A3.52,3.52,0,0,0,257,91.7l-6.23-2.21,7.58.3c2.07-1.36,2.9-2.73,1-4.34A25.55,25.55,0,0,1,257,83.13a38,38,0,0,0,3.37-1.92C263.31,79.13,264.22,76.84,261.82,74.13Z"/><path class="cls-17" d="M257.73,92.82c-7.08-1-7-5-7-5,2,2.12,7.58,1.41,8,1.49Z"/><path class="cls-18" d="M254,64.26a4,4,0,0,1-4.11,3.59c-2,0-4.86-.82-4.82-2.89s3.32-4.28,5.36-4.24A3.45,3.45,0,0,1,254,64.26Z"/><ellipse class="cls-2" cx="252.54" cy="64.36" rx="1.54" ry="2.79"/><path class="cls-19" d="M254,62.54s-3.61-5.9-9.36,2.27"/><path class="cls-2" d="M254.76,56.09a1.35,1.35,0,0,0-.26-2.66c-.52,0-1.08,0-1.68,0a17.68,17.68,0,0,0-6.93,2A12.62,12.62,0,0,0,242.62,58,10,10,0,0,0,241,60.74s2-1,4.5-2.2C248.89,57,251.32,57.42,254.76,56.09Z"/><path class="cls-20" d="M259.45,80.83s-.72-.48-2.4.09c-1.45.5-4.29.53-4.29-1.33"/><path class="cls-11" d="M250.43,24.07a18.42,18.42,0,0,0,1.79,1.85c1.63,1.44,3.61,2.6,4.63,4.54,1.64,3.14,0,7.16-2.57,9.58a14.1,14.1,0,0,1-8.45,3.75c-3,.24-6.51-.33-8.59,1.88a7.81,7.81,0,0,0-1.65,3.48,35.25,35.25,0,0,0-1.07,11.53c.1,1.47.07,3.37-1.28,3.91s-2.72-.84-4.17-.89c-1.66-.05-2.86,1.58-3.52,3.13s-1.2,3.32-2.63,4.19c-2.62,1.6-12.34-2.06-14.31-4.44-1.79,6.38,5.76,14.14,4.66,20.69-1.85,11-8.39,22.44-20.89,16.58-7.82-3.67-15.58-8-21.33-14.52s-9.25-15.66-7.28-24.2c1-4.22,3.23-8.18,3.32-12.52.1-4.52-2.17-8.78-2.39-13.29a14.91,14.91,0,0,1,6.14-12.69c4.82-3.41,11.56-3.74,15.52-8.15,2.1-2.32,3.11-5.51,5.28-7.77s5.51-3.39,8.64-4.21c7.75-2,15.84-3.09,23.74-1.86s15.61,5,20.63,11.31C246.71,18.55,248.3,21.56,250.43,24.07Z"/><path class="cls-11" d="M210.12,35.54a7.64,7.64,0,0,1,.68.36,10.07,10.07,0,0,1,1.78,1.45,23.62,23.62,0,0,1,2.35,2.78l1.29,1.79c.23.3.45.61.67.87a1.69,1.69,0,0,0,.55.43c.09.05.2.08.29.12l.48.27a14.74,14.74,0,0,1,1.3.83,9.57,9.57,0,0,1,1.54,1.4A9,9,0,0,1,222.43,48a8.79,8.79,0,0,1,.65,2.66,10,10,0,0,1,0,1.33,3,3,0,0,1,0,.38,4.67,4.67,0,0,1-.13.67,4.87,4.87,0,0,1-.18.61c-.06.17-.16.4-.19.49a.77.77,0,0,0,0,.32.45.45,0,0,0,.15.21.57.57,0,0,0,.43.1s0,0,.1,0c.27.16.67.44,1,.69A9.09,9.09,0,0,1,227,58.57a9.92,9.92,0,0,1,.52,1.31,10.8,10.8,0,0,1,.26,1.4,5.73,5.73,0,0,1,0,1.31,7.63,7.63,0,0,1-.17,1.26,9.76,9.76,0,0,1-1.76,3.64l-.33.44h-.08s-.12,0-.09.2l.35.42c.21.22.42.49.62.74a11.15,11.15,0,0,1,1.07,1.6,8.41,8.41,0,0,1,1,3.63,8.17,8.17,0,0,1-.83,3.66,10.23,10.23,0,0,1-1,1.62c-.18.26-.39.51-.6.76s-.26.27-.39.41c-.35.35-.71.7-1.06,1.06a2.58,2.58,0,0,0-.54.61,6.92,6.92,0,0,0-.24,1,4.47,4.47,0,0,0,0,1.33,13.69,13.69,0,0,1,.21,2.25,7.37,7.37,0,0,1-.42,2.45,5.34,5.34,0,0,1-1.3,2,8.91,8.91,0,0,1-1.67,1.25,7.27,7.27,0,0,0-2.61,2.37s0-.09,0-.26a3.74,3.74,0,0,1,.07-.79,8.23,8.23,0,0,1,1.13-2.86,5,5,0,0,0,.65-1.56,2.8,2.8,0,0,0-.17-1.59,16.44,16.44,0,0,0-1-1.81,8.92,8.92,0,0,1-.78-1.84,11,11,0,0,1-.4-2.21,8.48,8.48,0,0,1,.36-2.93A13.83,13.83,0,0,1,218.88,77l.51-.92.1-.18v-.17a.87.87,0,0,0-.09-.4.63.63,0,0,0-.53-.32h0l-.08-.08-.2-.17-.31-.3-.38-.39a13.12,13.12,0,0,1-1.41-1.67,8.35,8.35,0,0,1-1.47-4,9.82,9.82,0,0,1,.15-2,8.61,8.61,0,0,1,.68-1.94A10.38,10.38,0,0,1,217,62.54l.64-.84.21-.29.09-.14h0l.07,0c.21.12.42.22.64.32a4.08,4.08,0,0,0,.43.18l.31.11.1,0,.06,0h.05c.13,0-1.15-.22-.61-.11a2.22,2.22,0,0,0,.37.09c1.2.14,1.1-.41-.25.69a6.3,6.3,0,0,0-.68.58,1.2,1.2,0,0,0-.12.12h0l-.12-.14-.27-.23-.18-.14-.35-.26a12,12,0,0,1-3.19-3.17,7.26,7.26,0,0,1,.21-8.16c.11-.16.24-.31.35-.47l.19-.23.08-.08,0,0,1.53.75.35.16.26.1.17.05h.09L215,51.1h0a1.15,1.15,0,0,1,.1-.23,1.07,1.07,0,0,1,.07-.15,1.19,1.19,0,0,0,.16-.67,3,3,0,0,0-.73-1.37l-.87-1.1a7,7,0,0,1-1.06-1.69,7.82,7.82,0,0,1-.49-1.58c-.1-.46-.18-.9-.25-1.33-.14-.85-.27-1.69-.41-2.54A16.22,16.22,0,0,0,210.12,35.54Z"/><path class="cls-11" d="M171.66,67l.28.71a15,15,0,0,0,1,1.85c.5.77,1.16,1.68,2,2.75.4.53.84,1.11,1.3,1.77.24.33.47.68.72,1.1a5,5,0,0,1,.39.77,5.55,5.55,0,0,1,.32.92,8.19,8.19,0,0,1,.19,1c0,.26.07.52.11.79a10.82,10.82,0,0,0,.21,1.27,2.82,2.82,0,0,0,.29.83,1.86,1.86,0,0,0,.35.34,1.32,1.32,0,0,0,.41.17l.26.08.07,0h0c1.29-1.82-1.75,2.49-1.43,2h0l0,0,0-.06a2.29,2.29,0,0,0,.13-.27,1.8,1.8,0,0,0,.08-.21l0-.11.55-1.72H179a3.38,3.38,0,0,1,.69,0c.26,0,.51.06.76.11a6.48,6.48,0,0,1,1.42.41,4.73,4.73,0,0,1,1.28.75,6.58,6.58,0,0,1,1.18,1,8,8,0,0,1,1.93,6.11c-.06.59-.11,1.22-.18,1.8,0,.33,0,.49-.05.71l0,.17c0,.08,0,.07,0,0-.22,0-.5,0-.75.07l-.35.06h-.19a3,3,0,0,0-.75.19.62.62,0,0,0-.25.1h0a.46.46,0,0,0,.07-.07s0,0,.08-.08a2.72,2.72,0,0,0,.24-.24,1.51,1.51,0,0,0,.18-.26l.08-.14v0c-.64,1-.17.27-.31.5l0,0a4.78,4.78,0,0,0,.22-.45c0-.13.06-.19.13-.38a4.62,4.62,0,0,0,.19-.6c0-.11,0-.18.07-.33h.05l.21,0,1.59.14a10.81,10.81,0,0,1,2,.41A7.89,7.89,0,0,1,192,93.14a11.86,11.86,0,0,1,1,1.47,8.07,8.07,0,0,1,.71,1.68,13.88,13.88,0,0,1,.44,3.78v.47l0,0a.36.36,0,0,0-.07.1.49.49,0,0,0-.08.28.63.63,0,0,0,.1.34,2.09,2.09,0,0,0,.14.17c.09,0,0,.09.46.19a18.58,18.58,0,0,1,2.71.81,8.24,8.24,0,0,1,3,2,10,10,0,0,1,1.4,2,9.33,9.33,0,0,1,.79,2l.3,1.23a3.21,3.21,0,0,0,.48,1,2.7,2.7,0,0,0,.94.79,5.19,5.19,0,0,0,.63.27c.23.08.55.16.85.24a10.06,10.06,0,0,1,1.85.62,6.21,6.21,0,0,1,1.57,1.1l-.25,0a5.41,5.41,0,0,0-.72-.06,8.21,8.21,0,0,0-2.63.43,7.7,7.7,0,0,1-2.44.29,5.63,5.63,0,0,1-3-1.18,7.21,7.21,0,0,1-1.4-1.32c-.4-.47-.74-1-1-1.3a3.45,3.45,0,0,0-.76-.74,4.68,4.68,0,0,0-.82-.49,5.62,5.62,0,0,0-1.7,0l-.9,0a15.48,15.48,0,0,1-1.72-.14,8.25,8.25,0,0,1-3.37-1.24,5,5,0,0,1-.75-.56,4.64,4.64,0,0,1-.67-.66,7.3,7.3,0,0,1-1.11-1.57,9.86,9.86,0,0,1-1.08-3.89l-.08-.73c0-.13,0-.06,0-.09l-.07-.05a.17.17,0,0,0-.14,0,.16.16,0,0,0-.08.05s0,0,0,0,0,0-.06,0l-.69-.07a11.09,11.09,0,0,1-2.09-.47,7.87,7.87,0,0,1-2.48-1.38,7.59,7.59,0,0,1-2-2.46,8.21,8.21,0,0,1-.85-2.89c0-.39,0-.83,0-1.18l.07-1,.12-.79a2.42,2.42,0,0,1,.09-.47.44.44,0,0,0,.15-.11.43.43,0,0,0,0-.57s0,0-.2-.12a6.72,6.72,0,0,1-.88-.4c-.15-.08-.31-.18-.46-.28l-.23-.16a.57.57,0,0,1-.11-.1q-.39-.33-.75-.69c-.25-.26-.5-.55-.74-.84a8.31,8.31,0,0,1-1.7-4,10.12,10.12,0,0,1,.17-3.47c.1-.47.2-.82.28-1.13a2,2,0,0,0,.18-.57,3,3,0,0,0-.06-.94l-.21-1.24c-.16-.86-.31-1.75-.43-2.65A13.34,13.34,0,0,1,171.66,67Z"/><path class="cls-11" d="M198.92,5.15l-.57.51A13.15,13.15,0,0,0,197,7.26c-.54.73-1.15,1.67-1.87,2.79-.36.56-.75,1.17-1.2,1.84-.23.33-.47.67-.79,1a6.71,6.71,0,0,1-1.37,1.26c-.27.18-.57.34-.88.51l-.7.36a9.56,9.56,0,0,0-1.08.62,1.45,1.45,0,0,0-.79,1,1.09,1.09,0,0,0,0,.44s0,.21,0,.3v0h0L186,16.84H186l.21,0h.39l1.84,0,.05.09s.06.2.1.32l.09.37a7.37,7.37,0,0,1,.16.76,6.54,6.54,0,0,1,.08,1.46,4.9,4.9,0,0,1-.28,1.46,6.44,6.44,0,0,1-.54,1.44A7.9,7.9,0,0,1,183,26.6c-.56.16-1.18.32-1.74.44l-.38.11-.27.09-.14.06s0,0,0,0h0l0-.09-.14-.33a5.75,5.75,0,0,0-.34-.65,2.53,2.53,0,0,0-.16-.33,2.11,2.11,0,0,0-.21-.31l-.12-.15,0,0a.46.46,0,0,0-.16-.15.66.66,0,0,0,.21.12l0,0,.17.09a2.19,2.19,0,0,0,.33.12,1.47,1.47,0,0,0,.34.07h.1c.55.11-.73-.16-.59-.13h0l.1,0a6.74,6.74,0,0,0,1.67,0s0,.11.07.32c.13.49.25,1,.38,1.49a10.81,10.81,0,0,1,.29,2,7.71,7.71,0,0,1-.14,2,9.79,9.79,0,0,1-.64,1.89,8.34,8.34,0,0,1-2.35,2.77,13.65,13.65,0,0,1-3.41,1.72l-.4.14-.05,0-.11,0a.61.61,0,0,0-.29,0,.56.56,0,0,0-.27.22.78.78,0,0,0-.11.18s0,.11,0,.16,0,0,0,.06l0,.13,0,.26a17.79,17.79,0,0,1,.14,2.83,8.68,8.68,0,0,1-.87,3.48,10.57,10.57,0,0,1-1.38,2,8.92,8.92,0,0,1-1.64,1.46l-1.06.74a3,3,0,0,0-.77.81,2.65,2.65,0,0,0-.42,1.17,6.74,6.74,0,0,0,0,1.6,10.06,10.06,0,0,1,0,2,6.6,6.6,0,0,1-.5,1.87l-.06-.25a5.19,5.19,0,0,0-.19-.71,8.93,8.93,0,0,0-1.29-2.37,7.88,7.88,0,0,1-1.1-2.19,5.91,5.91,0,0,1,0-3.28,11.73,11.73,0,0,1,1.62-3.21,4.42,4.42,0,0,0,.61-1.94,2.15,2.15,0,0,0-.16-.64c-.14-.34-.27-.68-.41-1s-.21-.55-.32-.84a2.24,2.24,0,0,1-.11-.32l-.12-.39c-.08-.26-.13-.56-.2-.85a8.54,8.54,0,0,1,0-3.63,7.69,7.69,0,0,1,1.7-3.38,9.64,9.64,0,0,1,3.27-2.4l.71-.34c.11-.07.05,0,.07-.08a.25.25,0,0,0,0-.08.15.15,0,0,0,0-.13.15.15,0,0,0-.07-.05h0s0,0,0,0l-.18-.73a10.46,10.46,0,0,1-.28-2,8,8,0,0,1,.37-2.71,7.16,7.16,0,0,1,.55-1.39,9.84,9.84,0,0,1,.92-1.39,11.68,11.68,0,0,1,1.2-1.14,13.14,13.14,0,0,1,1.26-.79c.37-.17.75-.33,1.13-.47s.64-.19,1-.28.54-.12.82-.17a3.35,3.35,0,0,1,.47-.08.34.34,0,0,0,.16.11.43.43,0,0,0,.53-.2l0-.05s0,0,0-.15V16.9c0-.15,0-.29,0-.46a5.73,5.73,0,0,1,.2-1c.13-.38.25-.64.38-1a10.11,10.11,0,0,1,.51-1,8.27,8.27,0,0,1,3.08-3.05,9.73,9.73,0,0,1,3.4-1.11c.46-.06.86-.1,1.16-.12a2,2,0,0,0,.6,0,1.13,1.13,0,0,0,.34-.1l.49-.26,1.08-.62c.75-.44,1.52-.9,2.33-1.32A13,13,0,0,1,198.92,5.15Z"/><path class="cls-11" d="M228.49,5.24l-.76,0a13.27,13.27,0,0,0-2.06.38c-.89.22-1.94.56-3.2,1-.63.2-1.31.44-2.08.66-.39.12-.79.23-1.27.33a6.65,6.65,0,0,1-1.86.1,9,9,0,0,1-1-.16l-.77-.16a11.21,11.21,0,0,0-1.22-.21,1.41,1.41,0,0,0-1.19.28,1.69,1.69,0,0,0-.28.33,2,2,0,0,1-.14.22l0,0h0l-1.48-2v0l0,0,.15.17.31.26.1.07h0c-.28-.21,2.59,1.89,1.37,1v0l0,.15a7.92,7.92,0,0,1-1.49,2.54,4.9,4.9,0,0,1-1.12.95,6.62,6.62,0,0,1-1.31.77,7.8,7.8,0,0,1-6.3-.19l-.83-.37-.71-.34L201,11l-.16-.06-.27-.11-.14,0s0,0,0,0h0l0-.08.11-.35c.06-.24.11-.48.15-.73s.07-.25.09-.38a2.45,2.45,0,0,0,0-.39V8.66a.65.65,0,0,0,0-.24.48.48,0,0,0,.08.22l0,0,.08.17a1.92,1.92,0,0,0,.18.31l.21.26.06.05,0,0L201.06,9l0,0,.07.08.15.14.29.26.16.12.25.19a6.49,6.49,0,0,0,.55.36s-.05.09-.14.28l-.65,1.5a10.41,10.41,0,0,1-1,1.75,8,8,0,0,1-1.34,1.44,9.23,9.23,0,0,1-1.66,1.07,11.44,11.44,0,0,1-1.72.54,7.77,7.77,0,0,1-1.81.14,13.13,13.13,0,0,1-3.66-.77l-.37-.13,0,0s0,0,0-.05a.61.61,0,0,0-.07-.1.51.51,0,0,0-.24-.16.59.59,0,0,0-.35,0l-.2.08-.1.06,0,0-.07.11-.14.22a18.93,18.93,0,0,1-1.63,2.31,8.44,8.44,0,0,1-2.85,2.19,10.18,10.18,0,0,1-2.35.72,9.43,9.43,0,0,1-2.18.1l-1.23-.11a3,3,0,0,0-1.09.16,2.74,2.74,0,0,0-1.05.66,5,5,0,0,0-.45.53c-.16.21-.33.48-.5.74a11,11,0,0,1-1.2,1.56,6.44,6.44,0,0,1-1.54,1.15l.11-.24a4.81,4.81,0,0,0,.29-.67,9,9,0,0,0,.43-2.63,8.06,8.06,0,0,1,.47-2.4,5.62,5.62,0,0,1,2-2.54,7.62,7.62,0,0,1,1.69-.94c.61-.25,1.17-.41,1.59-.57a3.26,3.26,0,0,0,.94-.48,5.08,5.08,0,0,0,.71-.62,2,2,0,0,0,.26-.6c.1-.33.2-.68.3-1s.17-.57.25-.86c0-.05.07-.2.13-.33l.17-.41a8.33,8.33,0,0,1,.36-.81,8.54,8.54,0,0,1,2.21-2.84,8.25,8.25,0,0,1,7.41-1.4l.48.11.24.06h0S193,7,193,7a.17.17,0,0,0,.06-.06.24.24,0,0,0,.05-.13s0-.07,0-.08v0s0,0,0-.06l.26-.57a10.7,10.7,0,0,1,1-1.78,7.9,7.9,0,0,1,2-1.92,7.23,7.23,0,0,1,1.32-.75,8.37,8.37,0,0,1,1.61-.51A8.77,8.77,0,0,1,201,1a10.19,10.19,0,0,1,1.47.19c.39.1.78.21,1.17.34l.91.39.73.38.18.1,0,0,.07,0c.07.05.07.06.07.07v0a.42.42,0,0,0,0,.1.43.43,0,0,0,.54.19s0,0,.12-.07l0,0,.13-.16c.1-.12.19-.22.31-.34a6,6,0,0,1,.79-.69l.16-.11.11-.06.23-.13.46-.26c.3-.16.67-.3,1-.44a8.09,8.09,0,0,1,4.29-.43,9.43,9.43,0,0,1,3.35,1.29c.39.24.73.46,1,.64a2.09,2.09,0,0,0,.47.36,1.61,1.61,0,0,0,.32.14,5.1,5.1,0,0,0,.54.11l1.22.2c.85.12,1.74.26,2.63.43A13.1,13.1,0,0,1,228.49,5.24Z"/><path class="cls-11" d="M254.17,30.12a19.69,19.69,0,0,1-2-2.21c-.62-.75-1.35-1.7-2.17-2.81l-1.29-1.75c-.23-.3-.46-.6-.69-.88s-.5-.59-.62-.6h0l.24-.19.06-.06-.32.24,0,0-.17-.19-.33-.38-.54-.69c-.31-.41-.59-.79-.84-1.07a3.24,3.24,0,0,0-.68-.62,1,1,0,0,0-.47-.14,1.29,1.29,0,0,0-.44,0,1.15,1.15,0,0,1-.22.07l-.06,0h-.06c-.18,2.28.24-3.1.2-2.54v0a1.82,1.82,0,0,0,0,.54,1.74,1.74,0,0,0,.05.22c-.08-.37.77,3.37.4,1.79h0l0,0-.07,0a2.28,2.28,0,0,1-.32.18l-.72.32a7.27,7.27,0,0,1-1.44.41,6.62,6.62,0,0,1-1.48.08c-.5-.11-1-.09-1.53-.25a7.36,7.36,0,0,1-2.79-1.5,9.48,9.48,0,0,1-2.05-2.68c-.25-.54-.53-1.09-.76-1.66-.13-.32-.18-.44-.23-.54l-.15-.27a.93.93,0,0,0-.1-.17c0-.05-.06-.09-.06-.05a11.86,11.86,0,0,0,1-.74,2.38,2.38,0,0,0,.6-.55,1,1,0,0,0,.19-.23l0-.07,0,0,0,.1a.25.25,0,0,0,0,.08,3,3,0,0,0-.09.32,2.11,2.11,0,0,0,0,.33v.26c0,.14,0-1.11,0-.57v0a2.48,2.48,0,0,0,0,.49c0,.14,0,.25.08.38a5.81,5.81,0,0,0,.15.63c.2.59.08.35.08.41l-.19.08-1.46.7a10.29,10.29,0,0,1-1.93.67,8.24,8.24,0,0,1-2,.22,9.51,9.51,0,0,1-2-.31,12,12,0,0,1-1.64-.72,7.3,7.3,0,0,1-1.45-1.1,13.21,13.21,0,0,1-2.27-3c-.34-.57-.18-.37-.21-.45a.49.49,0,0,0,0-.12.59.59,0,0,0-.08-.3.61.61,0,0,0-.26-.24,1.05,1.05,0,0,0-.21-.06l-.11,0s0,0-.1,0l-.25.07a18.49,18.49,0,0,1-2.75.69A8.32,8.32,0,0,1,214,9.6a9.73,9.73,0,0,1-2.23-1,9.65,9.65,0,0,1-1.69-1.35c-.42-.42-.6-.66-.85-.9a3.33,3.33,0,0,0-.93-.61,2.68,2.68,0,0,0-1.21-.19l-.67.09c-.25.06-.56.15-.85.24a11,11,0,0,1-1.91.4,6,6,0,0,1-1.91-.14L202,6a5.71,5.71,0,0,0,.65-.31,8.94,8.94,0,0,0,2-1.7,7.51,7.51,0,0,1,1.93-1.5A5.6,5.6,0,0,1,209.8,2a7.34,7.34,0,0,1,1.88.42c.63.22,1.13.46,1.56.62a3.46,3.46,0,0,0,1,.26,4.13,4.13,0,0,0,.93,0c.51-.14.6-.31,1.47-.86q.38-.23.75-.48c.49-.25,1-.54,1.57-.76A8.32,8.32,0,0,1,222.49.5a7.74,7.74,0,0,1,3.57,1.09A9.69,9.69,0,0,1,229,4.38l.3.43.17.22h.14a.26.26,0,0,0,.13-.06.23.23,0,0,0,0-.09v0a0,0,0,0,1,0,0h0l.09,0,.18-.09.38-.17a11.08,11.08,0,0,1,2.06-.67,7.86,7.86,0,0,1,2.87-.05c.25,0,.5.08.75.13a5.59,5.59,0,0,1,.79.26,6.21,6.21,0,0,1,1.52.77,6.69,6.69,0,0,1,1.26,1,8.89,8.89,0,0,1,.9,1.09,10.08,10.08,0,0,1,1,1.87,6.57,6.57,0,0,1,.38,1,.34.34,0,0,0-.07.17.41.41,0,0,0,.29.47s0,0,.06,0h.08l.45-.07a5.91,5.91,0,0,1,1,0,2.85,2.85,0,0,1,.71.1,9.56,9.56,0,0,1,2.11.63A8.45,8.45,0,0,1,250,14a10.4,10.4,0,0,1,1.48,3.08c.12.4.23.79.29,1,0,.07,0,.11,0,.16s0,0,.1.25.19.36.25.5l.16.41a18.85,18.85,0,0,1,.68,2.77c.16.88.29,1.76.42,2.63C253.68,26.61,253.86,28.35,254.17,30.12Z"/><path class="cls-11" d="M249.11,29.12s.38,0,1-.09a6.4,6.4,0,0,0,2.31-.72,2.66,2.66,0,0,0,.53-.38l.2-.22a.5.5,0,0,0,.08-.12.56.56,0,0,1,.16-.15,7.9,7.9,0,0,1,3.27-1.61,5.4,5.4,0,0,1,4,.57,5.21,5.21,0,0,1,2.36,3.86,12.67,12.67,0,0,1,.06,1.76l0,.91c0,.18,0,.17,0,.23v0s.07,0-.16,0l-.48.06-.24,0-.14,0a3.53,3.53,0,0,0-.54.13l-.3.11c-.3.14-.18.18.14-.3a1.3,1.3,0,0,0,.08-.17,2.34,2.34,0,0,1,.11-.21,4.62,4.62,0,0,0,.24-.57,2.46,2.46,0,0,0,.07-.29.87.87,0,0,0,.06-.15h0l0,0,0,0,.19,0,.44.09a5.18,5.18,0,0,1,.9.23,6,6,0,0,1,3,2.23,4.43,4.43,0,0,1,.75,1.69c.07.3.09.61.13.91a6.94,6.94,0,0,1-.05.91,8.63,8.63,0,0,1-.22.91l-.34.88-.41.82a5.8,5.8,0,0,1-.37.55c-.48.64-1,1.21-1.43,1.77a4.29,4.29,0,0,0-.56.87,1.34,1.34,0,0,0,0,1.11,3.43,3.43,0,0,1-.37-.14,1.92,1.92,0,0,1-.84-.95,10.92,10.92,0,0,1-.46-4.13.68.68,0,0,0-.07-.39,1.89,1.89,0,0,0-.11-.25,1,1,0,0,0-.3-.35.83.83,0,0,0-.8-.07c-.12,0-.1.12-.28.16h-.09l-.37-.06a6.12,6.12,0,0,1-.77-.19,5.5,5.5,0,0,1-1.9-1,5.27,5.27,0,0,1-1.52-2.21,6.77,6.77,0,0,1-.35-1.88,5.47,5.47,0,0,1,0-.59h0a.48.48,0,0,0,.21-.35.72.72,0,0,0-.35-.69,1.69,1.69,0,0,0-.27-.13,1.05,1.05,0,0,0-.21,0s-.14,0-.25,0l-.31.06a5.64,5.64,0,0,1-2.35-.22A6,6,0,0,1,249.11,29.12Z"/><path class="cls-11" d="M218.47,60s.38,0,1-.09a6.5,6.5,0,0,0,2.32-.72,2.9,2.9,0,0,0,.52-.38,2,2,0,0,0,.2-.22.38.38,0,0,0,.08-.11.53.53,0,0,1,.16-.16A7.88,7.88,0,0,1,226,56.71a5.37,5.37,0,0,1,4,.57,5.21,5.21,0,0,1,2.36,3.86,12.76,12.76,0,0,1,.06,1.77l0,.91c0,.17,0,.16,0,.22v0s.07,0-.16,0a4,4,0,0,0-.48.07l-.23,0-.15,0a3.53,3.53,0,0,0-.54.13l-.3.11c-.3.14-.18.18.14-.3a1.3,1.3,0,0,0,.08-.17,2.34,2.34,0,0,1,.11-.21,3.14,3.14,0,0,0,.24-.57c0-.09.05-.19.08-.29l.05-.15h0l0,0v0l.19,0,.44.09a5.52,5.52,0,0,1,.91.23,6,6,0,0,1,3,2.23,4.41,4.41,0,0,1,.74,1.69,5.7,5.7,0,0,1,.13.91,7.16,7.16,0,0,1,0,.92c-.06.3-.14.61-.22.9l-.34.88-.42.82a5.8,5.8,0,0,1-.37.55c-.48.64-1,1.21-1.43,1.77a4.24,4.24,0,0,0-.55.87,1.26,1.26,0,0,0,0,1.11,3,3,0,0,1-.38-.14,2,2,0,0,1-.84-1,11.12,11.12,0,0,1-.46-4.13.81.81,0,0,0-.06-.39l-.12-.25a1,1,0,0,0-.3-.35.81.81,0,0,0-.79-.07c-.13,0-.11.12-.29.16s0,0-.09,0l-.36-.06a6.23,6.23,0,0,1-.78-.19,5.33,5.33,0,0,1-1.9-1,5.27,5.27,0,0,1-1.52-2.21,6.36,6.36,0,0,1-.34-1.88,4.09,4.09,0,0,1,0-.59h0a.48.48,0,0,0,.21-.35.7.7,0,0,0-.35-.68,1.71,1.71,0,0,0-.27-.14,1.05,1.05,0,0,0-.21,0,2.07,2.07,0,0,0-.24,0l-.32.06a5.59,5.59,0,0,1-2.34-.22A6,6,0,0,1,218.47,60Z"/><path class="cls-11" d="M194.67,92.09s.38,0,1-.09a6.69,6.69,0,0,0,2.31-.71,2.94,2.94,0,0,0,.52-.39,1.45,1.45,0,0,0,.21-.22s.05-.08.08-.11a.44.44,0,0,1,.15-.16,8.13,8.13,0,0,1,3.28-1.61,5.37,5.37,0,0,1,4,.57,5.24,5.24,0,0,1,2.37,3.86,14.6,14.6,0,0,1,.06,1.77l0,.91a1.39,1.39,0,0,0,0,.22s0,0,0,0,.07,0-.16,0l-.48.07-.24,0a.44.44,0,0,1-.15,0,2.44,2.44,0,0,0-.53.14,2.88,2.88,0,0,0-.31.1c-.29.14-.17.19.14-.3l.09-.16a.76.76,0,0,1,.1-.22,3,3,0,0,0,.24-.56c0-.1.06-.2.08-.29a.78.78,0,0,1,.06-.16h0l0,0v0l.2,0,.44.09a5.68,5.68,0,0,1,.9.23,6,6,0,0,1,3,2.23,4.48,4.48,0,0,1,.74,1.69,4.46,4.46,0,0,1,.09,1.83c-.06.3-.13.61-.22.91l-.34.87-.41.82a6.48,6.48,0,0,1-.37.55c-.49.65-1,1.21-1.43,1.77a4.41,4.41,0,0,0-.56.87,1.3,1.3,0,0,0,0,1.11,3.43,3.43,0,0,1-.37-.14,1.92,1.92,0,0,1-.84-1,10.88,10.88,0,0,1-.47-4.13.64.64,0,0,0-.06-.39.9.9,0,0,0-.12-.24,1.07,1.07,0,0,0-.3-.36.81.81,0,0,0-.79-.07c-.13,0-.11.13-.29.16s0,0-.08,0l-.37-.07a3.74,3.74,0,0,1-.77-.19,5.19,5.19,0,0,1-3.42-3.24,6.21,6.21,0,0,1-.35-1.89c0-.22,0-.56,0-.59h0a.51.51,0,0,0,.21-.35.69.69,0,0,0-.36-.68.85.85,0,0,0-.27-.13.88.88,0,0,0-.2,0,1.4,1.4,0,0,0-.25,0l-.32,0a5.43,5.43,0,0,1-2.34-.22A6,6,0,0,1,194.67,92.09Z"/><path class="cls-11" d="M189.62,95.42s.38,0,1-.09a6.57,6.57,0,0,0,2.31-.71,3,3,0,0,0,.53-.39,2.09,2.09,0,0,0,.2-.22.76.76,0,0,0,.08-.11.53.53,0,0,1,.16-.16,8,8,0,0,1,3.27-1.61,5.4,5.4,0,0,1,4,.57,5.23,5.23,0,0,1,2.36,3.86,12.82,12.82,0,0,1,.06,1.77l0,.91c0,.17,0,.16,0,.22v0s.07,0-.16,0l-.48.07-.24,0-.15,0a2.16,2.16,0,0,0-.53.13,2,2,0,0,0-.3.1c-.3.14-.18.19.14-.3l.08-.16a1.45,1.45,0,0,1,.11-.22,5.55,5.55,0,0,0,.24-.56c0-.1.05-.2.07-.29s.06-.18.06-.16h0l0,0,0,0,.19,0,.44.09a4.46,4.46,0,0,1,.9.24,5.88,5.88,0,0,1,3,2.22,4.33,4.33,0,0,1,.74,1.69,4.46,4.46,0,0,1,.09,1.83c-.06.3-.13.61-.22.91l-.34.87-.41.82a4.74,4.74,0,0,1-.37.55c-.48.65-1,1.21-1.43,1.77a4.92,4.92,0,0,0-.56.87,1.34,1.34,0,0,0,0,1.11,3.43,3.43,0,0,1-.37-.14,1.92,1.92,0,0,1-.84-1,10.7,10.7,0,0,1-.46-4.13.7.7,0,0,0-.07-.39,1.33,1.33,0,0,0-.11-.24,1.2,1.2,0,0,0-.3-.36.83.83,0,0,0-.8-.07c-.13,0-.1.13-.29.16,0,0,0,0-.08,0l-.37-.07a3.9,3.9,0,0,1-.77-.19,5.25,5.25,0,0,1-3.42-3.24,6.89,6.89,0,0,1-.35-1.89,5.24,5.24,0,0,1,0-.58h0a.48.48,0,0,0,.21-.35.7.7,0,0,0-.35-.68,1,1,0,0,0-.28-.13.77.77,0,0,0-.2,0,1.4,1.4,0,0,0-.25,0l-.31,0a5.64,5.64,0,0,1-2.35-.21A6.06,6.06,0,0,1,189.62,95.42Z"/><path class="cls-11" d="M185.45,96.33s.38,0,1-.09a6.5,6.5,0,0,0,2.32-.72,2.9,2.9,0,0,0,.52-.38,1.45,1.45,0,0,0,.21-.22s.05-.08.08-.11a.44.44,0,0,1,.15-.16A8,8,0,0,1,193,93a5.37,5.37,0,0,1,4,.57,5.24,5.24,0,0,1,2.37,3.86,14.59,14.59,0,0,1,.05,1.77c0,.3,0,.6,0,.91a1.39,1.39,0,0,0,0,.22v0s.08,0-.15,0a4,4,0,0,0-.48.07l-.24,0-.15,0a3.16,3.16,0,0,0-.53.13c-.18.07-.2.06-.31.11-.29.14-.17.18.14-.3l.09-.17a.88.88,0,0,1,.1-.21,3.14,3.14,0,0,0,.24-.57,2.45,2.45,0,0,0,.08-.29.89.89,0,0,1,.06-.15h0l0,0v0l.2,0,.44.09a5.68,5.68,0,0,1,.9.23,6,6,0,0,1,3,2.23,4.41,4.41,0,0,1,.74,1.69,4.46,4.46,0,0,1,.09,1.83c-.06.3-.13.61-.22.91l-.34.87-.41.82c-.14.25-.25.36-.37.55-.49.64-1,1.21-1.43,1.77a3.9,3.9,0,0,0-.56.87,1.3,1.3,0,0,0,0,1.11A2.66,2.66,0,0,1,200,112a1.92,1.92,0,0,1-.84-1,10.91,10.91,0,0,1-.47-4.13.81.81,0,0,0-.06-.39,1.92,1.92,0,0,0-.12-.25,1,1,0,0,0-.3-.35.81.81,0,0,0-.79-.07c-.13,0-.11.12-.29.16s0,0-.09,0l-.36-.06a4,4,0,0,1-.78-.19,5.42,5.42,0,0,1-1.9-1,5.25,5.25,0,0,1-1.51-2.21,6.1,6.1,0,0,1-.35-1.88c0-.22,0-.56,0-.59h0a.51.51,0,0,0,.21-.35A.71.71,0,0,0,192,99a1,1,0,0,0-.27-.13.54.54,0,0,0-.2,0,2.14,2.14,0,0,0-.25,0l-.32.06a5.59,5.59,0,0,1-2.34-.22A6,6,0,0,1,185.45,96.33Z"/><path class="cls-12" d="M206.87,68.39a5.08,5.08,0,0,1,2-1.77,5.71,5.71,0,0,1,4.55.08c.42.18,1.52,2.75,2.75,4.12-.26,1.18.65,16,.55,15.76-4.22.46-8.47-2.57-8.69-6.49a21.59,21.59,0,0,0-.08-2.55c-.26-1.44-1.32-2.65-1.81-4A5.79,5.79,0,0,1,206.87,68.39Z"/><path class="cls-13" d="M276,211.24c4.6-.92,98.76,4.82,98.76,4.82l-3.68,81-92.93-6.44-20.24-46Z"/><path class="cls-21" d="M336.88,175.49l-41.58,6.82L254.39,294l-13,204.51,109.74,6,12-203.52,28.94-112.73-18.07-8A65.43,65.43,0,0,0,336.88,175.49Z"/></g></g></svg>