<svg xmlns="http://www.w3.org/2000/svg" viewBox="0 0 685.49 419.68"><defs><style>.cls-1{opacity:0.37;}.cls-2,.cls-3{fill:#545759;}.cls-3{opacity:0.26;}.cls-4{fill:#3387a1;}.cls-16,.cls-17,.cls-5{fill:#6b6b6b;}.cls-6{fill:#777;}.cls-7{fill:#85b7c7;}.cls-8{fill:#5c9fb4;}.cls-9{fill:#00698a;}.cls-10{fill:#929292;}.cls-11{fill:#848484;}.cls-12{fill:#b5b5b5;}.cls-13{fill:#666;}.cls-14{fill:#898989;}.cls-15{fill:#b44859;}.cls-16{stroke:#757575;stroke-width:5px;}.cls-16,.cls-17,.cls-18,.cls-19,.cls-20,.cls-21,.cls-22,.cls-32,.cls-42{stroke-miterlimit:10;}.cls-17{stroke:#8c8c8c;}.cls-17,.cls-18,.cls-19,.cls-20,.cls-21,.cls-22{stroke-width:2px;}.cls-18,.cls-19,.cls-20,.cls-21,.cls-22,.cls-42{fill:none;}.cls-18{stroke:#b7b7b7;}.cls-19{stroke:#cecece;}.cls-20{stroke:#717b7c;}.cls-21{stroke:#bcbcbc;}.cls-22{stroke:#999;}.cls-23{fill:#333d47;}.cls-24{fill:#7e7e7e;}.cls-25{fill:#dadada;}.cls-26{fill:#66a5b9;}.cls-27{fill:#2d0032;}.cls-28{fill:#c87985;}.cls-29{opacity:0.39;}.cls-30{fill:#c9d1dc;}.cls-31{fill:#667a91;}.cls-32{fill:#220026;stroke:#ab99ad;stroke-width:2.57px;}.cls-33{fill:#d1d1d1;}.cls-34{fill:#e3e3e3;}.cls-35{fill:#a8a8a8;}.cls-36{fill:#99c3d0;}.cls-37{fill:#7f7f7f;}.cls-38{opacity:0.19;}.cls-39{fill:#5b5b5b;}.cls-40{fill:#364a66;}.cls-41{fill:#afafaf;}.cls-42{stroke:#293139;stroke-width:1.79px;}</style></defs><g id="Layer_2" data-name="Layer 2"><g id="Skyline"><g class="cls-1"><rect class="cls-2" x="30.28" y="213.37" width="41.54" height="52.81"/><rect class="cls-2" x="121.09" y="213.37" width="41.54" height="52.81"/><rect class="cls-3" x="73.61" y="202.53" width="41.54" height="63.65"/><rect class="cls-2" x="321.12" y="220.49" width="41.54" height="45.69"/><rect class="cls-2" y="246" width="41.54" height="20.18"/><rect class="cls-2" x="654.03" y="239.78" width="31.45" height="26.4"/><rect class="cls-2" x="618.13" y="239.78" width="31.45" height="26.4"/><rect class="cls-3" x="63.52" y="183.98" width="30.86" height="82.2"/><rect class="cls-2" x="569.17" y="230.49" width="28.08" height="35.69"/><rect class="cls-2" x="602.7" y="220.49" width="25.22" height="45.69"/><rect class="cls-2" x="582.73" y="210.62" width="25.01" height="55.56"/><polygon class="cls-2" points="654.03 266.18 633.86 266.18 633.86 199.12 643.95 190.21 654.03 199.12 654.03 266.18"/><rect class="cls-3" x="105.06" y="156.98" width="36.8" height="109.2"/><rect class="cls-3" x="429.1" y="156.98" width="36.8" height="109.2"/><rect class="cls-2" x="541.29" y="168.25" width="30.55" height="97.93"/><rect class="cls-3" x="189.34" y="70.33" width="45.1" height="195.85"/><rect class="cls-3" x="350.76" y="156.98" width="38.54" height="109.2"/><polygon class="cls-3" points="178.65 266.18 158.47 266.18 158.47 187.26 168.56 174.8 178.65 187.26 178.65 266.18"/><polygon class="cls-3" points="419.29 262.62 399.11 262.62 399.11 183.7 409.2 171.24 419.29 183.7 419.29 262.62"/><polygon class="cls-3" points="317.53 266.18 265.3 266.18 265.3 122.56 291.42 106.53 317.53 122.56 317.53 266.18"/><rect class="cls-2" x="482.52" y="138.88" width="46.29" height="127.3"/><rect class="cls-2" x="220.2" y="213.95" width="52.23" height="52.23"/><rect class="cls-2" x="502.7" y="213.95" width="52.23" height="52.23"/><rect class="cls-2" x="382.81" y="213.95" width="52.23" height="52.23"/><rect class="cls-2" x="447.5" y="195.78" width="52.23" height="70.4"/><rect class="cls-2" x="303.28" y="199.12" width="38.61" height="67.06"/><rect class="cls-2" x="172.11" y="199.12" width="38.61" height="67.06"/><rect class="cls-3" x="112.18" y="122.56" width="2.37" height="45.7"/><rect class="cls-3" x="273.61" y="101.19" width="35.61" height="42.73"/><rect class="cls-2" x="283.11" y="92.88" width="15.43" height="36.8"/><rect class="cls-3" x="357.35" y="138.88" width="25.37" height="29.38"/><rect class="cls-3" x="362.42" y="119.59" width="15.22" height="29.67"/><rect class="cls-3" x="365.51" y="111.28" width="9.04" height="16.39"/><rect class="cls-3" x="368.09" y="104.08" width="3.88" height="12.91"/><rect class="cls-3" x="369.54" y="92.07" width="0.99" height="18.47"/><rect class="cls-3" x="435.04" y="149.26" width="24.93" height="14.24"/></g></g><g id="Last_Airport" data-name="Last Airport"><rect class="cls-4" x="320.78" y="37.29" width="51.95" height="12.99"/><polygon class="cls-5" points="377.56 59.08 315.96 59.08 317.64 47.76 375.88 47.76 377.56 59.08"/><rect class="cls-6" x="326.76" y="100.97" width="40.01" height="8.38"/><polygon class="cls-7" points="367.29 131.56 326.25 131.56 318.48 108.52 375.04 108.94 367.29 131.56"/><polygon class="cls-8" points="372.44 100.97 321.1 100.97 311.38 54.47 382.14 55.31 372.44 100.97"/><rect class="cls-4" x="179.09" y="145.52" width="110.05" height="32.96"/><rect class="cls-9" x="165.83" y="187.98" width="243.56" height="32.4"/><rect class="cls-4" x="165.83" y="232.67" width="243.56" height="44.69"/><path class="cls-10" d="M409.38,191.33l-259.2-1.12-9.45-10.06c-2.18-2-.18-6.32,2.75-6.32l265.9.74Z"/><rect class="cls-11" x="322.8" y="230.71" width="12.21" height="46.86"/><path class="cls-10" d="M408.82,236l-286-.73-10.33-8.85c-2.3-2-.77-7.18,2.16-7.18l294.76,1.21Z"/><rect class="cls-6" x="349.33" y="174.42" width="60.33" height="16.84"/><rect class="cls-6" x="349.33" y="219.84" width="60.33" height="16.66"/><rect class="cls-11" x="167.36" y="139.38" width="131.83" height="8.94"/><polygon class="cls-12" points="175.91 277.33 151.33 277.33 141.43 243.43 166.01 243.43 175.91 277.33"/><rect class="cls-6" x="349.05" y="246.63" width="68.15" height="43.57"/><rect class="cls-13" x="382.57" y="249.43" width="34.63" height="40.9"/><rect class="cls-14" x="345.14" y="243.28" width="74.86" height="8.38"/><rect class="cls-15" x="333.74" y="133.23" width="26.03" height="41.06"/><rect class="cls-15" x="247.52" y="115.83" width="7.36" height="23.69"/><rect class="cls-5" x="260.37" y="115.83" width="3.63" height="23.69"/><line class="cls-16" x1="251.3" y1="116.47" x2="251.3" y2="103.9"/><line class="cls-17" x1="262.19" y1="116.05" x2="262.19" y2="106.84"/><rect class="cls-15" x="335.09" y="11.93" width="7.36" height="23.69"/><rect class="cls-5" x="347.94" y="11.93" width="3.63" height="23.69"/><line class="cls-16" x1="338.86" y1="12.57" x2="338.86"/><line class="cls-17" x1="349.75" y1="12.15" x2="349.75" y2="2.93"/><rect class="cls-6" x="325.39" y="131.14" width="42.73" height="5.45"/><rect class="cls-11" x="318.48" y="35.61" width="56.56" height="3.77"/><line class="cls-18" x1="320.43" y1="42.74" x2="372.8" y2="42.74"/><line class="cls-19" x1="313.3" y1="64.94" x2="379.92" y2="65.36"/><line class="cls-19" x1="312.88" y1="78.35" x2="379.5" y2="78.77"/><line class="cls-19" x1="312.88" y1="86.52" x2="379.5" y2="86.94"/><line class="cls-19" x1="312.88" y1="94.69" x2="379.5" y2="95.11"/><line class="cls-20" x1="317.49" y1="116.47" x2="376.14" y2="116.47"/><line class="cls-20" x1="317.07" y1="123.18" x2="375.72" y2="123.18"/><rect class="cls-10" x="128.12" y="277.36" width="302.49" height="16.76"/><line class="cls-21" x1="179.23" y1="154.46" x2="289.14" y2="154.46"/><line class="cls-21" x1="179.23" y1="161.72" x2="289.14" y2="161.72"/><line class="cls-21" x1="179.23" y1="168.98" x2="289.14" y2="168.98"/><line class="cls-21" x1="184.26" y1="190.21" x2="184.26" y2="219.26"/><line class="cls-21" x1="202.66" y1="190.58" x2="202.66" y2="220"/><line class="cls-21" x1="221.06" y1="190.96" x2="221.06" y2="220"/><line class="cls-21" x1="239.46" y1="190.58" x2="239.46" y2="220"/><line class="cls-21" x1="257.86" y1="190.96" x2="257.86" y2="220"/><line class="cls-21" x1="276.26" y1="190.96" x2="276.26" y2="220"/><line class="cls-21" x1="294.66" y1="190.96" x2="294.66" y2="220"/><line class="cls-21" x1="313.06" y1="190.96" x2="313.06" y2="220"/><line class="cls-21" x1="180.54" y1="234.71" x2="180.54" y2="276.83"/><line class="cls-21" x1="198.94" y1="235.25" x2="198.94" y2="277.91"/><line class="cls-21" x1="217.34" y1="235.09" x2="217.34" y2="277.91"/><line class="cls-21" x1="235.74" y1="235.25" x2="235.74" y2="277.91"/><line class="cls-21" x1="254.14" y1="235.79" x2="254.14" y2="277.91"/><line class="cls-21" x1="272.54" y1="235.79" x2="272.54" y2="277.91"/><line class="cls-21" x1="290.94" y1="235.79" x2="290.94" y2="277.91"/><polyline class="cls-21" points="309.34 277.92 309.34 235.79 309.34 229.59 116.81 229.18"/><line class="cls-21" x1="331.47" y1="190.96" x2="331.47" y2="220"/><path class="cls-21" d="M143.2,183.51H349.75s-.29,7,.12,7.45v28.62"/><line class="cls-22" x1="369.95" y1="189.98" x2="369.95" y2="220"/><line class="cls-22" x1="390.45" y1="189.98" x2="390.45" y2="220"/><rect class="cls-23" x="73.79" y="296.79" width="408.98" height="122.89"/><rect class="cls-24" x="74.04" y="287.77" width="409.41" height="9.89"/><rect class="cls-23" x="140.92" y="130.7" width="159.99" height="16" transform="translate(22.24 -30.33) rotate(8.27)"/><g id="plane"><g id="plane_base_layers" data-name="plane base layers"><path class="cls-25" d="M125,134l202.57,31.45a4.87,4.87,0,0,0,.45-1.34v0a3.82,3.82,0,0,0,0-.55h0v-.07s0,0,0,0h0c1.09-3.85-3.51-7.34-6.19-9l-.28-.17h0l-.08-.06-.1,0,0,0-.07,0,0,0-.06,0,0,0a.88.88,0,0,1-.17-.12l-.05,0-.07-.07a.39.39,0,0,1-.1-.08v0a4.4,4.4,0,0,1-.38-.37h0l-.1-.1a3.32,3.32,0,0,1-.76-1.25l-1.36-2.47a4.49,4.49,0,0,1-.23-.78.36.36,0,0,0,0-.1,1,1,0,0,0-.11-.27c-.09-.13-.13-.26-.22-.38l0-.06c-5.84-7.43-19.46-9.7-19.46-9.7L152.41,115.79c-5.58-1-39.63-4.32-47.25-5.06a1.69,1.69,0,0,0-1.83,1.34l-1.3,6.21a1.69,1.69,0,0,0,.64,1.71,162.88,162.88,0,0,0,18.62,12.07q1.83,1,3.66,2h0m98.93,1.17a1.78,1.78,0,0,1,2-1.49l1.1.17a1.75,1.75,0,0,1,1.16.7,1.73,1.73,0,0,1,.33,1.32l-.55,3.6a1.78,1.78,0,0,1-2,1.49l-1.09-.16a1.78,1.78,0,0,1-1.49-2Zm8.09,1.24a1.78,1.78,0,0,1,2-1.49l1.09.16a1.83,1.83,0,0,1,1.17.71,1.77,1.77,0,0,1,.32,1.32l-.55,3.6a1.78,1.78,0,0,1-2,1.49l-1.1-.16a1.85,1.85,0,0,1-1.17-.71,1.77,1.77,0,0,1-.32-1.32Zm8.09,1.24a1.79,1.79,0,0,1,2-1.49l1.09.16a1.78,1.78,0,0,1,1.49,2l-.55,3.6a1.78,1.78,0,0,1-2,1.49l-1.1-.16a1.78,1.78,0,0,1-1.49-2Zm8.1,1.24a1.78,1.78,0,0,1,2-1.49l1.1.16a1.8,1.8,0,0,1,1.16.71,1.73,1.73,0,0,1,.33,1.32l-.55,3.6a1.79,1.79,0,0,1-2,1.49l-1.09-.16a1.83,1.83,0,0,1-1.17-.71,1.73,1.73,0,0,1-.32-1.32Zm8.09,1.24a1.8,1.8,0,0,1,2-1.5l1.09.17a1.78,1.78,0,0,1,1.49,2l-.55,3.6a1.79,1.79,0,0,1-2,1.49l-1.09-.16a1.83,1.83,0,0,1-1.17-.71,1.77,1.77,0,0,1-.32-1.32Zm8.09,1.24a1.78,1.78,0,0,1,2-1.49l1.09.16a1.78,1.78,0,0,1,1.49,2l-.55,3.6a1.78,1.78,0,0,1-2,1.49l-1.1-.16a1.79,1.79,0,0,1-1.49-2Zm8.1,1.24a1.78,1.78,0,0,1,2-1.5l1.1.17a1.73,1.73,0,0,1,1.16.71,1.78,1.78,0,0,1,.33,1.32l-.55,3.6a1.79,1.79,0,0,1-2,1.49l-1.09-.17a1.77,1.77,0,0,1-1.17-.7,1.75,1.75,0,0,1-.32-1.33Zm8.09,1.17a1.79,1.79,0,0,1,2-1.49l1.09.17a1.77,1.77,0,0,1,1.17.7,1.8,1.8,0,0,1,.32,1.33l-.55,3.6a1.79,1.79,0,0,1-2,1.49l-1.09-.17a1.78,1.78,0,0,1-1.49-2Zm-60.7-5.55a1.78,1.78,0,0,1-2,1.5l-1.1-.17a1.78,1.78,0,0,1-1.49-2l.55-3.6a1.79,1.79,0,0,1,2-1.49l1.09.17a1.77,1.77,0,0,1,1.49,2ZM211.74,137a1.78,1.78,0,0,1-2,1.5l-1.1-.17a1.8,1.8,0,0,1-1.49-2l.55-3.6a1.79,1.79,0,0,1,2-1.49l1.09.16a1.83,1.83,0,0,1,1.17.71,1.8,1.8,0,0,1,.32,1.33Zm-8.09-1.24a1.79,1.79,0,0,1-2,1.5l-1.09-.17a1.77,1.77,0,0,1-1.17-.71,1.73,1.73,0,0,1-.32-1.32l.55-3.6a1.78,1.78,0,0,1,2-1.49l1.1.17a1.76,1.76,0,0,1,1.49,2Zm-8.1-1.24a1.78,1.78,0,0,1-2,1.5l-1.09-.17a1.73,1.73,0,0,1-1.17-.71,1.78,1.78,0,0,1-.33-1.32l.56-3.6a1.78,1.78,0,0,1,2-1.49l1.1.17a1.79,1.79,0,0,1,1.49,2Zm-8.09-1.24a1.78,1.78,0,0,1-2,1.5l-1.1-.17a1.8,1.8,0,0,1-1.49-2l.55-3.6a1.79,1.79,0,0,1,2-1.49l1.09.17a1.78,1.78,0,0,1,1.49,2Zm-8.09-1.23a1.79,1.79,0,0,1-2,1.49l-1.09-.17a1.76,1.76,0,0,1-1.49-2l.55-3.6a1.79,1.79,0,0,1,2-1.49l1.09.17a1.76,1.76,0,0,1,1.49,2Zm-8.09-1.24a1.79,1.79,0,0,1-2,1.49l-1.09-.17a1.78,1.78,0,0,1-1.49-2l.55-3.6a1.78,1.78,0,0,1,2-1.49l1.1.17a1.73,1.73,0,0,1,1.16.71,1.78,1.78,0,0,1,.33,1.32Zm-8.1-1.24a1.78,1.78,0,0,1-2,1.49l-1.1-.17a1.75,1.75,0,0,1-1.16-.7,1.81,1.81,0,0,1-.33-1.33l.55-3.59a1.79,1.79,0,0,1,2-1.5l1.09.17a1.78,1.78,0,0,1,1.49,2Z"/><path class="cls-23" d="M320.66,153.69c-2.64-.6-5.26-1-7.19-1.23a3,3,0,0,1-2.64-3.38l0-.16a1.85,1.85,0,0,1,2.08-1.43c1.21.19,2.91.46,4.82.84v0l.2.38.09.17c.54,1.07,1.65,3.33,2.27,4.33a2.57,2.57,0,0,0,.24.35l.07.09Z"/><path class="cls-26" d="M161.1,124.16h0l1.08.17a1.41,1.41,0,0,1,1.19,1.61l-.55,3.6a1.43,1.43,0,0,1-1.61,1.19h0l-1.08-.16a1.42,1.42,0,0,1-1.19-1.62l.55-3.6a1.43,1.43,0,0,1,1.61-1.19Zm.1-.72a2.15,2.15,0,0,0-2.42,1.8l-.55,3.6a2.14,2.14,0,0,0,1.79,2.44l1.08.16h0a2.14,2.14,0,0,0,2.43-1.8l.55-3.6a2.14,2.14,0,0,0-1.79-2.44l-1.08-.16Z"/><path class="cls-26" d="M169.19,125.4h0l1.08.17a1.34,1.34,0,0,1,.93.56,1.36,1.36,0,0,1,.26,1.05l-.55,3.6a1.43,1.43,0,0,1-1.61,1.19h0l-1.08-.17a1.41,1.41,0,0,1-1.19-1.61l.55-3.6a1.43,1.43,0,0,1,1.61-1.19Zm.1-.72a2.15,2.15,0,0,0-2.42,1.8l-.55,3.6a2.14,2.14,0,0,0,1.79,2.44l1.08.16h0a2.15,2.15,0,0,0,2.42-1.8l.55-3.6a2.14,2.14,0,0,0-1.79-2.44l-1.08-.16Z"/><path class="cls-26" d="M177.28,126.64h0l1.08.17a1.34,1.34,0,0,1,.93.56,1.36,1.36,0,0,1,.26,1L179,132a1.43,1.43,0,0,1-1.61,1.19h0l-1.08-.17a1.4,1.4,0,0,1-1.18-1.61l.55-3.6a1.41,1.41,0,0,1,1.6-1.19Zm.11-.72a2.15,2.15,0,0,0-2.43,1.8l-.55,3.6a2.14,2.14,0,0,0,1.79,2.44l1.08.16h0a2.16,2.16,0,0,0,2.43-1.8l.55-3.6a2.14,2.14,0,0,0-1.8-2.44l-1.08-.16Z"/><path class="cls-26" d="M185.38,127.88h0l1.08.16a1.44,1.44,0,0,1,1.19,1.62l-.55,3.6a1.43,1.43,0,0,1-1.61,1.19h0l-1.08-.17a1.41,1.41,0,0,1-1.19-1.61l.55-3.6a1.43,1.43,0,0,1,1.61-1.19Zm.1-.72a2.13,2.13,0,0,0-2.42,1.8l-.56,3.6a2.15,2.15,0,0,0,1.8,2.44l1.08.16h0a2.14,2.14,0,0,0,2.43-1.79l.55-3.6a2.14,2.14,0,0,0-1.79-2.44l-1.08-.16Z"/><path class="cls-26" d="M193.47,129.12h0l1.08.16a1.43,1.43,0,0,1,1.19,1.62l-.55,3.6a1.43,1.43,0,0,1-1.61,1.19h0l-1.08-.17a1.42,1.42,0,0,1-1.19-1.62l.55-3.59a1.43,1.43,0,0,1,1.61-1.19Zm.1-.72a2.14,2.14,0,0,0-2.42,1.8l-.55,3.6a2.14,2.14,0,0,0,1.79,2.44l1.08.16h0a2.14,2.14,0,0,0,2.42-1.79l.55-3.6a2.14,2.14,0,0,0-1.79-2.44l-1.08-.16Z"/><path class="cls-26" d="M201.56,130.36h0l1.08.16a1.42,1.42,0,0,1,1.19,1.62l-.55,3.6a1.43,1.43,0,0,1-1.61,1.19h0l-1.08-.17a1.39,1.39,0,0,1-.93-.56,1.48,1.48,0,0,1-.26-1.06l.56-3.59a1.4,1.4,0,0,1,1.6-1.19Zm.11-.72a2.14,2.14,0,0,0-2.43,1.8l-.55,3.59a2.15,2.15,0,0,0,1.79,2.45l1.08.16h0a2.15,2.15,0,0,0,2.43-1.79l.55-3.6a2.14,2.14,0,0,0-1.8-2.44l-1.08-.17Z"/><path class="cls-26" d="M209.66,131.6h0l1.08.16a1.43,1.43,0,0,1,1.19,1.62l-.56,3.6a1.41,1.41,0,0,1-1.6,1.19h0l-1.08-.17a1.42,1.42,0,0,1-.93-.56,1.39,1.39,0,0,1-.26-1.06l.55-3.59a1.42,1.42,0,0,1,1.61-1.19Zm.1-.72a2.15,2.15,0,0,0-2.43,1.8l-.55,3.59a2.15,2.15,0,0,0,1.8,2.45l1.08.16h0a2.14,2.14,0,0,0,2.43-1.79l.55-3.6a2.14,2.14,0,0,0-1.79-2.44l-1.08-.17Z"/><path class="cls-26" d="M217.75,132.84h0l1.08.16a1.43,1.43,0,0,1,1.19,1.62l-.55,3.6a1.43,1.43,0,0,1-1.61,1.19h0l-1.08-.17a1.42,1.42,0,0,1-1.19-1.62l.55-3.59a1.42,1.42,0,0,1,1.61-1.19Zm.1-.72a2.14,2.14,0,0,0-2.42,1.8l-.55,3.59a2.13,2.13,0,0,0,1.79,2.44l1.08.17h0a2.14,2.14,0,0,0,2.42-1.79l.55-3.6a2.14,2.14,0,0,0-1.79-2.44l-1.08-.17Z"/><path class="cls-26" d="M225.84,134.07h0l1.08.16a1.42,1.42,0,0,1,1.19,1.62l-.55,3.6a1.43,1.43,0,0,1-1.61,1.19h0l-1.08-.17a1.42,1.42,0,0,1-1.19-1.62l.55-3.6a1.43,1.43,0,0,1,1.61-1.19Zm.11-.71a2.14,2.14,0,0,0-2.43,1.8l-.55,3.59a2.13,2.13,0,0,0,1.79,2.44l1.08.17h0a2.13,2.13,0,0,0,2.42-1.79l.56-3.6a2.15,2.15,0,0,0-1.8-2.44l-1.08-.17Z"/><path class="cls-26" d="M233.94,135.31h0l1.08.16a1.47,1.47,0,0,1,.93.56,1.42,1.42,0,0,1,.25,1.06l-.55,3.6a1.42,1.42,0,0,1-1.6,1.19h0l-1.08-.17a1.42,1.42,0,0,1-.93-.56,1.39,1.39,0,0,1-.26-1.06l.55-3.6a1.43,1.43,0,0,1,1.61-1.19Zm.1-.71a2.15,2.15,0,0,0-2.43,1.8l-.55,3.59a2.14,2.14,0,0,0,1.8,2.44l1.08.17h0a2.14,2.14,0,0,0,2.43-1.79l.55-3.6a2.14,2.14,0,0,0-1.79-2.44l-1.08-.17Z"/><path class="cls-26" d="M242,136.55h0l1.08.16a1.47,1.47,0,0,1,.93.56,1.43,1.43,0,0,1,.26,1.06l-.55,3.6a1.43,1.43,0,0,1-1.61,1.19h0l-1.08-.16a1.42,1.42,0,0,1-.93-.56,1.39,1.39,0,0,1-.26-1.06l.55-3.6a1.43,1.43,0,0,1,1.61-1.19Zm.1-.71a2.14,2.14,0,0,0-2.42,1.79l-.55,3.6a2.14,2.14,0,0,0,1.79,2.44l1.08.17h0a2.14,2.14,0,0,0,2.42-1.79l.55-3.6a2.14,2.14,0,0,0-1.79-2.44l-1.08-.17Z"/><path class="cls-26" d="M250.12,137.79h0l1.08.17a1.42,1.42,0,0,1,1.19,1.62l-.55,3.6a1.43,1.43,0,0,1-1.61,1.19h0l-1.08-.16a1.42,1.42,0,0,1-1.19-1.62l.55-3.6a1.43,1.43,0,0,1,1.61-1.19Zm.11-.71a2.14,2.14,0,0,0-2.43,1.79l-.55,3.6a2.14,2.14,0,0,0,1.79,2.44l1.08.17h0a2.13,2.13,0,0,0,2.42-1.79l.55-3.6a2.14,2.14,0,0,0-1.79-2.44l-1.08-.17Z"/><path class="cls-26" d="M258.21,139h0l1.08.17a1.47,1.47,0,0,1,.93.56,1.42,1.42,0,0,1,.25,1.06l-.55,3.6a1.42,1.42,0,0,1-1.6,1.19h0l-1.08-.16a1.42,1.42,0,0,1-1.18-1.62l.55-3.6a1.42,1.42,0,0,1,1.6-1.19Zm.11-.71a2.15,2.15,0,0,0-2.43,1.79l-.55,3.6a2.14,2.14,0,0,0,1.8,2.44l1.08.17h0a2.15,2.15,0,0,0,2.43-1.8l.55-3.59a2.14,2.14,0,0,0-1.8-2.44l-1.08-.17Z"/><path class="cls-26" d="M266.31,140.27h0l1.08.17a1.42,1.42,0,0,1,1.19,1.62l-.55,3.59a1.42,1.42,0,0,1-1.61,1.19h0l-1.08-.16a1.39,1.39,0,0,1-.93-.57,1.36,1.36,0,0,1-.26-1.05l.55-3.6a1.43,1.43,0,0,1,1.61-1.19Zm.1-.71a2.13,2.13,0,0,0-2.42,1.79l-.55,3.6a2.14,2.14,0,0,0,1.79,2.44l1.08.17h0a2.14,2.14,0,0,0,2.42-1.8l.55-3.59a2.13,2.13,0,0,0-1.79-2.44l-1.08-.17Z"/><path class="cls-26" d="M274.4,141.51h0l1.08.17a1.42,1.42,0,0,1,.93.56,1.39,1.39,0,0,1,.26,1.06l-.55,3.59a1.42,1.42,0,0,1-1.61,1.19h0l-1.08-.16a1.43,1.43,0,0,1-1.19-1.62l.55-3.6a1.43,1.43,0,0,1,1.61-1.19Zm.1-.71a2.14,2.14,0,0,0-2.42,1.79l-.55,3.6a2.14,2.14,0,0,0,1.79,2.44l1.08.17h0a2.14,2.14,0,0,0,2.42-1.8l.55-3.59A2.15,2.15,0,0,0,275.6,141l-1.08-.16Z"/><path class="cls-26" d="M282.5,142.69h0l1.08.16a1.43,1.43,0,0,1,1.19,1.62l-.56,3.6a1.41,1.41,0,0,1-1.6,1.19h0l-1.08-.17a1.41,1.41,0,0,1-1.19-1.61l.55-3.6a1.43,1.43,0,0,1,1.61-1.19Zm.1-.72a2.15,2.15,0,0,0-2.43,1.8l-.55,3.6a2.14,2.14,0,0,0,1.8,2.44l1.08.16h0a2.14,2.14,0,0,0,2.43-1.79l.55-3.6a2.14,2.14,0,0,0-1.79-2.44l-1.08-.16Z"/><path class="cls-27" d="M324.91,168.18c-.14.09-.29.17-.44.25C324.62,168.35,324.77,168.27,324.91,168.18Z"/><path class="cls-28" d="M327.52,165.49a.41.41,0,0,1,0,.09c0,.07-.07.13-.1.2l-.12.19-.07.11-.14.2-.08.1a.79.79,0,0,1-.12.15h0l-.13.15-.09.1a1.29,1.29,0,0,1-.16.17l-.14.15-.22.2h0a2.66,2.66,0,0,1-.31.26,4.42,4.42,0,0,1-.47.35c-.13.09-.26.18-.4.26s-.29.17-.44.25l-.15.08-.33.17a13.07,13.07,0,0,1-1.28.52l-.23.08q-.59.19-1.26.36c-.29.08-.6.15-.92.21l-.51.1-.55.09-.49.06-.59.08-.43,0-.64.05c-.86.07-1.79.1-2.79.1a321.33,321.33,0,0,1-46.66-4.45h0L183,153.55l-3.11-.46a161,161,0,0,1-22.88-5.7l-.91-.29-1.86-.61-.71-.24-1.44-.49-.73-.26h0l-1.48-.52h0l-1.5-.55h0l-1-.38-2.06-.78-2.09-.82-1.58-.64-2.69-1.13c-1.13-.48-2.27-1-3.41-1.49l-.87-.39c-3.17-1.45-6.41-3-9.68-4.76Z"/><g class="cls-29"><polygon class="cls-9" points="327.97 164.15 121.29 132.06 119.52 131.05 328.03 163.43 327.97 164.15"/></g><path class="cls-26" d="M321.37,154.15a4.31,4.31,0,0,1-.59-.44s0,0,0,0a.32.32,0,0,1-.08-.09,4,4,0,0,1-.24-.35l-.12,0-.87-.17-.56-.1c-1.65-.32-3.44-.6-5.26-.82a2.68,2.68,0,0,1-2.32-3,.68.68,0,0,1,0-.14,1.47,1.47,0,0,1,1.66-1.14c1,.14,1.87.29,2.75.45l1.37.25.85.16.12,0a6.37,6.37,0,0,0-.54-.84c-1.41-.27-2.86-.51-4.44-.76a2.22,2.22,0,0,0-2.48,1.71l0,.2a3.39,3.39,0,0,0,2.95,3.78c2.55.31,5,.74,7.15,1.22l.86.2Z"/><path class="cls-30" d="M276.87,150.58l-1.94-.47c-.06,0-.06-.12-.06-.12h0a0,0,0,0,1,0,0l2.09.51a0,0,0,0,1,0,0h0A.1.1,0,0,1,276.87,150.58Z"/><path class="cls-31" d="M313.91,152.72v-.08h0A.22.22,0,0,1,313.91,152.72Z"/></g></g><rect class="cls-32" x="179.58" y="142.79" width="54.18" height="4.78" rx="2.39" transform="translate(26.14 -31.45) rotate(9.29)"/><path class="cls-9" d="M131.12,124.76,111,121.28a2.47,2.47,0,0,1-2.17-2.7h0a2.46,2.46,0,0,1,3-1.82l20.13,3.47a2.46,2.46,0,0,1,2.16,2.71h0A2.47,2.47,0,0,1,131.12,124.76Z"/><rect class="cls-23" x="143.57" y="124.18" width="12.45" height="6.98" rx="1.06" transform="translate(1.94 257.57) rotate(-81.74)"/><rect class="cls-27" x="287.32" y="146.26" width="12.45" height="6.98" rx="1.06" transform="matrix(0.14, -0.99, 0.99, 0.14, 103.09, 418.68)"/><g id="front_wing_and_turbine" data-name="front wing and turbine"><polyline class="cls-33" points="224.59 157.27 217.52 149.44 228.27 148.78 242.82 154.26"/><path class="cls-9" d="M222.85,157.33l-.66,4.39-1.52-.81c-1.92-1-1.82-2.55.19-3.07Z"/><path class="cls-34" d="M254,155.54l-2.44,16.38a114.82,114.82,0,0,1-14.16-2.75l-.5-.13c-2.11-.56-4.36-1.21-6.72-2L232.09,154c2-.07,4.36-.1,7,0h.51A94.62,94.62,0,0,1,254,155.54Z"/><polygon class="cls-35" points="226.19 155.62 223.07 155.84 221.98 163.15 224.92 164.13 226.19 155.62"/><path class="cls-9" d="M239.63,154l-2.26,15.18-.5-.13L239.12,154Z"/><path class="cls-36" d="M232.09,154l-1.94,13.08c-1.74-.56-3.54-1.17-5.39-1.85l1.61-10.85S228.56,154.13,232.09,154Z"/><path class="cls-37" d="M258.9,156.66l-2.34,15.71s-.79,0-2.27-.15l-.51-.05c-.64-.06-1.39-.14-2.25-.25L254,155.54c.74.14,1.48.29,2.22.46l.4.09.1,0Z"/><path class="cls-9" d="M256.69,156.11l-2.4,16.11-.51-.05L256.19,156l.4.09Z"/><rect class="cls-35" x="178.02" y="142.08" width="57.31" height="6.21" rx="3.1" transform="translate(26.14 -31.45) rotate(9.29)"/></g><path class="cls-25" d="M154.74,116.07l-35.8-3.92-.41,0-6.13-.67-2.25-43.27,3.91.85.42.09,3.73.82,2.15.52A10.52,10.52,0,0,1,127,75.38l17.55,30.16C149.17,114.86,154.74,116.07,154.74,116.07Z"/><g class="cls-38"><polygon class="cls-39" points="118.94 112.15 118.53 112.11 114.06 69.02 114.48 69.11 118.94 112.15"/></g><path class="cls-9" d="M151.31,134.18l-4.81-.7a1,1,0,0,1-.89-1.2l1.48-10.23a1.06,1.06,0,0,1,1.2-.89l4.81.7a1,1,0,0,1,.89,1.2l-1.48,10.22A1.07,1.07,0,0,1,151.31,134.18Zm-3.09-12.49a.52.52,0,0,0-.59.44l-1.49,10.23a.52.52,0,0,0,.44.58l4.8.7a.51.51,0,0,0,.59-.44L153.46,123a.53.53,0,0,0-.44-.59Z"/><polygon class="cls-23" points="294.24 143.88 291.73 143.42 291.16 144 289.62 154.53 290.1 155.22 295.36 155.94 295.87 155.59 297.47 145.02 297.07 144.17 294.24 143.88"/><path class="cls-9" d="M295.05,156.26l-4.8-.7a1.06,1.06,0,0,1-.9-1.2l1.49-10.22a1.06,1.06,0,0,1,1.2-.9l4.8.7a1.05,1.05,0,0,1,.9,1.2l-1.48,10.22A1.08,1.08,0,0,1,295.05,156.26ZM292,143.78a.51.51,0,0,0-.59.43l-1.48,10.23a.52.52,0,0,0,.44.59l4.8.69a.51.51,0,0,0,.59-.43l1.49-10.23a.53.53,0,0,0-.44-.59Z"/><rect class="cls-40" x="222.39" y="244.68" width="72.06" height="33.52"/><path class="cls-41" d="M475.81,226.2c-3.49-3.87-3.59-9.53-1.07-14.09a21.82,21.82,0,0,0-1.41-23.42,10.48,10.48,0,0,1-1.15-10.11,18.17,18.17,0,1,0-34.94-7,17.89,17.89,0,0,0,1.24,6.57,11,11,0,0,1-1,10.52,21.86,21.86,0,0,0-1.4,23.43,12.3,12.3,0,0,1-1.22,14.24A27.23,27.23,0,0,0,428,243.1,27.81,27.81,0,0,0,455,272a27.42,27.42,0,0,0,20.82-45.78Z"/><line class="cls-42" x1="455.42" y1="288.78" x2="455.42" y2="181.52"/><line class="cls-42" x1="455.42" y1="205.2" x2="467.63" y2="192.99"/><line class="cls-42" x1="455.42" y1="254.3" x2="438.72" y2="237.61"/><path class="cls-35" d="M453,288.79s.33-8.47-8.71-7.91c0,0-2.38-7.57-14.27-7.57s-14.87,9.47-14.87,9.47S404,280.56,404,288.85Z"/></g></g></svg>