<svg xmlns="http://www.w3.org/2000/svg" viewBox="0 0 120 120"><defs><style>.cls-1{fill:#40474e;}.cls-2{fill:#c9c8c7;}.cls-3{fill:#a31f34;}.cls-4{fill:#30373f;}</style></defs><g id="Layer_2" data-name="Layer 2"><g id="Layer_2-2" data-name="Layer 2"><circle class="cls-1" cx="60" cy="60" r="60"/><rect class="cls-2" x="56.96" y="22.45" width="5.06" height="72.28" rx="2.53"/><polygon class="cls-3" points="83.75 44.55 30.94 44.55 36.25 38.07 30.94 31.6 83.75 31.6 89.06 38.07 83.75 44.55"/><polygon class="cls-3" points="36.25 65.19 89.06 65.19 83.75 58.71 89.06 52.23 36.25 52.23 30.94 58.71 36.25 65.19"/><rect class="cls-1" x="56.96" y="30.58" width="5.06" height="1.02"/><rect class="cls-1" x="56.96" y="44.55" width="5.06" height="1.57"/><rect class="cls-1" x="56.96" y="51.22" width="5.06" height="1.02"/><rect class="cls-1" x="56.96" y="65.18" width="5.06" height="1.57"/><ellipse class="cls-2" cx="59.49" cy="96.53" rx="10.19" ry="1.03"/><rect class="cls-2" x="49.29" y="89.78" width="20.39" height="6.74"/><ellipse class="cls-4" cx="59.49" cy="89.78" rx="10.19" ry="1.03"/><ellipse class="cls-2" cx="59.49" cy="89.4" rx="2.53" ry="0.26"/><rect class="cls-2" x="56.96" y="88.3" width="5.06" height="1.11"/></g></g></svg>