<svg xmlns="http://www.w3.org/2000/svg" xmlns:xlink="http://www.w3.org/1999/xlink" viewBox="0 0 1102.83 742.81"><defs><style>.cls-1{fill:#293139;}.cls-2{fill:#333d47;}.cls-3{fill:#c7c7c8;}.cls-4{fill:#d5d5d6;}.cls-5{fill:#a8a8a8;}.cls-5,.cls-6{opacity:0.85;}.cls-6{fill:#999;}.cls-7{fill:#919191;}.cls-8{fill:#b9b9ba;}.cls-9{fill:#6d6d6d;}.cls-10{fill:#505050;}.cls-11{fill:#e0e0e0;}.cls-12{fill:#d1d1d1;}.cls-13{fill:#a0a0a0;}.cls-14{fill:#bababa;}.cls-15,.cls-16,.cls-17,.cls-54,.cls-59{fill:none;stroke-miterlimit:10;}.cls-15,.cls-16,.cls-17{stroke:#6d6d6d;stroke-linecap:round;stroke-width:2px;}.cls-16{stroke-dasharray:4 4 4 4;}.cls-17{stroke-dasharray:4 4 4 4 4 4;}.cls-18{fill:#66a5b9;}.cls-19{fill:#3f3b36;}.cls-20{fill:#8a8a8a;}.cls-21{fill:#737373;}.cls-22{fill:#00698a;}.cls-23{fill:#004f68;}.cls-24{fill:#787878;}.cls-25{fill:#a31f34;}.cls-26{fill:#c6c6c6;}.cls-27{fill:#1e1e1e;}.cls-28{fill:#d8d8d8;}.cls-29{fill:#c4c2c2;}.cls-30{fill:#848484;}.cls-31{fill:#706e6e;}.cls-32{fill:#3f3f3f;}.cls-33{fill:#373737;}.cls-34{fill:#c96d2f;}.cls-35{fill:#a0a3a4;}.cls-36{fill:#939393;}.cls-37{fill:#aeaeae;}.cls-38{fill:#616668;}.cls-39{fill:#505354;}.cls-40{fill:#818586;}.cls-41{fill:#c87985;}.cls-42{fill:#e8bfc7;}.cls-43{fill:#ddafb6;}.cls-44{fill:#deafb6;}.cls-45{fill:#c4c5c6;}.cls-46{fill:#fff;}.cls-47{fill:#f2f2f2;}.cls-48{fill:#616161;}.cls-49{fill:#4d5358;}.cls-50{fill:#74797d;}.cls-51{fill:#888c90;}.cls-52{fill:#545759;}.cls-53{clip-path:url(#clip-path);}.cls-54,.cls-59{stroke:#4b5863;}.cls-54{stroke-width:0.71px;}.cls-55{clip-path:url(#clip-path-2);}.cls-56{fill:#82192a;}.cls-57{fill:#b44859;}.cls-58{clip-path:url(#clip-path-3);}.cls-59{stroke-width:1.16px;}</style><clipPath id="clip-path"><path class="cls-1" d="M890.23,412.8s-3.7-29.79,3.82-42.33l3.1.43s-.59,26.88,9.83,41.9Z"/></clipPath><clipPath id="clip-path-2"><path class="cls-2" d="M280.5,276.61s-3.71-29.79,3.81-42.34l3.1.44s-.59,26.87,9.83,41.9Z"/></clipPath><clipPath id="clip-path-3"><path class="cls-2" d="M696.19,275.9s-6-48.34,6.2-68.7l5,.71s-1,43.61,16,68Z"/></clipPath></defs><g id="Layer_2" data-name="Layer 2"><g id="Booklet_scene" data-name="Booklet scene"><path class="cls-3" d="M137.52,61.7,156,49.9S251.27,81,302.75,79.62l7,32.13,15-25.87S467.89,105.55,525,96.18l-7.54,15.94,23.71,16.3,12.23,56.24,15.75-92S712.6,84.3,817.71,55.45L834,77.68l11.34-27.92S928.21,36.68,943,32.85l27.43,12.33s68.89,405.47,22.29,623.3c0,0-179.91-20.09-216.72-16.5l-9-16.13-3.86,16s-145.15-5.66-193,1.8l-12.45-36.2-11.39,31.92s-80.89,1.08-99.3,2.88l-1.65-16.05-15,21.87S246.49,660,158.11,673c0,0-61.26-269.16-55.75-429.36s16-118,16-118S139.06,87.77,137.52,61.7Z"/><path class="cls-4" d="M918.49,211.09c-7.2-22.59-21.76-43-38.68-58-30-26.62-69.52-37.06-107.68-36.41-41.49.72-76.77,16.31-113.92,34.95-32.77,16.45-66.58,29.24-102.91,21.79l-1.92,11.23-2.66-12.24C507,162.16,465.84,140.79,422,130.58c-40.48-9.42-85.37-12.08-126.6-7-45.6,5.66-85,27.83-111.84,69.12-24.08,37-35.23,82.31-40.15,126.79-13.17,119,14.86,266.2,102.35,345.11,87.12-5.57,184.6-6.58,184.6-6.58l15-21.87,1.65,16.05c18.41-1.8,99.3-2.88,99.3-2.88l11.39-31.92,12.45,36.2c22.48-3.5,66.38-4.11,106.65-3.77.39-.4.81-.76,1.19-1.16,19.78-20.61,30.72-57,60.66-62.92,16.11-3.18,32.19,2.14,47.33,7.58,19.07,6.84,37.71,15,57,21,35.83,11.09,77.8,13,100.9-24.54,17.65-28.63,22.73-66.12,24.61-99.79,1.94-34.8.4-70.36-10-103.56-4.12-13.19-9.21-25-18.12-35.08-6.39-7.26-13.65-13.64-19.59-21.36-11.11-14.43-11.36-28.55-5.74-45.87C922.7,260.52,926.19,235.3,918.49,211.09Z"/><path class="cls-5" d="M217,665.11C196,611.36,178,556.06,166.09,499c-10.62-51.08-17.62-103.59-22.91-155.64-9.72-95.65-11.92-200,25.35-289.56C160.71,51.42,156,49.9,156,49.9L137.52,61.7c1.54,26.07-19.11,63.89-19.11,63.89s-10.55-42.19-16,118S158.11,673,158.11,673c17-2.5,37.49-4.59,59.54-6.34C217.45,666.12,217.24,665.62,217,665.11Z"/><path class="cls-6" d="M970.39,45.18,943,32.85c-5.14,1.33-18.55,3.79-33.84,6.43a1064.73,1064.73,0,0,1,35.85,164c15,111.18,11.6,225.9-16.3,334.51a710,710,0,0,1-42.62,120c54.1,4.83,106.63,10.69,106.63,10.69C1039.28,450.65,970.39,45.18,970.39,45.18Z"/><path class="cls-7" d="M34.83,683.58l-7.74,34s29.13,24.37,64.08,22.77l5.69-16L104,740.46s38.6.44,60.9-21.34l-18-32.26Z"/><path class="cls-8" d="M0,32.08S49,405.27,16.43,685.37c0,0,81.93,69,154.38,1.77,0,0-121-348-18.15-663.33C152.66,23.81,86.77-1,0,32.08Z"/><path class="cls-9" d="M0,32.08s47.51,24.59,108.34,9.26l12.14,64.24,8.15-70,24-11.75S88.68-7,0,32.08Z"/><path class="cls-10" d="M15.79,17.24S28.85.36,84.92,0l2.64,10.05,10.22-8.9s18.4-1.79,29.33,6.34c0,0-34.31,26.66-41.69,29.58S79.82,44,67,39.86,20.31,24.3,15.79,17.24Z"/><path class="cls-7" d="M22.87,41.36,15.79,17.24s27.48,8.33,56,7.65L78,39l9.35-13.92S115,19.38,127.11,7.49L117,90.52l-8.63-49.18S71.44,53.94,22.87,41.36Z"/><path class="cls-7" d="M1053.12,687.2l7,34.14s-29.68,23.7-64.57,21.3l-5.34-16.09-7.53,15.94s-38.6-.44-60.4-22.73L941,687.92Z"/><path class="cls-8" d="M1102.83,36.68s-57.55,372-31.35,652.74c0,0-83.49,67.16-154.39-1.77,0,0,128.94-345.11,33.31-662.73C950.4,24.92,1016.84,1.64,1102.83,36.68Z"/><path class="cls-9" d="M1102.83,36.68s-48.06,23.49-108.52,6.77l-13.6,64-6.55-70.19L950.4,24.92S1015.07-4.39,1102.83,36.68Z"/><path class="cls-10" d="M1087.38,21.47S1074.71,4.3,1018.67,2.66l-2.87,10-10-9.13S987.43,1.3,976.32,9.19c0,0,33.69,27.43,41,30.52s5.43,7.07,18.34,3.21S1082.71,28.43,1087.38,21.47Z"/><path class="cls-7" d="M1079.76,45.43l7.62-24s-27.66,7.7-56.13,6.37l-6.6,14-9-14.12s-27.5-6.33-39.3-18.48l8.24,83.23,9.75-49S1030.91,56.89,1079.76,45.43Z"/><path class="cls-11" d="M286.27,556.23s-5.78,24-22.14,7.76-122.8-191.72-42.29-321,205.76,10.37,306.91,5.51,90.77-61.07,182.62-56S841.51,224,844.66,270.12s-38.94,29.61-28.25,59.78,53.34-3.4,75,28.91,20.87,104.41-27,109.87-99.11-13.15-172.05-64.07S589,447.5,610.66,479.81s52.43,76.72,9.93,96.27S513.76,594.89,438.75,564,354,585.05,324.69,572.7,302.93,546.41,286.27,556.23Z"/><path class="cls-12" d="M883.93,432.73c8.07-19.8,3.34-48.23-6.15-62.37-4.95-7.36-12.16-7.86-27.44-7.25-15,.6-40,1.6-49.85-26.15-10.6-29.94,9.88-42.32,17.59-47,7.95-4.8,10.34-6.25,9.52-18.38C826.6,257,824,218.18,711.23,212c-41.17-2.25-57.73,8.52-78.69,22.18-22.45,14.64-47.9,31.23-102.23,33.83-39,1.9-79.76-15.08-119.12-31.48C330.72,203,278.87,187.43,237.47,253.92c-67.12,107.78,10.7,253.82,34.26,288.63l6.84-3.49c17.06-10.06,26.94-5.64,36.53,4.11,3.3,3.35,7,7.16,16.89,11.31,3.21,1.36,5.21.7,15.22-5,11.44-6.54,26.6-15.23,50-15,13.31.15,29.28,3.21,48.75,11.23,65.51,27,126.94,31.51,168.53,12.38,4-1.84,9-4.86,10-8.79,3.16-12.39-15.35-39.94-26.41-56.4l-1-1.54c-17.41-25.92-12.19-72.42,11.17-99.5,23.54-27.29,59-28.67,94.72-3.7,68.54,47.85,116.55,66.12,160.53,61.1C873.27,448.13,879.79,442.88,883.93,432.73Z"/><path class="cls-13" d="M267.38,598.64s12.76-20,18.41-1.79C294.56,625.08,266.8,638.61,267.38,598.64Z"/><path class="cls-13" d="M365,581.17s16.79-21.84,60.76-9.32,36.47,26.46,12.57,26.19S350.12,599,365,581.17Z"/><path class="cls-14" d="M634.51,484.08s-21.74-28.29-3-60.13,57-5.36,67.93,6.79S656.17,518.39,634.51,484.08Z"/><path class="cls-14" d="M712,460.93s-7.12-20.12,11.19-13.9,32.9,16.41,21.81,22.29S712,460.93,712,460.93Z"/><path class="cls-13" d="M836.58,334.14s-16.38-14.21,3.93-22,42.38-9.54,40.41,2.46S843.84,342.23,836.58,334.14Z"/><path class="cls-13" d="M464.77,217.7s25.5,20.33,60.44,18.72,62.74-21.32,37-23.62S464.86,209.69,464.77,217.7Z"/><path class="cls-13" d="M441.06,201.4s27.54,2.32,25.8-5.71-31-18.39-34.83-8.41S441.06,201.4,441.06,201.4Z"/><path class="cls-13" d="M207.53,208.75s-18.13-22.24-5.17-30.11S233.67,173,231.7,185,213,216.83,207.53,208.75Z"/><path class="cls-13" d="M177.89,228.44s-9-16.13,2-16,20.06,14.25,9,18.13S177.89,228.44,177.89,228.44Z"/><path class="cls-13" d="M858.29,565.27s-9.32-28.65,14.13-29.88,24.69,10.8,20.47,18.26S859.52,578.81,858.29,565.27Z"/><path class="cls-15" d="M769.6,349.36s.21.72.44,1.95"/><path class="cls-16" d="M770.54,355.28A30.33,30.33,0,0,1,768.48,369"/><path class="cls-17" d="M767.63,370.82c-4,7.68-12.73,14.82-31.33,16.3-43.44,3.45-37.44-60.92-47.75-79.45s-72.9-65.27-121,1.25-113-10.5-156.35-11-86.92,10.84-101.91,56.69,76.24,117.91,190,57.41,114.28,126.23,30.14,124c-73.22-2-145.49-1-163-.67"/><path class="cls-15" d="M364.45,535.35l-2,0"/><path class="cls-2" d="M312,564.29a31.2,31.2,0,1,1,31.56-30.84A31.24,31.24,0,0,1,312,564.29Zm.69-60.76a29.56,29.56,0,1,0,29.23,29.9A29.59,29.59,0,0,0,312.65,503.53Z"/><path class="cls-2" d="M311.71,586.47a53.38,53.38,0,1,1,54-52.77A53.46,53.46,0,0,1,311.71,586.47Zm1.16-101.82a48.45,48.45,0,1,0,47.89,49A48.5,48.5,0,0,0,312.87,484.65Z"/><path class="cls-2" d="M375.51,536.28c-10.69,1.41-21.37,2.07-32.05,2.63s-21.36.71-32,.7-21.35-.26-32-1a261.89,261.89,0,0,1-32-3.84l0-3.28a263.67,263.67,0,0,1,32.06-3.11c10.68-.45,21.36-.48,32-.22s21.35.68,32,1.43,21.34,1.71,32,3.36Z"/><path class="cls-2" d="M313.86,469.87a318.8,318.8,0,0,1,2.88,32.07q.72,16,.49,32c-.14,10.67-.54,21.35-1.27,32s-1.74,21.34-3.56,32l-3.29,0c-1.57-10.69-2.3-21.38-2.83-32.06s-.65-21.36-.54-32,.5-21.35,1.23-32a315.74,315.74,0,0,1,3.61-32Z"/><path class="cls-18" d="M372,401.25c-18.82-9-34.87-26.87-35.53-47.72-.21-6.51,1.36-13.55,6.28-17.82,3.81-3.3,9-4.43,14-5.27a220.23,220.23,0,0,1,159.67,35.24c5.68,3.9,11.48,8.2,18.29,9.17,11.73,1.67,22.12-6.76,32.43-12.6s25.77-8.12,32,1.95c5.16,8.33-.55,20-9.26,24.48s-19.11,3.74-28.84,2.48c-18.08-2.34-36.47-6.05-54.36-2.54C483.5,393.15,464.31,409.53,441,413,419.32,416.22,391.52,410.61,372,401.25Z"/><path class="cls-2" d="M376.77,239.71s-6.43-15.83-3.13-16.94S380.52,241,380.52,241Z"/><path class="cls-19" d="M399.48,356.42s-10.12-90.31-18.68-113.67-3.12,4.67-.78,17.91,13.24,72.4,14.79,98.88C394.81,359.54,397.93,364.21,399.48,356.42Z"/><path class="cls-2" d="M411.63,242.53s-15.37-53.3-14.69-56,2.39-.68,2.74,1,14.34,54,14.34,54S414.36,243.55,411.63,242.53Z"/><path class="cls-2" d="M415.39,268.49s10.25,60.12,9.56,94.29c0,0,2.4.68,3.76-1s-.68-66.61-13-108.29S415.39,268.49,415.39,268.49Z"/><path class="cls-20" d="M373,358h69l12.29-9.22L508,342.28l-.34,3.07-21.18,4.45S475.51,378.49,447.84,386H377.13L354.92,359.7,340.23,357l-1-3.76h33.48S373.37,358,373,358Z"/><path class="cls-21" d="M456.57,364.81a171.63,171.63,0,0,1-38.1,8.15c-13.05,1.29-25.64.45-38.6-1.18A121.17,121.17,0,0,1,363,368.91l14.15,16.76h70.71c19.36-5.26,30.52-20.88,35.49-29.8C474.26,358.34,465.41,361.84,456.57,364.81Z"/><path class="cls-22" d="M400.36,279.42,446.14,275s-.35-27.33-19.14-41.34l-31.08,3.42S402.75,262.68,400.36,279.42Z"/><path class="cls-23" d="M409.81,278.5,446.14,275A64.87,64.87,0,0,0,444,260.8c-11.38.94-22.78,1.55-34.18,2.27C409.79,268.14,409.88,273.32,409.81,278.5Z"/><path class="cls-22" d="M417.1,266.1S425,318.37,421.2,343l68-10.93s10.93-44.41-22.89-68.32Z"/><path class="cls-22" d="M353.68,282.2l31.47-3.06s-.23-18.79-13.15-28.41l-21.37,2.34S355.32,270.69,353.68,282.2Z"/><path class="cls-23" d="M360.18,281.57l25-2.43a44.46,44.46,0,0,0-1.5-9.75c-7.82.65-15.66,1.07-23.5,1.56C360.16,274.44,360.23,278,360.18,281.57Z"/><path class="cls-22" d="M365.19,273s5.4,35.93,2.82,52.84l46.74-7.51s7.51-30.54-15.74-47Z"/><path class="cls-24" d="M387,210.76s10.93-11.62,30.4-6.15L418.81,222s-8.89,8.2-24.94,6.49Z"/><path class="cls-10" d="M393.87,228.52S401,220,418.81,222l-8.2,4.44A54.73,54.73,0,0,1,393.87,228.52Z"/><path class="cls-25" d="M398.65,186.16s11.27-3.08,19.13.34,17.42,1.71,17.42,1.71l.69,15.37s-13.33,0-17.43-1.71-15.37,1-15.37,1Z"/><path class="cls-9" d="M340.92,355.6l-2.39-13.66s2-3.08,3.07,0l2.73,13.32Z"/><path class="cls-9" d="M351.51,355.6l-2.39-13.66s2-3.08,3.07,0l2.73,13.32Z"/><path class="cls-9" d="M363.7,355.62,360.88,342s1.95-3.13,3.07-.09l3.16,13.23Z"/><path class="cls-9" d="M367.9,356.79a1.58,1.58,0,0,1,1.55,1.55c-.08,2.74,5.38,3.34,7.25,3.63a86.64,86.64,0,0,0,14,.71c8.29-.07,16.46-.23,24.76-.07a174.46,174.46,0,0,0,22.4-.77c6.93-.78,10.12-6.84,16.27-9.19,5.82-2.22,12.77-1.82,18.89-2.35,6.93-.59,13.85-1.29,20.75-2.05l13.82-2.9.34-3.07-53.64,6.49L442,358H373c.34,0-.34-4.78-.34-4.78H339.21l.45,1.64C349.08,355.46,358.51,355.84,367.9,356.79Z"/><polygon class="cls-26" points="334.77 341.6 367.9 341.6 367.9 338.18 334.08 338.18 334.77 341.6"/><path class="cls-27" d="M456.79,316.14v-.35h0Zm0,.67c0-.11,0-.23,0-.36Zm3.8-4.1,0,0h.05Z"/><path class="cls-28" d="M459.39,309.35s1.25,3.65.4,5-3.23,1-3.23.27l0-4.63S457.85,308.22,459.39,309.35Z"/><path class="cls-28" d="M452.79,310s1.4-2.52,3.79,0l0,4.63s-1.54,2.95-3.78,0Z"/><path class="cls-28" d="M450,309.32s-1.28,3.64-.44,5.05,3.23,1,3.23.29V310S451.54,308.2,450,309.32Z"/><path class="cls-28" d="M456.15,313.39a5,5,0,0,0-.71-2.94,1.16,1.16,0,0,0-1.74-.12,2.74,2.74,0,0,0-.41,1.5,18.39,18.39,0,0,0,.31,3.69,1.72,1.72,0,0,0,2.58-.3C456.16,314.61,456.17,314,456.15,313.39Z"/><path class="cls-28" d="M452.38,312.75a4.12,4.12,0,0,0-.59-1.85,1.72,1.72,0,0,0-2.19-.25c-.29,1.19-.56,2.87-.05,3.72a2.31,2.31,0,0,0,3,.62C452.53,314.24,452.5,313.49,452.38,312.75Z"/><path class="cls-2" d="M444.08,292.86s1.31-6.67,9.17-7.24a8.93,8.93,0,0,1,9.65,6.26S451.38,296.79,444.08,292.86Z"/><path class="cls-28" d="M451.43,304s1.12-2.81-1.41-2c0,0-10,8-12.63,9.26s-2.81-1-3.93,1.12-.57,2.81,1.4,2.53.7,2,2.95,2.11.84-1.83,1.68-3.23S451.43,304,451.43,304Z"/><path class="cls-29" d="M450,302s-3.29,2.64-6.6,5.13a1.29,1.29,0,0,1,1,.42,1.77,1.77,0,0,1,.42,1.54c3.18-2.54,6.59-5.13,6.59-5.13S452.55,301.15,450,302Z"/><path class="cls-28" d="M457.07,296.79s-1.12,2.81,1.4,2c0,0,10-8,12.64-9.27s2.81,1,3.93-1.12.56-2.81-1.4-2.53-.71-2-2.95-2.11-.84,1.83-1.69,3.23S457.07,296.79,457.07,296.79Z"/><path class="cls-29" d="M458.47,298.76s3.3-2.65,6.6-5.14a1.28,1.28,0,0,1-1-.42,1.77,1.77,0,0,1-.43-1.54c-3.18,2.55-6.58,5.13-6.58,5.13S456,299.6,458.47,298.76Z"/><path class="cls-28" d="M447.7,299.07s3,.49,1.62-1.79c0,0-10-8-11.78-10.34s.35-3-1.94-3.6-2.87.06-2.17,1.92-1.77,1.11-1.42,3.33,2,.43,3.52,1S447.7,299.07,447.7,299.07Z"/><path class="cls-29" d="M449.32,297.28s-3.3-2.65-6.44-5.34a1.3,1.3,0,0,1-.19,1.06,1.8,1.8,0,0,1-1.42.75c3.17,2.56,6.43,5.32,6.43,5.32S450.68,299.56,449.32,297.28Z"/><path class="cls-28" d="M459.29,301.26s-3-.49-1.61,1.8c0,0,10,8,11.77,10.34s-.35,3,1.95,3.59,2.86-.05,2.16-1.91,1.77-1.11,1.42-3.34-2-.43-3.51-.94S459.29,301.26,459.29,301.26Z"/><path class="cls-29" d="M457.68,303.06s3.29,2.65,6.43,5.34a1.33,1.33,0,0,1,.2-1.07,1.79,1.79,0,0,1,1.41-.75c-3.17-2.55-6.43-5.32-6.43-5.32S456.31,300.77,457.68,303.06Z"/><path class="cls-28" d="M461,293.42a14.09,14.09,0,0,0-6.37-3.42v-.09l-.25,0-.26,0V290a14.14,14.14,0,0,0-6.37,3.42c-3.65,3.23-5.33,11.51-1.12,14.46a14.79,14.79,0,0,0,15.49,0C466.31,304.93,464.63,296.65,461,293.42Z"/><path class="cls-25" d="M444.32,297c-.32.12-.19,3.19-.1,3.94,0,0,10.58-4.87,18.72-5.34l-1.31-1.78S447.69,295.81,444.32,297Z"/><path class="cls-25" d="M448,297.7c2-.49,3.93-1,5.91-1.47a49,49,0,0,1,8.42-1.39l-.73-1s-13.94,2-17.31,3.18c-.17.07-.21,1-.2,1.93A23.12,23.12,0,0,1,448,297.7Z"/><path class="cls-30" d="M447,306.92a2.68,2.68,0,0,0,4.5-2,5.4,5.4,0,0,0-.4-1.91,3.52,3.52,0,0,0-5.65-1.41C444.4,302.46,445.35,305.35,447,306.92Z"/><path class="cls-31" d="M451.23,303.75a2,2,0,0,1,.24.52c0,.14,0,.27,0,.4-.07,1-1.56,1.6-2.62,1a3.11,3.11,0,0,1-1.57-2.24,3.78,3.78,0,0,1,.6-2.74,3.38,3.38,0,0,1,3.2,2.29c.07.18.13.35.18.52A.15.15,0,0,0,451.23,303.75Z"/><path class="cls-30" d="M461.49,306.92a2.68,2.68,0,0,1-4.49-2,5.16,5.16,0,0,1,.39-1.91A3.52,3.52,0,0,1,463,301.6C464.12,302.46,463.16,305.35,461.49,306.92Z"/><path class="cls-31" d="M457.28,303.75a1.93,1.93,0,0,0-.23.52c0,.14,0,.27,0,.4.06,1,1.55,1.6,2.62,1a3.09,3.09,0,0,0,1.56-2.24,3.73,3.73,0,0,0-.59-2.74,3.39,3.39,0,0,0-3.21,2.29c-.07.18-.13.35-.18.52A.15.15,0,0,1,457.28,303.75Z"/><path class="cls-32" d="M444,298.05s7.58-3.22,20.21-3.08,8.75-4.78,5.53-6.18-4.64-3.09-11.94-.14-9.55-1.41-16.28.84S435.33,295.06,444,298.05Z"/><path class="cls-30" d="M452.93,309.29s.47-1.88,1.4-2.25,1.87,1.78,1.78,2.06-1.22-.47-1.68-.28S453.77,309.85,452.93,309.29Z"/><path class="cls-25" d="M462.94,295.62s1.78,4.21,4.87,3C467.81,298.62,467.53,294.68,462.94,295.62Z"/><path class="cls-25" d="M462.58,295.62s4.56.18,4.78-3.13C467.36,292.49,463.68,291.07,462.58,295.62Z"/><path class="cls-33" d="M472.1,360.27a3.65,3.65,0,1,1-3.65-3.64A3.65,3.65,0,0,1,472.1,360.27Z"/><path class="cls-25" d="M374.19,224.17s13.24-4.67,20.25-3.11,13.23-.78,12.45,1.55-8.56,6.23-12.45,4.67-17.13,3.12-17.13,3.12Z"/><rect class="cls-25" x="728.85" y="334.18" width="81.73" height="8.85" transform="translate(364.93 -398.46) rotate(37.48)"/><rect class="cls-25" x="729.53" y="332.82" width="81.73" height="8.85" transform="translate(-38.45 567.5) rotate(-39.53)"/><path class="cls-34" d="M764.91,234.1s10.72-23.94,31.44-17.51,12.86,36.81,12.86,36.81Z"/><polygon class="cls-35" points="758.12 261.26 835.3 282.7 880.68 274.12 808.14 253.4 758.12 261.26"/><polygon class="cls-36" points="758.12 261.26 758.12 309.14 835.3 337.01 835.3 282.7 758.12 261.26"/><polygon class="cls-37" points="835.3 282.7 880.68 274.12 880.68 322.72 835.3 337.01 835.3 282.7"/><polygon class="cls-38" points="764.9 234.1 835.3 252.68 880.68 274.12 808.14 253.4 764.9 234.1"/><path class="cls-39" d="M808.14,253.4S816.72,229.81,801,222s-36.09,12.15-36.09,12.15Z"/><path class="cls-35" d="M835.3,252.68s10.72-23.94,31.44-17.51,13.94,39,13.94,39Z"/><path class="cls-35" d="M764.91,234.1l70.39,18.58s13.58-25.72,34.3-16.43l-73.25-19.66S778.48,209.45,764.91,234.1Z"/><polygon class="cls-38" points="766.69 261.62 834.58 280.2 872.82 273.41 808.5 254.83 766.69 261.62"/><polygon class="cls-40" points="787.6 217.49 845.84 233.57 842.98 233.92 786.17 218.2 787.6 217.49"/><polygon class="cls-40" points="779.02 226.06 837.26 242.14 834.4 242.5 777.59 226.78 779.02 226.06"/><polygon class="cls-40" points="808.5 254.83 808.5 273.41 766.69 261.62 808.5 254.83"/><polygon class="cls-24" points="758.12 271.26 834.94 298.06 834.94 295.56 757.76 268.76 758.12 271.26"/><path class="cls-41" d="M764.91,234.1s10.72-22.51,30-18.58L801,217s-16.08-4.29-30.38,18.94Z"/><path class="cls-41" d="M835.3,252.68l-9.65-2.14S841,228,852.81,230.89l13.93,4.28S852.81,228.38,835.3,252.68Z"/><path class="cls-42" d="M821.72,279.12l5-1.07,7.86,2.15L845,278.05l4.64,1.79V287l-8.93,2.85v9.65l-5,1.07-5.36-2.14v-10l-8.58-2.86Z"/><polygon class="cls-37" points="834.94 294.49 880.5 283.23 880.5 285.65 834.94 296.99 834.94 294.49"/><polygon class="cls-43" points="835.66 300.56 835.66 283.06 849.59 279.84 849.59 286.99 840.66 289.85 840.66 299.49 835.66 300.56"/><polygon class="cls-37" points="834.94 323.7 881.04 311.91 881.04 314.32 834.94 326.2 834.94 323.7"/><polygon class="cls-41" points="821.72 279.13 835.66 283.06 835.66 300.56 830.3 298.42 830.3 288.42 821.72 285.56 821.72 279.13"/><polygon class="cls-24" points="759.9 300.92 835.3 327.36 835.3 324.86 758.12 298.06 759.9 300.92"/><polygon class="cls-24" points="758.12 286.27 834.94 313.07 834.94 310.57 757.76 283.77 758.12 286.27"/><polygon class="cls-41" points="821 331.65 821 325.58 829.58 328.79 829.58 318.79 834.94 320.93 839.94 319.14 839.94 328.08 847.45 326.29 847.45 332.72 835.3 337.01 821 331.65"/><polygon class="cls-43" points="834.94 320.93 834.94 337.01 847.45 332.72 847.45 326.29 839.94 328.08 839.94 319.14 834.94 320.93"/><polygon class="cls-41" points="766.69 261.62 775.63 259.83 772.05 258.4 758.12 261.26 758.12 278.77 762.05 279.84 762.05 266.98 769.55 269.48 769.55 265.19 774.91 264.12 766.69 261.62"/><polygon class="cls-44" points="758.12 261.26 769.55 265.19 774.91 264.12 766.69 261.62 775.63 259.83 772.05 258.4 758.12 261.26"/><polygon class="cls-37" points="780.63 267.69 780.63 286.99 801.35 293.42 801.35 273.41 805.28 272.34 785.09 266.8 780.63 267.69"/><polygon class="cls-45" points="780.63 267.69 801.35 273.41 805.28 272.34 785.09 266.8 780.63 267.69"/><path class="cls-40" d="M784.56,239.1a22.37,22.37,0,0,1,6.07-8.21l20.37,5a28.46,28.46,0,0,0-5.72,8.22Z"/><polyline class="cls-40" points="780.63 238.39 764.9 234.1 808.14 253.4 880.68 274.12 835.3 252.68 780.63 238.39 782.41 239.82 834.58 253.75 867.82 269.12 808.14 251.61 777.41 238.75 785.27 240.53"/><path class="cls-40" d="M842.45,252.33s13.22-19.3,25.72-12.15,9.65,27.87,9.65,27.87Z"/><polygon class="cls-41" points="867.46 274.48 871.75 275.55 871.75 283.06 877.46 281.98 877.46 292.35 880.68 291.63 880.68 274.12 869.6 270.55 866.03 270.91 872.82 273.41 867.46 274.48"/><polygon class="cls-43" points="871.75 275.55 880.68 274.12 880.68 291.63 877.46 292.35 877.46 281.98 871.75 283.06 871.75 275.55"/><polygon class="cls-41" points="758.12 309.14 765.62 311.64 765.26 306.28 761.33 304.85 761.33 299.13 758.12 298.06 758.12 309.14"/><polygon class="cls-37" points="834.94 310.57 881.04 298.78 881.04 301.19 834.94 313.07 834.94 310.57"/><path class="cls-46" d="M622.17,324.35c-2.68-.26-4.31,2.89-6.13-.15s4.14-2.58,4-4.63-3-3.59-.62-4.9,6.39,2.37,5.27,4.62c-1.77,3.53,27.73,17.9,28.7,14.39.52-1.85.06-2.68,1.38-2.8s5.78,2.24,4.5,3.94-3.11.79-3.84,2.54-.8,6.13-3.18,5.61-1.31-3.71-3.56-5.47S623,324.36,622.17,324.35Z"/><path class="cls-46" d="M524.21,481.67c5-2.27,6.58,2.74,8.47-.25s-3.85-3-3.64-5.08.8-3.59-1.89-4.26c-2.42-.6-3.41,2.46-2,4.58s-7.05,3.8-12.31,6.9c-3.69,2.17-17.23,8.1-17.41,6.18s-1.78-1.69-3.1-1.84-3.68,1.29-2.43,3,2.89.44,3.59,2.2-.54,5.29,1.85,4.83,1.12-2.9,3.41-4.61S520.41,484.42,524.21,481.67Z"/><path class="cls-47" d="M283.79,406.91c4.5-20.49-4.31-34.26-27.3-30-28.71,5.26-28.54,25.58-15,36.68,1.55,2.92-7.75,9.55.51,13.38s12.29-10.05,13.24-5.59-.32,11.7,3.43,11.83,5.74-5.87,5.74-5.87c1,5.18,7.34,6.84,7.52,0,6.73,3.23,10-1.17,3.06-11.58C291.19,422.09,293.83,410.37,283.79,406.91Zm-40.61,3c-4.79-5,5.19-17.93,11.42-8.31S249.72,417.38,243.18,409.93Zm26.14,7.72c-2,1.36-2.88-1.48-4.45-2.31s-1.73,5-4.47,3c-2.65-1.54,0-7.9,2.21-9.31S271.35,416.29,269.32,417.65Zm10.14-14.71c-.48,4.29-2.54,7.75-9.67,4.84s-6.64-7.86-4-12.41C270.1,387.82,280,398.65,279.46,402.94Z"/><path class="cls-2" d="M232.1,392.06c-11.59,2.36-33.55-7.63-33.28-12.77s18.65,4.2,24.79-1.16,15.15-31.13,26-33.7,24.7,21.73,31.15,17.93,12.83-10.24,15.6-7.88-4,22.54-12.53,24.54-14.38-.92-23.51,1S235.32,391.16,232.1,392.06Z"/><path class="cls-2" d="M296.36,354.48a1.66,1.66,0,0,0-.32-.22l-.1-.05-.25-.11-.12,0-.28-.06h-.1a2.67,2.67,0,0,0-.4,0h-.09l-.35,0-.14,0-.33.07-.14,0a4,4,0,0,0-.45.15h0l-.52.21-.12.06-.41.19-.16.08-.44.24-.11.06-.59.34h0c-.19.11-.39.23-.58.36l-.14.09-.5.32-.12.08c-2.67,1.78-5.73,4.19-8.8,6-1.72,1-4,0-6.52-1.89,2.74,2.6,4.57,4,6,3.31,3.18-1.49,10.43-8.09,12.54-8.3,1.72,0,.91,3.5,0,7.29-1,4.2-6.31,10.59-10.54,13-5.27.22-12.39,0-21.86,1.89-15.15,2.93-25.85,7.48-30.52,10.42-9.7,6.87-32.83-9.74-27-9,2.06.32,6.3,1.15,8.77,1.43,3.05.36,8.57,1,10.09-.66.26-.28.52-.58.76-.88-4.46,2.29-12.73-.15-18.22-1h0l-.25,0-.3,0-.62-.08-.23,0-.41,0-.23,0-.49,0H201l-.35,0-.14,0-.41.1-.07,0-.3.12-.1.05a1.88,1.88,0,0,0-.23.16l-.06,0a1.79,1.79,0,0,0-.22.25.25.25,0,0,1,0,.07,2.56,2.56,0,0,0-.11.24l0,.1a2.14,2.14,0,0,0-.07.38c0,.1,0,.21,0,.32s0,.06,0,.08c.56,3.51,10.18,8.88,19.88,11.37h0l.87.22h0c.88.21,1.76.4,2.63.55l.09,0,.83.14h0c.57.09,1.13.16,1.69.23H225l.68.07h.15l1.57.09h1.7l.72,0H230l.56,0,.21,0,.49-.07.2,0,.65-.11c3.22-.9,19.09-10.19,28.22-12.07s15,1,23.51-1l.41-.11.13-.05.28-.09.16-.06.24-.1.17-.08.23-.11a1,1,0,0,0,.17-.1l.23-.12.17-.1.23-.14.16-.11.23-.15.16-.12.23-.17.16-.12.22-.19.16-.13.23-.2.14-.13a2.39,2.39,0,0,0,.23-.22.86.86,0,0,0,.14-.13l.24-.24.13-.13.24-.26.12-.12.26-.3.09-.11.29-.34.06-.08c.11-.14.23-.28.34-.43h0C295.27,367.59,298.4,356.21,296.36,354.48Z"/><path class="cls-25" d="M296.06,357.1c-2.46-.45-5.83,1.2-8.81,4.32-3.47,3.64-6.09,5.88-8.42,5.83-1.6,0-3.18-1.08-5.28-3.49C263.31,352,256.3,347,250.81,347.64c-5.93.65-9.74,7.76-14.57,16.74-1.42,2.64-2.89,5.37-4.56,8.23-4,6.81-8.14,10.07-12.78,10-1.6,0-4-.33-6.56-.66-6.93-.87-11.2-1.3-12,.17.25.26.52.51.82.78a.4.4,0,0,1,0-.33c.59-1.05,6.94-.25,11.14.29,2.57.32,5,.63,6.65.66a9.93,9.93,0,0,0,2.18-.18c4.13-.8,7.88-4.18,11.41-10.24,1.67-2.87,3.14-5.61,4.57-8.26,4.89-9.09,8.42-15.66,13.87-16.27,5.16-.58,11.93,4.3,22,15.82,2.28,2.62,4.06,3.76,5.94,3.8,2.67.06,5.36-2.19,9.1-6.11,3.31-3.47,6.37-4.35,8-4.06a2.43,2.43,0,0,1,1,.4c0-.35.08-.68.1-1A3.36,3.36,0,0,0,296.06,357.1Z"/><path class="cls-2" d="M279.51,378.35a6.62,6.62,0,0,1-2.11.12c-.68,0-1.5,0-2.45,0l-3.25.14a90,90,0,0,0-18.46,3.17A134.27,134.27,0,0,0,235.52,388c-2.21,1-4,1.8-5.19,2.37a8.77,8.77,0,0,1-1.92.87c-.32-.43,10.09-6.87,24.48-10.79a74.37,74.37,0,0,1,18.78-2.83l3.29.06c1,.06,1.8.18,2.47.26A6.39,6.39,0,0,1,279.51,378.35Z"/><path class="cls-48" d="M242.61,350.73c1.19.54,5.18-3.94,4.35-4.24S242.33,350.09,242.61,350.73Z"/><path class="cls-48" d="M239.3,355.16c.43.22,3.11-2.3,2.4-2.78S239.1,354.5,239.3,355.16Z"/><path class="cls-48" d="M288.75,358.63c.36.49,4.59-1.72,4.19-2.28S288.49,357.7,288.75,358.63Z"/><path class="cls-1" d="M890.23,412.8s-3.7-29.79,3.82-42.33l3.1.43s-.59,26.88,9.83,41.9Z"/><path class="cls-2" d="M899.72,359.36s17.17-.8,21,.55c0,0-1.82-7-3.3-7.73a13.94,13.94,0,0,1,7.76,7.73l5.86.78s2.31-2.81,1.74-5.2c0,0,2.56,3.46,2.14,6.93l5.86,2.23s-2.14-12.71-12.13-17.17-23.37.16-34.6,11.72A6,6,0,0,0,899.72,359.36Z"/><ellipse class="cls-49" cx="892.49" cy="366.23" rx="7.51" ry="6.07" transform="translate(129.08 956.03) rotate(-60)"/><ellipse class="cls-50" cx="894.1" cy="372.88" rx="6.07" ry="7.51"/><path class="cls-2" d="M893.54,358s-9-9.78-12.34-10.53c0,0,2.47-3.29,4.86-3.37,0,0-4.41-.89-7,1.28l-4.56-3.07s-.15-2.84,1.72-3.52c0,0-3.44,1.12-4,2.65l-6.06-1.6A22.31,22.31,0,0,1,886,336c11.66,3.22,11.14,18.52,10.77,22.05S893.54,358,893.54,358Z"/><path class="cls-2" d="M881.08,356.54s-27-1.9-19.63,32.71l4.79-6.8s-2.55-2.85-2.47-6.12c0,0,1.73,2.84,3.88,3l6.11-5.51s-.86-6.58,1.63-9.19c0,0,.07,4.8,2.79,6.43l15.36-13S884.66,356.36,881.08,356.54Z"/><ellipse class="cls-51" cx="899.54" cy="367.43" rx="6.07" ry="7.51"/><path class="cls-52" d="M895.51,359.83a28.52,28.52,0,0,1,25.67,1.84c13.07,7.91,8.56,24.75,8.56,24.75l-4.23-5,1.38-5.33-4.14,2.11-4-4.32s.09-6.9-2.3-9.2l-1.2,6.72-7.45-4.05s-1.66-5.16-5.24-6.35l.36,2.57S897.72,359.92,895.51,359.83Z"/><path class="cls-52" d="M892.49,359.83s9.85-18.35,22.59-18.35,19.07,10.4,19.07,10.4H927a11.35,11.35,0,0,0-2.62-4.25s.45,3.7.09,4.52l-7.23,1.17s-1.35-4-6.87-4.06a19.3,19.3,0,0,1,3.62,5l-13.19,5S894.66,360.2,892.49,359.83Z"/><path class="cls-52" d="M898.35,352.41s-1.72-24.62-21.66-16.8l3.88,2.65s1.15-1.53,3.86-.86c0,0-2,1-2.38,1.81l3.19,4a9.67,9.67,0,0,1,5.68.31,24.92,24.92,0,0,0-4,2s7.77,9.16,10.59,10.16S898.35,352.41,898.35,352.41Z"/><path class="cls-52" d="M895.51,355.86s-12.7-11-26.23-5.7-10.21,15.44-10.21,15.44l5.64-3.4s-1.08-1.37.5-5c0,0,.42,3,2.66,4.21l5.31-.92s1.74-5.47,6.06-6.89a14.21,14.21,0,0,0-1.5,6.81l8,.25s3.1-2.74,6.78-2.66l-1,1.87S902.08,360.81,895.51,355.86Z"/><path class="cls-1" d="M890.23,412.8s-3.7-29.79,3.82-42.33l3.1.43s-.59,26.88,9.83,41.9Z"/><g class="cls-53"><polyline class="cls-54" points="907.57 413.89 888.84 402.43 899.63 393.96 889.21 385.74 897.62 379.3"/></g><path class="cls-1" d="M280.5,276.61s-3.71-29.79,3.81-42.34l3.1.44s-.59,26.87,9.83,41.9Z"/><path class="cls-2" d="M290,223.17s17.17-.8,21,.55c0,0-1.82-7-3.3-7.73a13.94,13.94,0,0,1,7.76,7.73l5.86.78s2.32-2.81,1.74-5.21c0,0,2.56,3.47,2.14,6.94l5.87,2.23S329,215.74,319,211.29s-23.37.16-34.6,11.72A6.08,6.08,0,0,0,290,223.17Z"/><ellipse class="cls-49" cx="282.75" cy="230.03" rx="7.51" ry="6.07" transform="translate(-57.84 359.89) rotate(-60)"/><ellipse class="cls-50" cx="284.36" cy="236.69" rx="6.07" ry="7.51"/><path class="cls-2" d="M283.81,221.85s-9.06-9.78-12.35-10.53c0,0,2.47-3.29,4.86-3.37,0,0-4.41-.89-6.95,1.27l-4.57-3.06s-.15-2.84,1.72-3.52c0,0-3.44,1.12-4,2.65l-6.06-1.6a22.27,22.27,0,0,1,19.75-3.89c11.66,3.22,11.14,18.52,10.77,22S283.81,221.85,283.81,221.85Z"/><path class="cls-2" d="M271.34,220.34s-27-1.89-19.63,32.71l4.79-6.8s-2.55-2.84-2.47-6.11c0,0,1.73,2.84,3.88,3l6.11-5.5s-.86-6.58,1.64-9.19c0,0,.06,4.8,2.78,6.43l15.37-13S274.92,220.17,271.34,220.34Z"/><ellipse class="cls-51" cx="289.8" cy="231.23" rx="6.07" ry="7.51"/><path class="cls-52" d="M285.77,223.64a28.54,28.54,0,0,1,25.68,1.84c13.06,7.91,8.55,24.75,8.55,24.75l-4.23-5,1.38-5.33L313,242,309,237.72s.09-6.9-2.3-9.2l-1.19,6.71-7.46-4s-1.65-5.16-5.24-6.35l.37,2.57S288,223.73,285.77,223.64Z"/><path class="cls-52" d="M282.75,223.64s9.85-18.35,22.59-18.35,19.07,10.4,19.07,10.4h-7.14a11.28,11.28,0,0,0-2.62-4.25s.45,3.7.09,4.52l-7.23,1.17s-1.35-4-6.86-4.07a19.56,19.56,0,0,1,3.61,5l-13.19,5S284.92,224,282.75,223.64Z"/><path class="cls-52" d="M288.61,216.22s-1.72-24.62-21.66-16.8l3.88,2.64s1.15-1.52,3.86-.85c0,0-2.05,1-2.38,1.81l3.2,4a9.63,9.63,0,0,1,5.67.31,24.92,24.92,0,0,0-4,2s7.78,9.16,10.59,10.16S288.61,216.22,288.61,216.22Z"/><path class="cls-52" d="M285.77,219.67s-12.7-11-26.23-5.7-10.21,15.44-10.21,15.44L255,226s-1.07-1.36.5-5c0,0,.42,3,2.66,4.21l5.31-.91s1.74-5.48,6.06-6.89a14.21,14.21,0,0,0-1.5,6.81l8,.25s3.11-2.74,6.78-2.66l-1.05,1.87S292.34,224.62,285.77,219.67Z"/><path class="cls-2" d="M280.5,276.61s-3.71-29.79,3.81-42.34l3.1.44s-.59,26.87,9.83,41.9Z"/><g class="cls-55"><polyline class="cls-54" points="297.83 277.7 279.1 266.24 289.89 257.77 279.47 249.54 287.88 243.11"/></g><path class="cls-1" d="M696.19,275.9s-6-48.34,6.2-68.7l5,.71s-1,43.61,16,68Z"/><path class="cls-2" d="M711.58,189.17s27.87-1.3,34.17.9c0,0-3-11.32-5.36-12.54A22.57,22.57,0,0,1,753,190.07l9.52,1.26s3.75-4.56,2.81-8.44c0,0,4.16,5.62,3.49,11.25l9.51,3.62s-3.48-20.64-19.7-27.87-37.92.27-56.14,19A9.84,9.84,0,0,0,711.58,189.17Z"/><ellipse class="cls-56" cx="699.85" cy="200.32" rx="12.2" ry="9.85" transform="matrix(0.5, -0.87, 0.87, 0.5, 176.45, 706.25)"/><ellipse class="cls-25" cx="702.47" cy="211.12" rx="9.85" ry="12.2"/><path class="cls-2" d="M701.56,187s-14.7-15.88-20-17.09c0,0,4-5.34,7.89-5.46,0,0-7.16-1.46-11.29,2.06l-7.4-5s-.24-4.62,2.79-5.71c0,0-5.58,1.81-6.43,4.3l-9.83-2.6a36.15,36.15,0,0,1,32-6.31c18.94,5.22,18.09,30.05,17.48,35.78S701.56,187,701.56,187Z"/><path class="cls-2" d="M681.32,184.59s-43.86-3.08-31.85,53.09l7.78-11s-4.15-4.61-4-9.92c0,0,2.8,4.61,6.29,4.89l9.92-8.94s-1.4-10.68,2.65-14.91c0,0,.11,7.78,4.53,10.44L701.56,187S687.14,184.31,681.32,184.59Z"/><ellipse class="cls-57" cx="711.29" cy="202.26" rx="9.85" ry="12.2"/><path class="cls-52" d="M704.76,189.94s20.45-9.86,41.66,3,13.89,40.16,13.89,40.16L753.44,225l2.24-8.66L749,219.8l-6.57-7s.15-11.2-3.74-14.94l-1.94,10.9-12.09-6.57s-2.69-8.36-8.52-10.3l.6,4.18S708.34,190.09,704.76,189.94Z"/><path class="cls-52" d="M699.85,189.94s16-29.78,36.67-29.78S767.46,177,767.46,177H755.88s-1.62-4.69-4.26-6.89c0,0,.74,6,.15,7.33L740,179.37s-2.2-6.45-11.15-6.6c0,0,4.4,4.4,5.87,8.07l-21.42,8.07S703.37,190.53,699.85,189.94Z"/><path class="cls-52" d="M709.36,177.89s-2.8-40-35.16-27.26l6.3,4.29s1.86-2.48,6.27-1.39c0,0-3.33,1.62-3.87,2.94l5.19,6.54s5.11-1.36,9.21.5a39.65,39.65,0,0,0-6.43,3.25s12.62,14.86,17.19,16.49S709.36,177.89,709.36,177.89Z"/><path class="cls-52" d="M704.76,183.49s-20.63-17.87-42.58-9.24-16.57,25.05-16.57,25.05l9.16-5.52s-1.75-2.22.81-8.18c0,0,.67,4.94,4.31,6.83l8.62-1.48s2.83-8.89,9.83-11.18a23,23,0,0,0-2.42,11l12.93.41s5-4.45,11-4.31l-1.71,3S715.41,191.53,704.76,183.49Z"/><path class="cls-2" d="M696.19,275.9s-6-48.34,6.2-68.7l5,.71s-1,43.61,16,68Z"/><g class="cls-58"><polyline class="cls-59" points="724.32 277.68 693.92 259.07 711.44 245.33 694.52 231.98 708.17 221.54"/></g><polygon class="cls-41" points="373.7 617.12 367.95 631.82 376.8 644.89 361.05 643.96 351.35 656.42 347.36 641.15 332.52 635.78 345.81 627.26 346.33 611.49 358.54 621.5 373.7 617.12"/><polygon class="cls-46" points="200.13 633.57 182.24 589.39 153.54 627.45 176.93 585.92 129.28 587.21 176.34 579.61 145.61 543.16 180.9 575.21 190.24 528.46 187.19 576.03 229.56 554.19 190.46 581.46 233.96 600.97 188.26 587.41 200.13 633.57"/></g></g></svg>