<svg xmlns="http://www.w3.org/2000/svg" viewBox="0 0 112.42 112.42"><defs><style>.cls-1{isolation:isolate;}.cls-2,.cls-9{fill:#fff;}.cls-3{fill:#868687;}.cls-4{fill:#686869;}.cls-5{fill:#e8e8e8;}.cls-5,.cls-9{mix-blend-mode:soft-light;}.cls-6{fill:#444a50;}.cls-7{fill:#041d40;}.cls-8{fill:#00698a;}.cls-9{opacity:0.3;}</style></defs><g class="cls-1"><g id="Layer_2" data-name="Layer 2"><g id="Rewards"><path class="cls-2" d="M112.42,56.21A56.21,56.21,0,1,1,56.21,0a56.22,56.22,0,0,1,56.21,56.21"/><path class="cls-3" d="M80.54,27.23V45.4A24.28,24.28,0,0,1,32,45.4V27.23Z"/><rect class="cls-4" x="29.58" y="23.07" width="52.86" height="5.59"/><polygon class="cls-5" points="60.21 28.66 54.62 28.66 59.75 23.07 65.34 23.07 60.21 28.66"/><polygon class="cls-5" points="65.15 28.66 62.64 28.66 67.77 23.07 70.28 23.07 65.15 28.66"/><polygon class="cls-4" points="63.14 79.85 49.22 79.85 52.08 71.65 60.28 71.65 63.14 79.85"/><polygon class="cls-6" points="61.26 74.44 51.16 74.44 51.83 72.36 60.53 72.36 61.26 74.44"/><rect class="cls-4" x="45.07" y="66.99" width="22.21" height="5.38"/><rect class="cls-3" x="47.67" y="79.64" width="17.01" height="3.85"/><rect class="cls-3" x="41.28" y="83.48" width="29.8" height="10.98"/><path class="cls-3" d="M80.36,40.91a8.44,8.44,0,0,1,1.81-2.76,6.88,6.88,0,0,1,2.7-1.67,8.67,8.67,0,0,1,.88-.21c.47-.1-.33,0,.16,0l.46,0c.25,0,.51,0,.76,0,.49,0-.31-.08.16,0,.2.05.4.08.6.14s.49.15.73.24c-.34-.13.12.06.16.08s.27.14.4.21a7.06,7.06,0,0,1,.64.42c-.29-.21.1.09.13.11a5.77,5.77,0,0,1,.44.42c.07.07.13.15.2.23.31.34-.15-.26.1.13s.32.51.46.79,0-.21,0,.1.1.31.14.46a3.33,3.33,0,0,1,.16,1.08,6.81,6.81,0,0,1-1,3.71,17.16,17.16,0,0,1-5.78,5.52,20.28,20.28,0,0,1-4.11,2,21,21,0,0,1-2.31.67c-.36.09-.72.16-1.09.23s-.64.1-1,.15a1.73,1.73,0,0,0-1.69,1.69c0,.83.75,1.8,1.69,1.69a25,25,0,0,0,9.76-3.19,20.86,20.86,0,0,0,7.42-7c1.91-3.19,2.21-7.26-.2-10.27A8.78,8.78,0,0,0,84.77,33c-3.63.68-6.42,3.65-7.67,7a1.69,1.69,0,0,0,1.18,2.08,1.74,1.74,0,0,0,2.08-1.18Z"/><path class="cls-3" d="M35.5,40a11.06,11.06,0,0,0-6.65-6.72,8.87,8.87,0,0,0-8.66,1.86c-2.82,2.54-3,6.58-1.52,9.88,1.38,3.13,4.2,5.63,7,7.47a24.66,24.66,0,0,0,10.78,3.83,1.69,1.69,0,0,0,1.69-1.69A1.75,1.75,0,0,0,36.45,53l-.29,0-.55-.08-1-.2c-.72-.16-1.44-.35-2.14-.58a18.82,18.82,0,0,1-3.67-1.6,18.59,18.59,0,0,1-6.15-5.26,10.17,10.17,0,0,1-1-1.78c.09.21-.06-.16-.08-.21l-.15-.46c-.06-.19-.11-.37-.15-.56s-.06-.26-.08-.39,0-.25,0-.12a5.6,5.6,0,0,1,.07-1.86c0-.16.08-.31.13-.46s.18-.47,0-.16a7,7,0,0,1,.52-.92c.25-.4-.13.14.05-.08s.17-.19.25-.28a5.51,5.51,0,0,1,.67-.61c-.28.22.12-.08.15-.1l.26-.16.4-.22c.06,0,.62-.28.29-.15.24-.09.48-.17.73-.24l.45-.11c.05,0,.55-.09.16,0a6.47,6.47,0,0,1,.76-.05h.46l.31,0c-.2,0-.2,0,0,0a7.89,7.89,0,0,1,1,.23l.46.16c-.29-.11.28.14.33.16a9,9,0,0,1,.85.5c.13.09.27.18.39.28-.23-.17.25.22.29.26a9.25,9.25,0,0,1,.7.7,3.41,3.41,0,0,1,.54.71q.27.4.51.84c.08.15.15.3.22.45s.09.2,0,0l.12.3a1.73,1.73,0,0,0,2.08,1.18A1.7,1.7,0,0,0,35.5,40Z"/><path class="cls-7" d="M67.42,47.32A11.67,11.67,0,1,1,55.76,35.66,11.67,11.67,0,0,1,67.42,47.32Z"/><path class="cls-8" d="M55.76,57a9.68,9.68,0,1,1,9.68-9.68A9.69,9.69,0,0,1,55.76,57Z"/><path class="cls-7" d="M55.76,57.29a10,10,0,1,1,10-10A10,10,0,0,1,55.76,57.29Zm0-19.37a9.4,9.4,0,1,0,9.4,9.4A9.41,9.41,0,0,0,55.76,37.92Z"/><path class="cls-9" d="M67.42,47.32A11.66,11.66,0,0,1,45,51.76,11.68,11.68,0,0,0,61.07,41a11.53,11.53,0,0,0-.88-4.44A11.65,11.65,0,0,1,67.42,47.32Z"/><polygon class="cls-5" points="65.09 66.99 59.81 72.36 67.29 72.36 67.29 66.99 65.09 66.99"/><rect class="cls-6" x="31.98" y="28.66" width="48.55" height="1.91"/></g></g></g></svg>