<svg xmlns="http://www.w3.org/2000/svg" viewBox="0 0 551.13 404.6"><defs><style>.cls-1{fill:#9b9b9b;}.cls-2{fill:#878787;}.cls-3{fill:#c6c6c6;}.cls-4{fill:#e6e6e6;}.cls-5{fill:#adadad;}.cls-6{fill:#cacaca;}.cls-7{fill:#a5a5a5;}.cls-8{fill:#a31f34;}</style></defs><g id="Layer_2" data-name="Layer 2"><g id="Layer_26" data-name="Layer 26"><polygon class="cls-1" points="321.83 245.63 550.42 256.74 548.27 293.21 333.96 286.06 321.83 245.63"/><polygon class="cls-2" points="336.76 379.58 118.69 348.12 156.04 259.78 537.55 288.92 336.76 379.58"/><path class="cls-3" d="M287.08,71.91c-.92,5.85-13.49,9.73-21.68,8.45s-14.09-7.07-13.17-12.93,6.54-9.82,14.83-9.82C275.64,57.61,288,66.06,287.08,71.91Z"/><polygon class="cls-4" points="141.94 0 457.68 42.9 324.61 361.7 0 307.36 141.94 0"/><polygon class="cls-5" points="2.15 347.4 0 306.65 323.18 361.7 321.75 404.6 2.15 347.4"/><polygon class="cls-6" points="321.75 404.6 551.13 293.92 551.13 257.46 323.18 361.7 321.75 404.6"/><path class="cls-7" d="M457.68,42.9c.4,1.59,7,8.09,12.82,13.51a17.24,17.24,0,0,1,4.18,19L361.25,344.9a17.25,17.25,0,0,1-16.42,10.79l-17.36-.42Z"/><path class="cls-8" d="M292,143.51c-23.55-16.08-76.19-25.7-107.37-19.72-8.85,47.35-17.71,94.7-26.84,143.53Zm-77,12.85c-8.26,4.94-18.18,4.39-21.11-1.18-3.16-6,1.38-15.57,9.77-20.55s17.71-4.38,20.91,1.44C228,142.24,223.82,151.09,215,156.36Zm8.48,6.86c8.25-5.41,17.67-5.28,21.38.29,3.8,5.72,0,15-8.43,20.48-8,5.19-17.9,5.09-21.67-.23S215.11,168.73,223.51,163.22Zm-44.57,55c-4.09-5.43-.55-14.72,7.79-20.43,8.5-5.81,18.06-5.79,21.93.05,3.64,5.49.07,14.46-7.95,20S182.85,223.47,178.94,218.25Z"/><path class="cls-8" d="M290.37,130.05c8,3.89,8.13,3.76,17.17-4.54a9,9,0,0,0,1.07-1.76L293,112.25l1.42-1.38c4,1.43,8.08,2.82,12.07,4.29,9.45,3.46,9.44,3.47,18.4-6C289.3,89,246.42,81.09,195.57,85.54c-1.83,9.85-3.53,18.94-5.4,29,2.23-.28,4.21-.63,6.12-.75C232.22,111.44,263.51,117,290.37,130.05Z"/></g></g></svg>