<svg xmlns="http://www.w3.org/2000/svg" viewBox="0 0 158.09 189.64"><defs><style>.cls-1{fill:#fcfdff;}.cls-2{fill:#afafaf;}.cls-3{fill:#848484;}.cls-4{fill:#6aa2b8;}.cls-5{fill:#d8d8d8;}.cls-6{fill:#00698a;}.cls-7{fill:#878787;}.cls-8{fill:#999;}.cls-12,.cls-13,.cls-9{fill:none;stroke-linecap:round;stroke-miterlimit:10;}.cls-9{stroke:#333d47;}.cls-10{fill:#c9c8c7;}.cls-11{fill:#333d47;}.cls-12{stroke:#545759;}.cls-13{stroke:#848484;stroke-width:0.75px;}.cls-14{fill:#f4f4f4;}</style></defs><title>Asset 13</title><g id="Layer_2" data-name="Layer 2"><g id="Characters"><path class="cls-1" d="M117.61,56.37H38.39V39.61A39.61,39.61,0,0,1,78,0h0a39.61,39.61,0,0,1,39.61,39.61Z"/><rect class="cls-2" x="57.34" y="91.86" width="40.95" height="47.99"/><path class="cls-3" d="M98.29,91.86v5.71s-9.57,16.2-40.95,15.15V91.86Z"/><path class="cls-4" d="M139.9,124.22c-9.05-1.47-27.39-2.89-34.12-6.87a15.65,15.65,0,0,1-7.49-10.78L77.82,132.69,57.35,106.57a15.64,15.64,0,0,1-7.5,10.78c-6.72,4-23.33,4.36-32.38,5.84C8.82,124.6,1.65,167,0,174.84c13.78,16.52,40.06,9.63,62.16,13.44a93.39,93.39,0,0,0,31.76,0c22.12-3.8,50.4,3.09,64.17-13.44C156.42,167,148.55,125.64,139.9,124.22Z"/><polygon class="cls-5" points="57.34 103.88 44.59 119.79 56.69 150.25 69.91 122.6 57.34 103.88"/><polygon class="cls-5" points="98.29 103.88 111.04 119.79 98.95 150.25 85.73 122.6 98.29 103.88"/><path class="cls-6" d="M93.92,188.28a93.39,93.39,0,0,1-31.76,0l9.9-42.95h11.5Z"/><path class="cls-6" d="M77.82,132.69A46.68,46.68,0,0,0,64,134.9s5.38,12.41,13.79,12.41S91.59,134.9,91.59,134.9A46.54,46.54,0,0,0,77.82,132.69Z"/><path class="cls-2" d="M77.82,102.41c20.82,0,34.75-26.92,34.75-58a34.75,34.75,0,0,0-69.5,0C43.07,75.49,57,102.41,77.82,102.41Z"/><path class="cls-7" d="M52.81,43.23a.78.78,0,0,0,1,1.11,32.07,32.07,0,0,1,5.4-1.94c3.61-.86,9.07-.55,11.2-.75s5.21-4.52-1-4.39-9.61.5-11.65,1.49A13.41,13.41,0,0,0,52.81,43.23Z"/><path class="cls-7" d="M104.78,44.85a.78.78,0,0,1-1,1.07,31.26,31.26,0,0,0-5.3-2.19c-3.57-1-9-1-11.15-1.26s-5-4.76,1.22-4.35,9.58,1,11.56,2A13.32,13.32,0,0,1,104.78,44.85Z"/><path class="cls-1" d="M77.8,15.34c14.47,0,23.57,3.48,23.57,3.48a145,145,0,0,0,7.29,20.71V60a2.28,2.28,0,0,0,3.88,1.64h0V46.47C114.27,36.2,105.76,8.1,77.81,8.1S42,34.86,43.07,46.47V61.61h0A2.29,2.29,0,0,0,47,60V39.53a123.68,123.68,0,0,0,7.91-21.24S63.33,15.34,77.8,15.34Z"/><path class="cls-1" d="M68,9.7S64,21,71.17,29.78s26.73,7,26.73,7-10.1-2.56-13.25-7c0,0,8.29,5,17.18,5.88,0,0-.72-15.88-16.27-23.07C77.64,8.92,68,9.7,68,9.7Z"/><path class="cls-8" d="M112.9,48.14c.3-.13,1.82-.13,2.14-.21a6.85,6.85,0,0,1,5.49.77,6.24,6.24,0,0,1,2,2.53,7.19,7.19,0,0,1-.07,6.37c-.85,1.59-2.35,2.85-2.94,4.56a26.15,26.15,0,0,0-.58,3.08c-.84,4-4.95,6.62-9.2,6.58a1.6,1.6,0,0,0-1.63,1.52"/><path class="cls-8" d="M42.34,49.39c-.31-.13-1.82-.13-2.15-.22A6.89,6.89,0,0,0,34.7,50a6.15,6.15,0,0,0-2,2.53,7.16,7.16,0,0,0,.07,6.37c.85,1.59,2.35,2.85,2.94,4.56a26.13,26.13,0,0,1,.57,3.08c.85,4,5,6.62,9.2,6.58,1,0,2.29.63,2.38,1.41"/><path class="cls-9" d="M72.31,83.43a14.46,14.46,0,0,0,6,1"/><ellipse class="cls-10" cx="62.71" cy="52.91" rx="5" ry="3.35"/><circle class="cls-11" cx="62.71" cy="52.5" r="2.57"/><path class="cls-9" d="M56.41,52s6.2-5.88,12.41,0"/><ellipse class="cls-10" cx="91.56" cy="52.88" rx="4.85" ry="3.25"/><circle class="cls-11" cx="91.56" cy="52.48" r="2.49"/><path class="cls-9" d="M98.17,52s-6.63-5.79-12.41,0"/><path class="cls-12" d="M69.93,68.53c.12,1,2.58,1.33,2.58,1.33s2.29-.3,3,.89c0,0,1.81,1.48,3.14.15,0,0,1.92-1.38,2.89-1.15a2.21,2.21,0,0,0,1,0c.78-.17,1.94-.53,2.25-1.2"/><path class="cls-13" d="M66.9,69.47S56.7,74.92,60,80.78"/><path class="cls-13" d="M87.74,70s7.37,5.6,5,11.75"/><path class="cls-14" d="M87.05,77c0,.13-.64.74-.83,1-1.79,2.35-5.48,2.84-6.83,3.13a9.45,9.45,0,0,1-1.91.19c-3.54,0-8.74-1-10.71-4.35a2.11,2.11,0,0,0-1.17-1,74.22,74.22,0,0,0,19.12,1.25C85.36,77.14,86.88,76.54,87.05,77Z"/><path class="cls-9" d="M89.13,76.34S74,79.26,65,75.59"/></g></g></svg>