<svg xmlns="http://www.w3.org/2000/svg" viewBox="0 0 120 120"><defs><style>.cls-1{fill:#40474e;}.cls-2{fill:#a31f34;}.cls-3{fill:#30373f;}.cls-4{fill:#c9c8c7;}</style></defs><g id="Layer_2" data-name="Layer 2"><g id="Layer_2-2" data-name="Layer 2"><circle class="cls-1" cx="60" cy="60" r="60"/><polygon class="cls-2" points="76.19 20.92 43.81 20.92 20.92 43.81 20.92 76.19 43.81 99.08 76.19 99.08 99.08 76.19 99.08 43.81 76.19 20.92"/><polygon class="cls-3" points="46.04 93.71 26.29 73.96 26.29 46.04 46.04 26.29 73.96 26.29 93.71 46.04 93.71 73.96 73.96 93.71 46.04 93.71"/><polygon class="cls-1" points="35.37 83.05 26.29 73.96 26.29 46.04 46.04 26.29 73.96 26.29 84.23 36.56 35.37 83.05"/><path class="cls-4" d="M71.71,76.48c1.1-1.63,1.56-2.38,2.76-4.23,1.62-2.48,3.41-5.3,5.08-8.25,1.1-1.94.66-3,.09-3.59a2.41,2.41,0,0,0-1.72-.7h0a2.44,2.44,0,0,0-1.7.68l-.07.07L70.4,67.05a.48.48,0,0,1-.51.13.47.47,0,0,1-.3-.44l0-24.39a2.45,2.45,0,1,0-4.9,0l0,14.3a.47.47,0,0,1-.46.47.46.46,0,0,1-.46-.47l0-17.18a2.45,2.45,0,1,0-4.9,0V56.61a.46.46,0,1,1-.92,0V43.23a2.46,2.46,0,1,0-4.91,0L53,57.6a.46.46,0,0,1-.46.46.45.45,0,0,1-.46-.46V47.44a2.46,2.46,0,1,0-4.91,0l0,21.43C47.21,71.81,71.1,77.38,71.71,76.48Z"/><path class="cls-4" d="M73.51,69.83a13.17,13.17,0,0,1-26.33,0C47.18,62.56,53.07,58,60.34,58c2.48,0,4.8-.61,6.78.58,1.65,1-1.68,10.33-.6,11.93C67.94,72.57,73.51,67.11,73.51,69.83Z"/></g></g></svg>