<svg xmlns="http://www.w3.org/2000/svg" viewBox="0 0 172.37 172.37"><defs><style>.cls-1{fill:#c9c9c9;}.cls-2{fill:#898a8b;}.cls-3{fill:#30373f;}.cls-4{fill:#fff;}.cls-5{fill:#a21f34;}.cls-6{fill:#e5e5e5;}</style></defs><g id="Layer_2" data-name="Layer 2"><g id="Motivate"><circle class="cls-1" cx="86.19" cy="86.19" r="86.19"/><path class="cls-2" d="M31.59,98.43a27.66,27.66,0,0,1-1.43-9.72c0-1.38,0-6,1.23-6.85,1.94-1.35,4.47,1.57,5,3.13.75,2.06.59,4.33,1,6.48.93,4.81,4.57,8.57,8,12,2.4,2.38,5.38,5,8.71,4.37-1.24-3.56-4.52-5.94-7-8.81A8.13,8.13,0,0,1,45,94.33c-.08-1.77,1.1-3.69,2.87-3.89a4.58,4.58,0,0,1,2.53.62c3.76,1.94,6.18,5.72,9.39,8.49,5.49,4.73,13.49,6.68,17.3,12.84a20.83,20.83,0,0,1,2.42,6.78c1.73,8.48,1.14,17.24.53,25.87l-16.06-.22c.81-4.36,1.6-9,0-13.12-1.57-3.87-5.06-6.62-8.67-8.73s-7.5-3.79-10.72-6.46a43.57,43.57,0,0,1-6.26-7,54,54,0,0,1-4.65-6.62A26.69,26.69,0,0,1,31.59,98.43Z"/><path class="cls-2" d="M140.78,98.43a27.67,27.67,0,0,0,1.44-9.72c-.05-1.38,0-6-1.24-6.85-1.94-1.35-4.46,1.57-5,3.13-.75,2.06-.59,4.33-1,6.48-.93,4.81-4.57,8.57-8,12-2.4,2.38-5.38,5-8.71,4.37,1.24-3.56,4.53-5.94,7-8.81a8.13,8.13,0,0,0,2.25-4.72c.08-1.77-1.1-3.69-2.86-3.89a4.54,4.54,0,0,0-2.53.62c-3.77,1.94-6.18,5.72-9.39,8.49-5.49,4.73-13.5,6.68-17.31,12.84a20.83,20.83,0,0,0-2.42,6.78c-1.73,8.48-1.13,17.24-.53,25.87l16.07-.22c-.82-4.36-1.61-9,0-13.12,1.56-3.87,5.06-6.62,8.66-8.73s7.51-3.79,10.72-6.46a43.64,43.64,0,0,0,6.27-7,55,55,0,0,0,4.64-6.62A25.92,25.92,0,0,0,140.78,98.43Z"/><path class="cls-3" d="M89.69,105.07a3.49,3.49,0,1,1-3.48-3.48A3.48,3.48,0,0,1,89.69,105.07Z"/><path class="cls-4" d="M97.55,94.38V91.6c.32-3.9,0-5.66,2.34-6.84a26.5,26.5,0,1,0-27.67,0c2.61,2,2,2.94,2.34,6.84v2.78Z"/><rect class="cls-3" x="74.57" y="89.9" width="22.99" height="9.4"/><polygon class="cls-3" points="88.95 99.3 83.46 99.3 77.64 99.3 79.76 105.54 83.46 105.54 88.95 105.54 92.65 105.54 94.77 99.3 88.95 99.3"/><path class="cls-5" d="M104.1,64.9V59H99.75a13.74,13.74,0,0,0-1.87-4.49L101,51.44,96.8,47.27l-3.08,3.08a13.68,13.68,0,0,0-4.49-1.86V44.14H83.34v4.35a13.68,13.68,0,0,0-4.49,1.86l-3.08-3.08L71.6,51.44l3.09,3.08A13.74,13.74,0,0,0,72.82,59H68.47V64.9h4.35a13.78,13.78,0,0,0,1.87,4.48L71.6,72.47l4.17,4.16,3.08-3.08a13.68,13.68,0,0,0,4.49,1.86v4.36h5.89V75.41a13.68,13.68,0,0,0,4.49-1.86l3.08,3.08L101,72.47l-3.09-3.09a13.78,13.78,0,0,0,1.87-4.48Z"/><circle class="cls-6" cx="86.05" cy="61.95" r="4.97"/></g></g></svg>