<svg xmlns="http://www.w3.org/2000/svg" viewBox="0 0 466.56 530.36"><defs><style>.cls-1{fill:#aaafb4;}.cls-2{fill:#62686d;}.cls-3{fill:#66a4b7;}.cls-4{fill:#333d47;}.cls-5{fill:#cbced1;}.cls-6{fill:#81898f;}.cls-10,.cls-7,.cls-9{fill:#af0030;}.cls-8{fill:#ce6681;}.cls-9{opacity:0.18;}.cls-10{opacity:0.07;}</style></defs><g id="Layer_2" data-name="Layer 2"><g id="Layer_2-2" data-name="Layer 2"><rect class="cls-1" x="120.73" y="127.42" width="52.59" height="24.94"/><polygon class="cls-2" points="341.77 485.43 383.67 483.43 427.5 132.3 386.12 126.89 341.77 485.43"/><polygon class="cls-1" points="405.01 530.36 446.68 529.3 426.78 122.81 385.11 124.88 405.01 530.36"/><polygon class="cls-2" points="126.36 485.43 84.47 483.43 40.63 132.3 81.47 126.09 126.36 485.43"/><polygon class="cls-1" points="63.13 530.36 21.45 529.3 41.35 122.81 83.03 124.88 63.13 530.36"/><rect class="cls-3" y="143.38" width="466.56" height="85.13"/><polygon class="cls-4" points="16.29 228.84 77.05 228.84 143.71 143.71 82.95 143.71 16.29 228.84"/><polygon class="cls-4" points="358.2 143.71 297.44 143.71 230.78 228.84 291.54 228.84 358.2 143.71"/><polygon class="cls-4" points="250.96 143.71 190.19 143.71 123.53 228.84 184.3 228.84 250.96 143.71"/><polygon class="cls-4" points="465.44 143.71 404.68 143.71 338.02 228.84 398.79 228.84 465.44 143.71"/><polygon class="cls-4" points="445.27 228.84 466.56 228.84 466.56 201.66 445.27 228.84"/><polygon class="cls-4" points="36.47 143.71 0 143.71 0 190.29 36.47 143.71"/><rect class="cls-5" x="16.55" y="301.01" width="431.28" height="63.85"/><polygon class="cls-6" points="445.6 369.6 19.63 369.6 16.63 363.86 447.6 363.86 445.6 369.6"/><circle class="cls-1" cx="147.03" cy="91.28" r="45.67"/><circle class="cls-7" cx="147.22" cy="91.09" r="33.89"/><circle class="cls-8" cx="147.81" cy="91.01" r="21.45"/><circle class="cls-9" cx="146.8" cy="90.27" r="61.34"/><circle class="cls-10" cx="147.91" cy="90.39" r="90.39"/></g></g></svg>