<svg xmlns="http://www.w3.org/2000/svg" viewBox="0 0 173.35 173.35"><defs><style>.cls-1{fill:#fff;}.cls-2{fill:#006b8c;}.cls-3{fill:#30373f;}.cls-4{fill:#046b8c;}</style></defs><g id="Layer_2" data-name="Layer 2"><g id="Info"><circle class="cls-1" cx="86.67" cy="86.67" r="86.67"/><path class="cls-2" d="M68.52,64.51c0,14,7.1,26.54,18.1,34.48,12-7.85,19.84-20.89,19.84-35.67,0-14.06-7.1-26.54-18.1-34.48C76.37,36.68,68.52,49.73,68.52,64.51Z"/><path class="cls-3" d="M63.08,89.64A36.67,36.67,0,0,1,85.69,113,36.73,36.73,0,0,1,29.35,94.34,36.68,36.68,0,0,1,63.08,89.64Z"/><path class="cls-3" d="M110.27,89.64A36.67,36.67,0,0,0,87.66,113,36.73,36.73,0,0,0,144,94.34,36.68,36.68,0,0,0,110.27,89.64Z"/><line class="cls-2" x1="86.49" y1="97.76" x2="86.83" y2="144.51"/><path class="cls-4" d="M82.74,97.76l.34,46.75c0,4.83,7.54,4.84,7.5,0l-.34-46.75c0-4.83-7.53-4.84-7.5,0Z"/></g></g></svg>