<svg xmlns="http://www.w3.org/2000/svg" viewBox="0 0 407.4 477.36"><defs><style>.cls-1{fill:#878787;}.cls-2{fill:#82192a;}.cls-14,.cls-15,.cls-17,.cls-18,.cls-19,.cls-20,.cls-3,.cls-5{fill:none;stroke-miterlimit:10;}.cls-3{stroke:#b23950;stroke-width:2px;}.cls-4{fill:#115d76;}.cls-5{stroke:#fff;stroke-width:1.25px;}.cls-6{fill:#333d47;}.cls-7{fill:#b3b4b4;}.cls-8{fill:#a31f34;}.cls-9{fill:#157493;}.cls-10{fill:#999;}.cls-11{fill:#4d4d4e;}.cls-12{fill:#a5a5a5;}.cls-13{fill:#c9c8c7;}.cls-14,.cls-15,.cls-20{stroke:#333d47;}.cls-14,.cls-15,.cls-17,.cls-18,.cls-19,.cls-20{stroke-linecap:round;}.cls-14{stroke-width:2.12px;}.cls-15{stroke-width:1.96px;}.cls-16{fill:#333;}.cls-17,.cls-18,.cls-19{stroke:#545759;}.cls-17{stroke-width:1.78px;}.cls-18{stroke-width:2.01px;}.cls-19{stroke-width:1.34px;}.cls-20{stroke-width:1.81px;}.cls-21{fill:#fff;}.cls-22{font-size:31.51px;fill:#6b7279;font-family:OpenSans-Extrabold, Open Sans;font-weight:800;}</style></defs><g id="Layer_2" data-name="Layer 2"><g id="Layer_3" data-name="Layer 3"><circle class="cls-1" cx="238.5" cy="255.06" r="26.79"/><polygon class="cls-1" points="223.07 276.96 308.6 339.93 330.83 312.87 253.92 233.16 223.07 276.96"/><path class="cls-2" d="M320,294.52,287.14,331.4s-60.89-45.86-73.08-57.75-4.41-34.08,1-38.64,23.3-20.95,48.81,2.86S320,294.52,320,294.52Z"/><line class="cls-3" x1="280.04" y1="326.82" x2="313.09" y2="288.13"/><path class="cls-1" d="M336.69,322.14A17.51,17.51,0,1,0,324,343.39,17.55,17.55,0,0,0,336.69,322.14Z"/><polyline class="cls-1" points="303.19 332.2 339.95 448.06 362.54 438.25 336.23 320.6"/><path class="cls-2" d="M363.45,440.6a12.35,12.35,0,1,0-9,15A12.37,12.37,0,0,0,363.45,440.6Z"/><polygon class="cls-2" points="350 378.89 321.89 389.47 339.87 447.62 362.91 439.24 350 378.89"/><path class="cls-4" d="M339.26,460.35a49.1,49.1,0,0,0,8.12,10.84s3.81,3,8.43-1.34,46.32-42.51,46.32-42.51-6.55-7.09-12.2-1.76c-11.82,11.15-26.8,5.67-29.46,9.6s3,5.13-1.21,8.95c-9,8.18-15.9,2.54-20,10A6.64,6.64,0,0,0,339.26,460.35Z"/><path class="cls-5" d="M372.22,439a7,7,0,0,1,3.8-7.57"/><path class="cls-5" d="M378.73,436.87a7,7,0,0,1,3.79-7.58"/><path class="cls-6" d="M403.36,431.64l-48.25,45.25a1.74,1.74,0,0,1-2.46-.08l-2.78-3a3.47,3.47,0,0,1,.27-5l50.24-43,3,3A2,2,0,0,1,403.36,431.64Z"/><line class="cls-5" x1="351.09" y1="383.99" x2="323.36" y2="394.43"/><line class="cls-5" x1="352.17" y1="389.61" x2="325.34" y2="399.7"/><circle class="cls-7" cx="213.02" cy="261.28" r="26.79"/><polygon class="cls-7" points="188.62 250.24 149.17 346.06 179.91 362.83 237.43 272.33 188.62 250.24"/><path class="cls-8" d="M195.92,348.76l-42.4-25.37s27.27-68.41,36.66-82.62,32.65-10.73,38.14-6.28,25,18.95,6.35,48.48S195.92,348.76,195.92,348.76Z"/><line class="cls-3" x1="156.69" y1="315.55" x2="200.89" y2="340.76"/><path class="cls-7" d="M165,371.93a17.51,17.51,0,1,0-18-17A17.53,17.53,0,0,0,165,371.93Z"/><polyline class="cls-7" points="162.48 337.04 39.98 347.17 44.64 371.35 166.6 371.82"/><path class="cls-8" d="M42.14,371.73a12.35,12.35,0,1,0-12.67-12A12.37,12.37,0,0,0,42.14,371.73Z"/><polygon class="cls-8" points="105.3 372.06 101.1 342.31 40.43 347.19 43.59 371.5 105.3 372.06"/><path class="cls-9" d="M44.14,339.42A49.07,49.07,0,0,0,32,333.47s-4.76-.94-6.9,5S3.17,397.42,3.17,397.42s9.06,3.33,11.66-4c5.46-15.31,21.29-17.25,21.88-22s-5-3.2-3-8.52c4.3-11.38,13-9.48,13.21-18A6.64,6.64,0,0,0,44.14,339.42Z"/><path class="cls-5" d="M24.51,373.45a7,7,0,0,1,.06,8.47"/><path class="cls-5" d="M19.68,378.29a7,7,0,0,1,.07,8.47"/><path class="cls-6" d="M.12,394.15,22.5,331.91a1.73,1.73,0,0,1,2.23-1.05l3.83,1.37a3.49,3.49,0,0,1,2,4.6L5.42,398l-4-1.29A2,2,0,0,1,.12,394.15Z"/><line class="cls-5" x1="100.09" y1="372.01" x2="95.94" y2="342.66"/><line class="cls-5" x1="94.37" y1="371.84" x2="90.36" y2="343.45"/><path class="cls-1" d="M313.07,190.07l.43-.4c6.64-6.12,4.05-13.78-2.07-20.43l-47-57.1a16.48,16.48,0,0,0-23.22-1l-.43.39a16.48,16.48,0,0,0-1,23.22l53,51.54C299,193,306.42,196.19,313.07,190.07Z"/><path class="cls-10" d="M238.15,97.62a92.1,92.1,0,0,1-.92-9.89c-.11-2.9-.1-5.66,0-8.27l-28.17-1.19c0,8.33.31,9.85-.92,18.15l-5,5.25,7,5.69c7.65,7.67,26,13.28,33.47,3.36l3.71-8.42Z"/><circle class="cls-11" cx="219.37" cy="41.77" r="41.77"/><path class="cls-1" d="M227.61,99.94c5,.73,8.3-1.06,10.39-3.41a86.42,86.42,0,0,1-.77-8.8c0-.46,0-.91,0-1.37-4.94-2.42-13.13-6.13-19.78-7.74l-8.35-.35S215.36,98.18,227.61,99.94Z"/><path class="cls-12" d="M248,51.18l1.12-1.66a3.06,3.06,0,0,1,.91-.85,2.78,2.78,0,0,1,2.95-.1,4.09,4.09,0,0,1,1.37,1.56,6.79,6.79,0,0,1,.7,4.53,29.34,29.34,0,0,0-1,3.59c-.07.74.05,1.51.05,2.26,0,3.48-1.21,6.08-4,5.69a3.3,3.3,0,0,1-2.73-1.59C246.37,63,243.69,51.75,248,51.18Z"/><path class="cls-7" d="M204.23,53.26l-1.56-1.61a3.64,3.64,0,0,0-1.16-.76,3.17,3.17,0,0,0-3.28.48,4.68,4.68,0,0,0-1.2,2,7.58,7.58,0,0,0,.13,5.13c.53,1.31,1.44,2.37,1.81,3.75.22.81.24,1.67.39,2.5.66,3.84,2.53,6.45,5.5,5.48a3.69,3.69,0,0,0,2.69-2.29C208.31,65.93,209,53.05,204.23,53.26Z"/><path class="cls-7" d="M203.8,53.08c-.06-.22-.18-5.54,0-7.53.49-5.37,2.16-10.5,8.81-12l26.73-2.38c4.34-.09,10.88,4.48,12.09,18.16,0,0,1.38,12.7,1,16.68-.41,1.81-.61,8.11-1,10.11a15.33,15.33,0,0,1-3,5.49c-2.1,2.67-3.14,4.3-5.89,6.48s-4.94,4.34-8.56,4.57-11.15-3.28-14.24-4.93a38.36,38.36,0,0,1-8.13-5.24,15.18,15.18,0,0,1-3.88-4.88c-.71-1.9-1.2-5.7-1.91-7.39C205.9,70.2,203.79,64.43,203.8,53.08Z"/><ellipse class="cls-13" cx="224.15" cy="57.41" rx="3.53" ry="2.36" transform="translate(-4.2 20.08) rotate(-5.08)"/><circle class="cls-6" cx="224.13" cy="57.11" r="1.81"/><path class="cls-14" d="M218.78,54.82s4.78-4.07,9.75-.86"/><ellipse class="cls-13" cx="243.03" cy="55.53" rx="3.27" ry="2.19" transform="translate(-3.96 21.75) rotate(-5.08)"/><circle class="cls-6" cx="243.01" cy="55.26" r="1.68"/><path class="cls-15" d="M247.49,52.15s-5-2.93-9,.8"/><path class="cls-16" d="M238.14,41.47c-.3,0-.52-.13-.63.86-.08.69-.2.74.51,1.07,2.5,1.16,5.83-1.76,11.78,3.13,0,0,.35-4.22-2.82-4.63C244.33,41.55,240.66,41.56,238.14,41.47Z"/><path class="cls-16" d="M227.53,42.42c.28-.07.48-.23.77.73.2.67.26.61-.39,1.07-2.25,1.58-6-.63-11,5.23,0,0-1.09-4.09,2-5.06C221.44,43.58,225.06,42.94,227.53,42.42Z"/><path class="cls-17" d="M229.28,67.51c-.24,2.11,1.46,1.91,1.46,1.91s3.63-.56,4.47.31c0,0,2,1,3.28-.18,0,0,1.9-1.29,2.83-.9,0,0,1.75.08,1.18-2.31"/><path class="cls-18" d="M231.61,80.91a18.61,18.61,0,0,0,7.81-.69"/><path class="cls-19" d="M238.65,46.58a26.9,26.9,0,0,0-.37,11"/><path class="cls-20" d="M237.11,75.22s-7.3,2.35-11.26-1.75"/><path class="cls-6" d="M264.78,176.8c0-9.46,4.56-52.45-2.8-63-2.58-3.7-18-13.49-18.18-12.71-.56,3.13-4.64,6.64-12.94,6.64-15.38,0-19.94-3.09-23.41-6.59a3.57,3.57,0,0,0-4.13-.69c-5.21,2.64-15.52,6.32-22.48,9.91a9.67,9.67,0,0,0-4.14,13,103.73,103.73,0,0,1,7.53,19.15c1.86,6.65,4.15,25.1,4.34,42.11s2,40,2.27,45.57c0,0-2.54,7.83-.55,11.32s22.62,10.41,35.6,9.91c11-.42,22.2-.84,34.73-1.87A9.17,9.17,0,0,0,269,238.84a6.43,6.43,0,0,0-.82-2.17C265.53,220.62,264.81,188.69,264.78,176.8Z"/><path class="cls-10" d="M200.64,119.48s11.93,29.37-2.43,45.94c0,0-14.61,7.64-16.71-36Z"/><path class="cls-7" d="M102.43,165l.25.54c3.91,8.3,12.11,8.12,20.41,4.22l69.56-28.12a16.73,16.73,0,0,0,8-22.18l-.26-.54a16.72,16.72,0,0,0-22.18-8l-66,35.66C103.9,150.52,98.53,156.73,102.43,165Z"/><path class="cls-7" d="M173.67,225.08h0c5.12-4.66,4-10.71-.71-15.83l-49.71-58.31a12.62,12.62,0,0,0-17.78-.84h0a12.62,12.62,0,0,0-.84,17.78l48.51,49.18C157.8,222.18,165.64,230.68,173.67,225.08Z"/><path class="cls-1" d="M386.87,149.68h0c-2.42-6.38-8.38-7.49-14.77-5.08L300.64,169a12.44,12.44,0,0,0-7.21,16h0a12.44,12.44,0,0,0,16,7.22l62.65-26.65C378.46,163.18,389.09,159.08,386.87,149.68Z"/><circle class="cls-7" cx="179.1" cy="218.83" r="11.55"/><path class="cls-7" d="M169.61,208.64s11.69-.49,22.42,4.41"/><path class="cls-7" d="M184.4,235.34s-8.89-1.64-15.7-5.79c-1-.64-2.1-2.51-5.37-4.27,0,0-6-6.07-3-10.95,0,0,2.86-4.7,7.87-5.48,0,0,11.25-5.75,15-5.21,1.65.23,7.83,1.62,9.56,3.62,2.07,2.39,6.16,1.91,5.95,3.7s-1.74,2.36-3.33,2.33c-2.58,0-9.74-2.83-10.58-3.72,0,0-3.2,8.24-10.08,9.54"/><path class="cls-7" d="M195.3,220.41,185.15,216a2.8,2.8,0,0,0-3.44,1.45,2.74,2.74,0,0,0,1,3.51c2.35,1.38,6.4,3.3,9.84,5,0,0,3.39,1.46,4.63-1.45C198.31,221.75,195.3,220.41,195.3,220.41Z"/><path class="cls-7" d="M198.06,214.69l-10.56-3.93a2.79,2.79,0,0,0-2.14,5.11c2.47,1.28,6.69,3,10.28,4.5,0,0,3.52,1.29,4.57-1.7C201.2,215.89,198.06,214.69,198.06,214.69Z"/><path class="cls-7" d="M191.76,225.74l-8.71-4.66a2.82,2.82,0,0,0-3.44,1.26,2.6,2.6,0,0,0,.54,3.45c2.07,1.44,5.26,3.42,8.35,5.18,0,0,3.06,1.55,4.57-1.22C194.47,227.17,191.76,225.74,191.76,225.74Z"/><path class="cls-7" d="M187.56,230.56l-6.87-4.34a2.53,2.53,0,0,0-3.14,1,2.4,2.4,0,0,0,.35,3.16,79.53,79.53,0,0,0,6.54,4.79s2.69,1.54,4.15-.92A2.68,2.68,0,0,0,187.56,230.56Z"/><rect class="cls-8" x="156.03" y="198.35" width="12.99" height="26.93" rx="2.14" transform="translate(146.41 -54.68) rotate(34.04)"/><rect class="cls-21" x="149.26" y="209.97" width="26.93" height="3.95" transform="translate(-103.99 228.14) rotate(-55.96)"/><circle class="cls-1" cx="388.52" cy="144.46" r="12.28"/><path class="cls-1" d="M373.72,143.94s8.42-9.17,20.18-13.56"/><path class="cls-1" d="M404.92,152.89s-7.91,5.45-16.15,7.45c-1.28.31-3.47-.31-7.25.84,0,0-9.11,0-10.51-6,0,0-1.39-5.69,1.79-10,0,0,4.14-12.79,7.35-15.19,1.42-1.06,7.11-4.66,9.91-4.46,3.36.23,6.07-3.2,7.26-1.7s.47,3.09-.74,4.26c-2,1.91-9.46,5.19-10.76,5.16,0,0,3.79,8.6-.41,14.76"/><path class="cls-1" d="M401.89,133.46l-10.95,4.31a3,3,0,0,0-1.5,3.68,2.91,2.91,0,0,0,3.37,1.91c2.81-.73,7.29-2.33,11.13-3.67,0,0,3.64-1.45,2.39-4.57C405.17,132.2,401.89,133.46,401.89,133.46Z"/><path class="cls-1" d="M399.67,127.09l-10.9,5a3,3,0,0,0,2.24,5.46c2.81-.9,7.28-2.77,11.11-4.35,0,0,3.62-1.68,2.17-4.72C402.93,125.63,399.67,127.09,399.67,127.09Z"/><path class="cls-1" d="M403.24,140.14l-10.06,3a3,3,0,0,0-1.63,3.53,2.76,2.76,0,0,0,3,2.2c2.65-.48,6.54-1.39,10.18-2.39,0,0,3.47-1.13,2.52-4.35C406.36,139.17,403.24,140.14,403.24,140.14Z"/><path class="cls-1" d="M403.71,146.91l-8.43,1.91a2.69,2.69,0,0,0-1.6,3.13,2.55,2.55,0,0,0,2.65,2.11,83.25,83.25,0,0,0,8.51-1.31s3.19-.87,2.43-3.82C406.57,146.18,403.71,146.91,403.71,146.91Z"/><text class="cls-22" transform="translate(232.03 155.57)">1</text></g></g></svg>