<svg xmlns="http://www.w3.org/2000/svg" viewBox="0 0 331.4 758.62"><defs><style>.cls-1{fill:gray;}.cls-2{fill:#666;}.cls-3,.cls-6{fill:#1a1a1a;}.cls-4,.cls-5{fill:none;stroke-miterlimit:10;}.cls-4{stroke:#1a1a1a;stroke-width:3px;}.cls-5{stroke:#4d4d4d;}.cls-6{fill-rule:evenodd;}</style></defs><title>Asset 15</title><g id="Layer_2" data-name="Layer 2"><g id="Layer_5" data-name="Layer 5"><rect class="cls-1" x="109.6" y="73.38" width="31.21" height="76.56" rx="15.6" transform="translate(0.25 -0.27) rotate(0.13)"/><polygon class="cls-2" points="140.84 119.01 140.75 90.61 109.55 91.19 140.84 119.01"/><rect class="cls-2" x="100.08" y="125.79" width="27.41" height="117.84" rx="13.7" transform="translate(177.31 392.15) rotate(-165.39)"/><path class="cls-2" d="M91,213.3h.45a13.48,13.48,0,0,1,13.48,13.48v89.15a13.7,13.7,0,0,1-13.7,13.7h0a13.7,13.7,0,0,1-13.7-13.7V226.78A13.48,13.48,0,0,1,91,213.3Z" transform="translate(110.94 557.15) rotate(-165.39)"/><rect class="cls-2" x="75.66" y="347.6" width="6.85" height="19.17" rx="3.43" transform="translate(55.33 722.25) rotate(-163.79)"/><rect class="cls-2" x="72.36" y="359.45" width="6.85" height="18.18" rx="3.43" transform="translate(45.69 743.58) rotate(-163.79)"/><circle class="cls-2" cx="77.36" cy="363.1" r="3.43"/><path class="cls-2" d="M79.84,354.56,57.23,348a3.42,3.42,0,0,1-2.33-4.25l5-17.08,6.39-12.59A14,14,0,0,1,82.66,307h0a14,14,0,0,1,9.55,17.37l-8.12,27.91A3.42,3.42,0,0,1,79.84,354.56Z"/><circle class="cls-2" cx="80.8" cy="351.27" r="3.43"/><circle class="cls-2" cx="73.26" cy="349.08" r="3.43"/><circle class="cls-2" cx="65.73" cy="346.89" r="3.43"/><circle class="cls-2" cx="58.19" cy="344.7" r="3.43"/><rect class="cls-2" x="60.58" y="343.22" width="6.85" height="19.17" rx="3.43" transform="translate(27 709.45) rotate(-163.79)"/><rect class="cls-2" x="57.28" y="355.06" width="6.85" height="18.18" rx="3.43" transform="translate(17.36 730.78) rotate(-163.79)"/><circle class="cls-2" cx="62.29" cy="358.72" r="3.43"/><rect class="cls-2" x="53.04" y="341.02" width="6.85" height="19.17" rx="3.43" transform="translate(12.83 703.05) rotate(-163.79)"/><rect class="cls-2" x="50.28" y="352.95" width="6.85" height="14.34" rx="3.43" transform="translate(4.76 720.92) rotate(-163.79)"/><circle class="cls-2" cx="54.75" cy="356.52" r="3.43"/><rect class="cls-2" x="67.78" y="345.36" width="6.85" height="21.6" rx="3.43" transform="translate(40.17 718.04) rotate(-163.79)"/><rect class="cls-2" x="64.14" y="359.59" width="6.85" height="18.18" rx="3.43" transform="translate(29.55 741.55) rotate(-163.79)"/><circle class="cls-2" cx="69.15" cy="363.24" r="3.43"/><rect class="cls-2" x="88.3" y="312" width="7.7" height="31.21" rx="3.85" transform="translate(-106.39 51.2) rotate(-19.98)"/><circle class="cls-2" cx="88.14" cy="316.56" r="3.85"/><circle class="cls-2" cx="125.19" cy="140.96" r="13.71"/><circle class="cls-2" cx="102.39" cy="228.45" r="13.71"/><rect class="cls-2" x="135.09" y="280.28" width="40.11" height="240.58" rx="20.05" transform="translate(-115.16 66.71) rotate(-17.82)"/><rect class="cls-2" x="199.75" y="470.7" width="40.11" height="261.93" rx="20.05" transform="translate(-173.61 96.15) rotate(-17.82)"/><path class="cls-2" d="M233.28,687.26h40.11a0,0,0,0,1,0,0v17.37a20.05,20.05,0,0,1-20.05,20.05h0a20.05,20.05,0,0,1-20.05-20.05V687.26A0,0,0,0,1,233.28,687.26Z" transform="translate(710.6 1300.53) rotate(162.18)"/><polygon class="cls-2" points="244.2 743.07 235.14 714.88 273.32 702.61 331.4 715.03 244.2 743.07"/><circle class="cls-2" cx="185.83" cy="496.05" r="20.04"/><rect class="cls-1" x="104.39" y="285.09" width="40.11" height="240.58" rx="20.05"/><rect class="cls-1" x="104.39" y="485.57" width="40.11" height="261.93" rx="20.05"/><path class="cls-1" d="M104.39,707.38H144.5a0,0,0,0,1,0,0v17.37a20.05,20.05,0,0,1-20.05,20.05h0a20.05,20.05,0,0,1-20.05-20.05V707.38A0,0,0,0,1,104.39,707.38Z" transform="translate(248.89 1452.2) rotate(-180)"/><polygon class="cls-1" points="104.39 758.62 104.39 729.01 144.5 729.01 195.99 758.62 104.39 758.62"/><circle class="cls-1" cx="124.43" cy="505.64" r="20.04"/><path class="cls-1" d="M168.53,183l-6.62,16.51v80.83H88.25V162.23a45.72,45.72,0,0,1,21.14-38.54l15.71-10,20,12.81,18.53,44.73Z"/><path class="cls-1" d="M155,12.87a40.22,40.22,0,0,0-52.83-5.4A40.87,40.87,0,0,0,91.47,18.41c-.28.43-.54.85-.81,1.29-4.62,7.67-6.19,18-4.84,26.9L89.22,69c12.09,21.44,29.11,29.3,53.16,32.65,13.41-14.08,18.09-21,22.53-37.72l.75-20.85C166.07,31.94,162,20.45,155,12.87Z"/><circle class="cls-3" cx="155.57" cy="58.14" r="2.82"/><polygon class="cls-2" points="158.41 75.32 160.27 77.56 166.53 75.32 158.41 75.32"/><line class="cls-4" x1="148.03" y1="47.24" x2="162.26" y2="47.24"/><path class="cls-2" d="M118.35,66.29a8.15,8.15,0,1,1,0-16.3"/><path class="cls-5" d="M156.24,81.72a20.82,20.82,0,0,1-11.68-1.2"/><circle class="cls-1" cx="124.45" cy="305.1" r="20"/><polygon class="cls-1" points="166.53 75.32 160.62 75.32 160.62 60.95 164.91 63.92 166.53 75.32"/><path class="cls-1" d="M161.93,245.8v42.87A41.63,41.63,0,0,1,120.3,330.3h-1.87a36.62,36.62,0,0,1-16.54-3.93,42.24,42.24,0,0,1-15.7-64.07c.4-.53.83-1.05,1.27-1.56a42.39,42.39,0,0,1,14.43-11,36.75,36.75,0,0,1,16.54-3.92Z"/><path class="cls-3" d="M86.19,262.3a42.25,42.25,0,0,0,15.71,64.08,36.67,36.67,0,0,0,16.53,3.92h1.87a41.63,41.63,0,0,0,41.63-41.63V262.3Z"/><path class="cls-3" d="M91.13,204.28h-3V154.87a31.1,31.1,0,0,1,62.2,0v13.89h-3V154.87a28.1,28.1,0,0,0-56.2,0Z"/><rect class="cls-1" x="90.34" y="122" width="27.41" height="117.84" rx="13.7" transform="translate(111.37 389.5) rotate(-152.11)"/><path class="cls-1" d="M61.88,202h.45a13.48,13.48,0,0,1,13.48,13.48v89.15a13.7,13.7,0,0,1-13.7,13.7h0a13.7,13.7,0,0,1-13.7-13.7V215.47A13.48,13.48,0,0,1,61.88,202Z" transform="translate(-4.69 519.16) rotate(-152.11)"/><rect class="cls-1" x="27.22" y="331.22" width="6.85" height="19.17" rx="3.43" transform="translate(-110.44 652.56) rotate(-150.51)"/><rect class="cls-1" x="21.4" y="342.01" width="6.85" height="18.18" rx="3.43" transform="translate(-126.39 668.94) rotate(-150.51)"/><circle class="cls-1" cx="27.61" cy="346.17" r="3.43"/><path class="cls-1" d="M32,338.43l-20.5-11.59a3.41,3.41,0,0,1-1.29-4.67L19,306.69l9.11-10.79a14,14,0,0,1,17.61-3.16h0a14,14,0,0,1,5.3,19.1l-14.31,25.3A3.43,3.43,0,0,1,32,338.43Z"/><circle class="cls-1" cx="33.68" cy="335.45" r="3.43"/><circle class="cls-1" cx="26.84" cy="331.59" r="3.43"/><circle class="cls-1" cx="20.01" cy="327.72" r="3.43"/><circle class="cls-1" cx="13.18" cy="323.86" r="3.43"/><rect class="cls-1" x="13.55" y="323.5" width="6.85" height="19.17" rx="3.43" transform="translate(-132.2 631.37) rotate(-150.51)"/><rect class="cls-1" x="7.73" y="334.28" width="6.85" height="18.18" rx="3.43" transform="translate(-148.14 647.75) rotate(-150.51)"/><circle class="cls-1" cx="13.95" cy="338.44" r="3.43"/><rect class="cls-1" x="6.72" y="319.63" width="6.85" height="19.17" rx="3.43" transform="translate(-143.07 620.78) rotate(-150.51)"/><rect class="cls-1" x="1.84" y="330.67" width="6.85" height="14.34" rx="3.43" transform="translate(-156.44 634.51) rotate(-150.51)"/><circle class="cls-1" cx="7.11" cy="334.58" r="3.43"/><rect class="cls-1" x="19.79" y="327.2" width="6.85" height="21.6" rx="3.43" transform="translate(-122.96 643.65) rotate(-150.51)"/><rect class="cls-1" x="13.37" y="340.26" width="6.85" height="18.18" rx="3.43" transform="translate(-140.54 661.71) rotate(-150.51)"/><circle class="cls-1" cx="19.58" cy="344.42" r="3.43"/><rect class="cls-1" x="46.31" y="299.42" width="7.7" height="31.21" rx="3.85" transform="translate(-36.4 8) rotate(-6.7)"/><circle class="cls-1" cx="48.79" cy="303.35" r="3.85"/><circle class="cls-1" cx="125.19" cy="140.96" r="13.71"/><circle class="cls-1" cx="82.9" cy="220.87" r="13.71"/><path class="cls-6" d="M87.88,262.3H86.19c.4-.53.83-1.05,1.27-1.56A3.06,3.06,0,0,1,87.88,262.3Z"/><path class="cls-6" d="M87.89,262.3a3.09,3.09,0,0,1,6.17,0Z"/><path class="cls-6" d="M94.06,262.3a3.09,3.09,0,0,1,6.17,0Z"/><path class="cls-6" d="M100.23,262.3a3.09,3.09,0,0,1,6.17,0Z"/><path class="cls-6" d="M106.4,262.3a3.09,3.09,0,0,1,6.17,0Z"/><path class="cls-6" d="M112.58,262.3a3.08,3.08,0,1,1,6.16,0Z"/><path class="cls-6" d="M118.75,262.3a3.08,3.08,0,0,1,6.16,0Z"/><path class="cls-6" d="M124.92,262.3a3.08,3.08,0,0,1,6.16,0Z"/><path class="cls-6" d="M131.09,262.3a3.08,3.08,0,0,1,6.16,0Z"/><path class="cls-6" d="M137.26,262.3a3.08,3.08,0,0,1,6.16,0Z"/><path class="cls-6" d="M143.43,262.3a3.08,3.08,0,0,1,6.16,0Z"/><path class="cls-6" d="M149.6,262.3a3.08,3.08,0,0,1,6.16,0Z"/><path class="cls-6" d="M155.77,262.3a3.08,3.08,0,0,1,6.16,0Z"/><polygon class="cls-6" points="161.91 201.34 161.91 207.99 86.43 207.99 86.01 201.34 161.91 201.34"/><path class="cls-6" d="M168.53,183l-6.62,16.51V208H131.75c-.17-1.91-.28-4.05-.28-6.33,0-11.22,5.54-25.95,16.3-34.93,6.76,0,10.25,1.62,15.88,4.5Z"/></g></g></svg>