<svg xmlns="http://www.w3.org/2000/svg" viewBox="0 0 363.89 772.28"><defs><style>.cls-1{fill:#ccc;}.cls-2{fill:#91d5ab;}.cls-3{fill:#fff;}.cls-4{fill:#b2b2b2;}.cls-5{fill:#89c69e;}.cls-6{fill:#0a0a0a;}.cls-7{fill:#1a1a1a;}.cls-12,.cls-13,.cls-14,.cls-15,.cls-8,.cls-9{fill:none;stroke-miterlimit:10;}.cls-8{stroke:#1a1a1a;stroke-width:3px;}.cls-9{stroke:#4d4d4d;}.cls-10{fill:#e4e0ee;}.cls-11{fill:#cecdcd;}.cls-12{stroke:#333;stroke-width:6.94px;}.cls-13{stroke:#74aa89;}.cls-13,.cls-15{stroke-width:2.31px;}.cls-14{stroke:#578067;stroke-linecap:round;stroke-width:6.29px;}.cls-15{stroke:#91d5ab;}</style></defs><title>Asset 20</title><g id="Layer_2" data-name="Layer 2"><g id="Layer_1-2" data-name="Layer 1"><rect class="cls-1" x="159.96" y="291.01" width="40.11" height="240.58" rx="20.05" transform="translate(278.13 849.42) rotate(-168.98)"/><circle class="cls-1" cx="199.19" cy="312.9" r="20.04"/><rect class="cls-2" x="152.8" y="282.7" width="54.5" height="256.9" rx="27.01" transform="translate(81.88 -26.83) rotate(11.02)"/><rect class="cls-1" x="140.76" y="489.64" width="40.11" height="261.93" rx="20.05" transform="translate(321.36 1241.27) rotate(-179.97)"/><circle class="cls-1" cx="160.89" cy="509.67" r="20.04"/><polygon class="cls-3" points="180.82 727.11 180.82 766.39 142.29 746.62 103.78 746.62 141.76 727.11 180.82 727.11"/><polygon class="cls-4" points="180.82 766.39 103.78 746.62 142.29 746.62 180.82 766.39"/><path class="cls-3" d="M140.71,702.42h40.11a0,0,0,0,1,0,0V719.8a20.05,20.05,0,0,1-20.05,20.05h0a20.05,20.05,0,0,1-20.05-20.05V702.42A0,0,0,0,1,140.71,702.42Z" transform="translate(321.54 1442.27) rotate(-180)"/><path class="cls-2" d="M188,740.27l-54.5-13.17.1-218.5a27,27,0,0,1,27-27h.48a27,27,0,0,1,27,27Z"/><path class="cls-5" d="M226.15,316.79l-32.77,168.3-5.29,27.2v18.15A27.06,27.06,0,0,1,179.67,514a26.34,26.34,0,0,1,.07-7.2s0,0,0,0c.06-.43.14-.86.22-1.3l1-5.21,1.57-8.08,36.18-185.84a26.53,26.53,0,0,1,3.68-9.26A26.87,26.87,0,0,1,226.15,316.79Z"/><path class="cls-5" d="M193.38,485.09l-5.29,27.2v18.15L188,740.19l-8.43-2,.1-208V508.59c0-.6,0-1.19.07-1.77,0,0,0,0,0,0a25.88,25.88,0,0,1,1.24-6.51,26.19,26.19,0,0,1,2.9-6.17A27,27,0,0,1,193.38,485.09Z"/><path class="cls-6" d="M282.38,88.33c13.76-13,20.56-33.64,12.84-56.6A42.59,42.59,0,0,0,279,10.38C260.39-2.5,240-2.54,224.06,5.59L191.58,21.27l13.06,61.36L233,101.49l21.13,35.68,41.54-14.12Z"/><rect class="cls-1" x="216.69" y="82.04" width="31.21" height="76.56" rx="15.6" transform="translate(454.2 258.84) rotate(-175.41)"/><polygon class="cls-4" points="216.05 127.91 218.3 99.81 250.52 102.25 216.05 127.91"/><path class="cls-2" d="M279.25,294.93v43.13H172.94l0-72.36L235,250.64a44.16,44.16,0,0,1,35,17.13,43.43,43.43,0,0,1,5.64,9.47A44,44,0,0,1,279.25,294.93Z"/><path class="cls-1" d="M236.42,123l39,17.57a13.72,13.72,0,0,1,9,14.11l-16.54,116-95-4.94,5.33-60.86-4.14-17.21,9.49-42.07a13.68,13.68,0,0,1,11.34-12.27Z"/><path class="cls-1" d="M215.71,19.87a40.2,40.2,0,0,1,53.1-.62,41,41,0,0,1,9.66,11.85c.23.45.46.9.68,1.35,3.91,8.06,4.55,18.53,2.41,27.23l-5.4,22c-14,20.27-31.63,26.57-55.87,27.75-12.1-15.23-16.13-22.55-19-39.59L202.36,49C203,37.87,208,26.79,215.71,19.87Z"/><circle class="cls-7" cx="235.2" cy="67.08" r="2.82"/><circle class="cls-7" cx="210.73" cy="64.88" r="2.82"/><polygon class="cls-4" points="222.87 83.23 218 85.03 214.14 82.44 222.87 83.23"/><line class="cls-8" x1="243.69" y1="56.91" x2="229.82" y2="58.27"/><line class="cls-8" x1="215.53" y1="56.96" x2="203.76" y2="52.87"/><line class="cls-9" x1="215.25" y1="88.96" x2="226.79" y2="90.14"/><path class="cls-6" d="M201.75,31.6l55.89,14.91L269.9,91.46l24.68-23.79L278,27.46S272.64,8.73,246.3,5.18C246.3,5.18,215.27-3.71,201.75,31.6Z"/><path class="cls-1" d="M260.32,79.63a8.15,8.15,0,0,0,1.47-16.24"/><circle class="cls-3" cx="263.06" cy="76.19" r="1.66"/><rect class="cls-1" x="158.86" y="125.74" width="27.41" height="117.84" rx="13.7" transform="translate(128.79 -64.26) rotate(33.09)"/><circle class="cls-1" cx="197.25" cy="146.79" r="13.71"/><rect class="cls-3" x="158.86" y="125.74" width="27.41" height="117.84" rx="13.7" transform="translate(128.79 -64.26) rotate(33.09)"/><polygon class="cls-10" points="64.78 69.06 0 69.06 31.77 156.33 98.91 158.2 64.78 69.06"/><path class="cls-1" d="M158.2,231.57h0a13.71,13.71,0,0,0-1.26-19.34l-59-52a13.48,13.48,0,0,0-19,1.23l-.3.34a13.47,13.47,0,0,0,1.24,19l59.05,52A13.71,13.71,0,0,0,158.2,231.57Z"/><path class="cls-11" d="M51.88,154.48,62.21,141a2.72,2.72,0,0,1,3.82-.18l12,9.21,8.23,8.69c3.93,4.14,4.63,9.94,1.67,13.8h0c-3.4,4.43-10.39,4.77-15.62.76L52.69,158.22A2.72,2.72,0,0,1,51.88,154.48Z"/><rect class="cls-1" x="48.87" y="143.23" width="5.83" height="16.33" rx="2.92" transform="translate(-70.02 47.64) rotate(-30.69)"/><rect class="cls-1" x="44.63" y="134.59" width="5.83" height="15.48" rx="2.92" transform="translate(-43.61 23.13) rotate(-18.94)"/><circle class="cls-1" cx="49.11" cy="146.89" r="2.92"/><circle class="cls-1" cx="54.46" cy="155.91" r="2.92"/><circle class="cls-1" cx="60.99" cy="147.39" r="2.92"/><rect class="cls-1" x="55.31" y="134.77" width="5.83" height="16.33" rx="2.92" transform="translate(-66.49 52.02) rotate(-31.75)"/><rect class="cls-1" x="51.16" y="126.12" width="5.83" height="15.48" rx="2.92" transform="translate(-36.48 21.42) rotate(-16.85)"/><circle class="cls-1" cx="55.47" cy="138.47" r="2.92"/><circle class="cls-1" cx="64.25" cy="143.13" r="2.92"/><path class="cls-1" d="M65.21,145.89h0a2.92,2.92,0,0,1-3.71-1.8l-3.21-8.22a2.92,2.92,0,0,1,1.8-3.72h0A2.92,2.92,0,0,1,63.8,134L67,142.18A2.92,2.92,0,0,1,65.21,145.89Z"/><rect class="cls-1" x="57.43" y="125.69" width="5.83" height="12.22" rx="2.92" transform="translate(-27.38 16.4) rotate(-12.64)"/><circle class="cls-1" cx="61.04" cy="134.91" r="2.92"/><circle class="cls-1" cx="57.73" cy="151.65" r="2.92"/><rect class="cls-1" x="51.88" y="136.9" width="5.83" height="18.39" rx="2.92" transform="translate(-61.78 42.39) rotate(-27.78)"/><rect class="cls-1" x="47.18" y="128.32" width="5.83" height="15.48" rx="2.92" transform="translate(-46.53 27.97) rotate(-21.58)"/><circle class="cls-1" cx="51.87" cy="140.54" r="2.92"/><circle class="cls-1" cx="147.89" cy="222.53" r="13.71"/><path class="cls-3" d="M158.2,231.57h0a13.71,13.71,0,0,0-1.26-19.34L89.17,152.49,71.08,173.08l67.78,59.75A13.71,13.71,0,0,0,158.2,231.57Z"/><path class="cls-7" d="M284.4,154.67l-16.54,116-95-4.94,5.33-60.86-7.87-18,13.22-41.31a13.71,13.71,0,0,1,11.35-12.28L208.09,130l7.91-2-.66,8.23-1.61,18.81,8.91-17.22,17.47-13.21,14.8,6.66,20.52,9.24A13.73,13.73,0,0,1,284.4,154.67Z"/><polygon class="cls-6" points="177.65 190.62 254.09 201.22 183.54 204.23 177.65 190.62"/><polygon class="cls-10" points="215.34 136.27 214.05 157.01 210.96 138.53 215.34 136.27"/><polygon class="cls-10" points="227.99 143.9 227.13 144.55 213.73 155.08 222.64 137.86 227.99 143.9"/><polyline class="cls-12" points="207.28 137.47 211.34 161.74 236.56 140.03"/><polygon class="cls-3" points="248.59 112.41 247.05 130.55 232.32 152.27 227.13 144.55 222.64 137.86 248.59 112.41"/><polygon class="cls-3" points="215.34 136.27 200.94 143.72 217.36 111.51 215.34 136.27"/><rect class="cls-1" x="231.95" y="292.86" width="40.11" height="240.58" rx="20.05" transform="translate(504 826.3) rotate(180)"/><rect class="cls-1" x="231.95" y="493.33" width="40.11" height="261.93" rx="20.05" transform="translate(504 1248.59) rotate(-180)"/><polygon class="cls-3" points="272.1 766.38 222.34 766.38 231.99 736.77 272.1 736.77 272.1 766.38"/><path class="cls-3" d="M252,715.15h0a20.05,20.05,0,0,1,20.05,20.05v17.37a0,0,0,0,1,0,0H231.95a0,0,0,0,1,0,0V735.2A20.05,20.05,0,0,1,252,715.15Z"/><circle class="cls-1" cx="252" cy="513.37" r="20.04"/><circle class="cls-1" cx="252" cy="312.9" r="20.04"/><rect class="cls-2" x="224.75" y="284.55" width="54.5" height="256.9" rx="27.01"/><path class="cls-2" d="M251.76,485.29h.48a27,27,0,0,1,27,27V744a0,0,0,0,1,0,0h-54.5a0,0,0,0,1,0,0V512.3A27,27,0,0,1,251.76,485.29Z"/><polyline class="cls-13" points="213.21 288.73 213.26 336.75 221.31 336.75 221.31 307.45"/><line class="cls-13" x1="239.3" y1="289.28" x2="256.6" y2="312.13"/><line class="cls-13" x1="195.22" y1="287.66" x2="177.92" y2="310.5"/><path class="cls-5" d="M172.94,268.46l102.63,8.78a43.74,43.74,0,0,0-5.64-9.48h-97Z"/><line class="cls-14" x1="172.9" y1="265.7" x2="268.08" y2="265.7"/><circle class="cls-3" cx="213.1" cy="265.7" r="7.77"/><path class="cls-5" d="M133.64,507c0,.51,0,1,0,1.56v5.33A26.51,26.51,0,0,1,133.64,507Z"/><path class="cls-5" d="M133.64,507a26.28,26.28,0,0,1,1.27-6.75l-1,5.22C133.79,506,133.71,506.53,133.64,507Z"/><rect class="cls-1" x="296.76" y="116.1" width="27.41" height="117.84" rx="13.7" transform="translate(8.36 364.11) rotate(-61.45)"/><circle class="cls-1" cx="270.75" cy="153.42" r="13.71"/><rect class="cls-3" x="296.76" y="116.1" width="27.41" height="117.84" rx="13.7" transform="translate(8.36 364.11) rotate(-61.45)"/><path class="cls-1" d="M361.44,188.82h0a13.71,13.71,0,0,0-19.07-3.44l-62,43A13.47,13.47,0,0,0,277,247.17l.25.37A13.48,13.48,0,0,0,296,250.93l62-43A13.71,13.71,0,0,0,361.44,188.82Z"/><path class="cls-11" d="M260.39,243.54l5.26,17.63a2.94,2.94,0,0,0,3.79,1.66l10.43-3a11.7,11.7,0,0,0,8-14.49h0a11.71,11.71,0,0,0-14.18-8.09l-11,2.85A3,3,0,0,0,260.39,243.54Z"/><rect class="cls-1" x="255.52" y="231.35" width="6.32" height="17.68" rx="3.16" transform="translate(597.48 141.11) rotate(120.82)"/><rect class="cls-1" x="245.71" y="227.19" width="6.32" height="16.76" rx="3.16" transform="translate(552.81 77.31) rotate(109.07)"/><circle class="cls-1" cx="253.8" cy="237.28" r="3.16"/><circle class="cls-1" cx="263.55" cy="243.1" r="3.16"/><circle class="cls-1" cx="266.31" cy="254.39" r="3.16"/><rect class="cls-1" x="257.77" y="243.73" width="6.32" height="17.68" rx="3.16" transform="translate(583.86 86.45) rotate(108.71)"/><rect class="cls-1" x="247.19" y="242.02" width="6.32" height="16.76" rx="3.16" transform="translate(516.85 17.27) rotate(93.82)"/><circle class="cls-1" cx="255.55" cy="250.74" r="3.16"/><circle class="cls-1" cx="267.69" cy="260.03" r="3.16"/><rect class="cls-1" x="259.14" y="249.4" width="6.32" height="17.68" rx="3.16" transform="translate(590.15 90.89) rotate(108.41)"/><rect class="cls-1" x="250.69" y="251.43" width="6.32" height="13.23" rx="3.16" transform="translate(365.49 -86.29) rotate(62.5)"/><circle class="cls-1" cx="256.91" cy="256.45" r="3.16"/><circle class="cls-1" cx="264.93" cy="248.74" r="3.16"/><rect class="cls-1" x="255.59" y="235.96" width="6.32" height="19.92" rx="3.16" transform="translate(589.91 112.65) rotate(114.53)"/><rect class="cls-1" x="244.23" y="234.07" width="6.32" height="16.76" rx="3.16" transform="translate(518.76 27.19) rotate(97.16)"/><circle class="cls-1" cx="252.56" cy="243.1" r="3.16"/><circle class="cls-1" cx="350.18" cy="196.64" r="13.71"/><path class="cls-3" d="M361.44,188.82h0a13.71,13.71,0,0,0-19.07-3.44l-70.64,49.06L287.37,257l70.63-49A13.71,13.71,0,0,0,361.44,188.82Z"/><line class="cls-15" x1="94.98" y1="752.99" x2="88.25" y2="746.26"/><line class="cls-15" x1="94.98" y1="764.73" x2="88.25" y2="771.46"/><line class="cls-15" x1="93.37" y1="758.54" x2="84.11" y2="758.54"/></g></g></svg>