<svg xmlns="http://www.w3.org/2000/svg" viewBox="0 0 331.69 758.62"><defs><style>.cls-1{fill:#b2b2b2;}.cls-2{fill:#ccc;}.cls-3{fill:#482476;}.cls-4,.cls-5,.cls-7,.cls-8{fill:none;stroke-miterlimit:10;}.cls-4{stroke:#1a1a1a;stroke-width:3px;}.cls-5{stroke:gray;}.cls-6{fill:#1a1a1a;}.cls-7,.cls-8{stroke:#333;stroke-width:2px;}.cls-8{stroke-dasharray:7.03 7.03;}</style></defs><title>Asset 19</title><g id="Layer_2" data-name="Layer 2"><g id="Layer_5" data-name="Layer 5"><rect class="cls-1" x="100.08" y="126.82" width="27.41" height="117.84" rx="13.7" transform="translate(177.05 394.18) rotate(-165.39)"/><path class="cls-1" d="M91,214.33h.45a13.48,13.48,0,0,1,13.48,13.48V317a13.7,13.7,0,0,1-13.7,13.7h0A13.7,13.7,0,0,1,77.47,317V227.81A13.48,13.48,0,0,1,91,214.33Z" transform="translate(110.68 559.18) rotate(-165.39)"/><rect class="cls-1" x="75.66" y="348.63" width="6.85" height="19.17" rx="3.43" transform="translate(55.04 724.27) rotate(-163.79)"/><rect class="cls-1" x="72.36" y="360.48" width="6.85" height="18.18" rx="3.43" transform="translate(45.4 745.6) rotate(-163.79)"/><circle class="cls-1" cx="77.36" cy="364.13" r="3.43"/><path class="cls-1" d="M79.84,355.59,57.23,349a3.42,3.42,0,0,1-2.33-4.25l5-17.07,6.39-12.6A14,14,0,0,1,82.66,308h0a14,14,0,0,1,9.55,17.37l-8.12,27.91A3.42,3.42,0,0,1,79.84,355.59Z"/><circle class="cls-1" cx="80.8" cy="352.3" r="3.43"/><circle class="cls-1" cx="73.26" cy="350.11" r="3.43"/><circle class="cls-1" cx="65.73" cy="347.92" r="3.43"/><circle class="cls-1" cx="58.19" cy="345.73" r="3.43"/><rect class="cls-1" x="60.58" y="344.25" width="6.85" height="19.17" rx="3.43" transform="translate(26.71 711.47) rotate(-163.79)"/><rect class="cls-1" x="57.28" y="356.09" width="6.85" height="18.18" rx="3.43" transform="translate(17.07 732.8) rotate(-163.79)"/><circle class="cls-1" cx="62.29" cy="359.75" r="3.43"/><rect class="cls-1" x="53.04" y="342.06" width="6.85" height="19.17" rx="3.43" transform="translate(12.55 705.07) rotate(-163.79)"/><rect class="cls-1" x="50.28" y="353.98" width="6.85" height="14.34" rx="3.43" transform="matrix(-0.96, -0.28, 0.28, -0.96, 4.47, 722.94)"/><circle class="cls-1" cx="54.75" cy="357.55" r="3.43"/><rect class="cls-1" x="67.78" y="346.39" width="6.85" height="21.6" rx="3.43" transform="translate(39.88 720.06) rotate(-163.79)"/><rect class="cls-1" x="64.14" y="360.62" width="6.85" height="18.18" rx="3.43" transform="translate(29.26 743.57) rotate(-163.79)"/><circle class="cls-1" cx="69.15" cy="364.27" r="3.43"/><rect class="cls-1" x="88.3" y="313.03" width="7.7" height="31.21" rx="3.85" transform="translate(-106.74 51.26) rotate(-19.98)"/><circle class="cls-1" cx="88.14" cy="317.59" r="3.85"/><circle class="cls-1" cx="125.19" cy="142" r="13.71"/><circle class="cls-1" cx="102.39" cy="229.48" r="13.71"/><rect class="cls-2" x="106.21" y="69.57" width="39.2" height="79.61" rx="19.6"/><polygon class="cls-1" points="145.41 122.13 106.21 88.94 145.41 88.94 145.41 122.13"/><rect class="cls-1" x="135.38" y="280.28" width="40.11" height="240.58" rx="20.05" transform="translate(-115.15 66.8) rotate(-17.82)"/><circle class="cls-2" cx="186.12" cy="496.05" r="20.04"/><rect class="cls-1" x="200.04" y="470.7" width="40.11" height="261.93" rx="20.05" transform="translate(-173.59 96.24) rotate(-17.82)"/><path class="cls-1" d="M233.57,687.26h40.11a0,0,0,0,1,0,0v17.37a20.05,20.05,0,0,1-20.05,20.05h0a20.05,20.05,0,0,1-20.05-20.05V687.26A0,0,0,0,1,233.57,687.26Z" transform="translate(711.16 1300.44) rotate(162.18)"/><polygon class="cls-1" points="244.49 743.07 235.43 714.88 273.61 702.61 331.69 715.03 244.49 743.07"/><path class="cls-2" d="M88.54,262.27h73.68a0,0,0,0,1,0,0v31.19a36.84,36.84,0,0,1-36.84,36.84h0a36.84,36.84,0,0,1-36.84-36.84V262.27A0,0,0,0,1,88.54,262.27Z"/><rect class="cls-2" x="104.68" y="285.09" width="40.11" height="240.58" rx="20.05"/><rect class="cls-2" x="104.68" y="485.57" width="40.11" height="261.93" rx="20.05"/><path class="cls-2" d="M104.68,707.38h40.11a0,0,0,0,1,0,0v17.37a20.05,20.05,0,0,1-20.05,20.05h0a20.05,20.05,0,0,1-20.05-20.05V707.38A0,0,0,0,1,104.68,707.38Z" transform="translate(249.47 1452.2) rotate(-180)"/><polygon class="cls-2" points="104.68 758.62 104.68 729.01 144.79 729.01 196.28 758.62 104.68 758.62"/><circle class="cls-2" cx="124.72" cy="505.64" r="20.04"/><path class="cls-2" d="M125.37,113.69l-15.7,10a45.66,45.66,0,0,0-21.14,38.54v100h73.67V175.16l-16.8-48.66Z"/><path class="cls-2" d="M155.27,12.87a40.22,40.22,0,0,0-52.83-5.4A40.87,40.87,0,0,0,91.76,18.41c-.28.43-.54.85-.81,1.29-4.62,7.67-6.19,18-4.84,26.9L89.51,69c12.09,21.44,29.11,29.3,53.16,32.65,13.41-14.08,18.09-21,22.53-37.72L166,43.07C166.36,31.94,162.3,20.45,155.27,12.87Z"/><circle class="cls-3" cx="155.86" cy="58.14" r="2.82"/><polygon class="cls-1" points="158.7 75.32 160.56 77.56 166.82 75.32 158.7 75.32"/><line class="cls-4" x1="148.32" y1="47.24" x2="162.55" y2="47.24"/><path class="cls-1" d="M118.64,66.29a8.15,8.15,0,0,1,0-16.3"/><path class="cls-5" d="M156.53,81.72a20.82,20.82,0,0,1-11.68-1.2"/><circle class="cls-2" cx="125.37" cy="139.72" r="13.71"/><circle class="cls-2" cx="124.74" cy="305.1" r="20"/><circle class="cls-1" cx="150.11" cy="187.98" r="2.34"/><polygon class="cls-2" points="166.82 75.32 160.91 75.32 160.91 60.95 165.2 63.92 166.82 75.32"/><rect class="cls-2" x="90.34" y="123.04" width="27.41" height="117.84" rx="13.7" transform="translate(110.89 391.44) rotate(-152.11)"/><path class="cls-2" d="M61.88,203h.45a13.48,13.48,0,0,1,13.48,13.48v89.15a13.7,13.7,0,0,1-13.7,13.7h0a13.7,13.7,0,0,1-13.7-13.7V216.51A13.48,13.48,0,0,1,61.88,203Z" transform="translate(-5.17 521.1) rotate(-152.11)"/><rect class="cls-2" x="27.22" y="332.26" width="6.85" height="19.17" rx="3.43" transform="translate(-110.95 654.49) rotate(-150.51)"/><rect class="cls-2" x="21.4" y="343.04" width="6.85" height="18.18" rx="3.43" transform="translate(-126.89 670.87) rotate(-150.51)"/><circle class="cls-2" cx="27.61" cy="347.2" r="3.43"/><path class="cls-2" d="M32,339.46l-20.5-11.59a3.41,3.41,0,0,1-1.29-4.67L19,307.72l9.11-10.79a14,14,0,0,1,17.61-3.16h0a14,14,0,0,1,5.3,19.1l-14.31,25.3A3.41,3.41,0,0,1,32,339.46Z"/><circle class="cls-2" cx="33.68" cy="336.48" r="3.43"/><circle class="cls-2" cx="26.84" cy="332.62" r="3.43"/><circle class="cls-2" cx="20.01" cy="328.75" r="3.43"/><circle class="cls-2" cx="13.18" cy="324.89" r="3.43"/><rect class="cls-2" x="13.55" y="324.53" width="6.85" height="19.17" rx="3.43" transform="translate(-132.7 633.3) rotate(-150.51)"/><rect class="cls-2" x="7.73" y="335.31" width="6.85" height="18.18" rx="3.43" transform="translate(-148.65 649.68) rotate(-150.51)"/><circle class="cls-2" cx="13.95" cy="339.47" r="3.43"/><rect class="cls-2" x="6.72" y="320.66" width="6.85" height="19.17" rx="3.43" transform="translate(-143.58 622.71) rotate(-150.51)"/><rect class="cls-2" x="1.84" y="331.7" width="6.85" height="14.34" rx="3.43" transform="translate(-156.94 636.44) rotate(-150.51)"/><circle class="cls-2" cx="7.11" cy="335.61" r="3.43"/><rect class="cls-2" x="19.79" y="328.23" width="6.85" height="21.6" rx="3.43" transform="translate(-123.46 645.58) rotate(-150.51)"/><rect class="cls-2" x="13.37" y="341.29" width="6.85" height="18.18" rx="3.43" transform="translate(-141.05 663.64) rotate(-150.51)"/><circle class="cls-2" cx="19.58" cy="345.45" r="3.43"/><rect class="cls-2" x="46.31" y="300.45" width="7.7" height="31.21" rx="3.85" transform="translate(-36.52 8.01) rotate(-6.7)"/><circle class="cls-2" cx="48.79" cy="304.39" r="3.85"/><circle class="cls-2" cx="125.19" cy="142" r="13.71"/><circle class="cls-2" cx="82.9" cy="221.9" r="13.71"/><path class="cls-6" d="M88.54,285h73.68a0,0,0,0,1,0,0v8.46a36.84,36.84,0,0,1-36.84,36.84h0a36.84,36.84,0,0,1-36.84-36.84V285a0,0,0,0,1,0,0Z"/><line class="cls-7" x1="90.23" y1="290.54" x2="93.73" y2="290.54"/><line class="cls-8" x1="100.76" y1="290.54" x2="153.52" y2="290.54"/><line class="cls-7" x1="157.03" y1="290.54" x2="160.53" y2="290.54"/></g></g></svg>