<svg xmlns="http://www.w3.org/2000/svg" viewBox="0 0 322.41 758.62"><defs><style>.cls-1{fill:gray;}.cls-2{fill:#666;}.cls-3,.cls-6{fill:#1a1a1a;}.cls-4,.cls-5{fill:none;stroke-miterlimit:10;}.cls-4{stroke:#1a1a1a;stroke-width:3px;}.cls-5{stroke:#4d4d4d;}.cls-6{fill-rule:evenodd;}</style></defs><title>Asset 16</title><g id="Layer_2" data-name="Layer 2"><g id="Layer_5" data-name="Layer 5"><rect class="cls-1" x="146.94" y="73.38" width="31.21" height="76.56" rx="15.6" transform="translate(0.25 -0.36) rotate(0.13)"/><polygon class="cls-2" points="178.18 119.01 178.09 90.61 146.89 91.19 178.18 119.01"/><rect class="cls-2" x="206.48" y="121.99" width="27.41" height="117.84" rx="13.7" transform="translate(499.47 237.59) rotate(152.07)"/><path class="cls-2" d="M262,201.95h.45a13.48,13.48,0,0,1,13.48,13.48v89.15a13.7,13.7,0,0,1-13.7,13.7h0a13.7,13.7,0,0,1-13.7-13.7V215.43A13.48,13.48,0,0,1,262,201.95Z" transform="translate(615.67 367.11) rotate(152.07)"/><rect class="cls-2" x="307.8" y="321.86" width="6.85" height="19.17" rx="3.43" transform="translate(737.2 490.44) rotate(153.67)"/><rect class="cls-2" x="313.05" y="332.95" width="6.85" height="18.18" rx="3.43" transform="translate(751.84 508.19) rotate(153.67)"/><circle class="cls-2" cx="313.96" cy="336.97" r="3.43"/><path class="cls-2" d="M310,329l-21.11,10.45a3.43,3.43,0,0,1-4.59-1.56L276.43,322l-3.81-13.6A14,14,0,0,1,279.9,292h0a14,14,0,0,1,18.78,6.35l12.89,26.05A3.43,3.43,0,0,1,310,329Z"/><circle class="cls-2" cx="308.5" cy="325.93" r="3.43"/><circle class="cls-2" cx="301.46" cy="329.41" r="3.43"/><circle class="cls-2" cx="294.43" cy="332.89" r="3.43"/><circle class="cls-2" cx="287.39" cy="336.37" r="3.43"/><rect class="cls-2" x="293.73" y="328.83" width="6.85" height="19.17" rx="3.43" transform="translate(713.6 509.88) rotate(153.67)"/><rect class="cls-2" x="298.98" y="339.92" width="6.85" height="18.18" rx="3.43" transform="translate(728.24 527.64) rotate(153.67)"/><circle class="cls-2" cx="299.89" cy="343.93" r="3.43"/><rect class="cls-2" x="286.7" y="332.31" width="6.85" height="19.17" rx="3.43" transform="translate(701.81 519.6) rotate(153.67)"/><rect class="cls-2" x="291.09" y="343.6" width="6.85" height="14.34" rx="3.43" transform="translate(714.07 534.49) rotate(153.67)"/><circle class="cls-2" cx="292.85" cy="347.41" r="3.43"/><rect class="cls-2" x="301.31" y="325.22" width="6.85" height="21.6" rx="3.43" transform="translate(726.9 501.98) rotate(153.67)"/><rect class="cls-2" x="307.09" y="338.61" width="6.85" height="18.18" rx="3.43" transform="translate(743.05 521.56) rotate(153.67)"/><circle class="cls-2" cx="308" cy="342.63" r="3.43"/><rect class="cls-2" x="297.02" y="285.21" width="7.7" height="31.21" rx="3.85" transform="translate(-104.85 428.93) rotate(-62.52)"/><circle class="cls-2" cx="290.44" cy="295.4" r="3.85"/><circle class="cls-2" cx="199.01" cy="140.97" r="13.71"/><circle class="cls-2" cx="241.36" cy="220.84" r="13.71"/><path class="cls-1" d="M106.39,242.88H212.7a0,0,0,0,1,0,0V286a44.28,44.28,0,0,1-44.28,44.28h-62a0,0,0,0,1,0,0V242.88A0,0,0,0,1,106.39,242.88Z" transform="translate(319.1 573.18) rotate(-180)"/><rect class="cls-1" x="172.63" y="285.09" width="40.11" height="240.58" rx="20.05"/><rect class="cls-1" x="172.63" y="485.57" width="40.11" height="261.93" rx="20.05"/><circle class="cls-1" cx="192.67" cy="505.6" r="20.04"/><circle class="cls-1" cx="192.67" cy="305.13" r="20.04"/><rect class="cls-1" x="106.36" y="285.09" width="40.11" height="240.58" rx="20.05"/><rect class="cls-1" x="106.36" y="485.57" width="40.11" height="261.93" rx="20.05"/><polygon class="cls-1" points="106.32 758.62 156.08 758.62 146.43 729.01 106.32 729.01 106.32 758.62"/><path class="cls-1" d="M106.36,707.38h40.11a0,0,0,0,1,0,0v17.37a20.05,20.05,0,0,1-20.05,20.05h0a20.05,20.05,0,0,1-20.05-20.05V707.38A0,0,0,0,1,106.36,707.38Z" transform="translate(252.83 1452.2) rotate(-180)"/><circle class="cls-1" cx="126.42" cy="505.6" r="20.04"/><circle class="cls-1" cx="126.42" cy="305.13" r="20.04"/><polygon class="cls-1" points="172.63 758.62 172.63 729.01 212.74 729.04 248.17 758.62 172.63 758.62"/><path class="cls-1" d="M172.63,707.38h40.11a0,0,0,0,1,0,0v17.37a20.05,20.05,0,0,1-20.05,20.05h0a20.05,20.05,0,0,1-20.05-20.05V707.38A0,0,0,0,1,172.63,707.38Z" transform="translate(385.37 1452.2) rotate(-180)"/><path class="cls-1" d="M218.36,183.69l-5.66,16.77v61.8H117.52l-6-121.32a13.71,13.71,0,0,1,10.2-13.25l40.43-14,40.4,14a13.53,13.53,0,0,1,5.58,3,13.67,13.67,0,0,1,4.62,10.25l3.65,27.61.28,2.15Z"/><path class="cls-1" d="M192,12.87a40.24,40.24,0,0,0-52.84-5.4,41,41,0,0,0-10.68,10.94c-.27.43-.54.85-.8,1.29-4.62,7.67-6.2,18-4.85,26.9L126.23,69c12.09,21.44,29.12,29.3,53.16,32.65,13.42-14.08,18.09-21,22.53-37.72l.76-20.85C203.08,31.94,199,20.45,192,12.87Z"/><circle class="cls-3" cx="168.34" cy="58.14" r="2.82"/><circle class="cls-3" cx="192.91" cy="58.14" r="2.82"/><polygon class="cls-2" points="179.17 75.32 183.86 77.56 187.93 75.32 179.17 75.32"/><line class="cls-4" x1="160.8" y1="47.24" x2="175.03" y2="47.24"/><line class="cls-4" x1="186.84" y1="44.86" x2="200.93" y2="46.81"/><path class="cls-2" d="M143.28,66.29a8.15,8.15,0,0,1,0-16.3"/><path class="cls-5" d="M186.24,81.72a27.73,27.73,0,0,1-14.13-2.15"/><circle class="cls-1" cx="183.55" cy="275.44" r="1.95"/><rect class="cls-1" x="90.34" y="122" width="27.41" height="117.84" rx="13.7" transform="translate(111.37 389.5) rotate(-152.11)"/><path class="cls-1" d="M61.88,202h.45a13.48,13.48,0,0,1,13.48,13.48v89.15a13.7,13.7,0,0,1-13.7,13.7h0a13.7,13.7,0,0,1-13.7-13.7V215.47A13.48,13.48,0,0,1,61.88,202Z" transform="translate(-4.69 519.16) rotate(-152.11)"/><rect class="cls-1" x="27.22" y="331.22" width="6.85" height="19.17" rx="3.43" transform="translate(-110.44 652.56) rotate(-150.51)"/><rect class="cls-1" x="21.4" y="342.01" width="6.85" height="18.18" rx="3.43" transform="translate(-126.39 668.94) rotate(-150.51)"/><circle class="cls-1" cx="27.61" cy="346.17" r="3.43"/><path class="cls-1" d="M32,338.43l-20.5-11.59a3.41,3.41,0,0,1-1.29-4.67L19,306.69l9.11-10.79a14,14,0,0,1,17.61-3.16h0a14,14,0,0,1,5.3,19.1l-14.31,25.3A3.43,3.43,0,0,1,32,338.43Z"/><circle class="cls-1" cx="33.68" cy="335.45" r="3.43"/><circle class="cls-1" cx="26.84" cy="331.59" r="3.43"/><circle class="cls-1" cx="20.01" cy="327.72" r="3.43"/><circle class="cls-1" cx="13.18" cy="323.86" r="3.43"/><rect class="cls-1" x="13.55" y="323.5" width="6.85" height="19.17" rx="3.43" transform="translate(-132.2 631.37) rotate(-150.51)"/><rect class="cls-1" x="7.73" y="334.28" width="6.85" height="18.18" rx="3.43" transform="translate(-148.14 647.75) rotate(-150.51)"/><circle class="cls-1" cx="13.95" cy="338.44" r="3.43"/><rect class="cls-1" x="6.72" y="319.63" width="6.85" height="19.17" rx="3.43" transform="translate(-143.07 620.78) rotate(-150.51)"/><rect class="cls-1" x="1.84" y="330.67" width="6.85" height="14.34" rx="3.43" transform="translate(-156.44 634.51) rotate(-150.51)"/><circle class="cls-1" cx="7.11" cy="334.58" r="3.43"/><rect class="cls-1" x="19.79" y="327.2" width="6.85" height="21.6" rx="3.43" transform="translate(-122.96 643.65) rotate(-150.51)"/><rect class="cls-1" x="13.37" y="340.26" width="6.85" height="18.18" rx="3.43" transform="translate(-140.54 661.71) rotate(-150.51)"/><circle class="cls-1" cx="19.58" cy="344.42" r="3.43"/><rect class="cls-1" x="46.31" y="299.42" width="7.7" height="31.21" rx="3.85" transform="translate(-36.4 8) rotate(-6.7)"/><circle class="cls-1" cx="48.79" cy="303.35" r="3.85"/><circle class="cls-1" cx="125.19" cy="140.96" r="13.71"/><circle class="cls-1" cx="82.9" cy="220.87" r="13.71"/><path class="cls-3" d="M114,262.3a44.08,44.08,0,0,0-7.64,24.86V320.3l39.82,10h26.26l40.23-10v-58Z"/><path class="cls-6" d="M114,262.3a3.08,3.08,0,0,1,6.16,0Z"/><path class="cls-6" d="M120.16,262.3a3.08,3.08,0,0,1,6.16,0Z"/><path class="cls-6" d="M126.33,262.3a3.08,3.08,0,0,1,6.16,0Z"/><path class="cls-6" d="M132.5,262.3a3.08,3.08,0,0,1,6.16,0Z"/><path class="cls-6" d="M138.67,262.3a3.08,3.08,0,0,1,6.16,0Z"/><path class="cls-6" d="M144.84,262.3a3.08,3.08,0,0,1,6.16,0Z"/><path class="cls-6" d="M151,262.3a3.08,3.08,0,0,1,6.16,0Z"/><path class="cls-6" d="M157.18,262.3a3.08,3.08,0,0,1,6.16,0Z"/><path class="cls-6" d="M163.35,262.3a3.08,3.08,0,0,1,6.16,0Z"/><path class="cls-6" d="M169.52,262.3a3.08,3.08,0,0,1,6.16,0Z"/><path class="cls-6" d="M175.69,262.3a3.08,3.08,0,0,1,6.16,0Z"/><path class="cls-6" d="M181.86,262.3a3.08,3.08,0,0,1,6.16,0Z"/><path class="cls-6" d="M188,262.3a3.08,3.08,0,0,1,6.16,0Z"/><path class="cls-6" d="M194.2,262.3a3.09,3.09,0,0,1,6.17,0Z"/><path class="cls-6" d="M200.37,262.3a3.09,3.09,0,0,1,6.17,0Z"/><path class="cls-6" d="M206.54,262.3a3.09,3.09,0,0,1,6.17,0Z"/><polygon class="cls-6" points="212.7 201.34 212.7 207.99 114.96 207.99 114.54 201.34 212.7 201.34"/><path class="cls-6" d="M172,201.34a40.22,40.22,0,0,0-1.55-6.32,41.25,41.25,0,0,0-39.17-28.29h0c-12.94,10.8-14.16,29.94-13.13,41.26h54.39a41.54,41.54,0,0,0-.33-5.27Q172.13,202,172,201.34Z"/><path class="cls-6" d="M218.36,183.69l-5.66,16.77V208H187.19a41.54,41.54,0,0,1,.33-5.27q.09-.71.21-1.38a40.22,40.22,0,0,1,1.55-6.32,41.28,41.28,0,0,1,27.07-26.48Z"/><rect class="cls-3" x="157.37" y="195.02" width="34.55" height="7.7"/><rect class="cls-3" x="130.63" y="123.66" width="3.71" height="47.25"/><path class="cls-6" d="M216.63,170.69l-3.46.43-5.09-40.44a13.67,13.67,0,0,1,4.62,10.25l3.65,27.61Z"/></g></g></svg>