<svg xmlns="http://www.w3.org/2000/svg" viewBox="0 0 272.7 769.16"><defs><style>.cls-1{fill:#ccc;}.cls-2{fill:#1a1a1a;}.cls-3{fill:#b2b2b2;}.cls-4{fill:#482476;}.cls-10,.cls-12,.cls-15,.cls-19,.cls-20,.cls-5,.cls-6{fill:none;}.cls-19,.cls-5{stroke:gray;}.cls-12,.cls-15,.cls-19,.cls-20,.cls-5,.cls-6{stroke-miterlimit:10;}.cls-20,.cls-6{stroke:#1a1a1a;}.cls-6{stroke-width:3px;}.cls-7{fill:#cecdcd;}.cls-8{fill:#4e2a84;}.cls-9{fill:#e4e0ee;}.cls-11{fill:#74aa89;}.cls-12{stroke:#401f68;}.cls-12,.cls-20{stroke-width:2px;}.cls-13{fill:#fff;}.cls-14{fill:#5b3b8c;}.cls-15{stroke:#482476;stroke-width:2.31px;}.cls-16{fill:#0a0a0a;}.cls-17{fill:#333;}.cls-18{fill:#91d5ab;}.cls-19{opacity:0.26;}</style></defs><title>Asset 23</title><g id="Layer_2" data-name="Layer 2"><g id="Layer_1-2" data-name="Layer 1"><path class="cls-1" d="M163.6,138.23h0l-.12,0c-.26-.06-.51-.13-.77-.17l-61.19-13.79L40.32,138c-.26,0-.51.11-.77.17l-.12,0h0a13.68,13.68,0,0,0,2.71,26.92s0,0,0,0V272.81h118.7V165.19s0,0,0,0a13.68,13.68,0,0,0,2.72-26.92Z"/><rect class="cls-1" x="42.17" y="272.81" width="118.69" height="68.04"/><circle class="cls-1" cx="140.78" cy="315.68" r="20.04"/><rect class="cls-1" x="49.36" y="295.64" width="40.11" height="240.58" rx="20.05"/><rect class="cls-1" x="49.36" y="496.11" width="40.11" height="261.93" rx="20.05"/><circle class="cls-1" cx="69.4" cy="516.15" r="20.04"/><circle class="cls-1" cx="69.4" cy="315.68" r="20.04"/><path class="cls-1" d="M49.36,717.93H89.47a0,0,0,0,1,0,0V735.3a20.05,20.05,0,0,1-20.05,20.05h0A20.05,20.05,0,0,1,49.36,735.3V717.93A0,0,0,0,1,49.36,717.93Z" transform="translate(138.83 1473.29) rotate(-180)"/><polygon class="cls-2" points="89.47 769.16 39.71 769.16 49.36 739.55 89.47 739.55 89.47 769.16"/><rect class="cls-1" x="82.41" y="79.77" width="39.2" height="79.61" rx="19.6"/><polygon class="cls-3" points="121.61 132.32 82.41 99.13 121.61 99.13 121.61 132.32"/><path class="cls-1" d="M127,20.7a35.69,35.69,0,0,0-46.83-3.05A35.38,35.38,0,0,0,66.29,45.76v39q11.19,18.35,35.39,27.68c16.17-6.48,28.28-16,36-28.62v-38A35.66,35.66,0,0,0,127,20.7Z"/><circle class="cls-1" cx="66.22" cy="66.61" r="7.4"/><circle class="cls-1" cx="137.05" cy="66.61" r="7.4"/><circle class="cls-4" cx="88.52" cy="68.68" r="2.82"/><circle class="cls-4" cx="115.49" cy="68.68" r="2.82"/><path class="cls-2" d="M136.89,59.08v.14l0-.09Z"/><path class="cls-5" d="M97.13,92.54a27.73,27.73,0,0,0,14.13-2.15"/><polygon class="cls-3" points="99.16 85.96 102.9 88.79 107.11 85.96 99.16 85.96"/><line class="cls-6" x1="81.58" y1="57.78" x2="95.8" y2="57.78"/><line class="cls-6" x1="108.61" y1="55.4" x2="122.7" y2="57.35"/><circle class="cls-1" cx="42.86" cy="151.49" r="13.71"/><circle class="cls-3" cx="101.51" cy="285.99" r="1.95"/><circle class="cls-3" cx="140.8" cy="200.81" r="2.34"/><circle class="cls-3" cx="62.22" cy="200.81" r="2.34"/><rect class="cls-1" x="28.13" y="137.77" width="27.41" height="134.63" rx="13.7" transform="translate(3.9 -0.76) rotate(1.09)"/><path class="cls-1" d="M39.82,245h0a13.7,13.7,0,0,1,13.7,13.7V364.4a13.46,13.46,0,0,1-13.46,13.46h-.48A13.46,13.46,0,0,1,26.11,364.4V258.66A13.7,13.7,0,0,1,39.82,245Z" transform="translate(5.92 -0.7) rotate(1.09)"/><circle class="cls-1" cx="42.86" cy="151.49" r="13.71"/><circle class="cls-1" cx="40.82" cy="258.68" r="13.71"/><rect class="cls-1" x="26.91" y="394.22" width="6.85" height="19.17" rx="3.43" transform="translate(-143.28 37.97) rotate(-21.09)"/><rect class="cls-1" x="33.37" y="396.72" width="6.85" height="18.18" rx="3.43" transform="translate(-243.09 701.95) rotate(-131.44)"/><circle class="cls-1" cx="32.55" cy="409.55" r="3.43"/><circle class="cls-1" cx="28.12" cy="398.06" r="3.43"/><path class="cls-7" d="M33.51,352.75h0a8.26,8.26,0,0,0-8.36,8.16l-.46,37.14a3.4,3.4,0,0,0,3.36,3.44h0a3.4,3.4,0,0,0,3.27-2.31L43,371.64,41.61,360A8.26,8.26,0,0,0,33.51,352.75Z"/><rect class="cls-1" x="36.81" y="365.68" width="7.7" height="31.21" rx="3.85" transform="translate(-60.26 11.36) rotate(-9.17)"/><circle class="cls-1" cx="38.79" cy="369.68" r="3.85"/><rect class="cls-1" x="171.58" y="131.55" width="27.41" height="134.63" rx="13.7" transform="translate(442.09 287.9) rotate(152.1)"/><circle class="cls-1" cx="160.21" cy="151.49" r="13.71"/><path class="cls-1" d="M177.51,221.23H178a13.46,13.46,0,0,1,13.46,13.46V340.43a13.7,13.7,0,0,1-13.7,13.7h0a13.7,13.7,0,0,1-13.7-13.7V234.69a13.46,13.46,0,0,1,13.46-13.46Z" transform="translate(139.51 623.68) rotate(-141.8)"/><circle class="cls-1" cx="210.37" cy="246.23" r="13.71"/><rect class="cls-8" x="171.58" y="131.55" width="27.41" height="134.63" rx="13.7" transform="translate(442.09 287.9) rotate(152.1)"/><path class="cls-9" d="M173.88,151.48a13.7,13.7,0,0,1-13,13.67l0,0V272.81H42.16V165.18l0,0a13.68,13.68,0,0,1-2.71-26.92h0l.12,0,.77-.17,42.34-9.54,9.19-2.07L95,130.85l1.37,1.87,5.9,8.38h0l5.88-8.42,1.11-1.83,2.95-4.21,9.26,2.09L162.7,138l.77.17.12,0h0A13.7,13.7,0,0,1,173.88,151.48Z"/><path class="cls-2" d="M146.9,29.87l-6.16,9-3.22,22.47-6.39-17.29-11.72,1a57.67,57.67,0,0,1-28.13-4.68l-18.12-8,.49,10.9L65.78,61.37,62.63,19.06l9.79-6.59L76.29,15c2.13-2,8.7-8.11,11.25-9.59A40.51,40.51,0,0,1,142.77,20a38.08,38.08,0,0,1,2.75,5.67C146.05,27.05,146.9,29.87,146.9,29.87Z"/><line class="cls-10" x1="116" y1="340.84" x2="88.68" y2="340.84"/><polygon class="cls-11" points="102.44 141.2 90.74 146.37 102.44 165.61 114.13 146.37 102.44 141.2"/><polygon class="cls-11" points="102.31 145.94 85.96 275.14 102.31 292.61 118.67 275.14 102.31 145.94"/><rect class="cls-8" x="28.13" y="137.77" width="27.41" height="134.63" rx="13.7" transform="translate(3.9 -0.76) rotate(1.09)"/><path class="cls-8" d="M41.08,245h0a13.7,13.7,0,0,0-14,13.44l-2,106.24h27.4l2-105.72A13.69,13.69,0,0,0,41.08,245Z"/><polygon class="cls-4" points="42.16 181.13 42.16 364.65 30.66 364.65 42.16 181.13"/><rect class="cls-8" x="171.58" y="131.55" width="27.41" height="134.63" rx="13.7" transform="translate(442.09 287.9) rotate(152.1)"/><path class="cls-8" d="M221.14,254.7l-62.93,80-21.54-17,62.93-80a13.7,13.7,0,0,1,21.54,16.95Z"/><rect class="cls-8" x="42.17" y="287.79" width="54.5" height="256.43" rx="27.01"/><path class="cls-8" d="M69.18,488.07h.48a27,27,0,0,1,27,27V746.73a0,0,0,0,1,0,0H42.17a0,0,0,0,1,0,0V515.08A27,27,0,0,1,69.18,488.07Z"/><rect class="cls-4" x="42.25" y="272.81" width="118.69" height="68.04"/><polyline class="cls-12" points="96.67 320.78 96.72 339.7 104.76 339.7 104.76 309.63"/><rect class="cls-1" x="129.59" y="294.36" width="40.11" height="240.58" rx="20.05" transform="translate(-64.06 29.09) rotate(-9.15)"/><rect class="cls-1" x="163.18" y="492.14" width="40.11" height="261.93" rx="20.05" transform="translate(-96.8 37.09) rotate(-9.15)"/><circle class="cls-1" cx="165.56" cy="513.59" r="20.04"/><circle class="cls-1" cx="133.67" cy="315.67" r="20.04"/><path class="cls-1" d="M181.1,717.93H221.2a0,0,0,0,1,0,0V735.3a20.05,20.05,0,0,1-20.05,20.05h0A20.05,20.05,0,0,1,181.1,735.3V717.93A0,0,0,0,1,181.1,717.93Z" transform="translate(402.3 1473.29) rotate(-180)"/><polygon class="cls-2" points="181.1 769.16 181.1 739.55 221.21 739.55 272.7 769.16 181.1 769.16"/><path class="cls-4" d="M170.27,541.16l-.47.07a27,27,0,0,1-31-22.37l-31.89-199a27,27,0,0,1,22.37-31l.47-.08a27,27,0,0,1,31,22.37l31.89,199A27,27,0,0,1,170.27,541.16Z"/><path class="cls-4" d="M229.6,738.06l-53.81,8.67-37.3-230a27,27,0,0,1,22.37-31l.47-.08a27,27,0,0,1,31,22.38Z"/><path class="cls-8" d="M173.88,151.48a13.7,13.7,0,0,1-13,13.67l0,0,2,119.28.94,56.38H152.94a50.57,50.57,0,0,1-48.18-35.18l-8.24-25.78-1.9,14.82a52.89,52.89,0,0,1-52.46,46.14h0V165.18l0,0a13.68,13.68,0,0,1-2.7-26.92h0l.12,0,.77-.17,32.81-7.4,28.37,120,28.37-120L162.7,138l.77.17.12,0h0A13.7,13.7,0,0,1,173.88,151.48Z"/><polygon class="cls-13" points="102.41 141.28 102.29 141.44 102.28 141.45 88.96 159.94 82.66 128.48 82.41 127.24 82.41 113.04 91.85 126.41 94.98 130.85 96.35 132.72 102.25 141.1 102.26 141.11 102.41 141.28"/><polygon class="cls-13" points="121.74 113.04 121.74 127.24 121.47 128.73 115.82 159.95 102.28 141.45 102.27 141.44 102.16 141.28 102.26 141.11 102.27 141.1 108.15 132.68 109.26 130.85 112.21 126.64 121.74 113.04"/><polygon class="cls-14" points="130.18 165.97 147.05 167.2 133.98 130.37 121.74 124.76 94.57 272.5 148.01 175.85 130.18 165.97"/><polygon class="cls-14" points="99.91 242.68 98.04 253.13 96.98 259.06 94.13 253.45 54.23 175.1 72.39 165.84 55.49 166.49 69.81 130.13 82.41 124.96 99.14 237.33 99.91 242.68"/><line class="cls-15" x1="51.19" y1="293.42" x2="80.11" y2="293.42"/><line class="cls-15" x1="122.91" y1="293.42" x2="151.83" y2="293.42"/><rect class="cls-16" y="419.68" width="42.8" height="14.83"/><rect class="cls-2" y="434.5" width="42.8" height="131.8"/><rect class="cls-17" x="23.92" y="394" width="8.33" height="35.42" rx="4.16" transform="translate(151.88 18.05) rotate(21.36)"/><circle class="cls-18" cx="100.79" cy="272.84" r="2.78"/><circle class="cls-18" cx="107.54" cy="290.08" r="2.78"/><polygon class="cls-4" points="162.85 284.46 163.57 327.85 171.34 273.67 162.85 284.46"/><rect class="cls-19" x="78.85" y="63.04" width="19.89" height="11.28"/><rect class="cls-19" x="105.8" y="63.04" width="19.89" height="11.28"/><polygon class="cls-20" points="75.3 63.04 99.29 63.04 98.88 63.04 105.47 63.04 104.72 63.04 128.72 63.04 75.3 63.04"/></g></g></svg>