<svg xmlns="http://www.w3.org/2000/svg" viewBox="0 0 364.12 758.84"><defs><style>.cls-1{fill:gray;}.cls-2{fill:#666;}.cls-3,.cls-6{fill:#1a1a1a;}.cls-4,.cls-5{fill:none;stroke-miterlimit:10;}.cls-4{stroke:#4d4d4d;}.cls-5{stroke:#1a1a1a;stroke-width:3px;}.cls-6{fill-rule:evenodd;}</style></defs><title>Asset 14</title><g id="Layer_2" data-name="Layer 2"><g id="Layer_5" data-name="Layer 5"><rect class="cls-1" x="166.47" y="73.6" width="31.21" height="76.56" rx="15.6" transform="translate(0.25 -0.4) rotate(0.13)"/><polygon class="cls-2" points="197.7 119.23 197.61 90.84 166.41 91.41 197.7 119.23"/><rect class="cls-1" x="248.19" y="122.21" width="27.41" height="117.84" rx="13.7" transform="translate(578.13 218.47) rotate(152.07)"/><path class="cls-1" d="M303.67,202.17h.45a13.48,13.48,0,0,1,13.48,13.48v89.15a13.7,13.7,0,0,1-13.7,13.7h0a13.7,13.7,0,0,1-13.7-13.7V215.65a13.48,13.48,0,0,1,13.48-13.48Z" transform="translate(694.33 347.98) rotate(152.07)"/><rect class="cls-1" x="349.51" y="322.09" width="6.85" height="19.17" rx="3.43" transform="translate(816.39 472.35) rotate(153.67)"/><rect class="cls-1" x="354.76" y="333.18" width="6.85" height="18.18" rx="3.43" transform="translate(831.03 490.11) rotate(153.67)"/><circle class="cls-1" cx="355.67" cy="337.19" r="3.43"/><path class="cls-1" d="M351.73,329.22l-21.11,10.45a3.43,3.43,0,0,1-4.59-1.56l-7.89-15.93-3.81-13.6a14,14,0,0,1,7.28-16.34h0a14,14,0,0,1,18.78,6.34l12.89,26.05A3.43,3.43,0,0,1,351.73,329.22Z"/><circle class="cls-1" cx="350.21" cy="326.15" r="3.43"/><circle class="cls-1" cx="343.17" cy="329.63" r="3.43"/><circle class="cls-1" cx="336.14" cy="333.11" r="3.43"/><circle class="cls-1" cx="329.1" cy="336.6" r="3.43"/><rect class="cls-1" x="335.44" y="329.05" width="6.85" height="19.17" rx="3.43" transform="translate(792.79 491.8) rotate(153.67)"/><rect class="cls-1" x="340.69" y="340.14" width="6.85" height="18.18" rx="3.43" transform="translate(807.43 509.56) rotate(153.67)"/><circle class="cls-1" cx="341.6" cy="344.15" r="3.43"/><rect class="cls-1" x="328.41" y="332.53" width="6.85" height="19.17" rx="3.43" transform="translate(781 501.52) rotate(153.67)"/><rect class="cls-1" x="332.8" y="343.82" width="6.85" height="14.34" rx="3.43" transform="translate(793.26 516.4) rotate(153.67)"/><circle class="cls-1" cx="334.56" cy="347.64" r="3.43"/><rect class="cls-1" x="343.02" y="325.44" width="6.85" height="21.6" rx="3.43" transform="translate(806.09 483.9) rotate(153.67)"/><rect class="cls-1" x="348.8" y="338.83" width="6.85" height="18.18" rx="3.43" transform="translate(822.24 503.48) rotate(153.67)"/><circle class="cls-1" cx="349.71" cy="342.85" r="3.43"/><rect class="cls-1" x="338.73" y="285.43" width="7.7" height="31.21" rx="3.85" transform="translate(-82.58 466.05) rotate(-62.52)"/><circle class="cls-1" cx="332.15" cy="295.62" r="3.85"/><circle class="cls-1" cx="240.72" cy="141.19" r="13.71"/><circle class="cls-1" cx="283.07" cy="221.06" r="13.71"/><rect class="cls-1" x="88.52" y="122.21" width="27.41" height="117.84" rx="13.7" transform="translate(96.75 -26.78) rotate(27.93)"/><path class="cls-1" d="M60.23,202.17h0a13.7,13.7,0,0,1,13.7,13.7V305A13.48,13.48,0,0,1,60.45,318.5H60A13.48,13.48,0,0,1,46.52,305V215.87a13.7,13.7,0,0,1,13.7-13.7Z" transform="translate(128.96 2.12) rotate(27.93)"/><rect class="cls-1" x="7.76" y="322.09" width="6.85" height="19.17" rx="3.43" transform="translate(148.29 29.46) rotate(26.33)"/><rect class="cls-1" x="2.51" y="333.18" width="6.85" height="18.18" rx="3.43" transform="translate(152.45 32.89) rotate(26.33)"/><circle class="cls-1" cx="8.45" cy="337.19" r="3.43"/><path class="cls-1" d="M12.4,329.22l21.1,10.45a3.42,3.42,0,0,0,4.59-1.56L46,322.18l3.81-13.6a14,14,0,0,0-7.28-16.34h0a14,14,0,0,0-18.78,6.34L10.84,324.63A3.42,3.42,0,0,0,12.4,329.22Z"/><circle class="cls-1" cx="13.91" cy="326.15" r="3.43"/><circle class="cls-1" cx="20.95" cy="329.63" r="3.43"/><circle class="cls-1" cx="27.98" cy="333.11" r="3.43"/><circle class="cls-1" cx="35.02" cy="336.6" r="3.43"/><rect class="cls-1" x="21.83" y="329.05" width="6.85" height="19.17" rx="3.43" transform="translate(152.84 23.94) rotate(26.33)"/><rect class="cls-1" x="16.58" y="340.14" width="6.85" height="18.18" rx="3.43" transform="translate(157 27.37) rotate(26.33)"/><circle class="cls-1" cx="22.52" cy="344.15" r="3.43"/><rect class="cls-1" x="28.86" y="332.53" width="6.85" height="19.17" rx="3.43" transform="translate(155.12 21.18) rotate(26.33)"/><rect class="cls-1" x="24.47" y="343.82" width="6.85" height="14.34" rx="3.43" transform="translate(158.6 24.05) rotate(26.33)"/><circle class="cls-1" cx="29.56" cy="347.64" r="3.43"/><rect class="cls-1" x="14.25" y="325.44" width="6.85" height="21.6" rx="3.43" transform="translate(151 27.05) rotate(26.33)"/><rect class="cls-1" x="8.47" y="338.83" width="6.85" height="18.18" rx="3.43" transform="translate(155.58 30.83) rotate(26.33)"/><circle class="cls-1" cx="14.41" cy="342.85" r="3.43"/><rect class="cls-1" x="17.69" y="285.43" width="7.7" height="31.21" rx="3.85" transform="translate(-235.59 459.07) rotate(-117.48)"/><circle class="cls-1" cx="31.98" cy="295.62" r="3.85"/><circle class="cls-1" cx="123.4" cy="141.19" r="13.71"/><circle class="cls-1" cx="81.05" cy="221.06" r="13.71"/><path class="cls-1" d="M234.61,262.49H129.51l-1.85,6.22a118.85,118.85,0,0,0-5,33.93v27.88H241.4V302.64a118.84,118.84,0,0,0-4.94-33.93Z"/><path class="cls-1" d="M254.42,141.16a13.68,13.68,0,0,1-13,13.66l0,0L240.64,167v.16l-2.18,34.45-.42,6.65-3.42,54.27H129.51l-3.43-54.27-.42-6.65-1.79-28.34-.4-6.27-.76-12.09,0,0A13.68,13.68,0,0,1,120,127.9l.13,0,.76-.17,61.2-13.79,61.19,13.79.76.17.13,0A13.7,13.7,0,0,1,254.42,141.16Z"/><polygon class="cls-1" points="201.29 758.84 251.05 758.84 241.4 729.23 201.29 729.23 201.29 758.84"/><path class="cls-1" d="M221.35,707.61h0a20.05,20.05,0,0,1,20.05,20.05V745a0,0,0,0,1,0,0H201.29a0,0,0,0,1,0,0V727.66a20.05,20.05,0,0,1,20.05-20.05Z"/><rect class="cls-1" x="201.29" y="285.32" width="40.11" height="240.58" rx="20.05"/><rect class="cls-1" x="201.29" y="485.79" width="40.11" height="261.93" rx="20.05"/><circle class="cls-1" cx="221.33" cy="505.82" r="20.04"/><circle class="cls-1" cx="221.33" cy="305.35" r="20.04"/><rect class="cls-1" x="122.72" y="285.32" width="40.11" height="240.58" rx="20.05"/><rect class="cls-1" x="122.72" y="485.79" width="40.11" height="261.93" rx="20.05"/><circle class="cls-1" cx="142.75" cy="505.82" r="20.04"/><circle class="cls-1" cx="142.75" cy="305.35" r="20.04"/><polygon class="cls-1" points="162.82 758.84 113.06 758.84 122.71 729.23 162.82 729.23 162.82 758.84"/><path class="cls-1" d="M122.72,707.61h40.11a0,0,0,0,1,0,0V725A20.05,20.05,0,0,1,142.77,745h0A20.05,20.05,0,0,1,122.72,725V707.61A0,0,0,0,1,122.72,707.61Z" transform="translate(285.54 1452.64) rotate(-180)"/><path class="cls-1" d="M207.56,10.37A35.74,35.74,0,0,0,182.35,0a35.44,35.44,0,0,0-35.51,35.44v39Q158,92.77,182.22,102.1c16.18-6.49,28.29-16,36.05-28.63v-38A35.68,35.68,0,0,0,207.56,10.37Z"/><circle class="cls-1" cx="146.76" cy="56.29" r="7.4"/><circle class="cls-1" cx="217.6" cy="56.29" r="7.4"/><circle class="cls-3" cx="169.07" cy="58.36" r="2.82"/><circle class="cls-3" cx="196.04" cy="58.36" r="2.82"/><path class="cls-3" d="M217.44,48.76v.14l0-.09Z"/><path class="cls-4" d="M177.67,82.22a27.77,27.77,0,0,0,14.14-2.15"/><polygon class="cls-2" points="179.71 75.64 183.44 78.47 187.66 75.64 179.71 75.64"/><line class="cls-5" x1="162.12" y1="47.46" x2="176.35" y2="47.46"/><line class="cls-5" x1="189.16" y1="45.08" x2="203.25" y2="47.03"/><circle class="cls-1" cx="123.4" cy="141.17" r="13.71"/><circle class="cls-1" cx="182.06" cy="275.66" r="1.95"/><path class="cls-3" d="M234.61,262.49H129.51l-1.85,6.22a118.85,118.85,0,0,0-5,33.93v17.88l40,10h38.48l40.23-10V302.64a118.84,118.84,0,0,0-4.94-33.93Z"/><path class="cls-6" d="M129.53,262.49a3.09,3.09,0,1,1,6.17,0Z"/><path class="cls-6" d="M135.71,262.49a3.09,3.09,0,1,1,6.17,0Z"/><path class="cls-6" d="M141.89,262.49a3.09,3.09,0,1,1,6.17,0Z"/><path class="cls-6" d="M148.07,262.49a3.09,3.09,0,1,1,6.18,0Z"/><path class="cls-6" d="M154.25,262.49a3.09,3.09,0,1,1,6.18,0Z"/><path class="cls-6" d="M160.43,262.49a3.09,3.09,0,1,1,6.18,0Z"/><path class="cls-6" d="M166.61,262.49a3.09,3.09,0,1,1,6.18,0Z"/><path class="cls-6" d="M172.79,262.49a3.09,3.09,0,1,1,6.18,0Z"/><path class="cls-6" d="M179,262.49a3.09,3.09,0,1,1,6.17,0Z"/><path class="cls-6" d="M185.16,262.49a3.09,3.09,0,1,1,6.17,0Z"/><path class="cls-6" d="M191.34,262.49a3.09,3.09,0,1,1,6.17,0Z"/><path class="cls-6" d="M197.52,262.49a3.09,3.09,0,1,1,6.17,0Z"/><path class="cls-6" d="M203.7,262.49a3.09,3.09,0,1,1,6.18,0Z"/><path class="cls-6" d="M209.88,262.49a3.09,3.09,0,1,1,6.18,0Z"/><path class="cls-6" d="M216.06,262.49a3.09,3.09,0,1,1,6.18,0Z"/><path class="cls-6" d="M222.24,262.49a3.09,3.09,0,1,1,6.18,0Z"/><path class="cls-6" d="M228.42,262.49a3.09,3.09,0,1,1,6.18,0Z"/><polygon class="cls-6" points="238.45 201.56 238.03 208.21 126.08 208.21 125.66 201.56 238.45 201.56"/><rect class="cls-3" x="164.78" y="195.24" width="34.55" height="7.7"/><rect class="cls-3" x="138.58" y="121.83" width="3.71" height="49.3"/><rect class="cls-3" x="222.48" y="121.83" width="3.71" height="49.3"/><path class="cls-6" d="M180,201.56a40.22,40.22,0,0,0-1.55-6.32A41.25,41.25,0,0,0,139.23,167h0c-12.95,10.8-14.17,29.94-13.14,41.26h54.4a41.54,41.54,0,0,0-.33-5.27Q180.07,202.24,180,201.56Z"/><path class="cls-6" d="M184.3,201.56a40.22,40.22,0,0,1,1.55-6.32A41.25,41.25,0,0,1,225,167h0c12.94,10.8,14.16,29.94,13.14,41.26h-54.4a41.54,41.54,0,0,1,.33-5.27Q184.18,202.24,184.3,201.56Z"/></g></g></svg>