<svg xmlns="http://www.w3.org/2000/svg" viewBox="0 0 364.12 758.84"><defs><style>.cls-1{fill:#ccc;}.cls-2{fill:#b2b2b2;}.cls-3{fill:#482476;}.cls-4{fill:#1a1a1a;}.cls-5,.cls-6,.cls-7,.cls-8{fill:none;stroke-miterlimit:10;}.cls-5{stroke:gray;}.cls-6{stroke:#1a1a1a;stroke-width:3px;}.cls-7,.cls-8{stroke:#333;stroke-width:2px;}.cls-8{stroke-dasharray:7.19 7.19;}</style></defs><title>Asset 17</title><g id="Layer_2" data-name="Layer 2"><g id="Layer_5" data-name="Layer 5"><rect class="cls-1" x="248.19" y="123.24" width="27.41" height="117.84" rx="13.7" transform="translate(578.61 220.41) rotate(152.07)"/><path class="cls-1" d="M303.67,203.2h.45a13.48,13.48,0,0,1,13.48,13.48v89.15a13.7,13.7,0,0,1-13.7,13.7h0a13.7,13.7,0,0,1-13.7-13.7V216.68A13.48,13.48,0,0,1,303.67,203.2Z" transform="translate(694.82 349.93) rotate(152.07)"/><rect class="cls-1" x="349.51" y="323.12" width="6.85" height="19.17" rx="3.43" transform="translate(816.84 474.31) rotate(153.67)"/><rect class="cls-1" x="354.76" y="334.21" width="6.85" height="18.18" rx="3.43" transform="translate(831.48 492.07) rotate(153.67)"/><circle class="cls-1" cx="355.67" cy="338.22" r="3.43"/><path class="cls-1" d="M351.73,330.26,330.62,340.7a3.43,3.43,0,0,1-4.59-1.55l-7.89-15.94-3.81-13.6a14,14,0,0,1,7.28-16.34h0a14,14,0,0,1,18.78,6.34l12.89,26.05A3.44,3.44,0,0,1,351.73,330.26Z"/><circle class="cls-1" cx="350.21" cy="327.18" r="3.43"/><circle class="cls-1" cx="343.17" cy="330.66" r="3.43"/><circle class="cls-1" cx="336.14" cy="334.14" r="3.43"/><circle class="cls-1" cx="329.1" cy="337.63" r="3.43"/><rect class="cls-1" x="335.44" y="330.08" width="6.85" height="19.17" rx="3.43" transform="translate(793.25 493.75) rotate(153.67)"/><rect class="cls-1" x="340.69" y="341.17" width="6.85" height="18.18" rx="3.43" transform="translate(807.89 511.51) rotate(153.67)"/><circle class="cls-1" cx="341.6" cy="345.18" r="3.43"/><rect class="cls-1" x="328.41" y="333.56" width="6.85" height="19.17" rx="3.43" transform="translate(781.45 503.48) rotate(153.67)"/><rect class="cls-1" x="332.8" y="344.85" width="6.85" height="14.34" rx="3.43" transform="translate(793.72 518.36) rotate(153.67)"/><circle class="cls-1" cx="334.56" cy="348.67" r="3.43"/><rect class="cls-1" x="343.02" y="326.47" width="6.85" height="21.6" rx="3.43" transform="translate(806.55 485.85) rotate(153.67)"/><rect class="cls-1" x="348.8" y="339.86" width="6.85" height="18.18" rx="3.43" transform="translate(822.69 505.44) rotate(153.67)"/><circle class="cls-1" cx="349.71" cy="343.88" r="3.43"/><rect class="cls-1" x="338.73" y="286.47" width="7.7" height="31.21" rx="3.85" transform="translate(-83.49 466.61) rotate(-62.52)"/><circle class="cls-1" cx="332.15" cy="296.65" r="3.85"/><circle class="cls-1" cx="240.72" cy="142.22" r="13.71"/><circle class="cls-1" cx="283.07" cy="222.09" r="13.71"/><rect class="cls-1" x="88.52" y="123.24" width="27.41" height="117.84" rx="13.7" transform="translate(97.24 -26.66) rotate(27.93)"/><path class="cls-1" d="M60.23,203.2h0a13.7,13.7,0,0,1,13.7,13.7V306a13.48,13.48,0,0,1-13.48,13.48H60A13.48,13.48,0,0,1,46.52,306V216.9A13.7,13.7,0,0,1,60.23,203.2Z" transform="translate(129.45 2.24) rotate(27.93)"/><rect class="cls-1" x="7.76" y="323.12" width="6.85" height="19.17" rx="3.43" transform="translate(148.75 29.57) rotate(26.33)"/><rect class="cls-1" x="2.51" y="334.21" width="6.85" height="18.18" rx="3.43" transform="translate(152.91 32.99) rotate(26.33)"/><circle class="cls-1" cx="8.45" cy="338.22" r="3.43"/><path class="cls-1" d="M12.4,330.26,33.5,340.7a3.43,3.43,0,0,0,4.59-1.55L46,323.21l3.81-13.6a14,14,0,0,0-7.28-16.34h0a14,14,0,0,0-18.78,6.34L10.84,325.66A3.44,3.44,0,0,0,12.4,330.26Z"/><circle class="cls-1" cx="13.91" cy="327.18" r="3.43"/><circle class="cls-1" cx="20.95" cy="330.66" r="3.43"/><circle class="cls-1" cx="27.98" cy="334.14" r="3.43"/><circle class="cls-1" cx="35.02" cy="337.63" r="3.43"/><rect class="cls-1" x="21.83" y="330.08" width="6.85" height="19.17" rx="3.43" transform="translate(153.3 24.05) rotate(26.33)"/><rect class="cls-1" x="16.58" y="341.17" width="6.85" height="18.18" rx="3.43" transform="translate(157.46 27.47) rotate(26.33)"/><circle class="cls-1" cx="22.52" cy="345.18" r="3.43"/><rect class="cls-1" x="28.86" y="333.56" width="6.85" height="19.17" rx="3.43" transform="translate(155.58 21.29) rotate(26.33)"/><rect class="cls-1" x="24.47" y="344.85" width="6.85" height="14.34" rx="3.43" transform="translate(159.06 24.16) rotate(26.33)"/><circle class="cls-1" cx="29.56" cy="348.67" r="3.43"/><rect class="cls-1" x="14.25" y="326.47" width="6.85" height="21.6" rx="3.43" transform="translate(151.45 27.16) rotate(26.33)"/><rect class="cls-1" x="8.47" y="339.86" width="6.85" height="18.18" rx="3.43" transform="translate(156.03 30.94) rotate(26.33)"/><circle class="cls-1" cx="14.41" cy="343.88" r="3.43"/><rect class="cls-1" x="17.69" y="286.47" width="7.7" height="31.21" rx="3.85" transform="translate(-236.5 460.58) rotate(-117.48)"/><circle class="cls-1" cx="31.98" cy="296.65" r="3.85"/><circle class="cls-1" cx="123.4" cy="142.22" r="13.71"/><circle class="cls-1" cx="81.05" cy="222.09" r="13.71"/><path class="cls-1" d="M243,127.91h0l-.12,0-.77-.17-61.19-13.79L119.74,127.7l-.77.17-.12,0h0a13.68,13.68,0,0,0,2.71,26.92l0,0V262.49h118.7V154.86l0,0A13.68,13.68,0,0,0,243,127.91Z"/><rect class="cls-1" x="121.59" y="262.49" width="118.69" height="68.04"/><polygon class="cls-1" points="200.17 758.84 249.93 758.84 240.28 729.23 200.17 729.23 200.17 758.84"/><path class="cls-1" d="M220.22,707.61h0a20.05,20.05,0,0,1,20.05,20.05V745a0,0,0,0,1,0,0H200.17a0,0,0,0,1,0,0V727.66A20.05,20.05,0,0,1,220.22,707.61Z"/><rect class="cls-1" x="200.17" y="285.32" width="40.11" height="240.58" rx="20.05"/><rect class="cls-1" x="200.17" y="485.79" width="40.11" height="261.93" rx="20.05"/><circle class="cls-1" cx="220.2" cy="505.82" r="20.04"/><rect class="cls-1" x="121.59" y="285.32" width="40.11" height="240.58" rx="20.05"/><rect class="cls-1" x="121.59" y="485.79" width="40.11" height="261.93" rx="20.05"/><circle class="cls-1" cx="141.62" cy="505.82" r="20.04"/><circle class="cls-1" cx="220.2" cy="305.35" r="20.04"/><circle class="cls-1" cx="141.62" cy="305.35" r="20.04"/><polygon class="cls-1" points="161.7 758.84 111.94 758.84 121.59 729.23 161.7 729.23 161.7 758.84"/><path class="cls-1" d="M121.59,707.61H161.7a0,0,0,0,1,0,0V725A20.05,20.05,0,0,1,141.64,745h0A20.05,20.05,0,0,1,121.59,725V707.61A0,0,0,0,1,121.59,707.61Z" transform="translate(283.28 1452.64) rotate(-180)"/><rect class="cls-1" x="161.83" y="69.44" width="39.2" height="79.61" rx="19.6"/><polygon class="cls-2" points="201.03 122 161.83 88.81 201.03 88.81 201.03 122"/><path class="cls-1" d="M206.43,10.37a35.7,35.7,0,0,0-46.83-3,35.34,35.34,0,0,0-13.89,28.11v39Q156.9,92.77,181.1,102.1c16.17-6.49,28.28-16,36-28.63v-38A35.68,35.68,0,0,0,206.43,10.37Z"/><circle class="cls-1" cx="145.63" cy="56.29" r="7.4"/><circle class="cls-1" cx="216.47" cy="56.29" r="7.4"/><circle class="cls-3" cx="167.94" cy="58.36" r="2.82"/><circle class="cls-3" cx="194.91" cy="58.36" r="2.82"/><path class="cls-4" d="M216.31,48.76v.14l0-.09Z"/><path class="cls-5" d="M176.55,82.22a27.73,27.73,0,0,0,14.13-2.15"/><polygon class="cls-2" points="178.58 75.64 182.32 78.47 186.53 75.64 178.58 75.64"/><line class="cls-6" x1="161" y1="47.46" x2="175.22" y2="47.46"/><line class="cls-6" x1="188.03" y1="45.08" x2="202.12" y2="47.03"/><circle class="cls-1" cx="122.28" cy="141.17" r="13.71"/><circle class="cls-2" cx="180.93" cy="275.66" r="1.95"/><circle class="cls-2" cx="220.22" cy="190.49" r="2.34"/><circle class="cls-2" cx="141.64" cy="190.49" r="2.34"/><polygon class="cls-4" points="240.28 285.26 121.59 285.26 121.59 324.07 161.76 330.52 200.1 330.52 240.28 324.07 240.28 285.26"/><line class="cls-7" x1="123.47" y1="290.77" x2="126.97" y2="290.77"/><line class="cls-8" x1="134.17" y1="290.77" x2="231.29" y2="290.77"/><line class="cls-7" x1="234.89" y1="290.77" x2="238.39" y2="290.77"/><line class="cls-7" x1="161.76" y1="329.01" x2="149.81" y2="297.54"/><line class="cls-7" x1="200.04" y1="329.01" x2="211.99" y2="297.54"/></g></g></svg>