<svg xmlns="http://www.w3.org/2000/svg" viewBox="0 0 211.38 217.83"><defs><style>.cls-1{fill:#e4e0ee;}.cls-2{fill:#fff;}.cls-3{fill:#4e2a84;}.cls-4{fill:#91d5ab;}.cls-5{fill:#a495c3;}.cls-6{fill:#b6acd1;}.cls-7,.cls-8{fill:none;stroke-miterlimit:10;stroke-width:2.1px;stroke-dasharray:7.21 7.21;}.cls-7{stroke:#b6acd1;}.cls-8{stroke:#91d5ab;}</style></defs><title>Asset 7</title><g id="Layer_2" data-name="Layer 2"><g id="Layer_1-2" data-name="Layer 1"><path class="cls-1" d="M211.38,115.43A102.49,102.49,0,0,1,83.44,214.62q-3.22-.83-6.38-1.86c-2.43-.8-4.83-1.68-7.18-2.66-.77-.32-1.53-.64-2.28-1a102.74,102.74,0,0,1-48.68-44.89c-.59-1.09-1.17-2.2-1.72-3.31q-1.47-2.94-2.73-6l-.57-1.39c-.55-1.35-1.06-2.71-1.55-4.09a102.42,102.42,0,1,1,199-34Z"/><rect class="cls-2" x="100.2" y="27.85" width="98.58" height="47.83" transform="translate(7.18 120.87) rotate(-45)"/><path class="cls-3" d="M188.24,40.58,138.31,90.51a9.58,9.58,0,0,0-13.53,0l-14-14a9.55,9.55,0,0,0,0-13.52L160.67,13a9.58,9.58,0,0,0,13.53,0l14,14A9.55,9.55,0,0,0,188.24,40.58ZM167.44,0,97.73,69.71l33.82,33.82,69.7-69.71L167.44,0Z"/><circle class="cls-4" cx="149.49" cy="51.76" r="9.11"/><path class="cls-5" d="M146.51,140l39.56-39.56a10.24,10.24,0,0,0,0-14.48h0a10.23,10.23,0,0,0-14.49,0L132,125.54Z"/><path class="cls-6" d="M192.53,102.71a9.71,9.71,0,0,1-2.86,6.9L140.88,158.4l-49,0s-1.1,1-17.61,17.51L53.23,197,40.51,184.23,17.2,160.92q-1.8-3.61-3.3-7.38l38.33-38.33,9-9L73.45,94h37.83a8.66,8.66,0,1,1,0,17.32H88.05a12.07,12.07,0,0,0,12.07,12.08h48.17l27.58-27.59a9.76,9.76,0,0,1,16.66,6.9Z"/><path class="cls-2" d="M95.05,173.44,66.27,202.21c-2.43-.8-4.83-1.68-7.18-2.66L14.47,154.93l-.57-1.39c-.55-1.35-1.06-2.71-1.55-4.09L41.71,120.1Z"/><path class="cls-3" d="M84.72,192,67.6,209.12a102.57,102.57,0,0,1-55.25-59.67l14.91-14.91Z"/><circle class="cls-4" cx="81.77" cy="174.98" r="4.47"/><line class="cls-7" x1="53.38" y1="85.18" x2="112.42" y2="26.15"/><line class="cls-8" x1="0.74" y1="108.69" x2="59.78" y2="49.66"/></g></g></svg>