<svg xmlns="http://www.w3.org/2000/svg" viewBox="0 0 204.81 204.81"><defs><style>.cls-1{fill:#e4e0ee;}.cls-2{fill:#fff;}.cls-3{fill:#4e2a84;}.cls-4{fill:#91d5ab;}.cls-5,.cls-6,.cls-7,.cls-8{fill:none;stroke-miterlimit:10;stroke-width:2.29px;}.cls-5,.cls-6{stroke:#91d5ab;}.cls-6{stroke-dasharray:7.03 7.03;}.cls-7,.cls-8{stroke:#b6acd1;}.cls-8{stroke-dasharray:7.22 7.22;}</style></defs><title>Asset 9</title><g id="Layer_2" data-name="Layer 2"><g id="Layer_1-2" data-name="Layer 1"><circle class="cls-1" cx="102.41" cy="102.41" r="102.41"/><polygon class="cls-2" points="9.06 99.68 140.92 99.68 139.34 101.25 188.12 44.89 63.84 44.89 9.06 99.68"/><polygon class="cls-2" points="195.75 126.75 195.75 161.8 63.9 161.8 63.9 126.75 194.81 126.75 195.75 126.75"/><polygon class="cls-3" points="195.75 44.91 195.75 126.75 194.81 126.75 63.9 126.75 63.9 44.91 195.75 44.91"/><path class="cls-3" d="M81.84,150.45a7.22,7.22,0,0,1-1.91-.22v-2.69a6.28,6.28,0,0,0,1.52.21,1.69,1.69,0,0,0,1.52-.67,3.63,3.63,0,0,0,.46-2.06V135h3.23v10a6,6,0,0,1-1.22,4.06A4.51,4.51,0,0,1,81.84,150.45Z"/><path class="cls-3" d="M99.82,150.23l-1.11-3.63H93.16l-1.1,3.63H88.58L94,134.93h4l5.4,15.3Zm-1.88-6.34q-1.53-4.92-1.72-5.57c-.13-.43-.22-.77-.28-1-.23.89-.88,3.09-2,6.59Z"/><path class="cls-3" d="M118.72,150.23h-4.1L108,138.71h-.09c.13,2,.2,3.48.2,4.35v7.17h-2.89V135h4.08l6.61,11.4H116c-.1-2-.15-3.37-.15-4.19V135h2.9Z"/><path class="cls-3" d="M135,135v9.85a5.71,5.71,0,0,1-.75,3,4.9,4.9,0,0,1-2.19,1.95,7.79,7.79,0,0,1-3.37.68,6.47,6.47,0,0,1-4.56-1.51,5.32,5.32,0,0,1-1.63-4.12V135h3.22v9.32a3.9,3.9,0,0,0,.71,2.58,2.93,2.93,0,0,0,2.34.83,2.89,2.89,0,0,0,2.3-.83,3.9,3.9,0,0,0,.71-2.6V135Z"/><path class="cls-3" d="M148,150.23l-1.1-3.63h-5.55l-1.11,3.63h-3.48l5.38-15.3h4l5.39,15.3Zm-1.87-6.34c-1-3.28-1.6-5.14-1.72-5.57s-.22-.77-.28-1q-.34,1.33-2,6.59Z"/><path class="cls-3" d="M156.63,144.38v5.85H153.4V135h4.44a7.53,7.53,0,0,1,4.59,1.13,4.5,4.5,0,0,1,.75,5.82,4.82,4.82,0,0,1-2.09,1.64c2.29,3.42,3.78,5.64,4.48,6.64H162l-3.63-5.85Zm0-2.62h1a4,4,0,0,0,2.26-.51,1.82,1.82,0,0,0,.73-1.61,1.68,1.68,0,0,0-.74-1.54,4.6,4.6,0,0,0-2.31-.46h-1Z"/><path class="cls-3" d="M172.22,141.27,175.4,135h3.48l-5,9.3v5.93h-3.21V144.4l-5.05-9.4h3.5Z"/><rect class="cls-4" x="112.46" y="31" width="6.23" height="22.66"/><rect class="cls-4" x="140.4" y="31" width="6.23" height="22.66"/><rect class="cls-4" x="168.33" y="31" width="6.23" height="22.66"/><rect class="cls-4" x="84.53" y="31" width="6.23" height="22.66"/><path class="cls-2" d="M128.68,91.18q0,12.06-4,17.85t-12.18,5.8q-8,0-12-6T96.49,91.18q0-12.2,3.94-18t12.12-5.78q8,0,12,6T128.68,91.18Zm-22.52,0q0,8.46,1.47,12.14c1,2.44,2.62,3.66,4.92,3.66s3.91-1.23,4.92-3.71S119,96.76,119,91.18s-.51-9.71-1.53-12.17-2.65-3.7-4.9-3.7-3.92,1.23-4.91,3.7S106.16,85.53,106.16,91.18Z"/><path class="cls-2" d="M157.62,114.2h-9.73V87.55l.09-4.37.16-4.79q-2.43,2.43-3.37,3.18l-5.29,4.25L134.79,80l14.83-11.81h8Z"/><line class="cls-5" x1="22.69" y1="116.77" x2="22.62" y2="120.7"/><line class="cls-6" x1="22.5" y1="127.73" x2="21.81" y2="166.38"/><line class="cls-5" x1="21.75" y1="169.89" x2="21.68" y2="173.82"/><line class="cls-7" x1="44.57" y1="116.77" x2="44.57" y2="120.7"/><line class="cls-8" x1="44.57" y1="127.92" x2="44.57" y2="153.17"/><line class="cls-7" x1="44.57" y1="156.78" x2="44.57" y2="160.71"/></g></g></svg>