<svg xmlns="http://www.w3.org/2000/svg" viewBox="0 0 204.81 204.81"><defs><style>.cls-1{fill:#e4e0ee;}.cls-2{fill:#4e2a84;}.cls-3{fill:#b6acd1;}.cls-4{fill:#91d5ab;}.cls-5,.cls-7{fill:none;stroke:#91d5ab;stroke-miterlimit:10;stroke-width:2px;}.cls-6{fill:#fff;}.cls-7{stroke-dasharray:7.21 7.21;}</style></defs><title>Asset 11</title><g id="Layer_2" data-name="Layer 2"><g id="Layer_1-2" data-name="Layer 1"><circle class="cls-1" cx="102.41" cy="102.41" r="102.41"/><circle class="cls-2" cx="102.41" cy="102.41" r="66.07" transform="translate(-31.39 46.98) rotate(-22.5)"/><path class="cls-3" d="M102.41,41.34a61.07,61.07,0,1,1-61.07,61.07,61.07,61.07,0,0,1,61.07-61.07m0-10a71.07,71.07,0,1,0,71.06,71.07,71.15,71.15,0,0,0-71.06-71.07Z"/><circle class="cls-4" cx="102.41" cy="102.41" r="5.53"/><line class="cls-5" x1="81.92" y1="122.89" x2="137.6" y2="67.22"/><circle class="cls-6" cx="102.41" cy="58.12" r="3.38"/><circle class="cls-6" cx="80.06" cy="64.17" r="3.38"/><circle class="cls-6" cx="64.17" cy="80.06" r="3.38"/><circle class="cls-6" cx="58.12" cy="102.41" r="3.38"/><circle class="cls-6" cx="64.17" cy="124.76" r="3.38"/><circle class="cls-6" cx="80.06" cy="140.65" r="3.38"/><circle class="cls-6" cx="102.41" cy="146.69" r="3.38"/><circle class="cls-6" cx="124.76" cy="140.65" r="3.38"/><circle class="cls-6" cx="140.65" cy="124.76" r="3.38"/><circle class="cls-6" cx="146.69" cy="102.41" r="3.38"/><circle class="cls-6" cx="140.65" cy="80.06" r="3.38"/><circle class="cls-6" cx="124.76" cy="64.17" r="3.38"/><line class="cls-7" x1="188.01" y1="16.81" x2="15.82" y2="188.99"/><polygon class="cls-4" points="177.53 15.71 177.61 17.71 187.46 17.35 187.1 27.2 189.1 27.27 189.54 15.27 177.53 15.71"/></g></g></svg>