<svg xmlns="http://www.w3.org/2000/svg" viewBox="0 0 222.04 222.85"><defs><style>.cls-1{fill:#482476;}.cls-2{fill:#ccc4df;}.cls-3{fill:#fff;}.cls-4{fill:#91d5ab;}.cls-5,.cls-6,.cls-7{fill:none;stroke-miterlimit:10;}.cls-5,.cls-7{stroke:#91d5ab;}.cls-5,.cls-6{stroke-width:2px;}.cls-6{stroke:#4e2a84;}.cls-7{stroke-width:2.1px;stroke-dasharray:7.21 7.21;}</style></defs><title>Asset 5</title><g id="Layer_2" data-name="Layer 2"><g id="Layer_1-2" data-name="Layer 1"><circle class="cls-1" cx="102.41" cy="120.44" r="102.41"/><path class="cls-2" d="M74.77,101.65v3.93a42.33,42.33,0,0,0-12,1.76l-1.13-3.77a46.35,46.35,0,0,0-12,5.55l2.15,3.31a42.87,42.87,0,0,0-9.13,8l-3-2.57A46.49,46.49,0,0,0,32.55,129l3.59,1.63a42.12,42.12,0,0,0-3.37,11.64l-3.91-.55a48.17,48.17,0,0,0-.44,6.47v0a47.32,47.32,0,0,0,.48,6.74l3.9-.57A41.87,41.87,0,0,0,36.25,166l-3.58,1.65a46.48,46.48,0,0,0,7.19,11.11l3-2.59A42.63,42.63,0,0,0,52,184.06l-2.13,3.32a46.25,46.25,0,0,0,12.06,5.48l1.1-3.79A42.53,42.53,0,0,0,75,190.77H75v3.93a46.64,46.64,0,0,0,13.1-1.9L87,189A42.56,42.56,0,0,0,98,184l2.14,3.31a47,47,0,0,0,10-8.69l-3-2.57a42.9,42.9,0,0,0,6.55-10.2l3.58,1.63A46.1,46.1,0,0,0,121,154.74l-3.9-.55a44.2,44.2,0,0,0,.43-6,42.42,42.42,0,0,0-.45-6.1l3.9-.56a46.07,46.07,0,0,0-3.74-12.7l-3.58,1.64a42.61,42.61,0,0,0-6.56-10.18l3-2.59a46.72,46.72,0,0,0-10-8.66L98,112.33a42.37,42.37,0,0,0-11-5l1.11-3.78a46.73,46.73,0,0,0-13.14-1.87Zm28,46.52A27.81,27.81,0,1,1,75,120.37,27.81,27.81,0,0,1,102.75,148.17Z"/><circle class="cls-3" cx="128.32" cy="95.36" r="49.39"/><rect class="cls-3" x="73.89" y="110.76" width="41.29" height="36.77" transform="translate(119.01 -29.02) rotate(45)"/><path class="cls-4" d="M54.53,132H95.82a0,0,0,0,1,0,0v12.32A20.65,20.65,0,0,1,75.17,165h0a20.65,20.65,0,0,1-20.65-20.65V132a0,0,0,0,1,0,0Z" transform="translate(127.03 -9.66) rotate(45)"/><circle class="cls-5" cx="117.71" cy="105.62" r="7.29"/><line class="cls-5" x1="111.98" y1="94.05" x2="121.45" y2="99.35"/><line class="cls-5" x1="129.8" y1="111.87" x2="124.17" y2="102.23"/><line class="cls-6" x1="77.74" y1="127.89" x2="114.1" y2="91.52"/><line class="cls-6" x1="95.5" y1="145.66" x2="131.87" y2="109.29"/><line class="cls-7" x1="193.47" y1="28.57" x2="168.68" y2="53.36"/><line class="cls-7" x1="194.34" y1="161.44" x2="168.68" y2="135.77"/><line class="cls-7" x1="86.27" y1="53.36" x2="60.6" y2="27.7"/><line class="cls-7" x1="222.04" y1="94.57" x2="185.75" y2="94.57"/><line class="cls-7" x1="127.47" x2="127.47" y2="36.29"/></g></g></svg>