<svg xmlns="http://www.w3.org/2000/svg" viewBox="0 0 230.57 204.81"><defs><style>.cls-1{fill:#482476;}.cls-2{fill:#fff;stroke:#ccc4df;stroke-width:10px;}.cls-2,.cls-3,.cls-4,.cls-6{stroke-miterlimit:10;}.cls-3,.cls-4,.cls-6{fill:none;stroke-width:2.1px;}.cls-3{stroke:#4e2a84;}.cls-4,.cls-6{stroke:#91d5ab;}.cls-4{stroke-dasharray:7.21 7.21;}.cls-5{fill:#91d5ab;}.cls-7{fill:#4e2a84;}</style></defs><title>Asset 4</title><g id="Layer_2" data-name="Layer 2"><g id="Layer_1-2" data-name="Layer 1"><circle class="cls-1" cx="102.41" cy="102.41" r="102.41"/><rect class="cls-2" x="16.02" y="50.44" width="172.78" height="103.93"/><line class="cls-3" x1="106.66" y1="67.31" x2="90.62" y2="83.35"/><line class="cls-3" x1="90.62" y1="67.31" x2="106.66" y2="83.35"/><line class="cls-3" x1="60.71" y1="67.67" x2="44.66" y2="83.72"/><line class="cls-3" x1="44.66" y1="67.67" x2="60.71" y2="83.72"/><line class="cls-3" x1="56.97" y1="104" x2="40.93" y2="120.04"/><line class="cls-3" x1="40.93" y1="104" x2="56.97" y2="120.04"/><line class="cls-3" x1="133.05" y1="123.84" x2="117.01" y2="139.88"/><line class="cls-3" x1="117.01" y1="123.84" x2="133.05" y2="139.88"/><line class="cls-3" x1="167.45" y1="98.31" x2="151.41" y2="114.35"/><line class="cls-3" x1="151.41" y1="98.31" x2="167.45" y2="114.35"/><line class="cls-4" x1="85.15" y1="127.99" x2="144.79" y2="68.35"/><polygon class="cls-5" points="145.95 79.36 143.84 79.28 144.22 68.92 133.86 69.3 133.79 67.19 146.41 66.74 145.95 79.36"/><circle class="cls-6" cx="81.03" cy="132.57" r="7.01"/><polygon class="cls-7" points="193.97 36.87 208.09 50.99 170.43 88.66 149.5 81.33 193.97 36.87"/><path class="cls-5" d="M225.6,19.36h0a17,17,0,0,1,0,24L185.46,83.5l-24-24,40.13-40.14A17,17,0,0,1,225.6,19.36Z"/></g></g></svg>