<svg xmlns="http://www.w3.org/2000/svg" viewBox="0 0 217.28 239.35"><defs><style>.cls-1{fill:#e4e0ee;}.cls-2{fill:#b6acd1;}.cls-3,.cls-5,.cls-8{fill:none;stroke-miterlimit:10;}.cls-3{stroke:#91d5ab;stroke-width:6px;}.cls-4{fill:#4e2a84;}.cls-5{stroke:#fff;stroke-width:1.82px;}.cls-6{fill:#fff;}.cls-7{fill:#91d5ab;}.cls-8{stroke:#b6acd1;stroke-width:2.1px;stroke-dasharray:7.21 7.21;}</style></defs><title>Asset 10</title><g id="Layer_2" data-name="Layer 2"><g id="Layer_1-2" data-name="Layer 1"><path class="cls-1" d="M217.28,137A102.41,102.41,0,1,1,114.87,34.54,102.41,102.41,0,0,1,217.28,137Z"/><polygon class="cls-2" points="154.73 126.4 168.39 140.07 141.36 167.1 132.16 157.9 127.69 153.43 127.7 153.41 154.73 126.4"/><polygon class="cls-2" points="154.73 126.4 127.7 153.41 127.69 153.43 114.33 140.07 115.29 139.12 140.73 113.68 141.36 113.05 154.73 126.4"/><polygon class="cls-2" points="128.34 100 141.36 113.05 140.73 113.68 115.29 139.12 114.33 140.07 108.3 134.04 114.97 127.36 107.97 120.36 128.34 100"/><path class="cls-2" d="M141.36,167.11,121,187.47h-9.51l-1.2,1.19L69.93,229,28.55,187.67l40.38-40.38v-22.8H86l15.88,15.91L108.3,134l6,6,13.36,13.35,4.47,4.47Z"/><polygon class="cls-2" points="134.04 94.28 128.34 100 107.97 120.36 107.96 120.36 92.7 105.09 118.79 79.02 134.04 94.28"/><polygon class="cls-2" points="92.7 105.09 107.96 120.36 107.97 120.36 114.97 127.36 108.3 134.04 101.92 140.4 86.03 124.5 68.93 124.5 68.93 116.54 86.54 98.93 92.7 105.09"/><line class="cls-3" x1="197.16" y1="216.07" x2="144.58" y2="163.5"/><path class="cls-4" d="M91.36,106.56V48.75A2.13,2.13,0,0,1,95,47.25h0a2.13,2.13,0,0,0,3.64-1.51V0L75.44,23.2a2.13,2.13,0,0,1-3,0l-3.92-3.92a2.13,2.13,0,0,0-3,0L34.83,50"/><line class="cls-3" x1="89.48" y1="108.4" x2="30.16" y2="49.07"/><line class="cls-5" x1="128.33" y1="100.01" x2="118.27" y2="110.07"/><line class="cls-5" x1="141.36" y1="113.04" x2="135.16" y2="119.25"/><line class="cls-5" x1="154.71" y1="126.39" x2="147.76" y2="133.34"/><rect class="cls-6" x="31.84" y="172.42" width="75.43" height="43.88" transform="translate(157.81 7.74) rotate(45)"/><path class="cls-4" d="M101.41,224.07,89.34,236.14a102.61,102.61,0,0,1-64.52-50.39L44,166.61Z"/><circle class="cls-7" cx="98.47" cy="207.06" r="4.47"/><line class="cls-8" x1="30.19" y1="68.58" x2="0.74" y2="98.03"/><line class="cls-8" x1="45.01" y1="83.4" x2="8.01" y2="120.4"/><line class="cls-8" x1="59.83" y1="98.22" x2="42.28" y2="115.77"/></g></g></svg>