<svg xmlns="http://www.w3.org/2000/svg" viewBox="0 0 1107.6 628.27"><defs><style>.cls-1{isolation:isolate;}.cls-2{fill:#002147;}.cls-3{fill:#667a91;mix-blend-mode:multiply;}.cls-3,.cls-5{opacity:0.2;}.cls-4{fill:#334d6c;}.cls-5{fill:#fff;}</style></defs><g class="cls-1"><g id="Layer_2" data-name="Layer 2"><g id="phone_scene_1" data-name="phone scene 1"><g id="tint_on_screen" data-name="tint on screen"><path class="cls-2" d="M1055.9,416.56c0-.45,0-.89,0-1.34-.31-8.17-5.86-16.29-16.66-22.52L375.75,9.63C361,1.1,340.14-1.76,321.3,1a74.25,74.25,0,0,0-26.08,8.59L16.68,170.44C5.56,176.86,0,185.28,0,193.69L.06,211a19.24,19.24,0,0,0,0,2.84v0A22.15,22.15,0,0,0,4.7,225.43a39.56,39.56,0,0,0,12,10.15l663.5,383.07c22.23,12.83,58.28,12.83,80.52,0l278.54-160.82c10.65-6.15,16.19-14.13,16.63-22.19h0V416.56Zm-30.41,15L747,592.42c-14.62,8.44-38.34,8.44-53,0L98.62,248.68,30.5,209.35c-14.63-8.44-14.63-22.13,0-30.58l112.59-65c5.33-3.07,14-3.07,19.29,0,4.7,2.71,10.87,4.07,17,4.07s12.34-1.36,17-4.07,7.07-6.27,7.07-9.84-2.37-7.11-7.07-9.83c-2.65-1.55-4-3.55-4-5.57s1.33-4,4-5.56L309,18c14.63-8.45,38.33-8.45,53,0l68.13,39.34L1025.49,401C1040.13,409.45,1040.13,423.16,1025.49,431.6Z"/><path class="cls-3" d="M346.91,19,68.37,179.77c-22.24,12.83-22.24,33.65,0,46.48L731.86,609.32c22.24,12.84,58.29,12.84,80.52,0l278.55-160.81c22.23-12.84,22.23-33.66,0-46.49L427.43,19C405.2,6.11,369.15,6.11,346.91,19Z"/><path class="cls-4" d="M1025.49,431.6,747,592.42c-14.62,8.44-38.34,8.44-53,0L98.62,248.68,30.5,209.35c-14.63-8.44-14.63-22.13,0-30.58l112.59-65c5.33-3.07,14-3.07,19.29,0,4.7,2.71,10.87,4.07,17,4.07s12.34-1.36,17-4.07,7.07-6.27,7.07-9.84-2.37-7.11-7.07-9.83c-2.65-1.55-4-3.55-4-5.57s1.33-4,4-5.56L309,18c14.63-8.45,38.33-8.45,53,0l68.13,39.34L1025.49,401C1040.13,409.45,1040.13,423.16,1025.49,431.6Z"/><path class="cls-5" d="M707.29,597.85a45.84,45.84,0,0,1-13.3-5L30.5,209.83c-14.63-8.44-14.63-22.13,0-30.58l112.59-65c5.32-3.07,14-3.07,19.28,0,4.71,2.72,10.88,4.07,17,4.07s12.33-1.35,17-4.07,7.06-6.26,7.06-9.83-2.36-7.11-7.06-9.83c-2.66-1.54-4-3.56-4-5.57s1.33-4,4-5.56L309,18.44a50.24,50.24,0,0,1,19.16-5.92Z"/></g></g></g></g></svg>