<svg xmlns="http://www.w3.org/2000/svg" xmlns:xlink="http://www.w3.org/1999/xlink" viewBox="0 0 509.68 203.42"><defs><style>.cls-1{fill:none;}.cls-2{clip-path:url(#clip-path);}.cls-3{fill:#e3e7eb;}.cls-4,.cls-7{fill:#d5dae1;}.cls-5{fill:#c6cdd6;}.cls-6{fill:#fff;stroke:#ffb414;stroke-linecap:round;stroke-linejoin:round;stroke-width:0.64px;}.cls-7{stroke:#c6cdd6;stroke-miterlimit:10;stroke-width:2px;}.cls-8{fill:#395370;}</style><clipPath id="clip-path" transform="translate(18.01)"><path class="cls-1" d="M482.11,203.42H59.34A59.35,59.35,0,0,1,0,144.08V0H422.77a59.34,59.34,0,0,1,59.34,59.34Z"/></clipPath></defs><g id="Layer_2" data-name="Layer 2"><g id="BG_illustration" data-name="BG illustration"><g class="cls-2"><path class="cls-3" d="M482.11,59.34V203.42H59.34A59.35,59.35,0,0,1,0,144.08V0H422.77A59.34,59.34,0,0,1,482.11,59.34Z" transform="translate(18.01)"/><rect class="cls-4" x="349.56" y="55.08" width="67.39" height="139.8"/><rect class="cls-5" x="353.09" y="58.53" width="60.32" height="136.34"/><rect class="cls-4" x="365.52" y="71.52" width="13.82" height="46.89"/><rect class="cls-4" x="387.17" y="71.52" width="13.82" height="46.89"/><rect class="cls-4" x="365.52" y="130.87" width="13.82" height="46.89"/><rect class="cls-4" x="387.17" y="130.87" width="13.82" height="46.89"/><rect class="cls-4" x="357.06" y="117.67" width="5.46" height="13.4" rx="2.7"/><rect class="cls-5" x="14.57" y="119.91" width="52.27" height="44.44" rx="2.73"/><rect class="cls-5" x="66.85" y="119.91" width="52.27" height="44.44" rx="2.73"/><rect class="cls-5" x="119.12" y="119.91" width="52.27" height="44.44" rx="2.73"/><rect class="cls-4" x="14.57" y="154.78" width="52.27" height="16.77" rx="4.69"/><rect class="cls-4" x="66.85" y="154.78" width="52.27" height="16.77" rx="4.69"/><rect class="cls-4" x="119.12" y="154.78" width="52.27" height="16.77" rx="4.69"/><rect class="cls-5" y="144" width="14.57" height="44.63" rx="2"/><rect class="cls-5" x="14.57" y="171.55" width="156.82" height="17.08" rx="3.33"/><polygon class="cls-6" points="180.97 194.87 176.4 194.87 175.2 187.51 182.17 187.51 180.97 194.87"/><polygon class="cls-6" points="9.57 194.87 5 194.87 3.8 187.51 10.78 187.51 9.57 194.87"/><rect class="cls-5" x="171.4" y="144" width="14.57" height="44.63" rx="2"/><rect class="cls-7" x="47.47" y="25.7" width="97.79" height="58.75"/><rect class="cls-7" x="170.93" y="58.5" width="31.42" height="31.42" rx="2.21"/><rect class="cls-7" x="451.13" y="58.86" width="38.89" height="41.89" rx="6.74"/><rect class="cls-4" x="429.84" y="120.78" width="74.1" height="74.1"/><rect class="cls-5" x="426.71" y="118.65" width="81.41" height="4.24"/><rect class="cls-5" x="434.04" y="127.72" width="36.26" height="58.32"/><rect class="cls-5" x="473.42" y="127.72" width="36.26" height="58.32"/><path class="cls-8" d="M482.11,185.64v17.78H59.34A59.14,59.14,0,0,1,17,185.64Z" transform="translate(18.01)"/></g></g></g></svg>