<svg xmlns="http://www.w3.org/2000/svg" viewBox="0 0 126.08 126.08"><defs><style>.cls-1{fill:#335b57;}.cls-2{fill:#5d8581;}.cls-3{fill:#00322d;}.cls-10,.cls-4{fill:none;}.cls-4{stroke:#ffb414;stroke-miterlimit:10;}.cls-5{fill:#ffb414;}.cls-6,.cls-9{fill:#fff;}.cls-7{fill:#94aeab;}.cls-8{fill:#799996;}.cls-9{stroke:#00322d;stroke-width:0.77px;}.cls-10,.cls-9{stroke-linejoin:round;}.cls-10{stroke:#c6d1d0;}</style></defs><g id="Layer_2" data-name="Layer 2"><g id="icons"><circle class="cls-1" cx="63.04" cy="63.04" r="63.04"/><polygon class="cls-2" points="97.19 67.93 42.87 36.57 42.87 17.76 97.19 49.12 97.19 67.93"/><polygon class="cls-3" points="97.19 86.73 42.87 55.37 42.87 36.57 97.19 67.93 97.19 86.73"/><polygon class="cls-2" points="97.19 105.54 42.87 74.18 42.87 55.37 97.19 86.73 97.19 105.54"/><polygon class="cls-4" points="55.18 38.36 48.41 34.45 51.08 31.9 48.41 26.27 55.18 30.18 57.85 35.81 55.18 38.36"/><polygon class="cls-4" points="55.18 57.17 48.41 53.26 51.08 50.71 48.41 45.07 55.18 48.98 57.85 54.62 55.18 57.17"/><polygon class="cls-5" points="55.18 75.97 48.41 72.06 51.08 69.51 48.41 63.88 55.18 67.79 57.85 73.42 55.18 75.97"/><polygon class="cls-6" points="92.86 59.6 64.07 42.98 64.07 35.83 92.86 52.45 92.86 59.6"/><polygon class="cls-6" points="92.86 78.41 64.07 61.79 64.07 54.63 92.86 71.25 92.86 78.41"/><polygon class="cls-6" points="92.86 97.22 64.07 80.59 64.07 73.44 92.86 90.06 92.86 97.22"/><polygon class="cls-7" points="100.99 103.35 97.19 105.54 97.19 49.14 100.99 46.95 100.99 103.35"/><polygon class="cls-8" points="46.67 15.58 100.99 46.95 97.19 49.14 42.87 17.76 46.67 15.58"/><g id="_662-cursor.png" data-name="662-cursor.png"><polygon class="cls-9" points="69.74 90.09 58.41 79.5 58.41 94.81 62.08 91.15 64.8 96.8 67.19 95.54 64.58 90.09 69.74 90.09"/></g><circle class="cls-10" cx="25.07" cy="63.23" r="13.62"/><polyline class="cls-10" points="19.3 57.95 42.91 57.95 47.47 60.56"/><line class="cls-10" x1="19.3" y1="61.14" x2="32.85" y2="61.14"/><line class="cls-10" x1="19.3" y1="67.54" x2="27.83" y2="67.54"/><line class="cls-10" x1="19.3" y1="64.34" x2="35.7" y2="64.34"/></g></g></svg>