<svg xmlns="http://www.w3.org/2000/svg" viewBox="0 0 487.99 487.99"><defs><style>.cls-1{fill:#667a91;}.cls-2{fill:#00322d;}.cls-3{fill:#57335b;}.cls-4{fill:#334d6c;}.cls-5{fill:#335b57;}.cls-6{fill:#816684;}.cls-7{fill:none;}</style></defs><g id="Layer_2" data-name="Layer 2"><g id="Board_4" data-name="Board 4"><path class="cls-1" d="M152,74.47a193.21,193.21,0,0,1,182.92-.6l17.48-30.7a228.53,228.53,0,0,0-217.87.61Z"/><path class="cls-2" d="M342.85,78.38a192.79,192.79,0,0,1,94,161.1h35.31A228.09,228.09,0,0,0,360.33,47.7Z"/><path class="cls-3" d="M51.15,239.48A192.8,192.8,0,0,1,144,79L126.57,48.34A228.11,228.11,0,0,0,15.84,239.48Z"/><path class="cls-3" d="M436.84,248.63a192.77,192.77,0,0,1-94,161.09l17.48,30.69A228.1,228.1,0,0,0,472.15,248.63Z"/><path class="cls-2" d="M144,409.07A192.79,192.79,0,0,1,51.15,248.63H15.84A228.09,228.09,0,0,0,126.57,439.76Z"/><path class="cls-1" d="M334.89,414.23a193.13,193.13,0,0,1-182.92-.6L134.5,444.32a228.53,228.53,0,0,0,217.87.61Z"/><path class="cls-4" d="M276.1,177.13,326.87,88A177,177,0,0,0,160,88.56l50.42,88.57Z"/><path class="cls-5" d="M318.63,239.48h102a176.63,176.63,0,0,0-85.8-147l-50.19,88.15Z"/><path class="cls-5" d="M169.36,248.63h-102A176.59,176.59,0,0,0,152.07,395l50.54-88.77Z"/><path class="cls-6" d="M318.63,248.63l-34,58.86,50.19,88.14a176.63,176.63,0,0,0,85.8-147Z"/><path class="cls-4" d="M276.1,311H210.42L160,399.54a176.89,176.89,0,0,0,166.87.59Z"/><path class="cls-6" d="M202.61,181.89,152.07,93.13A176.56,176.56,0,0,0,67.36,239.48h102Z"/><circle class="cls-7" cx="243.99" cy="243.99" r="243.99"/></g></g></svg>