<svg xmlns="http://www.w3.org/2000/svg" viewBox="0 0 126.08 126.08"><defs><style>.cls-1{fill:#335b57;}.cls-2{fill:#fff;}.cls-3{fill:none;stroke:#718d8a;stroke-miterlimit:10;}.cls-4{fill:#c6d1d0;}.cls-5{fill:#00322d;}.cls-6{fill:#718d8a;}.cls-7{fill:#d6dbe1;opacity:0.46;}.cls-8{fill:#557673;}.cls-9{fill:#ffb414;}.cls-10{fill:#ffc343;}.cls-11{fill:#ffe1a1;}</style></defs><g id="Layer_2" data-name="Layer 2"><g id="icons"><circle class="cls-1" cx="63.04" cy="63.04" r="63.04"/><polygon class="cls-2" points="85.65 107.59 40.44 81.49 40.44 15.5 77.64 36.98 80.6 45.68 85.65 52.52 85.65 107.59"/><line class="cls-3" x1="44.67" y1="34.19" x2="57.04" y2="41.33"/><line class="cls-3" x1="44.67" y1="37.84" x2="80.97" y2="58.8"/><line class="cls-3" x1="44.67" y1="41.49" x2="80.97" y2="62.45"/><line class="cls-3" x1="44.67" y1="45.14" x2="80.97" y2="66.09"/><line class="cls-3" x1="44.67" y1="48.79" x2="80.97" y2="69.74"/><line class="cls-3" x1="44.67" y1="52.44" x2="80.97" y2="73.39"/><line class="cls-3" x1="44.67" y1="56.09" x2="80.97" y2="77.04"/><polygon class="cls-4" points="77.66 36.98 85.65 52.52 77.66 47.92 77.66 36.98"/><path class="cls-5" d="M66.39,106.6c.71,1.27-.36,3.23-2.39,4.36s-4.26,1-5-.25L48.35,91.57l7.36-4.11Z"/><ellipse class="cls-6" cx="52.03" cy="89.51" rx="4.22" ry="2.65" transform="translate(-37.02 36.7) rotate(-29.16)"/><path class="cls-5" d="M52.94,84.32l1.56,2.8c.54,1-.27,2.44-1.81,3.3s-3.22.77-3.76-.19l-1.71-3.14"/><ellipse class="cls-6" cx="50.16" cy="85.87" rx="3.19" ry="2" transform="translate(-35.49 35.33) rotate(-29.16)"/><path class="cls-4" d="M47.77,87.78,51,85.72a10.84,10.84,0,0,0,5.08-7.94c.06-.54.09-1.1.1-1.69.14-9.4-6.29-20.93-14.37-25.75-4-2.4-7.71-2.68-10.4-1.18l-4.53,2.56a17.84,17.84,0,0,1,14.75,5.36C48.17,63.8,50.79,70,50.32,74.5S47.77,87.78,47.77,87.78Z"/><path class="cls-4" d="M42,80.39c-6.34-3.79-11.4-12.85-11.29-20.24a10.13,10.13,0,0,1,1.52-5.6c-3.58.16-6,3.12-6.11,8.17C26,70.11,31.07,79.16,37.42,83c4.33,2.59,8.14,2,10.16-.92A10.09,10.09,0,0,1,42,80.39Z"/><ellipse class="cls-7" cx="37.62" cy="69.58" rx="11.14" ry="17.54" transform="translate(-29.14 27.15) rotate(-29.16)"/><path class="cls-8" d="M52.23,78.3c-.14,9.4-6.8,13.11-14.87,8.29S22.86,70.25,23,60.85s6.79-13.11,14.86-8.29S52.36,68.9,52.23,78.3ZM37.81,56.2c-6.35-3.79-11.58-.87-11.68,6.52S31.07,79.16,37.42,83,49,83.82,49.1,76.43,44.15,60,37.81,56.2Z"/><path class="cls-9" d="M83.94,24c7.93-4.58,14.36-.87,14.36,8.29s-6.43,20.3-14.36,24.88S69.57,58,69.57,48.84,76,28.54,83.94,24Z"/><polygon class="cls-9" points="97.98 25.11 93.54 22.67 75.36 32.86 72.29 41.29 73.56 58.01 77.39 60.12 97.98 25.11"/><ellipse class="cls-10" cx="87.4" cy="42.44" rx="17.11" ry="9.88" transform="translate(6.94 96.91) rotate(-60)"/><path class="cls-9" d="M82.87,55.85C89.56,52,95,42.61,95,34.89c0-4-1.42-6.7-3.71-7.92,4.79-.91,8.24,2.32,8.24,8.48,0,7.72-5.42,17.1-12.1,21-3.26,1.88-6.22,2.1-8.39.94A12.42,12.42,0,0,0,82.87,55.85Z"/><path class="cls-11" d="M87.4,25.85c7.93-4.58,14.36-.87,14.36,8.3S95.33,54.45,87.4,59,73,59.89,73,50.73,79.46,30.43,87.4,25.85Zm-11.2,23c0,7.14,5,10,11.2,6.46S98.59,43.11,98.59,36s-5-10-11.19-6.47S76.2,41.76,76.2,48.9Z"/><path class="cls-9" d="M90.2,42.75a6,6,0,0,1-.93,3.18,9.06,9.06,0,0,1-2.62,2.7v2.12l-1.12.64V49.32a7.73,7.73,0,0,1-3.48,1.12V47.72a6.63,6.63,0,0,0,1.7-.2,8.25,8.25,0,0,0,1.78-.63v-3.2l-.54.05a3.25,3.25,0,0,1-2.29-.43,2.44,2.44,0,0,1-.67-2,5.65,5.65,0,0,1,.93-3,9.08,9.08,0,0,1,2.57-2.65V34.13l1.12-.65V35A7.54,7.54,0,0,1,90,34l-.76,2.85a7,7,0,0,0-2.6.7v3.05a7.14,7.14,0,0,1,2.25,0,1.61,1.61,0,0,1,1,.68A2.68,2.68,0,0,1,90.2,42.75ZM84.48,40a.64.64,0,0,0,.25.6,1.53,1.53,0,0,0,.8.14V38.27A2.18,2.18,0,0,0,84.48,40Zm3.27,4.37a.57.57,0,0,0-.27-.57,2,2,0,0,0-.83-.14v2.57A2.46,2.46,0,0,0,87.75,44.32Z"/><path class="cls-11" d="M91,42.77A6.09,6.09,0,0,1,90.09,46a9.18,9.18,0,0,1-2.62,2.7v2.12l-1.12.64V49.34a7.73,7.73,0,0,1-3.48,1.12V47.74a6.63,6.63,0,0,0,1.7-.2,8.25,8.25,0,0,0,1.78-.63v-3.2l-.54,0a3.25,3.25,0,0,1-2.29-.43,2.44,2.44,0,0,1-.67-1.95,5.65,5.65,0,0,1,.93-3,9.08,9.08,0,0,1,2.57-2.65V34.15l1.12-.65V35a7.69,7.69,0,0,1,3.36-1l-.76,2.86a7,7,0,0,0-2.6.7v3a7.38,7.38,0,0,1,2.25,0,1.61,1.61,0,0,1,1,.68A2.68,2.68,0,0,1,91,42.77ZM85.3,40a.64.64,0,0,0,.25.61,1.53,1.53,0,0,0,.8.14V38.28A2.21,2.21,0,0,0,85.3,40Zm3.27,4.38a.57.57,0,0,0-.27-.57,1.85,1.85,0,0,0-.83-.14V46.2A2.46,2.46,0,0,0,88.57,44.34Z"/><polygon class="cls-9" points="87.47 33.5 86.64 33.48 85.53 34.13 86.35 34.15 87.47 33.5"/><polygon class="cls-9" points="85.53 51.39 86.35 51.41 86.35 50.42 85.53 51.39"/></g></g></svg>