<svg xmlns="http://www.w3.org/2000/svg" viewBox="0 0 94.46 94.46"><defs><style>.cls-1{isolation:isolate;}.cls-2{fill:#475977;}.cls-3{fill:#667a91;}.cls-4{fill:#99a6b5;}.cls-11,.cls-5{fill:#fff;}.cls-6{fill:#002147;}.cls-7,.cls-9{fill:#ffb414;}.cls-7{stroke:#ffb414;}.cls-7,.cls-8{stroke-linejoin:round;stroke-width:0.71px;}.cls-8{fill:none;stroke:#fff;}.cls-10{fill:#ccd3da;}.cls-11{mix-blend-mode:lighten;}</style></defs><g class="cls-1"><g id="Layer_2" data-name="Layer 2"><g id="mobile"><circle class="cls-2" cx="47.23" cy="47.23" r="47.23"/><polygon class="cls-3" points="47.23 42.77 18.25 59.5 18.25 31.29 47.23 14.55 47.23 42.77"/><polygon class="cls-4" points="47.27 42.77 76.25 59.5 76.25 31.29 47.27 14.55 47.27 42.77"/><polygon class="cls-4" points="47.23 82.28 47.23 79.23 18.25 62.5 18.25 65.54 47.23 82.28"/><polygon class="cls-5" points="76.22 65.54 76.22 62.5 47.23 45.76 47.23 48.81 76.22 65.54"/><polygon class="cls-6" points="18.25 62.5 47.23 45.76 76.22 62.5 47.23 79.23 18.25 62.5"/><polygon class="cls-3" points="47.23 82.28 47.23 79.23 76.22 62.5 76.22 65.54 47.23 82.28"/><circle class="cls-7" cx="19.59" cy="33.06" r="8.68"/><line class="cls-8" x1="23.27" y1="29.69" x2="8.22" y2="29.69"/><line class="cls-8" x1="23.27" y1="31.73" x2="14.64" y2="31.73"/><line class="cls-8" x1="23.27" y1="35.8" x2="17.84" y2="35.8"/><line class="cls-8" x1="23.27" y1="33.76" x2="12.82" y2="33.76"/><polygon class="cls-9" points="60.45 47.09 57.68 45.49 57.68 40.58 60.45 42.18 60.45 47.09"/><polygon class="cls-9" points="64.3 49.31 61.53 47.71 61.53 37.9 64.3 39.5 64.3 49.31"/><polygon class="cls-9" points="68.15 51.54 65.38 49.94 65.38 33.87 68.15 35.47 68.15 51.54"/><polygon class="cls-9" points="72 53.76 69.23 52.16 69.23 30.65 72 32.25 72 53.76"/><polygon class="cls-10" points="36.87 51.13 37.69 50.64 39.99 51.92 40.22 53.13 39.04 53.2 38.32 52.91 36.87 51.13"/><path class="cls-4" d="M41.4,53.75l-4.53-2.62-4.23,7.68.82.47a7.54,7.54,0,0,1,8.34-2.51Z"/><polygon class="cls-10" points="57.52 51.13 56.71 50.64 54.4 51.92 54.18 53.13 55.36 53.2 56.08 52.91 57.52 51.13"/><path class="cls-4" d="M53,53.75l4.53-2.62,4.24,7.68-.83.47a7.53,7.53,0,0,0-8.34-2.51Z"/><path class="cls-3" d="M51.67,58.25H42.88L44,63.32h0a1.81,1.81,0,0,0,1,1.19,5.21,5.21,0,0,0,4.71,0,1.75,1.75,0,0,0,1-1.19h0Z"/><path class="cls-10" d="M56.47,39.8C56.13,53.08,53.09,58.63,52.21,60l-.16.24a.38.38,0,0,1-.08.09,3.8,3.8,0,0,1-1,.81,8.2,8.2,0,0,1-7.43,0,3.48,3.48,0,0,1-1.18-1c-.1-.12-3.88-4.93-4.28-20.27-.24-9.12,3-17,5.66-22h0a42.23,42.23,0,0,1,3.53-5.56h0a40.68,40.68,0,0,1,3.53,5.58A44.73,44.73,0,0,1,56.47,39.8Z"/><line class="cls-4" x1="40.99" y1="53.89" x2="41.8" y2="54.38"/><path class="cls-11" d="M47.28,62h0a7.58,7.58,0,0,1-3.74-.89,3.48,3.48,0,0,1-1.18-1c-.1-.12-3.88-4.93-4.28-20.27-.24-9.12,3-17,5.66-22h0a42.23,42.23,0,0,1,3.53-5.56C47.05,12.89,39.33,36.67,47.28,62Z"/><path class="cls-10" d="M53.5,53.89l4.84,3.65,3.51,9.68-.82.47-.6-1.29s-2.4-6.66-8.62-6.89l.88-5.13Z"/><path class="cls-4" d="M52.69,54.38,57.52,58,61,67.69l-1.41-.8S57.21,60.24,51,60Z"/><path class="cls-10" d="M41,53.89l-4.84,3.65-3.51,9.68.82.48.59-1.3s2.41-6.65,8.63-6.88l-.88-5.14Z"/><path class="cls-4" d="M41.8,54.38,37,58l-3.5,9.67,1.41-.8s2.41-6.66,8.62-6.89Z"/><circle class="cls-4" cx="47.28" cy="30.21" r="5.22"/><path class="cls-3" d="M47.28,25.74a4.48,4.48,0,1,1-4.48,4.47,4.47,4.47,0,0,1,4.48-4.47m0-1.5a6,6,0,1,0,6,6,6,6,0,0,0-6-6Z"/></g></g></g></svg>