<svg xmlns="http://www.w3.org/2000/svg" viewBox="0 0 174.09 174.09"><defs><style>.cls-1{fill:#57335b;}.cls-2{fill:#d5ccd6;}.cls-3{fill:#fff;}.cls-4{fill:#ab99ad;}.cls-5{fill:#ebedf0;}.cls-6{fill:#2d0032;}.cls-7{fill:none;stroke:#d5ccd6;stroke-width:2.07px;}.cls-10,.cls-11,.cls-7,.cls-9{stroke-miterlimit:10;}.cls-10,.cls-11,.cls-8,.cls-9{fill:#ffb414;}.cls-9{stroke:#fff;}.cls-10,.cls-9{stroke-width:1.14px;}.cls-10,.cls-11{stroke:#ffb414;}.cls-11{stroke-width:0.37px;}</style></defs><g id="Layer_2" data-name="Layer 2"><g id="Unsorted"><circle class="cls-1" cx="87.05" cy="87.05" r="87.05"/><path class="cls-2" d="M53.66,121.75l47.3,27L101,62,53.72,35c-2.41-2.92-9.23-1-9.24.88L50.75,116A7.2,7.2,0,0,0,53.66,121.75Z"/><path class="cls-3" d="M53.66,121.75,101,62,53.72,35c-2.41-2.92-9.23-1-9.24.88L50.75,116A7.2,7.2,0,0,0,53.66,121.75Z"/><path class="cls-4" d="M42.89,34h0c3.92-2.39,8.31-2.93,14,0l47,26.33L101,62,53.54,35.25c-4.3-2.45-12.17,0-7.49,4.31l4.75.18a2.15,2.15,0,0,1,.48.36c7.63,7.82,24.18,16.14,34.46,19.52,3.5,1.15,8.05,2.28,10.79,5.05l-6.25,3.69L42.89,42.1C39,39.87,39.27,36.17,42.89,34Z"/><path class="cls-3" d="M99.9,62.69,54.68,37.49c-3.37-2-6.38-2.14-8.4-1h0c-1,.66-2.39,2.34,3.08,5.7L93.21,66.64Z"/><polygon class="cls-5" points="92.04 152.37 99.84 147.77 99.9 62.7 92.1 67.3 92.04 152.37"/><polygon class="cls-2" points="100.95 148.75 103.84 147.04 103.91 60.33 101.01 62.04 100.95 148.75"/><polygon class="cls-2" points="90.23 155.07 93.15 153.35 93.22 66.64 90.28 68.36 90.23 155.07"/><polygon class="cls-4" points="57.86 147.88 53.46 141.53 49.06 145.36 49.06 87.05 57.86 92.06 57.86 147.88"/><path class="cls-6" d="M40.09,38.05,40,122.38a7.2,7.2,0,0,0,2.91,5.71l47.32,27,0-86.71L43.86,41.89A10.87,10.87,0,0,1,41.44,40,6,6,0,0,1,40.09,38.05Z"/><line class="cls-7" x1="110.16" y1="86.56" x2="131.39" y2="86.56"/><line class="cls-7" x1="110.16" y1="95.94" x2="146.81" y2="95.94"/><line class="cls-7" x1="110.16" y1="114.7" x2="133.22" y2="114.7"/><line class="cls-7" x1="110.16" y1="105.32" x2="154.53" y2="105.32"/><circle class="cls-8" cx="112.43" cy="48.66" r="23.71"/><rect class="cls-3" x="101.14" y="38.92" width="22.58" height="20.27" rx="0.94"/><line class="cls-9" x1="106.38" y1="36.37" x2="106.38" y2="41.22"/><line class="cls-9" x1="112.43" y1="36.37" x2="112.43" y2="41.22"/><line class="cls-9" x1="118.48" y1="36.37" x2="118.48" y2="41.22"/><line class="cls-10" x1="106.38" y1="38.92" x2="106.38" y2="41.22"/><line class="cls-10" x1="112.43" y1="38.92" x2="112.43" y2="41.22"/><line class="cls-10" x1="118.48" y1="38.92" x2="118.48" y2="41.22"/><rect class="cls-11" x="104.95" y="44.43" width="3.32" height="2.47"/><rect class="cls-11" x="110.77" y="44.43" width="3.32" height="2.47"/><rect class="cls-11" x="116.57" y="44.43" width="3.32" height="2.47"/><rect class="cls-11" x="104.95" y="48.56" width="3.32" height="2.47"/><rect class="cls-11" x="110.77" y="48.56" width="3.32" height="2.47"/><rect class="cls-11" x="116.57" y="48.56" width="3.32" height="2.47"/><rect class="cls-11" x="104.95" y="52.69" width="3.32" height="2.47"/><rect class="cls-11" x="110.77" y="52.69" width="3.32" height="2.47"/><rect class="cls-11" x="116.57" y="52.69" width="3.32" height="2.47"/><path class="cls-4" d="M77.33,112.64a12.44,12.44,0,0,0,.08-2c-.26-7.45-5.8-16.51-12.39-20.23s-11.7-.71-11.44,6.74a17.49,17.49,0,0,0,.22,2.13Z"/><ellipse class="cls-4" cx="64.25" cy="83.54" rx="5.42" ry="9.69" transform="translate(-34.46 46.6) rotate(-31.92)"/><path class="cls-3" d="M45.77,35.2s-2.29,1.25-1.29,3.06,4.88,4,4.88,4l-.65-1.91Z"/><path class="cls-6" d="M40.44,36.51a3.39,3.39,0,0,0-.35,1.54v2.5l3.77,1.34S39.68,39.42,40.44,36.51Z"/></g></g></svg>