<svg xmlns="http://www.w3.org/2000/svg" viewBox="0 0 117.01 65.58"><defs><style>.cls-1{fill:#002147;}.cls-2{fill:#556b84;}.cls-3{fill:#e3e7eb;}.cls-4{fill:#aab5c2;}.cls-5{opacity:0.3;}.cls-6{fill:#fff;}</style></defs><g id="Layer_2" data-name="Layer 2"><g id="illustrations"><path class="cls-1" d="M0,62.58H117a0,0,0,0,1,0,0v1a2,2,0,0,1-2,2H2a2,2,0,0,1-2-2v-1A0,0,0,0,1,0,62.58Z"/><path class="cls-2" d="M103.94,2.56V60.1a2.56,2.56,0,0,1-2.56,2.56H15.63a2.55,2.55,0,0,1-2.56-2.56V2.56A2.56,2.56,0,0,1,15.63,0h85.75A2.56,2.56,0,0,1,103.94,2.56Z"/><rect class="cls-3" x="15.38" y="3.02" width="85.77" height="57"/><rect class="cls-4" x="21.02" y="12.7" width="46.33" height="5.23"/><rect class="cls-4" x="21.02" y="22.69" width="46.33" height="5.23"/><rect class="cls-4" x="21.02" y="32.67" width="46.33" height="5.23"/><rect class="cls-4" x="21.02" y="42.66" width="46.33" height="5.23"/><rect class="cls-4" x="72.63" y="12.7" width="21.55" height="25.2"/><g class="cls-5"><polygon class="cls-6" points="74.43 60.02 51.42 60.02 25.36 3.02 48.37 3.02 74.43 60.02"/></g><g class="cls-5"><polygon class="cls-6" points="91.04 60.02 77.05 60.02 50.98 3.02 64.98 3.02 91.04 60.02"/></g><circle class="cls-4" cx="55.82" cy="55.43" r="1.4"/><circle class="cls-4" cx="60.7" cy="55.43" r="1.4"/><path class="cls-1" d="M101.38,1.11a1.45,1.45,0,0,1,1.45,1.45V60.1a1.45,1.45,0,0,1-1.45,1.45H15.63a1.45,1.45,0,0,1-1.45-1.45V2.56a1.45,1.45,0,0,1,1.45-1.45h85.75m0-1.11H15.63a2.56,2.56,0,0,0-2.56,2.56V60.1a2.55,2.55,0,0,0,2.56,2.56h85.75a2.56,2.56,0,0,0,2.56-2.56V2.56A2.56,2.56,0,0,0,101.38,0Z"/></g></g></svg>