<svg xmlns="http://www.w3.org/2000/svg" viewBox="0 0 27.61 43.2"><defs><style>.cls-1{fill:#1c395b;}.cls-2{fill:#002147;}.cls-3{fill:#395370;}.cls-4{fill:#556b84;}</style></defs><g id="Layer_2" data-name="Layer 2"><g id="icons"><polygon class="cls-1" points="13.8 43.2 0 35.23 0 32.35 13.8 39.79 13.8 43.2"/><polygon class="cls-2" points="13.8 43.2 27.61 35.23 27.61 32.37 13.8 39.79 13.8 43.2"/><polygon class="cls-3" points="13.8 40.32 0 32.35 13.8 24.4 27.61 32.37 13.8 40.32"/><polygon class="cls-1" points="13.8 39.19 2.22 32.5 2.22 29.63 13.8 36.32 13.8 39.19"/><polygon class="cls-2" points="13.8 39.19 25.39 32.5 25.39 29.63 13.8 36.32 13.8 39.19"/><polygon class="cls-3" points="13.8 36.31 2.22 29.62 13.8 22.95 25.39 29.63 13.8 36.31"/><path class="cls-2" d="M22.12,27.78h0V24.9l-.71,1.37a4.05,4.05,0,0,0-1.72-1.88,13,13,0,0,0-11.77,0A5.53,5.53,0,0,0,6.07,26l-.58-1v2.74h0v.13h0a4.23,4.23,0,0,0,2.42,3.26,13,13,0,0,0,11.77,0A4.23,4.23,0,0,0,22.11,28h0Z"/><ellipse class="cls-3" cx="13.8" cy="24.9" rx="8.32" ry="4.8"/><path class="cls-4" d="M19.83,22.63h0c-5.17-5-2.55-9.88-2.55-9.88l-3.48.11-3.48-.11s2.61,4.87-2.56,9.88h0c-1.44,1.51-1.06,3.44,1.16,4.72a10.7,10.7,0,0,0,9.73,0C20.89,26.07,21.27,24.14,19.83,22.63Z"/><path class="cls-2" d="M19.25,7.45l-.41.1c-.26-.47-.54.93-1.19.56a8.47,8.47,0,0,0-7.69,0c-.55.31-1-.86-1.22-.47L8.36,7.5v2.92A2.75,2.75,0,0,0,10,12.55a8.47,8.47,0,0,0,7.69,0,2.75,2.75,0,0,0,1.59-2.11Z"/><ellipse class="cls-3" cx="13.81" cy="7.45" rx="5.44" ry="3.14"/><circle class="cls-4" cx="13.81" cy="4.39" r="4.39"/><circle class="cls-4" cx="13.81" cy="4.39" r="4.39"/></g></g></svg>