<svg xmlns="http://www.w3.org/2000/svg" viewBox="0 0 415.63 859.76"><defs><style>.cls-1{fill:#002147;}.cls-2{fill:#334d6c;}</style></defs><g id="Layer_2" data-name="Layer 2"><g id="additional_assets" data-name="additional assets"><path class="cls-1" d="M414.48,36.17a46.07,46.07,0,0,0-7.19-16.23,46.57,46.57,0,0,0-9.51-10.06,47.37,47.37,0,0,0-5-3.41A46.27,46.27,0,0,0,369.13,0H47.51A46.37,46.37,0,0,0,14.63,13.62l-3.52,3.53L8.34,19.94A46,46,0,0,0,0,46.5V812.64A47,47,0,0,0,1.39,824a.29.29,0,0,0,0,.09,46.44,46.44,0,0,0,11.5,20.73c.44.46.88.9,1.34,1.34L18,849.85a47,47,0,0,0,5,3.44,46.24,46.24,0,0,0,23.65,6.47H368.28a46.38,46.38,0,0,0,32.88-13.62l3.47-3.48a46.24,46.24,0,0,0,11-30V46.5A46.26,46.26,0,0,0,414.48,36.17Z"/><rect class="cls-2" x="31.15" y="41.54" width="58.52" height="216.61" rx="29.26"/><circle class="cls-1" cx="60.41" cy="71.77" r="19.48"/><circle class="cls-1" cx="60.41" cy="127.2" r="19.48"/><circle class="cls-1" cx="60.41" cy="182.63" r="19.48"/><circle class="cls-1" cx="60.41" cy="229.79" r="7.52"/></g></g></svg>