<svg xmlns="http://www.w3.org/2000/svg" viewBox="0 0 174.09 174.09"><defs><style>.cls-1{fill:#334d6c;}.cls-2,.cls-3,.cls-9{fill:none;}.cls-2{stroke:#99a6b5;stroke-linejoin:round;stroke-width:2.05px;}.cls-3,.cls-9{stroke:#ffb100;stroke-miterlimit:10;stroke-width:6px;}.cls-4{isolation:isolate;}.cls-5{fill:#586d85;}.cls-6{fill:#012147;}.cls-7{fill:#667a91;}.cls-8{fill:#fff;}.cls-9{stroke-linecap:round;}</style></defs><g id="Layer_2" data-name="Layer 2"><g id="Unsorted"><circle class="cls-1" cx="87.05" cy="87.05" r="87.05"/><circle class="cls-2" cx="123.2" cy="49.71" r="25.05"/><line class="cls-2" x1="111.39" y1="39.98" x2="154.82" y2="39.98"/><line class="cls-2" x1="111.39" y1="45.86" x2="136.31" y2="45.86"/><line class="cls-2" x1="111.39" y1="57.63" x2="127.07" y2="57.63"/><line class="cls-2" x1="111.39" y1="51.75" x2="141.56" y2="51.75"/><path class="cls-3" d="M94.11,60.82A60,60,0,0,0,78.83,48.26C59.31,37.36,43.21,46.66,42.88,69s15.24,49.31,34.76,60.21,35.62,1.6,36-20.75"/><g class="cls-4"><path class="cls-5" d="M23.23,108.1c-.29-7,.64-28.65,23.53-26.45,4.26.86,23,7.64,22.79,34.66a3.43,3.43,0,0,1-2,3.22c-7.09,3.21-27.72,5-42.52-7.8A5.12,5.12,0,0,1,23.23,108.1Z"/><path class="cls-6" d="M46.76,81.65c-5.28-.51-9.37.26-12.57,1.82a18.39,18.39,0,0,0,12.57,8.9c5.14.91,9.66-.76,12.23-4A27.71,27.71,0,0,0,46.76,81.65Z"/><ellipse class="cls-7" cx="46.76" cy="76.89" rx="12.14" ry="14.47" transform="translate(-39.65 51.76) rotate(-42.48)"/><ellipse class="cls-8" cx="51.2" cy="73.75" rx="3.64" ry="4.59" transform="translate(-34.49 46.93) rotate(-37.85)"/></g><g class="cls-4"><path class="cls-5" d="M58.22,59.16c-.28-7,.65-28.65,23.53-26.45,4.26.86,23,7.64,22.79,34.66a3.44,3.44,0,0,1-2,3.22c-7.1,3.21-27.73,5-42.53-7.8A5.18,5.18,0,0,1,58.22,59.16Z"/><path class="cls-6" d="M81.75,32.71c-5.27-.51-9.37.26-12.57,1.82a18.39,18.39,0,0,0,12.57,8.9c5.15.9,9.66-.76,12.23-4A27.6,27.6,0,0,0,81.75,32.71Z"/><ellipse class="cls-7" cx="81.75" cy="27.95" rx="12.14" ry="14.47" transform="translate(2.58 62.55) rotate(-42.48)"/><ellipse class="cls-8" cx="86.19" cy="24.81" rx="3.64" ry="4.59" transform="translate(2.91 58.11) rotate(-37.85)"/></g><path class="cls-9" d="M113.59,108.47c.24-16.07-7.73-34.51-19.48-47.65"/><path class="cls-9" d="M60.86,114.93a61.88,61.88,0,0,0,16.78,14.29c19.53,10.89,35.62,1.6,36-20.75"/><g class="cls-4"><path class="cls-5" d="M89.33,133.41c-.29-7,.64-28.65,23.53-26.45,4.26.85,23,7.64,22.79,34.66a3.46,3.46,0,0,1-2,3.22c-7.09,3.21-27.72,4.95-42.53-7.8A5.17,5.17,0,0,1,89.33,133.41Z"/><path class="cls-6" d="M112.86,107c-5.28-.51-9.37.26-12.57,1.82a18.37,18.37,0,0,0,12.57,8.9c5.14.9,9.66-.76,12.22-4A27.58,27.58,0,0,0,112.86,107Z"/><ellipse class="cls-7" cx="112.86" cy="102.2" rx="12.14" ry="14.47" transform="translate(-39.39 103.05) rotate(-42.48)"/><ellipse class="cls-8" cx="117.29" cy="99.06" rx="3.64" ry="4.59" transform="translate(-36.11 92.82) rotate(-37.85)"/></g></g></g></svg>