<svg xmlns="http://www.w3.org/2000/svg" viewBox="0 0 683.17 594.26"><defs><style>.cls-1{fill:#ccd3da;}.cls-14,.cls-2,.cls-23{fill:#fff;}.cls-3,.cls-7{fill:#335b57;}.cls-14,.cls-19,.cls-20,.cls-3,.cls-4,.cls-5,.cls-6{stroke:#fff;}.cls-14,.cls-20,.cls-3,.cls-4,.cls-5{stroke-miterlimit:10;}.cls-15,.cls-4{fill:#57335b;}.cls-21,.cls-5{fill:#334d6c;}.cls-19,.cls-6{fill:none;stroke-width:1.5px;}.cls-6{stroke-linecap:round;}.cls-19,.cls-22,.cls-6{stroke-linejoin:round;}.cls-8{fill:#00322d;}.cls-9{fill:#668481;}.cls-10{fill:#ffb014;}.cls-11{fill:#ffd272;}.cls-12{fill:#99adab;}.cls-13{fill:#a3b5b3;}.cls-14{stroke-width:0.29px;}.cls-16{fill:#816684;}.cls-17{fill:#ab99ad;}.cls-18{fill:#2d0032;}.cls-20,.cls-24{fill:#002147;}.cls-22,.cls-25{fill:#667a91;}.cls-22{stroke:#667a91;stroke-width:2.58px;}.cls-23{font-size:41.7px;font-family:OpenSans-Bold, Open Sans;font-weight:700;}.cls-26{fill:#99a6b5;}.cls-27{fill:#c2cad3;}.cls-28{fill:#d6dbe1;opacity:0.46;}</style></defs><g id="Layer_2" data-name="Layer 2"><g id="Final_gfx" data-name="Final gfx"><path class="cls-1" d="M341.6,13.58c116.69,0,211.29,94.6,211.29,211.3s-94.6,211.3-211.29,211.3-211.3-94.6-211.3-211.3,94.6-211.3,211.3-211.3m0-13A224.24,224.24,0,0,0,183,383.48,224.36,224.36,0,1,0,341.6.58Z"/><path class="cls-2" d="M216.15,224.88A125.44,125.44,0,0,1,341.59,99.44h0V13.59c-38.85,0-72,8.88-105.63,28.31C134.92,100.24,100.3,229.45,158.64,330.5l74.29-42.9A124.89,124.89,0,0,1,216.15,224.88Z"/><path class="cls-2" d="M341.59,350.32A125.4,125.4,0,0,1,232.93,287.6l-74.29,42.9c19.43,33.65,43.68,57.9,77.33,77.33,101,58.34,230.26,23.72,288.6-77.33l-74.32-42.91A125.39,125.39,0,0,1,341.59,350.32Z"/><path class="cls-2" d="M341.6,13.59V99.44A125.47,125.47,0,0,1,450.25,287.59l74.32,42.91c19.43-33.65,28.31-66.78,28.31-105.64C552.88,108.18,458.29,13.59,341.6,13.59Z"/><path class="cls-3" d="M146.31,224.88a194.43,194.43,0,0,0,26.13,97.64l169.17-97.67V29.6h0C233.74,29.6,146.31,117,146.31,224.88Z"/><path class="cls-4" d="M172.44,322.52a195.33,195.33,0,0,0,338.3,0L341.61,224.85Z"/><path class="cls-5" d="M510.74,322.5a194.37,194.37,0,0,0,26.12-97.62C536.86,117,449.45,29.62,341.61,29.6V224.85Z"/><line class="cls-6" x1="156.9" y1="61.43" x2="153.59" y2="61.43"/><circle class="cls-7" cx="98.27" cy="98.44" r="91.77"/><path class="cls-2" d="M98.27,13.17A85.27,85.27,0,1,1,13,98.44,85.27,85.27,0,0,1,98.27,13.17m0-13a98.27,98.27,0,1,0,98.27,98.27A98.38,98.38,0,0,0,98.27.17Z"/><circle class="cls-8" cx="135.14" cy="104.11" r="6.31"/><path class="cls-9" d="M144.4,100.61V96.47l-1.73,1a9.33,9.33,0,0,0-1-.67,14.54,14.54,0,0,0-12.85-.13l-3-.25v4.35h0c.08,1.3,1,2.59,2.7,3.59a14.47,14.47,0,0,0,13.1,0c1.76-1,2.66-2.35,2.7-3.68h0v-.11Z"/><ellipse class="cls-8" cx="135.14" cy="96.47" rx="9.26" ry="5.35"/><path class="cls-9" d="M144.4,94.68V90.55s-.84.49-1.73,1a9.33,9.33,0,0,0-1-.67,14.54,14.54,0,0,0-12.85-.13l-3-.24v4.34h0a4.69,4.69,0,0,0,2.7,3.59,14.47,14.47,0,0,0,13.1,0c1.76-1,2.66-2.35,2.7-3.68h0v-.12Z"/><ellipse class="cls-8" cx="135.14" cy="90.55" rx="9.26" ry="5.35"/><path class="cls-10" d="M154.24,64.89c0-10.14-8.55-18.37-19.1-18.37S116,54.75,116,64.89a17.92,17.92,0,0,0,.75,5.1h0a22.39,22.39,0,0,0,4.56,8.52c4.62,5.57,1.81,7,4.79,10.9,2.64,3.43,9,3.11,9,3.11s6.37.32,9-3.11c3-3.86.17-5.33,4.79-10.9A22.39,22.39,0,0,0,153.5,70h0A17.92,17.92,0,0,0,154.24,64.89Z"/><path class="cls-11" d="M120,69.52a13.78,13.78,0,0,1-.81-8c1.09-5.3,6.09-11.42,14.66-12.39V59.85S122.9,61.35,120,69.52Z"/><polyline class="cls-6" points="141.06 71.95 137.04 84.08 132.79 81.63 128.54 64.45"/><line class="cls-6" x1="127.18" y1="40.96" x2="128.2" y2="44.11"/><line class="cls-6" x1="114.3" y1="50.32" x2="116.98" y2="52.27"/><line class="cls-6" x1="109.38" y1="65.46" x2="112.69" y2="65.46"/><line class="cls-6" x1="160.9" y1="65.46" x2="157.59" y2="65.46"/><line class="cls-6" x1="155.98" y1="50.32" x2="153.3" y2="52.27"/><line class="cls-6" x1="143.1" y1="40.96" x2="142.08" y2="44.11"/><line class="cls-6" x1="134.8" y1="88.99" x2="134.8" y2="82.92"/><path class="cls-12" d="M110.62,163.28l9.94-5.74s-5.57-8.61-5.64-8.92-4.69-4.55-4.69-4.55l-3.52-1.31-2.24.23-1.07,5.48,2.15,6.45Z"/><polygon class="cls-12" points="120.56 157.54 131.69 151.12 131.69 141.6 119.88 134.05 115.11 133.66 112.25 137.68 114.88 145.6 120.56 157.54"/><path class="cls-12" d="M129,137.08l11.12-6.42s-2.65-4.32-3.08-4.78-9.78-3.42-9.78-3.42-3.56,1.3-3.45,2.44,0,6.06,0,6.06Z"/><path class="cls-12" d="M125.4,108.13l11.12-6.42L129,97.15l-6.58,3.41s-5.19,2.68-4.27,3.6S125.4,108.13,125.4,108.13Z"/><path class="cls-12" d="M102.25,68l11.12-6.42S115.14,67.44,115,68s-6.37,5.69-6.37,5.69l-6.37,1.43Z"/><path class="cls-12" d="M47.09,53.26l11.13-6.43,7.15,4v7l2.15,5s-4.62,7.62-4.89,7.7-10-2.45-10-2.45Z"/><path class="cls-12" d="M57,47.51l11.12-6.42,7.16,4v7l2.15,5s-4.63,7.62-4.89,7.71-9.95-2.45-9.95-2.45Z"/><path class="cls-12" d="M79,50.48l11.12-6.42,7.16,4v7l2.15,5s-4.63,7.62-4.89,7.71-10-2.45-10-2.45Z"/><polygon class="cls-12" points="38.62 73.71 60.76 60.93 72.33 67.72 52.91 80.85 38.62 73.71"/><polygon class="cls-12" points="42.26 102.67 64.39 89.89 69.53 96.28 42.26 102.67"/><path class="cls-12" d="M65.41,142.76l15.73-9.08s-2.15-6.13-2.59-6.83-5.27-5.1-5.27-5.1L70.93,123Z"/><path class="cls-12" d="M88.66,160.39l9.35-5.3s.21-13.34,0-13.49S95,139,95,139l-6.76,2-2.77,7Z"/><polygon class="cls-12" points="101.71 68.72 88.19 60.92 90.12 43.98 99.78 49.57 101.71 68.72"/><polygon class="cls-12" points="86.02 60.34 74.31 61.38 68.16 41.09 76.53 40.34 86.02 60.34"/><polygon class="cls-12" points="72.72 62.3 65.96 71.92 53.38 53.71 58.97 50.86 72.72 62.3"/><polygon class="cls-12" points="65.37 74.1 65.37 89.7 49.74 78.46 49.74 67.3 65.37 74.1"/><polygon class="cls-12" points="65.96 92.56 72.72 109.97 58.22 108.7 53.38 96.25 65.96 92.56"/><polygon class="cls-12" points="74.31 112.74 86.02 127.3 76.53 136.34 68.16 125.93 74.31 112.74"/><polygon class="cls-12" points="88.19 129.23 101.71 137.03 99.78 153.97 90.12 148.39 88.19 129.23"/><polygon class="cls-12" points="103.89 137.62 115.59 136.57 119.88 154.99 113.37 157.61 103.89 137.62"/><polygon class="cls-12" points="117.19 135.65 123.95 126.04 136.52 144.24 131.69 151.12 117.19 135.65"/><polygon class="cls-12" points="124.53 123.86 124.53 108.25 140.16 119.5 140.16 130.66 124.53 123.86"/><polygon class="cls-12" points="123.95 105.4 117.19 87.98 131.69 89.25 136.52 101.71 123.95 105.4"/><polygon class="cls-12" points="115.59 85.22 103.89 70.66 113.37 61.61 121.74 72.03 115.59 85.22"/><ellipse class="cls-12" cx="94.95" cy="98.98" rx="26.54" ry="45.96" transform="translate(-36.77 60.74) rotate(-30)"/><polygon class="cls-9" points="90.59 75.15 77.07 67.34 79 50.41 88.66 55.99 90.59 75.15"/><polygon class="cls-9" points="74.89 66.76 63.19 67.8 57.04 47.51 65.41 46.77 74.89 66.76"/><polygon class="cls-9" points="61.59 68.72 54.84 78.34 42.26 60.13 47.1 53.26 61.59 68.72"/><polygon class="cls-9" points="54.25 80.52 54.25 96.12 38.62 84.88 38.62 73.72 54.25 80.52"/><polygon class="cls-9" points="54.84 98.98 61.59 116.39 47.1 115.12 42.26 102.67 54.84 98.98"/><polygon class="cls-9" points="63.19 119.16 74.89 133.72 65.41 142.76 57.04 132.35 63.19 119.16"/><polygon class="cls-9" points="77.07 135.65 90.59 143.45 88.66 160.39 79 154.81 77.07 135.65"/><polygon class="cls-9" points="92.77 144.04 104.47 142.99 110.62 163.28 102.25 164.03 92.77 144.04"/><polygon class="cls-9" points="106.07 142.07 112.83 132.46 125.4 150.66 120.56 157.54 106.07 142.07"/><polygon class="cls-9" points="113.41 130.28 113.41 114.67 129.04 125.92 129.04 137.08 113.41 130.28"/><polygon class="cls-9" points="112.83 111.82 106.07 94.4 120.56 95.67 125.4 108.13 112.83 111.82"/><polygon class="cls-9" points="104.47 91.64 92.77 77.08 102.25 68.03 110.62 78.45 104.47 91.64"/><ellipse class="cls-9" cx="83.83" cy="105.4" rx="26.54" ry="45.96" transform="translate(-41.47 56.04) rotate(-30)"/><ellipse class="cls-12" cx="81.45" cy="104.66" rx="22.18" ry="38.42" transform="translate(-41.42 54.75) rotate(-30)"/><ellipse class="cls-8" cx="81.45" cy="104.66" rx="19.74" ry="34.2" transform="translate(-41.42 54.75) rotate(-30)"/><path class="cls-9" d="M92.44,125.13c-11.52-.51-19.55-5.93-23.24-11a2.83,2.83,0,0,1-.52-1.64v-5.24c0-3.78,3.37-6.15,6.62-4.27l14.53,7a8.82,8.82,0,0,1,4.39,7.65v5.8A1.71,1.71,0,0,1,92.44,125.13Z"/><path class="cls-2" d="M84.88,100.55v9.57c-2.64,2.3-5.66,2.58-7,1.29A3.33,3.33,0,0,1,77,109a11.43,11.43,0,0,0,.48-2.39c.11-.79.18-1.58.22-2a8.73,8.73,0,0,0-.62-4Z"/><path class="cls-13" d="M84.88,100.55v4a7.19,7.19,0,0,1-5.59,2.64,3.4,3.4,0,0,1-1.86-.61c.11-.79.18-1.58.22-2a8.73,8.73,0,0,0-.62-4Z"/><path class="cls-14" d="M85.67,98.13c0,4.57-3.14,8.27-7.52,8.27-3,0-6-5.1-6-9.67,0-8.43,2.91-8.41,6-8.41S85.67,93.56,85.67,98.13Z"/><path class="cls-9" d="M85.57,100.26a9.79,9.79,0,0,1-.69,1.95v1.65C85.17,102.3,90,99.58,90,92.67a8.94,8.94,0,0,0-8.65-8.44c-9.18-.75-8.94,8.09-8.94,8.09.47-1.1.64-1.63,1-2A1.14,1.14,0,0,1,74,90.1c1.24-.22,2.1,2.71,4.09,4.19.87.65,2.22,1.14,4.81.89,0,.34.47,1.1.4,1.55a3.94,3.94,0,0,0-.06,1.65l.93-.13c.14-1.79.58-1.86.79-1.83,1,.13,1.85.56,1.68,1.83C86.52,99.32,86.3,99.87,85.57,100.26Z"/><path class="cls-2" d="M84.42,97s.25-1,1.51-.67,1.78,3.24-.55,4Z"/><circle class="cls-15" cx="341.31" cy="495.99" r="91.77"/><path class="cls-2" d="M341.31,410.72A85.27,85.27,0,1,1,256,496a85.27,85.27,0,0,1,85.28-85.27m0-13A98.27,98.27,0,1,0,439.58,496a98.39,98.39,0,0,0-98.27-98.27Z"/><path class="cls-16" d="M326.9,508.66a8.4,8.4,0,0,1,1.79,1.42c1.14,1.19,2.39,1,2.39-.45V498.58l-9.57-5.52-1.59-.92c-.68-.4-1-1.5-.64-1.89a3.74,3.74,0,0,0,1-2.81,10.71,10.71,0,0,0-4.85-8.4c-2.68-1.55-4.85-.3-4.85,2.79a9.39,9.39,0,0,0,1,3.95c.41.86,0,1.54-.64,1.15l-1.59-.92-9.57-5.52v11c0,1.43,1.25,3.09,2.4,3.22a4.88,4.88,0,0,1,1.78.64,10.74,10.74,0,0,1,4.85,8.37c0,3.07-2.18,4.32-4.85,2.77a8.11,8.11,0,0,1-1.78-1.42c-1.15-1.19-2.4-1-2.4.45v11.05l9.57,5.52,1.59.93c.68.39,1.05,1.49.64,1.88a3.76,3.76,0,0,0-1,2.81,10.71,10.71,0,0,0,4.85,8.4c2.68,1.56,4.85.3,4.85-2.79a9.39,9.39,0,0,0-1-4c-.4-.86,0-1.54.64-1.15l1.59.92,9.57,5.53V523.66c0-1.43-1.25-3.08-2.39-3.22a4.68,4.68,0,0,1-1.79-.64,10.74,10.74,0,0,1-4.85-8.37C322.07,508.36,324.23,507.12,326.9,508.66Z"/><path class="cls-17" d="M336.06,477.82a5.48,5.48,0,0,0-2.56-1.16c-1.15-.15-2.41-1.79-2.41-3.22V462.39L319.93,456c-.69-.4-1.05.3-.63,1.17a8.66,8.66,0,0,1,.91,4.77c-.32,2.27-2.1,3.2-4.24,2.24-2.93-1.32-5.41-5.38-5.41-8.69a3.75,3.75,0,0,1,1-2.81c.41-.39,0-1.49-.64-1.89l-11.16-6.44v11c0,1.44-1.26,1.63-2.42.43a7.52,7.52,0,0,0-2.55-1.78,2.89,2.89,0,0,0-4,2.56c-.33,3.2,2,7.38,4.82,9a4.53,4.53,0,0,0,1.78.64c1.15.14,2.4,1.79,2.4,3.22v11.05l11.16,6.44c.68.39,1-.3.63-1.17a8.67,8.67,0,0,1-.92-4.77c.32-2.27,2.1-3.21,4.24-2.24,2.93,1.31,5.41,5.38,5.41,8.69a3.76,3.76,0,0,1-1,2.81c-.41.39-.05,1.49.63,1.88l11.17,6.45V487.53c0-1.43,1.25-1.64,2.39-.45a8.4,8.4,0,0,0,1.79,1.42c2.86,1.66,5.14.11,4.82-3.46A12.16,12.16,0,0,0,336.06,477.82Z"/><path class="cls-17" d="M367.39,532.1a5.4,5.4,0,0,0-2.55-1.16c-1.16-.15-2.42-1.79-2.42-3.23v-11l-11.16-6.44c-.68-.4-1,.29-.63,1.16a8.71,8.71,0,0,1,.92,4.77c-.32,2.28-2.1,3.21-4.24,2.25-2.93-1.32-5.41-5.39-5.41-8.69a3.78,3.78,0,0,1,1-2.81c.41-.39.05-1.49-.63-1.89l-11.16-6.44v11c0,1.44-1.26,1.62-2.42.43a7.62,7.62,0,0,0-2.55-1.78,2.9,2.9,0,0,0-4,2.56c-.32,3.2,2,7.38,4.83,9a4.88,4.88,0,0,0,1.78.64c1.15.14,2.4,1.79,2.4,3.22v11l11.16,6.45c.68.39,1-.3.63-1.17a8.67,8.67,0,0,1-.92-4.77c.32-2.27,2.1-3.21,4.24-2.25,2.93,1.32,5.41,5.39,5.41,8.69a3.78,3.78,0,0,1-1,2.81c-.41.39-.05,1.5.63,1.89l11.16,6.45V541.81c0-1.43,1.25-1.64,2.4-.45a8.11,8.11,0,0,0,1.78,1.42c2.87,1.65,5.15.11,4.83-3.46A12.09,12.09,0,0,0,367.39,532.1Z"/><path class="cls-17" d="M344.7,513.64l5.94-3.43,2.45,3.06-.18,1.59-.43,2.34-1,.43s-2.83-.79-2.89-.82Z"/><polygon class="cls-17" points="336.77 544.76 342.86 541.24 341.73 539.5 337.84 537.22 335.42 536.27 334.9 538.44 335.54 541.24 336.77 544.76"/><polygon class="cls-17" points="356.42 556.34 362.42 552.86 359.69 548.98 356.42 547.96 354.93 547.96 354.93 551.1 356.42 556.34"/><polygon class="cls-17" points="332.82 492.24 338.78 488.79 337.78 486.29 335.49 485.4 332.51 485.21 331.88 486.89 332.82 492.24"/><path class="cls-16" d="M312.87,540l6-3.54s-1.66-1.11-1.86-1.19-3.46-1.72-3.46-1.72-.8,0-.83.13-.72,1.67-.72,1.67Z"/><path class="cls-17" d="M293.75,447.78l6-3.48,1.29,4.07s0,1.06,0,1.52-.78,3.37-.78,3.37h-.66L298.45,452Z"/><polygon class="cls-17" points="286.26 457.58 292.33 454.07 293.06 455.89 293.56 457.67 293.75 459.81 290.98 461.71 289.55 461.42 286.26 457.58"/><path class="cls-17" d="M313.36,459.37l6-3.48,1.21,1,.82,2.52.49.6L321,463.5l-.45.23-2-.37s-5-2.79-4.95-2.84S313.36,459.37,313.36,459.37Z"/><path class="cls-16" d="M330.06,481.3a5.5,5.5,0,0,0-2.55-1.16,3.5,3.5,0,0,1-2.42-3.22V465.87l-11.16-6.44c-.69-.4-1.05.3-.63,1.16a8.71,8.71,0,0,1,.91,4.78c-.32,2.27-2.1,3.2-4.24,2.24-2.93-1.32-5.4-5.38-5.4-8.69a3.74,3.74,0,0,1,1-2.81c.41-.39,0-1.49-.64-1.89l-11.16-6.44v11c0,1.44-1.26,1.63-2.42.43a7.52,7.52,0,0,0-2.55-1.78,2.89,2.89,0,0,0-4,2.56c-.33,3.2,2,7.38,4.82,9a4.7,4.7,0,0,0,1.78.64c1.15.14,2.4,1.79,2.4,3.22v11l11.16,6.45c.68.39,1-.3.63-1.17a8.67,8.67,0,0,1-.92-4.77c.32-2.27,2.1-3.21,4.25-2.24,2.92,1.31,5.4,5.38,5.4,8.69a3.77,3.77,0,0,1-1,2.81c-.41.38-.05,1.49.63,1.88l11.17,6.45V491c0-1.43,1.25-1.64,2.4-.45a8.11,8.11,0,0,0,1.78,1.42c2.86,1.65,5.14.11,4.82-3.46A12.16,12.16,0,0,0,330.06,481.3Z"/><polygon class="cls-17" points="331.09 498.58 325.09 502.09 334.12 507.27 332.89 501.68 331.09 498.58"/><polygon class="cls-17" points="364.03 546.6 370.16 543.04 369.13 540.96 366.78 539.33 365.23 539.09 363.64 539.41 362.42 541.81 364.03 546.6"/><path class="cls-16" d="M361.39,535.58a5.32,5.32,0,0,0-2.55-1.16c-1.16-.15-2.42-1.79-2.42-3.23v-11l-11.16-6.44c-.68-.4-1,.29-.63,1.16a8.71,8.71,0,0,1,.92,4.77c-.32,2.28-2.1,3.21-4.24,2.25-2.93-1.32-5.41-5.39-5.41-8.69a3.78,3.78,0,0,1,1-2.81c.41-.39.05-1.5-.63-1.89l-11.16-6.44v11c0,1.44-1.26,1.62-2.42.43a7.52,7.52,0,0,0-2.55-1.78,2.89,2.89,0,0,0-4,2.56c-.33,3.2,2,7.38,4.82,9a4.88,4.88,0,0,0,1.78.64c1.15.14,2.4,1.79,2.4,3.22v11l11.16,6.45c.68.39,1-.3.63-1.17a8.67,8.67,0,0,1-.92-4.77c.32-2.28,2.1-3.21,4.24-2.25,2.93,1.32,5.41,5.39,5.41,8.69a3.78,3.78,0,0,1-1,2.81c-.41.39-.05,1.5.63,1.89l11.16,6.45V545.29c0-1.43,1.25-1.64,2.4-.45a8.11,8.11,0,0,0,1.78,1.42c2.87,1.65,5.15.11,4.83-3.46A12.09,12.09,0,0,0,361.39,535.58Z"/><polygon class="cls-16" points="294.26 507.96 300.24 504.46 301.76 505.99 302.54 508.18 302.98 509.26 301.66 511.71 299.6 512.01 295.08 511.64 294.26 507.96"/><path class="cls-18" d="M320.91,512.17a8.11,8.11,0,0,1,1.78,1.42c1.15,1.18,2.4,1,2.4-.45V502.09l-9.57-5.53-1.59-.92c-.68-.39-1.05-1.49-.64-1.88a3.77,3.77,0,0,0,1-2.81,10.71,10.71,0,0,0-4.85-8.4c-2.68-1.56-4.86-.3-4.86,2.79a9.41,9.41,0,0,0,1,4c.4.86,0,1.54-.64,1.15l-1.59-.92L293.75,484V495c0,1.43,1.25,3.08,2.39,3.22a4.68,4.68,0,0,1,1.79.64,10.74,10.74,0,0,1,4.85,8.37c0,3.07-2.18,4.31-4.85,2.77a8.4,8.4,0,0,1-1.79-1.42c-1.14-1.19-2.39-1-2.39.45v11.05l9.57,5.52,1.59.92c.68.4,1,1.5.64,1.89a3.75,3.75,0,0,0-1,2.81,10.72,10.72,0,0,0,4.86,8.4c2.68,1.55,4.85.29,4.85-2.8a9.38,9.38,0,0,0-1-3.94c-.41-.86,0-1.54.64-1.15l1.59.92,9.57,5.52v-11c0-1.43-1.25-3.09-2.4-3.22a4.88,4.88,0,0,1-1.78-.64,10.74,10.74,0,0,1-4.85-8.37C316.08,511.87,318.24,510.62,320.91,512.17Z"/><polygon class="cls-17" points="325.09 493.4 325.09 502.09 331.09 498.58 329.83 495.18 325.09 493.4"/><circle class="cls-19" cx="382.6" cy="475.46" r="19.7"/><line class="cls-19" x1="374.26" y1="467.81" x2="408.41" y2="467.81"/><line class="cls-19" x1="374.26" y1="472.43" x2="393.86" y2="472.43"/><line class="cls-19" x1="374.26" y1="481.68" x2="386.59" y2="481.68"/><line class="cls-19" x1="374.26" y1="477.06" x2="397.98" y2="477.06"/><path class="cls-11" d="M377,476.64a8.11,8.11,0,0,1,1.78,1.42c1.15,1.19,2.4,1,2.4-.45V466.56L371.62,461l-1.6-.92c-.68-.4-1-1.5-.63-1.89a3.74,3.74,0,0,0,1-2.81,10.71,10.71,0,0,0-4.85-8.4c-2.69-1.55-4.86-.3-4.86,2.79a9.54,9.54,0,0,0,1,3.95c.41.86.05,1.54-.63,1.15l-1.6-.92-9.57-5.52v11c0,1.43,1.25,3.09,2.4,3.22a4.7,4.7,0,0,1,1.78.64,10.72,10.72,0,0,1,4.86,8.37c0,3.07-2.18,4.31-4.86,2.77a8.11,8.11,0,0,1-1.78-1.42c-1.15-1.19-2.4-1-2.4.45v11l9.57,5.52,1.6.93c.68.39,1,1.49.63,1.88a3.78,3.78,0,0,0-1,2.81,10.69,10.69,0,0,0,4.86,8.4c2.68,1.56,4.85.3,4.85-2.79a9.39,9.39,0,0,0-1-3.95c-.41-.86-.05-1.54.63-1.15l1.6.92,9.57,5.53V491.64c0-1.43-1.25-3.08-2.4-3.22a4.7,4.7,0,0,1-1.78-.64,10.75,10.75,0,0,1-4.86-8.37C372.17,476.34,374.34,475.1,377,476.64Z"/><polygon class="cls-11" points="375.19 506.19 381.19 502.69 378.19 497.23 374.73 496.32 373.7 496.76 373.15 500.39 375.19 506.19"/><path class="cls-11" d="M343.85,452l6-3.5v7s1.5,4.95.75,4.52a42.34,42.34,0,0,1-4-3C346.36,456.65,343.85,452,343.85,452Z"/><polygon class="cls-11" points="363.05 507.91 369.01 504.44 368.1 502.71 365.14 501.02 363.39 500.89 361.47 502.6 363.05 507.91"/><path class="cls-11" d="M344.4,475.9l5.94-3.46a13.55,13.55,0,0,1,1.06,1c0,.1.17,2.14.17,2.14v.47l-.36,3.27-.56.33a7.34,7.34,0,0,1-2-.57l-1.66-.61Z"/><polygon class="cls-11" points="374.7 482.21 380.73 478.69 379.92 475.22 377.41 474.42 373.15 474.21 372.66 475.57 374.7 482.21"/><polygon class="cls-11" points="356.18 450.13 362.15 446.64 364.68 449.39 364.16 453.25 362.86 453.99 358.85 454.22 356.18 450.13"/><path class="cls-10" d="M371,480.14a8.11,8.11,0,0,1,1.78,1.42c1.15,1.19,2.4,1,2.4-.45V470.06l-9.57-5.52-1.59-.92c-.68-.4-1-1.5-.64-1.89a3.74,3.74,0,0,0,1-2.81,10.71,10.71,0,0,0-4.85-8.4c-2.68-1.55-4.85-.3-4.85,2.79a9.39,9.39,0,0,0,1,3.95c.4.86,0,1.54-.64,1.15l-1.59-.92L343.85,452v11c0,1.43,1.25,3.09,2.39,3.22a4.85,4.85,0,0,1,1.79.64,10.74,10.74,0,0,1,4.85,8.37c0,3.07-2.18,4.32-4.85,2.77a8.4,8.4,0,0,1-1.79-1.42c-1.14-1.19-2.39-1-2.39.45v11l9.57,5.52,1.59.93c.68.39,1,1.49.64,1.88a3.74,3.74,0,0,0-1,2.81,10.71,10.71,0,0,0,4.85,8.4c2.68,1.56,4.85.3,4.85-2.79a9.39,9.39,0,0,0-1-3.95c-.41-.86,0-1.54.64-1.15l1.59.92,9.57,5.53V495.14c0-1.43-1.25-3.08-2.4-3.22a4.7,4.7,0,0,1-1.78-.64,10.74,10.74,0,0,1-4.85-8.37C366.18,479.84,368.34,478.6,371,480.14Z"/><circle class="cls-20" cx="341.59" cy="224.88" r="105.07"/><path class="cls-21" d="M389.1,296.27c-48.24,0-81.06-22.84-94.26-43.13V230.82c0-13.79,12.43-22.44,24.4-15.6l53.67,25.57a32.12,32.12,0,0,1,16.19,27.89Z"/><path class="cls-2" d="M321.38,214.41,307,240.28c9.17,17.35,33.82,23.86,50.73,22.76,5.23-6.66,15.14-22.25,15.14-22.25Z"/><path class="cls-2" d="M326.49,231.44c.51-3.75.9-8.21,1.07-10.55a35.66,35.66,0,0,0-2-14.43h24.73v34.9"/><path class="cls-13" d="M353.37,220.3s-11.68,8.59-26.34,3.61c0,0,7.9-6,8.59-6.24s17.61-10,17.61-10l2.35,9.28Z"/><path class="cls-22" d="M316.15,189.6s1.78,50.86-17,57.67c0,0,31.13-10.24,34-43.57Z"/><path class="cls-2" d="M362.81,188.32c-1.64,19.68-17.35,35.76-32.93,35.76s-23.51-16-23.51-35.76,12.63-35.75,28.22-35.75S365.07,161.21,362.81,188.32Z"/><path class="cls-22" d="M337.62,151.78h0c-13.44-1-30.56,8-32.48,24.05,0,0,14.43,12.83,37.94,15.6,0,0,23.17,52.23-13,77.75,0,0,34.18-12.15,42.81-41.15C377.92,211.27,383.57,151.78,337.62,151.78Z"/><circle class="cls-21" cx="584.9" cy="98.27" r="91.77" transform="translate(6.92 231.31) rotate(-22.5)"/><path class="cls-2" d="M584.9,13a85.27,85.27,0,1,1-85.27,85.27A85.27,85.27,0,0,1,584.9,13m0-13a98.27,98.27,0,1,0,98.27,98.27A98.38,98.38,0,0,0,584.9,0Z"/><line class="cls-19" x1="615.13" y1="62.18" x2="649.28" y2="62.18"/><line class="cls-19" x1="615.13" y1="66.81" x2="634.73" y2="66.81"/><line class="cls-19" x1="615.13" y1="76.06" x2="627.46" y2="76.06"/><line class="cls-19" x1="615.13" y1="71.43" x2="638.85" y2="71.43"/><path class="cls-11" d="M621.91,103.14,596.62,44.72A2.53,2.53,0,0,0,593,43.54c-.23.13-5.87,3.58-5.87,3.58L567.94,72.3a3.43,3.43,0,0,0,.88,5.22l44.46,25.67-.26.1-.66,2.75,2.95,3.38,5.59-3.23h0A2.39,2.39,0,0,0,621.91,103.14Z"/><path class="cls-10" d="M586.59,47.62l-24.17,27.9a3.71,3.71,0,0,0,1,5.64l49.16,28.38a2.62,2.62,0,0,0,3.71-3.3L591.16,48.32A2.73,2.73,0,0,0,586.59,47.62Z"/><text class="cls-23" transform="matrix(0.87, 0.5, 0, 1, 583.23, 86.23)">!</text><path class="cls-1" d="M571.49,121.53l6.1-3.86a20.46,20.46,0,0,0,9.55-15c.11-1,.18-2.08.19-3.19.26-17.69-11.85-39.39-27-48.46-7.6-4.53-14.52-5-19.59-2.23l-8.51,4.82A33.61,33.61,0,0,1,560,63.75C572.24,76.4,577.16,88,576.29,96.54S571.49,121.53,571.49,121.53Z"/><path class="cls-24" d="M606.53,157c1.34,2.4-.68,6.08-4.51,8.21s-8,1.92-9.35-.48l-20.1-36,13.85-7.73Z"/><ellipse class="cls-25" cx="579.49" cy="124.8" rx="7.94" ry="4.98" transform="translate(12.64 298.2) rotate(-29.16)"/><path class="cls-26" d="M581.22,115l2.94,5.26c1,1.82-.51,4.6-3.41,6.22s-6.06,1.45-7.08-.37l-3.23-5.9"/><ellipse class="cls-27" cx="575.98" cy="117.95" rx="6" ry="3.77" transform="translate(15.54 295.62) rotate(-29.16)"/><path class="cls-1" d="M560.64,107.62c-11.94-7.13-21.45-24.18-21.25-38.08A19.15,19.15,0,0,1,542.25,59c-6.73.31-11.37,5.87-11.51,15.37-.2,13.91,9.31,31,21.25,38.09,8.16,4.87,15.33,3.84,19.13-1.73A19.1,19.1,0,0,1,560.64,107.62Z"/><ellipse class="cls-28" cx="552.37" cy="87.29" rx="20.97" ry="33.02" transform="translate(27.49 280.23) rotate(-29.16)"/><path class="cls-25" d="M579.87,103.69c-.26,17.69-12.78,24.68-28,15.61s-27.29-30.76-27-48.45,12.79-24.68,28-15.61S580.13,86,579.87,103.69Zm-27.14-41.6c-11.94-7.13-21.79-1.63-22,12.27s9.31,31,21.25,38.09,21.79,1.63,22-12.27S564.67,69.22,552.73,62.09Z"/></g></g></svg>