<svg xmlns="http://www.w3.org/2000/svg" viewBox="0 0 99.57 99.57"><defs><style>.cls-1{fill:#2d0032;}.cls-2{fill:#ab99ad;}.cls-3{fill:#8d7590;}.cls-4{fill:#816684;}.cls-5{fill:#fff;}</style></defs><g id="Layer_2" data-name="Layer 2"><g id="Final_gfx" data-name="Final gfx"><circle class="cls-1" cx="49.78" cy="49.78" r="49.78"/><path class="cls-2" d="M75,61.31C75,75.69,65,81.52,52.5,74.33S30,49.66,30,35.28,40,15.08,52.5,22.27,75,46.94,75,61.31Z"/><polygon class="cls-2" points="30.46 24.08 37.42 20.24 65.96 36.23 70.77 49.47 68.78 75.7 62.77 79.01 30.46 24.08"/><ellipse class="cls-3" cx="47.07" cy="51.27" rx="15.51" ry="26.86" transform="translate(-19.33 30.4) rotate(-30)"/><path class="cls-2" d="M54.17,72.32c-10.49-6.06-19-20.79-19-32.9C35.18,33.21,37.42,28.9,41,27c-7.52-1.42-12.93,3.65-12.93,13.31,0,12.11,8.5,26.84,19,32.9,5.11,3,9.75,3.29,13.16,1.47A19.56,19.56,0,0,1,54.17,72.32Z"/><path class="cls-4" d="M69.61,64.28c0,14.38-10.09,20.21-22.54,13s-22.54-24.67-22.54-39,10.09-20.2,22.54-13S69.61,49.91,69.61,64.28ZM47.07,31c-9.7-5.6-17.57-1.06-17.57,10.15S37.37,66,47.07,71.55s17.57,1.06,17.57-10.14S56.77,36.59,47.07,31Z"/><path class="cls-5" d="M53,57.71q0,2.67-1.29,3.54t-3.6-.15v3.44l-1.54-.89V60.28a18.41,18.41,0,0,1-4.79-4.2V51.65a23.72,23.72,0,0,0,2.35,2.63,17.74,17.74,0,0,0,2.44,2.07v-5.2l-.75-.87a20.3,20.3,0,0,1-3.14-4.65,10.59,10.59,0,0,1-.92-4.33c0-1.62.42-2.7,1.27-3.26s2-.51,3.54.14V35.62l1.54.89V39a19.55,19.55,0,0,1,4.63,4.22l-1.05,3.31a19.23,19.23,0,0,0-3.58-3.37V48.1a36.65,36.65,0,0,1,3.1,4,12.21,12.21,0,0,1,1.36,2.81A9.24,9.24,0,0,1,53,57.71ZM45.1,43.25a3.05,3.05,0,0,0,.34,1.41,10.34,10.34,0,0,0,1.1,1.62V42.34C45.58,42,45.1,42.3,45.1,43.25ZM49.6,56a3,3,0,0,0-.38-1.41,12.21,12.21,0,0,0-1.14-1.67v4.17C49.09,57.44,49.6,57.08,49.6,56Z"/></g></g></svg>