<svg xmlns="http://www.w3.org/2000/svg" xmlns:xlink="http://www.w3.org/1999/xlink" viewBox="0 0 136.6 204.61"><defs><style>.cls-1{fill:none;}.cls-2{fill:#5d305d;}.cls-3{fill:#d0c6d1;}.cls-4{clip-path:url(#clip-path);}.cls-5,.cls-6{fill:#fff;stroke-width:0.5px;}.cls-5{stroke:#fff;}.cls-17,.cls-18,.cls-19,.cls-22,.cls-5,.cls-6,.cls-7{stroke-miterlimit:10;}.cls-6{stroke:#ffb414;}.cls-18,.cls-7{fill:#ccd3da;stroke:#ccd3da;}.cls-17,.cls-22,.cls-7{stroke-width:1.02px;}.cls-8{fill:#e9e3da;}.cls-9{fill:#e0b097;}.cls-10{fill:#f5e5dc;}.cls-11,.cls-17,.cls-19{fill:#002147;}.cls-12{fill:#eacbb9;}.cls-13{fill:#cb7c51;}.cls-14{fill:#2d0032;}.cls-15{fill:#57335b;}.cls-16{fill:#99a6b5;}.cls-17,.cls-19{stroke:#002147;}.cls-18,.cls-19{stroke-width:1.03px;}.cls-20{fill:#00322d;}.cls-21{fill:#cea28b;}.cls-22,.cls-23{fill:#334d6c;}.cls-22{stroke:#334d6c;}.cls-24{fill:#f03826;}.cls-25{fill:#aab5c2;}</style><clipPath id="clip-path"><rect class="cls-1" x="2.81" y="3.04" width="120.67" height="84.21"/></clipPath></defs><g id="Layer_2" data-name="Layer 2"><g id="other"><polygon class="cls-2" points="0 0 136.59 0 136.59 90.09 101.95 90.09 101.95 103.27 78.85 90.09 0 90.09 0 0"/><rect class="cls-3" x="2.81" y="3.04" width="131.63" height="84.21"/><g class="cls-4"><path class="cls-5" d="M61.41,158.42H36.25a248.39,248.39,0,0,0-3.39-44.75c-1.93-12-3.26-24.86-4.85-29.93,12.06-3.69,18.05-7.59,30.1-11.28H75.22"/><path class="cls-6" d="M98,158.42c1.21,5.74,2.53,23.39,3,27-5.39,2-10.75,10.32-23.92,18.87H57.29c-13.17-8.55-18.07-16.83-23.46-18.87.49-3.58,1.34-21.23,2.55-27Z"/><path class="cls-6" d="M67,158.39H98a247.41,247.41,0,0,1,3.39-44.75c1.93-12,5-25.69,6.56-30.75C95.86,79.2,88.16,76.11,76.1,72.43H59"/><line class="cls-6" x1="66.7" y1="75.13" x2="67.71" y2="204.26"/><path class="cls-7" d="M78.66,158.42H36.25a248.39,248.39,0,0,0-3.39-44.75c-1.93-12-5.77-23.19-7.36-28.25,12.06-3.69,20.56-9.27,32.61-13H75.22"/><path class="cls-7" d="M98,158.42c1.21,5.74,2.53,23.39,3,27-20.8,4.18-61.82,2-67.21,0,.49-3.58,1.34-21.23,2.55-27Z"/><path class="cls-7" d="M67,158.39H98a247.41,247.41,0,0,1,3.39-44.75c1.93-12,5-25.69,6.56-30.75C95.86,79.2,88.16,76.11,76.1,72.43H59"/><line class="cls-7" x1="66.7" y1="75.13" x2="67.71" y2="204.26"/><path class="cls-8" d="M77,73.3a22.57,22.57,0,0,1-12.43,2.52,18.67,18.67,0,0,1-8.68-2.52L56,56.89H76.93Z"/><path class="cls-9" d="M76.93,40.33H56L56,65.14c3.08,2.34,6.65,4.8,10.62,4.82h.08c3.84,0,7.31-2.4,10.32-4.62Z"/><ellipse class="cls-10" cx="85.93" cy="43.27" rx="5.26" ry="2.88" transform="translate(30.5 121.9) rotate(-81.54)"/><ellipse class="cls-10" cx="47.08" cy="43.27" rx="2.88" ry="5.26" transform="translate(-5.85 7.39) rotate(-8.46)"/><path class="cls-10" d="M66.6,16.51V8s-.08,8.54-.12,8.54h-.11v0c-10.47.11-18.94,6.15-19,21.21,0,5,1.14,14.21,1.64,18.37C49.49,59.78,56.32,67,66.45,67h.06c10.13,0,17-7.22,17.41-10.91.49-4.16,1.64-13.37,1.64-18.37C85.53,22.66,77.06,16.62,66.6,16.51Z"/><circle class="cls-11" cx="57.16" cy="40.6" r="1.04"/><path class="cls-11" d="M53.49,40.35a3.85,3.85,0,0,1,1.63-1.28A6,6,0,0,1,57,38.58a5.72,5.72,0,0,1,2,.19,4.23,4.23,0,0,1,1.81.95l0,.11a15.56,15.56,0,0,0-3.67-.11,12.88,12.88,0,0,0-3.58.73Z"/><circle class="cls-11" cx="75.99" cy="40.6" r="1.04"/><path class="cls-11" d="M72.34,39.64a3.91,3.91,0,0,1,1.84-.94,5.68,5.68,0,0,1,3.86.44,4.25,4.25,0,0,1,1.6,1.28l0,.1a15.72,15.72,0,0,0-3.58-.8,12.75,12.75,0,0,0-3.65,0Z"/><path class="cls-12" d="M70.62,51.17h-3.7l0-10.74,1-.69,1,8.79c.08.7.81,1,1.48,1.45Z"/><polygon class="cls-13" points="66.92 52.1 66.92 51.16 70.63 51.17 66.92 52.1"/><polygon class="cls-12" points="66.94 52.1 66.94 51.17 63.24 51.16 66.94 52.1"/><path class="cls-12" d="M70.39,36.75s-2.71,1.42-3.45,3.7v2.62s.47.66.92-1.5A10.87,10.87,0,0,1,70.39,36.75Z"/><path class="cls-11" d="M80.18,33.88l-1.06-.45-8.53-.57.14,1.32a2.27,2.27,0,0,0,2.26,2h6.09l2.8.68h0A2.83,2.83,0,0,0,80.18,33.88Z"/><path class="cls-11" d="M52,33.88l1.06-.45,8.54-.57-.15,1.32a2.26,2.26,0,0,1-2.25,2H53.15l-2.8.68h0A2.83,2.83,0,0,1,52,33.88Z"/><polygon class="cls-14" points="63.28 158.92 54.52 148.98 65.27 82.95 69.86 83.18 73.07 149.94 63.28 158.92"/><polygon class="cls-15" points="66.49 159.7 57.25 150.21 64.67 83.72 69.28 83.72 75.82 150.24 66.49 159.7"/><polygon class="cls-14" points="64.14 90.12 69.55 88.07 69.58 88.02 69.28 83.72 64.67 83.72 64.22 89.2 64.14 90.12"/><polygon class="cls-15" points="64.39 87.14 57.8 76.86 75.32 76.86 69.55 85.23 64.39 87.14"/><polygon class="cls-16" points="59.72 85.62 51.01 74.42 54.95 69.14 66.64 75.88 59.72 85.62"/><polygon class="cls-16" points="73.47 85.62 82.19 74.42 78.24 69.14 66.56 75.88 73.47 85.62"/><polygon class="cls-17" points="29.7 148.12 11.58 148.25 13.51 98.59 37.59 98.43 29.7 148.12"/><circle class="cls-17" cx="25.58" cy="97.42" r="12.01"/><polygon class="cls-18" points="17.49 197.13 27.95 197.07 29.59 148.71 11.64 149.13 17.49 197.13"/><circle class="cls-19" cx="20.58" cy="147.86" r="9.01"/><polygon class="cls-19" points="15.9 191.43 29.05 191.16 30.34 186.34 29.59 148.71 11.64 149.13 14.25 187.62 15.9 191.43"/><rect class="cls-16" x="15.72" y="191.3" width="14.22" height="8.44"/><path class="cls-19" d="M103.34,191l-72.19-1.11c.07-3,.29-6.25.7-9.71.3-2.51.67-4.89,1.1-7.11a126.51,126.51,0,0,0,68.54,0C102.53,179,103,180.05,103.34,191Z"/><path class="cls-13" d="M103.34,182.64a151.2,151.2,0,0,1-37.46,4.64A154.2,154.2,0,0,1,31.15,183c.07-2.43.51-5,.58-7.13A118,118,0,0,0,67,181.36a115.24,115.24,0,0,0,35.79-5.51C102.92,178.64,103.34,182.64,103.34,182.64Z"/><polygon class="cls-20" points="54.38 188.81 51.25 188.37 52.79 177.21 55.91 177.65 54.38 188.81"/><polygon class="cls-20" points="98.8 175.43 95.68 175.87 97.21 187.04 100.34 186.59 98.8 175.43"/><polygon class="cls-20" points="80.67 177.21 77.55 177.65 79.08 188.81 82.21 188.37 80.67 177.21"/><polygon class="cls-20" points="36.25 187.04 33.12 186.59 34.66 175.43 37.78 175.87 36.25 187.04"/><polygon class="cls-9" points="61.64 57.1 73.37 57.1 68.51 55.61 67.41 56.05 66.42 55.61 61.64 57.1"/><polygon class="cls-9" points="64.56 58.68 70.37 58.68 67.5 60.04 64.56 58.68"/><path class="cls-21" d="M75.34,25.17a20.21,20.21,0,0,0-8.94-2v-6.9h0c0,2.33-.06,6.89-.08,6.89h-.11c-7.09.08-13.22,3-16.25,9.74,6.32-.39,14.57-2.2,20.16-5.69a11.7,11.7,0,0,1-8.32,4.36S70.91,32.3,75.34,25.17Z"/><path class="cls-11" d="M49.07,47.64s-6.35-13.92-4-26A17,17,0,0,1,59.55,7.61S72.73,4,77.33,11.21c0,0,11.75.62,11.59,10.79,0,0-.47,16.42-6.35,25.64,0,0,2.54-12.82-1.43-15.79,0,0,1.91-7.35-2.85-7.66,0,0-6.39,4.88-13.63,6,0,0,4.89-2.41,6.85-6.36,0,0-10.19,7.33-19,8.87a19.75,19.75,0,0,0,4.7-7.62s-4.7,6.27-7.64,8.39Z"/><circle class="cls-22" cx="17.31" cy="186.87" r="1.63"/><polygon class="cls-17" points="104.83 145.93 122.95 146.06 121.02 96.4 96.94 96.24 104.83 145.93"/><circle class="cls-17" cx="108.95" cy="95.23" r="12.01"/><polygon class="cls-18" points="117.04 194.94 106.58 194.88 104.94 146.52 122.89 146.93 117.04 194.94"/><circle class="cls-19" cx="113.95" cy="145.67" r="9.01"/><polygon class="cls-19" points="118.63 189.24 105.47 188.97 104.19 184.14 104.94 146.52 122.89 146.93 120.28 185.43 118.63 189.24"/><rect class="cls-16" x="104.59" y="189.1" width="14.22" height="8.44" transform="translate(223.4 386.65) rotate(-180)"/><circle class="cls-22" cx="117.22" cy="184.68" r="1.63"/><path class="cls-19" d="M49.25,74.92c8.63,26.82,7.44,89.39,6.56,127.53-6.47,2.63-21,1.37-24.73,1.2-.09-16.32-.48-89.94-.48-89.94,0-16-9.8-27.3-9.8-27.3Z"/><path class="cls-19" d="M83.46,74.76C74.83,101.59,76.72,162.84,77.6,201c6.47,2.63,23.6,1.82,27.36,1.65.09-16.32-2.15-90.39-2.15-90.39A76.27,76.27,0,0,1,109,83Z"/><circle class="cls-23" cx="82.94" cy="147.33" r="1.6"/><circle class="cls-23" cx="82.94" cy="162.43" r="1.6"/><circle class="cls-23" cx="82.94" cy="177.53" r="1.6"/></g><rect class="cls-14" x="2.81" y="80.65" width="131.63" height="6.7"/><circle class="cls-24" cx="62.64" cy="83.99" r="1.86"/><circle class="cls-25" cx="68.63" cy="83.99" r="1.86"/><circle class="cls-25" cx="74.61" cy="83.99" r="1.86"/></g></g></svg>