<svg xmlns="http://www.w3.org/2000/svg" xmlns:xlink="http://www.w3.org/1999/xlink" viewBox="0 0 377.5 236.74"><defs><style>.cls-1{fill:#e0b097;}.cls-2{fill:#395370;}.cls-3{fill:#002147;}.cls-4{fill:#5c3960;}.cls-10,.cls-5{fill:#cb7c51;}.cls-5{opacity:0.43;}.cls-6{fill:#fdd072;}.cls-7{fill:#ffb014;}.cls-8{fill:#c65552;}.cls-9{fill:#d59674;}.cls-11{fill:#7d4921;}.cls-12{fill:#eed5c7;}.cls-13{fill:#334d6c;}.cls-14,.cls-17,.cls-25{fill:none;}.cls-14,.cls-25{stroke:#334d6c;}.cls-14,.cls-17,.cls-20,.cls-25{stroke-miterlimit:10;}.cls-14{stroke-width:1.87px;}.cls-15{fill:#ffb414;}.cls-16{fill:#aab5c2;}.cls-17{stroke:#a28ea4;stroke-width:5px;}.cls-18{fill:#e3e7eb;}.cls-19{fill:#fff;}.cls-20,.cls-22{fill:#8e9dad;}.cls-20{stroke:#002147;stroke-linecap:round;stroke-width:2px;}.cls-21{fill:#c6cdd6;}.cls-23{fill:url(#linear-gradient);}.cls-24{fill:#718399;}.cls-25{stroke-width:1.84px;}.cls-26{fill:#a28ea4;}</style><linearGradient id="linear-gradient" x1="276.06" y1="181.18" x2="278.52" y2="140.67" gradientUnits="userSpaceOnUse"><stop offset="0" stop-color="#fff"/><stop offset="1" stop-color="#fff" stop-opacity="0"/></linearGradient></defs><g id="Layer_2" data-name="Layer 2"><g id="other"><path class="cls-1" d="M122.24,58.75s-7.25-.53-8.47,3,3.68,3.09,3.68,3.09a19,19,0,0,0,2.26-.45c.86-.26,2.38-.15,2.33-1S122.24,58.75,122.24,58.75Z"/><path class="cls-1" d="M118.69,91.05c.17.1,13.29-3.07,15.13-5.83s1.4-8.25,1.1-9a19.92,19.92,0,0,0-3.15-3.69,9.25,9.25,0,0,0-1.93-1.12,9.78,9.78,0,0,0-4.41,2.37c-1.84,1.83-2.63.31-3.55,3.37S118.69,91.05,118.69,91.05Z"/><path class="cls-1" d="M110.58,85.73s-1.13.8-1.23-5.62,4.42-18.39,4.42-18.39l6.43,4.78-1.29,3.94-4.75,9.67Z"/><path class="cls-1" d="M129,81.08s-7.37,1.35-9.27,7-11.31-4.44-11.31-4.44L112,70.44l12.55,2.93Z"/><path class="cls-2" d="M111.51,71.86v-1.2l1.38.2v.24l-.46,1.06s-.38.26-.43.2S111.51,71.86,111.51,71.86Z"/><rect class="cls-2" x="121.37" y="39.26" width="22.27" height="43.88" rx="2.37" transform="translate(61.6 -66.37) rotate(36.14)"/><rect class="cls-3" x="121.37" y="38.05" width="22.27" height="43.88" rx="2.37" transform="translate(60.88 -66.61) rotate(36.14)"/><path class="cls-1" d="M95.77,143.93l-6.6,24.51,16,1.65s8.61-2.34,9.53-3.19,12.1-17.71,12.1-17.71l-1.29-3.48Z"/><path class="cls-4" d="M131.49,130.91S104.2,157.32,125.24,172l.49,51.33,12.71-.17,6.12-51.79Z"/><polygon class="cls-1" points="37.45 208.85 74.55 202.68 70 219.06 36.9 219.06 37.45 208.85"/><circle class="cls-1" cx="90.29" cy="206.1" r="10.5"/><path class="cls-1" d="M52.23,201.47c1.48.21,35.71-3.09,35.71-3.09l4.79,17.93a80.63,80.63,0,0,1-21.43-.67c-10.25-1.68-13.69-1.39-20-1.88-2.63-.2-1.47-4.82-1.47-4.82Z"/><path class="cls-1" d="M139.1,100.65l-4.94,17.67,21.64,5.33s10.42-3.84,11.74-3.89,31.15-13.58,31.15-13.58a111.8,111.8,0,0,1-11.82-5.13C180.8,98,174.4,93.86,173.13,89.73c-.8-2.55-1.59-5.09-2.38-7.64l-5.36-17.28-15.18,3.33-2.76,17.25,2,11.08C145.25,100,139.1,100.65,139.1,100.65Z"/><path class="cls-5" d="M147.45,85.39l1.49,8.15c8.12-1.37,18.73-8.9,21.06-13.86l-4.61-14.87-15.18,3.33Z"/><polygon class="cls-6" points="117.36 39.61 116.9 43.63 118.91 49.38 120.2 52.32 121.54 52.05 123.13 48.27 119.71 36.38 117.36 39.61"/><path class="cls-7" d="M177.45,69.42s14.49-2.07,10.88-29.17l-8,1L172.23,61.2Z"/><path class="cls-1" d="M119.75,47.74c1,25,15.39,43.47,26.26,42.61,22-1.75,35-15.28,37.67-42.61,2.33-24-14.31-43.65-32-43.65S118.75,23.65,119.75,47.74Z"/><path class="cls-8" d="M151.32,75.76a5.67,5.67,0,0,1-2.26,4.09,7.79,7.79,0,0,1-9.31.13,5.81,5.81,0,0,1-2.39-4,15.51,15.51,0,0,0,3.66,1.6,11.83,11.83,0,0,0,3.36.43,11.55,11.55,0,0,0,3.35-.51A13.88,13.88,0,0,0,151.32,75.76Z"/><path class="cls-8" d="M153.68,75.91a30.34,30.34,0,0,1-4.71,1,33.51,33.51,0,0,1-4.7.28,26.31,26.31,0,0,1-4.74-.45,13.93,13.93,0,0,1-4.61-1.64,37.52,37.52,0,0,1,4.74-.71,45,45,0,0,1,4.65-.2,33.92,33.92,0,0,1,4.69.37A15.77,15.77,0,0,1,153.68,75.91Z"/><path class="cls-9" d="M138.07,68.17l3.36,0L143,50l-1-.68-1.37,14.89a4.57,4.57,0,0,1-1.55,3Z"/><polygon class="cls-10" points="142.89 70.62 141.43 68.19 138.07 68.17 142.89 70.62"/><polygon class="cls-9" points="142.89 70.62 141.43 68.19 149.06 68.25 142.89 70.62"/><path class="cls-9" d="M137.75,45.5s4.39.19,5.26,4.5l-.37,4.26a2.6,2.6,0,0,1-.85-2.21C142,49.77,141.27,48.48,137.75,45.5Z"/><circle class="cls-3" cx="129.84" cy="52.31" r="1.94"/><path class="cls-3" d="M124.52,52.16A5.39,5.39,0,0,1,126.7,50a7.82,7.82,0,0,1,5.76-.81,5.76,5.76,0,0,1,2.7,1.4l0,.18a18.3,18.3,0,0,0-5.38,0,17.23,17.23,0,0,0-2.64.56,15.86,15.86,0,0,0-2.5,1Z"/><circle class="cls-3" cx="157.97" cy="52.3" r="1.94"/><path class="cls-3" d="M163.28,51.93A5.36,5.36,0,0,0,161,49.85a7.85,7.85,0,0,0-2.84-.85,8,8,0,0,0-3,.26,5.79,5.79,0,0,0-2.64,1.51l0,.17a18.61,18.61,0,0,1,5.37-.21,15.91,15.91,0,0,1,2.66.46,16.27,16.27,0,0,1,2.54.89Z"/><path class="cls-11" d="M150,43.5a16.94,16.94,0,0,1,4.17-2.29,16.57,16.57,0,0,1,2.26-.77,13.06,13.06,0,0,1,2.57-.29,13.79,13.79,0,0,1,2.56.32,11,11,0,0,1,2.39.94,9.1,9.1,0,0,1,3.57,3.44l-.11.17a19.4,19.4,0,0,0-4-2.11,13.34,13.34,0,0,0-4.42-.76,18.12,18.12,0,0,0-4.48.62q-2.22.49-4.47.93Z"/><path class="cls-11" d="M137.75,43.83a17.17,17.17,0,0,0-4.11-2.39,16.65,16.65,0,0,0-2.24-.83,13.85,13.85,0,0,0-2.56-.36,13,13,0,0,0-2.57.27,10.5,10.5,0,0,0-2.41.87,9.12,9.12,0,0,0-3.66,3.35l.11.17a19.31,19.31,0,0,1,4-2,13.14,13.14,0,0,1,4.44-.65,17.92,17.92,0,0,1,4.45.73c1.48.36,3,.71,4.45,1Z"/><polygon class="cls-1" points="248.03 206.17 229.67 208.01 191.94 132.13 220.13 119.34 248.03 206.17"/><circle class="cls-12" cx="200.92" cy="123.66" r="13.8"/><circle class="cls-1" cx="237.78" cy="208.46" r="10.5"/><path class="cls-13" d="M145.48,53.06a2.72,2.72,0,0,0-5,.36l-1.87-.67a4.67,4.67,0,0,1,8.55-.57Z"/><polygon class="cls-13" points="184.65 49.05 171.18 53.27 171.15 53.28 170.91 53.31 168.14 53.66 168.14 51.12 170.91 51.47 170.65 51.51 184.2 47.58 184.65 49.05"/><path class="cls-14" d="M146.33,52.58l-.28-2.43A2,2,0,0,1,148,48a88.65,88.65,0,0,1,9.3-.45c3.32,0,7,.29,9.25.51a2,2,0,0,1,1.95,2.16l-1.19,6a2.11,2.11,0,0,1-2,1.56c-2,.18-5.44.43-8.5.43-2.68,0-5.75-.24-7.6-.42-1-.09-2.31-.76-2.47-1.58l-.41-3.63"/><path class="cls-4" d="M184.87,100s-8.62,23.31-31.19,20.17c-11.2-1.56-14.58-19.53-14.58-19.53l-27.76,6.22L128,137.45l-2.25,85.86,82.58-2.37s-4-39.44,0-71.63C210,135.76,184.87,100,184.87,100Z"/><path class="cls-1" d="M199.87,201.69c5.62-.16,38.55-.44,38.55-.44l-2.2,17.59s-31.12-4.53-37.4-5c-2.63-.21-1.47-4.82-1.47-4.82Z"/><path class="cls-4" d="M235.18,157.87l-27.51,9-19.5-26.72,35.61-17.83Z"/><circle class="cls-4" cx="208.31" cy="127.68" r="16.37"/><path class="cls-4" d="M117.93,161.66c-1.66-1.5-25.71-9.56-25.71-9.56l9.8-35.53,30.22,12.37Z"/><circle class="cls-4" cx="117.45" cy="122.06" r="16.37"/><path class="cls-4" d="M215.32,112.88,184.87,100,181,111.89l.66,5.75,16.59,5s5.75-7.71,5.75-8.24S215.32,112.88,215.32,112.88Z"/><path class="cls-1" d="M203.67,214.1l-21.86-.9a8.85,8.85,0,0,1-3.44-.85l-4.15-2a2.66,2.66,0,0,1-1.07-2.6c.26-1.51.8-3.63,1.86-4.55a6.37,6.37,0,0,1,4.27-1.27l34.62-.4Z"/><path class="cls-6" d="M158.69,4.38a16.51,16.51,0,0,1,3-2.06c.52-.28,1-.53,1.58-.78s1.09-.45,1.65-.62a17.4,17.4,0,0,1,6.89-.86,13.89,13.89,0,0,1,1.7.23l.85.14.82.23c.54.17,1.09.31,1.62.5l1.55.68c.26.11.52.21.77.34l.72.43,1.44.85c.91.63,1.78,1.32,2.66,2-1-.55-1.89-1.14-2.85-1.65l-1.5-.67-.74-.33c-.26-.1-.52-.17-.78-.25l-1.55-.47c-.52-.13-1-.2-1.58-.29l-.78-.14-.8,0a11.94,11.94,0,0,0-1.58,0,15.37,15.37,0,0,0-6,1.46c-.48.2-.92.47-1.38.7s-.87.54-1.29.84a13.88,13.88,0,0,0-2.24,1.92Z"/><path class="cls-5" d="M130.54,39.08c-2.94.4-4.83.56-11.63,1.57l31.8-21.13,7.82-6.67,7.62-1,4.73,7.64L172.23,42s-9.55-5.27-11.4-16.3a45.54,45.54,0,0,1-4.19,5c-.58.56-1.1,1.17-1.73,1.68L153.09,34c-.62.5-1.29.94-1.93,1.42l-1,.69-1,.61a35.7,35.7,0,0,1-8.65,3.77,35.71,35.71,0,0,0,8-4.67l.92-.69.86-.78c.56-.53,1.14-1,1.68-1.57l1.56-1.69c.53-.54,1-1.18,1.44-1.77a41.76,41.76,0,0,0,2.7-4C154,30,146.06,36.93,130.54,39.08Z"/><path class="cls-6" d="M184,52.05S161.39,37.77,161.1,18.17c-.21-13.84.68-14.69.68-14.69a19.61,19.61,0,0,1,17.87,1.75c10.44,6.75,18,29.33,6.22,44.07Z"/><path class="cls-1" d="M181.5,46.87c.73-2.5,4.31-10.44,9.09-5.15s-3.12,20-7.68,19.47-3-4.9-3-4.9S179.64,53.25,181.5,46.87Z"/><path class="cls-6" d="M161.1,18.17s-10.35,16.65-29.33,19.18c-17,2.27-11.57,15-11.57,15S113,45.26,113,32.75C113,18.12,121.22-.5,145.29.12c4.65.12,11.51,0,16.49,3.36l1.35,4.46Z"/><path class="cls-6" d="M164.32,16.79a36.25,36.25,0,0,1-2.44,4.37c-.88,1.38-1.84,2.69-2.83,4a45.56,45.56,0,0,1-6.77,6.9c-.64.5-1.23,1-1.9,1.48l-2,1.36c-.67.43-1.39.8-2.08,1.2l-1,.58-1.09.49a35.73,35.73,0,0,1-9,2.8,35.68,35.68,0,0,0,8.51-3.76l1-.59.93-.68c.62-.46,1.26-.88,1.85-1.37l1.73-1.5c.59-.49,1.09-1.08,1.63-1.61a42,42,0,0,0,5.58-7.18c.78-1.29,1.53-2.61,2.18-4a31.65,31.65,0,0,0,1.69-4Z"/><path class="cls-15" d="M269.32,179.18V217.7a1.45,1.45,0,0,0,1.44,1.44h26.07a1.45,1.45,0,0,0,1.45-1.44v-7.48a20.87,20.87,0,0,0,2.67.39l.64,0a7.66,7.66,0,0,0,6.56-3.84c3.06-4.76,3.22-13.48.34-18.66-1.49-2.67-3.69-4.14-6.21-4.14h-.1a12,12,0,0,0-3.9.68v-5.49a1.45,1.45,0,0,0-1.45-1.44H270.76A1.45,1.45,0,0,0,269.32,179.18Zm29,26.51v-15.9a5.35,5.35,0,0,1,4-1.38c.88,0,1.68.62,2.38,1.87,2.08,3.74,2,10.73-.2,14.13-1.12,1.74-2.32,1.86-3.13,1.79A15.15,15.15,0,0,1,298.28,205.69Z"/><rect class="cls-6" x="271.7" y="179.82" width="10.48" height="37.25" rx="1.28" transform="translate(553.87 396.88) rotate(-180)"/><path class="cls-1" d="M144.42,211l13.81-9.78,15-5.08a1.85,1.85,0,0,1,1.54.15l10.7,6.08.24,3.25-13.53-5.9-22.07,12.1a4,4,0,0,1-2.06.46C147,212.21,145.85,212.54,144.42,211Z"/><path class="cls-1" d="M152.22,208.14l-5.51,4.38s1.56,2.54,5,.54,10.47-5.57,10.47-5.57l12.71-1.31a57.44,57.44,0,0,0,5.48-2.4c0-.24-.11-2.52-.11-2.52l-6.47-3.18-7.92,2.08Z"/><path class="cls-1" d="M165,206l-11.28,8.91s.43,2,3.7,1.23,9.65-4.7,9.65-4.7l7.79-.55,6.77,2.14,4.06-7.47-8.26-4.92-9.37-.06Z"/><path class="cls-1" d="M164.17,199.68l5.59-2.89a2.22,2.22,0,0,1,1.8-.11l2.14.81-.81.5s-5,1.46-5.21,1.6A28.39,28.39,0,0,1,164.17,199.68Z"/><path class="cls-16" d="M194.85,208a12.77,12.77,0,0,1-.51,3.39h0a5.87,5.87,0,0,1-1,2.09,1.58,1.58,0,0,1-1.3.58l-2.74-.13a5.37,5.37,0,0,0,2-2.54A8.75,8.75,0,0,0,192,208a7.92,7.92,0,0,0-1.1-4.17,8.13,8.13,0,0,0-2.3-2.55h3.11a1.39,1.39,0,0,1,1,.4,6.72,6.72,0,0,1,1.36,2A9.74,9.74,0,0,1,194.85,208Z"/><path class="cls-17" d="M139.1,100.65s4.35,16.94,14.58,19.53c9.6,2.43,24-2.54,31.19-20.17"/><path class="cls-15" d="M186.55,202.81a.64.64,0,0,0,0,.07h0Z"/><path class="cls-3" d="M194.85,208a12.77,12.77,0,0,1-.51,3.39h-3.05A8.75,8.75,0,0,0,192,208a7.92,7.92,0,0,0-1.1-4.17l.09-.05,3.11-.1A9.74,9.74,0,0,1,194.85,208Z"/><path class="cls-18" d="M191.71,211.41a3.36,3.36,0,0,1-2.51,2.53,2.08,2.08,0,0,1-.43,0,1.33,1.33,0,0,1-1.24-.63l.44-.24c.26.48.94.38,1.14.34a3,3,0,0,0,2.17-2.31,11.79,11.79,0,0,0,.41-3.88,8.47,8.47,0,0,0-.8-3.17c-.58-1.31-1.4-2.25-2-2.32-1.44-.14-1.69.48-1.7.51l-.48-.14s.35-1,2.23-.87c.83.1,1.73,1.12,2.38,2.47,0,0,0,0,0,0a9.26,9.26,0,0,1,.88,3.46A12.13,12.13,0,0,1,191.71,211.41Z"/><path class="cls-2" d="M191.71,211.41l-.43-.27a11.79,11.79,0,0,0,.41-3.88,8.47,8.47,0,0,0-.8-3.17l.42-.31a9.26,9.26,0,0,1,.88,3.46A12.13,12.13,0,0,1,191.71,211.41Z"/><path class="cls-1" d="M186.33,201.79l2.06,0s-.12.38-.19.41l-1.19.4s-.07.18-.24,0a1.18,1.18,0,0,1-.25-.32Z"/><path class="cls-1" d="M187.16,213.42l1.53.07a3.72,3.72,0,0,0,0-.58,7.56,7.56,0,0,0-1-.56H187V213Z"/><polygon class="cls-19" points="264.4 214.74 259.77 217.34 259.45 217.4 251.57 218.96 251.16 217.65 259.15 215.9 264.4 214.74"/><path class="cls-19" d="M264.16,217.84a2.8,2.8,0,0,1-3.94.49,2.74,2.74,0,0,1-.77-.93,2.64,2.64,0,0,1-.3-1.5l5.25-1.16A2.83,2.83,0,0,1,264.16,217.84Z"/><path class="cls-20" d="M354.74,218.41H308.08a1.47,1.47,0,0,1-1.47-1.47v-2.29a1.47,1.47,0,0,1,1.47-1.47h46.66"/><polygon class="cls-15" points="311.98 215.79 311.98 221.63 312.79 220.91 313.46 221.63 313.53 215.79 311.98 215.79"/><line class="cls-21" x1="308.67" y1="215.79" x2="349.31" y2="215.79"/><path class="cls-22" d="M308.67,215.79a37.65,37.65,0,0,1,5.08-.24l5.08,0,10.16.05,10.16,0,10.16.12-10.16.13L329,216l-10.16.05-5.08,0A36.09,36.09,0,0,1,308.67,215.79Z"/><path class="cls-23" d="M297.72,177.74l-5.22-5.21a8.93,8.93,0,0,1,0-12.62h0a8.91,8.91,0,0,0,0-12.62l-8.16-8.16H257.16l8.16,8.16a8.91,8.91,0,0,1,0,12.62h0a8.93,8.93,0,0,0,0,12.62l5.22,5.21Z"/><path class="cls-1" d="M116.41,63.16s4.78-1.49,5.5-2.23c.93-1,.33-3,.33-3a37.15,37.15,0,0,0-5.41,1.37C115.56,59.78,115.65,62.65,116.41,63.16Z"/><polygon class="cls-1" points="119.81 88.13 94.53 161.53 73.25 152.49 108.51 83.33 119.81 88.13"/><rect class="cls-24" x="140.53" y="216.35" width="56.94" height="2.71" rx="0.57" transform="translate(338 435.41) rotate(-180)"/><path class="cls-24" d="M41.76,219.06h98.33a1.43,1.43,0,0,0,1.36-1.86l-19.63-62.53a1.44,1.44,0,0,0-1.37-1H22.12a1.43,1.43,0,0,0-1.36,1.86L40.4,218.06A1.42,1.42,0,0,0,41.76,219.06Z"/><path class="cls-3" d="M39.93,219.06h98.33a1.43,1.43,0,0,0,1.37-1.86L120,154.67a1.44,1.44,0,0,0-1.36-1H20.3a1.43,1.43,0,0,0-1.36,1.86l19.63,62.53A1.44,1.44,0,0,0,39.93,219.06Z"/><ellipse class="cls-24" cx="78.41" cy="187.14" rx="7.38" ry="8.96" transform="translate(-122.37 157.83) rotate(-58.96)"/><path class="cls-1" d="M124.52,89.55s-6.71,4.93-8.62,10.06-3.32,4.87-3.67,4.37a5.55,5.55,0,0,1-.89-4.37,51,51,0,0,1,1.68-5s-2.07-6.47,1.76-7.22,8.35-1.67,8.35-1.67h1.39Z"/><path class="cls-25" d="M139.61,52.63l.26-2.43A1.91,1.91,0,0,0,138,48.05a81.78,81.78,0,0,0-9-.46c-3.2,0-6.71.29-8.93.51a1.94,1.94,0,0,0-1.88,2.16l1.15,6a2.06,2.06,0,0,0,1.9,1.55c1.93.18,5.25.44,8.2.44,2.59,0,5.55-.25,7.33-.43,1-.09,2.23-.75,2.39-1.58l.4-3.63"/><rect class="cls-26" y="218.96" width="377.5" height="17.78"/></g></g></svg>