<svg xmlns="http://www.w3.org/2000/svg" viewBox="0 0 99.57 99.57"><defs><style>.cls-1{fill:#002147;}.cls-2{fill:#99a6b5;}.cls-3{fill:#667a91;}.cls-4{font-size:33.38px;fill:#fff;font-family:OpenSans-Bold, Open Sans;font-weight:700;}</style></defs><g id="Layer_2" data-name="Layer 2"><g id="Final_gfx" data-name="Final gfx"><circle class="cls-1" cx="49.78" cy="49.78" r="49.78"/><path class="cls-2" d="M37.14,20.22,67.6,37.43c2.28,1.28,4.14,4.14,4.14,6.36V74.63c0,2.22-1.86,3-4.14,1.7L56.05,69.81l-4.37,6.07c-.54.74-1.42.25-2-1.11l-4.38-11-8.21-4.64C34.86,57.85,33,55,33,52.76V21.93C33,19.71,34.86,18.94,37.14,20.22Z"/><path class="cls-2" d="M65.74,79.6l5.05-2.94s-.47-1.26-.51-1.34a9.51,9.51,0,0,0-1.1-.65L64,73.3l-.27,1.2,2,5.1"/><polygon class="cls-2" points="46.26 79.13 51.41 76.13 50.83 74.08 49.51 73.16 48.56 73.04 46.42 74.97 46.26 79.13"/><path class="cls-2" d="M34,19.89l-5.23,3.05s1.2,1.13,1.4,1.23,3.31,1.56,3.31,1.56l1.31-.2L35.27,24Z"/><path class="cls-3" d="M32,23.23,62.43,40.44c2.28,1.28,4.14,4.14,4.14,6.36V77.64c0,2.22-1.86,3-4.14,1.7L50.88,72.82l-4.37,6.07c-.54.74-1.42.25-1.95-1.1l-4.38-11L32,62.14c-2.28-1.28-4.14-4.15-4.14-6.37V24.94A2.17,2.17,0,0,1,29,22.81,3.36,3.36,0,0,1,32,23.23Z"/><text class="cls-4" transform="matrix(0.87, 0.5, 0, 1, 42.63, 60.9)">!</text></g></g></svg>