<svg xmlns="http://www.w3.org/2000/svg" viewBox="0 0 670.26 426.5"><defs><style>.cls-1{fill:#1c395b;}.cls-2{fill:#395370;}.cls-3{fill:#718399;}.cls-4{fill:#002147;}.cls-5{fill:#1c4944;}.cls-6{fill:#718d8a;}.cls-7{fill:#aabbb9;}.cls-8{fill:#39605c;}.cls-9{fill:#00322d;}.cls-10{fill:#441c49;}.cls-11{fill:#5c3960;}.cls-12{fill:#2d0032;}.cls-13{fill:#735576;}</style></defs><g id="Layer_2" data-name="Layer 2"><g id="Final_gfx" data-name="Final gfx"><rect class="cls-1" x="43.81" y="176.85" width="56.36" height="199.06"/><path class="cls-2" d="M35,371.53H109a7.13,7.13,0,0,1,7.13,7.13v12.52a0,0,0,0,1,0,0H27.9a0,0,0,0,1,0,0V378.66A7.13,7.13,0,0,1,35,371.53Z"/><rect class="cls-3" x="36.44" y="368.47" width="71.11" height="3.06"/><path class="cls-3" d="M107.54,368.47s-7.37.25-7.37-8.91V370h5.47Z"/><path class="cls-3" d="M36.44,368.47s7.37.25,7.37-8.91V370H38.34Z"/><rect class="cls-3" x="43.81" y="359.56" width="56.36" height="10.97"/><path class="cls-2" d="M35,149.77H109a7.13,7.13,0,0,1,7.13,7.13v12.52a0,0,0,0,1,0,0H27.9a0,0,0,0,1,0,0V156.9A7.13,7.13,0,0,1,35,149.77Z" transform="translate(143.98 319.19) rotate(180)"/><rect class="cls-3" x="36.44" y="169.42" width="71.11" height="3.06" transform="translate(143.98 341.9) rotate(180)"/><path class="cls-3" d="M36.44,172.48s7.37-.25,7.37,8.91V171H38.34Z"/><path class="cls-3" d="M107.54,172.48s-7.37-.25-7.37,8.91V171h5.47Z"/><rect class="cls-3" x="43.81" y="170.41" width="56.36" height="10.97" transform="translate(143.98 351.8) rotate(180)"/><rect class="cls-4" x="50.79" y="185.24" width="7.26" height="170.47" rx="3.63"/><rect class="cls-4" x="68.36" y="185.24" width="7.26" height="170.47" rx="3.63"/><rect class="cls-4" x="85.94" y="185.24" width="7.26" height="170.47" rx="3.63"/><path class="cls-1" d="M12.46,391.07H131.53a8.07,8.07,0,0,1,8.07,8.07V426.5a0,0,0,0,1,0,0H4.39a0,0,0,0,1,0,0V399.14A8.07,8.07,0,0,1,12.46,391.07Z"/><rect class="cls-1" x="219.24" y="176.85" width="56.36" height="199.06"/><path class="cls-2" d="M210.45,371.53h73.93a7.13,7.13,0,0,1,7.13,7.13v12.52a0,0,0,0,1,0,0H203.32a0,0,0,0,1,0,0V378.66A7.13,7.13,0,0,1,210.45,371.53Z"/><rect class="cls-3" x="211.86" y="368.47" width="71.11" height="3.06"/><path class="cls-3" d="M283,368.47s-7.38.25-7.38-8.91V370h5.48Z"/><path class="cls-3" d="M211.86,368.47s7.38.25,7.38-8.91V370h-5.48Z"/><rect class="cls-3" x="219.24" y="359.56" width="56.36" height="10.97"/><path class="cls-2" d="M210.45,149.77h73.93a7.13,7.13,0,0,1,7.13,7.13v12.52a0,0,0,0,1,0,0H203.32a0,0,0,0,1,0,0V156.9A7.13,7.13,0,0,1,210.45,149.77Z" transform="translate(494.83 319.19) rotate(180)"/><rect class="cls-3" x="211.86" y="169.42" width="71.11" height="3.06" transform="translate(494.83 341.9) rotate(180)"/><path class="cls-3" d="M211.86,172.48s7.38-.25,7.38,8.91V171h-5.48Z"/><path class="cls-3" d="M283,172.48s-7.38-.25-7.38,8.91V171h5.48Z"/><rect class="cls-3" x="219.24" y="170.41" width="56.36" height="10.97" transform="translate(494.83 351.8) rotate(180)"/><rect class="cls-4" x="226.21" y="185.24" width="7.26" height="170.47" rx="3.63"/><rect class="cls-4" x="243.79" y="185.24" width="7.26" height="170.47" rx="3.63"/><rect class="cls-4" x="261.36" y="185.24" width="7.26" height="170.47" rx="3.63"/><path class="cls-1" d="M187.88,391.07H307a8.07,8.07,0,0,1,8.07,8.07V426.5a0,0,0,0,1,0,0H179.81a0,0,0,0,1,0,0V399.14A8.07,8.07,0,0,1,187.88,391.07Z"/><rect class="cls-1" x="394.66" y="176.85" width="56.36" height="199.06"/><path class="cls-2" d="M385.88,371.53H459.8a7.13,7.13,0,0,1,7.13,7.13v12.52a0,0,0,0,1,0,0H378.75a0,0,0,0,1,0,0V378.66A7.13,7.13,0,0,1,385.88,371.53Z"/><rect class="cls-3" x="387.29" y="368.47" width="71.11" height="3.06"/><path class="cls-3" d="M458.39,368.47s-7.37.25-7.37-8.91V370h5.47Z"/><path class="cls-3" d="M387.29,368.47s7.37.25,7.37-8.91V370h-5.47Z"/><rect class="cls-3" x="394.66" y="359.56" width="56.36" height="10.97"/><path class="cls-2" d="M385.88,149.77H459.8a7.13,7.13,0,0,1,7.13,7.13v12.52a0,0,0,0,1,0,0H378.75a0,0,0,0,1,0,0V156.9a7.13,7.13,0,0,1,7.13-7.13Z" transform="translate(845.68 319.19) rotate(180)"/><rect class="cls-3" x="387.29" y="169.42" width="71.11" height="3.06" transform="translate(845.68 341.9) rotate(180)"/><path class="cls-3" d="M387.29,172.48s7.37-.25,7.37,8.91V171h-5.47Z"/><path class="cls-3" d="M458.39,172.48s-7.37-.25-7.37,8.91V171h5.47Z"/><rect class="cls-3" x="394.66" y="170.41" width="56.36" height="10.97" transform="translate(845.68 351.8) rotate(180)"/><rect class="cls-4" x="401.64" y="185.24" width="7.26" height="170.47" rx="3.63"/><rect class="cls-4" x="419.21" y="185.24" width="7.26" height="170.47" rx="3.63"/><rect class="cls-4" x="436.79" y="185.24" width="7.26" height="170.47" rx="3.63"/><path class="cls-1" d="M363.31,391.07H482.38a8.07,8.07,0,0,1,8.07,8.07V426.5a0,0,0,0,1,0,0H355.24a0,0,0,0,1,0,0V399.14A8.07,8.07,0,0,1,363.31,391.07Z"/><rect class="cls-5" x="570.09" y="176.85" width="56.36" height="199.06"/><path class="cls-6" d="M561.3,371.53h73.93a7.13,7.13,0,0,1,7.13,7.13v12.52a0,0,0,0,1,0,0H554.17a0,0,0,0,1,0,0V378.66A7.13,7.13,0,0,1,561.3,371.53Z"/><rect class="cls-7" x="562.71" y="368.47" width="71.11" height="3.06"/><path class="cls-7" d="M633.82,368.47s-7.38.25-7.38-8.91V370h5.48Z"/><path class="cls-7" d="M562.71,368.47s7.38.25,7.38-8.91V370h-5.48Z"/><rect class="cls-7" x="570.09" y="359.56" width="56.36" height="10.97"/><path class="cls-8" d="M561.3,149.77h73.93a7.13,7.13,0,0,1,7.13,7.13v12.52a0,0,0,0,1,0,0H554.17a0,0,0,0,1,0,0V156.9A7.13,7.13,0,0,1,561.3,149.77Z" transform="translate(1196.53 319.19) rotate(180)"/><rect class="cls-7" x="562.71" y="169.42" width="71.11" height="3.06" transform="translate(1196.53 341.9) rotate(180)"/><path class="cls-7" d="M562.71,172.48s7.38-.25,7.38,8.91V171h-5.48Z"/><path class="cls-7" d="M633.82,172.48s-7.38-.25-7.38,8.91V171h5.48Z"/><rect class="cls-7" x="570.09" y="170.41" width="56.36" height="10.97" transform="translate(1196.53 351.8) rotate(180)"/><rect class="cls-9" x="577.06" y="185.24" width="7.26" height="170.47" rx="3.63"/><rect class="cls-9" x="594.64" y="185.24" width="7.26" height="170.47" rx="3.63"/><rect class="cls-9" x="612.21" y="185.24" width="7.26" height="170.47" rx="3.63"/><path class="cls-8" d="M538.73,391.07H657.8a8.07,8.07,0,0,1,8.07,8.07V426.5a0,0,0,0,1,0,0H530.66a0,0,0,0,1,0,0V399.14A8.07,8.07,0,0,1,538.73,391.07Z"/><path class="cls-10" d="M8.16,133.11H662.1a8.16,8.16,0,0,1,8.16,8.16v8.5a0,0,0,0,1,0,0H0a0,0,0,0,1,0,0v-8.5A8.16,8.16,0,0,1,8.16,133.11Z"/><polygon class="cls-11" points="615.26 121.75 336.69 0 53.34 121.75 615.26 121.75"/><polygon class="cls-12" points="107.24 111.61 337.07 9.97 563.02 111.61 107.24 111.61"/><path class="cls-13" d="M634.1,121.33l-.09.1v-.1H36.25v.1l-.09-.1s-12.23,11.78-24.74,11.78H658.84C646.33,133.11,634.1,121.33,634.1,121.33Z"/></g></g></svg>