<svg xmlns="http://www.w3.org/2000/svg" xmlns:xlink="http://www.w3.org/1999/xlink" viewBox="0 0 482.11 236.74"><defs><style>.cls-1{fill:#ece8ec;}.cls-2,.cls-20,.cls-5{fill:none;}.cls-2{stroke:#ded7df;}.cls-2,.cls-20,.cls-24,.cls-5{stroke-miterlimit:10;}.cls-3{fill:#ded7df;}.cls-4{fill:#d0c6d1;}.cls-5{stroke:#d0c6d1;}.cls-24,.cls-5{stroke-linecap:round;}.cls-6{fill:#e0b097;}.cls-7{fill:#5c3960;}.cls-13,.cls-8{fill:#cb7c51;}.cls-8{opacity:0.43;}.cls-9{fill:#fdd072;}.cls-10{fill:#ffb014;}.cls-11{fill:#c65552;}.cls-12{fill:#d59674;}.cls-14{fill:#002147;}.cls-15{fill:#7d4921;}.cls-16{fill:#eed5c7;}.cls-17{fill:#a28ea4;}.cls-18{fill:#ffb414;}.cls-19{fill:#aab5c2;}.cls-20{stroke:#a28ea4;stroke-width:5px;}.cls-21{fill:#e3e7eb;}.cls-22{fill:#395370;}.cls-23{fill:#fff;}.cls-24,.cls-26{fill:#8e9dad;}.cls-24{stroke:#002147;stroke-width:2px;}.cls-25{fill:#c6cdd6;}.cls-27{fill:url(#linear-gradient);}.cls-28{fill:#718399;}</style><linearGradient id="linear-gradient" x1="368.68" y1="181.18" x2="371.14" y2="140.67" gradientUnits="userSpaceOnUse"><stop offset="0" stop-color="#fff"/><stop offset="1" stop-color="#fff" stop-opacity="0"/></linearGradient></defs><g id="Layer_2" data-name="Layer 2"><g id="illustrations"><path class="cls-1" d="M482.11,92.66V236.74H59.34A59.35,59.35,0,0,1,0,177.4V33.32H422.77A59.34,59.34,0,0,1,482.11,92.66Z"/><line class="cls-2" x1="402.14" y1="51.93" x2="402.14" y2="33.32"/><path class="cls-3" d="M413.26,68.15a11.09,11.09,0,1,0-22.17.19Z"/><path class="cls-3" d="M399.28,68.27a3.22,3.22,0,0,0,5.79,0Z"/><path class="cls-3" d="M402,51.49h0a2.8,2.8,0,0,0-2.75,2.42l-.5,3.73,6.61-.06-.57-3.72A2.78,2.78,0,0,0,402,51.49Z"/><line class="cls-2" x1="299.78" y1="51.93" x2="299.78" y2="33.32"/><path class="cls-3" d="M310.89,68.15a11.09,11.09,0,1,0-22.17.19Z"/><path class="cls-3" d="M296.91,68.27a3.22,3.22,0,0,0,5.79,0Z"/><path class="cls-3" d="M299.66,51.49h0a2.8,2.8,0,0,0-2.75,2.42l-.5,3.73,6.61-.06-.57-3.72A2.78,2.78,0,0,0,299.66,51.49Z"/><line class="cls-2" x1="197.41" y1="51.93" x2="197.41" y2="33.32"/><path class="cls-3" d="M208.52,68.15a11.09,11.09,0,1,0-22.17.19Z"/><path class="cls-3" d="M194.54,68.27a3.22,3.22,0,0,0,5.79,0Z"/><path class="cls-3" d="M197.29,51.49h0a2.78,2.78,0,0,0-2.74,2.42L194,57.64l6.61-.06-.57-3.72A2.78,2.78,0,0,0,197.29,51.49Z"/><path class="cls-3" d="M125.14,99.61a29.25,29.25,0,0,1-2.49,10c-.26.59-.56,1.19-.89,1.79a19.71,19.71,0,0,1-4.22,5.26h-5.43a19.86,19.86,0,0,1-4.45-5.68c-.24-.46-.47-.91-.67-1.37a29.09,29.09,0,0,1-2.48-10Z"/><rect class="cls-4" x="103.77" y="97.3" width="22.11" height="2.3"/><path class="cls-4" d="M125.88,120.52v26.29H103.77V120.52a1.79,1.79,0,0,1,1.79-1.79h18.53A1.79,1.79,0,0,1,125.88,120.52Z"/><rect class="cls-3" x="103.77" y="143.06" width="22.11" height="3.75"/><rect class="cls-3" x="52.57" y="125" width="42.37" height="18.78"/><rect class="cls-4" x="51.26" y="120.04" width="44.79" height="6.21"/><path class="cls-4" d="M62.68,137.24h7.76a0,0,0,0,1,0,0v2.67a3.88,3.88,0,0,1-3.88,3.88h0a3.88,3.88,0,0,1-3.88-3.88v-2.67a0,0,0,0,1,0,0Z"/><path class="cls-4" d="M76.59,137.24h7.76a0,0,0,0,1,0,0v2.67a3.88,3.88,0,0,1-3.88,3.88h0a3.88,3.88,0,0,1-3.88-3.88v-2.67A0,0,0,0,1,76.59,137.24Z"/><rect class="cls-4" x="51.26" y="143.78" width="44.79" height="3.03"/><path class="cls-4" d="M122.65,109.57c-.26.59-.56,1.19-.89,1.79a19.71,19.71,0,0,1-4.22,5.26h-5.43a19.86,19.86,0,0,1-4.45-5.68c-.24-.46-.47-.91-.67-1.37Z"/><path class="cls-3" d="M111.16,116.62h7.32a.92.92,0,0,1,.92.92v1.2a0,0,0,0,1,0,0h-9.16a0,0,0,0,1,0,0v-1.2A.92.92,0,0,1,111.16,116.62Z"/><path class="cls-3" d="M402.08,149v74.35H21.74A59.32,59.32,0,0,1,0,177.41V149Z"/><rect class="cls-4" y="146.81" width="409.23" height="7.5"/><path class="cls-4" d="M88.07,163.48h36.22a0,0,0,0,1,0,0v0a7.65,7.65,0,0,1-7.65,7.65H95.73a7.65,7.65,0,0,1-7.65-7.65v0A0,0,0,0,1,88.07,163.48Z"/><rect class="cls-4" x="103.38" y="167.31" width="5.6" height="8.93"/><rect class="cls-4" x="103.38" y="220.65" width="5.6" height="5.41"/><rect class="cls-4" x="104.87" y="172.63" width="2.61" height="51.51"/><path class="cls-4" d="M92.05,224.14h28.26a3.59,3.59,0,0,1,3.59,3.59v0a0,0,0,0,1,0,0H88.46a0,0,0,0,1,0,0v0A3.59,3.59,0,0,1,92.05,224.14Z"/><path class="cls-4" d="M162.82,163.48H199a0,0,0,0,1,0,0v0a7.65,7.65,0,0,1-7.65,7.65H170.47a7.65,7.65,0,0,1-7.65-7.65v0A0,0,0,0,1,162.82,163.48Z"/><rect class="cls-4" x="178.13" y="167.31" width="5.6" height="8.93"/><rect class="cls-4" x="178.13" y="220.65" width="5.6" height="5.41"/><rect class="cls-4" x="179.62" y="172.63" width="2.61" height="51.51"/><path class="cls-4" d="M166.8,224.14h28.26a3.59,3.59,0,0,1,3.59,3.59v0a0,0,0,0,1,0,0H163.21a0,0,0,0,1,0,0v0a3.59,3.59,0,0,1,3.59-3.59Z"/><path class="cls-4" d="M237.57,163.48h36.22a0,0,0,0,1,0,0v0a7.65,7.65,0,0,1-7.65,7.65H245.22a7.65,7.65,0,0,1-7.65-7.65v0a0,0,0,0,1,0,0Z"/><rect class="cls-4" x="252.88" y="167.31" width="5.6" height="8.93"/><rect class="cls-4" x="252.88" y="220.65" width="5.6" height="5.41"/><rect class="cls-4" x="254.37" y="172.63" width="2.61" height="51.51"/><path class="cls-4" d="M241.55,224.14h28.26a3.59,3.59,0,0,1,3.59,3.59v0a0,0,0,0,1,0,0H238a0,0,0,0,1,0,0v0A3.59,3.59,0,0,1,241.55,224.14Z"/><path class="cls-4" d="M312.32,163.48h36.22a0,0,0,0,1,0,0v0a7.65,7.65,0,0,1-7.65,7.65H320a7.65,7.65,0,0,1-7.65-7.65v0A0,0,0,0,1,312.32,163.48Z"/><rect class="cls-4" x="327.63" y="167.31" width="5.6" height="8.93"/><rect class="cls-4" x="327.63" y="220.65" width="5.6" height="5.41"/><rect class="cls-4" x="329.12" y="172.63" width="2.61" height="51.51"/><path class="cls-4" d="M316.3,224.14h28.26a3.59,3.59,0,0,1,3.59,3.59v0a0,0,0,0,1,0,0H312.71a0,0,0,0,1,0,0v0A3.59,3.59,0,0,1,316.3,224.14Z"/><path class="cls-4" d="M13.32,163.48H49.54a0,0,0,0,1,0,0v0a7.65,7.65,0,0,1-7.65,7.65H21a7.65,7.65,0,0,1-7.65-7.65v0a0,0,0,0,1,0,0Z"/><rect class="cls-4" x="28.63" y="167.31" width="5.6" height="8.93"/><rect class="cls-4" x="28.63" y="220.65" width="5.6" height="5.41"/><rect class="cls-4" x="30.12" y="172.63" width="2.61" height="51.51"/><rect class="cls-3" x="163.79" y="94.23" width="245.44" height="4.73"/><rect class="cls-3" x="163.79" y="109.33" width="245.44" height="4.73"/><rect class="cls-3" x="309.34" y="121.73" width="36.57" height="20.85"/><polygon class="cls-3" points="333.23 146.81 322.02 146.81 324.61 137.98 330.64 137.98 333.23 146.81"/><rect class="cls-3" x="18.32" y="49.67" width="66.45" height="52.19"/><rect class="cls-1" x="24.49" y="55.49" width="54.1" height="3.26"/><path class="cls-3" d="M377.16,103.17h5.93a0,0,0,0,1,0,0v3.36a2.8,2.8,0,0,1-2.8,2.8H380a2.8,2.8,0,0,1-2.8-2.8v-3.36A0,0,0,0,1,377.16,103.17Z"/><path class="cls-3" d="M386.85,103.17h5.93a0,0,0,0,1,0,0v3.36a2.8,2.8,0,0,1-2.8,2.8h-.32a2.8,2.8,0,0,1-2.8-2.8v-3.36a0,0,0,0,1,0,0Z"/><path class="cls-3" d="M357.76,103.17h5.93a0,0,0,0,1,0,0v3.36a2.8,2.8,0,0,1-2.8,2.8h-.32a2.8,2.8,0,0,1-2.8-2.8v-3.36A0,0,0,0,1,357.76,103.17Z"/><path class="cls-3" d="M367.46,103.17h5.93a0,0,0,0,1,0,0v3.36a2.8,2.8,0,0,1-2.8,2.8h-.32a2.8,2.8,0,0,1-2.8-2.8v-3.36A0,0,0,0,1,367.46,103.17Z"/><polygon class="cls-3" points="349.21 109.33 344.77 109.33 344 100.85 349.99 100.85 349.21 109.33"/><polygon class="cls-3" points="338.36 109.33 333.91 109.33 333.14 100.85 339.13 100.85 338.36 109.33"/><polygon class="cls-3" points="327.5 109.33 323.05 109.33 322.28 100.85 328.27 100.85 327.5 109.33"/><polygon class="cls-3" points="316.64 109.33 312.19 109.33 311.42 100.85 317.41 100.85 316.64 109.33"/><polygon class="cls-3" points="305.78 109.33 301.33 109.33 300.56 100.85 306.55 100.85 305.78 109.33"/><polygon class="cls-3" points="294.92 109.33 290.47 109.33 289.7 100.85 295.69 100.85 294.92 109.33"/><polygon class="cls-3" points="284.06 109.33 279.61 109.33 278.84 100.85 284.83 100.85 284.06 109.33"/><polygon class="cls-3" points="273.2 109.33 268.75 109.33 267.98 100.85 273.97 100.85 273.2 109.33"/><polygon class="cls-3" points="262.34 109.33 257.89 109.33 257.12 100.85 263.11 100.85 262.34 109.33"/><rect class="cls-3" x="168.98" y="101.56" width="5.57" height="7.77" rx="0.77"/><rect class="cls-3" x="169.91" y="100.5" width="3.71" height="1.62"/><rect class="cls-3" x="178.12" y="101.56" width="5.57" height="7.77" rx="0.77"/><rect class="cls-3" x="179.05" y="100.5" width="3.71" height="1.62"/><rect class="cls-3" x="187.25" y="101.56" width="5.57" height="7.77" rx="0.77"/><rect class="cls-3" x="188.18" y="100.5" width="3.71" height="1.62"/><rect class="cls-3" x="196.38" y="101.56" width="5.57" height="7.77" rx="0.77"/><rect class="cls-3" x="197.31" y="100.5" width="3.71" height="1.62"/><polygon class="cls-3" points="453.51 233.99 435.82 233.99 427.21 193.49 462.12 193.49 453.51 233.99"/><path class="cls-3" d="M455.48,191a25.52,25.52,0,0,1-12.24,4.47,23.29,23.29,0,0,1,20.16-14.81A25.55,25.55,0,0,1,455.48,191Z"/><path class="cls-3" d="M433.85,191a25.52,25.52,0,0,0,12.24,4.47,23.29,23.29,0,0,0-20.16-14.81A25.45,25.45,0,0,0,433.85,191Z"/><path class="cls-3" d="M449.83,170.53a66.24,66.24,0,0,1-5.17,25,63.26,63.26,0,0,1,0-50.05A66.32,66.32,0,0,1,449.83,170.53Z"/><path class="cls-3" d="M457.38,178.08a55.86,55.86,0,0,1-9.24,19.44,53.29,53.29,0,0,1,10-40.94A55.94,55.94,0,0,1,457.38,178.08Z"/><path class="cls-3" d="M432,178.08a55.74,55.74,0,0,0,9.23,19.44,53.18,53.18,0,0,0-10-40.94A55.83,55.83,0,0,0,432,178.08Z"/><path class="cls-3" d="M444.63,184s-5.46,0-5.53.38-1.67,2.15.31,3.54,4.75,3.26,4.75,3.26,5.6-.53,5.89-1,.85-1.61.85-1.61l-3.84-6Z"/><path class="cls-4" d="M63.43,126.25h6.73a0,0,0,0,1,0,0v1.69a3.37,3.37,0,0,1-3.37,3.37h0a3.37,3.37,0,0,1-3.37-3.37v-1.69a0,0,0,0,1,0,0Z"/><line class="cls-5" x1="58.83" y1="128.28" x2="66.19" y2="128.28"/><path class="cls-4" d="M80.48,126.25h0a3.37,3.37,0,0,1,3.37,3.37v1.69a0,0,0,0,1,0,0H77.12a0,0,0,0,1,0,0v-1.69a3.37,3.37,0,0,1,3.37-3.37Z" transform="translate(160.97 257.56) rotate(-180)"/><line class="cls-5" x1="88.45" y1="128.28" x2="81.09" y2="128.28"/><rect class="cls-3" x="375.38" y="129.58" width="14.94" height="17.24" rx="2.25"/><rect class="cls-3" x="378.45" y="127.68" width="8.79" height="2.44"/><path class="cls-6" d="M188.38,143.93l-6.59,24.51,16,1.65s8.61-2.34,9.53-3.19,12.1-17.71,12.1-17.71l-1.29-3.48Z"/><path class="cls-7" d="M224.11,130.91s-27.29,26.41-6.25,41.07l.49,51.33,12.71-.17,6.12-51.79Z"/><polygon class="cls-6" points="130.07 208.85 167.17 202.68 162.62 219.06 129.52 219.06 130.07 208.85"/><circle class="cls-6" cx="182.91" cy="206.1" r="10.5"/><path class="cls-6" d="M144.85,201.47c1.48.21,35.71-3.09,35.71-3.09l4.79,17.93a80.63,80.63,0,0,1-21.43-.67c-10.25-1.68-13.69-1.39-20-1.88-2.63-.2-1.47-4.82-1.47-4.82Z"/><path class="cls-6" d="M231.72,100.65l-4.94,17.67,21.64,5.33s10.42-3.84,11.74-3.89,31.15-13.58,31.15-13.58a111.8,111.8,0,0,1-11.82-5.13C273.42,98,267,93.86,265.75,89.73c-.8-2.55-1.59-5.09-2.38-7.65L258,64.81l-15.18,3.33-2.76,17.25,2,11.08C237.87,100,231.72,100.65,231.72,100.65Z"/><path class="cls-8" d="M240.07,85.39l1.49,8.15c8.12-1.37,18.73-8.9,21.06-13.86L258,64.81l-15.18,3.33Z"/><polygon class="cls-9" points="209.97 39.61 209.52 43.63 211.53 49.38 212.82 52.32 214.16 52.05 215.75 48.27 212.33 36.38 209.97 39.61"/><path class="cls-10" d="M270.07,69.42S284.56,67.35,281,40.25l-8,1L264.85,61.2Z"/><path class="cls-6" d="M212.37,47.74c1,25,15.39,43.47,26.26,42.61,22-1.75,35-15.28,37.67-42.61,2.33-24-14.31-43.65-32-43.65S211.37,23.65,212.37,47.74Z"/><path class="cls-11" d="M243.94,75.76a5.67,5.67,0,0,1-2.26,4.09,7.79,7.79,0,0,1-9.31.13A5.81,5.81,0,0,1,230,76a15.51,15.51,0,0,0,3.66,1.6A11.83,11.83,0,0,0,237,78a11.55,11.55,0,0,0,3.35-.51A13.88,13.88,0,0,0,243.94,75.76Z"/><path class="cls-11" d="M246.3,75.91a30.34,30.34,0,0,1-4.71,1,33.51,33.51,0,0,1-4.7.28,26.31,26.31,0,0,1-4.74-.45,13.93,13.93,0,0,1-4.61-1.64,37.52,37.52,0,0,1,4.74-.71,45,45,0,0,1,4.65-.2,33.92,33.92,0,0,1,4.69.37A15.77,15.77,0,0,1,246.3,75.91Z"/><path class="cls-12" d="M230.69,68.17l3.36,0L235.63,50l-1-.68-1.37,14.89a4.57,4.57,0,0,1-1.55,3Z"/><polygon class="cls-13" points="235.51 70.62 234.05 68.19 230.69 68.17 235.51 70.62"/><polygon class="cls-12" points="235.51 70.62 234.05 68.19 241.68 68.25 235.51 70.62"/><path class="cls-12" d="M230.37,45.5s4.39.19,5.26,4.5l-.37,4.26a2.6,2.6,0,0,1-.85-2.21C234.62,49.77,233.89,48.48,230.37,45.5Z"/><circle class="cls-14" cx="222.46" cy="52.31" r="1.94"/><path class="cls-14" d="M217.14,52.16A5.39,5.39,0,0,1,219.32,50a7.82,7.82,0,0,1,5.76-.81,5.76,5.76,0,0,1,2.7,1.4l0,.18a18.3,18.3,0,0,0-5.38,0,17.23,17.23,0,0,0-2.64.56,15.86,15.86,0,0,0-2.5,1Z"/><circle class="cls-14" cx="250.59" cy="52.3" r="1.94"/><path class="cls-14" d="M255.9,51.93a5.36,5.36,0,0,0-2.26-2.08A7.85,7.85,0,0,0,250.8,49a8,8,0,0,0-3,.26,5.79,5.79,0,0,0-2.64,1.51l0,.17a18.61,18.61,0,0,1,5.37-.21,15.91,15.91,0,0,1,2.66.46,16.27,16.27,0,0,1,2.54.89Z"/><path class="cls-15" d="M242.64,43.5a16.94,16.94,0,0,1,4.17-2.29,16.57,16.57,0,0,1,2.26-.77,13,13,0,0,1,2.57-.29,13.79,13.79,0,0,1,2.56.32,11,11,0,0,1,2.39.94,9.1,9.1,0,0,1,3.57,3.44l-.11.17a19.4,19.4,0,0,0-4-2.11,13.34,13.34,0,0,0-4.42-.76,18.12,18.12,0,0,0-4.48.62q-2.22.49-4.47.93Z"/><path class="cls-15" d="M230.37,43.83a17.17,17.17,0,0,0-4.11-2.39,16.65,16.65,0,0,0-2.24-.83,13.85,13.85,0,0,0-2.56-.36,13,13,0,0,0-2.57.27,10.5,10.5,0,0,0-2.41.87,9.12,9.12,0,0,0-3.66,3.35l.11.17a19.31,19.31,0,0,1,4-2,13.14,13.14,0,0,1,4.44-.65,17.92,17.92,0,0,1,4.45.73c1.48.36,3,.71,4.45,1Z"/><polygon class="cls-6" points="340.64 206.17 322.29 208.01 284.56 132.13 312.75 119.33 340.64 206.17"/><circle class="cls-16" cx="293.54" cy="123.66" r="13.8"/><circle class="cls-6" cx="330.4" cy="208.46" r="10.5"/><path class="cls-7" d="M277.49,100s-8.62,23.31-31.19,20.17c-11.2-1.56-14.58-19.53-14.58-19.53L204,106.87l16.64,30.58-2.25,85.86,82.58-2.37s-4-39.44,0-71.63C302.6,135.76,277.49,100,277.49,100Z"/><path class="cls-6" d="M292.49,201.69c5.62-.16,38.55-.44,38.55-.44l-2.2,17.59s-31.12-4.53-37.4-5C288.81,213.62,290,209,290,209Z"/><path class="cls-7" d="M327.8,157.87l-27.51,9-19.5-26.72,35.61-17.83Z"/><circle class="cls-7" cx="300.93" cy="127.68" r="16.37"/><path class="cls-7" d="M210.55,161.66c-1.66-1.5-25.71-9.56-25.71-9.56l9.8-35.53,30.22,12.37Z"/><circle class="cls-7" cx="210.07" cy="122.06" r="16.37"/><path class="cls-17" d="M482.11,219v17.78H59.34A59.14,59.14,0,0,1,17,219Z"/><path class="cls-7" d="M307.94,112.88,277.49,100l-3.84,11.88.66,5.75,16.59,5s5.75-7.71,5.75-8.24S307.94,112.88,307.94,112.88Z"/><path class="cls-6" d="M296.29,214.1l-21.86-.9a8.85,8.85,0,0,1-3.44-.85l-4.15-2a2.66,2.66,0,0,1-1.07-2.6c.26-1.51.8-3.63,1.86-4.55a6.37,6.37,0,0,1,4.27-1.27l34.62-.4Z"/><path class="cls-9" d="M251.31,4.38a16.51,16.51,0,0,1,3-2.06c.52-.28,1-.53,1.58-.78s1.09-.45,1.65-.62a17.4,17.4,0,0,1,6.89-.86,13.89,13.89,0,0,1,1.7.23l.85.14.82.23c.54.17,1.09.31,1.62.5l1.55.68c.26.11.52.21.77.34l.72.43,1.44.85c.91.63,1.78,1.32,2.66,2-1-.55-1.89-1.14-2.85-1.65l-1.5-.67-.75-.33c-.25-.1-.51-.17-.77-.25l-1.55-.47c-.52-.13-1.05-.2-1.58-.29l-.78-.14-.8,0a11.94,11.94,0,0,0-1.58,0,15.37,15.37,0,0,0-6,1.46c-.48.2-.92.47-1.38.7s-.87.54-1.29.84a13.88,13.88,0,0,0-2.24,1.92Z"/><path class="cls-8" d="M223.16,39.08c-2.94.4-4.83.56-11.63,1.57l31.8-21.13,7.82-6.67,7.62-1,4.73,7.64L264.85,42s-9.55-5.27-11.4-16.3a45.54,45.54,0,0,1-4.19,5c-.58.56-1.1,1.17-1.73,1.68L245.71,34c-.62.5-1.29.94-1.93,1.42l-1,.69-1,.61a35.7,35.7,0,0,1-8.65,3.77,35.71,35.71,0,0,0,8-4.67l.92-.69.85-.78c.57-.53,1.15-1,1.69-1.57l1.56-1.69c.52-.54,1-1.18,1.44-1.77a41.76,41.76,0,0,0,2.7-4C246.61,30,238.68,36.93,223.16,39.08Z"/><path class="cls-9" d="M276.58,52.05S254,37.77,253.72,18.17c-.21-13.84.68-14.69.68-14.69a19.61,19.61,0,0,1,17.87,1.75c10.44,6.75,18,29.33,6.22,44.07Z"/><path class="cls-6" d="M274.12,46.87c.73-2.5,4.31-10.44,9.09-5.15s-3.12,20-7.68,19.47-3-4.9-3-4.9S272.26,53.25,274.12,46.87Z"/><path class="cls-9" d="M253.72,18.17s-10.35,16.65-29.33,19.18c-17,2.27-11.57,15-11.57,15s-7.18-7.06-7.18-19.57c0-14.63,8.2-33.25,32.27-32.63,4.65.12,11.51,0,16.49,3.36l1.35,4.46Z"/><path class="cls-9" d="M256.94,16.79a36.25,36.25,0,0,1-2.44,4.37c-.88,1.38-1.84,2.69-2.83,4A45.56,45.56,0,0,1,244.9,32c-.64.5-1.23,1-1.91,1.48l-2,1.36c-.67.43-1.39.8-2.08,1.2l-1,.58-1.09.49a35.73,35.73,0,0,1-9,2.8,35.68,35.68,0,0,0,8.51-3.76l1-.59.93-.68c.62-.46,1.26-.88,1.85-1.37l1.73-1.5c.59-.49,1.09-1.08,1.63-1.61A42,42,0,0,0,249,23.25c.78-1.29,1.53-2.61,2.18-4a31.65,31.65,0,0,0,1.69-4Z"/><path class="cls-14" d="M75.91,211.41h28.56a0,0,0,0,1,0,0v0a7.64,7.64,0,0,1-7.64,7.64H83.55a7.64,7.64,0,0,1-7.64-7.64v0a0,0,0,0,1,0,0Z" transform="translate(180.38 430.47) rotate(-180)"/><path class="cls-18" d="M361.94,179.18V217.7a1.45,1.45,0,0,0,1.44,1.44h26.07a1.45,1.45,0,0,0,1.45-1.44v-7.48a20.87,20.87,0,0,0,2.67.39l.64,0a7.66,7.66,0,0,0,6.56-3.84c3.06-4.76,3.22-13.48.34-18.66-1.49-2.67-3.69-4.14-6.21-4.14h-.1a12,12,0,0,0-3.9.68v-5.49a1.45,1.45,0,0,0-1.45-1.44H363.38A1.45,1.45,0,0,0,361.94,179.18Zm29,26.51v-15.9a5.35,5.35,0,0,1,4-1.38c.88,0,1.68.62,2.38,1.87,2.08,3.74,2,10.73-.2,14.13-1.12,1.74-2.32,1.86-3.13,1.79A15.15,15.15,0,0,1,390.9,205.69Z"/><rect class="cls-9" x="364.32" y="179.82" width="10.48" height="37.25" rx="1.28" transform="translate(739.11 396.88) rotate(-180)"/><path class="cls-6" d="M237,211l13.81-9.78,15-5.08a1.85,1.85,0,0,1,1.54.15l10.7,6.08.24,3.25-13.53-5.9-22.07,12.1a4,4,0,0,1-2.06.46C239.63,212.21,238.47,212.54,237,211Z"/><path class="cls-6" d="M244.84,208.14l-5.51,4.38s1.56,2.54,5,.54,10.47-5.57,10.47-5.57l12.71-1.31a57.44,57.44,0,0,0,5.48-2.4c0-.24-.11-2.52-.11-2.52l-6.47-3.18-7.92,2.08Z"/><path class="cls-6" d="M257.63,206l-11.28,8.91s.43,2,3.7,1.23,9.65-4.7,9.65-4.7l7.79-.55,6.77,2.14,4.06-7.47-8.26-4.92-9.37-.06Z"/><path class="cls-6" d="M256.79,199.68l5.59-2.89a2.22,2.22,0,0,1,1.8-.11l2.14.81-.82.5s-5,1.46-5.2,1.6A28.39,28.39,0,0,1,256.79,199.68Z"/><path class="cls-19" d="M287.47,208a12.77,12.77,0,0,1-.51,3.39h0a5.87,5.87,0,0,1-1,2.09,1.54,1.54,0,0,1-1.3.57l-2.74-.12a5.37,5.37,0,0,0,2-2.54,8.75,8.75,0,0,0,.68-3.41,8,8,0,0,0-1.1-4.18,8.16,8.16,0,0,0-2.3-2.54h3.11a1.39,1.39,0,0,1,1,.4,6.72,6.72,0,0,1,1.36,2A9.74,9.74,0,0,1,287.47,208Z"/><path class="cls-20" d="M231.72,100.65s4.35,16.94,14.58,19.53c9.6,2.43,24-2.54,31.19-20.17"/><path class="cls-18" d="M279.17,202.81s0,.05,0,.07h-.05Z"/><path class="cls-14" d="M287.47,208a12.77,12.77,0,0,1-.51,3.39h-3a8.75,8.75,0,0,0,.68-3.41,8,8,0,0,0-1.1-4.18l.09,0,3.11-.1A9.74,9.74,0,0,1,287.47,208Z"/><path class="cls-21" d="M284.33,211.41a3.36,3.36,0,0,1-2.51,2.53,2.08,2.08,0,0,1-.43,0,1.33,1.33,0,0,1-1.24-.63l.44-.24c.26.47.94.38,1.14.34a3,3,0,0,0,2.17-2.31,11.79,11.79,0,0,0,.41-3.88,8.57,8.57,0,0,0-.8-3.18c-.58-1.3-1.4-2.25-2-2.31-1.44-.14-1.69.48-1.7.51l-.48-.14c0-.06.35-1.06,2.23-.87.83.1,1.73,1.12,2.38,2.47,0,0,0,0,0,0a9.21,9.21,0,0,1,.88,3.46A12.13,12.13,0,0,1,284.33,211.41Z"/><path class="cls-22" d="M284.33,211.41l-.43-.27a11.79,11.79,0,0,0,.41-3.88,8.57,8.57,0,0,0-.8-3.18l.42-.3a9.21,9.21,0,0,1,.88,3.46A12.13,12.13,0,0,1,284.33,211.41Z"/><path class="cls-6" d="M279,201.79l2.06,0s-.12.38-.19.41l-1.19.4s-.07.18-.24,0a1.18,1.18,0,0,1-.25-.32Z"/><path class="cls-6" d="M279.78,213.42l1.53.07a3.72,3.72,0,0,0,0-.58,7.56,7.56,0,0,0-1-.56h-.71V213Z"/><polygon class="cls-23" points="277.72 49.05 275.67 53.94 275.45 54.19 270 60.48 269.06 59.48 274.29 53.19 277.72 49.05"/><path class="cls-23" d="M279.44,51.63a2.81,2.81,0,0,1-2.81,2.81,2.8,2.8,0,0,1-2.34-1.26L277.72,49A2.82,2.82,0,0,1,279.44,51.63Z"/><path class="cls-6" d="M80,210.3c1.29-.4,15.65-7.64,15.65-7.64l21.45,9.12-9.42,3.15-10.85-6.67L85,212.09a4.36,4.36,0,0,1-4.69-1.33Z"/><path class="cls-6" d="M84.68,210.37c1.29-.4,15.62-7.69,15.62-7.69l14.12,5.95,7.36,3.11-9.41,3.17-10.87-6.64-11.74,3.87a4.36,4.36,0,0,1-4.69-1.31Z"/><path class="cls-6" d="M97.07,214.06c-1.25.05-3.34,1.11-3.35,2.36,0,1-.12,2.64,4.5,2.64l35.83-.1-.29-7.85S104.08,213.79,97.07,214.06Z"/><path class="cls-6" d="M130.07,208.85s-10.72,1.86-14.59.23,2,6,2,6l12.07.89a13.62,13.62,0,0,1,2.11-2.23,13.21,13.21,0,0,0,2.13-1.8Z"/><path class="cls-6" d="M101.08,213l-4.39,1.07a29.39,29.39,0,0,0,3.45,2.61c.21-.09,1.88-.24,1.88-.35S101.08,213,101.08,213Z"/><path class="cls-6" d="M108.29,214c-.11-.07-7.21-.94-7.21-.94l.47,2.93s3,.55,3.19.48S108.29,214,108.29,214Z"/><path class="cls-24" d="M447.36,218.41H400.7a1.47,1.47,0,0,1-1.47-1.47v-2.29a1.47,1.47,0,0,1,1.47-1.47h46.66"/><polygon class="cls-18" points="404.6 215.79 404.6 221.63 405.41 220.91 406.08 221.63 406.15 215.79 404.6 215.79"/><line class="cls-25" x1="401.29" y1="215.79" x2="441.93" y2="215.79"/><path class="cls-26" d="M401.29,215.79a37.65,37.65,0,0,1,5.08-.24l5.08,0,10.16.05,10.16,0,10.16.12-10.16.13-10.16.05-10.16.05-5.08,0A36.09,36.09,0,0,1,401.29,215.79Z"/><path class="cls-27" d="M390.34,177.74l-5.22-5.21a8.93,8.93,0,0,1,0-12.62h0a8.91,8.91,0,0,0,0-12.62L377,139.13H349.78l8.16,8.16a8.91,8.91,0,0,1,0,12.62h0a8.93,8.93,0,0,0,0,12.62l5.22,5.21Z"/><rect class="cls-28" x="233.15" y="216.35" width="56.94" height="2.71" rx="0.57" transform="translate(523.24 435.41) rotate(-180)"/><path class="cls-28" d="M134.38,219.06h98.33a1.43,1.43,0,0,0,1.36-1.86l-19.63-62.53a1.44,1.44,0,0,0-1.37-1H114.74a1.43,1.43,0,0,0-1.36,1.86L133,218.06A1.42,1.42,0,0,0,134.38,219.06Z"/><path class="cls-14" d="M132.55,219.06h98.33a1.43,1.43,0,0,0,1.37-1.86l-19.64-62.53a1.44,1.44,0,0,0-1.36-1H112.92a1.44,1.44,0,0,0-1.37,1.86l19.64,62.53A1.44,1.44,0,0,0,132.55,219.06Z"/><ellipse class="cls-28" cx="171.03" cy="187.14" rx="7.38" ry="8.96" transform="translate(-77.5 237.19) rotate(-58.96)"/></g></g></svg>