<svg xmlns="http://www.w3.org/2000/svg" viewBox="0 0 174.09 174.09"><defs><style>.cls-1{fill:#57335b;}.cls-2{isolation:isolate;}.cls-3{fill:#2d0032;}.cls-4{fill:#ab99ad;}.cls-5{fill:#fff;}.cls-6{fill:#ffb414;}</style></defs><g id="Layer_2" data-name="Layer 2"><g id="Unsorted"><circle class="cls-1" cx="87.05" cy="87.05" r="87.05"/><g class="cls-2"><path class="cls-3" d="M146,76.67a149.47,149.47,0,0,0-.79-20l-5.2,3c1.32,20.18,3.24,47.88-15.45,60.82C141.7,113.36,145.54,93.42,146,76.67Z"/><path class="cls-3" d="M140,59.73c.47,5,7.91,68.33-31.82,63.68a6.42,6.42,0,0,1-2.41-.85,11.28,11.28,0,0,1-2.32-1.84C64.17,80.62,71.59,25,72.09,20.54c8,1.54,21.7,7.36,34,14.43S129.57,49.68,140,59.73Z"/><path class="cls-4" d="M103.4,87.15l2.19,1.28c1.36.78,2.77,1.59,4.28,2.55.38.24.76.5,1.15.76l1.19.85c.4.3.81.62,1.22,1l.62.53.63.58c.43.39.85.83,1.26,1.28.21.23.42.47.62.72s.21.24.31.37l.15.2.07.09.06.09a28.66,28.66,0,0,1,1.89,3,20.77,20.77,0,0,1,1.42,3.26c.08.27.16.55.23.82s.12.54.17.8a7.29,7.29,0,0,1,.08.79c0,.22-.15.28-.31.19a.64.64,0,0,1-.19-.18c-.19-.27-.38-.55-.46-.64-.31-.39-.62-.75-.94-1.08a24.36,24.36,0,0,0-1.87-1.82c-.63-.56-1.25-1.07-1.88-1.57l-.21-.16-.19-.14-.4-.28c-.27-.19-.54-.35-.83-.53l-.28-.17c-1.06-.61-2.24-1.17-3.49-1.79s-2.69-1.33-4.14-2.17l-.2-.12c-1.55-.9-3-1.92-4.38-2.86C100,92,98.93,91.21,98,90.68l-.41-.23c-.26-.14-.5-.25-.74-.36l-.11,0-.12,0-.24-.08-.47-.16-.48-.14a4.19,4.19,0,0,0-.47-.14c-.32-.09-.64-.18-1-.25a15.54,15.54,0,0,0-1.93-.32l-.49,0h-.49l-.45,0a.3.3,0,0,1-.15,0,.64.64,0,0,1-.31-.6c0-.18.09-.36.14-.53a5.23,5.23,0,0,1,.48-1,5.14,5.14,0,0,1,1.41-1.52A6,6,0,0,1,94,84.3l.5-.13.26,0,.13,0,.13,0a5.76,5.76,0,0,1,1.31,0,11.36,11.36,0,0,1,2.6.75l.62.26.6.28c.4.19.79.4,1.17.6C102.06,86.39,102.74,86.77,103.4,87.15Z"/><path class="cls-4" d="M125.32,73.14a3,3,0,0,0,.09-3,5.6,5.6,0,0,0-2-2.29,1.84,1.84,0,0,0-.71-.25,2.91,2.91,0,0,0-1.56.46,3.26,3.26,0,0,1-2.65.22,3.89,3.89,0,0,1-1-.42,11.25,11.25,0,0,1-2.88-2.72A4.37,4.37,0,0,0,113.44,64c-.93-.53-1.82-.48-2.17.13-.57,1-.21,2.87,1,4.39a18.25,18.25,0,0,0,5.17,4.77A11.17,11.17,0,0,0,121,74.65c1.63.16,3.27-.05,4.33-1.51"/><path class="cls-4" d="M84.89,50.25a20.17,20.17,0,0,0,8,8.84c1.77.89,3.65,1.47,5.23.82A1.84,1.84,0,0,0,99,57.56a5.61,5.61,0,0,0-2.15-3.17l-.12-.07A4.3,4.3,0,0,0,94.92,54a5.19,5.19,0,0,1-2.52-.75l-.49-.3a11.32,11.32,0,0,1-3.36-4.25,5.37,5.37,0,0,0-1.93-2.08A1.7,1.7,0,0,0,85,46.35c-.9.51-1,2.16-.15,3.9"/><path class="cls-5" d="M145.18,56.71C125.93,39,102.63,24.41,77.29,17.51l-5.2,3C97.43,27.43,120.72,42.07,140,59.73h0Z"/></g><g class="cls-2"><path class="cls-3" d="M108.09,95.35A148.55,148.55,0,0,0,106,75.49l-5,3.35c2.61,20,6.3,47.57-11.53,61.68C106.19,132.24,108.74,112.1,108.09,95.35Z"/><path class="cls-4" d="M101,78.84c.79,5,12.27,67.68-27.68,65.58a6.35,6.35,0,0,1-2.46-.7A11,11,0,0,1,68.46,142c-41.74-37.5-37.9-93.48-37.69-98,8.1,1,22.13,6,34.82,12.24S90,69.47,101,78.84Z"/><path class="cls-3" d="M87.8,96.5c.74-.74.57-2.5-.54-4.11A19.4,19.4,0,0,0,80,85.72,15.61,15.61,0,0,0,78.38,85c-1.76-.5-3.59-.67-4.92.39A2.2,2.2,0,0,0,73,88.1a5.71,5.71,0,0,0,2.31,2.71,1.81,1.81,0,0,0,.34.13,3.57,3.57,0,0,0,1.76-.07,4.52,4.52,0,0,1,2.94.39l.15.07a10.86,10.86,0,0,1,3.68,3.57A5.11,5.11,0,0,0,86,96.48a1.62,1.62,0,0,0,1.83,0"/><path class="cls-3" d="M47.85,77.31a3.33,3.33,0,0,0,1.73-.13,4.3,4.3,0,0,1,2.91.3,1.51,1.51,0,0,1,.26.12A10.73,10.73,0,0,1,56.35,81a5,5,0,0,0,1.73,1.5c.78.39,1.51.4,1.88,0,.71-.77.5-2.55-.63-4.14a19.1,19.1,0,0,0-7-6.36,14.61,14.61,0,0,0-1.92-.79c-1.75-.45-3.55-.55-4.85.57a2.26,2.26,0,0,0-.38,2.72,5.61,5.61,0,0,0,2.29,2.65,2,2,0,0,0,.39.14"/><path class="cls-3" d="M52.24,101.15a1,1,0,0,1,.28.2l1.31,1.23,2.47,2.28c1.61,1.47,3.15,2.83,4.62,4,.19.15.37.31.56.45l.54.44.54.42c.18.15.36.27.54.41.35.28.7.52,1.05.78s.69.5,1,.72a33.08,33.08,0,0,0,4,2.35c.67.31,1.33.64,2,.89.33.15.66.26,1,.39a2.5,2.5,0,0,0,.25.09l.25.08.5.17.5.16.5.14.25.07.25.06.26.07.25.06.52.12.51.1.26.06.26,0c.17,0,.35.07.53.09a37.36,37.36,0,0,0,4.34.41c.75,0,1.51,0,2.3,0h1.22a.67.67,0,0,1,.3.08,1.43,1.43,0,0,1,.75,1.33,12.83,12.83,0,0,1-.38,1.31,9.88,9.88,0,0,1-1.15,2.19,8.16,8.16,0,0,1-1.6,1.71,7.88,7.88,0,0,1-2,1.2,9.21,9.21,0,0,1-2.4.64c-.21,0-.43.05-.65.07l-.68,0h-.69l-.71-.06-.36,0-.37-.06c-.24,0-.49-.07-.74-.13-.5-.12-1-.23-1.52-.4a21.41,21.41,0,0,1-3.13-1.27,29.65,29.65,0,0,1-6.31-4.34c-.5-.44-1-.91-1.47-1.38-.24-.23-.48-.48-.71-.72s-.24-.24-.35-.37l-.34-.37c-.46-.5-.9-1-1.34-1.53s-.85-1.05-1.25-1.59c-.21-.27-.41-.53-.6-.81s-.39-.54-.58-.82l-.56-.83c-.18-.27-.35-.56-.53-.84-.7-1.12-1.34-2.26-1.92-3.41s-1.09-2.31-1.53-3.47c-.22-.58-.43-1.17-.6-1.75S51.79,100.93,52.24,101.15Z"/><path class="cls-5" d="M69.43,58.23A162.85,162.85,0,0,1,101,78.84l5-3.35C85.69,59.09,61.5,46,35.77,40.71l-5,3.35C44.37,46.33,57.18,52.08,69.43,58.23Z"/></g><path class="cls-6" d="M140.32,128a15.79,15.79,0,0,1-31.58,0c0-8.72,15.79-30.68,15.79-30.68S140.32,119.28,140.32,128Z"/><path class="cls-6" d="M125.78,139.64A12.81,12.81,0,0,1,113,126.85"/><path class="cls-5" d="M125.78,139.64a10.26,10.26,0,0,1-5.11-.44,11.63,11.63,0,0,1-7.24-7.24,10.15,10.15,0,0,1-.44-5.11,18.27,18.27,0,0,0,1.52,4.67,14.64,14.64,0,0,0,6.6,6.6A17.89,17.89,0,0,0,125.78,139.64Z"/></g></g></svg>