<svg xmlns="http://www.w3.org/2000/svg" viewBox="0 0 444.82 801.83"><defs><style>.cls-1{fill:#d5ccd6;opacity:0.4;}.cls-2{fill:#ffb014;}.cls-3{fill:#e0b097;}.cls-4{fill:#002147;}.cls-5,.cls-8{fill:#cb7c51;}.cls-5{opacity:0.43;}.cls-6{fill:#c65552;}.cls-7{fill:#d59674;}.cls-9{fill:#7d4921;}.cls-10{fill:#5c3960;}.cls-11,.cls-12,.cls-16,.cls-18,.cls-19{fill:none;stroke-miterlimit:10;}.cls-11{stroke:#ffb014;stroke-width:1.08px;}.cls-12{stroke:#a28ea4;stroke-width:5px;}.cls-13{fill:#bf840f;}.cls-14{fill:#fdd072;}.cls-15{fill:#667a91;}.cls-16{stroke:#002147;}.cls-17{fill:#334d6c;}.cls-18{stroke:#ccd3da;}.cls-19{stroke:#173558;stroke-width:2px;}.cls-20{fill:#173558;}</style></defs><g id="Layer_2" data-name="Layer 2"><g id="Layer_1-2" data-name="Layer 1"><circle class="cls-1" cx="222.41" cy="257.05" r="222.41"/><path class="cls-2" d="M178.9,91.58S169,81,170.23,62.12l10.82,1.37,4,21.85Z"/><path class="cls-2" d="M261,91.58s10.81-5.82,9.76-22.31L254.87,56.15,256.3,59l.29,30Z"/><path class="cls-3" d="M294.29,172.08l-63.23-22.8H208.7l-67.76,23.93c6.3,16.11,46.29,113.24,31.31,155-4.5,12.54,12.11,30.75,38.93,32.67h17.4c26.82-1.92,44.6-12.06,40.1-24.6C253.7,294.52,288,188.2,294.29,172.08Z"/><path class="cls-3" d="M233.77,754.34l23.12-.37,17.79-199.36-37.73.6a281.49,281.49,0,0,0-8,66c0,33.24,5.95,68.25,4.8,133.1"/><polygon class="cls-3" points="233.77 754.34 228.8 801.67 282.25 801.67 258.14 780.58 255.53 730.2 233.77 754.34"/><path class="cls-3" d="M233.82,752.59A11.55,11.55,0,1,0,245.36,741a11.54,11.54,0,0,0-11.54,11.55"/><polygon class="cls-4" points="226.12 801.67 292.79 801.67 292.79 796.14 263.48 789.76 230.45 782.75 226.12 801.67"/><polygon class="cls-3" points="205.45 754.34 210.42 801.67 156.97 801.67 181.08 780.58 183.7 730.2 205.45 754.34"/><path class="cls-3" d="M205.45,754.34,182.33,754,164.54,554.61l37.74.6a282.58,282.58,0,0,1,8,66c0,33.24-6,68.25-4.81,133.1"/><path class="cls-3" d="M205.4,752.59a11.54,11.54,0,1,0-11.54,11.54,11.55,11.55,0,0,0,11.54-11.54"/><path class="cls-3" d="M234.16,153c-.37.43-4.75,5.86-14.55,4.58-6.85-.9-13-3.52-13.84-4.58q.79-9.3,1.6-18.6l2-23.64h21.11l2.06,23.94Z"/><path class="cls-5" d="M232.58,134.68a32.46,32.46,0,0,1-25.21-.3l2-23.64h21.11Z"/><ellipse class="cls-3" cx="219.97" cy="72.28" rx="43.42" ry="59.3"/><path class="cls-6" d="M211.14,110.94a21.47,21.47,0,0,0,6,1.67,26.18,26.18,0,0,0,5.51.17,25.42,25.42,0,0,0,5.41-1,22,22,0,0,0,5.63-2.57,8.86,8.86,0,0,1-3.72,6.13,13.18,13.18,0,0,1-6.95,2.52,13.4,13.4,0,0,1-7.22-1.49A8.9,8.9,0,0,1,211.14,110.94Z"/><path class="cls-6" d="M207.36,111.47a28,28,0,0,1,7.36-2.67,60.77,60.77,0,0,1,7.51-1.2c2.5-.25,5-.36,7.53-.36a63.7,63.7,0,0,1,7.7.44,25.1,25.1,0,0,1-7.24,3,48.07,48.07,0,0,1-7.56,1.32,60.26,60.26,0,0,1-7.6.24A51.61,51.61,0,0,1,207.36,111.47Z"/><path class="cls-7" d="M226.52,100l-6.57,0-.14-24.72,1.31-.92L223,94.66a6.21,6.21,0,0,0,2.1,4.12Z"/><polygon class="cls-8" points="219.97 103.36 219.95 100.08 226.52 100.04 219.97 103.36"/><polygon class="cls-7" points="220.01 103.38 219.99 100.09 213.42 100.13 220.01 103.38"/><path class="cls-7" d="M227.54,69.59s-5.9.83-7.73,5.77l.56,5.65S220.4,74.58,227.54,69.59Z"/><circle class="cls-4" cx="241.77" cy="77.14" r="2.63"/><path class="cls-4" d="M249,76.93A7.19,7.19,0,0,0,246,74a10.59,10.59,0,0,0-3.81-1.31,10.9,10.9,0,0,0-4,.2,7.87,7.87,0,0,0-3.66,1.92l0,.23a25.58,25.58,0,0,1,7.31,0,22,22,0,0,1,3.58.77,20.71,20.71,0,0,1,3.4,1.34Z"/><circle class="cls-4" cx="198.16" cy="77.16" r="2.63"/><path class="cls-4" d="M190.94,76.93a7.19,7.19,0,0,1,3-2.93,10.59,10.59,0,0,1,3.81-1.31,10.84,10.84,0,0,1,4,.2,7.86,7.86,0,0,1,3.67,1.92l0,.23A25.58,25.58,0,0,0,198,75a22,22,0,0,0-3.58.77,20.71,20.71,0,0,0-3.4,1.34Z"/><path class="cls-9" d="M208.52,65.37a23.27,23.27,0,0,0-6-2.46,21.06,21.06,0,0,0-3.18-.7,17.15,17.15,0,0,0-3.51,0,18.05,18.05,0,0,0-3.41.83,14,14,0,0,0-3.08,1.63,12.38,12.38,0,0,0-4.3,5.18l.18.21a26.15,26.15,0,0,1,5.08-3.45,17.71,17.71,0,0,1,5.85-1.69,23.79,23.79,0,0,1,6.13.16q3.09.32,6.18.57Z"/><path class="cls-9" d="M231,67a23.21,23.21,0,0,1,5.58-3.26,24.42,24.42,0,0,1,3-1.12,17.57,17.57,0,0,1,3.48-.48,17.81,17.81,0,0,1,3.49.35,14.4,14.4,0,0,1,3.27,1.2,12.26,12.26,0,0,1,5,4.54l-.15.24a26.1,26.1,0,0,0-5.5-2.73,17.67,17.67,0,0,0-6-.88,24.21,24.21,0,0,0-6.05,1q-3,.75-6,1.42Z"/><circle class="cls-10" cx="295.38" cy="191.76" r="19.7" transform="translate(-9.71 15.87) rotate(-3.03)"/><circle class="cls-2" cx="233.38" cy="303.58" r="2.35"/><circle class="cls-2" cx="219.79" cy="303.56" r="2.35"/><circle class="cls-2" cx="246.97" cy="303.62" r="2.35"/><circle class="cls-2" cx="260.55" cy="303.65" r="2.35"/><rect class="cls-11" x="213.7" y="293.44" width="11.35" height="21" rx="3.32"/><circle class="cls-10" cx="143.07" cy="191.74" r="19.7" transform="translate(-72.04 296.43) rotate(-79.22)"/><polygon class="cls-3" points="140.03 310.73 114.74 309.44 124.12 197.21 160.82 199.09 140.03 310.73"/><circle class="cls-3" cx="127.53" cy="308.48" r="12.72" transform="translate(-168.76 154.73) rotate(-40.11)"/><polygon class="cls-3" points="299.58 288.95 323.91 297.89 313.52 193.77 284.08 210.82 299.58 288.95"/><polygon class="cls-10" points="117.23 252.01 123.39 190.1 163.08 191.16 156.66 254.08 117.23 252.01"/><polygon class="cls-10" points="326.61 246.52 314.46 186.84 276.44 197.77 288.25 255.1 326.61 246.52"/><path class="cls-10" d="M284.4,215.48a717.12,717.12,0,0,0-9,105.4c0,2.44-.05,4.9-.05,7.38l-51.67,3.91-59.06-3.91s0-2.71,0-7.31c-.13-19-.82-70.15-4.63-95.13a309.68,309.68,0,0,0-24.63-52.2l57.86-18.87s5.57,18.52,26.15,18.87,26.84-18.87,26.84-18.87l56.84,18.87S265.62,188.19,284.4,215.48Z"/><path class="cls-2" d="M355.9,678.76c-6.42,11.5-24.62,11.79-39.45,11.83-1.81,0-3.58,0-5.26,0-9.17.1-16,.67-16.1,5v.27c.66,14.25-20.77,11.22-32.19,8.78-3.39-.73-5.89-1.4-6.68-1.55a27.88,27.88,0,0,0-5.35-.54,25.7,25.7,0,0,0-4.9.47c-9,1.7-15.68,7.5-26,7.53h0c-11.9,0-18.94-7.74-30.32-8a27.26,27.26,0,0,0-5.93.53c-1.1.21-5.56,1.44-11.09,2.4-11.76,2.06-28.36,2.93-27.78-9.63v-.27c-.08-4.29-6.93-4.86-16.1-5-1.68,0-3.45,0-5.26,0-14.83,0-33-.33-39.45-11.83,0,0,49.2-231.62,52.61-244.61,3.35-12.73,11.31-61.61,27.09-82.82.3-.42.61-.83.93-1.22v-3.58h-.08V328.25l57.59,3.92,53.25-3.92v18.28h-.08v3.58c.25.32.51.64.75,1,15.9,21.08,23.9,70.29,27.27,83.07C306.7,447.14,355.9,678.76,355.9,678.76Z"/><path class="cls-12" d="M193.23,154.75s5.09,18.14,26.14,18.86c0,0,18.09,2,26.84-18.86"/><path class="cls-13" d="M144.83,695.84v-.27c-.08-4.29-6.93-4.86-16.1-5l43.88-326.06Z"/><path class="cls-13" d="M201.77,380.92,189.63,702.54a27.26,27.26,0,0,0-5.93.53c-1.1.21-5.56,1.44-11.09,2.4Z"/><path class="cls-13" d="M311.19,690.61c-9.17.1-16,.67-16.1,5v.27h0L267.3,364.55Z"/><path class="cls-13" d="M262.9,704.62c-3.39-.73-5.89-1.4-6.68-1.55a27.88,27.88,0,0,0-5.35-.54,25.7,25.7,0,0,0-4.9.47L233.82,380.92Z"/><path class="cls-13" d="M164.55,333.48a226.38,226.38,0,0,0,59.51,8.25c16.35,0,34.23-2,51.31-8.09v-5.39c0-2.48,0-4.94.05-7.38l-2.16.76-.13.05-4.34,1.52a127.15,127.15,0,0,1-22.6,5.05,186.9,186.9,0,0,1-45.39,0,208.87,208.87,0,0,1-34.36-6.72l-1.83-.59Z"/><path class="cls-13" d="M276,351.08c-17.46,6.41-35.84,8.55-52.6,8.55a226.58,226.58,0,0,1-59.7-8.3c.3-.42.61-.83.93-1.22v-3.58h-.08v-7.48c1.62.5,2.83.84,3,.9,10,2.78,59.49,15.21,102,.65l5.71-2v8h-.08v3.58C275.52,350.43,275.78,350.75,276,351.08Z"/><circle class="cls-3" cx="311.19" cy="297.89" r="12.72" transform="translate(-43.06 52.77) rotate(-9.07)"/><path class="cls-14" d="M207,8.58a4.92,4.92,0,0,1,.39-.49c.12-.15.24-.26.35-.39s.48-.5.72-.73c.48-.47,1-.89,1.5-1.3s1-.79,1.57-1.13a16.33,16.33,0,0,1,1.64-1,28.45,28.45,0,0,1,7-2.71,32.18,32.18,0,0,1,3.62-.61A31.21,31.21,0,0,1,227.36,0c1.19,0,2.39.1,3.57.14s2.35.32,3.51.47c-1.18.06-2.35.09-3.51.17s-2.32.24-3.45.49a31.49,31.49,0,0,0-6.54,2,24.74,24.74,0,0,0-5.63,3.46,12.34,12.34,0,0,0-1.21,1.07c-.39.36-.74.76-1.1,1.15a13.51,13.51,0,0,0-1,1.22,7.4,7.4,0,0,0-.42.61c-.06.1-.14.21-.19.3a1.37,1.37,0,0,0-.11.23Z"/><path class="cls-5" d="M214.34,52.89l-1-1c-.62-.65-1.27-1.27-1.86-1.95l-1.71-2.09c-.58-.67-1-1.46-1.57-2.18A50.09,50.09,0,0,1,205.44,41c7.77,8,24.86,21.3,53.1,21.78l-43.2-28.7L204.71,25l-10.35-1.32-6.42,10.39-3.39,7.07c-2.86,5.41-8.22,15.65-8.22,15.65l.8-.2L176,58.92a40.75,40.75,0,0,0,12.69-7.36c4.63-3,9.15-7.52,10.78-14.12.08.16.17.32.25.49a53.41,53.41,0,0,0,6.48,9.33c.64.69,1.21,1.44,1.9,2.09l2,2c.7.63,1.45,1.2,2.17,1.8l1.09.88,1.17.78a42.29,42.29,0,0,0,9.89,5,41.69,41.69,0,0,1-9.11-6Z"/><path class="cls-14" d="M201.73,28.38c.2.72.5,1.59.8,2.39s.63,1.64,1,2.44.75,1.6,1.12,2.41.82,1.57,1.24,2.35A49.41,49.41,0,0,0,212,46.68c.61.65,1.17,1.37,1.83,2l2,1.86c.66.6,1.39,1.13,2.09,1.7l1.06.85,1.14.74a41.09,41.09,0,0,0,9.78,4.84,42,42,0,0,1-10.43-3.74l-1.26-.63L217,53.53c-.79-.5-1.61-1-2.38-1.51l-2.26-1.7c-.77-.55-1.43-1.22-2.15-1.83A53.09,53.09,0,0,1,202.64,40c-.54-.78-1.1-1.56-1.62-2.36s-1-1.6-1.5-2.44-.94-1.67-1.38-2.53S197.29,31,196.88,30Z"/><polygon class="cls-4" points="259.45 779.18 281.22 799.91 241.27 799.91 229.1 788.65 231.32 777.68 230.21 765.81 260.28 765.93 259.45 779.18"/><polygon class="cls-15" points="246.76 779.16 259.45 779.18 272.66 791.76 261.15 791.26 246.76 779.16"/><line class="cls-16" x1="253.84" y1="781.43" x2="261.81" y2="781.43"/><line class="cls-16" x1="256.58" y1="783.9" x2="264.38" y2="783.9"/><line class="cls-16" x1="259.71" y1="786.36" x2="266.99" y2="786.36"/><line class="cls-16" x1="262.28" y1="788.83" x2="269.56" y2="788.83"/><polygon class="cls-17" points="227.5 795.64 292.79 796.14 292.79 801.67 226.12 801.67 227.5 795.64"/><line class="cls-18" x1="226.81" y1="798.65" x2="292.79" y2="798.65"/><polygon class="cls-4" points="213.3 801.83 146.62 801.83 146.62 796.3 175.94 789.91 208.96 782.91 213.3 801.83"/><polygon class="cls-4" points="179.96 779.33 158.19 800.06 198.14 800.06 210.31 788.81 208.09 777.83 209.2 765.96 179.13 766.09 179.96 779.33"/><polygon class="cls-15" points="192.66 779.31 179.96 779.33 166.75 791.91 178.26 791.42 192.66 779.31"/><line class="cls-16" x1="185.57" y1="781.58" x2="177.6" y2="781.58"/><line class="cls-16" x1="182.83" y1="784.05" x2="175.03" y2="784.05"/><line class="cls-16" x1="179.7" y1="786.52" x2="172.42" y2="786.52"/><line class="cls-16" x1="177.14" y1="788.98" x2="169.85" y2="788.98"/><polygon class="cls-17" points="211.91 795.79 146.62 796.3 146.62 801.83 213.3 801.83 211.91 795.79"/><line class="cls-18" x1="212.61" y1="798.81" x2="146.62" y2="798.81"/><path class="cls-3" d="M141.2,405.32l-17.34-.15-9-97.34,25.41,1.3a467.54,467.54,0,0,1,1.1,59.2C140.9,376.92,140.55,389.63,141.2,405.32Z"/><polygon class="cls-3" points="124.09 403.99 141.36 405.5 148.12 441.67 148.15 442.23 148.12 442.48 120.98 440.11 124.09 403.99"/><circle class="cls-3" cx="132.56" cy="404.67" r="8.83"/><rect class="cls-3" x="141.74" y="442.25" width="6.81" height="13.12" transform="translate(-23.43 8.27) rotate(-3.02)"/><path class="cls-3" d="M139.7,473.48h0a3.29,3.29,0,0,1-1.86-3.06v-1.17a16.42,16.42,0,0,1,1.43-6.71l3.41-7.68,5.88,3.42Z"/><circle class="cls-3" cx="145.51" cy="456.56" r="3.41"/><rect class="cls-3" x="133.97" y="442.52" width="6.81" height="13.12" transform="translate(39.66 -10.26) rotate(5)"/><path class="cls-3" d="M132.42,475h0a3.27,3.27,0,0,1-2.16-2.92l-.11-1.22a18.21,18.21,0,0,1,.82-7.21l2.72-8.49,6.22,2.72Z"/><circle class="cls-3" cx="136.67" cy="457.07" r="3.41"/><rect class="cls-3" x="127.14" y="441.51" width="6.81" height="13.12" transform="translate(39.55 -9.67) rotate(5)"/><path class="cls-3" d="M125.93,471.62h0a3.31,3.31,0,0,1-2.19-2.8l-.14-1.14a15.53,15.53,0,0,1,.65-6.65l2.49-7.77,6.2,2.79Z"/><circle class="cls-3" cx="129.53" cy="455.15" r="3.41"/><rect class="cls-3" x="119.54" y="439.07" width="6.81" height="13.12" transform="matrix(0.97, 0.23, -0.23, 0.97, 106.31, -16.35)"/><path class="cls-3" d="M120.2,465.34h0a3.59,3.59,0,0,1-2.53-2.29l-.31-.93a11,11,0,0,1-.35-5.47l1.27-6.4,6.42,2.24Z"/><circle class="cls-3" cx="121.53" cy="450.93" r="3.41"/><circle class="cls-3" cx="144.73" cy="442.15" r="3.41"/><circle class="cls-3" cx="137.95" cy="442.51" r="3.41"/><circle class="cls-3" cx="124.38" cy="439.77" r="3.41"/><circle class="cls-3" cx="131.16" cy="441.51" r="3.41"/><path class="cls-3" d="M315.1,312.71a8,8,0,0,0,8-5.13,29,29,0,0,0,.8-10.45c-.42-4.2-13.65-.4-14.47.76s-5.82,10.53-4.14,11.27C306.47,309.68,310.55,312.1,315.1,312.71Z"/><path class="cls-3" d="M240.59,246.44c-2-7.94,5.24-15.31,5.24-15.31-1.35-.46-7.77-6.7-9.07-9.42-.79-1.66-.89-3.4.87-4.66,1.8-1.08,3.27,3.49,6.8,4.53,2.95.87,7.41,6.75,8.46,8.38,2.37,3.69,3,17.53,3,17.53"/><path class="cls-4" d="M289.06,360.27,282,337.05c-56-79-53.92-89.14-52.91-94,2.39-11.62,27.91-71.84,32.94-83.65a1.51,1.51,0,0,1,1.92-.83l12.19,4.52a1.51,1.51,0,0,1,.87,2c-11.57,27.17-30,71.85-32.16,80.76.3,2.24,4.08,16.92,50.42,82.26a13.64,13.64,0,0,1,1.93,3.92l7.19,23.58Z"/><path class="cls-3" d="M246.06,231.47,235,220.82s-2.86-2.66-5.27-.21a3.2,3.2,0,0,0-.82,3.48,1.05,1.05,0,0,1-1,1.38,3.44,3.44,0,0,0-2.66,1.31,3.3,3.3,0,0,0-.47,3.84,1.06,1.06,0,0,1-.73,1.48,3.85,3.85,0,0,0-2.24,1.67,3.43,3.43,0,0,0-.23,3.89,1,1,0,0,1-.45,1.5,4.09,4.09,0,0,0-1.75,1.61,3.05,3.05,0,0,0-.43,2.75c.42,1.28,5.58,7.31,8.44,10.47a33,33,0,0,0,6.58,5.69c1.22.78,4.24,1.45,7.75,4,3.91,2.82,9.22,5.57,16.18,10l15.14-8c-6.6-5.12-13.92-14.47-17.11-18.23"/><path class="cls-3" d="M258.24,250.51l-8,18.47c-2.33-1.37,9,7.61,22.76,17.91,7,5.28,32.3,22.27,32.3,22.27l12.91-21.89C313.62,282.38,273,267,258.24,250.51Z"/><rect class="cls-4" x="303.92" y="363.01" width="26.73" height="80.42" rx="6.49" transform="translate(-98.14 102.09) rotate(-15.86)"/><rect class="cls-19" x="281.84" y="333.09" width="19.94" height="17.29" rx="3.04" transform="translate(-82.3 92.79) rotate(-15.86)"/><rect class="cls-20" x="295.86" y="351.58" width="30.66" height="106.73" rx="5.81" transform="translate(-98.85 100.5) rotate(-15.86)"/><path class="cls-14" d="M199.88,31.12s20,25.72,45.8,28.81,25.19,15.21,25.19,15.21S284.08-15.06,209.15,8l-12,9.21Z"/><path class="cls-14" d="M178,56.48s17.67-7,21.92-25.36S209.15,8,209.15,8a21.82,21.82,0,0,0-23,1.05C172,18.22,150.41,49,176.82,79Z"/></g></g></svg>