<svg xmlns="http://www.w3.org/2000/svg" viewBox="0 0 963.57 1126.95"><defs><style>.cls-1{fill:#334d6c;}.cls-2{fill:#99a6b5;}</style></defs><g id="Layer_2" data-name="Layer 2"><g id="phone_scene_2" data-name="phone scene 2"><g id="map_for_icon" data-name="map for icon"><rect class="cls-1" x="26.71" y="20.83" width="903.36" height="1068.63"/><path class="cls-2" d="M489.16,1124.82a6,6,0,0,0,7.63,1.29l113.45-67.66a6,6,0,0,0,1.25-1l4.2-4.39,41.85,51.15a2.39,2.39,0,0,0,3.25.42L706,1071.75c3.36,5.79,12,20.69,14.23,24a2.39,2.39,0,0,0,4-2.65c-2.59-3.89-15.26-25.8-15.39-26l-.06-.08-.08-.13a2,2,0,0,0-.14-.16s0-.07-.07-.1l-13.33-13.75L711,1034l73.71,69a2.39,2.39,0,0,0,3.27-3.49l-10.08-9.44,25-28.38,52.75,51.75a6,6,0,0,0,8.36-8.52l-20.32-20,31.56-37.29,59.49,50.44a2.39,2.39,0,1,0,3.09-3.64l-59.49-50.45,31.7-37.46,28.11,24.8a2.39,2.39,0,1,0,3.16-3.58l-39.88-35.19V984.7L921.69,964l5.16,4.49,3.14-3.61-5-4.31,16.5-17a2.39,2.39,0,1,0-3.42-3.33l-16.7,17.15-1.7-1.48,15.38-15a2.39,2.39,0,1,0-3.34-3.42L916.09,952.8l-41.86-36.35h0l-22.33-19.4c6.06-6.51,13.92-14.95,14.46-15.48a2.39,2.39,0,0,0-3.36-3.4c-.66.65-10.64,11.36-14.71,15.74l-29-25.17,26-32.6,99,92.71a2.39,2.39,0,1,0,3.27-3.49L846.72,830.88a2.47,2.47,0,0,0-1.81-.64,2.44,2.44,0,0,0-1.7.9L815.69,865.6,767,823.35c11.8-12.45,21.59-22.69,22.69-23.62a2.39,2.39,0,1,0-3-3.7c-1.19,1-11.91,12.19-23.28,24.18L707.6,771.74c3.08-3.13,9.71-9.89,16.36-16.71,9.66-9.92,14.36-14.76,16.65-17.32,2.14,1.88,3.49,3.07,3.85,3.41a2.38,2.38,0,0,0,4.12-2c-.17-1-.19-1-17.14-15.69a2.34,2.34,0,0,0,.74-.56l25.15-28.52L959.6,872.45a2.39,2.39,0,0,0,3.16-3.59L760.49,690.73,797.28,649,814,664a2.18,2.18,0,0,0,.43.53,2.32,2.32,0,0,0,.55.35l22,19.66h0l94.86,84.8a2.39,2.39,0,1,0,3.19-3.56L875.3,712.37l20.83-23.59c10.69,10,26,24.34,48.18,44.93a2.39,2.39,0,1,0,3.25-3.5c-14.79-13.77-33.59-31.29-48.26-45l22.34-25.3,9.83,9.35a2.39,2.39,0,1,0,3.29-3.47l-10-9.47,10.4-11.77a2.39,2.39,0,0,0-3.58-3.16L921.35,653l-27.74-26.39,27-27.76L937.89,614a2.39,2.39,0,1,0,3.15-3.59l-17-15c8.31-7.94,8.71-9.22,8.89-9.78a2.39,2.39,0,0,0-4.48-1.64,101.86,101.86,0,0,1-8,8.25l-12.47-11,22.19-23.15a2.39,2.39,0,0,0-3.45-3.31l-22.33,23.3-11.53-10.13s0,0,.07-.07l25-28.36,8.9,8.53a2.39,2.39,0,1,0,3.3-3.45l-9-8.67,11.4-13a2.39,2.39,0,0,0-3.59-3.16l-11.26,12.81-30.26-29c1.19-1.28,2.37-2.56,3.57-3.84q5.37-5.72,10.83-11.37l36.14,32.67a2.39,2.39,0,1,0,3.21-3.54l-36-32.56c2.8-2.86,5.58-5.74,8.44-8.55l.29-.3a6.33,6.33,0,0,0,.87-1.35l19,17.7a5.38,5.38,0,0,0,7.34-7.87l-59.59-55.58,18.27-20.91,31.86,29.09a2.39,2.39,0,1,0,3.23-3.52l-15.28-13.95L939.07,398a2.39,2.39,0,0,0-3.56-3.19l-19.59,21.84-13.13-12,32.12-36.76a2.38,2.38,0,0,0-.29-3.43l-18.55-15a2.39,2.39,0,0,0-3,0l-55.49,43a2.44,2.44,0,0,0-.89,1.46l-.79,4.39-6-7.66a5.29,5.29,0,0,0-.77-.8l-1.19-1V344.91a2.37,2.37,0,0,0-.2-.94l-10.91-25.53V305.87l11.94-17,13.94-5.36a2.44,2.44,0,0,0,.61-.34l15.29-11.91a2.4,2.4,0,0,0,.89-2.3L875,243.78a2.44,2.44,0,0,0-1-1.54L866.6,237l32.91-38.6,41.25-26.68a2.39,2.39,0,0,0-2.59-4l-6.75,4.37-31.71-26.94a1.46,1.46,0,0,0-.21-.16l-22.11-14.88,21.42-24,49.51,36.23,2.82-3.85L871.07,79.9l40-54.35-3.85-2.83-40,54.35-9.06-6.63,5.07-12.29a2,2,0,0,0,.14-.46l6.71-34.92-4.69-.9-6.66,34.68-4.54,11-25-18.3a2.37,2.37,0,0,0-3.36.56L803.64,81.47a2.38,2.38,0,0,0-1.82,2.31,2.3,2.3,0,0,0,0,.26l-19.11,27.34L758.63,94.63l45-63.21a2.39,2.39,0,1,0-3.89-2.77l-45,63.25L733.2,77l30.6-43.87a2.39,2.39,0,0,0-3.92-2.73l-37.68,54L695.89,66.77l25.33-35.34-3.89-2.78L691.92,64.12l-14.73-9.86L664,40.8c9.57-9.09,9.71-9.6,9.85-10.17l-4.63-1.19a1.87,1.87,0,0,1,.34-.72c-.62.78-4.46,4.49-10.63,10.31h0C635.81,60.78,580.25,111.9,539,149.69l-25.88-23.64L629.77,16.13l-3.27-3.48L509.58,122.81l-36.86-34,22.62-20.31h0L541,27.51a2.39,2.39,0,1,0-3.2-3.56l-19,17L491.61,1a2.39,2.39,0,0,0-4.37,1.35,2.36,2.36,0,0,0,.42,1.34L515.22,44.2,493.9,63.33C475.81,43.54,448.26,12.7,446.68,9.1a2.4,2.4,0,0,0-4.59,1,2.36,2.36,0,0,0,.2.93c2.2,5.15,37.47,44,48,55.54l-7.88,7.07L425.09,14.88a2.39,2.39,0,0,0-3.42,3.34L478.9,76.79l-9.71,8.71L409.37,30.24a5.37,5.37,0,0,0-9,3.95A5.32,5.32,0,0,0,402,38.08a3.23,3.23,0,0,0-.22.41L377.69,95.26a2.35,2.35,0,0,0-.19.93,2.41,2.41,0,0,0,1.15,2l24,14.58L433.55,136a2.5,2.5,0,0,0,.41.25l-30.27,48.88a2.38,2.38,0,0,0,.73,3.26l17,11.05-21.25,35.08-56.25-38.06,9.22-22.2a2.39,2.39,0,0,0-4.42-1.83l-8.84,21.29-4.39-3-25.72-55.23a2.38,2.38,0,0,0-1.34-1.23l-14.89-5.51,16.65-21.44a2.38,2.38,0,0,0,.5-1.47V94.94a2.39,2.39,0,1,0-4.77,0V105l-17.08,22-24.17-8.94,50.07-53.28L337.8,75.29a2.4,2.4,0,0,0,2.64-.45l6-5.71a2.44,2.44,0,0,0,.54-.77l16.87-39-4.39-1.9L342.74,66l-4.44,4.26-20.13-9.14,3.75-4a2.39,2.39,0,0,0,.65-1.56c.26-8.86,0-9.61-.12-10s-.39-1.17-13.08-16.4l-3.68,3.06c5.16,6.18,10.9,13.18,12.19,14.93.06,1.18,0,4.4-.06,7.37l-35,37.29-12.6-61.6a2.39,2.39,0,0,0-4.73.47,2.77,2.77,0,0,0,0,.49l13.15,64.25a2.58,2.58,0,0,0,.21.57l-19.08,20.3-8.38-3.09c-4.48-21.72-11-53.39-11.2-55h0c-.13-.87-1.1-4.65-8-28.19a2.39,2.39,0,0,0-4.68.68,2.27,2.27,0,0,0,.1.67c2.9,9.89,7.6,26.09,7.87,27.46h0c.21,1.34,1.59,8.47,10.65,52.42l-8.29-3.06L195.5,49.39a2.39,2.39,0,1,0-3.88,2.79L232,108.25,208.36,111l-14.76-9.32a2.51,2.51,0,0,0-.87-.34l-13-2.22-3.4-7.92a2.35,2.35,0,0,0-.81-1L127.59,56a1.5,1.5,0,0,0-.32-.19L77.86,31.11a2.39,2.39,0,0,0-3.21,1.07,2.36,2.36,0,0,0-.25,1.06,2.38,2.38,0,0,0,1.32,2.14L125,60l47.25,33.64,2.69,6.25-36,14.39h-31.3a2.39,2.39,0,0,0-2,1L93.35,132.62H84.62l-9.18-9.78,8.74-2.34a2.37,2.37,0,0,0,1.54-1.27l4-8.22a2.39,2.39,0,0,0-.06-2.18l-2-3.58a2.4,2.4,0,0,0-1.8-1.23l-15.6-2a2.42,2.42,0,0,0-1.13.13L6.39,125.28a2.39,2.39,0,0,0-1.56,2.25,2.36,2.36,0,0,0,.14.82A2.4,2.4,0,0,0,8,129.77l62.2-22.88,13.81,1.72.78,1.43-2.94,6.13-11.54,3.09a.94.94,0,0,0-.15.06h-.08l-18.33,6.93a2.32,2.32,0,0,0-1.23,1.06l-22,39.1a2.3,2.3,0,0,0-.31,1.17,2.37,2.37,0,0,0,.31,1.18l16.7,29.32a2.42,2.42,0,0,0,1.38,1.11l119.78,36.17c1.17,14.74,6.08,28.12,12.31,39.6h-6.3L7.89,226.56a2.39,2.39,0,0,0-3,1.62,2.57,2.57,0,0,0-.09.67,2.39,2.39,0,0,0,1.71,2.3l164.88,48.5a2.18,2.18,0,0,0,.67.1h9.38a150.42,150.42,0,0,0,32.34,37.44L235,345.45,18.81,275.09l-1.48,4.54L58,292.87,44.7,326.35,10.85,313.41a2.4,2.4,0,0,0-3.09,1.38,2.54,2.54,0,0,0-.15.85,2.38,2.38,0,0,0,1.53,2.23L43.41,331l-.88,6-30-11.22a2.39,2.39,0,0,0-3.07,1.4,2.26,2.26,0,0,0-.15.84,2.39,2.39,0,0,0,1.55,2.24l31,11.58L24.63,459,2.72,455.92l-.66,4.73,21.87,3.09L7.63,574.84l4.73.69L28.66,464.4l35.85,5.06-14,106H13.19v4.78H89l-4.67,33.68-55.86-6.74a2.4,2.4,0,0,0-2.66,2.09,2.83,2.83,0,0,0,0,.29,2.39,2.39,0,0,0,2.11,2.37l55.78,6.72L81.5,634.24l-54.79-1.33-16.22-3.44a2.39,2.39,0,0,0-2.83,1.84,2.12,2.12,0,0,0,0,.5,2.38,2.38,0,0,0,1.89,2.33l16.44,3.49a3.15,3.15,0,0,0,.43,0l57.15,1.39h.15a.56.56,0,0,0,.13,0c1.85-.17,45.51-4.28,57.76-10,9.79-4.55,25.4-16.25,31.52-21l8.38,38.6c-8.46,1.07-19.91,2.49-20.88,2.54-.37,0-1.34,0-151.15,36.65a2.4,2.4,0,0,0-1.82,2.32,2.76,2.76,0,0,0,.06.57,2.39,2.39,0,0,0,2.89,1.75l53.19-13,7.9,23.08L1.73,720.8A2.39,2.39,0,0,0,0,723.1a2.56,2.56,0,0,0,.09.66,2.39,2.39,0,0,0,3,1.63L58.92,709.3l6.89,20.14a2.39,2.39,0,0,0,.45.79l20.83,24.11L97.88,780l-1.39,19.92-21-9.27a2.62,2.62,0,0,0-.73-.19l-20.21-2-1.63-7.6a2.37,2.37,0,0,0-1-1.49l-10.81-7.21a2.3,2.3,0,0,0-.92-.36L10.4,766.61l-.81,4.71,29.28,5,9.57,6.39,1.3,6.07L5,799.27l1.09,4.65,44-10.3L47.4,895.38l-37.17-3.61-.47,4.76,37.47,3.63L38,978.8H8.2v4.78H37.48l-3.23,27.71L11.31,996.14l-2.63,4,25.77,17,33.32,49.36-8.93,37.21a2.39,2.39,0,1,0,4.64,1.11l16.15-67.24a2,2,0,0,0,.06-.34l1.43-15.32,39.66,4.53L103,1103.75l4.66,1.07,6.65-29c3,.81,9.89,2.69,13.39,3.66l-6,29.9a1.88,1.88,0,0,0-.05.47,2.39,2.39,0,0,0,4.73.47l6.21-31,11.37-6.5a2.39,2.39,0,1,0-2.37-4.14l-11.45,6.54c-2.89-.8-11.41-3.14-14.78-4l10.46-45.57,8.39-8.26,24.52,28.56a2.39,2.39,0,1,0,3.62-3.11L137.68,1014l55.95-55.1,47.72,65.22-49.08,46.75a2.39,2.39,0,1,0,3.3,3.46l48.79-46.48,27.69,31.61a2.37,2.37,0,0,0,1,.66l59,22.17-8.13,23.53a2.39,2.39,0,1,0,4.51,1.56l8.1-23.41,28.85,10.84a2.4,2.4,0,0,0,1.86-.07,2.36,2.36,0,0,0,1.24-1.39l10.44-30.69h16.94l1.55,36.32a8.36,8.36,0,0,0,16.71-.66l-.41-11.34,35.84-9.38Zm114.26-76.22-73.68,44-30.1-41.71,10.35-8h0l59.6-46.12,38.48,47Zm-195.7-126,9.34-52.34,24.47,8.39-17.17,49.44-9.52-3.26a2.39,2.39,0,0,0-1.55,4.52l9.55,3.27-11.7,36.16-1.79-1.24Zm-32,134.58-26.7-9.4,9-26,26.38,9.91Zm-16.16-39.87,8.87-25.65,17.38,6.85-.73,28.38ZM370,987.15l10.23-29.57h0l7.18-20.79-1.46,56.67Zm-243.28,31L131.83,961l7.25-2.66a2.34,2.34,0,0,0,.91-.6l73.36-77.81a2.35,2.35,0,0,0,.63-1.3l6.25-43.57,33.69,4.21-3.28,25.46h0L246,900.58Zm-.74-60L87.47,954,99.56,824.66l.49-7.13h0l.76-10.83,39.45,7.83-12.92,143ZM52.06,899.92l2.22-83.82,40.84,3.42-.33,4.75L82.72,953.47l-36.45-3.9,5.78-49.44A1.48,1.48,0,0,0,52.06,899.92ZM164.29,759.56l14.39-13.81L203,739.28l13,8.82a2.43,2.43,0,0,0,.88.37l25.16,5,15.89,5.12v25.59H192.66l-4-17.22a2.39,2.39,0,0,0-4.72.54,2.48,2.48,0,0,0,.06.54l3.75,16.14H170.14ZM127,710.18l64.73-16.06,2.73,12.57-64,15.59Zm57.57-71.56,17.32-4.5a2.39,2.39,0,0,0,1.28-.83l8.21-10.36a2.39,2.39,0,0,0,.52-1.49V578.79l23.85-.78,4.91,58.77-.21,50.33L214.9,688l-1.37-49.82a2.39,2.39,0,0,0-4.78.06v.07l1.37,49.86-14.65.53ZM345.53,380.15h0c13.93-16.48,20-23.74,22.7-27.18l41.63,34.47-28.59,41.31-51.66-30.08Zm137.24-205.3,45.34,41.75L481.47,284l-52.59-30.25C436.5,242.59,462.18,205,482.77,174.85Zm-18.2-79,24.64,22.75-3.47,5-27.1-18.15Zm28.18,26,11,10.2,1.44,1.31c-5.52,8.15-26.21,38.46-47.23,69.24l-11.12-6.87-1.62-5.53Zm140,34.47,25.74,19.4-35.4,50.75-23.18-21.18Zm15.07-22.47,19.85-27.7,10.91,8.53a2.07,2.07,0,0,0,.24.17l15.56,9.41-33.16,47.54-25.8-19.45ZM844.38,160l-32.84,38.6-30.22-21.1,0-.08,30.73-39.84Zm15.18,78-43,50.79-20.27-15.17,42.31-50.22ZM838.83,395.11l-7.22,11-.64-.26-62.36-52.92L777,343Zm17.29,20.83-20-8.05,6.27-9.51ZM728.18,355.23l-27.87,27.9,3.38,3.38,26.4-26.43,32.06,24-58.21,59-72.08-58.59,30.67-42.22a2.29,2.29,0,0,0,.43-1l2.47-15.55a2.36,2.36,0,0,0-.45-1.8l-8.43-11.31-1.13-7.91,12.89-22.75,106,89.93-11.81,12,2.6-3.48L731.3,355A2.39,2.39,0,0,0,728.18,355.23ZM720.39,462.7,701.86,483l-91.4-67.95,18.61-26.75,80.67,65.57Zm86.17,71.24L828.3,552.5l-22.53,7.21q-3.66-1.56-7.35-3c-2.9-1.14-5.82-2.17-8.74-3.25s-5.85-2.06-8.8-3l-8.22-2.68c-7.39-3.2-14.86-6.23-22.31-9.33l-14.23-5.9,28.53-33.24Zm94.58,47.79-25,28.28-29.91-28.47L840.66,564c4.44-6.84,9.06-13.55,13.75-20.19.45-.64.92-1.27,1.37-1.91Zm-14.38,45L874.5,638.77l-24.36-23.13-2.3-5.6,9.53-11.31Zm16.29,15.51-23,24.85c-2.36-2.24-3.89-3.71-4.29-4.14a2.39,2.39,0,0,0-4.28,1.46,2.45,2.45,0,0,0,.12.75c.11.32.2.6,5.21,5.41l-21.88,23.59L842,682.56l12.22-13.45a2.39,2.39,0,0,0-3.54-3.21l-12.25,13.47-19-17,28.82-32.65a2.39,2.39,0,0,0-3.58-3.16l-28.8,32.63L791,637l17.54-20.33a2.39,2.39,0,0,0-3.61-3.12l-5.78,6.69-35.64-29.54,11.86-24.26.75.2c3,.78,6,1.49,9,2.23s6.05,1.41,9.1,2,6.1,1.22,9.18,1.73a6.7,6.7,0,0,0,2.19,0,5.93,5.93,0,0,0,1.11-.08l28.82-4.82.12,0a6.5,6.5,0,0,0,1.07-.29l5.15,16.2a2.34,2.34,0,0,0,.63,1l11.39,10.85-10.65,12.64a2.38,2.38,0,0,0-.38,2.44l3,7.41a2.28,2.28,0,0,0,.57.83l26.4,25.08a2.41,2.41,0,0,0,3.33,0l14-13.81ZM632,643.74a1.21,1.21,0,0,0-.16.16l-30.31,35.71L506.4,597q38.73-21.69,77.52-43.21l8.53-4.69,71.79,63.22Zm40.64,104L651.8,772.31,574,704.61l22.25-23.24Zm63.78,105.93h0L770.06,866l-66.32,82.28L614.5,891.6l26.22-73.23,13.31,4.9-6.56,19.38a2.63,2.63,0,0,0-.12.77,2.39,2.39,0,0,0,4.65.76l6.51-19.25L712,844.62,704.59,861a2.39,2.39,0,0,0,4.36,2l7.54-16.69Zm94.22,31.29-86.42,102.4-36.73-36,67-83.16,19.39,14.17a2.39,2.39,0,0,0,2.82-3.86l-19.21-14,12.15-15.06Zm26,22.56-13,16a2.39,2.39,0,0,0,.21,3.23L854,936.43l-73.83,86.13-32.5-31.89,86.61-102.62Zm12.71,11L857.07,932.8l-8.34-8,11.49-14.2Zm5.37,56.83-33.59,37.08-26.63-22.58,33-38.51Zm-91.14,50.57,27.81-32.44,26.53,22.5-30.34,33.49Zm-189.9-7.34,7.21-5.49a2.38,2.38,0,0,0,.88-1.41l1.31-6.18a2.32,2.32,0,0,0-.27-1.69l-8.43-14.62a2.39,2.39,0,0,0-4.14,2.39l8,13.82-.94,4.42-6.63,5.06L572.72,993l11-26.58.17.09,59,40.92-31.44,32.85ZM428.88,929.66l17.17-49.44,56.5,19.36-4.71,15L472.3,900.72a2.43,2.43,0,0,0-2-.13,2.37,2.37,0,0,0-1.39,1.43l-13.19,36.85ZM145,814.92l29.33-1,44.61-3.6-9.6,66.93L136.9,954.06l-4.59,1.69Zm117.65-49.07c1.77.69,4.89,1.87,10.47,3.92a2.32,2.32,0,0,0,.58.13l36.5,3.85-5.89,37.14-41.66-4.46ZM245,749.45l.23-57.73,63-2.3L310.5,769l-36-3.8c-4.55-1.67-11.07-4.11-11.82-4.47l0,0v-3.86a2.37,2.37,0,0,0-1.66-2.27ZM366.33,351.39h0ZM339.2,322.72l53.9-64.23L414.4,260a2.33,2.33,0,0,0,.83-.09l9.91-2.83,53.6,30.85L412.6,383.49Zm192.23-14.47L493,364l-41.5-28.33,31.75-45.87,23.35,5.07Zm98.75-60.65-55,90.76-6.87-5.58-22.6-19.3,55-92.79ZM763.55,255,732.4,291.39l-17.86-15,17.24-38.62,4.58-3.23Zm25.86,19.38-32.12,38-21.24-17.89,31.32-36.59,2.24,1.68Zm-57.06-42.9-3.86,2.73a2.35,2.35,0,0,0-.8,1l-17,38a5.46,5.46,0,0,0-1.78-1L681.85,264l32.33-46.26Zm-72.89,42.88.15.13,5,4.23L650.86,303a2.33,2.33,0,0,0-.28,1.51l1.33,9.32a2.33,2.33,0,0,0,.45,1.09l8.19,11-2.22,14-30.18,41.54-49.24-40,54.87-90.52ZM560.19,479l3.92,2.73L607.73,419l90.89,67.57-15.77,17.31-.13.15L679,508.92c-1.23-.44-2.44-.8-3.66-1.15s-2.51-.64-3.76-.95l-3.79-.73a76.26,76.26,0,0,0-15.23-.85l-3.8.24L645,506l-1.88.25c-.62.11-1.24.25-1.86.38l-3.7.78c-1.23.28-2.42.68-3.63,1s-2.43.67-3.61,1.1l-3.5,1.33c-1.17.46-2.36.85-3.47,1.42L620,513.84c-1.12.54-2.29,1.07-3.24,1.6l-6,3.19-11.88,6.42-17.2,9.41-62.11-52.64v-10.7L536.2,431l56.51-72.26,32.64,26.53ZM557.8,547.6l-31.18-26.19h0L495.13,495a.83.83,0,0,0-.15-.11.7.7,0,0,0-.1-.08l0,0,0,0-26.08-15.16,61-87.58h0l37.54-53.91L589,355.76l-56.77,72.59a2.39,2.39,0,0,0-.32.56l-17,40.82a2.39,2.39,0,0,0-.18.92v12.28a2.36,2.36,0,0,0,.84,1.82l61.55,52.16L575.2,538Q566.48,542.78,557.8,547.6Zm34.85,130.63L570.4,701.46l-20.16-17.54h0l-19.17-16.68,20.45-24.71Zm100,277.16-10.46,10.93L664.46,955a2.38,2.38,0,0,0-3.3.72,2.34,2.34,0,0,0-.38,1.29,2.4,2.4,0,0,0,1.1,2l16.93,10.86-14.31,15-69.77-45.18,15.17-36.79Zm-262-161.24,29.89-4.67A2.4,2.4,0,0,0,462.4,788l12.21-30.81,6.59,2.43-25.08,76.52-31-10.79Zm2.55-52.21,36.92,13.6L458.46,785l-26.92,4.21.08-.46a8.67,8.67,0,0,0,.13-1.26Q432.53,764.69,433.2,741.94Zm27.43,95.77,25.06-76.43,34,12.53L511.57,794a2.47,2.47,0,0,0-.17.89,2.39,2.39,0,0,0,1.62,2.26l19.68,6.67L516,857Zm79.2-56.49-5.69,18.06L517,793.46l7.25-18Zm4.49,1.65,39.74,14.64-26.61,73.87-37-12.85Zm9.08,99.75L544,908.73l-35.48-12.16,8.39-26.64Zm-11,30.61-7.66,21.26-32.59-17.64,4.95-15.72Zm4.52,1.55,30.32,10.39L589,940.89l-7.75,18.79L539,936.79Zm44.26,21-10.57-14a2.33,2.33,0,0,0-1.13-.82l-30.94-10.61,9.4-26.09,47.67,16.58ZM562,873l26.59-73.79,47.68,17.56-26.12,73Zm65.56-64.53,3.94-4.66,7.16,6.3,1.81,3.11Zm-4.77-1.76L574.9,789l15.71-21.18,37.26,32.75ZM587,764.7l-16.78,22.62-62.52-23,25.06-45a2.34,2.34,0,0,0,.62.71l16.35,12Zm-83.84-2.08-69.82-25.71q.73-26,1.16-52.09l26.45-1a2.38,2.38,0,0,0,2.28-2.1l2.32-19.22L515.38,680l15,33.82ZM315.3,769.49,314,725.29l21.67-1,1.09,22.77a2.39,2.39,0,0,0,4.78-.23l-1.1-22.76,17.54-.8L356.64,774Zm42.77-81.88v30.87l-20.22.93h0l-24,1.1-.9-31.26ZM282.31,571.72,242.83,573a2.7,2.7,0,0,0,.13-.43l13.76-72.66L318.08,520Zm115.08,31.55-19.55,2-1.72-31.86,43.11-1.4.64,33.33-22-2.1A2.46,2.46,0,0,0,397.39,603.27ZM371.34,573.6l1.86,34.46a2.37,2.37,0,0,0,.83,1.69,2.41,2.41,0,0,0,1.8.56l21.82-2.26L420,610.18l.53,27.23-65.31,3.84-6.27-14.51-3.32-52.3Zm49.24,68.59.15,8.07a80.69,80.69,0,0,0-3.56,14.55c-.41,2.5-.61,5-.77,7.54l-.14,3.77,0,3.35c0,.41,0,.83,0,1.24L379.76,682l-1.68-37.34Zm-57.73,45.24,53.28-1.94q-.22,15.16-.57,30.35l-52.71,2.42Zm103.31-29.9-.7-.09-15-5.24v-8.46l4.29-2.78,68.71,27.42-7,6.94-50.38-17.64ZM520,678.61l7.86-7.84,17.8,15.49-12.41,22.32Zm27.92-39.23L527,664.64,455.4,636.06a2.41,2.41,0,0,0-2.18.22l-6.42,4.16a2.38,2.38,0,0,0-1.09,2v11.45a2.39,2.39,0,0,0,1.6,2.26l13.63,4.77-2.2,18.24-24.15.88c0-.12,0-.24,0-.36l0-3.38.11-2.94c.14-2,.29-3.91.61-5.83a62.87,62.87,0,0,1,2.81-11.36,70.31,70.31,0,0,1,11.61-20.63,82,82,0,0,1,8.21-8.89,79.83,79.83,0,0,1,9.34-7.58l1.18-.79L469,618l0,0,.13-.07.35-.2,2.88-1.62,5.86-3.29L490,606.18l12-6.69ZM469,618h0S469,618,469,618Zm12.05-27.77-11.75,6.55L463.43,600l-3,1.67-.39.21-.57.34-.9.56L457,603.88a97.51,97.51,0,0,0-11.56,9.32,100,100,0,0,0-10,10.82,91.62,91.62,0,0,0-10.05,15.52L424,571.88l33.72-1.09,19.89,7.54,9.66,8.39Zm-.63-15.74a2.42,2.42,0,0,0-.72-.43L459,566.15a2.41,2.41,0,0,0-.92-.16l-169.8,5.53,94.43-136.43,107.56,62.52-16.33,25.64a2.4,2.4,0,0,0-.37,1.28,2.38,2.38,0,0,0,.75,1.75l35.59,33.49a2.39,2.39,0,0,0,3.27-3.48l-6.94-6.54,19.17-23.13,27.93,23.46q-30.84,17-61.6,34.17ZM448.77,339.62,490.28,368l-20.5,29.75L429.13,368Zm45.46,31,30.18,20.61-40,57.39-28.86-21.9ZM481.7,452.58l-17.12,24.58L433.34,459l19.52-28.32Zm40,71-19,22.92L479,524.15l15.14-23.77ZM563.57,335l-36.43,52.31-30.2-20.61L535.37,311Zm-52.71-43.25,25.91-39L548.14,262l-22.23,37.86ZM506.33,290l-20.15-4.37,32.69-47.23L533,249.8Zm-79.92,82,40.66,29.71-37.87,55-43.78-25.45Zm-63.65,83.56-54.4-25.26,18.33-27.75,51.86,30.2Zm-58.88-22.07L360,459.47l-39.09,56.47-63-20.66L282.42,425ZM278,423.28l-24.69,70.86-42.76-6.33L223.66,402Zm-25.9,75.51-13.81,72.89a2.35,2.35,0,0,0,0,.45,2.31,2.31,0,0,0,.24,1l-38.76,1.27V558.47l10.1-65.94Zm88.74,75.8,3.35,52.86a2.67,2.67,0,0,0,.19.8l7.11,16.43a2.39,2.39,0,0,0,2.33,1.44L373.31,645,375,682.21l-129.74,4.72.21-50.24a1.15,1.15,0,0,1,0-.2l-4.89-58.63Zm-117,235.3,18.38-1.48,15.39,2.19-3.08,23.94-33.62-4.2Zm38.51,1.31,42.15,4.51,43.56,7.45-4.4,24.18L260.58,825Zm46.7.44L315,774.26l41.17,4.48-7.22,39.72Zm52.26-34.57a2.22,2.22,0,0,0,0-.37l1.45-53.65,52.66-2.42q-.76,32.77-1.87,65.57l-7.4,42-52.55-9ZM423,837.26l29.4,10.22-9.26,26.68-25.19-8.64Zm33.91,11.79,55.51,19.31L504,895,447.62,875.7Zm15.61,57.2,23.9,12.93-9.56,30.35-26.57-9.11Zm18.86,44.83,9.32-29.58L533.07,939l-8.45,23.46Zm46-9.75,42.14,22.8-10.61,25.72L529,964.51Zm28.5,52.26-56,43.32-3.06-10.78,20.55-57Zm20.64-31.09-.22-.14-.73-.39,7.37-17.86,68.25,44.2-14.94,15.62Zm115.67.26,34.35,33.71-25.84,30.62-37-34.61Zm-54.68-147-4.89-8.44a2.58,2.58,0,0,0-.49-.6l-7.52-6.61,11-13L716.19,840l.87,1.4ZM631,797l-78.14-68.68-.17-.13-15.92-11.67-1.07-2.43,13.68-24.58L648.72,776ZM596.9,546.66l10.55-5.8,11.77-6.4,5.87-3.13c1-.56,1.88-1,2.79-1.39l2.7-1.29a26.22,26.22,0,0,1,2.76-1.13l2.77-1.07c.93-.35,1.89-.57,2.83-.87s1.88-.59,2.84-.8l2.87-.61c.48-.1,1-.22,1.44-.3l1.45-.2,2.9-.39,2.91-.18a58.77,58.77,0,0,1,11.57.6l2.35.45-16,20.85,3.79,2.91,17.25-22.44.86.28c.45.15.83.31,1.23.46l.56.22.25.11.07,0,.59.27L721,545.43l22.6,9.3c7.54,3.08,15,6.24,22.63,9.21l.34.14a4.32,4.32,0,0,0,.51.16l3.53.94L760.17,586.6l-9.77,2.64a2.39,2.39,0,0,0-1.61,1.45L744,603.31a2.48,2.48,0,0,0-.15.84,2.38,2.38,0,0,0,1.32,2.14l9.74,4.86,18.26,16.33-36.38,42.38ZM753.22,605l-4-2,3.59-9.45,4.39-1.18C754.28,597.89,753.34,602,753.22,605Zm5,2.74c-1.09-2.59.81-8.24,3-12.68L796,623.85l-8.59,9.95ZM761,496.24l-29.49,34.37-3.69-1.53L713.08,523l33.13-38.94ZM742.53,481l-34.09,40.06-24.86-10.3,2.87-3.73,37.62-41.29ZM765,349.8l-90.41-76.73,30.22,9.12,68.54,57.74Zm-4-34.36,32.3-38.2,20.27,15.17-33.24,39.3Zm73.77-94.83-42.22,50.11-20-15-2-1.5L812.37,205Zm-68.05,30.75-25.14-19,2.28,1.52,34.87-52.43,29.76,20.78Zm41.51-116.5-30.64,39.72-.09.13,0,.06-22.28-15.55L783.93,118Zm-33.42,43.89-34.86,52.42-23-17.31,35.46-50.72ZM713.11,211,688.86,192.7,724,143.32l24.48,17.08Zm-2.74,3.91L677,262.58l-20.89-6.3c-.22-.06-.44-.09-.66-.13l-7.13-6.51,37.74-53ZM644.8,246.39l-18.18-16.62,35.66-51.12,20,15.07Zm-47.66-29L542,310.33l-5.55-4.74a2.36,2.36,0,0,0-.42-.28h0l-5.91-3.18,23.17-39.49a2.39,2.39,0,0,0-.56-3.07l-13.31-10.75,34.81-52.35Zm-26.47-24.19-35,52.59L521.6,234.41l36.48-52.7Zm-16.15-14.76-23.66,34.18-45.37-41.77c10.62-15.56,19.53-28.63,23.3-34.2ZM387.21,258.07l-51.69,61.6L308.19,297l34.58-42.14Zm-22.64,91.86c-3.55,4.39-13.72,16.52-21.12,25.27L285.4,324.8l19.76-24.07Zm-42,50.14L303.9,428.3l-93.4-36.54L242,353.15ZM205.78,390,130,363.54l-5.33-4.41L141.3,320l96,31.27Zm-88.53-30.79,6.39,5.3-4.53,1.14L84.79,352.8l.76-5.72Zm-.9,10.51-13,100.4-33.44-4.71L84.14,357.66Zm4.78.35,7.55-1.9L205.76,395l13.34,5.22L195,557.93a2.19,2.19,0,0,0,0,.36v16.27l-26,.85H94.44Zm50.75,210L207.14,579v41.66l-7.2,9.08L183.58,634Zm24.62,113.4,43.95-1.6-.12,30.87H202.86Zm43.81,34-.08,20.74-22-4.4-12.68-8.63-1.68-7.71ZM257.89,789v16.83l-15.26-2.18a2.33,2.33,0,0,0-.53,0L176,809l-4.74-20ZM259,837.51h0l1-7.75,82.84,22.31-.09.49,4.7.86,0-.1,37.92,10.21-8,12.05-6.51,2.34L255.69,863Zm89.32,11.08L352.77,824l48.72,8.33L397,861.69Zm67,123,12.11-37.44,26.76,9.17-15.81,44.15Zm27.11,18.68a2.29,2.29,0,0,0,.1-.23l16.18-45.17L523,967l-21,58.26a2.21,2.21,0,0,0-.14.8,2.5,2.5,0,0,0,.09.66l3.79,13.36-9,7-34.92-43.21a2.77,2.77,0,0,0-.5-.47ZM652,1015.14l21.6,22.3-37.49,31.7a2.12,2.12,0,0,0-.53.67L619,1049.58Zm-13.62,58.1a2.24,2.24,0,0,0,.81-.45l37.75-31.9,26.21,27-43.33,31.5Zm53.45-23.85-36.53-37.7,15.09-15.76,37.17,34.81Zm48.08-49.57L772,1031.3l-27.66,27.34-30.2-28.28Zm34.55,87-26.63-24.93,27.58-27.26,24.18,23.73Zm65.91-5.18L811,1052.81l30.58-33.75,30.15,25.57ZM874.78,1041l-30-25.46,33.53-37,28.26,24.94Zm43.29-80.13-20.65,21.22a2.39,2.39,0,0,0-.68,1.66v4.69l-5.41-4.78,24.95-24.35Zm-30.33,19.62L850.59,947.7l22.34-26.06,39.73,34.51ZM786,846.18l-12.82,15.9-31.76-11.7c6.93-7.34,14.86-15.74,22.28-23.56Zm-49.45,2.41-12.21-4.5c0-.08-.07-.16-.12-.24L720,837.08a2.24,2.24,0,0,0-.59-.64l-70.76-53,27.6-32.63,83.88,72.85C750.11,834.25,740.28,844.68,736.59,848.59Zm-32.6-80-98.86-85.86,30.27-35.66.28-.27a2.81,2.81,0,0,0,.4.45C665.88,673,717.7,717.74,737,734.57,732.19,739.8,715.91,756.47,704,768.6Zm24.61-48.93a2.41,2.41,0,0,0-.48.85c-9.82-8.52-22.23-19.26-34.65-30-27.14-23.47-54.27-46.88-54.27-46.88l-.15-.11,12.4-12.08,71,62.83a2.39,2.39,0,1,0,3.17-3.58l-70.74-62.59,13-12.61,85.92,75.66Zm28.31-32.1L740.38,673l36.36-42.36,17,15.18Zm114.83,21.61-13.29-11.87,21.78-23.48c3,2.82,7,6.6,12.41,11.68Zm24.07-27.26-12.33-11.59,23-24.84,11.66,11.1Zm-5.66-58.6-10.53-10,25.11-28.41L917,595.7Zm-.82-58.47a.47.47,0,0,0-.06.09l-14.78-13,25.88-29.08,14,13.47Zm7.58-45.29-26,29.23L858.57,538q5.23-7.28,10.55-14.49,7.43-8.15,14.94-16.22ZM847.29,472l-12.92,14.73-27.59-24.67,13.91-15.56Zm-9.35,17.92,12.8-14.61,25.09,24.05q-6.33,6.57-12.7,13.08Zm44.77,2.26c-1.19,1.25-2.39,2.48-3.58,3.73l-55.28-53L836,429.08l57.33,51.82Q888,486.57,882.71,492.17Zm22-23.87c-2.7,3.07-5.47,6.07-8.23,9.09l-59.16-53.48a2.43,2.43,0,0,0-1.74-.62,2.38,2.38,0,0,0-1.66.82l-15.21,17.37h0l-17.13,19.17a2.39,2.39,0,0,0,.19,3.38l58,51.85-.07.09c-5.31,6.53-10.64,13-16.1,19.47-3.91,4.61-7.86,9.2-11.89,13.72l-20-17.11,6.07-6.83a2.39,2.39,0,1,0-3.58-3.18L808.06,529l-87.12-72,18-18.09a2.39,2.39,0,0,0-3.39-3.37l-18.3,18.41-4.48-3.7-5.11-4.15,70.27-71.16,46.75,39.68a5.22,5.22,0,0,0,1.47.88L869.74,433l36.54,34.08A5.88,5.88,0,0,0,904.75,468.3Zm-9.54-99,0,0,17.86,16.27-13.83,15.83-20.9-19.08Zm34.47-2.7L916.24,382,899,366.33l15.49-12Zm-68.42,29,13.27-10.28L896.11,405l-18.24,20.87-1.22-1.14-16.78-21.48Zm-29.17-76.66a2.47,2.47,0,0,0,.19.94L843.2,345.4v39.33L783.92,334.8l33.42-39.52,14.75,11ZM870.5,245.6l4.08,22.77-13.88,10.8-14.28,5.49a2.34,2.34,0,0,0-1.1.86l-11.38,16.2-13.5-10.1,43.06-50.91Zm-55-44.24,32.85-38.61,36.49,25.34,9.77,8.76L862.66,234.3Zm81.24-52.47,30.51,25.93-29.07,18.81-10.27-9.19a2.11,2.11,0,0,0-.23-.19l-36.17-25.12,22.68-25.4Zm-1.78-45.6-21.56,24.15L808.06,83.5l20.25-29ZM805.32,87.41,870.17,131l-22.63,25.34L786.67,114.1ZM780,115.29l-28.8,41.2-24.44-17.07,29.1-40.9ZM751.93,95.8l-66.89,94-20-15.1,65.45-93.85Zm-32.46-7.5-22.38,32.08-15.71-9.5-11-8.57,22.68-31.65Zm-59-44.21L674,57.78a2.3,2.3,0,0,0,.38.32l14.8,9.9-43.86,61.22L602,98.28,605.57,95C634.31,68.53,650.9,53.13,660.5,44.09Zm-62.07,57.5,44.11,31.56-26.49,39.49L589.14,153a2.39,2.39,0,1,0-2.81,3.86l27.06,19.72-17.08,25.47-53.78-49.15C551.62,144.6,574.48,123.64,598.43,101.59ZM382.9,95.23,405.71,41.5l25.76,23.8-28.19,42.3Zm53.52,36.93-29.18-21.88L435,68.58l26,24L436.46,132.2A.08.08,0,0,1,436.42,132.16ZM409,185.65l47.15-76.13,26.89,18-42.33,60.93a2.38,2.38,0,0,0-.43,1.36,2.18,2.18,0,0,0,.1.67l2.19,7.51a2.35,2.35,0,0,0,1,1.36l11.72,7.24L450.94,213ZM425.4,202l22.85,14.88-23.43,34.29-20.71-14ZM262,122.22l14.09,5.2L259.6,186.1,245,180.44Zm2.07,65.62,8.5-30.24,49.17,15,9.29,20-3.92,13.6-7.37,3.35Zm41.75-49.42L319,166.78,273.87,153l6.72-23.9Zm-134.73,95a2.4,2.4,0,0,0-1.7-2.15L49,194.9,33.39,167.58,54.3,130.42l16-6,11.53,12.27a2.39,2.39,0,0,0,1.74.76h11a2.39,2.39,0,0,0,2-1l12.32-17.32h30.53a2.47,2.47,0,0,0,.89-.17l38.06-15.23,13.12,2.26,15.07,9.51a2.42,2.42,0,0,0,1.55.36L236,112.6l21.5,8L225.34,231l-72-25.49-3.31-5,8.2-20.81a2.33,2.33,0,0,0,.1-1.45l-2.11-8.45a2.41,2.41,0,0,0-1.76-1.74l-26.64-6.46-3.78-10L135.38,133h24a2.42,2.42,0,0,0,1-.22l13.93-6.33-2-4.35-13.46,6.12H134a2.37,2.37,0,0,0-2,1.14l-12.67,20.69a2.4,2.4,0,0,0-.35,1.24,2.45,2.45,0,0,0,.15.85l4.65,12.25a2.4,2.4,0,0,0,1.67,1.47l26.46,6.41,1.58,6.3-8.38,21.25a2.38,2.38,0,0,0,.23,2.18l4.43,6.76a2.37,2.37,0,0,0,1.2.94l73.38,26-6.7,64.75-4.76,9.67C202.05,300.26,173.33,270.85,171.09,233.42Zm46.36,80.66a2.4,2.4,0,0,0-.45-.45l-.37-.31,5.5-11.17a2.3,2.3,0,0,0,.24-.81l6.91-66.83L243.7,185,319,214.32a2.42,2.42,0,0,0,1.85,0l9.29-4.22a2.39,2.39,0,0,0,1.31-1.52L335,196.17l84.91,57.46-5.55,1.58L341.88,250a2.42,2.42,0,0,0-2,.87l-59.63,72.66a2.4,2.4,0,0,0,.28,3.32l59.84,51.95-14.93,17.37-82.39-48ZM62.55,294.35l74.19,24.15L120.82,356l-.83-.69a2.26,2.26,0,0,0-.67-.39L49.17,328.06ZM48,332.72l33,12.6-.77,5.77L47.11,338.72Zm-18.63,127,17-116.13L79.55,356,65.14,464.72Zm39.88,10.45,33.45,4.71L89.63,575.41H55.29Zm70.3,154.63c-9.74,4.52-43,8.2-53.18,9.25l7.45-53.82H167L172,603C168.16,605.92,150,619.92,139.54,624.76Zm42.94,26.67,8.25,38-65,16.15-4.15-14.33,30.28-8.73a2.39,2.39,0,1,0-1.32-4.59l-30.29,8.73-6.17-21.35c25.58-6.22,45.07-10.93,46.82-11.28C163.09,653.87,175.31,652.34,182.48,651.43Zm-114.07,25,41-10L115.63,688,76.24,699.34Zm34.27,103.27a2.26,2.26,0,0,0-.18-1.09L91.35,752.13a2.55,2.55,0,0,0-.39-.63l-20.78-24L63.52,708,117,692.58l9.61,33.23a2.39,2.39,0,0,0,2.86,1.66l66.06-16.11,5.13,23.6-23.77,6.33a2.35,2.35,0,0,0-1,.59L160,757.05a2.37,2.37,0,0,0-.73,1.73,2.57,2.57,0,0,0,.06.55l5.83,24.6-32.27-2.87-.42,4.76,33.85,3,4.84,20.39-28.13,1-41.89-8.31Zm-6.54,25.23-.68,9.81-41-3.43.47-18.1,19,1.91ZM69.28,1060.22l-30.64-45.4,7.08-60.5,36.55,3.91-7.33,78.42ZM87,958.73l39,4.17a2.4,2.4,0,0,0,.88-.09l-5.32,58.93-40-4.56Zm188.22,97.12-28.87-32.95-49.31-67.4L250,903.41a2.44,2.44,0,0,0,.7-1.4l4.41-34.29,115.75,15a2.37,2.37,0,0,0,1.12-.12l7.79-2.81a2.37,2.37,0,0,0,1.19-.92l9.28-14h0l6,1.62-8.39,54.39-11.36,32.85L333.84,938.3a2.38,2.38,0,0,0-3.06,1.43,2.32,2.32,0,0,0-.15.81,2.4,2.4,0,0,0,1.58,2.25l42.7,15.42-9.4,27.19-17.84-7a2.39,2.39,0,0,0-3.1,1.34,2.48,2.48,0,0,0-.16.88,2.38,2.38,0,0,0,1.51,2.22l18,7.11-8.9,25.73-33.43-12.56a2.41,2.41,0,0,0-3.08,1.4,2.48,2.48,0,0,0-.15.84,2.39,2.39,0,0,0,1.55,2.24l33.55,12.59-9,25.91-33-14.11a2.39,2.39,0,0,0-3.14,1.26,2.35,2.35,0,0,0-.19.93,2.39,2.39,0,0,0,1.45,2.2L343,1050.6l-9.39,27.16Zm62.8,23.59,9.38-27.12,26.72,9.41-9.44,27.73Zm42.46-21.57,9.11-26.77a.22.22,0,0,1,0-.08,2.54,2.54,0,0,0,.1-.55s0,0,0-.08l1.78-68.84,4.1,96.32Zm29.05-84.35,48.76,33.58,36.13,44.72L525.62,1095l-17.14,10.22-43.39-59.43a2.39,2.39,0,0,0-3.86,2.82l43.13,59.06-9.32,5.56L456.23,1067a6,6,0,0,0-6.09-1.94l-36.91,9.67Z"/></g></g></g></svg>