<svg xmlns="http://www.w3.org/2000/svg" viewBox="0 0 109.2 108.46"><defs><style>.cls-1{fill:#334d6c;}.cls-2{fill:none;stroke:#99a6b5;stroke-width:1.46px;}.cls-2,.cls-3,.cls-4,.cls-5,.cls-6,.cls-7{stroke-linejoin:round;}.cls-3{fill:#002147;stroke-width:1.4px;}.cls-3,.cls-4,.cls-5,.cls-7{stroke:#002147;}.cls-4,.cls-5,.cls-7{fill:#fff;}.cls-4{stroke-width:1.13px;}.cls-5{stroke-width:1.28px;}.cls-6{fill:#ffb414;stroke:#ffb414;stroke-width:1.23px;}.cls-7{stroke-width:1.13px;}</style></defs><g id="Layer_2" data-name="Layer 2"><g id="Board_3" data-name="Board 3"><g id="Layer_55" data-name="Layer 55"><circle class="cls-1" cx="54.97" cy="54.23" r="54.23"/><circle class="cls-2" cx="23.43" cy="37.76" r="17.88"/><line class="cls-2" x1="31.01" y1="30.82" y2="30.82"/><line class="cls-2" x1="31.01" y1="35.01" x2="13.21" y2="35.01"/><line class="cls-2" x1="31.01" y1="43.41" x2="19.81" y2="43.41"/><line class="cls-2" x1="31.01" y1="39.21" x2="9.47" y2="39.21"/><path class="cls-3" d="M78.84,88.68c-24.59,0-41.31-11.64-48-22V55.33c0-7,6.33-11.44,12.44-7.95l27.35,13a16.37,16.37,0,0,1,8.25,14.21Z"/><path class="cls-4" d="M44.32,47,37,60.14C41.69,69,54.25,72.31,62.87,71.75c2.66-3.4,7.72-11.34,7.72-11.34Z"/><path class="cls-5" d="M46.35,58.51c.54-1.41,1-6.29,1.12-8.25a18,18,0,0,0-1-7.35H59.08V60.69"/><path class="cls-6" d="M41.66,34.32S42.57,60.24,33,63.71c0,0,15.86-5.22,17.3-22.2Z"/><path class="cls-5" d="M65.44,33.67c-.84,10-8.84,18.22-16.78,18.22s-12-8.16-12-18.22,6.43-18.22,14.38-18.22S66.59,19.85,65.44,33.67Z"/><path class="cls-6" d="M52.6,15.05h0C45.75,14.54,37,19.12,36.05,27.3a37.85,37.85,0,0,0,19.33,8s11.81,26.62-6.6,39.62c0,0,17.42-6.19,21.82-21C73.14,45.36,76,15.05,52.6,15.05Z"/><line class="cls-7" x1="65.89" y1="79.82" x2="65.89" y2="86.63"/><line class="cls-4" x1="32.27" y1="68.75" x2="34.44" y2="64.85"/></g></g></g></svg>