<svg xmlns="http://www.w3.org/2000/svg" viewBox="0 0 174.1 174.1"><defs><style>.cls-1{fill:#334d6c;}.cls-2{isolation:isolate;}.cls-3{fill:#ffb100;}.cls-4{fill:#ffd272;}.cls-5{fill:#99a6b5;}.cls-6{fill:#012147;}.cls-7{fill:#667a91;}.cls-8{fill:#fff;}.cls-10,.cls-9{fill:none;}.cls-9{stroke:#00214a;stroke-linecap:round;stroke-miterlimit:10;stroke-width:1.12px;}.cls-10{stroke:#99a6b5;stroke-linejoin:round;stroke-width:1.91px;}</style></defs><g id="Layer_2" data-name="Layer 2"><g id="Unsorted"><circle class="cls-1" cx="87.05" cy="87.05" r="87.05"/><g class="cls-2"><path class="cls-3" d="M92.34,28.75c15.72,9.08,30.39,27,38.56,47.27L92.19,80.67l-1.82-53C91,28,91.69,28.37,92.34,28.75Z"/><path class="cls-4" d="M94.89,30.31l1.37.9.36.25c.58.4,1.17.81,1.74,1.24.15.1.29.21.43.32.47.35.94.7,1.4,1.06l.5.39c.6.48,1.2,1,1.79,1.47l.12.1c.57.48,1.13,1,1.69,1.48l.48.43c.55.49,1.1,1,1.64,1.52l.15.14c.58.56,1.15,1.13,1.72,1.71.16.15.31.31.46.47q.66.68,1.32,1.38l.39.41c.53.57,1,1.16,1.57,1.75l.32.36,1.26,1.48.45.54c.47.57.94,1.14,1.4,1.73l.18.22c.58.73,1.14,1.48,1.7,2.23.11.15.22.29.32.44.77,1,1.51,2.09,2.25,3.16l.25.37c.59.88,1.17,1.77,1.75,2.67l.29.47c.57.91,1.13,1.82,1.67,2.75l.23.39c.64,1.11,1.27,2.22,1.87,3.36l.29.53c.35.67.7,1.34,1,2,.06.12.12.25.19.37.34.7.69,1.41,1,2.11.09.21.19.41.28.62.22.47.44.94.65,1.42l.34.78c.18.41.36.83.53,1.24l.6,1.43,6.33-3.68c-.14-.35-.28-.71-.43-1.06-.05-.12-.11-.24-.16-.37l-.53-1.25c-.08-.17-.15-.35-.23-.53a1.89,1.89,0,0,1-.11-.25c-.22-.47-.43-.95-.66-1.43-.07-.16-.14-.33-.22-.49l0-.11c-.33-.71-.67-1.41-1-2.11l0-.1-.15-.28c-.34-.68-.68-1.35-1-2l-.18-.34a2,2,0,0,0-.11-.2c-.6-1.13-1.23-2.25-1.87-3.35a1.59,1.59,0,0,0-.13-.22l-.1-.18c-.54-.92-1.1-1.84-1.67-2.74l-.3-.48c-.57-.9-1.15-1.79-1.75-2.67l-.1-.16-.14-.2c-.74-1.07-1.48-2.13-2.25-3.16a1.27,1.27,0,0,0-.13-.19l-.19-.26c-.56-.75-1.13-1.49-1.7-2.22l0,0-.15-.19c-.46-.58-.93-1.16-1.4-1.72l-.22-.27a3.11,3.11,0,0,0-.23-.28L118.68,42l-.24-.28-.08-.09c-.52-.59-1-1.17-1.58-1.75l-.11-.12-.27-.28c-.43-.47-.87-.93-1.32-1.39l-.27-.28-.19-.19c-.57-.58-1.14-1.14-1.72-1.7l0,0-.12-.12-1.64-1.52-.24-.22-.24-.21c-.56-.5-1.12-1-1.69-1.48a.39.39,0,0,1-.1-.08l0,0c-.59-.5-1.19-1-1.79-1.46l-.21-.17-.29-.22-1.4-1.07-.3-.22-.13-.1L103,27.77l-.08-.05-.28-.19-1.38-.91-.25-.16-.31-.19-1.19-.73-.36-.22-.43-.25c-.47-.28-.94-.54-1.42-.8L96.71,24l-6.34,3.68c.66.35,1.32.71,2,1.09l.79.47,1.19.73Z"/></g><g class="cls-2"><polygon class="cls-5" points="80.06 38.94 86.39 35.26 88.32 88.32 81.98 92.01 80.06 38.94"/><path class="cls-6" d="M60.87,33.92l.54,0h.53c.62,0,1.24,0,1.87.06l.27,0c.53,0,1.06.09,1.59.16l.38.05c.57.08,1.14.17,1.71.28l.36.08c.45.09.91.19,1.36.3L70,35c.5.13,1,.26,1.51.42l.16,0,1.65.54.48.17L75,36.6l.53.21,1.3.55.35.16c.55.24,1.09.5,1.64.77s.86.42,1.28.65l6.34-3.68-1.18-.61-.1,0-1.64-.77-.07,0-.29-.12c-.43-.19-.86-.38-1.29-.55l-.23-.1-.3-.11-1.19-.45-.33-.12-.15-.05q-.83-.3-1.65-.54h0l-.13,0c-.5-.15-1-.29-1.51-.41l-.21-.06-.27-.06-1.36-.31a2.44,2.44,0,0,1-.26-.06h-.1c-.57-.11-1.14-.21-1.71-.28l-.14,0-.24,0c-.53-.07-1.06-.13-1.59-.17l-.2,0h-.07c-.63,0-1.26-.06-1.87-.06H67.21l-.67,0-.53,0-.23,0L65,30.4c-.58.07-1.14.16-1.7.27l-.2,0-.16,0c-.48.1-.95.21-1.41.34l-.08,0c-.44.12-.87.26-1.29.4l-.17.06-.16.06c-.55.2-1.08.42-1.6.66l-.22.1c-.54.26-1.08.53-1.6.83L50.08,36.9c.51-.3,1.05-.58,1.59-.84l.22-.1c.52-.24,1.06-.45,1.6-.65l.33-.12c.42-.15.85-.29,1.29-.41l.08,0c.46-.13.93-.24,1.41-.34l.36-.07c.56-.1,1.12-.2,1.7-.27l1-.1.53,0Z"/><path class="cls-6" d="M133.44,114.36s0,0,0-.06c0-.35,0-.71,0-1.07s0-.68,0-1v0c0-.4,0-.81-.06-1.22s0-.6,0-.91v0c0-.57-.09-1.14-.14-1.72,0-.15,0-.3,0-.45h0q-.1-1.11-.24-2.22v0c0-.21-.06-.42-.09-.64-.07-.52-.14-1.05-.22-1.59v0c0-.31-.11-.61-.16-.92s-.15-.87-.23-1.31a.29.29,0,0,0,0-.09c-.06-.34-.14-.69-.21-1s-.15-.8-.24-1.2l0-.12c-.07-.35-.16-.71-.25-1.07s-.17-.78-.27-1.17c0-.05,0-.1,0-.14-.09-.36-.19-.73-.28-1.1s-.2-.76-.31-1.14a.84.84,0,0,0-.05-.17c-.09-.35-.2-.69-.3-1s-.21-.77-.33-1.16c0-.07,0-.15-.08-.23-.1-.34-.22-.68-.33-1s-.22-.73-.34-1.09c0-.1-.08-.21-.11-.31l-.34-1c-.11-.33-.22-.65-.34-1-.06-.15-.12-.31-.17-.46l-.36-1c-.11-.27-.2-.53-.31-.8s-.29-.76-.44-1.13l-6.34,3.68c.26.65.5,1.29.75,1.93l.36,1,.51,1.43c.11.33.23.65.34,1,.16.47.3.93.45,1.39s.23.69.34,1,.27.91.4,1.37.21.7.31,1,.23.87.34,1.31.2.74.29,1.1.21.88.31,1.31.18.72.25,1.08.19.88.28,1.33l.21,1,.24,1.41c.05.3.11.61.16.91.09.56.16,1.1.23,1.65,0,.21.07.42.1.63.09.76.17,1.51.25,2.25,0,.17,0,.35,0,.52.05.57.1,1.13.13,1.69,0,.32,0,.63,0,.94s0,.83.06,1.24,0,.69,0,1,0,.75,0,1.12,0,1,0,1.49c0,.22,0,.43,0,.64,0,.71-.07,1.41-.13,2.1a2.11,2.11,0,0,1,0,.25c-.05.63-.12,1.24-.19,1.85,0,.23-.07.45-.1.67-.06.47-.13.95-.21,1.42,0,.24-.09.48-.13.71-.09.48-.18,1-.28,1.41-.06.24-.11.48-.17.72-.13.55-.27,1.08-.42,1.61-.05.18-.09.36-.15.54q-.33,1.11-.72,2.16c-.14.39-.28.76-.44,1.14l-.12.31c-.21.49-.42,1-.65,1.44s-.41.82-.63,1.22c0,.11-.11.22-.17.33q-.42.76-.87,1.47c-.28.43-.56.85-.86,1.26l-.25.33c-.22.29-.44.58-.67.86l-.35.42c-.21.24-.41.47-.63.7l-.4.42c-.21.22-.42.43-.64.63l-.43.4-.69.59-.43.35-.79.59-.39.27q-.6.41-1.23.78l6.34-3.69c.42-.24.83-.5,1.23-.77l.39-.28.79-.58.43-.36.69-.58.43-.4.64-.63.4-.42.62-.7c.12-.14.25-.28.36-.42s.45-.57.67-.86l.25-.33q.44-.6.84-1.23v0c.31-.48.6-1,.88-1.47L129,134c.22-.41.43-.81.63-1.23l0-.07c.21-.45.41-.9.61-1.36l.12-.32c.14-.32.27-.64.39-1a.88.88,0,0,0,.05-.15q.39-1.05.72-2.16s0-.1,0-.14.06-.27.1-.41c.15-.52.29-1.06.42-1.6,0-.12.07-.24.09-.36s.05-.24.08-.36c.1-.47.19-.94.28-1.41,0-.17.07-.32.1-.49l0-.23c.08-.47.15-.94.21-1.42,0-.19.06-.36.08-.55,0,0,0-.07,0-.11.07-.61.13-1.23.19-1.85,0-.08,0-.16,0-.24v0c.06-.69.1-1.38.13-2.09v0c0-.21,0-.42,0-.63C133.42,115.35,133.44,114.86,133.44,114.36Z"/><path class="cls-7" d="M80.05,38.94,82,92l38.71-4.65c12.79,31.77,5.85,60-15.38,62.57C98,150.8,90,148.56,82,144,66.7,135.11,51.7,117.55,43.28,96.65c-12.79-31.77-5.85-60,15.38-62.57C65.14,33.3,72.49,35,80.05,38.94Z"/><path class="cls-8" d="M126.8,111.47a87.38,87.38,0,0,0-6.11-24.11L82,92Z"/><polygon class="cls-6" points="81.98 92.01 88.32 88.32 127.03 83.67 120.69 87.36 81.98 92.01"/></g><polyline class="cls-9" points="40.73 86.29 82.04 92 108.75 148.27"/><line class="cls-10" x1="57.95" y1="104.64" x2="14.83" y2="104.64"/><line class="cls-10" x1="57.95" y1="113.05" x2="33.21" y2="113.05"/><line class="cls-10" x1="57.95" y1="129.86" x2="42.38" y2="129.86"/><line class="cls-10" x1="57.95" y1="121.45" x2="28" y2="121.45"/></g></g></svg>