<svg xmlns="http://www.w3.org/2000/svg" viewBox="0 0 2138.9 1751.51"><defs><style>.cls-1{fill:#cea891;}.cls-2{fill:#b67f58;}.cls-3{fill:#5c7773;}.cls-4{fill:#0e0e0e;}.cls-5{fill:#667a91;}.cls-6{stroke:#7a7a7a;stroke-width:4.11px;}.cls-11,.cls-6{stroke-miterlimit:10;}.cls-7{fill:#fff;opacity:0.15;}.cls-8{fill:#dbb8a5;}.cls-9{fill:#e5c4b5;}.cls-10{fill:#bc937d;}.cls-11{fill:none;stroke:#bc937d;stroke-width:1.46px;}</style></defs><g id="Layer_2" data-name="Layer 2"><g id="Board_3" data-name="Board 3"><g id="Layer_55" data-name="Layer 55"><path class="cls-1" d="M850.58,554.58c45.83,64.78,103.06,162.48,100.66,243.83,0,0-104.52,112.46-156.12,120.4S685.31,920.13,646.94,895s-90-96.58-88.65-136.27c.89-26.5,106.11-140.23,176-212.94A75.64,75.64,0,0,1,850.58,554.58Z"/><path class="cls-2" d="M725.08,566.67l-56.4,34.08s-19.18,76.7-19.18,131.31a97,97,0,0,0,6.59,34.3c1.26,14.66.42,31.17-6.59,43.44a48.19,48.19,0,0,0,21.3-15.52c14.48,24.79,61.7,23.46,61.7,23.46,96.44-2.33,120.22-34,131.36-63.52Z"/><path class="cls-3" d="M1878.29,797.86,769.86,799.45a58.19,58.19,0,0,1-58.28-58.11l-1-681.47A58.19,58.19,0,0,1,768.72,1.59L1877.15,0a58.2,58.2,0,0,1,58.28,58.12l1,681.46A58.2,58.2,0,0,1,1878.29,797.86Z"/><path class="cls-4" d="M1868.1,802.23,760.76,803.82a58.21,58.21,0,0,1-58.29-58.12l-1-677A58.21,58.21,0,0,1,759.62,10.4L1867,8.81a58.2,58.2,0,0,1,58.28,58.12l1,677A58.2,58.2,0,0,1,1868.1,802.23Z"/><rect class="cls-5" x="823.02" y="53.28" width="1022.03" height="706.01" transform="translate(-0.58 1.91) rotate(-0.08)"/><rect class="cls-6" x="735" y="379.62" width="54.99" height="54.97" rx="25.91" transform="translate(-0.58 1.09) rotate(-0.08)"/><polygon class="cls-7" points="1846.02 749.56 849.55 54.02 1845.01 52.55 1846.02 749.56"/><polygon class="cls-1" points="753.22 914.24 567.13 728.15 0 1248.39 231.23 1479.62 753.22 914.24"/><path class="cls-1" d="M661.27,786.82c9.53-30.49,18.41-79.88,9.23-146.38l30.88-60.1-8.73-86.14s-36.13-1.17-120,114.22c0,0-23.31,19.81-19.81,106.06,3,72.73,1.75,94.07,56.52,103.87A45.91,45.91,0,0,0,661.27,786.82Z"/><circle class="cls-1" cx="699.72" cy="537.13" r="43.5"/><path class="cls-1" d="M699.72,580.63S740.11,613,775,610.37s38.8-25.22,36.86-37.51-69.55-54.5-84.89-69.6Z"/><path class="cls-8" d="M807.84,565a1.89,1.89,0,0,1-.27,2.89c-5.39,3.7-21.63,13.42-34.26,5.93-15.38-9.11-29.67-23.24-22.57-32.57S763,530.6,763,530.6,784.43,541.78,807.84,565Z"/><path class="cls-9" d="M773.31,573.83c12.63,7.49,28.87-2.23,34.26-5.93a1.89,1.89,0,0,0,.27-2.89c-1.3-1.29-2.6-2.54-3.88-3.76C803.92,561.29,795.43,568.57,773.31,573.83Z"/><path class="cls-10" d="M1820.8,780l38.68-102.72a32.54,32.54,0,0,0-18.29-41.45h0a32.54,32.54,0,0,0-41.64,16.22l-24.23,52.24Z"/><circle class="cls-10" cx="1828.94" cy="666.02" r="32.56" transform="translate(149.65 1650.18) rotate(-50.38)"/><polygon class="cls-1" points="1999.27 995.18 1784.69 1029.45 1872.29 1751.51 2138.9 1708.93 1999.27 995.18"/><path class="cls-1" d="M1810.18,756.58c70.38-1.22,163.88,6.84,222.31,49.26,0,0,24,152.75,8,196.2-19.8,53.63-47.44,81.79-85,97.35s-115.76,17.67-144.19-3.13c-13-9.54-33.62-86.21-51.18-161.67-8-34.41-17.06-96.33-18.17-124.35C1740.18,768.12,1768,757.31,1810.18,756.58Z"/><path class="cls-1" d="M1883.28,1034.83c-17.59-22.23-49.35-53.42-102.68-79.93l-56.48-110.3-67.63,26.27s21.33,36.06,51.71,139.78c0,0,2.87,27,67.83,67.53,54.79,34.19,69.83,45.73,104.39,10.48A40.71,40.71,0,0,0,1883.28,1034.83Z"/><ellipse class="cls-1" cx="1691.92" cy="861.33" rx="36.29" ry="36.28" transform="translate(-26.66 54.51) rotate(-1.83)"/><path class="cls-1" d="M1722.71,842.13s-33.94-59.19-63.18-69.69-40.55,6.45-43.41,17.1,29.62,55.54,43.69,88.7Z"/><path class="cls-8" d="M1615.08,794.1a1.89,1.89,0,0,1,1.41-2.54c6.42-1.22,25.2-3.58,33.76,8.35,10.41,14.53,17.81,33.21,7.55,38.9s-15.54,4.81-15.54,4.81S1627.17,824.78,1615.08,794.1Z"/><path class="cls-9" d="M1650.25,799.91c-8.56-11.93-27.34-9.57-33.76-8.35a1.89,1.89,0,0,0-1.41,2.54c.68,1.71,1.36,3.37,2,5C1617.17,799.09,1627.88,795.83,1650.25,799.91Z"/><path class="cls-1" d="M1895.74,758.69,1859.62,655a32.54,32.54,0,0,0-40.6-20.1h0a32.55,32.55,0,0,0-21.58,39.14L1825.76,780Z"/><circle class="cls-1" cx="1828.94" cy="665.95" r="32.56" transform="translate(-48.74 153.28) rotate(-4.74)"/><circle class="cls-1" cx="1861.2" cy="770.75" r="36.63" transform="translate(-57.28 156.3) rotate(-4.74)"/><path class="cls-1" d="M1971.33,763.07l-43.39-100.82A32.55,32.55,0,0,0,1886,645.08h0a32.55,32.55,0,0,0-18.74,40.57L1903,789.33Z"/><circle class="cls-1" cx="1898.11" cy="675.31" r="32.56" transform="translate(-93.11 368.89) rotate(-10.84)"/><circle class="cls-1" cx="1937.72" cy="777.55" r="36.63" transform="translate(-111.63 378.16) rotate(-10.84)"/><path class="cls-1" d="M2030.55,800.17l-43-88.14a29.08,29.08,0,0,0-38.14-13.56h0a29.07,29.07,0,0,0-15,37l36.28,91Z"/><circle class="cls-1" cx="1961.52" cy="724.94" r="29.09" transform="translate(-110.84 444.9) rotate(-12.59)"/><circle class="cls-1" cx="2001.17" cy="814.51" r="32.73" transform="translate(-129.41 455.7) rotate(-12.59)"/><circle class="cls-1" cx="1757.14" cy="679.37" r="32.59" transform="translate(1032.31 2418.25) rotate(-88.51)"/><path class="cls-1" d="M1812.59,779.28l-23.72-107.16a32.54,32.54,0,0,0-38-24.73h0a32.54,32.54,0,0,0-26,36.34l15.7,108.54Z"/><circle class="cls-1" cx="1757.13" cy="679.35" r="32.56" transform="translate(1032.31 2418.22) rotate(-88.51)"/><circle class="cls-1" cx="1739.58" cy="583.41" r="30.78" transform="translate(1111.13 2307.23) rotate(-88.51)"/><circle class="cls-1" cx="1776.87" cy="787.21" r="36.63" transform="matrix(0.03, -1, 1, 0.03, 943.72, 2543)"/><path class="cls-1" d="M1769.69,576.68l-14.64-61.15a27.41,27.41,0,0,0-32-20.82h0a27.39,27.39,0,0,0-21.9,30.6l7.87,62.31Z"/><circle class="cls-1" cx="1728.32" cy="521.63" r="27.42" transform="translate(1161.92 2235.8) rotate(-88.51)"/><circle class="cls-1" cx="1739.61" cy="583.35" r="30.85" transform="translate(1111.21 2307.2) rotate(-88.51)"/><polygon class="cls-1" points="1769.64 576.82 1709.13 587.93 1724.9 684.07 1788.99 672.3 1769.64 576.82"/><path class="cls-11" d="M1724.66,583a39.48,39.48,0,0,1,28.8-5.29"/><path class="cls-11" d="M1740.1,686.74a49.06,49.06,0,0,1,35.8-6.58"/><path class="cls-11" d="M1778.84,696.16a49.09,49.09,0,0,1-35.8,6.57"/><path class="cls-10" d="M1865.68,672.44l30.47,87.32a17.35,17.35,0,0,0,12.57,4.45c-3.91-4.94-32-64.66-41.76-96.36A26.48,26.48,0,0,0,1865.68,672.44Z"/><path class="cls-10" d="M1753.5,902h0l-29.38-57.38h0c-.44-.84-.9-1.66-1.4-2.47h0s-19.27-33.6-41.28-54.66h0c12.12,14.57,27.63,41.63,38.84,72.07s9.47,50,46.48,112.81C1761.47,952.3,1753.5,902,1753.5,902Z"/><path class="cls-10" d="M1945.69,703.49l21.82,50.7s.94,2.19,9,2.07c-5.87-9.46-16-22.22-29.38-53.88C1945.42,704.08,1945.69,703.49,1945.69,703.49Z"/><path class="cls-8" d="M1733.19,548.34h0a17.24,17.24,0,0,1-19.91-13.07l-4.79-20.7a9.33,9.33,0,0,1,6.5-11,94.44,94.44,0,0,1,19.29-3.54,9.32,9.32,0,0,1,10,8l2.88,21A17.25,17.25,0,0,1,1733.19,548.34Z"/><path class="cls-9" d="M1714.27,509.31a132.1,132.1,0,0,1,22.74-4.18,11.94,11.94,0,0,1,6.93,1.38,9.33,9.33,0,0,0-9.66-6.52,94.44,94.44,0,0,0-19.29,3.54,9.34,9.34,0,0,0-6.71,9.53A11.94,11.94,0,0,1,1714.27,509.31Z"/></g></g></g></svg>