<svg xmlns="http://www.w3.org/2000/svg" viewBox="0 0 174.09 174.09"><defs><style>.cls-1,.cls-7{fill:#334d6c;}.cls-2{fill:#012147;}.cls-3{fill:#ffb100;}.cls-4{fill:#ffd272;}.cls-5{fill:#667a91;}.cls-6{fill:#fff;}.cls-7{stroke:#99a6b5;stroke-linejoin:round;stroke-width:1.91px;}</style></defs><g id="Layer_2" data-name="Layer 2"><g id="Unsorted"><circle class="cls-1" cx="87.05" cy="87.05" r="87.05"/><path class="cls-2" d="M120,149.9,49.47,109.2c-2.92-1.69-5.29-6.22-5.29-10.11V42.89c0-4.77,5.32-4.91,8.36-3.58L120,78.25a6.23,6.23,0,0,1,2.6,5v64.7C122.59,149.85,121.43,150.73,120,149.9Z"/><polygon class="cls-3" points="107.73 46.73 73.75 93.41 47.23 59.97 81.2 13.29 107.73 46.73"/><polygon class="cls-4" points="73.17 90.45 49.5 60.61 81.78 16.24 105.46 46.09 73.17 90.45"/><ellipse class="cls-3" cx="67.24" cy="67.42" rx="3.83" ry="6.64" transform="translate(-24.7 42.65) rotate(-30)"/><ellipse class="cls-3" cx="87.69" cy="39.31" rx="3.83" ry="6.64" transform="translate(-7.91 49.11) rotate(-30)"/><ellipse class="cls-3" cx="77.48" cy="53.35" rx="9.82" ry="19.74" transform="translate(-16.56 50.83) rotate(-33.02)"/><path class="cls-3" d="M78.75,20.42c2.83,3.57,6.49,4.6,8.17,2.3a4.38,4.38,0,0,0,.64-1.42l-6.36-8-3.76,5.16A14.64,14.64,0,0,0,78.75,20.42Z"/><path class="cls-3" d="M53.58,68a2.89,2.89,0,0,0,1.05-.9c1.68-2.31.74-7.07-2.09-10.65A13.49,13.49,0,0,0,51,54.8L47.23,60Z"/><path class="cls-3" d="M101.37,38.72a2.85,2.85,0,0,0-1,.9c-1.68,2.3-.74,7.07,2.09,10.64A12.15,12.15,0,0,0,104,51.89l3.76-5.16Z"/><path class="cls-3" d="M76.21,86.28C73.37,82.7,69.72,81.67,68,84a4,4,0,0,0-.64,1.42l6.35,8,3.76-5.17A13.06,13.06,0,0,0,76.21,86.28Z"/><polygon class="cls-3" points="121.29 74.77 69.81 94.04 50.2 55.26 101.69 35.98 121.29 74.77"/><polygon class="cls-4" points="70.03 91.48 52.54 56.87 101.46 38.55 118.96 73.16 70.03 91.48"/><ellipse class="cls-3" cx="70.23" cy="70.82" rx="3.83" ry="6.64" transform="translate(-26 44.6) rotate(-30)"/><ellipse class="cls-3" cx="101.23" cy="59.22" rx="3.83" ry="6.64" transform="translate(-16.05 58.55) rotate(-30)"/><ellipse class="cls-3" cx="85.75" cy="65.01" rx="9.75" ry="19.87" transform="translate(-20.72 49.41) rotate(-28.83)"/><path class="cls-3" d="M96.86,40.27c2.09,4.14,5.85,6.73,8.39,5.78a2.8,2.8,0,0,0,1.13-.78L101.68,36,96,38.12A13.1,13.1,0,0,0,96.86,40.27Z"/><path class="cls-3" d="M54.9,64.55a3.23,3.23,0,0,0,1.43-.18c2.54-1,2.91-5.08.81-9.23a14.54,14.54,0,0,0-1.24-2l-5.69,2.14Z"/><path class="cls-3" d="M116.59,65.47a3.42,3.42,0,0,0-1.43.18c-2.54.95-2.9,5.09-.81,9.23a14.91,14.91,0,0,0,1.24,2l5.7-2.14Z"/><path class="cls-3" d="M74.64,89.75c-2.1-4.14-5.86-6.73-8.4-5.78a3,3,0,0,0-1.13.78L69.81,94l5.7-2.13A14.78,14.78,0,0,0,74.64,89.75Z"/><path class="cls-5" d="M114.75,152.27,46.78,113a6.23,6.23,0,0,1-2.6-5V43.33c0-1.92,1.16-2.8,2.6-2l68,39.26a6.24,6.24,0,0,1,2.61,5v64.7C117.36,152.22,116.19,153.1,114.75,152.27Z"/><path class="cls-5" d="M46.78,41.36a1.5,1.5,0,0,1,0-2.41c-.35.15-2.6.69-2.6,4.14A17.15,17.15,0,0,1,46.78,41.36Z"/><path class="cls-6" d="M102.12,116.3,118,125.53V110.47l-15.91-9.23c-3.12-1.8-5.65.11-5.65,4.27h0C96.47,109.67,99,114.5,102.12,116.3Z"/><ellipse class="cls-2" cx="103.11" cy="109.39" rx="2.08" ry="3.6" transform="translate(-40.88 66.21) rotate(-30)"/><path class="cls-6" d="M118,125.53s4.56,1,4.56-1.61V108.86c0,2.63-4.56,1.61-4.56,1.61Z"/><path class="cls-7" d="M31.49,116.9v7.52c0,2.58,5.68,4.67,12.69,4.67,5.51,0,10.2-1.29,12-3.11a2.27,2.27,0,0,0,.73-1.56V116.9Z"/><path class="cls-7" d="M31.49,109.39v7.51c0,2.59,5.68,4.68,12.69,4.68,5.51,0,10.2-1.3,12-3.11a2.29,2.29,0,0,0,.73-1.57v-7.51Z"/><path class="cls-7" d="M31.49,101.88v7.51c0,2.58,5.68,4.68,12.69,4.68,5.51,0,10.2-1.3,12-3.11a2.29,2.29,0,0,0,.73-1.57v-7.51Z"/><path class="cls-7" d="M31.49,94.36v7.52c0,2.58,5.68,4.67,12.69,4.67,5.51,0,10.2-1.3,12-3.11a2.29,2.29,0,0,0,.73-1.56V94.36Z"/><path class="cls-7" d="M56.86,94.36a2.29,2.29,0,0,1-.73,1.57c-1.74,1.81-6.44,3.11-12,3.11-7,0-12.69-2.09-12.69-4.68s5.68-4.68,12.69-4.68S56.86,91.78,56.86,94.36Z"/></g></g></svg>