<svg xmlns="http://www.w3.org/2000/svg" viewBox="0 0 34.52 42.05"><defs><style>.cls-1{fill:#00322d;}.cls-2{fill:#94aeab;}.cls-3{fill:#39605c;}.cls-4{fill:#718d8a;}.cls-5{fill:#aabbb9;}</style></defs><g id="Layer_2" data-name="Layer 2"><g id="icons"><path class="cls-1" d="M24.48,41.8l3.38-2s-1.9-2.92-1.92-3-1.59-1.55-1.59-1.55l-1.2-.44-.76.08L22,36.76,22.75,39Z"/><polygon class="cls-1" points="27.86 39.84 31.64 37.66 31.64 34.42 27.63 31.86 26 31.73 25.03 33.09 25.93 35.79 27.86 39.84"/><path class="cls-1" d="M30.74,32.89l3.78-2.18s-.9-1.47-1.05-1.63-3.32-1.16-3.32-1.16-1.21.44-1.18.83,0,2.06,0,2.06Z"/><path class="cls-1" d="M29.5,23.05l3.78-2.19-2.54-1.55L28.5,20.47s-1.76.91-1.45,1.23A21.15,21.15,0,0,0,29.5,23.05Z"/><path class="cls-1" d="M21.63,9.41l3.78-2.18A17.25,17.25,0,0,1,26,9.41a24.33,24.33,0,0,1-2.16,1.94l-2.17.48Z"/><path class="cls-1" d="M2.88,4.39,6.66,2.21,9.09,3.58V5.94l.74,1.69s-1.58,2.59-1.67,2.62-3.38-.84-3.38-.84Z"/><path class="cls-1" d="M6.26,2.44,10,.25l2.44,1.37V4l.73,1.68s-1.58,2.59-1.66,2.62-3.39-.83-3.39-.83Z"/><path class="cls-1" d="M13.72,3.45,17.5,1.26l2.43,1.37V5l.73,1.68S19.09,9.27,19,9.3s-3.38-.83-3.38-.83Z"/><polygon class="cls-1" points="0 11.34 7.53 7 11.46 9.31 4.86 13.77 0 11.34"/><polygon class="cls-1" points="1.24 21.19 8.76 16.84 10.51 19.02 1.24 21.19"/><path class="cls-1" d="M9.11,34.82l5.35-3.09s-.74-2.08-.89-2.32-1.79-1.73-1.79-1.73l-.8.41Z"/><path class="cls-1" d="M17,40.81,20.19,39s.07-4.53,0-4.59l-1-.88-2.3.69-.94,2.38Z"/><polygon class="cls-1" points="21.45 9.65 16.85 7 17.51 1.24 20.79 3.13 21.45 9.65"/><polygon class="cls-1" points="16.11 6.8 12.13 7.15 10.04 0.25 12.89 0 16.11 6.8"/><polygon class="cls-1" points="11.59 7.47 9.29 10.73 5.02 4.54 6.92 3.58 11.59 7.47"/><polygon class="cls-1" points="9.1 11.47 9.1 16.78 3.78 12.96 3.78 9.16 9.1 11.47"/><polygon class="cls-2" points="9.29 17.75 11.59 23.67 6.66 23.24 5.02 19 9.29 17.75"/><polygon class="cls-2" points="12.13 24.61 16.11 29.56 12.89 32.64 10.04 29.1 12.13 24.61"/><polygon class="cls-1" points="16.85 30.22 21.45 32.87 20.79 38.63 17.51 36.73 16.85 30.22"/><polygon class="cls-1" points="22.19 33.07 26.17 32.72 27.63 38.98 25.41 39.87 22.19 33.07"/><polygon class="cls-1" points="26.71 32.4 29.01 29.13 33.28 35.32 31.64 37.66 26.71 32.4"/><polygon class="cls-1" points="29.21 28.39 29.21 23.09 34.52 26.91 34.52 30.7 29.21 28.39"/><polygon class="cls-1" points="29.01 22.12 26.71 16.2 31.64 16.63 33.28 20.86 29.01 22.12"/><polygon class="cls-1" points="26.17 15.26 22.19 10.3 25.41 7.23 28.26 10.77 26.17 15.26"/><ellipse class="cls-1" cx="19.15" cy="19.93" rx="9.02" ry="15.63" transform="translate(-7.4 12.25) rotate(-30)"/><path class="cls-3" d="M30.74,32.89v-3.8L26.2,25.83a17.35,17.35,0,0,0-.36-1.71l3.66-1.07-1.64-4.24-4.23-.37c-.29-.56-.61-1.11-.94-1.64L24.48,13,21.63,9.41l-2.76,2.64c-.42-.41-.85-.8-1.3-1.16L17,5.32l-3.28-1.9-.56,4.92A10,10,0,0,0,11.87,8L9.11,2.18l-2.85.26L8.05,8.35a4.92,4.92,0,0,0-.94.55L2.88,4.39,1.24,6.73,4.9,12a9.31,9.31,0,0,0-.36,1.29L0,11.35v3.79l4.54,3.27c.09.56.22,1.13.36,1.7L1.24,21.19l1.64,4.23,4.23.37c.29.56.61,1.11.94,1.65L6.26,31.28l2.85,3.54,2.76-2.63c.42.41.85.8,1.3,1.16l.56,5.57L17,40.81l.56-4.92a10,10,0,0,0,1.3.34l2.76,5.82,2.85-.25-1.79-5.92a5.46,5.46,0,0,0,.94-.54l4.23,4.5,1.64-2.33-3.66-5.3a8.53,8.53,0,0,0,.36-1.3Z"/><ellipse class="cls-4" cx="14.56" cy="21.87" rx="6.13" ry="10.62" transform="translate(-8.98 10.21) rotate(-30)"/><path class="cls-1" d="M20.49,25.29a8.18,8.18,0,0,1,0,.88c-.39,3.13-2.87,4.28-5.88,2.54A13.12,13.12,0,0,1,8.63,18.44c0-3.47,2.25-5.05,5.15-3.81a8.1,8.1,0,0,1,.78.39A13.09,13.09,0,0,1,20.49,25.29Z"/><path class="cls-5" d="M20.49,25.29a8.18,8.18,0,0,1,0,.88q-.37-.17-.78-.39A13.11,13.11,0,0,1,13.73,15.5a7.85,7.85,0,0,1,0-.87,8.1,8.1,0,0,1,.78.39A13.09,13.09,0,0,1,20.49,25.29Z"/></g></g></svg>