<svg xmlns="http://www.w3.org/2000/svg" viewBox="0 0 211.14 211.14"><defs><style>.cls-1{fill:#002147;stroke:#fff;stroke-miterlimit:10;}.cls-2{fill:#334d6c;}.cls-3{fill:#fff;}.cls-4{fill:#a3b5b3;}.cls-5{fill:#667a91;stroke:#667a91;stroke-linejoin:round;stroke-width:2.58px;}</style></defs><g id="Layer_2" data-name="Layer 2"><g id="Final_gfx" data-name="Final gfx"><circle class="cls-1" cx="105.57" cy="105.57" r="105.07"/><path class="cls-2" d="M153.08,177c-48.23,0-81.05-22.84-94.26-43.13V111.51c0-13.79,12.43-22.44,24.41-15.59l53.67,25.56a32.13,32.13,0,0,1,16.18,27.9Z"/><path class="cls-3" d="M85.36,95.1,71,121c9.17,17.35,33.83,23.86,50.73,22.76,5.23-6.66,15.15-22.25,15.15-22.25Z"/><path class="cls-3" d="M90.47,112.14c.51-3.76.9-8.22,1.07-10.56a35.58,35.58,0,0,0-2-14.42h24.74v34.89"/><path class="cls-4" d="M117.35,101S105.68,109.58,91,104.6c0,0,7.9-6,8.59-6.24s17.61-10,17.61-10l2.36,9.29Z"/><path class="cls-5" d="M80.13,70.29s1.78,50.86-17,57.67c0,0,31.14-10.24,34-43.57Z"/><path class="cls-3" d="M126.79,69c-1.64,19.67-17.35,35.75-32.93,35.75S70.35,88.76,70.35,69,83,33.26,98.57,33.26,129.05,41.9,126.79,69Z"/><path class="cls-5" d="M101.6,32.47h0c-13.44-1-30.56,8-32.47,24.05,0,0,14.42,12.83,37.93,15.61,0,0,23.17,52.22-13,77.74,0,0,34.17-12.15,42.8-41.15C141.9,92,147.56,32.47,101.6,32.47Z"/></g></g></svg>