<svg xmlns="http://www.w3.org/2000/svg" xmlns:xlink="http://www.w3.org/1999/xlink" viewBox="0 0 501.92 223.52"><defs><style>.cls-1,.cls-4,.cls-7{fill:none;}.cls-2{clip-path:url(#clip-path);}.cls-3{fill:#ece8ec;}.cls-4{stroke:#ded7df;}.cls-4,.cls-7{stroke-miterlimit:10;}.cls-5{fill:#ded7df;}.cls-6{fill:#d0c6d1;}.cls-7{stroke:#d0c6d1;stroke-linecap:round;}.cls-8{fill:#a28ea4;}.cls-9{fill:#ffb414;}.cls-10{fill:#e0b097;}</style><clipPath id="clip-path" transform="translate(20.49 19.45)"><path class="cls-1" d="M482.11,203.42H59.34A59.35,59.35,0,0,1,0,144.08V0H422.77a59.34,59.34,0,0,1,59.34,59.34Z"/></clipPath></defs><g id="Layer_2" data-name="Layer 2"><g id="illustrations"><g class="cls-2"><path class="cls-3" d="M481.43,60V204.06H58.66A59.35,59.35,0,0,1-.68,144.72V.64H422.09A59.34,59.34,0,0,1,481.43,60Z" transform="translate(20.49 19.45)"/><line class="cls-4" x1="421.95" y1="38.7" x2="421.95"/><path class="cls-5" d="M412.58,35.47a11.09,11.09,0,1,0-22.17.19Z" transform="translate(20.49 19.45)"/><path class="cls-5" d="M398.6,35.59a3.22,3.22,0,0,0,5.79-.05Z" transform="translate(20.49 19.45)"/><path class="cls-5" d="M401.35,18.8h0a2.82,2.82,0,0,0-2.75,2.43L398.1,25l6.61-.06-.57-3.72A2.8,2.8,0,0,0,401.35,18.8Z" transform="translate(20.49 19.45)"/><line class="cls-4" x1="319.59" y1="38.7" x2="319.59"/><path class="cls-5" d="M310.21,35.47a11.09,11.09,0,1,0-22.17.19Z" transform="translate(20.49 19.45)"/><path class="cls-5" d="M296.23,35.59a3.22,3.22,0,0,0,5.79-.05Z" transform="translate(20.49 19.45)"/><path class="cls-5" d="M299,18.8h0a2.8,2.8,0,0,0-2.74,2.43L295.73,25l6.61-.06-.57-3.72A2.8,2.8,0,0,0,299,18.8Z" transform="translate(20.49 19.45)"/><line class="cls-4" x1="217.22" y1="38.7" x2="217.22"/><path class="cls-5" d="M207.84,35.47a11.08,11.08,0,1,0-22.16.19Z" transform="translate(20.49 19.45)"/><path class="cls-5" d="M193.86,35.59a3.23,3.23,0,0,0,5.8-.05Z" transform="translate(20.49 19.45)"/><path class="cls-5" d="M196.62,18.8h0a2.82,2.82,0,0,0-2.75,2.43L193.36,25,200,24.9l-.57-3.72A2.8,2.8,0,0,0,196.62,18.8Z" transform="translate(20.49 19.45)"/><path class="cls-5" d="M124.46,66.92a29.28,29.28,0,0,1-2.49,10c-.26.59-.56,1.19-.89,1.78a19.4,19.4,0,0,1-4.22,5.26h-5.43A19.69,19.69,0,0,1,107,78.26c-.24-.46-.47-.91-.67-1.37a29.12,29.12,0,0,1-2.48-10Z" transform="translate(20.49 19.45)"/><rect class="cls-6" x="123.58" y="84.07" width="22.11" height="2.3"/><path class="cls-6" d="M125.2,87.84v26.29H103.1V87.84a1.79,1.79,0,0,1,1.78-1.79h18.53A1.79,1.79,0,0,1,125.2,87.84Z" transform="translate(20.49 19.45)"/><rect class="cls-5" x="123.58" y="129.83" width="22.11" height="3.75"/><rect class="cls-5" x="72.38" y="111.77" width="42.37" height="18.78"/><rect class="cls-6" x="71.07" y="106.81" width="44.79" height="6.21"/><path class="cls-6" d="M82.49,124h7.76a0,0,0,0,1,0,0v2.67a3.88,3.88,0,0,1-3.88,3.88h0a3.88,3.88,0,0,1-3.88-3.88V124A0,0,0,0,1,82.49,124Z"/><path class="cls-6" d="M96.4,124h7.76a0,0,0,0,1,0,0v2.67a3.88,3.88,0,0,1-3.88,3.88h0a3.88,3.88,0,0,1-3.88-3.88V124A0,0,0,0,1,96.4,124Z"/><rect class="cls-6" x="71.07" y="130.55" width="44.79" height="3.03"/><path class="cls-6" d="M122,76.89c-.26.59-.56,1.19-.89,1.78a19.4,19.4,0,0,1-4.22,5.26h-5.43A19.69,19.69,0,0,1,107,78.26c-.24-.46-.47-.91-.67-1.37Z" transform="translate(20.49 19.45)"/><path class="cls-5" d="M131,103.39h7.32a.92.92,0,0,1,.92.92v1.2a0,0,0,0,1,0,0h-9.16a0,0,0,0,1,0,0v-1.2A.92.92,0,0,1,131,103.39Z"/><rect class="cls-5" y="135.73" width="421.89" height="74.34"/><rect class="cls-6" x="18.88" y="133.58" width="410.16" height="7.5"/><path class="cls-6" d="M107.88,150.25H144.1a0,0,0,0,1,0,0v0a7.65,7.65,0,0,1-7.65,7.65H115.54a7.65,7.65,0,0,1-7.65-7.65v0a0,0,0,0,1,0,0Z"/><rect class="cls-6" x="123.19" y="154.08" width="5.6" height="8.93"/><rect class="cls-6" x="123.19" y="207.42" width="5.6" height="5.41"/><rect class="cls-6" x="124.68" y="159.4" width="2.61" height="51.51"/><path class="cls-6" d="M111.86,210.91h28.26a3.59,3.59,0,0,1,3.59,3.59v0a0,0,0,0,1,0,0H108.27a0,0,0,0,1,0,0v0A3.59,3.59,0,0,1,111.86,210.91Z"/><path class="cls-6" d="M182.63,150.25h36.22a0,0,0,0,1,0,0v0a7.65,7.65,0,0,1-7.65,7.65H190.28a7.65,7.65,0,0,1-7.65-7.65v0A0,0,0,0,1,182.63,150.25Z"/><rect class="cls-6" x="197.94" y="154.08" width="5.6" height="8.93"/><rect class="cls-6" x="197.94" y="207.42" width="5.6" height="5.41"/><rect class="cls-6" x="199.43" y="159.4" width="2.61" height="51.51"/><path class="cls-6" d="M186.61,210.91h28.26a3.59,3.59,0,0,1,3.59,3.59v0a0,0,0,0,1,0,0H183a0,0,0,0,1,0,0v0A3.59,3.59,0,0,1,186.61,210.91Z"/><path class="cls-6" d="M257.38,150.25H293.6a0,0,0,0,1,0,0v0a7.65,7.65,0,0,1-7.65,7.65H265a7.65,7.65,0,0,1-7.65-7.65v0A0,0,0,0,1,257.38,150.25Z"/><rect class="cls-6" x="272.69" y="154.08" width="5.6" height="8.93"/><rect class="cls-6" x="272.69" y="207.42" width="5.6" height="5.41"/><rect class="cls-6" x="274.18" y="159.4" width="2.61" height="51.51"/><path class="cls-6" d="M261.36,210.91h28.26a3.59,3.59,0,0,1,3.59,3.59v0a0,0,0,0,1,0,0H257.77a0,0,0,0,1,0,0v0a3.59,3.59,0,0,1,3.59-3.59Z"/><path class="cls-6" d="M332.13,150.25h36.22a0,0,0,0,1,0,0v0a7.65,7.65,0,0,1-7.65,7.65H339.78a7.65,7.65,0,0,1-7.65-7.65v0A0,0,0,0,1,332.13,150.25Z"/><rect class="cls-6" x="347.44" y="154.08" width="5.6" height="8.93"/><rect class="cls-6" x="347.44" y="207.42" width="5.6" height="5.41"/><rect class="cls-6" x="348.93" y="159.4" width="2.61" height="51.51"/><path class="cls-6" d="M336.11,210.91h28.26A3.59,3.59,0,0,1,368,214.5v0a0,0,0,0,1,0,0H332.52a0,0,0,0,1,0,0v0A3.59,3.59,0,0,1,336.11,210.91Z"/><path class="cls-6" d="M33.13,150.25H69.35a0,0,0,0,1,0,0v0a7.65,7.65,0,0,1-7.65,7.65H40.79a7.65,7.65,0,0,1-7.65-7.65v0A0,0,0,0,1,33.13,150.25Z"/><rect class="cls-6" x="48.44" y="154.08" width="5.6" height="8.93"/><rect class="cls-6" x="48.44" y="207.42" width="5.6" height="5.41"/><rect class="cls-6" x="49.94" y="159.4" width="2.61" height="51.51"/><path class="cls-6" d="M37.11,210.91H65.37A3.59,3.59,0,0,1,69,214.5v0a0,0,0,0,1,0,0H33.52a0,0,0,0,1,0,0v0A3.59,3.59,0,0,1,37.11,210.91Z"/><rect class="cls-5" x="183.6" y="81.01" width="245.44" height="4.73"/><rect class="cls-5" x="183.6" y="96.1" width="245.44" height="4.73"/><rect class="cls-5" x="329.15" y="108.5" width="36.57" height="20.85"/><polygon class="cls-5" points="353.04 133.59 341.83 133.59 344.42 124.75 350.45 124.75 353.04 133.59"/><rect class="cls-5" x="38.13" y="36.44" width="66.45" height="52.19"/><rect class="cls-3" x="44.31" y="42.26" width="54.1" height="3.26"/><path class="cls-5" d="M397,89.94h5.93a0,0,0,0,1,0,0V93.3a2.8,2.8,0,0,1-2.8,2.8h-.32a2.8,2.8,0,0,1-2.8-2.8V89.94A0,0,0,0,1,397,89.94Z"/><path class="cls-5" d="M406.67,89.94h5.93a0,0,0,0,1,0,0V93.3a2.8,2.8,0,0,1-2.8,2.8h-.32a2.8,2.8,0,0,1-2.8-2.8V89.94A0,0,0,0,1,406.67,89.94Z"/><path class="cls-5" d="M377.57,89.94h5.93a0,0,0,0,1,0,0V93.3a2.8,2.8,0,0,1-2.8,2.8h-.32a2.8,2.8,0,0,1-2.8-2.8V89.94a0,0,0,0,1,0,0Z"/><path class="cls-5" d="M387.27,89.94h5.93a0,0,0,0,1,0,0V93.3a2.8,2.8,0,0,1-2.8,2.8h-.32a2.8,2.8,0,0,1-2.8-2.8V89.94A0,0,0,0,1,387.27,89.94Z"/><polygon class="cls-5" points="369.03 96.1 364.58 96.1 363.81 87.62 369.8 87.62 369.03 96.1"/><polygon class="cls-5" points="358.17 96.1 353.72 96.1 352.95 87.62 358.94 87.62 358.17 96.1"/><polygon class="cls-5" points="347.31 96.1 342.86 96.1 342.09 87.62 348.08 87.62 347.31 96.1"/><polygon class="cls-5" points="336.45 96.1 332 96.1 331.23 87.62 337.22 87.62 336.45 96.1"/><polygon class="cls-5" points="325.59 96.1 321.14 96.1 320.37 87.62 326.36 87.62 325.59 96.1"/><polygon class="cls-5" points="314.73 96.1 310.28 96.1 309.51 87.62 315.5 87.62 314.73 96.1"/><polygon class="cls-5" points="303.87 96.1 299.42 96.1 298.65 87.62 304.64 87.62 303.87 96.1"/><polygon class="cls-5" points="293.01 96.1 288.56 96.1 287.79 87.62 293.78 87.62 293.01 96.1"/><polygon class="cls-5" points="282.15 96.1 277.7 96.1 276.93 87.62 282.92 87.62 282.15 96.1"/><rect class="cls-5" x="188.79" y="88.33" width="5.57" height="7.77" rx="0.77"/><rect class="cls-5" x="189.73" y="87.27" width="3.71" height="1.62"/><rect class="cls-5" x="197.93" y="88.33" width="5.57" height="7.77" rx="0.77"/><rect class="cls-5" x="198.86" y="87.27" width="3.71" height="1.62"/><rect class="cls-5" x="207.06" y="88.33" width="5.57" height="7.77" rx="0.77"/><rect class="cls-5" x="207.99" y="87.27" width="3.71" height="1.62"/><rect class="cls-5" x="216.19" y="88.33" width="5.57" height="7.77" rx="0.77"/><rect class="cls-5" x="217.13" y="87.27" width="3.71" height="1.62"/><polygon class="cls-5" points="473.32 220.76 455.63 220.76 447.02 180.26 481.93 180.26 473.32 220.76"/><path class="cls-5" d="M454.8,158.3a25.52,25.52,0,0,1-12.24,4.47A23.24,23.24,0,0,1,462.72,148,25.45,25.45,0,0,1,454.8,158.3Z" transform="translate(20.49 19.45)"/><path class="cls-5" d="M433.17,158.3a25.52,25.52,0,0,0,12.24,4.47A23.24,23.24,0,0,0,425.25,148,25.55,25.55,0,0,0,433.17,158.3Z" transform="translate(20.49 19.45)"/><path class="cls-5" d="M449.15,137.85a66.34,66.34,0,0,1-5.16,25,63.15,63.15,0,0,1,0-50.05A66.36,66.36,0,0,1,449.15,137.85Z" transform="translate(20.49 19.45)"/><path class="cls-5" d="M456.7,145.4a55.74,55.74,0,0,1-9.23,19.44,53.23,53.23,0,0,1,10-40.94A55.7,55.7,0,0,1,456.7,145.4Z" transform="translate(20.49 19.45)"/><path class="cls-5" d="M431.27,145.4a56,56,0,0,0,9.23,19.44,53.23,53.23,0,0,0-10-40.94A55.94,55.94,0,0,0,431.27,145.4Z" transform="translate(20.49 19.45)"/><path class="cls-5" d="M444,151.31s-5.46,0-5.53.38-1.66,2.16.31,3.55,4.76,3.26,4.76,3.26,5.6-.53,5.88-1,.86-1.61.86-1.61l-3.85-6Z" transform="translate(20.49 19.45)"/><path class="cls-6" d="M83.24,113H90a0,0,0,0,1,0,0v1.69a3.37,3.37,0,0,1-3.37,3.37h0a3.37,3.37,0,0,1-3.37-3.37V113A0,0,0,0,1,83.24,113Z"/><line class="cls-7" x1="78.64" y1="115.05" x2="86" y2="115.05"/><path class="cls-6" d="M79.81,93.57h0a3.37,3.37,0,0,1,3.37,3.37v1.69a0,0,0,0,1,0,0H76.44a0,0,0,0,1,0,0V96.94A3.37,3.37,0,0,1,79.81,93.57Z" transform="translate(180.1 211.65) rotate(-180)"/><line class="cls-7" x1="108.26" y1="115.05" x2="100.91" y2="115.05"/><rect class="cls-5" x="395.19" y="116.35" width="14.94" height="17.24" rx="2.25"/><rect class="cls-5" x="398.26" y="114.45" width="8.79" height="2.44"/><path class="cls-8" d="M481.43,186.28v17.78H58.66a59.14,59.14,0,0,1-42.35-17.78Z" transform="translate(20.49 19.45)"/><path class="cls-9" d="M278.49,170.13l0,.06h-.05Z" transform="translate(20.49 19.45)"/><path class="cls-10" d="M279.1,180.74l1.54.06a3.59,3.59,0,0,0,0-.57,7.56,7.56,0,0,0-1-.56h-.72v.67Z" transform="translate(20.49 19.45)"/></g></g></g></svg>