<svg xmlns="http://www.w3.org/2000/svg" viewBox="0 0 178.95 183.5"><defs><style>.cls-1{fill:#57335b;}.cls-2{fill:#2d0032;}.cls-3{fill:#99adab;}.cls-4{fill:#f7afa8;}.cls-5{fill:#335b57;}.cls-6{fill:none;stroke:#668481;stroke-linecap:round;stroke-linejoin:round;stroke-width:1.52px;}.cls-7{fill:#fff;}.cls-8{fill:#f4887d;}.cls-9{fill:#ec3826;}</style></defs><g id="Layer_2" data-name="Layer 2"><g id="additional_assets" data-name="additional assets"><path class="cls-1" d="M12.82,181.23c-5.81,0-10.54-5.31-10.54-11.83V14.1C2.28,7.58,7,2.28,12.82,2.28h153.3c5.82,0,10.55,5.3,10.55,11.82V169.4c0,6.52-4.73,11.83-10.55,11.83Z"/><path class="cls-2" d="M166.12,4.56c4.57,0,8.27,4.27,8.27,9.54V169.4c0,5.27-3.7,9.55-8.27,9.55H12.82c-4.56,0-8.26-4.28-8.26-9.55V14.1c0-5.27,3.7-9.54,8.26-9.54h153.3m0-4.56H12.82C5.75,0,0,6.33,0,14.1V169.4c0,7.78,5.75,14.1,12.82,14.1h153.3c7.08,0,12.83-6.32,12.83-14.1V14.1C179,6.33,173.2,0,166.12,0Z"/><path class="cls-2" d="M158,169.65H21c-4.08,0-7.38-3.82-7.38-8.53V22.38c0-4.71,3.3-8.53,7.38-8.53H158c4.08,0,7.39,3.82,7.39,8.53V161.12C165.34,165.83,162,169.65,158,169.65Z"/><path class="cls-3" d="M41.61,47.36c5.6,6.51,1.71,19,1.71,19s-13,2-18.57-4.52S23,42.83,23,42.83,36,40.85,41.61,47.36Z"/><path class="cls-3" d="M47.64,31.81c5.6,6.51,1.72,19,1.72,19s-13,2-18.58-4.53-1.72-19-1.72-19S42,25.3,47.64,31.81Z"/><path class="cls-3" d="M73.75,24.24c1.52,8.45-8.19,17.27-8.19,17.27s-12.18-4.89-13.7-13.34,8.2-17.27,8.2-17.27S72.24,15.78,73.75,24.24Z"/><path class="cls-3" d="M101.13,38.44C99.5,46.88,87.25,51.6,87.25,51.6s-9.6-9-8-17.38S93.16,21.06,93.16,21.06,102.76,30,101.13,38.44Z"/><path class="cls-3" d="M129.26,43.34c-2.7,8.16-15.45,11.27-15.45,11.27s-8.37-10.1-5.67-18.26,15.45-11.27,15.45-11.27S132,35.19,129.26,43.34Z"/><path class="cls-3" d="M143.11,47.21c-3.92,7.64-17,8.77-17,8.77s-6.73-11.27-2.81-18.91,17-8.78,17-8.78S147,39.56,143.11,47.21Z"/><path class="cls-3" d="M147.51,57c-3.91,7.65-17,8.77-17,8.77s-6.72-11.26-2.81-18.91,17-8.77,17-8.77S151.43,49.38,147.51,57Z"/><path class="cls-3" d="M160.26,76.27c-7.69,3.84-18.89-3-18.89-3s1.26-13.06,8.95-16.9,18.88,3,18.88,3S167.94,72.43,160.26,76.27Z"/><path class="cls-3" d="M157.8,94.7c-8.54-.94-14.24-12.77-14.24-12.77s8.15-10.29,16.69-9.34,14.23,12.77,14.23,12.77S166.33,95.65,157.8,94.7Z"/><path class="cls-3" d="M147,110.73c-8.53-1-14.23-12.77-14.23-12.77s8.15-10.29,16.68-9.34,14.24,12.76,14.24,12.76S155.54,111.67,147,110.73Z"/><path class="cls-3" d="M142.12,125.06c-8.54-.94-14.24-12.76-14.24-12.76S136,102,144.57,103s14.23,12.77,14.23,12.77S150.65,126,142.12,125.06Z"/><path class="cls-3" d="M135.4,139.81c-7.92-3.32-10-16.27-10-16.27S136.09,116,144,119.29s10,16.28,10,16.28S143.32,143.13,135.4,139.81Z"/><path class="cls-3" d="M130.06,155.15c-7.37-4.42-7.63-17.54-7.63-17.54s11.69-6,19.06-1.55,7.63,17.53,7.63,17.53S137.43,159.56,130.06,155.15Z"/><path class="cls-3" d="M115.37,162.39c-3.78-7.71,3.15-18.86,3.15-18.86s13.06,1.37,16.83,9.08-3.15,18.86-3.15,18.86S119.15,170.11,115.37,162.39Z"/><path class="cls-3" d="M100.72,150c2.87-8.09,15.68-10.94,15.68-10.94s8.15,10.28,5.28,18.38S106,168.42,106,168.42,97.84,158.14,100.72,150Z"/><path class="cls-3" d="M82.88,141.89C85.75,133.79,98.56,131,98.56,131s8.16,10.28,5.29,18.37-15.69,10.94-15.69,10.94S80,150,82.88,141.89Z"/><path class="cls-3" d="M63.43,141.17c2.87-8.1,15.68-10.94,15.68-10.94s8.16,10.28,5.29,18.37-15.68,10.94-15.68,10.94S60.56,149.26,63.43,141.17Z"/><path class="cls-3" d="M46.48,138.31c2.87-8.09,15.68-10.94,15.68-10.94s8.16,10.28,5.29,18.38-15.69,10.94-15.69,10.94S43.61,146.41,46.48,138.31Z"/><path class="cls-3" d="M36.72,125c4.9-7.06,18-6.45,18-6.45s5.17,12.06.28,19.12-18,6.45-18,6.45S31.83,132,36.72,125Z"/><path class="cls-3" d="M24,113.92c7.31-4.52,19.08,1.28,19.08,1.28s-.07,13.12-7.38,17.64-19.08-1.28-19.08-1.28S16.68,118.43,24,113.92Z"/><path class="cls-3" d="M23.18,101.09c8.58-.52,16.2,10.16,16.2,10.16s-6.27,11.52-14.84,12-16.2-10.16-16.2-10.16S14.61,101.61,23.18,101.09Z"/><path class="cls-3" d="M23.18,85.25c8.58-.53,16.2,10.15,16.2,10.15s-6.27,11.53-14.84,12S8.34,97.3,8.34,97.3,14.61,85.77,23.18,85.25Z"/><path class="cls-3" d="M29.34,72c8.21,2.52,11.6,15.2,11.6,15.2S31,95.74,22.81,93.22,11.21,78,11.21,78,21.13,69.43,29.34,72Z"/><path class="cls-3" d="M33.56,60c7.86,3.46,9.75,16.45,9.75,16.45S32.46,83.81,24.6,80.35,14.85,63.9,14.85,63.9,25.7,56.53,33.56,60Z"/><path class="cls-4" d="M151.68,107.67s1.43,7.34-1.28,11.23-12.93,36.7-23.14,38.6-26.53-5.87-31.5-5.87-10.69-11.84-17.34-9.9-10.54,6.49-18.43,0-31.07-3.77-27.51-19c2.57-11.07,2.62-25.15-3.4-35.4s-8.89-16-1.14-24.2S44.72,55,44.38,48s-.2-10.81,6.38-13.56,25.39,12.4,30.52,7,13.58-1,16.47,1.26,18.44,3.87,23.52,2.37c6.88-2,15.22,8.83,11.94,15.22s17.47,7.73,19.86,12.2,1.81,7.13-1,11.86S156.78,103.42,151.68,107.67Z"/><path class="cls-5" d="M140,120.24S118.46,97,137.44,72.46C137.44,72.46,159.88,96.06,140,120.24Z"/><path class="cls-6" d="M137.61,75.4s1.48,27,2.42,44.84c.3,5.69,2,10.27,4.05,12.22"/><path class="cls-6" d="M145.7,101.07s-6.64.51-6.33,6.6"/><path class="cls-6" d="M139,98.39s1.57-5.38,6.13-5.86"/><path class="cls-6" d="M143.39,84.66s-5.18,1.14-4.95,5.25"/><path class="cls-6" d="M133,100.76s6.71.82,6.4,6.91"/><path class="cls-6" d="M138.84,98.39s-1.57-5.38-6.13-5.86"/><path class="cls-6" d="M133.38,84.66s4.9.74,5.06,5.25"/><path class="cls-5" d="M101.08,128.08S96,159.36,64.94,159.44C64.94,159.44,69.81,127.24,101.08,128.08Z"/><path class="cls-6" d="M67.16,157.5s20.38-17.71,33.92-29.42c4.3-3.73,6.89-7.88,7.16-10.7"/><path class="cls-6" d="M82.46,135.36s4.48,4.93,9.1.95"/><path class="cls-6" d="M84.49,142.33s-5.22,2.07-8.39-1.24"/><path class="cls-6" d="M70.92,147.26s4.09,3.39,7.19.69"/><path class="cls-6" d="M90,145.6s-3.47-5.8,1.53-9.29"/><path class="cls-6" d="M84.56,142.42s-3.29,4.55-.87,8.44"/><path class="cls-6" d="M77.06,155.16s-2.42-4.32,1-7.21"/><path class="cls-5" d="M60,110.37s-5.09,31.28-36.13,31.36C23.86,141.73,28.72,109.53,60,110.37Z"/><path class="cls-6" d="M26.08,139.79S46.46,122.08,60,110.37c4.31-3.73,6.89-7.88,7.17-10.7"/><path class="cls-6" d="M41.38,117.65s4.47,4.93,9.09.95"/><path class="cls-6" d="M43.41,124.62s-5.22,2.07-8.4-1.24"/><path class="cls-6" d="M29.84,129.55s4.09,3.39,7.19.69"/><path class="cls-6" d="M49,127.89s-3.48-5.8,1.52-9.29"/><path class="cls-6" d="M43.47,124.71s-3.28,4.55-.86,8.44"/><path class="cls-6" d="M36,137.45s-2.42-4.33,1.05-7.21"/><path class="cls-5" d="M57,88.46s-23.75,21-47.82,1.38C9.14,89.84,33.29,68,57,88.46Z"/><path class="cls-6" d="M12.08,89.75s27-.8,44.88-1.29c5.7-.16,10.32-1.73,12.32-3.74"/><path class="cls-6" d="M37.94,82.31s.34,6.65,6.44,6.49"/><path class="cls-6" d="M35.1,89s-5.35-1.71-5.71-6.28"/><path class="cls-6" d="M21.48,84.21s1,5.21,5.13,5.08"/><path class="cls-6" d="M37.32,95s1-6.69,7.06-6.23"/><path class="cls-6" d="M35.09,89.1s-5.42,1.43-6,6"/><path class="cls-6" d="M21.22,94.21s.87-4.88,5.39-4.92"/><path class="cls-5" d="M61.2,51.65s-29-12.88-21.15-42.92C40.05,8.73,70,21.62,61.2,51.65Z"/><path class="cls-6" d="M41.36,11.36s12,24.22,19.84,40.29c2.51,5.11,5.86,8.66,8.52,9.65"/><path class="cls-6" d="M58.88,31.79s-5.9,3.08-3.22,8.56"/><path class="cls-6" d="M51.63,32S51,26.41,55,24.18"/><path class="cls-6" d="M50.31,17.61S46,20.7,47.82,24.39"/><path class="cls-6" d="M47.06,36.51s6.49-1.89,8.6,3.84"/><path class="cls-6" d="M51.53,32s-3.57-4.33-8-3"/><path class="cls-6" d="M41.11,21.54s4.8-1.24,6.71,2.85"/><path class="cls-5" d="M110.57,60.26s-25-19.53-10.08-46.78C100.49,13.48,126.36,33.26,110.57,60.26Z"/><path class="cls-6" d="M101.12,16.36s5.7,26.39,9.45,43.9c1.19,5.57,3.58,9.83,5.92,11.43"/><path class="cls-6" d="M113.15,40.43S106.67,42,107.94,48"/><path class="cls-6" d="M106.06,38.85s.71-5.56,5.14-6.75"/><path class="cls-6" d="M108.28,24.59s-4.94,1.95-4.06,6"/><path class="cls-6" d="M100.53,42.14s6.76-.26,7.41,5.81"/><path class="cls-6" d="M106,38.87s-2.4-5.07-7-4.82"/><path class="cls-6" d="M98.4,26.17s5,0,5.82,4.39"/><path class="cls-5" d="M133.43,78.42S129.09,47,158.74,37.81C158.74,37.81,163.56,70,133.43,78.42Z"/><path class="cls-6" d="M157.19,40.32s-14.27,22.92-23.76,38.1c-3,4.83-4.27,9.55-3.7,12.33"/><path class="cls-6" d="M149.08,66s-5.73-3.4-9,1.77"/><path class="cls-6" d="M145.09,59.91s4.38-3.5,8.39-1.27"/><path class="cls-6" d="M156.6,51.21s-4.9-2-7.07,1.46"/><path class="cls-6" d="M138.83,58.42s5,4.52,1.28,9.33"/><path class="cls-6" d="M145,59.85s1.8-5.31-1.66-8.32"/><path class="cls-6" d="M148.41,45.47s3.59,3.42,1.12,7.2"/><path class="cls-5" d="M66.3,52S62,20.56,91.61,11.35C91.61,11.35,96.43,43.55,66.3,52Z"/><path class="cls-6" d="M90.06,13.85S75.79,36.77,66.3,52c-3,4.83-4.27,9.55-3.7,12.33"/><path class="cls-6" d="M82,39.51s-5.73-3.39-9,1.77"/><path class="cls-6" d="M78,33.45s4.38-3.51,8.39-1.28"/><path class="cls-6" d="M89.47,24.74s-4.9-2-7.07,1.46"/><path class="cls-6" d="M71.7,32s5,4.52,1.28,9.33"/><path class="cls-6" d="M77.87,33.38s1.8-5.31-1.66-8.32"/><path class="cls-6" d="M81.28,19s3.59,3.42,1.12,7.2"/><path class="cls-5" d="M91.59,116.6S87.25,85.2,116.89,76C116.89,76,121.72,108.2,91.59,116.6Z"/><path class="cls-6" d="M115.35,78.5s-14.27,22.92-23.76,38.1c-3,4.83-4.27,9.55-3.71,12.33"/><path class="cls-6" d="M107.23,104.16s-5.72-3.4-9,1.77"/><path class="cls-6" d="M103.25,98.09s4.38-3.5,8.38-1.28"/><path class="cls-6" d="M114.76,89.39s-4.9-2-7.07,1.46"/><path class="cls-6" d="M97,96.6s5,4.52,1.28,9.33"/><path class="cls-6" d="M103.16,98s1.8-5.31-1.66-8.32"/><path class="cls-6" d="M106.57,83.65s3.58,3.42,1.12,7.2"/><path class="cls-5" d="M79.17,105.65s-26-18.1-12.69-46.13C66.48,59.52,93.42,77.81,79.17,105.65Z"/><path class="cls-6" d="M67.27,62.36s7.18,26,11.9,43.29c1.5,5.5,4.13,9.62,6.55,11.08"/><path class="cls-6" d="M80.63,85.72s-6.37,1.9-4.78,7.79"/><path class="cls-6" d="M73.47,84.53s.39-5.59,4.75-7"/><path class="cls-6" d="M74.88,70.17s-4.82,2.22-3.72,6.19"/><path class="cls-6" d="M68.13,88.13s6.73-.64,7.72,5.38"/><path class="cls-6" d="M73.36,84.56s-2.68-4.93-7.24-4.42"/><path class="cls-6" d="M65.1,72.3s5-.32,6.06,4.06"/><path class="cls-7" d="M60.88,105.68s2,14.28,1.61,21.74,6.43,6,7.2,1.2-1.84-23-4.55-25.26S60.88,105.68,60.88,105.68Z"/><path class="cls-7" d="M75.71,82.86S90,81,97.47,81.48s6.1-6.37,1.28-7.19-23,1.6-25.31,4.28S75.71,82.86,75.71,82.86Z"/><path class="cls-7" d="M38.07,81.56s13.06,6.12,19.09,10.51,8.57-2.1,4.94-5.38-20.25-11-23.65-10S38.07,81.56,38.07,81.56Z"/><path class="cls-7" d="M111.75,87.21s5.25,13.43,6.6,20.78,7.65,4.38,7.28-.5S118.53,85.57,115.37,84,111.75,87.21,111.75,87.21Z"/><path class="cls-7" d="M140.56,108.53s-8.11,11.92-13.41,17.19.72,8.79,4.53,5.72,14.06-18.25,13.6-21.77S140.56,108.53,140.56,108.53Z"/><path class="cls-7" d="M142.09,70.9s-14.42,0-21.75-1.42-6.87,5.54-2.19,7,23,1.36,25.64-1S142.09,70.9,142.09,70.9Z"/><path class="cls-7" d="M20.8,83.39s5.25,13.43,6.59,20.78,7.66,4.39,7.29-.5-7.1-21.92-10.26-23.52S20.8,83.39,20.8,83.39Z"/><path class="cls-7" d="M84.07,131.45s14.29,1.92,21.37,4.31,7.54-4.57,3.1-6.61S85.92,124.73,83,126.72,84.07,131.45,84.07,131.45Z"/><path class="cls-7" d="M26.79,61.63S41.08,63.56,48.16,66s7.54-4.57,3.1-6.62S28.64,54.92,25.71,56.9,26.79,61.63,26.79,61.63Z"/><path class="cls-7" d="M72.15,44.87S77.4,58.3,78.74,65.65,86.4,70,86,65.15s-7.1-21.92-10.26-23.52S72.15,44.87,72.15,44.87Z"/><path class="cls-8" d="M106,107s-3.6-8.22-5.24-8-.94-8.6-.94-8.6S93.3,87,92.67,87.19s-9.07,1.25-9.07,1.25l-4.22,1.25-4.23,6.65-4.53,7.43,1.25,6.88,3.75,5.78,4.23,3.6s7,1.88,7,2a37,37,0,0,0,4.87,1.57,8.48,8.48,0,0,1,2.36,1.56l5.77-1.09,4.7-2.35,3.28-3s-2.63-6.73-2.63-7.67A31.78,31.78,0,0,1,106,107Z"/><path class="cls-9" d="M98.1,103.32s-.24-1.44-5.41-.6-7.45,3.85-4.57,5,10.34,1,11.18-.6S100.26,103.56,98.1,103.32Z"/><path class="cls-9" d="M101.47,102.38a.8.8,0,0,1-1.45-.23c-1-3.71-3.57-12.72-6.45-12-1.8.42-3,5.19-3.59,8.53a.56.56,0,0,1-1.09,0c-1-4.26-3.2-10.93-7.52-8.43-4.85,2.8-3.59,10.51,1.89,11.68,1.85.39,1.26,2.23.1,2.08-3.47-.44-9.09-.7-10,2.06-1.19,3.72,3.43,7,12.06,5.78a.69.69,0,0,1,.61,1.17c-2.2,2.21-5.47,6-2.77,6.63s5.92-3.35,7.49-5.66a.63.63,0,0,1,1.15.29c.38,3.29,1.46,9.81,4.2,10,2.53.13,2.29-6.64,1.89-10.88a.28.28,0,0,1,.55-.11c1.06,3.19,2.89,7.55,4.9,7,3.11-.92.55-9.23,2.56-13.24s7.52-9.32,10.83-9.14c0,0-4.08,9.85-2.75,9.14,2-1.07,4.58-4.37,4.58-4.37s-4.77,13.75-9,16.87-17.42,12.11-31.36,2.39S69.23,96,77.06,89.19c6.79-5.87,21.89-7.42,25,1C104.34,96.43,102.72,100.46,101.47,102.38Z"/><path class="cls-8" d="M42,126.44s5.34-7.22,4.36-8.54,7-5.1,7-5.1-.42-7.33-.87-7.8-5.6-7.24-5.6-7.24l-3.19-3-7.86-.35-8.7-.24-5.35,4.51-3.15,6.14-1,5.45s1.86,7,1.73,7.1a38.92,38.92,0,0,0,1.07,5,8.74,8.74,0,0,1-.18,2.83l3.82,4.45,4.37,2.91,4.21,1.37s4.53-5.64,5.35-6.11A32.37,32.37,0,0,1,42,126.44Z"/><path class="cls-9" d="M41.2,117.74s1.13-.92-2.17-5-7-4.54-6.65-1.44,4.31,9.44,6.08,9.39S42.07,119.74,41.2,117.74Z"/><path class="cls-9" d="M43.69,120.2a.81.81,0,0,1-.52-1.38c2.75-2.67,9.26-9.42,7.24-11.58-1.26-1.35-6,0-9.19,1.13a.56.56,0,0,1-.57-.93c3.22-3,7.89-8.21,3.57-10.72-4.85-2.81-10.91,2.12-9.19,7.45.58,1.8-1.3,2.21-1.75,1.13-1.35-3.23-3.92-8.23-6.75-7.62-3.82.83-4.37,6.47,1,13.34a.69.69,0,0,1-.71,1.11c-3-.81-7.91-1.76-7.13.9s5.85,3.47,8.64,3.67a.64.64,0,0,1,.33,1.15c-2.67,2-7.8,6.15-6.55,8.6,1.15,2.25,6.9-1.33,10.38-3.77a.28.28,0,0,1,.37.42c-2.24,2.5-5.11,6.26-3.6,7.7,2.35,2.25,8.28-4.11,12.76-4.36s11.83,1.88,13.31,4.84c0,0-10.57,1.36-9.3,2.16,1.94,1.22,6.08,1.8,6.08,1.8S37.8,138,33,135.85s-19.17-9.09-17.68-26S33.21,89,43,92.46c8.47,3,17.33,15.29,11.58,22.15C50.29,119.73,46,120.33,43.69,120.2Z"/><path class="cls-8" d="M64.11,47.84s-9,.29-9.41,1.88-8.33-2.33-8.33-2.33-5.49,4.87-5.58,5.51-2.22,8.89-2.22,8.89l-.41,4.38,4.61,6.4,5.2,7,6.85,1.4,6.77-1.33L66.5,77s4.35-5.79,4.5-5.75a36.43,36.43,0,0,0,3.26-3.94,8.6,8.6,0,0,1,2.33-1.61L77.72,60l-.43-5.23-1.54-4.16s-7.22-.06-8.09-.4A30.78,30.78,0,0,1,64.11,47.84Z"/><path class="cls-9" d="M57.79,53.87s-1.43-.32-2.57,4.79.79,8.35,3,6.12,4.74-9.24,3.6-10.6S58.81,52,57.79,53.87Z"/><path class="cls-9" d="M58.17,50.39a.8.8,0,0,1-.76,1.26c-3.8-.5-13.13-1.42-13.58,1.5-.28,1.83,3.72,4.7,6.59,6.51a.56.56,0,0,1-.39,1c-4.3-.69-11.33-1.1-10.61,3.85.79,5.55,8.42,7.24,11.54,2.59,1-1.57,2.54-.34,2,.68-1.7,3-4,8.17-1.79,10,3,2.48,7.77-.59,9.84-9a.7.7,0,0,1,1.32-.13c1.23,2.86,3.52,7.3,5.12,5s-.9-6.74-2.47-9a.64.64,0,0,1,.7-1c3.2.88,9.66,2.3,10.8-.19,1.06-2.3-5.31-4.6-9.39-5.81a.28.28,0,0,1,.1-.55c3.36.21,8.08.12,8.28-2,.31-3.24-8.36-3.94-11.33-7.31s-5.86-10.45-4.46-13.45c0,0,7.62,7.45,7.46,6-.24-2.27-2.35-5.88-2.35-5.88s11,9.54,12.32,14.62,4.75,20.67-9.46,30-27.41-1.17-30.78-11C33.92,59.65,38.09,45.06,47,45.32,53.71,45.51,56.85,48.51,58.17,50.39Z"/><path class="cls-8" d="M118.46,58.16s-5.17-7.35-6.73-6.84-2.62-8.24-2.62-8.24-7.09-1.92-7.67-1.65-8.65,3-8.65,3L88.9,46.52l-2.82,7.35-3,8.18,2.59,6.49,4.83,4.93,4.85,2.69s7.22.46,7.28.61a37,37,0,0,0,5.08.57,8.68,8.68,0,0,1,2.63,1.06l5.43-2.21L119.93,73l2.63-3.56s-3.91-6.08-4.1-7A30.74,30.74,0,0,1,118.46,58.16Z"/><path class="cls-9" d="M110,56.18s-.52-1.37-5.42.48S98,61.9,101.05,62.51s10.33-1.1,10.84-2.8S112.12,56,110,56.18Z"/><path class="cls-9" d="M113.07,54.59a.8.8,0,0,1-1.47.06c-1.66-3.45-6-11.76-8.7-10.54-1.68.77-1.89,5.69-1.83,9.09a.56.56,0,0,1-1.07.23c-1.78-4-5.29-10.08-9-6.77-4.2,3.71-1.44,11,4.17,11.07,1.89,0,1.68,1.94.51,2-3.49.25-9,1.11-9.36,4-.42,3.88,4.75,6.18,13,3.27a.7.7,0,0,1,.83,1c-1.72,2.59-4.18,6.94-1.4,7s5.14-4.44,6.21-7a.64.64,0,0,1,1.2.06c1,3.15,3.36,9.34,6.08,8.93,2.5-.38.93-7-.3-11a.28.28,0,0,1,.52-.22c1.67,2.92,4.33,6.82,6.17,5.85,2.88-1.52-1.29-9.15-.1-13.48s5.52-10.63,8.8-11.1c0,0-2.05,10.46-.89,9.5,1.77-1.45,3.63-5.19,3.63-5.19s-1.95,14.43-5.47,18.32S109.85,85,94.26,78.23,80.2,54.67,86.54,46.48c5.49-7.09,20-11.6,24.67-4C114.71,48.18,113.92,52.46,113.07,54.59Z"/><path class="cls-8" d="M115.48,151.63s8.92-1.08,9.21-2.7,8.5,1.58,8.5,1.58,5-5.34,5.07-6,1.42-9.05,1.42-9.05l0-4.4-5.14-6-5.8-6.49-6.95-.79-6.63,1.93-4.66,3s-3.82,6.15-4,6.13a36.63,36.63,0,0,0-2.9,4.21,8.54,8.54,0,0,1-2.18,1.81l-.62,5.84.89,5.17,1.9,4s7.2-.57,8.1-.3A31.36,31.36,0,0,1,115.48,151.63Z"/><path class="cls-9" d="M121.25,145.07s1.45.18,2.13-5-1.53-8.24-3.51-5.83-3.91,9.62-2.65,10.88S120.39,147.07,121.25,145.07Z"/><path class="cls-9" d="M121.17,148.57a.81.81,0,0,1,.65-1.33c3.82.17,13.2.26,13.39-2.69.12-1.84-4.12-4.35-7.14-5.9a.56.56,0,0,1,.3-1.05c4.35.31,11.38.09,10.23-4.78-1.28-5.45-9-6.47-11.72-1.55-.91,1.65-2.5.56-2-.51,1.42-3.19,3.29-8.5.9-10.13-3.21-2.21-7.69,1.27-9,9.88a.7.7,0,0,1-1.31.24c-1.47-2.74-4.15-7-5.54-4.56s1.49,6.63,3.26,8.8a.64.64,0,0,1-.61,1c-3.26-.6-9.82-1.44-10.75,1.14-.85,2.38,5.71,4.11,9.87,5a.28.28,0,0,1,0,.56c-3.36.09-8.06.59-8.07,2.68,0,3.25,8.67,3.19,11.93,6.28s6.76,9.89,5.63,13c0,0-8.25-6.75-8-5.27C113.59,161.6,116,165,116,165s-11.79-8.54-13.56-13.48-6.56-20.17,6.77-30.72,27.41-1.26,31.63,8.2c3.66,8.19.79,23.09-8.14,23.63C126.05,153,122.65,150.32,121.17,148.57Z"/></g></g></svg>