<svg xmlns="http://www.w3.org/2000/svg" xmlns:xlink="http://www.w3.org/1999/xlink" viewBox="0 0 1691.99 823.33"><defs><style>.cls-1,.cls-17,.cls-20,.cls-26,.cls-33,.cls-34,.cls-5{fill:none;}.cls-2{clip-path:url(#clip-path);}.cls-3{fill:#d0c6d1;}.cls-4{opacity:0.5;}.cls-5{stroke:#845f80;}.cls-20,.cls-5{stroke-linecap:round;stroke-linejoin:round;stroke-width:3.07px;}.cls-6{fill:#e0d9e1;}.cls-7{fill:#8a718d;}.cls-8{fill:#735576;}.cls-9{fill:#603256;}.cls-10{fill:#2d0032;}.cls-11{fill:#beb0c0;}.cls-12{fill:#816684;}.cls-13{fill:#ffb414;}.cls-14{fill:#fff;}.cls-15{fill:#b9aaba;}.cls-16{font-size:23.6px;fill:#cabecc;}.cls-16,.cls-31{font-family:Practice-Bold, Practice;font-weight:700;}.cls-17{stroke:#816684;stroke-width:2.93px;}.cls-17,.cls-26,.cls-33,.cls-34{stroke-miterlimit:10;}.cls-18{clip-path:url(#clip-path-2);}.cls-19{fill:#d6dbe2;}.cls-20{stroke:#556b84;}.cls-21{fill:#dde1e6;}.cls-22{fill:#395270;}.cls-23{fill:#718499;}.cls-24{fill:#556b84;}.cls-25{fill:#334d6c;}.cls-26{stroke:#002147;stroke-width:3.46px;}.cls-27{fill:#002147;}.cls-28{fill:#aab5c2;}.cls-29,.cls-31{fill:#c6ced6;}.cls-30{fill:#fdb215;}.cls-31{font-size:23.41px;}.cls-32{fill:#667a91;}.cls-33{stroke:#667a91;stroke-width:2.81px;}.cls-34{stroke:#ffb414;stroke-width:5px;}</style><clipPath id="clip-path" transform="translate(66.86 60.01)"><path class="cls-1" d="M729,721.57H0V165.39A129.26,129.26,0,0,1,129.26,36.14H809Z"/></clipPath><clipPath id="clip-path-2" transform="translate(66.86 60.01)"><path class="cls-1" d="M808,36.14h729V592.32a129.26,129.26,0,0,1-129.26,129.25H728Z"/></clipPath></defs><g id="Layer_2" data-name="Layer 2"><g id="Layer_1-2" data-name="Layer 1"><g class="cls-2"><path class="cls-3" d="M774.74,635.57H-2.93V73.12A130.71,130.71,0,0,1,127.79-57.6L816.27-60Z" transform="translate(66.86 60.01)"/><g class="cls-4"><line class="cls-5" x1="628.91" y1="317.59" x2="628.91" y2="303.53"/><line class="cls-5" x1="628.91" y1="295.72" x2="628.91" y2="281.66"/><line class="cls-5" x1="628.91" y1="273.85" x2="628.91" y2="259.79"/><line class="cls-5" x1="628.91" y1="230.11" x2="628.91" y2="216.05"/><line class="cls-5" x1="643.71" y1="317.59" x2="643.71" y2="303.53"/><line class="cls-5" x1="643.71" y1="295.72" x2="643.71" y2="281.66"/><line class="cls-5" x1="658.51" y1="317.59" x2="658.51" y2="303.53"/><line class="cls-5" x1="658.51" y1="273.85" x2="658.51" y2="259.79"/><line class="cls-5" x1="658.51" y1="230.11" x2="658.51" y2="216.05"/><line class="cls-5" x1="658.51" y1="208.24" x2="658.51" y2="194.18"/><line class="cls-5" x1="673.32" y1="317.59" x2="673.32" y2="303.53"/><line class="cls-5" x1="673.32" y1="295.72" x2="673.32" y2="281.66"/><line class="cls-5" x1="673.32" y1="273.85" x2="673.32" y2="259.79"/><line class="cls-5" x1="688.12" y1="317.59" x2="688.12" y2="303.53"/><line class="cls-5" x1="688.12" y1="295.72" x2="688.12" y2="281.66"/><line class="cls-5" x1="688.12" y1="251.98" x2="688.12" y2="237.92"/><line class="cls-5" x1="688.12" y1="230.11" x2="688.12" y2="216.05"/><line class="cls-5" x1="688.12" y1="208.24" x2="688.12" y2="194.18"/><line class="cls-5" x1="702.93" y1="251.98" x2="702.93" y2="237.92"/><line class="cls-5" x1="702.93" y1="208.24" x2="702.93" y2="194.18"/><line class="cls-5" x1="717.73" y1="317.59" x2="717.73" y2="303.53"/><line class="cls-5" x1="717.73" y1="273.85" x2="717.73" y2="259.79"/><line class="cls-5" x1="717.73" y1="230.11" x2="717.73" y2="216.05"/><line class="cls-5" x1="717.73" y1="208.24" x2="717.73" y2="194.18"/><line class="cls-5" x1="717.73" y1="164.5" x2="717.73" y2="150.44"/><line class="cls-5" x1="732.53" y1="317.59" x2="732.53" y2="303.53"/><line class="cls-5" x1="732.53" y1="295.72" x2="732.53" y2="281.66"/><line class="cls-5" x1="732.53" y1="273.85" x2="732.53" y2="259.79"/><line class="cls-5" x1="732.53" y1="251.98" x2="732.53" y2="237.92"/><line class="cls-5" x1="732.53" y1="230.11" x2="732.53" y2="216.05"/><line class="cls-5" x1="747.34" y1="317.59" x2="747.34" y2="303.53"/><line class="cls-5" x1="747.34" y1="208.24" x2="747.34" y2="194.18"/><line class="cls-5" x1="747.34" y1="186.37" x2="747.34" y2="172.31"/><line class="cls-5" x1="747.34" y1="164.5" x2="747.34" y2="150.44"/><line class="cls-5" x1="762.14" y1="317.59" x2="762.14" y2="303.53"/><line class="cls-5" x1="762.14" y1="295.72" x2="762.14" y2="281.66"/><line class="cls-5" x1="762.14" y1="273.85" x2="762.14" y2="259.79"/><line class="cls-5" x1="762.14" y1="251.98" x2="762.14" y2="237.92"/><line class="cls-5" x1="762.14" y1="230.11" x2="762.14" y2="216.05"/><line class="cls-5" x1="762.14" y1="208.24" x2="762.14" y2="194.18"/><line class="cls-5" x1="776.94" y1="317.59" x2="776.94" y2="303.53"/><line class="cls-5" x1="776.94" y1="295.72" x2="776.94" y2="281.66"/><line class="cls-5" x1="776.94" y1="273.85" x2="776.94" y2="259.79"/><line class="cls-5" x1="776.94" y1="251.98" x2="776.94" y2="237.92"/><line class="cls-5" x1="776.94" y1="230.11" x2="776.94" y2="216.05"/><line class="cls-5" x1="776.94" y1="208.24" x2="776.94" y2="194.18"/><line class="cls-5" x1="776.94" y1="186.37" x2="776.94" y2="172.31"/><line class="cls-5" x1="791.75" y1="317.59" x2="791.75" y2="303.53"/><line class="cls-5" x1="791.75" y1="273.85" x2="791.75" y2="259.79"/><line class="cls-5" x1="791.75" y1="208.24" x2="791.75" y2="194.18"/><line class="cls-5" x1="806.55" y1="313.54" x2="806.55" y2="299.48"/><line class="cls-5" x1="806.55" y1="295.72" x2="806.55" y2="281.66"/><line class="cls-5" x1="806.55" y1="273.85" x2="806.55" y2="259.79"/><line class="cls-5" x1="806.55" y1="251.98" x2="806.55" y2="237.92"/><line class="cls-5" x1="806.55" y1="226.07" x2="806.55" y2="216.05"/><line class="cls-5" x1="629.13" y1="495.02" x2="629.13" y2="480.96"/><line class="cls-5" x1="629.13" y1="473.15" x2="629.13" y2="459.1"/><line class="cls-5" x1="629.13" y1="451.28" x2="629.13" y2="437.23"/><line class="cls-5" x1="629.13" y1="429.42" x2="629.13" y2="415.36"/><line class="cls-5" x1="629.13" y1="407.55" x2="629.13" y2="393.49"/><line class="cls-5" x1="629.13" y1="385.68" x2="629.13" y2="371.62"/><line class="cls-5" x1="629.13" y1="363.81" x2="629.13" y2="349.75"/><line class="cls-5" x1="612.79" y1="495.02" x2="612.79" y2="480.96"/><line class="cls-5" x1="612.79" y1="473.15" x2="612.79" y2="459.1"/><line class="cls-5" x1="612.79" y1="451.28" x2="612.79" y2="437.23"/><line class="cls-5" x1="612.79" y1="429.42" x2="612.79" y2="415.36"/><line class="cls-5" x1="612.79" y1="407.55" x2="612.79" y2="393.49"/><line class="cls-5" x1="643.93" y1="495.02" x2="643.93" y2="480.96"/><line class="cls-5" x1="643.93" y1="473.15" x2="643.93" y2="459.1"/><line class="cls-5" x1="643.93" y1="385.68" x2="643.93" y2="371.62"/><line class="cls-5" x1="643.93" y1="363.81" x2="643.93" y2="349.75"/><line class="cls-5" x1="643.93" y1="341.94" x2="643.93" y2="327.88"/><line class="cls-5" x1="658.74" y1="495.02" x2="658.74" y2="480.96"/><line class="cls-5" x1="658.74" y1="473.15" x2="658.74" y2="459.1"/><line class="cls-5" x1="658.74" y1="451.28" x2="658.74" y2="437.23"/><line class="cls-5" x1="658.74" y1="429.42" x2="658.74" y2="415.36"/><line class="cls-5" x1="658.74" y1="407.55" x2="658.74" y2="393.49"/><line class="cls-5" x1="658.74" y1="385.68" x2="658.74" y2="371.62"/><line class="cls-5" x1="673.54" y1="495.02" x2="673.54" y2="480.96"/><line class="cls-5" x1="673.54" y1="473.15" x2="673.54" y2="459.1"/><line class="cls-5" x1="673.54" y1="451.28" x2="673.54" y2="437.23"/><line class="cls-5" x1="673.54" y1="429.42" x2="673.54" y2="415.36"/><line class="cls-5" x1="673.54" y1="407.55" x2="673.54" y2="393.49"/><line class="cls-5" x1="673.54" y1="385.68" x2="673.54" y2="371.62"/><line class="cls-5" x1="553.75" y1="495.02" x2="553.75" y2="480.96"/><line class="cls-5" x1="553.75" y1="473.15" x2="553.75" y2="459.1"/><line class="cls-5" x1="553.75" y1="451.28" x2="553.75" y2="437.23"/><line class="cls-5" x1="553.75" y1="429.42" x2="553.75" y2="415.36"/><line class="cls-5" x1="553.75" y1="407.55" x2="553.75" y2="393.49"/><line class="cls-5" x1="553.75" y1="385.68" x2="553.75" y2="371.62"/><line class="cls-5" x1="553.75" y1="363.81" x2="553.75" y2="349.75"/><line class="cls-5" x1="537.41" y1="495.02" x2="537.41" y2="480.96"/><line class="cls-5" x1="537.41" y1="473.15" x2="537.41" y2="459.1"/><line class="cls-5" x1="537.41" y1="451.28" x2="537.41" y2="437.23"/><line class="cls-5" x1="537.41" y1="429.42" x2="537.41" y2="415.36"/><line class="cls-5" x1="537.41" y1="407.55" x2="537.41" y2="393.49"/><line class="cls-5" x1="568.55" y1="495.02" x2="568.55" y2="480.96"/><line class="cls-5" x1="568.55" y1="473.15" x2="568.55" y2="459.1"/><line class="cls-5" x1="568.55" y1="385.68" x2="568.55" y2="371.62"/><line class="cls-5" x1="568.55" y1="363.81" x2="568.55" y2="349.75"/><line class="cls-5" x1="568.55" y1="341.94" x2="568.55" y2="327.88"/><line class="cls-5" x1="583.36" y1="495.02" x2="583.36" y2="480.96"/><line class="cls-5" x1="583.36" y1="473.15" x2="583.36" y2="459.1"/><line class="cls-5" x1="502.38" y1="473.15" x2="502.38" y2="459.09"/><line class="cls-5" x1="583.36" y1="451.28" x2="583.36" y2="437.23"/><line class="cls-5" x1="583.36" y1="429.42" x2="583.36" y2="415.36"/><line class="cls-5" x1="583.36" y1="407.55" x2="583.36" y2="393.49"/><line class="cls-5" x1="583.36" y1="385.68" x2="583.36" y2="371.62"/><line class="cls-5" x1="598.16" y1="495.02" x2="598.16" y2="480.96"/><line class="cls-5" x1="598.16" y1="451.28" x2="598.16" y2="437.23"/><line class="cls-5" x1="598.16" y1="407.55" x2="598.16" y2="393.49"/><line class="cls-5" x1="598.16" y1="385.68" x2="598.16" y2="371.62"/><line class="cls-5" x1="688.34" y1="495.02" x2="688.34" y2="480.96"/><line class="cls-5" x1="688.34" y1="473.15" x2="688.34" y2="459.1"/><line class="cls-5" x1="688.34" y1="385.68" x2="688.34" y2="371.62"/><line class="cls-5" x1="688.34" y1="341.94" x2="688.35" y2="327.88"/><line class="cls-5" x1="703.15" y1="495.02" x2="703.15" y2="480.96"/><line class="cls-5" x1="703.15" y1="473.15" x2="703.15" y2="459.1"/><line class="cls-5" x1="703.15" y1="451.28" x2="703.15" y2="437.23"/><line class="cls-5" x1="703.15" y1="429.42" x2="703.15" y2="415.36"/><line class="cls-5" x1="703.15" y1="407.55" x2="703.15" y2="393.49"/><line class="cls-5" x1="703.15" y1="385.68" x2="703.15" y2="371.62"/><line class="cls-5" x1="703.15" y1="363.81" x2="703.15" y2="349.75"/><line class="cls-5" x1="703.15" y1="341.94" x2="703.15" y2="327.88"/><line class="cls-5" x1="717.95" y1="495.02" x2="717.95" y2="480.96"/><line class="cls-5" x1="717.95" y1="473.15" x2="717.95" y2="459.1"/><line class="cls-5" x1="717.95" y1="451.28" x2="717.95" y2="437.23"/><line class="cls-5" x1="717.95" y1="429.42" x2="717.95" y2="415.36"/><line class="cls-5" x1="717.95" y1="407.55" x2="717.95" y2="393.49"/><line class="cls-5" x1="717.95" y1="363.81" x2="717.95" y2="349.75"/><line class="cls-5" x1="717.95" y1="341.94" x2="717.95" y2="327.88"/><line class="cls-5" x1="732.76" y1="495.02" x2="732.76" y2="480.96"/><line class="cls-5" x1="732.76" y1="473.15" x2="732.76" y2="459.1"/><line class="cls-5" x1="732.76" y1="429.42" x2="732.76" y2="415.36"/><line class="cls-5" x1="732.76" y1="407.55" x2="732.76" y2="393.49"/><line class="cls-5" x1="732.76" y1="385.68" x2="732.76" y2="371.62"/><line class="cls-5" x1="732.76" y1="363.81" x2="732.76" y2="349.75"/><line class="cls-5" x1="732.76" y1="341.94" x2="732.76" y2="327.88"/><line class="cls-5" x1="747.56" y1="495.02" x2="747.56" y2="480.96"/><line class="cls-5" x1="747.56" y1="473.15" x2="747.56" y2="459.1"/><line class="cls-5" x1="747.56" y1="451.28" x2="747.56" y2="437.23"/><line class="cls-5" x1="747.56" y1="429.42" x2="747.56" y2="415.36"/><line class="cls-5" x1="747.56" y1="407.55" x2="747.56" y2="393.49"/><line class="cls-5" x1="747.56" y1="385.68" x2="747.56" y2="371.62"/><line class="cls-5" x1="747.56" y1="363.81" x2="747.56" y2="349.75"/><line class="cls-5" x1="747.56" y1="341.94" x2="747.56" y2="327.88"/><line class="cls-5" x1="762.36" y1="495.02" x2="762.36" y2="480.96"/><line class="cls-5" x1="762.36" y1="473.15" x2="762.36" y2="459.1"/><line class="cls-5" x1="762.36" y1="451.28" x2="762.36" y2="437.23"/><line class="cls-5" x1="777.17" y1="495.02" x2="777.17" y2="480.96"/><line class="cls-5" x1="777.17" y1="473.15" x2="777.17" y2="459.1"/><line class="cls-5" x1="777.17" y1="451.28" x2="777.17" y2="437.23"/><line class="cls-5" x1="777.17" y1="429.42" x2="777.17" y2="415.36"/><line class="cls-5" x1="777.17" y1="407.55" x2="777.17" y2="393.49"/><line class="cls-5" x1="777.17" y1="385.68" x2="777.17" y2="371.62"/><line class="cls-5" x1="777.17" y1="363.81" x2="777.17" y2="349.75"/><line class="cls-5" x1="777.17" y1="341.94" x2="777.17" y2="327.88"/><line class="cls-5" x1="791.97" y1="495.02" x2="791.97" y2="480.96"/><line class="cls-5" x1="791.97" y1="473.15" x2="791.97" y2="459.1"/><line class="cls-5" x1="791.97" y1="451.28" x2="791.97" y2="437.23"/><line class="cls-5" x1="791.97" y1="429.42" x2="791.97" y2="415.36"/><line class="cls-5" x1="791.97" y1="407.55" x2="791.97" y2="393.49"/><line class="cls-5" x1="791.97" y1="385.68" x2="791.97" y2="371.62"/><line class="cls-5" x1="806.77" y1="495.02" x2="806.77" y2="480.96"/><line class="cls-5" x1="806.77" y1="473.15" x2="806.77" y2="459.1"/><line class="cls-5" x1="806.77" y1="451.28" x2="806.77" y2="437.23"/><line class="cls-5" x1="806.77" y1="429.42" x2="806.77" y2="415.36"/><line class="cls-5" x1="806.77" y1="363.81" x2="806.77" y2="349.75"/><line class="cls-5" x1="806.77" y1="341.94" x2="806.77" y2="327.88"/><line class="cls-5" x1="598.16" y1="284.39" x2="598.16" y2="270.33"/><line class="cls-5" x1="598.16" y1="328.59" x2="598.16" y2="314.53"/><line class="cls-5" x1="521.4" y1="451.28" x2="521.4" y2="437.23"/><line class="cls-5" x1="521.4" y1="495.02" x2="521.4" y2="480.96"/><line class="cls-5" x1="502.38" y1="495.02" x2="502.38" y2="480.96"/><line class="cls-5" x1="490.36" y1="429.42" x2="490.36" y2="415.36"/><line class="cls-5" x1="525.41" y1="385.68" x2="525.41" y2="371.62"/><line class="cls-5" x1="776.94" y1="135.88" x2="776.94" y2="121.82"/><line class="cls-5" x1="564.47" y1="230.79" x2="564.47" y2="216.73"/><line class="cls-5" x1="472.77" y1="362.24" x2="472.77" y2="348.18"/></g><g class="cls-4"><line class="cls-5" x1="298.83" y1="317.59" x2="298.83" y2="303.53"/><line class="cls-5" x1="298.83" y1="295.72" x2="298.83" y2="281.66"/><line class="cls-5" x1="298.83" y1="273.85" x2="298.83" y2="259.79"/><line class="cls-5" x1="298.83" y1="230.11" x2="298.83" y2="216.05"/><line class="cls-5" x1="284.03" y1="317.59" x2="284.03" y2="303.53"/><line class="cls-5" x1="284.03" y1="295.72" x2="284.03" y2="281.66"/><line class="cls-5" x1="284.03" y1="186.37" x2="284.03" y2="172.31"/><line class="cls-5" x1="269.23" y1="317.59" x2="269.23" y2="303.53"/><line class="cls-5" x1="269.23" y1="273.85" x2="269.23" y2="259.79"/><line class="cls-5" x1="269.23" y1="230.11" x2="269.23" y2="216.05"/><line class="cls-5" x1="269.23" y1="208.24" x2="269.23" y2="194.18"/><line class="cls-5" x1="254.42" y1="317.59" x2="254.42" y2="303.53"/><line class="cls-5" x1="254.42" y1="295.72" x2="254.42" y2="281.66"/><line class="cls-5" x1="254.42" y1="273.85" x2="254.42" y2="259.79"/><line class="cls-5" x1="239.62" y1="317.59" x2="239.62" y2="303.53"/><line class="cls-5" x1="239.62" y1="295.72" x2="239.62" y2="281.66"/><line class="cls-5" x1="239.62" y1="251.98" x2="239.62" y2="237.92"/><line class="cls-5" x1="239.62" y1="230.11" x2="239.62" y2="216.05"/><line class="cls-5" x1="239.62" y1="208.24" x2="239.62" y2="194.18"/><line class="cls-5" x1="224.82" y1="251.98" x2="224.82" y2="237.92"/><line class="cls-5" x1="224.82" y1="208.24" x2="224.82" y2="194.18"/><line class="cls-5" x1="210.01" y1="317.59" x2="210.01" y2="303.53"/><line class="cls-5" x1="210.01" y1="273.85" x2="210.01" y2="259.79"/><line class="cls-5" x1="210.01" y1="230.11" x2="210.01" y2="216.05"/><line class="cls-5" x1="210.01" y1="208.24" x2="210.01" y2="194.18"/><line class="cls-5" x1="210.01" y1="164.5" x2="210.01" y2="150.44"/><line class="cls-5" x1="195.21" y1="317.59" x2="195.21" y2="303.53"/><line class="cls-5" x1="195.21" y1="295.72" x2="195.21" y2="281.66"/><line class="cls-5" x1="195.21" y1="273.85" x2="195.21" y2="259.79"/><line class="cls-5" x1="195.21" y1="251.98" x2="195.21" y2="237.92"/><line class="cls-5" x1="195.21" y1="230.11" x2="195.21" y2="216.05"/><line class="cls-5" x1="180.4" y1="317.59" x2="180.4" y2="303.53"/><line class="cls-5" x1="180.4" y1="208.24" x2="180.4" y2="194.18"/><line class="cls-5" x1="180.4" y1="186.37" x2="180.4" y2="172.31"/><line class="cls-5" x1="180.4" y1="164.5" x2="180.4" y2="150.44"/><line class="cls-5" x1="165.6" y1="317.59" x2="165.6" y2="303.53"/><line class="cls-5" x1="165.6" y1="295.72" x2="165.6" y2="281.66"/><line class="cls-5" x1="165.6" y1="273.85" x2="165.6" y2="259.79"/><line class="cls-5" x1="165.6" y1="251.98" x2="165.6" y2="237.92"/><line class="cls-5" x1="165.6" y1="230.11" x2="165.6" y2="216.05"/><line class="cls-5" x1="165.6" y1="208.24" x2="165.6" y2="194.18"/><line class="cls-5" x1="150.8" y1="317.59" x2="150.8" y2="303.53"/><line class="cls-5" x1="150.8" y1="295.72" x2="150.8" y2="281.66"/><line class="cls-5" x1="150.8" y1="273.85" x2="150.8" y2="259.79"/><line class="cls-5" x1="150.8" y1="251.98" x2="150.8" y2="237.92"/><line class="cls-5" x1="150.8" y1="230.11" x2="150.8" y2="216.05"/><line class="cls-5" x1="150.8" y1="208.24" x2="150.8" y2="194.18"/><line class="cls-5" x1="150.8" y1="186.37" x2="150.8" y2="172.31"/><line class="cls-5" x1="135.99" y1="317.59" x2="135.99" y2="303.53"/><line class="cls-5" x1="135.99" y1="273.85" x2="135.99" y2="259.79"/><line class="cls-5" x1="135.99" y1="208.24" x2="135.99" y2="194.18"/><line class="cls-5" x1="121.19" y1="313.54" x2="121.19" y2="299.48"/><line class="cls-5" x1="121.19" y1="295.72" x2="121.19" y2="281.66"/><line class="cls-5" x1="121.19" y1="273.85" x2="121.19" y2="259.79"/><line class="cls-5" x1="121.19" y1="251.98" x2="121.19" y2="237.92"/><line class="cls-5" x1="121.19" y1="226.07" x2="121.19" y2="216.05"/><line class="cls-5" x1="106.39" y1="317.59" x2="106.39" y2="303.53"/><line class="cls-5" x1="106.39" y1="295.72" x2="106.39" y2="281.66"/><line class="cls-5" x1="106.39" y1="273.85" x2="106.39" y2="259.79"/><line class="cls-5" x1="106.39" y1="251.98" x2="106.39" y2="237.92"/><line class="cls-5" x1="106.39" y1="230.11" x2="106.39" y2="216.05"/><line class="cls-5" x1="106.39" y1="208.24" x2="106.39" y2="194.18"/><line class="cls-5" x1="106.39" y1="164.5" x2="106.39" y2="150.44"/><line class="cls-5" x1="298.61" y1="495.02" x2="298.61" y2="480.96"/><line class="cls-5" x1="298.61" y1="473.15" x2="298.61" y2="459.1"/><line class="cls-5" x1="298.61" y1="451.28" x2="298.61" y2="437.23"/><line class="cls-5" x1="298.61" y1="429.42" x2="298.61" y2="415.36"/><line class="cls-5" x1="298.61" y1="407.55" x2="298.61" y2="393.49"/><line class="cls-5" x1="298.61" y1="385.68" x2="298.61" y2="371.62"/><line class="cls-5" x1="298.61" y1="363.81" x2="298.61" y2="349.75"/><line class="cls-5" x1="314.95" y1="495.02" x2="314.95" y2="480.96"/><line class="cls-5" x1="314.95" y1="473.15" x2="314.95" y2="459.1"/><line class="cls-5" x1="314.95" y1="451.28" x2="314.95" y2="437.23"/><line class="cls-5" x1="314.95" y1="429.42" x2="314.95" y2="415.36"/><line class="cls-5" x1="314.95" y1="407.55" x2="314.95" y2="393.49"/><line class="cls-5" x1="283.81" y1="495.02" x2="283.81" y2="480.96"/><line class="cls-5" x1="283.81" y1="473.15" x2="283.81" y2="459.1"/><line class="cls-5" x1="283.81" y1="385.68" x2="283.81" y2="371.62"/><line class="cls-5" x1="283.81" y1="363.81" x2="283.81" y2="349.75"/><line class="cls-5" x1="283.81" y1="341.94" x2="283.81" y2="327.88"/><line class="cls-5" x1="269" y1="495.02" x2="269" y2="480.96"/><line class="cls-5" x1="269" y1="473.15" x2="269" y2="459.1"/><line class="cls-5" x1="269" y1="451.28" x2="269" y2="437.23"/><line class="cls-5" x1="269" y1="429.42" x2="269" y2="415.36"/><line class="cls-5" x1="269" y1="407.55" x2="269" y2="393.49"/><line class="cls-5" x1="269" y1="385.68" x2="269" y2="371.62"/><line class="cls-5" x1="254.2" y1="495.02" x2="254.2" y2="480.96"/><line class="cls-5" x1="254.2" y1="473.15" x2="254.2" y2="459.1"/><line class="cls-5" x1="254.2" y1="451.28" x2="254.2" y2="437.23"/><line class="cls-5" x1="254.2" y1="429.42" x2="254.2" y2="415.36"/><line class="cls-5" x1="254.2" y1="407.55" x2="254.2" y2="393.49"/><line class="cls-5" x1="254.2" y1="385.68" x2="254.2" y2="371.62"/><line class="cls-5" x1="373.99" y1="495.02" x2="373.99" y2="480.96"/><line class="cls-5" x1="373.99" y1="473.15" x2="373.99" y2="459.1"/><line class="cls-5" x1="373.99" y1="451.28" x2="373.99" y2="437.23"/><line class="cls-5" x1="373.99" y1="429.42" x2="373.99" y2="415.36"/><line class="cls-5" x1="373.99" y1="407.55" x2="373.99" y2="393.49"/><line class="cls-5" x1="373.99" y1="385.68" x2="373.99" y2="371.62"/><line class="cls-5" x1="373.99" y1="363.81" x2="373.99" y2="349.75"/><line class="cls-5" x1="390.33" y1="495.02" x2="390.33" y2="480.96"/><line class="cls-5" x1="390.33" y1="473.15" x2="390.33" y2="459.1"/><line class="cls-5" x1="390.33" y1="451.28" x2="390.33" y2="437.23"/><line class="cls-5" x1="390.33" y1="429.42" x2="390.33" y2="415.36"/><line class="cls-5" x1="390.33" y1="407.55" x2="390.33" y2="393.49"/><line class="cls-5" x1="359.19" y1="495.02" x2="359.19" y2="480.96"/><line class="cls-5" x1="359.19" y1="473.15" x2="359.19" y2="459.1"/><line class="cls-5" x1="359.19" y1="385.68" x2="359.19" y2="371.62"/><line class="cls-5" x1="359.19" y1="363.81" x2="359.19" y2="349.75"/><line class="cls-5" x1="359.19" y1="341.94" x2="359.19" y2="327.88"/><line class="cls-5" x1="344.39" y1="495.02" x2="344.39" y2="480.96"/><line class="cls-5" x1="344.38" y1="473.15" x2="344.38" y2="459.1"/><line class="cls-5" x1="454.97" y1="473.15" x2="454.97" y2="459.09"/><line class="cls-5" x1="440.17" y1="473.15" x2="440.17" y2="459.09"/><line class="cls-5" x1="425.36" y1="473.15" x2="425.36" y2="459.09"/><line class="cls-5" x1="344.38" y1="451.28" x2="344.38" y2="437.23"/><line class="cls-5" x1="344.38" y1="429.42" x2="344.38" y2="415.36"/><line class="cls-5" x1="344.38" y1="407.55" x2="344.38" y2="393.49"/><line class="cls-5" x1="344.38" y1="385.68" x2="344.38" y2="371.62"/><line class="cls-5" x1="329.58" y1="495.02" x2="329.58" y2="480.96"/><line class="cls-5" x1="329.58" y1="451.28" x2="329.58" y2="437.23"/><line class="cls-5" x1="329.58" y1="407.55" x2="329.58" y2="393.49"/><line class="cls-5" x1="329.58" y1="385.68" x2="329.58" y2="371.62"/><line class="cls-5" x1="239.4" y1="495.02" x2="239.4" y2="480.96"/><line class="cls-5" x1="239.4" y1="473.15" x2="239.4" y2="459.1"/><line class="cls-5" x1="239.4" y1="385.68" x2="239.4" y2="371.62"/><line class="cls-5" x1="239.4" y1="341.94" x2="239.4" y2="327.88"/><line class="cls-5" x1="224.59" y1="495.02" x2="224.59" y2="480.96"/><line class="cls-5" x1="224.59" y1="473.15" x2="224.59" y2="459.1"/><line class="cls-5" x1="224.59" y1="451.28" x2="224.59" y2="437.23"/><line class="cls-5" x1="224.59" y1="429.42" x2="224.59" y2="415.36"/><line class="cls-5" x1="224.59" y1="407.55" x2="224.59" y2="393.49"/><line class="cls-5" x1="224.59" y1="385.68" x2="224.59" y2="371.62"/><line class="cls-5" x1="224.59" y1="363.81" x2="224.59" y2="349.75"/><line class="cls-5" x1="224.59" y1="341.94" x2="224.59" y2="327.88"/><line class="cls-5" x1="209.79" y1="495.02" x2="209.79" y2="480.96"/><line class="cls-5" x1="209.79" y1="473.15" x2="209.79" y2="459.1"/><line class="cls-5" x1="209.79" y1="451.28" x2="209.79" y2="437.23"/><line class="cls-5" x1="209.79" y1="429.42" x2="209.79" y2="415.36"/><line class="cls-5" x1="209.79" y1="407.55" x2="209.79" y2="393.49"/><line class="cls-5" x1="209.79" y1="363.81" x2="209.79" y2="349.75"/><line class="cls-5" x1="209.79" y1="341.94" x2="209.79" y2="327.88"/><line class="cls-5" x1="194.99" y1="495.02" x2="194.99" y2="480.96"/><line class="cls-5" x1="194.99" y1="473.15" x2="194.99" y2="459.1"/><line class="cls-5" x1="194.98" y1="429.42" x2="194.98" y2="415.36"/><line class="cls-5" x1="194.98" y1="407.55" x2="194.98" y2="393.49"/><line class="cls-5" x1="194.98" y1="385.68" x2="194.98" y2="371.62"/><line class="cls-5" x1="194.98" y1="363.81" x2="194.98" y2="349.75"/><line class="cls-5" x1="194.98" y1="341.94" x2="194.98" y2="327.88"/><line class="cls-5" x1="180.18" y1="495.02" x2="180.18" y2="480.96"/><line class="cls-5" x1="180.18" y1="473.15" x2="180.18" y2="459.1"/><line class="cls-5" x1="180.18" y1="451.28" x2="180.18" y2="437.23"/><line class="cls-5" x1="180.18" y1="429.42" x2="180.18" y2="415.36"/><line class="cls-5" x1="180.18" y1="407.55" x2="180.18" y2="393.49"/><line class="cls-5" x1="180.18" y1="385.68" x2="180.18" y2="371.62"/><line class="cls-5" x1="180.18" y1="363.81" x2="180.18" y2="349.75"/><line class="cls-5" x1="180.18" y1="341.94" x2="180.18" y2="327.88"/><line class="cls-5" x1="165.38" y1="495.02" x2="165.38" y2="480.96"/><line class="cls-5" x1="165.38" y1="473.15" x2="165.38" y2="459.1"/><line class="cls-5" x1="165.38" y1="451.28" x2="165.38" y2="437.23"/><line class="cls-5" x1="150.57" y1="495.02" x2="150.57" y2="480.96"/><line class="cls-5" x1="150.57" y1="473.15" x2="150.57" y2="459.1"/><line class="cls-5" x1="150.57" y1="451.28" x2="150.57" y2="437.23"/><line class="cls-5" x1="150.57" y1="429.42" x2="150.57" y2="415.36"/><line class="cls-5" x1="150.57" y1="407.55" x2="150.57" y2="393.49"/><line class="cls-5" x1="150.57" y1="385.68" x2="150.57" y2="371.62"/><line class="cls-5" x1="150.57" y1="363.81" x2="150.57" y2="349.75"/><line class="cls-5" x1="150.57" y1="341.94" x2="150.57" y2="327.88"/><line class="cls-5" x1="135.77" y1="495.02" x2="135.77" y2="480.96"/><line class="cls-5" x1="135.77" y1="473.15" x2="135.77" y2="459.1"/><line class="cls-5" x1="135.77" y1="451.28" x2="135.77" y2="437.23"/><line class="cls-5" x1="135.77" y1="429.42" x2="135.77" y2="415.36"/><line class="cls-5" x1="135.77" y1="407.55" x2="135.77" y2="393.49"/><line class="cls-5" x1="135.77" y1="385.68" x2="135.77" y2="371.62"/><line class="cls-5" x1="120.97" y1="495.02" x2="120.97" y2="480.96"/><line class="cls-5" x1="120.97" y1="473.15" x2="120.97" y2="459.1"/><line class="cls-5" x1="120.97" y1="451.28" x2="120.97" y2="437.23"/><line class="cls-5" x1="120.97" y1="429.42" x2="120.97" y2="415.36"/><line class="cls-5" x1="120.97" y1="363.81" x2="120.97" y2="349.75"/><line class="cls-5" x1="120.97" y1="341.94" x2="120.97" y2="327.88"/><line class="cls-5" x1="106.16" y1="495.02" x2="106.16" y2="480.96"/><line class="cls-5" x1="106.16" y1="451.28" x2="106.16" y2="437.23"/><line class="cls-5" x1="106.16" y1="429.42" x2="106.16" y2="415.36"/><line class="cls-5" x1="106.16" y1="407.55" x2="106.16" y2="393.49"/><line class="cls-5" x1="106.16" y1="385.68" x2="106.16" y2="371.62"/><line class="cls-5" x1="106.16" y1="363.81" x2="106.16" y2="349.75"/><line class="cls-5" x1="106.16" y1="341.94" x2="106.16" y2="327.88"/><line class="cls-5" x1="329.58" y1="284.39" x2="329.58" y2="270.33"/><line class="cls-5" x1="329.58" y1="328.59" x2="329.58" y2="314.53"/><line class="cls-5" x1="406.34" y1="451.28" x2="406.34" y2="437.23"/><line class="cls-5" x1="458.41" y1="495.02" x2="458.41" y2="480.96"/><line class="cls-5" x1="406.34" y1="495.02" x2="406.34" y2="480.96"/><line class="cls-5" x1="425.36" y1="495.02" x2="425.36" y2="480.96"/><line class="cls-5" x1="437.38" y1="429.42" x2="437.38" y2="415.36"/><line class="cls-5" x1="402.33" y1="385.68" x2="402.33" y2="371.62"/><line class="cls-5" x1="363.27" y1="230.79" x2="363.27" y2="216.73"/><line class="cls-5" x1="454.97" y1="362.24" x2="454.97" y2="348.18"/></g><path class="cls-6" d="M1201.88,428.51a152.45,152.45,0,0,0,0,213.27Z" transform="translate(66.86 60.01)"/><ellipse class="cls-6" cx="352.85" cy="650.14" rx="119.49" ry="111.59"/><ellipse class="cls-6" cx="645.68" cy="538.8" rx="186.34" ry="174.02"/><ellipse class="cls-6" cx="510.95" cy="573.35" rx="142.24" ry="132.84"/><path class="cls-6" d="M917,547.53c-13-51.61-62.65-90-121.89-90-69.17,0-125.24,52.37-125.24,117s56.07,116.95,125.24,116.95c59.24,0,108.87-38.42,121.89-90Z" transform="translate(66.86 60.01)"/><ellipse class="cls-6" cx="297.57" cy="550.21" rx="212.53" ry="198.47"/><ellipse class="cls-6" cx="626.98" cy="361.04" rx="100.53" ry="93.89"/><ellipse class="cls-6" cx="140.44" cy="625.95" rx="125.23" ry="116.95"/><path class="cls-7" d="M166,616.48a388.27,388.27,0,0,0-29.49-55.91C119.49,533.82,92.19,499.31,59,486.76l1.56-4.12c19,7.16,48.18,26.1,79.75,75.62a391.21,391.21,0,0,1,29.81,56.57Z" transform="translate(66.86 60.01)"/><path class="cls-7" d="M74.05,498.92s8.93,6.46,12.66-.43S83.14,487.17,80,486.18,67.58,496.24,74.05,498.92Z" transform="translate(66.86 60.01)"/><path class="cls-7" d="M83.39,464.31c-5.59-3.72-34.89-7.65-43.71,5.63s6.17,38.76,11.77,42.47,17.28-4,26.1-17.32S89,468,83.39,464.31Z" transform="translate(66.86 60.01)"/><path class="cls-7" d="M164.3,617.22c-.43-.58-44.13-58-87.4-62.33l.28-2.8c23.32,2.35,46.4,19.5,61.65,33.48a249.9,249.9,0,0,1,27.72,30Z" transform="translate(66.86 60.01)"/><path class="cls-7" d="M88.18,559.91s6.58,2.51,7.74-2.36-4.07-6.39-6.17-6.49S83.75,559.32,88.18,559.91Z" transform="translate(66.86 60.01)"/><path class="cls-7" d="M88.24,537c-4.07-1.37-22.78,1-26,10.68S72.41,570.59,76.47,572s10-5.34,13.24-15S92.3,538.39,88.24,537Z" transform="translate(66.86 60.01)"/><path class="cls-7" d="M166.29,615.52c0-.88,2.42-88.76-35.33-125.93l2.41-2.44c20.34,20,29.13,54,32.93,78.87a305.81,305.81,0,0,1,3.42,49.61Z" transform="translate(66.86 60.01)"/><path class="cls-7" d="M137.83,503s4.33,7.4,9.15,3.67,1-9.17-.9-10.87S134.08,499,137.83,503Z" transform="translate(66.86 60.01)"/><path class="cls-7" d="M155.37,481.29c-2.81-4.4-22.41-16.41-32.86-9.74s-7.8,29.51-5,33.91,13.56,2.57,24-4.11S158.18,485.7,155.37,481.29Z" transform="translate(66.86 60.01)"/><ellipse class="cls-8" cx="175.83" cy="701.26" rx="34.04" ry="35.46"/><ellipse class="cls-8" cx="266.72" cy="673.65" rx="60.55" ry="63.07"/><ellipse class="cls-8" cx="220.87" cy="676.85" rx="40.53" ry="42.21"/><ellipse class="cls-8" cx="336.53" cy="699.55" rx="35.68" ry="37.17"/><polygon class="cls-7" points="671.55 634.16 238.02 634.16 238.02 359.55 277.2 359.55 453.4 296.42 630.27 359.55 671.55 359.55 671.55 634.16"/><polygon class="cls-9" points="678.19 359.67 630.27 359.67 453.4 296.56 277.2 359.67 231.37 359.67 231.37 344.59 277.2 344.59 453.4 281.47 630.27 344.59 678.19 344.59 678.19 359.67"/><rect class="cls-10" x="337.47" y="625.3" width="26.99" height="8.86"/><rect class="cls-10" x="340.62" y="458.78" width="20.7" height="6.79"/><polygon class="cls-10" points="359.83 463.21 342.11 463.21 339.89 630.42 362.04 630.42 359.83 463.21"/><circle class="cls-10" cx="340.62" cy="463.21" r="4.43"/><circle class="cls-10" cx="361.32" cy="463.21" r="4.43"/><rect class="cls-10" x="407.24" y="625.3" width="26.99" height="8.86"/><rect class="cls-10" x="410.38" y="458.78" width="20.7" height="6.79"/><polygon class="cls-10" points="429.59 463.21 411.87 463.21 409.66 630.42 431.81 630.42 429.59 463.21"/><circle class="cls-10" cx="410.38" cy="463.21" r="4.43"/><circle class="cls-10" cx="431.08" cy="463.21" r="4.43"/><rect class="cls-10" x="477" y="625.3" width="26.99" height="8.86"/><rect class="cls-10" x="480.14" y="458.78" width="20.7" height="6.79"/><polygon class="cls-10" points="499.35 463.21 481.63 463.21 479.42 630.42 501.57 630.42 499.35 463.21"/><circle class="cls-10" cx="480.14" cy="463.21" r="4.43"/><circle class="cls-10" cx="500.84" cy="463.21" r="4.43"/><rect class="cls-10" x="546.76" y="625.3" width="26.99" height="8.86"/><rect class="cls-10" x="549.91" y="458.78" width="20.7" height="6.79"/><polygon class="cls-10" points="569.12 463.21 551.4 463.21 549.18 630.42 571.33 630.42 569.12 463.21"/><circle class="cls-10" cx="549.91" cy="463.21" r="4.43"/><circle class="cls-10" cx="570.61" cy="463.21" r="4.43"/><rect class="cls-10" x="616.52" y="625.3" width="26.99" height="8.86"/><rect class="cls-10" x="619.67" y="458.78" width="20.7" height="6.79"/><polygon class="cls-10" points="638.88 463.21 621.16 463.21 618.95 630.42 641.09 630.42 638.88 463.21"/><circle class="cls-10" cx="619.67" cy="463.21" r="4.43"/><circle class="cls-10" cx="640.37" cy="463.21" r="4.43"/><rect class="cls-10" x="267.71" y="625.3" width="26.99" height="8.86"/><rect class="cls-10" x="270.86" y="458.78" width="20.7" height="6.79"/><polygon class="cls-10" points="290.06 463.21 272.35 463.21 270.13 630.42 292.28 630.42 290.06 463.21"/><circle class="cls-10" cx="270.86" cy="463.21" r="4.43"/><circle class="cls-10" cx="291.55" cy="463.21" r="4.43"/><rect class="cls-11" x="271.92" y="429.3" width="365.73" height="29.48"/><rect class="cls-10" x="231.37" y="634.16" width="446.82" height="8.86"/><rect class="cls-10" x="226.71" y="643.02" width="456.14" height="8.86"/><rect class="cls-10" x="221.73" y="651.88" width="466.11" height="8.86"/><rect class="cls-10" x="215.91" y="660.73" width="477.74" height="8.86"/><rect class="cls-10" x="210.1" y="669.59" width="489.36" height="8.86"/><rect class="cls-10" x="204.01" y="678.45" width="501.55" height="8.86"/><rect class="cls-10" x="198.2" y="687.31" width="513.17" height="8.86"/><polygon class="cls-11" points="454.78 328.94 254.93 408.67 257.32 412.82 278.23 416.04 454.78 349.57 628.42 416.04 652.24 412.82 654.64 408.67 454.78 328.94"/><polygon class="cls-11" points="652.24 412.82 257.32 412.82 266.82 429.3 642.74 429.3 652.24 412.82"/><path class="cls-10" d="M486.88,243.83a99,99,0,1,1-99-99A99,99,0,0,1,486.88,243.83Z" transform="translate(66.86 60.01)"/><path class="cls-9" d="M481.46,243.83a93.54,93.54,0,1,1-93.54-93.54A93.54,93.54,0,0,1,481.46,243.83Z" transform="translate(66.86 60.01)"/><path class="cls-10" d="M447,243.83a59.05,59.05,0,1,1-59.05-59.05A59.06,59.06,0,0,1,447,243.83Z" transform="translate(66.86 60.01)"/><path class="cls-12" d="M450.41,286.22a6,6,0,0,0,1.14-.87q1.4-2.69,2.54-5.51c-.56-.57-1.12-1.1-1.7-1.59h0l-.36-.3-.51-.41c-.22-.18-.45-.35-.68-.51l-.47-.35c-.3-.21-.61-.41-.91-.6l-.52-.32-.85-.49-.49-.25c-.22-.12-.45-.23-.67-.33l-.52-.24c-.22-.09-.43-.19-.65-.27l-.51-.21-.66-.23-.49-.17-.74-.22-.38-.11-1.08-.26-.38-.07-.72-.13-.44-.07-.64-.09-.43,0-.63-.06-.4,0-.67,0h-1.27c-.56,0-1.1,0-1.63.08a25.68,25.68,0,0,1,4.92,8c.31,0,.62.12.92.19l.26.07.66.18.27.08.66.23.22.09.78.33.07,0a15.2,15.2,0,0,1,2.6,1.52h0c.28.2.55.4.82.62a19.88,19.88,0,0,1,2.84,2.88A3.08,3.08,0,0,1,450.41,286.22Z" transform="translate(66.86 60.01)"/><path class="cls-10" d="M417,313.21c-4.19-5-8.54-11.33-8-18.63A35.86,35.86,0,0,1,399,299.66c1.71,6.85,7.14,12.62,10.82,16.78A30.12,30.12,0,0,0,417,313.21Z" transform="translate(66.86 60.01)"/><path class="cls-10" d="M362.86,313.84l.14.06c.26-2.1.4-4.2.51-6.09a5.54,5.54,0,0,0-2.52-5,42.83,42.83,0,0,1-12.55-13.24,45.31,45.31,0,0,0,5.23,16,5.59,5.59,0,0,1,.84,3.47l.69.5a65.23,65.23,0,0,0,6.48,3.92A3.05,3.05,0,0,1,362.86,313.84Z" transform="translate(66.86 60.01)"/><path class="cls-12" d="M410.57,263.41c-16.39,2.89-27.3-3.07-27.3-3.07l-5.16.44a.43.43,0,0,0-.39.53l.84,3.52a.43.43,0,0,1-.44.53l-7.35-.31a.43.43,0,0,0-.46.4l-.45,5.75a.43.43,0,0,1-.64.35l-5.56-3.13a.43.43,0,0,0-.53.09l-5.53,6a.44.44,0,0,1-.74-.2l-1.11-4.59a.44.44,0,0,0-.74-.2l-6,6.37a.43.43,0,0,1-.74-.29l-.23-6.23a.43.43,0,0,0-.67-.35l-3.58,2.35c-.52,18.09,11.17,27.86,16.59,31.4a5.55,5.55,0,0,1,2.49,5c-.1,1.71-.27,3.74-.57,5.84a3.06,3.06,0,0,1,.6.25c4.57,2.39,9.77,2.57,14.91,2.93,2.5-4.38,4.69-9.11,4.68-12.87a1.49,1.49,0,0,1,1.54-1.49,41.6,41.6,0,0,0,22.83-5.62,1.17,1.17,0,0,1,1.78.94c.31,6.31,4.09,11.62,7.78,15.82.93-.51,1.86-1,2.8-1.44a99.78,99.78,0,0,0,9.89-5.29,66.73,66.73,0,0,0,8.86-6.21,25.66,25.66,0,0,1,3.61-2.72C446.28,272.54,425.26,260.81,410.57,263.41Z" transform="translate(66.86 60.01)"/><path class="cls-13" d="M333.59,236.46s-9.83,1.28-10.7,10.8c-.05.56.73.81,1.16.45a14.58,14.58,0,0,1,15.05-2.66,13.25,13.25,0,0,0-6.21,2.12.36.36,0,0,0,.23.65c1.65-.12,4.68-.1,6.81,1.31l4.25-4.32Z" transform="translate(66.86 60.01)"/><path class="cls-14" d="M383.59,259.2a29.17,29.17,0,0,1-10.51-8.78.45.45,0,0,1,.37-.7h.42a.44.44,0,0,0,.28-.78,29.73,29.73,0,0,1-6.52-6.8.43.43,0,0,1,.37-.67h1a.43.43,0,0,0,.36-.7c-3-4-18.49-22.78-35.74-4.33l8.57,6.76a2.3,2.3,0,0,1,.22,3.42l-2.45,2.49s5.39,1.69,5.27,8.54c-.09,5.46-2,13.38-2.71,16.34a.44.44,0,0,0,.68.46l4.47-3.26a.44.44,0,0,1,.7.31l.6,6.24a.44.44,0,0,0,.77.24l5.68-6.76a.44.44,0,0,1,.75.15l1.39,4.55a.44.44,0,0,0,.76.15l5.45-6.64a.44.44,0,0,1,.53-.11l5.76,2.79a.43.43,0,0,0,.63-.38l.1-5.81a.45.45,0,0,1,.43-.43l7.4-.13a.43.43,0,0,0,.41-.56L378,261.34a.43.43,0,0,1,.35-.56l5.15-.75A.44.44,0,0,0,383.59,259.2Z" transform="translate(66.86 60.01)"/><path class="cls-8" d="M392.82,236.24a5.25,5.25,0,0,1,.26-2,34.75,34.75,0,0,1-11.92.78l-.36,0,.26.24c.56.53,1.17,1.08,1.83,1.67a68.43,68.43,0,0,1,5.9,5.71,37.76,37.76,0,0,0,8.77-1.4A5.36,5.36,0,0,1,392.82,236.24Z" transform="translate(66.86 60.01)"/><path class="cls-15" d="M431.88,253.77c-6.7,1.14-12.19.43-19-.43a16.94,16.94,0,0,1-7.11,3.88l-.23.06,2.27,1.9h0A42.81,42.81,0,0,0,419,260.54a23.63,23.63,0,0,0,13.54-5.28A.85.85,0,0,0,431.88,253.77Z" transform="translate(66.86 60.01)"/><path class="cls-15" d="M427,263.09a47.77,47.77,0,0,1-10.84-2.8,62.06,62.06,0,0,1-8.31-1.35l-.5-.11,3.38,2.82a1.79,1.79,0,0,1-.39,3.06l-.29.12-.3.12.3.11a23.51,23.51,0,0,0,17.16-.35A.84.84,0,0,0,427,263.09Z" transform="translate(66.86 60.01)"/><path class="cls-15" d="M435.27,246.12a47.79,47.79,0,0,1-15.42,1.16,95.38,95.38,0,0,1-13.45,0h-.06l-.46.22.05.12,0,.11,6.35,2.26a1.91,1.91,0,0,1,.75,3.2l-.36.33.27,0a51.17,51.17,0,0,0,8.22.49,23.64,23.64,0,0,0,14.95-6.55A.84.84,0,0,0,435.27,246.12Z" transform="translate(66.86 60.01)"/><path class="cls-15" d="M437.74,236.62a49.71,49.71,0,0,1-19.48,3.94c-1.89.23-3.91.4-6,.53h-.19a1.93,1.93,0,0,1-.28,2,16.53,16.53,0,0,1-5.45,4.29l-.42.2.46,0a90.77,90.77,0,0,0,16.31-.32,23.54,23.54,0,0,0,16.08-9.36A.85.85,0,0,0,437.74,236.62Z" transform="translate(66.86 60.01)"/><path class="cls-15" d="M440.46,227.21c-5.91,3.41-12.85,5.45-21.21,6.24a117.26,117.26,0,0,1-12,1.9h0l0,0a18.14,18.14,0,0,1-3.67,3l-.27.17,7.41,1.42a1.93,1.93,0,0,1,1.5,1.38,91.63,91.63,0,0,0,14.5-2,23.51,23.51,0,0,0,15-11A.85.85,0,0,0,440.46,227.21Z" transform="translate(66.86 60.01)"/><path class="cls-15" d="M442.59,216.8c-6.25,4.71-14.1,7.83-24,9.53A124.89,124.89,0,0,1,406,229.07l0,.24,1.91-.05a1.84,1.84,0,0,1,1.62.85,1.8,1.8,0,0,1,.09,1.81,15.32,15.32,0,0,1-2.45,3.47l-.22.25.33,0a100.64,100.64,0,0,0,23.12-5,23.45,23.45,0,0,0,13.49-12.77A.85.85,0,0,0,442.59,216.8Z" transform="translate(66.86 60.01)"/><path class="cls-15" d="M440.79,209.65c-5.59,5-10.65,6.11-19.82,8.61a119.17,119.17,0,0,1-14.6,4.57l-.07,0,0,.07a15.67,15.67,0,0,1-4,6.28l-.22.22,4-.11a103.26,103.26,0,0,0,25.84-7.46c5.85-2.69,8.27-5.21,10.29-11.3A.85.85,0,0,0,440.79,209.65Z" transform="translate(66.86 60.01)"/><path class="cls-15" d="M411.16,269.5l-3.26-4-.07,0a19.44,19.44,0,0,1-11.53-1.21l0,.11h-.13c0,.21,0,.41-.07.61a4.38,4.38,0,0,1-2,3.16c.22.11,6.34,5.39,13.93,4.94,1.57-.1,3-.19,3.51-1.57A2.1,2.1,0,0,0,411.16,269.5Z" transform="translate(66.86 60.01)"/><path class="cls-15" d="M401.21,270.79a5.35,5.35,0,0,1,2.52-4.85,21.88,21.88,0,0,1-7.43-1.61l0,.11h-.13c0,.21,0,.41-.07.61a4.38,4.38,0,0,1-2,3.16,25.21,25.21,0,0,0,7.43,4A5.19,5.19,0,0,1,401.21,270.79Z" transform="translate(66.86 60.01)"/><path class="cls-15" d="M410.93,261.46l-5.1-4.26-.07,0a25.56,25.56,0,0,1-9.58.62l-.15,0,0,.16a28.39,28.39,0,0,1,.08,6.45v.09l.09,0a20.89,20.89,0,0,0,9,1.6,15.44,15.44,0,0,0,5.26-1.22,2,2,0,0,0,.45-3.48Z" transform="translate(66.86 60.01)"/><path class="cls-15" d="M401.24,262.26a5.32,5.32,0,0,1,2-4.51,27.83,27.83,0,0,1-7.09.09l-.16,0,0,.16a28.39,28.39,0,0,1,.08,6.45v.1l.09,0a22.4,22.4,0,0,0,7.13,1.62A5.35,5.35,0,0,1,401.24,262.26Z" transform="translate(66.86 60.01)"/><path class="cls-15" d="M412.32,249.8l-6.39-2.27-.05,0a26.09,26.09,0,0,1-12.08,2.11h-.21l.09.19a27.12,27.12,0,0,1,2.37,8.14v.1h.1c6.23.67,12.52-.4,17-4.67A2.16,2.16,0,0,0,412.32,249.8Z" transform="translate(66.86 60.01)"/><path class="cls-15" d="M399.71,253.51a5.31,5.31,0,0,1,2.1-4.55,30.09,30.09,0,0,1-8,.7h-.21l.09.19a27.12,27.12,0,0,1,2.37,8.14v.1h.1a28.4,28.4,0,0,0,6.71,0A5.36,5.36,0,0,1,399.71,253.51Z" transform="translate(66.86 60.01)"/><path class="cls-15" d="M410.69,239.73l-7.09-1.37h-.05l0,0c-6.23,3.87-14.15,3.92-14.61,4l-.08-.09-.19.17.16.17h0a29.35,29.35,0,0,1,4.88,7.22l0,.06h.08c6.77.25,13.9-1.45,18.19-6.7A2.15,2.15,0,0,0,410.69,239.73Z" transform="translate(66.86 60.01)"/><path class="cls-15" d="M396.85,244.32a5.3,5.3,0,0,1,1-3.43,37.91,37.91,0,0,1-9,1.48l-.08-.09-.19.17.16.17h0a29.08,29.08,0,0,1,4.88,7.22l0,.06h.08a30.87,30.87,0,0,0,7.62-.63A5.36,5.36,0,0,1,396.85,244.32Z" transform="translate(66.86 60.01)"/><path class="cls-15" d="M407.91,229l-5.57.16h0l0,0c-6,5.88-14.77,6.42-21.1,5.83l-.36,0,.26.24c.56.53,1.17,1.08,1.83,1.67a68.43,68.43,0,0,1,5.9,5.71c8.36-.4,17.3-3.18,21.06-10.59A2.09,2.09,0,0,0,407.91,229Z" transform="translate(66.86 60.01)"/><path class="cls-15" d="M406.41,222.82h0c-12.52,3.09-27.14,3.81-28.32,7.56-.41,1.32.79,2.78,3,4.85l0,0h0a39.67,39.67,0,0,0,6.2.12c15.7-.94,19-11.87,19.18-12.39l0-.12Z" transform="translate(66.86 60.01)"/><path class="cls-12" d="M437.25,203.42c-16.15,19.4-48,12.8-61.28,19.13-3.72,1.78-5.72,3.8-6.11,6.18-.88,5.4,6.82,11.61,13,17.68,5,5,4.86,12,4.14,17.48a4.64,4.64,0,0,0,3.68,5.17,4.71,4.71,0,0,0,5.66-4,27.71,27.71,0,0,0-7.58-22.89c-2-2.13-4-3.89-5.68-5.45-3-2.74-5.23-4.72-4.76-6.25.58-1.9,5.29-3.35,16.82-5.14,15.54-2.42,28.16-5,38.29-11.45,3.64-3.77,4.16-4.2,5.2-9.83A.77.77,0,0,0,437.25,203.42Z" transform="translate(66.86 60.01)"/><text class="cls-16" transform="matrix(0.24, -0.97, 0.97, 0.24, 386.26, 296)">G</text><text class="cls-16" transform="matrix(0.45, -0.9, 0.89, 0.45, 389.95, 280.56)">R</text><text class="cls-16" transform="matrix(0.6, -0.8, 0.8, 0.6, 397.59, 266.06)">I</text><text class="cls-16" transform="matrix(0.72, -0.7, 0.7, 0.72, 402.42, 259.31)">F</text><text class="cls-16" transform="matrix(0.83, -0.55, 0.55, 0.83, 411.45, 250.47)">F</text><text class="cls-16" transform="matrix(0.91, -0.42, 0.42, 0.91, 422, 243.61)">I</text><text class="cls-16" transform="matrix(0.97, -0.25, 0.25, 0.97, 429.26, 239.74)">N</text><text class="cls-16" transform="matrix(1, -0.09, 0.09, 1, 445.89, 235.91)"> </text><text class="cls-16" transform="matrix(1, 0.05, -0.05, 1, 450.63, 235.06)">B</text><text class="cls-16" transform="matrix(0.97, 0.25, -0.26, 0.97, 464.92, 235.69)">A</text><text class="cls-16" transform="matrix(0.88, 0.47, -0.47, 0.88, 479.51, 239.37)">N</text><text class="cls-16" transform="matrix(0.74, 0.67, -0.67, 0.75, 494.47, 247.41)">K</text><path class="cls-17" d="M450.53,203.14a74.67,74.67,0,1,1-137.27,40.69" transform="translate(66.86 60.01)"/><path class="cls-8" d="M664,629.9a76.34,76.34,0,0,0-28.76-19.26c-7.09-2.64-17.33-4.83-24.44-4.08-3.45.37-6.49,4.23-2.23,7.6,2.55,2,8.07,3.47,16.7,4.48A131.39,131.39,0,0,1,664,629.9Z" transform="translate(66.86 60.01)"/><path class="cls-8" d="M664,629.9s-13-41-45.77-50.45c-6.39-1.85-11.75,1-8.85,7,1.73,3.6,9.53,9.72,18.38,14.26C649.38,611.78,664,629.9,664,629.9Z" transform="translate(66.86 60.01)"/><path class="cls-8" d="M663.86,629.9s1.18-48.58-23.7-73.64c-5.41-5.45-11.91-5.78-11.59,1.53.19,4.39,5.27,14.6,12,23.92C657.11,604.48,663.86,629.9,663.86,629.9Z" transform="translate(66.86 60.01)"/><path class="cls-8" d="M663.71,629.9s-3.43-50.52,21-79.74c5.33-6.36,12-7.51,12,.16,0,4.6-4.76,15.88-11.29,26.44C669.5,602.55,663.71,629.9,663.71,629.9Z" transform="translate(66.86 60.01)"/><path class="cls-8" d="M663.7,629.9a76.43,76.43,0,0,1,28.77-19.26c7.09-2.64,17.32-4.83,24.44-4.08,3.45.37,6.49,4.23,2.23,7.6-2.55,2-8.07,3.47-16.7,4.48A131.52,131.52,0,0,0,663.7,629.9Z" transform="translate(66.86 60.01)"/><path class="cls-8" d="M663.7,629.9s13-41,45.78-50.45c6.39-1.85,11.74,1,8.85,7-1.74,3.6-9.54,9.72-18.38,14.26C678.35,611.78,663.7,629.9,663.7,629.9Z" transform="translate(66.86 60.01)"/><rect class="cls-8" y="692.87" width="834.96" height="130.46"/></g><g class="cls-18"><path class="cls-19" d="M768,36.14h769V592.32a129.26,129.26,0,0,1-129.26,129.25L711,725.23Z" transform="translate(66.86 60.01)"/><g class="cls-4"><line class="cls-20" x1="1393.75" y1="317.59" x2="1393.75" y2="303.53"/><line class="cls-20" x1="1393.75" y1="295.72" x2="1393.75" y2="281.66"/><line class="cls-20" x1="1393.75" y1="273.85" x2="1393.75" y2="259.79"/><line class="cls-20" x1="1393.75" y1="230.11" x2="1393.75" y2="216.05"/><line class="cls-20" x1="1408.55" y1="317.59" x2="1408.55" y2="303.53"/><line class="cls-20" x1="1408.55" y1="295.72" x2="1408.56" y2="281.66"/><line class="cls-20" x1="1423.36" y1="317.59" x2="1423.36" y2="303.53"/><line class="cls-20" x1="1423.36" y1="273.85" x2="1423.36" y2="259.79"/><line class="cls-20" x1="1423.36" y1="230.11" x2="1423.36" y2="216.05"/><line class="cls-20" x1="1423.36" y1="208.24" x2="1423.36" y2="194.18"/><line class="cls-20" x1="1438.16" y1="317.59" x2="1438.16" y2="303.53"/><line class="cls-20" x1="1438.16" y1="295.72" x2="1438.16" y2="281.66"/><line class="cls-20" x1="1438.16" y1="273.85" x2="1438.16" y2="259.79"/><line class="cls-20" x1="1452.97" y1="317.59" x2="1452.97" y2="303.53"/><line class="cls-20" x1="1452.97" y1="295.72" x2="1452.97" y2="281.66"/><line class="cls-20" x1="1452.97" y1="251.98" x2="1452.97" y2="237.92"/><line class="cls-20" x1="1452.97" y1="230.11" x2="1452.97" y2="216.05"/><line class="cls-20" x1="1452.97" y1="208.24" x2="1452.97" y2="194.18"/><line class="cls-20" x1="1467.77" y1="251.98" x2="1467.77" y2="237.92"/><line class="cls-20" x1="1467.77" y1="208.24" x2="1467.77" y2="194.18"/><line class="cls-20" x1="1482.57" y1="317.59" x2="1482.57" y2="303.53"/><line class="cls-20" x1="1482.57" y1="273.85" x2="1482.57" y2="259.79"/><line class="cls-20" x1="1482.57" y1="230.11" x2="1482.57" y2="216.05"/><line class="cls-20" x1="1482.57" y1="208.24" x2="1482.57" y2="194.18"/><line class="cls-20" x1="1482.57" y1="164.5" x2="1482.57" y2="150.44"/><line class="cls-20" x1="1497.38" y1="317.59" x2="1497.38" y2="303.53"/><line class="cls-20" x1="1497.38" y1="295.72" x2="1497.38" y2="281.66"/><line class="cls-20" x1="1497.38" y1="273.85" x2="1497.38" y2="259.79"/><line class="cls-20" x1="1497.38" y1="251.98" x2="1497.38" y2="237.92"/><line class="cls-20" x1="1497.38" y1="230.11" x2="1497.38" y2="216.05"/><line class="cls-20" x1="1512.18" y1="317.59" x2="1512.18" y2="303.53"/><line class="cls-20" x1="1512.18" y1="208.24" x2="1512.18" y2="194.18"/><line class="cls-20" x1="1512.18" y1="186.37" x2="1512.18" y2="172.31"/><line class="cls-20" x1="1512.18" y1="164.5" x2="1512.18" y2="150.44"/><line class="cls-20" x1="1526.98" y1="317.59" x2="1526.98" y2="303.53"/><line class="cls-20" x1="1526.98" y1="295.72" x2="1526.98" y2="281.66"/><line class="cls-20" x1="1526.98" y1="273.85" x2="1526.98" y2="259.79"/><line class="cls-20" x1="1526.98" y1="251.98" x2="1526.98" y2="237.92"/><line class="cls-20" x1="1526.98" y1="230.11" x2="1526.98" y2="216.05"/><line class="cls-20" x1="1526.98" y1="208.24" x2="1526.98" y2="194.18"/><line class="cls-20" x1="1541.79" y1="317.59" x2="1541.79" y2="303.53"/><line class="cls-20" x1="1541.79" y1="295.72" x2="1541.79" y2="281.66"/><line class="cls-20" x1="1541.79" y1="273.85" x2="1541.79" y2="259.79"/><line class="cls-20" x1="1541.79" y1="251.98" x2="1541.79" y2="237.92"/><line class="cls-20" x1="1541.79" y1="230.11" x2="1541.79" y2="216.05"/><line class="cls-20" x1="1541.79" y1="208.24" x2="1541.79" y2="194.18"/><line class="cls-20" x1="1541.79" y1="186.37" x2="1541.79" y2="172.31"/><line class="cls-20" x1="1556.59" y1="317.59" x2="1556.59" y2="303.53"/><line class="cls-20" x1="1556.59" y1="273.85" x2="1556.59" y2="259.79"/><line class="cls-20" x1="1556.59" y1="208.24" x2="1556.59" y2="194.18"/><line class="cls-20" x1="1571.4" y1="313.54" x2="1571.4" y2="299.48"/><line class="cls-20" x1="1571.4" y1="295.72" x2="1571.4" y2="281.66"/><line class="cls-20" x1="1571.4" y1="273.85" x2="1571.4" y2="259.79"/><line class="cls-20" x1="1571.4" y1="251.98" x2="1571.4" y2="237.92"/><line class="cls-20" x1="1571.4" y1="226.07" x2="1571.4" y2="216.05"/><line class="cls-20" x1="1393.97" y1="495.02" x2="1393.97" y2="480.96"/><line class="cls-20" x1="1393.97" y1="473.15" x2="1393.97" y2="459.1"/><line class="cls-20" x1="1393.97" y1="451.28" x2="1393.97" y2="437.23"/><line class="cls-20" x1="1393.97" y1="429.42" x2="1393.97" y2="415.36"/><line class="cls-20" x1="1393.97" y1="407.55" x2="1393.97" y2="393.49"/><line class="cls-20" x1="1393.97" y1="385.68" x2="1393.97" y2="371.62"/><line class="cls-20" x1="1393.97" y1="363.81" x2="1393.97" y2="349.75"/><line class="cls-20" x1="1377.63" y1="495.02" x2="1377.63" y2="480.96"/><line class="cls-20" x1="1377.63" y1="473.15" x2="1377.63" y2="459.1"/><line class="cls-20" x1="1377.63" y1="451.28" x2="1377.63" y2="437.23"/><line class="cls-20" x1="1377.63" y1="429.42" x2="1377.63" y2="415.36"/><line class="cls-20" x1="1377.63" y1="407.55" x2="1377.63" y2="393.49"/><line class="cls-20" x1="1408.78" y1="495.02" x2="1408.78" y2="480.96"/><line class="cls-20" x1="1408.78" y1="473.15" x2="1408.78" y2="459.1"/><line class="cls-20" x1="1408.78" y1="385.68" x2="1408.78" y2="371.62"/><line class="cls-20" x1="1408.78" y1="363.81" x2="1408.78" y2="349.75"/><line class="cls-20" x1="1408.78" y1="341.94" x2="1408.78" y2="327.88"/><line class="cls-20" x1="1423.58" y1="495.02" x2="1423.58" y2="480.96"/><line class="cls-20" x1="1423.58" y1="473.15" x2="1423.58" y2="459.1"/><line class="cls-20" x1="1423.58" y1="451.28" x2="1423.58" y2="437.23"/><line class="cls-20" x1="1423.58" y1="429.42" x2="1423.58" y2="415.36"/><line class="cls-20" x1="1423.58" y1="407.55" x2="1423.58" y2="393.49"/><line class="cls-20" x1="1423.58" y1="385.68" x2="1423.58" y2="371.62"/><line class="cls-20" x1="1438.39" y1="495.02" x2="1438.39" y2="480.96"/><line class="cls-20" x1="1438.39" y1="473.15" x2="1438.39" y2="459.1"/><line class="cls-20" x1="1438.39" y1="451.28" x2="1438.39" y2="437.23"/><line class="cls-20" x1="1438.39" y1="429.42" x2="1438.39" y2="415.36"/><line class="cls-20" x1="1438.39" y1="407.55" x2="1438.39" y2="393.49"/><line class="cls-20" x1="1438.39" y1="385.68" x2="1438.39" y2="371.62"/><line class="cls-20" x1="1318.59" y1="495.02" x2="1318.59" y2="480.96"/><line class="cls-20" x1="1318.59" y1="473.15" x2="1318.59" y2="459.1"/><line class="cls-20" x1="1318.59" y1="451.28" x2="1318.59" y2="437.23"/><line class="cls-20" x1="1318.59" y1="429.42" x2="1318.59" y2="415.36"/><line class="cls-20" x1="1318.59" y1="407.55" x2="1318.59" y2="393.49"/><line class="cls-20" x1="1318.59" y1="385.68" x2="1318.59" y2="371.62"/><line class="cls-20" x1="1318.59" y1="363.81" x2="1318.59" y2="349.75"/><line class="cls-20" x1="1302.25" y1="495.02" x2="1302.25" y2="480.96"/><line class="cls-20" x1="1302.25" y1="473.15" x2="1302.25" y2="459.1"/><line class="cls-20" x1="1302.25" y1="451.28" x2="1302.25" y2="437.23"/><line class="cls-20" x1="1302.25" y1="429.42" x2="1302.25" y2="415.36"/><line class="cls-20" x1="1302.25" y1="407.55" x2="1302.25" y2="393.49"/><line class="cls-20" x1="1333.4" y1="495.02" x2="1333.4" y2="480.96"/><line class="cls-20" x1="1333.4" y1="473.15" x2="1333.4" y2="459.1"/><line class="cls-20" x1="1333.4" y1="385.68" x2="1333.4" y2="371.62"/><line class="cls-20" x1="1333.4" y1="363.81" x2="1333.4" y2="349.75"/><line class="cls-20" x1="1333.4" y1="341.94" x2="1333.4" y2="327.88"/><line class="cls-20" x1="1348.2" y1="495.02" x2="1348.2" y2="480.96"/><line class="cls-20" x1="1348.2" y1="473.15" x2="1348.2" y2="459.1"/><line class="cls-20" x1="1267.22" y1="473.15" x2="1267.22" y2="459.09"/><line class="cls-20" x1="1348.2" y1="451.28" x2="1348.2" y2="437.23"/><line class="cls-20" x1="1348.2" y1="429.42" x2="1348.2" y2="415.36"/><line class="cls-20" x1="1348.2" y1="407.55" x2="1348.2" y2="393.49"/><line class="cls-20" x1="1348.2" y1="385.68" x2="1348.2" y2="371.62"/><line class="cls-20" x1="1363" y1="495.02" x2="1363" y2="480.96"/><line class="cls-20" x1="1363" y1="451.28" x2="1363" y2="437.23"/><line class="cls-20" x1="1363" y1="407.55" x2="1363" y2="393.49"/><line class="cls-20" x1="1363" y1="385.68" x2="1363" y2="371.62"/><line class="cls-20" x1="1453.19" y1="495.02" x2="1453.19" y2="480.96"/><line class="cls-20" x1="1453.19" y1="473.15" x2="1453.19" y2="459.1"/><line class="cls-20" x1="1453.19" y1="385.68" x2="1453.19" y2="371.62"/><line class="cls-20" x1="1453.19" y1="341.94" x2="1453.19" y2="327.88"/><line class="cls-20" x1="1467.99" y1="495.02" x2="1467.99" y2="480.96"/><line class="cls-20" x1="1467.99" y1="473.15" x2="1467.99" y2="459.1"/><line class="cls-20" x1="1467.99" y1="451.28" x2="1467.99" y2="437.23"/><line class="cls-20" x1="1467.99" y1="429.42" x2="1467.99" y2="415.36"/><line class="cls-20" x1="1467.99" y1="407.55" x2="1467.99" y2="393.49"/><line class="cls-20" x1="1467.99" y1="385.68" x2="1467.99" y2="371.62"/><line class="cls-20" x1="1467.99" y1="363.81" x2="1467.99" y2="349.75"/><line class="cls-20" x1="1467.99" y1="341.94" x2="1467.99" y2="327.88"/><line class="cls-20" x1="1482.8" y1="495.02" x2="1482.8" y2="480.96"/><line class="cls-20" x1="1482.8" y1="473.15" x2="1482.8" y2="459.1"/><line class="cls-20" x1="1482.8" y1="451.28" x2="1482.8" y2="437.23"/><line class="cls-20" x1="1482.8" y1="429.42" x2="1482.8" y2="415.36"/><line class="cls-20" x1="1482.8" y1="407.55" x2="1482.8" y2="393.49"/><line class="cls-20" x1="1482.8" y1="363.81" x2="1482.8" y2="349.75"/><line class="cls-20" x1="1482.8" y1="341.94" x2="1482.8" y2="327.88"/><line class="cls-20" x1="1497.6" y1="495.02" x2="1497.6" y2="480.96"/><line class="cls-20" x1="1497.6" y1="473.15" x2="1497.6" y2="459.1"/><line class="cls-20" x1="1497.6" y1="429.42" x2="1497.6" y2="415.36"/><line class="cls-20" x1="1497.6" y1="407.55" x2="1497.6" y2="393.49"/><line class="cls-20" x1="1497.6" y1="385.68" x2="1497.6" y2="371.62"/><line class="cls-20" x1="1497.6" y1="363.81" x2="1497.6" y2="349.75"/><line class="cls-20" x1="1497.6" y1="341.94" x2="1497.6" y2="327.88"/><line class="cls-20" x1="1512.4" y1="495.02" x2="1512.4" y2="480.96"/><line class="cls-20" x1="1512.4" y1="473.15" x2="1512.4" y2="459.1"/><line class="cls-20" x1="1512.4" y1="451.28" x2="1512.4" y2="437.23"/><line class="cls-20" x1="1512.4" y1="429.42" x2="1512.4" y2="415.36"/><line class="cls-20" x1="1512.4" y1="407.55" x2="1512.4" y2="393.49"/><line class="cls-20" x1="1512.4" y1="385.68" x2="1512.4" y2="371.62"/><line class="cls-20" x1="1512.4" y1="363.81" x2="1512.4" y2="349.75"/><line class="cls-20" x1="1512.4" y1="341.94" x2="1512.4" y2="327.88"/><line class="cls-20" x1="1527.21" y1="495.02" x2="1527.21" y2="480.96"/><line class="cls-20" x1="1527.21" y1="473.15" x2="1527.21" y2="459.1"/><line class="cls-20" x1="1527.21" y1="451.28" x2="1527.21" y2="437.23"/><line class="cls-20" x1="1542.01" y1="495.02" x2="1542.01" y2="480.96"/><line class="cls-20" x1="1542.01" y1="473.15" x2="1542.01" y2="459.1"/><line class="cls-20" x1="1542.01" y1="451.28" x2="1542.01" y2="437.23"/><line class="cls-20" x1="1542.01" y1="429.42" x2="1542.01" y2="415.36"/><line class="cls-20" x1="1542.01" y1="407.55" x2="1542.01" y2="393.49"/><line class="cls-20" x1="1542.01" y1="385.68" x2="1542.01" y2="371.62"/><line class="cls-20" x1="1542.01" y1="363.81" x2="1542.01" y2="349.75"/><line class="cls-20" x1="1542.01" y1="341.94" x2="1542.01" y2="327.88"/><line class="cls-20" x1="1556.81" y1="495.02" x2="1556.81" y2="480.96"/><line class="cls-20" x1="1556.82" y1="473.15" x2="1556.82" y2="459.1"/><line class="cls-20" x1="1556.82" y1="451.28" x2="1556.82" y2="437.23"/><line class="cls-20" x1="1556.82" y1="429.42" x2="1556.82" y2="415.36"/><line class="cls-20" x1="1556.82" y1="407.55" x2="1556.82" y2="393.49"/><line class="cls-20" x1="1556.82" y1="385.68" x2="1556.82" y2="371.62"/><line class="cls-20" x1="1571.62" y1="495.02" x2="1571.62" y2="480.96"/><line class="cls-20" x1="1571.62" y1="473.15" x2="1571.62" y2="459.1"/><line class="cls-20" x1="1571.62" y1="451.28" x2="1571.62" y2="437.23"/><line class="cls-20" x1="1571.62" y1="429.42" x2="1571.62" y2="415.36"/><line class="cls-20" x1="1571.62" y1="363.81" x2="1571.62" y2="349.75"/><line class="cls-20" x1="1571.62" y1="341.94" x2="1571.62" y2="327.88"/><line class="cls-20" x1="1363" y1="284.39" x2="1363" y2="270.33"/><line class="cls-20" x1="1363" y1="328.59" x2="1363" y2="314.53"/><line class="cls-20" x1="1286.25" y1="451.28" x2="1286.25" y2="437.23"/><line class="cls-20" x1="1286.25" y1="495.02" x2="1286.25" y2="480.96"/><line class="cls-20" x1="1267.22" y1="495.02" x2="1267.22" y2="480.96"/><line class="cls-20" x1="1255.2" y1="429.42" x2="1255.2" y2="415.36"/><line class="cls-20" x1="1290.25" y1="385.68" x2="1290.25" y2="371.62"/><line class="cls-20" x1="1541.79" y1="135.88" x2="1541.79" y2="121.82"/><line class="cls-20" x1="1329.31" y1="230.79" x2="1329.31" y2="216.73"/><line class="cls-20" x1="1237.61" y1="362.24" x2="1237.61" y2="348.18"/></g><g class="cls-4"><line class="cls-20" x1="1063.68" y1="317.59" x2="1063.68" y2="303.53"/><line class="cls-20" x1="1063.68" y1="295.72" x2="1063.68" y2="281.66"/><line class="cls-20" x1="1063.68" y1="273.85" x2="1063.68" y2="259.79"/><line class="cls-20" x1="1063.68" y1="230.11" x2="1063.68" y2="216.05"/><line class="cls-20" x1="1048.87" y1="317.59" x2="1048.87" y2="303.53"/><line class="cls-20" x1="1048.87" y1="295.72" x2="1048.87" y2="281.66"/><line class="cls-20" x1="1048.87" y1="186.37" x2="1048.87" y2="172.31"/><line class="cls-20" x1="1034.07" y1="317.59" x2="1034.07" y2="303.53"/><line class="cls-20" x1="1034.07" y1="273.85" x2="1034.07" y2="259.79"/><line class="cls-20" x1="1034.07" y1="230.11" x2="1034.07" y2="216.05"/><line class="cls-20" x1="1034.07" y1="208.24" x2="1034.07" y2="194.18"/><line class="cls-20" x1="1019.27" y1="317.59" x2="1019.27" y2="303.53"/><line class="cls-20" x1="1019.27" y1="295.72" x2="1019.27" y2="281.66"/><line class="cls-20" x1="1019.27" y1="273.85" x2="1019.27" y2="259.79"/><line class="cls-20" x1="1004.46" y1="317.59" x2="1004.46" y2="303.53"/><line class="cls-20" x1="1004.46" y1="295.72" x2="1004.46" y2="281.66"/><line class="cls-20" x1="1004.46" y1="251.98" x2="1004.46" y2="237.92"/><line class="cls-20" x1="1004.46" y1="230.11" x2="1004.46" y2="216.05"/><line class="cls-20" x1="1004.46" y1="208.24" x2="1004.46" y2="194.18"/><line class="cls-20" x1="989.66" y1="251.98" x2="989.66" y2="237.92"/><line class="cls-20" x1="989.66" y1="208.24" x2="989.66" y2="194.18"/><line class="cls-20" x1="974.86" y1="317.59" x2="974.86" y2="303.53"/><line class="cls-20" x1="974.86" y1="273.85" x2="974.86" y2="259.79"/><line class="cls-20" x1="974.86" y1="230.11" x2="974.86" y2="216.05"/><line class="cls-20" x1="974.86" y1="208.24" x2="974.86" y2="194.18"/><line class="cls-20" x1="974.86" y1="164.5" x2="974.86" y2="150.44"/><line class="cls-20" x1="960.05" y1="317.59" x2="960.05" y2="303.53"/><line class="cls-20" x1="960.05" y1="295.72" x2="960.05" y2="281.66"/><line class="cls-20" x1="960.05" y1="273.85" x2="960.05" y2="259.79"/><line class="cls-20" x1="960.05" y1="251.98" x2="960.05" y2="237.92"/><line class="cls-20" x1="960.05" y1="230.11" x2="960.05" y2="216.05"/><line class="cls-20" x1="945.25" y1="317.59" x2="945.25" y2="303.53"/><line class="cls-20" x1="945.25" y1="208.24" x2="945.25" y2="194.18"/><line class="cls-20" x1="945.25" y1="186.37" x2="945.25" y2="172.31"/><line class="cls-20" x1="945.25" y1="164.5" x2="945.25" y2="150.44"/><line class="cls-20" x1="930.44" y1="317.59" x2="930.44" y2="303.53"/><line class="cls-20" x1="930.44" y1="295.72" x2="930.44" y2="281.66"/><line class="cls-20" x1="930.44" y1="273.85" x2="930.44" y2="259.79"/><line class="cls-20" x1="930.44" y1="251.98" x2="930.44" y2="237.92"/><line class="cls-20" x1="930.44" y1="230.11" x2="930.44" y2="216.05"/><line class="cls-20" x1="930.44" y1="208.24" x2="930.44" y2="194.18"/><line class="cls-20" x1="915.64" y1="317.59" x2="915.64" y2="303.53"/><line class="cls-20" x1="915.64" y1="295.72" x2="915.64" y2="281.66"/><line class="cls-20" x1="915.64" y1="273.85" x2="915.64" y2="259.79"/><line class="cls-20" x1="915.64" y1="251.98" x2="915.64" y2="237.92"/><line class="cls-20" x1="915.64" y1="230.11" x2="915.64" y2="216.05"/><line class="cls-20" x1="915.64" y1="208.24" x2="915.64" y2="194.18"/><line class="cls-20" x1="915.64" y1="186.37" x2="915.64" y2="172.31"/><line class="cls-20" x1="900.84" y1="317.59" x2="900.84" y2="303.53"/><line class="cls-20" x1="900.84" y1="273.85" x2="900.84" y2="259.79"/><line class="cls-20" x1="900.84" y1="208.24" x2="900.84" y2="194.18"/><line class="cls-20" x1="886.03" y1="313.54" x2="886.03" y2="299.48"/><line class="cls-20" x1="886.03" y1="295.72" x2="886.03" y2="281.66"/><line class="cls-20" x1="886.03" y1="273.85" x2="886.03" y2="259.79"/><line class="cls-20" x1="886.03" y1="251.98" x2="886.03" y2="237.92"/><line class="cls-20" x1="886.03" y1="226.07" x2="886.03" y2="216.05"/><line class="cls-20" x1="871.23" y1="317.59" x2="871.23" y2="303.53"/><line class="cls-20" x1="871.23" y1="295.72" x2="871.23" y2="281.66"/><line class="cls-20" x1="871.23" y1="273.85" x2="871.23" y2="259.79"/><line class="cls-20" x1="871.23" y1="251.98" x2="871.23" y2="237.92"/><line class="cls-20" x1="871.23" y1="230.11" x2="871.23" y2="216.05"/><line class="cls-20" x1="871.23" y1="208.24" x2="871.23" y2="194.18"/><line class="cls-20" x1="871.23" y1="164.5" x2="871.23" y2="150.44"/><line class="cls-20" x1="1063.46" y1="495.02" x2="1063.46" y2="480.96"/><line class="cls-20" x1="1063.46" y1="473.15" x2="1063.46" y2="459.1"/><line class="cls-20" x1="1063.46" y1="451.28" x2="1063.46" y2="437.23"/><line class="cls-20" x1="1063.46" y1="429.42" x2="1063.46" y2="415.36"/><line class="cls-20" x1="1063.46" y1="407.55" x2="1063.46" y2="393.49"/><line class="cls-20" x1="1063.46" y1="385.68" x2="1063.46" y2="371.62"/><line class="cls-20" x1="1063.46" y1="363.81" x2="1063.46" y2="349.75"/><line class="cls-20" x1="1079.8" y1="495.02" x2="1079.8" y2="480.96"/><line class="cls-20" x1="1079.8" y1="473.15" x2="1079.8" y2="459.1"/><line class="cls-20" x1="1079.8" y1="451.28" x2="1079.8" y2="437.23"/><line class="cls-20" x1="1079.8" y1="429.42" x2="1079.8" y2="415.36"/><line class="cls-20" x1="1079.8" y1="407.55" x2="1079.8" y2="393.49"/><line class="cls-20" x1="1048.65" y1="495.02" x2="1048.65" y2="480.96"/><line class="cls-20" x1="1048.65" y1="473.15" x2="1048.65" y2="459.1"/><line class="cls-20" x1="1048.65" y1="385.68" x2="1048.65" y2="371.62"/><line class="cls-20" x1="1048.65" y1="363.81" x2="1048.65" y2="349.75"/><line class="cls-20" x1="1048.65" y1="341.94" x2="1048.65" y2="327.88"/><line class="cls-20" x1="1033.85" y1="495.02" x2="1033.85" y2="480.96"/><line class="cls-20" x1="1033.85" y1="473.15" x2="1033.85" y2="459.1"/><line class="cls-20" x1="1033.85" y1="451.28" x2="1033.85" y2="437.23"/><line class="cls-20" x1="1033.85" y1="429.42" x2="1033.85" y2="415.36"/><line class="cls-20" x1="1033.85" y1="407.55" x2="1033.85" y2="393.49"/><line class="cls-20" x1="1033.85" y1="385.68" x2="1033.85" y2="371.62"/><line class="cls-20" x1="1019.04" y1="495.02" x2="1019.04" y2="480.96"/><line class="cls-20" x1="1019.04" y1="473.15" x2="1019.04" y2="459.1"/><line class="cls-20" x1="1019.04" y1="451.28" x2="1019.04" y2="437.23"/><line class="cls-20" x1="1019.04" y1="429.42" x2="1019.04" y2="415.36"/><line class="cls-20" x1="1019.04" y1="407.55" x2="1019.04" y2="393.49"/><line class="cls-20" x1="1019.04" y1="385.68" x2="1019.04" y2="371.62"/><line class="cls-20" x1="1138.84" y1="495.02" x2="1138.84" y2="480.96"/><line class="cls-20" x1="1138.84" y1="473.15" x2="1138.84" y2="459.1"/><line class="cls-20" x1="1138.84" y1="451.28" x2="1138.84" y2="437.23"/><line class="cls-20" x1="1138.84" y1="429.42" x2="1138.84" y2="415.36"/><line class="cls-20" x1="1138.84" y1="407.55" x2="1138.84" y2="393.49"/><line class="cls-20" x1="1138.84" y1="385.68" x2="1138.84" y2="371.62"/><line class="cls-20" x1="1138.84" y1="363.81" x2="1138.84" y2="349.75"/><line class="cls-20" x1="1155.18" y1="495.02" x2="1155.18" y2="480.96"/><line class="cls-20" x1="1155.18" y1="473.15" x2="1155.18" y2="459.1"/><line class="cls-20" x1="1155.18" y1="451.28" x2="1155.18" y2="437.23"/><line class="cls-20" x1="1155.18" y1="429.42" x2="1155.18" y2="415.36"/><line class="cls-20" x1="1155.18" y1="407.55" x2="1155.18" y2="393.49"/><line class="cls-20" x1="1124.03" y1="495.02" x2="1124.03" y2="480.96"/><line class="cls-20" x1="1124.03" y1="473.15" x2="1124.03" y2="459.1"/><line class="cls-20" x1="1124.03" y1="385.68" x2="1124.03" y2="371.62"/><line class="cls-20" x1="1124.03" y1="363.81" x2="1124.03" y2="349.75"/><line class="cls-20" x1="1124.03" y1="341.94" x2="1124.03" y2="327.88"/><line class="cls-20" x1="1109.23" y1="495.02" x2="1109.23" y2="480.96"/><line class="cls-20" x1="1109.23" y1="473.15" x2="1109.23" y2="459.1"/><line class="cls-20" x1="1219.82" y1="473.15" x2="1219.82" y2="459.09"/><line class="cls-20" x1="1205.01" y1="473.15" x2="1205.01" y2="459.09"/><line class="cls-20" x1="1190.21" y1="473.15" x2="1190.21" y2="459.09"/><line class="cls-20" x1="1109.23" y1="451.28" x2="1109.23" y2="437.23"/><line class="cls-20" x1="1109.23" y1="429.42" x2="1109.23" y2="415.36"/><line class="cls-20" x1="1109.23" y1="407.55" x2="1109.23" y2="393.49"/><line class="cls-20" x1="1109.23" y1="385.68" x2="1109.23" y2="371.62"/><line class="cls-20" x1="1094.43" y1="495.02" x2="1094.43" y2="480.96"/><line class="cls-20" x1="1094.43" y1="451.28" x2="1094.43" y2="437.23"/><line class="cls-20" x1="1094.43" y1="407.55" x2="1094.43" y2="393.49"/><line class="cls-20" x1="1094.43" y1="385.68" x2="1094.43" y2="371.62"/><line class="cls-20" x1="1004.24" y1="495.02" x2="1004.24" y2="480.96"/><line class="cls-20" x1="1004.24" y1="473.15" x2="1004.24" y2="459.1"/><line class="cls-20" x1="1004.24" y1="385.68" x2="1004.24" y2="371.62"/><line class="cls-20" x1="1004.24" y1="341.94" x2="1004.24" y2="327.88"/><line class="cls-20" x1="989.44" y1="495.02" x2="989.44" y2="480.96"/><line class="cls-20" x1="989.44" y1="473.15" x2="989.44" y2="459.1"/><line class="cls-20" x1="989.44" y1="451.28" x2="989.44" y2="437.23"/><line class="cls-20" x1="989.44" y1="429.42" x2="989.44" y2="415.36"/><line class="cls-20" x1="989.44" y1="407.55" x2="989.44" y2="393.49"/><line class="cls-20" x1="989.44" y1="385.68" x2="989.44" y2="371.62"/><line class="cls-20" x1="989.44" y1="363.81" x2="989.44" y2="349.75"/><line class="cls-20" x1="989.44" y1="341.94" x2="989.44" y2="327.88"/><line class="cls-20" x1="974.63" y1="495.02" x2="974.63" y2="480.96"/><line class="cls-20" x1="974.63" y1="473.15" x2="974.63" y2="459.1"/><line class="cls-20" x1="974.63" y1="451.28" x2="974.63" y2="437.23"/><line class="cls-20" x1="974.63" y1="429.42" x2="974.63" y2="415.36"/><line class="cls-20" x1="974.63" y1="407.55" x2="974.63" y2="393.49"/><line class="cls-20" x1="974.63" y1="363.81" x2="974.63" y2="349.75"/><line class="cls-20" x1="974.63" y1="341.94" x2="974.63" y2="327.88"/><line class="cls-20" x1="959.83" y1="495.02" x2="959.83" y2="480.96"/><line class="cls-20" x1="959.83" y1="473.15" x2="959.83" y2="459.1"/><line class="cls-20" x1="959.83" y1="429.42" x2="959.83" y2="415.36"/><line class="cls-20" x1="959.83" y1="407.55" x2="959.83" y2="393.49"/><line class="cls-20" x1="959.83" y1="385.68" x2="959.83" y2="371.62"/><line class="cls-20" x1="959.83" y1="363.81" x2="959.83" y2="349.75"/><line class="cls-20" x1="959.83" y1="341.94" x2="959.83" y2="327.88"/><line class="cls-20" x1="945.03" y1="495.02" x2="945.03" y2="480.96"/><line class="cls-20" x1="945.03" y1="473.15" x2="945.03" y2="459.1"/><line class="cls-20" x1="945.03" y1="451.28" x2="945.03" y2="437.23"/><line class="cls-20" x1="945.03" y1="429.42" x2="945.03" y2="415.36"/><line class="cls-20" x1="945.03" y1="407.55" x2="945.03" y2="393.49"/><line class="cls-20" x1="945.03" y1="385.68" x2="945.03" y2="371.62"/><line class="cls-20" x1="945.03" y1="363.81" x2="945.03" y2="349.75"/><line class="cls-20" x1="945.03" y1="341.94" x2="945.03" y2="327.88"/><line class="cls-20" x1="930.22" y1="495.02" x2="930.22" y2="480.96"/><line class="cls-20" x1="930.22" y1="473.15" x2="930.22" y2="459.1"/><line class="cls-20" x1="930.22" y1="451.28" x2="930.22" y2="437.23"/><line class="cls-20" x1="915.42" y1="495.02" x2="915.42" y2="480.96"/><line class="cls-20" x1="915.42" y1="473.15" x2="915.42" y2="459.1"/><line class="cls-20" x1="915.42" y1="451.28" x2="915.42" y2="437.23"/><line class="cls-20" x1="915.42" y1="429.42" x2="915.42" y2="415.36"/><line class="cls-20" x1="915.42" y1="407.55" x2="915.42" y2="393.49"/><line class="cls-20" x1="915.42" y1="385.68" x2="915.42" y2="371.62"/><line class="cls-20" x1="915.42" y1="363.81" x2="915.42" y2="349.75"/><line class="cls-20" x1="915.42" y1="341.94" x2="915.42" y2="327.88"/><line class="cls-20" x1="900.61" y1="495.02" x2="900.61" y2="480.96"/><line class="cls-20" x1="900.61" y1="473.15" x2="900.61" y2="459.1"/><line class="cls-20" x1="900.61" y1="451.28" x2="900.61" y2="437.23"/><line class="cls-20" x1="900.61" y1="429.42" x2="900.61" y2="415.36"/><line class="cls-20" x1="900.61" y1="407.55" x2="900.61" y2="393.49"/><line class="cls-20" x1="900.61" y1="385.68" x2="900.61" y2="371.62"/><line class="cls-20" x1="885.81" y1="495.02" x2="885.81" y2="480.96"/><line class="cls-20" x1="885.81" y1="473.15" x2="885.81" y2="459.1"/><line class="cls-20" x1="885.81" y1="451.28" x2="885.81" y2="437.23"/><line class="cls-20" x1="885.81" y1="429.42" x2="885.81" y2="415.36"/><line class="cls-20" x1="885.81" y1="363.81" x2="885.81" y2="349.75"/><line class="cls-20" x1="885.81" y1="341.94" x2="885.81" y2="327.88"/><line class="cls-20" x1="871.01" y1="495.02" x2="871.01" y2="480.96"/><line class="cls-20" x1="871.01" y1="451.28" x2="871.01" y2="437.23"/><line class="cls-20" x1="871.01" y1="429.42" x2="871.01" y2="415.36"/><line class="cls-20" x1="871.01" y1="407.55" x2="871.01" y2="393.49"/><line class="cls-20" x1="871.01" y1="385.68" x2="871.01" y2="371.62"/><line class="cls-20" x1="871.01" y1="363.81" x2="871.01" y2="349.75"/><line class="cls-20" x1="871.01" y1="341.94" x2="871.01" y2="327.88"/><line class="cls-20" x1="1094.43" y1="284.39" x2="1094.43" y2="270.33"/><line class="cls-20" x1="1094.43" y1="328.59" x2="1094.43" y2="314.53"/><line class="cls-20" x1="1171.18" y1="451.28" x2="1171.18" y2="437.23"/><line class="cls-20" x1="1223.26" y1="495.02" x2="1223.26" y2="480.96"/><line class="cls-20" x1="1171.18" y1="495.02" x2="1171.18" y2="480.96"/><line class="cls-20" x1="1190.21" y1="495.02" x2="1190.21" y2="480.96"/><line class="cls-20" x1="1202.23" y1="429.42" x2="1202.23" y2="415.36"/><line class="cls-20" x1="1167.17" y1="385.68" x2="1167.17" y2="371.62"/><line class="cls-20" x1="1128.12" y1="230.79" x2="1128.12" y2="216.73"/><line class="cls-20" x1="1219.82" y1="362.24" x2="1219.82" y2="348.18"/></g><ellipse class="cls-21" cx="1061.01" cy="631.8" rx="119.49" ry="111.59"/><ellipse class="cls-21" cx="1353.84" cy="520.46" rx="186.34" ry="174.02"/><ellipse class="cls-21" cx="1219.11" cy="555.01" rx="142.24" ry="132.84"/><path class="cls-21" d="M1625.13,529.19c-13-51.61-62.65-90-121.89-90-69.17,0-125.24,52.36-125.24,117s56.07,117,125.24,117c59.24,0,108.87-38.42,121.89-90Z" transform="translate(66.86 60.01)"/><ellipse class="cls-21" cx="1085.64" cy="510.67" rx="212.53" ry="198.47"/><ellipse class="cls-21" cx="1415.05" cy="321.5" rx="100.53" ry="93.89"/><ellipse class="cls-21" cx="928.51" cy="586.4" rx="125.23" ry="116.95"/><path class="cls-22" d="M1464.42,640.68a376.12,376.12,0,0,1-13.17-60.18c-4.1-30.64-5.46-73.5,11.38-103.7l-3.75-2.09c-9.61,17.24-19.48,49.71-11.88,106.44A382.39,382.39,0,0,0,1460.34,642Z" transform="translate(66.86 60.01)"/><path class="cls-22" d="M1459.07,495.31s-2.59,10.42-9.7,7.63-4.46-10.67-2.75-13.38S1462.21,489.24,1459.07,495.31Z" transform="translate(66.86 60.01)"/><path class="cls-22" d="M1430.35,475.39c1.84-6.28,21.19-27.62,36.11-23.27s19.75,32.75,17.92,39-15.41,7.85-30.33,3.49S1428.52,481.68,1430.35,475.39Z" transform="translate(66.86 60.01)"/><path class="cls-22" d="M1463.63,640.13c-.58-.64-57.58-64.6-52.82-116l-3.32-.3c-2.57,27.7,12.19,58.49,25,79.44a297.43,297.43,0,0,0,28.63,39.1Z" transform="translate(66.86 60.01)"/><path class="cls-22" d="M1414.1,538.41s1.44,8.23-4.5,8.48-6.52-6.19-6.16-8.66S1414.42,533.11,1414.1,538.41Z" transform="translate(66.86 60.01)"/><path class="cls-22" d="M1387.41,533.28c-.67-5,6.38-26.31,18.36-27.91s24.36,17.08,25,22.13-8.5,10.43-20.48,12S1388.09,538.32,1387.41,533.28Z" transform="translate(66.86 60.01)"/><path class="cls-23" d="M1590.42,485.27A110.24,110.24,0,0,0,1563,511c-32.27,1.43-59.06,24.92-66.79,56.38a58.37,58.37,0,0,0-10.3-1c-33.48,0-60.62,28.27-60.62,63.14s27.14,63.15,60.62,63.15c24.23,0,45.07-14.85,54.78-36.25a69.27,69.27,0,0,0,25.42,4.82c2.21,0,4.4-.12,6.55-.33a109.66,109.66,0,0,0,17.75,14.51Z" transform="translate(66.86 60.01)"/><rect class="cls-24" x="983.49" y="367.6" width="451.96" height="325.44"/><polygon class="cls-25" points="982.99 362.84 1209.97 224.76 1435.46 362.84 982.99 362.84"/><rect class="cls-25" x="1401.37" y="347.72" width="39.92" height="15.12"/><rect class="cls-25" x="977.49" y="347.72" width="40.91" height="15.12"/><polygon class="cls-23" points="1011.19 367.6 1209.96 241.18 1415.52 372.22 1011.19 367.6"/><rect class="cls-26" x="1039.77" y="427.3" width="28.51" height="43.35"/><rect class="cls-27" x="1039.77" y="507.76" width="28.51" height="43.35"/><rect class="cls-27" x="1039.77" y="588.22" width="28.51" height="74.08"/><rect class="cls-27" x="1190.33" y="588.42" width="38.26" height="104.63"/><rect class="cls-26" x="1117.47" y="427.3" width="28.51" height="43.35"/><rect class="cls-26" x="1117.47" y="507.76" width="28.51" height="43.35"/><rect class="cls-27" x="1117.47" y="588.22" width="28.51" height="74.08"/><rect class="cls-27" x="1195.2" y="427.3" width="28.51" height="43.35"/><rect class="cls-26" x="1195.2" y="507.76" width="28.51" height="43.35"/><rect class="cls-27" x="1273.35" y="427.3" width="28.51" height="43.35"/><rect class="cls-27" x="1273.35" y="507.76" width="28.51" height="43.35"/><rect class="cls-26" x="1273.35" y="588.22" width="28.51" height="74.08"/><rect class="cls-27" x="1350.16" y="427.3" width="28.51" height="43.35"/><rect class="cls-26" x="1350.16" y="507.76" width="28.51" height="43.35"/><rect class="cls-27" x="1350.16" y="588.22" width="28.51" height="74.08"/><rect class="cls-28" x="1005.21" y="385.18" width="21.08" height="307.86"/><rect class="cls-28" x="1081.76" y="385.18" width="21.08" height="307.86"/><rect class="cls-28" x="1161.22" y="385.18" width="21.08" height="307.86"/><rect class="cls-28" x="1236.83" y="385.18" width="21.08" height="307.86"/><rect class="cls-28" x="1315.6" y="385.18" width="21.08" height="307.86"/><rect class="cls-28" x="1392.15" y="385.18" width="21.08" height="307.86"/><rect class="cls-28" x="982.99" y="362.84" width="452.46" height="33.54"/><path class="cls-29" d="M1147,275.52c-2.25-9.67-2.52-22.62-2.48-29.45,0-.32.07-4,.09-4.31s.84-.53.85-.79c1.12.15-.42-2.6,1.08-2.85l-20.73-.91c-1.57,6.7-3.71,20.64-4.4,27.37-.59,7.3-1.18,14.59-1.18,21.88,0,0-2.17,18.4,19.27,17.43s14.18-10.05,9.16-22.91C1148,279.19,1147.43,277.37,1147,275.52Z" transform="translate(66.86 60.01)"/><path class="cls-30" d="M1127.67,227.13l-.6-.28Z" transform="translate(66.86 60.01)"/><path class="cls-30" d="M1130.36,228.14c-.64-.21-1.26-.43-1.87-.68C1129.1,227.7,1129.72,227.93,1130.36,228.14Z" transform="translate(66.86 60.01)"/><path class="cls-14" d="M1127.07,223.82s-5.06,6.79-5.23,10,.05,6.79,7.58,6.42,9.59-.54,11.47,1.09,3.87,3.74,9.62,2.46-.81-17.55-.81-17.55Z" transform="translate(66.86 60.01)"/><path class="cls-27" d="M1167,188.63a67.19,67.19,0,0,0-15-5.59,68.28,68.28,0,0,0-62.65,16.6c-1.13,1.84,4.89,6.94,7,8.77,9,8,20.69,13.19,31.61,16.86a140.41,140.41,0,0,0,45,7h.11c5.53,0,18.88-1.32,23.17-5.38C1193.18,207.77,1178.7,194.75,1167,188.63Z" transform="translate(66.86 60.01)"/><path class="cls-13" d="M1100.29,193.76c-.75-1.7,2.07-5.08,4-3.95,2.45,1.5-2.54,6.11-4,3.95" transform="translate(66.86 60.01)"/><path class="cls-13" d="M1180.68,198.52c1.76-.58,4.85,2.56,3.54,4.32-1.73,2.29-5.83-3.12-3.54-4.32" transform="translate(66.86 60.01)"/><path class="cls-13" d="M1162.13,219.66c1.76-.58,4.85,2.56,3.54,4.32-1.73,2.29-5.83-3.13-3.54-4.32" transform="translate(66.86 60.01)"/><path class="cls-13" d="M1119.86,214.77c-.75-1.69,2.07-5.08,4-4,2.45,1.5-2.54,6.11-4,4" transform="translate(66.86 60.01)"/><path class="cls-13" d="M1100.23,200.93c2.22-.19,4.12,3.23,2.07,4.4-3,1.72-5.1-3.64-2.07-4.4" transform="translate(66.86 60.01)"/><path class="cls-13" d="M1169.23,189.59c2.23-.19,4.12,3.23,2.08,4.4-3,1.72-5.11-3.65-2.08-4.4" transform="translate(66.86 60.01)"/><path class="cls-13" d="M1122.43,181.91c2.22-.18,4.12,3.23,2.07,4.4-3,1.73-5.1-3.64-2.07-4.4" transform="translate(66.86 60.01)"/><path class="cls-13" d="M1161.86,200.16c.72,2.12-2.14,4.79-3.77,3.09-2.4-2.5,2.3-5.84,3.77-3.09" transform="translate(66.86 60.01)"/><path class="cls-13" d="M1143.83,212.22c2.23-.19,4.12,3.23,2.08,4.4-3,1.72-5.11-3.65-2.08-4.4" transform="translate(66.86 60.01)"/><path class="cls-13" d="M1112.33,196.77c-1.22.56-1.88,2.54-1,3.57a2.45,2.45,0,0,0,3.48.66c3.1-2,.56-6.3-2.45-4.23" transform="translate(66.86 60.01)"/><path class="cls-13" d="M1135.54,197.2c-.8-1.08-2.87-1.32-3.71-.27a2.44,2.44,0,0,0,.07,3.54c2.57,2.63,6.28-.75,3.64-3.27" transform="translate(66.86 60.01)"/><path class="cls-13" d="M1178.1,213.7c-.8-1.08-2.87-1.32-3.71-.28a2.45,2.45,0,0,0,.07,3.55c2.58,2.63,6.29-.75,3.64-3.27" transform="translate(66.86 60.01)"/><path class="cls-13" d="M1191.23,220.23c-1.43.66-2.21,3-1.21,4.19a2.86,2.86,0,0,0,4.08.78c3.64-2.32.66-7.4-2.87-5" transform="translate(66.86 60.01)"/><path class="cls-13" d="M1144,181.36c-1.43.66-2.2,3-1.21,4.19a2.86,2.86,0,0,0,4.08.78c3.64-2.32.67-7.4-2.87-5" transform="translate(66.86 60.01)"/><path class="cls-27" d="M1346.51,635.29a69.37,69.37,0,0,0-26.12-17.49c-6.45-2.4-15.74-4.39-22.2-3.7-3.14.33-5.89,3.84-2,6.9,2.32,1.83,7.33,3.15,15.17,4.06A119.47,119.47,0,0,1,1346.51,635.29Z" transform="translate(66.86 60.01)"/><path class="cls-27" d="M1346.51,635.29s-11.79-37.24-41.57-45.82c-5.81-1.67-10.67.89-8,6.35,1.58,3.27,8.66,8.83,16.69,12.95C1333.21,618.83,1346.51,635.29,1346.51,635.29Z" transform="translate(66.86 60.01)"/><path class="cls-27" d="M1346.36,635.29s1.08-44.12-21.52-66.87c-4.92-5-10.81-5.26-10.53,1.38.18,4,4.79,13.26,10.93,21.73C1340.23,612.2,1346.36,635.29,1346.36,635.29Z" transform="translate(66.86 60.01)"/><path class="cls-27" d="M1346.23,635.29s-3.12-45.88,19.11-72.41c4.84-5.78,10.89-6.83,10.9.14,0,4.17-4.32,14.42-10.25,24C1351.49,610.45,1346.23,635.29,1346.23,635.29Z" transform="translate(66.86 60.01)"/><path class="cls-27" d="M1346.22,635.29a69.37,69.37,0,0,1,26.12-17.49c6.45-2.4,15.74-4.39,22.2-3.7,3.14.33,5.89,3.84,2,6.9-2.32,1.83-7.33,3.15-15.17,4.06A119.47,119.47,0,0,0,1346.22,635.29Z" transform="translate(66.86 60.01)"/><path class="cls-27" d="M1346.22,635.29s11.79-37.24,41.57-45.82c5.81-1.67,10.67.89,8,6.35-1.58,3.27-8.66,8.83-16.69,12.95C1359.52,618.83,1346.22,635.29,1346.22,635.29Z" transform="translate(66.86 60.01)"/><path class="cls-22" d="M914.48,634.82A57.06,57.06,0,0,0,893,620.44c-5.3-2-12.94-3.61-18.25-3.05-2.58.28-4.85,3.16-1.67,5.68,1.91,1.51,6,2.59,12.48,3.34A98.16,98.16,0,0,1,914.48,634.82Z" transform="translate(66.86 60.01)"/><path class="cls-22" d="M914.48,634.82s-9.69-30.63-34.18-37.68c-4.78-1.37-8.78.73-6.61,5.22,1.29,2.7,7.12,7.27,13.72,10.65C903.55,621.29,914.48,634.82,914.48,634.82Z" transform="translate(66.86 60.01)"/><path class="cls-22" d="M914.36,634.82s.88-36.28-17.7-55c-4-4.07-8.89-4.32-8.65,1.14.14,3.28,3.93,10.91,9,17.87A122.67,122.67,0,0,1,914.36,634.82Z" transform="translate(66.86 60.01)"/><path class="cls-22" d="M914.25,634.82s-2.57-37.73,15.71-59.55c4-4.75,9-5.6,9,.12,0,3.43-3.55,11.86-8.43,19.75A140.1,140.1,0,0,0,914.25,634.82Z" transform="translate(66.86 60.01)"/><path class="cls-22" d="M914.24,634.82a57.06,57.06,0,0,1,21.48-14.38c5.3-2,12.94-3.61,18.26-3.05,2.58.28,4.84,3.16,1.66,5.68-1.9,1.51-6,2.59-12.47,3.34A98.29,98.29,0,0,0,914.24,634.82Z" transform="translate(66.86 60.01)"/><path class="cls-22" d="M914.24,634.82s9.7-30.63,34.19-37.68c4.77-1.37,8.77.73,6.61,5.22-1.3,2.7-7.12,7.27-13.73,10.65C925.18,621.29,914.24,634.82,914.24,634.82Z" transform="translate(66.86 60.01)"/><path class="cls-24" d="M670.65,633c12.32,51.42-51.26,89.65,3.93,89.65h918.13V633Z" transform="translate(66.86 60.01)"/><path class="cls-27" d="M1238.78,242.93a98.17,98.17,0,1,1-98.16-98.17A98.16,98.16,0,0,1,1238.78,242.93Z" transform="translate(66.86 60.01)"/><circle class="cls-25" cx="1207.48" cy="302.94" r="92.72"/><path class="cls-27" d="M1197.41,242.93a56.8,56.8,0,1,1-56.79-56.8A56.8,56.8,0,0,1,1197.41,242.93Z" transform="translate(66.86 60.01)"/><text class="cls-31" transform="matrix(0.55, -0.84, 0.84, 0.55, 1146.79, 272.35)">P</text><text class="cls-31" transform="matrix(0.72, -0.7, 0.7, 0.72, 1153.65, 261.32)">O</text><text class="cls-31" transform="matrix(0.86, -0.52, 0.52, 0.86, 1165.49, 249.75)">R</text><text class="cls-31" transform="matrix(0.94, -0.33, 0.33, 0.94, 1178.22, 242.01)">T</text><text class="cls-31" transform="matrix(0.99, -0.11, 0.11, 0.99, 1190.96, 237.27)">O</text><text class="cls-31" transform="matrix(0.99, 0.11, -0.11, 0.99, 1207.39, 235.43)">B</text><text class="cls-31" transform="matrix(0.95, 0.31, -0.31, 0.95, 1221.47, 236.93)">E</text><text class="cls-31" transform="matrix(0.88, 0.48, -0.48, 0.88, 1234.35, 241.05)">L</text><text class="cls-31" transform="matrix(0.77, 0.64, -0.64, 0.77, 1245.67, 247.25)">L</text><text class="cls-31" transform="matrix(0.61, 0.79, -0.79, 0.61, 1255.62, 255.1)">O</text><path class="cls-32" d="M1137.38,317.36a66.83,66.83,0,0,0,19.45-1.44,61.79,61.79,0,0,0,14.75-4.6,76.93,76.93,0,0,0-8.18-10.49c-4.59-5.26-10.47-18.58-9.93-26.34s-20.26-.6-20.26-.6-2.2,24.67,4.08,43.21Z" transform="translate(66.86 60.01)"/><path class="cls-14" d="M1128.14,261.31s-3.88,10.21-3.24,14.37,1.8,8.79,10.1,6.24,10.53-3.36,13.06-1.76,5.26,3.77,11.33.54-5.43-22.53-5.43-22.53Z" transform="translate(66.86 60.01)"/><path class="cls-32" d="M1157.28,208.6a71.91,71.91,0,0,0-76.23,39.52c-.48,2.39,7.64,5.76,10.46,7,12.25,5.42,26.29,6.89,38.93,7a147.26,147.26,0,0,0,49.13-8.44l.12,0c5.7-2,19-8.13,22-14C1191.43,220,1171.61,211.07,1157.28,208.6Z" transform="translate(66.86 60.01)"/><path class="cls-13" d="M1090.2,237.87c-1.41-1.56.25-6.22,2.62-5.67,3.09.75-.36,7.5-2.62,5.67" transform="translate(66.86 60.01)"/><path class="cls-13" d="M1175.06,214.45c1.6-1.26,6,1,5.27,3.4-.94,3.09-7.19-1.3-5.27-3.4" transform="translate(66.86 60.01)"/><path class="cls-13" d="M1163.74,243.87c1.6-1.25,6,1,5.27,3.41-.94,3.09-7.19-1.3-5.27-3.41" transform="translate(66.86 60.01)"/><path class="cls-13" d="M1118.24,253.61c-1.41-1.56.25-6.22,2.61-5.67,3.09.75-.35,7.51-2.61,5.67" transform="translate(66.86 60.01)"/><path class="cls-13" d="M1092.8,245.64c2.23-1,5.46,2,3.78,4-2.47,2.93-6.63-2.13-3.78-4" transform="translate(66.86 60.01)"/><path class="cls-13" d="M1159.91,208.86c2.23-1,5.46,2,3.78,4-2.47,2.92-6.62-2.13-3.78-4" transform="translate(66.86 60.01)"/><path class="cls-13" d="M1108.68,217.21c2.23-1,5.46,2,3.78,4-2.47,2.93-6.62-2.12-3.78-4" transform="translate(66.86 60.01)"/><path class="cls-13" d="M1156.22,222.91c1.53,2-.43,5.92-2.75,4.67-3.41-1.85.21-7.12,2.75-4.67" transform="translate(66.86 60.01)"/><path class="cls-13" d="M1142.06,242.34c2.23-1,5.46,2,3.78,4-2.47,2.93-6.62-2.12-3.78-4" transform="translate(66.86 60.01)"/><path class="cls-13" d="M1103.77,236.84c-1.06,1-1,3.41.25,4.23a2.61,2.61,0,0,0,3.85-.53c2.47-3.23-1.76-7-4.1-3.7" transform="translate(66.86 60.01)"/><path class="cls-13" d="M1127.92,229.06c-1.24-.88-3.46-.4-3.94,1a2.88,2.88,0,0,0,1.39,3.8c3.63,1.93,6.22-3,2.55-4.82" transform="translate(66.86 60.01)"/><path class="cls-13" d="M1178,231.76c-1.23-.89-3.46-.41-3.94,1a2.88,2.88,0,0,0,1.39,3.8c3.64,1.93,6.22-3,2.55-4.82" transform="translate(66.86 60.01)"/><path class="cls-13" d="M1194,234.15c-1.24,1.22-1.18,4,.3,5,1.82,1.18,3.35.85,4.51-.62,2.9-3.79-2.07-8.22-4.81-4.34" transform="translate(66.86 60.01)"/><path class="cls-13" d="M1130.79,208.94c-1.24,1.22-1.17,4,.3,5,1.82,1.18,3.36.84,4.51-.62,2.9-3.8-2.06-8.22-4.81-4.34" transform="translate(66.86 60.01)"/><path class="cls-33" d="M1209.26,213.67a74.39,74.39,0,1,1-138.87,5.25" transform="translate(66.86 60.01)"/></g><line class="cls-34" x1="878.92" y1="60.3" x2="791.13" y2="811.84"/></g></g></svg>