<svg id="Layer_1" data-name="Layer 1" xmlns="http://www.w3.org/2000/svg" viewBox="0 0 300 300"><defs><style>.cls-1,.cls-5,.cls-6{fill:none;}.cls-1,.cls-4,.cls-6{stroke:#6f777d;}.cls-1,.cls-2,.cls-3,.cls-4,.cls-5,.cls-6{stroke-linecap:round;stroke-miterlimit:10;stroke-width:2px;}.cls-1{stroke-dasharray:5 12;}.cls-2{fill:#e8a788;}.cls-2,.cls-3,.cls-5{stroke:#d14500;}.cls-3,.cls-4{fill:#fff;}</style></defs><title>SYR Icons</title><path class="cls-1" d="M202,97.14H221a9.18,9.18,0,0,1,9.17,9.17V191.8"/><path class="cls-2" d="M73.45,71.42H191.33a10,10,0,0,1,10,10V235.64a10,10,0,0,1-10,10H73.45a5.38,5.38,0,0,1-5.38-5.38V76.8A5.38,5.38,0,0,1,73.45,71.42Z"/><rect class="cls-3" x="52.09" y="71.42" width="133.26" height="174.22"/><rect class="cls-4" x="64.53" y="79.03" width="106.12" height="147.01"/><rect class="cls-4" x="79.88" y="105.7" width="16.23" height="16.23" rx="8.12"/><rect class="cls-4" x="79.88" y="142.74" width="16.23" height="16.23" rx="8.12"/><rect class="cls-4" x="79.88" y="183.04" width="16.23" height="16.23" rx="8.12"/><line class="cls-4" x1="106.59" y1="112.98" x2="150.81" y2="112.98"/><line class="cls-4" x1="106.59" y1="150.4" x2="150.81" y2="150.4"/><line class="cls-4" x1="106.59" y1="192.41" x2="150.81" y2="192.41"/><polyline class="cls-5" points="85.66 111.87 89.75 116.37 106.94 100"/><path class="cls-2" d="M140.21,68.92a2.9,2.9,0,0,0-2.9-2.9h-9.25a9.93,9.93,0,0,0,0-3.73,9.7,9.7,0,1,0-19,3.73h-8.51a2.9,2.9,0,0,0-2.9,2.9L93.87,80.59a2.9,2.9,0,0,0,2.9,2.9h43.39a2.9,2.9,0,0,0,2.9-2.9Z"/><path class="cls-6" d="M234.2,206.06a12.23,12.23,0,1,0,7.13,14.15"/><polyline class="cls-6" points="223.96 216.99 228.57 222.05 247.91 203.63"/></svg>