<svg id="Layer_1" data-name="Layer 1" xmlns="http://www.w3.org/2000/svg" viewBox="0 0 300 300"><defs><style>.cls-1{fill:none;stroke:#6f777d;}.cls-1,.cls-2,.cls-3{stroke-linecap:round;stroke-miterlimit:10;stroke-width:2px;}.cls-2{fill:#e8a788;}.cls-2,.cls-3{stroke:#d14500;}.cls-3{fill:#fff;}</style></defs><title>SYR Icons</title><circle class="cls-1" cx="120.18" cy="160.46" r="42.09"/><polygon class="cls-2" points="208.38 108.99 182.78 108.99 182.78 96.48 208.38 96.48 202.01 102.53 208.38 108.99"/><rect class="cls-3" x="166.1" y="83.29" width="10.31" height="48.56"/><path class="cls-3" d="M113.05,154.21l48.67,84.3A4.3,4.3,0,0,1,158,245H53.21l52.4-90.75A4.29,4.29,0,0,1,113.05,154.21Z"/><path class="cls-2" d="M96.55,183.82a10.52,10.52,0,0,0,3.87-1.42,4.28,4.28,0,0,1,4.33,0c2.22,1.28,5.82,2.56,9.32.32a4.17,4.17,0,0,1,4.37,0,7,7,0,0,0,4.62,1.08,4.26,4.26,0,0,0,3-6.34l-13-23.1a4.29,4.29,0,0,0-7.47,0L92.33,177.41A4.29,4.29,0,0,0,96.55,183.82Z"/><path class="cls-3" d="M176,122.28,246.79,245H95.08L165.9,122.28A5.81,5.81,0,0,1,176,122.28Z"/><path class="cls-2" d="M153.66,162.31a14.25,14.25,0,0,0,5.23-1.92,5.78,5.78,0,0,1,5.85,0c3,1.73,7.88,3.46,12.6.43a5.6,5.6,0,0,1,5.91,0,9.6,9.6,0,0,0,6.25,1.45,5.77,5.77,0,0,0,4.06-8.58L176,122.46a5.81,5.81,0,0,0-10.1,0L148,153.65A5.79,5.79,0,0,0,153.66,162.31Z"/><rect class="cls-2" x="162.53" y="90.5" width="31.1" height="12.51"/><line class="cls-1" x1="223.43" y1="106.78" x2="232.13" y2="106.78"/><line class="cls-1" x1="131.45" y1="106.78" x2="140.15" y2="106.78"/><line class="cls-1" x1="211.24" y1="77.33" x2="217.39" y2="71.18"/><line class="cls-1" x1="183.41" y1="63.74" x2="183.41" y2="55.04"/><line class="cls-1" x1="146.2" y1="71.18" x2="152.35" y2="77.33"/></svg>