<svg id="Layer_1" data-name="Layer 1" xmlns="http://www.w3.org/2000/svg" viewBox="0 0 300 300"><defs><style>.cls-1{fill:#e8a788;}.cls-1,.cls-2,.cls-3{stroke:#d14500;}.cls-1,.cls-2,.cls-3,.cls-4{stroke-linecap:round;stroke-miterlimit:10;stroke-width:2px;}.cls-2{fill:#fff;}.cls-3,.cls-4{fill:none;}.cls-4{stroke:#6f777d;}.cls-5{fill:#6f777d;}</style></defs><title>SYR Icons</title><path class="cls-1" d="M159.54,91.25,52.38,168.7a7.35,7.35,0,0,0-1.71,10.24L93.1,239.68a7.32,7.32,0,0,0,10.23,1.71L209.4,165.72a10,10,0,0,0,2.34-13.94L169.78,93A7.34,7.34,0,0,0,159.54,91.25Z"/><rect class="cls-2" x="52.64" y="126.18" width="147.63" height="89.59" transform="translate(-75.78 105.23) rotate(-35.5)"/><rect class="cls-1" x="39.83" y="146.08" width="147.12" height="13.96" transform="translate(-67.81 94.31) rotate(-35.5)"/><path class="cls-1" d="M119.76,157.76H249.65a10,10,0,0,1,10,10v69.59a10,10,0,0,1-10,10H119.76a7.75,7.75,0,0,1-7.75-7.75v-74.1A7.75,7.75,0,0,1,119.76,157.76Z"/><rect class="cls-2" x="104.46" y="157.76" width="147.63" height="89.59"/><circle class="cls-1" cx="225.51" cy="223.1" r="11.2"/><circle class="cls-1" cx="208.98" cy="223.1" r="11.2"/><path class="cls-1" d="M214.31,223.1a11.12,11.12,0,0,0,2.93,7.53,11.15,11.15,0,0,0,0-15.07A11.12,11.12,0,0,0,214.31,223.1Z"/><rect class="cls-1" x="122.84" y="171.62" width="24.06" height="28.33" rx="3.75"/><line class="cls-1" x1="123.63" y1="181.52" x2="146.64" y2="181.52"/><line class="cls-1" x1="123.63" y1="190.86" x2="146.64" y2="190.86"/><line class="cls-1" x1="134.76" y1="172.02" x2="134.76" y2="199.29"/><line class="cls-3" x1="122.52" y1="217.49" x2="169.85" y2="217.49"/><line class="cls-3" x1="122.52" y1="228.32" x2="158.22" y2="228.32"/><line class="cls-4" x1="202.08" y1="101.42" x2="210.78" y2="101.42"/><line class="cls-4" x1="110.09" y1="101.42" x2="118.79" y2="101.42"/><line class="cls-4" x1="189.88" y1="71.98" x2="196.03" y2="65.83"/><line class="cls-4" x1="162.05" y1="58.39" x2="162.05" y2="49.69"/><line class="cls-4" x1="124.84" y1="65.83" x2="130.99" y2="71.98"/><path class="cls-5" d="M231.57,138h8.53v1.61h-8.53v8.49H230v-8.49h-8.49V138H230v-8.54h1.62Z"/><path class="cls-5" d="M57.55,142.32v-2.61h15.1v2.61Z"/></svg>