<svg xmlns="http://www.w3.org/2000/svg" viewBox="0 0 104.74 103.42"><defs><style>.cls-1{fill:#fe4850;}.cls-2{fill:none;stroke:#212d5c;}.cls-2,.cls-5{stroke-miterlimit:10;}.cls-3{font-size:12.84px;fill:#1f2b5f;font-family:OpenSans-Regular, Open Sans;}.cls-4,.cls-5{fill:#e6e6e6;}.cls-5{stroke:#1f2b5f;}</style></defs><g id="Layer_2" data-name="Layer 2"><g id="Layer_3" data-name="Layer 3"><path class="cls-1" d="M44.52,9.76H74.85a2.59,2.59,0,0,1,2.59,2.59v6.93a0,0,0,0,1,0,0H41.93a0,0,0,0,1,0,0V12.35A2.59,2.59,0,0,1,44.52,9.76Z"/><path class="cls-1" d="M38.11,17.58H81.26A4.39,4.39,0,0,1,85.65,22V92.15a0,0,0,0,1,0,0H33.72a0,0,0,0,1,0,0V22A4.39,4.39,0,0,1,38.11,17.58Z"/><rect class="cls-2" x="40.25" y="25.65" width="11.24" height="14.51"/><rect class="cls-2" x="54.69" y="25.65" width="11.24" height="14.51"/><rect class="cls-2" x="69.13" y="25.65" width="11.24" height="14.51"/><rect class="cls-2" x="40.25" y="45.63" width="11.24" height="14.51"/><rect class="cls-2" x="54.69" y="45.63" width="11.24" height="14.51"/><rect class="cls-2" x="69.13" y="45.63" width="11.24" height="14.51"/><rect class="cls-2" x="40.25" y="65.61" width="11.24" height="14.51"/><rect class="cls-2" x="54.69" y="65.61" width="11.24" height="14.51"/><rect class="cls-2" x="69.13" y="65.61" width="11.24" height="14.51"/><circle class="cls-1" cx="59.69" cy="11.04" r="11.04"/><circle class="cls-2" cx="59.69" cy="11.04" r="8.57"/><text class="cls-3" transform="translate(55.82 15.96)">P</text><line class="cls-2" x1="45.37" y1="17.74" x2="51.29" y2="17.74"/><line class="cls-2" x1="68.02" y1="17.74" x2="73.94" y2="17.74"/><path class="cls-4" d="M47.28,87.79l25.59,3.56L98.23,77.92a4.43,4.43,0,0,1,5.89,1.66h0a4.42,4.42,0,0,1-1.27,5.88c-6.85,4.78-20.3,14-25.43,16.45a5.1,5.1,0,0,1-1.92.46l-26,1a21,21,0,0,1-8.55-1.75C39.41,101,23.08,96,23.08,96c-2.45-.44-12.51,6.68-12.51,6.68L.16,80.53c-2.11,2.92,17.49-6,23.09-9.48"/><path class="cls-5" d="M43.9,92.49c2.18-.79,13.15-2.88,16.23-2.5,1.31.17,7.34,2,8.91,2.35,4.69.92,10.18.3,10.72-4,.7-5.51-3.64-7-11.73-8-4.62-.58-13.25-2.27-20.08-5.46C36.55,69.56,28,70,23.25,71.05"/></g></g></svg>