<svg xmlns="http://www.w3.org/2000/svg" viewBox="0 0 122.96 93.71"><defs><style>.cls-1{fill:#fff;}.cls-2{fill:#e6e6e6;}.cls-3,.cls-4{fill:#b5b5b6;}.cls-4,.cls-7{stroke:#1f2b5f;stroke-miterlimit:10;}.cls-5{fill:#45a87f;}.cls-6{fill:#4ca1d9;}.cls-7{fill:none;}</style></defs><g id="Layer_2" data-name="Layer 2"><g id="Layer_3" data-name="Layer 3"><circle class="cls-1" cx="114.32" cy="49.62" r="1.91"/><path class="cls-2" d="M68.27,26.48l-16.43,1A9.89,9.89,0,0,1,44,24.4l-7.25-7.82L12.54,39l7.87,8.47a9.92,9.92,0,0,1,2.51,7.34,12.35,12.35,0,0,0,3.28,9"/><path class="cls-2" d="M26.2,63.89l1.21,1.3,0,0,1.17,1.16.61.66,0,0L54.12,91.93a4.86,4.86,0,0,0,7.15-6.58l4.85,4.86A4.87,4.87,0,0,0,73.59,84l3,3a4.86,4.86,0,0,0,6.88,0h0a4.86,4.86,0,0,0,0-6.89L81.3,78a4.86,4.86,0,0,0,6.57-7.15L56.13,39.07,68.27,26.48"/><path class="cls-3" d="M88.18,71.21l8.86-9a11.66,11.66,0,0,0,3.42-8.44,10.4,10.4,0,0,1,3.17-7.39l7.2-7.2L91.42,18.12,87,22.53a10.86,10.86,0,0,1-9.82,2.92C73.76,24.74,69.92,24,69,23.77c-2.24-.44-4.65-.25-6.41,1.45L44.87,42.33a6.5,6.5,0,0,0-.47,9,6.33,6.33,0,0,0,9.08.29l7.83-7.26"/><path class="cls-4" d="M81.41,51.56S67.7,57.28,61.34,44.49"/><path class="cls-5" d="M97,4.46h19a0,0,0,0,1,0,0V33.35a8.77,8.77,0,0,1-8.77,8.77H97a0,0,0,0,1,0,0V4.46A0,0,0,0,1,97,4.46Z" transform="translate(14.74 82.17) rotate(-45)"/><circle class="cls-1" cx="117.95" cy="29.79" r="1.93"/><path class="cls-6" d="M8,1.24H19.75a10,10,0,0,1,10,10v33a0,0,0,0,1,0,0H8a0,0,0,0,1,0,0v-43a0,0,0,0,1,0,0Z" transform="translate(15.6 52.13) rotate(-133.89)"/><circle class="cls-1" cx="5.73" cy="29.92" r="2.2"/><line class="cls-7" x1="68.12" y1="38.15" x2="53.83" y2="51.3"/><path class="cls-3" d="M40.79,69.78h0a4.94,4.94,0,0,1,0,7l-2.48,2.35a2.48,2.48,0,0,1-3.47-.05l-3.47-3.46A2.49,2.49,0,0,1,31.42,72l2.38-2.26A4.94,4.94,0,0,1,40.79,69.78Z"/><path class="cls-3" d="M47.75,76.73h0a4.94,4.94,0,0,1,0,7l-2.49,2.36a2.5,2.5,0,0,1-3.47,0l-3.47-3.47a2.5,2.5,0,0,1,0-3.57l2.39-2.26A4.94,4.94,0,0,1,47.75,76.73Z"/><path class="cls-3" d="M54.7,83.69h0a4.94,4.94,0,0,1,0,7L52.22,93a2.48,2.48,0,0,1-3.47,0l-3.47-3.46a2.49,2.49,0,0,1,0-3.57l2.38-2.26A4.94,4.94,0,0,1,54.7,83.69Z"/><line class="cls-7" x1="81.3" y1="77.97" x2="63.31" y2="61.01"/><line class="cls-7" x1="73.3" y1="83.68" x2="55.31" y2="66.73"/><line class="cls-7" x1="61.2" y1="85.21" x2="43.21" y2="68.26"/><line class="cls-4" x1="87.56" y1="17.69" x2="111.35" y2="41.48"/><line class="cls-4" x1="13.96" y1="42.56" x2="39.11" y2="18.48"/></g></g></svg>