<svg xmlns="http://www.w3.org/2000/svg" viewBox="0 0 1920 1080.31"><defs><style>.cls-1{fill:#000440;}.cls-18,.cls-2{fill:#05215b;}.cls-2{opacity:0.41;}.cls-3{fill:#093e77;}.cls-4{fill:#1069a0;}.cls-5{fill:#0e5b92;}.cls-6{fill:#0b4c85;}.cls-7,.cls-8{fill:#fff;stroke:#00356b;}.cls-10,.cls-15,.cls-7,.cls-8{stroke-miterlimit:10;}.cls-7{stroke-width:1.68px;}.cls-8{stroke-width:1px;}.cls-9{fill:#a7a6a6;}.cls-10{fill:none;stroke-width:2.07px;}.cls-10,.cls-15{stroke:#fff;}.cls-11{fill:#8c8c8c;}.cls-12{fill:#d9d9d9;}.cls-13{fill:#cce5f4;opacity:0.4;}.cls-14{fill:#556b84;}.cls-15,.cls-19{fill:#ebedf0;}.cls-15{stroke-width:0.39px;}.cls-16{fill:#00356b;}.cls-17{fill:#4ba5d7;}</style></defs><g id="Layer_2" data-name="Layer 2"><g id="Scene_3" data-name="Scene 3"><rect class="cls-1" width="1920" height="1080.31"/><g id="Background"><path class="cls-2" d="M1520.83,733.74c-111-215.58-339.25-363.47-602.81-363.47S426.24,518.16,315.21,733.74Z"/><circle class="cls-1" cx="1357.85" cy="748.5" r="103.3"/><circle class="cls-1" cx="1242.35" cy="748.84" r="67.72"/><circle class="cls-1" cx="1163.95" cy="810.59" r="66.83"/><circle class="cls-1" cx="1486.93" cy="802.89" r="74.52"/><circle class="cls-1" cx="487.93" cy="748.5" r="103.3"/><circle class="cls-1" cx="372.43" cy="748.84" r="67.72"/><circle class="cls-1" cx="294.03" cy="810.59" r="66.83"/><circle class="cls-1" cx="617" cy="802.89" r="74.52"/><rect class="cls-1" x="296.71" y="800.01" width="323.42" height="77.4"/></g><g id="Plant_4" data-name="Plant 4"><circle class="cls-3" cx="1263.29" cy="596.98" r="47.25"/><circle class="cls-3" cx="1194.13" cy="575.7" r="47.25"/><circle class="cls-3" cx="1184.34" cy="665.29" r="69.67"/><circle class="cls-3" cx="1277.26" cy="676.13" r="52.21"/><circle class="cls-4" cx="1256.34" cy="627.91" r="4.18"/><circle class="cls-4" cx="1266.98" cy="640.55" r="6.71"/><circle class="cls-4" cx="1272.91" cy="619.31" r="9.46"/><circle class="cls-4" cx="1276.57" cy="575.09" r="6.37"/><circle class="cls-4" cx="1291.82" cy="571.6" r="3.6"/><circle class="cls-4" cx="1289.93" cy="584.01" r="5.02"/><circle class="cls-3" cx="1233.37" cy="523.82" r="36.55"/><circle class="cls-4" cx="1229.24" cy="523.27" r="6.71"/><circle class="cls-4" cx="1236.46" cy="534.8" r="3.92"/><circle class="cls-4" cx="1247.03" cy="524.82" r="7.93"/><circle class="cls-4" cx="1305.28" cy="685.22" r="6.71"/><circle class="cls-4" cx="1291.77" cy="683.67" r="3.92"/><circle class="cls-4" cx="1292.98" cy="698.15" r="7.93"/><circle class="cls-4" cx="1208.12" cy="575.4" r="6.71"/><circle class="cls-4" cx="1194.61" cy="573.85" r="3.92"/><circle class="cls-4" cx="1195.82" cy="588.34" r="7.93"/><circle class="cls-4" cx="1222.6" cy="690.17" r="6.71"/><circle class="cls-4" cx="1214.96" cy="678.92" r="3.92"/><circle class="cls-4" cx="1205.78" cy="688.41" r="7.93"/><circle class="cls-4" cx="1168.08" cy="632.89" r="6.71"/><circle class="cls-4" cx="1169.41" cy="646.43" r="3.92"/><circle class="cls-4" cx="1183.31" cy="642.2" r="7.93"/><polygon class="cls-5" points="1293.28 891.28 1166.53 891.28 1149.04 707.55 1310.76 707.55 1293.28 891.28"/><rect class="cls-6" x="1138.62" y="705.23" width="184.89" height="19.77"/></g><g id="Plant_3" data-name="Plant 3"><path class="cls-4" d="M567.44,691.11a82.38,82.38,0,0,1-20.78-17s26.11-6.66,21.16-13.65c-4.24-6-29.84,1.84-29.84,1.84a81.86,81.86,0,0,1-8.48-19.41s16.73-.74,14.52-7c-1.31-3.73-16.87-4.47-16.87-4.47-1-8.57-1-19.41.73-27.92,8.23-2.74,19-4,27.63-4.08,0,0,2.6,15.37,6.46,16.22,6.52,1.43,5.25-15.27,5.25-15.27a81.89,81.89,0,0,1,20.28,6.1s-4.69,26.35,1.76,29.83c7.54,4.08,11-22.64,11-22.64a82.53,82.53,0,0,1,19.38,18.59s-9.14,23.43-2.66,29.35c4.12,3.76,12-14.91,12-14.91a88.38,88.38,0,0,1,5.3,51.11,88.35,88.35,0,0,1-51.38.87s17.6-10,13.37-13.68C589.61,679.23,567.44,691.11,567.44,691.11Z"/><line class="cls-7" x1="542.9" y1="616.78" x2="634.27" y2="697.76"/><path class="cls-5" d="M648.61,658.82a63,63,0,0,1,8.94-9.42,64.24,64.24,0,0,1,6.29-4.77s2.39,20.75,8.28,17.68c5-2.63,1.71-23.11,1.71-23.11a63.38,63.38,0,0,1,15.79-4.49s-1.18,12.93,3.9,11.89c3-.61,5.19-12.49,5.19-12.49a75,75,0,0,1,21.38,3.48,74.87,74.87,0,0,1,.24,21.66s-12.08.39-13.13,3.26c-1.79,4.86,11.17,5.63,11.17,5.63a62.89,62.89,0,0,1-6.8,15s-19.75-6.36-23.11-1.77c-3.92,5.36,16.24,10.83,16.24,10.83a65.47,65.47,0,0,1-5.65,5.51,64.14,64.14,0,0,1-10.65,7.43s-17-9.48-22.28-5.11c-3.31,2.77,10.21,10.76,10.21,10.76a68.57,68.57,0,0,1-39.82-1.27,68.49,68.49,0,0,1,4.7-39.57s5.88,14.57,9.11,11.7C655.42,677.09,648.61,658.82,648.61,658.82Z"/><line class="cls-7" x1="708.29" y1="647.74" x2="636.51" y2="709.47"/><path class="cls-3" d="M581,620.71A110.06,110.06,0,0,1,578.12,585s30.58,19,32.73,7.74c1.84-9.63-29.39-27-29.39-27a109.49,109.49,0,0,1,10.84-26.14s16.2,15.43,20.23,7.47c2.38-4.72-11.32-20.39-11.32-20.39,7.35-8.88,17.77-18.93,27.57-25.14,10.26,5.4,21.46,14.58,29.5,22.83,0,0-12.38,16.73-9.63,21.24,4.65,7.61,19.56-9.08,19.56-9.08a109.28,109.28,0,0,1,12.91,25.18S651.4,581.5,654,590.94c3,11,32-10.35,32-10.35a111.3,111.3,0,0,1,1.4,13.53,110.06,110.06,0,0,1-1.36,22.34s-31,12.89-30.73,24.62c.19,7.44,25.45-2.28,25.45-2.28-8.69,20.91-25.3,40.38-44.32,52.43-19.93-10.48-38.06-28.54-48.41-48.68,0,0,26,7.64,25.55.21C613,631.05,581,620.71,581,620.71Z"/><line class="cls-7" x1="629.86" y1="528.24" x2="636.45" y2="750.28"/><path class="cls-6" d="M682.91,717.91H595.54A97,97,0,0,0,593.6,890h91.25a97,97,0,0,0-1.94-172.11Z"/></g><g id="Plant_2" data-name="Plant 2"><path class="cls-6" d="M513.42,766.84c0,26.33,6,47.68,13.44,47.68s13.44-21.35,13.44-47.68c0-19.27-7.2-84.57-11.06-118.19a2.4,2.4,0,0,0-4.76,0C520.62,682.27,513.42,747.57,513.42,766.84Z"/><path class="cls-4" d="M504.35,778.08c6.12,21.87,16.88,38,24,36s8-21.36,1.85-43.23c-4.34-15.53-25.27-65.18-37.05-92.68a2.76,2.76,0,0,0-5.27,1.47C492.12,709.25,500,762.55,504.35,778.08Z"/><path class="cls-4" d="M524,770.54c-7.67,21.38-8.23,40.74-1.24,43.25s18.87-12.8,26.54-34.18c5.44-15.17,17.12-67.77,23.44-97a2.76,2.76,0,0,0-5.16-1.85C553.9,707.33,529.47,755.36,524,770.54Z"/><path class="cls-5" d="M513.45,783.52c.31,17.59,5.23,31.77,11,31.67s10.15-14.45,9.84-32c-.22-12.49-6.21-53.79-9.66-76.71a2.14,2.14,0,0,0-4.24.07C517.74,729.54,513.23,771,513.45,783.52Z"/><path class="cls-5" d="M533.59,793.08c-10.36,6.69-16.66,15.37-14.07,19.39s13.1,1.87,23.47-4.82c7.36-4.75,29.38-24.16,41.55-35,1.31-1.17-.31-3.68-1.92-3C567.71,776.26,541,788.33,533.59,793.08Z"/><path class="cls-3" d="M506.31,801.16c7.05,10.13,15.94,16.12,19.87,13.39s1.41-13.16-5.63-23.29c-5-7.19-25.16-28.53-36.44-40.31-1.22-1.27-3.67.44-2.9,2C488.33,767.64,501.31,794,506.31,801.16Z"/><polygon class="cls-5" points="494.82 890.45 557.91 890.45 566.61 799 486.12 799 494.82 890.45"/><rect class="cls-3" x="479.78" y="797.85" width="92.03" height="9.84" transform="translate(1051.58 1605.53) rotate(-180)"/></g><g id="Plant_1" data-name="Plant 1"><circle class="cls-4" cx="1350.31" cy="639.27" r="10.61"/><circle class="cls-4" cx="1312.76" cy="753.7" r="25.51"/><circle class="cls-4" cx="1323.16" cy="703.72" r="18.33"/><circle class="cls-4" cx="1331.77" cy="665.68" r="12.69"/><circle class="cls-4" cx="1387.12" cy="762.6" r="25.51"/><circle class="cls-4" cx="1376.72" cy="712.62" r="18.33"/><circle class="cls-4" cx="1368.11" cy="674.58" r="12.69"/><line class="cls-8" x1="1350.31" y1="639.27" x2="1350.31" y2="851.92"/><line class="cls-8" x1="1350.31" y1="679.85" x2="1332.67" y2="666.36"/><line class="cls-8" x1="1350.72" y1="724.38" x2="1323.33" y2="703.44"/><line class="cls-8" x1="1350.34" y1="782.43" x2="1313.21" y2="754.04"/><line class="cls-8" x1="1350.66" y1="687.94" x2="1368.3" y2="674.45"/><line class="cls-8" x1="1350.25" y1="732.47" x2="1377.64" y2="711.53"/><line class="cls-8" x1="1350.63" y1="790.52" x2="1387.76" y2="762.13"/><path class="cls-3" d="M1300.64,844.35c0-19.81,12.4-37.53,32.06-42.89.34-.09,29.82,0,30,0,19.79,3.49,34,22.26,34,42.85,0,25.1-21.51,45.45-48,45.45S1300.64,869.45,1300.64,844.35Z"/></g><g id="mouse"><rect class="cls-9" x="1268.87" y="867.78" width="84.16" height="21.74" rx="10.87"/><path class="cls-9" d="M1298.77,848.74h24.35a29.9,29.9,0,0,1,29.9,29.9v0a0,0,0,0,1,0,0h-84.16a0,0,0,0,1,0,0v0A29.9,29.9,0,0,1,1298.77,848.74Z"/></g><line class="cls-10" x1="97.77" y1="890.47" x2="1832.3" y2="890.47"/><g id="Computer"><rect class="cls-11" x="890.48" y="803.17" width="109.45" height="79.83"/><path class="cls-9" d="M1196.22,458.43h-502a10.93,10.93,0,0,0-10.93,10.93V764.88h523.87V469.36A10.92,10.92,0,0,0,1196.22,458.43Z"/><path class="cls-12" d="M683.27,810.27A10.93,10.93,0,0,0,694.2,821.2h502a10.93,10.93,0,0,0,10.92-10.93V764.88H683.27Z"/><circle class="cls-9" cx="945.21" cy="793.51" r="12.18"/><rect class="cls-3" x="704.33" y="480.17" width="481.75" height="262.97" rx="5.46"/><rect class="cls-12" x="683.27" y="876.75" width="523.87" height="12.33"/><path class="cls-9" d="M717.41,869.21h19.76A2.83,2.83,0,0,1,740,872v4.7a0,0,0,0,1,0,0H714.58a0,0,0,0,1,0,0V872A2.83,2.83,0,0,1,717.41,869.21Z"/><path class="cls-9" d="M753.73,869.21h19.76a2.83,2.83,0,0,1,2.83,2.83v4.7a0,0,0,0,1,0,0H750.9a0,0,0,0,1,0,0V872A2.83,2.83,0,0,1,753.73,869.21Z"/><path class="cls-9" d="M790.05,869.21h19.76a2.83,2.83,0,0,1,2.83,2.83v4.7a0,0,0,0,1,0,0H787.22a0,0,0,0,1,0,0V872A2.83,2.83,0,0,1,790.05,869.21Z"/><path class="cls-9" d="M826.37,869.21h19.76A2.83,2.83,0,0,1,849,872v4.7a0,0,0,0,1,0,0H823.54a0,0,0,0,1,0,0V872A2.83,2.83,0,0,1,826.37,869.21Z"/><path class="cls-9" d="M862.69,869.21h19.76a2.83,2.83,0,0,1,2.83,2.83v4.7a0,0,0,0,1,0,0H859.85a0,0,0,0,1,0,0V872A2.83,2.83,0,0,1,862.69,869.21Z"/><path class="cls-9" d="M899,869.21h19.76A2.83,2.83,0,0,1,921.6,872v4.7a0,0,0,0,1,0,0H896.17a0,0,0,0,1,0,0V872A2.83,2.83,0,0,1,899,869.21Z"/><path class="cls-9" d="M935.33,869.21h19.76a2.83,2.83,0,0,1,2.83,2.83v4.7a0,0,0,0,1,0,0H932.49a0,0,0,0,1,0,0V872A2.83,2.83,0,0,1,935.33,869.21Z"/><path class="cls-9" d="M971.65,869.21h19.76a2.83,2.83,0,0,1,2.83,2.83v4.7a0,0,0,0,1,0,0H968.81a0,0,0,0,1,0,0V872A2.83,2.83,0,0,1,971.65,869.21Z"/><path class="cls-9" d="M1008,869.21h19.76a2.83,2.83,0,0,1,2.83,2.83v4.7a0,0,0,0,1,0,0h-25.43a0,0,0,0,1,0,0V872A2.83,2.83,0,0,1,1008,869.21Z"/><path class="cls-9" d="M1080.6,869.21h19.76a2.83,2.83,0,0,1,2.83,2.83v4.7a0,0,0,0,1,0,0h-25.43a0,0,0,0,1,0,0V872A2.83,2.83,0,0,1,1080.6,869.21Z"/><path class="cls-9" d="M1044.28,869.21H1064a2.83,2.83,0,0,1,2.83,2.83v4.7a0,0,0,0,1,0,0h-25.43a0,0,0,0,1,0,0V872A2.83,2.83,0,0,1,1044.28,869.21Z"/><path class="cls-9" d="M1116.92,869.21h19.76a2.83,2.83,0,0,1,2.83,2.83v4.7a0,0,0,0,1,0,0h-25.43a0,0,0,0,1,0,0V872A2.83,2.83,0,0,1,1116.92,869.21Z"/><path class="cls-9" d="M1153.24,869.21H1173a2.83,2.83,0,0,1,2.83,2.83v4.7a0,0,0,0,1,0,0H1150.4a0,0,0,0,1,0,0V872A2.83,2.83,0,0,1,1153.24,869.21Z"/><rect class="cls-4" x="726.27" y="502.87" width="442.94" height="11.97"/><rect class="cls-4" x="1036.2" y="535.46" width="133.02" height="39.24"/><rect class="cls-4" x="1036.2" y="584.01" width="133.02" height="134.49"/><rect class="cls-4" x="728.77" y="536.13" width="298.12" height="181.33"/><rect class="cls-4" x="727.44" y="727.67" width="441.41" height="14.98"/></g><g id="Screen_shine" data-name="Screen shine"><polygon class="cls-13" points="937.76 479.6 703.66 627.25 703.66 673.8 1016.91 479.6 937.76 479.6"/><polygon class="cls-13" points="1042.18 479.6 703.66 691.09 703.66 721.69 1089.4 479.6 1042.18 479.6"/></g><g id="Mug"><path class="cls-3" d="M680.15,844.07H658.26V834.5h21.89a4.77,4.77,0,0,0,4.7-4.09l2.7-19.68a4.74,4.74,0,0,0-4.69-5.38h-24.6v-9.57h24.6A14.3,14.3,0,0,1,697,812l-2.7,19.68A14.36,14.36,0,0,1,680.15,844.07Z"/><path class="cls-3" d="M630.72,890.86H619.83a35.38,35.38,0,0,1-35.25-32.39l-8.09-95.4h97.57L666,858.47A35.38,35.38,0,0,1,630.72,890.86Z"/><ellipse class="cls-14" cx="623.53" cy="863.8" rx="3.4" ry="0.34" transform="translate(-5.83 4.24) rotate(-0.39)"/><path class="cls-1" d="M636.32,820.85c0-.33-5-1.54-11.06-1.5s-10.79,1.32-10.78,1.64,4.89.56,10.92.52S636.33,821.17,636.32,820.85Z"/><path class="cls-4" d="M621.83,865.36A7.91,7.91,0,0,1,618,858l2.21-43s.52-.94,5.17-1c4.24,0,4.95.9,4.95.9l2.8,43a7.57,7.57,0,0,1-4.18,7.4Z"/><circle class="cls-15" cx="598.18" cy="793.34" r="3.56"/><circle class="cls-15" cx="606.56" cy="781.09" r="2.14"/><circle class="cls-15" cx="636.33" cy="778.02" r="2.14"/><circle class="cls-15" cx="655.4" cy="796.62" r="2.95"/><path class="cls-16" d="M654.93,812.7c0-.87-12.61-5.92-28.89-5.81s-30,5.33-30,6.21,13.2,1.51,29.48,1.4S654.94,813.58,654.93,812.7Z"/><path class="cls-17" d="M632.3,816.66l-.54-5.43s-.92-1.18-6.32-1.14c-5.93,0-6.59,1.23-6.59,1.23l-.48,5.5a10,10,0,0,1-3.93,4.14,64.8,64.8,0,0,1,10.74-.85,78.83,78.83,0,0,1,11.15.7A10.07,10.07,0,0,1,632.3,816.66Z"/><path class="cls-18" d="M643.8,801.71l-1.49-14.64s-2.46-3.18-17-3.08c-16,.11-17.76,3.32-17.76,3.32l-1.3,14.83c-4.79,8.48-10.6,11.17-10.6,11.17a175.86,175.86,0,0,1,29-2.3,215.78,215.78,0,0,1,30.07,1.9S648.71,810.27,643.8,801.71Z"/><path class="cls-18" d="M657,810.31l0-3.85a31.63,31.63,0,0,0-31.75-31.33h0a31.64,31.64,0,0,0-31.33,31.76l0,3.85a2.45,2.45,0,0,0,2.47,2.44l29.19-6.39,29,6A2.46,2.46,0,0,0,657,810.31Z"/><circle class="cls-19" cx="623.38" cy="776.39" r="2.25"/><circle class="cls-19" cx="650.06" cy="789.19" r="2.25"/><circle class="cls-19" cx="648.64" cy="802.09" r="3.56"/><circle class="cls-19" cx="639.31" cy="785.51" r="3.56"/><circle class="cls-19" cx="625.86" cy="794.17" r="2.07"/><circle class="cls-19" cx="628.85" cy="786" r="1.3"/><circle class="cls-19" cx="618.23" cy="785.52" r="2.24"/><circle class="cls-19" cx="636.11" cy="798.15" r="2.92"/><circle class="cls-19" cx="610.38" cy="797.04" r="1.92"/><circle class="cls-19" cx="604.67" cy="793.29" r="1.23"/><circle class="cls-19" cx="601.4" cy="801.23" r="1.23"/></g></g></g></svg>