<svg xmlns="http://www.w3.org/2000/svg" viewBox="0 0 1920 1083.33"><defs><style>.cls-1{fill:#000440;}.cls-2,.cls-7{fill:#05215b;}.cls-2{opacity:0.41;}.cls-3{fill:#0e5b92;}.cls-4{fill:#093e77;}.cls-5{fill:#1069a0;}.cls-11,.cls-6,.cls-8{fill:#fff;stroke:#00356b;}.cls-11,.cls-12,.cls-14,.cls-17,.cls-6,.cls-8{stroke-miterlimit:10;}.cls-6{stroke-width:1.19px;}.cls-8{stroke-width:1.33px;}.cls-9{fill:#00356b;}.cls-10{fill:#7aacca;}.cls-11{stroke-width:1.47px;}.cls-12{fill:none;stroke-width:2.07px;}.cls-12,.cls-14,.cls-17{stroke:#fff;}.cls-13{fill:#556b84;}.cls-14,.cls-16,.cls-17{fill:#ebedf0;}.cls-14{stroke-width:0.39px;}.cls-15{fill:#4ba5d7;}.cls-17{stroke-width:0.23px;}</style></defs><g id="Layer_2" data-name="Layer 2"><g id="Scene_1" data-name="Scene 1"><rect class="cls-1" y="3.02" width="1920" height="1080.31"/><path id="Background" class="cls-2" d="M1518.83,733.77C1407.81,518.19,1179.59,370.3,916,370.3S424.24,518.19,313.22,733.77Z"/><g id="Tree_8" data-name="Tree 8"><rect class="cls-3" x="665.37" width="84.03" height="734.12"/><polygon class="cls-3" points="730.57 260.34 797.21 177.76 797.21 161.31 704.49 203.84 730.57 260.34"/><polygon class="cls-3" points="674.97 336.15 629.15 279.37 629.15 268.06 692.9 297.3 674.97 336.15"/></g><g id="Bush_6" data-name="Bush 6"><circle class="cls-1" cx="425.37" cy="600.52" r="76.01"/><circle class="cls-1" cx="340.39" cy="600.76" r="49.83"/><circle class="cls-1" cx="282.7" cy="646.2" r="49.18"/><circle class="cls-1" cx="520.36" cy="640.54" r="54.84"/><rect class="cls-1" x="284.67" y="638.42" width="237.98" height="56.96"/></g><g id="Bush_5" data-name="Bush 5"><circle class="cls-1" cx="726.82" cy="681.53" r="45.27"/><circle class="cls-1" cx="676.47" cy="676.37" r="29.68"/><circle class="cls-1" cx="639.47" cy="699.67" r="29.28"/><circle class="cls-1" cx="780.57" cy="711.17" r="32.66"/><rect class="cls-1" x="638.95" y="702.53" width="141.72" height="33.92" transform="translate(79.43 -70.52) rotate(6.02)"/></g><g id="Bush_4" data-name="Bush 4"><circle class="cls-1" cx="1269.73" cy="721.27" r="45.27"/><circle class="cls-1" cx="1219.38" cy="716.1" r="29.68"/><circle class="cls-1" cx="1182.38" cy="739.41" r="29.28"/><circle class="cls-1" cx="1323.48" cy="750.91" r="32.66"/><rect class="cls-1" x="1181.86" y="742.27" width="141.72" height="33.92" transform="translate(86.59 -127.27) rotate(6.02)"/></g><g id="Bush_3" data-name="Bush 3"><circle class="cls-1" cx="1440.81" cy="586.82" r="54.1"/><circle class="cls-1" cx="1380.32" cy="586.99" r="35.47"/><circle class="cls-1" cx="1339.25" cy="619.33" r="35"/><circle class="cls-1" cx="1508.42" cy="615.3" r="39.03"/><rect class="cls-1" x="1340.66" y="613.8" width="169.39" height="40.54"/></g><rect id="Tree_8-2" data-name="Tree 8" class="cls-4" x="560.23" width="39.48" height="719.8"/><rect id="Tree_7" data-name="Tree 7" class="cls-4" x="957.34" width="39.48" height="741.69"/><g id="Leaves_3" data-name="Leaves 3"><path class="cls-5" d="M1560.78,658.32a46.79,46.79,0,0,0,9.11-2.61,45.23,45.23,0,0,0,5.21-2.46s-12.62-8.54-8.64-11.32c3.4-2.37,15.52,6.69,15.52,6.69a46,46,0,0,0,8.23-8.69s-8.76-3.6-6.37-6.53c1.41-1.74,9.83.85,9.83.85a54.65,54.65,0,0,0,5-15,54.63,54.63,0,0,0-13.92-7.46s-4.33,7.68-6.55,7.39c-3.74-.49.13-9.13.13-9.13a46.35,46.35,0,0,0-12-.64s-2.55,14.92-6.65,15.54c-4.79.72-1.52-14.16-1.52-14.16a46,46,0,0,0-5.47,1.8,46.73,46.73,0,0,0-8.4,4.38s.37,14.22-4.21,16.13c-2.91,1.21-3.52-10.23-3.52-10.23A49.93,49.93,0,0,0,1524,649.05a49.89,49.89,0,0,0,27.17,10.31s-7.43-8.72-4.49-9.84C1551.27,647.75,1560.78,658.32,1560.78,658.32Z"/><line class="cls-6" x1="1588.09" y1="623.46" x2="1523.95" y2="649.05"/><path class="cls-4" d="M1554.07,628.32a53.6,53.6,0,0,0,5-9.58,54.15,54.15,0,0,0,2-6.25s-17,3.76-16.14-1.7c.69-4.68,17.7-7.62,17.7-7.62a53.07,53.07,0,0,0-.76-13.64s-9.84,4.44-10.41.17c-.33-2.53,8.41-7.48,8.41-7.48a62.23,62.23,0,0,0-8.53-15.85,62.06,62.06,0,0,0-17.09,5.69s3,9.59,1,11.21c-3.33,2.72-7.46-7.26-7.46-7.26a53.34,53.34,0,0,0-9.9,9.4s10.37,13.81,7.67,17.69c-3.16,4.54-12.93-9.83-12.93-9.83a55.67,55.67,0,0,0-2.79,5.94,53,53,0,0,0-2.95,10.39S1519,620.43,1517,625.73c-1.27,3.35-11.23-5.11-11.23-5.11a57,57,0,0,0,11.82,31,57,57,0,0,0,29.82-14.44s-13-.66-11.67-4C1537.85,627.93,1554.07,628.32,1554.07,628.32Z"/><line class="cls-6" x1="1546.57" y1="578.4" x2="1517.54" y2="651.58"/><path class="cls-5" d="M1522.83,605.42a61.27,61.27,0,0,0-11.2-16.76s-6.87,19-11.74,14.81c-4.16-3.6,3.54-22.16,3.54-22.16a61,61,0,0,0-13.88-7.75s-1.77,12.45-6.32,10.34c-2.69-1.25-2.11-12.94-2.11-12.94a72.38,72.38,0,0,0-20.92-1.48,72.67,72.67,0,0,0-5.06,20.35s11.29,3.06,11.65,6c.6,5-11.79,2.81-11.79,2.81a61,61,0,0,0,3.08,15.6s20-1.59,22.17,3.49c2.5,5.93-17.72,6.58-17.72,6.58A61.68,61.68,0,0,0,1475,640.15s18.18-5.12,22.13.16c2.51,3.34-12,7.86-12,7.86a66.37,66.37,0,0,0,37.81,7.68,66.32,66.32,0,0,0,4.39-38.33s-8.78,12.41-11.19,9C1512.33,621.12,1522.83,605.42,1522.83,605.42Z"/><line class="cls-6" x1="1469.06" y1="581.67" x2="1522.93" y2="655.85"/></g><path id="Ground_4" data-name="Ground 4" class="cls-7" d="M1797.05,761s-236.29-184.76-530.41-100.72C940.12,753.52,182.9,708,182.9,708s1.45,117.36,8.69,117.36,1609.45,14,1609.45,14Z"/><g id="Tree_6" data-name="Tree 6"><rect class="cls-3" x="1232.51" width="39.48" height="719.8"/><polygon class="cls-3" points="1267.23 240.23 1300.72 198.73 1300.72 190.46 1254.12 211.83 1267.23 240.23"/><polygon class="cls-3" points="1232.56 359.04 1178.9 291.97 1178.9 283.7 1245.67 330.64 1232.56 359.04"/></g><path id="Ground_3" data-name="Ground 3" class="cls-1" d="M115.72,682.47c53.61,0,199,6.68,345.36,3.84,149.23-2.9,473.77,37.67,568,34.77S1401.4,690,1505.7,687.75c151-3.28,371.83,50.59,371.83,50.59l-15.3,121.83L113.06,866Z"/><rect id="Tree_5" data-name="Tree 5" class="cls-4" x="451.46" width="78.83" height="766.25"/><rect id="Tree_4" data-name="Tree 4" class="cls-4" x="1378.3" width="78.83" height="798.7"/><g id="Leaves_2" data-name="Leaves 2"><path class="cls-5" d="M272,874a85.89,85.89,0,0,0,15.36-8.26,87,87,0,0,0,8.39-6.48s-26-10.39-20-16.94c5.18-5.61,30.54,5.92,30.54,5.92a85.17,85.17,0,0,0,11.38-18.87s-17.17-3-14-9.24c1.86-3.67,18-2.33,18-2.33,2.17-8.71,3.65-19.89,3-28.91-8.13-3.94-19.07-6.71-28-7.94,0,0-4.76,15.5-8.86,15.86-6.93.6-3.36-16.46-3.36-16.46a84.64,84.64,0,0,0-21.75,3.55s1.28,27.82-5.85,30.55c-8.33,3.19-8.31-24.85-8.31-24.85a85.59,85.59,0,0,0-22.5,16.56s6.26,25.42-1.23,30.65c-4.75,3.32-10.34-17-10.34-17a91.93,91.93,0,0,0-12.38,52,91.87,91.87,0,0,0,52.9,7.84s-16.79-12.74-11.94-15.92C250.71,858.71,272,874,272,874Z"/><line class="cls-8" x1="307.35" y1="800.57" x2="202.11" y2="871.8"/><path class="cls-4" d="M248.1,822.69a97.54,97.54,0,0,0,5.18-19.19,99,99,0,0,0,1.21-12s-29,13.43-29.7,3.29c-.58-8.68,28.83-20.66,28.83-20.66a96.76,96.76,0,0,0-6.72-24.22s-16,11.85-18.65,4.4c-1.59-4.41,12.18-16.75,12.18-16.75-5.52-8.62-13.62-18.61-21.58-25.15-9.64,3.65-20.5,10.54-28.49,17,0,0,9.12,16.08,6.2,19.76C191.64,755.3,180.3,739,180.3,739a96.41,96.41,0,0,0-14.1,20.8s24.06,20.73,20.73,28.78C183.05,798,159.84,776,159.84,776a96.49,96.49,0,0,0-2.7,11.78,98,98,0,0,0-1.21,19.84s26,14.72,24.43,25c-1,6.54-22.19-4.76-22.19-4.76a104.79,104.79,0,0,0,33.41,51,104.81,104.81,0,0,0,47.94-37.69s-23.72,3.94-22.56-2.57C218.8,828.35,248.1,822.69,248.1,822.69Z"/><line class="cls-8" x1="215" y1="735.89" x2="191.58" y2="878.87"/><path class="cls-5" d="M182.94,793.81a114,114,0,0,0-15.64-17.06,116,116,0,0,0-11.08-8.68s-4.88,36.9-15.28,31.25c-8.91-4.83-2.35-41.23-2.35-41.23a113.18,113.18,0,0,0-28-8.48s1.71,23.08-7.29,21.07c-5.33-1.18-8.88-22.42-8.88-22.42-11.92.06-26.8,1.8-38.19,5.56-2.42,11.75-2.42,26.73-1.09,38.57,0,0,21.5,1.07,23.3,6.23,3,8.71-20.09,9.69-20.09,9.69A113,113,0,0,0,70,835.14s35.39-10.73,41.23-2.45c6.82,9.68-29.27,18.8-29.27,18.8a112.58,112.58,0,0,0,9.91,10,114.3,114.3,0,0,0,18.75,13.56s30.66-16.36,39.84-8.43c5.83,5-18.51,18.86-18.51,18.86,22.42,6.77,48.88,6.25,71-1.05,4.69-22.81,2.13-49.16-7.18-70.64,0,0-10.92,25.77-16.59,20.57C170.24,826.16,182.94,793.81,182.94,793.81Z"/><line class="cls-8" x1="76.94" y1="772.26" x2="202.96" y2="884.43"/></g><g id="Mushroom_4" data-name="Mushroom 4"><path class="cls-1" d="M1146.75,678.24a5,5,0,0,0-1.64-.21,4.94,4.94,0,0,0-1.64.21,15,15,0,0,0,3.28,0Z"/><ellipse class="cls-1" cx="1161.38" cy="701.22" rx="10.81" ry="1.07"/><path class="cls-9" d="M1145.25,670.16c.15,3.24.29,6.49.63,9.68a32.78,32.78,0,0,0,.78,4.69,13.14,13.14,0,0,0,.73,2.14,5.92,5.92,0,0,0,1.15,1.74,4.94,4.94,0,0,0,1.66,1.13,9.58,9.58,0,0,0,2.09.6c.75.14,1.52.23,2.31.32l.59.07.63.08a6.79,6.79,0,0,1,1.45.4,6.12,6.12,0,0,1,1.32.74,6.56,6.56,0,0,1,1.09,1,7.41,7.41,0,0,1,1.38,2.45,9.93,9.93,0,0,1,.52,2.59,9.17,9.17,0,0,1-.2,2.56h-.27a19,19,0,0,0-1.95-4.24,7.33,7.33,0,0,0-1.34-1.56,5.14,5.14,0,0,0-1.59-.93,5.09,5.09,0,0,0-.89-.26l-.56-.1-.61-.12a25.4,25.4,0,0,1-2.47-.61,14,14,0,0,1-2.49-1,7.51,7.51,0,0,1-2.21-1.77,8.18,8.18,0,0,1-1.36-2.39q-.23-.63-.39-1.26c-.1-.41-.19-.83-.26-1.25a34.87,34.87,0,0,1-.39-5c0-3.28.14-6.52.38-9.76Z"/><path class="cls-1" d="M1154.42,684a4.22,4.22,0,0,0-2.23,0,5.47,5.47,0,0,0,1.11.06A5.53,5.53,0,0,0,1154.42,684Z"/><path class="cls-1" d="M1177.11,679.53a5.81,5.81,0,0,0-2.87,0,6.18,6.18,0,0,0,1.44.08A6.06,6.06,0,0,0,1177.11,679.53Z"/><path class="cls-1" d="M1163.29,674.13a5.65,5.65,0,0,0-2.09-.28,5.57,5.57,0,0,0-2.08.28,10,10,0,0,0,2.08.11A10.12,10.12,0,0,0,1163.29,674.13Z"/><path class="cls-1" d="M1171.2,670.93c0-.31-4.34-2.08-10-2.08s-10.4,1.77-10.4,2.08,4.56.55,10.18.55S1171.2,671.23,1171.2,670.93Z"/><path class="cls-9" d="M1161.18,701.46h0a1.54,1.54,0,0,1-1.53-1.64l.51-31.09h2l.51,31.09A1.54,1.54,0,0,1,1161.18,701.46Z"/><path class="cls-10" d="M1162.27,669.2s0-.23-1-.23-1.1.23-1.1.23a27.14,27.14,0,0,1-.24,3.32,15.36,15.36,0,0,1-.77,1.6,12.42,12.42,0,0,1,2.05-.15,15.22,15.22,0,0,1,2.13.15,10.45,10.45,0,0,1-.81-1.47C1162.33,672,1162.27,669.2,1162.27,669.2Z"/><path class="cls-9" d="M1167.78,667c-1-2.14-2.31-6.64-6.65-6.64s-5.87,4.52-6.91,6.69a8.3,8.3,0,0,1-3.4,3.77c-.07,0,0,.13,0,.12a65.39,65.39,0,0,1,10-.69,77.83,77.83,0,0,1,10.36.7.06.06,0,0,0,0-.12A7.87,7.87,0,0,1,1167.78,667Z"/><path class="cls-9" d="M1161.11,699a10.92,10.92,0,0,1-.56-1.53c-.15-.51-.28-1-.4-1.47s-.25-.93-.38-1.37-.26-.86-.39-1.26a7.58,7.58,0,0,0-1-2.24,3.87,3.87,0,0,0-.89-.87l-.27-.19-.28-.17-.29-.15-.08,0-.1-.05-.2-.1a6.07,6.07,0,0,1-2.46-2.46,8,8,0,0,1-.93-3.15,9.49,9.49,0,0,1,0-1.6l.11-1.53.22-3h.27l0,3.06v1.52c0,.13,0,.25,0,.37s0,.24.06.36.09.48.15.71a7,7,0,0,0,1.23,2.53,4.8,4.8,0,0,0,2,1.54l.15,0,.17.05.41.15.4.17.4.19a8.19,8.19,0,0,1,1.48,1,7.33,7.33,0,0,1,1.23,1.38,5.53,5.53,0,0,1,.79,1.62,6.88,6.88,0,0,1,.29,1.71,8.4,8.4,0,0,1-.07,1.67,10.3,10.3,0,0,1-.33,1.58,12.44,12.44,0,0,1-.57,1.53Z"/><path class="cls-1" d="M1158.64,682.3a11,11,0,0,0-5.32-1.1,12.46,12.46,0,0,0-5.55,1.1c0,.17,2.43.3,5.44.3S1158.64,682.47,1158.64,682.3Z"/><path class="cls-10" d="M1153.88,681.38s0-.12-.56-.12-.59.12-.59.12a14.07,14.07,0,0,1-.13,1.78c0,.13-.41.85-.41.85a6.57,6.57,0,0,1,1.09-.08,8.2,8.2,0,0,1,1.14.08,5.74,5.74,0,0,1-.43-.79C1153.91,682.87,1153.88,681.38,1153.88,681.38Z"/><path class="cls-9" d="M1156.81,680.22c-.52-1.14-1.23-3.55-3.55-3.55s-3.12,2.42-3.68,3.57a4.29,4.29,0,0,1-1.82,2,0,0,0,0,0,0,.07,35.87,35.87,0,0,1,5.32-.37,43.67,43.67,0,0,1,5.52.37,0,0,0,1,0,0-.06A4.21,4.21,0,0,1,1156.81,680.22Z"/><path class="cls-1" d="M1153,675.73c0-.24-3.42-1.63-7.84-1.63s-8.18,1.39-8.18,1.63,3.59.43,8,.43S1153,676,1153,675.73Z"/><path class="cls-10" d="M1146,674.37s0-.18-.82-.18-.87.18-.87.18a21.07,21.07,0,0,1-.19,2.62,12.56,12.56,0,0,1-.6,1.25,9.49,9.49,0,0,1,1.61-.12,11.79,11.79,0,0,1,1.67.12,7.89,7.89,0,0,1-.63-1.15A25.07,25.07,0,0,1,1146,674.37Z"/><path class="cls-1" d="M1168.72,688a3.74,3.74,0,0,1,1.88,0,8.86,8.86,0,0,1-1.88,0Z"/><path class="cls-9" d="M1161.94,700.33a5.84,5.84,0,0,1-.76-2.76,6.63,6.63,0,0,1,.12-1.47,5.12,5.12,0,0,1,1.36-2.7,8.08,8.08,0,0,1,1.18-1,10.09,10.09,0,0,1,1.3-.77l.34-.15.34-.13a3.59,3.59,0,0,1,.35-.12l.27-.09a3.83,3.83,0,0,0,1.7-1.22,5.82,5.82,0,0,0,1.06-2.09c0-.19.1-.39.14-.59a2.87,2.87,0,0,0,.05-.31,1,1,0,0,0,0-.3l0-1.29,0-2.59h.27l.2,2.58.1,1.3a7.1,7.1,0,0,1-.73,4.07,5.22,5.22,0,0,1-2.12,2.15l-.18.09-.09,0-.06,0-.25.13-.24.15-.23.15a4.57,4.57,0,0,0-.8.72,9.37,9.37,0,0,0-1.08,1.79c-.16.31-.33.62-.5,1s-.33.67-.49,1l-.5,1.13-.27.61a6.39,6.39,0,0,1-.31.65Z"/><path class="cls-1" d="M1165.15,686.57a9.16,9.16,0,0,1,4.49-.94,10.42,10.42,0,0,1,4.7.94,42.35,42.35,0,0,1-9.19,0Z"/><path class="cls-10" d="M1169.17,685.79s0-.1.48-.1.49.1.49.1a12.46,12.46,0,0,0,.11,1.5c0,.11.35.72.35.72a5.32,5.32,0,0,0-.92-.07,6.49,6.49,0,0,0-1,.07,4.55,4.55,0,0,0,.36-.66A15.15,15.15,0,0,0,1169.17,685.79Z"/><path class="cls-9" d="M1165.14,686.53a0,0,0,0,0,0,.06,34,34,0,0,1,4.67-.32,30.91,30.91,0,0,1,4.49.31s0,0,0-.05a3.74,3.74,0,0,1-1.53-1.7c-.47-1-1.19-3-3.12-3s-2.56,2-3,3A3.47,3.47,0,0,1,1165.14,686.53Z"/><path class="cls-9" d="M1150.28,672.66c-.77-1.68-1.82-5.23-5.23-5.23s-4.61,3.56-5.43,5.27a6.47,6.47,0,0,1-2.68,3,0,0,0,0,0,0,.09,53,53,0,0,1,7.82-.53,61.85,61.85,0,0,1,8.15.54s.08-.07,0-.09A6.21,6.21,0,0,1,1150.28,672.66Z"/><path class="cls-9" d="M1162.14,701a5.63,5.63,0,0,1,0-1.36,6.4,6.4,0,0,1,.33-1.34,5.89,5.89,0,0,1,1.61-2.41l.56-.46.57-.4c.38-.26.77-.49,1.16-.71l1.17-.61,1.15-.55a20.17,20.17,0,0,0,4-2.26,5,5,0,0,0,1.31-1.58,6,6,0,0,0,.64-2.07v.1l.2-4,.24-4,.27-4,.14-2,.16-2h.27l.14,2,.13,2,.23,4,.2,4,.17,4h0v.09a8.83,8.83,0,0,1-.61,2.85,7.79,7.79,0,0,1-1.65,2.54,9.74,9.74,0,0,1-2.32,1.73,17.51,17.51,0,0,1-2.45,1.09l-1.2.43-1.17.42c-.38.13-.75.28-1.12.44a5.05,5.05,0,0,0-.53.24l-.51.25a6.76,6.76,0,0,0-2.84,3.58Z"/><path class="cls-1" d="M1182.52,677.3c0-.21-3-1.43-6.84-1.43s-7.13,1.22-7.13,1.43,3.13.38,7,.38S1182.52,677.51,1182.52,677.3Z"/><path class="cls-10" d="M1176.4,676.11s0-.16-.72-.16-.76.16-.76.16a17.86,17.86,0,0,1-.16,2.28,11.32,11.32,0,0,1-.53,1.09,8.7,8.7,0,0,1,1.41-.1,10.64,10.64,0,0,1,1.45.1,7.43,7.43,0,0,1-.55-1C1176.44,678,1176.4,676.11,1176.4,676.11Z"/><path class="cls-9" d="M1180.17,674.62c-.67-1.47-1.58-4.56-4.56-4.56s-4,3.11-4.73,4.59a5.66,5.66,0,0,1-2.33,2.58,0,0,0,0,0,0,.09,44.73,44.73,0,0,1,6.83-.47,55.88,55.88,0,0,1,7.1.47,0,0,0,0,0,0-.08A5.36,5.36,0,0,1,1180.17,674.62Z"/></g><rect id="Tree_3" data-name="Tree 3" class="cls-4" x="1048.74" width="78.83" height="789.75"/><g id="Bush_2" data-name="Bush 2"><circle class="cls-1" cx="1563" cy="725.07" r="55.32"/><circle class="cls-1" cx="1502.31" cy="713.17" r="36.27"/><circle class="cls-1" cx="1454.68" cy="737.4" r="35.79"/><circle class="cls-1" cx="1625.11" cy="767.13" r="39.91"/><rect class="cls-1" x="1451.48" y="748.64" width="173.19" height="41.45" transform="translate(179.81 -285.49) rotate(11.26)"/></g><path id="Ground_2" data-name="Ground 2" class="cls-9" d="M872.55,838.25s161.63-83.78,447-95.92C1569.59,731.69,1813,894,1813,894l-1070.85-.73Z"/><g id="Bush_1" data-name="Bush 1"><circle class="cls-4" cx="856.21" cy="725.82" r="40.24"/><circle class="cls-4" cx="917.13" cy="735.16" r="40.24"/><circle class="cls-4" cx="972.86" cy="797.48" r="59.33"/><circle class="cls-4" cx="871.72" cy="787.84" r="59.33"/><circle class="cls-4" cx="793.06" cy="756.92" r="44.46"/><circle class="cls-5" cx="850.07" cy="752.11" r="3.56"/><circle class="cls-5" cx="837.22" cy="757.85" r="5.71"/><circle class="cls-5" cx="840.55" cy="739.37" r="8.06"/><circle class="cls-5" cx="854.15" cy="704.11" r="5.42"/><circle class="cls-5" cx="843.75" cy="695.77" r="3.06"/><circle class="cls-5" cx="840.6" cy="706" r="4.28"/><circle class="cls-5" cx="893.5" cy="781.45" r="5.42"/><circle class="cls-5" cx="883.1" cy="773.12" r="3.06"/><circle class="cls-5" cx="879.94" cy="783.34" r="4.28"/><circle class="cls-4" cx="894.19" cy="689.76" r="31.12"/><circle class="cls-5" cx="897.55" cy="690.87" r="5.71"/><circle class="cls-5" cx="887.75" cy="697.03" r="3.34"/><circle class="cls-5" cx="883.34" cy="685.46" r="6.75"/><circle class="cls-4" cx="734.09" cy="759.56" r="25.56"/><circle class="cls-5" cx="736.85" cy="760.47" r="4.69"/><circle class="cls-5" cx="728.8" cy="765.53" r="2.74"/><circle class="cls-5" cx="725.18" cy="756.03" r="5.54"/><circle class="cls-5" cx="768.2" cy="753.49" r="5.71"/><circle class="cls-5" cx="779.14" cy="757.32" r="3.34"/><circle class="cls-5" cx="772.84" cy="767.97" r="6.75"/><circle class="cls-5" cx="906.51" cy="729.74" r="5.71"/><circle class="cls-5" cx="917.44" cy="733.56" r="3.34"/><circle class="cls-5" cx="911.14" cy="744.22" r="6.75"/><circle class="cls-5" cx="934.3" cy="802.36" r="5.71"/><circle class="cls-5" cx="944.33" cy="796.57" r="3.34"/><circle class="cls-5" cx="947.85" cy="807.26" r="6.75"/><circle class="cls-5" cx="997.35" cy="778.68" r="5.71"/><circle class="cls-5" cx="991.31" cy="788.56" r="3.34"/><circle class="cls-5" cx="982.22" cy="780.16" r="6.75"/></g><path id="Ground_1" data-name="Ground 1" class="cls-7" d="M132.4,893.24a2.21,2.21,0,0,1,0-3.9c43.63-23.35,304.88-244,759-96.08,287.09,93.51,589.68,100,589.68,100Z"/><g id="Leaves_1" data-name="Leaves 1"><path class="cls-5" d="M333.57,858.32A81,81,0,0,1,319,836.48s26.31,1.23,23.68-6.72C340.43,823,314.26,823,314.26,823a79.85,79.85,0,0,1-2.39-20.56s15.86,4.08,15.59-2.44c-.16-3.86-14.5-9-14.5-9,1.54-8.29,4.61-18.43,8.66-25.9,8.49-.2,18.92,1.68,27,4.09,0,0-2,15.1,1.41,17,5.69,3.21,9.27-12.77,9.27-12.77a79.94,79.94,0,0,1,17.22,11.49s-11.91,23.3-6.87,28.4c5.88,6,16.76-18,16.76-18a82.37,82.37,0,0,1,5.72,8.15,80.16,80.16,0,0,1,7.08,14.76s-15.23,19.3-10.86,26.69c2.77,4.69,15.46-10.53,15.46-10.53a86.45,86.45,0,0,1-9.65,49.31,86.47,86.47,0,0,1-48.29-13.86s19.32-4.37,16.41-9C357.7,853.53,333.57,858.32,333.57,858.32Z"/><line class="cls-11" x1="331.86" y1="781.8" x2="394.17" y2="883.62"/><path class="cls-4" d="M368.89,813a92.25,92.25,0,0,1,6.68-29.17s19.59,22.76,24.12,14.35c3.87-7.2-16.62-28.88-16.62-28.88a91.18,91.18,0,0,1,15.16-18.09s9,16.34,14.23,11c3.08-3.16-3.9-19.06-3.9-19.06,8.07-5.23,18.89-10.62,28.24-13.11,6.82,6.87,13.43,17,17.77,25.56,0,0-14.05,10.21-13,14.49,1.8,7.22,17.84-2.32,17.84-2.32a91.11,91.11,0,0,1,4,23.27s-28.63,8.38-28.92,16.55c-.33,9.54,28.07-.23,28.07-.23a93.37,93.37,0,0,1-2.28,11.12A91.07,91.07,0,0,1,453.58,836s-27.92,2.49-30.62,11.9c-1.71,6,20.83,4.56,20.83,4.56A98.51,98.51,0,0,1,395.39,883a98.41,98.41,0,0,1-26.34-50.86s18.75,12.58,20.28,6.56C391.75,829.26,368.89,813,368.89,813Z"/><line class="cls-11" x1="430.95" y1="751.67" x2="395.39" y2="883.04"/><path class="cls-5" d="M413.69,800.74a106.87,106.87,0,0,1,25-24.33s4.78,34.64,14.52,29.28c8.34-4.59,2-38.75,2-38.75a106.06,106.06,0,0,1,26.27-8.11s-1.49,21.68,7,19.75c5-1.14,8.23-21.1,8.23-21.1,11.19,0,25.18,1.53,35.9,5,2.33,11,2.41,25.09,1.23,36.23,0,0-20.19,1.11-21.85,6-2.81,8.2,18.92,9,18.92,9A105.67,105.67,0,0,1,520,839s-33.3-9.89-38.74-2.07c-6.35,9.12,27.6,17.5,27.6,17.5a108.34,108.34,0,0,1-9.26,9.44,107,107,0,0,1-17.54,12.84s-28.89-15.2-37.47-7.7c-5.45,4.76,17.49,17.62,17.49,17.62-21,6.47-45.89,6.13-66.7-.61-4.53-21.41-2.27-46.17,6.37-66.4,0,0,10.39,24.15,15.69,19.24C425.79,831.06,413.69,800.74,413.69,800.74Z"/><line class="cls-11" x1="513.15" y1="779.92" x2="395.37" y2="885.97"/></g><rect id="Tree_2" data-name="Tree 2" class="cls-3" x="205.07" width="190.08" height="893.24"/><rect id="Tree_1" data-name="Tree 1" class="cls-4" x="1573.14" width="128.68" height="893.24"/><line class="cls-12" x1="95.77" y1="890.5" x2="1830.3" y2="890.5"/><g id="Mushroom_4-2" data-name="Mushroom 4"><ellipse class="cls-13" cx="1323.43" cy="797.5" rx="3.44" ry="0.34"/><ellipse class="cls-1" cx="1317.31" cy="800.47" rx="20.98" ry="2.21"/><path class="cls-1" d="M1336.67,754.12c0-.33-5.08-1.59-11.19-1.59s-10.92,1.26-10.92,1.59,5,.6,11.06.6S1336.67,754.45,1336.67,754.12Z"/><path class="cls-5" d="M1321.7,799.06a8,8,0,0,1-3.87-7.46l2.54-43.5s.53-.94,5.23-.94c4.29,0,5,.94,5,.94l2.54,43.5a7.68,7.68,0,0,1-4.28,7.46Z"/><circle class="cls-14" cx="1298.26" cy="726.03" r="3.6"/><circle class="cls-14" cx="1306.83" cy="713.68" r="2.17"/><circle class="cls-14" cx="1336.97" cy="710.79" r="2.17"/><circle class="cls-14" cx="1356.14" cy="729.74" r="2.99"/><path class="cls-1" d="M1355.56,746c0-.89-12.73-6.08-29.2-6.08s-30.44,5.19-30.44,6.08,13.35,1.61,29.82,1.61S1355.56,746.9,1355.56,746Z"/><path class="cls-15" d="M1332.63,749.85l-.52-5.49s-.91-1.2-6.38-1.2c-6,0-6.67,1.2-6.67,1.2l-.53,5.56a10.06,10.06,0,0,1-4,4.16,65.91,65.91,0,0,1,10.87-.79,80.61,80.61,0,0,1,11.27.79A10.15,10.15,0,0,1,1332.63,749.85Z"/><path class="cls-7" d="M1344.36,734.81,1343,720s-2.47-3.23-17.22-3.23c-16.18,0-18,3.23-18,3.23l-1.41,15c-4.9,8.54-10.8,11.23-10.8,11.23a176.88,176.88,0,0,1,29.31-2.14,216.58,216.58,0,0,1,30.42,2.14S1349.28,743.5,1344.36,734.81Z"/><path class="cls-7" d="M1357.66,743.6v-3.9a32,32,0,0,0-31.91-31.91h0a32,32,0,0,0-31.92,31.91v3.9a2.49,2.49,0,0,0,2.49,2.49l29.58-6.27,29.28,6.27A2.49,2.49,0,0,0,1357.66,743.6Z"/><circle class="cls-16" cx="1323.88" cy="709.04" r="2.28"/><circle class="cls-16" cx="1350.78" cy="722.17" r="2.28"/><circle class="cls-16" cx="1349.26" cy="735.23" r="3.6"/><circle class="cls-16" cx="1339.93" cy="718.39" r="3.6"/><circle class="cls-16" cx="1326.27" cy="727.05" r="2.1"/><circle class="cls-16" cx="1329.35" cy="718.81" r="1.32"/><circle class="cls-16" cx="1318.61" cy="718.25" r="2.26"/><circle class="cls-16" cx="1336.61" cy="731.15" r="2.96"/><circle class="cls-16" cx="1310.59" cy="729.85" r="1.94"/><circle class="cls-16" cx="1304.83" cy="726.01" r="1.24"/><circle class="cls-16" cx="1301.46" cy="734.03" r="1.24"/></g><g id="Mushroom_3" data-name="Mushroom 3"><ellipse class="cls-13" cx="1303.75" cy="799.95" rx="2.02" ry="0.2"/><ellipse class="cls-1" cx="1307.13" cy="800.93" rx="5.34" ry="0.53"/><path class="cls-1" d="M1311.51,783.2c0-.19-3-.93-6.56-.93s-6.4.74-6.4.93,2.9.36,6.48.36S1311.51,783.4,1311.51,783.2Z"/><path class="cls-5" d="M1302.74,800.87a4.68,4.68,0,0,1-2.27-4.37l1.48-16.83s.31-.55,3.07-.55c2.52,0,2.94.55,2.94.55l1.49,16.83a4.5,4.5,0,0,1-2.51,4.37Z"/><circle class="cls-17" cx="1288.99" cy="766.73" r="2.11"/><circle class="cls-17" cx="1294.01" cy="759.49" r="1.27"/><circle class="cls-17" cx="1311.69" cy="757.79" r="1.27"/><circle class="cls-17" cx="1322.93" cy="768.91" r="1.75"/><path class="cls-1" d="M1322.59,778.45c0-.52-7.46-3.57-17.12-3.57s-17.86,3-17.86,3.57,7.83.94,17.49.94S1322.59,779,1322.59,778.45Z"/><path class="cls-15" d="M1309.14,780.7l-.3-3.22s-.54-.7-3.74-.7c-3.52,0-3.92.7-3.92.7l-.31,3.26a6,6,0,0,1-2.34,2.45,38,38,0,0,1,6.37-.47,46.47,46.47,0,0,1,6.61.47A6,6,0,0,1,1309.14,780.7Z"/><path class="cls-7" d="M1316,771.88l-.82-8.69s-1.45-1.9-10.1-1.9c-9.49,0-10.55,1.9-10.55,1.9l-.83,8.79c-2.88,5-6.34,6.59-6.34,6.59a104.2,104.2,0,0,1,17.2-1.25,127.64,127.64,0,0,1,17.84,1.25S1318.91,777,1316,771.88Z"/><path class="cls-7" d="M1323.82,777v-2.29A18.77,18.77,0,0,0,1305.11,756h0a18.78,18.78,0,0,0-18.72,18.72V777a1.46,1.46,0,0,0,1.46,1.46l17.34-3.68,17.17,3.68A1.46,1.46,0,0,0,1323.82,777Z"/><circle class="cls-16" cx="1304.01" cy="756.77" r="1.34"/><circle class="cls-16" cx="1319.79" cy="764.47" r="1.34"/><circle class="cls-16" cx="1318.9" cy="772.13" r="2.11"/><circle class="cls-16" cx="1313.43" cy="762.25" r="2.11"/><circle class="cls-16" cx="1305.41" cy="767.33" r="1.23"/><circle class="cls-16" cx="1307.22" cy="762.5" r="0.77"/><circle class="cls-16" cx="1300.92" cy="762.17" r="1.33"/><circle class="cls-16" cx="1311.47" cy="769.74" r="1.73"/><circle class="cls-16" cx="1296.22" cy="768.97" r="1.14"/><circle class="cls-16" cx="1292.84" cy="766.72" r="0.73"/><circle class="cls-16" cx="1290.86" cy="771.42" r="0.73"/></g><g id="Mushroom_2" data-name="Mushroom 2"><path class="cls-9" d="M1350.12,632.94c0-.21-3.2-.93-7.15-.93s-7.13.72-7.13.93,3.2.39,7.14.39S1350.12,633.16,1350.12,632.94Z"/><path class="cls-1" d="M1362.28,628.17c0-.57-8.22-3.92-18.86-3.92s-19.66,3.35-19.66,3.92,8.62,1,19.26,1S1362.28,628.75,1362.28,628.17Z"/><path class="cls-9" d="M1361.77,628.28a1.18,1.18,0,0,0,1.17-1.25c-.67-9.81-9.47-7.74-20.12-7.74h0c-10.65,0-19.45-2.07-20.12,7.74a1.18,1.18,0,0,0,1.17,1.25s9.27-6.16,19.54-6.16A30.44,30.44,0,0,1,1361.77,628.28Z"/><path class="cls-5" d="M1339.3,652.8a2.06,2.06,0,0,1-1.44-2.45l1.64-24.86h6.64l1.64,24.86a2.39,2.39,0,0,1-1,2.45Z"/><path class="cls-15" d="M1347.51,630.19l-.33-3.55s-.59-.78-4.12-.78c-3.88,0-4.32.78-4.32.78l-.33,3.59a6.57,6.57,0,0,1-2.59,2.69,42.62,42.62,0,0,1,7-.51,52,52,0,0,1,7.28.51A6.58,6.58,0,0,1,1347.51,630.19Z"/><path class="cls-9" d="M1355.18,620.85l-24.57.12c-3.16,5.52-7,7.25-7,7.25a114.36,114.36,0,0,1,18.93-1.38,140.19,140.19,0,0,1,19.65,1.38S1358.36,626.46,1355.18,620.85Z"/><path class="cls-9" d="M1335.45,639.25a13.69,13.69,0,0,0-4.88-.64,13.52,13.52,0,0,0-4.86.64,45.74,45.74,0,0,0,9.74,0Z"/><path class="cls-1" d="M1343.75,636c0-.39-5.61-2.68-12.87-2.68s-13.42,2.29-13.42,2.68,5.88.71,13.14.71S1343.75,636.38,1343.75,636Z"/><path class="cls-9" d="M1343.4,636.06a.8.8,0,0,0,.8-.85c-.46-6.69-6.46-5.28-13.73-5.28h0c-7.27,0-13.27-1.41-13.73,5.28a.8.8,0,0,0,.8.85s6.32-4.2,13.33-4.2A20.81,20.81,0,0,1,1343.4,636.06Z"/><path class="cls-5" d="M1328.07,652.8a1.41,1.41,0,0,1-1-1.67l1.13-17h4.52l1.12,17a1.62,1.62,0,0,1-.68,1.67Z"/><path class="cls-15" d="M1333.67,637.37l-.23-2.42s-.4-.53-2.81-.53c-2.65,0-2.94.53-2.94.53l-.23,2.45a4.47,4.47,0,0,1-1.77,1.83,28.87,28.87,0,0,1,4.79-.35,35.4,35.4,0,0,1,5,.35A4.5,4.5,0,0,1,1333.67,637.37Z"/><path class="cls-9" d="M1338.9,631l-16.76.08a12,12,0,0,1-4.76,4.95,78.18,78.18,0,0,1,12.92-.94,95.89,95.89,0,0,1,13.41.94A12,12,0,0,1,1338.9,631Z"/><ellipse class="cls-1" cx="1337.81" cy="652.38" rx="21.62" ry="1.5"/></g><g id="Mushroom_1" data-name="Mushroom 1"><path class="cls-1" d="M525.12,711.19a12.38,12.38,0,0,0-6.32,0,29.45,29.45,0,0,0,6.32,0Z"/><ellipse class="cls-1" cx="553.33" cy="755.48" rx="20.83" ry="2.05"/><path class="cls-9" d="M522.24,695.61c.29,6.25.55,12.5,1.2,18.66a64.69,64.69,0,0,0,1.51,9,25.39,25.39,0,0,0,1.41,4.13,11.81,11.81,0,0,0,2.21,3.36,9.75,9.75,0,0,0,3.2,2.17,18.21,18.21,0,0,0,4,1.16c1.43.27,2.93.44,4.44.62l1.14.13,1.23.15a12.65,12.65,0,0,1,2.78.77,12.07,12.07,0,0,1,2.55,1.43,13.45,13.45,0,0,1,2.1,1.95,15.07,15.07,0,0,1,2.67,4.72,18.7,18.7,0,0,1,1,5,17.33,17.33,0,0,1-.37,4.93h-.52a37.32,37.32,0,0,0-3.76-8.18,13.84,13.84,0,0,0-2.58-3,10.06,10.06,0,0,0-3.06-1.8,10.5,10.5,0,0,0-1.73-.5c-.26-.06-.7-.12-1.08-.2l-1.18-.22c-1.57-.31-3.15-.7-4.75-1.18a25.39,25.39,0,0,1-4.8-1.91,14.22,14.22,0,0,1-4.26-3.4,15.7,15.7,0,0,1-2.62-4.62,22.26,22.26,0,0,1-.75-2.41c-.2-.81-.36-1.62-.5-2.42a64.8,64.8,0,0,1-.76-9.56c-.07-6.32.27-12.57.74-18.82Z"/><path class="cls-1" d="M539.9,722.3a8.32,8.32,0,0,0-4.28,0,19.14,19.14,0,0,0,4.28,0Z"/><path class="cls-1" d="M583.65,713.67a7.94,7.94,0,0,0-2.77-.36,7.85,7.85,0,0,0-2.76.36,25.56,25.56,0,0,0,5.53,0Z"/><path class="cls-1" d="M557,703.25a15.8,15.8,0,0,0-8,0,36.84,36.84,0,0,0,8,0Z"/><path class="cls-1" d="M572.26,697.09c0-.59-8.38-4-19.23-4s-20,3.42-20,4,8.79,1.06,19.64,1.06S572.26,697.68,572.26,697.09Z"/><path class="cls-9" d="M552.94,755.94h0a3,3,0,0,1-2.94-3.17l1-59.92h3.94l1,59.92A3,3,0,0,1,552.94,755.94Z"/><path class="cls-10" d="M555,693.75s0-.44-2-.44c-2.18,0-2.12.44-2.12.44a52.11,52.11,0,0,1-.47,6.41,30.45,30.45,0,0,1-1.48,3.08,23.69,23.69,0,0,1,3.95-.29,29,29,0,0,1,4.1.29,21.24,21.24,0,0,1-1.55-2.83A66,66,0,0,1,555,693.75Z"/><path class="cls-9" d="M565.65,689.56c-1.87-4.13-4.45-12.81-12.82-12.81s-11.3,8.72-13.31,12.9a15.8,15.8,0,0,1-6.56,7.26.12.12,0,0,0,.08.23,128.86,128.86,0,0,1,19.19-1.32,151.89,151.89,0,0,1,20,1.34.12.12,0,0,0,.07-.23A15.12,15.12,0,0,1,565.65,689.56Z"/><path class="cls-9" d="M552.81,751.17a19.55,19.55,0,0,1-1.09-2.95c-.29-1-.53-1.91-.77-2.83s-.47-1.8-.72-2.64-.52-1.65-.77-2.43a14.79,14.79,0,0,0-1.93-4.32,8.12,8.12,0,0,0-1.73-1.68l-.51-.35-.54-.33-.56-.3-.15-.08-.2-.09c-.13-.07-.27-.12-.39-.2a11.63,11.63,0,0,1-4.74-4.74,15.51,15.51,0,0,1-1.79-6.06,18.62,18.62,0,0,1,0-3.08l.21-3,.43-5.87h.52l.06,5.89,0,2.94a5.24,5.24,0,0,0,.05.7c0,.23.07.47.11.7a12.91,12.91,0,0,0,.31,1.37,13.53,13.53,0,0,0,2.35,4.87,9,9,0,0,0,3.94,3l.29.1.33.11.79.28.77.33.77.38a15.56,15.56,0,0,1,2.86,2,14.87,14.87,0,0,1,2.37,2.64,11.53,11.53,0,0,1,1.52,3.14,13.58,13.58,0,0,1,.56,3.3,18,18,0,0,1-.13,3.21,20.66,20.66,0,0,1-.65,3.05,22.39,22.39,0,0,1-1.09,2.94Z"/><path class="cls-1" d="M548.05,719c0-.31-4.48-2.13-10.26-2.13s-10.7,1.82-10.7,2.13,4.69.57,10.48.57S548.05,719.33,548.05,719Z"/><path class="cls-10" d="M538.86,717.23s0-.23-1.08-.23-1.13.23-1.13.23a27.57,27.57,0,0,1-.25,3.43,16.13,16.13,0,0,1-.79,1.64,12.29,12.29,0,0,1,2.11-.16,14.92,14.92,0,0,1,2.18.16,11.2,11.2,0,0,1-.82-1.51A35.44,35.44,0,0,1,538.86,717.23Z"/><path class="cls-9" d="M544.52,715c-1-2.21-2.37-6.84-6.84-6.84s-6,4.66-7.1,6.89a8.53,8.53,0,0,1-3.5,3.87c-.07,0,0,.13,0,.12a68.69,68.69,0,0,1,10.24-.7,81.43,81.43,0,0,1,10.65.71.06.06,0,0,0,0-.12A8.1,8.1,0,0,1,544.52,715Z"/><path class="cls-1" d="M537.12,706.35c0-.47-6.59-3.15-15.12-3.15s-15.76,2.68-15.76,3.15,6.91.83,15.44.83S537.12,706.81,537.12,706.35Z"/><path class="cls-10" d="M523.58,703.72s0-.34-1.59-.34-1.67.34-1.67.34a41.79,41.79,0,0,1-.36,5,24.62,24.62,0,0,1-1.16,2.42,18.31,18.31,0,0,1,3.1-.23,22.59,22.59,0,0,1,3.22.23A16.8,16.8,0,0,1,523.9,709C523.67,707.94,523.58,703.72,523.58,703.72Z"/><path class="cls-1" d="M567.47,730a6.95,6.95,0,0,1,3.62,0,18.25,18.25,0,0,1-3.62,0Z"/><path class="cls-9" d="M554.4,753.75a11.31,11.31,0,0,1-1.46-5.32,12.82,12.82,0,0,1,.22-2.82,11,11,0,0,1,.91-2.77,10.36,10.36,0,0,1,1.72-2.44,14.93,14.93,0,0,1,2.27-1.94,18.23,18.23,0,0,1,2.5-1.48l.66-.3.66-.26.67-.22.52-.17a7.3,7.3,0,0,0,3.28-2.36,11.08,11.08,0,0,0,2-4c.11-.38.2-.76.28-1.15,0-.19.07-.39.1-.58a5.61,5.61,0,0,0,.06-.59l0-2.49.09-5,.52,0,.4,5,.19,2.49a15.39,15.39,0,0,1,.06,2.63,13.2,13.2,0,0,1-1.48,5.22,10.06,10.06,0,0,1-4.09,4.14l-.34.17-.16.09-.12.06c-.16.09-.33.17-.48.27l-.46.27-.44.3a8.61,8.61,0,0,0-1.56,1.38,18.75,18.75,0,0,0-2.07,3.46c-.31.59-.64,1.2-1,1.84s-.64,1.31-1,2l-1,2.19-.51,1.18c-.19.41-.38.83-.61,1.24Z"/><path class="cls-1" d="M560.58,727.24c0-.27,3.78-1.81,8.67-1.81s9,1.54,9,1.81-4,.48-8.86.48S560.58,727.5,560.58,727.24Z"/><path class="cls-10" d="M568.35,725.73s0-.2.91-.2,1,.2,1,.2a22.47,22.47,0,0,0,.21,2.89,12.48,12.48,0,0,0,.66,1.39,10.75,10.75,0,0,0-1.78-.13,13.1,13.1,0,0,0-1.84.13,9.59,9.59,0,0,0,.69-1.27A28.93,28.93,0,0,0,568.35,725.73Z"/><path class="cls-9" d="M560.58,727.16c-.05,0,0,.12,0,.11a69.18,69.18,0,0,1,9-.6,58.06,58.06,0,0,1,8.66.59.05.05,0,0,0,0-.1,7.12,7.12,0,0,1-2.95-3.28c-.91-1.88-2.29-5.82-6-5.82s-4.93,3.92-5.78,5.78A6.77,6.77,0,0,1,560.58,727.16Z"/><path class="cls-9" d="M531.92,700.42c-1.47-3.24-3.49-10.07-10.07-10.07s-8.89,6.86-10.47,10.15a12.4,12.4,0,0,1-5.15,5.7.1.1,0,0,0,.06.19,99.83,99.83,0,0,1,15.09-1,120,120,0,0,1,15.69,1,.09.09,0,0,0,0-.18A11.89,11.89,0,0,1,531.92,700.42Z"/><path class="cls-9" d="M554.79,755a10.85,10.85,0,0,1,.06-2.61,11.8,11.8,0,0,1,.63-2.59,11.26,11.26,0,0,1,3.12-4.65c.37-.33.71-.6,1.07-.88s.72-.53,1.09-.77c.73-.5,1.49-.94,2.24-1.37s1.51-.8,2.25-1.17l2.22-1.08a38.47,38.47,0,0,0,7.73-4.34,9.87,9.87,0,0,0,2.53-3,11.76,11.76,0,0,0,1.22-4v.18l.39-7.78.46-7.79.51-7.78.28-3.9.3-3.89h.52l.27,3.9.25,3.89.45,7.79.39,7.79.32,7.79v.18a18,18,0,0,1-1.17,5.5,15,15,0,0,1-3.19,4.89,19,19,0,0,1-4.47,3.34,35.48,35.48,0,0,1-4.73,2.1l-2.32.83c-.76.26-1.51.53-2.24.8s-1.45.55-2.15.85c-.36.14-.7.3-1,.46s-.69.33-1,.49a13,13,0,0,0-5.48,6.9Z"/><path class="cls-1" d="M594.07,709.36c0-.4-5.75-2.74-13.18-2.74s-13.74,2.34-13.74,2.74,6,.73,13.46.73S594.07,709.77,594.07,709.36Z"/><path class="cls-10" d="M582.27,707.07s0-.29-1.39-.29-1.45.29-1.45.29a37.25,37.25,0,0,1-.32,4.4,21.32,21.32,0,0,1-1,2.11,16.27,16.27,0,0,1,2.71-.2,19.82,19.82,0,0,1,2.81.2,13.62,13.62,0,0,1-1.06-1.94A43.93,43.93,0,0,1,582.27,707.07Z"/><path class="cls-9" d="M589.54,704.2c-1.29-2.82-3-8.78-8.79-8.78s-7.74,6-9.12,8.85a10.82,10.82,0,0,1-4.49,5,.08.08,0,0,0,.05.16,89,89,0,0,1,13.15-.9,105.52,105.52,0,0,1,13.68.91.08.08,0,0,0,.05-.16A10.32,10.32,0,0,1,589.54,704.2Z"/></g></g></g></svg>