<svg xmlns="http://www.w3.org/2000/svg" viewBox="0 0 141 141"><defs><style>.cls-1{fill:#fff;}.cls-1,.cls-2,.cls-3{stroke:#003e72;}.cls-1,.cls-3{stroke-miterlimit:10;}.cls-2{fill:none;stroke-linecap:round;stroke-linejoin:round;stroke-dasharray:1 6;}.cls-3{fill:#66abe2;}</style></defs><g id="Layer_2" data-name="Layer 2"><g id="icons"><circle class="cls-1" cx="70.5" cy="70.5" r="70"/><path class="cls-2" d="M102.86,109.93a52.05,52.05,0,0,1-64.35.19"/><path class="cls-2" d="M113.53,46.13a49.93,49.93,0,0,1,1.23,48.22"/><path class="cls-2" d="M40.69,31A52.09,52.09,0,0,1,102,32.08"/><path class="cls-2" d="M26.19,94a49.94,49.94,0,0,1,.34-45.95"/><path class="cls-1" d="M96,70.74l-.36-4.4A1.47,1.47,0,0,0,94.24,65l-6.51-.2a18.51,18.51,0,0,0-1.67-3.62l4.08-5.07a1.48,1.48,0,0,0-.1-2L86.94,51a1.5,1.5,0,0,0-2-.12l-5.11,4a17.63,17.63,0,0,0-3.6-1.7l-.14-6.51a1.47,1.47,0,0,0-1.34-1.45l-4.39-.4A1.47,1.47,0,0,0,68.79,46L67.47,52.4a19.08,19.08,0,0,0-3.86,1l-4.29-4.9a1.48,1.48,0,0,0-2-.24l-3.62,2.51a1.48,1.48,0,0,0-.46,1.92l3.09,5.74,0,0a19.24,19.24,0,0,0-2.26,3.21l-6.43-1A1.49,1.49,0,0,0,46,61.77L44.81,66a1.48,1.48,0,0,0,.88,1.77l6.05,2.41a18.26,18.26,0,0,0,.34,4L46.5,77.54a1.5,1.5,0,0,0-.58,1.89l1.85,4a1.49,1.49,0,0,0,1.81.79l6.18-2A19.54,19.54,0,0,0,58,84.56l.54.45-2.1,6.17A1.48,1.48,0,0,0,57.24,93l4,1.88a1.48,1.48,0,0,0,1.89-.56l3.42-5.55a18.29,18.29,0,0,0,4,.37l2.36,6.07a1.47,1.47,0,0,0,1.75.9L78.89,95A1.48,1.48,0,0,0,80,93.34L79,86.9a18.11,18.11,0,0,0,3.27-2.28L88,87.77A1.49,1.49,0,0,0,90,87.32l2.54-3.6a1.48,1.48,0,0,0-.22-2l-4.86-4.33a18,18,0,0,0,1-3.85l6.4-1.26A1.47,1.47,0,0,0,96,70.74ZM69.26,81.05a10.42,10.42,0,1,1,11.33-9.43A10.44,10.44,0,0,1,69.26,81.05Z"/><polygon class="cls-3" points="44.03 50.48 43.54 37.61 39.91 41.23 28.89 30.21 23.77 35.34 34.79 46.36 31.04 50.11 44.03 50.48"/><polygon class="cls-3" points="96.76 50.48 97.26 37.61 100.88 41.23 111.91 30.21 117.03 35.34 106.01 46.36 109.76 50.11 96.76 50.48"/><polygon class="cls-3" points="96.76 90.52 97.26 103.39 100.88 99.77 111.91 110.79 117.03 105.66 106.01 94.64 109.76 90.89 96.76 90.52"/><polygon class="cls-3" points="44.03 90.52 43.54 103.39 39.91 99.77 28.89 110.79 23.77 105.66 34.79 94.64 31.04 90.89 44.03 90.52"/></g></g></svg>