<svg xmlns="http://www.w3.org/2000/svg" viewBox="0 0 238.02 347.18"><defs><style>.cls-1{fill:none;}.cls-1,.cls-2,.cls-3,.cls-4,.cls-5{stroke:#003e72;stroke-miterlimit:10;stroke-width:2px;}.cls-2{fill:#82bae8;}.cls-3{fill:#d0e0e2;}.cls-4{fill:#ebf2ee;}.cls-5{fill:#eef0cc;}</style></defs><g id="Layer_2" data-name="Layer 2"><g id="Into__page" data-name="Into _page"><path class="cls-1" d="M222.51,251.5a41.12,41.12,0,0,1,13-30H34.12a15,15,0,0,0-15,15v26.75a15,15,0,0,0,15,15H232.36A41.05,41.05,0,0,1,222.51,251.5Z"/><path class="cls-1" d="M204.39,314.12c0-14.2,5-27,13-36H16c-8.29,0-15,8.05-15,18v32.09c0,9.93,6.71,18,15,18H214.24A55.46,55.46,0,0,1,204.39,314.12Z"/><line class="cls-1" x1="222.51" y1="237.46" x2="81.18" y2="237.46"/><line class="cls-1" x1="25.91" y1="257.39" x2="130.1" y2="257.39"/><line class="cls-1" x1="25.01" y1="295.44" x2="207.11" y2="295.44"/><polygon class="cls-2" points="141.88 295.44 141.88 329.87 154.56 319 168.61 330.32 169.97 295.44 141.88 295.44"/><rect class="cls-3" x="31.8" y="1" width="61.15" height="221.06" rx="9.52"/><rect class="cls-3" x="31.8" y="10.02" width="61.15" height="212.95" rx="9.52"/><circle class="cls-4" cx="62.38" cy="43.81" r="19.71"/><line class="cls-3" x1="41.04" y1="90.69" x2="80.45" y2="90.69"/><path class="cls-3" d="M62.18,101.34H80.45"/><path class="cls-3" d="M41,101.34h8.44"/><path class="cls-3" d="M76,112h4.47"/><path class="cls-3" d="M41,112h23"/><line class="cls-3" x1="41.04" y1="122.63" x2="80.45" y2="122.63"/><path class="cls-3" d="M61.23,133.27H80.45"/><path class="cls-3" d="M41,133.27h5.81"/><rect class="cls-5" x="111.98" y="50.38" width="39.86" height="170.78" rx="6.31" transform="translate(-28.63 35.47) rotate(-13.83)"/><line class="cls-5" x1="116.96" y1="63.97" x2="151.39" y2="200.32"/><line class="cls-5" x1="107.91" y1="66.23" x2="142.33" y2="202.58"/><path class="cls-5" d="M134.62,94.3h0l9,35.82h.05c.12,0,.23,0,.34,0C140.93,118.17,137.74,106.23,134.62,94.3Z"/><path class="cls-5" d="M154.42,172.81c-2.61-11.8-5.5-23.55-8.5-35.27-.11.08-.24.13-.36.2Z"/><path class="cls-5" d="M132.68,86.72l-6.2-24.57c2,8.19,4,16.39,6.18,24.59Z"/></g></g></svg>