<svg xmlns="http://www.w3.org/2000/svg" viewBox="0 0 167.09 169.25"><defs><style>.cls-1{fill:none;}.cls-1,.cls-2,.cls-3,.cls-4{stroke:#003e72;stroke-width:0.75px;}.cls-1,.cls-2,.cls-3{stroke-miterlimit:10;}.cls-2{fill:#cbd266;}.cls-3{fill:#82bae8;}.cls-4{fill:#ccd8e3;stroke-linecap:round;stroke-linejoin:round;}</style></defs><g id="Layer_2" data-name="Layer 2"><g id="Layer_162" data-name="Layer 162"><line class="cls-1" x1="20.54" y1="84.24" x2="35.39" y2="84.24"/><line class="cls-1" x1="39.16" y1="130.47" x2="49.71" y2="120.01"/><line class="cls-1" x1="38.67" y1="38.09" x2="48.84" y2="48.92"/><line class="cls-1" x1="85.02" y1="22.11" x2="84.82" y2="36.96"/><circle class="cls-2" cx="85.02" cy="8.37" r="7.99"/><circle class="cls-3" cx="30.68" cy="29.53" r="7.99"/><circle class="cls-2" cx="8.37" cy="84.24" r="7.99"/><path class="cls-3" d="M38.67,138.24a8,8,0,0,1-16,0c0-4.42,4.38-8.45,8.8-8.45S38.67,133.82,38.67,138.24Z"/><line class="cls-1" x1="146.55" y1="83.32" x2="131.71" y2="83.72"/><line class="cls-1" x1="126.7" y1="37.6" x2="116.44" y2="48.34"/><line class="cls-1" x1="129.66" y1="129.94" x2="119.21" y2="119.38"/><line class="cls-1" x1="83.76" y1="147.15" x2="83.56" y2="132.3"/><circle class="cls-2" cx="84.13" cy="160.89" r="7.99"/><circle class="cls-3" cx="137.88" cy="138.28" r="7.99"/><circle class="cls-2" cx="158.72" cy="83" r="7.99"/><path class="cls-3" d="M127,29.82c-.12-4.41,4.17-8.54,8.58-8.65S142.84,25,143,29.4a8,8,0,1,1-16,.42Z"/><path class="cls-4" d="M115.6,64.88l-3.61-5a2.17,2.17,0,0,0-2.75-.64L101,63.51a26.47,26.47,0,0,0-4.66-3.19L97.8,51.4a2.07,2.07,0,0,0-1.54-2.3l-6.09-1.6a2.13,2.13,0,0,0-2.53,1.22l-3.45,8.39a26.79,26.79,0,0,0-5.68.46l-4.84-7.72a2.15,2.15,0,0,0-2.7-.8l-5.73,2.56a2,2,0,0,0-1.13,2.51l2.94,8.58A25.76,25.76,0,0,0,63,66.59l-8.82-2.91a2.15,2.15,0,0,0-2.61,1.07l-2.69,5.53a2,2,0,0,0,.81,2.62l7.94,4.74a.29.29,0,0,0,0,.09,25.05,25.05,0,0,0-.51,5.42L48.4,86.41a2.05,2.05,0,0,0-1.28,2.44l1.61,5.91a2.12,2.12,0,0,0,2.36,1.51L60.32,95a25.76,25.76,0,0,0,3.25,4.54l-4.49,7.92a2,2,0,0,0,.64,2.66l5.16,3.53a2.16,2.16,0,0,0,2.8-.31l6.2-6.75a27.84,27.84,0,0,0,4.51,1.28c.34.07.67.12,1,.17l1.81,8.86a2.13,2.13,0,0,0,2.26,1.65l6.29-.51a2.09,2.09,0,0,0,2-2l.27-9a26.74,26.74,0,0,0,5.18-2.31l7.27,5.65a2.16,2.16,0,0,0,2.82-.14l4.49-4.31a2,2,0,0,0,.17-2.73l-5.78-7.07a25.19,25.19,0,0,0,2.42-5l9.33-.19A2.08,2.08,0,0,0,119.93,89l.58-6.09a2.06,2.06,0,0,0-1.69-2.19l-9.12-1.83a25,25,0,0,0-1.46-5.34l7-6A2,2,0,0,0,115.6,64.88Zm-25.81,31A15.14,15.14,0,0,1,70,88.77a14.27,14.27,0,0,1,7.3-19.18,15.13,15.13,0,0,1,19.8,7.07A14.26,14.26,0,0,1,89.79,95.83Z"/></g></g></svg>