<svg xmlns="http://www.w3.org/2000/svg" viewBox="0 0 129.02 129.02"><defs><style>.cls-1{fill:#fff;}.cls-1,.cls-3,.cls-4,.cls-5,.cls-6{stroke:#003e72;}.cls-1,.cls-5{stroke-linecap:round;}.cls-1,.cls-3,.cls-4,.cls-6{stroke-miterlimit:10;stroke-width:0.75px;}.cls-2{fill:#ebf2ee;}.cls-3,.cls-5{fill:none;}.cls-4{fill:#eef0cc;}.cls-5{stroke-linejoin:round;stroke-dasharray:1 6;}.cls-6{fill:#e6e6e6;}</style></defs><g id="Layer_2" data-name="Layer 2"><g id="Layer_8" data-name="Layer 8"><path class="cls-1" d="M64.51,128.65A64.14,64.14,0,0,1,64.51.38"/><path class="cls-1" d="M64.51.38a64.14,64.14,0,1,1,0,128.27"/><path class="cls-2" d="M79.67,85.91A51.65,51.65,0,0,1,85.58,81c-2.79-5.75-10.53-9.41-19.93-9.41-10,0-20.19,2.48-22.43,8.81,1.6,2.67,9.15,7.63,12.42,10.47s4.51,6.25,6.31,10.06c.89.08,2.84.14,3.77.14.7,0,1.25,0,1.94,0C66.48,93.37,73.36,88.81,79.67,85.91Z"/><path class="cls-3" d="M61.58,117.14c-1.15-4-.47-8.22-.13-12.36.54-6.64-1.63-12.22-7.35-15.87-2.92-1.87-6.16-3.32-8.67-5.71-2-1.85-3.38-4.19-5.25-6.12S35.7,73.6,33,74c2.64,8.13,4.31,14.39,11.74,19.34"/><path class="cls-3" d="M38.18,54.61s6.29,0,6.6,6.21,0,15.39,0,15.39"/><path class="cls-3" d="M33,74V50.82c8.52,0,6.46,15.11,6.46,19.89"/><path class="cls-3" d="M33,62.41c0-1.83-2.52-4.12-4.22-4.48-2.77-.61-2.13.33-2.29,2.88C26.28,64.65,27,72,27,75.89c0,4.45-.39,10.86,2.4,14.73,6.27,8.71,16.78,14.48,15.74,26.55"/><path class="cls-3" d="M67.1,117.14c1.15-4,.47-8.22.13-12.36-.54-6.64,1.63-12.22,7.34-15.87,2.93-1.87,6.16-3.32,8.68-5.71,2-1.85,3.37-4.19,5.25-6.12S93,73.6,95.63,74C93,82.13,91.33,88.39,83.89,93.34"/><path class="cls-3" d="M90.49,54.61s-6.28,0-6.6,6.21,0,15.39,0,15.39"/><path class="cls-3" d="M95.63,74V50.82c-8.51,0-6.42,14.9-6.42,19.68"/><path class="cls-3" d="M95.63,62.41c0-1.83,2.53-4.12,4.23-4.48,2.76-.61,2.13.33,2.29,2.88.24,3.84-.49,11.23-.49,15.08,0,4.45.39,10.86-2.39,14.73C93,99.33,82.49,105.1,83.53,117.17"/><path class="cls-4" d="M60.61,54c6.8-26-20.49-29.25-20.49-29.25S35.2,47.84,60.61,54"/><path class="cls-3" d="M45.18,31.88c2.66,3.21,4.73,6.76,7.39,10.31,4.15,6.22,8.3,11.56,11.56,18.07,0,3.85,0,7.41-.07,11.22"/><polyline class="cls-3" points="46.03 42.22 54.9 45.18 54.6 35.72"/><path class="cls-3" d="M75.54,42.19C71.39,48.41,67.25,53.75,64,60.26c0,3.85,0,7.41.07,11.22"/><path class="cls-5" d="M43,80.44s9.35-10.87,20.87-8.8"/><path class="cls-5" d="M85.51,80.76s-10.21-11.1-21.73-9"/><path class="cls-6" d="M92.65,28.77l-1.38-2a.82.82,0,0,0-1.06-.25l-3.16,1.7A10.42,10.42,0,0,0,85.25,27l.55-3.54a.81.81,0,0,0-.59-.92l-2.35-.64a.82.82,0,0,0-1,.49l-1.33,3.34a10,10,0,0,0-2.19.18l-1.86-3.07a.81.81,0,0,0-1-.32l-2.2,1a.82.82,0,0,0-.44,1L74,27.9a10.32,10.32,0,0,0-1.56,1.54L69,28.29a.82.82,0,0,0-1,.42l-1,2.2A.81.81,0,0,0,67.28,32l3,1.88v0A10.48,10.48,0,0,0,70.13,36l-3.35,1.3a.82.82,0,0,0-.49,1l.62,2.35a.82.82,0,0,0,.91.6l3.55-.52a10.15,10.15,0,0,0,1.25,1.8L70.9,45.68a.8.8,0,0,0,.24,1.06l2,1.4A.82.82,0,0,0,74.21,48l2.38-2.68a11.24,11.24,0,0,0,1.74.51l.38.06.7,3.53a.82.82,0,0,0,.87.65l2.42-.2a.82.82,0,0,0,.75-.79l.11-3.59a10,10,0,0,0,2-.92l2.8,2.25a.83.83,0,0,0,1.09-.06l1.72-1.71A.81.81,0,0,0,91.23,44L89,41.17a10.07,10.07,0,0,0,.94-2l3.59-.08a.81.81,0,0,0,.79-.74l.23-2.42a.84.84,0,0,0-.65-.88l-3.52-.72a10.28,10.28,0,0,0-.56-2.13l2.7-2.36A.82.82,0,0,0,92.65,28.77Zm-9.93,12.3a5.74,5.74,0,1,1,2.81-7.62A5.73,5.73,0,0,1,82.72,41.07Z"/></g></g></svg>