<svg xmlns="http://www.w3.org/2000/svg" viewBox="0 0 141 141"><defs><style>.cls-1{fill:#fff;}.cls-1,.cls-2,.cls-4,.cls-5{stroke:#003e72;}.cls-1,.cls-2,.cls-3,.cls-4,.cls-5{stroke-miterlimit:10;}.cls-2{fill:#66abe2;}.cls-3{fill:none;stroke:#0a476e;}.cls-4{fill:#b6cb51;}.cls-5{fill:#ebf2ee;}</style></defs><g id="Layer_2" data-name="Layer 2"><g id="icons"><circle class="cls-1" cx="70.5" cy="70.5" r="70"/><path class="cls-2" d="M41.62,57.58h0a16,16,0,0,1,16,16v33a0,0,0,0,1,0,0H25.57a0,0,0,0,1,0,0v-33A16,16,0,0,1,41.62,57.58Z"/><path class="cls-3" d="M37.92,57.36V46.74a3.31,3.31,0,0,1,3.26-3.26h46a3.3,3.3,0,0,1,3.26,3.26v17"/><path class="cls-3" d="M44.44,57.36,44.55,50H83.89V63.76"/><line class="cls-3" x1="25.36" y1="81.43" x2="57.45" y2="81.43"/><path class="cls-1" d="M74.51,63.76h30.05a9.69,9.69,0,0,1,9.69,9.69v33a0,0,0,0,1,0,0H64.82a0,0,0,0,1,0,0v-33A9.69,9.69,0,0,1,74.51,63.76Z"/><path class="cls-2" d="M45.67,63.12H64.56V34.92a2.14,2.14,0,0,1,2.23-2H98.36a2.14,2.14,0,0,1,2.23,2V68.7h0c0,2.52-4.46,2.51-4.46,0V36.87H69V65.13a2.14,2.14,0,0,1-2.24,2H42.59a2,2,0,1,1,0-3.87Z"/><line class="cls-3" x1="65.03" y1="92.59" x2="113.93" y2="92.59"/><rect class="cls-1" x="64.92" y="92.16" width="49.4" height="14.22"/><circle class="cls-4" cx="96.15" cy="98.99" r="3.82"/><circle class="cls-4" cx="82.06" cy="98.88" r="3.82"/><rect class="cls-5" x="36.04" y="87.76" width="12.19" height="10.27"/></g></g></svg>