<svg xmlns="http://www.w3.org/2000/svg" viewBox="0 0 134.43 134.43"><defs><style>.cls-1{fill:#ebf2ee;}.cls-1,.cls-2{stroke:#003e72;}.cls-1,.cls-2,.cls-3,.cls-5,.cls-6{stroke-miterlimit:10;stroke-width:0.75px;}.cls-2{fill:#d0e0e2;}.cls-3,.cls-5{fill:none;}.cls-3{stroke:#d6e0e8;}.cls-4{font-size:71.63px;font-family:OpenSans-Bold, Open Sans;font-weight:700;}.cls-4,.cls-7{fill:#33658e;}.cls-5,.cls-6{stroke:#33658e;}.cls-6{fill:#dbe5a8;}</style></defs><g id="Layer_2" data-name="Layer 2"><g id="Layer_162" data-name="Layer 162"><circle class="cls-1" cx="67.22" cy="67.22" r="66.84"/><rect class="cls-2" x="29.52" y="28.91" width="76.12" height="76.12" rx="4.85"/><rect class="cls-3" x="32.85" y="33.16" width="69.47" height="67.62"/><text class="cls-4" transform="translate(34.11 92.13) scale(1.01 1)">P</text><path class="cls-5" d="M77.6,88.25,77.67,92a1.57,1.57,0,0,1-1.57,1.57h-.3A1.57,1.57,0,0,1,74.23,92l-.07-3.75"/><path class="cls-6" d="M93.17,78.69H73.71l1.75-6.12a1.82,1.82,0,0,1,1.73-1.34H89.27a1.76,1.76,0,0,1,1.66,1.21Z"/><path class="cls-5" d="M92.23,88.46l0,3.54a1.56,1.56,0,0,1-1.56,1.57h-.31A1.57,1.57,0,0,1,88.76,92l0-3.54"/><path class="cls-7" d="M92.09,78.68H74.9a4,4,0,0,0-4,4v3.19a2.72,2.72,0,0,0,2.72,2.72H93a2.72,2.72,0,0,0,2.72-2.72V82.31A3.63,3.63,0,0,0,92.09,78.68ZM75.79,86A2.22,2.22,0,1,1,78,83.74,2.21,2.21,0,0,1,75.79,86Zm12-5a2.4,2.4,0,0,1-2.4,2.4H81.1a2.41,2.41,0,0,1-2.41-2.4v-.4h9.14Zm2.76,5a2.22,2.22,0,1,1,2.21-2.22A2.21,2.21,0,0,1,90.59,86Z"/></g></g></svg>