<svg xmlns="http://www.w3.org/2000/svg" viewBox="0 0 134.43 134.43"><defs><style>.cls-1{fill:#d0e2f2;}.cls-1,.cls-2,.cls-3,.cls-4,.cls-5,.cls-6{stroke:#003e72;stroke-miterlimit:10;stroke-width:0.75px;}.cls-2{fill:#71a9d8;}.cls-3{fill:#ccd8e3;}.cls-4{fill:#99b2c7;}.cls-5{fill:#dfe6eb;}.cls-6{fill:none;}</style></defs><g id="Layer_2" data-name="Layer 2"><g id="Layer_169" data-name="Layer 169"><circle class="cls-1" cx="67.22" cy="67.22" r="66.84"/><rect class="cls-2" x="29.08" y="38.7" width="73.04" height="7.34"/><rect class="cls-3" x="25.8" y="45.38" width="79.59" height="13.74"/><rect class="cls-4" x="84.19" y="35.14" width="10.59" height="3.38"/><rect class="cls-4" x="36.42" y="35.14" width="10.59" height="3.38"/><path class="cls-5" d="M27.72,59.27h75.76a0,0,0,0,1,0,0v34.2a7.28,7.28,0,0,1-7.28,7.28H35a7.28,7.28,0,0,1-7.28-7.28V59.27A0,0,0,0,1,27.72,59.27Z"/><line class="cls-6" x1="32.01" y1="68.24" x2="42.46" y2="68.24"/><line class="cls-6" x1="37.16" y1="63.09" x2="37.16" y2="73.54"/><line class="cls-6" x1="88.17" y1="67.89" x2="98.62" y2="67.89"/><line class="cls-6" x1="28.04" y1="78.39" x2="103.36" y2="78.39"/><line class="cls-6" x1="39.07" y1="84.35" x2="39.07" y2="100.61"/><line class="cls-6" x1="49.69" y1="84.35" x2="49.69" y2="100.61"/><line class="cls-6" x1="60.32" y1="84.35" x2="60.32" y2="100.61"/><line class="cls-6" x1="70.94" y1="84.35" x2="70.94" y2="100.61"/><line class="cls-6" x1="92.18" y1="84.35" x2="92.18" y2="100.61"/><line class="cls-6" x1="81.56" y1="84.35" x2="81.56" y2="100.61"/><g id="BpuCzr"><path class="cls-2" d="M100.71,110.72c-4.45-4-9-7.84-13.3-12A11.13,11.13,0,0,1,83.88,89a8.49,8.49,0,0,1,9.17-7.15,7.4,7.4,0,0,1,4.41,2.53c1.21,1.32,2.29,2.75,3.38,4.09,1-1.23,2-2.57,3.14-3.8,2.71-2.94,5.71-3.64,8.94-2.18a8.63,8.63,0,0,1,4.84,8.66,13.21,13.21,0,0,1-4.15,8.43c-3.23,3.08-6.65,5.94-10,8.87C102.73,109.16,101.81,109.84,100.71,110.72Z"/></g></g></g></svg>