<svg xmlns="http://www.w3.org/2000/svg" viewBox="0 0 79.04 102.67"><defs><style>.cls-1{fill:#c2d1dd;}.cls-1,.cls-2,.cls-3{stroke:#003e72;stroke-miterlimit:10;stroke-width:0.5px;}.cls-2{fill:#99b2c7;}.cls-3{fill:#bac3ca;}</style></defs><g id="Layer_2" data-name="Layer 2"><g id="Layer_55" data-name="Layer 55"><path class="cls-1" d="M17.86,80.77a6,6,0,0,1-.07-4.34L37.64,25.9a6,6,0,0,1,3.82-3.43C46.3,20.91,51,16.81,49.54,8.86c-.13-.65-.39-2.34-.88-1.73-1.89,2.48-3.46,4.56-5.35,7.05a1.56,1.56,0,0,1-1.56.5,13.33,13.33,0,0,1-7.24-5.49,1.56,1.56,0,0,1,.07-1.64C36.28,5.31,38,3.08,39.67.84a.35.35,0,0,0-.24-.56c-5-.39-10.11,2.81-11.52,5.7a12.63,12.63,0,0,0,.24,10.37,5.87,5.87,0,0,1,.4,5L8.46,72.46a6.71,6.71,0,0,1-3.25,3.47A9.45,9.45,0,0,0,.4,86.2a6.33,6.33,0,0,0,1.25,2.87c5.08,6.51,13.72,4.51,16.18-1.75A9,9,0,0,0,17.86,80.77Zm-5.92,9.56-.76-.78L10,89.8l-.41,1-1.43-.13-.22-1.07-1.17-.46-.89.64-1.14-.88.39-1-.73-1-1.09,0-.48-1.35.88-.65-.07-1.25-.94-.55L3,81.72l1.09-.07.62-1.09-.5-1,1-1,1,.54,1.11-.59.1-1.08,1.41-.28.52,1,1.24.11.68-.86,1.34.53L12.49,79l1,.76,1-.35.84,1.16-.66.87.42,1.18,1.06.27.08,1.43-1,.37-.29,1.22.76.79L15,88l-1.07-.24-.9.87.2,1.08Z"/><path class="cls-2" d="M38.39,88.3a4.78,4.78,0,0,1,0-3.47L54.21,44.41a4.83,4.83,0,0,1,3.07-2.75c3.86-1.25,7.66-4.53,6.45-10.88-.1-.52-.3-1.87-.7-1.39L58.75,35a1.23,1.23,0,0,1-1.24.4A10.61,10.61,0,0,1,51.71,31a1.24,1.24,0,0,1,.06-1.31l4.07-5.37a.27.27,0,0,0-.19-.44c-4-.32-8.09,2.24-9.22,4.56a10.07,10.07,0,0,0,.2,8.29,4.71,4.71,0,0,1,.31,4L30.87,81.66a5.36,5.36,0,0,1-2.6,2.77,7.57,7.57,0,0,0-3.85,8.22,5.08,5.08,0,0,0,1,2.29c4.07,5.21,11,3.62,12.94-1.39A7.26,7.26,0,0,0,38.39,88.3ZM33.66,96,33,95.33l-1,.2-.33.81-1.14-.1-.18-.86L29.48,95l-.72.51-.9-.71.31-.81-.59-.82-.87,0-.38-1.08.7-.52-.05-1-.76-.44.26-1.11.88-.06.49-.87-.4-.78.83-.8L29,87l.89-.47.09-.87,1.12-.22.42.77,1,.09.55-.69,1.06.42-.06.87.79.62.83-.29.67.93-.53.7.33,1L37,90l.06,1.15-.82.3-.23,1,.6.64-.56,1-.86-.19-.72.69.16.86Z"/><path class="cls-3" d="M58.31,98.73a5.72,5.72,0,0,0,0-4.19,3.76,3.76,0,0,1,0-2.78L71,59.42a3.81,3.81,0,0,1,2.45-2.2c3.09-1,6.12-3.62,5.16-8.71-.08-.41-.25-1.49-.56-1.1l-3.42,4.51a1,1,0,0,1-1,.32A8.55,8.55,0,0,1,69,48.72a1,1,0,0,1,.05-1l3.26-4.3a.22.22,0,0,0-.16-.35c-3.2-.26-6.47,1.79-7.37,3.64a8.05,8.05,0,0,0,.16,6.64,3.78,3.78,0,0,1,.25,3.18L52.32,89.22a4.25,4.25,0,0,1-2.08,2.22A6,6,0,0,0,47.16,98a4.12,4.12,0,0,0,.8,1.84C51.21,104,56.74,102.74,58.31,98.73ZM53,101l-.91-.08L52,100.2l-.74-.3-.57.41-.73-.56.25-.66-.47-.65-.7,0-.3-.86.56-.42,0-.8L48.6,96l.21-.89.7-.05.4-.69-.32-.63.66-.64.61.34.71-.37.07-.69.9-.18.33.61.8.07.43-.55.86.34-.06.7.63.49.67-.23.53.75-.42.55.27.76.68.17.05.91-.66.24-.19.78.49.51-.46.8L55.81,99l-.58.55.13.69-.81.43-.49-.5-.79.16Z"/></g></g></svg>