<svg xmlns="http://www.w3.org/2000/svg" viewBox="0 0 165.58 165.58"><defs><style>.cls-1,.cls-2{fill:#fff;}.cls-1,.cls-2,.cls-3,.cls-4,.cls-5,.cls-6,.cls-7{stroke:#003e72;stroke-miterlimit:10;}.cls-1{stroke-width:1.5px;}.cls-3{fill:#ebf2ee;}.cls-4{fill:#c9d87d;}.cls-5{fill:#0073cf;}.cls-6{fill:#a8b400;}.cls-7{fill:#66abe2;}.cls-8{fill:#003e72;}</style></defs><g id="Layer_2" data-name="Layer 2"><g id="Layer_134" data-name="Layer 134"><circle class="cls-1" cx="82.79" cy="82.79" r="82.04"/><rect class="cls-2" x="41.37" y="28.42" width="80.6" height="110.06" rx="13.3"/><rect class="cls-3" x="49.46" y="37.48" width="46.94" height="60.21"/><line class="cls-2" x1="53.99" y1="60.14" x2="91.54" y2="60.14"/><line class="cls-2" x1="54.31" y1="76.01" x2="91.86" y2="76.01"/><rect class="cls-2" x="109.67" y="44.28" width="14.89" height="33.02"/><line class="cls-2" x1="117.44" y1="49.46" x2="117.44" y2="70.83"/><circle class="cls-4" cx="127.47" cy="60.14" r="10.03"/><rect class="cls-5" x="101.57" y="82.8" width="15.86" height="2.59"/><rect class="cls-6" x="102.29" y="90.47" width="4.02" height="4.02" rx="1.86"/><rect class="cls-6" x="108.16" y="90.47" width="4.02" height="4.02" rx="1.86"/><rect class="cls-6" x="102.29" y="97.4" width="4.02" height="4.02" rx="1.86"/><rect class="cls-6" x="108.16" y="97.4" width="4.02" height="4.02" rx="1.86"/><rect class="cls-6" x="102.29" y="103.71" width="4.02" height="4.02" rx="1.86"/><polygon class="cls-7" points="95.75 123.93 50.43 123.93 50.43 117.46 50.43 112.28 95.75 112.28 95.75 123.93"/><line class="cls-7" x1="95.43" y1="118.11" x2="50.43" y2="118.11"/><rect class="cls-2" x="100.6" y="112.26" width="16.51" height="17.16"/><path class="cls-8" d="M69.42,59.36h.29V58.18H68.47l-.93-1.9H67.1l-.26-.54h-3l-.26.54H58L57,58.18H56v1.18h.28v.86h.06v2H55.12a3.29,3.29,0,0,0-3.29,3.29v2.67a3.29,3.29,0,0,0,3.29,3.29h1.19v2.06a2.08,2.08,0,0,0,2.08,2.08h9a2.08,2.08,0,0,0,2.07-2.08V71.41h0V63h0V59.36ZM55,69.71a1.38,1.38,0,0,1-1.37-1.37v-3A1.38,1.38,0,0,1,55,64h1.33v5.75Z"/><path class="cls-8" d="M88.49,59.36h.28V58.18H87.53l-.93-1.9h-.43l-.27-.54h-3l-.27.54H77l-.93,1.9H75v1.18h.27v.86h.07v2H74.19A3.29,3.29,0,0,0,70.9,65.5v2.67a3.29,3.29,0,0,0,3.29,3.29h1.19v2.06a2.08,2.08,0,0,0,2.07,2.08h9a2.08,2.08,0,0,0,2.08-2.08V71.41h0V63h0V59.36ZM74.05,69.71a1.37,1.37,0,0,1-1.37-1.37v-3A1.37,1.37,0,0,1,74.05,64h1.33v5.75Z"/></g></g></svg>