<svg xmlns="http://www.w3.org/2000/svg" viewBox="0 0 83.4 83.4"><defs><style>.cls-1,.cls-2{fill:#fff;}.cls-1,.cls-2,.cls-3,.cls-4{stroke:#003e72;stroke-miterlimit:10;}.cls-1{stroke-width:1.5px;}.cls-2,.cls-3,.cls-4{stroke-width:0.75px;}.cls-3{fill:#ebf2ee;}.cls-4{fill:#66abe2;}</style></defs><g id="Layer_2" data-name="Layer 2"><g id="Layer_85" data-name="Layer 85"><circle class="cls-1" cx="41.7" cy="41.7" r="40.95"/><path class="cls-2" d="M45.54,15V8H37.86v7A21.12,21.12,0,0,0,20.59,35.75c0,11.66,9.45,40.94,21.11,40.94S62.81,47.41,62.81,35.75A21.12,21.12,0,0,0,45.54,15Z"/><path class="cls-3" d="M44.47,22.34A15.15,15.15,0,0,1,55,28.56c3.54,5.22,2.95,12.17,1.45,18.29a50.1,50.1,0,0,1-7.92,18c-1.65,2.24-3.87,4.46-6.65,4.57-3.36.13-6-2.8-7.8-5.62A54,54,0,0,1,26.12,43C24.3,31.49,30.54,21.46,43.26,22.22,43.66,22.24,44.07,22.28,44.47,22.34Z"/><path class="cls-4" d="M48.76,40.93c0,3.71-3.16,13-7.06,13s-7.06-9.33-7.06-13a7.07,7.07,0,0,1,14.12,0Z"/></g></g></svg>