<svg xmlns="http://www.w3.org/2000/svg" viewBox="0 0 329.25 329.25"><defs><style>.cls-1{fill:#fff;}.cls-1,.cls-2,.cls-3,.cls-4,.cls-5,.cls-6{stroke:#003e72;stroke-miterlimit:10;stroke-width:2px;}.cls-2{fill:none;}.cls-3{fill:#d5e8f7;}.cls-4{fill:#a8b400;}.cls-5{fill:#cbd266;}.cls-6{fill:#eef0cc;}</style></defs><g id="Layer_2" data-name="Layer 2"><g id="U_02"><circle class="cls-1" cx="164.62" cy="164.62" r="163.62"/><path class="cls-2" d="M8.28,121.43s69.81-.34,85.53-.34h31.71a12,12,0,0,1,9.69,4.86c2.88,3.89,2.21,10.19,2,14.76-.2,5.31-1.27,10.81-4.54,15.13a24.64,24.64,0,0,1-10.16,7.4c-9.67,4.1-20.42,3-30.65,3-11.39-.05-77.9.22-89.29.17"/><path class="cls-3" d="M95.33,121.11a1.41,1.41,0,0,0-1.42,1.5l.52,8.25a6.76,6.76,0,0,0,.58,2.42c.48,1,1.46,2.42,4.61,2.3,4.57-.18,22.17,0,22.7,0s9.15-5.08,10.69-10.64a1.42,1.42,0,0,0-.73-1.63l-3.41-1.7Z"/><path class="cls-2" d="M130.76,54.29q-.06,6.91-.11,13.82c0,6.77-.11,13.54,0,20.31a17.7,17.7,0,0,0,.12,2.82"/><line class="cls-2" x1="148" y1="97.93" x2="171.76" y2="68.72"/><path class="cls-2" d="M158.21,114.64c1.23,0,36.42-11.79,36.42-11.79"/><rect class="cls-4" x="145.41" y="119.86" width="24.63" height="119.91" transform="translate(160.7 -59.35) rotate(41.97)"/><rect class="cls-5" x="198.9" y="112.12" width="24.63" height="119.91" transform="translate(77.16 -65.1) rotate(21.35)"/><rect class="cls-6" x="260.65" y="112.86" width="24.63" height="121.28" transform="matrix(1, 0.01, -0.01, 1, 2.18, -3.39)"/></g></g></svg>