<svg xmlns="http://www.w3.org/2000/svg" viewBox="0 0 176.85 176.85"><defs><style>.cls-1,.cls-3{fill:#fff;}.cls-1,.cls-2,.cls-3,.cls-4,.cls-5,.cls-6{stroke:#003e72;stroke-miterlimit:10;}.cls-1{stroke-width:1.5px;}.cls-2{fill:#66abe2;}.cls-4{fill:#a4bf26;}.cls-5{fill:#c9d87d;}.cls-6{fill:#ebf2ee;}</style></defs><g id="Layer_2" data-name="Layer 2"><g id="Layer_121" data-name="Layer 121"><circle class="cls-1" cx="88.42" cy="88.42" r="87.67"/><rect class="cls-2" x="29.85" y="86.56" width="50.7" height="10.43"/><rect class="cls-3" x="39.62" y="64.75" width="10.08" height="8.03"/><path class="cls-2" d="M107.46,40.7,80.24,65.18l-5.35-8.11,28.73-21.5a3.21,3.21,0,0,1,4.49.64h0A3.21,3.21,0,0,1,107.46,40.7Z"/><polygon class="cls-3" points="139.9 100.61 60.18 100.61 60.18 91.84 60.18 85.49 139.9 85.49 139.9 100.61"/><polygon class="cls-3" points="139.9 85.49 60.18 85.49 60.18 78.85 60.18 74.04 139.9 74.04 139.9 85.49"/><polygon class="cls-4" points="120.71 97.18 89.73 97.18 89.73 90.4 89.73 85.49 120.71 85.49 120.71 97.18"/><polygon class="cls-5" points="106.54 85.27 75.57 85.27 75.57 78.89 75.57 74.27 106.54 74.27 106.54 85.27"/><path class="cls-6" d="M42.59,72.82h3.83a7.86,7.86,0,0,1,7.86,7.86V97.39a0,0,0,0,1,0,0H34.73a0,0,0,0,1,0,0V80.68A7.86,7.86,0,0,1,42.59,72.82Z"/><rect class="cls-2" x="67.11" y="67.63" width="14.36" height="6.37"/><path class="cls-6" d="M73.21,50.83H83a0,0,0,0,1,0,0v17.1a0,0,0,0,1,0,0H65.58a0,0,0,0,1,0,0V58.46A7.63,7.63,0,0,1,73.21,50.83Z"/><line class="cls-3" x1="104.68" y1="38" x2="104.68" y2="66.4"/><path class="cls-3" d="M30.32,97.34h80.77l4.67-5.21a8.64,8.64,0,0,1,6.43-3h34.26l-16,33.75H36.87s-5.64-14.58-8.71-21.75A2.67,2.67,0,0,1,30.32,97.34Z"/><circle class="cls-2" cx="124.38" cy="99.24" r="4.58"/></g></g></svg>