<svg xmlns="http://www.w3.org/2000/svg" viewBox="0 0 134.43 134.43"><defs><style>.cls-1{fill:#ebf2ee;}.cls-1,.cls-2,.cls-3{stroke:#003e72;stroke-miterlimit:10;stroke-width:0.75px;}.cls-2{fill:#cbd266;}.cls-3{fill:#e0e4a3;}.cls-4{font-size:24.56px;font-family:OpenSans-Extrabold, Open Sans;font-weight:800;}.cls-4,.cls-5{fill:#003e72;}.cls-5{font-size:13.73px;font-family:OpenSans-Bold, Open Sans;font-weight:700;}</style></defs><g id="Layer_2" data-name="Layer 2"><g id="Layer_162" data-name="Layer 162"><circle class="cls-1" cx="67.22" cy="67.22" r="66.84"/><path class="cls-2" d="M107,61.33h-3.86A15.66,15.66,0,0,0,87.4,47.06a16.52,16.52,0,0,0-2.92.26A17.88,17.88,0,0,0,48.82,48.7a15.68,15.68,0,0,0-5-.83,15.23,15.23,0,0,0-3,30.22c6.43,1.23,13.15.73,19.71.73H107a8.75,8.75,0,1,0,0-17.49Z"/><path class="cls-3" d="M97.24,81.06H93.39a15.81,15.81,0,0,0-18.64-14,17.88,17.88,0,0,0-35.66,1.37,15.68,15.68,0,0,0-5-.82,15.23,15.23,0,0,0-3,30.21c6.43,1.23,13.15.73,19.71.73H97.24a8.75,8.75,0,1,0,0-17.49Z"/><text class="cls-4" transform="translate(38.37 87.65) scale(1.02 1)">CO</text><text class="cls-5" transform="translate(75.61 90.83) scale(1.02 1)">2</text></g></g></svg>