<svg xmlns="http://www.w3.org/2000/svg" viewBox="0 0 116.56 73.06"><defs><style>.cls-1{fill:#dbe5a8;}.cls-1,.cls-2,.cls-3,.cls-4,.cls-5{stroke:#003e72;stroke-miterlimit:10;stroke-width:0.75px;}.cls-2{fill:#99b2c7;}.cls-3{fill:#668baa;}.cls-4{fill:none;}.cls-5{fill:#71a9d8;}</style></defs><g id="Layer_2" data-name="Layer 2"><g id="Layer_53" data-name="Layer 53"><circle class="cls-1" cx="53.8" cy="15.93" r="8.46"/><path class="cls-2" d="M85.49,40.89A12.57,12.57,0,1,0,93,57,12.6,12.6,0,0,0,85.49,40.89Z"/><path class="cls-3" d="M86.55,54.68a2.61,2.61,0,1,0,3.35-1.55A2.6,2.6,0,0,0,86.55,54.68Z"/><path class="cls-1" d="M82.34,49.46a3.44,3.44,0,1,0,2,4.42A3.45,3.45,0,0,0,82.34,49.46Z"/><path class="cls-4" d="M19.51,28.43a3.34,3.34,0,1,0,2,4.29A3.35,3.35,0,0,0,19.51,28.43Z"/><path class="cls-3" d="M79.57,47A2.61,2.61,0,1,0,78,43.68,2.61,2.61,0,0,0,79.57,47Z"/><path class="cls-3" d="M75.24,54.47a2.61,2.61,0,1,0-1.8,4.89,2.61,2.61,0,0,0,1.8-4.89Z"/><path class="cls-4" d="M13.64,44.36a13.64,13.64,0,1,1,17.51-8.08A13.64,13.64,0,0,1,13.64,44.36ZM75.69,67.51A15.79,15.79,0,1,1,96,58.15,15.78,15.78,0,0,1,75.69,67.51Zm24.46-45.85a8.84,8.84,0,1,1,11.35-5.25A8.86,8.86,0,0,1,100.15,21.66Z"/><path class="cls-5" d="M57.5,16.62a3.81,3.81,0,1,0-4.45,3A3.8,3.8,0,0,0,57.5,16.62Z"/><path class="cls-4" d="M103.9,11.47A2,2,0,1,0,105.08,14,2,2,0,0,0,103.9,11.47Z"/><path class="cls-4" d="M100,59.64A20.09,20.09,0,0,1,74.36,71.47L12.21,48.58A18.09,18.09,0,0,1,24.72,14.63a17.89,17.89,0,0,1,2.63,1.21h0l23.28,13,0,0a7.13,7.13,0,0,0,1.28.6,7.51,7.51,0,0,0,6.84-.82l37-25.93h0a13,13,0,0,1,19.55,15.19L100,59.63Z"/><path class="cls-2" d="M21.64,22.65a9.5,9.5,0,1,0,5.63,12.2A9.52,9.52,0,0,0,21.64,22.65Z"/><path class="cls-1" d="M105.33,7.57A6.14,6.14,0,1,0,109,15.46,6.14,6.14,0,0,0,105.33,7.57Z"/></g></g></svg>