<svg xmlns="http://www.w3.org/2000/svg" viewBox="0 0 177.91 177.91"><defs><style>.cls-1,.cls-2{fill:#fff;}.cls-1,.cls-2,.cls-3,.cls-4,.cls-5{stroke:#003e72;stroke-miterlimit:10;}.cls-1{stroke-width:1.5px;}.cls-3{fill:#66abe2;}.cls-4{fill:#ebf2ee;}.cls-5{fill:#c9d87d;}</style></defs><g id="Layer_2" data-name="Layer 2"><g id="Layer_92" data-name="Layer 92"><circle class="cls-1" cx="88.95" cy="88.95" r="88.2"/><path class="cls-2" d="M84.41,73.62h7.12a35.58,35.58,0,0,1,35.58,35.58v21.35a19.36,19.36,0,0,1-19.36,19.36H68.19a19.36,19.36,0,0,1-19.36-19.36V109.21A35.58,35.58,0,0,1,84.41,73.62Z"/><rect class="cls-2" x="71.19" y="68.62" width="33.55" height="5.01"/><rect class="cls-3" x="76.41" y="58.78" width="23.12" height="9.66"/><rect class="cls-4" x="81.68" y="45.43" width="12.58" height="13.13"/><path class="cls-4" d="M119.74,45.43H68.21c0-6.19,5.64-11.2,12.58-11.2L119.14,39Z"/><path class="cls-5" d="M102.77,111.49h.06L89.08,86,75.33,111.49h.06a16.63,16.63,0,0,0-1.81,7.56c0,8.89,6.94,16.09,15.5,16.09s15.51-7.2,15.51-16.09A16.51,16.51,0,0,0,102.77,111.49Z"/></g></g></svg>