<svg xmlns="http://www.w3.org/2000/svg" viewBox="0 0 215.22 159.93"><defs><style>.cls-1{fill:#cbd266;}.cls-1,.cls-2,.cls-4,.cls-5{stroke:#003e72;stroke-miterlimit:10;stroke-width:2px;}.cls-2{fill:none;}.cls-3{font-size:44.72px;fill:#003e72;font-family:OpenSans-Bold, Open Sans;font-weight:700;}.cls-4{fill:#d5e8f7;}.cls-5{fill:#cce3f5;}</style></defs><g id="Layer_2" data-name="Layer 2"><g id="Extra_Icons"><circle class="cls-1" cx="50.45" cy="109.48" r="49.45"/><circle class="cls-2" cx="50.45" cy="109.48" r="35.44"/><text class="cls-3" transform="translate(37.68 124.29)">$</text><rect class="cls-4" x="116.64" y="60.47" width="97.58" height="23.3"/><line class="cls-2" x1="128.95" y1="60.03" x2="128.95" y2="82.45"/><line class="cls-2" x1="172.03" y1="66.18" x2="172.03" y2="82.89"/><line class="cls-2" x1="186.09" y1="67.06" x2="186.09" y2="82.89"/><line class="cls-2" x1="198.84" y1="61.34" x2="198.84" y2="82.89"/><rect class="cls-2" x="112.25" y="84.21" width="97.58" height="23.3"/><line class="cls-2" x1="124.56" y1="83.77" x2="124.56" y2="106.18"/><line class="cls-2" x1="167.63" y1="89.92" x2="167.63" y2="106.62"/><line class="cls-2" x1="181.7" y1="90.8" x2="181.7" y2="106.62"/><line class="cls-2" x1="194.44" y1="85.08" x2="194.44" y2="106.62"/><rect class="cls-5" x="116.21" y="107.73" width="97.58" height="23.3"/><line class="cls-2" x1="128.51" y1="107.29" x2="128.51" y2="129.7"/><line class="cls-2" x1="171.59" y1="113.44" x2="171.59" y2="130.14"/><line class="cls-2" x1="185.65" y1="114.32" x2="185.65" y2="130.14"/><line class="cls-2" x1="198.4" y1="108.6" x2="198.4" y2="130.14"/><rect class="cls-2" x="112.25" y="131.02" width="97.58" height="23.3"/><line class="cls-2" x1="124.56" y1="130.58" x2="124.56" y2="153"/><line class="cls-2" x1="167.63" y1="136.74" x2="167.63" y2="153.44"/><line class="cls-2" x1="181.7" y1="137.62" x2="181.7" y2="153.44"/><line class="cls-2" x1="194.44" y1="131.89" x2="194.44" y2="153.44"/><path class="cls-2" d="M201,.69c-16.51,17.24-31.77,38-50.47,55.41a3,3,0,0,1-4.43-.41c-9.81-12.91-19.62-24.62-29.43-37.36a5.68,5.68,0,0,0-8.83-.18l-37.83,45"/></g></g></svg>