<svg xmlns="http://www.w3.org/2000/svg" viewBox="0 0 85.6 85.6"><defs><style>.cls-1{fill:#fff;}.cls-1,.cls-2,.cls-3{stroke:#003e72;stroke-miterlimit:10;}.cls-2{fill:#a8b400;}.cls-3{fill:#0073cf;}</style></defs><g id="Layer_2" data-name="Layer 2"><g id="Layer_188" data-name="Layer 188"><circle class="cls-1" cx="42.8" cy="42.8" r="42.3"/><path class="cls-2" d="M39.56,43.39s20.75-9.46,29.16,10.77l2.44,7.92a4.44,4.44,0,0,1-4.24,5.74H62.5A4.12,4.12,0,0,1,58.39,64c-.44-6.26-2.64-17.87-13-16.91"/><path class="cls-1" d="M30.66,64.17l-12-7.59a9.44,9.44,0,0,1-2.94-13l7.07-11.19L54,51.27c-1.26,0-5.11,4.92-6.11,5.88C46,59,44.32,61,42.43,62.81A9.56,9.56,0,0,1,30.66,64.17Z"/><path class="cls-1" d="M34.44,44.39V19.74a2,2,0,0,0-2-2h0a2,2,0,0,0-2,2V44.39a4.33,4.33,0,1,0,3.94,0Z"/><circle class="cls-3" cx="32.47" cy="48.38" r="1.71"/></g></g></svg>