<svg xmlns="http://www.w3.org/2000/svg" viewBox="0 0 165.37 101.72"><defs><style>.cls-1,.cls-4{fill:none;}.cls-1,.cls-2{stroke:#333;}.cls-1,.cls-2,.cls-4{stroke-linecap:round;stroke-linejoin:round;stroke-width:0.45px;}.cls-2{fill:#fff;}.cls-3{fill:#009fe3;}.cls-4{stroke:#fff;}</style></defs><g id="Layer_2" data-name="Layer 2"><g id="Layer_1-2" data-name="Layer 1"><line class="cls-1" x1="165.15" y1="101.49" x2="14.02" y2="101.49"/><path class="cls-2" d="M51.77,62.88s2.31-11.43,20.49-27.37c14.88-13,28.78-13.75,39-9.28,0,0-14.5-2.25-32.19,16.3A102.05,102.05,0,0,1,51.77,62.88Z"/><path class="cls-2" d="M51.78,63s5.07-21.37-8.22-38.84A39,39,0,0,0,11.3,8.35S42.53,18,51.78,63Z"/><path class="cls-2" d="M52.72,64.4s-3.15-18.59,1-34C61,3.1,87,.23,87,.23A116.5,116.5,0,0,0,64.59,27.51C58.52,37.78,53.42,50.4,52.72,64.4Z"/><path class="cls-2" d="M.23,30.27a42.1,42.1,0,0,1,18.6-2.9C42.92,29,51.76,62.87,51.76,62.87s-8.54-14.62-21.1-22.25c-5.34-3.25-10.22-1.69-17.75-4.06A55.35,55.35,0,0,1,.23,30.27Z"/><polygon class="cls-2" points="36.81 101.5 64.13 101.5 71.02 59.95 29.91 59.95 36.81 101.5"/><rect class="cls-2" x="43.32" y="96.85" width="69.22" height="4.64" rx="1" transform="translate(155.86 198.34) rotate(-180)"/><rect class="cls-2" x="89.4" y="96.85" width="59.19" height="4.64" rx="1" transform="translate(237.99 198.34) rotate(-180)"/><path class="cls-2" d="M83.25,96.85h66.38a1.43,1.43,0,0,0,1.42-1.42l8.94-44A1.43,1.43,0,0,0,158.57,50H92.19a1.43,1.43,0,0,0-1.42,1.43l-8.94,44A1.43,1.43,0,0,0,83.25,96.85Z"/><path class="cls-2" d="M80.25,96.85h66.38a1.43,1.43,0,0,0,1.42-1.42l8.94-44A1.43,1.43,0,0,0,155.57,50H89.19a1.43,1.43,0,0,0-1.42,1.43l-8.94,44A1.43,1.43,0,0,0,80.25,96.85Z"/><path class="cls-3" d="M84.12,92.51a.29.29,0,0,1-.3-.36l7.67-37.59a.47.47,0,0,1,.45-.36h59.73a.3.3,0,0,1,.31.36L144.3,92.15a.48.48,0,0,1-.45.36Z"/><ellipse class="cls-4" cx="102.26" cy="58.89" rx="6.98" ry="2.25" transform="translate(-1.38 2.46) rotate(-1.37)"/><line class="cls-4" x1="111.74" y1="58.89" x2="121.83" y2="58.89"/><line class="cls-4" x1="139.97" y1="58.89" x2="143.24" y2="58.89"/><line class="cls-4" x1="145.26" y1="58.89" x2="148.53" y2="58.89"/><polygon class="cls-4" points="97.06 84.33 88.75 84.33 91.81 69.37 100.12 69.37 97.06 84.33"/><polygon class="cls-4" points="146.82 67.29 92.23 67.29 92.8 64.5 147.39 64.5 146.82 67.29"/><polygon class="cls-4" points="126.3 84.16 100.35 84.16 103.38 69.37 129.32 69.37 126.3 84.16"/><polygon class="cls-4" points="106.73 89.89 99.19 89.89 100.06 85.58 107.61 85.58 106.73 89.89"/><polygon class="cls-4" points="115.93 89.89 108.38 89.89 109.26 85.58 116.81 85.58 115.93 89.89"/><polygon class="cls-4" points="125.13 89.89 117.58 89.89 118.46 85.58 126.01 85.58 125.13 89.89"/><line class="cls-4" x1="98.1" y1="71.07" x2="93.13" y2="71.07"/><polygon class="cls-4" points="93.32 73.71 92.41 73.71 92.59 72.85 93.5 72.85 93.32 73.71"/><line class="cls-4" x1="94.45" y1="73.28" x2="97.65" y2="73.28"/><polygon class="cls-4" points="92.79 76.31 91.88 76.31 92.06 75.45 92.97 75.45 92.79 76.31"/><line class="cls-4" x1="93.92" y1="75.88" x2="97.12" y2="75.88"/><polygon class="cls-4" points="92.29 78.77 91.38 78.77 91.56 77.91 92.47 77.91 92.29 78.77"/><line class="cls-4" x1="93.42" y1="78.34" x2="96.62" y2="78.34"/><polygon class="cls-4" points="95.72 82.72 90.43 82.72 90.74 81.2 96.03 81.2 95.72 82.72"/><line class="cls-4" x1="131.62" y1="71.99" x2="143.07" y2="71.99"/><line class="cls-4" x1="131.3" y1="73.56" x2="135.14" y2="73.56"/><line class="cls-4" x1="130.12" y1="79.36" x2="132.63" y2="79.36"/><line class="cls-4" x1="133.39" y1="79.05" x2="133.92" y2="79.67"/><line class="cls-4" x1="134.05" y1="79.05" x2="133.26" y2="79.67"/><line class="cls-4" x1="134.76" y1="79.36" x2="137.28" y2="79.36"/><line class="cls-4" x1="139.41" y1="79.36" x2="141.92" y2="79.36"/><line class="cls-4" x1="138.04" y1="79.05" x2="138.57" y2="79.67"/><line class="cls-4" x1="138.69" y1="79.05" x2="137.91" y2="79.67"/><line class="cls-4" x1="130.55" y1="77.27" x2="135.61" y2="77.27"/><polygon class="cls-4" points="134.43 84.16 129.14 84.16 129.45 82.64 134.74 82.64 134.43 84.16"/></g></g></svg>