<svg xmlns="http://www.w3.org/2000/svg" viewBox="0 0 345.76 314.57"><defs><style>.cls-1{fill:#e7e7e7;}.cls-13,.cls-18,.cls-2,.cls-7{fill:#fff;}.cls-2,.cls-3,.cls-7,.cls-9{stroke:#212b5c;}.cls-13,.cls-2,.cls-3,.cls-4{stroke-miterlimit:10;}.cls-17,.cls-19,.cls-3,.cls-6{fill:#498fcc;}.cls-3{stroke-width:0.75px;}.cls-11,.cls-14,.cls-16,.cls-4,.cls-5,.cls-8,.cls-9{fill:none;}.cls-4,.cls-5{stroke:#fff;}.cls-11,.cls-14,.cls-16,.cls-18,.cls-5,.cls-7,.cls-8,.cls-9{stroke-linecap:round;}.cls-11,.cls-14,.cls-16,.cls-17,.cls-18,.cls-19,.cls-5,.cls-7,.cls-8,.cls-9{stroke-linejoin:round;}.cls-8{stroke:#b6b6b6;}.cls-10{fill:#1f2a5d;}.cls-11,.cls-17{stroke:#498fcc;}.cls-12{fill:#498cc9;}.cls-13,.cls-14{stroke:#232b59;}.cls-14{stroke-width:0.77px;}.cls-15{fill:#212b5c;}.cls-16,.cls-18,.cls-19{stroke:#1f2a5d;}</style></defs><g id="Layer_2" data-name="Layer 2"><g id="Layer_128" data-name="Layer 128"><circle class="cls-1" cx="166.81" cy="145.39" r="118.07"/></g><g id="Layer_126" data-name="Layer 126"><rect class="cls-2" x="36.83" y="197.57" width="56.56" height="70.02" transform="translate(59.64 -8.88) rotate(14.34)"/><rect class="cls-2" x="35.91" y="183.65" width="56.56" height="105.02" rx="2.44" transform="translate(60.5 -8.54) rotate(14.34)"/><line class="cls-2" x1="83.83" y1="273.5" x2="29.04" y2="259.49"/><line class="cls-2" x1="46.38" y1="191.66" x2="100.73" y2="205.55"/><circle class="cls-2" cx="53.81" cy="276.77" r="3.89"/><line class="cls-2" x1="67.05" y1="190.27" x2="83.71" y2="194.53"/><rect class="cls-3" x="36.8" y="197.49" width="56.61" height="70.29" transform="translate(59.65 -8.88) rotate(14.34)"/><path class="cls-4" d="M56,215.92l25.88,6.66-5.31,10.7-22.07-3.85,1.42-14.88a.84.84,0,0,0-.62-.89l-3.85-1"/><path class="cls-4" d="M76.27,238.43l-21-5.35a1.6,1.6,0,0,1-1.07-2.17l.4-1.76"/><path class="cls-5" d="M59.12,237.9a2.48,2.48,0,1,1-1.79-3A2.47,2.47,0,0,1,59.12,237.9Z"/><path class="cls-5" d="M71.7,241.12a2.48,2.48,0,1,1-1.79-3A2.48,2.48,0,0,1,71.7,241.12Z"/></g><g id="Layer_63" data-name="Layer 63"><rect class="cls-6" x="103.17" y="241.78" width="124.33" height="14.33"/><path class="cls-7" d="M136.1,102.08H256.26a0,0,0,0,1,0,0V226.3a0,0,0,0,1,0,0H136.1A62.11,62.11,0,0,1,74,164.19v0a62.11,62.11,0,0,1,62.11-62.11Z" transform="translate(329.31 -0.93) rotate(90)"/><path class="cls-8" d="M115.65,229.79V138.4c0-28.7,22.19-52.05,49.47-52.05"/><line class="cls-9" x1="229.77" y1="314.07" x2="249.7" y2="314.07"/><line class="cls-9" x1="283.23" y1="314.07" x2="256.92" y2="314.07"/><line class="cls-9" x1="112.23" y1="314.07" x2="92.3" y2="314.07"/><line class="cls-9" x1="58.77" y1="314.07" x2="85.08" y2="314.07"/><line class="cls-9" x1="49.67" y1="295.12" x2="299.66" y2="295.12"/><path class="cls-10" d="M104.29,255.08H226a18,18,0,0,1,18,18v21.49a0,0,0,0,1,0,0H86.29a0,0,0,0,1,0,0V273.08A18,18,0,0,1,104.29,255.08Z"/><ellipse class="cls-11" cx="105.87" cy="268.94" rx="5.65" ry="5.94"/><ellipse class="cls-11" cx="124.87" cy="268.94" rx="5.65" ry="5.94"/><ellipse class="cls-11" cx="143.87" cy="268.94" rx="5.65" ry="5.94"/><line class="cls-11" x1="99.06" y1="286.17" x2="231.23" y2="286.17"/></g><g id="Layer_79" data-name="Layer 79"><rect class="cls-12" x="82.52" width="64.12" height="64.12" rx="18.28"/><path class="cls-13" d="M122.48,47.9c-5.21,0-9.41-.81-12.48-2.41a9.07,9.07,0,0,0-4.37-1l-1.36.19V25.06h1.19c.26,0,5.79,0,9.08-2.77,3.5-2.91,5.34-6.59,6.68-9.27,1.17-2.34,1.94-3.89,3.38-4.22a2.93,2.93,0,0,1,3.13,1.62,8.94,8.94,0,0,1,.17,8.09l-1.64,3.16c.72,0,1.59,0,2.48,0,1.29,0,2.35,0,3.16-.09a3.88,3.88,0,0,1,4,3.44,4.18,4.18,0,0,1-.69,3.34,5.18,5.18,0,0,1,1.4,3.31,4.51,4.51,0,0,1-1.3,3.17,4.36,4.36,0,0,1,1,3.26,4.88,4.88,0,0,1-2.13,3.33,4.44,4.44,0,0,1-.31,3.46,5.09,5.09,0,0,1-4.06,2.49A62.25,62.25,0,0,1,122.48,47.9Z"/><path class="cls-13" d="M106.52,47.9H94.6V21h11.92Z"/><rect class="cls-6" y="112.49" width="55.54" height="37.43" rx="1.37"/><line class="cls-14" x1="23.26" y1="131.25" x2="3.51" y2="147.46"/><line class="cls-14" x1="52.48" y1="147.46" x2="32.32" y2="131.21"/><polyline class="cls-14" points="3.51 115.32 27.77 134.87 52.03 115.32"/></g><g id="Layer_120" data-name="Layer 120"><path class="cls-6" d="M291.25,36.14c11.92,0,21.59,7.29,21.59,16.28a13.73,13.73,0,0,1-4,9.44l4.29,8.44-10.26-4.16a26.82,26.82,0,0,1-11.62,2.56c-11.93,0-21.59-7.29-21.59-16.28S279.32,36.14,291.25,36.14Z"/><path class="cls-2" d="M273.8,3c-17.41,0-31.51,10.64-31.51,23.77a20,20,0,0,0,5.83,13.78L241.86,52.9l15-6.07a39.08,39.08,0,0,0,17,3.74c17.4,0,31.51-10.64,31.51-23.77S291.2,3,273.8,3Z"/><circle class="cls-15" cx="257.88" cy="26.8" r="4.03"/><circle class="cls-15" cx="273.8" cy="26.8" r="4.03"/><circle class="cls-15" cx="289.71" cy="26.8" r="4.03"/></g><g id="Layer_123" data-name="Layer 123"><line class="cls-16" x1="200.01" y1="11.48" x2="200.01" y2="54.31"/><line class="cls-16" x1="216.81" y1="28.29" x2="183.2" y2="28.29"/><line class="cls-16" x1="211.89" y1="16.41" x2="188.12" y2="40.17"/><line class="cls-16" x1="211.89" y1="40.17" x2="188.12" y2="16.41"/><line class="cls-16" x1="51.17" y1="57.65" x2="51.17" y2="93.1"/><line class="cls-16" x1="65.08" y1="71.56" x2="37.26" y2="71.56"/><line class="cls-16" x1="61.01" y1="61.72" x2="41.34" y2="81.4"/><line class="cls-16" x1="61.01" y1="81.4" x2="41.34" y2="61.72"/><line class="cls-16" x1="272.08" y1="148.28" x2="272.08" y2="167.12"/><line class="cls-16" x1="279.47" y1="155.67" x2="264.68" y2="155.67"/><line class="cls-16" x1="277.3" y1="150.44" x2="266.85" y2="160.9"/><line class="cls-16" x1="277.3" y1="160.9" x2="266.85" y2="150.44"/><polygon class="cls-17" points="164.91 160.14 109.98 160.14 164.91 236.97 219.84 160.14 164.91 160.14"/><polygon class="cls-18" points="109.98 160.14 128.25 140.92 201.46 140.92 219.73 160.14 109.98 160.14"/><polygon class="cls-19" points="164.91 160.14 146.64 160.14 164.91 236.97 183.19 160.14 164.91 160.14"/><polygon class="cls-18" points="201.46 140.92 183.19 160.14 164.91 140.92 146.64 160.14 128.25 140.92 109.98 160.14 219.73 160.14 201.46 140.92"/><polygon class="cls-18" points="134.62 137.59 146.94 141.59 134.62 145.59 130.82 158.56 127.02 145.59 114.69 141.59 127.02 137.59 130.82 124.63 134.62 137.59"/><path class="cls-9" d="M103.05,132.93c-30.42,23.23-47.11,48.74-39.82,65.23,10.24,23.19,64,19.75,120.11-7.68s93.25-68.46,83-91.65c-5.78-13.1-25.46-17.7-51.59-14.28,0,0-1.46.2-3.57.56"/></g><g id="Layer_125" data-name="Layer 125"><ellipse class="cls-6" cx="308.39" cy="259.37" rx="20.33" ry="10.26" transform="translate(-93.08 294.03) rotate(-45)"/><path class="cls-9" d="M281.44,295.7A39,39,0,0,1,294,273.51"/><path class="cls-9" d="M293.81,229.27a39,39,0,0,0-13.2,29.27v1"/><ellipse class="cls-6" cx="308.2" cy="215.13" rx="20.33" ry="10.26" transform="translate(-61.85 280.94) rotate(-45)"/><line class="cls-9" x1="316.72" y1="206.97" x2="297.9" y2="225.79"/><polyline class="cls-9" points="314.54 216.68 307.66 215.97 306.95 209.09"/><polyline class="cls-9" points="308.32 222.9 301.43 222.19 300.73 215.31"/><line class="cls-9" x1="280.62" y1="259.5" x2="280.62" y2="297.48"/><ellipse class="cls-6" cx="253.05" cy="222.36" rx="10.26" ry="20.33" transform="translate(-83.12 244.06) rotate(-45)"/><path class="cls-9" d="M280.64,266.77v-1a39,39,0,0,0-13.2-29.27"/><line class="cls-9" x1="244" y1="213.4" x2="262.83" y2="232.22"/><polyline class="cls-9" points="246.18 223.11 253.07 222.4 253.77 215.52"/><polyline class="cls-9" points="252.41 229.33 259.29 228.62 260 221.74"/><line class="cls-9" x1="316.91" y1="250.68" x2="298.09" y2="269.5"/><polyline class="cls-9" points="314.73 260.39 307.85 259.69 307.14 252.8"/><polyline class="cls-9" points="308.5 266.62 301.62 265.91 300.92 259.03"/></g><g id="Layer_127" data-name="Layer 127"><path class="cls-6" d="M266.36,94.29l4.06,8.25a.78.78,0,0,0,.57.41l9.1,1.32a.76.76,0,0,1,.42,1.29L273.92,112a.78.78,0,0,0-.21.67l1.55,9.06a.75.75,0,0,1-1.09.79L266,118.22a.73.73,0,0,0-.7,0l-8.14,4.27a.75.75,0,0,1-1.09-.79l1.56-9.06a.76.76,0,0,0-.22-.67l-6.58-6.41a.76.76,0,0,1,.41-1.29l9.1-1.32a.76.76,0,0,0,.57-.41L265,94.29A.75.75,0,0,1,266.36,94.29Z"/><path class="cls-6" d="M298.62,94.29l4.07,8.25a.76.76,0,0,0,.56.41l9.1,1.32a.76.76,0,0,1,.42,1.29L306.18,112a.78.78,0,0,0-.21.67l1.55,9.06a.75.75,0,0,1-1.09.79l-8.14-4.27a.73.73,0,0,0-.7,0l-8.13,4.27a.76.76,0,0,1-1.1-.79l1.56-9.06a.76.76,0,0,0-.22-.67l-6.58-6.41a.76.76,0,0,1,.41-1.29l9.1-1.32a.76.76,0,0,0,.57-.41l4.07-8.25A.75.75,0,0,1,298.62,94.29Z"/><path class="cls-2" d="M330.88,94.29l4.07,8.25a.76.76,0,0,0,.56.41l9.1,1.32a.76.76,0,0,1,.42,1.29L338.45,112a.76.76,0,0,0-.22.67l1.55,9.06a.75.75,0,0,1-1.09.79l-8.14-4.27a.73.73,0,0,0-.7,0l-8.13,4.27a.76.76,0,0,1-1.1-.79l1.56-9.06A.76.76,0,0,0,322,112l-6.58-6.41a.76.76,0,0,1,.42-1.29l9.09-1.32a.76.76,0,0,0,.57-.41l4.07-8.25A.75.75,0,0,1,330.88,94.29Z"/></g></g></svg>