<svg xmlns="http://www.w3.org/2000/svg" viewBox="0 0 129.6 129.6"><defs><style>.cls-1{fill:#eceaea;}.cls-2{fill:#fff;}.cls-3,.cls-7{fill:none;stroke:#b0b1b2;stroke-miterlimit:10;stroke-width:2px;}.cls-4{fill:#616566;}.cls-5{fill:#ff434e;}.cls-6{fill:#e5e5e5;}.cls-7{stroke-dasharray:1.6 2.4;}</style></defs><title>Asset 15</title><g id="Layer_2" data-name="Layer 2"><g id="Layer_1-2" data-name="Layer 1"><path class="cls-1" d="M129.6,64.74A64.8,64.8,0,1,1,64.74,0,64.45,64.45,0,0,1,129.6,64.74"/><path class="cls-2" d="M88.2,111.26l33.55,0-.08-79.57L77,31.71l.07,68.44A11.11,11.11,0,0,0,88.2,111.26"/><path class="cls-3" d="M88.2,111.26l33.55,0-.08-79.57L77,31.71l.07,68.44A11.11,11.11,0,0,0,88.2,111.26Z"/><path class="cls-4" d="M24.84,36.32l0-25.23a3.48,3.48,0,0,1,7,0l0,25.24Z"/><path class="cls-2" d="M42.44,23.45l.08,85.2a6.71,6.71,0,0,1-6.71,6.73L21,115.4a6.74,6.74,0,0,1-6.73-6.72l-.08-85.2a6.73,6.73,0,0,1,6.72-6.73H35.71a6.71,6.71,0,0,1,6.73,6.71"/><rect class="cls-3" x="14.2" y="16.74" width="28.28" height="98.65" rx="6.72"/><path class="cls-4" d="M42.52,108.29v.36a6.71,6.71,0,0,1-6.71,6.73L21,115.4a6.74,6.74,0,0,1-6.73-6.72v-.37A6.74,6.74,0,0,1,21,101.58H35.79a6.72,6.72,0,0,1,6.73,6.72"/><path class="cls-4" d="M31.33,98.09v7.18a3.38,3.38,0,1,1-6.76,0V98.1Z"/><path class="cls-2" d="M42.51,95.72l46.22,0a9.89,9.89,0,0,1,9.9,9.88l-.07-79.08a9.9,9.9,0,0,0-9.9-9.88l-53.06,0"/><path class="cls-3" d="M42.51,95.72l46.22,0a9.89,9.89,0,0,1,9.9,9.88l-.07-79.08a9.9,9.9,0,0,0-9.9-9.88l-53.06,0"/><path class="cls-2" d="M92.46,111.26a6.18,6.18,0,0,0,6.17-6.19"/><path class="cls-3" d="M92.46,111.26a6.18,6.18,0,0,0,6.17-6.19"/><path class="cls-5" d="M24.82,17.19V11a3.41,3.41,0,0,1,3.41-3.41h.14A3.41,3.41,0,0,1,31.77,11v6.16Z"/><path class="cls-3" d="M24.82,17.19V11a3.41,3.41,0,0,1,3.41-3.41h.14A3.41,3.41,0,0,1,31.77,11v6.16Z"/><path class="cls-2" d="M21.08,115.4l14.62,0a6.82,6.82,0,0,0,6.82-6.84l-.08-85.06a6.83,6.83,0,0,0-6.84-6.83H21a6.85,6.85,0,0,0-6.83,6.84l.08,85.07a6.85,6.85,0,0,0,6.84,6.83"/><rect class="cls-3" x="14.2" y="16.66" width="28.28" height="98.73" rx="6.83"/><path class="cls-6" d="M21.2,115.4l14.38,0a7,7,0,1,0,0-13.9H21.19a7,7,0,0,0,0,13.91"/><path class="cls-3" d="M21.2,115.4l14.38,0a7,7,0,1,0,0-13.9H21.19a7,7,0,0,0,0,13.91Z"/><line class="cls-2" x1="35.2" y1="108.64" x2="20.73" y2="108.65"/><line class="cls-3" x1="35.2" y1="108.64" x2="20.73" y2="108.65"/><path class="cls-5" d="M24.59,108.65v6a3.32,3.32,0,0,0,3.32,3.31H28a3.32,3.32,0,0,0,3.31-3.32v-6Z"/><path class="cls-3" d="M24.59,108.65v6a3.32,3.32,0,0,0,3.32,3.31H28a3.32,3.32,0,0,0,3.31-3.32v-6Z"/><path class="cls-6" d="M105.33,39.11c0,7.75.2,13.2-4.87,18.28S90.71,65.87,83,65.88s-19.62-.25-24.7-5.32-5.62-17-5.63-24.76S57,19,62,15.49c6.89-4.76,9.85-4.77,17.6-4.78S95.7,12.89,100.79,18s4.54,13.41,4.54,21.15"/><path class="cls-3" d="M105.33,39.11c0,7.75.2,13.2-4.87,18.28S90.71,65.87,83,65.88s-19.62-.25-24.7-5.32-5.62-17-5.63-24.76S57,19,62,15.49c6.89-4.76,9.85-4.77,17.6-4.78S95.7,12.89,100.79,18,105.33,31.37,105.33,39.11Z"/><path class="cls-2" d="M108.39,36.12c0,7.74-1,14.51-6.07,19.59s-11.84,7.17-19.58,7.18-16.33-.25-21.41-5.33-5.72-13.65-5.72-21.39S57,20.57,62,15.5,74.94,7.73,82.68,7.72,98.76,9.9,103.84,15s4.54,13.4,4.55,21.15"/><path class="cls-6" d="M108.39,36.12c0,7.74-1,14.51-6.07,19.59s-11.84,7.17-19.58,7.18-16.33-.25-21.41-5.33-5.72-13.65-5.72-21.39S57,20.57,62,15.5,74.94,7.73,82.68,7.72,98.76,9.9,103.84,15s4.54,13.4,4.55,21.15"/><path class="cls-3" d="M108.39,36.12c0,7.74-1,14.51-6.07,19.59s-11.84,7.17-19.58,7.18-16.33-.25-21.41-5.33-5.72-13.65-5.72-21.39S57,20.57,62,15.5,74.94,7.73,82.68,7.72,98.76,9.9,103.84,15,108.38,28.37,108.39,36.12Z"/><path class="cls-7" d="M105.18,36.2c-.72,6.91-4.6,11.53-7.82,15.53-3.62,4.5-7.69,6.18-14.55,6.19s-13.49.09-18-4.15C60.71,49.9,60.69,43.6,60.16,36c-.33-4.82.18-7.83,2.19-11.32,2.13-3.69,3.41-8.07,7.57-10a32,32,0,0,1,12.85-2.48c7.87,0,13.52,2.37,17.19,6.29S106,28.05,105.18,36.2Z"/><rect class="cls-2" x="74.5" y="29.1" width="15.96" height="15.74"/><polyline class="cls-2" points="70.19 39.95 70.17 29.66 77.59 29.65 77.6 42.29"/><polyline class="cls-3" points="70.19 39.95 70.17 29.66 77.59 29.65 77.6 42.29"/><path class="cls-2" d="M88.08,22.63h-11a6.9,6.9,0,0,0-6.9,6.91v.11l21.72,0V21Z"/><path class="cls-3" d="M88.08,22.63h-11a6.9,6.9,0,0,0-6.9,6.91v.11l21.72,0V21Z"/><polyline class="cls-2" points="83.83 44.84 83.83 50.3 75.37 50.31 75.36 44.2"/><polyline class="cls-3" points="83.83 44.84 83.83 50.3 75.37 50.31 75.36 44.2"/><polyline class="cls-2" points="80.5 44.84 90.31 44.83 90.31 40.38 93.28 40.38 90.3 33.67 90.3 29.64"/><polyline class="cls-3" points="80.5 44.84 90.31 44.83 90.31 40.38 93.28 40.38 90.3 33.67 90.3 29.64"/><path class="cls-2" d="M75.26,44.56H70a2.35,2.35,0,0,1,0-4.7h5.25a2.35,2.35,0,1,1,0,4.69"/><path class="cls-3" d="M75.26,44.56H70a2.35,2.35,0,0,1,0-4.7h5.25a2.35,2.35,0,1,1,0,4.69Z"/></g></g></svg>