<svg xmlns="http://www.w3.org/2000/svg" viewBox="0 0 128.16 93.15"><defs><style>.cls-1{fill:#fff;stroke:#333;}.cls-1,.cls-3,.cls-4{stroke-linecap:round;stroke-linejoin:round;}.cls-1,.cls-3{stroke-width:0.5px;}.cls-2{fill:#009fe3;}.cls-3,.cls-4{fill:none;stroke:#fff;}.cls-4{stroke-width:0.39px;}</style></defs><g id="Layer_2" data-name="Layer 2"><g id="Layer_1-2" data-name="Layer 1"><path class="cls-1" d="M82.48,92.9H116.8a2.47,2.47,0,0,0,0-4.93H82.48a.59.59,0,0,1-.52-.29.61.61,0,0,1,0-.61L90,71.75a2.47,2.47,0,0,0-1-3.33H55.91S47,87.68,47.3,88s2.46,1.64,2.46,1.64l23,3.24Z"/><path class="cls-1" d="M85.08,92.9H50.76a5.55,5.55,0,0,1-4.9-8.13l8.07-15.32a2.46,2.46,0,1,1,4.36,2.3L50.22,87.07a.61.61,0,0,0,0,.61.59.59,0,0,0,.52.29H85.08a2.47,2.47,0,0,1,0,4.93Z"/><rect class="cls-1" x="18.91" y="0.25" width="104.22" height="72.94" rx="2.67" transform="translate(142.04 73.44) rotate(-180)"/><path class="cls-1" d="M127.91,5.47V68a5.23,5.23,0,0,1-5.22,5.22H28.91A5.22,5.22,0,0,1,23.69,68V5.47A5.21,5.21,0,0,1,28.91.25h93.78A5.22,5.22,0,0,1,127.91,5.47Z"/><rect class="cls-2" x="28.31" y="4.87" width="94.98" height="63.7" rx="0.6"/><ellipse class="cls-3" cx="46.6" cy="12.67" rx="10.93" ry="3.76"/><line class="cls-3" x1="61.49" y1="12.67" x2="77.34" y2="12.67"/><path class="cls-3" d="M33.93,20.87h85.33"/><line class="cls-3" x1="97.52" y1="12.67" x2="102.65" y2="12.67"/><line class="cls-3" x1="105.83" y1="12.67" x2="110.96" y2="12.67"/><line class="cls-3" x1="114.13" y1="12.67" x2="119.26" y2="12.67"/><rect class="cls-3" x="33.55" y="24.87" width="13.05" height="39.34"/><rect class="cls-3" x="49.64" y="24.87" width="69.62" height="3.27"/><rect class="cls-3" x="97.52" y="15.23" width="21.74" height="2.15"/><rect class="cls-3" x="49.64" y="30.09" width="11.85" height="7.16"/><rect class="cls-3" x="64.08" y="30.09" width="11.85" height="7.16"/><rect class="cls-3" x="78.53" y="30.09" width="11.85" height="7.16"/><rect class="cls-3" x="92.97" y="30.09" width="11.85" height="7.16"/><rect class="cls-3" x="107.41" y="30.09" width="11.85" height="7.16"/><rect class="cls-3" x="49.64" y="39.08" width="11.85" height="7.16"/><rect class="cls-3" x="64.08" y="39.08" width="11.85" height="7.16"/><rect class="cls-3" x="78.53" y="39.08" width="11.85" height="7.16"/><rect class="cls-3" x="92.97" y="39.08" width="11.85" height="7.16"/><rect class="cls-3" x="107.41" y="39.08" width="11.85" height="7.16"/><rect class="cls-3" x="49.64" y="48.07" width="11.85" height="7.16"/><rect class="cls-3" x="64.08" y="48.07" width="11.85" height="7.16"/><rect class="cls-3" x="78.53" y="48.07" width="11.85" height="7.16"/><rect class="cls-3" x="92.97" y="48.07" width="11.85" height="7.16"/><rect class="cls-3" x="107.41" y="48.07" width="11.85" height="7.16"/><rect class="cls-3" x="49.64" y="57.06" width="11.85" height="7.16"/><rect class="cls-3" x="64.08" y="57.06" width="11.85" height="7.16"/><rect class="cls-3" x="78.53" y="57.06" width="11.85" height="7.16"/><rect class="cls-3" x="92.97" y="57.06" width="11.85" height="7.16"/><rect class="cls-3" x="107.41" y="57.06" width="11.85" height="7.16"/><rect class="cls-3" x="34.78" y="26.51" width="10.43" height="2.46"/><rect class="cls-3" x="35.19" y="52.43" width="4.81" height="10.14"/><rect class="cls-3" x="61.49" y="14.59" width="12.43" height="1.84"/><line class="cls-3" x1="41.34" y1="55.43" x2="45.21" y2="55.43"/><line class="cls-3" x1="41.34" y1="57.5" x2="45.21" y2="57.5"/><line class="cls-3" x1="41.34" y1="59.58" x2="45.21" y2="59.58"/><line class="cls-4" x1="34.78" y1="32.35" x2="45.21" y2="32.35"/><line class="cls-4" x1="34.78" y1="34.07" x2="45.21" y2="34.07"/><line class="cls-4" x1="34.78" y1="35.8" x2="45.21" y2="35.8"/><line class="cls-4" x1="34.78" y1="37.53" x2="45.21" y2="37.53"/><line class="cls-4" x1="34.78" y1="39.25" x2="45.21" y2="39.25"/><line class="cls-4" x1="34.78" y1="40.98" x2="45.21" y2="40.98"/><line class="cls-4" x1="34.78" y1="42.71" x2="45.21" y2="42.71"/><line class="cls-4" x1="34.78" y1="44.43" x2="45.21" y2="44.43"/><line class="cls-4" x1="34.78" y1="46.16" x2="45.21" y2="46.16"/><line class="cls-4" x1="34.78" y1="47.89" x2="45.21" y2="47.89"/><line class="cls-4" x1="34.78" y1="49.61" x2="45.21" y2="49.61"/><path class="cls-1" d="M24.82,46h1.25a0,0,0,0,1,0,0v3.61a0,0,0,0,1,0,0H24.82a1,1,0,0,1-1-1V47A1,1,0,0,1,24.82,46Z" transform="translate(76.5 32.16) rotate(100.72)"/><polygon class="cls-1" points="17.58 78.36 22.94 48.55 26.49 49.23 21.13 79.03 17.58 78.36"/><polygon class="cls-1" points="21.13 79.03 18.52 83.14 17.58 78.36 21.13 79.03"/><polygon class="cls-1" points="19.74 81.21 18.08 80.9 18.52 83.14 19.74 81.21"/><path class="cls-1" d="M9.12,43h1.25a0,0,0,0,1,0,0v3.61a0,0,0,0,1,0,0H9.12a1,1,0,0,1-1-1V44A1,1,0,0,1,9.12,43Z" transform="translate(53.13 32.02) rotate(85.42)"/><polygon class="cls-1" points="10.21 76.23 7.51 46.07 11.12 45.78 13.81 75.95 10.21 76.23"/><polygon class="cls-1" points="13.81 75.95 12.37 80.6 10.21 76.23 13.81 75.95"/><polygon class="cls-1" points="13.04 78.42 11.35 78.55 12.37 80.6 13.04 78.42"/><path class="cls-1" d="M2,46.28H3.2a0,0,0,0,1,0,0V49.9a0,0,0,0,1,0,0H2a1,1,0,0,1-1-1V47.32A1,1,0,0,1,2,46.28Z" transform="translate(48.06 33.93) rotate(75.34)"/><polygon class="cls-1" points="8.53 78.88 0.6 49.65 4.09 48.74 12.03 77.97 8.53 78.88"/><polygon class="cls-1" points="12.03 77.97 11.42 82.8 8.53 78.88 12.03 77.97"/><polygon class="cls-1" points="11.71 80.53 10.06 80.96 11.42 82.8 11.71 80.53"/><polygon class="cls-1" points="21.97 92.9 7.03 92.9 4.04 65.33 24.96 65.33 21.97 92.9"/><rect class="cls-1" x="4.04" y="65.33" width="20.92" height="4.3"/></g></g></svg>