<svg xmlns="http://www.w3.org/2000/svg" viewBox="0 0 225.31 221.5"><defs><style>.cls-1{fill:#e4e0ee;}.cls-2,.cls-4,.cls-6{fill:none;stroke-miterlimit:10;}.cls-2{stroke:#91d5ab;}.cls-2,.cls-4{stroke-width:2.1px;stroke-dasharray:7.21 7.21;}.cls-3{fill:#91d5ab;}.cls-4,.cls-6{stroke:#b6acd1;}.cls-5{fill:#b6acd1;}.cls-6{stroke-width:6px;}.cls-7{fill:#4e2a84;}</style></defs><title>Asset 12</title><g id="Layer_2" data-name="Layer 2"><g id="Layer_1-2" data-name="Layer 1"><circle class="cls-1" cx="112.27" cy="110.62" r="102.41"/><polyline class="cls-2" points="107.39 1.61 1.49 107.07 76.01 181.59"/><polygon class="cls-3" points="96.38 0.43 96.45 2.54 106.81 2.18 106.42 12.54 108.52 12.62 109 0 96.38 0.43"/><polyline class="cls-4" points="117.78 219.89 223.82 114.29 151.57 42.04"/><polygon class="cls-5" points="128.78 221.07 128.71 218.96 118.35 219.32 118.75 208.96 116.65 208.88 116.17 221.5 128.78 221.07"/><path class="cls-6" d="M50.36,103.21,22.05,74.89a38.66,38.66,0,0,1,0-54.69h0a38.66,38.66,0,0,1,54.69,0l28.31,28.31"/><rect class="cls-7" x="57.09" y="51.08" width="110.07" height="118.41" transform="translate(-45.14 111.59) rotate(-45)"/><path class="cls-3" d="M134.77,119.89,110.83,100.5a8.82,8.82,0,0,0-2.44-7.45A9.56,9.56,0,0,0,94.9,106.54a8.78,8.78,0,0,0,7.44,2.44l19.4,23.94Z"/></g></g></svg>