<svg xmlns="http://www.w3.org/2000/svg" viewBox="0 0 129.22 129.22"><defs><style>.cls-1{fill:#eceaea;}.cls-2,.cls-4,.cls-6{fill:none;stroke-width:3px;}.cls-2,.cls-6{stroke:#b2b3b3;}.cls-2,.cls-4{stroke-linejoin:round;}.cls-3{fill:#fff;}.cls-4{stroke:#b0b0b1;}.cls-5{fill:#55acee;}.cls-6{stroke-miterlimit:10;}.cls-7{fill:#e63635;}</style></defs><title>Asset 4</title><g id="Layer_2" data-name="Layer 2"><g id="Layer_1-2" data-name="Layer 1"><path class="cls-1" d="M0,64.67a64.61,64.61,0,1,1,64.67,64.55A64.61,64.61,0,0,1,0,64.67"/><path class="cls-2" d="M63.19,110.78A46.19,46.19,0,0,1,18.66,63"/><path class="cls-2" d="M62.8,17.89a46.19,46.19,0,0,1,48.27,44"/><polygon class="cls-3" points="15.61 54.69 32.2 65.69 64.65 45.79 47.71 34.48 15.61 54.69"/><polygon class="cls-2" points="15.61 54.69 32.2 65.69 64.65 45.79 47.71 34.48 15.61 54.69"/><polygon class="cls-3" points="15.6 49.64 32.19 60.64 64.64 40.74 47.7 29.43 15.6 49.64"/><polygon class="cls-2" points="15.6 49.64 32.19 60.64 64.64 40.74 47.7 29.43 15.6 49.64"/><polygon class="cls-3" points="15.6 44.58 32.19 55.58 64.64 35.69 47.7 24.38 15.6 44.58"/><polygon class="cls-2" points="15.6 44.58 32.19 55.58 64.64 35.69 47.7 24.38 15.6 44.58"/><polygon class="cls-3" points="15.59 39.53 32.18 50.53 64.64 30.63 47.69 19.32 15.59 39.53"/><polygon class="cls-2" points="15.59 39.53 32.18 50.53 64.64 30.63 47.69 19.32 15.59 39.53"/><path class="cls-1" d="M25.19,37.62l20.42-13s2.5,1.54,4.52,0c.93.7,5.57,3.88,5.57,3.88a2.45,2.45,0,0,0,0,3C54.08,32.77,35,44.78,35,44.78a6.05,6.05,0,0,0-5,0c-1.28-.8-5-3.46-5-3.46a3.76,3.76,0,0,0,.26-3.7"/><path class="cls-4" d="M25.19,37.62l20.42-13s2.5,1.54,4.52,0c.93.7,5.57,3.88,5.57,3.88a2.45,2.45,0,0,0,0,3C54.08,32.77,35,44.78,35,44.78a6.05,6.05,0,0,0-5,0c-1.28-.8-5-3.46-5-3.46A3.76,3.76,0,0,0,25.19,37.62Z"/><polygon class="cls-5" points="28.72 31.27 45.36 42.45 53.01 37.76 36.25 26.52 28.72 31.27"/><polygon class="cls-6" points="28.72 31.27 45.36 42.45 53.01 37.76 36.25 26.52 28.72 31.27"/><polygon class="cls-5" points="45.36 42.45 45.37 57.61 53.02 52.92 53.01 37.76 45.36 42.45"/><polygon class="cls-6" points="45.36 42.45 45.37 57.61 53.02 52.92 53.01 37.76 45.36 42.45"/><polygon class="cls-3" points="53.13 67.32 82.21 84.19 82.23 111.12 53.15 94.48 53.13 67.32"/><polygon class="cls-2" points="53.13 67.32 82.21 84.19 82.23 111.12 53.15 94.48 53.13 67.32"/><polygon class="cls-3" points="82.21 84.19 111.11 67.27 111.14 93.84 82.23 111.12 82.21 84.19"/><polygon class="cls-2" points="82.21 84.19 111.11 67.27 111.14 93.84 82.23 111.12 82.21 84.19"/><polygon class="cls-3" points="53.13 67.32 82.18 51.77 111.11 67.27 82.21 84.19 53.13 67.32"/><polygon class="cls-2" points="53.13 67.32 82.18 51.77 111.11 67.27 82.21 84.19 53.13 67.32"/><polygon class="cls-7" points="65.28 60.82 94.23 77.15 94.25 87.14 101.19 83.07 101.19 73.08 72.8 56.79 65.28 60.82"/><polygon class="cls-4" points="65.28 60.82 94.23 77.15 94.25 87.14 101.19 83.07 101.19 73.08 72.8 56.79 65.28 60.82"/><line class="cls-3" x1="111.11" y1="67.27" x2="82.21" y2="84.19"/><line class="cls-2" x1="111.11" y1="67.27" x2="82.21" y2="84.19"/><line class="cls-3" x1="75.61" y1="89.95" x2="59.4" y2="80.54"/><line class="cls-2" x1="75.61" y1="89.95" x2="59.4" y2="80.54"/><line class="cls-3" x1="75.62" y1="96.58" x2="59.4" y2="87.18"/><line class="cls-2" x1="75.62" y1="96.58" x2="59.4" y2="87.18"/><polyline class="cls-2" points="68.9 11.21 62.8 17.89 69.56 24.05"/><polyline class="cls-2" points="56.57 116.98 63.19 110.81 56.96 104.12"/></g></g></svg>