<svg xmlns="http://www.w3.org/2000/svg" viewBox="0 0 564.67 430.02"><defs><style>.cls-1{fill:#c1c1c1;}.cls-2{fill:#9b9b9b;}.cls-3{fill:#afafaf;}.cls-4{fill:none;stroke:gray;stroke-miterlimit:10;stroke-width:3px;}.cls-5{fill:#e6e6e6;}.cls-6{fill:#a31f34;}</style></defs><g id="Layer_2" data-name="Layer 2"><g id="Layer_20" data-name="Layer 20"><polygon class="cls-1" points="529.88 271.96 34.36 263.94 97.33 163.3 455.13 163.3 529.88 271.96"/><polygon class="cls-2" points="457.21 177.84 111.17 177.14 109.1 130.08 457.21 130.77 457.21 177.84"/><polygon class="cls-2" points="109.1 130.08 3.21 249.12 54.43 249.12 111.17 177.14 109.1 130.08"/><polygon class="cls-2" points="456.17 130.08 562.06 249.12 510.84 249.12 454.1 177.14 456.17 130.08"/><path class="cls-3" d="M315.5,248.43c-.39,8.44-15,15.22-32.95,15.22s-32.55-6.78-32.94-15.22H6.92a6.47,6.47,0,0,0-6.48,6.45V335.1H564.67V254.88a6.47,6.47,0,0,0-6.48-6.45Z"/><path class="cls-1" d="M281.77,256.73c-15.86,0-29.34-3.81-34.3-9.13a6.64,6.64,0,0,0-2,4.5c0,7.53,16.26,15.71,36.33,15.71s36.33-8.18,36.33-15.71a6.64,6.64,0,0,0-2-4.5C311.11,252.92,297.63,256.73,281.77,256.73Z"/><path class="cls-4" d="M0,293.11H564.65"/><path class="cls-5" d="M109.1,130.08l349.18.79L562.66,249.23,4,248.23S112,127,109.1,130.08Z"/><polygon class="cls-6" points="274.9 129.14 262.65 250.22 300.89 249.55 288.1 129.14 274.9 129.14"/><rect class="cls-6" x="262.78" y="249.22" width="38.11" height="86.87"/><polygon class="cls-6" points="85.79 156.45 75.82 166.43 490.83 166.43 481.85 156.45 85.79 156.45"/><path class="cls-6" d="M272.39,155.7l-1.53.49a31.07,31.07,0,0,0-4.29,1.67l-1.42.72-.75.39-.76.47-1.62,1-1.66,1.21a42.36,42.36,0,0,0-6.93,6.72,51.16,51.16,0,0,0-6.39,10,58.53,58.53,0,0,0-2.59,6.15c-.71,2.17-1.42,4.48-2,6.94A114.68,114.68,0,0,0,240,207.6c-.53,5.88-.82,12.24-1.26,19.14A269.11,269.11,0,0,1,215,322a170.8,170.8,0,0,1-14.12,25.25A112.09,112.09,0,0,1,180.42,370a82.64,82.64,0,0,1-27.54,15.27,61.19,61.19,0,0,1-31.14,2l1.73-.23,2.1-.27,2.85-.53a67.73,67.73,0,0,0,7.68-2.08,69.27,69.27,0,0,0,9.73-4.16A82.84,82.84,0,0,0,167.9,363c7.27-7.76,14-17.87,19.76-29.83,2.93-6,5.62-12.42,8.23-19.25s5.12-14.05,7.52-21.48c4.8-14.88,9.13-30.79,12.74-47.49.89-4.18,1.76-8.41,2.56-12.68s1.56-8.62,2.38-13.13c1.64-9,3.58-18.54,7.16-27.92a71.76,71.76,0,0,1,6.84-13.62,55.23,55.23,0,0,1,10-11.58,44.73,44.73,0,0,1,12.85-8A33.75,33.75,0,0,1,272.39,155.7Z"/><path class="cls-6" d="M285,162.9l1.39-1.33a51.55,51.55,0,0,1,4.34-3.69A61.44,61.44,0,0,1,310.59,148a65.29,65.29,0,0,1,16.32-2.57c1.53,0,3.1,0,4.71.05s3.25.18,4.91.44a45.91,45.91,0,0,1,10.58,2.44,29.92,29.92,0,0,1,11.11,6.95c.41.45.84.9,1.23,1.38l1.13,1.47a23.49,23.49,0,0,1,2,3.19,12.82,12.82,0,0,1,.83,1.71l.73,1.78c.39,1.19.76,2.42,1,3.65a41,41,0,0,1,.24,14.42,80.34,80.34,0,0,1-3.26,13.2c-.69,2.12-1.44,4.19-2.19,6.24s-1.4,3.91-2.12,5.91c-1.39,4-2.83,8-4.18,12.23-2.73,8.33-5.36,17-7.74,26.07a290.07,290.07,0,0,0-9.55,58.15,204.22,204.22,0,0,0,.67,31.49,186.82,186.82,0,0,0,6.15,32.37l.55,2c.2.68.44,1.34.65,2,.44,1.35.87,2.7,1.31,4.05s1,2.68,1.44,4,1,2.69,1.51,4,1.13,2.64,1.69,4,1.1,2.69,1.75,4,1.27,2.62,1.91,3.93l1,2L356,400.5a142.13,142.13,0,0,0,21,29.52l-1.74-1.17c-1.14-.79-2.87-1.93-5.06-3.52a125.77,125.77,0,0,1-17.31-16,138.32,138.32,0,0,1-20.52-30.9c-.41-.81-.81-1.63-1.22-2.45s-.75-1.68-1.13-2.54q-1.11-2.56-2.26-5.21c-1.33-3.6-2.84-7.28-4-11.18-.31-1-.61-2-.93-2.93l-.46-1.48-.4-1.51q-.79-3-1.62-6.14c-.91-4.17-1.88-8.46-2.52-12.9a183.68,183.68,0,0,1-2.22-27.83,213,213,0,0,1,2.06-29.67,267.76,267.76,0,0,1,16.49-61.24l1.51-3.81c.53-1.27,1.07-2.53,1.6-3.8l1.62-3.8c.56-1.26,1.13-2.52,1.7-3.78q1.65-3.63,3.31-7.28c1-2.32,2-4.61,2.81-6.86,1.59-4.47,2.67-8.9,2.44-12.48a12.81,12.81,0,0,0-1.15-4.88c-.2-.35-.38-.74-.58-1.11a11.28,11.28,0,0,0-.72-1,13.76,13.76,0,0,0-1.93-2c-3-2.57-7.72-4.5-12.68-5.81a60.51,60.51,0,0,0-15.48-2A64.35,64.35,0,0,0,285,162.9Z"/><path class="cls-6" d="M323.91,286.11l.14.77c.1.51.2,1.26.41,2.24a77,77,0,0,0,2.09,8.27c1.07,3.5,2.58,7.67,4.53,12.45s4.27,10.31,6.68,16.39,5,12.65,7.89,19.52,6.07,14.06,9.91,21.28a139.49,139.49,0,0,0,13.89,21.46,92.4,92.4,0,0,0,20.61,19.37s-1.13-.21-3.28-.69c-1-.28-2.35-.64-3.88-1.12s-3.26-1.12-5.15-2a69.44,69.44,0,0,1-13-7.52,83,83,0,0,1-14.32-13.44,100.47,100.47,0,0,1-12.71-19.35,136,136,0,0,1-9.25-23.62c-1.22-4.18-2.3-8.46-3.24-12.8s-1.77-8.71-2.43-13.29a86.37,86.37,0,0,1-1-14A51.35,51.35,0,0,1,323.91,286.11Z"/><path class="cls-6" d="M117.74,377.73s1-.51,2.87-1.39c.94-.42,2.09-1,3.43-1.66l2.17-1.06,2.43-1.26c3.44-1.74,7.54-4,12.14-6.7s9.68-6,14.95-9.79a133,133,0,0,0,15.92-13.54c.68-.63,1.27-1.33,1.91-2s1.3-1.34,1.89-2.06c1.19-1.45,2.46-2.85,3.59-4.43s2.3-3.16,3.46-4.8c.57-.83,1.09-1.71,1.66-2.57l.83-1.3.8-1.36c4.34-7.21,8.31-15.48,12.67-24.21s9.21-17.91,15.46-26.33c0,0-.28,1.17-.79,3.36S211.88,282,211,286s-1.92,8.94-3.23,14.58a180.3,180.3,0,0,1-5.37,19c-.64,1.74-1.25,3.51-2,5.29-.37.9-.75,1.8-1.13,2.71L198,330.3c-.83,1.84-1.88,3.66-2.88,5.52-.51.93-1.11,1.83-1.67,2.75s-1.13,1.86-1.8,2.75l-2,2.71c-.66.91-1.42,1.76-2.14,2.64-1.43,1.79-3.06,3.4-4.67,5.07a83.3,83.3,0,0,1-10.82,8.9c-1.91,1.4-4,2.57-6,3.83s-4.14,2.35-6.32,3.35a99.74,99.74,0,0,1-13.4,5.34,104.81,104.81,0,0,1-14.13,3.36A99.1,99.1,0,0,1,117.74,377.73Z"/><path class="cls-6" d="M278.3,163.29s-.72-2.55-2-7.38S273,144,270.12,135.08a589.53,589.53,0,0,0-28.66-73.15q-1.34-2.76-2.69-5.6l-2.84-5.68c-1-1.91-2-3.81-3-5.74s-2-3.9-3.08-5.75a60.6,60.6,0,0,0-6.6-9.88,22.09,22.09,0,0,0-7.64-6.07,14.69,14.69,0,0,0-4-1.21,8.1,8.1,0,0,0-6.3,1.57,14.23,14.23,0,0,0-2.92,3,17.74,17.74,0,0,0-2.19,4.19,19.24,19.24,0,0,0-.68,2.46,23.23,23.23,0,0,0-.44,2.75A44.86,44.86,0,0,0,200,49a116.28,116.28,0,0,0,10.27,29.07,169.77,169.77,0,0,0,18,28.08c1.75,2.24,3.64,4.56,5.53,6.87l5.74,6.92q5.82,6.9,11.92,13.76c8.15,9.13,16.73,18.15,25.93,26.88l-1.75,1a26,26,0,0,1,.86-5.1,28.31,28.31,0,0,0,.9-5.07,13.22,13.22,0,0,1,.28,2.56c0,.86,0,1.92,0,3.19a22.5,22.5,0,0,0,.26,4.17l.55,2.61L276,162.43a292.35,292.35,0,0,1-42.26-30.86q-6.83-5.89-14.15-12.84a172.23,172.23,0,0,1-14.78-16,143.65,143.65,0,0,1-13.57-19.85,125.25,125.25,0,0,1-5.74-11.54c-.92-2-1.67-4.09-2.5-6.18s-1.52-4.24-2.14-6.45a80.69,80.69,0,0,1-3.09-14.1,51.1,51.1,0,0,1,.53-16.36c.14-.71.33-1.43.5-2.14s.43-1.48.65-2.22.52-1.45.79-2.18l.92-2.13a37.61,37.61,0,0,1,5-8,33.79,33.79,0,0,1,7.43-6.7A29.82,29.82,0,0,1,203.56.69,30.79,30.79,0,0,1,214.32.3,34,34,0,0,1,224,3.17a40.31,40.31,0,0,1,8.21,5.05,43.25,43.25,0,0,1,3.54,3.18c1.09,1.08,2.1,2.21,3.05,3.36A71.47,71.47,0,0,1,247.67,29c1.15,2.36,2.2,4.62,3.19,6.92s2,4.6,3,6.93a328.75,328.75,0,0,1,17.91,58.59A298.25,298.25,0,0,1,278.3,163.29Z"/><path class="cls-6" d="M284.05,156.42s0-2.59,0-7.53.42-12.23,1.56-21.56a277.42,277.42,0,0,1,6.19-33.72,344.58,344.58,0,0,1,13.89-43.2c1.55-3.9,3.15-7.89,4.91-11.91.88-2,1.74-4,2.69-6.12s2-4.25,3.14-6.46a61.6,61.6,0,0,1,9.29-13.47c.53-.54,1-1.08,1.59-1.61s1.14-1.09,1.75-1.6a39.86,39.86,0,0,1,3.79-2.89,37.12,37.12,0,0,1,8.88-4.46A32.15,32.15,0,0,1,352.45.07a29.31,29.31,0,0,1,11.46,2.35,32.26,32.26,0,0,1,9.49,6.34A37,37,0,0,1,380,17.4a38,38,0,0,1,2.26,4.89,39.15,39.15,0,0,1,1.56,5.14A46.57,46.57,0,0,1,385,37.55a69.41,69.41,0,0,1-2.69,18.62,121,121,0,0,1-14.71,32.77,155,155,0,0,1-23.08,28.12A224.61,224.61,0,0,1,316,140.23c-10.1,7-20.66,13.47-31.44,19.75L282.76,161l.44-1.85c.58-2.47,1.21-5.13,1.83-7.78,0,0,.06,2.65.06,8l-1.64-.94,14.06-13.31c6-5.69,13.15-12.58,20.91-20.79a231.43,231.43,0,0,0,23.58-29,160.44,160.44,0,0,0,10.54-18.06,120.36,120.36,0,0,0,7.9-20.45c2-7.22,3.45-14.71,2.77-20.9a22.65,22.65,0,0,0-.87-4.38,17.06,17.06,0,0,0-1.61-3.67,13.39,13.39,0,0,0-5-5.07,7.36,7.36,0,0,0-2.66-.84,10,10,0,0,0-3.22.16A17.9,17.9,0,0,0,342.31,26a36.63,36.63,0,0,0-7,8.41c-2.22,3.45-4.38,7.54-6.61,11.81C310.93,80,294.4,116.57,284.05,156.42Z"/></g></g></svg>