<svg xmlns="http://www.w3.org/2000/svg" viewBox="0 0 138.42 138.42"><defs><style>.cls-1{fill:#a31f34;}.cls-2{fill:#f4f4f4;}.cls-3{fill:#292b30;}.cls-4{fill:#bbb;}.cls-5{fill:#707070;}.cls-6{fill:#fff;}</style></defs><title>Asset 6</title><g id="Layer_2" data-name="Layer 2"><g id="Icons"><circle class="cls-1" cx="69.21" cy="69.21" r="69.21"/><path class="cls-1" d="M131,38.13a69.21,69.21,0,1,0-71.54,99.6Z"/><path class="cls-2" d="M115.56,73.48a23.48,23.48,0,1,0-8,7.82l9.26,1.3Z"/><circle class="cls-3" cx="84.1" cy="61.2" r="3.46"/><circle class="cls-3" cx="95.67" cy="61.2" r="3.46"/><circle class="cls-3" cx="107.23" cy="61.2" r="3.46"/><path class="cls-4" d="M75.63,44.09a20.3,20.3,0,0,0-18.89,3.6,23.66,23.66,0,0,0-7.55,11.12c-1.63,5.2-.11,8.64,1.54,13.52a42.07,42.07,0,0,1,.74,23.25c-.67,2.62-1.53,5.66.08,7.83a6.33,6.33,0,0,0,4.29,2.18,13.17,13.17,0,0,0,9.08-2,33.39,33.39,0,0,0,5.81-5.71c3.68-4.07,7.87-7.65,11.55-11.71,7.47-8.26,11-18.51,6.35-29.17C86.24,51.42,82,46.52,76.34,44.34Z"/><path class="cls-5" d="M82.32,64.23c-2.57-5.36-8-10.29-14.27-10.36-4.61-.06-10.18,2.73-10.74,7.77-.59,5.25,4.17,7.12,7.93,9.33,1.65,1,4.38,3,3.74,5.26-.34,1.19-1.84,1.72-2.87,2.1a40.24,40.24,0,0,0-3.76,1.49c-2.87,1.41-5.26,4.68-3,7.71,2.46,3.29,7,2.45,10.23,1.1.88-.36.5-1.81-.39-1.44-2.68,1.1-7.88,2.41-9.13-1.45C59,82.38,63.66,80.79,66,80c1.72-.61,3.89-1.37,4.43-3.34.49-1.78-.56-3.75-1.78-5C66,69,61.37,68.35,59.42,65.05c-2.73-4.65,2.43-8.72,6.52-9.5C72.43,54.33,78.38,59.49,81,65c.42.87,1.71.11,1.3-.75Z"/><circle class="cls-3" cx="40.39" cy="77.43" r="15.68"/><path class="cls-6" d="M39.1,64.14a17.83,17.83,0,0,1,.23,24.92c-.47.48.27,1.23.74.74a18.88,18.88,0,0,0-.23-26.4.52.52,0,0,0-.74.74Z"/><path class="cls-6" d="M34.77,69.21a11.52,11.52,0,0,1,.15,16.1c-.47.49.27,1.23.74.75a12.59,12.59,0,0,0-.15-17.59.52.52,0,0,0-.74.74Z"/></g></g></svg>