<svg xmlns="http://www.w3.org/2000/svg" viewBox="0 0 164.17 164.17"><defs><style>.cls-1{fill:#e5e5e5;}.cls-2{fill:#666;}.cls-3{fill:#999;}.cls-4{fill:#32373e;}.cls-5{fill:#932c37;}.cls-6{fill:#fff;}</style></defs><g id="Layer_2" data-name="Layer 2"><g id="Layer_4" data-name="Layer 4"><circle class="cls-1" cx="82.09" cy="82.09" r="82.09"/><path class="cls-2" d="M59.34,59.31a1.76,1.76,0,0,0-1.72-.09L35.62,70a1.77,1.77,0,0,0-1,1.6V125a1.77,1.77,0,0,0,1.78,1.78,1.81,1.81,0,0,0,.78-.18l22-10.73a1.79,1.79,0,0,0,1-1.6V60.82A1.77,1.77,0,0,0,59.34,59.31Z"/><path class="cls-2" d="M103.34,59.31a1.76,1.76,0,0,0-1.72-.09L79.62,70a1.77,1.77,0,0,0-1,1.6V125a1.77,1.77,0,0,0,1.78,1.78,1.81,1.81,0,0,0,.78-.18l22-10.73a1.79,1.79,0,0,0,1-1.6V60.82A1.77,1.77,0,0,0,103.34,59.31Z"/><path class="cls-3" d="M125.18,70l-22-10.73a1.81,1.81,0,0,0-.78-.18v57.24l21.22,10.35a1.78,1.78,0,0,0,1.72-.09,1.8,1.8,0,0,0,.84-1.51V71.55A1.79,1.79,0,0,0,125.18,70Z"/><path class="cls-3" d="M80.4,69.57,59.18,59.22a2,2,0,0,0-.31-.12v57.05l20.75,10.48a1.75,1.75,0,0,0,.78.18h0Z"/><ellipse class="cls-4" cx="80.45" cy="80.46" rx="15.78" ry="6.79"/><path class="cls-5" d="M80.4,80c10-9.53,19.23-27.67,19.23-27.67a21.4,21.4,0,0,0,2.41-9.9,21.64,21.64,0,1,0-43.28,0,21.39,21.39,0,0,0,2.4,9.9S70.43,70.5,80.4,80Z"/><circle class="cls-6" cx="80.4" cy="42.46" r="9.42"/></g></g></svg>