<svg xmlns="http://www.w3.org/2000/svg" xmlns:xlink="http://www.w3.org/1999/xlink" viewBox="0 0 138.45 138.46"><defs><style>.cls-1{fill:#876176;}.cls-2,.cls-3,.cls-6{fill:none;stroke-miterlimit:10;}.cls-2{stroke:#2d2d2d;}.cls-2,.cls-3{stroke-width:2px;}.cls-3{stroke:#4c4c4c;}.cls-4{fill:#494949;}.cls-5{fill:#f4f4f4;}.cls-6{stroke:#545759;}.cls-7{fill:url(#linear-gradient);}.cls-8{fill:url(#linear-gradient-2);}.cls-9{fill:#292b30;}.cls-10{fill:#939393;}.cls-11{fill:#bbb;}</style><linearGradient id="linear-gradient" x1="74.75" y1="-106.5" x2="74.75" y2="-100.59" gradientTransform="matrix(1, 0, 0, -1, 0, -48.8)" gradientUnits="userSpaceOnUse"><stop offset="0" stop-color="#1a1f24"/><stop offset="0.28" stop-color="#272e36"/><stop offset="0.59" stop-color="#303943"/><stop offset="0.88" stop-color="#333d47"/><stop offset="1" stop-color="#333d47"/></linearGradient><linearGradient id="linear-gradient-2" x1="99.95" y1="-97.1" x2="99.95" y2="-91.19" xlink:href="#linear-gradient"/></defs><title>Asset 24</title><g id="Layer_2" data-name="Layer 2"><g id="Layer_1-2" data-name="Layer 1"><circle class="cls-1" cx="69.24" cy="69.25" r="69.21"/><path class="cls-1" d="M131.07,38.15a69.21,69.21,0,1,0-71.54,99.6Z"/><line class="cls-2" x1="80.25" y1="28.78" x2="80.25" y2="90.99"/><polyline class="cls-3" points="66.2 103.23 80.24 90.79 94.29 103.23"/><rect class="cls-4" x="50.99" y="34.47" width="59.47" height="45.52"/><rect class="cls-5" x="53.89" y="37.31" width="53.82" height="39.98"/><polyline class="cls-6" points="61.53 67.75 74.57 54.74 87.25 63.24 99.95 45.12"/><circle class="cls-1" cx="62.14" cy="67.47" r="2.96"/><circle class="cls-7" cx="74.75" cy="54.74" r="2.96"/><circle class="cls-1" cx="87.35" cy="62.9" r="2.96"/><circle class="cls-8" cx="99.95" cy="45.35" r="2.96"/><path class="cls-9" d="M35,85.72H53.34A10.45,10.45,0,0,1,63.78,96.16h0v7.44H24.51V96.14A10.44,10.44,0,0,1,35,85.72Z"/><circle class="cls-9" cx="44.14" cy="71.6" r="11.47"/><polygon class="cls-10" points="113.92 29.79 94.71 46.57 100.55 51.14 113.92 29.79"/><polygon class="cls-11" points="113.97 29.43 83.82 41.92 93.91 48.24 113.97 29.43"/><polygon class="cls-11" points="113.92 29.79 106 61.44 98.27 52.38 113.92 29.79"/></g></g></svg>