<svg xmlns="http://www.w3.org/2000/svg" viewBox="0 0 930.33 439.73"><defs><style>.cls-1{fill:#d0d1d1;}.cls-2{fill:#a31f34;}</style></defs><g id="Layer_2" data-name="Layer 2"><g id="RedGlobe_Front"><circle class="cls-1" cx="219.87" cy="219.87" r="219.87"/><path class="cls-2" d="M193.59,66.75c-1.66.41-2.9,2.8-3.42,2.69-.73,0-1-.1-1.45.31a5.55,5.55,0,0,0-.63,1c-.31.42-.72.73-1,1.14s-.42.63,0,.94.41.41-.42,1.45c-.62.83-1.76,1.35-2.18,2.39a3.5,3.5,0,0,0-.1,1.45c.21,1.14,1.87.62,2.9.2a24.47,24.47,0,0,1,2.8-1.24h0c1.35-.41,2.49,0,2.91-.52a19.62,19.62,0,0,0,1.45-2.18c.1-.41-.21-.83.21-1.14s.1-.83.21-1.35c.41-1.14.62-1.14,1-1.24s.83-.11.94-.31C197.64,69.34,195.15,66.43,193.59,66.75Zm61.73,66.5a.36.36,0,0,0-.31-.52h-.1c-.21,0-.42.21-.63.21-.72.1-.62-.21-1.14.1a2.8,2.8,0,0,1-.93.52c-.31.1-.62-.11-.94-.11s-.72.52-1.24.52-1-.52-1.66-.72c-.42-.11-.62.41-.93.31s-.32-.21-.52-.31c-.52-.21-1,1.55-.94,1.66a.75.75,0,0,0,.52.31h0c.21,0,.42-.21.73-.21.72-.1,3,1.56,3.84,1.87a4,4,0,0,1,.83.31,9.11,9.11,0,0,0,1.24.93,1,1,0,0,0,.83.11c.31,0,.73-.11,1.14-1.56.21-.52-.52-.83-.41-1.35C254.49,134.6,255.11,134.08,255.32,133.25ZM212.47,76.71h0c-.1-.11-2.18-1.15-2.69-.83s-.42.2-1.15-.21a.36.36,0,0,1,.11-.31c.83-.63.83-.63.83-.83a1.32,1.32,0,0,0-.42-.94.8.8,0,0,1-.1-.83h0a5.56,5.56,0,0,0-.73-2c-.1-.1-.1-.1-.2-.1h-1.25v-.11c.1-.41-.31-.72-.31-1s.1-.83.1-1.14a4.88,4.88,0,0,0-.1-1.15,7.39,7.39,0,0,1,.1-4.25,7.72,7.72,0,0,1,.83-1.56c.83-1.14-2.8-.93-3.52-.93-.11,0-.11,0-.11-.1v-.11c.21-.31.21-.62.42-.83s.83-.41,1.14-.62c.83-.52.1-.83-.21-.93a8,8,0,0,0-2.28-.31,2.36,2.36,0,0,0-.83.1,1.65,1.65,0,0,0-.62.62A12.26,12.26,0,0,1,199.92,60l-.1.11a1.39,1.39,0,0,1-.63.1h-.41a2.14,2.14,0,0,0-.52.41.66.66,0,0,0,.1.73.61.61,0,0,0,.73.1h0v.21l-.31.94a.1.1,0,0,1-.11.1c-.1,0-.1,0-.1-.1s-.21-.21-.31-.21h0c-.42.1-.73,1.14-.73,1.35s0,.2.11.2a1.72,1.72,0,0,1,.1,2.18c-.1.11-.1.11-.1.21s0,.31.1.42a.26.26,0,0,0,.42-.11,3.67,3.67,0,0,0,.51-.62,2.08,2.08,0,0,1,.52-.42c.21-.1.52-.2.73-.31h.31c.1.11.1.11.1.21,0,.52.21,1.14-.41,1.56a4.23,4.23,0,0,0-.73.62c-.2.1-.2.41-.1.62a.46.46,0,0,0,.62.21h0v.1c.21.63.21.63,1,.11h.1a1.37,1.37,0,0,0,.52.52,1.25,1.25,0,0,1,.62.83v.2a2.21,2.21,0,0,1-.62,2.49,2.46,2.46,0,0,1-2.49.63h0c-.1-.11-.31,0-.41.1a.3.3,0,0,0,0,.41c.1.11.2.21.2.32,0,.51-.72.31-.93.72h0v.11c0,.1,0,.1.1.2s.11.11.21.11c.31-.11.62-.31.94-.42.62,0,.1,1.56-.11,1.76a10.73,10.73,0,0,1-2.38.94c-.32.1-.52.1-.63.21s-.2.83.31,1c.73.31,1.35-.31,2-.1a3.54,3.54,0,0,1,1.66,1l.1.1a.92.92,0,0,0,.73,0,.1.1,0,0,0,.1-.1.66.66,0,0,1,.52-.21c.1,0,.31.1.31.21s0,.31-.1.41a2.07,2.07,0,0,1-1.66.62h-1.15a4.89,4.89,0,0,0-3,1.46l-.83.83a.45.45,0,0,0,0,.52c.1.2.31.2.51.1a.57.57,0,0,1,.42-.21c.52-.31,1.35-.62,1.87.31h.2c.63-.52,1-1.45,2-1.45.72-.1,1.14.62,1.86.52A9.66,9.66,0,0,1,204,82.2a3.67,3.67,0,0,1,1.24.31c.21.11.21.11,1.45.21.52,0,.94.42,1.46.52s1.14-.31,1.76-.21h0s1.76-.31,1.76-1h0a2.59,2.59,0,0,1-1.14-1.77c0-.1,0-.1.11-.1h.2l.11.1a.73.73,0,0,0,.41.11,8.64,8.64,0,0,1,1.35-.83,1.31,1.31,0,0,0,.52-.94A1.38,1.38,0,0,0,212.47,76.71Zm-17.63-4.78c.41-1.14.62-1.14,1-1.24s.83-.11.94-.31c.72-1-1.77-4-3.32-3.63s-2.91,2.8-3.43,2.69c-.72,0-1-.1-1.45.31a6.06,6.06,0,0,0-.62,1c-.31.42-.73.73-1,1.14s-.41.63,0,.94.42.41-.41,1.45c-.63.83-1.77,1.35-2.18,2.39a3.52,3.52,0,0,0-.11,1.45c.21,1.14,1.87.62,2.91.2a23,23,0,0,1,2.8-1.24h0c1.35-.41,2.49,0,2.9-.52a19.61,19.61,0,0,0,1.46-2.18c.1-.41-.21-.83.2-1.14C195.15,73,194.73,72.35,194.84,71.93ZM301.9,15.7c-.41.31-.72.42-.83.52-.31.83,1.77,1.87,2.39,2.49a1,1,0,0,1,0,1.25h0a3.32,3.32,0,0,0-2.91.72A7.37,7.37,0,0,1,298.06,22a3.53,3.53,0,0,0-1,.62,2.2,2.2,0,0,0-1.14,0c-1.46.52-2.29,3.32-2,4.36a1.44,1.44,0,0,1-.2,1.14,1.3,1.3,0,0,1-1.46.42c-.31-.11-1.14.62-.72.93s-.21.62-.73,1a.77.77,0,0,1-.83.1c-1.76-.52-1.66-1-2.18.42a6,6,0,0,1-1,1.76.81.81,0,0,0,.1,1.14c2.59,2.49-1.14,2.08-2.49,1.56s-2,1.55.31,1.55a2.47,2.47,0,0,1,1.66.73c1.14,1.35-1.56.83-3.11.31a14.49,14.49,0,0,1-3.94-2.18,2.27,2.27,0,0,1-.73-2.49A2.11,2.11,0,0,1,280.63,32a2.69,2.69,0,0,0,2.7-2.28,2.62,2.62,0,0,0-2.07-2.91c-3.32-.72-6.95-.31-10-1.66-2.6-1.24-4.78-1-5.5-1.86a2,2,0,0,1-.31-1v-.31c-1.45-.31-2.28-.42-2.91-.52a11.81,11.81,0,0,0-4.77.62,26.77,26.77,0,0,0-7.05,3.84c-1.87,1.45-3.12,2.59-3.12,2.59a20.19,20.19,0,0,1-2,2.8,24.51,24.51,0,0,1-2.49,3.12,2.46,2.46,0,0,0-.72,1.35h0a1.31,1.31,0,0,0-1,1,8.65,8.65,0,0,1-2.7,4.15c-1.76,1.66-4.56,3.53-9.34,5.5a7.38,7.38,0,0,0-4.46,7.06A7.11,7.11,0,0,0,230,60c3.63,1.14,4.46-2.9,8.5-1.66a5,5,0,0,1,3.32,3.11c.63,1.87,1.56,3,1.66,5.4.83.83,3.22,2.59,3.53,1.35.73-2.91,3.63-1,4.88-3.43,1-2.07-.52-4.25.2-6.32v-.11a13,13,0,0,0,.73-7.68c-.21-1.24.1-3,.62-6.53.21-1.35,2.91-2.08,3.53-3.11,1.14-1.77-.73-5,2.08-5.61,1.34-.31,3.83.32,4.15,1.77a1.78,1.78,0,0,1-.32,1.45c-.83,1-1.14,2.39-1.86,3.42a7.86,7.86,0,0,0-.83,7.27c.83,2.07,2.07,3.94,4,4.15a3,3,0,0,0,1.66-.42h0l2.8-1a13.39,13.39,0,0,1,4.46-.72,13.64,13.64,0,0,1,2.91.31c.21,0,.41.21.52.41a.51.51,0,0,1-.21.63c-3,2.59-3.53.93-6.64,1.45a2.42,2.42,0,0,0-2,2.07,2.48,2.48,0,0,0,1.14,2.39c.21.1.21.31.21.52h0a2.36,2.36,0,0,1-1.56,2.07,2.2,2.2,0,0,1-2,0,1.46,1.46,0,0,0-1.45.11c-.83.62-.52,1-.73,1.76a6.64,6.64,0,0,0,.21,3.74h0c.73,2-3,5.49-4.46,5.29a13.62,13.62,0,0,0-8.82,1.35,3.34,3.34,0,0,1-3.94-.52h0c-.73-.63,0-.94-.94-1.46a51.63,51.63,0,0,0-5.08,2,.49.49,0,0,1-.62-.11.56.56,0,0,1-.31-.52h0c-.21-1.35-6.23-1.14-1.46-6.43h0a2.3,2.3,0,0,0,.63-2c-.21-1.25.1-2.39-1-2.8h0a12.1,12.1,0,0,0-3.22,9.75c.31,3.94-1.55,3.32-3,3.22a1.85,1.85,0,0,0-1.56.72h0c-.52,0-1.35,0-2.8.11a1.89,1.89,0,0,0-1.45.83c0,.1-.11.1,0,.2.1.32-.21.63-.52.73a6.51,6.51,0,0,0-2.91,1.45,19.32,19.32,0,0,1-4.87,3.53,12.54,12.54,0,0,0-3.64,3c-.41.52-1.34,1-3.52,2.28a1,1,0,0,0-.42.52,1.2,1.2,0,0,1-1,.93,4,4,0,0,1-3.63-.93c-.62-.42-1,.41-.83.93h0a2.32,2.32,0,0,1-.2,1.46,2,2,0,0,1-1.25.72,7.47,7.47,0,0,1-3.94-.83.2.2,0,0,0-.31,0c-2,.62-3.11,3-2.6,3,3.32.42,3.32.93,4.67,1.76,1.56,1,.83,4.15,3.22,4.36h0c.31,0,.52,2.49.62,2.8v.11a.8.8,0,0,1-.21.52,3.1,3.1,0,0,0-1.35,2.07c-.2,1.66-.1,3.42-1.14,4.77a2.65,2.65,0,0,1-2.8,1.25,11.8,11.8,0,0,0-4.15-.83,29.33,29.33,0,0,1-11.1-2.39,3.25,3.25,0,0,0-1.45-.31,3.61,3.61,0,0,0-2.39,1,6.19,6.19,0,0,0-1.35.1,1.38,1.38,0,0,0-1.24,1.77c.41,1.86.52,3.83-1.76,9.54-.11.21-.21.52-.32.73-.72,1.34-3.32,4-2.69,4.66a.36.36,0,0,0,.31.11,1.33,1.33,0,0,1,1.24.83,2,2,0,0,1,.11,1.35c-.21.72-1,3.32-.63,3.94a1.36,1.36,0,0,0,.94.73,10.69,10.69,0,0,1,1.45.93c.42.21,1.56-.31,2.28-.62.52-.21.83-.42,2,.93s.21,4.05,2.49,4.15c.63,0,.94-.62,1.15-.93s.2-.42,4.56-1.35c2-.42,3.84.83,5.81.21,1.45-.42,1.56-2.39,3.11-2.91,1-.31,2.08.31,3.11-.21.52-.31,0-2,.63-2.49h0a2.93,2.93,0,0,0,.93-3.11,1.45,1.45,0,0,1,0-1.14c.1-.52,1.56-1.35,2.39-3.22.1-.2.1-.31.2-.41,2.7-2.49,6.33-3,9.34-4.77,2.7-1.56.83-5.71,3.94-7,2.91-1.15,5.09,2.9,8.1,1.14,3.21-1.87,7.16-4,8-4.15a5.22,5.22,0,0,1,2.29.52,5.68,5.68,0,0,1,2.49,2.17c2.9,4.67,8.4,6.64,11.72,10.79.52.63,3,2.18,4,3.12,1.55,1.45.72-.42,2.07,2h0c.62,1,1.87,2.9.73,3.32-.83.31-.73.52-.73.83,0,.62-.52,1.14-.1,1.76a.92.92,0,0,0,1.35.31c1-.52.62-.72,1-1.45a18.65,18.65,0,0,0,.94-2.08c.31-.2.93-.1,1-.62a1.69,1.69,0,0,0-1.35-2.07c-.42-.21-1.14-.52-.73-1.77v-.1h0a2.1,2.1,0,0,1,2.7-1c.72.31,1.35.52,1.66,1.25a.63.63,0,0,1,.1.41c0,.31,0,.73.11.83s.93,0,1.14-.31a4.55,4.55,0,0,0,.2-1.14h0v-.1c-1.86-2.91-5.39-3.22-8.09-4.78a1.05,1.05,0,0,1-.52-.83,1.27,1.27,0,0,0-1.35-1.14,5.07,5.07,0,0,1-4.15-2.18l-5.7-8.3c-.21-.31-.52-.72-.73-1a1.2,1.2,0,0,1,.62-1.77h.11a2.61,2.61,0,0,1,2.9,1c.31.52.63,1,1.25.93a4.32,4.32,0,0,1,2,.52l9.75,7.16h0a7.62,7.62,0,0,1,2.08,1,1.06,1.06,0,0,0,.93.21,2.1,2.1,0,0,1,1.35.41,8,8,0,0,1,2.7,4.88c.1.83.2,1.66.2,2.18a2.47,2.47,0,0,0,1,1.76c.21.21.62.41.83.62a3.83,3.83,0,0,1,.73,1,19.7,19.7,0,0,0,1.45,1.45h0a1,1,0,0,0,.41.11h0c.32,0,.73-.11,1-.11,1,.11,2.7,1.45,3.84.83.1-.1,1.35-.83,1.35-.83h0c3-1.35-.73-2.8-.83-4.15a.93.93,0,0,1,.41-1,1.5,1.5,0,0,1,1.15-.1c.1,0,.2.1.31.1a.63.63,0,0,0,.41-.1,1,1,0,0,0,.42-.73c.31-1.55,2-2,3.52-2a7.61,7.61,0,0,1,3.74.94,2.92,2.92,0,0,0,1.56.31h0a5.53,5.53,0,0,0,2.8-1c.41-.31-.52.73-2.39,1.45h0a1.72,1.72,0,0,0-1,2.08c.42,1.66,3.95,3.42,1.66,5.6l-.1.1a6.56,6.56,0,0,1,3.11,2.7c2.39,3.94,10.27,5.19,10.9,3.53h0a1.77,1.77,0,0,1,2.28-1c1.76.73,3.42,2.08,5.5,1.77a4.29,4.29,0,0,0,2.69-1.15,12.28,12.28,0,0,1,6.95-2.9h.11v.1c-1.25,7.58,7,15.88-1.14,22.72a6.1,6.1,0,0,1-2.7.94c-7.47,1.35-15,.1-22.51.62-4.36.31-5-1.25-6.33-1.25h-.11A12.57,12.57,0,0,1,285,154c-1.35-.32-5-5.5-9.85-1.46-1.46,1.14-2.29,2.7-2.18,3.53.62,12.35-14.53,3.22-15.67,1.87a13.53,13.53,0,0,0-6.64-4.36,54.31,54.31,0,0,1-8.51-3.11,16.4,16.4,0,0,0-4.46-1.45c-.31-.11-.41-1.56.52-2.49,2.49-2.49,3.22-3.43,2.39-4.78-2.08-3.42-.73-3.11-2.49-5.49h0a3.35,3.35,0,0,0-2.7-1.25c-30.6,2-37.24,2.8-43.26,5.71a3.55,3.55,0,0,1-3.32,0,5.68,5.68,0,0,0-2.28-.52,5.77,5.77,0,0,0-1.87.31,5.46,5.46,0,0,0-6.43.31l-10,8.09a11.68,11.68,0,0,0-2.6,2.91,10.12,10.12,0,0,0-1.66,6c.21,3.22-8.92,9-13.79,8.51h0c-2.18.94-4.15,1.66-15.26,17.12-6.12,8.51-6.12,8.51-4.87,10.89.62,1.25,2,3.84,1,10.9-.11.41-.11.93-.21,1.35-.11.2-.11.41-.21.62l-4.25,14.21A12.7,12.7,0,0,0,128.54,233h0v.1l.94,1.76c.1.32.31.63.41.94.93,2.07,2.18,13.69,5.6,19a12.94,12.94,0,0,0,1.87,2.29l10.48,11.3c1.87,1.87,5.7,3.12,8.3,3.64,7.68,1.45,15.87,1.55,23.45,4.35a5.12,5.12,0,0,0,1.24.31c8.82.63,16-6.74,24.48-7.36,2-.11,6.13,1.14,7.06,7.16.73,4.46,7.57,3,10.89,2.07a7.32,7.32,0,0,1,4.46.21h0a1.78,1.78,0,0,0,2,1.56h.11a1.56,1.56,0,0,1,1.45.62c1.76,2.7,1.45,4.36,1.14,5.7h0l-.1.42v.1c-.11.31-.11.63-.21.94-.83,6.53-.31,9.54-3.32,11.93a2.41,2.41,0,0,0-.73,1c3.32,6.74,10.38,10.16,10.38,10.16,1,1.14,7.16,11.73,7.88,16.39,1,7.16,1,5.81,1.15,6.13,3.11,5.18.41,7.57-1.56,8.5a2.28,2.28,0,0,0-1,.83,13.73,13.73,0,0,1-1,1.66c-.31.42-4.25,11.1-4.25,13.28h0c0,2.08,3.32,3.94,4.57,5.6l7.57,10.59a2.62,2.62,0,0,0,.41.52c2.6,3.32-1.45,8,.94,11.3.72,1,2.59,5.4,3.63,6.12,1.56,1,8,10.38,6,11.94a.81.81,0,0,0-.11.83c.62,1.66,8.41,4.25,11.21,3.11,4.25-1.87,13.28-3.22,16.91-3.22,5.08,0,29.36-17.43,27.49-23.45v-.2h0c2.8-3.32,11.1-7.47,10.89-7.89h0a15.1,15.1,0,0,0,1.46-5.91A13.24,13.24,0,0,1,336,356.61c2.91-2.18,7.16-5.18,13.39-9.75,3.94-2.8,5.81-4.77,5.5-16.91-.31-11.1-2.29-19.82-3-21.68-.94-2.6-.62-3.12.41-5.09,3.12-5.81,7.37-10.89,10.38-16.7a59.72,59.72,0,0,1,13.8-17.74c.1-.1.2-.31.41-.42,5.81-6.74,9.13-16,11.21-24.58.41-1.87,1.14-3.53,1.66-5.29.41-1.35,1-2.49,1.76-9.55.1-1.14-.52-2.28-.52-3.42.31-4.67-1.35-.52-2.7.1-3.42,1.66-1.55,1-3.11,2.08-.73.41-6.33,2.38-6.95,3-.83.73-1.56,1.56-2.7,1.66-6.84.83-8.09,1-9.33-.1a7.07,7.07,0,0,1-2.18-3.94,7.58,7.58,0,0,0-2.39-4.25c-6.54-6.13-19.5-10.07-22.51-26.77-.52-2.49-18.78-28.95-22.52-34.24a3,3,0,0,1-.41-2.07h0c.73,1.86,3.53,5.08,5.29,6.84a1.33,1.33,0,0,0,1.76.32c.73-.52.21-1.25.42-3.74a.58.58,0,0,1,1.14-.1,7,7,0,0,0,2.08,3.94,71.1,71.1,0,0,1,7.36,9.75,12.26,12.26,0,0,0,4.77,4.46c2.8,1.56,3.63,4.15,5.61,10.27,2.38,7.27,10.79,8.93,13.9,15.46,2.7,5.5,3.32,11.73,6.74,17a.1.1,0,0,0,.11.1,2.06,2.06,0,0,0,1.86.73c5.09-1.14,11-7.58,12.45-8.72,3.11-2.38,5.29-4.25,7-5.6a13.61,13.61,0,0,0,4.46-7.26c.52-2.39,4.26-4.46,5.3-4.46,2.8,0,1.55-3.74,2.8-5.4s1.35-3.73,2.8-5.29a5.08,5.08,0,0,1,1.66-1.25c.1,0,.1-.1.1-.2.42-1.87-.83-3.63-.83-5.4a.73.73,0,0,1,.94-.72h0c1-5.81,3-10.69-2.18-13.08-2-.93-4.46.52-6.33-1h0a4.44,4.44,0,0,0-3.74-1,4.53,4.53,0,0,0-3.11,2.39h0a3.82,3.82,0,0,1-2.7,2,4.33,4.33,0,0,0-1.76.52,16.63,16.63,0,0,0-1.45,1.14c-3.12-1.66-5-1.77-16-18.06-3.22-4.87,1.14-7.26,2.7-5.49h0c1.35,1.45,6.84,7.36,11.41,9.85,1.56.83,6.12,2.08,6.95.52,3.11-5.71,5.4-1.56,5.81-.62,2.28,4.87,8.72.62,10.17.72,3.11.11,2.8-.51,11.82-5.49a13.75,13.75,0,0,1,11.62-.83,13,13,0,0,1,4.05,2.38A221.39,221.39,0,0,0,301.9,15.7Zm23.86,99.08c-1-.52-1.45.62-2.17.93a.11.11,0,0,0-.11.11,6.24,6.24,0,0,1-1.45-.21c-.83-.21-4.46-.31-5.81-.83h0c-.31-.1-4.88-1.87-5.29-1.76-1.45.41-3.22-.63-4.57.41-.83.62-1.76.94-2.59,1.56-1.14.83-1.14.93-1.14,1.14v.1a.8.8,0,0,1-.42.73,4,4,0,0,1-1.45.31,27.52,27.52,0,0,1-3,.1,13.18,13.18,0,0,0-2,.21,2.05,2.05,0,0,1-.72-.1,9.8,9.8,0,0,1-4.05-3.32l-1-1.45a.21.21,0,0,1,0-.32c.11-.2.31-.31.62.11h0c.11.1.11.1.21,0s.11-.11.11-.21a7.57,7.57,0,0,1-.32-3h0c.21-.52.83-.41,1-.93a2.89,2.89,0,0,0-.21-1.66c0-.31.32-2.8.32-2.8h0a1.43,1.43,0,0,0,.83-1,8.81,8.81,0,0,1,1.45-3,7.55,7.55,0,0,0,.83-2.18c.21-.52.21-.62,1-.83a7.32,7.32,0,0,1,3-.21c.52.11,1.15.21,2,.42.1,0,.1.1.2.1h0c0,.11,0,.21-.1.21a.73.73,0,0,0-.31.62.66.66,0,0,0,.62.52,1.24,1.24,0,0,0,.93-.31c.52-.21.63-.31,1,0a.91.91,0,0,1,.42.93c-.11.83-1.25.83-1.25,1.46a.69.69,0,0,0,.42.62,4.14,4.14,0,0,1,2.59,2.49.1.1,0,0,0,.1.1.87.87,0,0,0,.94.31,8.24,8.24,0,0,0,1.45-1.24,7.23,7.23,0,0,0,1.35-1.35c.21-.41-.31-.52-.73-.73A2.92,2.92,0,0,1,307,98.39a3.05,3.05,0,0,1,1.14-2.6h0l4.56-2.69A.37.37,0,0,1,313,93c.31,0,2.29-1.24,3-1.35.21,0,.73.52.52.94a2.05,2.05,0,0,1-.83.93c-.62.42-2.18,1.14-2.07,1.87.1.93,1.14.52,1.66.93s.31.42.1.83h0a11.44,11.44,0,0,1-1.45,3c0,.11-.11.11-.11.21.11.73.11.73,2.49,1.66,1,.41,2.29-.1,3.32.52,2.29,1.45,4.05,3.63,6.75,4.67.83.31,3.73,1.55,4.46,3.73C332.4,114.88,327.53,115.61,325.76,114.78Zm-70.85,17.84h-.11c-.21,0-.41.21-.62.21-.73.11-.62-.21-1.14.11a2.74,2.74,0,0,1-.94.51c-.31.11-.62-.1-.93-.1s-.73.52-1.24.52-1-.52-1.66-.73c-.42-.1-.63.42-.94.31s-.31-.2-.52-.31c-.52-.2-1,1.56-.93,1.66a.68.68,0,0,0,.52.31h0c.21,0,.41-.2.72-.2.73-.11,3,1.55,3.84,1.86a4.56,4.56,0,0,1,.83.32A10.09,10.09,0,0,0,253,138a1,1,0,0,0,.83.1c.31,0,.72-.1,1.14-1.55.21-.52-.52-.83-.42-1.35.11-.83.73-1.35.83-2.18A1.14,1.14,0,0,0,254.91,132.62ZM140.27,33.13c.2.42-.73.83-.52,1.25.1.1.1.2.31.2s-.94,1.25-1,1.46c-.31.41.1,1.45.73,1.45s1-.42,1.55-1a19.59,19.59,0,0,0,2.7-1.76c1-.83,3.11-1.14,3.94-2.6a2.59,2.59,0,0,1,1.87-1.45.51.51,0,0,1,.62.31c.11.42,5-1.76,4.77-2.59s.32-.83.83-.62a1.08,1.08,0,0,0,.83-.11c1.46-1.24,3.64-2.69,5.5-2.28a1.61,1.61,0,0,0,1.35-.21c1.87-1,2.08-.52,1.66-.41s-1.87.62-1.55,1.14a.38.38,0,0,0,.31.1,7.16,7.16,0,0,1,2.49-.52,9.82,9.82,0,0,0,4.46-1c.1,0,.1-.11.21-.11h0c3.63-1.86,5.18-3.11,6-2.59.21.21.42.41.31.73h0c.63.41,1.25,0,2-.21,0,0,.62.62,2.8.52-.52,1.35,22.72-3.63,37.35-15.88a98.38,98.38,0,0,1,9-6.64c-2.7-.1-5.5-.1-8.19-.1a219,219,0,0,0-51.88,6.12v.21a.57.57,0,0,0,.42.21l2.18-.83a.39.39,0,0,1,.51.31.22.22,0,0,1-.2.2c-.63.32-1.35.42-2,.73-.11.1-.21.21-.21.31.1.31-.21,1,0,1.14-.21.21-6.43,4.36-8.82,4.57h0a12.43,12.43,0,0,0-6.33,2,10.07,10.07,0,0,1-2.59,1.66,16.9,16.9,0,0,0-4.88,3.84c-.62.62.42.83,1.25,1.14,0,0,.52.21-.31.31-3.22.42-5.92,4-6.75,5.29a.93.93,0,0,0,0,.73h0a9.84,9.84,0,0,0-2.7,3.84c-.1.1,0,.31.11.41C138.29,32.72,140.06,32.82,140.27,33.13Zm70.44,46.79h.21l.1.1a.76.76,0,0,0,.42.11,9.75,9.75,0,0,1,1.34-.83,1.31,1.31,0,0,0,.52-.94,1.5,1.5,0,0,0-.93-1.65h0c-.1-.11-2.18-1.15-2.7-.83s-.41.2-1.14-.21a.38.38,0,0,1,.1-.31c.83-.63.83-.63.83-.83a1.31,1.31,0,0,0-.41-.94.76.76,0,0,1-.1-.83h0a5.76,5.76,0,0,0-.73-2c-.1-.1-.1-.1-.21-.1h-1.24v-.11c.1-.41-.31-.72-.31-1s.1-.83.1-1.14a4.88,4.88,0,0,0-.1-1.15,7.31,7.31,0,0,1,.1-4.25,7.72,7.72,0,0,1,.83-1.56c.83-1.14-2.8-.93-3.53-.93-.1,0-.1,0-.1-.1v-.11c.21-.31.21-.62.41-.83s.83-.41,1.14-.62c.83-.52.11-.83-.2-.93a8.07,8.07,0,0,0-2.29-.31,2.39,2.39,0,0,0-.83.1,1.81,1.81,0,0,0-.62.62A12.19,12.19,0,0,1,199.82,60l-.11.11a1.35,1.35,0,0,1-.62.1h-.42a2.27,2.27,0,0,0-.51.41.63.63,0,0,0,.1.73c.21.21.41.21.73.1h0v.21l-.32.94a.1.1,0,0,1-.1.1c-.1,0-.1,0-.1-.1s-.21-.21-.31-.21h0c-.42.1-.73,1.14-.73,1.35s0,.2.1.2a1.72,1.72,0,0,1,.11,2.18c-.11.11-.11.11-.11.21s0,.31.11.42a.25.25,0,0,0,.41-.11,3.59,3.59,0,0,0,.52-.62,1.92,1.92,0,0,1,.52-.42c.21-.1.52-.2.73-.31h.31c.1.11.1.11.1.21,0,.52.21,1.14-.41,1.56a3.88,3.88,0,0,0-.73.62c-.21.1-.21.41-.1.62a.46.46,0,0,0,.62.21h0v.1c.21.63.21.63,1,.11h.1a1.3,1.3,0,0,0,.52.52,1.25,1.25,0,0,1,.62.83v.2a2.24,2.24,0,0,1-.62,2.49,2.46,2.46,0,0,1-2.49.63h0c-.11-.11-.31,0-.42.1a.32.32,0,0,0,0,.41c.11.11.21.21.21.32,0,.51-.73.31-.93.72h0v.11c0,.1,0,.1.1.2s.1.11.21.11c.31-.11.62-.31.93-.42.62,0,.11,1.56-.1,1.76a10.63,10.63,0,0,1-2.39.94c-.31.1-.52.1-.62.21s-.21.83.31,1c.73.31,1.35-.31,2-.1a3.49,3.49,0,0,1,1.66,1l.11.1a.89.89,0,0,0,.72,0,.1.1,0,0,0,.11-.1.65.65,0,0,1,.51-.21c.11,0,.32.1.32.21s0,.31-.11.41a2.07,2.07,0,0,1-1.66.62h-1.14a4.91,4.91,0,0,0-3,1.46l-.83.83a.49.49,0,0,0,0,.52c.11.2.31.2.52.1a.55.55,0,0,1,.42-.21c.51-.31,1.34-.62,1.86.31h.21c.62-.52,1-1.45,2-1.45.73-.1,1.14.62,1.87.52s1.45-.73,2.28-.73a3.8,3.8,0,0,1,1.25.31c.2.11.2.11,1.45.21.52,0,.93.42,1.45.52s1.14-.31,1.77-.21h0s1.76-.31,1.76-1h0a2.56,2.56,0,0,1-1.14-1.77C210.71,80,210.71,80,210.71,79.92Zm-16.08-6.64c.52-.31.1-.83.21-1.35.41-1.14.62-1.14,1-1.24s.83-.11.94-.31c.72-1-1.77-4-3.32-3.63s-2.91,2.8-3.43,2.69c-.72,0-1-.1-1.45.31a6.06,6.06,0,0,0-.62,1c-.31.42-.73.73-1,1.14s-.41.63,0,.94.42.41-.41,1.45c-.63.83-1.77,1.35-2.18,2.39a3.52,3.52,0,0,0-.11,1.45c.21,1.14,1.87.62,2.91.2a23,23,0,0,1,2.8-1.24h0c1.35-.41,2.49,0,2.9-.52a19.61,19.61,0,0,0,1.46-2.18C194.52,74,194.11,73.49,194.63,73.28Zm-77.4-47.41A214.06,214.06,0,0,0,82.17,49a8.27,8.27,0,0,1,1.76-.51h0a2,2,0,0,0,1.14-.11,4.25,4.25,0,0,1,5.5,2.39h0a1.7,1.7,0,0,0,1.35,1.14,3.15,3.15,0,0,0,2.18.1c3.94-1.45,5.08-.2,8.3-1.66h0c4.25-1.86,4.46-11.3,10.17-16.49a8.32,8.32,0,0,1,1.86-1.35,8.74,8.74,0,0,0,2.49-2.7,14.88,14.88,0,0,1,1.14-1.35,1.41,1.41,0,0,0,.21-1.86A1.12,1.12,0,0,0,117.23,25.87ZM80.51,50.35c-4.78,3.95-9.34,8-13.8,12.35.52-.21,1-.31,1.35-.42a30,30,0,0,1,3.53-.72c1.24-.21,5,.62,6-.31.83-.73-.21-.94.31-1.77a10.21,10.21,0,0,0,1.25-2.38c.31-.73,1.14-.94,1.76-1.35,1.14-.73,0-.73-.21-1s0-1.24.42-1.35h0a2.35,2.35,0,0,0,2.18.52,1.28,1.28,0,0,0,1.14-.83,1.07,1.07,0,0,1,.73-.62h0C86.52,49.42,82.79,49.83,80.51,50.35ZM53.22,273.62c-3.73-2.81-6.53-2.81-6.53-2.81a7.44,7.44,0,0,0-2.49-6.22,8.34,8.34,0,0,1-1.66-2.18,3.69,3.69,0,0,0-6.23-.1c1.14-3.74,1.14-3.94-1.76-7.58-1.66-2-1.77-1.76.1-5.39.31-5-9.44-20.75-17.95-30.4a1.31,1.31,0,0,0-1.24-.41c-.83-.83-5.09-16.4-6.12-20.13a.8.8,0,0,1,.1-.52,4,4,0,0,0,.83-3.22,29.06,29.06,0,0,1-.62-3c-.11-1.77-1.77-3.22-2.08-3a1.61,1.61,0,0,1-1.35.21,1.27,1.27,0,0,1-.83-1.15,3.86,3.86,0,0,0-2.49-3A215.86,215.86,0,0,0,0,220.6,219.5,219.5,0,0,0,54.78,366.05a14.74,14.74,0,0,0-.83-3.63c-.52-1.24-1-2.38-1.56-3.63a2.3,2.3,0,0,1-.31-1.14c0-3.11,7.06-4,9.13-7.47.21-.41,1.56-.52,3.32.73,1.35.93,3.32-1.25,3.11-2.08a11,11,0,0,1-.2-5.19c.51-3.94-.52-13.48-1-14.83-1.56-4.36-1.87-6.64-1.87-7.68,0-.83,2.08-1.35,2.49-2.7.73-2.59,5.29-7.47,6.64-9.85a10.59,10.59,0,0,0,1.87-6.74C74.8,296.54,58,277.25,53.22,273.62ZM212.47,76.71h0c-.1-.11-2.18-1.15-2.69-.83s-.42.2-1.15-.21a.36.36,0,0,1,.11-.31c.83-.63.83-.63.83-.83a1.32,1.32,0,0,0-.42-.94.8.8,0,0,1-.1-.83h0a5.56,5.56,0,0,0-.73-2c-.1-.1-.1-.1-.2-.1h-1.25v-.11c.1-.41-.31-.72-.31-1s.1-.83.1-1.14a4.88,4.88,0,0,0-.1-1.15,7.39,7.39,0,0,1,.1-4.25,7.72,7.72,0,0,1,.83-1.56c.83-1.14-2.8-.93-3.52-.93-.11,0-.11,0-.11-.1v-.11c.21-.31.21-.62.42-.83s.83-.41,1.14-.62c.83-.52.1-.83-.21-.93a8,8,0,0,0-2.28-.31,2.36,2.36,0,0,0-.83.1,1.65,1.65,0,0,0-.62.62A12.26,12.26,0,0,1,199.92,60l-.1.11a1.39,1.39,0,0,1-.63.1h-.41a2.14,2.14,0,0,0-.52.41.66.66,0,0,0,.1.73.61.61,0,0,0,.73.1h0v.21l-.31.94a.1.1,0,0,1-.11.1c-.1,0-.1,0-.1-.1s-.21-.21-.31-.21h0c-.42.1-.73,1.14-.73,1.35s0,.2.11.2a1.72,1.72,0,0,1,.1,2.18c-.1.11-.1.11-.1.21s0,.31.1.42a.26.26,0,0,0,.42-.11,3.67,3.67,0,0,0,.51-.62,2.08,2.08,0,0,1,.52-.42c.21-.1.52-.2.73-.31h.31c.1.11.1.11.1.21,0,.52.21,1.14-.41,1.56a4.23,4.23,0,0,0-.73.62c-.2.1-.2.41-.1.62a.46.46,0,0,0,.62.21h0v.1c.21.63.21.63,1,.11h.1a1.37,1.37,0,0,0,.52.52,1.25,1.25,0,0,1,.62.83v.2a2.21,2.21,0,0,1-.62,2.49,2.46,2.46,0,0,1-2.49.63h0c-.1-.11-.31,0-.41.1a.3.3,0,0,0,0,.41c.1.11.2.21.2.32,0,.51-.72.31-.93.72h0v.11c0,.1,0,.1.1.2s.11.11.21.11c.31-.11.62-.31.94-.42.62,0,.1,1.56-.11,1.76a10.73,10.73,0,0,1-2.38.94c-.32.1-.52.1-.63.21s-.2.83.31,1c.73.31,1.35-.31,2-.1a3.54,3.54,0,0,1,1.66,1l.1.1a.92.92,0,0,0,.73,0,.1.1,0,0,0,.1-.1.66.66,0,0,1,.52-.21c.1,0,.31.1.31.21s0,.31-.1.41a2.07,2.07,0,0,1-1.66.62h-1.15a4.89,4.89,0,0,0-3,1.46l-.83.83a.45.45,0,0,0,0,.52c.1.2.31.2.51.1a.57.57,0,0,1,.42-.21c.52-.31,1.35-.62,1.87.31h.2c.63-.52,1-1.45,2-1.45.72-.1,1.14.62,1.86.52A9.66,9.66,0,0,1,204,82.2a3.67,3.67,0,0,1,1.24.31c.21.11.21.11,1.45.21.52,0,.94.42,1.46.52s1.14-.31,1.76-.21h0s1.76-.31,1.76-1h0a2.59,2.59,0,0,1-1.14-1.77c0-.1,0-.1.11-.1h.2l.11.1a.73.73,0,0,0,.41.11,8.64,8.64,0,0,1,1.35-.83,1.31,1.31,0,0,0,.52-.94A1.38,1.38,0,0,0,212.47,76.71Zm42.85,56.54a.36.36,0,0,0-.31-.52h-.1c-.21,0-.42.21-.63.21-.72.1-.62-.21-1.14.1a2.8,2.8,0,0,1-.93.52c-.31.1-.62-.11-.94-.11s-.72.52-1.24.52-1-.52-1.66-.72c-.42-.11-.62.41-.93.31s-.32-.21-.52-.31c-.52-.21-1,1.55-.94,1.66a.75.75,0,0,0,.52.31h0c.21,0,.42-.21.73-.21.72-.1,3,1.56,3.84,1.87a4,4,0,0,1,.83.31,9.11,9.11,0,0,0,1.24.93,1,1,0,0,0,.83.11c.31,0,.73-.11,1.14-1.56.21-.52-.52-.83-.41-1.35C254.49,134.6,255.11,134.08,255.32,133.25Z"/></g><g id="RedGlobe_Back"><circle class="cls-1" cx="710.47" cy="219.87" r="219.87"/><path class="cls-2" d="M896.22,292.81a28.17,28.17,0,0,0-12.56-3.24c-6.88,0-3.24-5.26-3.24-5.26l-10.94,4.25-8.91-4.25h-9.72s1.62-8.1,0-8.91-7.7-10.94-7.7-10.94-14.58-1.22-15.79,0S817.23,260,817.23,260v-4.86H764.57l-4.86,6.08-8.51-.41v22.28l-8.1,1.22-7.3,11.75v20.25l8.11,5.27,3.24,8.5,13.37,13.78h9.31L772.26,356l-6.88,9.32-5.67,23.49-14.59,18.23-1.62,6.08-13.77,10.53,9.72,5.67h10.94l1.62-5.67,10.53-2.84,4.05-7.69,21.47-16.21,11.34.41.81-6.89L814.8,388l21.47-17.82L839.51,358l14.18-4.86,24.71-26.33-3.24-9.31,6.48-2,6.48-15Z"/><path class="cls-2" d="M819.3,115.39l-13.09-2.88a1.58,1.58,0,0,1-1.2-1.21l-2.36-11.1a1.54,1.54,0,0,0-.94-1.13l-13.39-5.44a1.26,1.26,0,0,1-.54-.36L776.85,82a1.59,1.59,0,0,0-1.41-.46l-10.63,2a1.56,1.56,0,0,1-1.63-.74L762.1,81a1.55,1.55,0,0,1,.37-2l7.15-5.66a1.58,1.58,0,0,0,.31-2.14l-3.33-4.72a1.56,1.56,0,0,1-.16-1.53l3.41-8a1.56,1.56,0,0,0-1.44-2.18H758.1a1.57,1.57,0,0,1-1.42-.92l-5.12-11.22a1.55,1.55,0,0,0-1.22-.89l-10.44-1.4a1.68,1.68,0,0,1-.76-.31L717.18,23a1.66,1.66,0,0,0-.88-.32l-12.73-.75-.17,0-8.18-1.36a1.57,1.57,0,0,0-1.58,2.4c2,3,4.79,7.05,5.54,6.8.9-.3,7.34.55,10.28,1a1.57,1.57,0,0,1,1.34,1.68l-1,11.81a1.56,1.56,0,0,1-.75,1.22l-3.65,2.22a1.58,1.58,0,0,1-2.4-1.35,1.51,1.51,0,0,1,.31-.91,1.56,1.56,0,0,0,.13-1.61l-4.11-8.23a1.54,1.54,0,0,0-.44-.54l-7.6-5.79a1.62,1.62,0,0,0-.77-.3l-8.3-1a1.53,1.53,0,0,0-1.56.8l-2.61,4.73a1.57,1.57,0,0,0,1.27,2.33l2.2.14A1.57,1.57,0,0,1,683,37.18l.66,3.51a1.58,1.58,0,0,1-1.27,1.84l-4.19.74a1.57,1.57,0,0,1-1.48-.56L669.62,34a1.55,1.55,0,0,0-1.47-.56l-12.62,2.05a1.6,1.6,0,0,1-1.53-.63l-10.12-14a1.59,1.59,0,0,0-1.72-.58l-23.24,6.91a1.55,1.55,0,0,0-1,.93l-2.18,5.61a1.57,1.57,0,0,1-1,.94l-14.58,4.27a1.52,1.52,0,0,0-1,.89l-5.65,13.42a1.54,1.54,0,0,1-1.13.92l-6.87,1.42a1.57,1.57,0,0,0,0,3.07l10.7,2.14a1.54,1.54,0,0,0,1.75-1l3-7.58a1.57,1.57,0,0,1,1.46-1h11a1.57,1.57,0,0,1,1.35.77l4.41,7.47a1.51,1.51,0,0,1,.22.8v51.93a1.58,1.58,0,0,1-.26.86l-12,18a1.58,1.58,0,0,0-.26.87v22.22a1.56,1.56,0,0,0,1.57,1.57H614a1.57,1.57,0,0,1,1.47,1l5,13.58a1.49,1.49,0,0,1,.1.55v12.19a1.74,1.74,0,0,0,.21.81l7.14,12a1.38,1.38,0,0,1,.14.27l2.22,6.31a1.57,1.57,0,0,0,3-.39l.52-6a1.61,1.61,0,0,0-.15-.81l-8.11-16.94a1.67,1.67,0,0,1,0-1.35l1.74-3.64a1.57,1.57,0,0,1,2.93.29l3.53,13.83a1.65,1.65,0,0,0,.35.65l12.74,14.24a1.57,1.57,0,0,1,.38.8l2.57,16.15a1.59,1.59,0,0,0,.58,1L671,236.39a1.51,1.51,0,0,0,1,.33h16.77a1.59,1.59,0,0,1,1.16.52l6.49,7.19a1.61,1.61,0,0,0,1.16.51h13.36a1.58,1.58,0,0,1,1.29.68l6.38,9.24a1.62,1.62,0,0,0,.49.45l13.87,8.24a1.48,1.48,0,0,0,.67.22l11.91,1.07a1.5,1.5,0,0,0,1.12-.34l2.78-2.23a1.57,1.57,0,0,0-.22-2.59l-7.23-4a1.58,1.58,0,0,0-1.71.11l-4.53,3.39a1.58,1.58,0,0,1-1.84,0l-4.74-3.33a1.55,1.55,0,0,1-.56-1.82l4.18-11.27a1.58,1.58,0,0,0-.77-2l-7.84-3.91a1.42,1.42,0,0,0-.64-.17l-10.91-.35a1.54,1.54,0,0,1-1.31-.8l-.92-1.64a1.57,1.57,0,0,1,.34-1.94l5.37-4.75a1.56,1.56,0,0,0,.47-.71l3.07-9.82a1.56,1.56,0,0,0-1.66-2l-8.56.88a1.67,1.67,0,0,0-.75.28l-9,6.44a1.6,1.6,0,0,0-.62,1l-.38,1.92a1.59,1.59,0,0,1-1.7,1.26l-10.18-1a1.6,1.6,0,0,1-.93-.43l-9.63-9.27a1.56,1.56,0,0,1-.47-1.28l2.16-23.85a1.6,1.6,0,0,1,1.33-1.41l8.4-1.29a1.63,1.63,0,0,0,.94-.53l3.56-4.11a1.57,1.57,0,0,1,2.34,0l7.11,7.67a1.56,1.56,0,0,0,2.52-.33l3.72-6.89a1.58,1.58,0,0,1,2.08-.67l7.64,3.82a1.58,1.58,0,0,0,.82.17l8.65-.66a1.55,1.55,0,0,1,1.55.91l4.92,10.91a2.11,2.11,0,0,0,.26.4l4.76,5.29a1.57,1.57,0,0,0,2.71-.76l1.66-8.85a1.63,1.63,0,0,0-.17-1.06l-4-7.1a1.55,1.55,0,0,1,.62-2.15L754.16,176a1.55,1.55,0,0,0,.77-1l3.26-11.23a1.37,1.37,0,0,1,.23-.47l17.26-24.4a1.56,1.56,0,0,1,1.57-.63l10.86,2a1.52,1.52,0,0,0,1.22-.28l11.24-8.36a1.57,1.57,0,0,0-.85-2.82l-8.81-.49a1.56,1.56,0,0,1-1.34-.92l-2.91-6.38a1.58,1.58,0,0,1,.71-2l8.2-4.25a1.55,1.55,0,0,1,1.85.31l7.11,7.43a1.56,1.56,0,0,0,1.64.39l13.3-4.51A1.57,1.57,0,0,0,819.3,115.39ZM718.14,40.93l3.3,4.82,4.32.51L727,50.7l-6.08,9.77V50.32h-5.08Zm33.49,35.52L741,78l-.76,6.6,5.08,2.53,2.79,9.39L742,100.56,740,111l-4.81-6.6V99l-12.44-1.77,1.78-7.36-13.2-1.52-7.11-3.56,2.55-9.38,9.13-2.28,4.31-5.08,4.57,2.8h9l-3.41-3.82V60.47l6.84-3-3.3-8.88L743,56.16l6.34,1.26-3.55,6.35-6.34-.51v4.82l4.06,3,3.8-3.55,5.33,2.54Z"/><polygon class="cls-2" points="728.42 216.66 738.71 211.43 747.73 214.05 752.65 217.92 764.59 217.92 768.35 214.68 762.85 224 750.12 224 744.62 217.72 738.54 215.32 728.42 216.66"/><polygon class="cls-2" points="770.66 227.76 773.27 224 781.37 224 788.61 221.68 794.11 221.68 794.11 230.66 782.39 232.1 777.03 226.89 770.66 227.76"/><polygon class="cls-2" points="763.14 230.37 754.75 232.1 748.38 232.1 755.76 228.05 763.14 230.37"/></g></g></svg>