<svg xmlns="http://www.w3.org/2000/svg" viewBox="0 0 647.74 578.83"><defs><style>.cls-1{fill:#c1c1c1;}.cls-2{fill:#9b9b9b;}.cls-3{fill:#afafaf;}.cls-4{fill:none;stroke:gray;stroke-miterlimit:10;stroke-width:3px;}.cls-5{fill:#e6e6e6;}.cls-6{fill:#a31f34;}</style></defs><g id="Layer_2" data-name="Layer 2"><g id="Layer_20" data-name="Layer 20"><polygon class="cls-1" points="602.82 461.8 39.31 495.1 102.23 375.41 508.62 344.79 602.82 461.8"/><polygon class="cls-2" points="512.23 361.12 119.14 389.95 112.75 336.67 508.2 307.66 512.23 361.12"/><polygon class="cls-2" points="112.75 336.67 2.67 481.17 60.84 476.55 119.14 389.95 112.75 336.67"/><polygon class="cls-2" points="506.96 306.97 637.41 433.11 579.25 437.49 508.63 360.6 506.96 306.97"/><path class="cls-3" d="M357.31,455.91c.28,9.62-15.72,18.57-36.11,20.11s-37.56-4.92-38.73-14.47L6.82,482.32A7.75,7.75,0,0,0,0,490.21l6.86,91.11L647.74,533l-6.87-91.11a7.35,7.35,0,0,0-7.9-6.78Z" transform="translate(0 -2.49)"/><path class="cls-1" d="M319.71,468.23c-18,1.36-33.65-1.82-39.74-7.44a7.56,7.56,0,0,0-1.92,5.29c.64,8.55,19.82,16.45,42.61,14.73s40.57-12.4,39.92-20.95a7.55,7.55,0,0,0-2.69-4.94C352.71,461.39,337.73,466.87,319.71,468.23Z" transform="translate(0 -2.49)"/><path class="cls-4" d="M2.79,533.67l641.34-48.33" transform="translate(0 -2.49)"/><path class="cls-5" d="M112.75,339.16l396.68-29L636.88,435.7,2.67,483.65S115.82,335.39,112.75,339.16Z" transform="translate(0 -2.49)"/><polygon class="cls-6" points="302.68 321.53 300.14 459.79 343.52 455.76 319.46 320.96 302.68 321.53"/><polygon class="cls-6" points="350.84 552.91 309.26 556.05 300.21 458.64 343.5 455.38 350.84 552.91"/><polygon class="cls-6" points="88.53 368.61 78.06 380.8 549.43 345.28 538.38 334.72 88.53 368.61"/><path class="cls-6" d="M309.3,359.58l1.15-1.68.63-.93c.23-.34.44-.75.68-1.18a26.64,26.64,0,0,0,1.57-3,44.83,44.83,0,0,0,3.87-21.22,61.56,61.56,0,0,0-2.66-15.07c-.45-1.32-.84-2.67-1.39-4s-1.12-3-1.7-4.48c-1.17-3.19-2.24-6.44-3.32-9.8-4.3-13.42-8.58-28.71-13.69-45.16-1.27-4.1-2.6-8.28-4-12.44-.68-2.12-1.47-4.13-2.22-6.21-.36-1.07-.79-2-1.19-3s-.8-2-1.23-2.95-.86-1.81-1.3-2.72a2.89,2.89,0,0,0-.32-.59l-.32-.51-.61-1c-.12-.27-.58-.91-.9-1.4l-1-1.57c-.7-1-1.41-2.1-2.09-3.17-2.76-4.27-5.5-8.66-8.14-13.22a326.71,326.71,0,0,1-27.68-61A253.74,253.74,0,0,1,234,108.1a146.18,146.18,0,0,1-2.28-38.43,98.68,98.68,0,0,1,10.86-38.24A79.6,79.6,0,0,1,254.11,15,66.54,66.54,0,0,1,269.48,2.49l-1.54,1.59c-.5.53-1.16,1.14-1.86,2l-2.41,2.8c-.85,1.12-1.8,2.34-2.81,3.71l-1.48,2.21c-.53.75-1,1.57-1.53,2.43a75.34,75.34,0,0,0-6,12.19,95.63,95.63,0,0,0-6.3,35.23c0,13.84,2.85,29.33,8,45.84,2.56,8.26,5.71,16.82,9.19,25.63s7.32,17.78,11.59,26.86,8.91,18.29,14,27.53c2.53,4.62,5.15,9.25,7.9,13.87,1.36,2.33,2.78,4.63,4.18,6.95l.26.44.33.58.67,1.23L303,216c.7,1.55,1.28,3,1.91,4.56s1,2.92,1.55,4.4.94,2.9,1.36,4.33.87,2.89,1.24,4.31l1.11,4.3c.74,2.87,1.37,5.72,2,8.6s1.26,5.74,1.82,8.61c2.31,11.51,4.25,23.16,6.12,34.8.94,5.8,1.86,11.7,3,17.18l.47,2.33c.15.8.34,1.58.44,2.39.25,1.6.49,3.19.6,4.81a63.34,63.34,0,0,1,.17,9.64,53.35,53.35,0,0,1-4.34,18.56A38.61,38.61,0,0,1,309.3,359.58Z" transform="translate(0 -2.49)"/><path class="cls-6" d="M313.51,360.05l-1.26-6.18c-.4-2.05-.91-4.58-1.51-7.59s-1.2-6.52-1.91-10.48C306,320,302.31,296.66,298.62,267S291.2,201.21,288,159.9c-1.63-20.65-3.13-42.62-4.51-65.73-.35-5.77-.7-11.66-1-17.69-.06-1.52-.11-3-.17-4.56l-.09-3.57c0-1.48-.06-3-.05-4.44a164.89,164.89,0,0,1,.67-17.21,52.74,52.74,0,0,1,2.94-13.52,18.59,18.59,0,0,1,5.08-7.48,14.14,14.14,0,0,1,3.36-2.12,12.82,12.82,0,0,1,2.32-.78,12.58,12.58,0,0,1,2.91-.35,13.63,13.63,0,0,1,4.32.68,15.47,15.47,0,0,1,3.55,1.72L309,26.19l1.67,1.6,1.68,2.07c.55.82,1.1,1.7,1.66,2.54a78.72,78.72,0,0,1,6.09,13.93c.44,1.37.93,2.68,1.34,4.11l1.27,4.27c.77,2.93,1.58,5.9,2.22,8.79l.5,2.18L325.7,67l.5,2.37c.31,1.59.62,3.18.91,4.77,2.34,12.73,3.86,25.66,5,38.72a669.14,669.14,0,0,1,2.25,81c-.24,6.94-.56,13.93-1,20.95s-1.08,14.12-1.74,21.09q-2,21-4.25,42.52c-1.54,14.31-3.22,28.77-5.14,43.32s-4,29.24-6.95,43.9l-1.3,6.42-.46-6.43c-.36-5-.72-10.08-1.08-15.17,0,0,1,4.66,3,14.91h-2c1.54-19.42,2.17-60.87,3.26-117.56q.21-10.62.44-21.94t.05-23.07c-.21-15.8-.88-32.43-2.12-49.75q-1-13-2.34-26.47c-.93-9-2-18.14-3.29-27.32s-2.86-18.43-4.91-27.57l-.2-.86,0-.17v0l0-.12s0,0,0,0h0s0,0,0,.06,0,0-.07,0a.11.11,0,0,0-.06.06l.09,4.54c0,1.66.09,3.33.13,5q.35,10.11.7,20.37c.94,27.42,1.77,55.55,2.57,84.15s1.63,57.68,2.47,87S311.78,330.44,313.51,360.05Z" transform="translate(0 -2.49)"/><path class="cls-6" d="M312.25,366l-8.08-92.12c-2.6-29.22-5.76-64.65-9.8-105.09-2-20.22-4.29-41.7-7.14-64.18C286.52,99,285.79,93.24,285,87.5S283.32,76,282.29,70.29c-.51-2.85-1.07-5.7-1.71-8.49-.33-1.4-.67-2.79-1-4.15-.18-.67-.37-1.34-.57-2l-.12-.41h0s0,0,0,0h0s0-.12-.05.22L278.46,57c-.14.69-.26,1.4-.39,2.11-.24,1.41-.47,2.85-.66,4.31-.81,5.83-1.24,11.82-1.48,18-.47,12.27-.13,24.94.58,37.87,1.43,25.9,4.12,52.65,8.29,79.94,1,6.82,2.2,13.67,3.43,20.55q.93,5.16,1.95,10.34t2.07,10.46c1.4,7.13,2.51,14.25,3.6,21.42s2.08,14.36,3,21.59c2,14.46,3.82,29.06,5.9,43.74,1.05,7.34,2.1,14.72,3.36,22.07s2.57,14.75,4.56,22l-1.15.2c.05-5,.1-10.09.15-15.19l1.12,15.15.36,4.92-1.68-4.69c-1.68-4.66-3.6-10.74-5.49-18.15s-3.94-16.1-6-26-4.31-20.94-6.69-33.05-4.9-25.28-7.87-39.26c-.75-3.49-1.53-7-2.37-10.59-.44-1.78-.87-3.58-1.31-5.38s-.93-3.7-1.4-5.58q-2.75-11.24-5.23-23.25c-3.32-16-6.22-33-8.53-50.8-1.15-8.92-2.18-18-3-27.36s-1.56-18.84-1.94-28.61-.47-19.75.13-30c.31-5.14.82-10.32,1.64-15.59.21-1.32.43-2.64.7-4l.19-1,.1-.51.19-.78.83-3.4,1.09-3.55c.43-1.11.89-2.18,1.34-3.27s1.05-1.9,1.6-2.8c.62-.73,1.21-1.5,1.84-2.21A10.42,10.42,0,0,1,277,33.8a9.61,9.61,0,0,1,3.49.17,10.19,10.19,0,0,1,2.93,1.21,15.05,15.05,0,0,1,5,5.33A42.26,42.26,0,0,1,292.2,49l.69,2.19.37,1.28c.24.85.47,1.71.67,2.54.43,1.68.81,3.35,1.16,5,.71,3.34,1.31,6.67,1.86,10,2.13,13.31,3.54,26.55,5,40.1,2.74,27,4.76,54.76,6.32,83C311.34,249.43,312.79,307.69,312.25,366Z" transform="translate(0 -2.49)"/></g></g></svg>