<svg xmlns="http://www.w3.org/2000/svg" viewBox="0 0 1027.42 641.7"><defs><style>.cls-1{fill:#545759;opacity:0.08;}.cls-2{fill:#edba15;}.cls-3{fill:#ffce45;}.cls-4{fill:#999;}.cls-5{fill:#c7c7c8;}.cls-6{fill:#fff;}.cls-7{fill:#c96d2f;}.cls-8{fill:#c0c1c1;}.cls-9{fill:#616465;}.cls-10{fill:#818384;}.cls-11{fill:#616668;}.cls-12{fill:#505354;}.cls-13{fill:#818586;}.cls-14{fill:#313233;}.cls-15{fill:#c87985;}.cls-16{fill:#e8bfc7;}.cls-17{fill:#ddafb6;}.cls-18{fill:#deafb6;}.cls-19{fill:#a0a2a3;}.cls-20{fill:#9a9c9d;}</style></defs><g id="Layer_2" data-name="Layer 2"><g id="Treasure_Chest" data-name="Treasure Chest"><ellipse class="cls-1" cx="513.71" cy="541.93" rx="513.71" ry="99.76"/><path class="cls-2" d="M202.14,464.15,202,477.53l71.79.94.13-13.38S202.17,461.64,202.14,464.15Z"/><path class="cls-2" d="M273.8,478.47c-.08,7.85-16.21,14-36,13.74s-35.83-6.84-35.75-14.68,16.21-14,36-13.74S273.88,470.62,273.8,478.47Z"/><path class="cls-3" d="M273.93,465.09c-.08,7.85-16.21,14-36,13.74s-35.84-6.83-35.76-14.68,16.21-14,36-13.74S274,457.25,273.93,465.09Z"/><path class="cls-2" d="M127.91,486l-.13,13.37,71.79.94.13-13.37S127.94,483.47,127.91,486Z"/><path class="cls-4" d="M199.57,500.29c-.08,7.85-16.21,14-36,13.74s-35.83-6.83-35.75-14.68,16.21-14,36-13.74S199.65,492.45,199.57,500.29Z"/><path class="cls-5" d="M199.7,486.92c-.07,7.85-16.21,14-36,13.74s-35.83-6.83-35.76-14.68,16.22-14,36-13.74S199.78,479.07,199.7,486.92Z"/><path class="cls-4" d="M209.16,425,209,438.35l71.79.94.13-13.37S209.18,422.47,209.16,425Z"/><path class="cls-4" d="M280.82,439.29c-.08,7.85-16.22,14-36,13.74S209,446.2,209,438.35s16.21-14,36-13.74S280.89,431.45,280.82,439.29Z"/><path class="cls-5" d="M281,425.92c-.08,7.85-16.21,14-36,13.74s-35.83-6.83-35.75-14.68,16.21-14,36-13.74S281,418.07,281,425.92Z"/><path class="cls-2" d="M193.07,488.1l-.14,13.37,71.79.94.14-13.37S193.09,485.59,193.07,488.1Z"/><path class="cls-2" d="M264.72,502.41c-.08,7.85-16.21,14-36,13.74s-35.84-6.83-35.76-14.68,16.21-14,36-13.74S264.8,494.57,264.72,502.41Z"/><path class="cls-3" d="M264.86,489c-.08,7.85-16.22,14-36,13.74S193,496,193.07,488.1s16.21-14,36-13.74S264.93,481.19,264.86,489Z"/><path class="cls-4" d="M111.66,454.1l-.13,13.37,69.58.92.13-13.38S111.69,451.59,111.66,454.1Z"/><path class="cls-4" d="M181.11,468.39c-.08,7.84-15.72,14-34.93,13.75s-34.73-6.82-34.65-14.67,15.72-14,34.93-13.75S181.19,460.54,181.11,468.39Z"/><path class="cls-5" d="M181.24,455c-.07,7.85-15.71,14-34.93,13.76S111.59,462,111.66,454.1s15.72-14,34.94-13.75S181.32,447.16,181.24,455Z"/><path class="cls-2" d="M218.18,461.83l-.13,13.37,71.79.94.13-13.37S218.21,459.32,218.18,461.83Z"/><path class="cls-2" d="M289.84,476.14c-.08,7.85-16.21,14-36,13.74S218,483.05,218.05,475.2s16.21-14,36-13.74S289.92,468.3,289.84,476.14Z"/><path class="cls-5" d="M290,462.77c-.08,7.85-16.21,14-36,13.74s-35.84-6.83-35.76-14.68,16.21-14,36-13.74S290.05,454.92,290,462.77Z"/><path class="cls-2" d="M269.8,491.64,269.67,505l71.79.94.13-13.37S269.83,489.13,269.8,491.64Z"/><path class="cls-2" d="M341.46,506c-.08,7.85-16.22,14-36,13.74s-35.83-6.83-35.75-14.68,16.21-14,36-13.74S341.54,498.11,341.46,506Z"/><path class="cls-3" d="M341.59,492.58c-.08,7.85-16.21,14-36,13.74s-35.83-6.83-35.75-14.68,16.21-14,36-13.74S341.67,484.73,341.59,492.58Z"/><path class="cls-4" d="M181.26,453.75l-.14,13.37,71.79.94.14-13.37S181.28,451.24,181.26,453.75Z"/><path class="cls-4" d="M252.91,468.06c-.07,7.85-16.21,14-36,13.74s-35.83-6.83-35.76-14.68,16.22-14,36-13.74S253,460.21,252.91,468.06Z"/><path class="cls-5" d="M253.05,454.69c-.08,7.84-16.21,14-36,13.74s-35.83-6.84-35.75-14.68,16.21-14,36-13.74S253.13,446.84,253.05,454.69Z"/><path class="cls-4" d="M255.92,443.32l-.13,13.38,71.79.94.13-13.37S256,440.82,255.92,443.32Z"/><path class="cls-4" d="M327.58,457.64c-.08,7.85-16.21,14-36,13.74s-35.83-6.83-35.75-14.68,16.21-14,36-13.74S327.66,449.79,327.58,457.64Z"/><path class="cls-5" d="M327.71,444.27c-.08,7.84-16.21,14-36,13.73s-35.84-6.83-35.76-14.68,16.21-14,36-13.74S327.79,436.42,327.71,444.27Z"/><path class="cls-2" d="M340.47,493.83l-.13,13.38,71.79.94.13-13.38S340.5,491.32,340.47,493.83Z"/><path class="cls-4" d="M412.13,508.15c-.08,7.84-16.21,14-36,13.74s-35.83-6.84-35.75-14.68,16.21-14,36-13.74S412.21,500.3,412.13,508.15Z"/><path class="cls-5" d="M412.26,494.77c-.07,7.85-16.21,14-36,13.74s-35.83-6.83-35.76-14.68,16.22-14,36-13.74S412.34,486.92,412.26,494.77Z"/><path class="cls-4" d="M386.86,494.44l-.13,13.37,71.79.94.13-13.37S386.89,491.93,386.86,494.44Z"/><path class="cls-4" d="M458.52,508.75c-.08,7.85-16.22,14-36,13.74s-35.83-6.83-35.75-14.68,16.21-14,36-13.74S458.6,500.91,458.52,508.75Z"/><path class="cls-5" d="M458.65,495.38c-.08,7.85-16.21,14-36,13.74s-35.83-6.83-35.75-14.68,16.21-14,36-13.74S458.73,487.53,458.65,495.38Z"/><path class="cls-4" d="M287.72,466.54l-.13,13.37,71.79.95.13-13.38S287.75,464,287.72,466.54Z"/><path class="cls-4" d="M359.38,480.86c-.08,7.84-16.21,14-36,13.73s-35.84-6.83-35.76-14.68,16.21-14,36-13.73S359.46,473,359.38,480.86Z"/><path class="cls-5" d="M359.51,467.48c-.07,7.85-16.21,14-36,13.74s-35.83-6.83-35.76-14.68,16.22-14,36-13.74S359.59,459.63,359.51,467.48Z"/><path class="cls-4" d="M360.61,468.76l-.14,13.38,71.79.94.14-13.38S360.63,466.26,360.61,468.76Z"/><path class="cls-4" d="M432.26,483.08c-.07,7.85-16.21,14-36,13.74S360.4,490,360.47,482.14s16.22-14,36-13.74S432.34,475.23,432.26,483.08Z"/><path class="cls-5" d="M432.4,469.7c-.08,7.85-16.22,14-36,13.74s-35.83-6.83-35.75-14.68,16.21-14,36-13.74S432.48,461.86,432.4,469.7Z"/><path class="cls-4" d="M72.62,492.86l-.14,13.37,71.79.94.14-13.37S72.64,490.35,72.62,492.86Z"/><path class="cls-4" d="M144.27,507.17c-.08,7.85-16.21,14-36,13.74s-35.84-6.83-35.76-14.68,16.22-14,36-13.74S144.35,499.32,144.27,507.17Z"/><path class="cls-5" d="M144.41,493.8c-.08,7.84-16.22,14-36,13.73s-35.83-6.83-35.75-14.67,16.21-14,36-13.75S144.48,486,144.41,493.8Z"/><path class="cls-2" d="M129.76,522.74l-.14,13.37,71.79.94.14-13.37S129.78,520.23,129.76,522.74Z"/><path class="cls-4" d="M201.41,537.05c-.07,7.85-16.21,14-36,13.74s-35.83-6.83-35.76-14.68,16.22-14,36-13.74S201.49,529.2,201.41,537.05Z"/><path class="cls-5" d="M201.55,523.68c-.08,7.84-16.21,14-36,13.74s-35.83-6.84-35.75-14.68,16.21-14,36-13.74S201.63,515.83,201.55,523.68Z"/><path class="cls-4" d="M67.91,521.93l-.14,13.37,71.79.94.14-13.37S67.93,519.42,67.91,521.93Z"/><path class="cls-4" d="M139.56,536.24c-.07,7.85-16.21,14-36,13.74S67.7,543.15,67.77,535.3s16.22-14,36-13.74S139.64,528.39,139.56,536.24Z"/><path class="cls-5" d="M139.7,522.87c-.08,7.84-16.21,14-36,13.74s-35.83-6.84-35.75-14.68,16.21-14,36-13.74S139.78,515,139.7,522.87Z"/><path class="cls-4" d="M211,461.74l-.13,13.37,71.79.94.13-13.37S211,459.23,211,461.74Z"/><path class="cls-4" d="M282.66,476.05c-.08,7.85-16.21,14-36,13.74s-35.83-6.83-35.75-14.68,16.21-14,36-13.74S282.74,468.2,282.66,476.05Z"/><path class="cls-5" d="M282.79,462.68c-.08,7.84-16.21,14-36,13.73s-35.83-6.83-35.75-14.67,16.21-14,36-13.74S282.87,454.83,282.79,462.68Z"/><path class="cls-4" d="M194.91,524.86l-.14,13.37,71.8.94.13-13.37S194.93,522.35,194.91,524.86Z"/><path class="cls-4" d="M266.57,539.17c-.08,7.85-16.22,14-36,13.74s-35.83-6.83-35.76-14.68,16.22-14,36-13.74S266.64,531.32,266.57,539.17Z"/><path class="cls-5" d="M266.7,525.8c-.08,7.85-16.21,14-36,13.74s-35.83-6.83-35.75-14.68,16.21-14,36-13.74S266.78,518,266.7,525.8Z"/><path class="cls-4" d="M111.3,490.83l-.14,13.37,71.79.94.14-13.37S111.32,488.32,111.3,490.83Z"/><path class="cls-4" d="M183,505.14c-.07,7.85-16.21,14-36,13.74s-35.83-6.83-35.76-14.68,16.22-14,36-13.74S183,497.29,183,505.14Z"/><path class="cls-5" d="M183.09,491.77c-.08,7.85-16.21,14-36,13.74s-35.83-6.83-35.75-14.68,16.21-14,36-13.74S183.17,483.92,183.09,491.77Z"/><path class="cls-2" d="M220,498.59,219.89,512l71.79.94.13-13.37S220.05,496.08,220,498.59Z"/><path class="cls-4" d="M291.68,512.9c-.08,7.85-16.21,14-36,13.74s-35.83-6.83-35.75-14.68,16.21-14,36-13.74S291.76,505.05,291.68,512.9Z"/><path class="cls-5" d="M291.81,499.53c-.07,7.85-16.21,14-36,13.74S220,506.43,220,498.59s16.22-14,36-13.74S291.89,491.68,291.81,499.53Z"/><path class="cls-4" d="M271.64,528.4l-.13,13.37,71.79.94.13-13.37S271.67,525.89,271.64,528.4Z"/><path class="cls-4" d="M343.3,542.71c-.08,7.85-16.21,14-36,13.74s-35.83-6.83-35.75-14.68,16.21-14,36-13.74S343.38,534.86,343.3,542.71Z"/><path class="cls-5" d="M343.43,529.34c-.07,7.84-16.21,14-36,13.74s-35.83-6.84-35.76-14.68,16.22-14,36-13.74S343.51,521.49,343.43,529.34Z"/><path class="cls-4" d="M183.1,490.5,183,503.88l71.79.94.13-13.38S183.13,488,183.1,490.5Z"/><path class="cls-4" d="M254.76,504.82c-.08,7.85-16.22,14-36,13.74s-35.83-6.83-35.75-14.68,16.21-14,36-13.74S254.83,497,254.76,504.82Z"/><path class="cls-5" d="M254.89,491.44c-.08,7.85-16.21,14-36,13.74S183,498.35,183.1,490.5s16.21-14,36-13.74S255,483.59,254.89,491.44Z"/><path class="cls-4" d="M257.76,480.08l-.13,13.37,71.79.95.13-13.38S257.79,477.57,257.76,480.08Z"/><path class="cls-4" d="M329.42,494.4c-.08,7.84-16.21,14-36,13.74s-35.84-6.84-35.76-14.69,16.21-14,36-13.73S329.5,486.55,329.42,494.4Z"/><path class="cls-5" d="M329.55,481c-.07,7.85-16.21,14-36,13.74s-35.83-6.83-35.76-14.68,16.22-14,36-13.74S329.63,473.17,329.55,481Z"/><path class="cls-4" d="M342.32,530.59,342.18,544l71.79.94.14-13.37S342.34,528.08,342.32,530.59Z"/><path class="cls-4" d="M414,544.9c-.08,7.85-16.21,14-36,13.74S342.1,551.81,342.18,544s16.22-14,36-13.74S414.05,537.05,414,544.9Z"/><path class="cls-5" d="M414.11,531.53c-.08,7.85-16.22,14-36,13.74s-35.83-6.83-35.75-14.68,16.21-14,36-13.74S414.18,523.68,414.11,531.53Z"/><path class="cls-4" d="M388.7,531.2l-.13,13.37,71.79.94.13-13.37S388.73,528.69,388.7,531.2Z"/><path class="cls-4" d="M460.36,545.51c-.08,7.85-16.21,14-36,13.74s-35.83-6.83-35.75-14.68,16.21-14,36-13.74S460.44,537.66,460.36,545.51Z"/><path class="cls-5" d="M460.49,532.14c-.07,7.85-16.21,14-36,13.74S388.63,539,388.7,531.2s16.22-14,36-13.74S460.57,524.29,460.49,532.14Z"/><path class="cls-4" d="M289.57,503.3l-.14,13.37,71.79.94.14-13.37S289.59,500.79,289.57,503.3Z"/><path class="cls-4" d="M361.22,517.61c-.07,7.85-16.21,14-36,13.74s-35.83-6.83-35.76-14.68,16.22-14,36-13.74S361.3,509.77,361.22,517.61Z"/><path class="cls-5" d="M361.36,504.24c-.08,7.85-16.22,14-36,13.74s-35.83-6.83-35.75-14.68,16.21-14,36-13.74S361.44,496.39,361.36,504.24Z"/><path class="cls-4" d="M362.45,505.52l-.13,13.37,71.79,1,.13-13.38S362.47,503,362.45,505.52Z"/><path class="cls-4" d="M434.11,519.84c-.08,7.84-16.22,14-36,13.73s-35.83-6.83-35.75-14.68,16.21-14,36-13.74S434.18,512,434.11,519.84Z"/><path class="cls-5" d="M434.24,506.46c-.08,7.85-16.21,14-36,13.74s-35.83-6.83-35.75-14.68,16.21-14,36-13.74S434.32,498.61,434.24,506.46Z"/><path class="cls-2" d="M303.92,559.22l-.13,13.37,71.79.94.13-13.37S304,556.71,303.92,559.22Z"/><path class="cls-4" d="M375.58,573.53c-.08,7.85-16.21,14-36,13.74s-35.83-6.83-35.75-14.68,16.21-14,36-13.74S375.66,565.68,375.58,573.53Z"/><path class="cls-5" d="M375.71,560.16c-.08,7.85-16.21,14-36,13.74s-35.84-6.83-35.76-14.68,16.21-14,36-13.74S375.79,552.31,375.71,560.16Z"/><path class="cls-4" d="M242.16,549.54,242,562.92l71.79.94.13-13.38S242.19,547,242.16,549.54Z"/><path class="cls-4" d="M313.82,563.86c-.08,7.85-16.22,14-36,13.74S242,570.76,242,562.92s16.21-14,36-13.74S313.9,556,313.82,563.86Z"/><path class="cls-5" d="M314,550.48c-.08,7.85-16.21,14-36,13.74s-35.83-6.83-35.75-14.68,16.21-14,36-13.74S314,542.63,314,550.48Z"/><path class="cls-4" d="M342.6,557.19l-.13,13.38,71.79.94.13-13.38S342.63,554.68,342.6,557.19Z"/><path class="cls-4" d="M414.26,571.51c-.08,7.85-16.21,14-36,13.74s-35.83-6.84-35.75-14.68,16.21-14,36-13.74S414.34,563.66,414.26,571.51Z"/><path class="cls-5" d="M414.39,558.13c-.07,7.85-16.21,14-36,13.74S342.52,565,342.6,557.19s16.22-14,36-13.74S414.47,550.29,414.39,558.13Z"/><path class="cls-4" d="M414.41,556.87l-.14,13.37,71.79.94.14-13.37S414.43,554.36,414.41,556.87Z"/><path class="cls-4" d="M486.06,571.18c-.07,7.85-16.21,14-36,13.74s-35.83-6.83-35.76-14.68,16.22-14,36-13.74S486.14,563.33,486.06,571.18Z"/><path class="cls-5" d="M486.2,557.81c-.08,7.85-16.22,14-36,13.74s-35.83-6.84-35.75-14.68,16.21-14,36-13.74S486.28,550,486.2,557.81Z"/><polygon class="cls-6" points="429.73 499.15 420.3 472.42 405.16 495.44 417.5 470.32 392.36 471.11 417.19 466.5 400.98 444.46 419.59 463.84 424.52 435.57 422.91 464.34 445.26 451.13 424.64 467.63 447.58 479.43 423.47 471.22 429.73 499.15"/><polygon class="cls-6" points="148.19 584.94 117.63 498.36 68.59 572.95 108.56 491.56 27.13 494.1 107.55 479.19 55.05 407.78 115.35 470.57 131.31 378.98 126.09 472.19 198.49 429.39 131.68 482.83 206.01 521.05 127.92 494.48 148.19 584.94"/><path class="cls-7" d="M324.91,89.91S370.08-25.78,457.41,5.3s54.21,177.85,54.21,177.85Z"/><polygon class="cls-8" points="296.3 221.13 621.54 324.73 812.77 283.29 507.1 183.15 296.3 221.13"/><polygon class="cls-9" points="296.3 221.13 296.3 452.5 621.54 587.17 621.54 324.73 296.3 221.13"/><polygon class="cls-10" points="621.54 324.73 812.77 283.29 812.77 518.11 621.54 587.17 621.54 324.73"/><polygon class="cls-11" points="324.91 89.91 621.54 179.69 812.77 283.29 507.1 183.15 324.91 89.91"/><path class="cls-12" d="M507.1,183.15s36.14-114-30.11-152S324.91,89.91,324.91,89.91Z"/><path class="cls-10" d="M621.54,179.69S666.71,64,754,95.09s58.73,188.2,58.73,188.2Z"/><path class="cls-10" d="M324.91,89.91l296.63,89.78s57.22-124.32,144.55-79.42L457.41,5.3S382.13-29.23,324.91,89.91Z"/><polygon class="cls-11" points="332.44 222.86 618.53 312.64 779.64 279.84 508.61 190.05 332.44 222.86"/><polygon class="cls-9" points="420.52 9.62 665.96 87.32 653.91 89.04 414.5 13.07 420.52 9.62"/><polygon class="cls-9" points="384.38 51.06 629.82 128.76 617.77 130.48 378.36 54.51 384.38 51.06"/><polygon class="cls-13" points="508.61 190.05 508.61 279.84 332.44 222.86 508.61 190.05"/><polygon class="cls-14" points="296.3 269.48 620.03 398.97 620.03 386.89 294.79 257.39 296.3 269.48"/><path class="cls-15" d="M324.28,89.65S366.76-16.21,448.07,2.78l25.59,6.91S408.6-13.94,348.37,98.29Z"/><path class="cls-15" d="M621.54,179.69l-40.66-10.36s64.75-108.78,114.44-95L754,95.09S695.32,62.28,621.54,179.69Z"/><path class="cls-16" d="M564.32,307.46l21.08-5.18,33.13,10.36,43.66-10.36,19.58,8.64v34.53l-37.64,13.81v46.62l-21.08,5.18L600.46,400.7V352.35l-36.14-13.81Z"/><polygon class="cls-9" points="620.03 381.71 812.02 327.32 812.02 338.97 620.03 393.79 620.03 381.71"/><polygon class="cls-17" points="623.04 411.06 623.04 326.45 681.77 310.92 681.77 345.45 644.13 359.26 644.13 405.88 623.04 411.06"/><polygon class="cls-9" points="620.03 522.86 814.27 465.88 814.27 477.53 620.03 534.94 620.03 522.86"/><polygon class="cls-15" points="564.32 307.46 623.04 326.45 623.04 411.06 600.46 400.7 600.46 352.35 564.32 338.54 564.32 307.46"/><polygon class="cls-14" points="303.83 412.79 621.54 540.56 621.54 528.47 296.3 398.97 303.83 412.79"/><polygon class="cls-14" points="296.3 342 620.03 471.49 620.03 459.4 294.79 329.91 296.3 342"/><polygon class="cls-15" points="561.31 561.28 561.31 531.92 597.45 547.46 597.45 499.12 620.03 509.48 641.11 500.84 641.11 544.01 672.73 535.38 672.73 566.46 621.54 587.17 561.31 561.28"/><polygon class="cls-17" points="620.03 509.48 620.03 587.17 672.73 566.46 672.73 535.38 641.11 544.01 641.11 500.84 620.03 509.48"/><polygon class="cls-15" points="332.44 222.86 370.08 214.22 355.02 207.32 296.3 221.13 296.3 305.74 312.86 310.92 312.86 248.76 344.48 260.84 344.48 240.12 367.07 234.94 332.44 222.86"/><polygon class="cls-18" points="296.3 221.13 344.48 240.12 367.07 234.94 332.44 222.86 370.08 214.22 355.02 207.32 296.3 221.13"/><polygon class="cls-10" points="391.16 252.21 391.16 345.45 478.49 376.53 478.49 279.84 495.06 274.66 409.98 247.89 391.16 252.21"/><polygon class="cls-19" points="391.16 252.21 478.49 279.84 495.06 274.66 409.98 247.89 391.16 252.21"/><path class="cls-13" d="M407.72,114.08s7.53-22.45,25.6-39.71l85.83,24.17s-12,12.09-24.09,39.71Z"/><polyline class="cls-20" points="391.16 110.63 324.91 89.91 507.1 183.15 812.77 283.29 621.54 179.69 391.16 110.63 398.69 117.53 618.53 184.87 758.56 259.12 507.1 174.51 377.61 112.35 410.74 120.99"/><path class="cls-9" d="M651.65,178s55.72-93.24,108.42-58.71,40.65,134.68,40.65,134.68Z"/><polygon class="cls-15" points="757.06 285.02 775.13 290.2 775.13 326.45 799.22 321.27 799.22 371.35 812.77 367.89 812.77 283.29 766.09 266.02 751.03 267.75 779.64 279.84 757.06 285.02"/><polygon class="cls-17" points="775.13 290.2 812.77 283.29 812.77 367.89 799.22 371.35 799.22 321.27 775.13 326.45 775.13 290.2"/><polygon class="cls-15" points="296.3 452.5 327.92 464.58 326.42 438.69 309.85 431.78 309.85 404.15 296.3 398.97 296.3 452.5"/><polygon class="cls-9" points="620.03 459.4 814.27 402.43 814.27 414.08 620.03 471.49 620.03 459.4"/><polygon class="cls-6" points="393.41 119.73 374.7 73.53 344.69 113.33 369.15 69.89 319.32 71.25 368.53 63.29 336.4 25.18 373.31 58.69 383.07 9.81 379.88 59.56 424.19 36.72 383.3 65.23 428.79 85.63 381 71.45 393.41 119.73"/><polygon class="cls-6" points="623.06 368.47 611.22 339.22 592.22 364.42 607.71 336.92 576.16 337.78 607.31 332.75 586.98 308.62 610.34 329.83 616.52 298.89 614.5 330.38 642.54 315.92 616.66 333.97 645.46 346.89 615.21 337.91 623.06 368.47"/><path class="cls-2" d="M418.11,207.41l-.08,7.14,43.94.5.08-7.14S418.13,206.07,418.11,207.41Z"/><path class="cls-2" d="M462,215.05c-.05,4.19-9.93,7.47-22.06,7.33S418,218.73,418,214.55s9.92-7.48,22.06-7.34S462,210.86,462,215.05Z"/><path class="cls-3" d="M462.05,207.91c-.05,4.19-9.92,7.47-22.06,7.33s-21.92-3.64-21.88-7.83,9.93-7.47,22.06-7.34S462.1,203.72,462.05,207.91Z"/><path class="cls-2" d="M372.69,219.06l-.08,7.13,43.93.51.08-7.14S372.71,217.72,372.69,219.06Z"/><path class="cls-4" d="M416.54,226.7c-.05,4.18-9.92,7.47-22.05,7.33s-21.93-3.65-21.88-7.84,9.92-7.47,22.05-7.33S416.59,222.51,416.54,226.7Z"/><path class="cls-5" d="M416.62,219.56c0,4.19-9.92,7.47-22.05,7.33s-21.93-3.65-21.88-7.83,9.92-7.47,22.05-7.34S416.67,215.37,416.62,219.56Z"/><path class="cls-4" d="M422.41,186.5l-.08,7.14,43.93.5.08-7.14S422.42,185.16,422.41,186.5Z"/><path class="cls-4" d="M466.26,194.14c-.05,4.19-9.92,7.47-22.05,7.33s-21.93-3.64-21.88-7.83,9.92-7.47,22.05-7.33S466.31,190,466.26,194.14Z"/><path class="cls-5" d="M466.34,187c0,4.19-9.92,7.47-22,7.34s-21.93-3.65-21.88-7.84,9.92-7.47,22-7.33S466.39,182.82,466.34,187Z"/><path class="cls-2" d="M412.56,220.19l-.08,7.14,43.93.5.08-7.14S412.58,218.85,412.56,220.19Z"/><path class="cls-2" d="M456.41,227.83c-.05,4.19-9.92,7.47-22.05,7.33s-21.93-3.65-21.88-7.83,9.92-7.48,22-7.34S456.46,223.64,456.41,227.83Z"/><path class="cls-3" d="M456.49,220.69c0,4.19-9.92,7.47-22.05,7.33s-21.93-3.64-21.88-7.83,9.92-7.47,22.05-7.33S456.54,216.5,456.49,220.69Z"/><path class="cls-4" d="M362.74,202l-.08,7.14,42.58.49.09-7.14S362.76,200.7,362.74,202Z"/><path class="cls-4" d="M405.24,209.67c0,4.19-9.61,7.47-21.37,7.34s-21.25-3.64-21.21-7.83,9.62-7.47,21.38-7.34S405.29,205.48,405.24,209.67Z"/><path class="cls-5" d="M405.33,202.53c-.05,4.19-9.62,7.47-21.38,7.34s-21.25-3.64-21.21-7.83,9.62-7.47,21.38-7.34S405.37,198.34,405.33,202.53Z"/><path class="cls-2" d="M427.93,206.17l-.08,7.14,43.93.5.08-7.14S428,204.83,427.93,206.17Z"/><path class="cls-2" d="M471.78,213.81c0,4.19-9.92,7.47-22,7.33s-21.93-3.65-21.88-7.83,9.92-7.48,22-7.34S471.83,209.62,471.78,213.81Z"/><path class="cls-5" d="M471.86,206.67c0,4.19-9.92,7.47-22.05,7.33s-21.93-3.64-21.88-7.83,9.92-7.47,22.05-7.33S471.91,202.48,471.86,206.67Z"/><path class="cls-2" d="M459.52,222.08l-.08,7.13,43.93.51.08-7.14S459.53,220.74,459.52,222.08Z"/><path class="cls-2" d="M503.37,229.72c-.05,4.18-9.92,7.47-22.05,7.33s-21.93-3.65-21.88-7.84,9.92-7.47,22.05-7.33S503.42,225.53,503.37,229.72Z"/><path class="cls-3" d="M503.45,222.58c0,4.19-9.92,7.47-22.05,7.33s-21.93-3.65-21.88-7.83,9.92-7.47,22.05-7.34S503.5,218.39,503.45,222.58Z"/><path class="cls-4" d="M405.33,201.85l-.08,7.14,43.94.5.08-7.13S405.35,200.52,405.33,201.85Z"/><path class="cls-4" d="M449.19,209.49c-.05,4.19-9.93,7.47-22.06,7.34s-21.93-3.65-21.88-7.84,9.92-7.47,22.06-7.33S449.23,205.31,449.19,209.49Z"/><path class="cls-5" d="M449.27,202.36c0,4.18-9.92,7.47-22.06,7.33s-21.92-3.65-21.88-7.84,9.93-7.47,22.06-7.33S449.31,198.17,449.27,202.36Z"/><path class="cls-4" d="M451,196.29l-.09,7.14,43.94.5.08-7.14S451,195,451,196.29Z"/><path class="cls-4" d="M494.88,203.93c-.05,4.19-9.92,7.47-22.05,7.33s-21.93-3.64-21.89-7.83S460.87,196,473,196.1,494.93,199.74,494.88,203.93Z"/><path class="cls-5" d="M495,196.79c0,4.19-9.92,7.48-22,7.34S451,200.48,451,196.29s9.92-7.47,22.05-7.33S495,192.61,495,196.79Z"/><path class="cls-2" d="M502.77,223.25l-.08,7.13,43.93.51.08-7.14S502.78,221.91,502.77,223.25Z"/><path class="cls-4" d="M546.62,230.89c0,4.18-9.92,7.47-22,7.33s-21.93-3.65-21.88-7.84,9.92-7.47,22.05-7.33S546.67,226.7,546.62,230.89Z"/><path class="cls-5" d="M546.7,223.75c-.05,4.19-9.92,7.47-22.05,7.33s-21.93-3.64-21.88-7.83,9.92-7.47,22.05-7.34S546.75,219.56,546.7,223.75Z"/><path class="cls-4" d="M531.16,223.57l-.08,7.14,43.93.5.08-7.14S531.17,222.23,531.16,223.57Z"/><path class="cls-4" d="M575,231.21c0,4.19-9.92,7.47-22,7.33s-21.93-3.64-21.88-7.83,9.92-7.47,22-7.33S575.06,227,575,231.21Z"/><path class="cls-5" d="M575.09,224.07c-.05,4.19-9.92,7.47-22.05,7.34s-21.93-3.65-21.88-7.84,9.92-7.47,22.05-7.33S575.14,219.88,575.09,224.07Z"/><path class="cls-4" d="M470.49,208.68l-.08,7.14,43.93.5.08-7.14S470.5,207.34,470.49,208.68Z"/><path class="cls-4" d="M514.34,216.32c-.05,4.19-9.92,7.47-22.05,7.33s-21.93-3.64-21.88-7.83,9.92-7.47,22-7.33S514.39,212.13,514.34,216.32Z"/><path class="cls-5" d="M514.42,209.18c0,4.19-9.92,7.48-22,7.34s-21.93-3.65-21.88-7.84,9.92-7.47,22.05-7.33S514.47,205,514.42,209.18Z"/><path class="cls-4" d="M515.09,209.87,515,217l43.93.5.08-7.14S515.11,208.53,515.09,209.87Z"/><path class="cls-4" d="M558.94,217.51c-.05,4.19-9.92,7.47-22.05,7.33S515,221.19,515,217s9.92-7.48,22-7.34S559,213.32,558.94,217.51Z"/><path class="cls-5" d="M559,210.37c0,4.19-9.92,7.47-22,7.33s-21.93-3.64-21.88-7.83,9.92-7.47,22-7.34S559.07,206.18,559,210.37Z"/><path class="cls-4" d="M338.85,222.73l-.08,7.13,43.93.51.08-7.14S338.86,221.39,338.85,222.73Z"/><path class="cls-4" d="M382.7,230.37c-.05,4.18-9.92,7.47-22.05,7.33s-21.93-3.65-21.88-7.84,9.92-7.47,22.05-7.33S382.75,226.18,382.7,230.37Z"/><path class="cls-5" d="M382.78,223.23c0,4.19-9.92,7.47-22,7.33s-21.93-3.65-21.88-7.83,9.92-7.48,22-7.34S382.83,219,382.78,223.23Z"/><path class="cls-2" d="M373.82,238.67l-.08,7.14,43.93.5.08-7.14S373.83,237.33,373.82,238.67Z"/><path class="cls-4" d="M417.67,246.31c-.05,4.19-9.92,7.47-22.05,7.33s-21.93-3.64-21.88-7.83,9.92-7.47,22.05-7.33S417.72,242.12,417.67,246.31Z"/><path class="cls-5" d="M417.75,239.17c-.05,4.19-9.92,7.48-22.05,7.34s-21.93-3.65-21.88-7.84,9.92-7.47,22.05-7.33S417.8,235,417.75,239.17Z"/><path class="cls-4" d="M336,238.24l-.08,7.14,43.93.5.08-7.14S336,236.9,336,238.24Z"/><path class="cls-4" d="M379.82,245.88c-.05,4.19-9.92,7.47-22.05,7.33s-21.93-3.64-21.88-7.83,9.92-7.47,22.05-7.33S379.87,241.69,379.82,245.88Z"/><path class="cls-5" d="M379.9,238.74c0,4.19-9.92,7.47-22,7.33s-21.93-3.64-21.88-7.83,9.92-7.47,22-7.33S380,234.55,379.9,238.74Z"/><path class="cls-4" d="M423.54,206.12l-.08,7.14,43.93.5.08-7.14S423.55,204.78,423.54,206.12Z"/><path class="cls-4" d="M467.39,213.76c-.05,4.19-9.92,7.47-22.06,7.33s-21.92-3.65-21.87-7.83,9.92-7.48,22.05-7.34S467.44,209.57,467.39,213.76Z"/><path class="cls-5" d="M467.47,206.62c-.05,4.19-9.92,7.47-22.05,7.33s-21.93-3.64-21.88-7.83,9.92-7.47,22-7.34S467.52,202.43,467.47,206.62Z"/><path class="cls-4" d="M413.69,239.8l-.08,7.14,43.93.5.08-7.13S413.7,238.47,413.69,239.8Z"/><path class="cls-4" d="M457.54,247.44c-.05,4.19-9.92,7.48-22.05,7.34s-21.93-3.65-21.88-7.84,9.92-7.47,22.05-7.33S457.59,243.26,457.54,247.44Z"/><path class="cls-5" d="M457.62,240.31c-.05,4.18-9.92,7.47-22.05,7.33s-21.93-3.65-21.88-7.84,9.92-7.47,22.05-7.33S457.67,236.12,457.62,240.31Z"/><path class="cls-4" d="M362.52,221.64l-.08,7.14,43.93.5.08-7.13S362.54,220.31,362.52,221.64Z"/><path class="cls-4" d="M406.37,229.28c-.05,4.19-9.92,7.47-22.05,7.34s-21.93-3.65-21.88-7.84,9.92-7.47,22.05-7.33S406.42,225.1,406.37,229.28Z"/><path class="cls-5" d="M406.45,222.15c0,4.18-9.92,7.47-22.05,7.33s-21.93-3.65-21.88-7.84,9.92-7.47,22.05-7.33S406.5,218,406.45,222.15Z"/><path class="cls-2" d="M429.06,225.78l-.08,7.14,43.93.5.08-7.13S429.07,224.45,429.06,225.78Z"/><path class="cls-4" d="M472.91,233.42c-.05,4.19-9.92,7.47-22.05,7.34s-21.93-3.65-21.88-7.84,9.92-7.47,22-7.33S473,229.24,472.91,233.42Z"/><path class="cls-5" d="M473,226.29c-.05,4.19-9.92,7.47-22.05,7.33S429,230,429.06,225.78s9.92-7.47,22.05-7.33S473,222.1,473,226.29Z"/><path class="cls-4" d="M460.65,241.69l-.08,7.14,43.93.5.08-7.13S460.66,240.35,460.65,241.69Z"/><path class="cls-4" d="M504.5,249.33c-.05,4.19-9.92,7.47-22.05,7.34s-21.93-3.65-21.88-7.84,9.92-7.47,22.05-7.33S504.55,245.14,504.5,249.33Z"/><path class="cls-5" d="M504.58,242.2c-.05,4.18-9.92,7.47-22.05,7.33s-21.93-3.65-21.88-7.84,9.92-7.47,22.05-7.33S504.63,238,504.58,242.2Z"/><path class="cls-4" d="M406.46,221.47l-.08,7.14,43.93.5.08-7.14S406.48,220.13,406.46,221.47Z"/><path class="cls-4" d="M450.31,229.11c0,4.19-9.92,7.47-22.05,7.33s-21.93-3.64-21.88-7.83,9.92-7.47,22.05-7.34S450.36,224.92,450.31,229.11Z"/><path class="cls-5" d="M450.39,222c0,4.19-9.92,7.47-22.05,7.33s-21.93-3.64-21.88-7.83,9.92-7.47,22.06-7.33S450.44,217.78,450.39,222Z"/><path class="cls-4" d="M452.15,215.91l-.08,7.14,43.94.5.08-7.14S452.17,214.57,452.15,215.91Z"/><path class="cls-4" d="M496,223.55c-.05,4.19-9.93,7.47-22.06,7.33s-21.93-3.65-21.88-7.83,9.92-7.48,22.06-7.34S496.05,219.36,496,223.55Z"/><path class="cls-5" d="M496.09,216.41c0,4.19-9.92,7.47-22.06,7.33s-21.92-3.64-21.88-7.83,9.93-7.47,22.06-7.33S496.14,212.22,496.09,216.41Z"/><path class="cls-4" d="M503.9,242.86l-.08,7.14,43.93.5.08-7.13S503.91,241.52,503.9,242.86Z"/><path class="cls-4" d="M547.75,250.5c0,4.19-9.92,7.47-22,7.34s-21.93-3.65-21.88-7.84,9.92-7.47,22.05-7.33S547.8,246.31,547.75,250.5Z"/><path class="cls-5" d="M547.83,243.37c-.05,4.18-9.92,7.47-22.05,7.33s-21.93-3.65-21.88-7.84,9.92-7.47,22.05-7.33S547.88,239.18,547.83,243.37Z"/><path class="cls-4" d="M532.28,243.19l-.08,7.14,43.94.5.08-7.14S532.3,241.85,532.28,243.19Z"/><path class="cls-4" d="M576.14,250.83c0,4.19-9.93,7.47-22.06,7.33s-21.92-3.65-21.88-7.83,9.92-7.48,22.06-7.34S576.18,246.64,576.14,250.83Z"/><path class="cls-5" d="M576.22,243.69c-.05,4.19-9.92,7.47-22.06,7.33s-21.92-3.64-21.88-7.83,9.93-7.47,22.06-7.33S576.27,239.5,576.22,243.69Z"/><path class="cls-4" d="M471.62,228.3l-.09,7.14,43.94.5.08-7.14S471.63,227,471.62,228.3Z"/><path class="cls-4" d="M515.47,235.94c-.05,4.19-9.92,7.47-22.06,7.33s-21.92-3.65-21.88-7.83,9.93-7.48,22.06-7.34S515.52,231.75,515.47,235.94Z"/><path class="cls-5" d="M515.55,228.8c0,4.19-9.92,7.47-22,7.33s-21.93-3.64-21.88-7.83,9.92-7.47,22.05-7.33S515.6,224.61,515.55,228.8Z"/><path class="cls-4" d="M516.22,229.48l-.08,7.14,43.93.5.08-7.13S516.23,228.15,516.22,229.48Z"/><path class="cls-4" d="M560.07,237.12c-.05,4.19-9.92,7.48-22.05,7.34s-21.93-3.65-21.88-7.84,9.92-7.47,22.05-7.33S560.12,232.94,560.07,237.12Z"/><path class="cls-5" d="M560.15,230c0,4.18-9.92,7.47-22,7.33s-21.93-3.65-21.88-7.84,9.92-7.47,22-7.33S560.2,225.8,560.15,230Z"/><path class="cls-2" d="M480.4,258.14l-.08,7.14,43.93.5.08-7.14S480.42,256.8,480.4,258.14Z"/><path class="cls-4" d="M524.25,265.78c0,4.19-9.92,7.47-22.05,7.33s-21.93-3.64-21.88-7.83,9.92-7.47,22.05-7.33S524.3,261.59,524.25,265.78Z"/><path class="cls-5" d="M524.33,258.64c0,4.19-9.92,7.48-22.05,7.34s-21.93-3.65-21.88-7.84,9.92-7.47,22.05-7.33S524.38,254.46,524.33,258.64Z"/><path class="cls-4" d="M442.6,253l-.08,7.14,43.94.5.08-7.14S442.62,251.64,442.6,253Z"/><path class="cls-4" d="M486.46,260.62c0,4.19-9.93,7.47-22.06,7.33s-21.92-3.65-21.88-7.83,9.92-7.48,22.06-7.34S486.5,256.43,486.46,260.62Z"/><path class="cls-5" d="M486.54,253.48c-.05,4.19-9.92,7.47-22.05,7.33s-21.93-3.64-21.89-7.83,9.93-7.47,22.06-7.33S486.59,249.29,486.54,253.48Z"/><path class="cls-2" d="M515.37,274.09l-.08,7.14,43.93.5.08-7.14S515.39,272.75,515.37,274.09Z"/><path class="cls-4" d="M559.22,281.73c-.05,4.19-9.92,7.47-22.05,7.33s-21.93-3.64-21.88-7.83,9.92-7.47,22.05-7.34S559.27,277.54,559.22,281.73Z"/><path class="cls-5" d="M559.3,274.59c0,4.19-9.92,7.47-22,7.33s-21.93-3.64-21.88-7.83,9.92-7.47,22-7.33S559.35,270.4,559.3,274.59Z"/><path class="cls-4" d="M565.09,241.53l-.08,7.14,43.93.5L609,242S565.1,240.2,565.09,241.53Z"/><path class="cls-2" d="M608.94,249.17c-.05,4.19-9.92,7.48-22.05,7.34S565,252.86,565,248.67s9.92-7.47,22-7.33S609,245,608.94,249.17Z"/><path class="cls-5" d="M609,242c0,4.19-9.92,7.47-22,7.33s-21.93-3.65-21.88-7.84,9.92-7.47,22-7.33S609.07,237.85,609,242Z"/><path class="cls-2" d="M555.24,275.22l-.08,7.14,43.93.5.08-7.14S555.26,273.88,555.24,275.22Z"/><path class="cls-2" d="M599.09,282.86c-.05,4.19-9.92,7.47-22.05,7.33s-21.93-3.64-21.88-7.83,9.92-7.47,22.05-7.33S599.14,278.67,599.09,282.86Z"/><path class="cls-3" d="M599.17,275.72c0,4.19-9.92,7.47-22,7.34s-21.93-3.65-21.88-7.84,9.92-7.47,22-7.33S599.22,271.54,599.17,275.72Z"/><path class="cls-4" d="M504.07,257.06,504,264.2l43.93.5.09-7.14S504.09,255.72,504.07,257.06Z"/><path class="cls-4" d="M547.92,264.7c0,4.19-9.92,7.47-22,7.33s-21.93-3.64-21.88-7.83,9.92-7.47,22-7.33S548,260.51,547.92,264.7Z"/><path class="cls-5" d="M548,257.56c0,4.19-9.93,7.47-22.06,7.34s-21.93-3.65-21.88-7.84,9.92-7.47,22.06-7.33S548.05,253.38,548,257.56Z"/><path class="cls-2" d="M570.61,261.2l-.08,7.14,43.93.5.08-7.14S570.63,259.86,570.61,261.2Z"/><path class="cls-2" d="M614.46,268.84c-.05,4.19-9.92,7.47-22.05,7.33s-21.93-3.64-21.88-7.83,9.92-7.47,22.05-7.33S614.51,264.65,614.46,268.84Z"/><path class="cls-3" d="M614.54,261.7c0,4.19-9.92,7.47-22,7.34s-21.93-3.65-21.88-7.84,9.92-7.47,22-7.33S614.59,257.52,614.54,261.7Z"/><path class="cls-4" d="M602.2,277.11l-.08,7.14,43.93.5.08-7.14S602.21,275.77,602.2,277.11Z"/><path class="cls-4" d="M646.05,284.75c0,4.19-9.92,7.47-22,7.33s-21.93-3.64-21.88-7.83,9.92-7.47,22-7.33S646.1,280.56,646.05,284.75Z"/><path class="cls-5" d="M646.13,277.61c0,4.19-9.92,7.47-22,7.33s-21.93-3.64-21.88-7.83,9.92-7.47,22-7.33S646.18,273.42,646.13,277.61Z"/><path class="cls-4" d="M548,256.89l-.08,7.13,43.94.51.08-7.14S548,255.55,548,256.89Z"/><path class="cls-4" d="M591.87,264.53c0,4.19-9.93,7.47-22.06,7.33s-21.93-3.65-21.88-7.84,9.92-7.47,22.06-7.33S591.91,260.34,591.87,264.53Z"/><path class="cls-5" d="M592,257.39c-.05,4.19-9.92,7.47-22.06,7.33S548,261.08,548,256.89s9.93-7.47,22.06-7.34S592,253.2,592,257.39Z"/><path class="cls-4" d="M593.71,251.33l-.08,7.13,43.93.51.08-7.14S593.72,250,593.71,251.33Z"/><path class="cls-4" d="M637.56,259c0,4.18-9.92,7.47-22,7.33s-21.93-3.65-21.88-7.84,9.92-7.47,22-7.33S637.61,254.78,637.56,259Z"/><path class="cls-5" d="M637.64,251.83c0,4.19-9.92,7.47-22,7.33s-21.93-3.65-21.88-7.83,9.92-7.48,22-7.34S637.69,247.64,637.64,251.83Z"/><path class="cls-4" d="M645.45,278.28l-.08,7.14,43.93.5.08-7.14S645.46,276.94,645.45,278.28Z"/><path class="cls-4" d="M689.3,285.92c0,4.19-9.92,7.47-22,7.33s-21.93-3.64-21.88-7.83,9.92-7.47,22-7.34S689.35,281.73,689.3,285.92Z"/><path class="cls-5" d="M689.38,278.78c0,4.19-9.92,7.47-22,7.34s-21.93-3.65-21.88-7.84,9.92-7.47,22-7.33S689.43,274.59,689.38,278.78Z"/><path class="cls-4" d="M673.84,278.61l-.08,7.13,43.93.5.08-7.13S673.85,277.27,673.84,278.61Z"/><path class="cls-4" d="M717.69,286.24c-.05,4.19-9.92,7.48-22.06,7.34s-21.92-3.65-21.87-7.84,9.92-7.47,22-7.33S717.74,282.06,717.69,286.24Z"/><path class="cls-5" d="M717.77,279.11c0,4.19-9.92,7.47-22,7.33s-21.93-3.65-21.88-7.83,9.92-7.48,22-7.34S717.82,274.92,717.77,279.11Z"/><path class="cls-4" d="M613.17,263.72l-.08,7.13,43.93.51.08-7.14S613.18,262.38,613.17,263.72Z"/><path class="cls-4" d="M657,271.36c0,4.18-9.92,7.47-22,7.33S613,275,613.09,270.85s9.92-7.47,22-7.33S657.07,267.17,657,271.36Z"/><path class="cls-5" d="M657.1,264.22c-.05,4.19-9.92,7.47-22.05,7.33s-21.93-3.65-21.88-7.83,9.92-7.48,22.05-7.34S657.15,260,657.1,264.22Z"/><path class="cls-4" d="M657.77,264.9l-.08,7.14,43.93.5.08-7.14S657.79,263.56,657.77,264.9Z"/><path class="cls-4" d="M701.62,272.54c0,4.19-9.92,7.47-22,7.33s-21.93-3.64-21.88-7.83,9.92-7.47,22-7.33S701.67,268.35,701.62,272.54Z"/><path class="cls-5" d="M701.7,265.4c0,4.19-9.92,7.47-22.05,7.34s-21.93-3.65-21.88-7.84,9.92-7.47,22.05-7.33S701.75,261.22,701.7,265.4Z"/><path class="cls-4" d="M481.53,277.76l-.08,7.14,43.93.5.08-7.14S481.54,276.42,481.53,277.76Z"/><path class="cls-4" d="M525.38,285.4c0,4.19-9.92,7.47-22.05,7.33s-21.93-3.65-21.88-7.83,9.92-7.47,22.05-7.34S525.43,281.21,525.38,285.4Z"/><path class="cls-5" d="M525.46,278.26c-.05,4.19-9.92,7.47-22.05,7.33s-21.93-3.64-21.88-7.83,9.92-7.47,22.05-7.33S525.51,274.07,525.46,278.26Z"/><path class="cls-2" d="M516.5,293.71l-.08,7.13,43.93.51.08-7.14S516.51,292.37,516.5,293.71Z"/><path class="cls-4" d="M560.35,301.35c-.05,4.18-9.92,7.47-22.05,7.33s-21.93-3.65-21.88-7.84,9.92-7.47,22.05-7.33S560.4,297.16,560.35,301.35Z"/><path class="cls-5" d="M560.43,294.21c0,4.19-9.92,7.47-22,7.33s-21.93-3.65-21.88-7.83,9.92-7.48,22-7.34S560.48,290,560.43,294.21Z"/><path class="cls-4" d="M478.65,293.27l-.08,7.14,43.93.5.08-7.13S478.66,291.94,478.65,293.27Z"/><path class="cls-4" d="M522.5,300.91c0,4.19-9.92,7.47-22.05,7.34s-21.93-3.65-21.88-7.84,9.92-7.47,22.05-7.33S522.55,296.72,522.5,300.91Z"/><path class="cls-5" d="M522.58,293.78c-.05,4.18-9.92,7.47-22.05,7.33s-21.93-3.65-21.88-7.84,9.92-7.47,22.05-7.33S522.63,289.59,522.58,293.78Z"/><path class="cls-4" d="M566.22,261.15l-.08,7.14,43.93.5.08-7.14S566.23,259.81,566.22,261.15Z"/><path class="cls-5" d="M610.07,268.79c-.05,4.19-9.92,7.47-22.05,7.33s-21.93-3.64-21.88-7.83,9.92-7.47,22.05-7.33S610.12,264.6,610.07,268.79Z"/><path class="cls-5" d="M610.15,261.65c0,4.19-9.92,7.47-22,7.34s-21.93-3.65-21.88-7.84,9.92-7.47,22-7.33S610.2,257.46,610.15,261.65Z"/><path class="cls-4" d="M556.37,294.84l-.08,7.14,43.93.5.08-7.14S556.38,293.5,556.37,294.84Z"/><path class="cls-4" d="M600.22,302.48c-.05,4.19-9.92,7.47-22.05,7.33s-21.93-3.65-21.88-7.83,9.92-7.48,22.05-7.34S600.27,298.29,600.22,302.48Z"/><path class="cls-5" d="M600.3,295.34c0,4.19-9.92,7.47-22,7.33s-21.93-3.64-21.88-7.83,9.92-7.47,22-7.33S600.35,291.15,600.3,295.34Z"/><path class="cls-4" d="M505.2,276.68l-.08,7.14,43.93.5.08-7.14S505.22,275.34,505.2,276.68Z"/><path class="cls-4" d="M549.05,284.32c0,4.19-9.92,7.47-22,7.33s-21.93-3.65-21.88-7.83,9.92-7.48,22-7.34S549.1,280.13,549.05,284.32Z"/><path class="cls-5" d="M549.13,277.18c0,4.19-9.92,7.47-22,7.33s-21.93-3.64-21.88-7.83,9.92-7.47,22.05-7.33S549.18,273,549.13,277.18Z"/><path class="cls-4" d="M571.74,280.82l-.08,7.14,43.93.5.08-7.14S571.75,279.48,571.74,280.82Z"/><path class="cls-4" d="M615.59,288.46c-.05,4.19-9.92,7.47-22.05,7.33s-21.93-3.65-21.88-7.83,9.92-7.48,22.05-7.34S615.64,284.27,615.59,288.46Z"/><path class="cls-5" d="M615.67,281.32c0,4.19-9.92,7.47-22,7.33s-21.93-3.64-21.88-7.83,9.92-7.47,22-7.33S615.72,277.13,615.67,281.32Z"/><path class="cls-4" d="M603.33,296.73l-.08,7.13,43.93.51.08-7.14S603.34,295.39,603.33,296.73Z"/><path class="cls-4" d="M647.18,304.37c0,4.18-9.92,7.47-22,7.33s-21.93-3.65-21.88-7.84,9.92-7.47,22-7.33S647.23,300.18,647.18,304.37Z"/><path class="cls-5" d="M647.26,297.23c0,4.19-9.92,7.47-22,7.33s-21.93-3.65-21.88-7.83,9.92-7.47,22-7.34S647.31,293,647.26,297.23Z"/><path class="cls-4" d="M549.14,276.5l-.08,7.14,43.93.5.09-7.13S549.16,275.16,549.14,276.5Z"/><path class="cls-4" d="M593,284.14c0,4.19-9.92,7.47-22,7.34s-21.93-3.65-21.88-7.84,9.92-7.47,22.05-7.33S593,280,593,284.14Z"/><path class="cls-5" d="M593.08,277c-.05,4.18-9.93,7.47-22.06,7.33s-21.93-3.65-21.88-7.84,9.92-7.47,22.05-7.33S593.12,272.82,593.08,277Z"/><path class="cls-4" d="M594.83,270.94l-.08,7.14,43.94.5.08-7.14S594.85,269.6,594.83,270.94Z"/><path class="cls-4" d="M638.69,278.58c-.05,4.19-9.93,7.47-22.06,7.33s-21.92-3.64-21.88-7.83,9.92-7.47,22.06-7.33S638.73,274.39,638.69,278.58Z"/><path class="cls-5" d="M638.77,271.44c0,4.19-9.92,7.48-22.06,7.34s-21.92-3.65-21.88-7.84,9.93-7.47,22.06-7.33S638.82,267.26,638.77,271.44Z"/><path class="cls-4" d="M646.58,297.9,646.5,305l43.93.51.08-7.14S646.59,296.56,646.58,297.9Z"/><path class="cls-4" d="M690.43,305.54c0,4.18-9.92,7.47-22,7.33s-21.93-3.65-21.88-7.84,9.92-7.47,22-7.33S690.48,301.35,690.43,305.54Z"/><path class="cls-5" d="M690.51,298.4c0,4.19-9.92,7.47-22,7.33s-21.93-3.64-21.88-7.83,9.92-7.47,22-7.34S690.56,294.21,690.51,298.4Z"/><path class="cls-4" d="M675,298.22l-.08,7.14,43.94.5.08-7.14S675,296.88,675,298.22Z"/><path class="cls-4" d="M718.82,305.86c-.05,4.19-9.92,7.47-22.06,7.33s-21.93-3.64-21.88-7.83,9.92-7.47,22.06-7.33S718.86,301.67,718.82,305.86Z"/><path class="cls-5" d="M718.9,298.72c0,4.19-9.92,7.47-22.06,7.34s-21.92-3.65-21.88-7.84,9.93-7.47,22.06-7.33S719,294.54,718.9,298.72Z"/><path class="cls-4" d="M555.94,243.46l-.08,7.14,43.93.5.08-7.14S556,242.12,555.94,243.46Z"/><path class="cls-4" d="M599.79,251.1c0,4.19-9.92,7.47-22,7.33s-21.93-3.65-21.88-7.83,9.92-7.48,22-7.34S599.84,246.91,599.79,251.1Z"/><path class="cls-5" d="M599.87,244c0,4.19-9.92,7.47-22,7.33s-21.93-3.64-21.88-7.83,9.92-7.47,22-7.33S599.92,239.77,599.87,244Z"/><path class="cls-4" d="M658.9,284.52l-.08,7.14,43.93.5.08-7.14S658.91,283.18,658.9,284.52Z"/><path class="cls-4" d="M702.75,292.16c0,4.19-9.92,7.47-22,7.33s-21.93-3.65-21.88-7.83,9.92-7.48,22-7.34S702.8,288,702.75,292.16Z"/><path class="cls-5" d="M702.83,285c-.05,4.19-9.92,7.47-22.05,7.33s-21.93-3.64-21.88-7.83,9.92-7.47,22.05-7.33S702.88,280.83,702.83,285Z"/><polygon class="cls-6" points="557.39 226.08 551.62 211.82 542.36 224.11 549.91 210.7 534.52 211.12 549.72 208.66 539.8 196.9 551.19 207.24 554.2 192.15 553.22 207.51 566.89 200.46 554.27 209.26 568.31 215.56 553.56 211.18 557.39 226.08"/><polygon class="cls-6" points="700.81 309.54 687.78 277.35 666.88 305.08 683.92 274.82 649.21 275.77 683.48 270.23 661.1 243.68 686.81 267.02 693.61 232.97 691.39 267.62 722.25 251.71 693.77 271.58 725.45 285.79 692.17 275.91 700.81 309.54"/></g></g></svg>