<svg xmlns="http://www.w3.org/2000/svg" viewBox="0 0 164.17 164.17"><defs><style>.cls-1{fill:#e5e5e5;}.cls-2{fill:none;stroke:#5b5b5b;stroke-miterlimit:10;stroke-width:2px;}.cls-3{fill:#8a8b8c;}.cls-4{fill:#545759;}.cls-5{fill:#fff;}.cls-6{fill:#a31f34;}.cls-7{fill:#00698a;}</style></defs><g id="Layer_2" data-name="Layer 2"><g id="Layer_4" data-name="Layer 4"><circle class="cls-1" cx="82.09" cy="82.09" r="82.09"/><path class="cls-2" d="M50.46,117.49V97.93a6.71,6.71,0,0,1,6.7-6.71H107a6.71,6.71,0,0,1,6.7,6.71v19.56"/><line class="cls-2" x1="82.58" y1="60.64" x2="82.58" y2="110.79"/><path class="cls-3" d="M110,62.61V53.54h-6.71a20.9,20.9,0,0,0-2.87-6.91l4.75-4.75-6.42-6.41L94,40.21a21.43,21.43,0,0,0-6.91-2.87v-6.7H78.05v6.7a21.34,21.34,0,0,0-6.91,2.87l-4.75-4.74L60,41.88l4.74,4.75a21.1,21.1,0,0,0-2.86,6.91H55.15v9.07h6.71a21.19,21.19,0,0,0,2.86,6.91L60,74.26l6.41,6.42,4.75-4.75a20.9,20.9,0,0,0,6.91,2.87v6.71h9.07V78.8A21,21,0,0,0,94,75.93l4.74,4.75,6.42-6.42-4.75-4.74a21,21,0,0,0,2.87-6.91Z"/><circle class="cls-4" cx="82.58" cy="58.07" r="12.96"/><circle class="cls-5" cx="82.58" cy="58.07" r="7.65"/><rect class="cls-6" x="36.97" y="104.62" width="27.66" height="17.47"/><rect class="cls-7" x="68.75" y="104.62" width="27.66" height="17.47"/><rect class="cls-6" x="100.54" y="104.62" width="27.66" height="17.47"/></g></g></svg>