<svg xmlns="http://www.w3.org/2000/svg" viewBox="0 0 235.51 199.71"><defs><style>.cls-1,.cls-5{fill:#323437;}.cls-2{fill:#4b4e52;}.cls-3{fill:#676767;}.cls-4{fill:#a1a1a1;}.cls-5{stroke:#64686d;}.cls-12,.cls-14,.cls-16,.cls-17,.cls-19,.cls-5,.cls-7,.cls-8{stroke-miterlimit:10;}.cls-6{fill:#d0d0d0;}.cls-7{fill:#5b5d5f;stroke:#5b5d5f;}.cls-12,.cls-19,.cls-8{fill:none;}.cls-8{stroke:#9d9e9f;}.cls-16,.cls-17,.cls-8{stroke-width:4px;}.cls-9{fill:#757575;}.cls-10{fill:#b8b8b8;}.cls-11{fill:#454545;}.cls-12{stroke:#8e8e8e;}.cls-12,.cls-14{stroke-width:6px;}.cls-13{fill:#898989;}.cls-14{fill:#8e8e8e;stroke:#ccc;}.cls-15{fill:#666;}.cls-16{fill:#dedfdf;}.cls-16,.cls-17,.cls-19{stroke:#838689;}.cls-17{fill:#999;}.cls-18{fill:#828282;}.cls-19{stroke-width:2px;}</style></defs><g id="Layer_2" data-name="Layer 2"><g id="Scene_01" data-name="Scene 01"><rect class="cls-1" x="19.78" y="130.1" width="28.53" height="62.69" rx="12"/><rect class="cls-1" x="186.66" y="129.45" width="28.53" height="62.69" rx="12"/><rect class="cls-2" x="193.14" y="136.8" width="28.53" height="62.69" rx="12"/><rect class="cls-2" x="14.16" y="137.02" width="28.53" height="62.69" rx="12"/><path class="cls-3" d="M21.85,81.9H4.39A4.39,4.39,0,0,1,0,77.51V69.1a4.38,4.38,0,0,1,4.7-4.37l18,1.29a4.39,4.39,0,0,1,4.06,4.68l-.5,7.12A4.39,4.39,0,0,1,21.85,81.9Z"/><path class="cls-4" d="M15.25,74.41h6.93a3.34,3.34,0,0,1,3.34,3.34v1.71a3.34,3.34,0,0,1-3.34,3.34H17a5.05,5.05,0,0,1-5.05-5.05v0a3.34,3.34,0,0,1,3.34-3.34Z" transform="translate(28.19 -1.64) rotate(20.12)"/><path class="cls-3" d="M213.66,81.77h17.46a4.4,4.4,0,0,0,4.39-4.39V69a4.38,4.38,0,0,0-4.7-4.37l-18,1.29a4.38,4.38,0,0,0-4.06,4.68l.49,7.11A4.4,4.4,0,0,0,213.66,81.77Z"/><path class="cls-4" d="M215,74.28h5.22a3.34,3.34,0,0,1,3.34,3.34v1.71a3.34,3.34,0,0,1-3.34,3.34h-6.93A3.34,3.34,0,0,1,210,79.34v0A5.05,5.05,0,0,1,215,74.28Z" transform="translate(447.35 77.59) rotate(159.88)"/><path class="cls-5" d="M41.72,19.21l-16,45,3,7.35H139.86l67.88-1.73,1.73-11.24-13-44.1-45.83,2.17,6.69,5.82a19.79,19.79,0,0,1,6.79,14.75v.56a7.34,7.34,0,0,1-7.27,7.67L78.3,46a7.33,7.33,0,0,1-7.38-7.55v-.16a19.8,19.8,0,0,1,4.22-11.62L88.41,14Z"/><path class="cls-4" d="M19.67,82.76s-9.94,3.89-9.08,30.7,2.6,34.37,2.6,34.37L19,145.67Z"/><path class="cls-4" d="M216.22,84.17s9.94,3.89,9.08,30.69-2.59,34.37-2.59,34.37l-5.84-2.16Z"/><path class="cls-6" d="M17.08,111.51c-.87-.21-6.49,1.95-6.49,1.95l1.59,34.73,9-2.74Z"/><path class="cls-6" d="M218.76,112.7c.86-.22,6.49,2,6.49,2l-.94,33.83-9.66-1.84Z"/><path class="cls-7" d="M186.89,69l10.8-.13-7.78-7.35s-32.45-3.17-72.37-3.14-72.36,3.14-72.36,3.14L37.4,68.84,48.2,69l-1,1.6,70.3-.8,70.31.8Z"/><ellipse class="cls-8" cx="161.91" cy="71.95" rx="24.64" ry="16.43"/><rect class="cls-9" x="107" y="20.71" width="22.05" height="9.51" rx="4.76"/><path class="cls-9" d="M37.83,11.43l-4.32,6.05L20.1,77.14l34.16-6,137.48,1.73s22,2.16,25.94,9.94L205.49,31.28c-1.52-6.41-1.32-12.73-6.91-16.36-3.07-2-6.3-3.77-9.43-5.65L113.92,8l3.89,12.1,66.58-1.29,11.67,2.16,4.33,7.35,6.48,32.86-2.59,7.78-69.18.43-73.49-.43L37.4,70.66,29.18,65.9l.87-13.83,9.08-31.56-1.3-9.08"/><path class="cls-9" d="M197.36,12.29l4.32,6.05,13.41,61-33.73-3.89H43s-21.62.43-25.51,8.22L29.7,32.15c1.52-6.41,1.32-12.73,6.91-16.36,3.07-2,6.29-3.78,9.43-5.66L117.38,8l3,13-69.6-1.3L39.13,21.8,34.8,29.15,28.32,62l2.59,7.78,69.17.43,73.5-.43,24.21,1.73L206,66.77l-.87-13.84-9.08-31.56,1.3-9.08"/><path class="cls-10" d="M216.17,80.6c-8-9-86.11-7.36-98.14-7.13l.43.19s-90.14-3.2-98.79,6.55-6.48,63.19-3.46,66.58l100.45,2.09v.24l102-2.12C221.72,143.61,224.81,90.35,216.17,80.6Z"/><rect class="cls-11" x="35.45" y="161.01" width="161.69" height="15.35"/><path class="cls-12" d="M27.61,60.86l10-34.59a7.33,7.33,0,0,1,7.17-5.76l144.4-.87c3.22,0,9.86,3.83,10.8,6.92l6.49,33.72c1.44,4.71-.26,9.07-5.19,9.08L34.8,69.79A7.35,7.35,0,0,1,27.61,60.86Z"/><path class="cls-4" d="M25.94,152.15H211a0,0,0,0,1,0,0v0a13.4,13.4,0,0,1-13.4,13.4H39.34a13.4,13.4,0,0,1-13.4-13.4v0a0,0,0,0,1,0,0Z"/><path class="cls-7" d="M124.3,9.85c35.89.23,74.86,4.93,74.86,4.93-.7-.08-4.65-4.7-5.72-5.4a47.8,47.8,0,0,0-8.81-4.28C172.78.47,158.69,1.31,146.18,1,121.11.34,95.8.16,70.75,1.58c-7.34.43-14.13.84-21,3.52A48,48,0,0,0,41,9.38c-1.07.7-5,5.32-5.72,5.4,0,0,39-4.7,74.86-4.93V10q3.5-.11,7.1-.15t7.1.15Z"/><path class="cls-13" d="M10.92,146.1h214a0,0,0,0,1,0,0v0a9.51,9.51,0,0,1-9.51,9.51h-195a9.51,9.51,0,0,1-9.51-9.51v0a0,0,0,0,1,0,0Z"/><path class="cls-6" d="M93.06,179.28,88.52,164.8h58.36l-4.1,14.91S92.74,179,93.06,179.28Z"/><path class="cls-14" d="M178.08,130a35.7,35.7,0,0,0-3.84-11,11.82,11.82,0,0,0-3.62-4.63,12.52,12.52,0,0,0-5.57-1.59c-10.55-1.23-21.21-1.22-31.83-1.21l-37.8,0c-10.13,0-20.29,0-30.35,1.26a11.62,11.62,0,0,0-4.15,1.07c-2,1.1-3.27,3.24-4.31,5.32-2.18,4.37-4,9.06-4.09,13.94-.06,3.92,1.21,8.88,4.4,11.48,3.56,2.9,8.35,1.81,12.87,1.81l34.3,0,62.59,0a11.47,11.47,0,0,0,11.26-9.15,19.51,19.51,0,0,0,.39-4.1A23.29,23.29,0,0,0,178.08,130Z"/><path class="cls-15" d="M60.87,119.28H169.38a1.5,1.5,0,0,0,0-3H60.87a1.5,1.5,0,0,0,0,3Z"/><path class="cls-15" d="M58.92,123.72H172.63a1.5,1.5,0,0,0,0-3H58.92a1.5,1.5,0,0,0,0,3Z"/><path class="cls-15" d="M57,128.16h117a1.5,1.5,0,0,0,0-3H57a1.5,1.5,0,0,0,0,3Z"/><path class="cls-15" d="M55.67,132.6H175.23a1.5,1.5,0,0,0,0-3H55.67a1.5,1.5,0,0,0,0,3Z"/><path class="cls-15" d="M55.67,137H175.23a1.5,1.5,0,0,0,0-3H55.67a1.5,1.5,0,0,0,0,3Z"/><path class="cls-15" d="M57,141.47H173.28a1.5,1.5,0,0,0,0-3H57a1.5,1.5,0,0,0,0,3Z"/><circle class="cls-16" cx="39.21" cy="102.73" r="17.43"/><circle class="cls-17" cx="41.72" cy="132.34" r="7.35"/><path class="cls-18" d="M121.13,99.48c0,2.7-1.91,6.63-4.62,6.63s-5.18-3.93-5.18-6.63,2.19-2.6,4.9-2.6S121.13,96.77,121.13,99.48Z"/><rect class="cls-18" x="113.92" y="72.39" width="4.61" height="23.06" rx="2.31"/><circle class="cls-16" cx="195.31" cy="103.7" r="17.43"/><circle class="cls-17" cx="192.79" cy="133.3" r="7.35"/><path class="cls-19" d="M41.72,74.12s28.1,11.67,23.35,35.45"/><path class="cls-19" d="M192.84,75.38s-28.1,11.67-23.35,35.45"/></g></g></svg>