<svg xmlns="http://www.w3.org/2000/svg" viewBox="0 0 2938.12 1087.57"><defs><style>.cls-1{fill:#e6e6e6;}.cls-2{fill:#c3dae3;}.cls-3{opacity:0.49;}.cls-4{fill:#a6c7d4;}.cls-5,.cls-7,.cls-8{fill:#d9d9d9;}.cls-6{fill:#a0a0a0;}.cls-7{opacity:0.36;}.cls-8{opacity:0.56;}.cls-9{fill:#b2b2b7;}.cls-10{fill:#8a8b8c;}.cls-11{fill:#333d47;}.cls-12{fill:#fff;}.cls-13{fill:#004f68;}.cls-14{fill:#ddd;}.cls-15{fill:#dcecef;}.cls-16{fill:#f2fbfc;}.cls-17,.cls-26{fill:#bfbfbf;}.cls-18{fill:#00698a;}.cls-19{fill:#66a5b9;}.cls-20{fill:#525a5b;}.cls-21{opacity:0.42;}.cls-22{fill:#616668;}.cls-23{fill:#c0dbdd;}.cls-24{fill:#c7dee0;}.cls-25{fill:#891f30;}.cls-26{opacity:0.29;}.cls-27,.cls-28{fill:#c6c6c6;}.cls-28{opacity:0.23;}.cls-29{fill:#edf4f4;}.cls-30{fill:#f0f0ee;}.cls-31{fill:#b3b3b3;}.cls-32{fill:#787878;}.cls-33{fill:#4490a9;}.cls-34{fill:#262e35;}.cls-35{fill:#5c646c;}.cls-36{fill:#288397;}.cls-37{fill:#23494f;opacity:0.44;}.cls-38{fill:#3387a1;}.cls-39{fill:#505050;}.cls-40{fill:#c9c8c7;}.cls-41{fill:none;stroke:#c9c8c7;stroke-miterlimit:10;stroke-width:9.11px;}</style></defs><g id="Layer_2" data-name="Layer 2"><g id="Hospital_scene" data-name="Hospital scene"><rect class="cls-1" x="6.49" y="2.39" width="2865.17" height="1020.42"/><polygon class="cls-2" points="2806.67 608.03 0 608.03 0.95 593.41 2806.67 593.41 2806.67 608.03"/><g class="cls-3"><rect class="cls-4" x="1767.49" y="619.64" width="21.05" height="21.05"/><rect class="cls-4" x="1767.49" y="654" width="21.05" height="21.05"/><rect class="cls-4" x="1806.49" y="619.64" width="21.05" height="21.05"/><rect class="cls-4" x="1806.49" y="654" width="21.05" height="21.05"/><rect class="cls-4" x="1845.49" y="619.64" width="21.05" height="21.05"/><rect class="cls-4" x="1845.49" y="654" width="21.05" height="21.05"/><rect class="cls-4" x="1884.49" y="619.64" width="21.05" height="21.05"/><rect class="cls-4" x="1884.49" y="654" width="21.05" height="21.05"/><rect class="cls-4" x="1923.49" y="619.64" width="21.05" height="21.05"/><rect class="cls-4" x="1923.49" y="654" width="21.05" height="21.05"/><rect class="cls-4" x="1962.49" y="619.64" width="21.05" height="21.05"/><rect class="cls-4" x="1962.49" y="654" width="21.05" height="21.05"/><rect class="cls-4" x="2001.49" y="619.64" width="21.05" height="21.05"/><rect class="cls-4" x="2001.49" y="654" width="21.05" height="21.05"/><rect class="cls-4" x="2038.38" y="619.64" width="21.05" height="21.05"/><rect class="cls-4" x="2038.38" y="654" width="21.05" height="21.05"/><rect class="cls-4" x="2077.38" y="619.64" width="21.05" height="21.05"/><rect class="cls-4" x="2077.38" y="654" width="21.05" height="21.05"/><rect class="cls-4" x="2116.38" y="619.64" width="21.05" height="21.05"/><rect class="cls-4" x="2116.38" y="654" width="21.05" height="21.05"/><rect class="cls-4" x="2155.38" y="619.64" width="21.05" height="21.05"/><rect class="cls-4" x="2155.38" y="654" width="21.05" height="21.05"/><rect class="cls-4" x="2194.38" y="619.64" width="21.05" height="21.05"/><rect class="cls-4" x="2194.38" y="654" width="21.05" height="21.05"/><rect class="cls-4" x="2233.38" y="619.64" width="21.05" height="21.05"/><rect class="cls-4" x="2233.38" y="654" width="21.05" height="21.05"/><rect class="cls-4" x="2272.38" y="619.64" width="21.05" height="21.05"/><rect class="cls-4" x="2272.38" y="654" width="21.05" height="21.05"/><rect class="cls-4" x="1225.71" y="619.64" width="21.05" height="21.05"/><rect class="cls-4" x="1225.71" y="654" width="21.05" height="21.05"/><rect class="cls-4" x="1264.71" y="619.64" width="21.05" height="21.05"/><rect class="cls-4" x="1264.71" y="654" width="21.05" height="21.05"/><rect class="cls-4" x="1303.71" y="619.64" width="21.05" height="21.05"/><rect class="cls-4" x="1303.71" y="654" width="21.05" height="21.05"/><rect class="cls-4" x="1342.71" y="619.64" width="21.05" height="21.05"/><rect class="cls-4" x="1342.71" y="654" width="21.05" height="21.05"/><rect class="cls-4" x="1381.71" y="619.64" width="21.05" height="21.05"/><rect class="cls-4" x="1381.71" y="654" width="21.05" height="21.05"/><rect class="cls-4" x="1420.71" y="619.64" width="21.05" height="21.05"/><rect class="cls-4" x="1420.71" y="654" width="21.05" height="21.05"/><rect class="cls-4" x="1459.71" y="619.64" width="21.05" height="21.05"/><rect class="cls-4" x="1459.71" y="654" width="21.05" height="21.05"/><rect class="cls-4" x="1496.6" y="619.64" width="21.05" height="21.05"/><rect class="cls-4" x="1496.6" y="654" width="21.05" height="21.05"/><rect class="cls-4" x="1535.6" y="619.64" width="21.05" height="21.05"/><rect class="cls-4" x="1535.6" y="654" width="21.05" height="21.05"/><rect class="cls-4" x="1574.6" y="619.64" width="21.05" height="21.05"/><rect class="cls-4" x="1574.6" y="654" width="21.05" height="21.05"/><rect class="cls-4" x="1613.6" y="619.64" width="21.05" height="21.05"/><rect class="cls-4" x="1613.6" y="654" width="21.05" height="21.05"/><rect class="cls-4" x="1652.6" y="619.64" width="21.05" height="21.05"/><rect class="cls-4" x="1652.6" y="654" width="21.05" height="21.05"/><rect class="cls-4" x="1691.6" y="619.64" width="21.05" height="21.05"/><rect class="cls-4" x="1691.6" y="654" width="21.05" height="21.05"/><rect class="cls-4" x="1730.6" y="619.64" width="21.05" height="21.05"/><rect class="cls-4" x="1730.6" y="654" width="21.05" height="21.05"/><rect class="cls-4" x="2309.27" y="619.64" width="21.05" height="21.05"/><rect class="cls-4" x="2309.27" y="654" width="21.05" height="21.05"/><rect class="cls-4" x="2348.27" y="619.64" width="21.05" height="21.05"/><rect class="cls-4" x="2348.27" y="654" width="21.05" height="21.05"/><rect class="cls-4" x="2387.27" y="619.64" width="21.05" height="21.05"/><rect class="cls-4" x="2387.27" y="654" width="21.05" height="21.05"/><rect class="cls-4" x="2426.27" y="619.64" width="21.05" height="21.05"/><rect class="cls-4" x="2426.27" y="654" width="21.05" height="21.05"/><rect class="cls-4" x="2465.27" y="619.64" width="21.05" height="21.05"/><rect class="cls-4" x="2465.27" y="654" width="21.05" height="21.05"/><rect class="cls-4" x="2504.27" y="619.64" width="21.05" height="21.05"/><rect class="cls-4" x="2504.27" y="654" width="21.05" height="21.05"/><rect class="cls-4" x="2543.27" y="619.64" width="21.05" height="21.05"/><rect class="cls-4" x="2543.27" y="654" width="21.05" height="21.05"/><rect class="cls-4" x="2580.16" y="619.64" width="21.05" height="21.05"/><rect class="cls-4" x="2580.16" y="654" width="21.05" height="21.05"/><rect class="cls-4" x="2619.16" y="619.64" width="21.05" height="21.05"/><rect class="cls-4" x="2619.16" y="654" width="21.05" height="21.05"/><rect class="cls-4" x="2658.16" y="619.64" width="21.05" height="21.05"/><rect class="cls-4" x="2658.16" y="654" width="21.05" height="21.05"/><rect class="cls-4" x="2697.16" y="619.64" width="21.05" height="21.05"/><rect class="cls-4" x="2697.16" y="654" width="21.05" height="21.05"/><rect class="cls-4" x="2736.16" y="619.64" width="21.05" height="21.05"/><rect class="cls-4" x="2736.16" y="654" width="21.05" height="21.05"/><rect class="cls-4" x="2775.16" y="619.64" width="21.05" height="21.05"/><rect class="cls-4" x="2775.16" y="654" width="21.05" height="21.05"/></g><g class="cls-3"><rect class="cls-4" x="59.04" y="619.97" width="21.05" height="21.05"/><rect class="cls-4" x="59.04" y="654.33" width="21.05" height="21.05"/><rect class="cls-4" x="98.04" y="619.97" width="21.05" height="21.05"/><rect class="cls-4" x="98.04" y="654.33" width="21.05" height="21.05"/><rect class="cls-4" x="137.04" y="619.97" width="21.05" height="21.05"/><rect class="cls-4" x="137.04" y="654.33" width="21.05" height="21.05"/><rect class="cls-4" x="176.04" y="619.97" width="21.05" height="21.05"/><rect class="cls-4" x="176.04" y="654.33" width="21.05" height="21.05"/><rect class="cls-4" x="215.04" y="619.97" width="21.05" height="21.05"/><rect class="cls-4" x="215.04" y="654.33" width="21.05" height="21.05"/><rect class="cls-4" x="254.03" y="619.97" width="21.05" height="21.05"/><rect class="cls-4" x="254.03" y="654.33" width="21.05" height="21.05"/><rect class="cls-4" x="293.03" y="619.97" width="21.05" height="21.05"/><rect class="cls-4" x="293.03" y="654.33" width="21.05" height="21.05"/><rect class="cls-4" x="329.93" y="619.97" width="21.05" height="21.05"/><rect class="cls-4" x="329.93" y="654.33" width="21.05" height="21.05"/><rect class="cls-4" x="368.93" y="619.97" width="21.05" height="21.05"/><rect class="cls-4" x="368.93" y="654.33" width="21.05" height="21.05"/><rect class="cls-4" x="407.93" y="619.97" width="21.05" height="21.05"/><rect class="cls-4" x="407.93" y="654.33" width="21.05" height="21.05"/><rect class="cls-4" x="446.93" y="619.97" width="21.05" height="21.05"/><rect class="cls-4" x="446.93" y="654.33" width="21.05" height="21.05"/><rect class="cls-4" x="485.93" y="619.97" width="21.05" height="21.05"/><rect class="cls-4" x="485.93" y="654.33" width="21.05" height="21.05"/><rect class="cls-4" x="524.93" y="619.97" width="21.05" height="21.05"/><rect class="cls-4" x="524.93" y="654.33" width="21.05" height="21.05"/><rect class="cls-4" x="563.93" y="619.97" width="21.05" height="21.05"/><rect class="cls-4" x="563.93" y="654.33" width="21.05" height="21.05"/><rect class="cls-4" x="22.14" y="619.97" width="21.05" height="21.05"/><rect class="cls-4" x="22.14" y="654.33" width="21.05" height="21.05"/><rect class="cls-4" x="600.82" y="619.97" width="21.05" height="21.05"/><rect class="cls-4" x="600.82" y="654.33" width="21.05" height="21.05"/><rect class="cls-4" x="639.82" y="619.97" width="21.05" height="21.05"/><rect class="cls-4" x="639.82" y="654.33" width="21.05" height="21.05"/><rect class="cls-4" x="678.82" y="619.97" width="21.05" height="21.05"/><rect class="cls-4" x="678.82" y="654.33" width="21.05" height="21.05"/><rect class="cls-4" x="717.82" y="619.97" width="21.05" height="21.05"/><rect class="cls-4" x="717.82" y="654.33" width="21.05" height="21.05"/><rect class="cls-4" x="756.82" y="619.97" width="21.05" height="21.05"/><rect class="cls-4" x="756.82" y="654.33" width="21.05" height="21.05"/><rect class="cls-4" x="795.82" y="619.97" width="21.05" height="21.05"/><rect class="cls-4" x="795.82" y="654.33" width="21.05" height="21.05"/><rect class="cls-4" x="834.82" y="619.97" width="21.05" height="21.05"/><rect class="cls-4" x="834.82" y="654.33" width="21.05" height="21.05"/><rect class="cls-4" x="871.71" y="619.97" width="21.05" height="21.05"/><rect class="cls-4" x="871.71" y="654.33" width="21.05" height="21.05"/><rect class="cls-4" x="910.71" y="619.97" width="21.05" height="21.05"/><rect class="cls-4" x="910.71" y="654.33" width="21.05" height="21.05"/><rect class="cls-4" x="949.71" y="619.97" width="21.05" height="21.05"/><rect class="cls-4" x="949.71" y="654.33" width="21.05" height="21.05"/><rect class="cls-4" x="988.71" y="619.97" width="21.05" height="21.05"/><rect class="cls-4" x="988.71" y="654.33" width="21.05" height="21.05"/><rect class="cls-4" x="1027.71" y="619.97" width="21.05" height="21.05"/><rect class="cls-4" x="1027.71" y="654.33" width="21.05" height="21.05"/><rect class="cls-4" x="1066.71" y="619.97" width="21.05" height="21.05"/><rect class="cls-4" x="1066.71" y="654.33" width="21.05" height="21.05"/></g><g class="cls-3"><line class="cls-4" x1="1086.08" y1="619.64" x2="1086.08" y2="640.69"/><line class="cls-4" x1="1086.08" y1="654" x2="1086.08" y2="675.05"/><rect class="cls-4" x="1104.03" y="619.64" width="21.05" height="21.05"/><rect class="cls-4" x="1104.03" y="654" width="21.05" height="21.05"/><rect class="cls-4" x="1143.03" y="619.64" width="21.05" height="21.05"/><rect class="cls-4" x="1143.03" y="654" width="21.05" height="21.05"/><rect class="cls-4" x="1182.02" y="619.64" width="21.05" height="21.05"/><rect class="cls-4" x="1182.02" y="654" width="21.05" height="21.05"/></g><rect class="cls-5" x="0.68" y="864.92" width="2790.98" height="221.23"/><rect class="cls-6" x="1062.14" y="181.58" width="858.34" height="329.75"/><rect class="cls-5" x="1078.73" y="193.36" width="825.61" height="303.55"/><polygon class="cls-7" points="1162.56 192.32 1371.98 495.9 1531.22 495.9 1326.09 191.42 1162.56 192.32"/><polygon class="cls-8" points="1437.97 193.2 1664.61 497.68 1730.59 497.68 1509.69 193.2 1437.97 193.2"/><rect class="cls-6" x="1.26" y="823.63" width="2714.6" height="43.58"/><rect class="cls-9" x="2661.3" width="276.82" height="1087.57"/><rect class="cls-10" x="2637.25" y="75.22" width="170.93" height="983.14"/><rect class="cls-11" x="761.79" y="462.18" width="130.37" height="108.16"/><path class="cls-12" d="M757.78,458.17V572.92h-.1s0,.06,0,.09a2.17,2.17,0,0,0,.11.66v.67h.33c3.85,6,33.19,10.61,68.81,10.61s65-4.64,68.81-10.61h.44V458.17Zm8,8H888.15V566.32H765.8Z"/><rect class="cls-13" x="798.64" y="692.8" width="70.86" height="14.04"/><rect class="cls-12" x="757.67" y="706.84" width="155.94" height="146.39"/><rect class="cls-14" x="745.16" y="826.5" width="179.15" height="14.7"/><path class="cls-15" d="M745,853.23H921.79a18.56,18.56,0,0,1,18.56,18.56v19.62a0,0,0,0,1,0,0H726.44a0,0,0,0,1,0,0V871.79A18.56,18.56,0,0,1,745,853.23Z"/><path class="cls-12" d="M745,853.23H921.79a18.56,18.56,0,0,1,18.56,18.56v19.62a0,0,0,0,1,0,0H726.44a0,0,0,0,1,0,0V871.79A18.56,18.56,0,0,1,745,853.23Z"/><path class="cls-16" d="M906.31,853.23H877.09A35.76,35.76,0,0,1,912.86,889v2.42h27.49v-4.14C940.35,868,926.07,853.23,906.31,853.23Z"/><rect class="cls-17" x="817.35" y="584.95" width="21.15" height="21.15"/><rect class="cls-18" x="757.67" y="597.87" width="145.24" height="94.93"/><path class="cls-19" d="M830.29,669c-49.4,0-90.54,5.94-99.51,13.81h199C920.83,674.9,879.7,669,830.29,669Z"/><path class="cls-20" d="M778.41,730.23h-7a2.84,2.84,0,0,1-2.84-2.84h0a2.84,2.84,0,0,1,2.84-2.84h7a2.84,2.84,0,0,1,2.84,2.84h0A2.84,2.84,0,0,1,778.41,730.23Z"/><path class="cls-20" d="M799.08,730.23h-7a2.84,2.84,0,0,1-2.84-2.84h0a2.84,2.84,0,0,1,2.84-2.84h7a2.84,2.84,0,0,1,2.84,2.84h0A2.84,2.84,0,0,1,799.08,730.23Z"/><path class="cls-20" d="M819.75,730.23h-7a2.84,2.84,0,0,1-2.84-2.84h0a2.84,2.84,0,0,1,2.84-2.84h7a2.84,2.84,0,0,1,2.84,2.84h0A2.84,2.84,0,0,1,819.75,730.23Z"/><path class="cls-20" d="M840.41,730.23h-7a2.85,2.85,0,0,1-2.85-2.84h0a2.85,2.85,0,0,1,2.85-2.84h7a2.85,2.85,0,0,1,2.85,2.84h0A2.85,2.85,0,0,1,840.41,730.23Z"/><path class="cls-20" d="M861.08,730.23h-7a2.84,2.84,0,0,1-2.84-2.84h0a2.84,2.84,0,0,1,2.84-2.84h7a2.84,2.84,0,0,1,2.84,2.84h0A2.84,2.84,0,0,1,861.08,730.23Z"/><path class="cls-20" d="M881.75,730.23h-7a2.84,2.84,0,0,1-2.84-2.84h0a2.84,2.84,0,0,1,2.84-2.84h7a2.84,2.84,0,0,1,2.84,2.84h0A2.84,2.84,0,0,1,881.75,730.23Z"/><path class="cls-20" d="M902.41,730.23h-7a2.85,2.85,0,0,1-2.85-2.84h0a2.85,2.85,0,0,1,2.85-2.84h7a2.85,2.85,0,0,1,2.85,2.84h0A2.85,2.85,0,0,1,902.41,730.23Z"/><path class="cls-20" d="M778.41,739.84h-7a2.84,2.84,0,0,1-2.84-2.84h0a2.84,2.84,0,0,1,2.84-2.84h7a2.84,2.84,0,0,1,2.84,2.84h0A2.84,2.84,0,0,1,778.41,739.84Z"/><path class="cls-20" d="M799.08,739.84h-7a2.84,2.84,0,0,1-2.84-2.84h0a2.84,2.84,0,0,1,2.84-2.84h7a2.84,2.84,0,0,1,2.84,2.84h0A2.84,2.84,0,0,1,799.08,739.84Z"/><path class="cls-20" d="M819.75,739.84h-7a2.84,2.84,0,0,1-2.84-2.84h0a2.84,2.84,0,0,1,2.84-2.84h7a2.84,2.84,0,0,1,2.84,2.84h0A2.84,2.84,0,0,1,819.75,739.84Z"/><path class="cls-20" d="M840.41,739.84h-7a2.85,2.85,0,0,1-2.85-2.84h0a2.85,2.85,0,0,1,2.85-2.84h7a2.85,2.85,0,0,1,2.85,2.84h0A2.85,2.85,0,0,1,840.41,739.84Z"/><path class="cls-20" d="M861.08,739.84h-7a2.84,2.84,0,0,1-2.84-2.84h0a2.84,2.84,0,0,1,2.84-2.84h7a2.84,2.84,0,0,1,2.84,2.84h0A2.84,2.84,0,0,1,861.08,739.84Z"/><path class="cls-20" d="M881.75,739.84h-7a2.84,2.84,0,0,1-2.84-2.84h0a2.84,2.84,0,0,1,2.84-2.84h7a2.84,2.84,0,0,1,2.84,2.84h0A2.84,2.84,0,0,1,881.75,739.84Z"/><path class="cls-20" d="M902.41,739.84h-7a2.85,2.85,0,0,1-2.85-2.84h0a2.85,2.85,0,0,1,2.85-2.84h7a2.85,2.85,0,0,1,2.85,2.84h0A2.85,2.85,0,0,1,902.41,739.84Z"/><path class="cls-20" d="M778.41,749.45h-7a2.84,2.84,0,0,1-2.84-2.84h0a2.84,2.84,0,0,1,2.84-2.84h7a2.84,2.84,0,0,1,2.84,2.84h0A2.84,2.84,0,0,1,778.41,749.45Z"/><path class="cls-20" d="M799.08,749.45h-7a2.84,2.84,0,0,1-2.84-2.84h0a2.84,2.84,0,0,1,2.84-2.84h7a2.84,2.84,0,0,1,2.84,2.84h0A2.84,2.84,0,0,1,799.08,749.45Z"/><path class="cls-20" d="M819.75,749.45h-7a2.84,2.84,0,0,1-2.84-2.84h0a2.84,2.84,0,0,1,2.84-2.84h7a2.84,2.84,0,0,1,2.84,2.84h0A2.84,2.84,0,0,1,819.75,749.45Z"/><path class="cls-20" d="M840.41,749.45h-7a2.85,2.85,0,0,1-2.85-2.84h0a2.85,2.85,0,0,1,2.85-2.84h7a2.85,2.85,0,0,1,2.85,2.84h0A2.85,2.85,0,0,1,840.41,749.45Z"/><path class="cls-20" d="M861.08,749.45h-7a2.84,2.84,0,0,1-2.84-2.84h0a2.84,2.84,0,0,1,2.84-2.84h7a2.84,2.84,0,0,1,2.84,2.84h0A2.84,2.84,0,0,1,861.08,749.45Z"/><path class="cls-20" d="M881.75,749.45h-7a2.84,2.84,0,0,1-2.84-2.84h0a2.84,2.84,0,0,1,2.84-2.84h7a2.84,2.84,0,0,1,2.84,2.84h0A2.84,2.84,0,0,1,881.75,749.45Z"/><path class="cls-20" d="M902.41,749.45h-7a2.85,2.85,0,0,1-2.85-2.84h0a2.85,2.85,0,0,1,2.85-2.84h7a2.85,2.85,0,0,1,2.85,2.84h0A2.85,2.85,0,0,1,902.41,749.45Z"/><g class="cls-21"><path class="cls-20" d="M903.92,827.5H767.55V762H903.92Zm-134.36-2H901.91V764.05H769.56Z"/></g><path class="cls-20" d="M843.26,574c0,1.85-6.8,3.35-15.18,3.35s-15.18-1.5-15.18-3.35,6.79-3.34,15.18-3.34S843.26,572.19,843.26,574Z"/><rect class="cls-22" x="769.22" y="606.77" width="73.36" height="50.33"/><path class="cls-23" d="M841.92,607.44v49h-72v-49Zm1.34-1.34H768.55v51.67h74.71V606.1Z"/><path class="cls-24" d="M861.47,611.45c0,1.59-3,2.88-6.68,2.88s-6.69-1.29-6.69-2.88,3-2.88,6.69-2.88S861.47,609.86,861.47,611.45Z"/><path class="cls-24" d="M861.47,621.26c0,1.59-3,2.88-6.68,2.88s-6.69-1.29-6.69-2.88,3-2.89,6.69-2.89S861.47,619.67,861.47,621.26Z"/><path class="cls-24" d="M882.08,611a2.4,2.4,0,1,1-2.39-2.4A2.39,2.39,0,0,1,882.08,611Z"/><path class="cls-24" d="M882.08,621.74a2.4,2.4,0,1,1-2.39-2.39A2.39,2.39,0,0,1,882.08,621.74Z"/><path class="cls-24" d="M882.08,634.33a2.4,2.4,0,1,1-2.39-2.4A2.39,2.39,0,0,1,882.08,634.33Z"/><rect class="cls-24" x="851.67" y="660.04" width="32.75" height="4.01"/><path class="cls-25" d="M886.18,646.8a3.25,3.25,0,1,1-3.25-3.25A3.25,3.25,0,0,1,886.18,646.8Z"/><polygon class="cls-15" points="957.28 679.1 911.83 679.1 911.83 668.96 957.28 668.96 957.28 674.03 957.28 679.1"/><path class="cls-12" d="M953.18,734.42c-4.9,0-11.28-1.28-19.56-4.88C919,723.15,917.46,717,918,711.33l0-.28c-.33,0-.81,0-1.49.11-13.28,1.61-16.08-17.85-16.18-18.65h4.86c0,.15,2,15.06,10.77,14,2.48-.3,4.4-.24,5.68,1s1.12,2.93,1,4.27c-.28,2.82-.75,7.54,12.81,13.44,11.53,5,20.71,5.87,25.85,2.39,4.24-2.87,4.73-7.93,4.65-10.7-.11-3.59-1.78-6.08-3.55-8.71-3.29-4.87-7-10.4.95-21.78,2.61-3.73,3.62-6.7,2.76-8.14-1.22-2-6.68-2.24-8.87-2v-4.64c1-.11,9.8-.95,12.89,4.24,2,3.27,1,7.59-2.95,13.21-6.11,8.75-3.93,12-.9,16.49,2,2.92,4.2,6.24,4.35,11.18.19,6.43-2.19,11.65-6.71,14.72A18.82,18.82,0,0,1,953.18,734.42Z"/><rect class="cls-15" x="726.44" y="682.76" width="204.56" height="10.04"/><polygon class="cls-26" points="924.08 692.8 726.44 692.8 726.44 682.76 786.73 682.76 924.08 692.8"/><rect class="cls-15" x="761.79" y="673.44" width="19.46" height="2.42" rx="0.59"/><rect class="cls-15" x="791.95" y="673.44" width="20.95" height="2.42" rx="0.59"/><path class="cls-12" d="M874.31,679.09H923.5a11.62,11.62,0,0,0,.46-3.23c0-9.41-11.22-17-25.06-17s-25,7.63-25,17A11.62,11.62,0,0,0,874.31,679.09Z"/><path class="cls-16" d="M898.9,658.82c-1,0-1.95,0-2.9.12,12.46,1,22.15,8.18,22.15,16.92a12,12,0,0,1-.45,3.23h5.8a11.62,11.62,0,0,0,.46-3.23C924,666.45,912.74,658.82,898.9,658.82Z"/><rect class="cls-18" x="757.67" y="841.2" width="155.94" height="12.03"/><path class="cls-27" d="M149.31,892.13H133.7V345c0-33.67,24.51-61.07,54.64-61.07H424.88c30.13,0,54.65,27.4,54.65,61.07V892.13H464.32L463.91,345c0-24-17.51-43.62-39-43.62H188.34c-21.52,0-39,19.57-39,43.62Z"/><path class="cls-27" d="M683.44,892.13H667.83V327.22c0-19.05-13.87-34.55-30.91-34.55H533.22c-17,0-30.9,15.5-30.9,34.55V892.13H486.7V327.22c0-28.68,20.87-52,46.52-52h103.7c25.65,0,46.52,23.32,46.52,52Z"/><path class="cls-6" d="M533.22,275.22h-5.13c-25.65,0-46.52,23.32-46.52,52V892.13h5.13V327.22C486.7,298.54,507.57,275.22,533.22,275.22Z"/><path class="cls-6" d="M636.92,292.67h-5.14c17,0,30.91,15.5,30.91,34.55V892.13h5.14V327.22C667.83,308.17,654,292.67,636.92,292.67Z"/><rect class="cls-6" x="149.31" y="398.66" width="314.93" height="382.54"/><rect class="cls-6" x="502.32" y="398.96" width="165.51" height="382.24"/><rect class="cls-28" x="162.45" y="398.66" width="30.19" height="382.54"/><rect class="cls-28" x="208.03" y="398.66" width="30.19" height="382.54"/><rect class="cls-28" x="255.92" y="398.66" width="30.19" height="382.54"/><rect class="cls-28" x="304.28" y="398.66" width="30.19" height="382.54"/><rect class="cls-28" x="355.18" y="398.66" width="30.19" height="382.54"/><rect class="cls-28" x="411.16" y="398.66" width="30.19" height="382.54"/><rect class="cls-28" x="518.03" y="398.66" width="30.19" height="382.54"/><rect class="cls-28" x="566.4" y="398.66" width="30.19" height="382.54"/><rect class="cls-28" x="618.44" y="398.66" width="30.19" height="382.54"/><path class="cls-29" d="M119.19,890.53h35.6a2.12,2.12,0,0,1,2.12,2.12V897a0,0,0,0,1,0,0H117.06a0,0,0,0,1,0,0v-4.38A2.12,2.12,0,0,1,119.19,890.53Z"/><path class="cls-29" d="M656.71,890.53h35.6a2.13,2.13,0,0,1,2.13,2.13V897a0,0,0,0,1,0,0H654.58a0,0,0,0,1,0,0v-4.38A2.13,2.13,0,0,1,656.71,890.53Z"/><path class="cls-29" d="M453.46,890.53h52a1.9,1.9,0,0,1,1.9,1.9V897a0,0,0,0,1,0,0H451.56a0,0,0,0,1,0,0v-4.6A1.9,1.9,0,0,1,453.46,890.53Z"/><rect class="cls-30" x="1986.43" y="611.91" width="578.26" height="256.58"/><rect class="cls-30" x="1986.43" y="611.91" width="578.26" height="256.58"/><rect class="cls-12" x="1986.43" y="611.91" width="578.26" height="256.58"/><rect class="cls-27" x="1986.43" y="611.91" width="578.26" height="5.41"/><rect class="cls-27" x="2258.55" y="677.95" width="306.14" height="5.41"/><rect class="cls-12" x="1970.57" y="588.73" width="605.64" height="23.18"/><path class="cls-31" d="M2468.09,588.73h-9.3c0-56.2-16.44-95.37-31.2-95.37-9.37,0-19.28,16-25.24,40.68l-9-2.19c7.33-30.36,19.83-47.78,34.28-47.78C2453.89,484.07,2468.09,538,2468.09,588.73Z"/><polygon class="cls-32" points="2478.19 569.68 2475.45 588.73 2481.04 588.73 2482.86 569.68 2478.19 569.68"/><polygon class="cls-6" points="2486.55 569.68 2482.86 569.68 2481.04 588.73 2488.38 588.73 2486.55 569.68"/><polygon class="cls-31" points="2491.55 569.68 2486.55 569.68 2488.38 588.73 2494.51 588.73 2491.55 569.68"/><polygon class="cls-32" points="2436.36 569.68 2433.62 588.73 2439.2 588.73 2441.03 569.68 2436.36 569.68"/><polygon class="cls-6" points="2444.71 569.68 2441.03 569.68 2439.2 588.73 2446.54 588.73 2444.71 569.68"/><polygon class="cls-31" points="2449.72 569.68 2444.71 569.68 2446.54 588.73 2452.68 588.73 2449.72 569.68"/><rect class="cls-27" x="2256.24" y="614.61" width="4.62" height="253.88"/><rect class="cls-27" x="2117.96" y="614.61" width="4.62" height="253.88"/><rect class="cls-27" x="2410.6" y="680.65" width="4.62" height="187.84"/><path class="cls-33" d="M2111,737.22a8.83,8.83,0,1,1-8.83-8.83A8.83,8.83,0,0,1,2111,737.22Z"/><path class="cls-33" d="M2147.17,737.22a8.83,8.83,0,1,1-8.83-8.83A8.83,8.83,0,0,1,2147.17,737.22Z"/><path class="cls-33" d="M2424.05,644.93a8.83,8.83,0,1,1-8.83-8.83A8.83,8.83,0,0,1,2424.05,644.93Z"/><path class="cls-33" d="M2402.64,781.71a8.83,8.83,0,1,1-8.83-8.83A8.83,8.83,0,0,1,2402.64,781.71Z"/><path class="cls-33" d="M2438.78,781.71a8.83,8.83,0,1,1-8.83-8.83A8.83,8.83,0,0,1,2438.78,781.71Z"/><path class="cls-12" d="M2270.1,497.39c-1.51-1.08-5.79-3.8-5.79-3.8-6.77-3.89-12.68.23-14.86,3l2.05,1.64c.17-.21,3.73-4.48,8.81-3.37v23.9h4.29V496.83c1.55,1,2.82,1.87,4,2.7a27.59,27.59,0,0,0,13.08,5.7l.48-2.58A25,25,0,0,1,2270.1,497.39Z"/><path class="cls-34" d="M2275.56,548.35v40.08h-25.4V548.35a12.71,12.71,0,0,1,6.73-11.21V516.65h11.51v20.28A12.71,12.71,0,0,1,2275.56,548.35Z"/><rect class="cls-35" x="2256.24" y="561.54" width="16.72" height="2.93"/><rect class="cls-35" x="2252.98" y="567.02" width="21.06" height="2.82"/><rect class="cls-35" x="2256.02" y="514.04" width="12.89" height="19.33"/><path class="cls-27" d="M1816.37,868.13a4,4,0,0,1-4-3.56l-13.79-116.93H1681.23l-13.71,116.93a4,4,0,1,1-8-.94l14.54-124.06h131.69l14.64,124.06a4,4,0,0,1-3.54,4.48A3.77,3.77,0,0,1,1816.37,868.13Z"/><path class="cls-6" d="M1774.93,740.34,1767,738.8l21.54-111c1.23-6.37-.3-13.11-4-17.59a11.76,11.76,0,0,0-9-4.66h-78.85a11.72,11.72,0,0,0-8.89,4.54c-3.67,4.37-5.26,11-4.16,17.29l19.47,111.5-8,1.38-19.47-111.49c-1.52-8.71.7-17.64,5.93-23.87a19.63,19.63,0,0,1,15.07-7.42h78.85a19.66,19.66,0,0,1,15.21,7.59c5.27,6.39,7.4,15.46,5.69,24.27Z"/><path class="cls-36" d="M1804.7,638.16l-12.14,43.58a1.17,1.17,0,0,1-.11.28,7.9,7.9,0,0,1-7.56,5.55h-99a8,8,0,0,1-7.75-6.1l-10.51-43.57a8,8,0,0,1,6.32-9.7,8.36,8.36,0,0,1,1.43-.12H1797A8,8,0,0,1,1804.7,638.16Z"/><path class="cls-36" d="M1804.7,638.16l-12.14,43.58a1.17,1.17,0,0,1-.11.28,7.9,7.9,0,0,1-7.56,5.55h-99a8,8,0,0,1-7.75-6.1l-10.51-43.57a8,8,0,0,1,6.32-9.7,8.36,8.36,0,0,1,1.43-.12H1797A8,8,0,0,1,1804.7,638.16Z"/><path class="cls-18" d="M1804.7,638.16l-12.14,43.58a1.17,1.17,0,0,1-.11.28,7.9,7.9,0,0,1-7.56,5.55h-99a8,8,0,0,1-7.75-6.1l-10.51-43.57a8,8,0,0,1,6.32-9.7,8.36,8.36,0,0,1,1.43-.12H1797A8,8,0,0,1,1804.7,638.16Z"/><path class="cls-37" d="M1685.22,681.47l-10.51-43.57a8,8,0,0,1,6.31-9.7,8.45,8.45,0,0,1,1.43-.12h-7a8.36,8.36,0,0,0-1.43.12,8,8,0,0,0-6.32,9.7l10.51,43.57a8,8,0,0,0,7.75,6.1h7A8,8,0,0,1,1685.22,681.47Z"/><path class="cls-38" d="M1804.7,638.16l-12.14,43.58a1.17,1.17,0,0,1-.11.28c-23.35-20.33-111.14-53.94-110.65-53.94H1797A8,8,0,0,1,1804.7,638.16Z"/><path class="cls-18" d="M1806.23,739.57H1672.66a5.21,5.21,0,0,1-5.21-5.21h0a5.21,5.21,0,0,1,5.21-5.21h133.57a5.21,5.21,0,0,1,5.21,5.21h0A5.21,5.21,0,0,1,1806.23,739.57Z"/><rect class="cls-39" x="1672.66" y="739.57" width="134.33" height="10.62"/><polygon class="cls-11" points="1673.77 868.84 1654.71 868.84 1659.52 850.75 1669.64 850.75 1673.77 868.84"/><polygon class="cls-11" points="1824.05 868.84 1804.99 868.84 1809.8 850.75 1819.92 850.75 1824.05 868.84"/><rect class="cls-11" x="2024.86" y="461.36" width="157.87" height="124.86" rx="6.62" transform="translate(4211.51 1031.53) rotate(179.56)"/><path class="cls-35" d="M2058,461.36h91a33.45,33.45,0,0,1,33.45,33.45v17.38a4.4,4.4,0,0,1-4.4,4.4H2029a4.4,4.4,0,0,1-4.4-4.4V494.81A33.45,33.45,0,0,1,2058,461.36Z" transform="translate(4210.72 961.9) rotate(179.56)"/><rect class="cls-40" x="2085.85" y="484.53" width="35.42" height="17.89" transform="translate(4210.82 970.91) rotate(179.56)"/><rect class="cls-35" x="2089.61" y="488.22" width="27.89" height="10.51" transform="translate(4210.82 970.91) rotate(179.56)"/><path class="cls-41" d="M2123.06,460.54l-.07-8.21a7.55,7.55,0,0,0-7.58-7.47l-24.13.18a7.55,7.55,0,0,0-7.47,7.59l.06,8.21"/></g></g></svg>