<svg xmlns="http://www.w3.org/2000/svg" viewBox="0 0 286.6 420.56"><defs><style>.cls-1{fill:#4c4d4f;}.cls-2{fill:#fff;}.cls-3{fill:#d4d5d6;}.cls-4{fill:#157493;}.cls-5{fill:#545559;}.cls-15,.cls-19,.cls-6{fill:none;stroke-linecap:round;stroke-miterlimit:10;}.cls-6{stroke:#999;stroke-width:40px;}.cls-7{fill:#a1c7d4;}.cls-8{fill:#999;}.cls-9{fill:#a31f34;}.cls-10{fill:#3d3e3f;}.cls-11{fill:#a5a5a5;}.cls-12{fill:#b3b4b4;}.cls-13{fill:#292b30;}.cls-14{fill:#7a1727;}.cls-15{stroke:#545759;stroke-width:2.33px;}.cls-16{fill:#c9c8c7;}.cls-17{fill:#333d47;}.cls-18{fill:#c87985;}.cls-19{stroke:#333d47;stroke-width:2.45px;}</style></defs><g id="Layer_2" data-name="Layer 2"><g id="Boy"><path class="cls-1" d="M93,288.39H207.09a6.07,6.07,0,0,1,6.07,6.07v67.38a9.78,9.78,0,0,1-9.78,9.78H93A6.07,6.07,0,0,1,87,365.55V294.46A6.07,6.07,0,0,1,93,288.39Z"/><path class="cls-2" d="M140.4,149.72h-.11l.08.18Z"/><path class="cls-2" d="M140.14,151.35s-2.16.43-2.15.41c-10.48,3.33-29.34,6.49-45.62,13.91,0,0,3.61,36.85,3.84,45.73L80,315.34c.06,5.32,4.38,6.19,10.11,6.81,12.49,1.34,45.1,15.53,61.22,15.34,11.24-.14,54.42-6.68,64.69-7.59,8-.71,1.88-29.34,2-36.74.34-27.24-1.28-81.76-1.28-81.76.24-8.88,5.25-47.73,5.25-47.73-17.64-8-37.43-8.87-46.75-11.91,0,.19-18.84,21.91-18.84,21.91S140.88,151.72,140.14,151.35Z"/><polygon class="cls-3" points="154.39 194.68 163.01 212.14 182.29 214.94 168.34 228.54 171.63 247.74 154.39 238.67 137.15 247.74 140.45 228.54 126.5 214.94 145.77 212.14 154.39 194.68"/><path class="cls-4" d="M166.72,380.73s-16.23-7.53-25.85-4.07c-6.21,2.24-33.24-.42-47.85-1.54-8.19-.63-12,2.72-8.6,10.2,7.47,16.44,15,21.67,22.82,23.12,12.18,2.26,35.26-2.52,35.26-2.52l26.82-12.18Z"/><path class="cls-5" d="M185,274.28h48.14a0,0,0,0,1,0,0v141A23.07,23.07,0,0,1,210,438.31h-2A23.07,23.07,0,0,1,185,415.24v-141A0,0,0,0,1,185,274.28Z" transform="translate(-35.17 689.46) rotate(-113.36)"/><line class="cls-6" x1="220.21" y1="190.93" x2="247.42" y2="289.23"/><path class="cls-7" d="M215.46,258.75s28.73-18.28,36.93-25.94h0l-8-46.87c-2-12.08-18.1-24.22-27.94-22.63h0c-9.85,1.59-20.48,16.82-18.53,28.9l17.56,66.54Z"/><path class="cls-8" d="M267.37,290.65l-9.68,59.64a14.63,14.63,0,0,1-29.06-2.06l-1.15-60.42a20.08,20.08,0,1,1,40.15-.76A21.5,21.5,0,0,1,267.37,290.65Z"/><polygon class="cls-9" points="215.46 258.75 217.61 264.23 253.67 238.49 252.39 232.81 215.46 258.75"/><path class="cls-4" d="M167.23,368.41s19.64-1.42,28.18,5.9c5.51,4.73,34.35,12.56,49.82,17.11,8.67,2.56,11.29,7.49,4.87,13.86-14.11,14-23.89,16.44-32.51,14.87-13.42-2.44-35.29-16.38-35.29-16.38l-22.82-23Z"/><path class="cls-10" d="M188.78,362.63l-21.95,45.88L38.72,347.2a21.38,21.38,0,0,1-10.06-28.52l1.18-2.45a21.36,21.36,0,0,1,28.51-10.06Z"/><path class="cls-8" d="M250.62,400.33a23.53,23.53,0,0,0-3.42-19.16h0l-.42,11.47c0,1.12-.16,2.4-1,3s-2.1.25-3.05-.29a7.25,7.25,0,0,1-2.17-1.77c-1.28-1.62-1.51-3.88-1.75-6-.65-5.79-1.31-13.53-2.33-20l-2.82-3.35A10.1,10.1,0,0,1,235,349.92h0a10.1,10.1,0,0,1,14.4,1.62c5.53,7.16,12.76,17.51,14.23,24.37l-1.12,18.24-6.72,15.41s-4.11,2.42-6.07-.81S250.62,400.33,250.62,400.33Z"/><path class="cls-9" d="M115.23,158.43s21.41,27.62,40.52,27.62,40.52-29.82,40.52-29.82l-2.5-2.21a14.07,14.07,0,0,0-6-1.26l-62.68,1a13.94,13.94,0,0,0-7.56,2.38Z"/><path class="cls-11" d="M183.09,154.18a173.58,173.58,0,0,1-1.69-18.27c-.2-5.33-.18-10.41,0-15.21H132.9c0,15.33.56,18.22-1.7,33.48l-9.53,1.72a1.18,1.18,0,0,0-.54,2.08l18.49,15.23a25.73,25.73,0,0,0,34.2-.83l15.8-15.74a1.24,1.24,0,0,0-.8-2.12Z"/><path class="cls-8" d="M132.07,147.79s20.9,19.34,50.22,0l-1.62-15.36L133.25,135Z"/><path class="cls-12" d="M207.47,80.29l2.27-2.69a5.78,5.78,0,0,1,1.75-1.31,5,5,0,0,1,5.19.39,7.25,7.25,0,0,1,2.09,3,12,12,0,0,1,.37,8.06c-.69,2.11-2,3.87-2.44,6.09a39.64,39.64,0,0,0-.33,4c-.63,6.1-3.27,10.39-8,9.19a5.81,5.81,0,0,1-4.48-3.3C202.44,100.62,199.9,80.48,207.47,80.29Z"/><path class="cls-12" d="M111.12,78.41,109,75.63a5.71,5.71,0,0,0-1.7-1.38,5,5,0,0,0-5.2.18,7.24,7.24,0,0,0-2.21,2.91,12,12,0,0,0-.68,8c.6,2.13,1.85,3.94,2.2,6.17.2,1.29.09,2.65.18,4,.38,6.12,2.86,10.52,7.67,9.49a5.77,5.77,0,0,0,4.6-3.11C115.35,98.92,118.68,78.89,111.12,78.41Z"/><path class="cls-12" d="M210.07,97.35c-.44,14.89-1.64,24.09-12.82,34.47a57.58,57.58,0,0,1-40.23,15c-5.2-.11-37.39-1.24-46.86-31.94a10.59,10.59,0,0,1-.46-2.56c-.1-1.62-.22-4-.36-4.49,0,0-3.31-13.38-.6-38.7,0-.24,0-.48.05-.72.07-1.93,1-12.6,1.86-16.73C113,39.92,117.9,29,132.58,26.82a12,12,0,0,1,1.8-.1l52.87,1c9.73.87,23.24,12.61,22.83,43.29a10.63,10.63,0,0,0,.06,1.26c.3,2.89,1.48,15.44.11,23.36A11.52,11.52,0,0,0,210.07,97.35Z"/><path class="cls-13" d="M193,37.25s1.36,11.5,4.69,14.65c0,0,12.49,23.52,12.24,32.07,0,0,1.65-17.67.55-28.29s-3-28.29-16-27.78S193,37.25,193,37.25Z"/><path class="cls-13" d="M194.49,32.86s-13.56,26.29-35.61,25.58S138.66,48.35,121.27,51C113.52,52.11,109,80.59,109,80.59l-10.2-38,31.47-19.95,45.68-1.35Z"/><path class="cls-13" d="M185.47,33.3s7.27,25,20.78,29.52c8.25,2.79-9.16-31.8-9.16-31.8Z"/><path class="cls-9" d="M104.69,37.66S114.24-1.2,146.63,0s64.7,0,63.85,55.65C210.48,55.68,131.28,29.05,104.69,37.66Z"/><path class="cls-14" d="M210.48,55.68s-31.33-37.1-84.76-29.87S94.53,72.2,108.78,68.68C108.78,68.68,139.4,32.54,210.48,55.68Z"/><path class="cls-15" d="M152.1,107.84s5.93,3.68,12.18.24"/><path class="cls-16" d="M141,87.7c-.05,2.65-3.21,7.49-7.16,7.41s-7.18-5-7.13-7.69,3.29-4.72,7.24-4.64S141,85.06,141,87.7Z"/><circle class="cls-17" cx="133.8" cy="91.45" r="3.67"/><path class="cls-16" d="M177.7,88.42c0,2.65,3.19,8,7.13,8.08s7.11-5.15,7.16-7.8-3.1-4.85-7.05-4.92S177.75,85.78,177.7,88.42Z"/><circle class="cls-17" cx="184.83" cy="92.83" r="3.67"/><path class="cls-17" d="M177.51,72.08c-2.42,1.46-5.22-2.56-3-4.06.73-.5,1.53-1,2.41-1.56a23.76,23.76,0,0,1,6.94-2.7A30.59,30.59,0,0,1,190.2,63c4.61-.09,7.07,4.88,7.07,4.88s-2.7-2-7.92-.89C183,68.37,183.15,68.68,177.51,72.08Z"/><path class="cls-17" d="M142.59,79.84c2.73.71,4.28-3.94,1.77-4.76q-1.26-.42-2.76-.81a23.78,23.78,0,0,0-7.41-.62,31.15,31.15,0,0,0-6.35,1.08c-4.45,1.23-5.39,6.69-5.39,6.69s2-2.69,7.34-3.11C136.32,77.83,136.21,78.18,142.59,79.84Z"/><path class="cls-9" d="M90.44,277,117.81,318l14.75-9.83c-.34-.44-.67-.9-1-1.37A26.92,26.92,0,1,1,176.37,277c.32.48.61,1,.89,1.44L192,268.57,164.64,227.5Z"/><path class="cls-8" d="M126.68,249.24l.37,1.1a3.19,3.19,0,0,1-2,4L100.47,265a2,2,0,0,1-2.56-1.29l-1.1-3.3a2,2,0,0,1,1.28-2.57l24.56-10.63A3.2,3.2,0,0,1,126.68,249.24Z"/><path class="cls-8" d="M135.41,293.31h0a3.79,3.79,0,0,1-4.83,2.26l-26.9-9.6a3.78,3.78,0,0,1-2.26-4.82h0a3.78,3.78,0,0,1,4.83-2.26l26.9,9.59A3.78,3.78,0,0,1,135.41,293.31Z"/><path class="cls-8" d="M142.72,285.69h0c-.71,1.95-1.84,5.06-3.79,4.35L112,280.45a3.79,3.79,0,0,1-2.26-4.83h0a3.79,3.79,0,0,1,4.83-2.26l25.86,7.5A3.79,3.79,0,0,1,142.72,285.69Z"/><path class="cls-8" d="M147.29,278.8h0a3.78,3.78,0,0,1-4.83,2.26l-25.85-7.5a3.78,3.78,0,0,1-2.26-4.83h0c.71-1.94,1.84-5.06,3.78-4.35L145,274A3.78,3.78,0,0,1,147.29,278.8Z"/><path class="cls-8" d="M147.41,270.13h0a3.78,3.78,0,0,1-4.83,2.26l-28.76-10.27a3.77,3.77,0,0,1-2.25-4.83h0a3.77,3.77,0,0,1,4.82-2.26l28.76,10.27A3.78,3.78,0,0,1,147.41,270.13Z"/><path class="cls-8" d="M89,280.34,109.31,288l14.09-24.38-1.39-5.4-12.09-5.43-20,5.67a11.55,11.55,0,0,0-7.86,7.66h0A11.53,11.53,0,0,0,89,280.34Z"/><line class="cls-6" x1="90.06" y1="183.78" x2="21.6" y2="259.39"/><path class="cls-7" d="M30.23,216.06s30.82,14.49,41.68,17.32h0l35.29-31.86c9.16-8.12,10.78-28.26,4.17-35.72h0c-6.62-7.47-25.17-8.3-34.33-.18L30.23,216.06Z"/><path class="cls-8" d="M24.32,241.29l73,15.86A14.61,14.61,0,0,1,93.19,286l-74.51-5.11a20.06,20.06,0,0,1,2.75-40A23.12,23.12,0,0,1,24.32,241.29Z"/><polygon class="cls-9" points="30.23 216.06 26.75 220.82 67.8 237.5 71.91 233.38 30.23 216.06"/><path class="cls-18" d="M176.06,112.79c1.59,2.45,2.86,8.41.34,10.27-3.4,2.5-7.64-2.08-9.22-4.54"/><path class="cls-19" d="M159.17,120.77s15.31-2.91,17.14-8.47"/></g></g></svg>