<svg xmlns="http://www.w3.org/2000/svg" viewBox="0 0 685.49 470.72"><defs><style>.cls-1{opacity:0.37;}.cls-2,.cls-3{fill:#545759;}.cls-3{opacity:0.26;}.cls-4,.cls-7{fill:#8e8e8e;}.cls-10,.cls-14,.cls-15,.cls-4,.cls-5{fill-rule:evenodd;}.cls-5{fill:#3387a1;}.cls-12,.cls-16,.cls-18,.cls-20,.cls-36,.cls-6{fill:none;}.cls-6{stroke:#b3b3b3;stroke-width:2.56px;}.cls-12,.cls-16,.cls-18,.cls-20,.cls-29,.cls-6{stroke-miterlimit:10;}.cls-8{fill:#00698a;}.cls-9{fill:#364a66;}.cls-10,.cls-24{fill:#66a5b9;}.cls-11{fill:#a8a8a8;}.cls-12{stroke:#777;stroke-width:4px;}.cls-13{fill:#777;}.cls-14{fill:#a0a0a0;}.cls-15{fill:#b9b9b9;}.cls-16{stroke:#b9b9b9;stroke-width:3px;}.cls-17{fill:#c26977;}.cls-18,.cls-20{stroke:#293139;}.cls-18{stroke-width:0.79px;}.cls-19{fill:#afafaf;}.cls-20{stroke-width:1.22px;}.cls-21{fill:#333d47;}.cls-22{fill:#7e7e7e;}.cls-23{fill:#dadada;}.cls-25{fill:#2d0032;}.cls-26{opacity:0.39;}.cls-27{fill:#c9d1dc;}.cls-28{fill:#667a91;}.cls-29{fill:#220026;stroke:#ab99ad;stroke-width:2.57px;}.cls-30{fill:#d1d1d1;}.cls-31{fill:#e3e3e3;}.cls-32{fill:#99c3d0;}.cls-33{fill:#7f7f7f;}.cls-34{opacity:0.19;}.cls-35{fill:#5b5b5b;}.cls-37{fill:#989898;}</style></defs><g id="Layer_2" data-name="Layer 2"><g id="Skyline"><g class="cls-1"><rect class="cls-2" x="30.28" y="282.66" width="41.54" height="52.81"/><rect class="cls-2" x="121.09" y="282.66" width="41.54" height="52.81"/><rect class="cls-3" x="73.61" y="271.82" width="41.54" height="63.65"/><rect class="cls-2" x="321.12" y="289.78" width="41.54" height="45.69"/><rect class="cls-2" y="315.29" width="41.54" height="20.18"/><rect class="cls-2" x="654.03" y="309.07" width="31.45" height="26.4"/><rect class="cls-2" x="618.13" y="309.07" width="31.45" height="26.4"/><rect class="cls-3" x="63.52" y="253.27" width="30.86" height="82.2"/><rect class="cls-2" x="569.17" y="299.78" width="28.08" height="35.69"/><rect class="cls-2" x="602.7" y="289.78" width="25.22" height="45.69"/><rect class="cls-2" x="582.73" y="279.91" width="25.01" height="55.56"/><polygon class="cls-2" points="654.03 335.47 633.86 335.47 633.86 268.41 643.95 259.51 654.03 268.41 654.03 335.47"/><rect class="cls-3" x="105.06" y="226.27" width="36.8" height="109.2"/><rect class="cls-3" x="429.1" y="226.27" width="36.8" height="109.2"/><rect class="cls-2" x="541.29" y="237.54" width="30.55" height="97.93"/><rect class="cls-3" x="189.34" y="139.62" width="45.1" height="195.85"/><rect class="cls-3" x="350.76" y="226.27" width="38.54" height="109.2"/><polygon class="cls-3" points="178.65 335.47 158.47 335.47 158.47 256.55 168.56 244.09 178.65 256.55 178.65 335.47"/><polygon class="cls-3" points="419.29 331.91 399.11 331.91 399.11 252.99 409.2 240.53 419.29 252.99 419.29 331.91"/><polygon class="cls-3" points="317.53 335.47 265.3 335.47 265.3 191.85 291.42 175.82 317.53 191.85 317.53 335.47"/><rect class="cls-2" x="482.52" y="208.17" width="46.29" height="127.3"/><rect class="cls-2" x="220.2" y="283.25" width="52.23" height="52.23"/><rect class="cls-2" x="502.7" y="283.25" width="52.23" height="52.23"/><rect class="cls-2" x="382.81" y="283.25" width="52.23" height="52.23"/><rect class="cls-2" x="447.5" y="265.07" width="52.23" height="70.4"/><rect class="cls-2" x="303.28" y="268.41" width="38.61" height="67.06"/><rect class="cls-2" x="172.11" y="268.41" width="38.61" height="67.06"/><rect class="cls-3" x="112.18" y="191.85" width="2.37" height="45.7"/><rect class="cls-3" x="273.61" y="170.48" width="35.61" height="42.73"/><rect class="cls-2" x="283.11" y="162.17" width="15.43" height="36.8"/><rect class="cls-3" x="357.35" y="208.17" width="25.37" height="29.38"/><rect class="cls-3" x="362.42" y="188.88" width="15.22" height="29.67"/><rect class="cls-3" x="365.51" y="180.57" width="9.04" height="16.39"/><rect class="cls-3" x="368.09" y="173.38" width="3.88" height="12.91"/><rect class="cls-3" x="369.54" y="161.36" width="0.99" height="18.47"/><rect class="cls-3" x="435.04" y="218.56" width="24.93" height="14.24"/></g></g><g id="Second_Airport" data-name="Second Airport"><path class="cls-4" d="M218.35,295a81,81,0,0,1,162.08,0"/><path class="cls-5" d="M227.64,297.48a71.75,71.75,0,1,1,143.5,0"/><line class="cls-6" x1="268.58" y1="232.28" x2="268.58" y2="272.38"/><line class="cls-6" x1="326.82" y1="231.02" x2="326.82" y2="272.38"/><line class="cls-6" x1="297.7" y1="225.73" x2="297.7" y2="273.85"/><rect class="cls-7" x="172.76" y="271.6" width="252.11" height="77.66"/><rect class="cls-8" x="188.52" y="285.21" width="220.65" height="64.37"/><line class="cls-6" x1="187.96" y1="301.28" x2="409.96" y2="301.28"/><line class="cls-6" x1="187.96" y1="336.74" x2="409.96" y2="336.74"/><line class="cls-6" x1="187.96" y1="319.01" x2="409.96" y2="319.01"/><line class="cls-6" x1="242.41" y1="285.39" x2="242.41" y2="348.98"/><line class="cls-6" x1="353.27" y1="285.39" x2="353.27" y2="348.98"/><rect class="cls-9" x="273.64" y="313.25" width="48.68" height="36.01"/><polygon class="cls-10" points="374.96 174.25 384.52 208.01 435.04 208.01 444.6 174.25 374.96 174.25"/><rect class="cls-11" x="383.19" y="204.21" width="53.18" height="145.19"/><rect class="cls-7" x="373.91" y="223.21" width="71.75" height="8.44"/><line class="cls-12" x1="398.58" y1="201.15" x2="392.05" y2="173.34"/><rect class="cls-13" x="381.29" y="199.57" width="56.98" height="8.79"/><line class="cls-12" x1="426.83" y1="173.34" x2="420.3" y2="201.15"/><rect class="cls-13" x="366.91" y="160.74" width="85.54" height="15.19"/><rect class="cls-8" x="404.7" y="236.84" width="9.57" height="9.57"/><rect class="cls-8" x="420.93" y="236.84" width="9.57" height="9.57"/><rect class="cls-8" x="388.47" y="236.84" width="9.57" height="9.57"/><rect class="cls-9" x="397.16" y="296.93" width="26.45" height="53.14"/><path class="cls-14" d="M413.06,137.81s-10.13,11.82-8.44,10.69,13.2-.23,13.2-.23S409.68,136.69,413.06,137.81Z"/><path class="cls-15" d="M430.89,140.56a13.38,13.38,0,0,1-18.84-19"/><line class="cls-16" x1="417.47" y1="135.99" x2="426.41" y2="126.83"/><circle class="cls-8" cx="428.44" cy="124.79" r="3.76"/><path class="cls-17" d="M452.78,267.45h0a14.3,14.3,0,0,0-14.3,14.3l-7.32,36.8a14.3,14.3,0,0,0,14.3,14.3H460.1a14.31,14.31,0,0,0,14.31-14.3l-7.32-36.8A14.31,14.31,0,0,0,452.78,267.45Z"/><line class="cls-18" x1="452.78" y1="347.31" x2="452.78" y2="284.43"/><line class="cls-18" x1="452.78" y1="316.92" x2="462.76" y2="306.94"/><line class="cls-18" x1="452.45" y1="299.08" x2="446.83" y2="293.45"/><path class="cls-19" d="M140.93,300.47c2.93-3.25,3-8,.89-11.83A18.38,18.38,0,0,1,143,269a8.78,8.78,0,0,0,1-8.49,15.27,15.27,0,0,1-.58-10.18,15.11,15.11,0,0,1,11-10.54,15.3,15.3,0,0,1,18.91,14.85,15.1,15.1,0,0,1-1.05,5.52,9.29,9.29,0,0,0,.82,8.84,18.35,18.35,0,0,1,1.18,19.68,10.32,10.32,0,0,0,1,12,22.89,22.89,0,0,1,5.77,14.06,23.37,23.37,0,0,1-22.67,24.27,23,23,0,0,1-17.49-38.47Z"/><line class="cls-20" x1="158.06" y1="353.05" x2="158.06" y2="262.93"/><line class="cls-20" x1="158.06" y1="282.83" x2="147.8" y2="272.57"/><line class="cls-20" x1="158.06" y1="324.09" x2="172.09" y2="310.06"/><path class="cls-11" d="M179.21,349.19s-.41-10.5,10.79-9.81c0,0,2.94-9.37,17.68-9.37s18.42,11.73,18.42,11.73,13.82-2.75,13.82,7.52Z"/><rect class="cls-21" x="92.86" y="357.45" width="418.22" height="113.27"/><rect class="cls-22" x="93.11" y="348.23" width="418.66" height="10.11"/><rect class="cls-21" x="167.25" y="205.6" width="169.36" height="16.94" transform="translate(21.75 -23.23) rotate(5.52)"/><g id="plane"><g id="plane_base_layers" data-name="plane base layers"><path class="cls-23" d="M150.22,214,366,237a5.58,5.58,0,0,0,.4-1.44v0h0a3.35,3.35,0,0,0,0-.6h0v-.07s0,0,0,0h0c.95-4.13-4.08-7.58-7-9.2l-.31-.17h0l-.1-.06-.1-.05,0,0-.08,0,0,0-.06,0h0l-.19-.12,0,0-.08-.07-.11-.08,0,0a4.72,4.72,0,0,1-.41-.37h0l-.1-.11a3.48,3.48,0,0,1-.87-1.27l-1.57-2.55a4.69,4.69,0,0,1-.27-.81.49.49,0,0,0,0-.11,1.1,1.1,0,0,0-.12-.28,4.25,4.25,0,0,1-.25-.39l-.05,0c-6.56-7.57-21.07-9.27-21.07-9.27L178.33,193.32c-6-.77-42.12-2.55-50.22-2.95a1.81,1.81,0,0,0-1.87,1.52l-1.06,6.63a1.8,1.8,0,0,0,.76,1.77,174.47,174.47,0,0,0,20.31,11.82c1.33.66,2.65,1.29,4,1.91h0m104.66-3.8a1.9,1.9,0,0,1,2.06-1.68l1.16.13a1.87,1.87,0,0,1,1.68,2.07l-.4,3.83a1.9,1.9,0,0,1-2.06,1.68l-1.16-.12a1.89,1.89,0,0,1-1.68-2.07Zm8.62.9a1.9,1.9,0,0,1,2.06-1.68l1.16.12a1.92,1.92,0,0,1,1.27.69,1.86,1.86,0,0,1,.41,1.38l-.4,3.84a1.89,1.89,0,0,1-2.05,1.68l-1.17-.13A1.87,1.87,0,0,1,263.1,215Zm8.62.9a1.9,1.9,0,0,1,2.06-1.68l1.16.12a1.89,1.89,0,0,1,1.68,2.07l-.4,3.83a1.89,1.89,0,0,1-2.05,1.69l-1.17-.12a1.9,1.9,0,0,1-1.68-2.08Zm8.62.9a1.9,1.9,0,0,1,2.06-1.68l1.16.12a1.88,1.88,0,0,1,1.27.69,1.86,1.86,0,0,1,.41,1.38l-.4,3.84a1.9,1.9,0,0,1-2.05,1.68l-1.17-.13a1.87,1.87,0,0,1-1.68-2.07Zm8.62.9a1.9,1.9,0,0,1,2.06-1.68l1.16.12a1.88,1.88,0,0,1,1.68,2.07l-.4,3.83a1.89,1.89,0,0,1-2.05,1.69l-1.17-.13a1.87,1.87,0,0,1-1.68-2.07Zm8.62.9A1.9,1.9,0,0,1,300,213l1.16.12a1.88,1.88,0,0,1,1.68,2.07l-.4,3.83a1.88,1.88,0,0,1-2.05,1.68l-1.17-.12a1.89,1.89,0,0,1-1.68-2.07Zm8.62.9a1.89,1.89,0,0,1,2.06-1.68l1.16.12a1.88,1.88,0,0,1,1.27.69,1.86,1.86,0,0,1,.41,1.38l-.4,3.83a1.88,1.88,0,0,1-2.05,1.68l-1.17-.12a1.84,1.84,0,0,1-1.27-.69,1.91,1.91,0,0,1-.41-1.38Zm8.62.83a1.9,1.9,0,0,1,2.06-1.68l1.16.12a1.88,1.88,0,0,1,1.27.69,1.86,1.86,0,0,1,.41,1.38l-.4,3.84a1.9,1.9,0,0,1-2.06,1.68l-1.16-.13a1.88,1.88,0,0,1-1.68-2.07Zm-64.46-2.78a1.89,1.89,0,0,1-2.06,1.68l-1.16-.12a1.89,1.89,0,0,1-1.68-2.07l.4-3.83a1.89,1.89,0,0,1,2.05-1.68l1.17.12a1.89,1.89,0,0,1,1.68,2.07Zm-8.62-.9a1.9,1.9,0,0,1-2.06,1.68l-1.16-.12a1.88,1.88,0,0,1-1.27-.69,1.86,1.86,0,0,1-.41-1.38l.4-3.83a1.89,1.89,0,0,1,2.05-1.68l1.17.12a1.87,1.87,0,0,1,1.27.68,1.9,1.9,0,0,1,.41,1.39Zm-8.62-.9a1.89,1.89,0,0,1-2.06,1.68l-1.16-.12a1.88,1.88,0,0,1-1.27-.69,1.86,1.86,0,0,1-.41-1.38l.4-3.83a1.89,1.89,0,0,1,2-1.68l1.17.12a1.89,1.89,0,0,1,1.68,2.07Zm-8.62-.9a1.89,1.89,0,0,1-2.06,1.68l-1.16-.12a1.88,1.88,0,0,1-1.27-.69,1.86,1.86,0,0,1-.41-1.38l.4-3.83a1.89,1.89,0,0,1,2-1.68l1.17.12a1.89,1.89,0,0,1,1.68,2.07Zm-8.62-.9a1.89,1.89,0,0,1-2.06,1.68l-1.16-.12a1.88,1.88,0,0,1-1.27-.69,1.86,1.86,0,0,1-.41-1.38l.4-3.83a1.89,1.89,0,0,1,2.06-1.68l1.16.12a1.89,1.89,0,0,1,1.68,2.07Zm-8.62-.9a1.89,1.89,0,0,1-2.06,1.68l-1.16-.12a1.87,1.87,0,0,1-1.27-.68,1.9,1.9,0,0,1-.41-1.39l.4-3.83a1.89,1.89,0,0,1,2.05-1.68l1.17.12a1.88,1.88,0,0,1,1.27.69,1.86,1.86,0,0,1,.41,1.38Zm-8.62-.9A1.9,1.9,0,0,1,197,210l-1.16-.13a1.87,1.87,0,0,1-1.68-2.07l.4-3.83a1.89,1.89,0,0,1,2.05-1.68l1.17.12a1.88,1.88,0,0,1,1.27.69,1.86,1.86,0,0,1,.41,1.38Zm-8.62-.9a1.9,1.9,0,0,1-2.06,1.69l-1.16-.13a1.87,1.87,0,0,1-1.68-2.07l.4-3.83a1.89,1.89,0,0,1,2.05-1.68l1.17.12a1.89,1.89,0,0,1,1.68,2.07Z"/><path class="cls-21" d="M358.15,224.85c-2.82-.51-5.61-.78-7.66-.94a3.21,3.21,0,0,1-3-3.44.88.88,0,0,1,0-.17,2,2,0,0,1,2.12-1.62c1.29.14,3.1.34,5.14.64l0,0,.23.4.1.17c.62,1.1,1.92,3.44,2.62,4.46a4,4,0,0,0,.27.37l.08.09Z"/><path class="cls-24" d="M187.94,201.73h0l1.15.12a1.52,1.52,0,0,1,1.34,1.65l-.4,3.83a1.51,1.51,0,0,1-1.64,1.34h0l-1.15-.12a1.49,1.49,0,0,1-1.34-1.65l.4-3.83a1.5,1.5,0,0,1,1.64-1.34ZM188,201a2.26,2.26,0,0,0-2.47,2l-.4,3.83a2.26,2.26,0,0,0,2,2.49l1.15.12h0a2.28,2.28,0,0,0,2.47-2l.4-3.83a2.27,2.27,0,0,0-2-2.49L188,201Z"/><path class="cls-24" d="M196.56,202.63h0l1.15.12a1.49,1.49,0,0,1,1,.55,1.5,1.5,0,0,1,.33,1.1l-.4,3.83a1.51,1.51,0,0,1-1.64,1.34h0l-1.15-.12a1.49,1.49,0,0,1-1.34-1.65l.4-3.83a1.5,1.5,0,0,1,1.64-1.34Zm.07-.76a2.26,2.26,0,0,0-2.47,2l-.4,3.83a2.26,2.26,0,0,0,2,2.49l1.15.12h0a2.27,2.27,0,0,0,2.47-2l.4-3.83a2.27,2.27,0,0,0-2-2.49l-1.15-.12Z"/><path class="cls-24" d="M205.18,203.53h0l1.15.12a1.49,1.49,0,0,1,1,.55,1.5,1.5,0,0,1,.33,1.1l-.4,3.83a1.51,1.51,0,0,1-1.64,1.34h0l-1.15-.12a1.45,1.45,0,0,1-1-.55,1.46,1.46,0,0,1-.33-1.1l.4-3.83a1.5,1.5,0,0,1,1.64-1.34Zm.07-.76a2.26,2.26,0,0,0-2.47,2l-.4,3.83a2.26,2.26,0,0,0,2,2.49l1.15.12h0a2.27,2.27,0,0,0,2.47-2l.4-3.83a2.27,2.27,0,0,0-2-2.49l-1.15-.12Z"/><path class="cls-24" d="M213.8,204.43h0l1.15.12a1.51,1.51,0,0,1,1.34,1.65l-.4,3.83a1.51,1.51,0,0,1-1.64,1.34h0l-1.15-.12a1.5,1.5,0,0,1-1.34-1.65l.4-3.83a1.5,1.5,0,0,1,1.64-1.34Zm.07-.76a2.26,2.26,0,0,0-2.47,2l-.4,3.83a2.26,2.26,0,0,0,2,2.49l1.15.12h0a2.26,2.26,0,0,0,2.47-2l.4-3.83a2.27,2.27,0,0,0-2-2.49l-1.15-.12Z"/><path class="cls-24" d="M222.42,205.33h0l1.15.12a1.49,1.49,0,0,1,1,.55,1.5,1.5,0,0,1,.33,1.1l-.4,3.83a1.51,1.51,0,0,1-1.64,1.34h0l-1.15-.12a1.5,1.5,0,0,1-1.34-1.65l.4-3.83a1.5,1.5,0,0,1,1.64-1.34Zm.07-.76a2.26,2.26,0,0,0-2.47,2l-.4,3.83a2.26,2.26,0,0,0,2,2.49l1.15.12h0a2.26,2.26,0,0,0,2.47-2l.4-3.83a2.27,2.27,0,0,0-2-2.49l-1.15-.12Z"/><path class="cls-24" d="M231,206.23h0l1.15.12a1.5,1.5,0,0,1,1.34,1.65l-.4,3.83a1.51,1.51,0,0,1-1.64,1.34h0l-1.15-.12a1.49,1.49,0,0,1-1-.55,1.46,1.46,0,0,1-.33-1.1l.4-3.83a1.5,1.5,0,0,1,1.64-1.34Zm.07-.76a2.26,2.26,0,0,0-2.47,2l-.4,3.83a2.27,2.27,0,0,0,2,2.49l1.15.12h0a2.26,2.26,0,0,0,2.47-2l.4-3.83a2.26,2.26,0,0,0-2-2.49l-1.15-.12Z"/><path class="cls-24" d="M239.66,207.13h0l1.15.12a1.45,1.45,0,0,1,1,.55,1.5,1.5,0,0,1,.33,1.1l-.4,3.83a1.51,1.51,0,0,1-1.64,1.34h0L239,214a1.49,1.49,0,0,1-1-.55,1.46,1.46,0,0,1-.33-1.1l.4-3.83a1.5,1.5,0,0,1,1.64-1.34Zm.07-.76a2.26,2.26,0,0,0-2.47,2l-.4,3.83a2.27,2.27,0,0,0,2,2.49l1.15.12h0a2.26,2.26,0,0,0,2.47-2l.4-3.83a2.26,2.26,0,0,0-2-2.49l-1.15-.12Z"/><path class="cls-24" d="M248.28,208h0l1.15.12a1.49,1.49,0,0,1,1.34,1.65l-.4,3.83a1.51,1.51,0,0,1-1.64,1.34h0l-1.15-.12a1.5,1.5,0,0,1-1.34-1.65l.4-3.83a1.52,1.52,0,0,1,1.64-1.35Zm.07-.76a2.27,2.27,0,0,0-2.47,2l-.4,3.83a2.27,2.27,0,0,0,2,2.49l1.15.12h0a2.26,2.26,0,0,0,2.47-2l.4-3.83a2.26,2.26,0,0,0-2-2.49l-1.15-.12Z"/><path class="cls-24" d="M256.9,208.92h0l1.15.12a1.49,1.49,0,0,1,1.34,1.65l-.4,3.83a1.5,1.5,0,0,1-1.64,1.34h0l-1.15-.12a1.49,1.49,0,0,1-1-.55,1.46,1.46,0,0,1-.33-1.1l.4-3.84a1.52,1.52,0,0,1,1.64-1.34Zm.07-.76a2.27,2.27,0,0,0-2.47,2l-.4,3.83a2.27,2.27,0,0,0,2,2.49l1.15.12h0a2.26,2.26,0,0,0,2.47-2l.4-3.83a2.26,2.26,0,0,0-2-2.49l-1.15-.12Z"/><path class="cls-24" d="M265.52,209.82h0l1.15.12a1.53,1.53,0,0,1,1,.55,1.49,1.49,0,0,1,.33,1.11l-.4,3.83a1.51,1.51,0,0,1-1.64,1.34h0l-1.15-.12a1.53,1.53,0,0,1-1-.55,1.47,1.47,0,0,1-.33-1.1l.4-3.84a1.51,1.51,0,0,1,1.64-1.34Zm.07-.76a2.26,2.26,0,0,0-2.47,2l-.4,3.84a2.27,2.27,0,0,0,2,2.49l1.15.12h0a2.26,2.26,0,0,0,2.47-2l.4-3.84a2.27,2.27,0,0,0-2-2.49l-1.15-.12Z"/><path class="cls-24" d="M274.14,210.72h0l1.15.12a1.53,1.53,0,0,1,1,.55,1.47,1.47,0,0,1,.33,1.1l-.4,3.84a1.51,1.51,0,0,1-1.64,1.34h0l-1.15-.12a1.51,1.51,0,0,1-1.34-1.66l.4-3.83a1.51,1.51,0,0,1,1.64-1.34Zm.07-.76a2.26,2.26,0,0,0-2.47,2l-.4,3.83a2.26,2.26,0,0,0,2,2.49l1.15.13h0a2.27,2.27,0,0,0,2.47-2l.4-3.84a2.27,2.27,0,0,0-2-2.49l-1.15-.12Z"/><path class="cls-24" d="M282.76,211.62h0l1.15.12a1.5,1.5,0,0,1,1.34,1.65l-.4,3.84a1.52,1.52,0,0,1-1.64,1.34h0l-1.15-.12a1.47,1.47,0,0,1-1-.54,1.54,1.54,0,0,1-.33-1.11l.4-3.83a1.51,1.51,0,0,1,1.64-1.34Zm.07-.76a2.26,2.26,0,0,0-2.47,2l-.4,3.83a2.27,2.27,0,0,0,2,2.49l1.15.12h0a2.27,2.27,0,0,0,2.47-2l.4-3.83a2.27,2.27,0,0,0-2-2.49l-1.15-.12Z"/><path class="cls-24" d="M291.38,212.52h0l1.15.12a1.49,1.49,0,0,1,1,.55,1.46,1.46,0,0,1,.33,1.1l-.4,3.83a1.5,1.5,0,0,1-1.64,1.34h0l-1.15-.12a1.5,1.5,0,0,1-1.34-1.65l.4-3.83a1.51,1.51,0,0,1,1.64-1.34Zm.07-.76a2.26,2.26,0,0,0-2.47,2l-.4,3.83a2.27,2.27,0,0,0,2,2.49l1.15.12h0a2.28,2.28,0,0,0,2.47-2l.4-3.83a2.27,2.27,0,0,0-2-2.49l-1.15-.12Z"/><path class="cls-24" d="M300,213.42h0l1.15.12a1.49,1.49,0,0,1,1,.55,1.46,1.46,0,0,1,.33,1.1l-.4,3.83a1.5,1.5,0,0,1-1.64,1.34h0l-1.15-.12a1.45,1.45,0,0,1-1-.55,1.5,1.5,0,0,1-.33-1.1l.4-3.83a1.51,1.51,0,0,1,1.64-1.34Zm.07-.76a2.27,2.27,0,0,0-2.47,2l-.4,3.83a2.27,2.27,0,0,0,2,2.49l1.15.12h0a2.26,2.26,0,0,0,2.47-2l.4-3.83a2.27,2.27,0,0,0-2-2.49l-1.15-.12Z"/><path class="cls-24" d="M308.62,214.32h0l1.15.12a1.49,1.49,0,0,1,1,.55,1.46,1.46,0,0,1,.33,1.1l-.4,3.83a1.5,1.5,0,0,1-1.64,1.34h0l-1.15-.12a1.51,1.51,0,0,1-1.34-1.65l.4-3.83a1.51,1.51,0,0,1,1.64-1.34Zm.07-.76a2.27,2.27,0,0,0-2.47,2l-.4,3.83a2.27,2.27,0,0,0,2,2.49L309,222h0a2.26,2.26,0,0,0,2.47-2l.4-3.83a2.26,2.26,0,0,0-2-2.49l-1.15-.12Z"/><path class="cls-24" d="M317.24,215.15h0l1.15.12a1.49,1.49,0,0,1,1,.55,1.46,1.46,0,0,1,.33,1.1l-.4,3.83a1.52,1.52,0,0,1-1.64,1.35h0l-1.15-.12a1.49,1.49,0,0,1-1.34-1.65l.4-3.83a1.5,1.5,0,0,1,1.64-1.34Zm.07-.76a2.26,2.26,0,0,0-2.47,2l-.4,3.83a2.26,2.26,0,0,0,2,2.49l1.15.12h0a2.27,2.27,0,0,0,2.47-2l.4-3.83a2.27,2.27,0,0,0-2-2.49l-1.15-.12Z"/><path class="cls-25" d="M363.38,240l-.45.29Z"/><path class="cls-21" d="M366,237s0,.07-.05.1l-.1.21-.12.22-.06.11-.14.22-.08.11-.12.17h0l-.13.17-.09.12-.16.18a1.07,1.07,0,0,1-.14.16c-.08.08-.15.16-.23.23h0a3,3,0,0,1-.32.29,3.91,3.91,0,0,1-.48.4l-.41.29-.45.29-.16.09-.33.19a12.77,12.77,0,0,1-1.33.62l-.24.1c-.41.16-.85.31-1.31.45s-.63.18-1,.26l-.54.13-.57.12-.51.1-.62.1-.45.07-.68.09c-.91.11-1.89.2-3,.25a341.53,341.53,0,0,1-49.56-2.34h0l-90.13-8.76-3.31-.33a171.4,171.4,0,0,1-24.48-4.86l-1-.27-2-.55-.77-.22-1.54-.44-.79-.24h0l-1.59-.48h0l-1.61-.5h0l-1.09-.34-2.21-.73-2.25-.76q-.85-.28-1.71-.6l-2.9-1q-1.83-.68-3.69-1.41l-.93-.37q-5.14-2-10.48-4.53Z"/><g class="cls-26"><polygon class="cls-8" points="366.41 235.53 146.25 212.11 144.32 211.13 366.44 234.77 366.41 235.53"/></g><path class="cls-24" d="M358.93,225.29a4.07,4.07,0,0,1-.65-.43s0,0,0,0l-.08-.09a3.7,3.7,0,0,1-.27-.36l-.13,0-.93-.14-.6-.08c-1.76-.25-3.66-.46-5.6-.6a2.84,2.84,0,0,1-2.61-3,.77.77,0,0,1,0-.15,1.56,1.56,0,0,1,1.7-1.29c1,.1,2,.22,2.92.34l1.46.19.92.12.13,0a8.49,8.49,0,0,0-.62-.85c-1.5-.22-3.05-.41-4.73-.58a2.34,2.34,0,0,0-2.54,1.93,1.49,1.49,0,0,0,0,.21,3.59,3.59,0,0,0,3.31,3.85,75.18,75.18,0,0,1,7.63.93l.91.16Z"/><path class="cls-27" d="M311.69,223.78l-2.07-.39a.16.16,0,0,1-.07-.13h0l0,0,2.24.43s0,0,0,0h0A.1.1,0,0,1,311.69,223.78Z"/><path class="cls-28" d="M351,224.16v-.08h0Z"/></g></g><rect class="cls-29" x="208.52" y="219.11" width="57.35" height="5.06" rx="2.53" transform="translate(26.76 -25.55) rotate(6.53)"/><path class="cls-8" d="M156.27,203.89l-21.46-2.65a2.61,2.61,0,0,1-2.43-2.76h0a2.61,2.61,0,0,1,3-2.07l21.46,2.65a2.62,2.62,0,0,1,2.43,2.76h0A2.61,2.61,0,0,1,156.27,203.89Z"/><rect class="cls-21" x="169.58" y="202.32" width="13.18" height="7.38" rx="1.12" transform="translate(-45.8 361.6) rotate(-84.49)"/><path class="cls-25" d="M332.43,227.85a1.12,1.12,0,0,1-1.22,1l-5.12-.49a1.13,1.13,0,0,1-1-1.22l1.05-10.89a1.12,1.12,0,0,1,1.23-1l5.11.49a1.12,1.12,0,0,1,1,1.23Z"/><g id="front_wing_and_turbine" data-name="front wing and turbine"><polyline class="cls-30" points="256.75 233.52 248.88 225.59 260.21 224.35 275.88 229.41"/><path class="cls-8" d="M254.91,233.66l-.46,4.68-1.66-.78c-2.08-1-2-2.6.05-3.26Z"/><path class="cls-31" d="M287.73,230.19,286,247.63a119.86,119.86,0,0,1-15.12-2.19l-.53-.11c-2.26-.48-4.68-1.05-7.21-1.73l1.39-13.93c2.08-.17,4.6-.32,7.43-.38h.54A98.49,98.49,0,0,1,287.73,230.19Z"/><polygon class="cls-11" points="258.36 231.69 255.07 232.07 254.29 239.86 257.45 240.75 258.36 231.69"/><path class="cls-8" d="M272.49,229.29l-1.62,16.15-.53-.11,1.61-16Z"/><path class="cls-32" d="M264.52,229.67l-1.39,13.93q-2.81-.75-5.79-1.68l1.15-11.55S260.79,230,264.52,229.67Z"/><path class="cls-33" d="M293,231.13l-1.68,16.72s-.84,0-2.4,0l-.54,0-2.39-.16,1.74-17.44c.79.11,1.58.24,2.37.38l.42.07.12,0C291.42,230.8,292.21,231,293,231.13Z"/><path class="cls-8" d="M290.64,230.66l-1.72,17.15-.54,0,1.72-17.22.42.07Z"/><rect class="cls-11" x="206.86" y="218.36" width="60.66" height="6.57" rx="3.29" transform="translate(26.76 -25.55) rotate(6.53)"/></g><path class="cls-23" d="M180.8,193.5l-38-2.32-.44,0-6.52-.4-4.58-45.63,4.18.7.44.08,4,.67,2.3.44a11.16,11.16,0,0,1,7.25,4.88l20.09,31C174.85,192.51,180.8,193.5,180.8,193.5Z"/><g class="cls-34"><polygon class="cls-35" points="142.76 191.18 142.32 191.15 135.4 145.82 135.84 145.9 142.76 191.18"/></g><path class="cls-8" d="M178.09,212.82l-5.11-.49a1.12,1.12,0,0,1-1-1.23L173,200.22a1.12,1.12,0,0,1,1.23-1l5.11.49a1.12,1.12,0,0,1,1,1.23l-1.05,10.88A1.12,1.12,0,0,1,178.09,212.82Zm-3.9-13a.55.55,0,0,0-.6.49l-1.05,10.89a.55.55,0,0,0,.49.6l5.12.49a.55.55,0,0,0,.6-.49l1.05-10.89a.55.55,0,0,0-.49-.6Z"/><polygon class="cls-21" points="329.71 215.81 327.04 215.45 326.47 216.1 325.38 227.31 325.92 228.02 331.52 228.51 332.03 228.11 333.19 216.85 332.72 215.98 329.71 215.81"/><path class="cls-8" d="M331.21,228.86l-5.12-.49a1.13,1.13,0,0,1-1-1.23l1.05-10.88a1.12,1.12,0,0,1,1.23-1l5.11.49a1.12,1.12,0,0,1,1,1.23l-1.05,10.88A1.12,1.12,0,0,1,331.21,228.86Zm-3.91-13a.55.55,0,0,0-.6.49l-1.05,10.89a.56.56,0,0,0,.5.6l5.11.49a.55.55,0,0,0,.6-.49l1.05-10.89a.55.55,0,0,0-.49-.6Z"/><circle class="cls-36" cx="299.48" cy="200.29" r="200.29"/><rect class="cls-37" x="389.99" y="147.8" width="41.64" height="12.94"/></g></g></svg>