<svg xmlns="http://www.w3.org/2000/svg" xmlns:xlink="http://www.w3.org/1999/xlink" viewBox="0 0 128.21 128.21"><defs><style>.cls-1,.cls-2{fill:#a31f34;stroke:#a31f34;stroke-miterlimit:10;}.cls-1{opacity:0.5;}.cls-3{fill:url(#Degradado_sin_nombre_101);}.cls-4{fill:#7a1727;}</style><linearGradient id="Degradado_sin_nombre_101" x1="1701.05" y1="1354.45" x2="1780.45" y2="1354.45" gradientTransform="translate(2222.35 518.31) rotate(154)" gradientUnits="userSpaceOnUse"><stop offset="0" stop-color="#e6e6e6"/><stop offset="0.54" stop-color="#f7f7f7"/><stop offset="1" stop-color="#fff"/></linearGradient></defs><g id="Layer_2" data-name="Layer 2"><g id="Layer_9" data-name="Layer 9"><circle class="cls-1" cx="64.1" cy="64.1" r="63.59" transform="translate(-6.84 120.55) rotate(-83.51)"/><circle class="cls-2" cx="64.1" cy="64.1" r="52.95" transform="translate(-26.55 64.1) rotate(-45)"/><circle class="cls-3" cx="64.1" cy="64.1" r="39.7" transform="translate(-19.49 99.18) rotate(-67.76)"/></g><g id="Layer_18" data-name="Layer 18"><g id="T27emO"><path class="cls-4" d="M72.7,74.79a46.8,46.8,0,0,1,3.23,6.45c1.42,4.35-.65,7.83-5,9.08-2.29.65-2.84.39-3.46-1.9A10.5,10.5,0,0,0,64.23,83Q57.44,77.2,50.6,71.49a2.4,2.4,0,0,0-1.39-.37c-2.38,0-4.76,0-7.14,0-1.13,0-1.87-.42-1.88-1.65q0-9.54,0-19.07a1.47,1.47,0,0,1,1.62-1.62,28.18,28.18,0,0,1,3.56,0,7,7,0,0,0,6.5-2.42,12.85,12.85,0,0,1,8.83-4.54c5.2-.2,10.42-.12,15.63,0a4.79,4.79,0,0,1,4.62,5,16.29,16.29,0,0,1-.48,2.64l.29-.21c.79,1.22,2,2.35,2.28,3.68s-.18,2.95-.35,4.66c1.18.81,1.57,2.35,1.57,4.07a4.75,4.75,0,0,1-2.1,4.27,5.22,5.22,0,0,1-5,8.07c-1.57-.15-3.16,0-4.93,0C72.46,74.34,72.59,74.57,72.7,74.79ZM43.19,68.12c2.31,0,4.58-.05,6.85,0a3.4,3.4,0,0,1,1.88.59c3.92,3.14,7.85,6.29,11.67,9.56,2.88,2.47,5.71,5,6.59,9,2.25-.35,3.62-2,3.15-4a25,25,0,0,0-1.88-5c-.41-.9-1.25-1.61-1.64-2.51a2.88,2.88,0,0,0-3.43-1.9,1.33,1.33,0,0,1-1.68-1.35c0-1.11.67-1.53,1.67-1.54H76.52a3.18,3.18,0,0,0,1.35,0c.72-.36,1.7-.77,1.92-1.4a2.75,2.75,0,0,0-.61-2.27c-1.39-1.6-1.2-2.79.63-3.79a2.82,2.82,0,0,0,1.42-1.89,2.86,2.86,0,0,0-1.27-2c-1.78-1.11-2-2.31-.56-3.83a2.73,2.73,0,0,0,.73-2.13,2.71,2.71,0,0,0-1.68-1.5c-2.32-.68-2.74-2-1.24-3.88a2.81,2.81,0,0,0,.51-2.32,2.45,2.45,0,0,0-1.87-1.23c-5-.06-10.07-.13-15.08.14a10.07,10.07,0,0,0-4.62,1.87,24.15,24.15,0,0,0-4.31,3.78,3.22,3.22,0,0,1-2.72,1.17c-1.92-.08-3.84,0-5.93,0Z"/></g></g></g></svg>