<svg xmlns="http://www.w3.org/2000/svg" viewBox="0 0 377.72 397.38"><defs><style>.cls-1{fill:#d9d9d9;}.cls-2,.cls-4{fill:#b7b7b7;}.cls-3{fill:#e6e6e6;}.cls-4{opacity:0.26;}.cls-5{fill:#a31f34;}</style></defs><g id="Layer_2" data-name="Layer 2"><g id="Layer_26" data-name="Layer 26"><path class="cls-1" d="M211,361.22c-.26,5.58-9.91,10.07-21.79,10.07s-21.54-4.49-21.8-10.07H6.81a4.28,4.28,0,0,0-4.28,4.27v31.89H375.78V365.49a4.27,4.27,0,0,0-4.28-4.27Z"/><rect class="cls-2" y="359.75" width="376.87" height="37.45"/><path class="cls-3" d="M22.81,13.64h331.8a22,22,0,0,1,22,22V360.89a0,0,0,0,1,0,0H.78a0,0,0,0,1,0,0V35.66A22,22,0,0,1,22.81,13.64Z"/><rect class="cls-4" x="0.68" y="343.01" width="377.04" height="18.32"/><ellipse class="cls-1" cx="188.71" cy="10.64" rx="23.46" ry="10.64"/><path class="cls-5" d="M258.09,146.7c-36.57-12.22-100.46-10.94-130.38,2.5l68.12,161.89Zm-75.2,31.11c-5.64,7.22-16.83,8.82-23.8,3.42-7.53-5.84-9.06-17.21-3.29-24.49a17.13,17.13,0,0,1,23.76-3.1A16.8,16.8,0,0,1,182.89,177.81Zm13.9,5.57a16.94,16.94,0,0,1,23.5-4.44,17.26,17.26,0,0,1,4.7,24.11,17.84,17.84,0,0,1-23.77,4.58C193.47,202.66,191.38,191.23,196.79,183.38Zm-11.24,69.71a17.2,17.2,0,0,1-5.36-23.93,16.82,16.82,0,0,1,23.92-4.83A17.17,17.17,0,0,1,209,247.78,17.45,17.45,0,0,1,185.55,253.09Z"/><path class="cls-5" d="M247.15,132.45c11.36,2.45,11.41,2.28,15.64-8.75a7.86,7.86,0,0,0,0-2.16l-24.79-9c.21-.6.41-1.21.62-1.82,5.35.65,10.71,1.27,16.06,2,12.64,1.65,12.64,1.67,16-10.62-52.49-14-104.57-13-157,3.16l13.78,32.69c2.24-.8,4.16-1.63,6.15-2.19A232.91,232.91,0,0,1,247.15,132.45Z"/></g></g></svg>