<svg xmlns="http://www.w3.org/2000/svg" viewBox="0 0 138.42 138.42"><defs><style>.cls-1{fill:#a31f34;}.cls-2{fill:#f4f4f4;}.cls-3{fill:#545759;}.cls-4{fill:#292b30;}.cls-5{fill:#bbb;}.cls-6{fill:#7c7c7c;}.cls-7{fill:#fff;}</style></defs><title>Asset 5</title><g id="Layer_2" data-name="Layer 2"><g id="Icons"><circle class="cls-1" cx="69.21" cy="69.21" r="69.21"/><path class="cls-1" d="M131,38.13a69.21,69.21,0,1,0-71.54,99.6Z"/><polygon class="cls-2" points="93.12 25.72 63.05 25.72 63.05 48.71 67.77 48.71 68.36 55.3 75.16 48.71 93.12 48.71 93.12 25.72"/><circle class="cls-3" cx="71.42" cy="37.18" r="1.85"/><circle class="cls-3" cx="78.2" cy="37.18" r="1.85"/><circle class="cls-3" cx="84.99" cy="37.18" r="1.85"/><path class="cls-4" d="M35.7,79.68H65.9a8.93,8.93,0,0,1,8.93,8.93v13a0,0,0,0,1,0,0H26.77a0,0,0,0,1,0,0v-13A8.93,8.93,0,0,1,35.7,79.68Z"/><circle class="cls-4" cx="50.8" cy="62.4" r="14.04"/><rect class="cls-3" x="79.32" y="88.68" width="6.61" height="14.83" rx="2.84" transform="translate(200.45 142.77) rotate(152.3)"/><path class="cls-5" d="M72.3,76.69a8.23,8.23,0,0,0-3.42,11.16L70,90.05a8.27,8.27,0,0,0,11.16,3.56l5-2.65L77.36,74Z"/><path class="cls-6" d="M97.27,53.64c-1.58,5.74-9.33,13.63-20.42,20.66l.51-.27L86.24,91l-.5.26c12.08-5.13,23-7,28.59-5.09l0,0-7.84-14.94-1.36-2.6L97.3,53.61Z"/><rect class="cls-5" x="102.42" y="51.67" width="4.56" height="37.35" transform="translate(-20.7 56.73) rotate(-27.7)"/><path class="cls-7" d="M112,58.3l2.77-7,.4-1c.25-.63-.76-.9-1-.28l-2.77,7-.4,1c-.25.63.76.9,1,.28Z"/><path class="cls-7" d="M117.88,71.93l6.54,2.6.94.38c.63.25.91-.77.28-1l-6.53-2.6-1-.38c-.63-.25-.9.77-.28,1Z"/><path class="cls-7" d="M117.27,64l6.44-3.33.9-.47c.6-.31.07-1.21-.53-.9l-6.44,3.33-.9.46c-.6.31-.07,1.22.53.91Z"/></g></g></svg>