<svg xmlns="http://www.w3.org/2000/svg" viewBox="0 0 334.24 343.61"><defs><style>.cls-1{fill:#c9c8c7;}.cls-2,.cls-7{fill:none;}.cls-2,.cls-6,.cls-7{stroke:#333d47;}.cls-2{stroke-miterlimit:10;stroke-width:6.65px;}.cls-3,.cls-6{fill:#333d47;}.cls-4,.cls-9{fill:#fff;}.cls-5{fill:#daa5ae;}.cls-6,.cls-7{stroke-linecap:round;stroke-linejoin:round;}.cls-6{stroke-width:0.95px;}.cls-7{stroke-width:2.85px;}.cls-8{fill:#a31f34;}.cls-9{font-size:78.49px;font-family:OpenSans-Bold, Open Sans;font-weight:700;}</style></defs><g id="Layer_2" data-name="Layer 2"><g id="Stop_watch" data-name="Stop watch"><circle class="cls-1" cx="167.12" cy="176.49" r="167.12"/><circle class="cls-2" cx="165.03" cy="27.44" r="24.12"/><circle class="cls-3" cx="165.03" cy="176.02" r="114.17"/><circle class="cls-4" cx="165.03" cy="176.02" r="97.93"/><path class="cls-5" d="M165,273.94a97.93,97.93,0,0,0,2.4-195.83h-1.65L166,176H67.1A97.92,97.92,0,0,0,165,273.94Z"/><rect class="cls-6" x="159.81" y="41.16" width="10.45" height="20.8"/><rect class="cls-6" x="151.24" y="28.39" width="27.58" height="12.77"/><rect class="cls-6" x="244.13" y="86.5" width="10.45" height="10.4" transform="translate(137.88 -149.46) rotate(45)"/><rect class="cls-6" x="243.76" y="77.12" width="27.58" height="12.77" transform="translate(134.48 -157.66) rotate(45)"/><line class="cls-7" x1="165.03" y1="78.09" x2="165.03" y2="101.46"/><line class="cls-7" x1="165.03" y1="250.59" x2="165.03" y2="273.96"/><line class="cls-7" x1="262.97" y1="176.02" x2="239.6" y2="176.02"/><line class="cls-7" x1="90.46" y1="176.02" x2="67.1" y2="176.02"/><line class="cls-7" x1="116.06" y1="91.21" x2="122.75" y2="102.79"/><line class="cls-7" x1="207.31" y1="249.26" x2="214" y2="260.84"/><line class="cls-7" x1="249.84" y1="127.06" x2="238.27" y2="133.74"/><line class="cls-7" x1="91.79" y1="218.31" x2="80.22" y2="224.99"/><line class="cls-7" x1="80.22" y1="127.06" x2="91.79" y2="133.74"/><line class="cls-7" x1="238.27" y1="218.31" x2="249.84" y2="224.99"/><line class="cls-7" x1="214" y1="91.21" x2="207.31" y2="102.79"/><line class="cls-7" x1="122.75" y1="249.26" x2="116.06" y2="260.84"/><circle class="cls-8" cx="165.03" cy="176.02" r="16.44"/><path class="cls-8" d="M118.23,135.24h.35a2.22,2.22,0,0,1,2.22,2.22v79.35a0,0,0,0,1,0,0H116a0,0,0,0,1,0,0V137.46A2.22,2.22,0,0,1,118.23,135.24Z" transform="translate(-57.62 294.43) rotate(-90)"/><circle class="cls-8" cx="275.4" cy="271.89" r="57.76"/><text class="cls-9" transform="translate(253.8 300.3)">9</text></g></g></svg>