<svg xmlns="http://www.w3.org/2000/svg" viewBox="0 0 261.78 210.87"><defs><style>.cls-1{fill:#323437;stroke:#64686d;}.cls-1,.cls-10,.cls-11,.cls-13{stroke-miterlimit:10;}.cls-2{fill:#4b4e52;}.cls-3{fill:#5b5d5f;}.cls-4{fill:#848587;}.cls-5,.cls-9{fill:#7a1727;}.cls-6{fill:#a31f34;}.cls-7{fill:#3d0c14;}.cls-8{fill:#64686d;}.cls-9{opacity:0.45;}.cls-10{fill:#dedfdf;stroke:#838689;stroke-width:4px;}.cls-11,.cls-13{fill:none;}.cls-11{stroke:#7a1727;stroke-width:2px;}.cls-12{fill:#c87985;}.cls-13{stroke:#443d3f;stroke-width:3px;}.cls-14{fill:#5a5d60;}</style></defs><g id="Layer_2" data-name="Layer 2"><g id="Scene_01" data-name="Scene 01"><rect class="cls-1" x="26.59" y="169.15" width="207.52" height="12.11" rx="6.05"/><rect class="cls-1" x="3.24" y="121.38" width="28.53" height="62.69" rx="12"/><rect class="cls-1" x="230.65" y="117.92" width="28.53" height="62.69" rx="12"/><rect class="cls-2" x="225.89" y="148.18" width="28.53" height="62.69" rx="12"/><rect class="cls-2" x="8.43" y="148.18" width="28.53" height="62.69" rx="12"/><rect class="cls-3" x="84.09" y="53.06" width="80.85" height="7.35" rx="3.67"/><rect class="cls-4" x="246.65" y="73.6" width="15.13" height="8.21" rx="4.11"/><rect class="cls-1" x="61.61" y="132.83" width="131.43" height="15.56"/><path class="cls-5" d="M15.56,154.59H246.72a0,0,0,0,1,0,0v0a21.33,21.33,0,0,1-21.33,21.33H36.89a21.33,21.33,0,0,1-21.33-21.33v0a0,0,0,0,1,0,0Z"/><path class="cls-6" d="M6.48,141.91H255.8a0,0,0,0,1,0,0V147a9.64,9.64,0,0,1-9.64,9.64h-230A9.64,9.64,0,0,1,6.48,147v-5.06a0,0,0,0,1,0,0Z"/><path class="cls-1" d="M129.92,81.63,234,70.22s-10.37-1.29-12.1-44.09L215,9.7l-85.1-3.17v0H129v0L43.88,9.7,37,26.13c-1.72,42.8-12.1,44.09-12.1,44.09L129,81.63v.1l.46,0,.47,0ZM109.16,56.82l-3.89-3.46s-47.12.44-51.88-.43-4.32-29.4-4.32-29.4c25.5-4.81,54-6.05,79.92-5.62v0h.93v0c25.87-.43,54.41.81,79.91,5.62,0,0,.44,28.54-4.32,29.4s-51.88.43-51.88.43l-3.89,3.46H109.16Z"/><rect class="cls-7" x="50.8" y="48.53" width="49.72" height="22.05" rx="11.02"/><rect class="cls-7" x="156.72" y="48.53" width="49.72" height="22.05" rx="11.02"/><rect class="cls-8" y="146.45" width="261.13" height="5.62"/><path class="cls-2" d="M121.61,12.21h16.18a9.85,9.85,0,0,1,9.85,9.85v1.39a0,0,0,0,1,0,0H111.76a0,0,0,0,1,0,0V22.07A9.85,9.85,0,0,1,121.61,12.21Z" transform="translate(259.4 35.66) rotate(180)"/><path class="cls-8" d="M219.81,15a9.15,9.15,0,0,0-4.82-5,25.43,25.43,0,0,0-4.81-1.46c-3.94-.82-27.74-3.95-53-5-.74-.39-6.22.61-8.79.28-3.7-.47-14.9-.32-28.51.15a77.77,77.77,0,0,0-8.24.29l-.2,0C85,5.38,54,7.31,49.79,8.18A25.43,25.43,0,0,0,45,9.64a9.15,9.15,0,0,0-4.82,5l-22.65,55,4.32.86S41.72,17.69,46,12.79C48.59,9.9,84.18,8.62,113,8.05c16.15.09,97.07.76,101,5.17,4.32,4.9,24.21,57.65,24.21,57.65l5.48-1.59Z"/><path class="cls-4" d="M38.6,61.16H223.82a15,15,0,0,1,15,15v0a0,0,0,0,1,0,0H23.56a0,0,0,0,1,0,0v0a15,15,0,0,1,15-15Z"/><path class="cls-6" d="M258.33,110.7c.41-5.74.06-12.23.06-17.47,0-9.15-4.75-17-11.54-20.43a2.91,2.91,0,0,0-.35-1.27c-.6-1.3-1.77-2.91-2.1-3.57a115.66,115.66,0,0,1-4.9-12.37L229,25.74c-2.3-6.53-5-13.57-10.88-17.19-3.63-2.23-8-2.83-12.21-3.36C186.44,2.77,166.85,1,147.23.31v0Q139.45,0,131.66,0H129q-7.78,0-15.58.29v0C93.85,1,74.25,2.77,54.77,5.19c-4.23.53-8.59,1.13-12.21,3.36C36.67,12.17,34,19.21,31.68,25.74L21.19,55.59A111.6,111.6,0,0,1,16.29,68c-.32.66-1.49,2.27-2.09,3.57a2.91,2.91,0,0,0-.35,1.27C7.06,76.23,2.3,84.08,2.3,93.23c0,5.24-.35,11.73.06,17.47C1.67,121,1.17,133,2.45,135.23l6.24,3.37L5.25,123.79l2.37,14.62h3.74L11.1,127l51.3,2.09L67,139.49l63.36-.43,63.36.43,4.59-10.39L249.59,127l-.25,11.4,4.32.63,1.78-15.25L253.22,139h5.32C259.82,136.8,259,121,258.33,110.7Zm-19-41.62a4.33,4.33,0,0,1-2.37.4l-11.23-.24-2.24-1.52H176.32V66.64a2.88,2.88,0,0,0-2.88-2.88H87.26a2.88,2.88,0,0,0-2.88,2.88v1.08H37.23L35,69.24l-11.24.24a4.34,4.34,0,0,1-2.37-.4c-1.72-1-1.22-3.63-.51-5.51q8.72-22.8,18.68-45.1a17.43,17.43,0,0,1,3.71-5.95c2.63-2.43,6.43-3,10-3.46,5.14-.66,10.28-1.33,15.43-1.88C89.15,5,109.75,4.6,130.35,4.59S171.55,5,192,7.18c5.16.55,10.3,1.22,15.44,1.88,3.55.46,7.34,1,10,3.46a17.59,17.59,0,0,1,3.71,5.95q10,22.29,18.67,45.1C240.53,65.45,241,68,239.3,69.08Z"/><polygon class="cls-9" points="172.72 81.39 86.03 81.39 89.28 67.55 170.12 67.55 172.72 81.39"/><polygon class="cls-5" points="140.94 120.51 131.87 120.51 129.92 110.57 142.89 110.57 140.94 120.51"/><circle class="cls-10" cx="32.21" cy="103" r="18.16"/><path class="cls-11" d="M20.1,70.58s37.18-3.89,45.4,59.23"/><path class="cls-5" d="M69,142.34H11V125.05l49.14,2.29a8.06,8.06,0,0,1,7.6,6.88Z"/><polygon class="cls-12" points="11.46 124.83 10.59 142.78 29.61 142.78 31.34 126.35 11.46 124.83"/><line class="cls-13" x1="43.45" y1="131.1" x2="66.8" y2="131.97"/><line class="cls-13" x1="44.31" y1="134.99" x2="67.66" y2="135.86"/><line class="cls-13" x1="44.75" y1="138.45" x2="68.09" y2="139.32"/><rect class="cls-14" x="75.66" y="132.4" width="12.11" height="33.72" rx="4.91"/><circle class="cls-10" cx="229.03" cy="102.78" r="18.16"/><path class="cls-11" d="M241.13,70.36S204,66.47,195.74,129.59"/><path class="cls-5" d="M192.28,142.13h57.93v-17.3l-49.13,2.29a8.06,8.06,0,0,0-7.61,6.88Z"/><polygon class="cls-12" points="249.78 124.61 250.64 142.56 231.62 142.56 229.89 126.13 249.78 124.61"/><line class="cls-13" x1="217.79" y1="130.89" x2="194.44" y2="131.75"/><line class="cls-13" x1="216.92" y1="134.78" x2="193.58" y2="135.64"/><line class="cls-13" x1="216.49" y1="138.24" x2="193.14" y2="139.1"/><rect class="cls-14" x="173.47" y="132.18" width="12.11" height="33.72" rx="4.91" transform="translate(359.05 298.09) rotate(-180)"/></g></g></svg>