<svg xmlns="http://www.w3.org/2000/svg" viewBox="0 0 396.93 146.72"><defs><style>.cls-1{fill:#157493;}.cls-2{fill:#545559;}.cls-3{fill:#c87985;}.cls-4{fill:#a1c7d4;}.cls-5{fill:#a31f34;}.cls-6{fill:#3d3e3f;}.cls-7{fill:#b3b4b4;}.cls-8{fill:#292b30;}</style></defs><g id="Layer_2" data-name="Layer 2"><g id="Boy_blocks" data-name="Boy blocks"><path class="cls-1" d="M171.23,67.27v71.06H195c-.05-.8-.08-1.6-.08-2.42,0-21.41,16.18-38.76,36.15-38.76s36.15,17.35,36.15,38.76c0,.82,0,1.62-.08,2.42H291V67.27Z"/><rect class="cls-2" x="34.43" y="67.47" width="71.46" height="71.46"/><rect class="cls-3" x="89.8" y="41.92" width="180.81" height="25.77" transform="translate(-7.77 42.92) rotate(-13.3)"/><rect class="cls-4" x="110.75" y="66.72" width="42.68" height="101.73" transform="translate(249.68 -14.5) rotate(90)"/><path class="cls-5" d="M68.73,13.08,12.93,68.89h111.6Zm0,50.59A15.26,15.26,0,1,1,84,48.41,15.26,15.26,0,0,1,68.73,63.67Z"/><path class="cls-6" d="M148.47,1.26a47.29,47.29,0,0,0-35.26,56.83l92.1-21.57A47.3,47.3,0,0,0,148.47,1.26Z"/><polygon class="cls-5" points="326.89 68.89 258.64 68.89 274.39 11.41 311.14 11.41 326.89 68.89"/><rect class="cls-7" x="324.49" y="-0.94" width="24.01" height="140.47" transform="translate(79.73 -158.97) rotate(30)"/><circle class="cls-1" cx="23.95" cy="122.77" r="23.95"/><polyline class="cls-8" points="396.94 136.5 346.49 87.56 297.56 138.01"/></g></g></svg>