<svg xmlns="http://www.w3.org/2000/svg" viewBox="0 0 138.42 138.42"><defs><style>.cls-1{fill:#876176;}.cls-2{fill:#cfc0c8;}.cls-3{fill:#292b30;}.cls-4{fill:#bbb;}.cls-5{fill:#fcfdff;}</style></defs><title>Asset 4</title><g id="Layer_2" data-name="Layer 2"><g id="Icons"><circle class="cls-1" cx="69.21" cy="69.21" r="69.21"/><path class="cls-1" d="M131,38.13a69.21,69.21,0,1,0-71.54,99.6Z"/><path class="cls-2" d="M66.71,71.12l-.07-33.43-30.51.06.06,33.43m11,0a2.71,2.71,0,0,0,1.08-.37,1.19,1.19,0,0,0,.49-.85,1.45,1.45,0,0,0-.51-1.07,3.19,3.19,0,1,1,3.52,0,1.41,1.41,0,0,0-.51,1.06,1.3,1.3,0,0,0,.56.91,2.52,2.52,0,0,0,1,.32"/><path class="cls-2" d="M71.62,51.21A3.19,3.19,0,0,0,69,52.64a1.37,1.37,0,0,1-1.07.51,1.16,1.16,0,0,1-.85-.48,2.9,2.9,0,0,1-.37-1.08v5.63a2.56,2.56,0,0,1,.32-1,1.32,1.32,0,0,1,.92-.56,1.41,1.41,0,0,1,1,.51,3.19,3.19,0,1,0,2.65-4.95Z"/><path class="cls-3" d="M66.74,90.66a2.83,2.83,0,0,0-.36-1.09,1.18,1.18,0,0,0-.86-.48,1.38,1.38,0,0,0-1.07.51,3.19,3.19,0,1,1,0-3.52,1.43,1.43,0,0,0,1.06.51,1.28,1.28,0,0,0,.91-.56,2.56,2.56,0,0,0,.32-1l0-13.9-13.9,0h0a2.52,2.52,0,0,1-1-.32,1.3,1.3,0,0,1-.56-.91,1.45,1.45,0,0,1,.5-1.06,3.19,3.19,0,1,0-3.51,0,1.45,1.45,0,0,1,.51,1.07,1.23,1.23,0,0,1-.49.86,2.9,2.9,0,0,1-1.08.37l-11,0,.06,30.52,30.52-.06Z"/><path class="cls-4" d="M97.22,71.06l-11,0a2.9,2.9,0,0,0-1.08.37,1.16,1.16,0,0,0-.48.85,1.41,1.41,0,0,0,.5,1.08A3.14,3.14,0,0,1,86.62,76a3.19,3.19,0,1,1-5-2.65,1.4,1.4,0,0,0,.5-1,1.28,1.28,0,0,0-.56-.91,2.44,2.44,0,0,0-1-.33l-13.89,0,.06,30.52,30.52-.07Z"/><path class="cls-4" d="M61.8,91a3.17,3.17,0,0,0,2.65-1.43,1.38,1.38,0,0,1,1.07-.51,1.18,1.18,0,0,1,.86.48,2.8,2.8,0,0,1,.36,1.08V85a2.56,2.56,0,0,1-.32,1,1.28,1.28,0,0,1-.91.56,1.43,1.43,0,0,1-1.06-.51,3.19,3.19,0,1,0-2.64,5Z"/><path class="cls-5" d="M78.24,43.74v0l9.23-5.27a2.86,2.86,0,0,0,.6-.73,1.24,1.24,0,0,0,0-1,1.41,1.41,0,0,0-1-.68,3.21,3.21,0,1,1,3.08-1.76,1.39,1.39,0,0,0,.08,1.17,1.31,1.31,0,0,0,.94.52,2.3,2.3,0,0,0,.83-.13l10.74-6.14,0,0,14.16,24.8-10.54,6a3.07,3.07,0,0,0-.77.87,1.21,1.21,0,0,0,0,1,1.44,1.44,0,0,0,1,.69,3.22,3.22,0,1,1-3.08,1.76,1.45,1.45,0,0,0-.09-1.18,1.31,1.31,0,0,0-.94-.52,2.61,2.61,0,0,0-1,.22l-9,5.17Z"/><path class="cls-5" d="M82.43,60.9A3.22,3.22,0,0,0,84,58.33a1.42,1.42,0,0,1,.67-1,1.21,1.21,0,0,1,1,0,2.88,2.88,0,0,1,.86.75l-2.82-4.88a2.52,2.52,0,0,1,.22,1,1.28,1.28,0,0,1-.51,1,1.4,1.4,0,0,1-1.16.08,3.19,3.19,0,1,0,.17,5.62Z"/></g></g></svg>