<svg xmlns="http://www.w3.org/2000/svg" viewBox="0 0 177.05 242.6"><defs><style>.cls-1{fill:#af0030;}.cls-2{fill:#e0e0e0;}</style></defs><g id="Layer_2" data-name="Layer 2"><g id="Layer_2-2" data-name="Layer 2"><path class="cls-1" d="M168.12,233.79H8.93L12.46,219a6.85,6.85,0,0,1,6.65-5.24H158a6.83,6.83,0,0,1,6.64,5.24Z"/><path class="cls-1" d="M6.39,231.36H170.66a6.39,6.39,0,0,1,6.39,6.39v4.85a0,0,0,0,1,0,0H0a0,0,0,0,1,0,0v-4.85A6.39,6.39,0,0,1,6.39,231.36Z"/><path class="cls-1" d="M101.39,5.86A7.24,7.24,0,0,0,94.28,0H85.43a7.25,7.25,0,0,0-7.09,5.77L73.48,29.29h32.46Z"/><polygon class="cls-1" points="34.4 218.32 142.65 218.32 126.12 133.17 52.01 133.17 34.4 218.32"/><polygon class="cls-1" points="61.46 87.46 57.59 106.15 120.87 106.15 117.24 87.46 61.46 87.46"/><polygon class="cls-2" points="105.94 29.29 73.48 29.29 61.46 87.46 117.24 87.46 105.94 29.29"/><polygon class="cls-2" points="52.01 133.17 126.12 133.17 120.87 106.15 57.59 106.15 52.01 133.17"/></g></g></svg>