<svg xmlns="http://www.w3.org/2000/svg" xmlns:xlink="http://www.w3.org/1999/xlink" viewBox="0 0 128.21 128.21"><defs><style>.cls-1{fill:none;}.cls-2,.cls-3{fill:#a31f34;stroke:#a31f34;stroke-miterlimit:10;}.cls-2{opacity:0.5;}.cls-4{fill:url(#Degradado_sin_nombre_101);}.cls-5{clip-path:url(#clip-path);}.cls-6{fill:#7a1727;}</style><linearGradient id="Degradado_sin_nombre_101" x1="1981.77" y1="1092.23" x2="2061.18" y2="1092.23" gradientTransform="translate(2359.69 159.57) rotate(154)" gradientUnits="userSpaceOnUse"><stop offset="0" stop-color="#e6e6e6"/><stop offset="0.54" stop-color="#f7f7f7"/><stop offset="1" stop-color="#fff"/></linearGradient><clipPath id="clip-path"><circle class="cls-1" cx="64.33" cy="64.2" r="39.7" transform="translate(-19.44 99.45) rotate(-67.76)"/></clipPath></defs><g id="Layer_2" data-name="Layer 2"><g id="Layer_9" data-name="Layer 9"><circle class="cls-2" cx="64.1" cy="64.1" r="63.59" transform="translate(-6.84 120.55) rotate(-83.51)"/><circle class="cls-3" cx="64.1" cy="64.1" r="52.95" transform="translate(-26.55 64.1) rotate(-45)"/><circle class="cls-4" cx="64.1" cy="64.1" r="39.7" transform="translate(-19.49 99.18) rotate(-67.76)"/></g><g id="Layer_19" data-name="Layer 19"><g class="cls-5"><g id="w3QWY9"><path class="cls-6" d="M54.2,83.9H76.51v22.49H54.2Z"/><path class="cls-6" d="M71.41,82.84H68.07C67.34,76.91,66.6,71,65.87,65.1l-1.34,0C63,70.8,63.14,76.87,62,82.84H58.59c0-.92,0-1.77,0-2.63.12-7.66.38-15.32.29-23A11.14,11.14,0,0,0,57,51.33c-3.56-5-6.5-10.23-6.77-16.55,0-.77.61-1.57.93-2.36.57.58,1.35,1.06,1.65,1.75,1.33,3,2.14,6.29,3.85,9C60.9,50,69.27,50,73.49,43.16c1.65-2.68,2.41-5.89,3.71-8.8.34-.75,1.2-1.27,1.81-1.9.3.83.91,1.68.84,2.48-.41,5-1.76,9.67-5,13.58A16.11,16.11,0,0,0,71,60.33c.4,6.57.27,13.18.37,19.78C71.42,81,71.41,81.84,71.41,82.84Z"/><path class="cls-6" d="M52.81,91.36v15H31.31v-15Z"/><path class="cls-6" d="M99.58,95.81v10.52H77.88V95.81Z"/><path class="cls-6" d="M65,46.32c-1.93,0-3.71-1.91-3.76-4.09A3.81,3.81,0,0,1,65,38.41a3.69,3.69,0,0,1,3.71,3.71A4.05,4.05,0,0,1,65,46.32Z"/></g></g></g></g></svg>