<svg xmlns="http://www.w3.org/2000/svg" viewBox="0 0 457.72 808.02"><defs><style>.cls-1{fill:#bababa;}.cls-2{fill:#919191;}.cls-3{fill:#8a8b8c;}.cls-4{fill:#1c395b;}.cls-5{fill:#041d40;}.cls-12,.cls-6{fill:#fff;}.cls-6{stroke:#ffb414;stroke-width:0.85px;}.cls-13,.cls-16,.cls-18,.cls-21,.cls-23,.cls-24,.cls-25,.cls-26,.cls-6{stroke-miterlimit:10;}.cls-7{fill:#999;}.cls-8{fill:#545759;}.cls-9{fill:#dfdedd;}.cls-10{fill:#c9c8c7;}.cls-11{fill:#00698a;}.cls-13,.cls-16,.cls-18,.cls-21,.cls-23,.cls-24,.cls-25,.cls-26{fill:none;}.cls-13,.cls-18{stroke:#c6cdd6;}.cls-14,.cls-31{fill:#6aa2b8;}.cls-15{fill:#a31f34;}.cls-16{stroke:#8e9dad;}.cls-17{fill:#a7a7a6;}.cls-18{stroke-width:0.5px;}.cls-19{fill:#ecebeb;}.cls-20{fill:#706f6f;}.cls-21{stroke:#aab5c2;}.cls-22{fill:#333d47;}.cls-23,.cls-24,.cls-25{stroke:#333d47;}.cls-23,.cls-24,.cls-25,.cls-26{stroke-linecap:round;}.cls-23{stroke-width:2px;}.cls-24,.cls-26{stroke-width:2.31px;}.cls-25{stroke-width:2.08px;}.cls-26{stroke:#545759;}.cls-27{fill:gray;}.cls-28{fill:#333;}.cls-29{fill:#4d4d4e;}.cls-30{fill:#c6cdd6;}.cls-31{opacity:0.38;}</style></defs><g id="Layer_2" data-name="Layer 2"><g id="Layer_36" data-name="Layer 36"><rect class="cls-1" x="227.6" y="86.29" width="206.04" height="61.47" rx="12" transform="matrix(0.96, 0.27, -0.27, 0.96, 43.21, -83.98)"/><rect class="cls-2" x="198.09" y="141.88" width="190.08" height="227.62" rx="12" transform="translate(78.85 -68.95) rotate(15.48)"/><path class="cls-3" d="M409.54,98.31c-24.48,37.44-48,61.55-89.92,51.33-29.65-7.22-61.07-55.16-49.91-95.48s50-61.69,90.34-50.53S432.44,63.3,409.54,98.31Z"/><rect class="cls-4" x="370.37" y="163.41" width="1.97" height="12.45" transform="matrix(0.96, 0.27, -0.27, 0.96, 58.73, -92.94)"/><path class="cls-5" d="M270.79,130.42c2-7.28,26.13-6.95,53.86.72s48.57,19.8,46.55,27.08l-3.67,8.95L333.21,173l-43.6-15.86-16.34-9.92-3.8-7.17Z"/><polygon class="cls-6" points="323.6 382.12 257.1 393.76 243.98 390.13 192.62 345.85 205.75 298.44 336.73 334.7 323.6 382.12"/><path class="cls-7" d="M337.88,165c-.65.15-12.05,2.65-26.63-2.37-10.21-3.52-15.29-8.42-16.41-9.55l10-35.37,42.6,11.79Z"/><path class="cls-8" d="M358.66,74.81l-42.2-9.33L301.2,134c4.83,7.59,11.15,13.21,19.16,15v0h.08l.07,0h0c7.79,1.66,15.63-.59,23-5.14Z"/><polygon class="cls-9" points="318.16 401.75 186.68 365.35 199.65 313.91 334.81 351.08 318.16 401.75"/><polygon class="cls-9" points="273.26 423.96 225.29 389.64 234.3 357.07 287.69 371.86 273.26 423.96"/><path class="cls-10" d="M398.61,200.59l-58.78-42.81c-7.87,9.63-13.71,18.61-27,14.92s-14.05-15.08-15.8-27.45L228.51,151l-5.43,68.84c-7.66,30.14-14.26,58.31-21.48,88.58a35,35,0,0,1-1.17,4.17,8.8,8.8,0,0,0,3.33,10.56c11.62,7.48,29,22.2,57.43,30.1s51,4.2,64.84,3.76a8.71,8.71,0,0,0,8.23-7l1-5,29.17-86Z"/><rect class="cls-11" x="196.48" y="321.98" width="140.18" height="25.81" transform="translate(99.02 -58.99) rotate(15.48)"/><path class="cls-12" d="M270.79,130.42c-2,7.27,18.83,19.39,46.56,27.07s51.84,8,53.85.73l-4.62,16.71c-2,7.27-26.13,6.95-53.85-.73s-48.58-19.8-46.56-27.07Z"/><path class="cls-13" d="M369.26,165.26c-2,7.27-26.13,6.94-53.86-.73s-48.57-19.8-46.56-27.07"/><path class="cls-13" d="M367.89,170.18c-2,7.28-26.12,6.95-53.85-.72s-48.57-19.8-46.56-27.08"/><polyline class="cls-9" points="154.2 612.2 154.13 614.65 153.64 632.2 144.93 646 144.42 656.62 137.45 658.84 92.56 641.87 87.53 630.02 100.77 613.09 104.35 593.38 115.26 575.26 154.95 600.52"/><polygon class="cls-14" points="123.51 662.54 94.42 760.84 27.75 735.67 29.63 730.67 70.33 719.5 99.26 653.39 123.51 662.54"/><path class="cls-14" d="M92.56,641.87l-15.33,45-.07,11.88L62.85,709.79l-2.39,12.42c1.76-.06,10.1-3.41,11.53-2.59a123.16,123.16,0,0,0,17.79,8c4.86,1.75,9.29,8.05,10.67,12.78,0,0,5.37-7.09,7.58-8.86q14.55-36,29.42-72.75"/><path class="cls-9" d="M188.8,359.86l-96.24,282,44.89,17c39.13-96.83,79.41-196.7,117.77-291.48Z"/><rect class="cls-4" x="24.21" y="748.03" width="71.26" height="7.04" transform="matrix(0.94, 0.35, -0.35, 0.94, 269.32, 27.31)"/><rect class="cls-15" x="25.98" y="745.37" width="71.26" height="2.99" transform="translate(267.78 26.38) rotate(20.68)"/><ellipse class="cls-16" cx="131.38" cy="584.02" rx="28.2" ry="15.48" transform="translate(-461.4 500.64) rotate(-69.32)"/><path class="cls-16" d="M121,570.16,131.16,574c5.28,2,7.27,9,4.22,15l-11.38,22"/><line class="cls-16" x1="147.03" y1="585.99" x2="164.25" y2="592.49"/><line class="cls-16" x1="144.26" y1="593.72" x2="161.18" y2="600.11"/><line class="cls-16" x1="211.27" y1="476.08" x2="156.16" y2="455.27"/><line class="cls-16" x1="208.79" y1="482.64" x2="153.68" y2="461.84"/><path class="cls-16" d="M100.45,740.45s-24.4-11.87-31.72,7.5"/><line class="cls-16" x1="53.68" y1="724.07" x2="52.08" y2="741.67"/><polyline class="cls-9" points="219.54 630.54 218.36 632.69 209.89 648.07 210.39 664.37 205.45 673.79 210.34 679.24 257.63 687.37 267.97 679.7 265.14 658.4 272.05 639.6 271.83 618.45 224.82 620.1"/><polygon class="cls-14" points="220.47 689.49 195.71 788.98 265.94 801.08 266.85 795.82 237.43 765.55 246.01 693.9 220.47 689.49"/><path class="cls-14" d="M257.63,687.37l-9.58,46.52-6,10.28,6.72,16.8-4.25,11.92c-1.48-.94-7-8.06-8.62-8.08a123.5,123.5,0,0,1-19.42-2.08c-5.07-1-12.08,2.23-15.67,5.61,0,0-1-8.84-2-11.48q5.69-38.37,11.53-77.62"/><path class="cls-9" d="M317.65,395.49l-60,291.88-47.29-8.13c15.36-103.31,31.27-209.81,46.26-310.95Z"/><rect class="cls-4" x="194.6" y="794.98" width="71.26" height="7.04" transform="translate(321.49 1624.5) rotate(-170.22)"/><rect class="cls-15" x="195.45" y="792.06" width="71.26" height="2.99" transform="translate(324.02 1614.83) rotate(-170.22)"/><ellipse class="cls-16" cx="253.5" cy="617.83" rx="28.2" ry="15.48" transform="translate(-398.4 762.71) rotate(-80.22)"/><path class="cls-16" d="M269.48,611.14l-10.7-1.85c-5.57-1-10.86,4.1-11.22,10.74l-1.35,24.74"/><line class="cls-16" x1="239.01" y1="611.59" x2="220.87" y2="608.46"/><line class="cls-16" x1="237.48" y1="619.65" x2="219.66" y2="616.58"/><line class="cls-16" x1="239.37" y1="484.28" x2="297.42" y2="494.28"/><line class="cls-16" x1="238.17" y1="491.2" x2="296.23" y2="501.2"/><path class="cls-16" d="M200.85,768.34s27.05,2.14,23.54,22.55"/><line class="cls-16" x1="249.46" y1="777.93" x2="241.93" y2="793.91"/><path class="cls-16" d="M241.7,401.38s-4.45-58.5-18.4-65.09"/><path class="cls-16" d="M250.52,407.7S287.6,356.82,303,358.35"/><path class="cls-10" d="M449.36,432.94l-24.51-.47L424,458l.52,7.78,7.18,3.67c-.28-1.41,3.53-2.17,4.34,2,6.75-.94,14.23-1.9,21-2.83Z"/><circle class="cls-10" cx="438.03" cy="432.02" r="11.25"/><rect class="cls-10" x="435.55" y="472.15" width="9.3" height="14.67" transform="translate(33.62 -28.82) rotate(3.9)"/><path class="cls-10" d="M437.92,508h0a4.82,4.82,0,0,1-3.52-3.13l-.43-1.32a16.11,16.11,0,0,1-.57-7.84l1.66-9.27,8.86,2.83Z"/><circle class="cls-10" cx="439.54" cy="487.69" r="4.77"/><circle class="cls-10" cx="440.68" cy="471.09" r="4.72"/><rect class="cls-10" x="424.38" y="465.77" width="9.3" height="10.04" transform="translate(858.33 941.34) rotate(179.97)"/><path class="cls-10" d="M432,491.85h0a5.4,5.4,0,0,0,3.07-3.38l.29-1.17a11.49,11.49,0,0,0-.18-6.49l-2.43-7.11-8.17,4.43Z"/><circle class="cls-10" cx="428.9" cy="475.91" r="4.77"/><circle class="cls-10" cx="429.11" cy="464.7" r="4.72"/><rect class="cls-10" x="444.22" y="472.3" width="9.3" height="14.67" transform="matrix(1, -0.01, 0.01, 1, -4.36, 4.12)"/><path class="cls-10" d="M448.28,507.27h0a4.85,4.85,0,0,1-3.62-3l-.47-1.31a16.22,16.22,0,0,1-.8-7.82l1.38-9.32,8.94,2.57Z"/><circle class="cls-10" cx="448.96" cy="487.37" r="4.77"/><circle class="cls-10" cx="448.7" cy="471.23" r="4.72"/><rect class="cls-10" x="439.86" y="474.4" width="9.3" height="16" transform="translate(23.69 -20.8) rotate(2.75)"/><path class="cls-10" d="M443.35,510.61h0a4.65,4.65,0,0,1-3.64-3.15l-.47-1.43a19.6,19.6,0,0,1-.79-8.68l1.4-10.48,9,2.32Z"/><circle class="cls-10" cx="443.84" cy="488.98" r="4.77"/><circle class="cls-10" cx="444.86" cy="473.34" r="4.72"/><rect class="cls-10" x="448.75" y="468.73" width="8.65" height="14.67" transform="translate(-20.6 20.49) rotate(-2.53)"/><path class="cls-10" d="M452.76,498.15h0a4.86,4.86,0,0,1-3.33-2.65l-.44-1.06a11.45,11.45,0,0,1-.82-6.21l1.17-7.23,8.18,2.69Z"/><circle class="cls-10" cx="452.71" cy="468.96" r="4.31"/><circle class="cls-10" cx="453.37" cy="482.82" r="4.31"/><rect class="cls-17" x="419.96" y="417.52" width="30.98" height="19.83" transform="translate(938.19 773.24) rotate(170.05)"/><polygon class="cls-9" points="402.99 329.01 441.93 322.46 419.09 216.62 367.34 225.33 402.99 329.01"/><circle class="cls-9" cx="392.75" cy="218.65" r="26.16"/><circle class="cls-9" cx="422.47" cy="325.01" r="19.63"/><polygon class="cls-9" points="448.9 416.76 420.57 421.13 415.99 411.26 403.45 330.24 442.12 324.37 451.02 407.97 448.9 416.76"/><path class="cls-16" d="M436.51,291.57s-19.67,30.6,8.65,61.34"/><line class="cls-16" x1="429.85" y1="323.72" x2="403.12" y2="328.29"/><line class="cls-16" x1="430.87" y1="329.51" x2="404.13" y2="334.09"/><polygon class="cls-11" points="400.47 258.58 427.32 249.97 423.09 229.9 396.23 238.52 400.47 258.58"/><line class="cls-18" x1="315.76" y1="309.2" x2="310.32" y2="320.32"/><rect class="cls-11" x="367.27" y="161.69" width="3.95" height="14.72" transform="translate(58.5 -92.39) rotate(15.48)"/><rect class="cls-4" x="263.8" y="133.91" width="1.97" height="12.45" transform="translate(482.58 345.84) rotate(-164.52)"/><rect class="cls-11" x="264.93" y="133.36" width="3.95" height="14.72" transform="translate(486.58 347.56) rotate(-164.52)"/><line class="cls-16" x1="259.39" y1="148.41" x2="284.29" y2="216.29"/><line class="cls-16" x1="251.59" y1="149.73" x2="275.52" y2="214.98"/><line class="cls-16" x1="371.73" y1="179.51" x2="315.46" y2="224.92"/><line class="cls-16" x1="377.73" y1="184.66" x2="323.66" y2="228.3"/><line class="cls-16" x1="267.09" y1="269.61" x2="253.71" y2="317.93"/><line class="cls-16" x1="307.37" y1="280.76" x2="293.99" y2="329.08"/><rect class="cls-19" x="264.12" y="218.43" width="64.21" height="64.21" rx="1.7" transform="translate(77.59 -69.96) rotate(15.48)"/><path class="cls-20" d="M267,227.49H302.4a5.59,5.59,0,0,1,5.59,5.59v9.06a5.59,5.59,0,0,1-5.59,5.59H267a0,0,0,0,1,0,0V227.49a0,0,0,0,1,0,0Z" transform="translate(73.82 -68.09) rotate(15.48)"/><circle class="cls-15" cx="298.65" cy="240.7" r="6.29"/><rect class="cls-21" x="299.98" y="266.7" width="21.22" height="4.83" transform="translate(83.07 -73.12) rotate(15.48)"/><rect class="cls-21" x="297.4" y="276.01" width="21.22" height="4.83" transform="translate(85.46 -72.09) rotate(15.48)"/><circle class="cls-13" cx="268.91" cy="250.97" r="3.22"/><circle class="cls-13" cx="279.21" cy="253.82" r="3.22"/><circle class="cls-13" cx="289.86" cy="256.77" r="3.22"/><path class="cls-7" d="M381.57,101.86a6.33,6.33,0,0,0-1.21-3,4.73,4.73,0,0,0-4.49-1.5,11.06,11.06,0,0,0-2.82.43c.26-.53,3.34-9.69,4.38-13.82,4.59-18.24-4.05-24-10.6-26.33L329.4,47.31C310.13,42,305.72,61.06,304.78,63.89c-1.33,4-3.26,13-3.29,13.4-.19-.24-1.39-.74-1.61-.94a4.75,4.75,0,0,0-4.63-1,6.26,6.26,0,0,0-2.56,1.92,9.75,9.75,0,0,0-2.31,6.56c.08,1.91.79,3.7.63,5.65-.1,1.12-.49,2.23-.69,3.35-.92,5,2.15,9.57,6.29,10.21-1,3.13-3.28,13.81-3.24,16.91,0,2.63,1.45,5.21,2.84,7.67,2.6,4.62,5.24,9.28,9,13.35a30.77,30.77,0,0,0,14.41,9,33.3,33.3,0,0,0,17.83-.1c5.3-1.55,10-4.2,14.57-6.82,2.46-1.4,5-2.87,6.39-5.12,1.62-2.63,4.7-11.55,6-16.27,3.95,2.09,9.38-.29,11.23-5.24.4-1.06.64-2.21,1.13-3.23.86-1.75,2.39-2.92,3.45-4.52A9.75,9.75,0,0,0,381.57,101.86Z"/><path class="cls-8" d="M379.31,59.73c-1.55-11.49-17.31-20.84-27.78-24.2-11.62-3.74-28.48-3.59-33.64,1.9a21.43,21.43,0,0,0-14.35,16.33l-6.42,22.43a4.27,4.27,0,0,1,3.47,4.6c.34-2.79,6.8-21.58,6.8-21.58,3.28-8.56,10-10.21,15.3-9A13.21,13.21,0,0,0,325,53.27c7,7.33,15.22,12.13,35,6.32,1.41,0,7.43.09,14,7.64-3.77,14.37,4.5,11-1.3,31.91.38-.07,2.51-1.84,6.56,0l6.3-22.3S387.93,62.58,379.31,59.73Z"/><path class="cls-22" d="M326.72,84c2.16.61,3.64-1.86,1.89-3.17-.59-.44-1.23-.89-1.94-1.34a25.45,25.45,0,0,0-9.44-3.6,17.88,17.88,0,0,0-5.77.1,13.53,13.53,0,0,0-4.12,1.72s3,.47,6.89,1.3C319.36,80.1,321.75,82.62,326.72,84Z"/><path class="cls-22" d="M346.64,89.52c-2.17-.6-2.16-3.47,0-3.7.73-.07,1.52-.13,2.36-.15A25.48,25.48,0,0,1,359,87.44a17.82,17.82,0,0,1,4.9,3,13.5,13.5,0,0,1,2.65,3.6s-2.85-1.16-6.58-2.43C355,90,351.61,90.89,346.64,89.52Z"/><path class="cls-23" d="M339.55,131.64S323.78,130.82,312,124"/><path class="cls-24" d="M319.33,134.57a21.83,21.83,0,0,0,8.92,2.47"/><ellipse class="cls-10" cx="317.22" cy="91.24" rx="3.58" ry="5.34" transform="translate(144.64 372.61) rotate(-74.52)"/><circle class="cls-22" cx="317.34" cy="90.81" r="2.75"/><path class="cls-25" d="M310.16,87.65s8.95-3.23,14.3,4"/><ellipse class="cls-10" cx="351.95" cy="100.86" rx="3.58" ry="5.34" transform="matrix(0.27, -0.96, 0.96, 0.27, 160.84, 413.13)"/><circle class="cls-22" cx="352.06" cy="100.43" r="2.75"/><path class="cls-25" d="M359.85,101.41s-6-7.38-14.3-4"/><path class="cls-26" d="M318.89,112.32c-.16,1.25,3.25,2.55,3.25,2.55s3.36.56,4,2.22c0,0,2.1,2.43,4.42,1.41,0,0,3.78-1,4.79,0,0,0,3.68.67,4.71-.34"/><path class="cls-27" d="M355.33,56.51s-19.8,8.57-31-11.67a9.49,9.49,0,0,1-.8-3.27S331.9,60.67,355.33,56.51Z"/><path class="cls-28" d="M377.72,47.77c4.52,5.66,4.13,11.43-1.05,16.5-9.53,9.32-42.45,6.15-54.26-2-15.87-11-14.13-30-7.3-34.81,0,0,6.89,6.49,20.43,5.48C355.55,31.41,368.22,35.86,377.72,47.77Z"/><path class="cls-29" d="M333.4,57.36a30.31,30.31,0,0,1-8.53-3,26.53,26.53,0,0,1-7.32-5.52,20.5,20.5,0,0,1-2.7-3.81,15.53,15.53,0,0,1-.5-13.42,20.6,20.6,0,0,0,.31,8.69,18.1,18.1,0,0,0,4.2,7.35,32.59,32.59,0,0,0,6.7,5.52A61.75,61.75,0,0,0,333.4,57.36Z"/><path class="cls-30" d="M356.28,23.46l-2-.55c-50.9-9.42-57.58,30.45-58.92,38.88s-7.75,39.33-8.31,46.55,8.05,19.75,8.05,19.75,3-35.84,10.52-58,39-8.61,39-8.61,34,4.63,29.06,27.47-20.79,55.13-20.79,55.13,13.82-6.32,17.05-12.8,13.59-36.17,16.82-44.19S404.77,41.56,356.28,23.46Z"/><path class="cls-11" d="M384.7,92.64s3.8,15.86-11,29.77Z"/><path class="cls-11" d="M294.15,68.13s-11.42,11.64-5.86,31.2Z"/><line class="cls-16" x1="323.94" y1="57.44" x2="336.04" y2="21.59"/><line class="cls-16" x1="364.55" y1="68.68" x2="372.61" y2="31.71"/><path class="cls-31" d="M408.91,104.26c-24.48,37.44-48,61.55-89.92,51.33-29.65-7.22-61.07-55.16-49.9-95.48S314,15.73,354.31,26.89,431.81,69.25,408.91,104.26Z"/><path class="cls-9" d="M361.26,3c-40.32-11.17-79.17,10.2-90.34,50.52-3.22,11.66-2.89,24-.07,35.72a68.12,68.12,0,1,1,133.84,17.43q3-4.35,6.06-9C433.65,62.61,401.58,14.11,361.26,3Z"/><path class="cls-9" d="M280.43,127.88l-5.87.92c-12.87-1.66-29.51-17.22-27.85-30.08l15.42-70.49a8.91,8.91,0,0,1,9.94-7.67l14.59,1.89c4.83.62,1.23,10.86.6,15.7l-16.9,48.67C269.74,91.66,285.27,128.5,280.43,127.88Z"/><path class="cls-9" d="M368.07,154.87l4.56,3.81c11.88,5.19,34.16.41,39.35-11.48l23-68.38a8.91,8.91,0,0,0-4.58-11.69L417,61.25c-4.47-2-6.64,8.68-8.6,13.15l-10.54,50.43C395.86,129.3,363.6,152.91,368.07,154.87Z"/><path class="cls-10" d="M46.21,302.44l19.27,15.15L50,337.87l-5.33,5.69-7.88-1.7c1.11-.92-1.36-3.92-4.62-1.2-4.64-5-9.82-10.48-14.46-15.48Z"/><circle class="cls-10" cx="55.56" cy="308.9" r="11.25"/><rect class="cls-10" x="19.19" y="336.95" width="9.3" height="14.67" transform="translate(-155.98 638.84) rotate(-144.64)"/><path class="cls-10" d="M7.53,367.83h0a4.81,4.81,0,0,0,4.71-.19l1.17-.75a16.21,16.21,0,0,0,5.4-5.71l4.58-8.24-8.65-3.4Z"/><circle class="cls-10" cx="19.16" cy="351.05" r="4.77"/><circle class="cls-10" cx="28.78" cy="337.47" r="4.72"/><rect class="cls-10" x="33.34" y="339.6" width="9.3" height="10.04" transform="translate(226.84 53.86) rotate(39.3)"/><path class="cls-10" d="M22.35,359h0a5.41,5.41,0,0,1-.23-4.56l.51-1.09a11.44,11.44,0,0,1,4.25-4.9l6.38-4,3.53,8.6Z"/><circle class="cls-10" cx="34.85" cy="348.67" r="4.77"/><circle class="cls-10" cx="41.78" cy="339.85" r="4.72"/><rect class="cls-10" x="12.38" y="331.58" width="9.3" height="14.67" transform="translate(-186.75 610.25) rotate(-140.22)"/><path class="cls-10" d="M0,360.68H0a4.84,4.84,0,0,0,4.71-.05l1.19-.72a16.14,16.14,0,0,0,5.57-5.54l4.83-8.09-8.54-3.67Z"/><circle class="cls-10" cx="12.07" cy="344.84" r="4.77"/><circle class="cls-10" cx="22.48" cy="332.51" r="4.72"/><rect class="cls-10" x="14.01" y="335.81" width="9.3" height="16" transform="translate(-170.89 631.26) rotate(-143.49)"/><path class="cls-10" d="M1.7,366.38h0a4.63,4.63,0,0,0,4.81-.13l1.27-.81a19.52,19.52,0,0,0,6.11-6.22l5.54-9L11,346.31Z"/><circle class="cls-10" cx="15.01" cy="349.33" r="4.77"/><circle class="cls-10" cx="24.13" cy="336.57" r="4.72"/><rect class="cls-10" x="11.71" y="326.15" width="8.65" height="14.67" transform="translate(-194.27 592.79) rotate(-138.2)"/><path class="cls-10" d="M2.3,350.79h0a4.86,4.86,0,0,0,4.26,0l1-.54a11.36,11.36,0,0,0,4.56-4.3l3.68-6.33-8-3.09Z"/><circle class="cls-10" cx="20.82" cy="328.21" r="4.31"/><circle class="cls-10" cx="11.53" cy="338.53" r="4.31"/><rect class="cls-17" x="44.96" y="297.07" width="30.98" height="19.83" transform="translate(253.37 60.66) rotate(49.21)"/><polygon class="cls-9" points="147.88 251.32 121.87 221.6 206.54 154.11 241.09 193.6 147.88 251.32"/><circle class="cls-9" cx="225.65" cy="172.35" r="26.16"/><circle class="cls-9" cx="135.33" cy="235.9" r="19.63"/><polygon class="cls-9" points="56.8 290.21 75.96 311.52 85.76 306.78 146.75 251.98 120.52 222.96 60.72 282.06 56.8 290.21"/><path class="cls-16" d="M145.62,201.11s-4.14,36.15-45.52,42"/><line class="cls-16" x1="130.43" y1="230.22" x2="148.23" y2="250.69"/><line class="cls-16" x1="125.98" y1="234.07" x2="143.78" y2="254.53"/><polygon class="cls-11" points="194.4 198.38 179.06 174.72 195.04 161.86 210.38 185.53 194.4 198.38"/><path class="cls-22" d="M420.1,62.12a33.63,33.63,0,0,0-5.21-10.88c-4.82-6.43-12.28-10.49-19.66-14-24.59-11.58-51.35-19.06-78.48-20.44-7-.35-14.28-.25-20.5,2.71s-10.56,8.31-14.5,13.71c-6.63,9.07-12.6,18.9-14.82,29.85-2.83,14-5.65,28.84-2.83,43.09,1.69,8.56,16.28,36,26.59,20.37-11.4-20.14-13.35-44.89-5.2-66,2.05-5.32,4.94-10.66,9.93-13.63,4-2.4,8.94-3,13.71-3.24a137.92,137.92,0,0,1,83.35,22.82c4.41,2.94,8.81,6.36,10.91,11.1,1.78,4,1.7,8.52,1.2,12.82-2.78,24.37-18.33,46.81-40.52,58.47,3.3,9.21,15.36,8.41,21,5.44,27.87-14.6,41.67-55.52,36.4-86.06A54.1,54.1,0,0,0,420.1,62.12Z"/></g></g></svg>