<svg xmlns="http://www.w3.org/2000/svg" viewBox="0 0 112.42 112.42"><defs><style>.cls-1{isolation:isolate;}.cls-11,.cls-2{fill:#fff;}.cls-3{fill:#004f68;}.cls-4{fill:#00698a;}.cls-5{fill:#7a1727;}.cls-6{fill:#6aa2b8;}.cls-7{fill:#a31f34;}.cls-8{fill:#545759;}.cls-9{fill:#686869;}.cls-10{fill:#8a8b8c;}.cls-11{opacity:0.4;mix-blend-mode:soft-light;}</style></defs><g class="cls-1"><g id="Layer_2" data-name="Layer 2"><g id="Rewards"><path class="cls-2" d="M112.42,56.21A56.21,56.21,0,1,1,56.21,0a56.22,56.22,0,0,1,56.21,56.21"/><polygon class="cls-3" points="84.18 33.6 28.23 33.6 24.59 39.97 87.83 39.97 84.18 33.6"/><polygon class="cls-4" points="78.25 23.26 34.16 23.26 31.59 27.75 80.82 27.75 78.25 23.26"/><polygon class="cls-5" points="80.82 27.75 31.59 27.75 28.23 33.6 84.18 33.6 80.82 27.75"/><polygon class="cls-6" points="34.16 23.26 58.68 60.59 57.43 60.59 31.86 27.28 34.16 23.26"/><polygon class="cls-4" points="28.23 33.6 55.37 60.59 54.02 60.59 24.59 39.97 28.23 33.6"/><polygon class="cls-7" points="31.86 27.28 57.43 60.59 55.37 60.59 28.23 33.6 31.86 27.28"/><path class="cls-8" d="M56.18,65.1c-2.93,0-5.15-1.57-5.15-3.65s2.22-3.65,5.15-3.65,5.15,1.57,5.15,3.65S59.12,65.1,56.18,65.1Zm0-4.42a2.74,2.74,0,0,0-2.27.79,2.92,2.92,0,0,0,2.27.75,2.76,2.76,0,0,0,2.28-.79A3,3,0,0,0,56.18,60.68Z"/><path class="cls-9" d="M73.18,79.09A17.65,17.65,0,1,1,55.54,61.45,17.65,17.65,0,0,1,73.18,79.09Z"/><path class="cls-10" d="M55.54,93.74A14.65,14.65,0,1,1,70.18,79.09,14.66,14.66,0,0,1,55.54,93.74Z"/><path class="cls-8" d="M55.54,94.17A15.08,15.08,0,1,1,70.61,79.09,15.09,15.09,0,0,1,55.54,94.17Zm0-29.29A14.22,14.22,0,1,0,69.75,79.09,14.24,14.24,0,0,0,55.54,64.88Z"/><path class="cls-11" d="M73.18,79.09a17.64,17.64,0,0,1-34,6.71,17.42,17.42,0,0,0,6.71,1.33A17.65,17.65,0,0,0,62.25,62.78,17.61,17.61,0,0,1,73.18,79.09Z"/><polygon class="cls-6" points="78.25 23.26 53.73 60.59 54.99 60.59 80.56 27.28 78.25 23.26"/><polygon class="cls-4" points="84.18 33.6 57.04 60.59 58.4 60.59 87.83 39.97 84.18 33.6"/><polygon class="cls-7" points="80.56 27.28 54.99 60.59 57.04 60.59 84.18 33.6 80.56 27.28"/></g></g></g></svg>