<svg xmlns="http://www.w3.org/2000/svg" viewBox="0 0 112.42 112.42"><defs><style>.cls-1{isolation:isolate;}.cls-10,.cls-2,.cls-8{fill:#fff;}.cls-3{fill:#041d40;}.cls-4{fill:#a31f34;}.cls-5{fill:#00698a;}.cls-6{fill:#787878;opacity:0.3;mix-blend-mode:color-burn;}.cls-7{fill:#8a8b8c;}.cls-8{opacity:0.4;}.cls-10,.cls-8{mix-blend-mode:soft-light;}.cls-9{fill:#939393;}.cls-10{opacity:0.5;}.cls-11{fill:#545759;}</style></defs><g class="cls-1"><g id="Layer_2" data-name="Layer 2"><g id="Rewards"><path class="cls-2" d="M112.42,56.21A56.21,56.21,0,1,1,56.21,0a56.22,56.22,0,0,1,56.21,56.21"/><polygon class="cls-3" points="65.76 48.45 58.69 69.59 57.89 71.97 50.66 93.56 44.45 91.49 36.44 88.8 30.64 86.86 40.01 58.9 45.75 41.75 57.89 45.81 65.76 48.45"/><rect class="cls-4" x="24.52" y="63.8" width="46.67" height="8.44" transform="translate(-31.84 91.81) rotate(-71.5)"/><polygon class="cls-5" points="85.14 86.86 79.64 88.71 70.9 91.63 65.12 93.56 57.89 71.97 57.6 71.11 50.02 48.45 57.89 45.81 70.04 41.75 75.95 59.41 85.14 86.86"/><polygon class="cls-4" points="79.64 88.71 70.9 91.63 56.88 49.77 65.48 46.42 79.64 88.71"/><polygon class="cls-6" points="73.19 59.92 74.59 64.85 69.5 64.27 69.39 69.39 64.7 67.33 63.09 72.19 59.22 68.85 58.69 69.59 57.6 71.11 56.24 73.01 53.52 68.67 49.45 71.78 48.13 66.83 43.33 68.6 43.53 63.48 38.41 63.75 40.11 58.92 40.01 58.9 45.75 41.75 57.89 45.81 70.04 41.75 75.95 59.41 73.19 59.92"/><polygon class="cls-7" points="69.39 61.97 64.71 59.91 63.09 64.77 59.21 61.42 56.24 65.59 53.52 61.25 49.45 64.36 48.13 59.41 43.33 61.18 43.53 56.06 38.41 56.33 40.11 51.5 35.15 50.26 38.19 46.14 33.81 43.48 37.94 40.45 34.54 36.62 39.37 34.94 37.25 30.28 42.37 30.09 41.72 25.02 46.66 26.35 47.53 21.3 51.86 24.03 54.18 19.47 57.52 23.36 61.08 19.68 63.12 24.37 67.61 21.91 68.17 27 73.19 25.97 72.23 31 77.33 31.49 74.93 36.01 79.66 37.99 76.03 41.6 79.96 44.88 75.43 47.27 78.22 51.56 73.19 52.5 74.59 57.43 69.5 56.85 69.39 61.97"/><path class="cls-8" d="M75.93,47.4,80.58,45l-4-3.37,3.72-3.71-4.85-2,2.47-4.64-5.24-.51,1-5.16-5.15,1-.58-5.22-2.5,1.37-2.11,1.16-2.1-4.82-3.65,3.77-3.43-4-2.38,4.69-4.45-2.81-.9,5.19L41.3,24.55,42,29.76,36.72,30l2.18,4.79-5,1.72,3.5,3.94-4.24,3.11,4.5,2.73-3.13,4.22,5.1,1.29-.1.26-1.62,4.62,0,.08H38l5.18-.27L43,61.61v.07l.06,0,4.87-1.78,1.36,5.07,4.18-3.18,2.79,4.45,3.06-4.28,4,3.44,1.66-5,4.81,2.11.12-5.26,5.22.6-1.44-5.06,5.17-1Zm-6.87,14-4.56-2-1.57,4.73-3.78-3.26L56.26,65l-2.64-4.22-4,3L48.37,59l-4.68,1.72.2-5-5,.26,1.36-3.87.29-.83-4.83-1.21,3-4-4.26-2.58,4-3-3.31-3.72,4.7-1.64L37.78,30.6l5-.17-.64-4.95,4.81,1.3.85-4.91L52,24.53l2.26-4.44,3.24,3.78L61,20.29l2,4.57,2.6-1.43,1.76-1,.55,4.95,4.89-1-.94,4.9,5,.47-2.34,4.41L79,38.11l-3.53,3.51,3.83,3.2-4.41,2.32,2.72,4.17-4.9.92L74.12,57l-5-.57Z"/><path class="cls-9" d="M72.89,42.92a16,16,0,1,1-16-16A16,16,0,0,1,72.89,42.92Z"/><path class="cls-10" d="M78.63,51.85l-5.14,1,1.43,5-5.19-.6-.11,5.24-4.79-2.1-1.65,5-4-3.42-3,4.26-2.77-4.44L49.26,65l-1.35-5.07-4.84,1.79L43,61.62l.2-5.16-5.14.27a.18.18,0,0,1,0-.07l1.61-4.6.35,0,.36,0c.68.06,1.38.09,2.08.09.37,0,.73,0,1.09,0q.3,0,.6,0h0l.62,0A23.62,23.62,0,0,0,66,30.15l0-.62c0-.2,0-.4,0-.61v-.35a23.59,23.59,0,0,0-.53-5,3.59,3.59,0,0,0-.08-.35c0-.12,0-.23-.08-.35l2.48-1.37.58,5.21,5.12-1.05-1,5.15,5.2.5-2.44,4.63,4.82,2-3.7,3.7,4,3.36-4.62,2.44Z"/><path class="cls-11" d="M66.09,28.81a16.53,16.53,0,1,0,7.32,13.72A16.43,16.43,0,0,0,66.09,28.81ZM56.89,58A15.49,15.49,0,1,1,72.37,42.53,15.46,15.46,0,0,1,56.89,58Z"/></g></g></g></svg>