<svg xmlns="http://www.w3.org/2000/svg" viewBox="0 0 114.48 114.48"><defs><style>.cls-1{fill:#6aa2b8;}.cls-2{fill:#292b30;}.cls-3{fill:#c8c8c8;}.cls-4{fill:#00698a;}.cls-5{fill:#fff;}</style></defs><title>Asset 14</title><g id="Layer_2" data-name="Layer 2"><g id="Extra_icons" data-name="Extra icons"><circle class="cls-1" cx="57.24" cy="57.24" r="57.24"/><rect class="cls-2" x="35.95" y="77.28" width="14.4" height="20.65"/><path class="cls-3" d="M50.35,94.8h2.22s.9,1.8,5.94,1.8H73.93s5.14-1.43,3.39-5.88a3.89,3.89,0,0,0,1-5.51,3.72,3.72,0,0,0,1.54-5s2-1.56,2-2.9a3.17,3.17,0,0,0-3.5-3.2H65.15s1.95-5.27,1.74-7.76-1.44-8.06-4.46-8.06c-1.89,0-1.84,1.52-1.84,1.52V66s-4.41,8.19-8.12,11.3a10.17,10.17,0,0,1-2.12,1.52"/><rect class="cls-4" x="22.83" y="23.03" width="67.6" height="29.32"/><polygon class="cls-5" points="41.16 30.39 42.83 35.17 47.89 35.28 43.85 38.34 45.32 43.19 41.16 40.3 37 43.19 38.47 38.34 34.43 35.28 39.5 35.17 41.16 30.39"/><polygon class="cls-5" points="56.66 30.39 58.32 35.17 63.39 35.28 59.35 38.34 60.82 43.19 56.66 40.3 52.5 43.19 53.97 38.34 49.93 35.28 55 35.17 56.66 30.39"/><polygon class="cls-5" points="72.62 30.39 74.28 35.17 79.35 35.28 75.31 38.34 76.78 43.19 72.62 40.3 68.46 43.19 69.93 38.34 65.89 35.28 70.96 35.17 72.62 30.39"/><polygon class="cls-4" points="40.91 52.35 34.26 52.35 40.91 60.48 47.56 52.35 40.91 52.35"/></g></g></svg>