<svg xmlns="http://www.w3.org/2000/svg" viewBox="0 0 91.19 109.24"><defs><style>.cls-1,.cls-4,.cls-5{fill:#82192a;}.cls-2,.cls-6,.cls-7{fill:#ce8691;}.cls-3{fill:#a31f34;}.cls-4,.cls-6{font-size:54.69px;}.cls-4,.cls-5,.cls-6,.cls-7{font-family:OpenSans-Extrabold, Open Sans;font-weight:800;}.cls-5,.cls-7{font-size:27.05px;}</style></defs><g id="Layer_2" data-name="Layer 2"><g id="Layer_1-2" data-name="Layer 1"><rect class="cls-1" x="8.2" width="82.99" height="109.24" rx="6"/><rect class="cls-2" width="82.99" height="109.24" rx="6"/><rect class="cls-3" x="8.2" y="10.8" width="66.58" height="87.64" rx="6"/><text class="cls-4" transform="translate(19.09 72.39) scale(0.76 1)">1</text><text class="cls-5" transform="translate(39.75 70.87) scale(0.76 1)">UP</text><path class="cls-1" d="M15.48,92.44V16.8a6,6,0,0,1,6-6H14.2a6,6,0,0,0-6,6V92.44a6,6,0,0,0,6,6h7.28A6,6,0,0,1,15.48,92.44Z"/><text class="cls-6" transform="translate(15.49 72.39) scale(0.76 1)">1</text><text class="cls-7" transform="translate(36.16 70.87) scale(0.76 1)">UP</text></g></g></svg>