<svg xmlns="http://www.w3.org/2000/svg" viewBox="0 0 225.51 225.51"><defs><style>.cls-1{fill:#e4e0ee;}.cls-2{fill:#b6acd1;}.cls-3{fill:#fff;}.cls-4{fill:#4e2a84;}.cls-5{fill:#91d5ab;}.cls-6,.cls-7{fill:none;stroke-miterlimit:10;stroke-width:2px;}.cls-6{stroke:#91d5ab;stroke-dasharray:7 7;}.cls-7{stroke:#fff;}</style></defs><title>Asset 1</title><g id="Layer_2" data-name="Layer 2"><g id="Layer_1-2" data-name="Layer 1"><path class="cls-1" d="M225.51,112.76a112.83,112.83,0,0,1-132.62,111c-2.79-.49-5.54-1.09-8.25-1.78a113,113,0,0,1-71-55.49q-1.41-2.6-2.69-5.27a112.77,112.77,0,1,1,214.6-48.46Z"/><path class="cls-2" d="M133,30.84,75.66,88.19l-2.17,15.09L19.58,157.19l55.25,55.25,53.91-53.91,1.61-1.61H143l58-58Z"/><path class="cls-2" d="M73.63,18.9h0a26.92,26.92,0,0,1,26.92,26.92V111a0,0,0,0,1,0,0H73.63a0,0,0,0,1,0,0V18.9A0,0,0,0,1,73.63,18.9Z"/><path class="cls-2" d="M100.54,49v3.74a10.6,10.6,0,0,0,3.1,7.48h0l6.27-6.27V67.7S97,70,97,67.7V49.05Z"/><rect class="cls-3" x="22.42" y="141.77" width="94.86" height="55.19" transform="translate(140.22 0.21) rotate(45)"/><path class="cls-4" d="M109.91,206.74l-17,17c-2.79-.49-5.54-1.09-8.25-1.78a113,113,0,0,1-71-55.49q-1.41-2.6-2.69-5.27l26.75-26.75Z"/><circle class="cls-5" cx="106.21" cy="185.34" r="5.62"/><line class="cls-6" x1="46.96" y1="104.45" x2="46.96" y2="12.53"/><line class="cls-6" x1="26.95" y1="157.5" x2="26.95" y2="65.58"/><line class="cls-7" x1="151.71" y1="49.51" x2="136.55" y2="64.68"/><line class="cls-7" x1="167.87" y1="65.7" x2="152.7" y2="80.86"/><line class="cls-7" x1="184.04" y1="81.88" x2="168.87" y2="97.04"/></g></g></svg>