<svg xmlns="http://www.w3.org/2000/svg" viewBox="0 0 226.83 204.81"><defs><style>.cls-1{fill:#e4e0ee;}.cls-2{fill:#4e2a84;}.cls-3{fill:#fff;}.cls-4,.cls-6{fill:none;stroke-miterlimit:10;}.cls-4{stroke:#91d5ab;stroke-width:2.46px;}.cls-5{fill:#91d5ab;}.cls-6{stroke:#b6acd1;stroke-width:2.1px;stroke-dasharray:7.21 7.21;}</style></defs><title>Asset 13</title><g id="Layer_2" data-name="Layer 2"><g id="Layer_1-2" data-name="Layer 1"><circle class="cls-1" cx="113.27" cy="102.41" r="102.41"/><path class="cls-2" d="M178.86,108.15l-58,58L31.65,77,86,22.66a5.23,5.23,0,0,1,7.39,0l.15.15A5.27,5.27,0,0,1,94,29.58a29.94,29.94,0,0,0,41.21,41.94,6.18,6.18,0,0,1,7.78.8Z"/><rect class="cls-3" x="17.89" y="110.23" width="126.11" height="13.31" transform="translate(106.36 -23) rotate(45)"/><path class="cls-2" d="M226.53,160.71v5.46H127.36V99.29H165.1a61.32,61.32,0,0,1,61.43,61.42Z"/><path class="cls-3" d="M226.83,160.73v5.48h-106V152.87H226.33A60,60,0,0,1,226.83,160.73Z"/><line class="cls-4" x1="146.34" y1="107.24" x2="146.34" y2="72.79"/><line class="cls-4" x1="130.63" y1="103.82" x2="154.99" y2="79.45"/><line class="cls-4" x1="146.34" y1="107.24" x2="146.34" y2="72.79"/><circle class="cls-5" cx="130.63" cy="103.82" r="3.15"/><circle class="cls-5" cx="140.63" cy="112.8" r="3.15"/><circle class="cls-5" cx="150.7" cy="121.53" r="3.15"/><circle class="cls-5" cx="166.13" cy="125.24" r="3.15"/><line class="cls-4" x1="130.63" y1="103.82" x2="154.99" y2="79.45"/><line class="cls-4" x1="156.87" y1="115.71" x2="156.87" y2="81.25"/><line class="cls-4" x1="141.15" y1="112.28" x2="165.52" y2="87.92"/><line class="cls-4" x1="166.29" y1="125.13" x2="166.29" y2="90.67"/><line class="cls-4" x1="150.58" y1="121.7" x2="174.94" y2="97.34"/><line class="cls-6" x1="33.79" y1="60.25" y2="60.25"/><line class="cls-6" x1="20.42" y1="86.56" x2="1.24" y2="86.56"/><line class="cls-6" x1="69.72" y1="139.18" x2="16.44" y2="139.18"/><line class="cls-6" x1="54.36" y1="112.87" x2="1.24" y2="112.87"/><line class="cls-6" x1="101.69" y1="165.48" x2="18.73" y2="165.48"/></g></g></svg>