<svg xmlns="http://www.w3.org/2000/svg" viewBox="0 0 174.09 174.09"><defs><style>.cls-1{fill:#334d6c;}.cls-2{isolation:isolate;}.cls-3{fill:#586d85;}.cls-4{fill:#011226;}.cls-5{fill:#fff;}.cls-6{fill:#ffb100;}.cls-7{fill:#012147;}.cls-8{fill:#ffa200;}.cls-9{fill:#ffd272;}.cls-10,.cls-11{fill:none;}.cls-10{stroke:#ffa200;stroke-miterlimit:10;stroke-width:3.54px;}.cls-11{stroke:#99a6b5;stroke-linejoin:round;stroke-width:1.91px;}</style></defs><g id="Layer_2" data-name="Layer 2"><g id="Unsorted"><circle class="cls-1" cx="87.05" cy="87.05" r="87.05"/><g class="cls-2"><path class="cls-3" d="M73.24,50.68c20.24,11.69,36.6,40,36.53,63.28S93.24,146.6,73,134.92s-36.6-40-36.54-63.29S53,39,73.24,50.68ZM73,126.89c16.39,9.46,29.72,1.86,29.77-17S89.6,68.16,73.21,58.7s-29.71-1.86-29.76,17S56.64,117.43,73,126.89"/><path class="cls-4" d="M73.13,89.18a5.34,5.34,0,0,1,.84.62,7,7,0,0,1,2.29,4.81c0,2-1.42,2.81-3.15,1.8a7.05,7.05,0,0,1-3-4.44,5.63,5.63,0,0,1-.1-1,3.34,3.34,0,0,1,.11-.87,1.69,1.69,0,0,1,2.2-1.29A3.54,3.54,0,0,1,73.13,89.18Z"/><path class="cls-5" d="M73.21,58.7c16.39,9.46,29.63,32.4,29.58,51.23s-13.38,26.42-29.77,17S43.39,94.49,43.45,75.67,56.83,49.24,73.21,58.7Zm-.1,37.71c1.73,1,3.15.2,3.15-1.8A7,7,0,0,0,74,89.8l-.29-23.5a1.12,1.12,0,0,0-.48-.83c-.26-.15-.49,0-.49.27l-.43,23.08a1.69,1.69,0,0,0-2.2,1.29l-13.61-7.4c-.21-.12-.39,0-.39.23a.91.91,0,0,0,.39.72L70.07,92a7.05,7.05,0,0,0,3,4.44"/><path class="cls-6" d="M70.08,90.11A3.34,3.34,0,0,0,70,91a5.63,5.63,0,0,0,.1,1l-13.6-8.31a.91.91,0,0,1-.39-.72c0-.25.18-.35.39-.23Z"/><path class="cls-6" d="M73.2,65.47a1.12,1.12,0,0,1,.48.83L74,89.8a5.34,5.34,0,0,0-.84-.62,3.54,3.54,0,0,0-.85-.36l.43-23.08C72.71,65.43,72.94,65.32,73.2,65.47Z"/><path class="cls-7" d="M123.18,104.5c0-.1,0-.21,0-.31s0-.45,0-.67l0-.79c0-.2,0-.41,0-.61l-.06-.71,0-.47-.12-1-.06-.59a1.36,1.36,0,0,1,0-.2q-.12-.93-.27-1.86v0c0-.07,0-.13,0-.2-.09-.55-.18-1.1-.28-1.65a1.84,1.84,0,0,1,0-.25c-.06-.26-.11-.52-.17-.78s-.12-.64-.19-1c0-.13-.07-.27-.1-.41-.06-.29-.13-.59-.21-.88s-.11-.49-.17-.73-.09-.35-.14-.53c-.09-.35-.18-.69-.28-1,0-.2-.1-.4-.16-.61s-.11-.37-.17-.56c-.11-.38-.23-.77-.35-1.16-.06-.19-.11-.39-.18-.58s-.12-.35-.17-.53c-.14-.43-.29-.87-.44-1.3l-.21-.62-.15-.39q-.34-1-.72-1.92c-.07-.17-.13-.35-.2-.53l-.06-.15c-.39-1-.8-1.94-1.22-2.9,0-.08-.07-.17-.11-.25l-.15-.31c-.57-1.27-1.17-2.53-1.81-3.77l-.06-.14-.15-.26c-.66-1.28-1.34-2.54-2.06-3.79l-.12-.19c-.74-1.28-1.51-2.53-2.32-3.77L110,66q-1.2-1.83-2.48-3.59c-.08-.1-.15-.21-.22-.31-.83-1.13-1.68-2.22-2.55-3.3l-.21-.27-.13-.14c-.87-1.07-1.77-2.1-2.69-3.11-.07-.08-.14-.17-.22-.25l-.21-.23c-.69-.73-1.38-1.46-2.09-2.16l0,0-.32-.31c-.51-.5-1-1-1.53-1.46l-.21-.2-.54-.48-1.06-.94-.3-.26c-.2-.17-.4-.32-.59-.49l-.84-.68-.3-.26c-.23-.17-.46-.34-.68-.52L92,46.42l-.25-.19-.88-.63-.6-.43-.14-.09c-.52-.36-1-.71-1.57-1h0l-.14-.09L87,43.08l-.36-.21-1.17-.65L85.06,42l-.6-.31L84,41.44l-.74-.34-.53-.25-.21-.11c-.49-.22-1-.42-1.46-.61h0c-.49-.2-1-.38-1.47-.56l-.19-.06-.53-.17-.75-.25-.37-.1-.64-.18-.5-.13-.52-.12-.64-.14-.35-.08-.6-.1-.74-.12-.26,0L72.87,38l-.79-.09-.23,0-.53,0-.93,0h-.26l-.4,0c-.39,0-.77,0-1.16.06h-.34L68,38c-.59.06-1.16.14-1.72.25l-.15,0h0l-.33.08c-.35.08-.7.16-1,.26-.17,0-.33.1-.49.15s-.44.13-.66.21l-.16.06c-.33.12-.65.26-1,.4L62,39.6c-.47.22-.93.46-1.37.72l-13.43,7.8c.44-.26.9-.49,1.37-.71l.46-.2c.32-.14.64-.27,1-.39s.54-.19.81-.27l.5-.16c.34-.1.69-.18,1-.26l.33-.08a1.25,1.25,0,0,0,.19,0q.84-.15,1.71-.24l.6-.06c.38,0,.77,0,1.16,0H57l.93,0,.76,0,.79.08c.29,0,.58.06.87.11s.49.08.74.12l1,.17.64.15c.34.07.67.16,1,.25l.64.18c.37.1.75.22,1.12.34l.53.18c.55.19,1.1.39,1.66.61h0c.55.22,1.11.46,1.67.72l.53.25c.4.19.8.38,1.2.59l.6.31c.53.28,1.07.57,1.61.88s1.17.7,1.76,1.06l.14.09c.58.37,1.15.75,1.72,1.15l.61.43,1.13.82c.25.18.49.38.74.57l1,.77c.28.22.56.46.83.69s.6.49.9.75l1.06.93.75.69c.51.47,1,1,1.52,1.45l.37.36c.71.7,1.4,1.43,2.08,2.17l.44.48c.92,1,1.82,2,2.69,3.1l.34.42c.87,1.07,1.72,2.17,2.54,3.29l.23.32Q95.36,72,96.56,73.8a.41.41,0,0,0,.07.11c.8,1.23,1.57,2.49,2.31,3.76l.12.2c.72,1.25,1.41,2.51,2.06,3.79l.21.39c.64,1.25,1.24,2.51,1.81,3.77l.25.57c.43,1,.84,1.92,1.23,2.89l.26.69q.38,1,.72,1.92c.12.33.24.66.35,1s.31.87.45,1.31.23.74.35,1.1.24.78.35,1.17l.33,1.17c.1.34.19.69.28,1s.21.84.31,1.27.15.58.21.88c.1.45.2.91.29,1.36.06.26.11.53.16.79.13.63.24,1.26.34,1.88l0,.21c.12.7.21,1.39.3,2.09l.06.59q.09.74.15,1.47l.06.72c0,.46.06.93.08,1.39,0,.22,0,.45,0,.67,0,.66,0,1.32,0,2s0,1.35,0,2l0,.56c0,.45-.06.9-.1,1.34,0,.26,0,.51-.08.76s-.08.74-.13,1.11l-.12.8c-.05.33-.11.67-.17,1l-.18.87c-.06.3-.13.59-.2.88s-.17.67-.26,1-.14.52-.22.77-.25.78-.39,1.16c-.07.21-.14.42-.22.62q-.36,1-.78,1.86c-.22.46-.44.9-.68,1.33v0c-.24.43-.49.85-.76,1.26A19.94,19.94,0,0,1,104.2,133l-.3.37c-.41.49-.83,1-1.27,1.39l-.09.1a19.36,19.36,0,0,1-1.47,1.27l-.38.29a17.29,17.29,0,0,1-1.61,1.07l13.43-7.8a17.39,17.39,0,0,0,1.61-1.08l.38-.28c.5-.4,1-.82,1.47-1.28l.09-.09c.44-.44.86-.91,1.27-1.39l.3-.38c.42-.53.82-1.07,1.2-1.66l0-.05c.25-.39.49-.79.72-1.21v0c.23-.41.45-.83.65-1.26l0-.07c.28-.59.54-1.22.78-1.86a.77.77,0,0,0,.07-.16c.06-.14.1-.3.15-.45q.21-.57.39-1.17c0-.1.07-.2.1-.31s.08-.3.12-.45c.09-.33.18-.67.26-1,0-.14.08-.27.11-.41l.09-.47c.07-.28.12-.58.18-.87l.09-.45c0-.18,0-.37.08-.55l.12-.8.06-.4c0-.23,0-.47.07-.7s.06-.51.08-.77c0-.1,0-.2,0-.3,0-.34,0-.69.07-1l0-.56s0-.09,0-.14c0-.58,0-1.17,0-1.77v-.11C123.2,105.61,123.2,105.05,123.18,104.5Z"/></g><g class="cls-2"><path class="cls-7" d="M120,70.22c-1.13-.65-2.05-.13-2.06,1.17a4.53,4.53,0,0,0,1.37,3l-1.2,3.76L120,79.22l1.86,1.07-1.17-5.12c.8.14,1.37-.39,1.38-1.42A4.51,4.51,0,0,0,120,70.22Z"/><polygon class="cls-8" points="131.72 94.97 139.2 90.63 139.27 63.67 131.8 68.01 131.72 94.97"/><polygon class="cls-9" points="131.8 68.01 139.27 63.67 115.81 50.12 108.33 54.46 131.8 68.01"/><path class="cls-6" d="M131.72,95,108.25,81.42l.08-27L131.8,68ZM118.15,78.15,120,79.22l1.86,1.07-1.17-5.12c.8.14,1.37-.39,1.38-1.42a4.51,4.51,0,0,0-2-3.53c-1.13-.65-2.05-.13-2.06,1.17a4.53,4.53,0,0,0,1.37,3l-1.2,3.76"/></g><path class="cls-10" d="M131.72,63.26V53.79a17.49,17.49,0,0,0-7.91-13.71c-4.37-2.52-7.92-.48-7.92,4.57v2.57"/><ellipse class="cls-7" cx="115.89" cy="54.46" rx="2.14" ry="1.23"/><ellipse class="cls-8" cx="115.9" cy="47.16" rx="1.77" ry="1.02"/><ellipse class="cls-8" cx="131.72" cy="63.26" rx="1.77" ry="1.02"/><path class="cls-11" d="M60.77,145.86c-12-9.85-22.26-23.43-29.37-38.4"/><path class="cls-11" d="M30.25,84.43c5.94,23.72,21.09,47,39.83,60"/><path class="cls-3" d="M79.48,36.61a74.49,74.49,0,0,1,13.07,9.75l-1.61,3a67.77,67.77,0,0,0-11.47-8.45c-11.6-6.69-22.08-7.35-29.71-3s-12.34,13.68-12.38,27S42,93,49.57,106.07s18,24.55,29.62,31.24,22.08,7.35,29.71,3,12.34-13.67,12.38-27c0-1.18.84-1.67,1.87-1.07a4.13,4.13,0,0,1,1.87,3.23c-.09,29-20.61,40.68-45.84,26.12S33.56,91.73,33.64,62.73,54.24,22.05,79.48,36.61Z"/><polygon class="cls-3" points="94.97 41.87 103.45 60.84 88.59 53.71 90.94 49.36 92.55 46.35 94.97 41.87"/></g></g></svg>