<svg xmlns="http://www.w3.org/2000/svg" viewBox="0 0 459.41 226.47"><defs><style>.cls-1{fill:#557673;}.cls-2{fill:#1c4944;}.cls-3{fill:#ffb014;}.cls-4{fill:#e0b097;}.cls-5,.cls-8{fill:#cb7c51;}.cls-5{opacity:0.43;}.cls-6{fill:#c65552;}.cls-7{fill:#d59674;}.cls-9{fill:#002147;}.cls-10{fill:#7d4921;}.cls-11{fill:#dfb28b;}.cls-12{fill:#fdd072;}.cls-13{fill:#39605c;}.cls-14{fill:#5c3960;}.cls-15,.cls-21{fill:none;stroke-miterlimit:10;}.cls-15{stroke:#a28ea4;stroke-width:5px;}.cls-16,.cls-17,.cls-20,.cls-24{fill:#fff;}.cls-16,.cls-17{stroke:#002147;}.cls-16,.cls-17,.cls-20{stroke-linecap:round;stroke-linejoin:round;}.cls-16,.cls-20{stroke-width:1.13px;}.cls-17{stroke-width:2.27px;}.cls-18{fill:#8e9dad;}.cls-19{fill:#395370;}.cls-20{stroke:#ffb414;}.cls-21{stroke:#39605c;}.cls-22{fill:#8ea4a2;}.cls-23{fill:#556b84;}.cls-25{fill:#f4887d;}.cls-26{fill:#c6d1d0;}.cls-27{fill:#2d0032;}.cls-28{fill:#735576;}.cls-29{fill:#e3e7eb;}.cls-30{fill:#b42a1c;}.cls-31{fill:#f03826;}.cls-32{fill:#8a718d;}.cls-33{fill:#441c49;}.cls-34{fill:#a28ea4;}.cls-35{fill:#ffb414;}.cls-36{fill:#ffd272;}</style></defs><g id="Layer_2" data-name="Layer 2"><g id="illustrations"><path class="cls-1" d="M290.84,130.1l6.37,81.41s-31.31,2-32.07,2S249.2,208.34,249,207.4s.57-25.05,1.89-30,7-41.94,7-41.94l15.18-4.36Z"/><path class="cls-2" d="M226.06,90.54c.07-.1,27.24-3.48,30.9,16.27l-34.77,3.45Z"/><path class="cls-2" d="M221,90.54c-.07-.1-27.24-3.48-30.9,16.27l34.77,3.45Z"/><path class="cls-3" d="M195.23,59.53s-6.77-7.2-5.91-20.08l7.37.94,2.74,14.89Z"/><path class="cls-3" d="M251.2,59.53s7.37-4,6.66-15.2L247,35.38l1,2,.19,20.44Z"/><path class="cls-4" d="M273.86,114.39,230.77,98.85H215.53l-46.17,16.31c4.29,11,34.47,71.42,24.26,99.91-3.06,8.54,5.89.4,24.17,1.7L231,214.91c18.28-1.3,26.22,8.4,23.15-.14C243.92,186.28,269.57,125.38,273.86,114.39Z"/><path class="cls-4" d="M235.14,101.38c-.31.29-4,4-12.23,3.11-5.75-.61-10.88-2.39-11.62-3.11l1.35-12.68,1.71-16.11h17.73l1.73,16.31Z"/><path class="cls-5" d="M233.81,88.9a33.09,33.09,0,0,1-21.17-.2l1.71-16.11h17.73Z"/><ellipse class="cls-4" cx="223.21" cy="46.38" rx="29.59" ry="40.41"/><path class="cls-6" d="M215,72.36a21.68,21.68,0,0,0,3.95.73c1.23.11,2.43.15,3.65.16s2.45,0,3.72-.08a39.84,39.84,0,0,0,4.07-.33,6.74,6.74,0,0,1-3.39,3,10.87,10.87,0,0,1-4.43.9,10,10,0,0,1-4.45-1A6.09,6.09,0,0,1,215,72.36Z"/><path class="cls-6" d="M212.42,72.45a19.26,19.26,0,0,1,5.18-1.28,41,41,0,0,1,5.18-.27q2.57,0,5.13.3a42.69,42.69,0,0,1,5.18.86A17,17,0,0,1,228,73.59a33.87,33.87,0,0,1-5.21.35,40.75,40.75,0,0,1-5.17-.39A35,35,0,0,1,212.42,72.45Z"/><path class="cls-7" d="M227.68,65.29l-4.48,0-.1-16.84.9-.63,1.27,13.78a4.25,4.25,0,0,0,1.43,2.81Z"/><polygon class="cls-8" points="223.21 67.56 223.2 65.32 227.68 65.3 223.21 67.56"/><polygon class="cls-7" points="223.24 67.57 223.23 65.33 218.75 65.36 223.24 67.57"/><path class="cls-7" d="M228.37,44.54a6.63,6.63,0,0,0-4.9,3.94l0,3.85S223.51,48,228.37,44.54Z"/><path class="cls-9" d="M243,49.55a4.92,4.92,0,0,0-2-2,7.13,7.13,0,0,0-2.59-.89,7.44,7.44,0,0,0-2.74.13,5.36,5.36,0,0,0-2.5,1.31l0,.16a17.31,17.31,0,0,1,5,0,15.58,15.58,0,0,1,2.44.52,14.93,14.93,0,0,1,2.32.92Z"/><path class="cls-9" d="M203.43,49.55a4.92,4.92,0,0,1,2-2,7.13,7.13,0,0,1,2.59-.89,7.44,7.44,0,0,1,2.74.13,5.41,5.41,0,0,1,2.5,1.31l0,.16a17.31,17.31,0,0,0-5,0,15.58,15.58,0,0,0-2.44.52,14.93,14.93,0,0,0-2.32.92Z"/><path class="cls-10" d="M215.41,41.67A15.59,15.59,0,0,0,211.34,40a15.35,15.35,0,0,0-2.16-.48,11.93,11.93,0,0,0-2.39,0,12.36,12.36,0,0,0-2.33.56,10.28,10.28,0,0,0-2.1,1.11,8.47,8.47,0,0,0-2.93,3.53l.12.15A17.81,17.81,0,0,1,203,42.51a12.07,12.07,0,0,1,4-1.16,16.75,16.75,0,0,1,4.18.11c1.4.15,2.81.28,4.21.39Z"/><path class="cls-10" d="M230.75,42.77a15.57,15.57,0,0,1,3.81-2.22,14.21,14.21,0,0,1,2.07-.77,11.87,11.87,0,0,1,2.37-.33,12.64,12.64,0,0,1,2.38.24,9.61,9.61,0,0,1,2.23.82,8.33,8.33,0,0,1,3.39,3.1l-.1.15a18.4,18.4,0,0,0-3.75-1.85,12,12,0,0,0-4.11-.6,16.8,16.8,0,0,0-4.13.67c-1.36.34-2.74.66-4.12,1Z"/><path class="cls-1" d="M267.12,144A489.14,489.14,0,0,0,261,215.79c0,1.67,0,3.34,0,5H185.52s0-1.85,0-5c-.08-13-.55-47.81-3.15-64.83a172.66,172.66,0,0,0-16-35.74L205,102.58s4.2,16.37,18.22,16.61,17.89-16.61,17.89-16.61l38.73,12.86S254.33,125.36,267.12,144Z"/><path class="cls-11" d="M193.27,37.27A28.18,28.18,0,0,0,209.9,21s12,18.44,39.6,18.91L220.06,20.36l-7.24-6.18-7.06-.9-4.37,7.08Z"/><path class="cls-12" d="M209.52,18.33S223.14,35.86,240.74,38s17.17,10.36,17.17,10.36,9-61.46-42.07-45.75l-8.2,6.28Z"/><path class="cls-12" d="M194.58,35.61s12-4.8,14.94-17.28,6.32-15.76,6.32-15.76a14.88,14.88,0,0,0-15.66.72c-9.66,6.24-24.37,27.2-6.37,47.65Z"/><path class="cls-12" d="M213.56,2.75c.1,1,.13,1.77.14,2.63s0,1.7,0,2.54c-.05,1.69-.22,3.37-.43,5a46.59,46.59,0,0,1-2.4,9.71c-.31.78-.54,1.57-.91,2.32l-1.05,2.26c-.38.73-.82,1.44-1.22,2.16l-.62,1.07-.72,1a37,37,0,0,1-6.56,7.23,36.55,36.55,0,0,0,5.6-7.82l.57-1.05.48-1.09c.3-.74.65-1.45.92-2.2l.75-2.25c.27-.74.4-1.53.61-2.29a44,44,0,0,0,1.18-9.33c0-1.56,0-3.13-.14-4.67a34.15,34.15,0,0,0-.62-4.5Z"/><circle class="cls-1" cx="275.15" cy="130.1" r="15.69"/><path class="cls-13" d="M212.46,90.41s-12,2.4-6.76,7.67l-15.6,8.73a17.15,17.15,0,0,1,8-12.26A31.38,31.38,0,0,1,212.46,90.41Z"/><path class="cls-13" d="M234.6,90.41s11.66,2.06,6.41,7.34L257,106.81a17.15,17.15,0,0,0-8-12.26A31.38,31.38,0,0,0,234.6,90.41Z"/><path class="cls-14" d="M212.64,112.74c0,.48,11.27,5.82,20.32,0l-2,2.62-.89,6.24-.16,6.72-.14,20.25-7.56,1.89-4.56,7.17s-3.76-36-3.57-36.19S212.64,112.74,212.64,112.74Z"/><path class="cls-15" d="M212.55,115.89c.06-.71,11.31,5.4,21.35-.86"/><path class="cls-13" d="M217.11,152.73s.56-16.18.52-19.84c-.07-5.55-.71-13.83-3.83-19.89-2.53-4.9-7.85-18.53-12.29-17.19-5.93,1.79-11.41,11-11.41,11,.29,6,9.65,6,14.48,8.78a24,24,0,0,1,8.49,9.16c1.67,3.15,1.78,8.93,1.81,12.49v15.49Z"/><path class="cls-13" d="M245.55,95.81c-4.44-1.34-12.52,11.87-15.05,16.77-3.12,6.06-2.29,28.79-2.1,34,.29,7.75-3,19.59-3,19.59l2.24,2.53,3.26-19.32c0-3.56-.38-21.32.67-23.31,2-3.77,4.12-7.79,7.15-9.53,4.83-2.76,17.91-3.75,18.2-9.71C257,106.81,251.48,97.6,245.55,95.81Z"/><line class="cls-16" x1="410.48" y1="146.71" x2="410.51" y2="169.45"/><line class="cls-17" x1="419.29" y1="142.3" x2="419.36" y2="206.36"/><rect class="cls-18" x="404.38" y="204.56" width="30.83" height="4.11" transform="translate(-0.23 0.47) rotate(-0.06)"/><polygon class="cls-12" points="443.42 149.49 394.67 149.54 400.71 94.62 437.25 94.58 443.42 149.49"/><circle class="cls-19" cx="410.5" cy="170.1" r="2.96"/><line class="cls-20" x1="400.01" y1="100.98" x2="437.97" y2="100.94"/><line class="cls-20" x1="396.34" y1="143.32" x2="441.73" y2="143.27"/><path class="cls-21" d="M19.9,122.46a26,26,0,0,1,16.9,19.07"/><path class="cls-21" d="M59.32,122.46a26,26,0,0,0-16.9,19.07"/><path class="cls-21" d="M59.32,112.81s-15,6-18.51,28.77"/><path class="cls-21" d="M46.52,87.28S40,112.36,39.69,138.62"/><path class="cls-21" d="M24.81,99.89s12.34,19,12.94,38.8"/><ellipse class="cls-22" cx="46.33" cy="86.08" rx="9.35" ry="4.59" transform="translate(-44.66 121.81) rotate(-83.15)"/><ellipse class="cls-1" cx="48.14" cy="88.79" rx="9.35" ry="4.59" transform="translate(-52.21 100.25) rotate(-68.05)"/><ellipse class="cls-13" cx="44.4" cy="88.34" rx="4.59" ry="9.35" transform="translate(-6.79 3.76) rotate(-4.5)"/><ellipse class="cls-22" cx="27.17" cy="101.53" rx="4.59" ry="9.35" transform="translate(-35.52 17.17) rotate(-21.64)"/><ellipse class="cls-1" cx="30.05" cy="103.04" rx="4.59" ry="9.35" transform="matrix(0.99, -0.11, 0.11, 0.99, -11.54, 4.09)"/><ellipse class="cls-13" cx="26.55" cy="104.43" rx="4.59" ry="9.35" transform="translate(-52.58 31.3) rotate(-32.99)"/><path class="cls-23" d="M59,185.78c0,7.33-4,16.65-9.86,22.06a3.12,3.12,0,0,1-2.13.84H31.4a3.17,3.17,0,0,1-2.18-.89,34.54,34.54,0,0,1-9.79-20.61c-.52-7.56,4.07-13.2,9-18.05,3.49-3.41,7.13-9.21,7.26-14.37l0-.47c.12-4.61-1.33-13.18-2.19-15.39H44.82c-.86,2.22-2.3,10.78-2.18,15.39v.47c.14,5.13,3.77,11,7.2,14.33C54.52,173.65,59,178.77,59,185.78Z"/><polygon class="cls-24" points="347.68 208.54 329.57 208.54 325.81 157.63 351.45 157.63 347.68 208.54"/><polygon class="cls-25" points="331.43 206.53 329.01 173.78 348.24 173.78 345.83 206.53 331.43 206.53"/><path class="cls-7" d="M253.54,194a.5.5,0,0,0,0-1,.5.5,0,0,0,0,1Z"/><path class="cls-7" d="M257.52,194.27a.5.5,0,0,0,0-1,.5.5,0,0,0,0,1Z"/><path class="cls-26" d="M253.35,199.11S236,130.77,234.29,121.18s-6.27-8.29-6.27-8.29l-5.74,1-5.75-1s-4.56-1.31-6.27,8.29-18.1,78.61-18.1,78.61l30.93,2.36Z"/><polygon class="cls-27" points="107.65 208.68 96.29 208.68 97.81 190.16 106.14 190.16 107.65 208.68"/><rect class="cls-28" x="96.46" y="182.64" width="11.03" height="9.5" rx="1.45"/><polygon class="cls-27" points="93.47 208.75 82.11 208.75 83.63 190.22 91.95 190.22 93.47 208.75"/><rect class="cls-28" x="82.28" y="182.71" width="11.03" height="9.5" rx="1.45"/><path class="cls-29" d="M231.4,122.08q2.21,8.16,4,16.41T238.83,155c2.12,11,4.1,22.12,5.56,33.3-2.86-10.91-5.21-21.91-7.42-32.94q-1.65-8.28-3.08-16.59T231.4,122.08Z"/><path class="cls-29" d="M215,122.13q-1.32,9.45-3,18.83t-3.62,18.7c-2.58,12.44-5.3,24.85-8.52,37.16,1.83-12.59,4.17-25.08,6.66-37.54q1.88-9.33,4-18.63T215,122.13Z"/><path class="cls-29" d="M225.51,119.07q2.07,12.56,3.75,25.16t3.15,25.22c1,8.42,1.93,16.84,2.75,25.28l1.23,12.65c.35,4.23.75,8.45,1.05,12.68-.7-4.18-1.29-8.38-1.93-12.57l-1.75-12.6c-1.18-8.39-2.21-16.8-3.23-25.21s-1.95-16.84-2.81-25.27S226.11,127.53,225.51,119.07Z"/><path class="cls-29" d="M220.06,130.27c.37,3.75.53,7.49.62,11.23s.09,7.48,0,11.22-.18,7.48-.39,11.22-.44,7.47-.87,11.21c-.32-3.75-.47-7.49-.57-11.23s-.1-7.48-.07-11.22.14-7.48.33-11.22S219.59,134,220.06,130.27Z"/><path class="cls-29" d="M213.24,165c.14,3.76.07,7.5-.08,11.24s-.38,7.48-.68,11.2-.65,7.45-1.08,11.17-.92,7.43-1.58,11.13c-.09-3.75,0-7.5.14-11.24s.36-7.47.63-11.2.6-7.46,1-11.18S212.54,168.71,213.24,165Z"/><rect class="cls-19" y="208.69" width="459.41" height="17.78"/><circle class="cls-27" cx="99.33" cy="184.34" r="0.92"/><circle class="cls-27" cx="101.97" cy="184.34" r="0.92"/><circle class="cls-27" cx="104.61" cy="184.34" r="0.92"/><circle class="cls-27" cx="85.15" cy="184.34" r="0.92"/><circle class="cls-27" cx="87.79" cy="184.34" r="0.92"/><circle class="cls-27" cx="90.43" cy="184.34" r="0.92"/><polygon class="cls-1" points="198.22 141.02 166.52 188.8 173.36 131.62 185.29 126.58 194.09 128.19 198.22 141.02"/><path class="cls-1" d="M192.63,110.19s.59,1.53.09,8.06c-.41,5.4,2.9,70.42.2,88-.59,3.86-15.38,2.2-20.95,2.48-5.05.25-10.41-6.71-10.7-11.38-.63-10.38.1-26.64.1-26.64,4.25-22,9.95-62.91,13-62.11a11.88,11.88,0,0,0,7.78,3.73A19.84,19.84,0,0,0,192.63,110.19Z"/><path class="cls-13" d="M192.06,113.79c-.43,3.82-.93,7.64-1.43,11.45L189,136.66c-1.13,7.61-2.28,15.21-3.55,22.79s-2.44,15.18-3.8,22.75-2.66,15.15-4.12,22.7c1-7.63,2-15.25,3.13-22.86s2.29-15.2,3.44-22.8,2.42-15.19,3.7-22.77l2-11.35C190.58,121.34,191.29,117.56,192.06,113.79Z"/><path class="cls-1" d="M166.34,115.27s-7.55,2.41-8,16.72c-.32,10.31,2,45.65,1.11,64.56-.31,6.67,1,12.15,7.71,12.18l4.82,0c.42-.63,4.21-49.81,4.21-49.81l5.11-26.74Z"/><path class="cls-7" d="M258,195.1a.5.5,0,0,0,0-1,.5.5,0,0,0,0,1Z"/><path class="cls-30" d="M186,202s3.55-8.78,9.51-7.06c8.09,2.32,2.41,8.05,2.41,8.05Z"/><path class="cls-30" d="M195.76,202.56s3.55-8.78,9.51-7.07c8.09,2.33,2.4,8.06,2.4,8.06Z"/><path class="cls-31" d="M181.29,202.43s1.87-8.49,10-6.36,4.44,8.07,4.44,8.07Z"/><path class="cls-32" d="M206.18,201.16s3.12-7.57,8.06-7.14c0,0,.52,6.41-2.08,8.17S206.18,201.16,206.18,201.16Z"/><path class="cls-32" d="M217.83,203.76S213.7,196.68,217,193c0,0,5.41,3.48,5.23,6.61S217.83,203.76,217.83,203.76Z"/><path class="cls-33" d="M210.6,203.83c-.26-.13-4.48-4.31-2.8-8,0,0,6.57-.84,9,6.57l-6.1,2.2Z"/><path class="cls-33" d="M218.38,201.34c0-.29,1.93-5.91,6-6,0,0,3.62,5.54-2,10.93l-4.63-4.53Z"/><path class="cls-34" d="M211,198.75c.13-.26,4.27-4.52,8-2.87,0,0,.91,6.56-6.48,9l-2.26-6.08Z"/><path class="cls-32" d="M201.26,202.31c-.21-.1-3.64-3.5-2.27-6.48,0,0,5.32-.69,7.26,5.32l-4.94,1.78Z"/><path class="cls-34" d="M202.51,203.4s-2.15-5.84,2.83-9.14c0,0,4.71,4.9,3.24,7.24S202.51,203.4,202.51,203.4Z"/><path class="cls-8" d="M271.16,202.13s-9.16-9.42-14.94-9.42c-11.57,0-20.67,11.35-20.67,11.35Z"/><circle class="cls-35" cx="238.74" cy="198.58" r="1.41"/><circle class="cls-35" cx="236.77" cy="197.96" r="1.41"/><circle class="cls-1" cx="235.55" cy="198.85" r="1.41"/><circle class="cls-36" cx="238.56" cy="196.1" r="1.41"/><circle class="cls-1" cx="236.77" cy="195.8" r="1.41"/><circle class="cls-35" cx="231.13" cy="198.38" r="1.41"/><circle class="cls-35" cx="241.2" cy="198.38" r="1.41"/><circle class="cls-35" cx="242.4" cy="198.73" r="1.41"/><circle class="cls-1" cx="240.99" cy="196.75" r="1.41"/><circle class="cls-35" cx="239.44" cy="197.32" r="1.41"/><circle class="cls-35" cx="244.39" cy="198.58" r="1.41"/><circle class="cls-35" cx="233.95" cy="198.58" r="1.41"/><circle class="cls-36" cx="235.08" cy="196.82" r="1.41"/><circle class="cls-35" cx="229.66" cy="199.11" r="1.41"/><circle class="cls-35" cx="232.54" cy="197.17" r="1.41"/><circle class="cls-1" cx="232.48" cy="198.58" r="1.41"/><circle class="cls-1" cx="231.13" cy="196.55" r="1.41"/><circle class="cls-36" cx="243.24" cy="197.5" r="1.41"/><circle class="cls-36" cx="229.73" cy="197.17" r="1.41"/><circle class="cls-35" cx="228.26" cy="198.58" r="1.41"/><circle class="cls-35" cx="243.05" cy="199.11" r="1.41"/><path class="cls-7" d="M253.72,195.73a.5.5,0,0,0,0-1,.5.5,0,0,0,0,1Z"/><path class="cls-7" d="M250,196.79a.5.5,0,0,0,0-1,.5.5,0,0,0,0,1Z"/><path class="cls-7" d="M248.91,198.21a.5.5,0,0,0,0-1,.5.5,0,0,0,0,1Z"/><path class="cls-7" d="M252.67,197.15a.5.5,0,0,0,0-1,.5.5,0,0,0,0,1Z"/><path class="cls-7" d="M255.86,194.81a.5.5,0,0,0,0-1,.5.5,0,0,0,0,1Z"/><path class="cls-7" d="M258.66,195.73a.5.5,0,0,0,0-1,.5.5,0,0,0,0,1Z"/><path class="cls-7" d="M263.16,197.67a.5.5,0,0,0,0-1,.5.5,0,0,0,0,1Z"/><path class="cls-7" d="M261,195.73a.5.5,0,0,0,0-1,.5.5,0,0,0,0,1Z"/><path class="cls-7" d="M254.86,198.21a.5.5,0,0,0,0-1,.5.5,0,0,0,0,1Z"/><path class="cls-7" d="M257.1,197.15a.5.5,0,0,0,0-1,.5.5,0,0,0,0,1Z"/><path class="cls-7" d="M261,197.76a.5.5,0,0,0,0-1,.5.5,0,0,0,0,1Z"/><path class="cls-7" d="M252,195.41a.5.5,0,0,0,0-1,.5.5,0,0,0,0,1Z"/><path class="cls-7" d="M249.76,195.1a.5.5,0,0,0,0-1,.5.5,0,0,0,0,1Z"/><path class="cls-7" d="M246.51,196.91a.5.5,0,0,0,0-1,.5.5,0,0,0,0,1Z"/><path class="cls-9" d="M179.75,198.85h95.87a0,0,0,0,1,0,0v0a9.83,9.83,0,0,1-9.83,9.83h-76.2a9.83,9.83,0,0,1-9.83-9.83v0a0,0,0,0,1,0,0Z"/><path class="cls-1" d="M176.42,107.57c-.1,0-2.21.48-2.75,1.51a1.56,1.56,0,0,0,.24,1.8s3.24.73,3.34.65a9,9,0,0,0,.6-1Z"/><path class="cls-9" d="M192.4,76.52s-9.62-2.46-8.86.53c.43,1.72,8,.39,8,.39Z"/><path class="cls-9" d="M189.31,77.51s14,2,21.77,6.06c0,0,5.27,5,12.14,3.66s7-2.89,7.13-4-1.42-3.3-8.56-2.63-9,2.7-9,2.7-12.44-5.86-21.61-6.21C190.35,77,190.1,77.46,189.31,77.51Z"/><path class="cls-4" d="M190.91,113.78s8.09-9.61,9.28-13.73c0,0,4.17-5.48,4.19-8,0-2-2.38-3.27-4.19-.13,0,0,2.94-4,3.16-5.48s-1.5-3.26-4-1.63c0,0,2.43-2.3,2.25-3.51a2.62,2.62,0,0,0-4.37-1.47c-2.3,1.86-6.56,5.89-6.56,5.89s1.63-4.76,3-5.77,2.55-1.91,3.72-1.8a2,2,0,0,0,2-2c0-.88-2.22-3-5.58-2.22s-6.15,4.19-6.15,4.19a4.1,4.1,0,0,0-3,2.3c-1,2.06-1.52,4.36-3.31,6.33-1.56,1.72-5.09,16.75-6.67,21.9a2.72,2.72,0,0,0,.77,2.83C178,113.85,184,117.94,190.91,113.78Z"/><path class="cls-13" d="M173.91,110.88q-2.4,9.87-4.49,19.81c-1.38,6.63-2.69,13.27-3.6,20-.24,1.68-.42,3.35-.6,5s-.26,3.36-.37,5.05l-.68,10.14-1.37,20.27.89-20.29.45-10.15c.07-1.69.14-3.38.25-5.09,0-.85.17-1.69.25-2.54s.21-1.69.35-2.52c1-6.72,2.5-13.34,4-19.94S172.18,117.43,173.91,110.88Z"/><circle class="cls-36" cx="219.89" cy="82.66" r="1.41"/><circle class="cls-36" cx="219.89" cy="81.25" r="1.41"/><circle class="cls-36" cx="224.49" cy="82.37" r="1.41"/><circle class="cls-36" cx="223.47" cy="83.61" r="1.41"/><circle class="cls-1" cx="218.1" cy="82.37" r="1.41"/><circle class="cls-1" cx="226.91" cy="83.16" r="1.41"/><circle class="cls-1" cx="228.57" cy="83.38" r="1.41"/><circle class="cls-1" cx="216.41" cy="81.97" r="1.41"/><circle class="cls-1" cx="226.85" cy="81.56" r="1.41"/><circle class="cls-35" cx="219.5" cy="83.89" r="1.41"/><circle class="cls-35" cx="218.1" cy="85.01" r="1.41"/><circle class="cls-35" cx="222.19" cy="81.97" r="1.41"/><circle class="cls-35" cx="222.19" cy="80.85" r="1.41"/><circle class="cls-35" cx="225.9" cy="83.38" r="1.41"/><circle class="cls-35" cx="224.49" cy="81.07" r="1.41"/><circle class="cls-36" cx="216.94" cy="83.78" r="1.41"/><circle class="cls-36" cx="214.78" cy="82.97" r="1.41"/><circle class="cls-36" cx="224.87" cy="84.57" r="1.41"/><circle class="cls-36" cx="222.19" cy="85.01" r="1.41"/><circle class="cls-1" cx="219.89" cy="85.18" r="1.41"/><circle class="cls-1" cx="221.39" cy="83.61" r="1.41"/></g></g></svg>