<svg xmlns="http://www.w3.org/2000/svg" xmlns:xlink="http://www.w3.org/1999/xlink" viewBox="0 0 136.6 174.51"><defs><style>.cls-1{fill:none;}.cls-2{fill:#475977;}.cls-3{fill:#c6cdd6;}.cls-4{clip-path:url(#clip-path);}.cls-5{fill:#002147;}.cls-6,.cls-9{fill:#fff;}.cls-6,.cls-7,.cls-9{stroke:#ffb414;}.cls-10,.cls-12,.cls-6,.cls-7,.cls-8,.cls-9{stroke-miterlimit:10;}.cls-6{stroke-width:0.49px;}.cls-12,.cls-7{fill:#ffb414;}.cls-7{stroke-width:1.06px;}.cls-10,.cls-8{fill:#ccd3da;stroke:#ccd3da;}.cls-8{stroke-width:1.05px;}.cls-9{stroke-width:0.47px;}.cls-10{stroke-width:1.11px;}.cls-11{fill:#e9e3da;}.cls-12{stroke:#6d3363;stroke-width:1.04px;}.cls-13{fill:#99a6b5;}.cls-14{fill:#92461e;}.cls-15{fill:#f7941d;}.cls-16{fill:#d6dbe1;}.cls-17{fill:#742d10;}.cls-18{fill:#5d1905;}.cls-19{fill:#f03826;}.cls-20{fill:#aab5c2;}</style><clipPath id="clip-path"><rect class="cls-1" x="2.81" y="3.04" width="120.67" height="84.21"/></clipPath></defs><g id="Layer_2" data-name="Layer 2"><g id="other"><polygon class="cls-2" points="136.59 0 0 0 0 90.09 34.65 90.09 34.65 103.27 57.75 90.09 136.59 90.09 136.59 0"/><rect class="cls-3" x="2.81" y="3.04" width="131.63" height="84.21"/><g class="cls-4"><circle class="cls-5" cx="69.76" cy="39.12" r="26.62"/><circle class="cls-5" cx="50.73" cy="62.18" r="6.32"/><circle class="cls-5" cx="45.47" cy="54.51" r="6.32"/><circle class="cls-5" cx="43.13" cy="46.77" r="6.32"/><circle class="cls-5" cx="41.78" cy="38.58" r="6.32"/><circle class="cls-5" cx="42.37" cy="33.98" r="6.32"/><circle class="cls-5" cx="44.41" cy="27.04" r="6.32"/><circle class="cls-5" cx="47.04" cy="21.49" r="5.56"/><circle class="cls-5" cx="52.6" cy="17.17" r="5.56"/><circle class="cls-5" cx="63.71" cy="12.5" r="5.56"/><circle class="cls-5" cx="75.84" cy="13.08" r="5.56"/><circle class="cls-5" cx="86.14" cy="17.17" r="5.56"/><circle class="cls-5" cx="94.9" cy="26.6" r="5.56"/><circle class="cls-5" cx="97.25" cy="38.58" r="5.56"/><circle class="cls-5" cx="96.38" cy="46.77" r="5.56"/><circle class="cls-5" cx="93.58" cy="55.19" r="5.83"/><circle class="cls-5" cx="88.03" cy="62.13" r="5.83"/><circle class="cls-5" cx="80.58" cy="64.94" r="5.83"/><circle class="cls-5" cx="73.02" cy="67.13" r="5.83"/><circle class="cls-5" cx="65.9" cy="66.77" r="5.83"/><circle class="cls-5" cx="70.28" cy="11.05" r="4.68"/><circle class="cls-5" cx="56.99" cy="13.37" r="4.68"/><circle class="cls-5" cx="82.78" cy="13.96" r="4.68"/><circle class="cls-5" cx="91.69" cy="21.04" r="4.68"/><circle class="cls-5" cx="97.03" cy="32.26" r="4.68"/><circle class="cls-5" cx="57.53" cy="64.45" r="6.32"/><circle class="cls-6" cx="100.24" cy="91.05" r="8.08"/><polygon class="cls-6" points="99 140.36 110.13 140.36 108.53 90.91 92.38 90.91 99 140.36"/><circle class="cls-6" cx="100.44" cy="91.25" r="8.08"/><path class="cls-7" d="M93.06,90.9c0-.12,0-.25,0-.37v-.07h0a8.18,8.18,0,0,1,16.32.56h0l3.14,42c-.22,6.47-2.16,5.74-3.23,7.54h0v.11L98,140.32h0a13.6,13.6,0,0,1-2.14-6.53l-2.5-40.33A8,8,0,0,1,93.06,90.9Z"/><path class="cls-8" d="M109.72,142.8l-10.14,2.6h0a4.49,4.49,0,0,1-1.79-2.6L96.31,137l11.56-2.45,1,2.75a14.83,14.83,0,0,1,.93,4.32Z"/><path class="cls-9" d="M92.38,139H47.61c.56-12.62-9.52-43.58-12.69-55.32l28.8-10.24H74.48l29,10.24C98.17,97.22,91.53,131.79,92.38,139Z"/><circle class="cls-6" cx="38.05" cy="91.05" r="8.08"/><path class="cls-10" d="M97.68,149.7l2.9,12c-5.35,6.33-15,11-26.46,12.06l-3.67-5-3.23,5.19c-11.62-.37-22-4.7-27.67-10.84l2.27-9.71,55.86-3.69"/><polygon class="cls-6" points="39.5 140.16 28.37 140.16 29.97 90.71 46.11 90.71 39.5 140.16"/><circle class="cls-11" cx="68.19" cy="139.46" r="5.59"/><path class="cls-7" d="M46.24,91.05c0-.13,0-.25,0-.38V90.6h0a8.18,8.18,0,0,0-16.33,0h0L25.3,132.51c0,6.47,2,5.81,3,7.65h0v.1H39.59A13.51,13.51,0,0,0,42,133.81l3.88-40.22A8.19,8.19,0,0,0,46.24,91.05Z"/><line class="cls-12" x1="62.54" y1="138.63" x2="62.49" y2="145.2"/><line class="cls-12" x1="65.73" y1="138.63" x2="65.67" y2="145.2"/><path class="cls-7" d="M103.7,83.52,74.72,73H64L35.15,83.52c3.17,12.12,13.59,54.53,5.65,69.41-3.51,6.57,15,12.14,29.49,11.45,17.77-.51,31.38-6.68,29.29-12.69C93.27,133.53,101.05,90.52,103.7,83.52Z"/><polygon class="cls-8" points="41.39 136.86 41.52 146.23 26.64 146.72 24.02 136.86 41.39 136.86"/><polygon class="cls-13" points="61.6 71.53 77.25 71.53 77.25 73.85 71.32 78.24 67.12 78.24 61.6 71.53"/><path class="cls-13" d="M73.26,81.56,69.93,78l-1.42.26-2.89,3.51S69.9,82.74,73.26,81.56Z"/><path class="cls-14" d="M75.75,73.89c-.14.16-4.23,4.78-7.83,4.31-2.52-.33-4.25-4.39-4.57-4.78.45-5.18,1.39-10.34,1.84-15.52H73Z"/><path class="cls-15" d="M69.38,81.45c-4.51,0-8.36-3.24-10-7l-3.68,1.4c2.2,5.33,7.91,9.48,13.66,9.48s11.2-4.25,13.41-9.56L79.5,74.49C77.87,78.19,73.88,81.45,69.38,81.45Z"/><polygon class="cls-16" points="64.8 83.15 58.95 74.28 61.6 71.53 69.45 78.08 64.8 83.15"/><polygon class="cls-16" points="74.04 83.15 79.9 74.28 77.25 71.53 69.4 78.08 74.04 83.15"/><path class="cls-17" d="M63.9,68.17a14.44,14.44,0,0,0,5.2.64,14.77,14.77,0,0,0,5.51-1.42l-1-8.75H64.82C64.51,61.82,64.21,65,63.9,68.17Z"/><path class="cls-14" d="M85.42,42.6c.24,13-6.79,23.62-15.73,23.79S53.34,56.16,53.11,43.19,60,22.45,68.89,22.29,85.19,29.63,85.42,42.6Z"/><circle class="cls-5" cx="61.07" cy="45.99" r="0.98"/><circle class="cls-5" cx="77.49" cy="45.6" r="0.98"/><path class="cls-5" d="M58.23,46.28a2.63,2.63,0,0,1,1-1.29,3.71,3.71,0,0,1,1.38-.64,3.3,3.3,0,0,1,2.94.67v.11a8.52,8.52,0,0,0-2.71.24,7.79,7.79,0,0,0-2.51,1Z"/><path class="cls-5" d="M80.18,45.89a2.74,2.74,0,0,0-1.05-1.15,3.89,3.89,0,0,0-1.39-.55,4.15,4.15,0,0,0-1.49,0,2.9,2.9,0,0,0-1.4.65v.08a9.45,9.45,0,0,1,2.71.14,8.55,8.55,0,0,1,1.32.35,7.25,7.25,0,0,1,1.24.56Z"/><path class="cls-5" d="M64.7,42.72a10.49,10.49,0,0,0-3.34-1.34,7,7,0,0,0-1.3-.07,7.81,7.81,0,0,0-1.28.24,5.44,5.44,0,0,0-1.17.55,4.62,4.62,0,0,0-1.7,1.84L56,44a9.86,9.86,0,0,1,2-1.19,6.38,6.38,0,0,1,2.2-.52,9.15,9.15,0,0,1,2.27.17l2.28.33Z"/><path class="cls-5" d="M73.08,42.57a8.64,8.64,0,0,1,2.13-1.1,6.88,6.88,0,0,1,1.16-.36,6.23,6.23,0,0,1,1.3-.12,6.1,6.1,0,0,1,1.28.2,5.07,5.07,0,0,1,1.2.5,4.63,4.63,0,0,1,1.76,1.78l-.06.09a9.63,9.63,0,0,0-2-1.12A6.69,6.69,0,0,0,77.63,42a9.17,9.17,0,0,0-2.26.26c-.76.15-1.51.28-2.27.41Z"/><path class="cls-17" d="M72.9,54.64l-3.6.07-.17-9.19.49-.35.79,7.51a2.28,2.28,0,0,0,.8,1.52Z"/><path class="cls-17" d="M65.31,58.54a9.06,9.06,0,0,0,2.24.6,11.11,11.11,0,0,0,2,.11,11,11,0,0,0,2-.2,8.69,8.69,0,0,0,2.2-.73,3.22,3.22,0,0,1-1.43,2.34,5,5,0,0,1-5.39.12A3.24,3.24,0,0,1,65.31,58.54Z"/><path class="cls-17" d="M63.9,58.66a9.44,9.44,0,0,1,2.77-1,18.11,18.11,0,0,1,2.81-.34,21.78,21.78,0,0,1,2.8,0,18.51,18.51,0,0,1,2.86.43,8.78,8.78,0,0,1-2.73,1.11,15.26,15.26,0,0,1-2.84.38,20.44,20.44,0,0,1-2.82-.08A15.64,15.64,0,0,1,63.9,58.66Z"/><polygon class="cls-18" points="69.32 55.93 69.3 54.7 72.9 54.64 69.32 55.93"/><polygon class="cls-17" points="69.34 55.93 69.32 54.71 65.54 54.78 69.34 55.93"/><path class="cls-17" d="M71.78,43.34a3.63,3.63,0,0,0-2.65,2.18l0,2.1A5.67,5.67,0,0,1,71.78,43.34Z"/><path class="cls-17" d="M56.33,27.19s2.26,7.75,14.72,8,13,4.5,13.84,8c0,0,.59-8-1.48-11S56.33,27.19,56.33,27.19Z"/><path class="cls-5" d="M56.09,26.67s2.56,8,19.14,7.15a6.76,6.76,0,0,1,3.37.68c2.75,1.37,7.25,5,6.43,13.59h5.61l1.68-22.52L66.26,15Z"/><path class="cls-17" d="M75.56,56.84a1.66,1.66,0,0,1,.71.68,2.33,2.33,0,0,1,.29,1,2.37,2.37,0,0,1-.15,1,4.48,4.48,0,0,1-.2.44,3,3,0,0,1-.31.39A8.68,8.68,0,0,0,76,58.52,4,4,0,0,0,75.56,56.84Z"/><path class="cls-17" d="M63.61,60.52A1.66,1.66,0,0,1,62.8,60a2.14,2.14,0,0,1-.46-.9,2.41,2.41,0,0,1,0-1,4.12,4.12,0,0,1,.13-.47,3.55,3.55,0,0,1,.23-.43A8.28,8.28,0,0,0,62.85,59,4.15,4.15,0,0,0,63.61,60.52Z"/><path class="cls-17" d="M61.64,38.78a25.29,25.29,0,0,1,3.24-.59c1.09-.14,2.19-.21,3.29-.26a25.88,25.88,0,0,1,6.57.56c-1.1,0-2.19-.09-3.28-.09s-2.18,0-3.27.05C66,38.52,63.83,38.65,61.64,38.78Z"/><path class="cls-17" d="M64.2,36.79a13,13,0,0,1,2-.43,16.68,16.68,0,0,1,2-.18,12.87,12.87,0,0,1,4,.44l-2,0-2,.06C66.87,36.73,65.55,36.8,64.2,36.79Z"/></g><rect class="cls-5" x="2.81" y="80.65" width="131.63" height="6.7"/><circle class="cls-19" cx="62.64" cy="83.99" r="1.86"/><circle class="cls-20" cx="68.63" cy="83.99" r="1.86"/><circle class="cls-20" cx="74.61" cy="83.99" r="1.86"/></g></g></svg>