<svg xmlns="http://www.w3.org/2000/svg" viewBox="0 0 126.08 139.66"><defs><style>.cls-1{fill:#335b57;}.cls-2{fill:none;stroke:#fff;stroke-linecap:round;stroke-miterlimit:10;}.cls-3{fill:#799996;}.cls-4{fill:#c6d1d0;}.cls-5{fill:#557673;}.cls-6{fill:#00322d;}.cls-7{fill:#ffb414;}.cls-8{fill:#ffc343;}.cls-9{fill:#ffe1a1;}</style></defs><g id="Layer_2" data-name="Layer 2"><g id="icons"><circle class="cls-1" cx="63.04" cy="63.04" r="63.04"/><polyline class="cls-2" points="31.8 28.21 31.8 71.71 90.66 107.8"/><polygon class="cls-3" points="37.41 80.03 44.2 75.53 44.2 64.41 37.41 68.91 37.41 80.03"/><polygon class="cls-4" points="44.2 64.38 37.41 68.86 27.35 62.74 34.14 58.27 44.2 64.38"/><polygon class="cls-5" points="37.41 80.03 27.35 73.86 27.35 62.74 37.41 68.91 37.41 80.03"/><polygon class="cls-3" points="50.95 88.34 57.74 83.85 57.74 64.41 50.95 68.91 50.95 88.34"/><polygon class="cls-4" points="57.74 64.39 50.95 68.86 40.89 62.75 47.68 58.27 57.74 64.39"/><polygon class="cls-6" points="50.95 88.34 40.89 82.18 40.89 62.75 50.95 68.91 50.95 88.34"/><polygon class="cls-3" points="64.48 96.65 71.28 92.15 71.28 81.03 64.48 85.53 64.48 96.65"/><polygon class="cls-4" points="71.28 81 64.48 85.47 54.43 79.36 61.22 74.89 71.28 81"/><polygon class="cls-5" points="64.48 96.65 54.43 90.48 54.43 79.36 64.48 85.53 64.48 96.65"/><polygon class="cls-3" points="78.02 104.97 84.81 100.47 84.81 81.04 78.02 85.54 78.02 104.97"/><polygon class="cls-4" points="84.81 81.01 78.02 85.49 67.96 79.37 74.76 74.9 84.81 81.01"/><polygon class="cls-6" points="78.02 104.97 67.96 98.81 67.96 79.37 78.02 85.54 78.02 104.97"/><path class="cls-7" d="M60.62,18.55c10.23-5.91,18.52-1.12,18.52,10.69S70.85,55.41,60.62,61.32,42.1,62.44,42.1,50.63,50.4,24.46,60.62,18.55Z"/><polygon class="cls-7" points="78.72 20.04 73.01 16.89 49.56 30.02 45.61 40.9 47.24 62.44 52.18 65.17 78.72 20.04"/><ellipse class="cls-8" cx="65.08" cy="42.38" rx="22.06" ry="12.74" transform="translate(-4.16 77.55) rotate(-60)"/><path class="cls-7" d="M59.25,59.67c8.62-5,15.6-17.08,15.6-27,0-5.1-1.84-8.64-4.79-10.21,6.17-1.17,10.62,3,10.62,10.94,0,10-7,22.05-15.6,27-4.2,2.43-8,2.71-10.81,1.21A16.23,16.23,0,0,0,59.25,59.67Z"/><path class="cls-9" d="M65.08,21c10.23-5.9,18.52-1.12,18.52,10.69S75.31,57.85,65.08,63.76,46.56,64.88,46.56,53.07,54.85,26.9,65.08,21ZM50.65,50.71c0,9.2,6.46,12.93,14.43,8.33S79.51,43.25,79.51,34s-6.46-12.93-14.43-8.33S50.65,41.5,50.65,50.71Z"/><path class="cls-7" d="M68.7,42.78a7.74,7.74,0,0,1-1.21,4.1,11.5,11.5,0,0,1-3.38,3.48v2.73l-1.43.83V51.25a10,10,0,0,1-4.49,1.44V49.18a7.73,7.73,0,0,0,2.19-.26,10.88,10.88,0,0,0,2.3-.8V44l-.71.07A4.17,4.17,0,0,1,59,43.5,3.12,3.12,0,0,1,58.17,41a7.27,7.27,0,0,1,1.19-3.86,11.69,11.69,0,0,1,3.32-3.42v-2l1.43-.83v2a10,10,0,0,1,4.35-1.28l-1,3.68a9.27,9.27,0,0,0-3.36.9V40a9.35,9.35,0,0,1,2.92.05,2,2,0,0,1,1.26.87A3.43,3.43,0,0,1,68.7,42.78Zm-7.38-3.62a.85.85,0,0,0,.32.78,2,2,0,0,0,1,.18V37A2.82,2.82,0,0,0,61.32,39.16Zm4.22,5.64a.75.75,0,0,0-.36-.74,2.43,2.43,0,0,0-1.07-.18V47.2A3.16,3.16,0,0,0,65.54,44.8Z"/><path class="cls-9" d="M69.76,42.8a7.83,7.83,0,0,1-1.21,4.1,11.76,11.76,0,0,1-3.38,3.49v2.72l-1.44.83V51.27a10.06,10.06,0,0,1-4.49,1.45V49.2a7.75,7.75,0,0,0,2.2-.25,10.09,10.09,0,0,0,2.29-.81V44l-.7.06a4.1,4.1,0,0,1-2.94-.56A3.1,3.1,0,0,1,59.22,41a7.33,7.33,0,0,1,1.19-3.86,11.84,11.84,0,0,1,3.32-3.43v-2l1.44-.83v2a9.85,9.85,0,0,1,4.34-1.29l-1,3.69a9.07,9.07,0,0,0-3.36.9v3.92a9.61,9.61,0,0,1,2.91,0,2.07,2.07,0,0,1,1.27.88A3.39,3.39,0,0,1,69.76,42.8Zm-7.38-3.61a.85.85,0,0,0,.32.78,2.08,2.08,0,0,0,1,.18V37A2.83,2.83,0,0,0,62.38,39.19Zm4.22,5.64a.74.74,0,0,0-.36-.74,2.46,2.46,0,0,0-1.07-.18v3.31A3.13,3.13,0,0,0,66.6,44.83Z"/><polygon class="cls-7" points="65.17 30.86 64.11 30.83 62.68 31.66 63.73 31.68 65.17 30.86"/><polygon class="cls-7" points="62.68 53.92 63.73 53.94 63.73 52.67 62.68 53.92"/><polygon class="cls-1" points="63.04 118.35 50.99 124.82 63.04 139.66 75.09 124.82 63.04 118.35"/></g></g></svg>