<svg xmlns="http://www.w3.org/2000/svg" viewBox="0 0 99.57 99.57"><defs><style>.cls-1{fill:#2d0032;}.cls-2{fill:#ab99ad;}.cls-3{fill:#816684;}.cls-4{fill:#fff;}</style></defs><g id="Layer_2" data-name="Layer 2"><g id="Final_gfx" data-name="Final gfx"><circle class="cls-1" cx="49.78" cy="49.78" r="49.78"/><polygon class="cls-2" points="60.09 60.6 52.23 26.41 44.37 51.52 31.53 23.55 36.24 56.32 52.23 65.54 68.21 74.77 72.92 47.45 60.09 60.6"/><ellipse class="cls-2" cx="52.23" cy="26.41" rx="2.65" ry="4.6" transform="translate(-6.21 29.65) rotate(-30)"/><ellipse class="cls-2" cx="31.53" cy="23.59" rx="2.65" ry="4.6" transform="translate(-7.57 18.92) rotate(-30)"/><ellipse class="cls-2" cx="72.92" cy="47.46" rx="2.65" ry="4.6" transform="translate(-13.96 42.82) rotate(-30)"/><ellipse class="cls-2" cx="52.35" cy="56.78" rx="3.05" ry="5.28" transform="translate(-21.38 33.78) rotate(-30)"/><path class="cls-2" d="M68.28,77.2,36.42,58.8a2.77,2.77,0,0,1-1.16-2.21h0c0-.86.52-1.25,1.16-.88l31.86,18.4a2.77,2.77,0,0,1,1.16,2.21h0C69.44,77.18,68.92,77.57,68.28,77.2Z"/><polygon class="cls-2" points="64.13 80.11 69.08 77.24 68.17 75.27 63.79 73.31 62.46 72.88 62.1 74.77 64.13 80.11"/><polygon class="cls-2" points="65.74 46.31 70.61 43.49 71.16 44.49 71.71 47.71 72.39 49.16 71.5 50.45 70.1 50.93 68.38 50.04 65.74 46.31"/><path class="cls-2" d="M45,25.29l5-2.88,2.26,4.27.51,1.49L52.42,32,52,33.9l-2.55,3.15-1.06.87s-.32-2.22-.32-2.5-.79-5.19-.87-5.25S45,25.29,45,25.29Z"/><path class="cls-2" d="M24.41,22.41l4.83-2.81,1.62,2.81,1.44,4,1.27,5.75,2.3,7.44-1.35,7.11-2.22-3.2L27.64,30.43s-2.7-3.3-2.7-3.53S24.41,22.41,24.41,22.41Z"/><polygon class="cls-2" points="49.58 33.26 54.55 30.38 53.75 28.48 52.13 27.75 50.31 28.8 49.18 32.55 49.58 33.26"/><path class="cls-2" d="M70.29,54.3l5-2.9a9.81,9.81,0,0,0-.84-1.87c-.2-.12-2-.76-2-.76h-1.1l-1.54,1.52Z"/><polygon class="cls-3" points="55.2 63.43 47.34 29.25 39.48 54.35 26.64 26.39 31.36 59.15 47.34 68.38 63.32 77.61 68.04 50.29 55.2 63.43"/><ellipse class="cls-3" cx="47.34" cy="29.25" rx="2.65" ry="4.6" transform="translate(-8.28 27.59) rotate(-30)"/><ellipse class="cls-3" cx="26.64" cy="26.42" rx="2.65" ry="4.6" transform="translate(-9.64 16.86) rotate(-30)"/><ellipse class="cls-3" cx="68.04" cy="50.29" rx="2.65" ry="4.6" transform="translate(-16.03 40.76) rotate(-30)"/><ellipse class="cls-4" cx="47.46" cy="59.61" rx="3.05" ry="5.28" transform="translate(-23.45 31.72) rotate(-30)"/><path class="cls-2" d="M63.39,80,31.53,61.64a2.78,2.78,0,0,1-1.16-2.22h0c0-.85.52-1.25,1.16-.88l31.86,18.4a2.78,2.78,0,0,1,1.16,2.22h0C64.55,80,64,80.4,63.39,80Z"/></g></g></svg>