<svg xmlns="http://www.w3.org/2000/svg" viewBox="0 0 452.89 229.15"><defs><style>.cls-1{fill:#557673;}.cls-2{fill:#1c4944;}.cls-3{fill:#fdd072;}.cls-4{fill:#002147;}.cls-5{fill:#e0b097;}.cls-6{fill:#ffb014;}.cls-10,.cls-7{fill:#cb7c51;}.cls-7{opacity:0.43;}.cls-8{fill:#c65552;}.cls-9{fill:#d59674;}.cls-11{fill:#7d4921;}.cls-12{fill:#dfb28b;}.cls-13{fill:#39605c;}.cls-14{fill:#5c3960;}.cls-15,.cls-18,.cls-19,.cls-25{fill:none;}.cls-15{stroke:#a28ea4;stroke-width:5px;}.cls-15,.cls-25{stroke-miterlimit:10;}.cls-16{fill:#395370;}.cls-17,.cls-20,.cls-21,.cls-23{fill:#fff;}.cls-18{stroke:#f03826;}.cls-18,.cls-19,.cls-20,.cls-21,.cls-23{stroke-linecap:round;stroke-linejoin:round;}.cls-19{stroke:#557673;}.cls-20,.cls-21{stroke:#002147;}.cls-20,.cls-23{stroke-width:1.13px;}.cls-21{stroke-width:2.27px;}.cls-22{fill:#8e9dad;}.cls-23{stroke:#ffb414;}.cls-24{fill:#718399;}.cls-25{stroke:#39605c;}.cls-26{fill:#8ea4a2;}.cls-27{fill:#556b84;}</style></defs><g id="Layer_2" data-name="Layer 2"><g id="illustrations"><path class="cls-1" d="M284.32,132.78l6.36,81.41s-31.31,2-32.07,2-15.94-5.12-16.13-6.07.57-25.05,1.9-30,7-41.94,7-41.94l15.19-4.37Z"/><path class="cls-1" d="M155.9,214.19l1.78-6.07-12.47-3.29-13-11.34-9,13.1s1,14.47,1.28,15.12,10.94,1.14,13.27,1a39.22,39.22,0,0,0,7.75-1C147,221.19,155.9,214.19,155.9,214.19Z"/><circle class="cls-1" cx="124.53" cy="204.83" r="13.72"/><polygon class="cls-1" points="180.38 134.86 166.2 212.82 142.55 209.63 149.54 130.7 180.38 134.86"/><path class="cls-2" d="M219.54,93.22c.07-.1,27.24-3.47,30.9,16.28L215.66,113Z"/><path class="cls-2" d="M214.47,93.22c-.07-.1-27.24-3.47-30.9,16.28L218.35,113Z"/><path class="cls-3" d="M208.34,8.2a18,18,0,0,1,2.45-2.88c.44-.42.91-.81,1.37-1.2s1-.75,1.48-1.07A18,18,0,0,1,220.28.33a13.21,13.21,0,0,1,1.77-.24l.88-.09h.89c.58,0,1.17,0,1.75.06l1.73.26a8.11,8.11,0,0,1,.86.14L229,.7l1.66.45c1.08.38,2.14.85,3.19,1.26-1.1-.29-2.19-.63-3.29-.88l-1.68-.26-.83-.13c-.28,0-.56,0-.84,0l-1.67-.06c-.56,0-1.11.1-1.66.14l-.82.08-.81.18a13.52,13.52,0,0,0-1.58.4A16.12,16.12,0,0,0,215,4.94c-.42.33-.79.73-1.18,1.08s-.73.78-1.07,1.18a15.44,15.44,0,0,0-1.71,2.53Z"/><path class="cls-4" d="M108.9,211.22a2.09,2.09,0,0,1-2-2.82c1.39-3.82,5.09-8.41,6.48-8.41h16.66c1.39,0,5,4.6,6.29,8.43a2.1,2.1,0,0,1-2,2.8Z"/><rect class="cls-5" x="132.25" y="200.25" width="5.55" height="6.9" rx="2.72"/><rect class="cls-5" x="106.99" y="200.29" width="5.12" height="6.3" rx="2.25"/><rect class="cls-5" x="117.59" y="192.89" width="5.66" height="10.09" rx="2.83"/><rect class="cls-5" x="125.3" y="193.53" width="5.66" height="8.61" rx="2.69"/><rect class="cls-5" x="111.44" y="195.68" width="5.66" height="8.61" rx="2.69"/><path class="cls-6" d="M188.7,62.22s-6.76-7.21-5.91-20.08l7.37.93L192.91,58Z"/><path class="cls-6" d="M244.68,62.22s7.37-4,6.65-15.21l-10.86-8.94,1,2,.2,20.44Z"/><path class="cls-5" d="M267.34,117.08l-43.09-15.54H209l-46.18,16.3c4.29,11,34.48,71.43,24.27,99.91-3.07,8.55,5.89.4,24.16,1.71l13.2-1.86c18.27-1.31,26.21,8.39,23.15-.15C237.4,189,263.05,128.06,267.34,117.08Z"/><path class="cls-5" d="M228.61,104.06c-.31.29-4,4-12.22,3.12-5.75-.62-10.88-2.4-11.62-3.12.44-4.23.9-8.45,1.34-12.68l1.71-16.11h17.73l1.73,16.32Z"/><path class="cls-7" d="M227.28,91.59a33.19,33.19,0,0,1-21.17-.21l1.71-16.11h17.73Z"/><ellipse class="cls-5" cx="216.69" cy="49.06" rx="29.59" ry="40.41"/><path class="cls-8" d="M210.67,75.41a15.16,15.16,0,0,0,4.07,1.14,18.26,18.26,0,0,0,3.76.11,16.85,16.85,0,0,0,3.68-.66A14.64,14.64,0,0,0,226,74.25a6,6,0,0,1-2.54,4.18,8.92,8.92,0,0,1-4.73,1.71,9.13,9.13,0,0,1-4.92-1A6.09,6.09,0,0,1,210.67,75.41Z"/><path class="cls-8" d="M208.1,75.77a19,19,0,0,1,5-1.82,41,41,0,0,1,5.12-.82c1.71-.17,3.41-.24,5.13-.24a41.2,41.2,0,0,1,5.25.3,17.16,17.16,0,0,1-4.94,2.06,32.48,32.48,0,0,1-5.15.9,40.61,40.61,0,0,1-5.17.17A36.85,36.85,0,0,1,208.1,75.77Z"/><path class="cls-9" d="M221.15,68l-4.48,0-.09-16.84.9-.63,1.27,13.78a4.25,4.25,0,0,0,1.43,2.81Z"/><polygon class="cls-10" points="216.69 70.24 216.67 68 221.15 67.98 216.69 70.24"/><polygon class="cls-9" points="216.72 70.25 216.71 68.02 212.22 68.04 216.72 70.25"/><path class="cls-9" d="M221.85,47.23a6.64,6.64,0,0,0-4.91,3.93L217,55S217,50.63,221.85,47.23Z"/><circle class="cls-4" cx="231.55" cy="52.37" r="1.79"/><path class="cls-4" d="M236.48,52.23a5,5,0,0,0-2-2,7.25,7.25,0,0,0-5.34-.75,5.34,5.34,0,0,0-2.5,1.3l0,.16a17.31,17.31,0,0,1,5,0,14.52,14.52,0,0,1,2.44.52,13.31,13.31,0,0,1,2.32.91Z"/><circle class="cls-4" cx="201.83" cy="52.39" r="1.79"/><path class="cls-4" d="M196.9,52.23a5,5,0,0,1,2-2,7.25,7.25,0,0,1,5.34-.75,5.34,5.34,0,0,1,2.5,1.3l0,.16a17.38,17.38,0,0,0-5,0,14.4,14.4,0,0,0-2.43.52,13.31,13.31,0,0,0-2.32.91Z"/><path class="cls-11" d="M208.89,44.35a16.09,16.09,0,0,0-4.07-1.68,15.54,15.54,0,0,0-2.17-.47,12.72,12.72,0,0,0-2.39,0,12.29,12.29,0,0,0-2.32.57,9.36,9.36,0,0,0-2.1,1.11,8.34,8.34,0,0,0-2.93,3.53l.12.14a17.45,17.45,0,0,1,3.46-2.35,12.11,12.11,0,0,1,4-1.15,16.29,16.29,0,0,1,4.18.1c1.4.15,2.8.28,4.21.4Z"/><path class="cls-11" d="M224.22,45.45A16.09,16.09,0,0,1,228,43.23a17.16,17.16,0,0,1,2.08-.77,12.52,12.52,0,0,1,2.37-.32,11.86,11.86,0,0,1,2.38.24,9.75,9.75,0,0,1,2.23.81,8.37,8.37,0,0,1,3.38,3.1l-.1.16a17.47,17.47,0,0,0-3.75-1.86,12.19,12.19,0,0,0-4.11-.6,16.21,16.21,0,0,0-4.12.68c-1.37.34-2.74.66-4.12,1Z"/><path class="cls-1" d="M260.6,146.65a489,489,0,0,0-6.11,71.83c0,1.66,0,3.34,0,5H179s0-1.85,0-5c-.09-12.94-.56-47.8-3.16-64.83a172.27,172.27,0,0,0-16-35.74l38.65-12.69s4.2,16.38,18.23,16.62,17.88-16.62,17.88-16.62l38.74,12.86S247.8,128.05,260.6,146.65Z"/><path class="cls-12" d="M186.75,40a28.18,28.18,0,0,0,16.62-16.27s12,18.45,39.6,18.92L213.54,23.05l-7.25-6.18-7.06-.9-4.37,7.08Z"/><path class="cls-3" d="M203,21s13.62,17.53,31.21,19.63S251.38,51,251.38,51s9-61.47-42.06-45.76l-8.2,6.28Z"/><path class="cls-3" d="M188.06,38.29S200.1,33.5,203,21s6.32-15.76,6.32-15.76A14.88,14.88,0,0,0,193.66,6c-9.66,6.25-24.37,27.2-6.38,47.66Z"/><path class="cls-3" d="M207,5.43c.1,1,.13,1.77.15,2.64s0,1.7,0,2.54c-.05,1.69-.21,3.36-.42,5a47.32,47.32,0,0,1-2.4,9.72c-.31.77-.55,1.57-.92,2.32l-1,2.25c-.37.74-.82,1.44-1.22,2.16l-.62,1.07-.72,1a37,37,0,0,1-6.55,7.24,36.81,36.81,0,0,0,5.59-7.83l.58-1,.47-1.1c.31-.73.65-1.45.92-2.19l.75-2.26c.27-.74.41-1.53.61-2.28a44.08,44.08,0,0,0,1.19-9.33c0-1.57,0-3.13-.15-4.68a34.15,34.15,0,0,0-.62-4.5Z"/><circle class="cls-1" cx="268.62" cy="132.78" r="15.69"/><circle class="cls-1" cx="164.96" cy="132.78" r="15.69"/><path class="cls-13" d="M205.93,93.1s-12,2.39-6.75,7.67l-15.61,8.73a17.17,17.17,0,0,1,8-12.27A31.47,31.47,0,0,1,205.93,93.1Z"/><path class="cls-13" d="M228.08,93.1s11.65,2.06,6.4,7.33l16,9.07a17.17,17.17,0,0,0-8-12.27A31.41,31.41,0,0,0,228.08,93.1Z"/><path class="cls-14" d="M206.11,115.42c0,.49,11.28,5.82,20.32,0l-2,2.63-.9,6.23-.15,6.73-.15,20.25-7.56,1.88-4.55,7.17s-3.76-36-3.57-36.19S206.11,115.42,206.11,115.42Z"/><path class="cls-15" d="M206,118.57c.06-.71,11.31,5.4,21.35-.85"/><path class="cls-13" d="M210.59,155.41s.56-16.18.51-19.84c-.07-5.55-.71-13.83-3.83-19.89-2.52-4.9-7.85-18.52-12.29-17.18-5.93,1.79-11.41,11-11.41,11,.3,6,9.65,6,14.48,8.77a24,24,0,0,1,8.49,9.17c1.67,3.14,1.78,8.92,1.82,12.48v15.49Z"/><path class="cls-13" d="M239,98.5c-4.44-1.34-12.53,11.87-15.05,16.77-3.12,6-2.29,28.78-2.1,34,.28,7.75-3,19.58-3,19.58l2.24,2.53,3.27-19.31c0-3.57-.38-21.33.67-23.31,2-3.77,4.11-7.8,7.15-9.54,4.83-2.75,17.9-3.75,18.2-9.7C250.44,109.5,245,100.29,239,98.5Z"/><rect class="cls-16" y="211.37" width="452.89" height="17.78"/><path class="cls-17" d="M313,195.49h56a5,5,0,0,1,5,5v5.09a5,5,0,0,1-5,5H313a0,0,0,0,1,0,0V195.49A0,0,0,0,1,313,195.49Z"/><path class="cls-18" d="M311.19,195.24h57.75a5.54,5.54,0,0,1,5.54,5.54v4.61a5.55,5.55,0,0,1-5.54,5.54H311.19"/><path class="cls-17" d="M310.67,178.78h56a5,5,0,0,1,5,5v5.09a5,5,0,0,1-5,5h-56a0,0,0,0,1,0,0V178.78A0,0,0,0,1,310.67,178.78Z" transform="translate(682.41 372.75) rotate(-180)"/><path class="cls-19" d="M373.54,178.53H315.79a5.54,5.54,0,0,0-5.54,5.54v4.61a5.54,5.54,0,0,0,5.54,5.54h57.75"/><line class="cls-20" x1="403.96" y1="149.4" x2="403.98" y2="172.14"/><line class="cls-21" x1="412.76" y1="144.98" x2="412.83" y2="209.04"/><rect class="cls-22" x="397.86" y="207.24" width="30.83" height="4.11" transform="translate(-0.23 0.46) rotate(-0.06)"/><polygon class="cls-3" points="436.89 152.17 388.14 152.22 394.18 97.3 430.73 97.26 436.89 152.17"/><circle class="cls-16" cx="403.98" cy="172.79" r="2.96"/><line class="cls-23" x1="393.48" y1="103.66" x2="431.44" y2="103.62"/><line class="cls-23" x1="389.82" y1="146" x2="435.2" y2="145.95"/><path class="cls-24" d="M154.28,208.72H278.06a0,0,0,0,1,0,0v.3a2.35,2.35,0,0,1-2.35,2.35H156.63a2.35,2.35,0,0,1-2.35-2.35v-.3A0,0,0,0,1,154.28,208.72Z"/><path class="cls-4" d="M263.73,211.23H168.6a2.24,2.24,0,0,1-2.27-2l-5.27-61.13a2.2,2.2,0,0,1,2.28-2.3H269a2.19,2.19,0,0,1,2.27,2.3L266,209.27A2.24,2.24,0,0,1,263.73,211.23Z"/><circle class="cls-24" cx="216.17" cy="178.53" r="7.81"/><path class="cls-25" d="M13.38,125.15a26,26,0,0,1,16.89,19.06"/><path class="cls-25" d="M52.79,125.15A26,26,0,0,0,35.9,144.21"/><path class="cls-25" d="M52.79,115.49s-15,6-18.51,28.77"/><path class="cls-25" d="M40,90S33.48,115,33.16,141.3"/><path class="cls-25" d="M18.28,102.57s12.35,19,13,38.81"/><ellipse class="cls-26" cx="39.81" cy="88.77" rx="9.35" ry="4.59" transform="translate(-53.08 117.69) rotate(-83.15)"/><ellipse class="cls-1" cx="41.61" cy="91.47" rx="9.35" ry="4.59" transform="translate(-58.79 95.88) rotate(-68.05)"/><ellipse class="cls-13" cx="37.87" cy="91.03" rx="4.59" ry="9.35" transform="translate(-7.03 3.25) rotate(-4.5)"/><ellipse class="cls-26" cx="20.65" cy="104.21" rx="4.59" ry="9.35" transform="translate(-36.97 14.96) rotate(-21.64)"/><ellipse class="cls-1" cx="23.53" cy="105.73" rx="4.59" ry="9.35" transform="translate(-11.89 3.37) rotate(-6.54)"/><ellipse class="cls-13" cx="20.02" cy="107.12" rx="4.59" ry="9.35" transform="translate(-55.1 28.18) rotate(-32.99)"/><path class="cls-27" d="M52.47,188.47c0,7.32-4,16.64-9.86,22.06a3.19,3.19,0,0,1-2.13.84H24.88a3.16,3.16,0,0,1-2.19-.9,34.53,34.53,0,0,1-9.78-20.6c-.52-7.56,4.07-13.2,9-18.05,3.49-3.41,7.13-9.21,7.26-14.37l0-.47c.12-4.61-1.33-13.18-2.19-15.39H38.3c-.86,2.22-2.3,10.78-2.18,15.39v.47c.14,5.13,3.77,11,7.2,14.33C48,176.34,52.47,181.46,52.47,188.47Z"/></g></g></svg>