<svg xmlns="http://www.w3.org/2000/svg" xmlns:xlink="http://www.w3.org/1999/xlink" viewBox="0 0 482.11 258.01"><defs><style>.cls-1{fill:#e3e8e8;}.cls-2{fill:#8e572a;}.cls-3{fill:#a46c35;}.cls-4{fill:#7d4921;}.cls-5,.cls-6{fill:#002147;}.cls-6{stroke:#002147;}.cls-6,.cls-7,.cls-8,.cls-9{stroke-miterlimit:10;}.cls-6,.cls-9{stroke-width:1.38px;}.cls-30,.cls-7{fill:#99a6b5;}.cls-7{stroke:#99a6b5;stroke-width:1.37px;}.cls-8{fill:#ccd3da;stroke:#ccd3da;stroke-width:1.92px;}.cls-9{fill:#113053;stroke:#113053;}.cls-10{fill:#395370;}.cls-11{fill:#5c3960;}.cls-12{fill:#fdd072;}.cls-13{fill:#ffb014;}.cls-14{fill:#e0b097;}.cls-15{fill:#cb7c51;opacity:0.43;}.cls-16{fill:#d59674;}.cls-17{fill:#c65552;}.cls-18{fill:#718d8a;}.cls-19{fill:#735576;}.cls-20{fill:#a28ea4;}.cls-21{fill:#1c4944;}.cls-22{fill:#8ea4a2;}.cls-23{fill:url(#linear-gradient);}.cls-24{fill:url(#linear-gradient-2);}.cls-25{fill:url(#linear-gradient-3);}.cls-26{fill:url(#linear-gradient-4);}.cls-27{fill:url(#linear-gradient-5);}.cls-28{fill:url(#linear-gradient-6);}.cls-29{fill:#fff;}</style><linearGradient id="linear-gradient" x1="128.47" y1="183.94" x2="143.24" y2="183.94" gradientUnits="userSpaceOnUse"><stop offset="0" stop-color="#fff"/><stop offset="1" stop-color="#fff" stop-opacity="0"/></linearGradient><linearGradient id="linear-gradient-2" x1="145.54" y1="183.94" x2="160.31" y2="183.94" xlink:href="#linear-gradient"/><linearGradient id="linear-gradient-3" x1="162.61" y1="183.94" x2="177.38" y2="183.94" xlink:href="#linear-gradient"/><linearGradient id="linear-gradient-4" x1="287.06" y1="181.18" x2="301.83" y2="181.18" xlink:href="#linear-gradient"/><linearGradient id="linear-gradient-5" x1="304.13" y1="181.18" x2="318.9" y2="181.18" xlink:href="#linear-gradient"/><linearGradient id="linear-gradient-6" x1="321.2" y1="181.18" x2="335.97" y2="181.18" xlink:href="#linear-gradient"/></defs><g id="Layer_2" data-name="Layer 2"><g id="illustrations"><polygon class="cls-1" points="0 148.7 0 243.72 88.94 243.72 88.94 137.71 0 148.7"/><polygon class="cls-1" points="482.11 243.72 482.11 40.3 0 40.3 0 172.38 82 172.38 82 243.72 482.11 243.72"/><path class="cls-2" d="M363.43,129.58s-.4-6.09-2.84-9.65-3.77-3.43-6.54-9.38-6.29-8.73-5.76-11.35,2-.77,2.76-3.85-1-2.9.44-4.41,4.05-1,5.42-1.92,1.52-3,3.18-4,4.23.26,6.19,1.44,2.39-.18,4.64.25c2.88.55,1.84,4.64,2.15,7.82.38,4,6.59,5.66,7.2,7.65s0,4.91-1.62,8c-1.76,3.5-1.85,11-1.85,11l-.29,9.08"/><path class="cls-2" d="M364.52,97.77c5.38.12,9.25,5,9.25,5a2.34,2.34,0,0,1,1.5-1s-1.75-1.09-2-4.49,1.7-4.78,3.07-4.52c1,.19,1.29,2.61,1.74,3.65s2.82,3.83,3,4.6c.4,1.46-.18,4.85-1.55,7s-3.15,2.72-5,3.38c-3.7,1.33-13.53-2.48-13.53-2.48"/><path class="cls-3" d="M357,130.05s.59-7.26-1.33-11.11-3.26-3.92-5.19-10.19-5-9.52-4.15-12,2.07-.49,3.26-3.43-.59-3,1-4.31,4.15-.42,5.63-1.16S358.22,85,360,84.25s4.15.85,5.92,2.28,3.56-.55,5.79,0,1.92,4.06,1.48,6.75.15,8.32,1.92,9.21,5.9,1.35,6.23,3.4-2.27,4.23-5.48,6.23-3.12,7.26-3.12,7.26l1.34,10.67"/><path class="cls-2" d="M357.87,84.93l4.47,7.9A2.6,2.6,0,0,1,361.25,96a2.37,2.37,0,0,1-3.17-.42c-1.37-1.88-3.26-4.76-4.93-7.56,0,0-1.49-2.77,1-4.21C356.51,82.47,357.87,84.93,357.87,84.93Z"/><path class="cls-2" d="M350.22,91.06l6,4.38a2.31,2.31,0,0,1,.2,3,2.19,2.19,0,0,1-2.82.78c-1.81-1.07-3.92-2.21-6.31-3.93,0,0-2.23-1.78-.63-3.86A2.47,2.47,0,0,1,350.22,91.06Z"/><path class="cls-2" d="M368.81,84.72l.74,7.19a2.32,2.32,0,0,1-2.06,2.22,2.2,2.2,0,0,1-2.5-1.52c-.46-2-1.08-4.36-1.47-7.29a2.45,2.45,0,0,1,2.23-2.89C368.19,82.18,368.81,84.72,368.81,84.72Z"/><path class="cls-2" d="M348,101.45l4.16,3.69a2.07,2.07,0,0,1,.18,2.71,2,2,0,0,1-2.54.71c-1.63-1-2.25-1.73-4.4-3.29,0,0-2-1.59-.57-3.47A2.23,2.23,0,0,1,348,101.45Z"/><path class="cls-3" d="M413.13,77.5,410.21,46l-12.27-2.55-5.55,34.17L372.16,85,380,86.58l10.5,25.68,30.24-9.48L418,96.63A62.44,62.44,0,0,1,413.13,77.5Z"/><path class="cls-4" d="M397.63,55.68s10.86,19.93-14.3,39.1l-4.15-10.14L403.54,57.1"/><path class="cls-3" d="M355,68.12l5.79-.3a5.34,5.34,0,0,0,.62,1.42,1.1,1.1,0,0,1,1.09.37c.39.39.28,2.84.28,2.84s-.23,1.52-.23,1.52l1.65,1.38-.23,1a1.17,1.17,0,0,0,.1.85,2.08,2.08,0,0,0,.73.86,2.33,2.33,0,0,0,1.8.17v.23l0,.31v.17c0,.2,0,.33,0,.36s0,.23,0,.33,0,.29,0,.41a7.38,7.38,0,0,0,0,1.94c2.06,7.67,10.61,5.63,10.61,5.63,11.47-2.15,15.93-4,24-10.42,4.92-3.92,9.28-14.92,10.3-24.6l1.61-2.65a25.39,25.39,0,0,0,.86-25.48c-.29-.49-.58-1-.9-1.48s-.63-1-1-1.41a31.78,31.78,0,0,0-8.61-8A31,31,0,0,0,363,19.59a30.37,30.37,0,0,0-5.53,10.16l-.34,1.18c-.23.75-.42,1.49-.58,2.27-.06.31-.13.63-.2,1a34.75,34.75,0,0,0-.46,9.05l2.85,8.09Z"/><path class="cls-5" d="M374,42.54a9,9,0,0,0-6-1.63,14.35,14.35,0,0,1-7.15-1.24c-.19,1.71-.15,3.9,1.77,5,1.18.65,3,.45,4.3.43,3.42-.06,3.38-.32,4.95-.19,3.61.3,4.46,1.64,5.21,2.58C377.26,45.66,375.61,43.52,374,42.54Z"/><path class="cls-2" d="M362.54,74l1.67,1.38c.06,0,3.22-.75,4.36-1l1.17-.28a8.69,8.69,0,0,1,1.88-.43,11,11,0,0,0-1.49.1s-.93.07-1.81.07l-.78,0-2.49-.35-1.11-.19A10.26,10.26,0,0,1,362.54,74Z"/><path class="cls-2" d="M366.55,80l1.5-2.58a14.07,14.07,0,0,1-1.44.77l0,.23,0,.31v.17c0,.19,0,.33,0,.36s0,.23,0,.33S366.54,79.87,366.55,80Z"/><ellipse class="cls-5" cx="367.36" cy="51.76" rx="1.11" ry="1.67" transform="translate(-2.04 17.48) rotate(-2.72)"/><path class="cls-5" d="M363,50.11a5.27,5.27,0,0,1,2.77-1.2,7.69,7.69,0,0,1,2.91.12,7.77,7.77,0,0,1,2.66,1.19,5.69,5.69,0,0,1,2,2.25l-.09.15a18.79,18.79,0,0,0-4.93-1.93,16.32,16.32,0,0,0-2.61-.42,15.63,15.63,0,0,0-2.65,0Z"/><polygon class="cls-4" points="364.58 67.64 362.51 69.6 357.95 69.16 354.99 68.13 364.58 67.64"/><path class="cls-2" d="M362.07,54.19l2.51,13.45h0c-.36-1-.79-3-3.07-3.24h0Z"/><path class="cls-4" d="M389.85,35.81s7.73-21.83-29.64-9.37l11.48-8.38,28.84-2.81Z"/><path class="cls-4" d="M403.66,59.15s-6,6.92-10.51,1.94c0,0,3.79-8.69,4.92-7.93S403.66,59.15,403.66,59.15Z"/><path class="cls-5" d="M358.54,27c39.58-17.22,31.68,7.42,31.68,7.42l-4.57,10.42h0c2,5,1.11,8.21,1.27,11.54l.16,3.39c5.86-12.12,11.32-12,11.32-12l1.85,10.15L402,66.8l3.57-1.09,1,7.63L409.65,71l4.75,4.59s-.82-17.32,5.37-23.38c2.84-2.78,4.33-7.37,5.1-11a25.35,25.35,0,0,0,.19-9.19l-1-6.26,4.2,3.48C416.71,1.88,394.68,2.2,381,4c-11.21,1.48-13.15,3.91-18.38,7.42l-5.1,5.06c-2.93,3.05-8,2.39-11.15,2.56l1,1.39A16.51,16.51,0,0,0,358.54,27Z"/><path class="cls-3" d="M395.52,62.1c3.46.26,10.49-9.32,9.77-14.51-.55-3.93-5.23-5.74-9-2.91a9.44,9.44,0,0,0-3.05,9.22S390.23,61.7,395.52,62.1Z"/><path class="cls-5" d="M426.18,18.8s-11.29-3.57-17.38-4l-1.92-4.6S418.46,9.64,426.18,18.8Z"/><path class="cls-5" d="M421.18,50.56s-6.1,10.89-2.09,17.82c0,0-6.78.32-9.67-7.51Z"/><path class="cls-5" d="M416.5,13.7S412.75,2.07,397.65,0l5.7,6.87Z"/><path class="cls-5" d="M401.26,4.69s-5-4.62-24.85-2.89l7.37,3.72Z"/><path class="cls-5" d="M380.35,4.92s-10.16.28-25.05,6.23c0,0,11.62.06,10.86,1.28Z"/><path class="cls-2" d="M356.39,34.16a35.84,35.84,0,0,1,11.17,1.36,36,36,0,0,0-11-2.32C356.53,33.51,356.46,33.83,356.39,34.16Z"/><path class="cls-2" d="M357.17,30.93c3.48,0,8.11.38,8.11.38a29.77,29.77,0,0,0-7.77-1.56Z"/><path class="cls-2" d="M371.32,71.58s3.54,2.52,3.11,4.23C374.43,75.81,375.58,71.63,371.32,71.58Z"/><path class="cls-2" d="M364,54.87s1.17,4.53,8.29,3.82C372.26,58.69,365.7,62.17,364,54.87Z"/><g id="upper_body_" data-name="upper body]"><path class="cls-6" d="M422.85,92.53l-35.39,18.54-1.89,3.4a133.14,133.14,0,0,0-16.24,52.26,45.17,45.17,0,0,0-.26,5l3.09,81.9,75.15-3-3.92-33.41a84,84,0,0,1-.49-8.83l3.75-54.94a58.15,58.15,0,0,0,.49-8h0a62.7,62.7,0,0,0-6.59-26.15h0a113.21,113.21,0,0,0-10.71-17.38Z"/><polygon class="cls-7" points="427.62 98.77 424.17 92.47 384.74 114.39 381.45 122.2 427.62 98.77"/><polygon class="cls-8" points="426.45 92.96 421.96 82.15 384.2 102.99 380.44 118.42 426.45 92.96"/><path class="cls-9" d="M388.55,178l2.69-.13a10.61,10.61,0,0,0,10.1-11.1l-.52-13.68-24.05.58.68,14.23A10.6,10.6,0,0,0,388.55,178Z"/></g><g id="upper_arm_side" data-name="upper arm side"><ellipse class="cls-10" cx="417.76" cy="133.71" rx="17.08" ry="17.96" transform="translate(53.45 378.01) rotate(-51.59)"/><polygon class="cls-10" points="431.76 144.82 370.38 212.9 350.72 197.4 403.73 122.58 431.76 144.82"/></g><path class="cls-11" d="M41,241.81s6.78-50.78,4.2-73.42c-3.06-26.93-.57-53.39,20.06-74.27,0,0,18,21.19,36.72,21.87,0,0,4.62,1.22,4.24-11l2.67,7.43c4,11.24,7.14,33.73,4.81,44.16-4.08,18.24-4.45,67.67-4.45,67.67l-2.44,27.64s-22.24,2.55-37.78,2C60.29,253.55,41,241.81,41,241.81Z"/><path class="cls-12" d="M124.11,20s-18.83,3.26-.47,6.57c13.33,2.4,6.61,19.65,6.61,19.65a23.79,23.79,0,0,0,9.58-17.89c.87-14.23-4.3-22.71-18.79-23.6-6.07-.37-12.84,4.09-16.9,9.65Z"/><path class="cls-13" d="M88.53,62.13s-21.4-5-16.59-29.05h0l17,14.07Z"/><path class="cls-14" d="M103.76,101.09s3.67,12.22,1.51,13.44c-.5.29-5.69,2.49-10.1,1.31s-8.13-6-8.13-6l-3.19-2.15-11.31-7.55-4.59-7,10.1-12.78S84.6,64,86.37,54.08l-.83-2.18c.12.22.86,2,.9,2s0-.08,0-.09.59,0,.87.24a13,13,0,0,1,1.17,1.14s0,0,0,0c1.07,1.14,2.45,2.87,4,4.82,4.77,6.2,10.76,14.91,11.76,16.34a2.24,2.24,0,0,0,.14.2,5,5,0,0,0-.28.45,51.57,51.57,0,0,0-2.42,4.78,1.23,1.23,0,0,0-.06.17s0,0,0,0c-1.39,3.26-2.67,7.45-2.1,10.92Z"/><path class="cls-15" d="M87.58,54.58s0,.08,0,.12l-.1,0v0C87.14,54.82,87.32,53.21,87.58,54.58Z"/><path class="cls-15" d="M104.4,76.58a5,5,0,0,0-.28.45,51.57,51.57,0,0,0-2.42,4.78,1.23,1.23,0,0,0-.06.17c-9.55-4.32-12.46-15.39-12.83-23.19-.09-1.73-.17-2.85-.27-3.57,0,0,0,0,0,0a2.56,2.56,0,0,0,0-.45l4,5.29c4.77,6.2,10.76,14.91,11.76,16.34A2.24,2.24,0,0,0,104.4,76.58Z"/><path class="cls-12" d="M95,9.08a32.49,32.49,0,0,0,1.41,4c.55,1.36,1.2,2.68,1.88,4a41.73,41.73,0,0,0,5,7.32c.5.54,1,1.15,1.49,1.66l1.6,1.56c.54.51,1.14,1,1.71,1.45l.87.72.93.63a34.69,34.69,0,0,0,8.05,4.16,35.17,35.17,0,0,1-8.6-3.26l-1-.54-1-.63c-.64-.43-1.32-.83-2-1.29l-1.85-1.44c-.63-.47-1.17-1-1.76-1.55a45.19,45.19,0,0,1-6.18-7.12c-.89-1.31-1.74-2.64-2.51-4a35.75,35.75,0,0,1-2.12-4.39Z"/><path class="cls-14" d="M127.89,64.41l6.27.49L130.22,47a2.8,2.8,0,0,1,.63-2.1,11.3,11.3,0,0,0,1.73-3.11c9.16-54.6-17.87-9-35.05-10.07s-7.34-9.44-8.78,14c-.49,8-.85,12.49,2.46,20.32,2.55,6,7.41,15.74,25.82,18,3.45.41,9-1,7.45-6.58-.49-1.78-2.9-3.52-4.53-5.26,0,0,6.24-.28,6.61-1.82l2.24-.47.31-4.1s-.63-.44-1.32-.89C127.82,64.73,127.86,64.57,127.89,64.41Z"/><ellipse class="cls-5" cx="124.14" cy="50.06" rx="1.89" ry="1.1" transform="translate(66.56 170.9) rotate(-86.48)"/><path class="cls-5" d="M119.14,49.7a5.3,5.3,0,0,1,4-2.75,4.39,4.39,0,0,1,2.12.31,3.78,3.78,0,0,1,1.8,1.51l0,.16a10.25,10.25,0,0,0-3.9-.3,9.7,9.7,0,0,0-2,.4,10.45,10.45,0,0,0-1.93.82Z"/><polygon class="cls-16" points="129.11 66.77 134.16 64.9 125.07 64.21 129.11 66.77"/><path class="cls-17" d="M120,72.18a41.38,41.38,0,0,1,8.85-2.29l-2.65,2.56S119.62,72.29,120,72.18Z"/><path class="cls-17" d="M125.78,74.32c1,.64.17,2.68-.46,3.27-.46.43-1.16.67-2.29-.46a23.17,23.17,0,0,1-3.1-4.89A36,36,0,0,1,125.78,74.32Z"/><path class="cls-4" d="M131.16,43.28A7,7,0,0,0,130,41.56a2,2,0,0,0-1.23-.63,4.19,4.19,0,0,0-.84,0c-.34,0-.68,0-1,0l-1,.08c-.33,0-.67.08-1,.12a22.31,22.31,0,0,0-4,.93,23.71,23.71,0,0,0-3.9,1.69,11.21,11.21,0,0,1,3.37-2.86,14.75,14.75,0,0,1,4.18-1.62c.37-.08.74-.16,1.12-.22l1.12-.12c.38,0,.76,0,1.13-.06a4.07,4.07,0,0,1,1.3.11,2.94,2.94,0,0,1,2.08,1.9A3.24,3.24,0,0,1,131.16,43.28Z"/><path class="cls-12" d="M135.73,19.31s-3.81,19.5-17.79,18.47c0,0,6.42-15.17,7.28-15.76s5.57-9.17,5.57-9.17Z"/><path class="cls-18" d="M375.13,222.4,377,243.72H100.36l2.16-21.32a5.82,5.82,0,0,1,5.81-5.82h261A5.83,5.83,0,0,1,375.13,222.4Z"/><path class="cls-14" d="M202.78,187.05c4.47-.74,12.67-3.78,16-3.69,1.6,0,1.76,2.65.25,3.26l-12.31,3.8"/><path class="cls-14" d="M175.24,193.13a21.72,21.72,0,0,1,10.33-2.3c4.36,0,8.29,2,12.46,2.87a7.44,7.44,0,0,0,2.53-.07c.95-.13,19.27-3.54,19.27-3.54.52,0,2.43-.65,2.26-2-.2-1.51-2.06-1.72-3.76-1.56-1.21.11-7.83.83-10.26.88-4,.08-6.48-1.17-8.36-1.66a1.85,1.85,0,0,1,1,0c1.3.22,5.75,1.21,7.29.44a1.87,1.87,0,0,0,1.3-1.39,2,2,0,0,0-1.2-1.81c-1.37-.66-13.1-2.95-15.11-3.28a12,12,0,0,0-4.47,0c-2.56.57-13,3.94-15.06,4.44Z"/><path class="cls-14" d="M199.42,185.43a38.22,38.22,0,0,1-6,.16"/><path class="cls-14" d="M110.36,213.75,59,145.17A14.57,14.57,0,0,1,82.3,127.69a15.69,15.69,0,0,1,1.2,1.88l40.36,75.58a8,8,0,0,1-13.5,8.6Z"/><polygon class="cls-19" points="72.69 170.72 100.36 155.14 88.77 126.69 69.31 137.56 54.41 145.88 72.69 170.72"/><circle class="cls-19" cx="71.92" cy="136.87" r="19.69"/><path class="cls-12" d="M82.33,47s32.08,2.85,47.38-21.39c4.25-6.72.95-9.29-2.85-13-20.1-19.41-48.9-8.52-54.13.61C60.54,34.51,82.33,47,82.33,47Z"/><path class="cls-14" d="M94.17,46.28c-.07-2.49-1.7-10.83-8.62-8s-2.48,18.85,2.78,20.07,4.81-3.19,4.81-3.19S94.35,52.6,94.17,46.28Z"/><path class="cls-20" d="M69.06,90.87a138.82,138.82,0,0,0,12.19,11.94A72.66,72.66,0,0,0,88,107.94a37.84,37.84,0,0,0,7.18,4,14.46,14.46,0,0,0,7.34,1.23,7.34,7.34,0,0,0,1.67-.44c.37-.14.27-.08.33-.1s.1,0,.19-.13a3.19,3.19,0,0,0,.47-1.34,9.58,9.58,0,0,0,.11-2,19.64,19.64,0,0,0-.81-4.15c-.39-1.38-.85-2.76-1.35-4.12a71.89,71.89,0,0,0-3.58-8c1.56,2.47,3.09,5,4.51,7.54a50.34,50.34,0,0,1,3.75,8.17,15.36,15.36,0,0,1,.69,2.37,5.83,5.83,0,0,1-.13,3,4.14,4.14,0,0,1-1,1.66,4.74,4.74,0,0,1-1.54,1,11.88,11.88,0,0,1-2.52.79,18.63,18.63,0,0,1-9.79-1.09c-5.94-2.22-10.89-5.81-15.5-9.61-2.3-1.91-4.52-3.91-6.61-6s-4.14-4.23-6.1-6.58Z"/><polygon class="cls-21" points="345.94 200.57 343.1 203.46 330.15 216.58 301.89 216.58 288.95 203.46 286.11 200.57 345.94 200.57"/><polygon class="cls-22" points="345.94 200.57 343.1 203.46 288.95 203.46 286.11 200.57 345.94 200.57"/><polygon class="cls-21" points="182.85 200.57 180 203.46 167.06 216.58 138.8 216.58 125.86 203.46 123.01 200.57 182.85 200.57"/><polygon class="cls-22" points="182.85 200.57 180 203.46 125.86 203.46 123.01 200.57 182.85 200.57"/><path class="cls-23" d="M130.26,168.39a42.67,42.67,0,0,1,4.2,2.5c.69.43,1.33.9,2,1.36.33.23.66.46,1,.7.16.13.31.22.49.38l.57.5a8.77,8.77,0,0,1,2.62,5.61,9,9,0,0,1-1.8,6.19,8.18,8.18,0,0,1-.53.64l-.41.43a6.06,6.06,0,0,0-.47.54,5,5,0,0,0-.7,1.26,5,5,0,0,0-.19,3.11,5.16,5.16,0,0,0,.67,1.62l1.34,2a44.08,44.08,0,0,1,2.44,4.26,40.41,40.41,0,0,1-4.27-2.44c-.67-.45-1.33-.87-2-1.37a8.57,8.57,0,0,1-2-2.26,9,9,0,0,1,0-9.22,8.58,8.58,0,0,1,1-1.32l.39-.45a1.55,1.55,0,0,0,.24-.27,5.28,5.28,0,0,0,1.14-2.63,5.41,5.41,0,0,0-.59-3.12l-.22-.37c-.09-.14-.23-.31-.34-.47-.25-.32-.48-.64-.7-1-.46-.67-.93-1.31-1.36-2A42.67,42.67,0,0,1,130.26,168.39Z"/><path class="cls-24" d="M147.33,168.39a42.67,42.67,0,0,1,4.2,2.5c.69.43,1.33.9,2,1.36.33.23.66.46,1,.7.16.13.31.22.49.38l.57.5a8.77,8.77,0,0,1,2.62,5.61,9,9,0,0,1-1.8,6.19,8.18,8.18,0,0,1-.53.64l-.41.43a6.06,6.06,0,0,0-.47.54,5,5,0,0,0-.7,1.26,5,5,0,0,0-.19,3.11,5.16,5.16,0,0,0,.67,1.62l1.34,2a44.08,44.08,0,0,1,2.44,4.26,40.41,40.41,0,0,1-4.27-2.44c-.67-.45-1.33-.87-2-1.37a8.57,8.57,0,0,1-2-2.26,9,9,0,0,1,0-9.22,8.58,8.58,0,0,1,1-1.32l.39-.45a1.55,1.55,0,0,0,.24-.27,5.28,5.28,0,0,0,1.14-2.63,5.41,5.41,0,0,0-.59-3.12l-.22-.37c-.09-.14-.23-.31-.34-.47-.25-.32-.48-.64-.7-1-.46-.67-.93-1.31-1.36-2A42.67,42.67,0,0,1,147.33,168.39Z"/><path class="cls-25" d="M164.4,168.39a42.67,42.67,0,0,1,4.2,2.5c.69.43,1.33.9,2,1.36.33.23.66.46,1,.7.16.13.31.22.49.38l.57.5a8.77,8.77,0,0,1,2.62,5.61,9,9,0,0,1-1.8,6.19,8.18,8.18,0,0,1-.53.64l-.41.43a6.06,6.06,0,0,0-.47.54,5,5,0,0,0-.7,1.26,5,5,0,0,0-.19,3.11,5.16,5.16,0,0,0,.67,1.62l1.34,2a44.08,44.08,0,0,1,2.44,4.26,40.41,40.41,0,0,1-4.27-2.44c-.67-.45-1.33-.87-2-1.37a8.57,8.57,0,0,1-2-2.26,9,9,0,0,1,0-9.22,8.58,8.58,0,0,1,1-1.32l.39-.45a1.55,1.55,0,0,0,.24-.27,5.28,5.28,0,0,0,1.14-2.63,5.41,5.41,0,0,0-.59-3.12l-.22-.37c-.09-.14-.23-.31-.34-.47-.25-.32-.48-.64-.7-1-.46-.67-.93-1.31-1.36-2A42.67,42.67,0,0,1,164.4,168.39Z"/><path class="cls-26" d="M288.85,165.63a44.72,44.72,0,0,1,4.2,2.5c.69.43,1.33.9,2,1.36.33.23.66.46,1,.7.16.13.31.22.49.38l.57.5a8.77,8.77,0,0,1,2.62,5.62,9,9,0,0,1-1.8,6.18,8.18,8.18,0,0,1-.53.64l-.41.43a6.06,6.06,0,0,0-.47.54,5.15,5.15,0,0,0-.7,1.26,5,5,0,0,0-.19,3.11,5.16,5.16,0,0,0,.67,1.62l1.34,2a45.31,45.31,0,0,1,2.44,4.26,40.41,40.41,0,0,1-4.27-2.44c-.67-.45-1.33-.87-2-1.37a8.57,8.57,0,0,1-2-2.26,9,9,0,0,1,0-9.22,8.58,8.58,0,0,1,1-1.32l.39-.45a2,2,0,0,0,.24-.26,5.36,5.36,0,0,0,1.14-2.64,5.42,5.42,0,0,0-.59-3.12l-.22-.37-.34-.47c-.25-.31-.48-.64-.7-1-.46-.67-.93-1.31-1.36-2A44,44,0,0,1,288.85,165.63Z"/><path class="cls-27" d="M305.92,165.63a44.72,44.72,0,0,1,4.2,2.5c.69.43,1.33.9,2,1.36.33.23.66.46,1,.7.16.13.31.22.49.38l.57.5a8.77,8.77,0,0,1,2.62,5.62,9,9,0,0,1-1.8,6.18,8.18,8.18,0,0,1-.53.64l-.41.43a6.06,6.06,0,0,0-.47.54,5.15,5.15,0,0,0-.7,1.26,5,5,0,0,0-.19,3.11,5.16,5.16,0,0,0,.67,1.62l1.34,2a45.31,45.31,0,0,1,2.44,4.26,40.41,40.41,0,0,1-4.27-2.44c-.67-.45-1.33-.87-2-1.37a8.57,8.57,0,0,1-2-2.26,9,9,0,0,1,0-9.22,8.58,8.58,0,0,1,1-1.32l.39-.45a2,2,0,0,0,.24-.26,5.36,5.36,0,0,0,1.14-2.64,5.42,5.42,0,0,0-.59-3.12l-.22-.37-.34-.47c-.25-.31-.48-.64-.7-1-.46-.67-.93-1.31-1.36-2A44,44,0,0,1,305.92,165.63Z"/><path class="cls-28" d="M323,165.63a44.72,44.72,0,0,1,4.2,2.5c.69.43,1.33.9,2,1.36.33.23.66.46,1,.7.16.13.31.22.49.38l.57.5a8.77,8.77,0,0,1,2.62,5.62,9,9,0,0,1-1.8,6.18,8.18,8.18,0,0,1-.53.64l-.41.43a6.06,6.06,0,0,0-.47.54,5.15,5.15,0,0,0-.7,1.26,5,5,0,0,0-.19,3.11,5.16,5.16,0,0,0,.67,1.62l1.34,2a45.31,45.31,0,0,1,2.44,4.26,40.41,40.41,0,0,1-4.27-2.44c-.67-.45-1.33-.87-2-1.37a8.57,8.57,0,0,1-2-2.26,9,9,0,0,1,0-9.22,8.58,8.58,0,0,1,1-1.32l.39-.45a2,2,0,0,0,.24-.26,5.36,5.36,0,0,0,1.14-2.64,5.42,5.42,0,0,0-.59-3.12l-.22-.37-.34-.47c-.25-.31-.48-.64-.7-1-.46-.67-.93-1.31-1.36-2A44,44,0,0,1,323,165.63Z"/><path class="cls-22" d="M23.1,132h0a7.29,7.29,0,0,1,7.29,7.29V248a0,0,0,0,1,0,0H23.1a0,0,0,0,1,0,0V132A0,0,0,0,1,23.1,132Z" transform="translate(-22.65 4.59) rotate(-6.91)"/><path class="cls-18" d="M33.23,245.24H25.86L12,130.61a3.64,3.64,0,0,1,3.18-4.05h0a3.64,3.64,0,0,1,4.06,3.17Z"/><path class="cls-22" d="M451.29,132h7.29a0,0,0,0,1,0,0V240.7a7.29,7.29,0,0,1-7.29,7.29h0a0,0,0,0,1,0,0V132A0,0,0,0,1,451.29,132Z" transform="translate(883.73 433.33) rotate(-173.09)"/><path class="cls-18" d="M455.63,126.12h7.29a0,0,0,0,1,0,0V243.5a3.64,3.64,0,0,1-3.64,3.64h0a3.64,3.64,0,0,1-3.64-3.64V126.12A0,0,0,0,1,455.63,126.12Z" transform="translate(892.79 427.13) rotate(-173.09)"/><rect class="cls-29" x="20.72" y="243.72" width="442.76" height="14.29"/><path class="cls-14" d="M181.16,191.2l-60.6,24.51a9.64,9.64,0,1,1-6.76-18.05,9.53,9.53,0,0,1,1.26-.37l64.06-14.45a5.15,5.15,0,0,1,6.14,3.88C185.83,189.26,185.35,190,181.16,191.2Z"/><polygon class="cls-30" points="377.66 130.27 354.39 127.94 353.39 135.17 377.17 137.71 377.66 130.27"/><circle class="cls-10" cx="360.73" cy="204.92" r="12.52"/><path class="cls-10" d="M380.12,137.24l-29.26-2.71L348.44,203a1.46,1.46,0,0,0,1.41,1.66l23.39.53h.64a1.78,1.78,0,0,0,1.82-1.67Z"/></g></g></svg>