<svg xmlns="http://www.w3.org/2000/svg" viewBox="0 0 170.54 170.54"><defs><style>.cls-1{fill:#334d6c;}.cls-2{fill:none;stroke:#fff;stroke-linejoin:round;stroke-width:1.5px;}.cls-3{fill:#ffd272;}.cls-4{fill:#ffb014;}.cls-5{font-size:41.7px;fill:#fff;font-family:OpenSans-Bold, Open Sans;font-weight:700;}.cls-6{fill:#ccd3da;}.cls-7{fill:#002147;}.cls-8{fill:#667a91;}.cls-9{fill:#99a6b5;}.cls-10{fill:#c2cad3;}.cls-11{fill:#d6dbe1;opacity:0.46;}</style></defs><g id="Layer_2" data-name="Layer 2"><g id="Final_gfx" data-name="Final gfx"><circle class="cls-1" cx="85.27" cy="85.27" r="85.27"/><line class="cls-2" x1="115.5" y1="49.18" x2="149.65" y2="49.18"/><line class="cls-2" x1="115.5" y1="53.81" x2="135.09" y2="53.81"/><line class="cls-2" x1="115.5" y1="63.06" x2="127.83" y2="63.06"/><line class="cls-2" x1="115.5" y1="58.43" x2="139.22" y2="58.43"/><path class="cls-3" d="M122.28,90.14,97,31.72a2.52,2.52,0,0,0-3.58-1.18c-.23.13-5.87,3.58-5.87,3.58L68.31,59.3a3.43,3.43,0,0,0,.88,5.22l44.46,25.67-.27.1L112.73,93l3,3.38,5.59-3.23h0A2.4,2.4,0,0,0,122.28,90.14Z"/><path class="cls-4" d="M87,34.62,62.79,62.52a3.7,3.7,0,0,0,1,5.64l49.15,28.38a2.61,2.61,0,0,0,3.71-3.3L91.52,35.32A2.72,2.72,0,0,0,87,34.62Z"/><text class="cls-5" transform="matrix(0.87, 0.5, 0, 1, 83.85, 73.04)">!</text><path class="cls-6" d="M71.85,108.53l6.1-3.86a20.47,20.47,0,0,0,9.56-15c.11-1,.17-2.08.19-3.19.26-17.69-11.85-39.39-27-48.46-7.6-4.53-14.53-5-19.59-2.23l-8.52,4.82A33.61,33.61,0,0,1,60.31,50.75C72.61,63.41,77.53,75,76.66,83.54S71.85,108.53,71.85,108.53Z"/><path class="cls-7" d="M106.89,144c1.34,2.4-.67,6.08-4.5,8.21s-8,1.92-9.35-.48l-20.11-36,13.86-7.73Z"/><ellipse class="cls-8" cx="79.86" cy="111.8" rx="7.94" ry="4.98" transform="matrix(0.87, -0.49, 0.49, 0.87, -44.36, 53.09)"/><path class="cls-9" d="M81.59,102l2.93,5.26c1,1.82-.51,4.6-3.4,6.22S75.06,115,74,113.14l-3.23-5.9"/><ellipse class="cls-10" cx="76.35" cy="104.95" rx="6" ry="3.77" transform="translate(-41.46 50.51) rotate(-29.16)"/><path class="cls-6" d="M61,94.62C49.07,87.49,39.55,70.44,39.76,56.54A19.06,19.06,0,0,1,42.62,46c-6.73.31-11.37,5.87-11.51,15.37-.2,13.91,9.31,31,21.25,38.09,8.16,4.87,15.33,3.84,19.13-1.73A19.06,19.06,0,0,1,61,94.62Z"/><ellipse class="cls-11" cx="52.74" cy="74.29" rx="20.97" ry="33.02" transform="translate(-29.51 35.12) rotate(-29.16)"/><path class="cls-8" d="M80.24,90.69c-.26,17.69-12.79,24.68-28,15.61S25,75.54,25.22,57.85,38,33.17,53.2,42.24,80.5,73,80.24,90.69ZM53.1,49.09c-11.94-7.13-21.79-1.63-22,12.27s9.31,31,21.25,38.09,21.79,1.63,22-12.27S65,56.22,53.1,49.09Z"/></g></g></svg>