<svg xmlns="http://www.w3.org/2000/svg" xmlns:xlink="http://www.w3.org/1999/xlink" viewBox="0 0 136.6 194.02"><defs><style>.cls-1{fill:none;}.cls-2{fill:#335b57;}.cls-3{fill:#c6d1d0;}.cls-4{clip-path:url(#clip-path);}.cls-5,.cls-6{fill:#ccd3da;stroke:#ccd3da;}.cls-5,.cls-6,.cls-8{stroke-miterlimit:10;}.cls-5{stroke-width:0.93px;}.cls-6{stroke-width:0.94px;}.cls-7{fill:#002147;}.cls-8{fill:#fff;stroke:#ffb414;stroke-width:0.46px;}.cls-9{fill:#e9e3da;}.cls-10{fill:#e0b097;}.cls-11{fill:#f5e5dc;}.cls-12{fill:#eacbb9;}.cls-13{fill:#cb7c51;}.cls-14{fill:#b42a1c;}.cls-15{fill:#f03826;}.cls-16{fill:#395370;}.cls-17{fill:#99a6b5;}.cls-18{fill:#00322d;}.cls-19{fill:#aab5c2;}</style><clipPath id="clip-path"><rect class="cls-1" x="4.81" y="3.04" width="120.67" height="84.21"/></clipPath></defs><g id="Layer_2" data-name="Layer 2"><g id="icons"><polygon class="cls-2" points="136.59 0 0 0 0 90.09 34.65 90.09 34.65 103.27 57.75 90.09 136.59 90.09 136.59 0"/><rect class="cls-3" x="2.81" y="3.04" width="131.63" height="84.21"/><g class="cls-4"><polygon class="cls-5" points="105.36 144.58 123.06 142.78 115.79 94.03 92.39 96.89 105.36 144.58"/><circle class="cls-5" cx="104.01" cy="94.64" r="11.79"/><circle class="cls-6" cx="114.39" cy="144.14" r="8.85"/><path class="cls-7" d="M87,42.67S91.56,50.29,90.73,55c0,0,4-3.45-.84-13.68"/><path class="cls-7" d="M51.19,42.67S46.64,50.29,47.47,55c0,0-4-3.45.84-13.68"/><path class="cls-8" d="M63.9,158.17H39.18a242.19,242.19,0,0,0-3.32-43.95c-1.9-11.77-3.2-26.13-4.76-31.1,11.84-3.62,17.72-5.76,29.56-9.37h16.8"/><path class="cls-5" d="M80.84,158.17H39.18a242.19,242.19,0,0,0-3.32-43.95c-1.9-11.77-3.2-26.13-4.76-31.1,11.84-3.62,17.72-5.76,29.56-9.37h16.8"/><path class="cls-5" d="M99.86,158.17c1.19,5.62,2.48,23,3,26.48-20.43,4.1-60.71,2-66,0,.48-3.51,1.32-20.86,2.51-26.48Z"/><path class="cls-5" d="M69.4,158.13H99.8a244.09,244.09,0,0,1,3.32-43.95c1.9-11.77,4.49-25,6-30-11.84-3.62-19-6.86-30.84-10.48H61.52"/><path class="cls-9" d="M79.24,74.57A22.2,22.2,0,0,1,67,77.05a18.51,18.51,0,0,1-8.53-2.48l.11-16.11H79.14Z"/><path class="cls-10" d="M79.14,42.19H58.62l-.06,24.37c3,2.29,6.52,4.71,10.43,4.73h.07c3.78,0,7.18-2.36,10.14-4.53Z"/><path class="cls-7" d="M69,5.88h-.26c-12,.13-22.61,9.34-22.64,26.53,0,5.71,1.44,15.13,1.88,19.9.57,6.14,9.26,11.47,20.85,11.5h.07C80.5,63.78,89,58,89.77,52.31c.38-2.94,1-7.69,1.44-12.23.25-2.79.44-5.5.43-7.67,0-8.78-2.93-16.13-7.56-20.44-.84-.77-3.37-.28-4.23-1-1.7-1.43-1.78-3.91-3.8-4.69C73.84,5.43,71.47,5.91,69,5.88Z"/><ellipse class="cls-9" cx="87.98" cy="45.07" rx="5.17" ry="2.83" transform="translate(30.46 125.47) rotate(-81.54)"/><ellipse class="cls-9" cx="49.82" cy="45.07" rx="2.83" ry="5.17" transform="translate(-6.09 7.82) rotate(-8.46)"/><path class="cls-11" d="M69,18.8V10.41s-.07,8.38-.11,8.38h-.11v0c-10.29.11-18.6,6-18.62,20.83,0,4.91,1.12,14,1.61,18,.43,3.63,7.14,10.69,17.09,10.71h.06c9.94,0,16.66-7.08,17.09-10.71.49-4.08,1.62-13.13,1.61-18C87.58,24.84,79.27,18.91,69,18.8Z"/><circle class="cls-7" cx="59.72" cy="42.46" r="1.03"/><path class="cls-7" d="M56.12,42.21A3.94,3.94,0,0,1,57.73,41a5.78,5.78,0,0,1,1.87-.47,5.91,5.91,0,0,1,1.92.17,4.29,4.29,0,0,1,1.78.87v.11a15,15,0,0,0-3.6-.11,12.06,12.06,0,0,0-3.52.72Z"/><circle class="cls-7" cx="78.22" cy="42.46" r="1.03"/><path class="cls-7" d="M74.63,41.52a3.92,3.92,0,0,1,1.8-.87,6,6,0,0,1,1.93-.1,6.3,6.3,0,0,1,1.86.53,4.32,4.32,0,0,1,1.58,1.2l0,.1a15.24,15.24,0,0,0-3.51-.79,12.34,12.34,0,0,0-3.59,0Z"/><path class="cls-12" d="M72.94,52.83H69.31l0-10.55,1-.68,1,8.64c.08.68.8,1,1.46,1.42Z"/><path class="cls-7" d="M77.56,60.8c0-3.2-2.28-5.79-5.08-5.79H65.29c-2.81,0-5.08,2.59-5.08,5.79v5.64a20.32,20.32,0,0,0,8.64,1.94h.06a20.4,20.4,0,0,0,8.65-1.94Z"/><path class="cls-7" d="M62.36,59.87l-1-2.69c-.75,1.06-2.49.79-3,.69-1.91-.39-6.17-6.67-7.82-11.17.28,2.37.61,8.08,1,10.52.51,3.63,5.21,8.71,12.34,10.53Z"/><path class="cls-7" d="M75.47,59.87l1-2.69c.75,1.06,2.65.79,3,.69,1.89-.47,6.09-6.67,7.74-11.17-.28,2.37-1,9.39-1.2,11-.36,3-5,8.26-12.09,10.08Z"/><polygon class="cls-13" points="69.3 53.75 69.31 52.83 72.95 52.83 69.3 53.75"/><polygon class="cls-12" points="69.33 53.75 69.33 52.84 65.69 52.83 69.33 53.75"/><path class="cls-12" d="M72.72,38.68s-2.66,1.39-3.39,3.63v2.57s.47.65.91-1.47A10.68,10.68,0,0,1,72.72,38.68Z"/><path class="cls-7" d="M82.33,35.86l-1-.45-8.38-.55.14,1.29a2.22,2.22,0,0,0,2.22,2h6l2.75.66h0A2.78,2.78,0,0,0,82.33,35.86Z"/><path class="cls-7" d="M54.7,35.86l1-.45,8.38-.55L64,36.15a2.22,2.22,0,0,1-2.22,2h-6L53,38.79h0A2.78,2.78,0,0,1,54.7,35.86Z"/><path class="cls-7" d="M48.56,26.92c9.37.32,27.52-3.52,30.21-12.85L74,8.66l-14.2,3.53-9.42,9.49Z"/><path class="cls-9" d="M71.6,58.46H66.21a3,3,0,0,0-3,3v3.05l2.68.93V62.35H72v3.12l2.69-.93V61.49A3,3,0,0,0,71.6,58.46Z"/><path class="cls-7" d="M46.15,33.84S47,41.6,43.5,44.47c0,0,6.21-.28,6.51-10"/><path class="cls-7" d="M46.21,30.3s.25,6.8-2.81,10c0,0,3.61.85,5.56-9.47"/><path class="cls-7" d="M91.14,33.84s-.8,7.76,2.65,10.63c0,0-6.21-.28-6.51-10"/><path class="cls-7" d="M91.08,30.3s-.25,6.8,2.82,10c0,0-3.62.85-5.57-9.47"/><path class="cls-7" d="M75.42,16.1s-2.23,8.64-11.14,9.4c0,0,12.16,1,15.43-10.17"/><polygon class="cls-14" points="62.81 159.27 54.58 149.19 67.61 84.79 72.11 85.19 72.75 150.82 62.81 159.27"/><polygon class="cls-15" points="68.89 159.42 59.81 150.1 67.1 84.81 71.62 84.81 78.05 150.13 68.89 159.42"/><polygon class="cls-14" points="66.35 91.17 71.89 89.08 72.08 88.99 71.62 84.81 67.1 84.81 66.49 89.99 66.35 91.17"/><polygon class="cls-16" points="66.82 88.17 60.35 77.11 77.56 77.11 71.89 86.1 66.82 88.17"/><polygon class="cls-17" points="62.24 86.67 53.68 75.67 57.56 70.49 69.03 77.11 62.24 86.67"/><polygon class="cls-17" points="75.74 86.67 84.3 75.67 80.43 70.49 68.95 77.11 75.74 86.67"/><polygon class="cls-5" points="37.19 145.42 19.39 145.54 21.29 96.78 44.94 96.62 37.19 145.42"/><circle class="cls-5" cx="33.14" cy="95.63" r="11.79"/><polygon class="cls-6" points="25.2 193.55 35.47 193.49 37.08 146 19.45 146.41 25.2 193.55"/><circle class="cls-6" cx="28.23" cy="145.16" r="8.85"/><polygon class="cls-6" points="23.64 187.95 36.55 187.69 37.82 182.95 37.08 146 19.45 146.41 22.01 184.21 23.64 187.95"/><path class="cls-7" d="M61.67,184.56,36.15,169l1.58-10.56L37,129.71c.41-8.35-.79-17.67-2.79-29.14a137.52,137.52,0,0,0-4.42-18c4.5-1.28,12.4-4.19,16.91-5.47a178.7,178.7,0,0,0,9.68,27,167.8,167.8,0,0,0,14.09,24.8L69.2,176.93Z"/><path class="cls-7" d="M76.87,184.56,102.39,169l-1.58-10.56.71-28.68c-.41-8.35.78-17.67,2.79-29.14a134.39,134.39,0,0,1,4.42-18c-4.5-1.28-11.84-4.19-16.34-5.47a187.09,187.09,0,0,1-10.25,27,167.8,167.8,0,0,1-14.09,24.8l1.29,48.08Z"/><path class="cls-10" d="M78.1,20.83a20.66,20.66,0,0,0-9.11-2v-7h0c0,2.37,0,7-.08,7h-.11v0c-7.23.07-13.46,3-16.55,9.92,6.43-.4,14.84-2.24,20.53-5.8a11.9,11.9,0,0,1-8.47,4.44S73.59,28.1,78.1,20.83Z"/><path class="cls-7" d="M48.56,26.92c9.37.32,27.52-3.52,30.21-12.85L74,8.66l-14.2,3.53-9.42,9.49Z"/><path class="cls-7" d="M75.42,16.1s-2.23,8.64-11.14,9.4c0,0,12.16,1,15.43-10.17"/></g><rect class="cls-18" x="2.81" y="80.65" width="131.63" height="6.7"/><circle class="cls-15" cx="62.64" cy="83.99" r="1.86"/><circle class="cls-19" cx="68.63" cy="83.99" r="1.86"/><circle class="cls-19" cx="74.61" cy="83.99" r="1.86"/></g></g></svg>