<svg xmlns="http://www.w3.org/2000/svg" viewBox="0 0 126.08 126.08"><defs><style>.cls-1{fill:#335b57;}.cls-2{fill:#00322d;}.cls-3{fill:#1c4944;}.cls-4{fill:#557673;}.cls-5{fill:#718d8a;}.cls-6{fill:#fff;}.cls-7{fill:#c6d1d0;}.cls-8{fill:#f4887d;}.cls-9{fill:#f03826;}.cls-10{fill:#fffffc;}</style></defs><g id="Layer_2" data-name="Layer 2"><g id="icons"><circle class="cls-1" cx="63.04" cy="63.04" r="63.04"/><polygon class="cls-2" points="92.86 101.66 50.09 76.97 50.09 14.54 85.29 34.86 88.09 43.09 92.86 49.57 92.86 101.66"/><polygon class="cls-3" points="85.31 34.87 92.86 49.57 85.31 45.21 85.31 34.87"/><polygon class="cls-4" points="83.8 106.88 41.03 82.19 41.03 19.76 76.23 40.08 79.03 48.31 83.8 54.79 83.8 106.88"/><polygon class="cls-5" points="76.25 40.09 83.8 54.79 76.25 50.43 76.25 40.09"/><polygon class="cls-6" points="74.74 112.05 31.98 87.35 31.98 24.93 67.17 45.25 69.97 53.48 74.74 59.95 74.74 112.05"/><rect class="cls-5" x="41.36" y="39.23" width="0.95" height="13.5" transform="translate(-18.91 59.22) rotate(-60)"/><rect class="cls-5" x="52.68" y="36.15" width="0.95" height="39.65" transform="translate(-21.9 74.01) rotate(-60)"/><rect class="cls-5" x="52.68" y="39.6" width="0.95" height="39.65" transform="translate(-24.89 75.74) rotate(-60)"/><rect class="cls-5" x="52.68" y="43.06" width="0.95" height="39.65" transform="translate(-27.88 77.47) rotate(-60)"/><rect class="cls-5" x="52.68" y="46.51" width="0.95" height="39.65" transform="translate(-30.87 79.19) rotate(-60)"/><rect class="cls-5" x="52.68" y="49.96" width="0.95" height="39.65" transform="translate(-33.86 80.92) rotate(-60)"/><rect class="cls-5" x="52.68" y="53.41" width="0.95" height="39.65" transform="translate(-36.85 82.64) rotate(-60)"/><rect class="cls-5" x="52.68" y="61.07" width="0.95" height="39.65" transform="translate(-43.48 86.47) rotate(-60)"/><rect class="cls-5" x="52.68" y="64.53" width="0.95" height="39.65" transform="translate(-46.47 88.2) rotate(-60)"/><rect class="cls-5" x="44.88" y="72.48" width="0.95" height="21.64" transform="translate(-49.46 80.92) rotate(-60)"/><polygon class="cls-7" points="67.19 45.25 74.74 59.95 67.19 55.6 67.19 45.25"/><path class="cls-8" d="M86.52,59.77c0-8.52-6-18.88-13.35-23.14-3.64-2.09-6.93-2.31-9.34-1l-1.58.87-.53,1a11.31,11.31,0,0,0-1.91,6.81c0,8.52,6,18.88,13.36,23.14A11.35,11.35,0,0,0,80,69.24c.44.13.8.21.8.21l2-1.16C85.1,66.84,86.52,63.91,86.52,59.77Z"/><ellipse class="cls-9" cx="71.44" cy="53.01" rx="10.9" ry="18.89" transform="translate(-16.93 42.83) rotate(-30)"/><path class="cls-10" d="M73.6,44.19,69,38.57l0,2.32a5.19,5.19,0,0,0-5.52,1.25c-2.26,2.46-2.28,7.53,0,12.6l1.08-.23c-1.93-4.38-1.92-8.75,0-10.88a4.37,4.37,0,0,1,4.45-1.17v2.19Z"/><path class="cls-10" d="M79.46,51.4l-1.09.22c1.93,4.39,1.92,8.76,0,10.89a4.38,4.38,0,0,1-4.45,1.17V61.49l-4.52.45,4.55,5.62V65.25A5.19,5.19,0,0,0,79.42,64C81.68,61.53,81.69,56.47,79.46,51.4Z"/><path class="cls-6" d="M73.35,56.56c0,.58-.19.95-.56,1.1a2,2,0,0,1-1.54-.26v1.14l-.66-.38V57.05a9.08,9.08,0,0,1-2-1.67V53.92a10.45,10.45,0,0,0,1,1,8.52,8.52,0,0,0,1,.82V54l-.32-.33A8.54,8.54,0,0,1,68.92,52a3.16,3.16,0,0,1-.39-1.49c0-.53.18-.87.54-1a2,2,0,0,1,1.52.24v-.84l.66.38v.82a9.81,9.81,0,0,1,2,1.66l-.46,1a9.13,9.13,0,0,0-1.53-1.32V53.1a17.12,17.12,0,0,1,1.33,1.49,4.45,4.45,0,0,1,.58,1A2.65,2.65,0,0,1,73.35,56.56ZM70,51.33a.9.9,0,0,0,.15.48,3.72,3.72,0,0,0,.47.6v-1.3C70.18,50.94,70,51,70,51.33Zm1.93,4.48a.89.89,0,0,0-.16-.49,4.79,4.79,0,0,0-.49-.62v1.38C71.68,56.25,71.9,56.16,71.9,55.81Z"/></g></g></svg>