<svg xmlns="http://www.w3.org/2000/svg" viewBox="0 0 38.96 39.55"><defs><style>.cls-1{fill:#2d0032;}.cls-2{fill:#441c49;}.cls-3{fill:#735576;}.cls-4{fill:#5c3960;}</style></defs><g id="Layer_2" data-name="Layer 2"><g id="icons"><polygon class="cls-1" points="9.01 31 4.63 28.47 11.97 24.24 16.34 25.21 16.34 26.77 9.01 31"/><polygon class="cls-2" points="9.01 29.44 4.63 26.91 11.97 22.68 16.34 25.21 9.01 29.44"/><polygon class="cls-3" points="4.63 26.91 4.63 28.47 9.01 31 9 29.43 4.63 26.91"/><polygon class="cls-1" points="22.51 38.78 18.14 36.25 25.47 32.02 29.84 32.99 29.84 34.55 22.51 38.78"/><polygon class="cls-2" points="22.51 37.22 18.14 34.69 25.47 30.46 29.84 32.99 22.51 37.22"/><polygon class="cls-3" points="18.14 34.69 18.14 36.25 22.51 38.78 22.5 37.21 18.14 34.69"/><polygon class="cls-2" points="38.96 21.19 36.7 22.49 0 18.37 0 1.31 2.26 0 38.96 21.19"/><polygon class="cls-3" points="36.7 22.49 36.7 39.55 0 18.36 0 1.3 36.7 22.49"/><polygon class="cls-4" points="7.38 5.57 0 12.75 0 6.33 3.24 3.17 7.38 5.57"/><polygon class="cls-3" points="11.5 7.95 0.49 18.65 0 18.36 0 12.7 7.35 5.55 11.5 7.95"/><polygon class="cls-4" points="15.61 10.32 4.6 21.02 0.46 18.63 11.46 7.92 15.61 10.32"/><polygon class="cls-3" points="19.73 12.69 8.71 23.4 4.57 21 15.57 10.3 19.73 12.69"/><polygon class="cls-4" points="23.84 15.07 12.83 25.77 8.69 23.38 19.69 12.67 23.84 15.07"/><polygon class="cls-3" points="27.95 17.44 16.95 28.15 12.8 25.75 23.8 15.05 27.95 17.44"/><polygon class="cls-4" points="32.06 19.82 21.06 30.52 16.91 28.13 27.91 17.42 32.06 19.82"/><polygon class="cls-3" points="36.18 22.19 25.17 32.9 21.02 30.5 32.02 19.79 36.18 22.19"/><polygon class="cls-4" points="36.7 22.49 36.7 28.06 29.28 35.27 25.13 32.88 36.14 22.17 36.7 22.49"/><polygon class="cls-3" points="36.7 28 36.7 34.43 33.39 37.64 29.25 35.25 36.7 28"/><polygon class="cls-4" points="36.7 34.38 36.7 39.55 33.36 37.63 36.7 34.38"/><polygon class="cls-1" points="38.96 38.25 36.7 39.55 36.7 22.49 38.96 21.19 38.96 38.25"/></g></g></svg>