<svg xmlns="http://www.w3.org/2000/svg" viewBox="0 0 126.08 126.08"><defs><style>.cls-1{fill:#475977;}.cls-2,.cls-8{fill:#fff;}.cls-3,.cls-4,.cls-5{fill:none;stroke-miterlimit:10;}.cls-3{stroke:#f03826;}.cls-4{stroke:#718399;}.cls-5{stroke:#002147;}.cls-6{fill:#f4887d;}.cls-7{fill:#ec3826;}.cls-8{font-size:22.4px;font-family:OpenSans-Bold, Open Sans;font-weight:700;}.cls-9{fill:#002147;}.cls-10{fill:#667a91;}.cls-11{fill:#99a6b5;}.cls-12{fill:#c2cad3;}.cls-13{fill:#ccd3da;}.cls-14{fill:#d6dbe1;opacity:0.46;}</style></defs><g id="Layer_2" data-name="Layer 2"><g id="icons"><circle class="cls-1" cx="63.04" cy="63.04" r="63.04"/><polygon class="cls-2" points="88.25 111.61 40.57 84.08 40.57 14.48 88.25 42.01 88.25 111.61"/><polyline class="cls-3" points="81.82 94.77 79.24 90.79 76.06 90.24 73.89 84.04 69.47 78.48 64.41 78.56 60.87 72.54 56.58 67.64 52.99 68.97 49.27 63.41 45.03 63.51"/><line class="cls-4" x1="45.03" y1="26.2" x2="58.07" y2="33.72"/><line class="cls-4" x1="45.03" y1="30.04" x2="83.31" y2="52.14"/><line class="cls-4" x1="45.03" y1="33.89" x2="83.31" y2="55.99"/><line class="cls-4" x1="45.03" y1="37.74" x2="83.31" y2="59.84"/><line class="cls-4" x1="45.03" y1="41.59" x2="83.31" y2="63.69"/><line class="cls-4" x1="45.03" y1="45.44" x2="83.31" y2="67.54"/><line class="cls-4" x1="45.03" y1="49.29" x2="83.31" y2="71.39"/><polyline class="cls-5" points="45.03 56.55 45.03 78.2 81.82 99.44"/><path class="cls-6" d="M104,61.27,90.76,30.4a1.35,1.35,0,0,0-2-.43l-3.09,1.89L75.56,44.93A1.82,1.82,0,0,0,76,47.69L99.44,61.3l-.14.05L99,62.81l1.56,1.79,2.94-1.71h0A1.28,1.28,0,0,0,104,61.27Z"/><path class="cls-7" d="M85.28,32.23,72.92,46.5a2.39,2.39,0,0,0,.61,3.64L98.78,64.71a1.69,1.69,0,0,0,2.39-2.13l-13-29.9A1.75,1.75,0,0,0,85.28,32.23Z"/><text class="cls-8" transform="matrix(0.87, 0.5, 0, 1, 83.77, 52.63)">!</text><path class="cls-9" d="M68.65,109.36c.71,1.28-.36,3.23-2.39,4.37s-4.26,1-5-.26L50.61,94.33,58,90.22Z"/><ellipse class="cls-10" cx="54.29" cy="92.28" rx="4.22" ry="2.65" transform="translate(-38.08 38.15) rotate(-29.16)"/><path class="cls-11" d="M55.2,87.08l1.57,2.8c.53,1-.28,2.44-1.81,3.3S51.73,94,51.2,93l-1.72-3.14"/><ellipse class="cls-12" cx="52.42" cy="88.64" rx="3.19" ry="2" transform="translate(-36.55 36.78) rotate(-29.16)"/><path class="cls-13" d="M50,90.54l3.24-2.05a10.88,10.88,0,0,0,5.08-7.94c.06-.55.09-1.11.1-1.7.14-9.4-6.29-20.92-14.36-25.74-4-2.41-7.72-2.69-10.41-1.19l-4.53,2.56A17.88,17.88,0,0,1,43.9,59.84c6.53,6.72,9.15,12.9,8.69,17.42S50,90.54,50,90.54Z"/><path class="cls-13" d="M44.27,83.15C37.93,79.36,32.87,70.3,33,62.92a10.27,10.27,0,0,1,1.52-5.61c-3.57.17-6,3.12-6.11,8.17-.11,7.39,4.94,16.45,11.29,20.23,4.33,2.59,8.14,2,10.16-.91A10.19,10.19,0,0,1,44.27,83.15Z"/><ellipse class="cls-14" cx="39.88" cy="72.35" rx="11.14" ry="17.54" transform="translate(-30.2 28.6) rotate(-29.16)"/><path class="cls-10" d="M54.49,81.06c-.14,9.4-6.79,13.11-14.87,8.3S25.12,73,25.26,63.61s6.79-13.11,14.86-8.29S54.62,71.66,54.49,81.06ZM40.07,59c-6.35-3.79-11.58-.87-11.68,6.52s4.94,16.45,11.29,20.23,11.57.87,11.68-6.51S46.41,62.75,40.07,59Z"/></g></g></svg>