<svg xmlns="http://www.w3.org/2000/svg" xmlns:xlink="http://www.w3.org/1999/xlink" viewBox="0 0 415.63 859.76"><defs><style>.cls-1{fill:#ccd3da;}.cls-2{fill:#334d6c;}.cls-3{fill:#667a91;}.cls-4{fill:url(#linear-gradient);}.cls-5{fill:#ee8b1d;}.cls-6{fill:#002147;}.cls-7,.cls-8{fill:#fff;}.cls-8{opacity:0.2;}</style><linearGradient id="linear-gradient" x1="3485.22" y1="-1980.78" x2="3332.07" y2="-2223.55" gradientTransform="matrix(0.58, 0.5, -1, 0.87, -3839.15, 238.77)" gradientUnits="userSpaceOnUse"><stop offset="0.2" stop-color="#ced5db" stop-opacity="0"/><stop offset="0.27" stop-color="#cdd4db" stop-opacity="0.33"/><stop offset="0.34" stop-color="#cdd4da" stop-opacity="0.62"/><stop offset="0.4" stop-color="#ccd3da" stop-opacity="0.82"/><stop offset="0.44" stop-color="#ccd3da" stop-opacity="0.95"/><stop offset="0.47" stop-color="#ccd3da"/></linearGradient></defs><g id="Layer_2" data-name="Layer 2"><g id="additional_assets" data-name="additional assets"><path class="cls-1" d="M368.66,843.5H47a30.59,30.59,0,0,1-30.58-30.57V46.79A30.57,30.57,0,0,1,47,16.21H177a11.14,11.14,0,0,1,11.14,11.14,19.67,19.67,0,1,0,39.33,0A11.15,11.15,0,0,1,238.64,16.2h130a30.57,30.57,0,0,1,30.58,30.58V812.92A30.55,30.55,0,0,1,368.66,843.5Z"/><path class="cls-2" d="M368.73,843.5H47.09a30.59,30.59,0,0,1-30.58-30.57V743.51h382.8v69.4A30.55,30.55,0,0,1,368.73,843.5Z"/><circle class="cls-3" cx="78.62" cy="794.89" r="16.81"/><circle class="cls-3" cx="146.11" cy="794.89" r="16.81"/><circle class="cls-3" cx="213.6" cy="794.89" r="24.87"/><circle class="cls-3" cx="281.09" cy="794.89" r="16.81"/><circle class="cls-3" cx="348.57" cy="794.89" r="16.81"/><polygon class="cls-4" points="16.44 125.45 16.45 208.07 398.33 207.45 399.24 125.47 16.44 125.45"/><path class="cls-5" d="M399.24,125.46H16.44V46.79A30.59,30.59,0,0,1,47,16.21H177a11.15,11.15,0,0,1,11.1,10.34,6.8,6.8,0,0,1,0,.8,19.67,19.67,0,0,0,39.33,0,6.85,6.85,0,0,1,0-.79,11.11,11.11,0,0,1,11.09-10.34h130a30.56,30.56,0,0,1,30.58,30.57Z"/><path class="cls-6" d="M185.07,102H100.8c-8.38,0-15.17-7.84-15.17-17.52h0C85.63,74.81,92.42,67,100.8,67h84.27c8.38,0,15.17,7.84,15.17,17.51h0C200.24,94.16,193.45,102,185.07,102Z"/><path class="cls-7" d="M320,102H235.73c-8.38,0-15.17-7.84-15.17-17.51h0c0-9.68,6.79-17.52,15.17-17.52H320c8.37,0,15.16,7.84,15.16,17.52h0C335.17,94.18,328.38,102,320,102Z"/><path class="cls-8" d="M18.7,826A30.11,30.11,0,0,1,16,813.42V47.28A30.57,30.57,0,0,1,46.55,16.69h130A11.13,11.13,0,0,1,187.7,27.82a19.66,19.66,0,1,0,39.32,0,11.15,11.15,0,0,1,11.13-11.13h130a30.46,30.46,0,0,1,17,5.14Z"/><path class="cls-6" d="M399.36,125.55V813a30.55,30.55,0,0,1-30.58,30.58H47.15A30.58,30.58,0,0,1,16.57,813V46.89A30.57,30.57,0,0,1,47.16,16.31h130a11.16,11.16,0,0,1,11.14,11.14,19.67,19.67,0,1,0,39.33,0A11.15,11.15,0,0,1,238.77,16.3h130a30.57,30.57,0,0,1,30.58,30.58Zm15.12-89.38a46.07,46.07,0,0,0-7.19-16.23,46.57,46.57,0,0,0-9.51-10.06,47.37,47.37,0,0,0-5-3.41A46.27,46.27,0,0,0,369.13,0H47.51A46.37,46.37,0,0,0,14.63,13.62l-3.52,3.53L8.34,19.94A46,46,0,0,0,0,46.5V812.64A47,47,0,0,0,1.39,824a.29.29,0,0,0,0,.09,46.44,46.44,0,0,0,11.5,20.73c.44.46.88.9,1.34,1.34L18,849.85a47,47,0,0,0,5,3.44,46.24,46.24,0,0,0,23.65,6.47H368.28a46.38,46.38,0,0,0,32.88-13.62l3.47-3.48a46.24,46.24,0,0,0,11-30V46.5A46.26,46.26,0,0,0,414.48,36.17Z"/></g></g></svg>