<svg xmlns="http://www.w3.org/2000/svg" viewBox="0 0 487.6 816.69"><defs><style>.cls-1{fill:#ccd6d5;opacity:0.4;}.cls-2{fill:#92461e;}.cls-3{fill:#00322d;}.cls-4{fill:#334d6c;}.cls-5{fill:#cb7c51;}.cls-6{fill:#002147;}.cls-7{fill:#335b57;}.cls-8{fill:#5d1905;}.cls-9{fill:#742d10;}.cls-10{fill:#667a91;}.cls-11{fill:#c3cad1;}.cls-12{fill:#fff;opacity:0.14;}.cls-13{fill:#909dac;}.cls-14,.cls-15{fill:none;stroke:#334d6c;stroke-miterlimit:10;}.cls-14{stroke-width:2.42px;}.cls-15{stroke-width:2.34px;}</style></defs><g id="Layer_2" data-name="Layer 2"><g id="Layer_1-2" data-name="Layer 1"><circle class="cls-1" cx="265.19" cy="271.9" r="222.41"/><path class="cls-2" d="M377.69,277.67l1.1,38.43s-4.34,3.62-4.78,3.62h-6.64l-3-7.82Z"/><circle class="cls-2" cx="356.62" cy="317.08" r="22.19"/><polygon class="cls-2" points="192.5 275.22 188.81 316.82 166.59 320.35 165.44 312.69 170.5 307.63 192.5 275.22"/><path class="cls-2" d="M93.2,304,74,315.13l4.55,6.35c1.65,2.32,6.5,5.13,9.34,5.14l78.92,6.57,4.88-30.34Z"/><circle class="cls-2" cx="169.64" cy="314.01" r="19.38"/><polygon class="cls-3" points="297.39 146.75 238.8 146.75 238.71 126.78 297.39 126.78 297.39 146.75"/><rect class="cls-2" x="243.72" y="138.63" width="46.64" height="38.9"/><path class="cls-3" d="M362.37,162.6c-24.51-7.49-39.05-14.26-63.57-21.74l-21.16,14.56L268,177.27l-9.63-21.85L237.2,140.86c-24.51,7.48-43,14.2-67.49,21.69,3.24,10.3,22.45,38.47,23.63,63.12,1.83,38.39,8.67,91.82,2.16,149.44,0,0,38.05,13.09,76,13.09,39.8,0,75.15-14.69,75.15-14.69-8.45-45.38-5.78-109.45-3.94-147.84C343.85,201,359.14,172.9,362.37,162.6Z"/><path class="cls-4" d="M348.91,400.78,193,398.38c.17-6.47.63-13.48,1.52-20.95.64-5.43,1.46-10.56,2.37-15.37a273,273,0,0,0,148,0C347.16,374.86,348.23,377.06,348.91,400.78Z"/><path class="cls-5" d="M348.91,382.64c-19.51,4.79-47.74,10.33-80.88,10a332.82,332.82,0,0,1-75-9.28c.15-5.26,1.11-10.84,1.26-15.4a254.57,254.57,0,0,0,76.13,11.9A248.35,248.35,0,0,0,347.67,368C348,374,348.91,382.64,348.91,382.64Z"/><polygon class="cls-4" points="243.18 395.98 236.43 395.02 239.74 370.91 246.5 371.87 243.18 395.98"/><polygon class="cls-4" points="339.11 367.07 332.36 368.03 335.68 392.14 342.43 391.18 339.11 367.07"/><polygon class="cls-4" points="299.96 370.91 293.21 371.87 296.53 395.98 303.28 395.02 299.96 370.91"/><polygon class="cls-4" points="204.03 392.14 197.28 391.18 200.59 367.07 207.34 368.03 204.03 392.14"/><polygon class="cls-6" points="249.9 730.93 256.7 816.69 183.92 816.69 183.92 812.21 223.04 791.38 226.41 730.93 249.9 730.93"/><path class="cls-4" d="M259.84,517.75s3.76-26.78,4.7-54.44c0,0-3.6-36.52,21.22-53.49l-4-15.3L193,398.38l-.9,31.31,5.63,139"/><path class="cls-4" d="M197.67,568.35s-.75,26.77,4.09,38.29l13.9,134.42s-4.17,34.25,3.28,40.53l0,6.47s18.15,4.05,37.55-.6l2.94-28-3.78-28.57s5.79-91.55,1.14-127.71l.55-1.79a14.09,14.09,0,0,0-2.68-13.13l-2-2.39s6.09-56,8-77.8"/><polygon class="cls-6" points="291.98 730.93 285.18 816.69 357.96 816.69 357.96 812.21 318.84 791.38 315.47 730.93 291.98 730.93"/><path class="cls-4" d="M282,517.75s-3.76-26.78-4.7-54.44c0,0,3.61-36.52-21.22-53.49l4-15.3,88.76,3.86.9,31.31-5.63,139"/><path class="cls-4" d="M344.21,568.35s.75,26.77-4.09,38.29l-13.9,134.42s4.17,34.25-3.28,40.53l0,6.47s-18.15,4.05-37.55-.6l-2.94-28,3.78-28.57s-5.79-91.55-1.14-127.71l-.55-1.79a14.12,14.12,0,0,1,2.68-13.13l2-2.39s-6.09-56-8-77.8"/><circle class="cls-7" cx="168.7" cy="288.63" r="17.14"/><path class="cls-3" d="M193.3,179.94c0-.29-.06-.58-.09-.87v-.16h0A19,19,0,0,0,155.32,181h0l-5.16,97.8c.83,15,5.3,13.22,7.88,17.35h0v.24L184.25,295h0c2.84-4.61,8.94-1.49,9.16-6.9l12.32-94.7C206.24,191.46,193.42,182,193.3,179.94Z"/><polygon class="cls-7" points="192.04 310.49 154.49 307.32 145.59 305.18 147.68 280.79 195.94 286.68 192.04 310.49"/><circle class="cls-7" cx="363.75" cy="288.63" r="17.14"/><path class="cls-3" d="M339.16,179.94c0-.29.06-.58.09-.87v-.16h0A19,19,0,0,1,377.14,181h.05l5.16,97.8c-.83,15-5.3,13.22-7.88,17.35h0v.24L348.2,295h0c-2.83-4.61-8.93-1.49-9.15-6.9l-12.33-94.7C326.22,191.46,339,182,339.16,179.94Z"/><polygon class="cls-7" points="339.36 296.88 377.96 307.32 386.87 305.18 384.78 280.79 336.52 286.68 339.36 296.88"/><path class="cls-2" d="M293.61,141.47c-.67.34-12.4,6.18-29.91,5.16-12.27-.71-19.33-4.31-20.9-5.16l.11-17.83v-2.36l0-5.27,0-2.69.06-10.06v-1.15h50.29v1.19l.08,12.22v0l0,6,0,2.41Z"/><path class="cls-2" d="M272.8,6.21l-.44,0c-1.47-.06-2.92-.1-4.37-.07s-2.89,0-4.36.07l-.44,0c-20,1.3-37.66,9.58-35.37,52.92.56,10.58,1.44,29.2,3.06,37.92,1.57,8.49,13.51,18.41,23.29,24.5a20.49,20.49,0,0,0,11,3.12l2.79,0,2.79,0a20.52,20.52,0,0,0,11-3.12c9.77-6.09,21.71-16,23.29-24.5,1.62-8.72,2.5-27.34,3.05-37.92C310.45,15.79,292.83,7.51,272.8,6.21Z"/><circle class="cls-6" cx="246.59" cy="67.15" r="2.21"/><path class="cls-6" d="M238.84,67.79a8.63,8.63,0,0,1,3.06-3,12.58,12.58,0,0,1,1.87-.94,19,19,0,0,1,2-.63,20.28,20.28,0,0,1,2.05-.31,12,12,0,0,1,2.08,0,9.5,9.5,0,0,1,4.07,1.2v.21a33.57,33.57,0,0,0-3.89.23,30.73,30.73,0,0,0-3.83.7,28,28,0,0,0-3.73,1.09A25.12,25.12,0,0,0,239,68Z"/><circle class="cls-6" cx="288.03" cy="67.15" r="2.21"/><path class="cls-6" d="M295.78,67.79a8.57,8.57,0,0,0-3.07-3,12,12,0,0,0-1.86-.94,19.79,19.79,0,0,0-2-.63,20.28,20.28,0,0,0-2.05-.31,12,12,0,0,0-2.08,0,9.5,9.5,0,0,0-4.07,1.2v.21a33.7,33.7,0,0,1,3.89.23,31.07,31.07,0,0,1,3.83.7,28.44,28.44,0,0,1,3.73,1.09A25.64,25.64,0,0,1,295.67,68Z"/><polygon class="cls-8" points="268.11 93.77 268.11 89.88 280.02 89.26 268.11 93.77"/><polygon class="cls-9" points="268.11 93.77 268.11 89.88 256.2 89.26 268.11 93.77"/><path class="cls-9" d="M279.1,84.08c-2-.82-5.78-4.29-6-5.16-.47-1.75-2-7-2-7a16.16,16.16,0,0,1,1.21-9.83l-4.27,5.21.07,22.54,11.9-.6Z"/><path class="cls-9" d="M263,114.16a9.52,9.52,0,0,1,2.74-1.16,14.61,14.61,0,0,1,2.77-.42,14,14,0,0,1,2.81.13,9.43,9.43,0,0,1,2.84.86,8.94,8.94,0,0,1-2.73,1.16,14,14,0,0,1-2.78.43,14.74,14.74,0,0,1-2.81-.13A9.55,9.55,0,0,1,263,114.16Z"/><path class="cls-9" d="M293.47,121.55l0-6v0c-8.77-.16-41.63-.83-50.45-2.2l0,2.69,0,5.27v2.36a36.49,36.49,0,0,0,25.31,10.79c8.68.55,18.23-3.22,25.27-10.47Z"/><path class="cls-2" d="M231.36,68.45c.88,8.25,1.41,16-1.83,16.7s-10.69-7-9.66-17.43c.86-8.66,1-11.59,4.17-12.51C227.71,54.15,230.48,60.2,231.36,68.45Z"/><path class="cls-2" d="M305.06,68.45c-.88,8.25-1.4,16,1.84,16.7s10.69-7,9.65-17.43c-.85-8.66-1-11.59-4.17-12.51C308.71,54.15,305.94,60.2,305.06,68.45Z"/><polygon class="cls-6" points="277.88 52.28 298.7 53.18 299.62 55.52 300.98 53.47 301.21 60.63 295.06 58.59 275.11 58.37 277.88 52.28"/><polygon class="cls-6" points="257.47 52.28 236.66 53.18 235.73 55.52 234.37 53.47 234.14 60.63 240.29 58.59 260.24 58.37 257.47 52.28"/><path class="cls-9" d="M255.49,101.39c2.37.32,4.5.64,6.61.85s4.16.35,6.2.37a46.25,46.25,0,0,0,6.11-.33,28.9,28.9,0,0,0,6.32-1.49,10.61,10.61,0,0,1-5.38,4.73,17.21,17.21,0,0,1-7.09,1.38,19.27,19.27,0,0,1-7-1.41A14.38,14.38,0,0,1,255.49,101.39Z"/><path class="cls-6" d="M307.9,69l-1.63-.1-4.36,16.34s-4.66,14.27-9.76,13.94-8.53-6-24.06-5.36c-15.53-.68-18.95,5-24.06,5.36s-9.76-13.94-9.76-13.94l-4.36-16.34-1.67.68s-.93,7.78,2.64,27.52a38.37,38.37,0,0,0,37.21,31.5c15.44,1,33.5-11,37.21-31.5C308.87,77.31,307.9,69,307.9,69Zm-30.22,42.19c-1.89.65-4.53-.43-5.16-2.3h-8.86c-.63,1.87-3.27,3-5.16,2.3-5.34-1.83-3.13-9-3.13-9,.72-.33,1.49-.63,2.28-.91a32.06,32.06,0,0,1,20.88,0c.79.28,1.56.58,2.28.91C280.81,102.1,283,109.31,277.68,111.14Z"/><path class="cls-9" d="M248.41,41.48a106.11,106.11,0,0,1,20.13-1.84c3.38,0,6.76.17,10.12.49a71.29,71.29,0,0,1,10,1.72c-3.36-.29-6.7-.52-10.05-.67s-6.7-.22-10-.19-6.7.06-10.05.14S251.78,41.33,248.41,41.48Z"/><path class="cls-9" d="M256.46,35.64a41.07,41.07,0,0,1,6.09-1.06,60.56,60.56,0,0,1,6.17-.32A42.12,42.12,0,0,1,281,35.86l-6.13-.2c-2,0-4.07-.08-6.1-.06C264.65,35.59,260.59,35.69,256.46,35.64Z"/><polygon class="cls-7" points="239.79 174.43 225.49 143.43 238.71 126.78 258.37 155.41 239.79 174.43"/><polygon class="cls-7" points="296.3 174.43 310.6 143.43 297.39 126.78 277.72 155.41 296.3 174.43"/><circle class="cls-7" cx="267.57" cy="183.33" r="2.49"/><circle class="cls-7" cx="267.57" cy="205.49" r="2.49"/><circle class="cls-7" cx="267.57" cy="227.65" r="2.49"/><circle class="cls-7" cx="267.57" cy="249.82" r="2.49"/><circle class="cls-7" cx="267.57" cy="316.3" r="2.49"/><circle class="cls-7" cx="267.57" cy="338.46" r="2.49"/><circle class="cls-7" cx="267.57" cy="360.62" r="2.49"/><circle class="cls-7" cx="267.57" cy="271.98" r="2.49"/><circle class="cls-7" cx="267.57" cy="294.14" r="2.49"/><path class="cls-10" d="M210.37,306.69l-84.22-.42.8-5,84.57,1a.21.21,0,0,1,.21.24L211.2,306A.84.84,0,0,1,210.37,306.69Z"/><polygon class="cls-11" points="211.76 302.28 123.34 292.09 123.34 292.09 126.95 301.29 211.76 302.28"/><polygon class="cls-4" points="126.33 299.7 164.05 300.26 124.47 294.95 126.33 299.7"/><path class="cls-10" d="M3.06,199.32l80.85,1.94a5.83,5.83,0,0,1,5.3,3.7L128,304a1.71,1.71,0,0,1-1.84,2.32L39.22,293.71a5.09,5.09,0,0,1-4-3.13l-35-87.17A3,3,0,0,1,3.06,199.32Z"/><path class="cls-12" d="M2.93,199.31l80.85,1.95a5.83,5.83,0,0,1,5.3,3.7l38.78,99"/><path class="cls-13" d="M53.35,245.4a10.4,10.4,0,0,1-1.11-2.21c-1.34-3.75.63-6.18,4.39-5.43a13.84,13.84,0,0,1,9.22,8.17,6.91,6.91,0,0,1,.42,2,21.08,21.08,0,0,1,6.43,8.57c2,5.59-1,9.21-6.55,8.08S54.4,258,52.41,252.38C51.29,249.24,51.75,246.81,53.35,245.4Z"/><path class="cls-13" d="M56.19,236.53l-1.73-.35a11.49,11.49,0,0,1-7.66-6.78l-.62-1.73,1.73.35a11.53,11.53,0,0,1,7.67,6.78Z"/><polygon class="cls-2" points="44.53 290.23 51.13 284.71 61.92 297.23 55.33 302.75 44.53 290.23"/><ellipse class="cls-2" cx="58.51" cy="299.62" rx="4.33" ry="4.26"/><polygon class="cls-2" points="99.69 315.85 83.14 325.23 55.31 302.75 57.57 293.27 57.59 292.95 92.16 295.15 99.69 315.85"/><ellipse class="cls-2" cx="87.66" cy="315.31" rx="10.99" ry="10.82"/><polygon class="cls-2" points="51.95 280.48 60.44 278.1 65.08 294.2 56.6 296.57 51.95 280.48"/><path class="cls-2" d="M58.07,259.69h0a4.39,4.39,0,0,1,3.31,3.05l.38,1.32a17,17,0,0,1,.4,7.89l-1.74,9.42L52,278.78Z"/><ellipse class="cls-2" cx="56.32" cy="279.71" rx="4.41" ry="4.34"/><polygon class="cls-2" points="64.22 278.44 73.39 277.27 75.67 294.66 66.5 295.83 64.22 278.44"/><path class="cls-2" d="M71,257.18h0a4.6,4.6,0,0,1,3.44,3.22l.39,1.38a18,18,0,0,1,.35,8.28l-1.92,9.84-8.77-2.78Z"/><ellipse class="cls-2" cx="68.88" cy="278.4" rx="4.62" ry="4.55"/><polygon class="cls-2" points="76 277.66 84.65 278.21 83.57 294.6 74.93 294.05 76 277.66"/><path class="cls-2" d="M87.5,259.69h0a4.25,4.25,0,0,1,2.27,3.76v1.35A16.67,16.67,0,0,1,88,272.35l-4.25,8.41-7.2-4.69Z"/><ellipse class="cls-2" cx="80.29" cy="278.45" rx="4.33" ry="4.26"/><polygon class="cls-2" points="86.98 278.62 95.45 280.4 91.97 296.47 83.5 294.69 86.98 278.62"/><path class="cls-2" d="M106.42,270.65h0a3.77,3.77,0,0,1-.49,3.86l-.75.95a15.32,15.32,0,0,1-5.47,4.33l-7.65,3.62-2.46-7.17Z"/><ellipse class="cls-2" cx="90.72" cy="279.95" rx="3.86" ry="3.8"/><ellipse class="cls-2" cx="60.96" cy="295.5" rx="4.41" ry="4.34"/><ellipse class="cls-2" cx="71.09" cy="295.29" rx="4.62" ry="4.55"/><ellipse class="cls-2" cx="87.83" cy="294.92" rx="4.33" ry="4.26"/><ellipse class="cls-2" cx="79.19" cy="294.37" rx="4.33" ry="4.26"/><path class="cls-2" d="M251.94,261.94l-8.12,19.23s33.8,23,51.05,32c21.76,11.34,54.7,25,54.7,25l26.27-29.82c-6.79-4.58-22.7-13-61.44-22.48C304.34,283.39,269,270.14,251.94,261.94Z"/><polygon class="cls-2" points="248.18 281.46 247.35 260.61 204.25 250.4 203.58 250.35 203.27 250.36 204.34 277.32 248.18 281.46"/><circle class="cls-2" cx="247.85" cy="271.24" r="10.63"/><rect class="cls-2" x="191.4" y="245.68" width="8.2" height="15.79" transform="translate(-76.39 422.69) rotate(-84.25)"/><path class="cls-2" d="M165.52,258.71h0a4,4,0,0,0,3.57,2.41l1.4.08a19.82,19.82,0,0,0,8.16-1.34l9.43-3.66-3.77-7.26Z"/><circle class="cls-2" cx="186.19" cy="252.69" r="4.1"/><rect class="cls-2" x="190.63" y="255.01" width="8.2" height="15.79" transform="translate(-60.26 467.89) rotate(-92.27)"/><path class="cls-2" d="M167,275h0a3.89,3.89,0,0,0,4.15,1.37l1.44-.32a21.89,21.89,0,0,0,7.93-3.65l8.69-6.3L183.74,260Z"/><circle class="cls-2" cx="186.32" cy="263.18" r="4.1"/><rect class="cls-2" x="191.44" y="263.28" width="8.2" height="15.79" transform="translate(-67.68 477.3) rotate(-92.27)"/><path class="cls-2" d="M169.84,280.76h0a4,4,0,0,0,3.87,1.83l1.37-.14a18.87,18.87,0,0,0,7.64-2.53l8.46-5-4.92-6.54Z"/><circle class="cls-2" cx="188.28" cy="271.98" r="4.1"/><rect class="cls-2" x="195.57" y="267.15" width="8.2" height="15.79" transform="translate(3.28 552.43) rotate(-108.72)"/><path class="cls-2" d="M179.94,287h0a4.35,4.35,0,0,0,3.94,1.17l1.15-.27a13.16,13.16,0,0,0,5.84-3.07l5.78-5.32-6.32-5.19Z"/><circle class="cls-2" cx="193.09" cy="277.23" r="4.1"/><circle class="cls-2" cx="203.47" cy="254.45" r="4.1"/><circle class="cls-2" cx="202.66" cy="262.59" r="4.1"/><circle class="cls-2" cx="206.81" cy="272.57" r="4.1"/><circle class="cls-2" cx="203.47" cy="270.81" r="4.1"/><path class="cls-9" d="M301.06,21.66a52.17,52.17,0,0,0-4.15-3.46h-17l-9.8-.31v-.13l-2,.06-2-.06v.13l-9.8.31h-17a52.17,52.17,0,0,0-4.15,3.46A17.13,17.13,0,0,0,234,26c.11.45,1.09,5.5,1.09,5.5s1.49-8.81,18-10a246,246,0,0,1,30,0c16.51,1.23,18,10,18,10s1-5.05,1.09-5.5A17.13,17.13,0,0,0,301.06,21.66Z"/><path class="cls-6" d="M311.91,31.82C308.39-.68,268.39,0,268.05,0s-40.34-.68-43.86,31.82c-2.11,19.61-.05,22.1,2.17,24.38,1.48,1.52,1.53,7.53,1.66,9.65l.22,3.68,1.67-.68s-2.8-17.66,4.87-19.45c0,0-5.13-23.55,9.57-27.95,10.25-3.08,37.15-3.08,47.4,0,14.7,4.4,9.57,28,9.57,28,7.67,1.79,4.87,19.45,4.87,19.45l1.67.68.22-3.68c.13-2.12.18-8.13,1.66-9.65C312,53.92,314,51.43,311.91,31.82Z"/><circle class="cls-14" cx="286.64" cy="70.45" r="14.84"/><circle class="cls-15" cx="248.32" cy="69.96" r="14.35"/><polygon class="cls-4" points="298.67 62.4 310.64 55.15 311.37 56.07 301.55 66.04 298.67 62.4"/><polygon class="cls-4" points="234.79 66.04 224.96 56.07 225.69 55.15 237.66 62.4 234.79 66.04"/><path class="cls-4" d="M261.62,69.68a5.7,5.7,0,0,1,11.39,0h-2.42a3.29,3.29,0,0,0-3.3-3.31A3.31,3.31,0,0,0,264,69.68Z"/></g></g></svg>