<svg xmlns="http://www.w3.org/2000/svg" viewBox="0 0 121.35 119.31"><defs><style>.cls-1{fill:#57335b;}.cls-2{fill:#ab99ad;stroke:#ab99ad;}.cls-2,.cls-3,.cls-8{stroke-linejoin:round;}.cls-2,.cls-3{stroke-width:1.54px;}.cls-3,.cls-7{fill:#816684;}.cls-3{stroke:#816684;}.cls-4{fill:none;stroke:#d5ccd6;stroke-width:1.27px;}.cls-4,.cls-5{stroke-miterlimit:10;}.cls-5{fill:#2d0032;stroke:#2d0032;stroke-width:1.39px;}.cls-6{fill:#fff;}.cls-8{fill:#ffb414;stroke:#ffb414;stroke-width:1.18px;}</style></defs><g id="Layer_2" data-name="Layer 2"><g id="Board_5" data-name="Board 5"><g id="Layer_11" data-name="Layer 11"><circle class="cls-1" cx="61.7" cy="59.65" r="59.65"/><polygon class="cls-2" points="89.89 44.55 45.22 18.89 45.22 54.1 89.89 79.77 89.89 44.55"/><polygon class="cls-3" points="79.06 51.8 34.39 26.14 34.39 61.36 79.06 87.02 79.06 51.8"/><line class="cls-4" x1="19.7" y1="63.09" y2="63.09"/><line class="cls-4" x1="19.7" y1="58.63" x2="8.39" y2="58.63"/><line class="cls-4" x1="19.7" y1="49.71" x2="12.58" y2="49.71"/><line class="cls-4" x1="19.7" y1="54.17" x2="6.01" y2="54.17"/><polygon class="cls-5" points="69.98 61.23 25.3 35.58 25.3 70.79 69.98 96.45 69.98 61.23"/><path class="cls-6" d="M60.57,62a6.36,6.36,0,0,1,.12-1.24l-25-14.55A7.36,7.36,0,0,1,29.57,50v11.8A7.37,7.37,0,0,1,33,68a7.22,7.22,0,0,1-.39,2.34L59.24,85.82a6.91,6.91,0,0,1,5.91-3.35h.22v-14A6.91,6.91,0,0,1,60.57,62Z"/><path class="cls-7" d="M54,66.11c.88,6.73-1.86,12-6.13,11.65s-8.45-5.94-9.33-12.55,1.86-11.76,6.13-11.58S53.16,59.39,54,66.11Z"/><path class="cls-8" d="M100.94,58.1a1.4,1.4,0,0,1-.46,1c-1.1,1.15-4,2-7.52,2-4.41,0-8-1.31-8-2.94s3.57-2.94,8-2.94S100.94,56.47,100.94,58.1Z"/><path class="cls-8" d="M100.94,62.83a1.4,1.4,0,0,1-.46,1c-1.1,1.14-4,2-7.52,2-4.41,0-8-1.32-8-2.94s3.57-2.95,8-2.95S100.94,61.2,100.94,62.83Z"/><path class="cls-8" d="M100.94,67.56a1.42,1.42,0,0,1-.46,1c-1.1,1.14-4,2-7.52,2-4.41,0-8-1.32-8-2.94s3.57-3,8-3S100.94,65.93,100.94,67.56Z"/><path class="cls-8" d="M100.94,72.28a1.42,1.42,0,0,1-.46,1c-1.1,1.14-4,2-7.52,2-4.41,0-8-1.32-8-3s3.57-2.94,8-2.94S100.94,70.66,100.94,72.28Z"/><path class="cls-8" d="M100.94,77a1.42,1.42,0,0,1-.46,1c-1.1,1.14-4,2-7.52,2-4.41,0-8-1.32-8-2.95s3.57-2.94,8-2.94S100.94,75.39,100.94,77Z"/></g></g></g></svg>