<svg xmlns="http://www.w3.org/2000/svg" viewBox="0 0 170.54 170.54"><defs><style>.cls-1{fill:#57335b;}.cls-2{fill:#816684;}.cls-3{fill:#ab99ad;}.cls-4{fill:#2d0032;}.cls-5{fill:none;stroke:#fff;stroke-linejoin:round;stroke-width:1.5px;}.cls-6{fill:#ffd272;}.cls-7{fill:#ffb014;}</style></defs><g id="Layer_2" data-name="Layer 2"><g id="Final_gfx" data-name="Final gfx"><circle class="cls-1" cx="85.27" cy="85.27" r="85.27"/><path class="cls-2" d="M70.87,97.94a8.11,8.11,0,0,1,1.78,1.42c1.15,1.19,2.4,1,2.4-.45v-11l-9.57-5.52-1.6-.92c-.68-.39-1-1.49-.63-1.89a3.74,3.74,0,0,0,1-2.81,10.73,10.73,0,0,0-4.85-8.4c-2.69-1.55-4.86-.29-4.86,2.8a9.4,9.4,0,0,0,1,3.94c.4.87,0,1.54-.64,1.15l-1.6-.92-9.56-5.52v11c0,1.43,1.25,3.09,2.39,3.22a5,5,0,0,1,1.79.64A10.74,10.74,0,0,1,52.74,93c0,3.07-2.18,4.32-4.85,2.78a8.27,8.27,0,0,1-1.79-1.43c-1.14-1.18-2.39-1-2.39.46v11l9.56,5.53,1.6.92c.68.39,1,1.49.64,1.89a3.74,3.74,0,0,0-1,2.8,10.69,10.69,0,0,0,4.86,8.4c2.68,1.56,4.85.3,4.85-2.79a9.39,9.39,0,0,0-1-4c-.41-.86,0-1.54.63-1.15l1.6.92L75.05,124v-11c0-1.43-1.25-3.08-2.4-3.22a4.7,4.7,0,0,1-1.78-.64A10.71,10.71,0,0,1,66,100.71C66,97.64,68.2,96.4,70.87,97.94Z"/><path class="cls-3" d="M80,67.1a5.5,5.5,0,0,0-2.55-1.16c-1.16-.14-2.42-1.78-2.42-3.22v-11L63.89,45.23c-.68-.39-1,.3-.63,1.17a8.67,8.67,0,0,1,.92,4.77c-.32,2.27-2.1,3.21-4.24,2.24C57,52.1,54.53,48,54.53,44.72a3.8,3.8,0,0,1,1-2.81c.41-.39.05-1.49-.63-1.88L43.71,33.58V44.63c0,1.43-1.25,1.62-2.41.43a7.61,7.61,0,0,0-2.55-1.79,2.9,2.9,0,0,0-4,2.57c-.32,3.19,2,7.37,4.83,9a4.61,4.61,0,0,0,1.78.63c1.15.14,2.39,1.79,2.39,3.22v11l11.16,6.44c.69.4,1.05-.3.63-1.17a8.66,8.66,0,0,1-.91-4.77c.32-2.27,2.1-3.2,4.24-2.24,2.93,1.32,5.41,5.38,5.41,8.69a3.8,3.8,0,0,1-1,2.81c-.42.39,0,1.49.63,1.88l11.16,6.45v-11c0-1.42,1.25-1.63,2.4-.45a7.83,7.83,0,0,0,1.78,1.42c2.86,1.66,5.15.11,4.82-3.46A12.08,12.08,0,0,0,80,67.1Z"/><path class="cls-3" d="M111.36,121.38a5.5,5.5,0,0,0-2.55-1.16,3.5,3.5,0,0,1-2.42-3.22V106L95.23,99.51c-.69-.4-1,.3-.63,1.17a8.67,8.67,0,0,1,.92,4.77c-.33,2.27-2.1,3.2-4.25,2.24-2.92-1.32-5.4-5.38-5.4-8.69a3.74,3.74,0,0,1,1-2.81c.41-.39,0-1.49-.64-1.89L75.05,87.86v11c0,1.44-1.26,1.63-2.42.43a7.52,7.52,0,0,0-2.55-1.78,2.9,2.9,0,0,0-4,2.56c-.32,3.2,2,7.38,4.82,9a4.7,4.7,0,0,0,1.78.64c1.15.14,2.4,1.79,2.4,3.22v11l11.16,6.45c.69.39,1-.3.63-1.17a8.76,8.76,0,0,1-.92-4.77c.33-2.27,2.11-3.21,4.25-2.24,2.93,1.31,5.4,5.38,5.4,8.69a3.77,3.77,0,0,1-1,2.81c-.41.39,0,1.49.64,1.88l11.16,6.45v-11c0-1.43,1.25-1.64,2.4-.45a8.11,8.11,0,0,0,1.78,1.42c2.86,1.65,5.15.11,4.82-3.46A12.11,12.11,0,0,0,111.36,121.38Z"/><path class="cls-3" d="M88.67,102.92l5.94-3.43,2.44,3.07-.17,1.58-.43,2.34-1,.43s-2.82-.78-2.88-.82Z"/><polygon class="cls-3" points="80.74 134.04 86.82 130.52 85.69 128.78 81.81 126.5 79.38 125.56 78.87 127.72 79.5 130.52 80.74 134.04"/><polygon class="cls-3" points="100.39 145.62 106.39 142.14 103.66 138.26 100.39 137.24 98.9 137.24 98.9 140.38 100.39 145.62"/><polygon class="cls-3" points="76.79 81.52 82.75 78.07 81.74 75.57 79.46 74.68 76.48 74.49 75.84 76.17 76.79 81.52"/><path class="cls-2" d="M56.83,129.28l6-3.53s-1.66-1.12-1.86-1.2-3.47-1.72-3.47-1.72-.8,0-.83.14-.72,1.66-.72,1.66Z"/><path class="cls-3" d="M37.72,37.06l6-3.48L45,37.65s0,1.06,0,1.52-.78,3.37-.78,3.37h-.66L42.42,41.3Z"/><polygon class="cls-3" points="30.22 46.87 36.3 43.35 37.02 45.17 37.52 46.95 37.72 49.09 34.95 50.99 33.51 50.7 30.22 46.87"/><path class="cls-3" d="M57.33,48.65l6-3.48,1.21,1,.82,2.53.48.6-.9,3.46-.46.24-2-.38s-5-2.79-4.94-2.84S57.33,48.65,57.33,48.65Z"/><path class="cls-2" d="M74,70.58a5.5,5.5,0,0,0-2.55-1.16,3.49,3.49,0,0,1-2.42-3.22V55.15L57.89,48.71c-.68-.4-1,.3-.63,1.17a8.67,8.67,0,0,1,.92,4.77c-.32,2.27-2.1,3.2-4.24,2.24-2.93-1.31-5.41-5.38-5.41-8.69a3.8,3.8,0,0,1,1-2.81c.41-.39.05-1.49-.63-1.88L37.72,37.06v11c0,1.44-1.26,1.63-2.42.43a7.72,7.72,0,0,0-2.55-1.78,2.9,2.9,0,0,0-4,2.57c-.32,3.19,2,7.37,4.83,9a4.53,4.53,0,0,0,1.78.64c1.15.14,2.4,1.79,2.4,3.22v11l11.16,6.44c.68.39,1-.3.63-1.17a8.59,8.59,0,0,1-.92-4.77c.32-2.27,2.1-3.21,4.24-2.24,2.93,1.31,5.41,5.38,5.41,8.69a3.8,3.8,0,0,1-1,2.81c-.41.39,0,1.49.63,1.88l11.16,6.45v-11c0-1.43,1.25-1.64,2.4-.45a8.11,8.11,0,0,0,1.78,1.42c2.86,1.66,5.15.11,4.82-3.46A12.06,12.06,0,0,0,74,70.58Z"/><polygon class="cls-3" points="75.05 87.86 69.05 91.37 78.08 96.55 76.86 90.96 75.05 87.86"/><polygon class="cls-3" points="107.99 135.89 114.13 132.32 113.09 130.24 110.75 128.61 109.2 128.37 107.61 128.69 106.39 131.09 107.99 135.89"/><path class="cls-2" d="M105.36,124.86a5.5,5.5,0,0,0-2.55-1.16,3.5,3.5,0,0,1-2.42-3.22v-11L89.23,103c-.69-.4-1,.3-.63,1.16a8.71,8.71,0,0,1,.92,4.77c-.33,2.28-2.1,3.21-4.25,2.25-2.92-1.32-5.4-5.38-5.4-8.69a3.74,3.74,0,0,1,1-2.81c.41-.39.05-1.49-.64-1.89L69.05,91.34v11c0,1.44-1.26,1.63-2.42.43A7.52,7.52,0,0,0,64.08,101a2.9,2.9,0,0,0-4,2.56c-.32,3.2,2,7.38,4.82,9a4.7,4.7,0,0,0,1.78.64c1.15.14,2.4,1.79,2.4,3.22v11L80.21,134c.69.39,1-.3.63-1.17a8.66,8.66,0,0,1-.91-4.77c.32-2.27,2.1-3.21,4.24-2.24,2.93,1.31,5.4,5.38,5.4,8.69a3.77,3.77,0,0,1-1,2.81c-.41.38,0,1.49.64,1.88l11.16,6.45V134.57c0-1.43,1.25-1.64,2.4-.45a8.11,8.11,0,0,0,1.78,1.42c2.86,1.65,5.15.11,4.82-3.46A12,12,0,0,0,105.36,124.86Z"/><polygon class="cls-2" points="38.22 97.24 44.2 93.74 45.72 95.28 46.51 97.46 46.95 98.54 45.62 100.99 43.56 101.29 39.05 100.92 38.22 97.24"/><path class="cls-4" d="M64.87,101.45a7.93,7.93,0,0,1,1.79,1.42c1.14,1.19,2.39,1,2.39-.45v-11l-9.56-5.52-1.6-.92c-.68-.4-1-1.5-.64-1.89a3.75,3.75,0,0,0,1-2.81,10.69,10.69,0,0,0-4.86-8.4c-2.68-1.55-4.85-.3-4.85,2.79a9.39,9.39,0,0,0,1,3.95c.41.86.05,1.54-.63,1.15l-1.6-.92-9.57-5.52v11c0,1.43,1.25,3.08,2.4,3.22a4.7,4.7,0,0,1,1.78.64,10.71,10.71,0,0,1,4.85,8.37c0,3.07-2.18,4.31-4.85,2.77a8.11,8.11,0,0,1-1.78-1.42c-1.15-1.19-2.4-1-2.4.45V109.4l9.57,5.52,1.6.93c.68.39,1,1.49.63,1.88a3.74,3.74,0,0,0-1,2.81,10.71,10.71,0,0,0,4.85,8.4c2.69,1.55,4.86.3,4.86-2.79a9.41,9.41,0,0,0-1-4c-.4-.86,0-1.54.64-1.15l1.6.92,9.56,5.52v-11c0-1.43-1.25-3.08-2.39-3.22a4.8,4.8,0,0,1-1.79-.64A10.74,10.74,0,0,1,60,104.22C60,101.15,62.2,99.91,64.87,101.45Z"/><polygon class="cls-3" points="69.05 82.68 69.05 91.37 75.05 87.86 73.79 84.46 69.05 82.68"/><circle class="cls-5" cx="126.57" cy="64.74" r="19.7"/><line class="cls-5" x1="118.22" y1="57.09" x2="152.38" y2="57.09"/><line class="cls-5" x1="118.22" y1="61.71" x2="137.82" y2="61.71"/><line class="cls-5" x1="118.22" y1="70.96" x2="130.56" y2="70.96"/><line class="cls-5" x1="118.22" y1="66.34" x2="141.95" y2="66.34"/><path class="cls-6" d="M121,65.92a8.4,8.4,0,0,1,1.79,1.42c1.14,1.19,2.39,1,2.39-.45v-11l-9.57-5.52L114,49.4c-.68-.4-1-1.5-.64-1.89a3.74,3.74,0,0,0,1-2.81,10.71,10.71,0,0,0-4.85-8.4c-2.68-1.55-4.85-.29-4.85,2.8a9.38,9.38,0,0,0,1,3.94c.41.86,0,1.54-.64,1.15l-1.59-.92-9.57-5.52v11c0,1.43,1.25,3.09,2.4,3.22a4.88,4.88,0,0,1,1.78.64A10.74,10.74,0,0,1,102.84,61c0,3.07-2.18,4.32-4.85,2.77a8.11,8.11,0,0,1-1.78-1.42c-1.15-1.18-2.4-1-2.4.45V73.87l9.57,5.53,1.59.92c.68.39,1,1.49.64,1.88a3.77,3.77,0,0,0-1,2.81,10.71,10.71,0,0,0,4.85,8.4c2.68,1.56,4.85.3,4.85-2.79a9.39,9.39,0,0,0-1-4c-.4-.86,0-1.54.64-1.15l1.59.92L125.15,92v-11c0-1.43-1.25-3.08-2.39-3.22a4.68,4.68,0,0,1-1.79-.64,10.74,10.74,0,0,1-4.85-8.37C116.14,65.62,118.3,64.38,121,65.92Z"/><polygon class="cls-6" points="119.16 95.47 125.15 91.97 122.15 86.51 118.69 85.61 117.67 86.04 117.11 89.67 119.16 95.47"/><path class="cls-6" d="M87.81,41.25l6-3.5v7s1.5,4.95.75,4.52a41,41,0,0,1-4-3C90.33,45.93,87.81,41.25,87.81,41.25Z"/><polygon class="cls-6" points="107.02 97.19 112.98 93.72 112.06 92 109.1 90.3 107.36 90.17 105.44 91.88 107.02 97.19"/><path class="cls-6" d="M88.37,65.19l5.93-3.47s1,.91,1.07,1,.16,2.14.16,2.14v.48l-.36,3.26-.55.33a7.22,7.22,0,0,1-2-.57L91,67.75Z"/><polygon class="cls-6" points="118.67 71.49 124.69 67.97 123.89 64.51 121.38 63.7 117.11 63.49 116.63 64.86 118.67 71.49"/><polygon class="cls-6" points="100.14 39.41 106.11 35.92 108.65 38.67 108.12 42.53 106.83 43.27 102.81 43.5 100.14 39.41"/><path class="cls-7" d="M115,69.42a7.93,7.93,0,0,1,1.79,1.42c1.15,1.19,2.4,1,2.4-.45v-11l-9.57-5.52L108,52.9c-.68-.39-1-1.49-.63-1.89a3.78,3.78,0,0,0,1-2.81,10.71,10.71,0,0,0-4.86-8.4c-2.68-1.55-4.85-.29-4.85,2.8a9.38,9.38,0,0,0,1,3.94c.41.87,0,1.54-.63,1.15l-1.6-.92-9.57-5.52v11c0,1.43,1.25,3.09,2.4,3.22a4.88,4.88,0,0,1,1.78.64,10.75,10.75,0,0,1,4.86,8.37c0,3.07-2.19,4.32-4.86,2.78a8.47,8.47,0,0,1-1.78-1.43c-1.15-1.18-2.4-1-2.4.45V77.37l9.57,5.53,1.6.92c.68.39,1,1.49.63,1.89a3.73,3.73,0,0,0-1,2.8,10.71,10.71,0,0,0,4.85,8.4c2.69,1.56,4.86.3,4.86-2.79a9.54,9.54,0,0,0-1-4c-.41-.86,0-1.54.63-1.15l1.6.92,9.57,5.53v-11c0-1.43-1.25-3.08-2.4-3.22a4.8,4.8,0,0,1-1.79-.64,10.74,10.74,0,0,1-4.85-8.37C110.14,69.12,112.3,67.88,115,69.42Z"/></g></g></svg>