<svg xmlns="http://www.w3.org/2000/svg" viewBox="0 0 218.3 187.34"><defs><style>.cls-1{fill:#002147;}.cls-2{fill:#fff;}.cls-3{fill:#ffb014;}.cls-4{fill:#ec3826;}.cls-5{fill:#92461e;}.cls-6{fill:#f06051;}.cls-7{fill:#f4887d;}.cls-10,.cls-11,.cls-12,.cls-13,.cls-14,.cls-8,.cls-9{fill:none;stroke:#f1e1d8;stroke-miterlimit:10;}.cls-8{stroke-width:2.7px;}.cls-9{stroke-width:1.63px;}.cls-10{stroke-width:1.56px;}.cls-11{stroke-width:2.19px;}.cls-12{stroke-width:2.86px;}.cls-13{stroke-width:1.65px;}.cls-14{stroke-width:2.37px;}.cls-15{fill:#f1e1d8;}.cls-16{fill:#335b57;}</style></defs><g id="Layer_2" data-name="Layer 2"><g id="additional_assets" data-name="additional assets"><path class="cls-1" d="M208.62,168.32H9.68c-5.34,0-9.68-5-9.68-11.18V23.66c0-6.17,4.34-11.18,9.68-11.18H208.62c5.35,0,9.68,5,9.68,11.18V157.14C218.3,163.32,214,168.32,208.62,168.32Z"/><circle class="cls-2" cx="108.5" cy="93.67" r="93.67"/><polygon class="cls-3" points="188.24 113.69 194.63 84.64 172.35 34.52 129.79 10.67 85.06 13.19 51.05 31.84 23.67 86.21 38.41 137.72 76.29 173.22 116.83 181.41 152.38 163.56 189.21 122.69 188.24 113.69"/><path class="cls-4" d="M183.85,107c1.46,10.48-5.82,17.24-7.52,24.59-2,8.66-5.33,7.14-13,14.77-2.3,2.29-8,4.51-9.17,7.5-2.63,6.86-9.56,8.84-16.69,11.49-3.68,1.38-7.4,3.57-11.37,3.25-6-.47-8.41,2.75-16.86.09-4.39,0-11.42.83-16.76-2.07-3.53-1.92-3.26.67-7-.61-2.26-.77-9.61-3-11.59-6.8-3.44-6.58-8.22-2.84-14-7.74-1.65-1.4-6.06-6.35-7.6-7.9-2.3-2.29-3.88-7.86-5.85-10.37-4.4-5.6-5.73-5.07-8.43-11.54-1.54-3.68-1-8.33-2-12.22-1.45-5.89-3.69-7.59-3.74-13.79S35.36,84.72,34.61,78c-.84-7.39,2-13.41,7.31-20.55,1.57-2.1,2.83-8.4,4.37-10.54,2.38-3.31,7.82-5.74,10.76-8.68,3.45-3.45,4.41-7.24,8.36-9.92,3.6-2.44,9.14-3.69,13.08-5.46,3.32-1.5,5-3.62,8.49-4.63,7-2,10.68-.29,18.21-.23,5,0,13.53-2.14,18.27-1.13S133.62,21.45,138,23.3c5.44,2.32,7.2,2.13,12.07,5.66,3.78,2.72,10.49,8.73,15.93,12.59,10.39,8.89,9.14,17,15.64,24.94,5.42,6.65,6.44,16.9,5.28,26.81C186.66,95.39,183.56,104.93,183.85,107Zm7.78-13.67c-.1-12.85-2-26-7.06-37.32a81.79,81.79,0,0,0-42.19-41c-9.89-4.26-22.17-4.37-33.55-4.46C100.7,10.48,91.71,10,84.12,12A79.75,79.75,0,0,0,28.48,65.32C26,73.16,27.23,83.4,27.29,92.08c.05,5.83-1.57,12-.59,17.8,3,17.33,12.35,33.33,24.19,44.65,14.86,14.21,37.19,20.18,59.2,20.35,9,.07,17.9,1.25,26.25-1.2,19.72-5.77,36.62-20.6,46.48-37.74,6.93-12.06,8.92-27.6,8.81-42.6Z"/><path class="cls-5" d="M190.63,93.33a72.13,72.13,0,0,1-2.39,20.36c-2,7.44-3.32,14.78-7.16,21.73-3.16,5.72-10,11.7-14.62,16.29-3.45,3.45-5.62,6.08-9.55,8.81-5,3.45-11.9,7.9-17.46,10.13-9.7,3.89-19.45,2.4-30.27,2.31-6.17,0-11.33,1.13-17.21-.23-7.67-1.77-15.58-7-22.44-10.82-6.61-3.72-13.51-5.08-19-10.59-3.57-3.58-4.5-9.48-7.33-13.54-5.88-8.44-12.44-17-14.86-26.88-1.5-6.18-.09-14.57-.14-21.06-.06-8.08,0-17.44,2.14-25,2-6.81,6.73-10.6,10.44-16.65,3.3-5.41,5.71-11.8,10.3-16.39,3.36-3.36,6.84-4.06,10.65-6.73,8-5.58,14-9.53,23.37-11.92a105.78,105.78,0,0,1,23.76-2.64c3.25,0,4.46,1.23,7.64,1.63,7,.87,18.2,1.29,24.73,3.89,5.62,2.24,11.4,7.31,16.44,10.75A64.22,64.22,0,0,1,168,35.73c5.18,5.18,10,10.31,13.64,16.46a42.43,42.43,0,0,1,2.52,5.11,128,128,0,0,1,4.42,14.46c1.92,7,1.51,7,1.57,14.39Zm7.73.06a89.7,89.7,0,0,0-14.45-48.14,91.16,91.16,0,0,0-33.49-30.83A89.26,89.26,0,0,0,108.78,3.81,88.53,88.53,0,0,0,88.17,6.05,87.16,87.16,0,0,0,21.49,78.43a90,90,0,0,0,.15,26.84,89.33,89.33,0,0,0,6.45,22.06,91.25,91.25,0,0,0,43.08,45,89.59,89.59,0,0,0,54.2,8,87.16,87.16,0,0,0,21.88-6.65,85.4,85.4,0,0,0,9.27-4.91,87.21,87.21,0,0,0,40.25-58,89.34,89.34,0,0,0,1.59-17.51Z"/><ellipse class="cls-6" cx="114.78" cy="148.41" rx="12.4" ry="12.59" transform="translate(-71.32 124.55) rotate(-44.98)"/><ellipse class="cls-7" cx="116.19" cy="148.3" rx="1.98" ry="2.01" transform="translate(-70.82 125.52) rotate(-44.98)"/><ellipse class="cls-7" cx="112.91" cy="140.77" rx="2.59" ry="2.63" transform="translate(-66.46 120.99) rotate(-44.98)"/><ellipse class="cls-7" cx="117.44" cy="155.59" rx="3.09" ry="3.14" transform="translate(-75.61 128.54) rotate(-44.98)"/><ellipse class="cls-7" cx="106.45" cy="151.43" rx="2.03" ry="2.06" transform="translate(-75.89 119.55) rotate(-44.98)"/><ellipse class="cls-7" cx="110.61" cy="155.96" rx="1.86" ry="1.89" transform="translate(-77.87 123.81) rotate(-44.98)"/><ellipse class="cls-7" cx="106.76" cy="144.27" rx="1.97" ry="2" transform="translate(-70.73 117.67) rotate(-44.98)"/><ellipse class="cls-7" cx="117.83" cy="140.21" rx="0.99" ry="1.01" transform="translate(-64.63 124.31) rotate(-44.98)"/><ellipse class="cls-7" cx="110.85" cy="147.29" rx="0.99" ry="1.01" transform="translate(-71.67 121.45) rotate(-44.98)"/><ellipse class="cls-7" cx="121.41" cy="144.1" rx="2.33" ry="2.36" transform="translate(-66.33 127.98) rotate(-44.98)"/><ellipse class="cls-7" cx="123.06" cy="150.85" rx="1.8" ry="1.83" transform="translate(-70.62 131.12) rotate(-44.98)"/><ellipse class="cls-6" cx="156.23" cy="130.96" rx="12.4" ry="12.59" transform="translate(-46.85 148.74) rotate(-44.98)"/><ellipse class="cls-7" cx="157.64" cy="130.85" rx="1.98" ry="2.01" transform="translate(-46.36 149.71) rotate(-44.98)"/><ellipse class="cls-7" cx="154.36" cy="123.32" rx="2.59" ry="2.63" transform="translate(-42 145.19) rotate(-44.98)"/><ellipse class="cls-7" cx="158.89" cy="138.14" rx="3.09" ry="3.14" transform="translate(-51.15 152.73) rotate(-44.98)"/><ellipse class="cls-7" cx="147.9" cy="133.98" rx="2.03" ry="2.06" transform="translate(-51.42 143.74) rotate(-44.98)"/><ellipse class="cls-7" cx="152.06" cy="138.51" rx="1.86" ry="1.89" transform="translate(-53.41 148.01) rotate(-44.98)"/><ellipse class="cls-7" cx="148.21" cy="126.81" rx="1.97" ry="2" transform="translate(-46.27 141.86) rotate(-44.98)"/><ellipse class="cls-7" cx="159.28" cy="122.76" rx="0.99" ry="1.01" transform="translate(-40.16 148.5) rotate(-44.98)"/><ellipse class="cls-7" cx="152.3" cy="129.83" rx="0.99" ry="1.01" transform="translate(-47.2 145.64) rotate(-44.98)"/><ellipse class="cls-7" cx="162.86" cy="126.65" rx="2.33" ry="2.36" transform="translate(-41.87 152.17) rotate(-44.98)"/><ellipse class="cls-7" cx="164.51" cy="133.4" rx="1.8" ry="1.83" transform="translate(-46.15 155.31) rotate(-44.98)"/><ellipse class="cls-6" cx="168.63" cy="79.78" rx="12.4" ry="12.59" transform="translate(-7.05 142.53) rotate(-44.98)"/><ellipse class="cls-7" cx="170.04" cy="79.67" rx="1.98" ry="2.01" transform="translate(-6.56 143.5) rotate(-44.98)"/><ellipse class="cls-7" cx="166.76" cy="72.13" rx="2.59" ry="2.63" transform="translate(-2.19 138.97) rotate(-44.98)"/><ellipse class="cls-7" cx="171.29" cy="86.96" rx="3.09" ry="3.14" transform="translate(-11.34 146.52) rotate(-44.98)"/><ellipse class="cls-7" cx="160.3" cy="82.8" rx="2.03" ry="2.06" transform="translate(-11.62 137.53) rotate(-44.98)"/><ellipse class="cls-7" cx="164.46" cy="87.33" rx="1.86" ry="1.89" transform="translate(-13.6 141.79) rotate(-44.98)"/><ellipse class="cls-7" cx="160.61" cy="75.63" rx="1.97" ry="2" transform="translate(-6.46 135.65) rotate(-44.98)"/><ellipse class="cls-7" cx="171.68" cy="71.58" rx="0.99" ry="1.01" transform="translate(-0.36 142.29) rotate(-44.98)"/><ellipse class="cls-7" cx="164.7" cy="78.65" rx="0.99" ry="1.01" transform="translate(-7.4 139.43) rotate(-44.98)"/><ellipse class="cls-7" cx="175.26" cy="75.47" rx="2.33" ry="2.36" transform="translate(-2.06 145.96) rotate(-44.98)"/><ellipse class="cls-7" cx="176.91" cy="82.22" rx="1.8" ry="1.83" transform="translate(-6.35 149.1) rotate(-44.98)"/><ellipse class="cls-6" cx="128.19" cy="37.78" rx="12.4" ry="12.59" transform="translate(10.8 101.66) rotate(-44.98)"/><ellipse class="cls-7" cx="129.61" cy="37.67" rx="1.98" ry="2.01" transform="translate(11.3 102.63) rotate(-44.98)"/><ellipse class="cls-7" cx="126.32" cy="30.14" rx="2.59" ry="2.63" transform="translate(15.66 98.1) rotate(-44.98)"/><ellipse class="cls-7" cx="130.85" cy="44.96" rx="3.09" ry="3.14" transform="translate(6.51 105.65) rotate(-44.98)"/><ellipse class="cls-7" cx="119.86" cy="40.8" rx="2.03" ry="2.06" transform="translate(6.23 96.66) rotate(-44.98)"/><ellipse class="cls-7" cx="124.02" cy="45.33" rx="1.86" ry="1.89" transform="translate(4.25 100.92) rotate(-44.98)"/><ellipse class="cls-7" cx="120.17" cy="33.64" rx="1.97" ry="2" transform="translate(11.39 94.78) rotate(-44.98)"/><ellipse class="cls-7" cx="131.24" cy="29.58" rx="0.99" ry="1.01" transform="translate(17.49 101.42) rotate(-44.98)"/><ellipse class="cls-7" cx="124.27" cy="36.66" rx="0.99" ry="1.01" transform="translate(10.45 98.56) rotate(-44.98)"/><ellipse class="cls-7" cx="134.82" cy="33.47" rx="2.33" ry="2.36" transform="translate(15.79 105.09) rotate(-44.98)"/><ellipse class="cls-7" cx="136.48" cy="40.22" rx="1.8" ry="1.83" transform="translate(11.5 108.23) rotate(-44.98)"/><ellipse class="cls-6" cx="77.22" cy="44.55" rx="12.4" ry="12.59" transform="translate(-8.9 67.61) rotate(-44.98)"/><ellipse class="cls-7" cx="78.63" cy="44.44" rx="1.98" ry="2.01" transform="translate(-8.41 68.58) rotate(-44.98)"/><ellipse class="cls-7" cx="75.35" cy="36.91" rx="2.59" ry="2.63" transform="translate(-4.04 64.06) rotate(-44.98)"/><ellipse class="cls-7" cx="79.88" cy="51.73" rx="3.09" ry="3.14" transform="translate(-13.19 71.6) rotate(-44.98)"/><ellipse class="cls-7" cx="68.89" cy="47.57" rx="2.03" ry="2.06" transform="translate(-13.47 62.61) rotate(-44.98)"/><ellipse class="cls-7" cx="73.05" cy="52.1" rx="1.86" ry="1.89" transform="translate(-15.45 66.88) rotate(-44.98)"/><ellipse class="cls-7" cx="69.2" cy="40.41" rx="1.97" ry="2" transform="translate(-8.31 60.73) rotate(-44.98)"/><ellipse class="cls-7" cx="80.27" cy="36.35" rx="0.99" ry="1.01" transform="translate(-2.21 67.37) rotate(-44.98)"/><ellipse class="cls-7" cx="73.29" cy="43.43" rx="0.99" ry="1.01" transform="translate(-9.25 64.51) rotate(-44.98)"/><ellipse class="cls-7" cx="83.85" cy="40.25" rx="2.33" ry="2.36" transform="translate(-3.91 71.04) rotate(-44.98)"/><ellipse class="cls-7" cx="85.5" cy="46.99" rx="1.8" ry="1.83" transform="translate(-8.2 74.19) rotate(-44.98)"/><ellipse class="cls-6" cx="53.46" cy="96.08" rx="12.4" ry="12.59" transform="translate(-52.27 65.9) rotate(-44.98)"/><ellipse class="cls-7" cx="54.88" cy="95.98" rx="1.98" ry="2.01" transform="translate(-51.78 66.87) rotate(-44.98)"/><ellipse class="cls-7" cx="51.59" cy="88.44" rx="2.59" ry="2.63" transform="translate(-47.41 62.35) rotate(-44.98)"/><ellipse class="cls-7" cx="56.13" cy="103.27" rx="3.09" ry="3.14" transform="translate(-56.57 69.89) rotate(-44.98)"/><ellipse class="cls-7" cx="45.14" cy="99.1" rx="2.03" ry="2.06" transform="translate(-56.84 60.9) rotate(-44.98)"/><ellipse class="cls-7" cx="49.3" cy="103.63" rx="1.86" ry="1.89" transform="translate(-58.82 65.17) rotate(-44.98)"/><ellipse class="cls-7" cx="45.45" cy="91.94" rx="1.97" ry="2" transform="translate(-51.69 59.02) rotate(-44.98)"/><ellipse class="cls-7" cx="56.51" cy="87.88" rx="0.99" ry="1.01" transform="translate(-45.58 65.66) rotate(-44.98)"/><ellipse class="cls-7" cx="49.54" cy="94.96" rx="0.99" ry="1.01" transform="translate(-52.62 62.8) rotate(-44.98)"/><ellipse class="cls-7" cx="60.09" cy="91.78" rx="2.33" ry="2.36" transform="translate(-47.29 69.33) rotate(-44.98)"/><ellipse class="cls-7" cx="61.75" cy="98.53" rx="1.8" ry="1.83" transform="translate(-51.57 72.48) rotate(-44.98)"/><ellipse class="cls-6" cx="132.03" cy="94.06" rx="12.4" ry="12.59" transform="translate(-27.85 120.84) rotate(-44.98)"/><ellipse class="cls-7" cx="133.45" cy="93.95" rx="1.98" ry="2.01" transform="translate(-27.36 121.82) rotate(-44.98)"/><ellipse class="cls-7" cx="130.16" cy="86.42" rx="2.59" ry="2.63" transform="translate(-23 117.29) rotate(-44.98)"/><ellipse class="cls-7" cx="134.7" cy="101.24" rx="3.09" ry="3.14" transform="translate(-32.15 124.83) rotate(-44.98)"/><ellipse class="cls-7" cx="123.7" cy="97.08" rx="2.03" ry="2.06" transform="translate(-32.42 115.84) rotate(-44.98)"/><ellipse class="cls-7" cx="127.86" cy="101.61" rx="1.86" ry="1.89" transform="translate(-34.41 120.11) rotate(-44.98)"/><ellipse class="cls-7" cx="124.01" cy="89.92" rx="1.97" ry="2" transform="translate(-27.27 113.96) rotate(-44.98)"/><ellipse class="cls-7" cx="135.08" cy="85.86" rx="0.99" ry="1.01" transform="translate(-21.16 120.6) rotate(-44.98)"/><ellipse class="cls-7" cx="128.11" cy="92.94" rx="0.99" ry="1.01" transform="translate(-28.21 117.74) rotate(-44.98)"/><ellipse class="cls-7" cx="138.66" cy="89.76" rx="2.33" ry="2.36" transform="translate(-22.87 124.27) rotate(-44.98)"/><ellipse class="cls-7" cx="140.32" cy="96.51" rx="1.8" ry="1.83" transform="translate(-27.15 127.42) rotate(-44.98)"/><ellipse class="cls-6" cx="91.71" cy="87.15" rx="12.4" ry="12.59" transform="translate(-34.77 90.32) rotate(-44.98)"/><ellipse class="cls-7" cx="93.13" cy="87.04" rx="1.98" ry="2.01" transform="translate(-34.28 91.29) rotate(-44.98)"/><ellipse class="cls-7" cx="89.84" cy="79.51" rx="2.59" ry="2.63" transform="translate(-29.91 86.76) rotate(-44.98)"/><ellipse class="cls-7" cx="94.37" cy="94.34" rx="3.09" ry="3.14" transform="translate(-39.06 94.31) rotate(-44.98)"/><ellipse class="cls-7" cx="83.38" cy="90.17" rx="2.03" ry="2.06" transform="translate(-39.34 85.32) rotate(-44.98)"/><ellipse class="cls-7" cx="87.54" cy="94.7" rx="1.86" ry="1.89" transform="translate(-41.32 89.59) rotate(-44.98)"/><ellipse class="cls-7" cx="83.69" cy="83.01" rx="1.97" ry="2" transform="translate(-34.18 83.44) rotate(-44.98)"/><ellipse class="cls-7" cx="94.76" cy="78.95" rx="0.99" ry="1.01" transform="translate(-28.08 90.08) rotate(-44.98)"/><ellipse class="cls-7" cx="87.79" cy="86.03" rx="0.99" ry="1.01" transform="translate(-35.12 87.22) rotate(-44.98)"/><ellipse class="cls-7" cx="98.34" cy="82.85" rx="2.33" ry="2.36" transform="translate(-29.78 93.75) rotate(-44.98)"/><ellipse class="cls-7" cx="100" cy="89.6" rx="1.8" ry="1.83" transform="translate(-34.07 96.89) rotate(-44.98)"/><ellipse class="cls-6" cx="73.81" cy="137.03" rx="12.4" ry="12.59" transform="translate(-75.26 92.27) rotate(-44.98)"/><ellipse class="cls-7" cx="75.23" cy="136.92" rx="1.98" ry="2.01" transform="translate(-74.77 93.24) rotate(-44.98)"/><ellipse class="cls-7" cx="71.94" cy="129.39" rx="2.59" ry="2.63" transform="translate(-70.4 88.71) rotate(-44.98)"/><ellipse class="cls-7" cx="76.48" cy="144.21" rx="3.09" ry="3.14" transform="translate(-79.55 96.25) rotate(-44.98)"/><ellipse class="cls-7" cx="65.49" cy="140.05" rx="2.03" ry="2.06" transform="translate(-79.83 87.27) rotate(-44.98)"/><ellipse class="cls-7" cx="69.65" cy="144.58" rx="1.86" ry="1.89" transform="translate(-81.81 91.53) rotate(-44.98)"/><ellipse class="cls-7" cx="65.8" cy="132.88" rx="1.97" ry="2" transform="translate(-74.67 85.39) rotate(-44.98)"/><ellipse class="cls-7" cx="76.86" cy="128.83" rx="0.99" ry="1.01" transform="translate(-68.57 92.02) rotate(-44.98)"/><ellipse class="cls-7" cx="69.89" cy="135.91" rx="0.99" ry="1.01" transform="translate(-75.61 89.17) rotate(-44.98)"/><ellipse class="cls-7" cx="80.44" cy="132.72" rx="2.33" ry="2.36" transform="translate(-70.27 95.69) rotate(-44.98)"/><ellipse class="cls-7" cx="82.1" cy="139.47" rx="1.8" ry="1.83" transform="translate(-74.56 98.84) rotate(-44.98)"/><ellipse class="cls-8" cx="118.68" cy="121.45" rx="12.6" ry="12.79" transform="translate(-51.11 119.42) rotate(-44.98)"/><ellipse class="cls-9" cx="147.97" cy="143.3" rx="7.62" ry="7.74" transform="translate(-57.99 146.52) rotate(-44.98)"/><ellipse class="cls-8" cx="113.39" cy="33.31" rx="12.6" ry="12.79" transform="translate(9.63 89.89) rotate(-44.98)"/><ellipse class="cls-10" cx="170.27" cy="109.47" rx="7.31" ry="7.42" transform="translate(-27.56 152.38) rotate(-44.98)"/><ellipse class="cls-11" cx="144.32" cy="67.1" rx="10.25" ry="10.41" transform="translate(-5.2 121.64) rotate(-44.98)"/><ellipse class="cls-12" cx="51.5" cy="76.6" rx="13.36" ry="13.57" transform="translate(-39.07 58.82) rotate(-44.98)"/><ellipse class="cls-13" cx="101.04" cy="56.44" rx="7.72" ry="7.84" transform="translate(-10.33 87.93) rotate(-44.98)"/><ellipse class="cls-14" cx="69.26" cy="121.07" rx="11.06" ry="11.23" transform="translate(-65.31 84.38) rotate(-44.98)"/><path class="cls-15" d="M149.39,92.71a7.71,7.71,0,0,0-3.27,10.48,7.88,7.88,0,0,0,10.54,3.44l-3-5.77,8.4-3.63-1.79-3.42-7.86,4.66Z"/><path class="cls-15" d="M139.64,157.51a7.91,7.91,0,0,0-5.09-9.86,7.69,7.69,0,0,0-9.79,4.94l6.16,2-3.32,8.53,3.67,1.21,2.21-8.9Z"/><path class="cls-15" d="M99,113.39a7.86,7.86,0,0,0-3-10.65,7.71,7.71,0,0,0-10.61,2.86L91,108.83l-5,7.66,3.36,1.92,4-8.24Z"/><path class="cls-15" d="M51.15,104.25A7.74,7.74,0,1,0,40,115l4.6-4.46,6,7L53.41,115l-6.86-6.23Z"/><path class="cls-15" d="M73.33,71a7.69,7.69,0,0,0,10.06-4.38A7.91,7.91,0,0,0,78.86,56.5l-2.29,6-8.38-3.92-1.37,3.57L75.62,65Z"/><path class="cls-15" d="M113.56,80a7.74,7.74,0,1,0,10.27-11.59l-4.25,4.8-6.53-6.58-2.53,2.86,7.3,5.71Z"/><path class="cls-15" d="M85.56,146.31a7.84,7.84,0,0,0,10.87,2.07,7.74,7.74,0,0,0,1.9-10.83L93,141.18l-4.79-7.93-3.15,2.16,5.75,7.27Z"/><path class="cls-15" d="M157,58a7.72,7.72,0,0,0,10.49-3.27A7.89,7.89,0,0,0,164,44.16l-2.92,5.72-7.93-4.79-1.74,3.4,8.45,3.76Z"/><path class="cls-16" d="M159,66.35a4.92,4.92,0,0,1-1.23-3.44,4.88,4.88,0,0,1,3.56.82,5,5,0,0,1,1.23,3.45A4.9,4.9,0,0,1,159,66.35Z"/><path class="cls-16" d="M132.72,141.54a4.79,4.79,0,0,1-3.54.81,3.69,3.69,0,0,1,4.68-4.24A4.78,4.78,0,0,1,132.72,141.54Z"/><path class="cls-16" d="M102.89,166.4a4.79,4.79,0,0,1-3.53.8A3.69,3.69,0,0,1,104,163,4.78,4.78,0,0,1,102.89,166.4Z"/><path class="cls-16" d="M151.21,37.52a4.82,4.82,0,0,1-3.58.63A4.79,4.79,0,0,1,149,34.78a4.82,4.82,0,0,1,3.58-.63A4.79,4.79,0,0,1,151.21,37.52Z"/><path class="cls-16" d="M148.53,88.23a5,5,0,0,1-2.48-2.7,4.79,4.79,0,0,1,3.58-.63,5,5,0,0,1,2.48,2.7A4.79,4.79,0,0,1,148.53,88.23Z"/><path class="cls-16" d="M177,100.27a4.92,4.92,0,0,1-2.48-2.7,4.76,4.76,0,0,1,3.57-.63,5,5,0,0,1,2.48,2.7A4.76,4.76,0,0,1,177,100.27Z"/><path class="cls-16" d="M143.94,119a4.77,4.77,0,0,1-2.82,2.26,4.89,4.89,0,0,1-.46-3.62,4.77,4.77,0,0,1,2.82-2.26A4.89,4.89,0,0,1,143.94,119Z"/><path class="cls-16" d="M147.56,68.67a4.76,4.76,0,0,1-2.82,2.27,4.91,4.91,0,0,1-.46-3.62,4.76,4.76,0,0,1,2.82-2.27A4.91,4.91,0,0,1,147.56,68.67Z"/><path class="cls-16" d="M96.68,71.11a5,5,0,0,1-2.48-2.7,4.81,4.81,0,0,1,3.58-.64,5,5,0,0,1,2.48,2.71A4.84,4.84,0,0,1,96.68,71.11Z"/><path class="cls-16" d="M118.43,126.16a4.81,4.81,0,0,1-3.52.88s-.2-2.27,1.07-3.46a4.81,4.81,0,0,1,3.52-.88A4.78,4.78,0,0,1,118.43,126.16Z"/><path class="cls-16" d="M89.52,30.05A4.76,4.76,0,0,1,90.9,26.7a4.94,4.94,0,0,1,2.12,3A4.76,4.76,0,0,1,91.64,33,4.94,4.94,0,0,1,89.52,30.05Z"/><path class="cls-16" d="M123.71,57a5,5,0,0,1-3.15-1.87,4.73,4.73,0,0,1,3.22-1.65,5,5,0,0,1,3.15,1.87A4.73,4.73,0,0,1,123.71,57Z"/><path class="cls-16" d="M109.06,34.79a4.83,4.83,0,0,1-3.48,1,4.81,4.81,0,0,1,1-3.51,4.8,4.8,0,0,1,3.48-1A4.79,4.79,0,0,1,109.06,34.79Z"/><path class="cls-16" d="M76.5,106.07a4.76,4.76,0,0,1-2.34,2.75A4.91,4.91,0,0,1,73,105.34a4.73,4.73,0,0,1,2.34-2.75A4.91,4.91,0,0,1,76.5,106.07Z"/><path class="cls-16" d="M48.66,76.52a5,5,0,0,1-3.42-1.31A4.79,4.79,0,0,1,48.12,73a4.94,4.94,0,0,1,3.41,1.31A4.71,4.71,0,0,1,48.66,76.52Z"/><path class="cls-16" d="M84.39,152.87a4.86,4.86,0,0,1,.41,3.62,5,5,0,0,1-3.29-1.62,4.86,4.86,0,0,1-.41-3.62A4.93,4.93,0,0,1,84.39,152.87Z"/><path class="cls-16" d="M49.17,123.41a5,5,0,0,1,2.71,2.47,4.8,4.8,0,0,1-3.5,1,5,5,0,0,1-2.71-2.48A4.79,4.79,0,0,1,49.17,123.41Z"/><path class="cls-16" d="M127.55,77a4.75,4.75,0,0,1,2.21-2.87A4.92,4.92,0,0,1,131,77.59a4.72,4.72,0,0,1-2.2,2.86A4.87,4.87,0,0,1,127.55,77Z"/><path class="cls-16" d="M109,95.49a4.75,4.75,0,0,1,2.21-2.86,5,5,0,0,1,1.29,3.42,4.79,4.79,0,0,1-2.21,2.87A5,5,0,0,1,109,95.49Z"/><path class="cls-16" d="M71.53,81.85A4.75,4.75,0,0,1,73.74,79,5,5,0,0,1,75,82.41a4.79,4.79,0,0,1-2.21,2.87A5,5,0,0,1,71.53,81.85Z"/><path class="cls-16" d="M95.86,119.52a4.92,4.92,0,0,1,3.38,1.4A4.77,4.77,0,0,1,96.31,123a4.93,4.93,0,0,1-3.39-1.4A4.77,4.77,0,0,1,95.86,119.52Z"/><path class="cls-16" d="M59.79,55.39a4.94,4.94,0,0,1-1.86-3.16,4.86,4.86,0,0,1,3.64.14,5,5,0,0,1,1.86,3.16A4.86,4.86,0,0,1,59.79,55.39Z"/></g></g></svg>