<svg id="Layer_1" data-name="Layer 1" xmlns="http://www.w3.org/2000/svg" viewBox="0 0 300 300"><defs><style>.cls-1{fill:#e8a788;}.cls-1,.cls-2{stroke:#d14500;}.cls-1,.cls-2,.cls-3{stroke-linecap:round;stroke-miterlimit:10;stroke-width:2px;}.cls-2{fill:#fff;}.cls-3{fill:none;stroke:#6f777d;}.cls-4{fill:#6f777d;}</style></defs><title>SYR Icons</title><path class="cls-1" d="M103.93,89.53H206.15a10,10,0,0,1,10,10V240.68a10,10,0,0,1-10,10H103.93a11,11,0,0,1-11-11V100.53A11,11,0,0,1,103.93,89.53Z"/><rect class="cls-2" x="77.74" y="89.53" width="123.23" height="161.15"/><rect class="cls-1" x="89.55" y="105.5" width="99.6" height="34.19" rx="4.59"/><rect class="cls-3" x="91.03" y="149.75" width="22.88" height="22.88"/><rect class="cls-3" x="127.9" y="149.75" width="22.88" height="22.88"/><rect class="cls-3" x="91.03" y="180.92" width="22.88" height="22.88"/><rect class="cls-3" x="127.9" y="180.92" width="22.88" height="22.88"/><rect class="cls-3" x="91.03" y="214.47" width="22.88" height="22.88"/><rect class="cls-3" x="127.9" y="214.47" width="22.88" height="22.88"/><rect class="cls-3" x="164.88" y="149.75" width="22.88" height="22.88"/><rect class="cls-1" x="163.8" y="180.34" width="24.86" height="56.85"/><rect class="cls-1" x="82" y="240.3" width="39.33" height="10.24" rx="2.03"/><rect class="cls-1" x="82" y="230.05" width="39.33" height="10.24" rx="2.03"/><rect class="cls-1" x="46.98" y="240.3" width="39.33" height="10.24" rx="2.03"/><rect class="cls-1" x="44.27" y="230.05" width="39.33" height="10.24" rx="2.03"/><rect class="cls-1" x="47.76" y="219.81" width="39.33" height="10.24" rx="2.03"/><circle class="cls-1" cx="69.59" cy="203.12" r="17"/><circle class="cls-1" cx="62.62" cy="203.12" r="17"/><path class="cls-4" d="M229.83,70.58A6.86,6.86,0,0,1,228.54,75a4.51,4.51,0,0,1-3.69,1.58A4.34,4.34,0,0,1,221.29,75a6.81,6.81,0,0,1-1.32-4.4,6.8,6.8,0,0,1,1.28-4.43,4.41,4.41,0,0,1,3.6-1.55,4.48,4.48,0,0,1,3.64,1.61A6.63,6.63,0,0,1,229.83,70.58Zm-5.92,0a6.68,6.68,0,0,0,.25,2.17c.16.44.41.67.74.67s.58-.22.74-.66a10,10,0,0,0,0-4.35c-.16-.45-.41-.67-.74-.67s-.59.23-.75.68A7,7,0,0,0,223.91,70.63ZM238,67.39l-8.72,15.73a1.71,1.71,0,0,1-1.49.88h0a1.7,1.7,0,0,1-1.48-2.53L235,65.75a1.7,1.7,0,0,1,1.48-.88h0A1.7,1.7,0,0,1,238,67.39Zm6.41,10.8a6.77,6.77,0,0,1-1.3,4.44,4.52,4.52,0,0,1-3.68,1.58,4.37,4.37,0,0,1-3.57-1.63,6.78,6.78,0,0,1-1.31-4.39,6.74,6.74,0,0,1,1.28-4.43,4.41,4.41,0,0,1,3.6-1.55A4.5,4.5,0,0,1,243,73.82,6.58,6.58,0,0,1,244.38,78.19Zm-5.93,0a6.93,6.93,0,0,0,.25,2.17c.17.45.42.67.75.67s.63-.26.78-.77a10.31,10.31,0,0,0,0-4.14c-.15-.51-.41-.77-.78-.77s-.59.23-.75.68A6.74,6.74,0,0,0,238.45,78.24Z"/><path class="cls-3" d="M231,98.84a24.77,24.77,0,1,0-24.25-19.77"/><line class="cls-3" x1="229.69" y1="137.09" x2="229.69" y2="175.05"/><line class="cls-3" x1="229.49" y1="181.98" x2="229.49" y2="185.11"/></svg>