<svg id="Layer_1" data-name="Layer 1" xmlns="http://www.w3.org/2000/svg" viewBox="0 0 300 300"><defs><style>.cls-1,.cls-5{fill:#fff;}.cls-1,.cls-3,.cls-4{stroke:#d14500;}.cls-1,.cls-3,.cls-4,.cls-6,.cls-7{stroke-linecap:round;stroke-miterlimit:10;}.cls-1,.cls-3,.cls-4,.cls-6{stroke-width:2px;}.cls-2,.cls-3{fill:#e8a788;}.cls-4,.cls-6{fill:none;}.cls-6,.cls-7{stroke:#6f777d;}.cls-7{fill:#6f777d;}</style></defs><title>SYR Icons</title><path class="cls-1" d="M229.16,182.5c0-32.88-36.09-59.54-80.6-59.54-18,0-34.55,4.35-48,11.7-5-4-18.35-11.06-29.1-11.7a67.57,67.57,0,0,1,3.38,7.28c1.3,3.18,5.54,10.76,8.54,17.22a57.63,57.63,0,0,0-9.24,12.08C69,162.76,56.31,165.1,52,165.82a3.3,3.3,0,0,0-2.33,1.62c-1.82,3.22-5.29,11.85.88,23.63C57.34,204,86.25,221.93,94.4,226.8v25.76a5,5,0,0,0,5,5h15a5,5,0,0,0,4.87-4l3-14.78A106.41,106.41,0,0,0,148.56,242,104.9,104.9,0,0,0,181.19,237l3.39,16.6a5,5,0,0,0,4.86,4h15a5,5,0,0,0,5-5v-31C221.7,211.11,229.16,197.45,229.16,182.5Z"/><path class="cls-2" d="M140.52,137s12.95-6.21,26,0C166.54,137,156.25,141,140.52,137Z"/><circle class="cls-3" cx="85.95" cy="166.96" r="6.14"/><path class="cls-1" d="M100.6,134.66a47.32,47.32,0,0,1,6.52,6.44"/><path class="cls-2" d="M94.4,257.53h24l3.83-18.76A106.41,106.41,0,0,0,148.56,242,104.9,104.9,0,0,0,181.19,237l4.2,20.58h24v-36c9.79-8.31,16.49-18.65,18.84-30-85.27,49.8-177.65-.46-177.65-.46C57.34,204,86.25,221.93,94.4,226.8Z"/><path class="cls-4" d="M229.16,182.5c0-32.88-36.09-59.54-80.6-59.54-18,0-34.55,4.35-48,11.7-5-4-18.35-11.06-29.1-11.7a67.57,67.57,0,0,1,3.38,7.28c1.3,3.18,5.54,10.76,8.54,17.22a57.63,57.63,0,0,0-9.24,12.08C69,162.76,56.31,165.1,52,165.82a3.3,3.3,0,0,0-2.33,1.62c-1.82,3.22-5.29,11.85.88,23.63C57.34,204,86.25,221.93,94.4,226.8v30.73h24l3.83-18.76A106.41,106.41,0,0,0,148.56,242,104.9,104.9,0,0,0,181.19,237l4.2,20.58h24v-36C221.7,211.11,229.16,197.45,229.16,182.5Z"/><path class="cls-4" d="M138.63,137.21s15.42,3.16,30.05,0"/><path class="cls-4" d="M229.27,178.08s9-6,16,3.67-2.33,12.67-6.66,9.67-4-20.34,14.33-16"/><line class="cls-4" x1="122.22" y1="238.77" x2="123.8" y2="232.36"/><line class="cls-4" x1="181.19" y1="236.95" x2="180.13" y2="229.32"/><path class="cls-3" d="M157.27,82.36h-9.71v2.09a23.68,23.68,0,0,0,0,43.22v2.1h9.71a23.71,23.71,0,1,0,0-47.41Z"/><circle class="cls-3" cx="147.56" cy="106.06" r="23.71"/><path class="cls-5" d="M145.59,115.93a18.34,18.34,0,0,1-4.82-1.16,1.09,1.09,0,0,1-.68-1v-2.69a1.08,1.08,0,0,1,1.5-1,23.77,23.77,0,0,0,2.38.83,13.66,13.66,0,0,0,3.68.61,4.41,4.41,0,0,0,1.92-.32,1.15,1.15,0,0,0,.17-1.92,7.29,7.29,0,0,0-1.47-.8c-.68-.29-1.6-.65-2.76-1.07a13,13,0,0,1-3.16-1.63,5.56,5.56,0,0,1-1.74-2,6.19,6.19,0,0,1-.55-2.77,5,5,0,0,1,1.63-4,8.06,8.06,0,0,1,4-1.65,1.1,1.1,0,0,0,.9-1.09v-.05a1.08,1.08,0,0,1,1.08-1.09h1a1.09,1.09,0,0,1,1.09,1.09h0a1.1,1.1,0,0,0,1,1.08,18.27,18.27,0,0,1,4.16,1,1.08,1.08,0,0,1,.59,1.43l-1,2.37a1.11,1.11,0,0,1-1.43.58,13.19,13.19,0,0,0-4.8-1,3.58,3.58,0,0,0-1.73.3,1,1,0,0,0-.5.89,1.09,1.09,0,0,0,.36.84,5.31,5.31,0,0,0,1.26.74c.59.27,1.42.58,2.48.94a12,12,0,0,1,4.61,2.6,5.16,5.16,0,0,1,1.41,3.75,5.66,5.66,0,0,1-1.64,4.2,7.47,7.47,0,0,1-3.92,1.86,1.1,1.1,0,0,0-.86,1.09v.94a1.08,1.08,0,0,1-1.09,1.08h-1a1.08,1.08,0,0,1-1.08-1.08V117A1.1,1.1,0,0,0,145.59,115.93Z"/><circle class="cls-6" cx="204.19" cy="94.21" r="17.55"/><path class="cls-7" d="M209.36,97a3.21,3.21,0,0,1-1.18,2.58,6.11,6.11,0,0,1-3.27,1.27v2.81h-1V100.9a15.48,15.48,0,0,1-2.39-.27,9.05,9.05,0,0,1-2.06-.6V98.8a10.49,10.49,0,0,0,2.14.72,9.9,9.9,0,0,0,2.31.3V93.76a11.31,11.31,0,0,1-2.57-1.05,3.32,3.32,0,0,1-1.21-1.24,3.58,3.58,0,0,1-.39-1.74,3.21,3.21,0,0,1,1.13-2.49A5.48,5.48,0,0,1,204,86V83.71h1V86a12.47,12.47,0,0,1,4.19.86l-.39,1.07a11,11,0,0,0-3.8-.85v5.79a9.07,9.07,0,0,1,3.5,1.72A3.23,3.23,0,0,1,209.36,97Zm-8.28-7.27a2.22,2.22,0,0,0,.69,1.68A5.31,5.31,0,0,0,204,92.52v-5.4a3.62,3.62,0,0,0-2.14.9A2.35,2.35,0,0,0,201.08,89.73Zm7,7.22a2.14,2.14,0,0,0-.75-1.68,6.4,6.4,0,0,0-2.39-1.14v5.62a4,4,0,0,0,2.3-.89A2.44,2.44,0,0,0,208.05,97Z"/><circle class="cls-6" cx="142.93" cy="54.67" r="12.2"/><path class="cls-7" d="M146.53,56.6a2.24,2.24,0,0,1-.83,1.8,4.16,4.16,0,0,1-2.27.88v2h-.67V59.32a10.44,10.44,0,0,1-1.66-.19,5.74,5.74,0,0,1-1.43-.42v-.85a7.41,7.41,0,0,0,1.49.5,6.77,6.77,0,0,0,1.6.21V54.36a8.06,8.06,0,0,1-1.78-.73,2.35,2.35,0,0,1-.85-.87,2.49,2.49,0,0,1-.26-1.21,2.25,2.25,0,0,1,.78-1.73,3.83,3.83,0,0,1,2.11-.86v-1.6h.67v1.58a8.64,8.64,0,0,1,2.91.6l-.27.74a7.52,7.52,0,0,0-2.64-.59v4a6.17,6.17,0,0,1,2.43,1.19A2.27,2.27,0,0,1,146.53,56.6Zm-5.76-5.05a1.56,1.56,0,0,0,.47,1.17,3.7,3.7,0,0,0,1.52.77V49.74a2.51,2.51,0,0,0-1.49.63A1.61,1.61,0,0,0,140.77,51.55Zm4.84,5a1.46,1.46,0,0,0-.52-1.16,4.49,4.49,0,0,0-1.66-.8v3.91a2.8,2.8,0,0,0,1.6-.62A1.7,1.7,0,0,0,145.61,56.57Z"/></svg>