<svg xmlns="http://www.w3.org/2000/svg" viewBox="0 0 147.36 186.28"><defs><style>.cls-1{fill:#dfe0df;}.cls-2,.cls-4{fill:#fff;}.cls-3,.cls-5{fill:none;}.cls-3{stroke:#212b5c;}.cls-3,.cls-4,.cls-5{stroke-linecap:round;stroke-linejoin:round;}.cls-3,.cls-4,.cls-5,.cls-8{stroke-width:1.5px;}.cls-4,.cls-5{stroke:#212a5a;}.cls-6{fill:#498ecb;}.cls-7,.cls-8{fill:#4ca1d9;}.cls-8{stroke:#1f2b5f;stroke-miterlimit:10;}</style></defs><g id="Layer_2" data-name="Layer 2"><g id="Layer_3" data-name="Layer 3"><rect class="cls-1" x="5.05" y="3.23" width="142.31" height="183.05" rx="4.34"/><polygon class="cls-2" points="29.24 0.17 1.76 27.48 0 0 29.24 0.17"/><path class="cls-3" d="M24.67,4.5l-.07,14a4.67,4.67,0,0,1-4.7,4.64l-14-.07"/><line class="cls-4" x1="30.85" y1="39.11" x2="123.3" y2="39.11"/><line class="cls-4" x1="30.85" y1="66.55" x2="123.3" y2="66.55"/><path class="cls-5" d="M95,99.68H86a6.38,6.38,0,0,0-6.38,6.38V150.6A6.38,6.38,0,0,0,86,157H95"/><line class="cls-4" x1="62.3" y1="128.33" x2="102.19" y2="128.33"/><circle class="cls-6" cx="52.17" cy="127.54" r="14.56"/><circle class="cls-7" cx="102.19" cy="99.68" r="8.09"/><circle class="cls-7" cx="102.19" cy="128.49" r="8.09"/><circle class="cls-7" cx="102.19" cy="156.98" r="8.09"/><path class="cls-8" d="M102.19,107.77a8.09,8.09,0,0,1,0-16.18"/><path class="cls-8" d="M102.19,136.58a8.09,8.09,0,0,1,0-16.18"/><path class="cls-8" d="M102.19,165.07a8.09,8.09,0,1,1,0-16.18"/></g></g></svg>