<svg xmlns="http://www.w3.org/2000/svg" viewBox="0 0 178.78 178.78"><defs><style>.cls-1,.cls-3{fill:#fff;}.cls-1,.cls-2,.cls-3,.cls-4,.cls-5,.cls-6{stroke:#003e72;stroke-miterlimit:10;}.cls-1{stroke-width:1.5px;}.cls-2{fill:#66abe2;}.cls-4{fill:#b6cb51;}.cls-5{fill:#c9d87d;}.cls-6{fill:#a4bf26;}</style></defs><g id="Layer_2" data-name="Layer 2"><g id="Layer_84" data-name="Layer 84"><circle class="cls-1" cx="89.39" cy="89.39" r="88.64"/><ellipse class="cls-2" cx="99.36" cy="96.67" rx="7.04" ry="10.59" transform="matrix(0.98, -0.2, 0.2, 0.98, -17.13, 21.51)"/><ellipse class="cls-2" cx="81.71" cy="97.35" rx="10.52" ry="7.09" transform="translate(-38.07 139.83) rotate(-69.52)"/><polygon class="cls-3" points="95.26 178.05 83.68 178.05 85.33 84.99 94.72 84.99 95.26 178.05"/><line class="cls-3" x1="85.59" y1="99.24" x2="94.78" y2="99.24"/><line class="cls-3" x1="85.59" y1="111.51" x2="94.78" y2="111.51"/><line class="cls-3" x1="85.04" y1="122.53" x2="94.78" y2="122.77"/><line class="cls-3" x1="84.13" y1="133.54" x2="94.78" y2="133.54"/><line class="cls-3" x1="84.13" y1="144.3" x2="94.78" y2="144.3"/><line class="cls-3" x1="84.13" y1="155.07" x2="94.78" y2="155.07"/><line class="cls-3" x1="84.13" y1="165.83" x2="94.78" y2="165.83"/><path class="cls-3" d="M97.7,85c0,7.17-3.15,3-7,3s-7,4.2-7-3,3.15-13,7-13S97.7,77.81,97.7,85Z"/><path class="cls-4" d="M91.13,88h62S118.38,54.34,91.13,88Z"/><path class="cls-4" d="M28.17,88h62S55.42,54.34,28.17,88Z"/><path class="cls-5" d="M34.43,59.38l56,28.44S72.66,41.52,34.43,59.38Z"/><path class="cls-5" d="M146.89,59.2l-56,28.45S108.66,41.35,146.89,59.2Z"/><path class="cls-6" d="M138.4,127,89.18,86.86S136,82.66,138.4,127Z"/><path class="cls-6" d="M41.25,127.56,90.48,87.44S43.64,83.23,41.25,127.56Z"/><ellipse class="cls-2" cx="90.25" cy="94.48" rx="5.45" ry="8.24"/></g></g></svg>