<svg xmlns="http://www.w3.org/2000/svg" viewBox="0 0 85.46 85.46"><defs><style>.cls-1,.cls-2{fill:#fff;}.cls-1,.cls-2,.cls-3{stroke:#003e72;stroke-miterlimit:10;}.cls-1{stroke-width:1.5px;}.cls-3{fill:#66abe2;}</style></defs><g id="Layer_2" data-name="Layer 2"><g id="Layer_119" data-name="Layer 119"><circle class="cls-1" cx="42.73" cy="42.73" r="41.98"/><path class="cls-2" d="M66.48,51.55a10.67,10.67,0,0,0-2-6.12A10.51,10.51,0,0,0,55.22,30l-.44,0A13.79,13.79,0,0,0,29,30.34,10.5,10.5,0,0,0,21.2,45.9,9,9,0,0,0,19,51.71c0,4.81,4.1,8.86,9.7,10.11a13,13,0,0,0,7.47,2.35H50.36a13.15,13.15,0,0,0,5.14-1.05C61.74,62.13,66.48,57.33,66.48,51.55Z"/><path class="cls-3" d="M46.64,58.77c-.21-4.16-2.07-10-4-10s-3.31,5.65-3.5,9.79c-3.76-1.58-6.54-4.21-6.54,0a10.18,10.18,0,0,0,20.36,0C52.91,54.22,50.4,57.22,46.64,58.77Z"/></g></g></svg>