<svg xmlns="http://www.w3.org/2000/svg" viewBox="0 0 178.77 178.77"><defs><style>.cls-1,.cls-2{fill:#fff;}.cls-1,.cls-2,.cls-3,.cls-4,.cls-5,.cls-6{stroke:#003e72;stroke-miterlimit:10;}.cls-1{stroke-width:1.5px;}.cls-3{fill:#ebf2ee;}.cls-4{fill:#0073cf;}.cls-5{fill:#a8b400;}.cls-6{fill:#66abe2;}</style></defs><g id="Layer_2" data-name="Layer 2"><g id="Layer_121" data-name="Layer 121"><circle class="cls-1" cx="89.39" cy="89.39" r="88.64"/><polygon class="cls-2" points="116.19 88.09 87.81 78.63 87.81 93.49 83.31 93.49 83.31 88.09 54.94 78.63 54.94 93.49 50.44 93.49 50.44 88.09 22.06 78.63 22.06 93.49 22.06 98.44 22.06 129.52 116.1 129.52 116.1 98.44 116.19 98.44 116.19 88.09"/><rect class="cls-3" x="76.93" y="98.11" width="40.48" height="5.28"/><polygon class="cls-4" points="126.91 107.57 113.75 107.57 116.95 58.46 123.7 58.46 126.91 107.57"/><polygon class="cls-4" points="146.42 107.57 133.25 107.57 136.46 58.46 143.21 58.46 146.42 107.57"/><rect class="cls-2" x="78.15" y="107.57" width="78.52" height="21.95"/><rect class="cls-5" x="85.46" y="113.59" width="16.09" height="3.41"/><rect class="cls-5" x="107.41" y="113.59" width="16.09" height="3.41"/><rect class="cls-5" x="129.36" y="113.59" width="16.09" height="3.41"/><circle class="cls-6" cx="34.99" cy="112.25" r="5.61"/><circle class="cls-6" cx="51.31" cy="112.25" r="5.61"/><circle class="cls-6" cx="67.64" cy="112.25" r="5.61"/></g></g></svg>