<svg xmlns="http://www.w3.org/2000/svg" viewBox="0 0 194.01 194.01"><defs><style>.cls-1,.cls-3{fill:#fff;}.cls-1,.cls-2,.cls-3,.cls-4,.cls-5,.cls-6,.cls-7,.cls-8{stroke:#003e72;stroke-miterlimit:10;}.cls-1{stroke-width:1.5px;}.cls-2{fill:none;}.cls-4{fill:#66abe2;}.cls-5{fill:#ebf2ee;}.cls-6{fill:#a8b400;}.cls-7{fill:#e0e4a3;}.cls-8{fill:#a1c6e5;}</style></defs><g id="Layer_2" data-name="Layer 2"><g id="Layer_10" data-name="Layer 10"><circle class="cls-1" cx="97" cy="97" r="96.25"/></g><g id="Layer_14" data-name="Layer 14"><path class="cls-2" d="M34.07,96.72c2.49.31,26.39-.78,26.39-.78"/><path class="cls-2" d="M38.42,96.56c2.48.31,21.73,5.28,21.73,5.28"/><rect class="cls-3" x="60.15" y="83.06" width="105.55" height="60.22"/><path class="cls-4" d="M80.89,99.82h8.19a10.8,10.8,0,0,1,10.8,10.8V143a0,0,0,0,1,0,0H70.08a0,0,0,0,1,0,0V110.63A10.8,10.8,0,0,1,80.89,99.82Z"/><rect class="cls-5" x="108.27" y="99.82" width="45.32" height="15.52"/><path class="cls-6" d="M34.23,95.79H51.3a0,0,0,0,1,0,0v9a4.07,4.07,0,0,1-4.07,4.07H38.31a4.08,4.08,0,0,1-4.08-4.08v-9A0,0,0,0,1,34.23,95.79Z"/><polyline class="cls-2" points="117.27 127.3 131.55 127.3 145.37 127.3"/><line class="cls-2" x1="131.71" y1="142.66" x2="131.71" y2="127.3"/><polyline class="cls-2" points="107.34 122.8 110.75 134.13 121.15 134.13 121.15 142.82"/><line class="cls-2" x1="111.06" y1="142.97" x2="111.06" y2="134.13"/><polyline class="cls-2" points="155.49 122.51 152.08 133.84 141.68 133.84 141.68 142.53"/><line class="cls-2" x1="151.77" y1="142.69" x2="151.77" y2="133.84"/><circle class="cls-6" cx="93.45" cy="123.96" r="2.87"/><line class="cls-6" x1="128.35" y1="99.34" x2="128.35" y2="115.38"/><rect class="cls-7" x="54.54" y="76.07" width="117.54" height="8.98"/><rect class="cls-3" x="50.29" y="72.87" width="126.03" height="7.4"/><path class="cls-3" d="M24.69,113.13H53.2a1.44,1.44,0,0,1,1.44,1.44v.53a5.15,5.15,0,0,1-5.15,5.15H28.4a5.15,5.15,0,0,1-5.15-5.15v-.53a1.44,1.44,0,0,1,1.44-1.44Z"/><polygon class="cls-8" points="23.92 110.51 53.97 110.51 53.97 113.11 51.46 113.11 47.15 117.98 42.85 113.11 23.92 113.11 23.92 110.51"/><rect class="cls-5" x="22.86" y="106.92" width="32.17" height="5" rx="2.31"/><polygon class="cls-4" points="54.15 103.68 23.78 103.68 23.78 107.39 26.32 107.39 30.67 110.43 35.01 107.39 54.15 107.39 54.15 103.68"/><path class="cls-6" d="M54.14,97.75H23.78v6.72h1.07a5.73,5.73,0,0,0,4.58,2.06A5.72,5.72,0,0,0,34,104.47h.39a6.11,6.11,0,0,0,9.15,0h.61a6.11,6.11,0,0,0,9.15,0h.84Z"/><path class="cls-3" d="M52.33,102.88H25c-1.71,0-2.53-1.59-2.54-3.53,0-20.1,33-20.55,33,0A3.36,3.36,0,0,1,52.33,102.88Z"/><line class="cls-3" x1="32.33" y1="89.04" x2="33.82" y2="90.68"/><line class="cls-3" x1="36.12" y1="89.04" x2="37.61" y2="90.68"/><line class="cls-3" x1="39.92" y1="89.04" x2="41.41" y2="90.68"/><line class="cls-3" x1="43.71" y1="89.04" x2="45.2" y2="90.68"/><line class="cls-3" x1="26.25" y1="95.12" x2="27.74" y2="96.77"/><line class="cls-3" x1="30.44" y1="95.12" x2="31.93" y2="96.77"/><line class="cls-3" x1="34.63" y1="95.12" x2="36.12" y2="96.77"/><line class="cls-3" x1="38.82" y1="95.12" x2="40.31" y2="96.77"/><line class="cls-3" x1="43.01" y1="95.12" x2="44.5" y2="96.77"/><line class="cls-3" x1="47.2" y1="95.12" x2="48.69" y2="96.77"/><line class="cls-3" x1="51.39" y1="95.12" x2="52.88" y2="96.77"/><path class="cls-3" d="M71.85,56.25H153a15.26,15.26,0,0,1,15.26,15.26v1.22a0,0,0,0,1,0,0H56.59a0,0,0,0,1,0,0V71.51A15.26,15.26,0,0,1,71.85,56.25Z"/></g></g></svg>