<svg xmlns="http://www.w3.org/2000/svg" viewBox="0 0 134.43 134.43"><defs><style>.cls-1{fill:#ebf2ee;stroke-width:0.75px;}.cls-1,.cls-3,.cls-4{stroke:#003e72;stroke-miterlimit:10;}.cls-2,.cls-3{fill:#a3cdee;}.cls-3,.cls-4{stroke-width:0.5px;}.cls-4{fill:#cbd266;}</style></defs><g id="Layer_2" data-name="Layer 2"><g id="Layer_162" data-name="Layer 162"><circle class="cls-1" cx="67.22" cy="67.22" r="66.84"/><polygon class="cls-2" points="25.27 77.11 27.78 82.46 39.39 87.89 43.65 86.14 43.49 81.21 25.27 77.11"/><polygon class="cls-2" points="78.33 28.32 76.66 27.48 68.89 28.9 64.46 37.26 65.88 40.6 69.14 41.44 78.33 28.32"/><path class="cls-2" d="M92.87,80.71l-4.6,4L93.2,96.83l3.18,1.92S98.46,95,98.8,94.49,97.71,88,97.71,88Z"/><path class="cls-3" d="M26.12,80.17l14.46,23.4H62.11V83.21H32.16a7.6,7.6,0,0,1-4-1.07,5.85,5.85,0,0,1-2.89-4.72A4.79,4.79,0,0,1,26,74.61l5-8.12-7.57-4.13,23.7-4.62,7.76,22.62-6.88-4.13-3.93,7"/><path class="cls-3" d="M77.22,27.51,49.57,28l-11,18.53L56.11,56.94,71.38,31.17a7.49,7.49,0,0,1,3-2.88,5.82,5.82,0,0,1,5-.31A5.29,5.29,0,0,1,82,30.45l4.32,8.27,7.41-4.41-8.1,22.75L62.23,52.22l7.06-3.82-4-6.94"/><path class="cls-3" d="M97.09,98.06l13.2-24.31L99.59,55.06,81.92,65.17l14.88,26a7.55,7.55,0,0,1,1,4,5.76,5.76,0,0,1-2.21,4.52,5.23,5.23,0,0,1-3.46,1.1l-9.32-.33.17,8.63L67.24,90.79,83,72.82l-.16,8,8,0"/><polygon class="cls-4" points="53.2 65.51 66.69 85.33 80.18 65.51 71.21 65.51 71.21 41.24 62.17 41.24 62.17 65.51 53.2 65.51"/></g></g></svg>