<svg xmlns="http://www.w3.org/2000/svg" viewBox="0 0 125.79 125.79"><defs><style>.cls-1,.cls-4{fill:#fff;}.cls-1,.cls-3,.cls-4,.cls-6,.cls-7{stroke:#003e72;}.cls-1,.cls-7{stroke-miterlimit:10;}.cls-1,.cls-2,.cls-3,.cls-4,.cls-5,.cls-6,.cls-7{stroke-width:0.75px;}.cls-2{fill:#eef0cc;}.cls-2,.cls-5{stroke:#01467d;}.cls-2,.cls-3,.cls-4,.cls-5,.cls-6{stroke-linecap:round;stroke-linejoin:round;}.cls-3,.cls-7{fill:none;}.cls-5{fill:#cce3f5;}.cls-6{fill:#eef4f0;}.cls-8{fill:#d0e0e2;}.cls-9{fill:#01467d;}</style></defs><g id="Layer_2" data-name="Layer 2"><g id="Layer_8" data-name="Layer 8"><path class="cls-1" d="M62.89,125.41a62.52,62.52,0,0,1,0-125"/><path class="cls-1" d="M62.89.38a62.52,62.52,0,1,1,0,125"/><path class="cls-2" d="M89.65,78.68V98.42H32.07V37.51A11.72,11.72,0,0,1,43.79,25.79H89.65V41.08"/><line class="cls-3" x1="80.18" y1="41.62" x2="52.44" y2="41.62"/><line class="cls-3" x1="80.18" y1="54.18" x2="52.44" y2="54.18"/><line class="cls-3" x1="67.38" y1="66.75" x2="52.44" y2="66.75"/><path class="cls-4" d="M73.73,86.3,60.59,89.52l3.22-13.13L98.25,42a3,3,0,0,1,4.2,0l5.71,5.72a3,3,0,0,1,0,4.2Z"/><rect class="cls-5" x="78.39" y="46.36" width="14.02" height="36.7" transform="translate(70.77 -41.43) rotate(45)"/><path class="cls-6" d="M45,80.59a12,12,0,1,0,4.36,9.27"/><polyline class="cls-7" points="32.39 88.06 38.22 93.88 53.04 79.07"/><rect class="cls-8" x="38.97" y="37.4" width="7.89" height="7.89" rx="3.4"/><path class="cls-9" d="M43.46,37.65a3.15,3.15,0,0,1,3.15,3.15v1.09A3.15,3.15,0,0,1,43.46,45H42.37a3.15,3.15,0,0,1-3.15-3.15V40.8a3.15,3.15,0,0,1,3.15-3.15h1.09m0-.5H42.37a3.66,3.66,0,0,0-3.65,3.65v1.09a3.66,3.66,0,0,0,3.65,3.65h1.09a3.66,3.66,0,0,0,3.65-3.65V40.8a3.66,3.66,0,0,0-3.65-3.65Z"/><rect class="cls-8" x="38.97" y="49.69" width="7.89" height="7.89" rx="3.4"/><path class="cls-9" d="M43.46,49.94a3.15,3.15,0,0,1,3.15,3.15v1.09a3.15,3.15,0,0,1-3.15,3.15H42.37a3.15,3.15,0,0,1-3.15-3.15V53.09a3.15,3.15,0,0,1,3.15-3.15h1.09m0-.5H42.37a3.66,3.66,0,0,0-3.65,3.65v1.09a3.66,3.66,0,0,0,3.65,3.65h1.09a3.66,3.66,0,0,0,3.65-3.65V53.09a3.66,3.66,0,0,0-3.65-3.65Z"/><rect class="cls-8" x="38.97" y="61.98" width="7.89" height="7.89" rx="3.4"/><path class="cls-9" d="M43.46,62.23a3.15,3.15,0,0,1,3.15,3.15v1.09a3.15,3.15,0,0,1-3.15,3.15H42.37a3.15,3.15,0,0,1-3.15-3.15V65.38a3.15,3.15,0,0,1,3.15-3.15h1.09m0-.5H42.37a3.66,3.66,0,0,0-3.65,3.65v1.09a3.66,3.66,0,0,0,3.65,3.65h1.09a3.66,3.66,0,0,0,3.65-3.65V65.38a3.66,3.66,0,0,0-3.65-3.65Z"/></g></g></svg>