<svg xmlns="http://www.w3.org/2000/svg" viewBox="0 0 134.43 134.43"><defs><style>.cls-1,.cls-6{fill:#ebf2ee;}.cls-1,.cls-3,.cls-4,.cls-5,.cls-6{stroke:#003e72;}.cls-1,.cls-2,.cls-3,.cls-4,.cls-5,.cls-6,.cls-7{stroke-miterlimit:10;}.cls-1{stroke-width:0.75px;}.cls-2{fill:#99b2c7;}.cls-2,.cls-7{stroke:#08355a;}.cls-2,.cls-3,.cls-4,.cls-5,.cls-6,.cls-7{stroke-width:0.5px;}.cls-3{fill:#edf5fc;}.cls-4{fill:#cedae4;}.cls-5{fill:#a3cdee;}.cls-7{fill:none;}</style></defs><g id="Layer_2" data-name="Layer 2"><g id="Layer_163" data-name="Layer 163"><circle class="cls-1" cx="67.22" cy="67.22" r="66.84"/><rect class="cls-2" x="57.52" y="41.26" width="17.41" height="4.62"/><path class="cls-3" d="M38.26,85.28s9.6,4.23,9.79,4.23H83.44l8.67-4.11h1l-2.43-6.56a67,67,0,0,1-1.08-16c.21-4.44,2.22-10.2-.62-14.14A8.74,8.74,0,0,0,82,45.1a8.52,8.52,0,0,0-2.91.51H52.89A8.62,8.62,0,0,0,50,45.1a9,9,0,0,0-8,5.23c-1.83,4.18-.45,10.12-.44,14.62a81.21,81.21,0,0,1-.94,14.86l-1.54,4.37-.3.66.12-.15-.12.34"/><path class="cls-2" d="M49.06,89.16a7.13,7.13,0,0,1-2.16-1.33c-1.64-1.25-3.4-2.68-5.52-3a7.38,7.38,0,0,0-5.48,1.58,10.52,10.52,0,0,0-3.55,7.63,15,15,0,0,0,4,10.9A16.42,16.42,0,0,0,46.92,110c.88.08,1.95,0,2.34-.82a2.82,2.82,0,0,0-.12-1.89,14.9,14.9,0,0,1-.28-3.53l0-11.41"/><path class="cls-2" d="M83.61,89.16a7.17,7.17,0,0,0,2.17-1.33c1.64-1.25,3.39-2.68,5.51-3a7.38,7.38,0,0,1,5.48,1.58,10.48,10.48,0,0,1,3.55,7.63,15,15,0,0,1-4,10.9A16.47,16.47,0,0,1,85.75,110c-.87.08-2,0-2.33-.82a2.88,2.88,0,0,1,.11-1.89,14.4,14.4,0,0,0,.29-3.53l0-11.41"/><rect class="cls-4" x="44.98" y="88.7" width="42.81" height="21.42" rx="6.95"/><rect class="cls-5" x="52.08" y="63.85" width="27.77" height="24.86"/><line class="cls-6" x1="53.04" y1="60.1" x2="53.04" y2="45.64"/><line class="cls-6" x1="79.09" y1="60.1" x2="79.09" y2="45.64"/><path class="cls-4" d="M78.2,42.79h-24a4.72,4.72,0,0,1-4.71-5l.82-12.65A6.63,6.63,0,0,1,57,18.48H75.45a6.63,6.63,0,0,1,6.64,6.63l.83,12.65A4.73,4.73,0,0,1,78.2,42.79Z"/><path class="cls-7" d="M53.76,37.52l1.17-11.94a2.67,2.67,0,0,1,2.64-2.4H75"/><line class="cls-7" x1="82.35" y1="93.22" x2="50.74" y2="93.22"/></g></g></svg>