<svg xmlns="http://www.w3.org/2000/svg" viewBox="0 0 188.59 186.6"><defs><style>.cls-1,.cls-2,.cls-5{fill:#fff;}.cls-1,.cls-2,.cls-3,.cls-4,.cls-6,.cls-7,.cls-8{stroke:#003e72;stroke-miterlimit:10;}.cls-1{stroke-width:1.5px;}.cls-3,.cls-4{fill:none;}.cls-3{stroke-linecap:round;stroke-dasharray:1 6;}.cls-6{fill:#e0e4a3;}.cls-7{fill:#66abe2;}.cls-8{fill:#a8b400;}</style></defs><g id="Layer_2" data-name="Layer 2"><g id="Layer_10" data-name="Layer 10"><path class="cls-1" d="M187.84,91c0,51.11-43.43,94.83-94.54,94.83A92.55,92.55,0,0,1,93.3.75C144.41.75,187.84,39.9,187.84,91Z"/><path class="cls-2" d="M34.19,164.52a92.55,92.55,0,0,0,120.67-2.12C143,147.05,120.78,136.72,95.3,136.72,68.67,136.72,45.59,148,34.19,164.52Z"/><path class="cls-3" d="M80.62,50.42s13-11.74,24.6-4.63c14.55,8.91,18.2,7.42,27,2.36s13.48-3,21.58,2c3.69,2.31,6.68,3,9.35,2.63"/><polygon class="cls-2" points="72.19 153.8 62.73 153.8 52.97 115.72 74.47 116.73 72.19 153.8"/><polygon class="cls-2" points="130.75 153.81 121.3 153.81 111.53 115.73 133.04 116.74 130.75 153.81"/><polygon class="cls-2" points="78.15 153.8 68.69 153.8 65.04 116.73 80.43 116.73 78.15 153.8"/><path class="cls-2" d="M135.7,121.49l-75.61-.1a13.49,13.49,0,0,1-13.5-13.5V73.08h66.27a22.76,22.76,0,0,1,22.76,22.76Z"/><path class="cls-4" d="M66.45,44a15.76,15.76,0,1,1-31.51,0"/><polygon class="cls-5" points="78.63 123.82 66.6 124.58 65.93 117.34 79.38 117.14 78.63 123.82"/><polygon class="cls-5" points="135.01 122.81 111.92 123.22 111.92 91.01 134.41 93.84 135.01 122.81"/><path class="cls-2" d="M135.66,119.07l.06,3.44,2.74,1.31-5.27,30-10.13-.06-.3-27.29c-10,0-20.56-8.52-20.56-18.54"/><path class="cls-4" d="M110.3,73.08h26.1c4.54,0,8.22,3.41,8.22,7.61v20.14"/><path class="cls-2" d="M148.74,108.37,144.62,100l-4.13,8.36a1.7,1.7,0,0,0,1.52,2.45h5.21A1.7,1.7,0,0,0,148.74,108.37Z"/><path class="cls-2" d="M43.21,62.59c0,3.27-4.9,8.21-10.94,8.21s-10.94-4.94-10.94-8.21Z"/><path class="cls-2" d="M80.2,62.59c0,3.27-4.9,8.21-10.94,8.21s-10.94-4.94-10.94-8.21Z"/><path class="cls-2" d="M47.25,59.4h7a9.09,9.09,0,0,1,9.09,9.09V96.78a0,0,0,0,1,0,0H38.15a0,0,0,0,1,0,0V68.49a9.09,9.09,0,0,1,9.09-9.09Z"/><rect class="cls-6" x="35.88" y="86.14" width="29.78" height="13.67" rx="4.93"/><circle class="cls-4" cx="41.52" cy="93.69" r="1.32"/><circle class="cls-4" cx="59.86" cy="93.69" r="1.32"/><circle class="cls-7" cx="42.19" cy="76.61" r="2.13"/><circle class="cls-7" cx="59.02" cy="76.61" r="2.13"/><line class="cls-2" x1="135.67" y1="118.07" x2="135.62" y2="119.5"/><path class="cls-8" d="M135.78,121.44a8.51,8.51,0,0,1-5.55-2.31c-1.51-1.32-2.26-3-4.12-4a34.38,34.38,0,0,0-3.57-1.41c-3.42-1.29-7.31-3.47-8.67-7.08-2.3-6.14,5.75-8,6.52-15.33S134,87.46,134,87.46a7.81,7.81,0,0,1,.82,1.88,18.34,18.34,0,0,1,.87,6.88Z"/><path class="cls-8" d="M115.82,78.6a5.39,5.39,0,0,0-2.24-1.12,1.79,1.79,0,0,0-1.74.25,9.2,9.2,0,0,0-1,1.76c-.62,1-2.28,2.67-1.8,3.93.67,1.72,4.38,2,5.91,2.19.89.13,2.27.11,2.46-1C117.63,83.15,117.05,79.92,115.82,78.6Z"/></g></g></svg>