<svg xmlns="http://www.w3.org/2000/svg" viewBox="0 0 125.31 125.31"><defs><style>.cls-1{fill:#fff;}.cls-1,.cls-2,.cls-3,.cls-4{stroke:#003e72;stroke-miterlimit:10;stroke-width:0.75px;}.cls-2{fill:#ebf2ee;}.cls-3{fill:#eef0cc;}.cls-4{fill:#cce3f5;}</style></defs><g id="Layer_2" data-name="Layer 2"><g id="Layer_8" data-name="Layer 8"><path class="cls-1" d="M62.66,124.94A62.28,62.28,0,0,1,62.66.38"/><path class="cls-1" d="M62.66.38a62.28,62.28,0,0,1,0,124.56"/><path class="cls-2" d="M67.2,74l-3-.54a1,1,0,0,0-1.15.71l-1.27,4.25a13,13,0,0,0-2.68.46l-2.63-3.58A1,1,0,0,0,55.19,75l-2.61,1.49a1,1,0,0,0-.43,1.28l1.76,4.08A13.22,13.22,0,0,0,52.16,84L47.84,82.9a1,1,0,0,0-1.19.63l-1,2.83a1,1,0,0,0,.5,1.25l4,2a12.37,12.37,0,0,0,0,2.72l-4,2a1,1,0,0,0-.5,1.25l1,2.83a1,1,0,0,0,1.19.64l4.32-1,0,0a12.24,12.24,0,0,0,1.71,2.06l-1.79,4.07a1,1,0,0,0,.42,1.28l2.6,1.51a1,1,0,0,0,1.32-.27L59,103.11a13.45,13.45,0,0,0,2.68.48L63,107.86a1,1,0,0,0,1.14.71l3-.51a1,1,0,0,0,.84-1l-.26-4.44a12.56,12.56,0,0,0,2-1.08l.4-.27,3.69,2.47A1,1,0,0,0,75,103.5L77,101.2a1,1,0,0,0,0-1.34l-3-3.24a12.23,12.23,0,0,0,1-2.55l4.41-.48a1,1,0,0,0,.9-1l0-3a1,1,0,0,0-.9-1l-4.41-.51a12.64,12.64,0,0,0-.92-2.56L77,82.29a1,1,0,0,0,0-1.35l-1.93-2.31a1,1,0,0,0-1.33-.2l-3.71,2.44a13.21,13.21,0,0,0-2.35-1.37L68,75.07A1,1,0,0,0,67.2,74Zm2.08,19.46a7.11,7.11,0,1,1-4.22-9.13A7.11,7.11,0,0,1,69.28,93.47Z"/><polygon class="cls-1" points="80.9 74.8 95.3 51.5 101.81 55.58 87.42 78.88 80.9 74.8"/><polygon class="cls-3" points="85.05 79.37 101.2 53.22 117.35 63.34 101.2 89.48 85.05 79.37"/><polygon class="cls-1" points="46.32 74.8 31.93 51.5 25.41 55.58 39.8 78.88 46.32 74.8"/><polygon class="cls-4" points="42.17 79.37 26.02 53.22 9.87 63.34 26.02 89.48 42.17 79.37"/><path class="cls-1" d="M62.53,25.39l-6.6,2.9a4.23,4.23,0,0,1-5.6-2.11h0a4.23,4.23,0,0,1,2.11-5.6l7.13-3.22a3.89,3.89,0,0,1,3.49.08"/><line class="cls-1" x1="74.98" y1="22.82" x2="62.31" y2="17.1"/><path class="cls-1" d="M75.15,29.39l4.42-1.28a3.73,3.73,0,1,0-2.08-7.17L62,25.55"/><path class="cls-1" d="M77.16,54.77l10.47-7.24A3.94,3.94,0,0,0,89.18,43a3.59,3.59,0,0,0-1.68-1.9,3.71,3.71,0,0,0-2.36-6.67.3.3,0,0,1-.26-.48,3.69,3.69,0,0,0,.74-3.73,3.87,3.87,0,0,0-4.75-2.27l-5.72,1.49"/><polyline class="cls-1" points="44.48 71.83 52.79 66.93 64.69 64.02 79.72 53"/><path class="cls-1" d="M79.54,36l3.38-.95a3.73,3.73,0,0,0,2.54-4.63,3.86,3.86,0,0,0-4.66-2.69l-5.23,1.54"/><path class="cls-1" d="M82.54,43.22l3.55-1.45a3.73,3.73,0,0,0-2.24-7.12L79.54,36"/><line class="cls-1" x1="94.23" y1="53.22" x2="87.63" y2="47.53"/><polyline class="cls-1" points="61.17 64.88 73.43 66.36 82.28 72.57"/><line class="cls-1" x1="36.99" y1="49.26" x2="32.85" y2="53"/><path class="cls-1" d="M53.05,35.52l-8.58-3.73C42.36,30.88,41.26,28.71,42,27h0c.75-1.73,3.09-2.4,5.19-1.49l8.58,3.73c2.11.91,3.21,3.08,2.46,4.81h0C57.49,35.76,55.15,36.43,53.05,35.52Z"/><path class="cls-1" d="M50.18,41.78l-8.24-3.57a3.77,3.77,0,0,1-2.32-4.75h0a3.77,3.77,0,0,1,5.05-1.55l8.25,3.58a3.77,3.77,0,0,1,2.31,4.74h0A3.77,3.77,0,0,1,50.18,41.78Z"/><path class="cls-1" d="M47.42,48.09l-7.25-3.15a3.49,3.49,0,0,1-1.87-4.55h0a3.48,3.48,0,0,1,4.6-1.74l7.25,3.14A3.49,3.49,0,0,1,52,46.34h0A3.49,3.49,0,0,1,47.42,48.09Z"/><path class="cls-1" d="M44.3,54.26,37.91,51.5a3.3,3.3,0,0,1-1.48-4.39h0a3.29,3.29,0,0,1,4.22-1.91L47,48a3.28,3.28,0,0,1,1.48,4.38h0A3.29,3.29,0,0,1,44.3,54.26Z"/></g></g></svg>