<svg xmlns="http://www.w3.org/2000/svg" viewBox="0 0 90.57 90.57"><defs><style>.cls-1,.cls-2{fill:#fff;}.cls-1,.cls-2,.cls-3{stroke:#003e72;stroke-miterlimit:10;}.cls-1{stroke-width:1.5px;}.cls-3{fill:#ebf2ee;}</style></defs><g id="Layer_2" data-name="Layer 2"><g id="Layer_12" data-name="Layer 12"><circle class="cls-1" cx="45.28" cy="45.28" r="44.53"/><path class="cls-2" d="M52.1,16.93a27.41,27.41,0,0,0-18.87,7.88c-6.15,6.12-5.78,16.49-12.67,21.55-1.71,1.26-3.71,2.1-5.34,3.47-5,4.18-3.9,15.12,2,17.91a18.34,18.34,0,0,0,6.7,1.32c7.44.51,14.89,1,22.35.88,6.14-.11,12.44-.71,17.93-3.44C73.59,61.8,79,49,77.42,38.61A26.34,26.34,0,0,0,56.75,17.35,24.3,24.3,0,0,0,52.1,16.93Z"/><path class="cls-3" d="M51.37,24.16a18.57,18.57,0,0,0-2.59.17,19.85,19.85,0,0,0-11.35,5.79c-4.31,4.43-3.87,11-7.27,15.86-3.2,4.61-12.27,5.83-9.74,13.09a6.94,6.94,0,0,0,3.82,4,14.57,14.57,0,0,0,5.23.79l13.92.38c5.51.15,11.23.26,16.28-1.9C67.29,59.12,72,50.71,71.3,42.66a20.46,20.46,0,0,0-7.21-13.91A20.12,20.12,0,0,0,51.37,24.16Z"/><ellipse class="cls-2" cx="57.71" cy="52.72" rx="6" ry="5.82"/><line class="cls-2" x1="48.75" y1="30.8" x2="34.53" y2="52.85"/><line class="cls-2" x1="55.19" y1="33.84" x2="40.97" y2="56.05"/><line class="cls-2" x1="48.84" y1="53.03" x2="34.98" y2="40.95"/><line class="cls-2" x1="54.98" y1="44.61" x2="41.12" y2="32.54"/></g></g></svg>