<svg xmlns="http://www.w3.org/2000/svg" viewBox="0 0 268.61 116.67"><defs><style>.cls-1{fill:#cbd266;}.cls-1,.cls-10,.cls-11,.cls-12,.cls-13,.cls-2,.cls-3,.cls-4,.cls-5,.cls-6,.cls-7,.cls-8,.cls-9{stroke:#003e72;stroke-miterlimit:10;stroke-width:0.75px;}.cls-2{fill:#eef0cc;}.cls-3{fill:#e6e6e6;}.cls-4{fill:#ccd8e3;}.cls-5{fill:#d0e0e2;}.cls-6{fill:#e0e4a3;}.cls-7{fill:none;}.cls-8{fill:#d5db85;}.cls-9{fill:#ebf2ee;}.cls-10{fill:#33658e;}.cls-11{fill:#ccc;}.cls-12{fill:#b0b6b3;}.cls-13{fill:#999;}</style></defs><g id="Layer_2" data-name="Layer 2"><g id="Layer_47" data-name="Layer 47"><polygon class="cls-1" points="254.95 96.59 16.03 96.59 16.54 68.62 53.5 43.98 226.98 59.12 250.07 69.64 254.95 96.59"/><path class="cls-2" d="M7.27,80.92h4a0,0,0,0,1,0,0V92.35a0,0,0,0,1,0,0H4.91A4.53,4.53,0,0,1,.37,87.82v0A6.9,6.9,0,0,1,7.27,80.92Z"/><circle class="cls-3" cx="221.57" cy="90.81" r="13.87"/><circle class="cls-4" cx="221.57" cy="90.6" r="4.84"/><path class="cls-5" d="M217,96a6.27,6.27,0,0,1-.17-11.06,6.86,6.86,0,0,1,.83-.38l-3.83-8.47a14.41,14.41,0,0,0-1.48.72,15.67,15.67,0,0,0,2.5,28.53Z"/><circle class="cls-3" cx="42.79" cy="90.81" r="13.87"/><circle class="cls-4" cx="42.79" cy="90.6" r="4.84"/><path class="cls-5" d="M38.2,96A6.28,6.28,0,0,1,38,84.9a7,7,0,0,1,.84-.38L35,76.05a14.26,14.26,0,0,0-1.47.72,15.67,15.67,0,0,0,2.49,28.53Z"/><path class="cls-6" d="M247.94,47.82a24.14,24.14,0,0,0-10-4.52l-27.42-5.53a13.59,13.59,0,0,1-4.29-1.65L163.08,10.36C142.24-2.59,97.56-.64,71.69,3.45A46.91,46.91,0,0,0,40.54,22.9L13.21,62C10.09,66.41,9,74.08,8.76,79.52L8.28,91a7.48,7.48,0,0,0,4.29,7.11,20.7,20.7,0,0,0,3.1,1.16,2.29,2.29,0,0,0,2.87-2.75A22,22,0,0,1,17.83,91c0-13,11.25-23.61,25.12-23.61S68.08,77.91,68.08,91a22.43,22.43,0,0,1-1,6.53,2,2,0,0,0,1.88,2.6l124-.26a3.61,3.61,0,0,0,3.48-4.41,22.37,22.37,0,0,1-.5-4.72c0-13,11.25-23.61,25.12-23.61s25.13,10.57,25.13,23.61a22.36,22.36,0,0,1-1,6.52A1.91,1.91,0,0,0,247,99.7l15.11,0h0a21.29,21.29,0,0,0,4.64-11C269.21,67.5,255.76,53.86,247.94,47.82Z"/><path class="cls-5" d="M44.13,36.28,46,34.41C58,22,74,12.56,91.83,10.54c10.61-1.2,21.79-.75,32.44-.06a113.14,113.14,0,0,1,29.54,5.94,109.52,109.52,0,0,1,17.54,7.83l30,16.65Z"/><path class="cls-7" d="M40.41,38.59l7.79,3.25a43.14,43.14,0,0,0,15.85,3.3l39.23.64S209,51.68,237,63"/><rect class="cls-8" x="32.97" y="47.06" width="15.4" height="15.4" rx="7.7"/><path class="cls-9" d="M29.63,38.72l-.16,18.52a6.21,6.21,0,0,1-8,6l-7.73-2.37Z"/><line class="cls-7" x1="21.93" y1="75.55" x2="9.36" y2="70.67"/><rect class="cls-10" x="43.23" y="55.27" width="2.57" height="2.57" rx="1.28"/><rect class="cls-8" x="100.72" y="51.42" width="20.98" height="7.19" rx="3.59" transform="translate(4.19 -7.76) rotate(4.07)"/><line class="cls-7" x1="100.97" y1="10.36" x2="93.53" y2="36.28"/><line class="cls-7" x1="160.38" y1="19.09" x2="166.16" y2="39.62"/><polyline class="cls-7" points="23.98 63.23 31.17 66.57 33.22 68.88"/><path class="cls-7" d="M118.57,68.64c-4.06-.3-8.13-.58-12.21-.79"/><path class="cls-7" d="M141.26,70.32c-6-.37-12-.85-17.94-1.32"/><path class="cls-7" d="M167.19,72.27c-7.16-.6-14.31-1.55-21.51-1.63"/><path class="cls-7" d="M175.14,72.72c-1.19,0-2.38-.07-3.57-.14"/><path class="cls-7" d="M187.44,40.74l-.38.74A50.83,50.83,0,0,0,181.28,65V93.35"/><path class="cls-9" d="M263.4,67.18c-18-1.29-32.33-16.43-32.33-16.43h14.17a15.53,15.53,0,0,1,12.43,6c.24.32.47.65.68,1C260.85,61.82,263.4,67.18,263.4,67.18Z"/><path class="cls-7" d="M208.74,37.92l4.59,5.13a20,20,0,0,0,10.17,6.09l2.44.59"/><line class="cls-7" x1="241.33" y1="76.67" x2="265.46" y2="71.28"/><path class="cls-2" d="M258,100.28h7.18L268,95.53a1.79,1.79,0,0,0-1.54-2.69H250.83v7.66Z"/><path class="cls-7" d="M94.8,88.48l13.25,4a11,11,0,0,0,2.29.44h0c3.16.28,6.32.4,9.48.38l76.6-.48"/><path class="cls-5" d="M241.61,55.88s15.83,3,20.78,8.25"/><line class="cls-5" x1="29.47" y1="57.24" x2="21.03" y2="52.58"/><circle class="cls-11" cx="220.72" cy="95.22" r="21.08"/><circle class="cls-12" cx="220.72" cy="95.73" r="13.97"/><circle class="cls-13" cx="220.72" cy="95.73" r="6.26"/><circle class="cls-11" cx="42.79" cy="95.22" r="21.08"/><circle class="cls-12" cx="42.79" cy="95.73" r="13.97"/><circle class="cls-13" cx="42.79" cy="95.73" r="6.26"/></g></g></svg>