<svg xmlns="http://www.w3.org/2000/svg" viewBox="0 0 183.96 183.96"><defs><style>.cls-1,.cls-2{fill:#fff;}.cls-1,.cls-2,.cls-3,.cls-4{stroke:#003e72;stroke-miterlimit:10;}.cls-1{stroke-width:1.5px;}.cls-3{fill:#ebf2ee;}.cls-4{fill:#9eb03a;}</style></defs><g id="Layer_2" data-name="Layer 2"><g id="Layer_114" data-name="Layer 114"><circle class="cls-1" cx="91.98" cy="91.98" r="91.23"/><path class="cls-2" d="M150.9,120.77a9.66,9.66,0,0,0-1.76-5.51,9.44,9.44,0,0,0-8.37-13.84l-.39,0a12.4,12.4,0,0,0-23.18.26,9.43,9.43,0,0,0-7,14,8.08,8.08,0,0,0-2,5.22c0,4.32,3.69,8,8.72,9.09a11.75,11.75,0,0,0,6.72,2.11h12.78a11.83,11.83,0,0,0,4.61-.94C146.64,130.28,150.9,126,150.9,120.77Z"/><path class="cls-3" d="M133.06,127.26c-.19-3.74-1.86-9-3.64-9s-3,5.08-3.15,8.81c-3.38-1.43-5.88-3.79-5.88,0a9.16,9.16,0,0,0,18.31,0C138.7,123.17,136.44,125.86,133.06,127.26Z"/><line class="cls-2" x1="129.54" y1="136.25" x2="129.54" y2="161.4"/><path class="cls-2" d="M83.55,121.24a9.58,9.58,0,0,0-1.76-5.51,9.44,9.44,0,0,0-8.36-13.84l-.4,0a12.39,12.39,0,0,0-23.17.26,9.44,9.44,0,0,0-7,14,8.08,8.08,0,0,0-2,5.22c0,4.32,3.69,8,8.73,9.09a11.7,11.7,0,0,0,6.71,2.11H69.06a11.67,11.67,0,0,0,4.62-.94C79.29,130.75,83.55,126.43,83.55,121.24Z"/><path class="cls-3" d="M65.72,127.73c-.2-3.74-1.87-9-3.65-9s-3,5.08-3.15,8.81c-3.38-1.43-5.88-3.79-5.88,0a9.16,9.16,0,0,0,18.31,0C71.35,123.64,69.1,126.33,65.72,127.73Z"/><line class="cls-2" x1="62.2" y1="136.72" x2="62.2" y2="161.87"/><path class="cls-2" d="M135.32,83.73a18.51,18.51,0,0,0-3.39-10.62A18.23,18.23,0,0,0,115.79,46.4c-.26,0-.51,0-.77,0a23.92,23.92,0,0,0-44.71.5,18.2,18.2,0,0,0-13.52,27A15.54,15.54,0,0,0,52.93,84c0,8.33,7.11,15.36,16.83,17.53a22.66,22.66,0,0,0,13,4.07h24.65a22.62,22.62,0,0,0,8.9-1.82C127.1,102.07,135.32,93.75,135.32,83.73Z"/><path class="cls-4" d="M100.91,96.25c-.37-7.21-3.6-17.3-7-17.3s-5.76,9.8-6.08,17c-6.52-2.75-11.35-7.3-11.35,0a17.66,17.66,0,1,0,35.32,0C111.78,88.36,107.43,93.56,100.91,96.25Z"/><line class="cls-2" x1="94.12" y1="113.6" x2="94.12" y2="162.11"/></g></g></svg>