<svg xmlns="http://www.w3.org/2000/svg" viewBox="0 0 116.64 116.64"><defs><style>.cls-1,.cls-2{fill:#fff;}.cls-1,.cls-2,.cls-3,.cls-4,.cls-5,.cls-6{stroke:#003e72;stroke-miterlimit:10;}.cls-1{stroke-width:1.5px;}.cls-3{fill:#66abe2;}.cls-4{fill:none;}.cls-5{fill:#a8b400;}.cls-6{fill:#ebf2ee;}</style></defs><g id="Layer_2" data-name="Layer 2"><g id="Layer_14" data-name="Layer 14"><circle class="cls-1" cx="58.32" cy="58.32" r="57.57"/><rect class="cls-2" x="18.63" y="35.28" width="55.4" height="38.61"/><rect class="cls-3" x="16.49" y="72.82" width="83.67" height="5.81"/><circle class="cls-2" cx="30.8" cy="75.53" r="10.59"/><circle class="cls-2" cx="68.69" cy="79.79" r="6.08"/><circle class="cls-2" cx="91.93" cy="79.79" r="6.08"/><path class="cls-2" d="M74.23,46H92.84a5.35,5.35,0,0,1,5.35,5.35V72.82a0,0,0,0,1,0,0h-24a0,0,0,0,1,0,0V46A0,0,0,0,1,74.23,46Z"/><path class="cls-2" d="M77.75,49.91H90.54a4,4,0,0,1,4,4v7.18a0,0,0,0,1,0,0H77.75a0,0,0,0,1,0,0V49.91A0,0,0,0,1,77.75,49.91Z"/><rect class="cls-4" x="77.86" y="65.32" width="4.41" height="1.67" rx="0.66"/><path class="cls-5" d="M94.12,66.87H98a0,0,0,0,1,0,0v5.6a0,0,0,0,1,0,0H92.88a0,0,0,0,1,0,0V68.11A1.24,1.24,0,0,1,94.12,66.87Z"/><polygon class="cls-6" points="67.07 56.03 25.97 56.03 25.97 47.45 25.97 39.7 67.07 39.7 67.07 56.03"/><line class="cls-2" x1="66.59" y1="47.81" x2="25.97" y2="47.81"/><line class="cls-2" x1="41.58" y1="40.18" x2="41.58" y2="56.51"/><line class="cls-2" x1="51.93" y1="40.18" x2="51.93" y2="56.51"/></g></g></svg>