<svg xmlns="http://www.w3.org/2000/svg" viewBox="0 0 99.57 99.57"><defs><style>.cls-1{fill:#002147;}.cls-2{fill:#99a6b5;}.cls-3{fill:#667a91;}.cls-4{fill:none;stroke:#fff;stroke-linecap:round;stroke-miterlimit:10;stroke-width:2.21px;}</style></defs><g id="Layer_2" data-name="Layer 2"><g id="Final_gfx" data-name="Final gfx"><circle class="cls-1" cx="49.78" cy="49.78" r="49.78"/><path class="cls-2" d="M47.52,20.37l-21.62,25a4.1,4.1,0,0,0,1,6.24L71.1,77.06a2.89,2.89,0,0,0,4.1-3.65L52.57,21.14A3,3,0,0,0,47.52,20.37Z"/><path class="cls-2" d="M69.44,79.69l4.41-2.55A11.47,11.47,0,0,0,72.94,75c-.2-.06-2.78-.47-2.78-.47l-2,.5.33,1.51,1,3.13"/><path class="cls-2" d="M48.29,19.73l-4.88,2.84s.59,2.82,1.07,2.77,1.74-.29,1.74-.29l3.18-1.64Z"/><path class="cls-3" d="M42.74,23.14l-21.62,25a4.1,4.1,0,0,0,1.05,6.24L66.32,79.84a2.89,2.89,0,0,0,4.1-3.65L47.79,23.92A3,3,0,0,0,42.74,23.14Z"/><line class="cls-4" x1="37.93" y1="40.02" x2="51.6" y2="63.71"/><line class="cls-4" x1="51.6" y1="47.92" x2="37.93" y2="55.81"/></g></g></svg>