<svg xmlns="http://www.w3.org/2000/svg" viewBox="0 0 129.22 129.22"><defs><style>.cls-1{fill:#eceaea;}.cls-2{fill:#fff;}.cls-3,.cls-4,.cls-6{fill:none;}.cls-3{stroke:#b2b3b3;}.cls-3,.cls-6{stroke-linejoin:round;stroke-width:3px;}.cls-4,.cls-8{stroke:#b0b1b2;stroke-miterlimit:10;stroke-width:2px;}.cls-5{fill:#e63635;}.cls-6{stroke:#b0b0b1;}.cls-7{fill:#b2b3b3;}.cls-8{fill:#55acee;}</style></defs><title>Asset 10</title><g id="Layer_2" data-name="Layer 2"><g id="Layer_1-2" data-name="Layer 1"><path class="cls-1" d="M0,64.67a64.61,64.61,0,1,1,64.67,64.55A64.61,64.61,0,0,1,0,64.67"/><path class="cls-2" d="M120.44,107.13l-111.58.1a5,5,0,0,1-5-5V96.79l121.65-.12v5.41a5.05,5.05,0,0,1-5,5"/><path class="cls-3" d="M120.44,107.13l-111.58.1a5,5,0,0,1-5-5V96.79l121.65-.12v5.41A5.05,5.05,0,0,1,120.44,107.13Z"/><path class="cls-2" d="M120.06,96.68,9,96.78,9,32a6.62,6.62,0,0,1,6.62-6.63l97.76-.1A6.62,6.62,0,0,1,120,31.84Z"/><path class="cls-3" d="M120.06,96.68,9,96.78,9,32a6.62,6.62,0,0,1,6.62-6.63l97.76-.1A6.62,6.62,0,0,1,120,31.84Z"/><rect class="cls-4" x="15.74" y="32" width="97.55" height="57.99"/><rect class="cls-3" x="15.74" y="32" width="97.55" height="57.99"/><path class="cls-5" d="M64.52,62.94c29.91-10.8,22.75-45.15,22.75-45.15-8.18-1.49-16.33-3.88-22.8-7.95-6.47,4.08-14.62,6.49-22.8,8,0,0-7.09,34.36,22.85,45.1"/><path class="cls-6" d="M64.52,62.94c29.91-10.8,22.75-45.15,22.75-45.15-8.18-1.49-16.33-3.88-22.8-7.95-6.47,4.08-14.62,6.49-22.8,8C41.67,17.84,34.58,52.2,64.52,62.94Z"/><path class="cls-2" d="M72.38,46.69l-15.59,0A1.77,1.77,0,0,1,55,44.94V33.78A1.75,1.75,0,0,1,56.77,32H72.36a1.76,1.76,0,0,1,1.77,1.76V44.92a1.76,1.76,0,0,1-1.76,1.77"/><rect class="cls-3" x="55.01" y="32" width="19.13" height="14.7" rx="1.77"/><path class="cls-7" d="M66.63,37.37a2.14,2.14,0,1,0-2.14,2.14,2.14,2.14,0,0,0,2.14-2.14"/><path class="cls-7" d="M64.49,37.37h0a.94.94,0,0,0-.94.94v4.07a.95.95,0,1,0,1.89,0V38.31a1,1,0,0,0-1-.94"/><path class="cls-3" d="M69.78,32H59.35V25.55a3.26,3.26,0,0,1,3.26-3.26h3.92a3.25,3.25,0,0,1,3.26,3.25Z"/><polygon class="cls-2" points="31.04 80.22 25.63 83.07 26.66 77.04 22.27 72.78 28.32 71.89 31.02 66.41 33.73 71.89 39.79 72.76 35.41 77.03 36.45 83.06 31.04 80.22"/><polygon class="cls-8" points="31.04 80.22 25.63 83.07 26.66 77.04 22.27 72.78 28.32 71.89 31.02 66.41 33.73 71.89 39.79 72.76 35.41 77.03 36.45 83.06 31.04 80.22"/><polygon class="cls-2" points="53.43 80.2 48.02 83.05 49.05 77.02 44.67 72.76 50.72 71.87 53.42 66.39 56.13 71.87 62.18 72.74 57.8 77.01 58.84 83.04 53.43 80.2"/><polygon class="cls-8" points="53.43 80.2 48.02 83.05 49.05 77.02 44.67 72.76 50.72 71.87 53.42 66.39 56.13 71.87 62.18 72.74 57.8 77.01 58.84 83.04 53.43 80.2"/><polygon class="cls-2" points="75.82 80.18 70.41 83.03 71.44 77 67.06 72.74 73.11 71.85 75.81 66.37 78.52 71.85 84.57 72.72 80.2 76.99 81.24 83.02 75.82 80.18"/><polygon class="cls-8" points="75.82 80.18 70.41 83.03 71.44 77 67.06 72.74 73.11 71.85 75.81 66.37 78.52 71.85 84.57 72.72 80.2 76.99 81.24 83.02 75.82 80.18"/><polygon class="cls-2" points="98.22 80.16 92.81 83 93.83 76.98 89.45 72.72 95.5 71.83 98.2 66.35 100.91 71.83 106.96 72.7 102.59 76.97 103.63 83 98.22 80.16"/><polygon class="cls-8" points="98.22 80.16 92.81 83 93.83 76.98 89.45 72.72 95.5 71.83 98.2 66.35 100.91 71.83 106.96 72.7 102.59 76.97 103.63 83 98.22 80.16"/></g></g></svg>