<svg xmlns="http://www.w3.org/2000/svg" viewBox="0 0 134.05 129.22"><defs><style>.cls-1{fill:#eceaea;}.cls-2{fill:#fff;}.cls-3,.cls-5,.cls-6,.cls-7{fill:none;stroke-width:3px;}.cls-3,.cls-6{stroke:#b2b3b3;}.cls-3,.cls-5{stroke-linejoin:round;}.cls-4{fill:#e63635;}.cls-5,.cls-7{stroke:#b0b0b1;}.cls-6,.cls-7{stroke-miterlimit:10;}.cls-8{fill:#55acee;}</style></defs><title>Asset 12</title><g id="Layer_2" data-name="Layer 2"><g id="Layer_1-2" data-name="Layer 1"><path class="cls-1" d="M4.83,64.67A64.61,64.61,0,1,1,69.5,129.22,64.6,64.6,0,0,1,4.83,64.67"/><path class="cls-2" d="M83.79,115.79c38.64,0,46-12.21,46-12.21s-28.18-45.8-32-51.78-1.74-11-.74-13.79C104.5,17.94,90,6.89,90,6.89a42.62,42.62,0,0,1,3.65,16c-1.64.28-6.76.92-9.91,4.46-3.16-3.53-8.28-4.17-9.92-4.44a42.59,42.59,0,0,1,3.62-16S62.9,18,70.36,38c1,2.81,3.09,7.8-.72,13.8s-31.89,51.84-31.89,51.84,7.41,12.16,46,12.12"/><path class="cls-3" d="M83.79,115.79c38.64,0,46-12.21,46-12.21s-28.18-45.8-32-51.78-1.74-11-.74-13.79C104.5,17.94,90,6.89,90,6.89a42.62,42.62,0,0,1,3.65,16c-1.64.28-6.76.92-9.91,4.46-3.16-3.53-8.28-4.17-9.92-4.44a42.59,42.59,0,0,1,3.62-16S62.9,18,70.36,38c1,2.81,3.09,7.8-.72,13.8s-31.89,51.84-31.89,51.84,7.41,12.16,46,12.12"/><path class="cls-2" d="M83.79,115.79c38.64,0,46-12.21,46-12.21s-28.18-45.8-32-51.78-1.74-11-.74-13.79C104.5,17.94,90,6.89,90,6.89a42.62,42.62,0,0,1,3.65,16c-1.64.28-6.76.92-9.91,4.46-3.16-3.53-8.28-4.17-9.92-4.44a42.59,42.59,0,0,1,3.62-16S62.9,18,70.36,38c1,2.81,3.09,7.8-.72,13.8s-31.89,51.84-31.89,51.84,7.41,12.16,46,12.12"/><path class="cls-3" d="M83.79,115.79c38.64,0,46-12.21,46-12.21s-28.18-45.8-32-51.78-1.74-11-.74-13.79C104.5,17.94,90,6.89,90,6.89a42.62,42.62,0,0,1,3.65,16c-1.64.28-6.76.92-9.91,4.46-3.16-3.53-8.28-4.17-9.92-4.44a42.59,42.59,0,0,1,3.62-16S62.9,18,70.36,38c1,2.81,3.09,7.8-.72,13.8s-31.89,51.84-31.89,51.84,7.41,12.16,46,12.12"/><path class="cls-4" d="M95.64,45.55A17.82,17.82,0,0,1,97.08,38C104.5,17.94,90,6.89,90,6.89a42.64,42.64,0,0,1,3.65,16c-1.64.27-6.76.91-9.91,4.45-3.16-3.53-8.28-4.16-9.92-4.44a42.59,42.59,0,0,1,3.62-16S62.9,18,70.36,38a17.81,17.81,0,0,1,1.45,7.54"/><path class="cls-5" d="M95.64,45.55A17.82,17.82,0,0,1,97.08,38C104.5,17.94,90,6.89,90,6.89a42.64,42.64,0,0,1,3.65,16c-1.64.27-6.76.91-9.91,4.45-3.16-3.53-8.28-4.16-9.92-4.44a42.59,42.59,0,0,1,3.62-16S62.9,18,70.36,38a17.81,17.81,0,0,1,1.45,7.54"/><path class="cls-2" d="M103.19,72l18.73,40.35a42.54,42.54,0,0,1-12.61,3.37"/><path class="cls-6" d="M103.19,72l18.73,40.35a42.54,42.54,0,0,1-12.61,3.37"/><path class="cls-2" d="M95.8,73.76l14.33,45.18s-5.08,1.46-13.88,1"/><path class="cls-6" d="M95.8,73.76l14.33,45.18s-5.08,1.46-13.88,1"/><path class="cls-2" d="M64.31,72.07l-18.65,40.4a42.76,42.76,0,0,0,12.61,3.34"/><path class="cls-6" d="M64.31,72.07l-18.65,40.4a42.76,42.76,0,0,0,12.61,3.34"/><path class="cls-2" d="M72.12,73.78,57.46,119s5.08,1.45,13.88,1"/><path class="cls-6" d="M72.12,73.78,57.46,119s5.08,1.45,13.88,1"/><path class="cls-2" d="M87.86,74.31l8.85,48.36s-4.76,1.46-12.91,0c-8.15,1.46-12.91,0-12.91,0l8.76-48.38"/><path class="cls-6" d="M87.86,74.31l8.85,48.36s-4.76,1.46-12.91,0c-8.15,1.46-12.91,0-12.91,0l8.76-48.38"/><path class="cls-4" d="M96,47.55A12.6,12.6,0,0,1,95.72,43h0c-12.2,3.16-24,0-24,0h0a12.66,12.66,0,0,1-.24,4.57c.75.19,12.42,3,24.47,0"/><path class="cls-7" d="M96,47.55A12.6,12.6,0,0,1,95.72,43h0c-12.2,3.16-24,0-24,0h0a12.66,12.66,0,0,1-.24,4.57C72.24,47.77,83.91,50.6,96,47.55Z"/><path class="cls-2" d="M77.41,6.9A19.65,19.65,0,0,1,90,6.89c.54,1.22.84,2,.84,2s-5-1.64-14.24,0c.26-.67.84-2,.84-2"/><path class="cls-3" d="M77.41,6.9A19.65,19.65,0,0,1,90,6.89c.54,1.22.84,2,.84,2s-5-1.64-14.24,0C76.83,8.22,77.41,6.9,77.41,6.9Z"/><polygon class="cls-2" points="1.52 56.85 21.43 70.06 60.38 46.17 40.05 32.6 1.52 56.85"/><polygon class="cls-3" points="1.52 56.85 21.43 70.06 60.38 46.17 40.05 32.6 1.52 56.85"/><polygon class="cls-2" points="1.51 50.78 21.43 63.99 60.38 40.11 40.04 26.53 1.51 50.78"/><polygon class="cls-3" points="1.51 50.78 21.43 63.99 60.38 40.11 40.04 26.53 1.51 50.78"/><polygon class="cls-2" points="1.51 44.72 21.42 57.92 60.37 34.04 40.04 20.46 1.51 44.72"/><polygon class="cls-3" points="1.51 44.72 21.42 57.92 60.37 34.04 40.04 20.46 1.51 44.72"/><polygon class="cls-2" points="1.5 38.65 21.42 51.86 60.37 27.98 40.03 14.4 1.5 38.65"/><polygon class="cls-3" points="1.5 38.65 21.42 51.86 60.37 27.98 40.03 14.4 1.5 38.65"/><path class="cls-2" d="M13,36.36,37.53,20.8s3,1.85,5.43,0c1.12.83,6.69,4.65,6.69,4.65a2.94,2.94,0,0,0,0,3.62C47.7,30.54,24.75,45,24.75,45s-3.21-1.54-6.05,0c-1.54-1-6-4.16-6-4.16A4.49,4.49,0,0,0,13,36.36"/><path class="cls-5" d="M13,36.36,37.53,20.8s3,1.85,5.43,0c1.12.83,6.69,4.65,6.69,4.65a2.94,2.94,0,0,0,0,3.62C47.7,30.54,24.75,45,24.75,45s-3.21-1.54-6.05,0c-1.54-1-6-4.16-6-4.16A4.49,4.49,0,0,0,13,36.36Z"/><polygon class="cls-8" points="17.26 28.73 37.23 42.16 46.41 36.53 26.3 23.04 17.26 28.73"/><polygon class="cls-6" points="17.26 28.73 37.23 42.16 46.41 36.53 26.3 23.04 17.26 28.73"/><polygon class="cls-8" points="37.23 42.16 37.25 60.36 46.43 54.73 46.41 36.53 37.23 42.16"/><polygon class="cls-6" points="37.23 42.16 37.25 60.36 46.43 54.73 46.41 36.53 37.23 42.16"/></g></g></svg>