<svg xmlns="http://www.w3.org/2000/svg" viewBox="0 0 129.6 130.68"><defs><style>.cls-1{fill:#eceaea;}.cls-2{fill:#fff;}.cls-3{fill:none;stroke:#b0b1b2;stroke-miterlimit:10;stroke-width:2px;}.cls-4{fill:#ff434e;}.cls-5{fill:#24aef4;}</style></defs><title>Asset 6</title><g id="Layer_2" data-name="Layer 2"><g id="Layer_1-2" data-name="Layer 1"><path class="cls-1" d="M129.6,65.82A64.8,64.8,0,1,1,64.74,1.08,64.45,64.45,0,0,1,129.6,65.82"/><rect class="cls-2" x="24.75" y="44.09" width="78.5" height="62.99"/><rect class="cls-3" x="24.75" y="44.09" width="78.5" height="62.99"/><line class="cls-3" x1="46.53" y1="66.05" x2="81.46" y2="66.02"/><line class="cls-3" x1="46.54" y1="75.6" x2="81.47" y2="75.57"/><line class="cls-3" x1="46.52" y1="56.5" x2="81.45" y2="56.46"/><line class="cls-3" x1="46.55" y1="85.15" x2="81.48" y2="85.12"/><line class="cls-3" x1="46.56" y1="94.7" x2="81.49" y2="94.67"/><path class="cls-4" d="M30.5,30.8a5.79,5.79,0,1,0-5.78,5.79A5.79,5.79,0,0,0,30.5,30.8"/><path class="cls-3" d="M30.5,30.8a5.79,5.79,0,1,0-5.78,5.79A5.79,5.79,0,0,0,30.5,30.8Z"/><path class="cls-2" d="M24.72,108.39h0A10.1,10.1,0,0,1,14.61,98.3l0-51.41a10.1,10.1,0,0,1,20.2,0l.05,51.41a10.1,10.1,0,0,1-10.09,10.11"/><path class="cls-3" d="M24.72,108.39h0A10.1,10.1,0,0,1,14.61,98.3l0-51.41a10.1,10.1,0,0,1,20.2,0l.05,51.41A10.1,10.1,0,0,1,24.72,108.39Z"/><path class="cls-2" d="M35,99.91c0,4.68-4.55,8.47-10.16,8.48s-10.18-3.79-10.18-8.46,4.54-8.48,10.16-8.49S34.94,95.23,35,99.91"/><path class="cls-3" d="M35,99.91c0,4.68-4.55,8.47-10.16,8.48s-10.18-3.79-10.18-8.46,4.54-8.48,10.16-8.49S34.94,95.23,35,99.91Z"/><path class="cls-4" d="M30.58,117.19a5.79,5.79,0,1,1-5.79-5.79,5.78,5.78,0,0,1,5.79,5.79"/><path class="cls-3" d="M30.58,117.19a5.79,5.79,0,1,1-5.79-5.79A5.78,5.78,0,0,1,30.58,117.19Z"/><line class="cls-3" x1="24.79" y1="111.4" x2="24.78" y2="99.69"/><path class="cls-4" d="M109,30.72a5.79,5.79,0,1,0-5.78,5.8,5.77,5.77,0,0,0,5.78-5.8"/><path class="cls-3" d="M109,30.72a5.79,5.79,0,1,0-5.78,5.8A5.77,5.77,0,0,0,109,30.72Z"/><path class="cls-2" d="M103.22,108.31h0A10.09,10.09,0,0,1,93.11,98.22l0-51.41a10.1,10.1,0,0,1,20.2,0l0,51.41a10.09,10.09,0,0,1-10.09,10.11"/><path class="cls-3" d="M103.22,108.31h0A10.09,10.09,0,0,1,93.11,98.22l0-51.41a10.1,10.1,0,0,1,20.2,0l0,51.41A10.09,10.09,0,0,1,103.22,108.31Z"/><path class="cls-2" d="M113.45,99.83c0,4.68-4.55,8.48-10.16,8.48s-10.18-3.78-10.18-8.46,4.54-8.48,10.16-8.48,10.17,3.78,10.18,8.46"/><path class="cls-3" d="M113.45,99.83c0,4.68-4.55,8.48-10.16,8.48s-10.18-3.78-10.18-8.46,4.54-8.48,10.16-8.48S113.44,95.15,113.45,99.83Z"/><path class="cls-4" d="M109.09,117.11a5.8,5.8,0,1,1-5.8-5.78,5.8,5.8,0,0,1,5.8,5.78"/><path class="cls-3" d="M109.09,117.11a5.8,5.8,0,1,1-5.8-5.78A5.8,5.8,0,0,1,109.09,117.11Z"/><line class="cls-3" x1="103.29" y1="111.33" x2="103.28" y2="99.61"/><path class="cls-5" d="M93,1.05A32.26,32.26,0,0,0,70.62,15.73s-19,24.92-13.08,38.84c0,0,17.07-4.21,18-11.75,0,0,26.28-31.86,17.5-41.77"/><path class="cls-3" d="M80.93,15.67S55.77,45.12,52,75.6"/><path class="cls-3" d="M58.32,52.38a20.26,20.26,0,0,1,1.26-19.09L72.39,12.92S81.14.08,93,1.05c0,0,4,8.33-3.61,21L79.15,39.74s-2.6,4.51-10.63,4.75"/><path class="cls-3" d="M75.51,42.82c-.8,8-10.5,9.89-10.5,9.89l-7.47,1.87"/></g></g></svg>