<svg xmlns="http://www.w3.org/2000/svg" viewBox="0 0 171.44 171.44"><defs><style>.cls-1{fill:#fff;}.cls-2{fill:#c9c9c9;}.cls-3{fill:#898a8b;}.cls-4{fill:#868686;}.cls-5{fill:#333d47;}.cls-6{fill:#a21f34;}.cls-7{fill:#30373f;}</style></defs><g id="Layer_2" data-name="Layer 2"><g id="MODEL"><circle class="cls-1" cx="88.62" cy="66.92" r="25.52"/><circle class="cls-2" cx="85.72" cy="85.72" r="85.72"/><path class="cls-3" d="M31.42,99.87A27.56,27.56,0,0,1,30,90.21c.05-1.37,0-5.95,1.23-6.82,1.93-1.34,4.44,1.56,5,3.12.74,2,.58,4.3,1,6.44.92,4.78,4.55,8.52,8,12,2.39,2.37,5.35,4.94,8.67,4.35-1.24-3.54-4.5-5.9-6.94-8.76a8,8,0,0,1-2.24-4.69c-.08-1.76,1.09-3.68,2.85-3.88a4.49,4.49,0,0,1,2.51.62c3.75,1.93,6.15,5.69,9.34,8.44,5.46,4.71,13.43,6.65,17.21,12.78A20.52,20.52,0,0,1,79,120.5c1.72,8.43,1.13,17.15.53,25.73l-16-.22c.81-4.34,1.6-9-.05-13-1.56-3.85-5-6.58-8.62-8.68s-7.46-3.77-10.66-6.42A43.61,43.61,0,0,1,38,110.94a54.42,54.42,0,0,1-4.62-6.58A26.45,26.45,0,0,1,31.42,99.87Z"/><path class="cls-3" d="M140,99.87a27.56,27.56,0,0,0,1.43-9.66c0-1.37,0-5.95-1.23-6.82-1.93-1.34-4.44,1.56-5,3.12-.74,2-.58,4.3-1,6.44-.92,4.78-4.55,8.52-8,12-2.39,2.37-5.36,4.94-8.67,4.35,1.23-3.54,4.5-5.9,6.94-8.76a8.07,8.07,0,0,0,2.24-4.69c.08-1.76-1.1-3.68-2.85-3.88a4.52,4.52,0,0,0-2.52.62c-3.74,1.93-6.14,5.69-9.33,8.44-5.46,4.71-13.43,6.65-17.21,12.78a20.52,20.52,0,0,0-2.41,6.74c-1.72,8.43-1.13,17.15-.53,25.73l16-.22c-.81-4.34-1.6-9,.05-13,1.55-3.85,5-6.58,8.62-8.68s7.46-3.77,10.66-6.42a43.61,43.61,0,0,0,6.23-6.92,54.42,54.42,0,0,0,4.62-6.58A26.45,26.45,0,0,0,140,99.87Z"/><path class="cls-4" d="M95.77,37.74l-11-11v4.49A35.85,35.85,0,0,0,54.15,83.28L66.6,77a21.69,21.69,0,0,1-2.35-9.89A21.92,21.92,0,0,1,84.77,45.21v3.52Z"/><path class="cls-5" d="M104.69,78.67a21.88,21.88,0,0,1-37.11,0l3.53-2-15-4-4,15,3.4-2a35.86,35.86,0,0,0,61.05.44Z"/><path class="cls-6" d="M122,67.06A35.91,35.91,0,0,0,89.38,31.35l6.39,6.39-7.54,7.53a21.88,21.88,0,0,1,17.43,31.67l-3.57-2.06,4,15,15-4-3.35-1.93A35.89,35.89,0,0,0,122,67.06Z"/><path class="cls-7" d="M83.12,72.64v-1a6.06,6.06,0,0,1,.64-2.94A8.29,8.29,0,0,1,86,66.25a12.24,12.24,0,0,0,2.46-2.34,3.5,3.5,0,0,0,.56-2,2.49,2.49,0,0,0-.9-2.06,4,4,0,0,0-2.58-.73,8.88,8.88,0,0,0-2.83.44,19.79,19.79,0,0,0-2.53,1l-1.35-2.82a14.11,14.11,0,0,1,7-1.81,7.54,7.54,0,0,1,5,1.54,5.24,5.24,0,0,1,1.84,4.24,6.12,6.12,0,0,1-.35,2.14,6,6,0,0,1-1.07,1.79,17.56,17.56,0,0,1-2.46,2.22,9.24,9.24,0,0,0-2,1.94,3.76,3.76,0,0,0-.5,2.06v.73Zm-.66,5.11a2.11,2.11,0,0,1,2.35-2.42,2.36,2.36,0,0,1,1.77.63,2.5,2.5,0,0,1,.61,1.79,2.54,2.54,0,0,1-.62,1.8,2.65,2.65,0,0,1-3.5,0A2.54,2.54,0,0,1,82.46,77.75Z"/></g></g></svg>