<svg xmlns="http://www.w3.org/2000/svg" viewBox="0 0 145.15 584.49"><defs><style>.cls-1{fill:#85b3c5;}.cls-2{fill:#559ab0;}.cls-3{fill:#408da7;}.cls-4{fill:none;stroke:#fff;stroke-miterlimit:10;}.cls-5{fill:#fff;}</style></defs><g id="Layer_2" data-name="Layer 2"><g id="Layer_1-2" data-name="Layer 1"><ellipse class="cls-1" cx="72.58" cy="292.25" rx="72.58" ry="292.25"/><path class="cls-2" d="M107.54,36.11C76.51,54.53,52.7,162.18,52.7,292.25S76.51,530,107.54,548.39C130,498.66,145.15,402.6,145.15,292.25S130,85.84,107.54,36.11Z"/><path class="cls-3" d="M133.84,449c7.16-45.3,11.31-99.08,11.31-156.76S141,180.78,133.84,135.48c-12,35.43-19.7,92.45-19.7,156.77S121.89,413.59,133.84,449Z"/><path class="cls-3" d="M133.84,135.48c-12,35.43-19.7,92.45-19.7,156.77s7.75,121.34,19.7,156.76"/><path class="cls-4" d="M122.13,79.54C105.93,127.61,95.41,205,95.41,292.25S105.93,456.88,122.13,505"/><circle class="cls-5" cx="81.62" cy="184.65" r="5.35"/><circle class="cls-5" cx="39.86" cy="315.62" r="10.39"/><circle class="cls-5" cx="47.35" cy="471" r="2.91"/><circle class="cls-5" cx="122.13" cy="173.2" r="2.91"/><circle class="cls-5" cx="128.11" cy="295.26" r="2.91"/></g></g></svg>