<svg xmlns="http://www.w3.org/2000/svg" viewBox="0 0 1796.22 1102.28"><defs><style>.cls-1{fill:#262e35;}.cls-2,.cls-24,.cls-34{fill:#333d47;}.cls-3{fill:#5c646c;}.cls-13,.cls-14,.cls-21,.cls-22,.cls-23,.cls-25,.cls-27,.cls-4,.cls-7{fill:none;}.cls-18,.cls-4{stroke:#fff;}.cls-24,.cls-25,.cls-4,.cls-7{stroke-linecap:round;}.cls-13,.cls-14,.cls-15,.cls-16,.cls-18,.cls-21,.cls-22,.cls-23,.cls-27,.cls-4{stroke-miterlimit:10;}.cls-15,.cls-27,.cls-4,.cls-7{stroke-width:1.9px;}.cls-5{fill:#b7b7b7;}.cls-6{fill:#fff;}.cls-23,.cls-24,.cls-25,.cls-27,.cls-7{stroke:#333d47;}.cls-24,.cls-25,.cls-7{stroke-linejoin:round;}.cls-8{fill:#e5e5e5;}.cls-9{fill:#8b8b8b;}.cls-10{fill:#eee;}.cls-11{fill:#545759;}.cls-12{fill:#c9c8c7;}.cls-13{stroke:#c9c8c7;}.cls-13,.cls-14,.cls-16,.cls-24{stroke-width:0.95px;}.cls-14,.cls-15,.cls-16{stroke:#5f5c5d;}.cls-15,.cls-16{fill:#5f5c5d;}.cls-17,.cls-18{fill:#979695;}.cls-18{stroke-width:9.5px;}.cls-19{fill:#d5d5d5;}.cls-20{opacity:0.5;}.cls-21,.cls-22{stroke:#b7b7b7;}.cls-21{stroke-width:0.53px;}.cls-22{stroke-width:0.71px;}.cls-23{stroke-width:6.65px;}.cls-25{stroke-width:2.85px;}.cls-26{fill:#a31f34;}.cls-28{fill:#656464;}.cls-29{fill:#00698a;}.cls-30{fill:#bfbfbf;}.cls-31{fill:#b2b2b2;}.cls-32{fill:#aaa;}.cls-33{fill:#7d8389;}.cls-34{font-size:19.59px;font-family:OpenSans-Bold, Open Sans;font-weight:700;}.cls-35{fill:#f5f5f5;}</style></defs><g id="Layer_2" data-name="Layer 2"><g id="Desk_elements" data-name="Desk elements"><path class="cls-1" d="M520.59,652.14a44.68,44.68,0,0,1-7.52,5.68c-8.53,5.11,4.64,11.35,14.54,5.43a23.28,23.28,0,0,0,6.18-6Z"/><path class="cls-1" d="M721.88,587.79a45.93,45.93,0,0,0,12.15.82c9.91-.69,2.68,12-8.82,12.77a20.88,20.88,0,0,1-6.73-.87Z"/><path class="cls-2" d="M721.08,559.46c-8.6-2.33-29.44-2.17-59.43,5.46-12.79,3.24-22.6,7.08-29.71,9.53-5.49,1.88-17.1,2.29-24.15,4.49-9.63,3-16.86,7.14-22.91,8.48-7.34,1.62-17.73,3.46-30.33,7.35C525,603.92,507.13,614.65,501,621.13c-3.72,3.92-1.49,9,.09,12.47.79,1.78,5.61,2,8.15,3.37a3.38,3.38,0,0,1,1.3,1.12c3.16,5.27,5.7,10.4,10.05,14,3.15,2.65,7.25,4.51,13.21,5.07s14-.18,24.85-2.82c36.26-8.83,44.37-14.85,47.57-26.12a117.18,117.18,0,0,0,3.21-20.15,7.08,7.08,0,0,1,4.7-6.42c1.33-.36,4.71-.82,7.66,3.21A117.32,117.32,0,0,0,635,620.43c8.61,8,18.66,8.87,54.2-2.51,17.14-5.49,25.35-11.24,29.25-17.41,2.54-4,3.24-8.27,3.39-12.72.08-2.85-.06-5.81-.08-8.87,0-2.38,4.17-5.24,5.4-7.49a2.28,2.28,0,0,0,.33-1.27C727,566.34,726.32,560.87,721.08,559.46ZM601.6,607.59a91.12,91.12,0,0,1-2.87,20.12c-2.67,9.41-9.43,14.45-39.73,21.82-9.23,2.25-16.29,3-21.82,2.59a24.67,24.67,0,0,1-12.64-4c-4-2.83-6.66-6.8-9.19-11-.59-1-1.15-1.93-1.63-2.88-4.85-9.32-2.81-16.64,41.72-30.4,1.72-.54,3.38-1,5-1.48,13.58-3.83,22.7-4.77,28.82-4.25.55.05,1.07.11,1.58.18h0C602.75,599.86,601.6,607.59,601.6,607.59Zm114.23-35.76c1.14,2.35,1.29,5.34,1.32,8.69,0,2.07,0,4.1-.17,6.1a22.64,22.64,0,0,1-4.13,11.91c-4,5.55-11.71,10.71-26.43,15.42-29.69,9.5-38.09,8.75-45.28,2.11a91.68,91.68,0,0,1-12.94-15.68s-4.69-5.61,3.41-12.88a32.47,32.47,0,0,1,4.54-3.34h0c5.79-3.6,15-7.45,29.43-11.12,3.8-1,7.3-1.8,10.55-2.55C704.19,564.15,713,566,715.83,571.83Z"/><path class="cls-3" d="M590.82,598.21c-.52.18-20.87,7.49-33.15,17.53A37.16,37.16,0,0,0,545,634.35a86.86,86.86,0,0,1-7.81,17.77,24.67,24.67,0,0,1-12.64-4c7.44-8.48,12.84-19.33,19.69-30.45,13.83-6.81,29.4-13.7,45-19.59C589.79,598.08,590.31,598.14,590.82,598.21Z"/><path class="cls-3" d="M666.45,579.45q-16,3.38-34.84,8a32.47,32.47,0,0,1,4.54-3.34h0C636.62,584,652.09,579.85,666.45,579.45Z"/><path class="cls-3" d="M715.83,571.83c-7.86.56-16.68,1.66-26.55,3.29q-3.3-1.5-6.73-2.94a28.65,28.65,0,0,0-6.41-1.7C704.19,564.15,713,566,715.83,571.83Z"/><path class="cls-3" d="M589.24,598c-15.61,5.89-31.18,12.78-45,19.59-11.81,5.81-22.32,11.55-30.51,16.54-4.85-9.32-2.81-16.64,41.72-30.4,1.72-.54,3.38-1,5-1.48C574,598.45,583.12,597.51,589.24,598Z"/><path class="cls-3" d="M717,586.62a22.64,22.64,0,0,1-4.13,11.91,84.49,84.49,0,0,1-18.42-10.93,37.25,37.25,0,0,0-21-8,68.94,68.94,0,0,0-6.93-.13c-14.36.4-29.83,4.58-30.29,4.7,5.79-3.6,15-7.45,29.43-11.12,3.8-1,7.3-1.8,10.55-2.55a28.65,28.65,0,0,1,6.41,1.7q3.44,1.44,6.73,2.94C699,579.53,707.92,584.07,717,586.62Z"/><line class="cls-4" x1="527.68" y1="631.35" x2="561.68" y2="640.68"/><line class="cls-4" x1="528.5" y1="618.66" x2="575.65" y2="630.63"/><line class="cls-4" x1="648.3" y1="596.59" x2="674.98" y2="603.92"/><line class="cls-4" x1="679.54" y1="584.28" x2="706.22" y2="591.61"/><line class="cls-4" x1="645.71" y1="587.63" x2="692.86" y2="599.6"/><path class="cls-5" d="M297.52,715.57H555.82a10.58,10.58,0,0,1,10.58,10.58v325.36a10.58,10.58,0,0,1-10.58,10.58H297.52a0,0,0,0,1,0,0V715.57a0,0,0,0,1,0,0Z" transform="translate(504.02 -96.77) rotate(30.1)"/><rect class="cls-6" x="301.55" y="721.43" width="250.22" height="328.67" transform="translate(501.76 -94.53) rotate(30.1)"/><line class="cls-7" x1="426.94" y1="732.89" x2="579.13" y2="821.11"/><line class="cls-7" x1="411.58" y1="758.27" x2="563.77" y2="846.49"/><line class="cls-7" x1="396.1" y1="783.58" x2="548.29" y2="871.8"/><line class="cls-7" x1="396.3" y1="783.7" x2="548.5" y2="871.92"/><line class="cls-7" x1="380.94" y1="809.08" x2="533.13" y2="897.3"/><line class="cls-7" x1="365.46" y1="834.38" x2="517.65" y2="922.61"/><line class="cls-7" x1="350.48" y1="859.99" x2="502.67" y2="948.21"/><line class="cls-7" x1="335.11" y1="885.36" x2="487.31" y2="973.59"/><line class="cls-7" x1="319.63" y1="910.67" x2="471.82" y2="998.9"/><line class="cls-7" x1="305.21" y1="936.59" x2="457.4" y2="1024.82"/><line class="cls-7" x1="289.84" y1="961.97" x2="442.03" y2="1050.2"/><path class="cls-5" d="M64.89,580.71H323.19a10.58,10.58,0,0,1,10.58,10.58V916.66a10.58,10.58,0,0,1-10.58,10.58H64.89a0,0,0,0,1,0,0V580.71a0,0,0,0,1,0,0Z" transform="translate(-6.35 1506.25) rotate(-149.9)"/><rect class="cls-8" x="79.52" y="592.73" width="250.26" height="328.67" transform="translate(2.03 1514.67) rotate(-149.9)"/><circle class="cls-9" cx="404.21" cy="713.31" r="8.62"/><circle class="cls-9" cx="381.16" cy="753.09" r="8.62"/><circle class="cls-9" cx="358.1" cy="792.87" r="8.62"/><circle class="cls-9" cx="335.04" cy="832.65" r="8.62"/><circle class="cls-9" cx="311.98" cy="872.43" r="8.62"/><circle class="cls-9" cx="288.92" cy="912.2" r="8.62"/><circle class="cls-9" cx="265.86" cy="951.98" r="8.62"/><circle class="cls-9" cx="365.43" cy="690.83" r="8.62"/><circle class="cls-9" cx="342.37" cy="730.61" r="8.62"/><circle class="cls-9" cx="319.32" cy="770.39" r="8.62"/><circle class="cls-9" cx="296.26" cy="810.17" r="8.62"/><circle class="cls-9" cx="273.2" cy="849.94" r="8.62"/><circle class="cls-9" cx="250.14" cy="889.72" r="8.62"/><circle class="cls-9" cx="227.08" cy="929.5" r="8.62"/><rect class="cls-10" x="360.54" y="697.76" width="48.56" height="8.62" rx="4.31" transform="translate(404 -98.32) rotate(30.1)"/><rect class="cls-10" x="337.48" y="737.54" width="48.56" height="8.62" rx="4.31" transform="translate(420.84 -81.39) rotate(30.1)"/><rect class="cls-10" x="314.43" y="777.32" width="48.56" height="8.62" rx="4.31" transform="translate(437.68 -64.46) rotate(30.1)"/><rect class="cls-10" x="291.37" y="817.1" width="48.56" height="8.62" rx="4.31" transform="translate(454.52 -47.53) rotate(30.1)"/><rect class="cls-10" x="268.31" y="856.87" width="48.56" height="8.62" rx="4.31" transform="matrix(0.87, 0.5, -0.5, 0.87, 471.36, -30.6)"/><rect class="cls-10" x="245.25" y="896.65" width="48.56" height="8.62" rx="4.31" transform="translate(488.2 -13.68) rotate(30.1)"/><rect class="cls-10" x="222.19" y="936.43" width="48.56" height="8.62" rx="4.31" transform="translate(505.04 3.25) rotate(30.1)"/><rect class="cls-11" x="1764.63" y="456.57" width="13.73" height="17.94" transform="translate(1334.55 -1313.22) rotate(61.47)"/><path class="cls-2" d="M1783.22,448.85h7.06a3.33,3.33,0,0,1,3.33,3.33v13.46a0,0,0,0,1,0,0h-13.73a0,0,0,0,1,0,0V452.18a3.33,3.33,0,0,1,3.33-3.33Z" transform="translate(1335.24 -1330.96) rotate(61.47)"/><rect class="cls-12" x="1688.07" y="428.67" width="12.66" height="157.54" transform="translate(1331.09 -1223.6) rotate(61.47)"/><polygon class="cls-2" points="1613.51 554.65 1606.45 556.6 1605.31 554.5 1610.78 549.63 1613.51 554.65"/><polygon class="cls-12" points="1628.21 550.61 1613.52 554.66 1610.78 549.62 1622.17 539.5 1628.21 550.61"/><line class="cls-13" x1="1772.94" y1="456.94" x2="1779.5" y2="469"/><line class="cls-13" x1="1776.09" y1="455.22" x2="1782.65" y2="467.28"/><line class="cls-13" x1="1766.64" y1="460.36" x2="1773.19" y2="472.42"/><line class="cls-13" x1="1769.79" y1="458.65" x2="1776.34" y2="470.71"/><line class="cls-13" x1="1763.48" y1="462.08" x2="1770.04" y2="474.14"/><line class="cls-14" x1="1613.52" y1="554.67" x2="1613.51" y2="554.65"/><line class="cls-14" x1="1610.78" y1="549.63" x2="1610.78" y2="549.62"/><line class="cls-15" x1="1764.97" y1="472.33" x2="1626.55" y2="547.56"/><line class="cls-16" x1="1762.79" y1="468.32" x2="1624.37" y2="543.55"/><rect class="cls-12" x="1581.87" y="450.18" width="12.66" height="114.69" transform="translate(1627.35 -1159.33) rotate(73.62)"/><rect class="cls-12" x="1654.9" y="475.73" width="12.66" height="20.65" transform="translate(1659.21 -1244.82) rotate(73.62)"/><path class="cls-2" d="M1674.2,475.86H1679a2.26,2.26,0,0,1,2.26,2.26v9.11a0,0,0,0,1,0,0h-9.29a0,0,0,0,1,0,0v-9.11A2.26,2.26,0,0,1,1674.2,475.86Z" transform="translate(1665.9 -1262.8) rotate(73.62)"/><rect class="cls-2" x="1643.04" y="485.94" width="8.45" height="8.45" transform="translate(1653.12 -1228.48) rotate(73.62)"/><rect class="cls-12" x="1634.14" y="451.57" width="4.23" height="58.63" transform="translate(1636.31 -1224.57) rotate(73.62)"/><path class="cls-12" d="M1611,490.52h0a2.3,2.3,0,0,0,3.92.88l2.47-2.76Z"/><rect class="cls-12" x="1660.55" y="475.51" width="3.56" height="3.56" transform="translate(1651.57 -1252.17) rotate(73.62)"/><rect class="cls-12" x="1471.17" y="533.32" width="12.66" height="13.46" transform="translate(1579.08 -1029.78) rotate(73.62)"/><rect class="cls-2" x="1501.35" y="505.27" width="14.43" height="51.3" transform="matrix(0.28, 0.96, -0.96, 0.28, 1592.63, -1066.14)"/><polygon class="cls-2" points="1450.29 549.3 1449.62 546.99 1469.26 535.87 1472.83 548.02 1450.29 549.3"/><path class="cls-6" d="M1677.39,788.94a13.42,13.42,0,0,1-15.5-2.07,13.09,13.09,0,0,1-2.65-3.47l-12.88-24.16a69.2,69.2,0,0,0,23.92-12.18l12.64,23.74A13.43,13.43,0,0,1,1677.39,788.94Z"/><path class="cls-17" d="M1503.91,612.28c-14.41,25.19-8.28,54.12,16.07,70.89,1.44,1,.68,2.15,1.52,2.7,2,1.33,4.64,1,6.78,2,24.53,11.3,51.78,3.53,67.12-19.7a55.63,55.63,0,0,0-15.78-77.07c-7.25-4.78-15.1-7.73-22.78-7.61-.9,0-.68,1.26-1.57,1.4a18.66,18.66,0,0,1-3.54.53c-1-.05-1.62-.6-2.61-.48-2.36.3-4.85,1.38-7,1.7-.88.14-1.4-.92-2.14-1-1.16-.2-2.25.59-1.55,1.82h0c.68,1.18,1.62.18,2.24,0,2.25-.59,5.58-.22,7.92-.23.92,0,1.24.93,2.17,1a54.09,54.09,0,0,1,25.25,8.4,49,49,0,0,1,13.92,67.93c-7.89,12-17.49,16.58-30.6,18.66-1.88.3-5.77-1.74-7.55-1.09-3.45,1.26-2.58,2.87-4.63,4.42-2.47,1.87-7.1-1.62-9.79.16-1.79,1.17-3.28-2.72-4.26-3.34-3.74-2.35-7.12-2.28-11.1-4.9a49,49,0,0,1-13.91-67.93c4-6-1.41-2.86-4-.36C1502.77,611.5,1504.11,611.93,1503.91,612.28Z"/><path class="cls-17" d="M1513.2,599.92c.44.38,1.47.67,1.53,1.28.24,2.48-.47,2.41-1,4.81-.46,1.92,2.85,2.65,4.9,1.76,1.31-.57.79-2.33-.38-4.29-.24-.4-.86-1-1.15-1.43-.61-.87.6-2.15,0-2.95s-1.67.11-2.49-.1-.87-1.25-1.12-1.5C1512.07,596.18,1512.08,599,1513.2,599.92Z"/><path class="cls-17" d="M1526.45,594.86a1.35,1.35,0,0,1,.09-2,15.64,15.64,0,0,1,7.44-3.8c.37-.06.37.45.74.44a7.86,7.86,0,0,0,1.45-.06c.37-.09.6-.36,1-.39,1-.06,2,.18,2.93.14.36,0,.49-.47.77-.58.45-.16,2-.07,1.89.6s-1.79.89-2.35.91a19.87,19.87,0,0,0-12.16,4.79,1.32,1.32,0,0,1-1.81-.09Z"/><path class="cls-18" d="M1678.11,739.9a71.19,71.19,0,0,1-7.83,7.16,69.2,69.2,0,0,1-23.92,12.18,70,70,0,1,1,31.75-19.34Z"/><path class="cls-19" d="M1679.34,764.08c-11.54,5.5-27.47,5.5-27.47,5.5l-3.63-6.82a69.15,69.15,0,0,0,23.91-12.18Z"/><g class="cls-20"><path class="cls-5" d="M1582.08,649.49a61.62,61.62,0,0,1,31.06-18.3,62.4,62.4,0,1,1,3.68,122.17,61.61,61.61,0,0,1-32.1-16.4,69,69,0,0,0,7.14,5.63,65.4,65.4,0,0,0,7.86,4.54,64.19,64.19,0,0,0,8.43,3.33,65.06,65.06,0,0,0,8.81,2A61.37,61.37,0,1,0,1613.33,632a65.8,65.8,0,0,0-8.67,2.57,62.07,62.07,0,0,0-15.78,8.84A68.49,68.49,0,0,0,1582.08,649.49Z"/></g><circle class="cls-21" cx="1627.13" cy="691.91" r="38.76"/><path class="cls-5" d="M1595.33,725.69a49.7,49.7,0,0,1-8.64-10.57,50.4,50.4,0,0,1-5.18-12.7,46.82,46.82,0,0,1,1.61-27.21,49.31,49.31,0,0,1,6.68-12.1,51.59,51.59,0,0,1,10-9.63,50.44,50.44,0,0,1,12.32-6.34,46.32,46.32,0,0,1,27.41-.83,50.75,50.75,0,0,1,12.68,5.59,52.3,52.3,0,0,1,10.51,9,49.49,49.49,0,0,1,7.39,11.68,46.84,46.84,0,0,1,3.25,27.07,46.29,46.29,0,0,1-12.39,24.06,55.42,55.42,0,0,0,4.15-5.41l.94-1.42.47-.7.41-.76,1.59-3a49.28,49.28,0,0,0,4-12.91,51.13,51.13,0,0,0,.14-13.48,49.85,49.85,0,0,0-3.77-12.89,51.18,51.18,0,0,0-7.31-11.24,50.34,50.34,0,0,0-10.21-8.66,49.16,49.16,0,0,0-12.27-5.32,46.49,46.49,0,0,0-26.44.8,49.23,49.23,0,0,0-11.93,6A50.51,50.51,0,0,0,1591,664a51.29,51.29,0,0,0-6.62,11.66,49.84,49.84,0,0,0-3,13.1,51,51,0,0,0,.94,13.44,50.15,50.15,0,0,0,4.75,12.66l1.78,2.9.44.72.52.68,1,1.35A50.75,50.75,0,0,0,1595.33,725.69Z"/><path class="cls-5" d="M1622.79,719.79a28,28,0,0,1-17.62-9.47,28.7,28.7,0,0,1,.51-38,29.25,29.25,0,0,1,18.2-9.36,28.84,28.84,0,0,1,19.82,5.1,29.63,29.63,0,0,1,7.32,7.37,27.4,27.4,0,0,1,4.17,9.48,29,29,0,0,1-2.56,20.09,28,28,0,0,1-15.08,13.14,28.22,28.22,0,0,0,14.26-13.56,27.79,27.79,0,0,0-2.14-28.22,28.26,28.26,0,0,0-7-6.88,27.06,27.06,0,0,0-18.62-4.64,27.64,27.64,0,0,0-18.21,44.9A28.19,28.19,0,0,0,1622.79,719.79Z"/><path class="cls-5" d="M1638.74,679.58a17.86,17.86,0,0,1,3.19,3.84,18.29,18.29,0,0,1,1.93,4.63,18.92,18.92,0,0,1,.47,5,18.71,18.71,0,0,1-1,5,17.9,17.9,0,0,1-2.44,4.46,18.94,18.94,0,0,1-3.66,3.55,18.71,18.71,0,0,1-4.53,2.34,16.92,16.92,0,0,1-10.09.3,18.56,18.56,0,0,1-4.67-2.06,19.1,19.1,0,0,1-3.86-3.32,17.83,17.83,0,0,1-2.71-4.3,16.91,16.91,0,0,1,.5-14.69,18,18,0,0,1,3-4,17,17,0,0,0-2.78,18.41,19.21,19.21,0,0,0,2.66,4.06,16.53,16.53,0,0,0,8.14,5.05,18.59,18.59,0,0,0,4.81.54,16.47,16.47,0,0,0,9.08-3,18.27,18.27,0,0,0,3.51-3.35,19.3,19.3,0,0,0,2.41-4.21A17,17,0,0,0,1638.74,679.58Z"/><circle class="cls-5" cx="1627.13" cy="691.91" r="4.12"/><circle class="cls-22" cx="1627.13" cy="691.91" r="9.77"/><circle class="cls-22" cx="1627.13" cy="691.91" r="6.25"/><path class="cls-5" d="M1617.48,702.16a14.08,14.08,0,0,1-4.29-7,14.33,14.33,0,0,1,.44-8.33,14.71,14.71,0,0,1,2-3.73,16.08,16.08,0,0,1,3-3,15.49,15.49,0,0,1,3.79-2,14,14,0,0,1,8.43-.26,15.84,15.84,0,0,1,3.9,1.73,16.1,16.1,0,0,1,3.22,2.78,14.74,14.74,0,0,1,2.25,3.59,14.32,14.32,0,0,1,.94,8.3,14.91,14.91,0,0,1-1.39,3.94,14.75,14.75,0,0,1-2.47,3.34,14.17,14.17,0,0,0,2.26-15.28,15.93,15.93,0,0,0-2.21-3.35,15.45,15.45,0,0,0-3.06-2.59,14.82,14.82,0,0,0-3.68-1.58,14,14,0,0,0-7.9.24,14.42,14.42,0,0,0-3.57,1.8,15.22,15.22,0,0,0-2.91,2.76,16.46,16.46,0,0,0-2,3.48A14.18,14.18,0,0,0,1617.48,702.16Z"/></g><g id="Stop_watch" data-name="Stop watch"><circle class="cls-12" cx="1491.12" cy="203.64" r="167.12"/><circle class="cls-23" cx="1488.72" cy="55.06" r="24.12"/><circle class="cls-2" cx="1488.72" cy="203.64" r="114.17"/><circle class="cls-6" cx="1488.72" cy="203.64" r="97.93"/><rect class="cls-24" x="1483.5" y="68.78" width="10.45" height="20.8"/><rect class="cls-24" x="1474.93" y="56.01" width="27.58" height="12.77"/><rect class="cls-24" x="1567.83" y="114.11" width="10.45" height="10.4" transform="translate(545.1 -1077.37) rotate(45)"/><rect class="cls-24" x="1567.45" y="104.74" width="27.58" height="12.77" transform="translate(541.71 -1085.56) rotate(45)"/><line class="cls-25" x1="1488.72" y1="105.7" x2="1488.72" y2="129.07"/><line class="cls-25" x1="1488.72" y1="278.21" x2="1488.72" y2="301.57"/><line class="cls-25" x1="1586.66" y1="203.64" x2="1563.29" y2="203.64"/><line class="cls-25" x1="1414.16" y1="203.64" x2="1390.79" y2="203.64"/><line class="cls-25" x1="1439.76" y1="118.83" x2="1446.44" y2="130.4"/><line class="cls-25" x1="1531.01" y1="276.88" x2="1537.69" y2="288.45"/><line class="cls-25" x1="1573.54" y1="154.67" x2="1561.96" y2="161.36"/><line class="cls-25" x1="1415.49" y1="245.92" x2="1403.91" y2="252.61"/><line class="cls-25" x1="1403.91" y1="154.67" x2="1415.49" y2="161.36"/><line class="cls-25" x1="1561.96" y1="245.92" x2="1573.54" y2="252.61"/><line class="cls-25" x1="1537.69" y1="118.83" x2="1531.01" y2="130.4"/><line class="cls-25" x1="1446.44" y1="276.88" x2="1439.76" y2="288.45"/><circle class="cls-26" cx="1488.72" cy="203.64" r="16.44"/><path class="cls-26" d="M1488.55,122.07h.35a2.22,2.22,0,0,1,2.22,2.22v79.35a0,0,0,0,1,0,0h-4.79a0,0,0,0,1,0,0V124.29A2.22,2.22,0,0,1,1488.55,122.07Z"/></g><g id="Hand_and_clipboard" data-name="Hand and clipboard"><rect class="cls-3" x="1028.33" y="353.69" width="341.03" height="439.5" rx="21.02"/><rect class="cls-6" x="1043.55" y="382.67" width="310.59" height="385.31"/><path class="cls-12" d="M1226.85,346a28,28,0,0,0-56,0H1121.2v37.84a17.11,17.11,0,0,0,17.1,17.1h125.28a17.11,17.11,0,0,0,17.1-17.1V346Zm-28,14.49A14.49,14.49,0,1,1,1213.33,346,14.49,14.49,0,0,1,1198.84,360.44Z"/><line class="cls-7" x1="1111.87" y1="441.09" x2="1323.23" y2="441.09"/><rect class="cls-27" x="1068.22" y="431.1" width="26.49" height="26.49"/><path class="cls-26" d="M1073.64,441.29a10.29,10.29,0,0,1,3.06,1.74c.88.72,1.77,1.43,2.63,2.17,1.73,1.47,3.42,3,5,4.6l-2.57.67a18,18,0,0,1,1.52-3.24,23.8,23.8,0,0,1,1.93-2.82,33.9,33.9,0,0,1,4.65-4.85,43.11,43.11,0,0,1,5.37-3.89c.92-.6,1.91-1.08,2.86-1.61s2-.93,3-1.4c-.91.61-1.82,1.19-2.71,1.81s-1.76,1.26-2.58,2a43.2,43.2,0,0,0-4.67,4.39,38,38,0,0,0-3.78,5.05,27.83,27.83,0,0,0-1.5,2.72,20.46,20.46,0,0,0-1.09,2.71,1.14,1.14,0,1,1-1.58,1.63l-1-1c-1.62-1.57-3.13-3.26-4.6-5-.74-.86-1.45-1.76-2.17-2.64A10.33,10.33,0,0,1,1073.64,441.29Z"/><rect class="cls-27" x="1068.22" y="501.34" width="26.49" height="26.49"/><rect class="cls-27" x="1068.22" y="545.94" width="26.49" height="26.49"/><rect class="cls-27" x="1068.22" y="607.64" width="26.49" height="26.49"/><rect class="cls-27" x="1068.22" y="712.09" width="26.49" height="26.49"/><line class="cls-7" x1="1111.87" y1="511.34" x2="1329.47" y2="511.34"/><line class="cls-7" x1="1111.87" y1="555.93" x2="1300.42" y2="555.93"/><line class="cls-7" x1="1111.87" y1="528.44" x2="1202.43" y2="528.44"/><line class="cls-7" x1="1111.87" y1="573.04" x2="1202.43" y2="573.04"/><line class="cls-7" x1="1111.87" y1="458.19" x2="1329.47" y2="458.19"/><line class="cls-7" x1="1111.87" y1="475.29" x2="1329.47" y2="475.29"/><line class="cls-7" x1="1111.87" y1="492.4" x2="1283.39" y2="492.4"/><line class="cls-7" x1="1111.87" y1="617.63" x2="1329.47" y2="617.63"/><line class="cls-7" x1="1111.87" y1="722.08" x2="1329.47" y2="722.08"/><line class="cls-7" x1="1111.87" y1="634.73" x2="1329.47" y2="634.73"/><line class="cls-7" x1="1111.87" y1="651.83" x2="1329.47" y2="651.83"/><line class="cls-7" x1="1111.87" y1="668.94" x2="1329.47" y2="668.94"/><line class="cls-7" x1="1111.87" y1="686.04" x2="1329.47" y2="686.04"/><line class="cls-7" x1="1111.87" y1="703.14" x2="1269.61" y2="703.14"/><path class="cls-28" d="M1142.93,444h29.15a0,0,0,0,1,0,0V480.9a25.89,25.89,0,0,1-25.89,25.89h-3.25a0,0,0,0,1,0,0V444A0,0,0,0,1,1142.93,444Z" transform="translate(638.54 -663.22) rotate(43.17)"/><circle class="cls-28" cx="1178.96" cy="452.54" r="14.57"/><line class="cls-28" x1="1188.93" y1="441.91" x2="1266.29" y2="467.03"/><line class="cls-28" x1="1168.99" y1="463.17" x2="1234.7" y2="516"/><path class="cls-28" d="M1266.29,467l-31.59,49-54.32-43.68-9.65-7.74-1.73-1.41a14.58,14.58,0,0,1,14.45-24.5l.44.15Z"/><path class="cls-17" d="M1154.09,422.66h29.15a0,0,0,0,1,0,0v36.85a25.89,25.89,0,0,1-25.89,25.89h-3.25a0,0,0,0,1,0,0V422.66A0,0,0,0,1,1154.09,422.66Z" transform="translate(870.26 -763.7) rotate(55)"/><circle class="cls-17" cx="1194.36" cy="436.04" r="14.57"/><line class="cls-17" x1="1206.29" y1="427.68" x2="1276.86" y2="468.13"/><line class="cls-17" x1="1182.42" y1="444.4" x2="1235.9" y2="509.58"/><path class="cls-17" d="M1276.86,468.13l-41,41.45-44.22-53.89-7.85-9.56-1.41-1.73a14.58,14.58,0,0,1,19.17-21l.4.24Z"/><path class="cls-12" d="M1226.38,628.18l-25.88-10.27L1143,550.55l50-21.42,83.43-62h0A33.21,33.21,0,0,1,1291.51,495V598.28Z"/><polygon class="cls-6" points="1320.81 608.09 1305.48 582.86 1214.24 629.33 1230.27 662.19 1320.81 608.09"/><polygon class="cls-29" points="1372.54 962.32 1214.24 642 1320.96 588.9 1582.94 962.32 1372.54 962.32"/><path class="cls-12" d="M1157,405.41h29.15a0,0,0,0,1,0,0v36.85a25.89,25.89,0,0,1-25.89,25.89H1157a0,0,0,0,1,0,0V405.41A0,0,0,0,1,1157,405.41Z" transform="translate(1044.46 -807.06) rotate(63.72)"/><circle class="cls-12" cx="1199.66" cy="422.89" r="14.57"/><line class="cls-12" x1="1212.73" y1="416.44" x2="1276.35" y2="467.12"/><line class="cls-12" x1="1186.6" y1="429.34" x2="1229.58" y2="501.88"/><path class="cls-12" d="M1276.35,467.12l-46.77,34.76-35.54-60-6.31-10.64-1.13-1.93a14.58,14.58,0,0,1,22.14-17.87l.35.3Z"/><path class="cls-12" d="M1171.54,510.34s28.14,13.77,58-8.46h27.54s7,37.22,0,37.22h-85.58Z"/><path class="cls-29" d="M1102.74,432l15.31,1.64,183.7,98c1.86,6.36-.67,10.52-6.6,11.72l-183.4-99.74Z"/><path class="cls-12" d="M1118.36,443.41h3.25a25.89,25.89,0,0,1,25.89,25.89v26.15a0,0,0,0,1,0,0h-29.15a0,0,0,0,1,0,0v-52A0,0,0,0,1,1118.36,443.41Z"/><circle class="cls-12" cx="1132.94" cy="495.45" r="14.57"/><path class="cls-12" d="M1192.92,529.12l-50,21.43-22.56-47.68a14.58,14.58,0,0,1,24.18-16.2l0,0,0,0,2.88,2.53Z"/><path class="cls-30" d="M929.69,582.1a24.65,24.65,0,0,1-14.28,6.67l-13.82,8.79L871.11,634.9l-28.35-7.08,29-45.72,30-9.9,29.9-9.87S940.46,571.61,929.69,582.1Z"/><path class="cls-12" d="M943.39,613.26l-17.55,7.52-19.39,29.73L853.22,634.9c17.6-2.38,25.49-9.62,27.19-11.4l0,0,21.16-25.93L960.2,586.9S970.52,609.51,943.39,613.26Z"/><path class="cls-31" d="M901.77,572.2,878,580a18.49,18.49,0,0,0-9.83,7.67l-25.45,40.12-23.94,6.1,15.46-36.21.36-.83a15.57,15.57,0,0,1,5-6.39l29.23-21.86,30.73-12.55S908.06,558.61,901.77,572.2Z"/><path class="cls-32" d="M834.28,597.71l-15.46,36.21-25.24,20L807.4,619.5a12.47,12.47,0,0,1,4.27-5.46Z"/><path class="cls-12" d="M961.78,692.27l-29.65,49.92c-6.73,10.37-14.61,14-25.54,18.82l-35.81,21.43-90.5-22.6-1.09-34a123.33,123.33,0,0,1,4.65-37.73l9.74-34.24,25.24-20,23.94-6.1,28.35,7.08,35.35,15.61s-3.57,40.18,9.53,42.77c2.54.73,18.1-19.07,18.1-19.07-7.39-43.14,19-34.38,19-34.38l9.76,38.43A23.47,23.47,0,0,1,961.78,692.27Z"/><polygon class="cls-12" points="780.28 759.84 720.14 898.01 845.61 890.23 881.47 777.03 841.04 756.41 780.28 759.84"/><path class="cls-6" d="M881.47,804.16S876.1,753.27,827.74,745c-54-9.27-56.29,25.72-56.29,25.72L726,859.88l135.68,5Z"/><path class="cls-29" d="M881.47,825.36s-2.44-61.27-56.84-70-64,22.31-64,22.31L676,974.86l175,10.74Z"/></g><g id="In_and_out_trays" data-name="In and out trays"><rect class="cls-31" x="189.56" width="383.49" height="500.4"/><rect class="cls-33" x="200.56" y="10.19" width="361.49" height="356.02"/><rect class="cls-3" x="200.56" y="72.19" width="361.49" height="356.02"/><rect class="cls-6" x="340.95" y="447.95" width="91.72" height="32.71"/><text class="cls-34" transform="translate(375.6 472.7)">IN</text><rect class="cls-6" x="238.82" y="48.09" width="296.01" height="388.94"/><rect class="cls-5" x="233.3" y="42.19" width="296.01" height="388.94"/><rect class="cls-35" x="233.61" y="45.97" width="286.93" height="377" transform="translate(-6.72 11.17) rotate(-1.68)"/><rect class="cls-6" x="229.13" y="42.19" width="296.01" height="388.94" transform="translate(24.75 -35.48) rotate(5.57)"/><line class="cls-7" x1="305.65" y1="85.31" x2="516.02" y2="105.7"/><rect class="cls-27" x="261.83" y="72.37" width="26.49" height="26.49" transform="translate(9.54 -26.14) rotate(5.54)"/><rect class="cls-27" x="244.8" y="248.09" width="26.49" height="26.49" transform="matrix(1, 0.1, -0.1, 1, 26.42, -23.68)"/><rect class="cls-27" x="253.31" y="160.23" width="26.49" height="26.49" transform="translate(17.98 -24.91) rotate(5.54)"/><rect class="cls-27" x="234.72" y="352.05" width="26.49" height="26.49" transform="matrix(1, 0.1, -0.1, 1, 36.4, -22.22)"/><line class="cls-7" x1="297.22" y1="172.25" x2="513.8" y2="193.25"/><line class="cls-7" x1="295.57" y1="189.28" x2="512.15" y2="210.27"/><line class="cls-7" x1="293.92" y1="206.3" x2="384.06" y2="215.04"/><line class="cls-7" x1="304" y1="102.33" x2="520.58" y2="123.32"/><line class="cls-7" x1="302.35" y1="119.35" x2="518.93" y2="140.35"/><line class="cls-7" x1="300.7" y1="136.38" x2="471.41" y2="152.92"/><line class="cls-7" x1="288.62" y1="261.03" x2="505.2" y2="282.02"/><line class="cls-7" x1="278.54" y1="364.99" x2="495.12" y2="385.99"/><line class="cls-7" x1="286.97" y1="278.05" x2="503.55" y2="299.04"/><line class="cls-7" x1="285.32" y1="295.07" x2="501.9" y2="316.06"/><line class="cls-7" x1="283.67" y1="312.1" x2="440.67" y2="327.31"/><rect class="cls-31" x="584.12" width="383.49" height="500.4"/><rect class="cls-33" x="595.12" y="10.19" width="361.49" height="356.02"/><rect class="cls-3" x="595.12" y="72.19" width="361.49" height="356.02"/><rect class="cls-6" x="735.51" y="447.95" width="91.72" height="32.71"/><text class="cls-34" transform="translate(760.49 472.7)">OUT</text></g></g></svg>