<svg xmlns="http://www.w3.org/2000/svg" viewBox="0 0 486.09 771.15"><defs><style>.cls-1{fill:#002147;stroke:#002147;stroke-width:0.66px;}.cls-1,.cls-10,.cls-11,.cls-13,.cls-15,.cls-20,.cls-22,.cls-29,.cls-30,.cls-31,.cls-32,.cls-33,.cls-38,.cls-5{stroke-miterlimit:10;}.cls-2{fill:#bababa;}.cls-3{fill:#919191;}.cls-4{fill:#a44625;}.cls-13,.cls-19,.cls-5{fill:#fff;}.cls-13,.cls-5{stroke:#ffb414;}.cls-5{stroke-width:0.47px;}.cls-6{fill:#dfdedd;}.cls-7{fill:#00698a;}.cls-8{fill:#1c395b;}.cls-9{fill:#a31f34;}.cls-10,.cls-11,.cls-20,.cls-22,.cls-29,.cls-30,.cls-31,.cls-32,.cls-33,.cls-38{fill:none;}.cls-10,.cls-38{stroke:#8e9dad;}.cls-10{stroke-width:0.88px;}.cls-11{stroke:#aab5c2;}.cls-12{fill:#52101a;}.cls-13{stroke-width:0.46px;}.cls-14{fill:#e9e3da;}.cls-15{fill:#ffb414;stroke:#6d3363;}.cls-16{fill:#c9c8c7;}.cls-17{fill:#99a6b5;}.cls-18{fill:#706f6f;}.cls-20,.cls-22{stroke:#c6cdd6;}.cls-20{stroke-width:0.83px;}.cls-21{fill:#e3e7eb;}.cls-23{fill:#041d40;}.cls-24{fill:#a7a7a6;}.cls-25{fill:#8a8b8c;}.cls-26{fill:#545759;}.cls-27{fill:#999;}.cls-28{fill:#333d47;}.cls-29,.cls-30,.cls-32{stroke:#333d47;}.cls-29,.cls-30,.cls-31,.cls-32,.cls-33{stroke-linecap:round;}.cls-29{stroke-width:1.89px;}.cls-30{stroke-width:1.89px;}.cls-31{stroke:#545759;}.cls-31,.cls-32{stroke-width:2.31px;}.cls-33{stroke:gray;stroke-width:2.08px;}.cls-34{fill:#292b30;}.cls-35{fill:#2d3137;}.cls-36{fill:#6aa2b8;opacity:0.38;}.cls-37{fill:#c6cdd6;}</style></defs><g id="Layer_2" data-name="Layer 2"><g id="Layer_1-2" data-name="Layer 1"><polygon class="cls-1" points="285.02 505.8 230.06 505.8 230.06 504.01 271.75 501.33 281.45 489.73 285.02 505.8"/></g><g id="Layer_43" data-name="Layer 43"><rect class="cls-2" x="155.04" y="150.62" width="182.56" height="54.46" rx="12"/><rect class="cls-3" x="162.88" y="204.27" width="168.42" height="155.13" rx="12"/><polygon class="cls-4" points="263.04 710.08 255.88 770.8 301.29 770.8 280.81 752.88 278.59 710.08 263.04 710.08"/><polygon class="cls-5" points="262.43 564.97 294.81 564.97 319.65 383.62 255.28 375.63 262.43 564.97"/><path class="cls-5" d="M260.1,730.59l19.64-.32,15.12-169.34-32.06.51A239.25,239.25,0,0,0,256,617.53C256,645.77,261.09,675.5,260.1,730.59Z"/><circle class="cls-5" cx="279.05" cy="563.9" r="16.15"/><circle class="cls-4" cx="269.95" cy="729.1" r="9.81"/><path class="cls-6" d="M256.41,730.88l28-.17,37.94-319.06a94.49,94.49,0,0,0,.27-20.86c-4.24-41.53-23.82-85.89-23.82-85.89l-50.88,13L221.8,384.22l31.11,52.22Z"/><polygon class="cls-1" points="255.28 770.8 310.24 770.8 310.24 769.01 268.55 766.33 258.85 754.73 255.28 770.8"/><polygon class="cls-7" points="262.79 684.88 255.8 765.59 322.18 765.59 322.18 761.38 290.39 741.78 286.93 684.88 262.79 684.88"/><path class="cls-7" d="M296.57,678.25l-1.44,37.47-3.85,8.8,8.83,12.17-2,9.84c-1.51-.53-7.67-5.34-9.19-5.13a135.67,135.67,0,0,1-18.16,1c-4.8-.07-10.73,3.35-13.5,6.46,0,0-2.35-6.74-3.69-8.66-.56-20.4-1.13-41.08-1.7-61.93"/><rect class="cls-8" x="255.8" y="765.59" width="66.38" height="5.56" transform="translate(577.99 1536.74) rotate(-180)"/><rect class="cls-9" x="255.8" y="763.23" width="66.38" height="2.36" transform="translate(577.99 1528.83) rotate(-180)"/><path class="cls-10" d="M257.25,748.85s25.18-2,25.18,14.38"/><line class="cls-10" x1="303.4" y1="749.79" x2="299.01" y2="763.23"/><path class="cls-6" d="M296.57,678.25s13.29-4.16,10.64-54.38,3-113.74,3-113.74l-54.44,7.76-3.94,160.37"/><line class="cls-10" x1="252.33" y1="693.81" x2="296.01" y2="693.81"/><line class="cls-10" x1="252.33" y1="699.89" x2="296.01" y2="699.89"/><line class="cls-11" x1="253.22" y1="475.83" x2="308.73" y2="524.93"/><path class="cls-11" d="M315.43,353.41s-27.89,39.5,2.62,94.13"/><ellipse class="cls-11" cx="284.33" cy="577.19" rx="17.15" ry="25.29"/><path class="cls-11" d="M267.89,584.4s29.87-29.16,32.58,1.35"/><path class="cls-12" d="M290.64,153.75c0-6.62-20.47-12-45.71-12s-45.71,5.37-45.71,12l1,8.43,27.65,12.94,40.58-3.2,16.15-4.57,4.89-5.17Z"/><polygon class="cls-4" points="233.87 710.08 241.02 770.8 195.62 770.8 216.09 752.88 218.32 710.08 233.87 710.08"/><polygon class="cls-5" points="234.75 564.97 202.36 564.97 177.52 383.62 241.89 375.63 234.75 564.97"/><circle class="cls-5" cx="209.7" cy="378.58" r="32.38"/><path class="cls-5" d="M236.94,730.59l-19.64-.32L202.19,560.93l32.05.51A238.82,238.82,0,0,1,241,617.53C241,645.77,236,675.5,236.94,730.59Z"/><circle class="cls-5" cx="218.55" cy="563.9" r="16.15"/><circle class="cls-4" cx="226.88" cy="729.1" r="9.81"/><path class="cls-6" d="M241.78,730.88l-28-.17-39-327.85c1-44.49,24.6-98,24.6-98l50.88,13,26.08,48.5-31.11,52.22Z"/><path class="cls-13" d="M295.3,302.94H197.59c1.23-27.55-20.78-95.13-27.7-120.76l62.87-22.33h23.48l63.27,22.33C307.94,211.8,293.45,287.24,295.3,302.94Z"/><circle class="cls-5" cx="176.74" cy="198.32" r="17.64"/><circle class="cls-14" cx="242.5" cy="303.97" r="12.2"/><line class="cls-15" x1="237.13" y1="302.17" x2="237.02" y2="316.51"/><path class="cls-16" d="M320,181.89l-63.27-23H233.26l-62.87,23c6.93,26.44,29.67,119,12.34,151.49-7.65,14.33,32.76,26.49,64.36,25,38.79-1.13,68.48-14.59,63.93-27.7C297.25,291,314.23,197.17,320,181.89Z"/><path class="cls-17" d="M253.57,177.62l-7.26-7.82-3.11.56L236.89,178S246.23,180.18,253.57,177.62Z"/><path class="cls-11" d="M252.91,436.44s7.84-95.75,51.11-99"/><path class="cls-11" d="M244.93,424.71s-7.09-76-42.74-87.3"/><polygon class="cls-9" points="177.01 343.18 314.27 343.18 309.05 317.89 177.01 317.89 177.01 343.18"/><rect class="cls-18" x="195.55" y="157.91" width="1.73" height="10.93" transform="translate(392.83 326.75) rotate(-180)"/><path class="cls-19" d="M290.64,153.75c0,6.62-20.47,12-45.71,12s-45.71-5.37-45.71-12V169c0,6.63,20.47,12,45.71,12s45.71-5.37,45.71-12Z"/><path class="cls-20" d="M199.22,160.16c0,6.62,20.47,12,45.71,12s45.71-5.37,45.71-12"/><path class="cls-20" d="M199.22,164.65c0,6.62,20.47,12,45.71,12s45.71-5.37,45.71-12"/><rect class="cls-9" x="196.61" y="156.92" width="3.46" height="12.92" transform="translate(396.69 326.75) rotate(-180)"/><rect class="cls-18" x="292.58" y="157.91" width="1.73" height="10.93"/><rect class="cls-9" x="289.79" y="156.92" width="3.46" height="12.92"/><rect class="cls-21" x="211.11" y="212.09" width="67.94" height="67.94" rx="1.7" transform="translate(490.16 492.13) rotate(-180)"/><path class="cls-18" d="M235.94,224.64h37.82a5.59,5.59,0,0,1,5.59,5.59v10.24a5.59,5.59,0,0,1-5.59,5.59H235.94a0,0,0,0,1,0,0V224.64A0,0,0,0,1,235.94,224.64Z" transform="translate(515.3 470.7) rotate(-180)"/><circle class="cls-9" cx="245.38" cy="235.35" r="6.65"/><rect class="cls-11" x="213.96" y="258.4" width="22.46" height="5.11" transform="translate(450.38 521.91) rotate(-180)"/><rect class="cls-11" x="213.96" y="268.62" width="22.46" height="5.11" transform="translate(450.38 542.36) rotate(-180)"/><circle class="cls-22" cx="272.81" cy="254.22" r="3.41"/><circle class="cls-22" cx="261.51" cy="254.22" r="3.41"/><circle class="cls-22" cx="249.81" cy="254.22" r="3.41"/><path class="cls-7" d="M247.84,678.26c-.57,20.85-1.14,41.53-1.7,61.93-1.34,1.92-3.69,8.66-3.69,8.66-2.77-3.11-8.7-6.53-13.5-6.46a135.67,135.67,0,0,1-18.16-1c-1.52-.21-7.68,4.6-9.19,5.13l-2-9.84,8.83-12.17-3.85-8.8-1.44-37.47"/><polygon class="cls-7" points="236.91 684.88 243.9 765.59 177.52 765.59 177.52 761.38 209.31 741.78 212.77 684.88 236.91 684.88"/><rect class="cls-8" x="177.52" y="765.59" width="66.38" height="5.56"/><rect class="cls-9" x="177.52" y="763.23" width="66.38" height="2.36"/><path class="cls-10" d="M242.45,748.85s-25.17-2-25.17,14.38"/><line class="cls-10" x1="196.31" y1="749.79" x2="200.69" y2="763.23"/><path class="cls-6" d="M203.13,678.25s-13.29-4.16-10.64-54.38-4-106-4-106H243.9l3.94,160.37"/><ellipse class="cls-11" cx="215.36" cy="577.19" rx="17.15" ry="25.29"/><line class="cls-10" x1="203.73" y1="693.81" x2="247.41" y2="693.81"/><line class="cls-10" x1="203.73" y1="699.89" x2="247.41" y2="699.89"/><polyline class="cls-11" points="230.3 280.29 230.07 316.51 230.19 302.17"/><polyline class="cls-11" points="261.62 280.29 261.39 316.51 261.51 302.17"/><line class="cls-11" x1="191.98" y1="174.34" x2="226.58" y2="212.09"/><line class="cls-11" x1="299.58" y1="174.34" x2="264.98" y2="212.09"/><line class="cls-11" x1="244.63" y1="475.83" x2="189.56" y2="528.01"/><path class="cls-11" d="M231.8,584.4s-29.88-29.16-32.59,1.35"/><polygon class="cls-16" points="75.5 171.86 60.53 186.38 22.31 164.08 21.79 163.66 21.57 163.44 40.92 144.66 75.5 171.86"/><circle class="cls-23" cx="68.22" cy="179.03" r="10.63"/><rect class="cls-16" x="14.06" y="147.86" width="8.19" height="15.78" transform="translate(152.31 236.94) rotate(127.83)"/><path class="cls-16" d="M0,131.39H0a4,4,0,0,1,4.25.71l1.07.92a19.71,19.71,0,0,1,5,6.58l4.3,9.14L6.87,151.4Z"/><circle class="cls-16" cx="10.82" cy="149.98" r="4.1"/><rect class="cls-16" x="19.94" y="140.58" width="8.19" height="15.78" transform="translate(144.69 238.27) rotate(135.85)"/><path class="cls-16" d="M12.28,120.62h0a3.92,3.92,0,0,1,4,1.86l.81,1.23a21.9,21.9,0,0,1,3.24,8.1l1.94,10.55-8.14.65Z"/><circle class="cls-16" cx="18.13" cy="142.48" r="4.1"/><rect class="cls-16" x="26.22" y="135.16" width="8.19" height="15.78" transform="translate(151.7 224.57) rotate(135.85)"/><path class="cls-16" d="M18.31,118.41h0a4,4,0,0,1,4.06,1.34l.9,1a18.82,18.82,0,0,1,3.79,7.1l2.68,9.44-8.06,1.34Z"/><circle class="cls-16" cx="25.61" cy="137.46" r="4.1"/><rect class="cls-16" x="31.87" y="135.21" width="8.19" height="15.78" transform="translate(134.32 253.08) rotate(152.31)"/><path class="cls-16" d="M29.91,120.87h0a4.33,4.33,0,0,1,3.66,1.86l.64,1A13.08,13.08,0,0,1,36.33,130l.52,7.84-8.15-.61Z"/><circle class="cls-16" cx="32.71" cy="136.98" r="4.1"/><circle class="cls-16" cx="24.54" cy="160.61" r="4.1"/><circle class="cls-16" cx="29.56" cy="154.16" r="4.1"/><circle class="cls-16" cx="39.43" cy="149.8" r="4.1"/><circle class="cls-16" cx="35.8" cy="148.77" r="4.1"/><path class="cls-6" d="M129.9,271.69S95,169.34,71.93,179.92L54.2,189.59s-7.55,15.14,46.67,91.6Z"/><polygon class="cls-24" points="49.26 183.4 76.06 169.74 88.84 185.77 54.72 203.16 49.26 183.4"/><path class="cls-6" d="M188.35,204.83c.14-.24.26-.48.4-.72l.09-.11,0,0A17.84,17.84,0,0,0,158.6,185.1l0,0L107.72,257.5c-7.49,12-9.19,12.88-9.44,17.44h0l-.13.19,21,13.1h0A29.83,29.83,0,0,0,131,279l53.69-70A18,18,0,0,0,188.35,204.83Z"/><circle class="cls-6" cx="114.59" cy="274.6" r="16.44"/><path class="cls-11" d="M94.8,272.51s23.4-13.81,38.5,3.45"/><polygon class="cls-9" points="169.94 220 145.43 201.86 155.74 187.1 181.34 205.79 169.94 220"/><polygon class="cls-16" points="410.59 171.86 425.56 186.38 463.78 164.08 464.3 163.66 464.52 163.44 445.17 144.66 410.59 171.86"/><circle class="cls-23" cx="417.87" cy="179.03" r="10.63"/><rect class="cls-16" x="463.83" y="147.86" width="8.19" height="15.78" transform="translate(303.92 -309.35) rotate(52.17)"/><path class="cls-16" d="M486.09,131.39h0a4,4,0,0,0-4.25.71l-1.07.92a19.71,19.71,0,0,0-5,6.58l-4.3,9.14,7.73,2.66Z"/><circle class="cls-16" cx="475.27" cy="149.98" r="4.1"/><rect class="cls-16" x="457.96" y="140.58" width="8.19" height="15.78" transform="translate(233.92 -279.89) rotate(44.15)"/><path class="cls-16" d="M473.81,120.62h0a3.92,3.92,0,0,0-3.95,1.86l-.82,1.23a22.06,22.06,0,0,0-3.23,8.1l-1.94,10.55L472,143Z"/><circle class="cls-16" cx="467.96" cy="142.48" r="4.1"/><rect class="cls-16" x="451.67" y="135.16" width="8.19" height="15.78" transform="translate(228.36 -277.04) rotate(44.15)"/><path class="cls-16" d="M467.78,118.41h0a4,4,0,0,0-4.07,1.34l-.89,1a18.68,18.68,0,0,0-3.79,7.1l-2.68,9.44,8.06,1.34Z"/><circle class="cls-16" cx="460.48" cy="137.46" r="4.1"/><rect class="cls-16" x="446.02" y="135.21" width="8.19" height="15.78" transform="translate(118.07 -192.8) rotate(27.69)"/><path class="cls-16" d="M456.18,120.87h0a4.33,4.33,0,0,0-3.66,1.86l-.64,1a13.08,13.08,0,0,0-2.12,6.24l-.52,7.84,8.15-.61Z"/><circle class="cls-16" cx="453.38" cy="136.98" r="4.1"/><circle class="cls-16" cx="461.55" cy="160.61" r="4.1"/><circle class="cls-16" cx="456.53" cy="154.16" r="4.1"/><circle class="cls-16" cx="446.66" cy="149.8" r="4.1"/><circle class="cls-16" cx="450.29" cy="148.77" r="4.1"/><path class="cls-6" d="M356.19,271.69s34.89-102.35,58-91.77l17.72,9.67s7.56,15.14-46.66,91.6Z"/><polygon class="cls-24" points="436.82 183.4 410.02 169.74 397.25 185.77 431.37 203.16 436.82 183.4"/><path class="cls-6" d="M297.74,204.83c-.15-.24-.27-.48-.4-.72l-.09-.11,0,0a17.84,17.84,0,0,1,30.22-18.88l0,0,50.83,72.42c7.5,12,9.19,12.88,9.45,17.44h0l.13.19-21,13.1h0A29.83,29.83,0,0,1,355.13,279l-53.69-70A18,18,0,0,1,297.74,204.83Z"/><circle class="cls-6" cx="371.5" cy="274.6" r="16.44"/><path class="cls-11" d="M391.29,272.51s-23.4-13.81-38.5,3.45"/><polygon class="cls-9" points="316.14 220 340.66 201.86 330.35 187.1 304.75 205.79 316.14 220"/><rect class="cls-12" x="198.72" y="317.89" width="11.89" height="25.29"/><rect class="cls-12" x="281.52" y="317.89" width="11.89" height="25.29"/><path class="cls-25" d="M319.29,85c-13.61,42.61-29.84,72.12-73,73.46-30.5.95-73.57-36.87-73.57-78.71S204.49,6.94,246.32,6.94,332,45.12,319.29,85Z"/><path class="cls-26" d="M263,86.72,219.84,89l3.56,70.08c6.69,6,14.28,9.75,22.49,9.37v0H246v0c8-.46,14.9-4.73,20.8-11.09Z"/><path class="cls-6" d="M203.73,141.28l-5.41,2.46c-12.84,1.83-33-8.72-34.87-21.56L159.5,50.13a8.9,8.9,0,0,1,7.54-10L181.6,38c4.83-.69,4.08,10.13,4.77,15l-3.3,51.41C183.76,109.23,208.56,140.59,203.73,141.28Z"/><path class="cls-6" d="M293.92,140.76l5.41,2.46c12.84,1.83,33-8.73,34.86-21.57l3.95-72.05a8.89,8.89,0,0,0-7.53-10l-14.56-2.08c-4.83-.69-4.09,10.14-4.78,15l3.3,51.42C313.88,108.71,289.09,140.07,293.92,140.76Z"/><path class="cls-25" d="M228.16,162.1c0-14.06,1-9.64,1-23.71H261l1,23.71"/><path class="cls-25" d="M228.16,161.55c1.42-9.24,7.58-16.94,16.94-16.94A17.08,17.08,0,0,1,262,161.55c.33,15.18-8.26,13.46-17.62,13.46S225.73,177.23,228.16,161.55Z"/><circle class="cls-25" cx="245.1" cy="138.39" r="15.98"/><rect class="cls-25" x="200.27" y="94.92" width="89.78" height="18.52" rx="9.12"/><path class="cls-27" d="M245.89,55.57c-20.69,0-38.17,5-38.17,28.93v28c0,20.38,24.5,39.36,37.92,39.36s37.92-19,37.92-39.36v-28C282,59.36,266.59,55.57,245.89,55.57Z"/><path class="cls-28" d="M255.73,89.94c-2.07.14-2.93-1.62-1.1-2.26.62-.21,1.29-.43,2-.63a32.38,32.38,0,0,1,9.23-1.24,28.36,28.36,0,0,1,5.2.72,13.87,13.87,0,0,1,5.82,3.54s-5.26-2-8.91-1.91C263.15,88.27,260.5,89.62,255.73,89.94Z"/><path class="cls-28" d="M235.55,89.94c2.08.14,2.93-1.62,1.1-2.26-.62-.21-1.29-.43-2-.63a32.46,32.46,0,0,0-9.24-1.24,28.47,28.47,0,0,0-5.2.72,13.87,13.87,0,0,0-5.82,3.54s5.26-2,8.91-1.91C228.14,88.27,230.79,89.62,235.55,89.94Z"/><ellipse class="cls-16" cx="227.06" cy="99.35" rx="5.27" ry="3.53"/><circle class="cls-28" cx="227.06" cy="99.79" r="2.71"/><path class="cls-29" d="M219.4,97.8s7.66-4.46,14.63,0"/><ellipse class="cls-16" cx="264.69" cy="99.35" rx="5.27" ry="3.53"/><circle class="cls-28" cx="264.69" cy="99.79" r="2.71"/><path class="cls-30" d="M272.35,97.8s-7.66-4.46-14.63,0"/><path class="cls-31" d="M235.1,116.26c.18,1.23,3.77,1.57,3.77,1.57s3.34-.35,4.39,1c0,0,2.63,1.76,4.57.18,0,0,3.33-1.94,4.56-1.23,0,0,3.68-.34,4.38-1.57"/><path class="cls-32" d="M233.43,129.62s13.49,3.71,25,0"/><path class="cls-33" d="M238.68,138s8.23,2.27,14.95,0"/><path class="cls-34" d="M208.09,90.61s12.19-28.54,26.65-36.15c0,0-13.65-1.59-23.32,12.05C203.75,77.33,208.09,90.61,208.09,90.61Z"/><path class="cls-35" d="M263,56.79l.79.3a9.39,9.39,0,0,0,2.33.41c1,.07,2.29,0,3.92,0a8.11,8.11,0,0,1,2.75.59,7,7,0,0,1,2.68,2.08,8.12,8.12,0,0,1,.55.75,5.5,5.5,0,0,1,.46,1,15.55,15.55,0,0,1,.52,1.73,10.1,10.1,0,0,0,1,2.67A5.27,5.27,0,0,0,279.83,68a5.83,5.83,0,0,0,.66.34l.16.09.29.16.59.36a5.57,5.57,0,0,1,1.14.9,6.06,6.06,0,0,1,1,1.2,6.93,6.93,0,0,1,.69,1.39,12.33,12.33,0,0,1,.37,1.45,11.43,11.43,0,0,1,.06,2.73,31.47,31.47,0,0,1-.92,4.64l-.11.49-.06.38c0,.07,0,0,0,0h0a1.73,1.73,0,0,0,.13.21,3.81,3.81,0,0,0,.46.56c.39.42,1,.92,1.61,1.55a10,10,0,0,1,2,2.6,5.89,5.89,0,0,1,.38,4.13,8.55,8.55,0,0,1-1.48,3.06l-.26.33-.18.21a1,1,0,0,0-.15.19,1.33,1.33,0,0,0-.13.21.63.63,0,0,0,0,.31c0,.09.05.19.08.3a1.59,1.59,0,0,1,.09.25c0,.1-.05.07.31.35s.68.47,1.09.73.84.54,1.32.87a8.93,8.93,0,0,1,.77.59,4.54,4.54,0,0,1,.86,1,8.3,8.3,0,0,1,1.26,3.68,9.49,9.49,0,0,1-.44,3.62,30.53,30.53,0,0,1-1.19,3,6.85,6.85,0,0,0-.66,2.65,5.74,5.74,0,0,0,.81,2.73c.5.92,1.09,1.82,1.67,2.73,0,0-.47-.39-1.32-1.18a15.57,15.57,0,0,1-1.52-1.57,6.18,6.18,0,0,1-1.35-2.9,10.41,10.41,0,0,1,.31-3.91,12.89,12.89,0,0,0,.43-3.74,5.15,5.15,0,0,0-.44-1.67,6.29,6.29,0,0,0-.43-.75l-.27-.33a.42.42,0,0,0-.16-.12c-.08,0-.46-.26-.78-.41l-1.15-.56a14.54,14.54,0,0,1-1.33-.7l-.39-.24c-.13-.09-.32-.24-.47-.37a4.45,4.45,0,0,1-.84-.94l-.25-.43-.19-.35c-.11-.24-.23-.49-.33-.77a5.94,5.94,0,0,1-.34-1.93,5.5,5.5,0,0,1,.46-2.1,5.65,5.65,0,0,1,.47-.88,3.62,3.62,0,0,1,.26-.38l.18-.25a3.89,3.89,0,0,0,.61-1.36c.09-.43,0-.63,0-.59a5.83,5.83,0,0,0-1.07-1.18c-.53-.5-1.24-1.08-2-1.89A9.78,9.78,0,0,1,279,85a7.08,7.08,0,0,1-.5-1.09,6.08,6.08,0,0,1-.25-1.27,10.45,10.45,0,0,1,.05-1.27l.17-.85c.12-.49.24-1,.36-1.37a15.19,15.19,0,0,0,.82-4.39,2.57,2.57,0,0,0-.35-1.33c0-.11-.13-.17-.2-.26s-.11-.19-.24-.25a3.92,3.92,0,0,1-.32-.25l-.09-.07-.18-.12-.36-.23a9.54,9.54,0,0,1-2.66-2.47,8.84,8.84,0,0,1-1.48-3.35,25.05,25.05,0,0,1-.38-3,5.1,5.1,0,0,0-.18-1A3.44,3.44,0,0,0,273,62a2.32,2.32,0,0,0-.28-.49A4.18,4.18,0,0,0,271.08,60a10.51,10.51,0,0,0-2.54-.84,23.57,23.57,0,0,1-2.92-.8A8.31,8.31,0,0,1,263,56.79Z"/><path class="cls-35" d="M259.91,56.18l-.58,0a15.44,15.44,0,0,1-1.7.05,12.52,12.52,0,0,1-2.81-.36,9,9,0,0,1-3.62-1.78c-.14-.13-.3-.26-.44-.4l-.22-.21-.17-.15a4.63,4.63,0,0,0-.77-.54,3.91,3.91,0,0,0-1.83-.53,2.3,2.3,0,0,0-1.59.49,2.45,2.45,0,0,0-.47.67c-.17.33-.34.73-.54,1.21a7.67,7.67,0,0,1-1.09,1.84A4.13,4.13,0,0,1,242,57.85a5.84,5.84,0,0,1-2.6,0,9.92,9.92,0,0,1-2.06-.69,6.8,6.8,0,0,0-2.54-.86,1.62,1.62,0,0,0-.72.2.69.69,0,0,0-.31.35.45.45,0,0,0,0,.11l0,.18c0,.19-.08.46-.13.8s-.1.76-.21,1.27a6.34,6.34,0,0,1-.67,1.79,5.4,5.4,0,0,1-1.35,1.59,6.69,6.69,0,0,1-.88.58,7.1,7.1,0,0,1-.92.42,9.21,9.21,0,0,1-1.64.42c-.27,0-.52.08-.77.11l-.61.06-1.1.13-.51.07-.4.08c-.15,0-.14.05-.17.07l-.05.06a.14.14,0,0,0,0,.15l0,0s0,0,0,.06l.14.29.31.68a10.12,10.12,0,0,1,.93,3.58,6.71,6.71,0,0,1,0,1.25,7,7,0,0,1-.22,1.29,5.24,5.24,0,0,1-1.25,2.24,5.69,5.69,0,0,1-2.22,1.39c-.94.34-1.26.4-1.72.55-.92.26-1.74.49-2.49.75a8.12,8.12,0,0,0-1.8.82,2.32,2.32,0,0,0-.37.29s0,0-.12,0a.33.33,0,0,0-.12,0h.06l.15,0c.07,0,0,0,0,0a1.25,1.25,0,0,0,0,.31,4.82,4.82,0,0,0,.21.92,24.08,24.08,0,0,1,.92,3.22,7.36,7.36,0,0,1,0,2.44,7,7,0,0,1-.89,2.52,6.81,6.81,0,0,1-1.8,2,13,13,0,0,1-1.65,1,6.43,6.43,0,0,0-1.68,1.05c-.08.06-.12.15-.13.13l-.06.07c0,.06-.08.13,0,.19a5.3,5.3,0,0,0,.95,1.78c.54.8,1.22,1.67,1.88,2.74a8.1,8.1,0,0,1,1.38,4.28,6.81,6.81,0,0,1-1.77,4.34,16,16,0,0,1-2.79,2.42,15.59,15.59,0,0,0-2.22,1.81,2.13,2.13,0,0,0-.67,1.76,9.8,9.8,0,0,0,1,2.77,6.57,6.57,0,0,1,.73,3.88,4.32,4.32,0,0,1-.88,1.92,4.61,4.61,0,0,1-1.58,1.19,28.57,28.57,0,0,1-3.29,1.19,4.7,4.7,0,0,0-2.7,1.88,3.25,3.25,0,0,1,1.13-1.62,11.59,11.59,0,0,1,2-1.32,12.83,12.83,0,0,0,2.55-1.62,2.52,2.52,0,0,0,.75-1.2,2.57,2.57,0,0,0-.07-1.5,7.63,7.63,0,0,0-.91-1.72,15.8,15.8,0,0,1-1.34-2.29,5.74,5.74,0,0,1-.47-1.61c0-.31,0-.63,0-1s.08-.66.15-1a7.45,7.45,0,0,1,1.87-3.1c.75-.8,1.52-1.46,2.18-2.13a7.46,7.46,0,0,0,1.51-1.89,2.4,2.4,0,0,0,.24-.83c0-.12,0-.2,0-.3s-.07-.22-.09-.33a7.65,7.65,0,0,0-1.34-2,36.15,36.15,0,0,1-2.36-2.93,8.33,8.33,0,0,1-.62-1,7.75,7.75,0,0,1-.54-1.4,5.28,5.28,0,0,1,.21-3.35c.1-.27.2-.54.32-.81l.23-.38.21-.33a8.26,8.26,0,0,1,1-1.13,11.65,11.65,0,0,1,2-1.48,11.59,11.59,0,0,0,1.3-.84c.25-.22.22-.26.25-.34.07-.32.11-.6-.3-1.72-.2-.55-.49-1.26-.73-2.13a10.88,10.88,0,0,1-.31-1.41c0-.26-.05-.51-.07-.78s0-.68,0-1a6.35,6.35,0,0,1,1.76-3.67,9.29,9.29,0,0,1,2.59-1.84,24.86,24.86,0,0,1,4.59-1.63l1-.28.12,0a0,0,0,0,0,0,0v0a1.88,1.88,0,0,0,0-.43,8.38,8.38,0,0,0-.53-1.5l-.26-.58a10.92,10.92,0,0,1-.43-1,5.67,5.67,0,0,1-.31-1,3.56,3.56,0,0,1-.12-1,3.79,3.79,0,0,1,.06-1l.09-.5.17-.48a4.85,4.85,0,0,1,1.15-1.67,7.51,7.51,0,0,1,3.78-1.75,14.53,14.53,0,0,1,1.53-.21l1.27-.08a10.39,10.39,0,0,0,1.74-.12l.31-.07a.28.28,0,0,0,.13-.07c.05,0,.06,0,.12-.16a7.63,7.63,0,0,0,.23-.85c.08-.37.18-.84.35-1.38a6.63,6.63,0,0,1,.88-1.83,5.77,5.77,0,0,1,2.83-2,6.36,6.36,0,0,1,3.2-.23,8.18,8.18,0,0,1,2.55,1c.68.37,1.19.71,1.64.95a3.58,3.58,0,0,0,.91.36.92.92,0,0,0,.75-.18,1.69,1.69,0,0,0,.32-.33c.1-.14.3-.48.48-.76a7.79,7.79,0,0,1,1.64-2.08,4.87,4.87,0,0,1,2.75-1,5.74,5.74,0,0,1,2.63.48,6.48,6.48,0,0,1,2.06,1.42c.15.15.28.3.42.46s.26.34.33.45a6.43,6.43,0,0,0,.58.71C254.4,55,257.17,55.84,259.91,56.18Z"/><path class="cls-28" d="M259.9,56.19l-.74.35a17.25,17.25,0,0,1-2.21.89,9,9,0,0,1-4,.4c-1.55-.22-3.18-.69-4.17-.4a2.83,2.83,0,0,0-1.29.77,1.46,1.46,0,0,0-.44,1.06c0,.47.21,1.46.21,3.07a6.62,6.62,0,0,1-.18,1.38,6,6,0,0,1-.6,1.49,6.63,6.63,0,0,1-2,2.11A7.65,7.65,0,0,1,242,68.4a12.86,12.86,0,0,1-2.24.37,14.6,14.6,0,0,0-2.93.35,1.86,1.86,0,0,0-.78.48,3.35,3.35,0,0,0-.71,1.05,3.62,3.62,0,0,0-.13,2.75,3.69,3.69,0,0,1,.38,2.34,4.31,4.31,0,0,1-.9,1.9,7.56,7.56,0,0,1-2.94,2.17l.28-.36a10,10,0,0,0,.73-1.09,6,6,0,0,0,.72-1.8,1.68,1.68,0,0,0-.48-1.7,6.21,6.21,0,0,1-1.44-4.25,7,7,0,0,1,.56-2.57A6.24,6.24,0,0,1,234,65.55a7.66,7.66,0,0,1,2.87-1.38c.94-.25,1.77-.36,2.48-.5a6.1,6.1,0,0,0,1.65-.48,2.11,2.11,0,0,0,.82-.65.59.59,0,0,0,.09-.2,3.58,3.58,0,0,0,.05-.72A15.2,15.2,0,0,1,242,58.4a6.13,6.13,0,0,1,2.4-3.75,6.67,6.67,0,0,1,3.91-1.34,8.07,8.07,0,0,1,3.53.89c1,.46,1.72.92,2.47,1.23A18.24,18.24,0,0,0,259.9,56.19Z"/><path class="cls-36" d="M320.42,84.45c-13.6,42.61-29.83,72.12-73,73.47-30.5.94-73.58-36.88-73.58-78.71s31.44-54.75,73.27-54.75S333.15,44.6,320.42,84.45Z"/><path class="cls-37" d="M248.67,21.28h-2.06C195,25.78,199.24,66,200.2,74.47s3,40,4.41,47.08,13,16.89,13,16.89S211,103.09,212.3,79.75,247.64,61,247.64,61s34-4.63,35.33,18.71-5.33,58.69-5.33,58.69,11.63-9.79,13-16.89,3.45-38.49,4.42-47.08S300.23,25.78,248.67,21.28Z"/><path class="cls-7" d="M294.52,80.37s7.9,14.26-2.68,31.63Z"/><path class="cls-7" d="M200.71,80.91s-7.9,14.26,2.68,31.63Z"/><line class="cls-38" x1="226.57" y1="62.66" x2="228.67" y2="24.88"/><line class="cls-38" x1="268.7" y1="62.66" x2="266.61" y2="24.88"/><path class="cls-6" d="M248.21,0c-41.84,0-73.57,31-73.57,72.8,0,12.09,3.6,23.85,9.46,34.43A68.11,68.11,0,1,1,317.73,88.32q1.75-5,3.45-10.28C333.9,38.19,290.05,0,248.21,0Z"/><path class="cls-28" d="M317.76,39.36a33.59,33.59,0,0,0-7.92-9.09c-6.36-4.92-14.64-6.84-22.68-8.22-26.79-4.6-54.57-4.67-81.09,1.24-6.83,1.52-13.83,3.57-19,8.08s-8,10.83-10.32,17.08c-4,10.51-7.09,21.58-6.31,32.73,1,14.21,2.25,29.29,8.77,42.28,3.91,7.8,25.29,30.36,31.06,12.53-16.37-16.37-24.85-39.69-22.63-62.26.56-5.66,1.91-11.58,5.92-15.78,3.24-3.39,7.83-5.25,12.36-6.77a138,138,0,0,1,86.42-.26c5,1.66,10.18,3.78,13.47,7.79,2.79,3.39,3.91,7.76,4.58,12,3.82,24.24-5.18,50-23.45,67.17,5.63,8,17,4,21.71-.37,23-21.5,25.34-64.62,12.12-92.65A56.67,56.67,0,0,0,317.76,39.36Z"/><path class="cls-19" d="M290.25,153.29c0,6.62-20.46,12-45.71,12s-45.7-5.37-45.7-12V168.5c0,6.62,20.46,12,45.7,12s45.71-5.37,45.71-12Z"/><path class="cls-20" d="M198.84,159.7c0,6.62,20.46,12,45.7,12s45.71-5.37,45.71-12"/><path class="cls-20" d="M198.84,164.18c0,6.63,20.46,12,45.7,12s45.71-5.36,45.71-12"/></g></g></svg>