<svg xmlns="http://www.w3.org/2000/svg" viewBox="0 0 202.05 419.45"><defs><style>.cls-1{fill:#fff;}.cls-2{fill:#a31f34;}.cls-3{fill:#8c8c8c;}.cls-4{fill:#a5a5a5;}.cls-5{fill:#292b30;}.cls-11,.cls-12,.cls-15,.cls-6{fill:none;stroke-linecap:round;stroke-miterlimit:10;}.cls-15,.cls-6{stroke:#999;}.cls-6{stroke-width:35px;}.cls-7{fill:#999;}.cls-8{fill:#157493;}.cls-9{fill:#aeafaf;}.cls-10{fill:#adadad;}.cls-11{stroke:#333d47;stroke-width:2.47px;}.cls-12{stroke:#545759;stroke-width:2.35px;}.cls-13{fill:#333d47;}.cls-14{fill:#c9c8c7;}.cls-15{stroke-width:40px;}.cls-16{fill:#bfc1c1;}.cls-17{fill:#969696;}.cls-18{fill:#959696;}</style></defs><g id="Layer_2" data-name="Layer 2"><g id="Girl"><polygon class="cls-1" points="201.51 397.61 198.55 390.11 169.64 394.31 167.84 401.6 177.35 403.52 201.51 397.61"/><path class="cls-1" d="M173.05,399.58h24.31a4.8,4.8,0,0,1,4.8,4.8v4.27a0,0,0,0,1,0,0H168.25a0,0,0,0,1,0,0v-4.27A4.8,4.8,0,0,1,173.05,399.58Z" transform="translate(416.63 783.65) rotate(173.25)"/><path class="cls-2" d="M185.27,407.07h0c9.5-1.13,17-5.06,16-13.58l-9.83-42.71c-1-8.52-5-15.12-14.5-14h0c-9.51,1.13-11.84,8.48-10.83,17l-.18,42.14C166.94,404.44,175.76,408.19,185.27,407.07Z"/><rect class="cls-1" x="170.11" y="359" width="18.85" height="4.17" transform="translate(400.27 698.57) rotate(173.25)"/><rect class="cls-1" x="171.19" y="368.14" width="18.85" height="4.17" transform="translate(403.5 716.66) rotate(173.25)"/><rect class="cls-1" x="172.27" y="377.28" width="18.85" height="4.17" transform="translate(406.73 734.75) rotate(173.25)"/><rect class="cls-1" x="173.35" y="386.42" width="18.85" height="4.17" transform="translate(409.96 752.84) rotate(173.25)"/><polygon class="cls-1" points="3.37 402.54 6.52 394.56 37.27 399.02 39.18 406.78 29.06 408.82 3.37 402.54"/><path class="cls-1" d="M2.67,404.62H38.74a0,0,0,0,1,0,0v4.85a4.8,4.8,0,0,1-4.8,4.8H7.47a4.8,4.8,0,0,1-4.8-4.8v-4.85a0,0,0,0,1,0,0Z" transform="translate(48.28 0.4) rotate(6.75)"/><path class="cls-2" d="M20.64,412.59h0c-10.11-1.2-18.11-5.38-17-14.44l10.46-45.43c1.07-9.06,5.31-16.08,15.42-14.89h0c10.11,1.2,12.59,9,11.52,18.08l.19,44.82C40.13,409.8,30.75,413.79,20.64,412.59Z"/><rect class="cls-1" x="16.72" y="361.47" width="20.05" height="4.44" transform="translate(42.94 -0.62) rotate(6.75)"/><rect class="cls-1" x="15.56" y="371.19" width="20.05" height="4.44" transform="translate(44.07 -0.42) rotate(6.75)"/><rect class="cls-1" x="14.41" y="380.91" width="20.05" height="4.44" transform="translate(45.21 -0.22) rotate(6.75)"/><rect class="cls-1" x="13.26" y="390.63" width="20.05" height="4.44" transform="translate(46.34 -0.01) rotate(6.75)"/><ellipse class="cls-3" cx="164.71" cy="371.41" rx="34.55" ry="22.83" transform="translate(-230.23 276.05) rotate(-52.51)"/><ellipse class="cls-3" cx="42.54" cy="375.11" rx="22.83" ry="34.55" transform="translate(-219.52 103.37) rotate(-37.49)"/><path class="cls-4" d="M59.13,419.24h0c-14.56-2-25-17.51-23.34-34.7L39.33,348a1.71,1.71,0,0,1,1.8-1.68l49.5,6.71a1.87,1.87,0,0,1,1.43,2.11l-3.55,36.52C86.84,408.88,73.69,421.22,59.13,419.24Z"/><path class="cls-4" d="M151.81,416h0c-14.41,3.15-28.25-8.1-30.92-25.12l-5.65-36.14a1.92,1.92,0,0,1,1.3-2.23l49-10.69a1.65,1.65,0,0,1,1.88,1.53l5.66,36.14C175.74,396.48,166.22,412.83,151.81,416Z"/><path class="cls-5" d="M150.33,244.21s29.62,54.3,36.44,107c4.22,32.54-119.25,16.71-157,14.18a13.6,13.6,0,0,1-12.61-15c2.51-23.4,24.47-91.5,40.18-103.58Z"/><line class="cls-6" x1="48.65" y1="158.29" x2="23.24" y2="251.16"/><path class="cls-7" d="M40.64,252.71,25.12,309.34a12.79,12.79,0,0,1-25-4.73l6.18-58.39a17.56,17.56,0,0,1,34.92,3.7A18.33,18.33,0,0,1,40.64,252.71Z"/><path class="cls-7" d="M30.54,344.14a21.32,21.32,0,0,1-8.88-15.21h0l7,7.66c.68.74,1.52,1.55,2.47,1.48s1.59-1.06,1.93-2a6.59,6.59,0,0,0,.46-2.49c-.07-1.87-1.23-3.56-2.3-5.15-2.95-4.38-7-10.1-10.13-15.16.28-1.52.56-3,.83-4.35a9.36,9.36,0,0,0-10.53-11.1h0a9.37,9.37,0,0,0-8,9.33c0,8.63.69,21.79,3.91,27.75l11.47,11.91,13.67,6.69s4.25-.74,3.71-4.13S30.54,344.14,30.54,344.14Z"/><path class="cls-1" d="M62.53,142.15a7.78,7.78,0,0,0-11-8c-11,5-29.24,37.22-33.95,44.76-7.71,12.32,32,27.16,40.73,27.16C64.32,206.06,60.56,158.55,62.53,142.15Z"/><path class="cls-8" d="M130.85,129.44s14.89-.72,23.88,3.37c9.94,4.52,14.46,37.51,12.74,59.82-1.47,19.23-1.54,38.28-12.82,55.88-2.74,4.28-4.56,6.81-9.63,6.74L67.8,254.18c-5.53-.08-9.08-3.24-11.51-8.21-6.93-14.16-15.74-23.57-13.24-55.44,3.41-43.44,8.05-62.06,32.33-60.58"/><path class="cls-5" d="M181.29,96.07s-58.69,57.31-132.58,26l73.12-26.66Z"/><path class="cls-5" d="M52.09,57.65s-6.48,17.49-4,25.31,10.43,17.63,4.69,21.65-12.91,20,.62,17.39l66.85-13.11"/><path class="cls-5" d="M153.79,37.71s12.6,13.75,13.26,21.93-2.52,20.16,4.31,21.72,19,13.79,5.47,16.44L110,110.9"/><path class="cls-9" d="M134,129.44A166.26,166.26,0,0,1,132.4,112c-.18-5.08-.17-9.92,0-14.5H86.18c0,14.61.53,17.37-1.61,31.91l-11.38.69,19.39,17.45a24.53,24.53,0,0,0,32.6-.8l16.92-16.85Z"/><path class="cls-7" d="M85.39,123.35s19.92,18.44,47.86,0l-1.54-14.63-45.19,2.45Z"/><circle class="cls-5" cx="103.79" cy="52.02" r="52.01"/><path class="cls-7" d="M147.84,57.77l1.47-2.63a4.91,4.91,0,0,1,1.25-1.39,4.23,4.23,0,0,1,4.42-.52,6.08,6.08,0,0,1,2.24,2.16,10.19,10.19,0,0,1,1.64,6.7c-.23,1.88-1.05,3.57-1.05,5.5,0,1.12.27,2.26.37,3.38.48,5.22-1,9.26-5.23,9a5,5,0,0,1-4.3-2C147,75.66,141.53,59.18,147.84,57.77Z"/><path class="cls-7" d="M66.71,72l-2.27-2a4.89,4.89,0,0,0-1.65-.88,4.23,4.23,0,0,0-4.34,1A6.16,6.16,0,0,0,57.08,73a10.15,10.15,0,0,0,.75,6.86c.86,1.69,2.2,3,2.86,4.82.38,1,.51,2.21.8,3.3,1.33,5.07,4.13,8.35,8,6.7a5,5,0,0,0,3.35-3.37C73.63,88.55,73.13,71.2,66.71,72Z"/><path class="cls-10" d="M152.74,78.93h0c.49,7-3.05,34.35-36.28,42.94h0c-4.43.78-34.08,1.49-45.71-23.44-.19-.44-.42-.91-.7-1.42,0,0-5-10.81-6.9-32.74-.14-.44-1.26-10.7-1.23-14.59C62,39.23,64.35,29,77,25l45.28-8c8.36-.88,21.76,6.86,26.38,33.11C148.62,50.14,152.81,71.18,152.74,78.93Z"/><path class="cls-5" d="M122.24,17s-13.9,31.14-45,40.19C60.36,62.13,65.42,80.79,65.42,80.79L56.89,50.74s-2.18-15.52,7.79-24.41S102.21,3.15,122.24,17Z"/><path class="cls-5" d="M122.24,17s7,25.67,27.07,38.11l1.76-10-7.31-19.83S130.93,12.09,122.24,17Z"/><path class="cls-11" d="M101.92,102.38s7.4,4.18,14.8-.47"/><path class="cls-12" d="M105.93,90a10.92,10.92,0,0,0,10.26-1.8"/><path class="cls-13" d="M122.21,61c-2.17,1-4.41-1-2.44-2.13.66-.37,1.39-.75,2.18-1.13A20.29,20.29,0,0,1,128.07,56a26.44,26.44,0,0,1,5.5-.14c3.94.3,5.63,4.73,5.63,4.73a6.6,6.6,0,0,0-6.5-3C127.14,58.26,127.29,58.54,122.21,61Z"/><path class="cls-13" d="M91,66.61c2.41.15,3.88-2.16,1.65-2.44-.76-.09-1.57-.17-2.45-.22a20.24,20.24,0,0,0-6.33.7,25.87,25.87,0,0,0-5.14,1.95c-3.53,1.76-3.42,6.5-3.42,6.5A6.56,6.56,0,0,1,80,67.44C85.39,66,85.35,66.28,91,66.61Z"/><path class="cls-14" d="M93.27,74.93c.39,2.23-2,4.51-5.31,5.09s-6.33-.75-6.73-3,2.09-6.78,5.42-7.36S92.88,72.7,93.27,74.93Z"/><circle class="cls-13" cx="89.27" cy="71.81" r="3.14"/><path class="cls-14" d="M124.21,69.49c.39,2.23,3.4,3.56,6.73,3s5.7-2.86,5.3-5.09-3.6-5.51-6.93-4.93S123.82,67.26,124.21,69.49Z"/><circle class="cls-13" cx="131.48" cy="64.86" r="3.14"/><path class="cls-10" d="M123.65,73.36a26.1,26.1,0,0,1,15.87-2.79C148.84,71.78,122.73,84.39,123.65,73.36Z"/><path class="cls-10" d="M79.89,81a26.23,26.23,0,0,1,15.88-2.79C105.09,79.39,79,92,79.89,81Z"/><line class="cls-15" x1="152.77" y1="187.27" x2="124" y2="253.4"/><path class="cls-16" d="M127.4,146.52l-.49,2.13c-1.34-1-1.12,1.81-1.79,2.87l-12,14.8a2,2,0,0,0,.77,2.43l.65,3.83c.86.66,1.54,2,2,1.34l12.09-18.43C129.24,154.43,128.74,147.56,127.4,146.52Z"/><path class="cls-17" d="M102.26,134.3l-1.86.33c-2.21,0-4.66,3.39-4.68,5.53l-1.78,30.3c0,2.14,1.58-8.51,3.78-8.49h0a4,4,0,0,0,4-3.85l4.49-19.91A4,4,0,0,0,102.26,134.3Z"/><path class="cls-17" d="M110.66,133.44h-.8c-1.92-.2-3.44,1.32-3.62,3.44l-2.7,12.85a3.81,3.81,0,0,0,3.17,4.24h0a3.65,3.65,0,0,0,3.84-3.5l3.48-13A3.75,3.75,0,0,0,110.66,133.44Z"/><path class="cls-17" d="M117,135.59h0a3.64,3.64,0,0,0-3.84,3.5l-2,9.43a3.81,3.81,0,0,0,3.17,4.23h0c1.93.21,6.57,1.16,6.75-1l.65-11.33C121.94,138.32,119,135.79,117,135.59Z"/><path class="cls-17" d="M127.61,116.06h0c-1.93-.2-3.68,1.63-3.89,4.07l-3.1,32.43c-.21,2.44,1.19,4.61,3.12,4.81h0c1.93.2,4.75-.28,5-2.72l2-33.78C130.94,118.43,129.54,116.27,127.61,116.06Z"/><path class="cls-17" d="M93.83,168.14l1.48-25.74,27.57,1.14,4.17,3.68,1.65,4.8c.26,1.27.07,3.93-.69,5L115.51,178c-2.5,3-8.33,3.46-12.08,2.9h0C97.55,180,93.34,174.4,93.83,168.14Z"/><path class="cls-18" d="M101.83,259l-10-79a14.6,14.6,0,0,1,28.59-5.61l20.62,76.9a20,20,0,1,1-38.72,10.39A23.24,23.24,0,0,1,101.83,259Z"/><path class="cls-1" d="M151.77,138c1.6-5.86,9.45-7.47,14-2.86,9,9.2,14.73,46.49,16.5,55.4,2.91,14.56-42.27,11.78-50.94,8.16C125.37,196.23,147.4,154,151.77,138Z"/></g></g></svg>