<svg xmlns="http://www.w3.org/2000/svg" viewBox="0 0 128.86 208.16"><defs><style>.cls-1{fill:#292b30;}.cls-2{fill:#737373;}.cls-3{fill:#5b5b5b;}.cls-4{fill:#a31f34;}.cls-5{fill:#b54c5d;}.cls-6{fill:#fcfdff;}.cls-7{fill:#f0f5f8;}.cls-8{fill:#333d47;}.cls-9{fill:#c9c8c7;}.cls-10{fill:none;stroke:#333d47;stroke-linecap:round;stroke-miterlimit:10;}.cls-11{opacity:0.66;}.cls-12{fill:#f4f4f4;}</style></defs><title>Asset 9</title><g id="Layer_2" data-name="Layer 2"><g id="Characters"><path class="cls-1" d="M73.83,96.8s-4.08-2.29-5.17-2.46a4.3,4.3,0,0,0-3.32,1,4.46,4.46,0,0,0-3.32-1c-1.09.17-5.57,2.67-5.57,2.67s1.77,1.83,2.47,2.42a8.92,8.92,0,0,0,6.23,2,11,11,0,0,0,6.71-2.26A17.74,17.74,0,0,0,73.83,96.8Z"/><path class="cls-1" d="M65.57,103.5h0c-22,0-39.88-12.7-39.88-25.91V52.52A39.88,39.88,0,0,1,65.57,12.64h0a39.88,39.88,0,0,1,39.87,39.88V77.59C105.44,88.79,87.59,103.5,65.57,103.5Z"/><ellipse class="cls-1" cx="65.57" cy="16.17" rx="22.65" ry="16.17"/><rect class="cls-2" x="52.12" y="111.64" width="26.55" height="51.82"/><path class="cls-3" d="M78.67,117s-2.94,9.26-26.56,10.4v-15.8H78.67Z"/><path class="cls-2" d="M65.63,117.07c16,0,29.41-19.12,33.08-44.58a98.11,98.11,0,0,0,1-14c0-19.8-15.25-35.86-34.07-35.86S31.56,38.68,31.56,58.48a98.11,98.11,0,0,0,1,14C36.22,98,49.64,117.07,65.63,117.07Z"/><path class="cls-1" d="M29.58,60.81s-6.06,18.93,4.88,27.37c0,0-3.53-17.41,0-29.25Z"/><path class="cls-1" d="M101.55,60.81s6.06,18.93-4.88,27.37c0,0,3.53-17.41,0-29.25Z"/><path class="cls-4" d="M128.82,195.77c-17,15.4-38.3,10.5-63.1,10.5S17.08,211.21,0,195.85c-.44-11.59,2.74-49.79,8.48-50.93,5.57-1.1,12.67-2.69,23.76-4.85,8.73-1.69,19.83-3.75,19.83-8.16s13.46,36.44,13.46,36.44,13.11-40.86,13.11-36.44,11.1,6.47,19.85,8.17c11.09,2.15,18.19,3.74,23.75,4.84S129.12,184.76,128.82,195.77Z"/><path class="cls-5" d="M44.69,137.26s-20.59,19-20.26,19.22,20.26,8.17,20.26,8.17l-3.59,8.61,25,34.15Z"/><path class="cls-5" d="M86.12,137.26s20.58,19,20.25,19.22-20.25,8.17-20.25,8.17l3.58,8.61-24.35,34.9Z"/><path class="cls-6" d="M86.12,137.26,65.72,207l-21-69.77c4.27-1.32,7.42-3.35,7.42-5.71,0-4.4,0-8.47,0-8.47l13.45,40.54,13.11-40.54v8.47C78.68,133.91,82,135.67,86.12,137.26Z"/><path class="cls-7" d="M78.68,123.08,74,137.54s-1,7.11,10.48,17.08l7.36-15.88S81.36,131.91,78.68,123.08Z"/><path class="cls-7" d="M52.12,123.08l5.23,15.77s.75,5.8-10.69,15.77l-7.36-16S49.44,131.91,52.12,123.08Z"/><path class="cls-1" d="M65.34,46.36c15,0,21.21-5.67,21.21-5.67,3.91,13.79,10.76,18.74,10.76,18.74l4,7.19c4.65-17.52-7-44.84-35.95-44.84s-39.65,28.41-36,44.84l5.12-7.69s5.76-4.45,9.67-18.24C44.13,40.69,50.34,46.36,65.34,46.36Z"/><path class="cls-8" d="M73.1,59.29c-2,.15-2.85-1.55-1.07-2.18.6-.21,1.25-.42,2-.63a31.87,31.87,0,0,1,9-1.24,27,27,0,0,1,5.06.68,13.48,13.48,0,0,1,5.66,3.41S88.54,57.41,85,57.51C80.29,57.64,77.73,59,73.1,59.29Z"/><path class="cls-8" d="M58.64,58.84c2,0,2.77-1.7,1-2.24-.61-.18-1.27-.36-2-.52a31.71,31.71,0,0,0-9-.76,26.29,26.29,0,0,0-5,.94A13.41,13.41,0,0,0,38.12,60s5-2.19,8.54-2.28C51.37,57.57,54,58.75,58.64,58.84Z"/><ellipse class="cls-9" cx="52.7" cy="70.4" rx="3.51" ry="5.24" transform="matrix(0.15, -0.99, 0.99, 0.15, -25, 111.57)"/><circle class="cls-8" cx="52.63" cy="70.83" r="2.69"/><path class="cls-10" d="M45.41,67.69S53.63,64.49,59.8,70"/><path class="cls-10" d="M60.27,85.23c.09.57,1.76.7,1.76.7s1.56-.18,2.06.47c0,0,1.25.8,2.14,0,0,0,1.54-.92,2.12-.6,0,0,1.72-.18,2-.76"/><line class="cls-10" x1="63.56" y1="80.06" x2="66.82" y2="80.01"/><path class="cls-10" d="M61.22,106.13a8.81,8.81,0,0,0,8.15-.11"/><path class="cls-2" d="M95.24,76.64c-.45,5.18-.93,9.36,2.16,9.63s8.57-3.47,9-8.65-1.67-9.59-4.76-9.86S95.7,71.46,95.24,76.64Z"/><path class="cls-2" d="M35.69,77.72c1,5.1,1.91,9.21-1.11,9.8S25.74,85,24.75,79.85s.65-9.72,3.67-10.3S34.7,72.62,35.69,77.72Z"/><circle class="cls-4" cx="65.56" cy="57.92" r="1.79"/><g class="cls-11"><path class="cls-1" d="M75.18,95.91c-1.71-.53-3.2-1.62-4.9-2.2s-3.88-.5-4.94,1c-1.06-1.47-3.28-1.54-5-.88s-3.13,1.84-4.83,2.47c.6,2.19,1.46,4.79,3.25,6.31a8,8,0,0,0,3.74,1.59,13.11,13.11,0,0,0,5.94-.29,7.43,7.43,0,0,0,2.88-1.5,8.66,8.66,0,0,0,1.54-2A27.11,27.11,0,0,0,75.18,95.91Z"/></g><path class="cls-12" d="M65.13,97.79a22,22,0,0,1-8.52-1.47l-.17.08s1.77,1.55,2.47,2a10,10,0,0,0,6.23,1.72,12.25,12.25,0,0,0,6.71-1.92,14.88,14.88,0,0,0,2-2A21.57,21.57,0,0,1,65.13,97.79Z"/><path class="cls-10" d="M52.23,94.43s11.69,5.91,23.53.82"/><ellipse class="cls-9" cx="79.74" cy="69.94" rx="5.24" ry="3.51" transform="translate(-9.86 13.19) rotate(-8.9)"/><circle class="cls-8" cx="79.81" cy="70.37" r="2.69"/><path class="cls-10" d="M87,67.23S78.82,64,72.64,69.49"/></g></g></svg>