<svg xmlns="http://www.w3.org/2000/svg" viewBox="0 0 692.03 379.56"><defs><style>.cls-1{fill:#ececec;}.cls-2{fill:#cbced1;}.cls-3{fill:#989b9d;}.cls-4{fill:#eaebed;}.cls-13,.cls-5{fill:#580018;}.cls-6{fill:#af0030;}.cls-7{fill:#333d47;}.cls-8{fill:#006986;}.cls-9{fill:#041d40;}.cls-10,.cls-12{fill:none;stroke-width:3px;}.cls-10{stroke:#cbced1;}.cls-10,.cls-12,.cls-13{stroke-miterlimit:10;}.cls-11{fill:#cf6683;}.cls-12{stroke:#fff;}.cls-13{stroke:#793346;stroke-width:2px;}.cls-14{fill:#793346;}</style></defs><g id="Layer_2" data-name="Layer 2"><g id="Layer_19" data-name="Layer 19"><rect class="cls-1" x="165.28" y="193.19" width="50.1" height="152.82"/><path class="cls-2" d="M685.32,198.34c9.84-8,8.72-25.64-2.49-39.5-.63-.78-1.28-1.53-1.94-2.25,10.09-9,10.86-28,1.16-44.79a48.84,48.84,0,0,0-18.13-18.38c1.6-10.58-3.32-25.55-13.84-39.07-11.54-14.84-26.44-23.59-37.5-23.12C609.78,25,604,19,596.09,15.07c-8.29-4.13-17-5.07-23.88-3.18a20.23,20.23,0,0,0-38.14,3.76,15,15,0,0,0-1.79,7.12V309.46c-5.24,19.55,2.83,38.9,18.54,43.75,11.27,3.48,23.5-1.42,32-11.52a20.91,20.91,0,0,0,2.13,1.44c12.95,7.47,32-1.26,42.52-19.51a51.93,51.93,0,0,0,5.31-12.88c.27.08.54.17.82.24,15.6,4.08,32.9-10.44,38.65-32.42a52.26,52.26,0,0,0,.2-26.91c6.77-4.33,12.52-12.41,15.16-22.52,3-11.42,1.24-22.55-3.83-29.69A18.18,18.18,0,0,0,685.32,198.34Z"/><path class="cls-3" d="M571,15.65a30.77,30.77,0,0,0,14.14,13.16,2.05,2.05,0,0,0,2.72-.71,2,2,0,0,0-.71-2.72,27.6,27.6,0,0,1-4-2.19,22.59,22.59,0,0,1-3.34-2.63,25.72,25.72,0,0,1-5.4-6.92,2,2,0,1,0-3.42,2Z"/><path class="cls-3" d="M597.13,36.64a34.06,34.06,0,0,1,16.57-2.13,2,2,0,0,0,2-2,2,2,0,0,0-2-2,36.64,36.64,0,0,0-17.62,2.28,2,2,0,0,0-1.39,2.44,2,2,0,0,0,2.44,1.38Z"/><path class="cls-3" d="M554.89,51c4.86,7,4.17,16.08,3.51,24.2-.21,2.54,3.76,2.53,4,0,.72-8.82,1.21-18.57-4.06-26.2-1.44-2.09-4.88-.11-3.42,2Z"/><path class="cls-3" d="M565.75,81.33A43.59,43.59,0,0,1,574,49.67a2,2,0,1,0-3.43-2,47.48,47.48,0,0,0-8.62,34.72,2,2,0,0,0,2.44,1.38,2,2,0,0,0,1.39-2.44Z"/><path class="cls-3" d="M554.07,29a21.74,21.74,0,0,0-14.59,5.5A30.74,30.74,0,0,0,531,47.55a2,2,0,0,0,3.83,1.06c3-8.26,9.85-15.91,19.27-15.66,2.56.07,2.55-3.9,0-4Z"/><path class="cls-3" d="M535,121.61A40.77,40.77,0,0,1,553.4,97.46c2.19-1.3.2-4.73-2-3.42a44.79,44.79,0,0,0-20.21,26.51c-.68,2.47,3.15,3.52,3.82,1.06Z"/><path class="cls-3" d="M565.39,120.24a68.91,68.91,0,0,1,35.12-31.72,2.05,2.05,0,0,0,1.39-2.44,2,2,0,0,0-2.44-1.39,73.44,73.44,0,0,0-31.39,23.94,68.77,68.77,0,0,0-6.11,9.61c-1.19,2.25,2.23,4.26,3.43,2Z"/><path class="cls-3" d="M551.36,120.53a45.47,45.47,0,0,0,33.39-1.65,2,2,0,0,0,.71-2.72,2,2,0,0,0-2.71-.71,41.38,41.38,0,0,1-30.34,1.25c-2.42-.83-3.45,3-1,3.83Z"/><path class="cls-3" d="M596.57,66a19.21,19.21,0,0,1,17.92,18.22c.07,1.68.07,3.44,1.42,4.65a3.38,3.38,0,0,0,4.55,0,2,2,0,0,0,0-2.81,2,2,0,0,0-2.81,0q.75-.59,1,0l-.08-.18a7.22,7.22,0,0,0-.09-.9c0-.76-.05-1.52-.14-2.28a23,23,0,0,0-5.6-12.82,23.39,23.39,0,0,0-16.16-7.84c-2.55-.16-2.54,3.81,0,4Z"/><path class="cls-3" d="M623.49,96.18a14.93,14.93,0,0,1,6.28,9.08,19,19,0,0,1,.27,5.43c-.1,2,.54,4.36,2.78,4.93,2.47.64,3.53-3.19,1-3.83.27.08.22.54.2.13,0-.23-.08-.5-.08-.87,0-.94.15-1.86.14-2.79a18.4,18.4,0,0,0-1.11-6,19.12,19.12,0,0,0-7.52-9.54c-2.15-1.4-4.14,2-2,3.43Z"/><path class="cls-3" d="M667.7,94a26.18,26.18,0,0,0-22-.08A2,2,0,0,0,645,96.6a2,2,0,0,0,2.71.71,21.87,21.87,0,0,1,18,.07,2,2,0,0,0,2.72-.71A2,2,0,0,0,667.7,94Z"/><path class="cls-3" d="M682.06,155.47a29.13,29.13,0,0,0-38.31,6.16,2,2,0,0,0,0,2.81,2,2,0,0,0,2.8,0,25.62,25.62,0,0,1,15.17-9.29,25.16,25.16,0,0,1,18.34,3.75c2.15,1.4,4.14-2,2-3.43Z"/><path class="cls-3" d="M608.78,113.15a29,29,0,0,0,22.38,28c2.48.56,3.55-3.27,1.05-3.83a25,25,0,0,1-19.47-24.22c0-2.55-4-2.56-4,0Z"/><path class="cls-3" d="M659.6,135.94a47.49,47.49,0,0,0-22.66,2.92c-6.75,2.6-13.44,6.55-18.15,12.14a22.79,22.79,0,0,0-5.24,10.5c-.46,2.49,3.36,3.56,3.82,1.05,1.54-8.34,8.92-14.08,16-17.78a45.08,45.08,0,0,1,26.19-4.86,2,2,0,0,0,2-2,2,2,0,0,0-2-2Z"/><path class="cls-3" d="M558.94,175c1.11-7.1,3.56-13.69,8.28-19.2A35,35,0,0,1,585.1,144.7a36.07,36.07,0,0,1,12.29-.93,2,2,0,0,0,2-2,2,2,0,0,0-2-2A39.16,39.16,0,0,0,559,161.08a43.11,43.11,0,0,0-3.9,12.89,2,2,0,0,0,1.38,2.44,2,2,0,0,0,2.44-1.39Z"/><path class="cls-3" d="M579.82,170.83c1.74,8.08-1.83,16-6.34,22.51a82,82,0,0,1-15.28,17.08,31.75,31.75,0,0,1-10.65,5.83c-2.43.74-1.39,4.57,1.06,3.82,7.84-2.39,14.19-7.78,19.57-13.79,5.7-6.36,11.43-13.38,14.31-21.53a27.58,27.58,0,0,0,1.16-15c-.54-2.5-4.37-1.44-3.83,1.05Z"/><path class="cls-3" d="M575.37,199.75a76,76,0,0,1,33.73-3.59,2,2,0,0,0,0-4,78.86,78.86,0,0,0-34.79,3.73c-2.4.83-1.37,4.66,1.06,3.83Z"/><path class="cls-3" d="M627.53,193.07c4.55-.59,8.62,1.51,12.26,4s7.27,5.5,9.54,9.38c4,6.9,3.92,15.83.61,23a2,2,0,0,0,.71,2.72,2,2,0,0,0,2.71-.71,30.45,30.45,0,0,0,1.84-21.32c-2.28-7.71-8.21-13.22-14.84-17.43-3.8-2.41-8.26-4.21-12.83-3.62a2.05,2.05,0,0,0-2,2,2,2,0,0,0,2,2Z"/><path class="cls-3" d="M629.52,224.22c7.14-.84,13.71,3.61,17.16,9.65,4.14,7.24,3.87,16.2,2.36,24.14-.48,2.49,3.35,3.56,3.83,1.05,1.38-7.24,1.81-14.94-.52-22.05A25,25,0,0,0,640,222.22a18.88,18.88,0,0,0-10.49-2,2,2,0,0,0-2,2,2,2,0,0,0,2,2Z"/><path class="cls-3" d="M565.84,268.12c3-7,4-15.29,10.41-20.26a40.38,40.38,0,0,1,11-5.59,64.62,64.62,0,0,1,12.62-3.17,63.42,63.42,0,0,1,14.7-.33,2,2,0,1,0,0-4A66.12,66.12,0,0,0,587,238.15,47.87,47.87,0,0,0,574.85,244a23.49,23.49,0,0,0-8,9.75c-1.93,4.33-3,9-4.88,13.32a2,2,0,0,0,1.38,2.44,2,2,0,0,0,2.44-1.39Z"/><path class="cls-3" d="M548.77,265.76a50.35,50.35,0,0,1,21.49-14.53c2.4-.82,1.37-4.66-1.06-3.83A54.31,54.31,0,0,0,546,263c-1.67,1.92,1.12,4.73,2.8,2.81Z"/><path class="cls-3" d="M544.82,322.06c11.81,1.08,24.07.3,34.88-5a40.19,40.19,0,0,0,12.42-9.29,40.92,40.92,0,0,0,8-14.22,94.81,94.81,0,0,0,3.75-18.36,2,2,0,0,0-2-2,2,2,0,0,0-2,2c-1.27,9.9-3.13,20.54-9.52,28.56s-16.06,12.35-25.93,14a76.92,76.92,0,0,1-19.59.36,2,2,0,1,0,0,4Z"/><path class="cls-3" d="M615.57,280.06a13.94,13.94,0,0,1-.41,1.81,8.45,8.45,0,0,1-.28.85c0,.15-.11.3-.17.45.1-.26.06-.14,0,0a14.34,14.34,0,0,1-.88,1.64c-.14.23-.29.45-.45.67s-.19.27-.29.4c.28-.37,0,.06-.09.1a13.6,13.6,0,0,1-1.22,1.3c-.21.2-.43.4-.66.59-.05,0-.45.35-.24.2s-.15.1-.19.13a13.1,13.1,0,0,1-1.51.94l-.87.43c-.39.17.31-.11-.13.05l-.45.16a2,2,0,0,0-1.39,2.44,2,2,0,0,0,2.44,1.39,16.24,16.24,0,0,0,10.64-12.54,2,2,0,0,0-1.38-2.44,2,2,0,0,0-2.44,1.39Z"/><path class="cls-3" d="M563.63,281.48A19.91,19.91,0,0,1,536.09,284a2,2,0,0,0-2.71.72,2,2,0,0,0,.71,2.71,24.1,24.1,0,0,0,32.34-3.15c1.7-1.9-1.1-4.72-2.8-2.81Z"/><path class="cls-3" d="M601,323.89A53.14,53.14,0,0,0,584.86,338a2,2,0,0,0,.71,2.72,2,2,0,0,0,2.71-.71A48.63,48.63,0,0,1,603,327.31c2.23-1.26.23-4.69-2-3.42Z"/><path class="cls-3" d="M609,309.94q7.58.36,15.16.16c4.9-.13,10-.14,14.79-1.43,8.29-2.25,14.72-8.39,20.68-14.24,1.82-1.79-1-4.6-2.81-2.8C651.3,297.08,645.33,303,637.55,305c-4.46,1.13-9.26,1.09-13.84,1.2-4.89.12-9.79.05-14.67-.18-2.56-.12-2.55,3.85,0,4Z"/><path class="cls-3" d="M542.9,183.57a46.13,46.13,0,0,0-7.61,7.88,19.7,19.7,0,0,0-3.44,11.18A40.64,40.64,0,0,0,537,223.34a33.26,33.26,0,0,0,7.74,9.29c2,1.62,4.78-1.18,2.81-2.8A31.92,31.92,0,0,1,537.33,214a37.24,37.24,0,0,1-1.5-9.55c-.1-3.51.29-6.84,2.14-9.88,2-3.23,4.91-5.76,7.73-8.21,1.93-1.69-.89-4.48-2.8-2.81Z"/><path class="cls-2" d="M6.71,198.34c-9.84-8-8.73-25.64,2.48-39.5.63-.78,1.29-1.53,2-2.25C1,147.6.27,128.61,10,111.8A48.7,48.7,0,0,1,28.11,93.42C26.5,82.84,31.43,67.87,41.94,54.35,53.49,39.51,68.39,30.76,79.45,31.23,82.25,25,88.06,19,95.93,15.07c8.3-4.13,17-5.07,23.89-3.18A20.23,20.23,0,0,1,158,15.65a14.93,14.93,0,0,1,1.8,7.12V309.46c5.24,19.55-2.83,38.9-18.54,43.75-11.28,3.48-23.51-1.42-32-11.52a21.05,21.05,0,0,1-2.14,1.44c-12.94,7.47-32-1.26-42.51-19.51a52,52,0,0,1-5.32-12.88c-.27.08-.53.17-.81.24-15.6,4.08-32.91-10.44-38.65-32.42a52.16,52.16,0,0,1-.2-26.91c-6.77-4.33-12.52-12.41-15.16-22.52-3-11.42-1.24-22.55,3.83-29.69A16.72,16.72,0,0,1,6.71,198.34Z"/><path class="cls-3" d="M117.59,13.64a26.88,26.88,0,0,1-12.72,11.74,2,2,0,0,0-.71,2.72,2,2,0,0,0,2.71.71A30.75,30.75,0,0,0,121,15.65a2,2,0,1,0-3.43-2Z"/><path class="cls-3" d="M96,32.82a36.66,36.66,0,0,0-17.62-2.28,2,2,0,0,0-2,2,2,2,0,0,0,2,2,34,34,0,0,1,16.56,2.13,2,2,0,0,0,2.45-1.38A2,2,0,0,0,96,32.82Z"/><path class="cls-3" d="M133.71,49c-5.26,7.63-4.77,17.38-4.05,26.2.21,2.52,4.18,2.55,4,0C133,67,132.28,58,137.14,51c1.45-2.11-2-4.1-3.43-2Z"/><path class="cls-3" d="M130.11,82.39a47.57,47.57,0,0,0-8.62-34.72,2,2,0,0,0-2.72-.72,2,2,0,0,0-.71,2.72,43.59,43.59,0,0,1,8.22,31.66,2.05,2.05,0,0,0,1.39,2.44,2,2,0,0,0,2.44-1.38Z"/><path class="cls-3" d="M138,33c9.41-.25,16.29,7.4,19.27,15.66A2,2,0,0,0,159.67,50a2,2,0,0,0,1.38-2.44,30.72,30.72,0,0,0-8.5-13.07A21.74,21.74,0,0,0,138,29c-2.55.07-2.56,4,0,4Z"/><path class="cls-3" d="M160.84,120.55A44.87,44.87,0,0,0,140.63,94c-2.2-1.31-4.2,2.12-2,3.42A40.79,40.79,0,0,1,157,121.61c.68,2.46,4.51,1.41,3.83-1.06Z"/><path class="cls-3" d="M130.07,118.24a73.08,73.08,0,0,0-27.15-28.5,73.88,73.88,0,0,0-10.35-5,2,2,0,0,0-2.44,1.39,2,2,0,0,0,1.38,2.44,68.93,68.93,0,0,1,35.13,31.72c1.19,2.26,4.62.26,3.43-2Z"/><path class="cls-3" d="M139.61,116.7a41.35,41.35,0,0,1-30.33-1.25,2.06,2.06,0,0,0-2.72.71,2,2,0,0,0,.72,2.72,45.47,45.47,0,0,0,33.39,1.65c2.4-.83,1.37-4.66-1.06-3.83Z"/><path class="cls-3" d="M95.45,62.05a23.43,23.43,0,0,0-16.16,7.84,23.7,23.7,0,0,0-4.62,8.18,23.36,23.36,0,0,0-1,4.45c-.09.77-.14,1.52-.16,2.29a4.91,4.91,0,0,0-.07,1,.85.85,0,0,1-.11.26q.24-.55,1,0a2,2,0,0,0-2.8,0,2,2,0,0,0,0,2.81,3.39,3.39,0,0,0,4.55,0c1.28-1.17,1.36-2.84,1.42-4.45A19.16,19.16,0,0,1,95.45,66c2.54-.16,2.56-4.13,0-4Z"/><path class="cls-3" d="M66.53,92.75A19.14,19.14,0,0,0,59,102.29a18.35,18.35,0,0,0-1.1,5.82c0,1,.11,1.87.13,2.81a5,5,0,0,1-.05.89c-.13.61-.11.06.17,0-2.47.64-1.42,4.47,1.06,3.83,2.18-.56,2.86-2.79,2.79-4.82a19.78,19.78,0,0,1,.25-5.54,15,15,0,0,1,6.28-9.08c2.13-1.39.15-4.83-2-3.43Z"/><path class="cls-3" d="M26.33,97.38a21.89,21.89,0,0,1,18-.07,2,2,0,0,0,2.71-.71,2,2,0,0,0-.71-2.72,26.18,26.18,0,0,0-22,.08,2,2,0,0,0-.71,2.71,2,2,0,0,0,2.71.71Z"/><path class="cls-3" d="M12,158.9a25.2,25.2,0,0,1,18.34-3.75,25.56,25.56,0,0,1,15.16,9.29,2,2,0,0,0,2.81,0,2,2,0,0,0,0-2.81A29.14,29.14,0,0,0,10,155.47c-2.13,1.39-.15,4.83,2,3.43Z"/><path class="cls-3" d="M79.28,113.15a25,25,0,0,1-19.47,24.22c-2.49.56-1.43,4.39,1.06,3.83a29,29,0,0,0,22.38-28c0-2.55-4-2.56-4,0Z"/><path class="cls-3" d="M32.42,139.91a45.06,45.06,0,0,1,26.19,4.86c7.12,3.7,14.51,9.44,16,17.78.46,2.51,4.29,1.45,3.83-1.05-1.3-7.07-6.43-12.62-12.11-16.65a50.14,50.14,0,0,0-20.93-8.6,46.55,46.55,0,0,0-13-.31,2,2,0,0,0-2,2,2,2,0,0,0,2,2Z"/><path class="cls-3" d="M136.91,174a41.22,41.22,0,0,0-9.3-21,38.93,38.93,0,0,0-33-13.2,2,2,0,0,0-2,2,2,2,0,0,0,2,2,35.37,35.37,0,0,1,35,19.49A40.21,40.21,0,0,1,133.08,175a2,2,0,1,0,3.83-1.05Z"/><path class="cls-3" d="M108.38,169.78c-1.92,8.91,1.4,17.7,6.36,25a113.43,113.43,0,0,0,8,10.25,65.63,65.63,0,0,0,8.57,8.43,36.55,36.55,0,0,0,12.09,6.59c2.45.75,3.49-3.08,1.05-3.82-7.11-2.18-12.79-7.19-17.68-12.63-5.18-5.75-10.57-12.16-13.28-19.51a23.85,23.85,0,0,1-1.3-13.28c.53-2.49-3.29-3.55-3.83-1.05Z"/><path class="cls-3" d="M117.72,195.92a78.88,78.88,0,0,0-34.79-3.73,2,2,0,0,0-2,2,2,2,0,0,0,2,2,76,76,0,0,1,33.73,3.59c2.42.83,3.46-3,1.06-3.83Z"/><path class="cls-3" d="M64.5,189.1c-4-.52-7.92.8-11.37,2.74a46.66,46.66,0,0,0-9.77,7.42,26.71,26.71,0,0,0-7.66,20.08,31.68,31.68,0,0,0,3,12.13,2,2,0,0,0,2.72.71,2,2,0,0,0,.71-2.72c-3.31-7.15-3.44-16.08.6-23,2.27-3.88,5.89-6.84,9.54-9.38s7.72-4.62,12.27-4a2,2,0,0,0,2-2,2,2,0,0,0-2-2Z"/><path class="cls-3" d="M62.5,220.25c-6.41-.75-12.73,2.29-17.07,6.9-4.91,5.21-7.06,12.22-7.37,19.26a55.4,55.4,0,0,0,1.1,12.65c.48,2.51,4.3,1.45,3.83-1.05-1.52-7.94-1.78-16.9,2.35-24.14,3.46-6,10-10.49,17.16-9.65a2,2,0,0,0,2-2,2,2,0,0,0-2-2Z"/><path class="cls-3" d="M130,267.07c-3.26-7.72-4.49-16.48-11.42-22a43.57,43.57,0,0,0-11.88-6.3,63.74,63.74,0,0,0-13.46-3.48,66.5,66.5,0,0,0-15.76-.48,2,2,0,0,0-2,2,2,2,0,0,0,2,2,63.38,63.38,0,0,1,25.62,2.92A47.24,47.24,0,0,1,114.49,247a20,20,0,0,1,7.21,8.81c1.78,4,2.78,8.32,4.48,12.36a2.05,2.05,0,0,0,2.44,1.39,2,2,0,0,0,1.39-2.44Z"/><path class="cls-3" d="M146.06,263a54.37,54.37,0,0,0-23.23-15.55c-2.43-.83-3.47,3-1.06,3.83a50.25,50.25,0,0,1,21.48,14.53c1.68,1.92,4.48-.89,2.81-2.81Z"/><path class="cls-3" d="M147.21,318.09c-10.94,1-22.45.54-32.52-4.28A37.47,37.47,0,0,1,103,305.26a36.29,36.29,0,0,1-7.28-13,90.74,90.74,0,0,1-3.53-17.11,2.05,2.05,0,0,0-2-2,2,2,0,0,0-2,2c1.39,10.91,3.45,22.2,10.44,31.06,6.72,8.53,17.15,13.48,27.69,15.27a80.65,80.65,0,0,0,20.88.54,2,2,0,0,0,2-2,2,2,0,0,0-2-2Z"/><path class="cls-3" d="M72.63,281.11a16.28,16.28,0,0,0,10.64,12.54,2,2,0,0,0,2.44-1.39,2,2,0,0,0-1.38-2.44l-.46-.16c-.5-.19.37.17-.12-.05-.27-.13-.54-.25-.8-.39a14.7,14.7,0,0,1-1.52-.93l-.32-.24c.36.27,0,0-.11-.09-.25-.2-.49-.42-.73-.64a15,15,0,0,1-1.22-1.3l-.14-.18-.19-.25c-.17-.24-.34-.49-.49-.74a13.89,13.89,0,0,1-.85-1.56c0-.06-.24-.56-.06-.12l-.18-.45c-.09-.26-.18-.51-.25-.77a13.6,13.6,0,0,1-.43-1.89A2,2,0,0,0,74,278.67a2,2,0,0,0-1.39,2.44Z"/><path class="cls-3" d="M125.59,284.29a24.11,24.11,0,0,0,32.35,3.15,2,2,0,0,0,.71-2.71,2,2,0,0,0-2.72-.72,19.9,19.9,0,0,1-27.53-2.53c-1.7-1.91-4.5.9-2.81,2.81Z"/><path class="cls-3" d="M89.06,327.31a48.51,48.51,0,0,1,14.68,12.74,2.05,2.05,0,0,0,2.72.71,2,2,0,0,0,.71-2.72,53.38,53.38,0,0,0-16.1-14.15c-2.23-1.26-4.23,2.16-2,3.42Z"/><path class="cls-3" d="M83,306c-4.89.23-9.78.3-14.68.18-4.57-.11-9.37-.07-13.83-1.2-7.79-2-13.76-7.87-19.31-13.32-1.83-1.8-4.64,1-2.81,2.8,6,5.85,12.39,12,20.67,14.24,4.76,1.29,9.9,1.3,14.79,1.43q7.59.21,15.17-.16c2.54-.12,2.56-4.09,0-4Z"/><path class="cls-3" d="M146.32,186.38a41.44,41.44,0,0,1,7,7.08,16.16,16.16,0,0,1,2.9,9.62,36.4,36.4,0,0,1-4.68,18.42,30.39,30.39,0,0,1-7,8.33c-2,1.62.85,4.42,2.81,2.8a35.7,35.7,0,0,0,11.32-17.92c2-6.93,2.78-15.53-1-22-2.15-3.6-5.32-6.45-8.45-9.18-1.92-1.67-4.74,1.12-2.81,2.81Z"/><path class="cls-4" d="M526.4,11.57c-4.7,6.07-19.16,10.5-36.27,10.5s-31.57-4.43-36.26-10.5V144.32H454c1.72,9.41,17.23,15,36.1,15s34.38-5.57,36.1-15h.17V11.57Z"/><path class="cls-5" d="M536.35,323.58V8.15h-10V139.31h-.17c-1.72,9.41-17.22,15-36.1,15s-34.38-5.57-36.1-15h-.16V8.15H443.35V327.89h.21c2.21,22.22,22.09,35.37,46.29,35.37s44.09-13.15,46.29-35.37h.21v-4c0-.05,0-.09,0-.14S536.35,323.63,536.35,323.58Z"/><path class="cls-6" d="M220.08,53.29V49.58h-.14c-1.48-20.49-15.27-23-31.49-23s-29.07,2.49-30.55,23h-.14V344.44h6.6V232.66s0,0,0-.06a.43.43,0,0,0,0,0v-1.47h.11c1.15-8.13,11.55-13,24.22-13s23.06,4.82,24.22,13H213V344.44h7.06V53.29Z"/><path class="cls-1" d="M258,47.7c-18.17,0-35-2.83-38.46-20.27h-.76V307.64c0,21.12,16.83,38.24,37.58,38.24h0c20.75,0,37.58-17.12,37.58-38.24V27.43h-.76C289.65,44.87,276.13,47.7,258,47.7Z"/><path class="cls-7" d="M285.64,27.22V304.56c0,20.47-8,37.9-29.27,38.73-16.17.64-33-14.61-29.35-38.73V27.22h-8.27V314.07a37.59,37.59,0,0,0,37.58,37.58h0a37.59,37.59,0,0,0,37.58-37.58V27.22Z"/><rect class="cls-8" x="293.67" y="57.91" width="69.52" height="262.29"/><rect class="cls-4" x="301.94" y="146.14" width="52.86" height="175.59"/><path class="cls-9" d="M375.14,25H431a12.9,12.9,0,0,1,12.9,12.9V375.86a0,0,0,0,1,0,0H362.25a0,0,0,0,1,0,0V37.93A12.9,12.9,0,0,1,375.14,25Z"/><rect class="cls-4" x="371.32" y="38.28" width="62.39" height="340.92"/></g><g id="Layer_20" data-name="Layer 20"><line class="cls-10" x1="172.55" y1="232.3" x2="172.55" y2="346.92"/><line class="cls-10" x1="183.19" y1="232.3" x2="183.19" y2="346.92"/><line class="cls-10" x1="204.49" y1="232.3" x2="204.49" y2="346.92"/><line class="cls-10" x1="193.84" y1="232.3" x2="193.84" y2="346.92"/><line class="cls-10" x1="236.43" y1="47.94" x2="236.43" y2="322.25"/><line class="cls-10" x1="248.65" y1="48.88" x2="248.65" y2="323.19"/><line class="cls-10" x1="261.8" y1="48.88" x2="261.8" y2="323.19"/><line class="cls-10" x1="274.95" y1="48.88" x2="274.95" y2="323.19"/><line class="cls-10" x1="382.05" y1="44.18" x2="382.05" y2="378.42"/><line class="cls-10" x1="394.26" y1="45.32" x2="394.26" y2="379.56"/><line class="cls-10" x1="407.41" y1="45.32" x2="407.41" y2="379.56"/><line class="cls-10" x1="420.56" y1="45.32" x2="420.56" y2="379.56"/><line class="cls-10" x1="314.41" y1="155.66" x2="314.41" y2="321"/><line class="cls-10" x1="327.1" y1="155.66" x2="327.1" y2="321"/><line class="cls-10" x1="466.12" y1="22.02" x2="466.12" y2="146.58"/><line class="cls-10" x1="483.03" y1="22.02" x2="483.03" y2="151.98"/><line class="cls-10" x1="499.94" y1="22.02" x2="499.94" y2="151.98"/><line class="cls-10" x1="516.85" y1="22.02" x2="516.85" y2="146.58"/><line class="cls-10" x1="339.78" y1="155.66" x2="339.78" y2="321"/><path class="cls-11" d="M159.36,57.39a46.09,46.09,0,0,1,16.38-8.45c14.62-4.35,29-.27,40.69,9.11,1.5,1.2,3.63-.91,2.12-2.12-11.92-9.53-26.33-14.2-41.41-10.48a49.5,49.5,0,0,0-19.9,9.82c-1.47,1.25.66,3.36,2.12,2.12Z"/><path class="cls-11" d="M159.36,105.28a45.76,45.76,0,0,1,16.38-8.45c14.62-4.36,29-.28,40.69,9.11,1.5,1.19,3.63-.91,2.12-2.12-11.92-9.54-26.33-14.21-41.41-10.49a49.63,49.63,0,0,0-19.9,9.82c-1.47,1.26.66,3.37,2.12,2.13Z"/><path class="cls-11" d="M159.36,153.16a46.09,46.09,0,0,1,16.38-8.45c14.62-4.35,29-.27,40.69,9.12,1.5,1.19,3.63-.92,2.12-2.13-11.92-9.53-26.33-14.2-41.41-10.48a49.63,49.63,0,0,0-19.9,9.82c-1.47,1.25.66,3.37,2.12,2.12Z"/><path class="cls-11" d="M159.36,201.05a45.76,45.76,0,0,1,16.38-8.45c14.62-4.36,29-.28,40.69,9.11,1.5,1.2,3.63-.91,2.12-2.12-11.92-9.53-26.33-14.2-41.41-10.48a49.38,49.38,0,0,0-19.9,9.82c-1.47,1.25.66,3.36,2.12,2.12Z"/><line class="cls-12" x1="294.31" y1="77.28" x2="361.48" y2="77.28"/><line class="cls-12" x1="294.31" y1="124.5" x2="361.48" y2="124.5"/><ellipse class="cls-9" cx="327.56" cy="99.23" rx="26.27" ry="12.64"/><path class="cls-13" d="M447.28,166.4s37.91,29.93,85.13.67"/><path class="cls-13" d="M447.28,265.5s37.91,29.93,85.13.66"/><path class="cls-13" d="M447.28,318.71s37.91,29.92,85.13.66"/><rect class="cls-14" x="468.13" y="209.84" width="42.1" height="42.1" transform="translate(306.54 -278.27) rotate(45)"/></g></g></svg>