<svg xmlns="http://www.w3.org/2000/svg" xmlns:xlink="http://www.w3.org/1999/xlink" viewBox="0 0 138.42 138.42"><defs><style>.cls-1{fill:#00698a;}.cls-2,.cls-4,.cls-8,.cls-9{fill:none;stroke-miterlimit:10;}.cls-2{stroke:#fff;}.cls-3{fill:#95d9e8;}.cls-4{stroke:#8a8b8c;}.cls-5{fill:#494949;}.cls-6{fill:#fcfdff;}.cls-7{fill:url(#linear-gradient);}.cls-8{stroke:#878787;stroke-width:1.5px;}.cls-9{stroke:#00698a;stroke-width:2px;}</style><linearGradient id="linear-gradient" x1="61.45" y1="40.57" x2="61.45" y2="24.68" gradientUnits="userSpaceOnUse"><stop offset="0" stop-color="#1a1f24"/><stop offset="0.28" stop-color="#272e36"/><stop offset="0.59" stop-color="#303943"/><stop offset="0.88" stop-color="#333d47"/><stop offset="1" stop-color="#333d47"/></linearGradient></defs><title>Asset 3</title><g id="Layer_2" data-name="Layer 2"><g id="Icons"><circle class="cls-1" cx="69.21" cy="69.21" r="69.21"/><circle class="cls-2" cx="97.58" cy="73.12" r="17.35"/><circle class="cls-2" cx="97.58" cy="73.12" r="11.2"/><circle class="cls-3" cx="97.58" cy="73.12" r="5.76"/><line class="cls-2" x1="97.58" y1="84.31" x2="97.58" y2="95.28"/><line class="cls-2" x1="97.58" y1="50.29" x2="97.58" y2="61.26"/><line class="cls-4" x1="86.06" y1="72.79" x2="75.09" y2="72.79"/><line class="cls-2" x1="120.08" y1="72.79" x2="109.11" y2="72.79"/><rect class="cls-5" x="34.12" y="32.32" width="54.91" height="68.76" rx="2.19"/><rect class="cls-6" x="38.6" y="37.48" width="45.95" height="58.44"/><path class="cls-7" d="M74.18,29.57H66.89a5.53,5.53,0,0,0-11,0H48.73a.88.88,0,0,0-.92.84v9.32a.88.88,0,0,0,.92.84H74.18a.88.88,0,0,0,.91-.84V30.41A.88.88,0,0,0,74.18,29.57Z"/><line class="cls-8" x1="53.48" y1="55.3" x2="79.53" y2="55.3"/><line class="cls-8" x1="53.48" y1="63.78" x2="79.53" y2="63.78"/><line class="cls-8" x1="53.48" y1="73.19" x2="79.53" y2="73.19"/><polyline class="cls-9" points="43.95 54.08 45.83 55.96 49.56 52.23"/><polyline class="cls-9" points="43.95 63.77 45.83 65.65 49.56 61.91"/><polyline class="cls-9" points="43.95 73.69 45.83 75.57 49.56 71.83"/></g></g></svg>