<svg xmlns="http://www.w3.org/2000/svg" viewBox="0 0 253.14 599.99"><defs><style>.cls-1{fill:#fff;}.cls-2,.cls-3{fill:#b8d2dd;}.cls-3{opacity:0.31;}.cls-4{fill:#e6e6e6;}.cls-5{fill:#6aa2b8;opacity:0.12;}.cls-6{fill:#a6c7d4;}.cls-7{fill:#96bfcc;}</style></defs><g id="Layer_2" data-name="Layer 2"><g id="Wedding_Dress"><ellipse class="cls-1" cx="27.53" cy="510.45" rx="19.84" ry="19.13"/><ellipse class="cls-1" cx="67.32" cy="510.45" rx="19.84" ry="19.13"/><ellipse class="cls-1" cx="107.12" cy="510.45" rx="19.84" ry="19.13"/><ellipse class="cls-1" cx="146.92" cy="510.45" rx="19.84" ry="19.13"/><ellipse class="cls-1" cx="186.72" cy="510.45" rx="19.84" ry="19.13"/><ellipse class="cls-1" cx="226.51" cy="510.45" rx="19.84" ry="19.13"/><ellipse class="cls-2" cx="65.37" cy="25.5" rx="6.29" ry="7.42"/><ellipse class="cls-2" cx="74.33" cy="14.73" rx="6.29" ry="7.42"/><ellipse class="cls-2" cx="86.04" cy="8.43" rx="6.29" ry="7.42"/><ellipse class="cls-2" cx="98.78" cy="7.42" rx="6.29" ry="7.42"/><ellipse class="cls-2" cx="110.66" cy="11.07" rx="6.29" ry="7.42"/><ellipse class="cls-2" cx="120.48" cy="19" rx="6.29" ry="7.42"/><ellipse class="cls-2" cx="192.91" cy="25.5" rx="6.29" ry="7.42"/><ellipse class="cls-2" cx="183.96" cy="14.73" rx="6.29" ry="7.42"/><ellipse class="cls-2" cx="172.25" cy="8.43" rx="6.29" ry="7.42"/><ellipse class="cls-2" cx="159.5" cy="7.42" rx="6.29" ry="7.42"/><ellipse class="cls-2" cx="147.62" cy="11.07" rx="6.29" ry="7.42"/><ellipse class="cls-2" cx="137.81" cy="19" rx="6.29" ry="7.42"/><path class="cls-3" d="M128.9,147.54h0A123.79,123.79,0,0,1,252.68,271.33V534.07A27.69,27.69,0,0,1,225,561.76H32.8A27.69,27.69,0,0,1,5.11,534.07V271.33A123.79,123.79,0,0,1,128.9,147.54Z"/><path class="cls-4" d="M241.3,512.36H12.6c-2.55,0-4.63-2.47-4.63-5.47L28.16,264.25c0-65.37,45.33-118.86,100.74-118.86h0c55.4,0,100.73,53.49,100.73,118.86l16.31,242.64C245.94,509.89,243.85,512.36,241.3,512.36Z"/><path class="cls-4" d="M128.5,28.65C122.29,15.21,109.09,5.94,93.81,5.94c-17.3,0-33.95,16.55-33.75,37.74.1,9.74,8.31,18.15,12,26.82,7.45,17.64,7.51,37.56,9.67,56.36l4,35c.85.17,21.14.27,22,.27h42.31c4.52,0,9-.05,13.56-.1,14.77-.16,10.82-20.63,11.91-30.14,1.69-14.68,1.06-31.71,5.89-45.68.5-1.45,1.06-2.87,1.62-4.3l10-25.48c5-12.76,6.21-22.75-1.92-34.83-6-9-16.13-15.61-27.15-15.61-15.28,0-28.48,9.27-34.69,22.71"/><path class="cls-5" d="M99.38,232.91a64.68,64.68,0,0,1,9.09-33.06,89.4,89.4,0,0,0,12.61-46c0-2.49-.11-5-.31-7.4-52.61,3.73-94.67,55.74-94.67,118.8L0,592.76c0,3,8,7.23,10.54,7.23H99.38Z"/><path class="cls-5" d="M157.8,232.91a64.68,64.68,0,0,0-9.09-33.06,89.4,89.4,0,0,1-12.61-46c0-2.49.11-5,.3-7.4,52.61,3.73,94.68,55.74,94.68,118.8l22.06,326.44c0,3-7.83,8.27-10.38,8.27h-85Z"/><rect class="cls-2" x="82.16" y="137.77" width="93.21" height="24.38"/><path class="cls-6" d="M148.35,128.29l-17.46,20.6,17.46,20.6c4.71,5.56,12.77,1.62,12.77-6.24V134.53C161.12,126.67,153.06,122.74,148.35,128.29Z"/><path class="cls-6" d="M112.66,128.29l17.46,20.6-17.46,20.6c-4.71,5.56-12.76,1.62-12.76-6.24V134.53C99.9,126.67,108,122.74,112.66,128.29Z"/><rect class="cls-7" x="124.18" y="144.68" width="13.78" height="10.97" rx="4.06"/></g></g></svg>