<svg xmlns="http://www.w3.org/2000/svg" viewBox="0 0 147.63 193.85"><defs><style>.cls-1{fill:#292b30;}.cls-2{fill:#9b9b9b;}.cls-3{fill:#848484;}.cls-4{fill:#00698a;}.cls-5{fill:#408ba6;}.cls-6{fill:#fcfdff;}.cls-7{fill:#f0f5f8;}.cls-8{fill:#333d47;}.cls-9{fill:#c9c8c7;}.cls-10,.cls-11,.cls-12{fill:none;stroke-linecap:round;stroke-miterlimit:10;}.cls-10{stroke:#333d47;}.cls-11{stroke:#666766;}.cls-12{stroke:gray;}.cls-13{fill:#6d6d6d;}.cls-14{fill:#999;}.cls-15{fill:#f4f4f4;}</style></defs><title>Asset 8</title><g id="Layer_2" data-name="Layer 2"><g id="Characters"><path class="cls-1" d="M28.56,50.69a23.78,23.78,0,0,1-1.08-20.81A20.12,20.12,0,0,1,43.85,17.72S48.51,3.51,77.34.44,118,11.09,119.82,17.05s2.69,15.16-3.37,23.23c0,0,16,2.1,18,15.48s-12.14,26.51-12.14,26.51,9.1,3.43,9.1,10.56c0,8.42-5.44,22.06-40.83,27.27-34.56,5.1-51.55-.87-54.2-7.73a12.19,12.19,0,0,1,2.87-13.06s-10.36,0-12.92-10.48,9.88-17.42,9.88-17.42Z"/><rect class="cls-2" x="61.65" y="100.27" width="26.2" height="51.13"/><path class="cls-3" d="M87.85,105.6s-2.9,9.15-26.21,10.27v-15.6h26.2Z"/><path class="cls-2" d="M74.92,106c16.68,0,30.67-19,34.5-44.18a93.34,93.34,0,0,0,1-13.88,35.54,35.54,0,0,0-71.07,0,93.34,93.34,0,0,0,1,13.88C44.24,87.08,58.24,106,74.92,106Z"/><path class="cls-1" d="M39.41,50.12S62.5,49,64.86,24.53c0,0,6.09,19.14,45.63,25.59H113S116.1,9.63,75.1,9.63,37.17,50.12,37.17,50.12Z"/><path class="cls-1" d="M64.86,24.53S65.24,43,81.5,50.12C81.5,50.12,70,39,70,24.53Z"/><path class="cls-1" d="M39.41,50.12s-6,18.68,4.81,27c0,0-3.48-17.18,0-28.87Z"/><path class="cls-1" d="M110.43,50.12s6,18.68-4.82,27c0,0,3.49-17.18,0-28.87Z"/><path class="cls-4" d="M147.62,184.33C130.8,199.53,99.51,192,75.05,192s-58.22,7.53-75-7.64c-.44-11.43,8.79-50.09,14.45-51.21,5.5-1.08,16.65-2.66,27.6-4.79,8.62-1.66,19.57-3.7,19.57-8.05s13.28,36,13.28,36,12.94-40.32,12.94-36,11,6.39,19.59,8.07c10.94,2.11,22.92,3.69,28.41,4.77S147.92,173.47,147.62,184.33Z"/><path class="cls-5" d="M54.31,125.56s-20.31,18.75-20,19,20,8.07,20,8.07l-3.53,8.49,23.52,26.5Z"/><path class="cls-5" d="M95.2,125.56s20.31,18.75,20,19-20,8.07-20,8.07l3.53,8.49-23.68,26.5Z"/><path class="cls-6" d="M95.2,125.56,74.8,188.08,54.31,125.56c4.22-1.3,7.33-3.31,7.33-5.63,0-4.35,0-8.36,0-8.36l13.27,40,12.94-40v8.36C87.86,122.25,91.09,124,95.2,125.56Z"/><path class="cls-7" d="M87.86,111.57l-4.59,14.27s-1,7,10.34,16.86L100.87,127S90.51,120.28,87.86,111.57Z"/><path class="cls-7" d="M61.65,111.57l5.16,15.56s.74,5.73-10.55,15.57L49,126.93S59,120.28,61.65,111.57Z"/><path class="cls-8" d="M83.66,49.44c-1.77.12-2.5-1.38-.93-1.93.52-.18,1.1-.36,1.72-.54a27.87,27.87,0,0,1,7.89-1.06,23.85,23.85,0,0,1,4.45.62,11.77,11.77,0,0,1,5,3s-4.5-1.71-7.61-1.63C90,48,87.73,49.17,83.66,49.44Z"/><path class="cls-8" d="M66.32,49.66c1.77.12,2.5-1.38.94-1.92-.53-.19-1.11-.37-1.73-.55a27.55,27.55,0,0,0-7.89-1,23.67,23.67,0,0,0-4.45.61,11.75,11.75,0,0,0-5,3s4.49-1.72,7.6-1.64C60,48.24,62.25,49.39,66.32,49.66Z"/><ellipse class="cls-9" cx="58.06" cy="59.8" rx="5.33" ry="3.57"/><circle class="cls-8" cx="58.06" cy="60.25" r="2.74"/><path class="cls-10" d="M51.52,59s6.39-6,12.5,0"/><path class="cls-11" d="M67.77,73.94A1.83,1.83,0,0,0,69.53,75a2.72,2.72,0,0,1,2.17.73,4.44,4.44,0,0,0,4.38.12A2.85,2.85,0,0,1,78.37,75a1.84,1.84,0,0,0,1.84-1.07"/><path class="cls-12" d="M69.47,93.61a38.6,38.6,0,0,0,9.81,0"/><path class="cls-13" d="M83.68,85.14a61.66,61.66,0,0,0-5.93-2.72c-1.49-.35-2.69.74-3.39,1.52-.82-.79-1.9-1.87-3.38-1.52-1.11.26-6.15,2.72-6.15,2.72s2.27,3.92,3,4.78a7.55,7.55,0,0,0,6.35,3A9.19,9.19,0,0,0,81,89.58,49.36,49.36,0,0,0,83.68,85.14Z"/><path class="cls-14" d="M105.38,65.9c.07,5.13,0,9.28,3.08,9.24s8.06-4.27,8-9.39-2.61-9.25-5.66-9.21S105.31,60.77,105.38,65.9Z"/><path class="cls-14" d="M44.29,67c-.07,5.13,0,9.29-3.06,9.24s-8-4.26-7.95-9.39,2.59-9.25,5.63-9.21S44.36,61.86,44.29,67Z"/><path class="cls-15" d="M74.2,86.54a21.94,21.94,0,0,1-8.51-1.46l-.18.08s1.78,1.55,2.47,2a10,10,0,0,0,6.23,1.72A12.25,12.25,0,0,0,80.92,87a15.51,15.51,0,0,0,2-2A21.59,21.59,0,0,1,74.2,86.54Z"/><path class="cls-10" d="M63.5,84.48s9.29,3.91,21.38,0"/><ellipse class="cls-9" cx="90.33" cy="60.01" rx="5.33" ry="3.57"/><circle class="cls-8" cx="90.33" cy="60.46" r="2.74"/><path class="cls-10" d="M96.83,58.92s-6.67-5.8-12.5,0"/></g></g></svg>