<svg xmlns="http://www.w3.org/2000/svg" viewBox="0 0 185.23 185.23"><defs><style>.cls-1{fill:#fff;}.cls-2{fill:#30373f;}.cls-3{fill:#c9c8c7;}</style></defs><g id="Layer_2" data-name="Layer 2"><g id="Info"><circle class="cls-1" cx="92.61" cy="92.61" r="92.61"/><path class="cls-2" d="M35.12,93.51C40.29,78.25,43.67,60,54,47.4a48.93,48.93,0,0,1,37.66-18c27.08,0,49.22,22.86,49.19,50.74a51.14,51.14,0,0,1-19.51,40.35,2.58,2.58,0,0,0-1,2v33.05l-47.86-.39.22-25.35H53.48a6.38,6.38,0,0,1-6.29-6.21l-1-24-.3-.75H38.81A4,4,0,0,1,35.12,93.51Z"/><path class="cls-3" d="M54.1,70.3a8.2,8.2,0,0,1,4.46-14.44,8.33,8.33,0,0,1-.11-3.35A8.22,8.22,0,0,1,68.76,46a8.2,8.2,0,0,1,14.09-5.28,8.2,8.2,0,0,1,14.52.51,8.19,8.19,0,0,1,14.8,4.85v.14a8,8,0,0,1,3.61-.49,8.24,8.24,0,0,1,7.37,6.91,8.11,8.11,0,0,1-.06,2.83,8.19,8.19,0,0,1,5,14.48,7,7,0,0,1,6.2,7.13,7.13,7.13,0,0,1-7.19,6.83H115.43a5.21,5.21,0,0,1,5.21,5.21h0a5.21,5.21,0,0,1-5.21,5.21h-9.7v10.71a4.13,4.13,0,0,1-4.12,4.12h0a4.13,4.13,0,0,1-4.13-4.12V94.28h0V89.83a7.53,7.53,0,0,0-5.31-5.89H56.53A7.14,7.14,0,0,1,49.33,77,7,7,0,0,1,54.1,70.3Z"/></g></g></svg>