<svg xmlns="http://www.w3.org/2000/svg" viewBox="0 0 120.8 120.8"><defs><style>.cls-1{fill:#40474e;}.cls-2{fill:#c9c8c7;}.cls-3{fill:#8a8b8c;}.cls-4,.cls-5,.cls-7{fill:none;stroke-miterlimit:10;}.cls-4{stroke:#333d47;stroke-width:1.37px;}.cls-5{stroke:#8a8b8c;stroke-width:3.42px;}.cls-6{fill:#a31f34;}.cls-7{stroke:#701f2c;stroke-linecap:round;stroke-width:2.02px;}</style></defs><g id="Layer_2" data-name="Layer 2"><g id="Layer_2-2" data-name="Layer 2"><circle class="cls-1" cx="60.4" cy="60.4" r="60.4"/><path class="cls-2" d="M82.47,92.6H38.33a2,2,0,0,1-2-2V30.16a2,2,0,0,1,2-2h33.4L84.43,41V90.64A2,2,0,0,1,82.47,92.6Z"/><polygon class="cls-3" points="71.73 40.9 84.43 40.9 71.73 28.2 71.73 40.9"/><line class="cls-4" x1="78.05" y1="45.99" x2="42.75" y2="45.99"/><line class="cls-4" x1="78.05" y1="55.67" x2="42.75" y2="55.67"/><line class="cls-4" x1="78.05" y1="65.35" x2="42.75" y2="65.35"/><line class="cls-4" x1="78.05" y1="75.03" x2="42.75" y2="75.03"/><circle class="cls-5" cx="60.51" cy="68.99" r="14.34"/><path class="cls-3" d="M74.43,80.36,71.88,82.9a2.76,2.76,0,0,1-3.91,0h0a1.16,1.16,0,0,1,.16-1.79,17.58,17.58,0,0,0,2.2-1.77,16.53,16.53,0,0,0,2.29-2.72,1.18,1.18,0,0,1,1.81-.17h0A2.76,2.76,0,0,1,74.43,80.36Z"/><rect class="cls-3" x="78.83" y="77.55" width="3.96" height="23.01" transform="translate(-39.31 83.22) rotate(-45)"/><path class="cls-6" d="M83,83.58h6.8a0,0,0,0,1,0,0v19.87a2.24,2.24,0,0,1-2.24,2.24H85.22A2.24,2.24,0,0,1,83,103.44V83.58A0,0,0,0,1,83,83.58Z" transform="translate(-41.62 88.79) rotate(-45)"/><line class="cls-7" x1="75.54" y1="88.6" x2="80.35" y2="83.79"/></g></g></svg>