<svg xmlns="http://www.w3.org/2000/svg" viewBox="0 0 173.35 173.35"><defs><style>.cls-1{fill:#fff;}.cls-2{fill:#333d47;}.cls-3{fill:#9f1f34;}</style></defs><g id="Layer_2" data-name="Layer 2"><g id="Info"><circle class="cls-1" cx="86.67" cy="86.67" r="86.67"/><rect class="cls-2" x="71.35" y="137.73" width="29.86" height="4.08"/><rect class="cls-2" x="70.7" y="146.49" width="27.52" height="4.08"/><path class="cls-2" d="M92.07,128.07c-2.35,2.11-4.16,4.35-6.54,6.49l6.93,9.12a6.48,6.48,0,0,1,2.29,2.71h-.23l4.22,5.53H109C106,142.94,98.66,134.17,92.07,128.07Z"/><path class="cls-3" d="M92.19,50.18c-2.25,2-4.5,4.35-6.54,6.19C89,60.19,94,65.29,96.93,69.18c8.63,11.48,8.89,28.54.53,40.29a77.49,77.49,0,0,1-9.23,10.28c-5.43,5.32-11.2,10.12-16.54,15.56a42.36,42.36,0,0,0-10.24,16.61h8.94a28.16,28.16,0,0,1,4.12-6.19c3.88-4.43,8.21-8.25,12.29-12.4,5.53-5.62,11.5-10.74,16.41-17.08,7.65-9.89,9.79-22.12,7.5-35.46C108.54,68.19,100.19,57.69,92.19,50.18Z"/><path class="cls-2" d="M91,39.39c-5.92,5.68-12.15,10.9-18,16.7C64.59,64.47,59.2,75,59,88.75c-.29,17.07,8.86,30.61,19.52,40.23,2.24-2,4.34-4.22,6.42-6-3.51-4-8.72-9.08-11.72-13.26-8.5-11.84-8.35-29,.44-40.5,3.44-4.49,7.62-8.15,11.52-12.11,5.85-5.93,12-11.41,17.55-17.79a34.58,34.58,0,0,0,6.77-12.72h-9A41,41,0,0,1,91,39.39Z"/><path class="cls-3" d="M78.86,50.94c2.27-2,4.24-4.12,6.42-6a13,13,0,0,0-2.1-1.85c-1.2-1.19-2.42-2.36-3.63-3.55a44.3,44.3,0,0,1-9.49-12.94H61.15C64.14,36,72,44.59,78.86,50.94Z"/><path class="cls-2" d="M94.52,146.39h.23a6.48,6.48,0,0,0-2.29-2.71"/><rect class="cls-2" x="69.72" y="28.75" width="32.97" height="4.08"/><rect class="cls-3" x="72.12" y="64.38" width="30.2" height="4.08"/><rect class="cls-3" x="67.58" y="75.7" width="34.84" height="4.08"/><rect class="cls-3" x="63.39" y="87.93" width="43.51" height="4.08"/><rect class="cls-3" x="65.26" y="100.3" width="41.15" height="4.08"/><rect class="cls-3" x="70.16" y="111.63" width="30.75" height="4.08"/><rect class="cls-2" x="74.53" y="37.96" width="23.56" height="4.08"/></g></g></svg>