<svg xmlns="http://www.w3.org/2000/svg" xmlns:xlink="http://www.w3.org/1999/xlink" viewBox="0 0 128.21 128.21"><defs><style>.cls-1{fill:none;}.cls-2,.cls-3{fill:#a31f34;stroke:#a31f34;stroke-miterlimit:10;}.cls-2{opacity:0.5;}.cls-4{fill:url(#Degradado_sin_nombre_101);}.cls-5{clip-path:url(#clip-path);}.cls-6{fill:#7a1727;}</style><linearGradient id="Degradado_sin_nombre_101" x1="852" y1="2147.39" x2="931.41" y2="2147.39" gradientTransform="translate(1806.88 1603.15) rotate(154)" gradientUnits="userSpaceOnUse"><stop offset="0" stop-color="#e6e6e6"/><stop offset="0.54" stop-color="#f7f7f7"/><stop offset="1" stop-color="#fff"/></linearGradient><clipPath id="clip-path"><circle class="cls-1" cx="63.98" cy="63.27" r="40.47" transform="translate(-18.8 98.54) rotate(-67.76)"/></clipPath></defs><g id="Layer_2" data-name="Layer 2"><g id="Layer_9" data-name="Layer 9"><circle class="cls-2" cx="64.1" cy="64.1" r="63.59" transform="translate(-6.84 120.55) rotate(-83.51)"/><circle class="cls-3" cx="64.1" cy="64.1" r="52.95" transform="translate(-26.55 64.1) rotate(-45)"/><circle class="cls-4" cx="64.1" cy="64.1" r="39.7" transform="translate(-19.49 99.18) rotate(-67.76)"/><g class="cls-5"><path class="cls-6" d="M16.12,72.69H53.46C48.29,87,43.23,100.92,38.18,114.86H16.12Z"/><path class="cls-6" d="M92.76,114.86C87.71,100.92,82.66,87,77.48,72.69h37.34v42.17Z"/><path class="cls-6" d="M60.3,53.86a1.21,1.21,0,0,0,.56,1.65c1.28.58,2.5,1.13,3.68,1.76A3.5,3.5,0,0,1,66,58.73c1,2.05,1.82,4.17,2.73,6.26.41.92.42,1.77-.59,2.21s-1.7-.17-2.1-1.15c-.65-1.57-1.42-3.09-2-4.68a3.42,3.42,0,0,0-2.13-2.16c-1.44-.6-2.84-1.27-4.32-2a1.2,1.2,0,0,0-1.51.43A40.63,40.63,0,0,1,53.8,61a13,13,0,0,1-2.68,2.55c-1.46,1-3.07,1.85-4.6,2.79-.9.55-1.77.72-2.39-.3s.12-1.69.95-2.21a5.62,5.62,0,0,1,.74-.45c3.76-1.54,6-4.41,7.59-8.09a71.83,71.83,0,0,1,3.3-6.56,2.57,2.57,0,0,0-.44-3.07A19.82,19.82,0,0,1,51.82,38c-.29-.81-.47-1.57.44-2s1.42.19,1.78,1c1.06,2.32,1.84,4.76,3.81,6.6a13.68,13.68,0,0,0,7,3.59,11,11,0,0,0,6.5-.74A3.52,3.52,0,0,1,72.85,46a2.71,2.71,0,0,1,.41.09A1.19,1.19,0,0,1,73.83,48a.91.91,0,0,1-.26.19c-3.15,1.33-6.39,2.29-9.86,1.45-1-.24-1.39.16-1.76,1C61.45,51.7,60.88,52.76,60.3,53.86Z"/><path class="cls-6" d="M63.16,44.72a2.64,2.64,0,0,1-2.67-2.67,2.66,2.66,0,1,1,5.32,0A2.66,2.66,0,0,1,63.16,44.72Z"/></g></g></g></svg>