<svg xmlns="http://www.w3.org/2000/svg" viewBox="0 0 286.83 1020.42"><defs><style>.cls-1{fill:#8a8b8c;}.cls-2{fill:#b9baba;}.cls-3{fill:#cfcfcf;}.cls-4{fill:#e8e8e8;}</style></defs><g id="Layer_2" data-name="Layer 2"><g id="Layer_1-2" data-name="Layer 1"><path class="cls-1" d="M21.19,94.07h0A10.9,10.9,0,0,0,10.28,105V780.31H32.09V105A10.9,10.9,0,0,0,21.19,94.07Z"/><polygon class="cls-2" points="34.09 731.09 257.61 673.88 257.61 1020.42 34.09 1020.42 34.09 731.09"/><path class="cls-2" d="M257.61,673.88l-11.74-19.45v28.74S248.32,686.36,257.61,673.88Z"/><polygon class="cls-3" points="245.87 655.04 22.35 578.39 22.35 944.38 245.87 944.38 245.87 655.04"/><polygon class="cls-4" points="22.35 596.24 245.87 672.9 245.87 655.04 22.35 578.39 22.35 596.24"/><polygon class="cls-4" points="22.35 673.88 245.87 760.28 245.87 810.88 22.35 726.48 22.35 673.88"/><polygon class="cls-4" points="22.35 743.14 245.87 829.54 245.87 842.32 22.35 757.92 22.35 743.14"/><polygon class="cls-2" points="34.09 259.33 257.61 316.54 257.61 0 34.09 0 34.09 259.33"/><path class="cls-2" d="M257.61,316.54,245.87,336V307.25S248.32,304.06,257.61,316.54Z"/><polygon class="cls-3" points="22.35 259.33 245.87 335.99 245.87 0 22.35 0 22.35 259.33"/><polygon class="cls-4" points="22.35 259.33 245.87 335.99 245.87 318.14 22.35 241.48 22.35 259.33"/><polygon class="cls-4" points="22.35 43.8 245.87 127.2 245.87 177.79 22.35 96.4 22.35 43.8"/><polygon class="cls-4" points="22.35 113.06 245.87 196.46 245.87 209.24 22.35 127.84 22.35 113.06"/><circle class="cls-1" cx="21.19" cy="87.93" r="21.19"/></g><g id="Layer_5" data-name="Layer 5"><rect class="cls-1" x="254.74" y="94.07" width="21.81" height="686.24"/><circle class="cls-1" cx="265.65" cy="87.93" r="21.19"/></g></g></svg>