<svg xmlns="http://www.w3.org/2000/svg" xmlns:xlink="http://www.w3.org/1999/xlink" viewBox="0 0 120 120"><defs><style>.cls-1,.cls-3{fill:#30373f;}.cls-1,.cls-6{stroke:#8a8b8c;stroke-width:3.32px;}.cls-1,.cls-6,.cls-9{stroke-miterlimit:10;}.cls-2{fill:#40474e;}.cls-4{clip-path:url(#clip-path);}.cls-5{fill:#4d5255;}.cls-6,.cls-9{fill:none;}.cls-7{fill:#8a8b8c;}.cls-8{fill:#a31f34;}.cls-9{stroke:#701f2c;stroke-linecap:round;stroke-width:3.09px;}.cls-10{font-size:40.34px;fill:#c9c8c7;font-family:OpenSans-Bold, Open Sans;font-weight:700;}</style><clipPath id="clip-path"><circle class="cls-1" cx="60.66" cy="60.58" r="26.08"/></clipPath></defs><g id="Layer_2" data-name="Layer 2"><g id="Layer_2-2" data-name="Layer 2"><circle class="cls-2" cx="60" cy="60" r="60"/><circle class="cls-3" cx="60.66" cy="60.58" r="26.08"/><g class="cls-4"><path class="cls-5" d="M75.84,38.94a26.08,26.08,0,0,0-35.48,37"/></g><circle class="cls-6" cx="60.66" cy="60.58" r="26.08"/><path class="cls-7" d="M85.51,80.07,81.61,84a4.26,4.26,0,0,1-6,0h0a1.79,1.79,0,0,1,.25-2.75,25.93,25.93,0,0,0,3.36-2.71,25.33,25.33,0,0,0,3.52-4.17,1.8,1.8,0,0,1,2.77-.27h0A4.24,4.24,0,0,1,85.51,80.07Z"/><rect class="cls-7" x="92.25" y="75.78" width="6.06" height="35.26" transform="translate(-38.14 94.73) rotate(-45)"/><path class="cls-8" d="M97,85.69h10.43a0,0,0,0,1,0,0v26a3.21,3.21,0,0,1-3.21,3.21h-4A3.21,3.21,0,0,1,97,111.7v-26A0,0,0,0,1,97,85.69Z" transform="translate(-41 101.62) rotate(-45)"/><line class="cls-9" x1="87.21" y1="92.71" x2="94.59" y2="85.34"/><text class="cls-10" transform="translate(51.74 75.24)">?</text></g></g></svg>