<svg xmlns="http://www.w3.org/2000/svg" viewBox="0 0 159.7 198.93"><defs><style>.cls-1{fill:#999;}.cls-2{fill:#545759;}.cls-3{fill:#848484;}.cls-4{fill:#fcfdff;}.cls-5{fill:#f0f5f8;}.cls-6{fill:#a31f34;}.cls-7{fill:#b54c5d;}.cls-11,.cls-8{fill:none;stroke-linecap:round;stroke-miterlimit:10;}.cls-8{stroke:#333d47;}.cls-9{fill:#333d47;}.cls-10{fill:#c9c8c7;}.cls-11{stroke:#545759;}.cls-12{fill:#f4f4f4;}</style></defs><title>Asset 12</title><g id="Layer_2" data-name="Layer 2"><g id="Characters"><path class="cls-1" d="M112.83,58.52c.31-.14,1.85-.14,2.18-.22a7,7,0,0,1,5.59.78,6.31,6.31,0,0,1,2.08,2.58,7.3,7.3,0,0,1-.07,6.48c-.86,1.63-2.39,2.91-3,4.65a25.2,25.2,0,0,0-.59,3.14c-.86,4-5,6.74-9.36,6.7a1.8,1.8,0,0,0-2,1.37"/><path class="cls-1" d="M41.59,59.94c-.31-.14-1.85-.14-2.18-.22a7,7,0,0,0-5.59.79,6.27,6.27,0,0,0-2.09,2.58,7.3,7.3,0,0,0,.08,6.48c.86,1.62,2.39,2.91,3,4.64a27.17,27.17,0,0,1,.59,3.14c.85,4,5,6.74,9.36,6.7a1.8,1.8,0,0,1,2,1.37"/><path class="cls-2" d="M65.17,12.11H89.33a28.26,28.26,0,0,1,28.26,28.26V69.51a0,0,0,0,1,0,0H36.92a0,0,0,0,1,0,0V40.36A28.26,28.26,0,0,1,65.17,12.11Z"/><path class="cls-2" d="M102,18S106.12,4.47,93.54.84C79.69-3.16,73.9,8.39,73.9,8.39s-5.61-9-15.83-4.66c-8.46,3.61-7,13-7,13Z"/><path class="cls-2" d="M36.92,59.48a72.94,72.94,0,0,0-1.27-9.75c-1.06-5.29-4.33-15.54,3.84-20.11,0,0-3.48-8,3-11.85,7.08-4.23,11.22,1.94,11.22,1.94v11L43.9,49.55v9.88Z"/><path class="cls-2" d="M117.22,59.48a73.82,73.82,0,0,1,1.26-9.75c1.06-5.29,4.33-15.54-3.83-20.11,0,0,3.94-6.82-2.2-11.21a10,10,0,0,0-12-.22V30.73l9.8,18.82v9.88Z"/><rect class="cls-1" x="56.22" y="105.64" width="41.7" height="48.86"/><path class="cls-3" d="M97.92,105.64v5.82S88.16,128,56.22,126.88V105.64Z"/><path class="cls-4" d="M137.12,137.8c-9.21-1.5-24.73-2.15-31.58-6.21a15.9,15.9,0,0,1-7.63-11l-20.84,26.6-20.85-26.6a15.9,15.9,0,0,1-7.63,11c-6.85,4.06-22.37,8-31.58,9.47C8.2,142.5,1.68,181.55,0,189.56c14,16.82,40.2,2.25,62.71,6.13a94.75,94.75,0,0,0,32.34,0c22.52-3.86,50.63,8,64.65-8.83C158,178.85,145.93,139.24,137.12,137.8Z"/><polygon class="cls-5" points="56.22 117.89 43.24 134.08 55.55 165.1 69.01 136.94 56.22 117.89"/><polygon class="cls-5" points="97.92 117.89 110.9 134.08 98.58 165.1 85.12 136.94 97.92 117.89"/><path class="cls-6" d="M93.22,197.54a94.75,94.75,0,0,1-32.34,0L71.2,160.09H82.92Z"/><path class="cls-7" d="M77.07,147.22a47.68,47.68,0,0,0-14,2.25s5.48,12.63,14,12.63,14-12.63,14-12.63A47.35,47.35,0,0,0,77.07,147.22Z"/><path class="cls-1" d="M77.07,116.39c21.2,0,35.38-27.41,35.38-59.1a35.39,35.39,0,0,0-70.77,0C41.68,89,55.87,116.39,77.07,116.39Z"/><path class="cls-2" d="M77.05,27.73c14.74,0,24,3.55,24,3.55a148.51,148.51,0,0,0,7.43,21.08V73.18a2.33,2.33,0,0,0,4,1.67h0V59.43c1.76-10.46-6.91-39.08-35.37-39.08S40.58,47.6,41.68,59.43V74.85h0a2.33,2.33,0,0,0,4-1.67V52.36A125.48,125.48,0,0,0,53.7,30.73S62.32,27.73,77.05,27.73Z"/><circle class="cls-2" cx="70.01" cy="34.57" r="11.33" transform="translate(24.64 98.12) rotate(-80.76)"/><path class="cls-2" d="M76.45,30.53a7.29,7.29,0,1,1,7.28,7.28A7.28,7.28,0,0,1,76.45,30.53Z"/><circle class="cls-2" cx="56.22" cy="36.76" r="8.34"/><path class="cls-2" d="M90.73,30.53a10.67,10.67,0,0,1,1.38-5.27C94,22,110.48,37.11,107.9,39.07a10.71,10.71,0,0,1-17.17-8.54Z"/><path class="cls-8" d="M72,98.23a18.67,18.67,0,0,0,7.84.81"/><path class="cls-9" d="M69.4,54.62c1.88-.33,2.11-2.77.29-3.14-.61-.12-1.28-.23-2-.31a21.37,21.37,0,0,0-8.56.7,15,15,0,0,0-4.4,2.19A11.58,11.58,0,0,0,52.2,56.9s2.51-.75,5.77-1.53C62.31,54.32,65.08,55.38,69.4,54.62Z"/><ellipse class="cls-10" cx="61.89" cy="65.11" rx="4.55" ry="3.05"/><circle class="cls-9" cx="61.89" cy="64.73" r="2.34"/><path class="cls-8" d="M55.28,63.77s6.61-4.69,12.64,0"/><path class="cls-9" d="M84.73,51.73c-1.88-.34-2.08-2.78-.26-3.13.61-.12,1.28-.23,2-.3a21.52,21.52,0,0,1,8.56.76,15.11,15.11,0,0,1,4.38,2.22,11.78,11.78,0,0,1,2.52,2.86s-2.5-.77-5.76-1.58C91.82,51.48,89.05,52.53,84.73,51.73Z"/><ellipse class="cls-10" cx="91.2" cy="65.11" rx="4.55" ry="3.05"/><circle class="cls-9" cx="91.2" cy="64.73" r="2.34"/><path class="cls-8" d="M97.81,63.77s-6.61-4.69-12.64,0"/><path class="cls-11" d="M69.05,82c.12,1.06,2.63,1.35,2.63,1.35s2.33-.3,3.06.91c0,0,1.84,1.51,3.19.15,0,0,2-1.4,2.95-1.16a2.46,2.46,0,0,0,1,0c.8-.17,2-.54,2.29-1.22"/><path class="cls-12" d="M88.18,89.8c0,.16-.78.91-1,1.22-4.76,6.25-19.77,5.59-23.81-1.26a2.53,2.53,0,0,0-1.43-1.28C69.25,90,72.6,92.06,85.33,90,86.1,89.88,88,89.24,88.18,89.8Z"/><path class="cls-8" d="M90.72,89s-16,5.4-29.51-.92"/></g></g></svg>