<svg xmlns="http://www.w3.org/2000/svg" viewBox="0 0 181.88 335.97"><defs><style>.cls-1{fill:#c9c8c7;}.cls-2{fill:#041d40;}.cls-3{fill:#364a66;opacity:0.22;}.cls-4{fill:#00698a;}.cls-5{fill:#8a8b8c;}.cls-6{fill:#6aa2b8;}</style></defs><g id="Layer_2" data-name="Layer 2"><g id="Ref_"><rect class="cls-1" y="63.69" width="169.36" height="208.59" rx="3.07"/><rect class="cls-2" x="16.28" y="79.96" width="136.8" height="176.04" rx="1.53"/><path class="cls-3" d="M16.28,212.13V87.32A7.36,7.36,0,0,1,23.63,80h117.2"/><polygon class="cls-4" points="153.08 63.69 16.28 63.69 35.9 0 133.46 0 153.08 63.69"/><polygon class="cls-4" points="16.28 272.28 153.08 272.28 133.46 335.96 35.9 335.96 16.28 272.28"/><rect class="cls-5" x="169.36" y="143.33" width="12.52" height="49.31"/><rect class="cls-6" x="54.45" y="185.08" width="8.64" height="8.64"/><rect class="cls-6" x="67.41" y="185.08" width="8.64" height="8.64"/><rect class="cls-6" x="67.41" y="176.45" width="8.64" height="8.64"/><rect class="cls-6" x="80.36" y="202.35" width="8.64" height="8.64"/><rect class="cls-6" x="67.41" y="193.72" width="8.64" height="8.64"/><rect class="cls-6" x="93.31" y="193.72" width="8.64" height="8.64"/><rect class="cls-6" x="93.31" y="176.45" width="8.64" height="8.64"/><rect class="cls-6" x="80.36" y="193.72" width="8.64" height="8.64"/><rect class="cls-6" x="80.36" y="185.08" width="8.64" height="8.64"/><rect class="cls-6" x="93.31" y="185.08" width="8.64" height="8.64"/><rect class="cls-6" x="106.27" y="185.08" width="8.64" height="8.64"/></g><g id="NeutralFace"><rect class="cls-6" x="40.06" y="133" width="8.12" height="16.61"/><rect class="cls-6" x="48.18" y="133" width="8.12" height="16.61"/><rect class="cls-6" x="113.06" y="133" width="8.12" height="16.61"/><rect class="cls-6" x="121.18" y="133" width="8.12" height="16.61"/></g></g></svg>