<svg xmlns="http://www.w3.org/2000/svg" viewBox="0 0 120 120"><defs><style>.cls-1{fill:#40474e;}.cls-2,.cls-5{fill:none;stroke-miterlimit:10;}.cls-2{stroke:#a31f34;stroke-width:8.5px;}.cls-3{fill:#a31f34;}.cls-4{fill:#c9c8c7;}.cls-5{stroke:#8a8b8c;stroke-width:1.31px;}</style></defs><g id="Layer_2" data-name="Layer 2"><g id="Layer_2-2" data-name="Layer 2"><circle class="cls-1" cx="60" cy="60" r="60"/><line class="cls-2" x1="106.15" y1="60.73" x2="89.55" y2="60.73"/><polygon class="cls-3" points="92.03 52.26 77.35 60.73 92.03 69.2 92.03 52.26"/><line class="cls-2" x1="13.85" y1="60.73" x2="30.45" y2="60.73"/><polygon class="cls-3" points="27.98 69.2 42.65 60.73 27.98 52.26 27.98 69.2"/><polygon class="cls-4" points="66.64 27.86 50.02 64.38 58.33 64.38 55.6 93.6 72.7 59.1 63.22 58.48 66.64 27.86"/><line class="cls-5" x1="83.83" y1="31.81" x2="71.59" y2="48.19"/><line class="cls-5" x1="50.02" y1="73.64" x2="37.26" y2="90.65"/><line class="cls-5" x1="38.07" y1="34.25" x2="50.88" y2="48.19"/><line class="cls-5" x1="53.68" y1="31.81" x2="56.43" y2="40.29"/><line class="cls-5" x1="68.42" y1="77.72" x2="76.98" y2="92.27"/><line class="cls-5" x1="79.34" y1="77.34" x2="85.1" y2="82.15"/></g></g></svg>