<svg xmlns="http://www.w3.org/2000/svg" viewBox="0 0 416.77 113.25"><defs><style>.cls-1{fill:#7c7d7e;}.cls-2,.cls-5{fill:#115d76;}.cls-3,.cls-6{fill:#85b3c5;}.cls-4{fill:#157493;}.cls-5,.cls-6{font-size:54.35px;font-family:OpenSans-Extrabold, Open Sans;font-weight:800;}</style></defs><g id="Layer_2" data-name="Layer 2"><g id="Layer_1-2" data-name="Layer 1"><rect class="cls-1" x="40.77" width="11.77" height="113.25"/><path class="cls-2" d="M92.31,56.62C92.31,25.35,73.06,0,50.54,0S9.77,25.35,9.77,56.62,28,113.25,50.54,113.25,92.31,87.89,92.31,56.62Z"/><ellipse class="cls-3" cx="40.77" cy="56.62" rx="40.77" ry="56.62"/><ellipse class="cls-4" cx="40.77" cy="56.62" rx="33.23" ry="46.15"/><text class="cls-5" transform="translate(29.81 75.01) scale(0.72 1)">1</text><text class="cls-6" transform="translate(24.66 75.01) scale(0.72 1)">1</text><path class="cls-2" d="M15.08,56.62C15.08,32.9,28,13.37,44.54,10.77a24.79,24.79,0,0,0-3.77-.3c-18.35,0-33.23,20.66-33.23,46.15s14.88,46.16,33.23,46.16a23.58,23.58,0,0,0,3.77-.31C28,99.87,15.08,80.34,15.08,56.62Z"/><rect class="cls-1" x="203.2" width="11.77" height="113.25"/><path class="cls-2" d="M254.74,56.62C254.74,25.35,235.49,0,213,0S172.2,25.35,172.2,56.62s18.26,56.63,40.77,56.63S254.74,87.89,254.74,56.62Z"/><ellipse class="cls-3" cx="203.2" cy="56.62" rx="40.77" ry="56.62"/><ellipse class="cls-4" cx="203.2" cy="56.62" rx="33.23" ry="46.15"/><text class="cls-5" transform="translate(192.24 75.01) scale(0.72 1)">1</text><text class="cls-6" transform="translate(187.08 75.01) scale(0.72 1)">1</text><path class="cls-2" d="M177.51,56.62c0-23.72,12.88-43.25,29.46-45.85a24.9,24.9,0,0,0-3.77-.3C184.85,10.47,170,31.13,170,56.62s14.88,46.16,33.23,46.16a23.67,23.67,0,0,0,3.77-.31C190.39,99.87,177.51,80.34,177.51,56.62Z"/><rect class="cls-1" x="365.22" width="11.77" height="113.25"/><path class="cls-2" d="M416.77,56.62C416.77,25.35,397.51,0,375,0s-40.77,25.35-40.77,56.62,18.25,56.63,40.77,56.63S416.77,87.89,416.77,56.62Z"/><ellipse class="cls-3" cx="365.22" cy="56.62" rx="40.77" ry="56.62"/><ellipse class="cls-4" cx="365.22" cy="56.62" rx="33.23" ry="46.15"/><text class="cls-5" transform="translate(354.27 75.01) scale(0.72 1)">1</text><text class="cls-6" transform="translate(349.11 75.01) scale(0.72 1)">1</text><path class="cls-2" d="M339.53,56.62c0-23.72,12.88-43.25,29.46-45.85a24.79,24.79,0,0,0-3.77-.3C346.87,10.47,332,31.13,332,56.62s14.88,46.16,33.23,46.16a23.58,23.58,0,0,0,3.77-.31C352.41,99.87,339.53,80.34,339.53,56.62Z"/></g></g></svg>