<svg xmlns="http://www.w3.org/2000/svg" viewBox="0 0 865.41 301.07"><defs><style>.cls-1{fill:#dfdedd;}.cls-1,.cls-2{fill-rule:evenodd;}.cls-2{fill:#b2b2b2;}.cls-3{fill:none;stroke:#545454;stroke-linecap:round;stroke-miterlimit:10;stroke-width:1.5px;stroke-dasharray:0.5 6;}.cls-4,.cls-9{fill:#a31f34;}.cls-4{opacity:0.23;}.cls-5{fill:#967983;opacity:0.35;}.cls-12,.cls-6{fill:#404040;}.cls-6{opacity:0.26;}.cls-11,.cls-7,.cls-8{fill:#00698a;}.cls-7{opacity:0.22;}.cls-8{opacity:0.1;}.cls-10{fill:#6aa2b8;}.cls-13{fill:#806273;}</style></defs><g id="Layer_2" data-name="Layer 2"><g id="mark-up"><path class="cls-1" d="M4.75,301.07v-248C210.36-28.37,682-10.72,864.1,69.52l1.31,231.55Z"/><path class="cls-2" d="M68.25,63c.65-.38.6-.72.25-.89s-.93-.24-1.21-.43c-.72-.5.62-1.75-.59-2-.92-.21-3.16.22-3.18-.33,0-.1.06-.22,0-.29-.26-.2-1.42.19-2.27.43-1.55.44-3,.41-3.11-.07,0-.13,0-.3-.13-.39-.42-.25-2.18.16-2.33-.19-.06-.15.22-.41.06-.53-.36-.25-2,.39-3,.55a5.64,5.64,0,0,1-1.51,0c-2.06-.14-6.27,1-7.15.32-.22-.17-.22-.44-.77-.44a7.2,7.2,0,0,0-1.62.35A7.71,7.71,0,0,0,39,60.16c.51,0,1,.06.84.34a4.74,4.74,0,0,1-2.26.87,14.38,14.38,0,0,0-2.44.45,16.29,16.29,0,0,0-2.54,1.28c-.84.44-2.32.89-2.48.61s.39-.49.84-.76l2.73-1.67a3.62,3.62,0,0,1,.59-.31c.53-.2,1-.2,1.58-.37.72-.21,1.21-.65,1-.8a3.17,3.17,0,0,0-1.71.17,17.89,17.89,0,0,0-2.08.8c-2.4,1-4.73,2.13-7,3.25-.43.21-.92.49-.78.6s.36,0,.51.06.07.2-.22.28c-2.2,1.39-6.13,2.4-8.76,3.77-.52.28-1,.56-1.55.83-.72.34-1.52.64-2.31.94L5.15,73.41a9.71,9.71,0,0,1-1.35.45c-.3.06-.56.08-.87.16-1,.24-2,.92-2.93,1.09A5.26,5.26,0,0,1,2.16,74c.9-.3,1.8-.5,2.7-.83s1.62-.68,2.42-1c2.06-.9,4.42-1.65,6.14-2.63,1.23-.71,2-1.45,3.38-2.11.93-.44,2.35-1,2.1-1.27-3,.71-6,1.29-8.78,1.74a2.44,2.44,0,0,1-1.06,0c-.36-.2.83-.88.75-1.19s-.62-.18-1-.23-.54-.3.06-.6c-1.19.46-2.84,1-3.12.7s1.07-1.11.36-1.17a9.63,9.63,0,0,0-1.25.18c-.59.06-.79-.15-.45-.46a4.61,4.61,0,0,1,1.84-.81,6.64,6.64,0,0,0,.91-.18c.94-.31.79-.72,1.16-1.11a4.68,4.68,0,0,1,2.51-.94c.3,0,.42.13.74.13,1.25,0,3.5-1.4,5.08-1.65a4.75,4.75,0,0,0,.93-.18,2,2,0,0,0,.75-.47c.5-.49.81-1.05-.14-1a14.87,14.87,0,0,0-2.21.63,6.52,6.52,0,0,1-2.51.34,2.17,2.17,0,0,0-.78-.08,13,13,0,0,0-1.79.53c-1.33.41-2.49.38-2.38-.08,0-.13.16-.29.05-.37-.32-.24-2.29.37-2.3,0s.78-.59,1.45-.79,1.25-.27,1.88-.4a15.7,15.7,0,0,0,3.78-1.32c1-.22.23.54.84.61a3.77,3.77,0,0,0,.86-.1l4.86-.9c.25-.33-.35-.43-1.16-.2a2.44,2.44,0,0,1,1.08-.46,7,7,0,0,0,1.24-.31c.55-.23.71-.52.46-.6a4.07,4.07,0,0,0-1.25,0,27.11,27.11,0,0,1-6.37,0c.44-.53.89-1.11,1.32-1.64a16.08,16.08,0,0,1,3.11-.33,16.4,16.4,0,0,0,5.07-2.06,18.5,18.5,0,0,1,4.88-2.21c.7-.17,1.32-.24,2-.39a26.4,26.4,0,0,0,3.35-1.06,21.68,21.68,0,0,1,3.32-1c1.05-.18,1.84,0,1.39.42l2.83-.66a3.68,3.68,0,0,1,.73-.12c.26,0,.31.09.48.14.67.19,2.68-.51,3.71-.51.39,0,.6.11,1,.08.92,0,2.3-.64,3.31-.76s1.31.23,2.38,0c.75-.14,1.65-.53,2.3-.58A2.39,2.39,0,0,1,56,45c1,.17,3.34-.61,4.7-.64a8.35,8.35,0,0,0,.85,0c.58-.06,1.29-.32,1.91-.44a7.93,7.93,0,0,1,1.29-.12l6.57-.17a4.4,4.4,0,0,1,2.52-.1,3.82,3.82,0,0,1,1.16.71,1.47,1.47,0,0,0,1.17.05c.58-.17.88-.47.91-.66s-.08-.38.22-.62a5.74,5.74,0,0,1,1.91-.72c.7-.17,1.4-.28,2.11-.49.54-.17,1.06-.39,1.61-.52s1.13-.12.9.1l4-1.39a2.55,2.55,0,0,1,.9-.2c.26,0-.12.29-.5.45a38.92,38.92,0,0,1-4.31,1.32c-1.47.41-3.14,1.05-3.56,1.61,0,.06-.07.11,0,.15s.53,0,.9-.09a30.46,30.46,0,0,0,3.14-1.32c.57-.23,1.2-.43,1.82-.61l4.08-1.23a5.72,5.72,0,0,0,1.11-.42c.76-.42.15-.76,1-1.16a2.3,2.3,0,0,1,1.92-.12c.21.22,0,.56.3.76.56.42,2.9.1,3.07.64,0,.11,0,.25.08.34a1,1,0,0,0,.81,0A1.28,1.28,0,0,0,99,39.8l1.56-1.27.88.41a4.29,4.29,0,0,1,1.91-.75,6.9,6.9,0,0,1,1.89-.07c2.09.17,3.6.73,6.29.48.67-.06,1.4-.17,2-.18a3.42,3.42,0,0,1,2.39.7l.81-.44,1.37-.06a11.44,11.44,0,0,1-1.8,1c2.44-.39,4.92-.84,7.4-1.28l4.67-.84a11.72,11.72,0,0,0,3.22-.89,6.59,6.59,0,0,1,1.93-1.09,1.86,1.86,0,0,1,1.76.28,2.52,2.52,0,0,0,2.08,0c.17.15,0,.41-.36.65l.82-.05a38.24,38.24,0,0,0,5.4-1,3.43,3.43,0,0,1,1-.13c.21,0,.24.13.32.21.26.31,1.31.36,2.42.13a4.63,4.63,0,0,0,2.44-1.15c1.42-.38,2.1.13,2.1.62s.25,1.09,1.68.86c1.09-.17,2-.76,2-1.12,0-.14-.11-.26,0-.42a6.61,6.61,0,0,1,2.54-.91c1-.24,2.16-.77,1.67-1-.31-.12-1.22,0-1.12-.25a.87.87,0,0,1,.35-.23,16.13,16.13,0,0,1,6.18-1h1.46a2.32,2.32,0,0,1,.67,0c.82.22-1.35,1.29-.27,1.39a3.31,3.31,0,0,0,2.09-.79,3.05,3.05,0,0,1,1.59-1c.87-.23,1.67-.06,1.62.26s-.68.69-1.37,1c-.48.23-1.05.49-1.12.71s.08.21.19.29a3.57,3.57,0,0,0,3.12.35c1.5-.44,1.55-1.22,2.86-1.75a12.19,12.19,0,0,0,1.74-.68c.43-.32-.09-.53,0-.82.07-.48,2.09-1.11,3-.95a3.9,3.9,0,0,0,.94.16,12.47,12.47,0,0,0,1.37-.25c1.08-.19,1.9.11,1.45.52a6.72,6.72,0,0,1-1,.59c-1.08.63-1.11,1.34-.07,1.61.24.06.53.11.54.24s-.72.46-1.33.63l-5.7,1.6a11.71,11.71,0,0,0-5,1c.62,0-.07.51-.79.63a6.77,6.77,0,0,1-1.82,0,13.54,13.54,0,0,0-5.58,1,10.36,10.36,0,0,1,3.45,0c.74.24.17,1-1.19,1.31-.93.19-1.71,0-2.64.25-1.46.33-1.75,1.08-2.62,1.67a13.65,13.65,0,0,1-2.34,1c-3.53,1.32-7.19,2.79-9.21,4.41-.6.49-.88,1.1.17,1.06.42,0,.93-.14,1.38-.18,1.16-.1,1.37.41,1.16.89s-.61,1,0,1.29,2.44,0,3.83-.17c2.82-.29,5,.18,5.41,1.15a3,3,0,0,1,2.19-.16,2.37,2.37,0,0,0,1.42.53A27.79,27.79,0,0,0,168,49c1.33-.2,2.25.11,2.41.56s-.25,1-.56,1.57c-.49.86-.74,1.76.3,2.25a8.07,8.07,0,0,0,5.43-.55c2.4-1.28-.19-2.44,1.88-3.74,1.16-.72,3.26-1.15,4.72-1.81,1.85-.82,2.3-1.85,1.82-2.56s-1.67-1.19-2.56-1.76c-.19-.12-.37-.25-.29-.44.22-.47,1.87-.88,2.74-1.36,1.71-.93.12-1.94,2.18-2.77s4.5-.22,6.8-.84c.54-.15,1-.35,1.54-.51a6.47,6.47,0,0,1,3.47-.16c.61.24.63.7,1.41.86a15.12,15.12,0,0,0,2.38.06c.81,0,1.57.2,1.26.56s-1.47.64-2.06,1c-.83.5-.2,1,.74,1.11a22.3,22.3,0,0,1,2.93.43,2.2,2.2,0,0,0,.86.23,4.62,4.62,0,0,0,2.45-.86l4-2.73,4.59,4.89a1.84,1.84,0,0,0-1.32.33c-.21.22,0,.4.18.56a6.39,6.39,0,0,0,3,1.26,14.36,14.36,0,0,0,1.65.08c.81,0,2.5-.28,3.07-.2a.47.47,0,0,1,.35.21c.13.18.2.39-.12.61s-1.2.34-1.31.16c-.26.2,0,.38.47.42s1,0,1.43,0c1.26,0,2,.57,1.12,1.11a14.65,14.65,0,0,1-3.5,1c-2.39.57-4.08,1.67-6.39,2.37-4.12,1.26-8.55.86-12.95,1.64a29.14,29.14,0,0,0-9.34,3.46c.16.4,1.71.17,2.83-.1l3.54-.83a20.89,20.89,0,0,1,3.21-.58c1-.06,2,.12,2,.53,0,.68-2.36,1.39-3.06,2.14-.12.13-.19.28-.07.37a1.53,1.53,0,0,0,.7.14l4.17.3a7.62,7.62,0,0,0,2.62-.15c.5-.14.91-.36,1.39-.52a2.35,2.35,0,0,1,1.41-.14.17.17,0,0,1,.09.23c-.2.79-2.47,1.58-4.45,2A51.92,51.92,0,0,0,201.33,60c-1.09.36-2,.83-3,1.24s-2.37.71-2.77.41.57-.78,1.34-1.14,1.55-.91.93-1.08a3.92,3.92,0,0,0-1.85.27c-2.22.74-3.86,1.85-6.18,2.52A15.93,15.93,0,0,0,186,63.41a5,5,0,0,0-.78.72,7.88,7.88,0,0,1-3.78,1.44,8.4,8.4,0,0,0-1.88.32,3.08,3.08,0,0,0-.93.55q-2.66,2.15-5.17,4.33a2.06,2.06,0,0,1-1.15.53.92.92,0,0,1-.55-.12c-.41-.21-.84-.46-.7-.82a6.43,6.43,0,0,1,.54-.72c.15-.23.1-.48-.36-.5a2.78,2.78,0,0,0-2,1c-.41.55-1,1.23-.46,1.56.38.23,1,.43.73.81a3.44,3.44,0,0,1-.88.62c-1.24.76-1.61,1.66-.88,2.15-5.77,1.71-11,4.34-14.15,7.08-.32.27-.63.56-.62.8s.29.37.5.54c.85.69.34,1.81-.18,2.87L152.12,89A2.16,2.16,0,0,1,151,90.12a3.66,3.66,0,0,1-2.61.21c-.51-.25-.49-.71-.39-1.15.26-1.14,1-2.37.65-3.36s-2-1.68-4.64-1.2c-.81.15-1.63.4-2.43.55s-1.67.17-1.88-.09,0-.45-.17-.6a3.17,3.17,0,0,0-1.7,0,11.84,11.84,0,0,0-3,.64c-.95.38-1.56,1.06-.86,1.18.36.07,1,0,1,.22s-.51.37-.91.49a14.51,14.51,0,0,1-5.1.25,33.42,33.42,0,0,0-12.62,2.45c-2.15.85-4.39,2.14-4.16,3,.09.34.58.55.69.89.33,1-2.29,2.43-3.89,3.71-3.17,2.55-2.51,4.83-.5,6.29,1.36,1,4,1.72,7.51.68a19.93,19.93,0,0,0,5.55-2.83,23.18,23.18,0,0,1,5.18-2.94c2.09-.78,4.83-1,5-.16.07.27-.12.6-.41.93-1.22,1.36-4.16,2.72-5,4.07-.31.49-.34,1-.89,1.45s-1.15.77-1.67,1.17-.86.88-.38,1a2.86,2.86,0,0,0,.94,0,36.69,36.69,0,0,0,7.91-1.64,13.73,13.73,0,0,1,1.71-.49c1.09-.19,1.9,0,2.14.44s0,.95-.34,1.49a17.26,17.26,0,0,1-2.83,2.74,3.38,3.38,0,0,0-1.16,3,4.69,4.69,0,0,0,1.25,2.29,1.66,1.66,0,0,0,.74.58c1,.37,3.29-.11,4.56-1a4.93,4.93,0,0,1,.72-.45,3.65,3.65,0,0,1,.87-.26,3.87,3.87,0,0,1,3.16.62,3.83,3.83,0,0,0,2.6,1,2.14,2.14,0,0,0,.73-.1,2,2,0,0,0,.48-.27l3.88-2.65a16,16,0,0,1,5-2.71c.74-.21,1.5-.34,2.24-.57a13.8,13.8,0,0,0,3.81-2c.94,0,.82.67.2,1.2s-1.58,1-2.13,1.54a1.7,1.7,0,0,0-.4,1.94.45.45,0,0,0,.21.31,3.15,3.15,0,0,0,2.44-.65,1.86,1.86,0,0,0,.63-1.39,1.87,1.87,0,0,1,1.13-1.4,2.43,2.43,0,0,0,2.33-.67c.78-.17,1.51-.08,1.71.21s.07.41.19.58c.35.47,1.85.35,3.12.09a13.61,13.61,0,0,1,3.7-.5c.37,0,.67.14,1.06.17a12.86,12.86,0,0,0,3.27-.57,11.19,11.19,0,0,1,5.93,0c.24.09.45.2.49.36.11.44-1,1-2,1.34a6.47,6.47,0,0,0-2.57,1.25c1.71.18,4.19-.9,6.13-.94,1.64,0,2.4.68,2.59,1.45a.84.84,0,0,0,.34.64,3.5,3.5,0,0,0,1.42.26l3.82.23a7.85,7.85,0,0,0,1.53,0c.6-.07,1.21-.25,1.82-.36a8.66,8.66,0,0,1,5.72,1c1.65.81,3.35,1.68,3.59,3s-1,2.87-2.24,4.36c-1.46.2-2.78,1.13-2.84,1.84s.88,1.19,2.12,1.34a18.3,18.3,0,0,0,4.19-.17c1.26-.16,1.83-1,2.81-1.53a7.55,7.55,0,0,1,3.44-1.14c1.92,0,1.83,1.37,3.24,1.83A9.3,9.3,0,0,1,220,123c.79.42.27,1.43,1.43,1.62s2.79-.75,4.27-1.16a8.17,8.17,0,0,1,4,0,33.33,33.33,0,0,0,3.31.83c2.14.29,5.31,0,6,1.06.19.31.14.7.57.91a10.16,10.16,0,0,0,2.41.23c1.7.22,1.68,1.42,1.43,2.43a5.83,5.83,0,0,1-1.62,3.2c-1.84,1.77-5.66,3.09-7.13,4.94a4.28,4.28,0,0,1-1.65,1.66,17.37,17.37,0,0,1-2.15.64,6.25,6.25,0,0,0-3.65,2.86c-1.37,2.34-1.58,4.65-2.9,7a25.91,25.91,0,0,1-3,4c-1.49,1.74-3.1,3.49-4.75,5.24A12.57,12.57,0,0,1,211,162.3c-2.28.71-4.63.55-6.92,1.23A48.72,48.72,0,0,0,191.45,170a2.29,2.29,0,0,0-.65.55c-.14.25,0,.46,0,.67.47,1.33-1.17,3.07-2.74,4.62s-3.39,3.35-5.09,5a1.75,1.75,0,0,1-.65.45,2.36,2.36,0,0,1-.52.09,6.68,6.68,0,0,0-3.26,1.53,15.3,15.3,0,0,0-2,2.22,18.81,18.81,0,0,1-7.54,5.45c-3.29,1.3-7.24,1.54-8.62.15-.32-.31-.5-.7-.93-1a2.35,2.35,0,0,0-2,0c-.86.38-1.17,1.1-.95,1.53s.83.69,1.26,1a2.1,2.1,0,0,1,.62,2.56c-.2.52-.55,1.1-.27,1.48s1,.44,1.3.75c.56.51-.07,1.48-.94,2.26-2.07,1.84-5.31,3.14-8.36,4s-6.11,1.4-9.17,2.37a4.77,4.77,0,0,0-1.43.64c-1.19.9.11,1.65-.25,2.63a4.2,4.2,0,0,1-1.14,1.32,13.74,13.74,0,0,1-2.62,2,4.67,4.67,0,0,1-3.13.66c-.6-.2-1-.75-1.9-.4a2.25,2.25,0,0,0-.71.47c-2,1.81-.57,3.81,2.29,3.17-.31,1.16-2.5,2.21-4.17,3.18a14,14,0,0,0-4.77,4.32,11.21,11.21,0,0,1-3.41,3.18,38.58,38.58,0,0,0-3.5,1.86c-1.14.87-1.37,2-.47,2.41.69.28,1.83.11,2.53.38s.37,1.43-.69,1.67c.14.38.28.75.41,1.13a31.62,31.62,0,0,1-7.93,5.58,7.67,7.67,0,0,0-1.59.81c-1.44,1.1-.37,2.24-1.26,3.48-.65.91-2.09,1.57-3.31,2.25s-2.51,1.85-2.07,2.45,2.41.32,2,1.23c-.34.7-1.72,1.06-2.6,1.07a4.13,4.13,0,0,0-2.76.73c.49,2.19,2.48,3.73,5.45,4.21,1.51.24,3.5.62,2.67,2-.72,1.22-2.89,1.94-4.5,2.19a27.07,27.07,0,0,1-5,.36,15.36,15.36,0,0,0-2.78.06c-.88.14-1.82.44-2.71.61-3.18.6-5.28-.64-5.87-2.46s0-4.11.65-6.33a16.12,16.12,0,0,1,2.86-6.25c1.11-1.38,2.69-2.81,3-4.08s-.58-1.84-.7-2.84c-.2-1.77,1.86-4.12,3.76-6.21,5.3-5.85,10.22-11.8,11.82-17.13-1.16.71-2.54.41-2.5-.34s1-1.68,1.91-2.48a12,12,0,0,0,2.51-2.45,2.32,2.32,0,0,0-.14-2.5c2.13-3.64,7.75-7.65,9.57-11.14,1.48-2.83.2-5.14,2-7.93,1.49-2.37,4.88-4.63,7.09-6.95,3.39-3.57,3.71-7,6-10.44a29.78,29.78,0,0,0,2.46-3.72,28,28,0,0,0,.79-3c.72-2.17,2.94-4.75,1.62-6.25-1.54-1.75-7.43-1.18-7.79-3.34-.92-5.42-.71-11.2-6.66-14.14a10.14,10.14,0,0,1-2-1,1.13,1.13,0,0,1,0-1.77,14,14,0,0,1,2.82-1.95c2.5-1.58,1.48-2.38,2-3.74s4-3.06,5.51-4.63c.49-.51.77-1,1.3-1.52a22.91,22.91,0,0,1,4-2.52c1.42-.81,2.78-1.82,2.69-2.57,0-.26-.22-.47-.14-.75s.63-.74,1.11-1.1c1.06-.8,2.08-1.7,1.93-2.37-.19-.87-2.25-1-2.71-1.76-.19-.33-.18-.82-1-.8a4.35,4.35,0,0,0-2.34,1,5.21,5.21,0,0,1-2.2,1.22,3,3,0,0,1-2-.37,6.06,6.06,0,0,0-2.92-.12c-1.94-.37-2.46-1.4-2.31-2.65,0-.25.1-.51,0-.7-.26-.36-1.18-.4-1.93-.51a3.42,3.42,0,0,1-2.37-1.11c-.38-.53-.41-1.25-1.45-1.45s-3.18.29-4.64.29c-3.14,0-2.76-2.32-5.88-2.31a29.84,29.84,0,0,0-4.88.85,18.55,18.55,0,0,1-7.67.23c-1.23-.31-2.07-.84-3.32-1.12a42.24,42.24,0,0,0-4.9-.47c-1.64-.16-3.11-.5-3.35-1.34s.5-1.65.92-2.51.5-1.73-.69-2a4.77,4.77,0,0,1-3.69-2.77c-.12-.25-.14-.59.46-.92.27-.16.63-.28.9-.43.74-.42.39-.77,0-1-2.73-1.38-4.4-3.24-4.9-5.45a7.39,7.39,0,0,1-3.17.05c-.74.34-1,.79-.84,1s.62.39.91.6c.76.52.4,1.47.64,2.2s1,1.22,1.26,1.94c.42,1.27-.92,3.15.42,4.08.32.22.79.39.73.75s-1,1-1.74,1a.82.82,0,0,1-.6-.2L75.72,101c-.19-.15-.37-.3-.36-.51a2.49,2.49,0,0,1,.29-.69c.52-1.19-1.2-1.65-2.81-2-.51-.12-.83-.53,0-.85.23-.08.46-.12.68-.19.8-.26,1.12-.74,1.13-1.05,0-1.66-3.11-2.22-2.67-4,.13-.5.55-1.07.51-1.52-.12-1.3-3.84-1-5.45-1.71-4.73-2-1.61-7,2.89-11.61a10,10,0,0,0,1.82-2.13c.3-.68,0-1.22.59-1.93s1.36-1.23,1.4-1.7c.81-.14,1.83-.56,2.67-.74a1.77,1.77,0,0,0,.51-.15.78.78,0,0,0,.24-.17,2.26,2.26,0,0,0,.74-1c0-.23-.1-.41-.3-.56a6.09,6.09,0,0,0-3.57-.7c-1.25,0-2.68.24-3.91.27-.16,0-.32,0-.37,0s0-.17.15-.27a12.81,12.81,0,0,1,1-.83c1.48-1.11-.45-1.76-2-2-.33,0-.71-.08-.83-.22s.12-.47.43-.76a3.35,3.35,0,0,0,.8-.82C69.43,63,68.87,62.87,68.25,63Z"/><path class="cls-2" d="M173.58,24.72c-1.47.57-2.51,1.24-2.4,1.87s1.42.84,3.12.62c-.79.72.94,1,2.48,1.06,2.91.14,6.69.17,9.8-1a5.73,5.73,0,0,1,1.91-.49c.51,0,.52.27.86.37a7.51,7.51,0,0,0,2.25-.11c3.4-.44,6.32.06,6.74,1.15.15.39,0,.87.72,1.11s1.6.2,1.92.48-.73,1-1.85,1.51-2.45,1-2.49,1.54.9.61,1.78.75l-5,.49a21.36,21.36,0,0,0-4.38.76c-1.37.45-2.27,1.27-1.32,1.5,1.28.32,3.8-.64,5.79-.89,3.64-.46,4.24,1.51,7.81,1.23,2-.15,4.17-1,6.15-1.09.86-.06,1.58,0,2.41,0a5.85,5.85,0,0,0,2.49-.51c.85-.48-.1-.89-1.27-.91a29.93,29.93,0,0,1-3.54,0c-.29,0-.55-.14-.46-.29s1.1-.44,1.8-.52l4.44-.46c.25-.83-.85-1.47-2.74-1.59-.69-.05-1.6-.08-1.53-.38s1.91-.7,2.94-.66a14.78,14.78,0,0,1,2.13.23,16.34,16.34,0,0,0,2.56.41,6.73,6.73,0,0,0,3.17-.61c.41-.25.49-.54,1-.78s1.8-.4,2.41-.71c.89-.46-.29-.83-1.54-.75a28.51,28.51,0,0,1-3.75.27c-1.42-.13-1.47-.91-2.9-1a22.26,22.26,0,0,0-2.85.16c-.95,0-1.94-.08-1.72-.45s.73-.46,1.13-.7c1.07-.61.88-1.25,0-1.6a14,14,0,0,0-3.61-.58,28,28,0,0,0-5.22-.07,4.25,4.25,0,0,1-1.27,0c-.51-.15.3-.61.28-.9s-1.06-.37-2-.27-2,.3-2.89.31c-1.5,0-2.65-.51-4.2,0-.22.47-1.53,1-2.85,1.24s-2.46,0-2.48-.44c0-.28.37-.62.42-.91s-.43-.54-1.28-.39a4.87,4.87,0,0,0-1,.3A16.44,16.44,0,0,0,181,25.22a5.55,5.55,0,0,1-.93.83c-1.26.77-2.61.54-2.48,0s1.89-1.18,3-1.68c3-1.45.93-1.41-2.15-.92A25.6,25.6,0,0,0,173.58,24.72Z"/><path class="cls-2" d="M159.81,25.72c-.12.25.32.37.52.55.52.45-.45,1.22-1.55,1.89s-2.43,1.38-2.77,2c-.07.16-.09.31.11.39.45.19,1.7-.05,2.3.07.39.09.43.32.84.39a6,6,0,0,0,2.19-.29,20.37,20.37,0,0,1,2.3-.58c.46-.07.9-.08,1.38-.17s1-.27,1.07-.44,0-.11-.09-.15c-.86-.55-3.88-.22-4.42-.86-.25-.29.13-.73.64-1.14a5.18,5.18,0,0,1,2.25-1.07c.49-.1,1-.13,1.45-.21a16.09,16.09,0,0,0,3.34-1c.42-.17.91-.41.69-.52a1,1,0,0,0-.35-.05C168.45,24.46,160.43,24.43,159.81,25.72Z"/><path class="cls-2" d="M141.43,31.81a6.6,6.6,0,0,1-1.6-1.34.67.67,0,0,0-.33-.25,1.81,1.81,0,0,0-.81,0c-.27.05-.52.14-.78.21a1.88,1.88,0,0,1-.72.11.22.22,0,0,1-.12-.07.87.87,0,0,0-.76,0,1.45,1.45,0,0,0-.25.11,13.57,13.57,0,0,1-1.65.76c-.29.11-1.49.51-1.26.24a3.85,3.85,0,0,1,1-.79c.14-.09.29-.18.3-.25s0-.07-.06-.1c-.24-.22-.65-1-2.19-.39-.73.3-1.19.83-1.94.87a2.73,2.73,0,0,0-1.57-.57,2.15,2.15,0,0,0-.74,0c-.79.19-.49.52-.59.79-.14.43-1.92,1-2.83.92s-.93-.53-.36-1,1.07-.88.29-.86c-.07,0-2.29.84-2.6.93-.93.27-1.65.45-2.56.78a1.91,1.91,0,0,1-.34.1,1.74,1.74,0,0,1-.56,0,3.89,3.89,0,0,0-1.1.14,9.2,9.2,0,0,0-1.88.64,8.22,8.22,0,0,1-1.16.7c-1.13.44-2.24.68-2.76,1.28a33.17,33.17,0,0,0,6.18-1c1.13-.28,2.8-.57,2.58-.15-2,.47-3.89,1-5.89,1.47a3.58,3.58,0,0,0-.74.23c-.29.16-.2.3.09.32a5.07,5.07,0,0,0,1.08-.12,17,17,0,0,1,2.28-.31c.26,0,.5,0,.79,0,.52-.06,1.11-.26,1.65-.35a15.9,15.9,0,0,0,2.41-.35,6.07,6.07,0,0,1,1-.36c.39-.07.6,0,1,0,.59-.09,1.19-.51,1.7-.51.67,0-.29.49-.73.65a27.76,27.76,0,0,1-2.9.67l-7,1.55c-.61.3-.22.55.41.54s1.46-.14,2-.09c.7.06.78.4,1,.65a2.09,2.09,0,0,0,1.91.19,13.66,13.66,0,0,0,1.36-.51c2.66-1,6.12-.85,8.54-1.94A12.88,12.88,0,0,1,133.1,34a5.09,5.09,0,0,1,1.43-.06c1.45.11,2.64.37,4.15.46a16.6,16.6,0,0,0,5.39-.58,4.58,4.58,0,0,0-2.37-.33c2.06-.45,4.13-.85,6.18-1.2.69-.11-.26-.41-.37-.43a12.4,12.4,0,0,0-1.93.29,3.59,3.59,0,0,1-1.91-.06.54.54,0,0,1-.3-.43c0-.05-.06-.11-.24-.08s-.27.12-.26.18,0,.1,0,.17a1,1,0,0,1-.44.15,1.55,1.55,0,0,1-.47,0,.68.68,0,0,1-.19-.08Z"/><path class="cls-2" d="M136.54,29.32s.05,0,0,.07-.11.1-.18.14c-.24.16-.34.32-.28.43s.12.12.3.12.76-.14,1.12-.17a2.54,2.54,0,0,1,.71.05,2,2,0,0,0,.86-.06.78.78,0,0,0,.42-.27c.05-.09,0-.16,0-.23a.33.33,0,0,0-.2-.18c-.18-.07-.52-.07-.7-.14-.39-.16.46-.9-.6-.79S136.35,29.12,136.54,29.32Z"/><path class="cls-2" d="M122.08,30.5c-.6-.12-1.24-.21-1.92-.29a4.28,4.28,0,0,0-.9,0c-.43,0-.91.16-1.37.25a19.25,19.25,0,0,1-2.26.25c-1,.07-2,.14-2.83.11a8.44,8.44,0,0,0-1.51,0,14.6,14.6,0,0,0-1.46.3l-4.34,1.06a2.55,2.55,0,0,0-.71.24c-.21.14,0,.22,0,.31.18.26-.61.75-.66,1.08A.26.26,0,0,1,104,34c-.11.07-.29.13-.43.2-.74.35-.21.69-1,1a6,6,0,0,0-1.18.46c-.17.21.62.09.93.15a.45.45,0,0,1,.23.14,2.16,2.16,0,0,0,1.26.4,2.39,2.39,0,0,0,.69,0c.89-.18,1.24-.7,2.07-1l.87-.09a5.11,5.11,0,0,0,2.78-.47,7.9,7.9,0,0,0,.79-.46A28.4,28.4,0,0,1,121.1,31a3,3,0,0,0,.51-.09C121.92,30.82,122.27,30.54,122.08,30.5Z"/><path class="cls-2" d="M131.69,26.56a1.88,1.88,0,0,1-.46,0c-.12,0-.14-.08-.2-.13a4.68,4.68,0,0,0-1.75-.06c-.57,0-1-.05-1.6,0a18.72,18.72,0,0,0-2.19.24c-.69.11-1.39.24-2.09.38a2,2,0,0,0-.68.22c-.27.21.63.17.37.38a2.25,2.25,0,0,1-1,.23,1.91,1.91,0,0,0-.92.26c-.08.11.22.12.5.08a3.34,3.34,0,0,1,.78-.07,2.32,2.32,0,0,1-1.08.31c-.39.05-1,.23-.93.34a.64.64,0,0,0,.36,0c.28,0,.57-.06.86-.11a8.54,8.54,0,0,1,1-.15c.3,0,.49.09.27.23l1.23-.57c-.22.14.21.18.55.07a1.13,1.13,0,0,0,.62-.4.92.92,0,0,1,.32-.4,1.18,1.18,0,0,1,.39-.17c.4-.09.47.09.28.25s-.5.35-.34.43a1.48,1.48,0,0,0,.55,0,10.13,10.13,0,0,0,1.65-.22c.57-.14,1.17-.42,1.14-.59a2.12,2.12,0,0,1,.74.05,4.85,4.85,0,0,0,1.72-.19,1.63,1.63,0,0,1,.3-.07c.26,0,.25.1,0,.2a3.65,3.65,0,0,1-.79.23c-2,.42-4,.93-6,1.52a1.83,1.83,0,0,0-.28.1c-.34.17.09.23.47.22a11.33,11.33,0,0,0,3.23-.52c.48-.17.87-.39,1.37-.55a16.39,16.39,0,0,0,1.58-.45c.31-.13.5-.29.85-.41a3.83,3.83,0,0,1,1-.17c.66,0,1.3-.07,1.93-.08a4.07,4.07,0,0,0,.82-.07c.31-.07.59-.18.9-.27a10,10,0,0,1,2.19-.31,6.45,6.45,0,0,0,2.16-.48,1.48,1.48,0,0,0,.52-.43c.32-.4.64-.83.17-1a.82.82,0,0,0-.44,0,1.12,1.12,0,0,0-.81.45,1,1,0,0,1-.73.48c-.26-.1-.33-.27-.18-.46l-.64.11c.14-.15.24-.33-.09-.32a9.75,9.75,0,0,0-1.14.24,1.41,1.41,0,0,1-.69-.06l-.48-.16a.5.5,0,0,1-.22-.1c-.09-.15.31-.41.08-.5a2.29,2.29,0,0,0-1.32.27.94.94,0,0,0-.51.57c-.06.15-.11.31.06.4s.31.09.41.16,0,.18-.19.29c.9,0-.09.36-.71.44C133.73,26.35,132.7,26.44,131.69,26.56Z"/><path class="cls-2" d="M130.83,23.92a2.09,2.09,0,0,0-.48.13.25.25,0,0,0-.14.13c-.11.19-.22.38-.32.57s-.07.14.05.15a6.28,6.28,0,0,0,.68-.07c.23,0,.25.09.4.13a3.63,3.63,0,0,0,1.21-.15l1-.22a5.33,5.33,0,0,0,.74-.2,5.11,5.11,0,0,1,.47-.21c.27-.08.56-.1.83-.18s.58-.3.38-.36-.3,0-.41-.05-.1-.12.09-.18l.22,0c.81-.11,2.38-.44,2.17-.79-.12-.2-.71-.1-1.35,0-.81.16-1.87.39-2.67.61-.51.14-.88.33-1.39.47A11,11,0,0,1,130.83,23.92Z"/><path class="cls-2" d="M119.05,27c-.12.1-.06.19.15.21a2.08,2.08,0,0,0,.77-.16,5.26,5.26,0,0,1,.9-.41l.37,0a2.6,2.6,0,0,0,1-.37c.22-.16.26-.3.24-.43a9.55,9.55,0,0,0,1.88-.25c.21-.07,0-.12,0-.2s.69-.29.84-.45a.08.08,0,0,0,0-.12c-.1-.17-.39-.31-.93-.3a4.43,4.43,0,0,0-1.77.43c-.12.06-.21.13-.35.19a4.42,4.42,0,0,1-1.45.25,19.32,19.32,0,0,0-5.43,1.2,8.72,8.72,0,0,1-1.89.57,2.36,2.36,0,0,0-.52.09,2,2,0,0,0-.3.16,3.05,3.05,0,0,1-1.12.33c.1.1-.18.31-.58.44-.24.07-.48.11-.72.16a15,15,0,0,0-2,.53c-.1.07,0,.1.22.08a1.21,1.21,0,0,1,.43,0s0,.06,0,.08.51.1.49.24-.08.12,0,.16a1,1,0,0,0,.41,0,5.82,5.82,0,0,0,.93-.26,2.06,2.06,0,0,1,.48-.15c.31,0,.19.16.46.16a2.1,2.1,0,0,0,.75-.26c.22-.1.62-.23.72-.17s.16-.17.16-.25.18-.21.41-.24l-.1.55s0,.05,0,.06a.51.51,0,0,0,.2,0c.91-.15,1.89-.61,2-.93,0-.09,0-.18.14-.29s.27,0,.22.11-.12.18,0,.19a1.75,1.75,0,0,0,.61-.15c.49-.19,1-.41,1.09-.6s0-.1,0-.17a.55.55,0,0,1,.34-.19c.23,0,.3,0,.32.1.59-.12.59-.5,1.1-.47S119.23,26.87,119.05,27Z"/><path class="cls-2" d="M126.92,23.88c-.21.07-.4.16-.43.24s0,.06,0,.09l.11.17a.13.13,0,0,0,.11.06c.11,0,.29,0,.41,0a1.46,1.46,0,0,1,.22,0,2.59,2.59,0,0,0,.57-.07l.15,0a.12.12,0,0,0,0-.05c.09-.11.5-.21.64-.32s0-.12,0-.16-.18-.06-.21-.11,0-.1-.06-.13a.38.38,0,0,0-.19,0,2.65,2.65,0,0,0-.67.13Z"/><path class="cls-2" d="M131.63,22.75,131,23a2.17,2.17,0,0,1-.67.11c-.21.1-.2.21,0,.21a2.35,2.35,0,0,0,.35,0l1.28-.22a1.22,1.22,0,0,1,.53,0s0,.05.11.05.3-.08.4-.07-.05.11.06.12h.12a3.65,3.65,0,0,0,.57-.14l.39-.15.78-.31.12-.06c.05-.05,0-.07-.13-.07a6.14,6.14,0,0,0-1.49.1A14.08,14.08,0,0,0,131.63,22.75Z"/><path class="cls-2" d="M150.63,26.5a2.53,2.53,0,0,0-.85.25,2.85,2.85,0,0,0-1.18.9,9,9,0,0,1,1.4-.12c.42,0,.75.09.73.26s-.9.59-1.55.63c-.33,0-.59,0-1,0a7,7,0,0,1-.73.13c-.44,0-.22-.25-.37-.38a2.29,2.29,0,0,0-1.49.2c-.46.23-.48.48-.13.56a2.33,2.33,0,0,1,.47.11c.14.09,0,.27.2.33a11.11,11.11,0,0,0,1.94-.21c.62,0,.62.33,1.27.3.21,0,.45,0,.64,0,.57,0,.33.32.45.52s1.66.18,2.48-.21a5.54,5.54,0,0,1,.69-.34,7.4,7.4,0,0,1,1.26-.25,8.54,8.54,0,0,0,2.47-.79c.63-.34.93-.72.79-1a.15.15,0,0,0-.11-.09c-.38-.11-1.45.31-1.9.23s.05-.41-.4-.43c-.21,0-.54.08-.74,0-.36,0,.15-.33.64-.45a9.18,9.18,0,0,0,1.44-.36c.51-.23.29-.48-.26-.49a10,10,0,0,0-1.89.29,8.12,8.12,0,0,0,1.78-.72c-.1-.15-.71-.1-1.21,0s-.93.32-1.38.47a5.49,5.49,0,0,1-1.44.34c.25.22.05.29-.66.36S151.2,26.49,150.63,26.5Z"/><path class="cls-2" d="M150.32,32.81a2.42,2.42,0,0,1-.68.12,3.74,3.74,0,0,0-1.48.46c-.08,0-.15.1-.15.14s.19.1.37.11a2.57,2.57,0,0,0,.89-.09,2,2,0,0,1,.53-.15.32.32,0,0,1,.13.06.66.66,0,0,0,.35,0,4.57,4.57,0,0,1,.5,0c.31,0,.06.25.18.35a1.19,1.19,0,0,0,.66,0,6.82,6.82,0,0,0,.87-.2,1.51,1.51,0,0,0,.38-.14c.14-.08.15-.17.34-.23a.84.84,0,0,1,.31-.05l.77-.07a3.41,3.41,0,0,0,.42,0,1.07,1.07,0,0,0,.56-.31c.19-.24,0-.42.12-.65,0,0,.07-.1.06-.15s-.22-.09-.39-.11l-1.55-.13a2.48,2.48,0,0,0-.55,0,1.66,1.66,0,0,0-.62.17c.4-.24-1-.22-1.46.12S150.91,32.53,150.32,32.81Z"/><path class="cls-2" d="M154.05,22.42c0,.12.1.21.22.29-.43.09-1,.28-.91.39s.37,0,.56,0c.44,0,.28.3.09.51a.27.27,0,0,1-.14.1.65.65,0,0,1-.2,0c-.65.09-1-.09-1-.29s.05-.44-.24-.57a2.37,2.37,0,0,0-1.58.21c-.24.16-.11.28,0,.39A.58.58,0,0,1,151,24c0,.11-.14.28-.48.35s-.51,0-.77.1a1.69,1.69,0,0,0-.27.11,2.44,2.44,0,0,0-.47.27c-.09.09,0,.18.17.18a3.26,3.26,0,0,0,.72-.17,8.49,8.49,0,0,1,1.19-.27,3.18,3.18,0,0,1,.9,0c.21,0,.27.16.06.29s-.36.16-.53.24-.3.19-.16.22a1.16,1.16,0,0,0,.36,0l2.44-.36a8.17,8.17,0,0,0,.86-.17,9.82,9.82,0,0,1,1.5-.45c.53-.05.71.19,1.27.08s.7-.3.69-.44-.17-.25-.08-.41.15-.17.16-.25-.09-.13-.13-.2.18-.36.32-.55.09-.39-.35-.38c-.17,0-.37,0-.51,0s-.2-.16-.21-.27-.25-.19-.57-.1-.21.28-.28.43-.59.34-1,.37c-.61.05-.32-.13-.3-.29s.19-.29-.32-.29S154.1,22.21,154.05,22.42Z"/><path class="cls-2" d="M146.68,20a2.06,2.06,0,0,0-.92.36c-.33.36,1.35.26.94.63-.08.07-.22.14-.32.21-.25.19,0,.33.43.32a4.63,4.63,0,0,0,1.43-.33,4.81,4.81,0,0,1,.5-.18,2.69,2.69,0,0,1,.55,0h1.06a5.76,5.76,0,0,1,2.23-.39,7.42,7.42,0,0,1,1.94.24,5,5,0,0,0,1.3.3,4.1,4.1,0,0,0,2-.43c.25-.17.18-.32.11-.45-.17-.3-.51-.63-1.51-.53a8.54,8.54,0,0,1-1.79.18c-.27-.06-.2-.27-.59-.27s-1.08.22-1.28.12,0-.07-.07-.11-.61-.05-.91.09c-.1.05-.18.1-.3.15-.75.27-.81-.21-1.15-.23a4.51,4.51,0,0,0-1.42.33c-.58.16-.4.17-.76.12-.18,0-.12-.15-.4-.17A4.83,4.83,0,0,0,146.68,20Z"/><path class="cls-2" d="M146.05,23.84c-.07,0-.14.06-.14.08s.08,0,.14,0,.14.1.28.12a1.91,1.91,0,0,0,.45,0l1.45-.21a.26.26,0,0,1,.12,0c.07,0,0,.06-.08.09A2.47,2.47,0,0,1,148,24a5.85,5.85,0,0,0-1.88.58c.33-.06.66-.14,1-.21a3.4,3.4,0,0,1,.91-.08l.07,0s-.11.07-.2.1l-1.8.56a1.93,1.93,0,0,0,.69,0l.92-.17a5,5,0,0,0,1-.26c.24-.1.36-.24.63-.33l.37-.1c.29-.09.48-.24.4-.32s-.4-.08-.7,0l-.17,0c-.17,0-.15-.07,0-.14a4.48,4.48,0,0,0,.44-.18c.18-.1.13-.19-.05-.22a3.22,3.22,0,0,0-.72.05A16.91,16.91,0,0,0,146.05,23.84Z"/><path class="cls-2" d="M166,20.7l-1.81.05a3.72,3.72,0,0,0-.86.08c-.68.14-1,.49-.84.66a2.8,2.8,0,0,0,1.28.24l1.48.1A5.31,5.31,0,0,0,167,21.7a6.79,6.79,0,0,1,1.13-.31c.47,0,.44.2.65.31a4.45,4.45,0,0,0,.53.14c.43.14.35.45.07.75s-.74.61-1,.91-.22.36.17.36a10.87,10.87,0,0,0,1.4-.31,7.13,7.13,0,0,1,1,0A11.76,11.76,0,0,0,173.5,23a2.82,2.82,0,0,1,.71-.13,1.46,1.46,0,0,1,.27,0,7.1,7.1,0,0,0,3.06-.13c.41-.09.81-.21,1.22-.27a7.47,7.47,0,0,1,.8-.05,17.82,17.82,0,0,0,5.54-.76,31.52,31.52,0,0,0,3.71-.1,7.43,7.43,0,0,0,.92-.11c.58-.11,1.12-.33,1.68-.39-.13-.13.39-.34.84-.48s1-.29,1.1-.46-.25-.22-.6-.23a6.58,6.58,0,0,1-1-.05,1.88,1.88,0,0,0-.53-.09,7.54,7.54,0,0,0-.78.14,3.61,3.61,0,0,1-1.2-.15,4.9,4.9,0,0,0-1,0c-2.12.19-4.29.49-6.47.88a41.19,41.19,0,0,1-5.62.79c-.89,0-1.64-.06-2.57,0a6.66,6.66,0,0,1-1.25,0c-.31-.05-.22-.3.25-.41.3-.06.59,0,.88-.11s.34-.33,0-.35-.84.06-1.2,0a6.54,6.54,0,0,0-1.23-.13,6.74,6.74,0,0,0-.94.18C168.38,21.07,167.32,20.66,166,20.7Z"/><path class="cls-2" d="M161.16,23.61a3.17,3.17,0,0,0-.41.17l-.51.24c-.22.11-.47.24-.37.32a1.34,1.34,0,0,0,.67,0c.27-.06.53-.14.79-.18.73-.1.88.24,1.59.17.24,0,.5-.09.73-.11a5.3,5.3,0,0,0,.69,0,1.18,1.18,0,0,0,.72-.34c.1-.12.08-.23.2-.36a2.46,2.46,0,0,0,.33-.3c.22-.33-.64-.8-1.55-.66a3.51,3.51,0,0,0-1.27.41A9.06,9.06,0,0,1,161.16,23.61Z"/><path class="cls-2" d="M180.73,18a4.25,4.25,0,0,0-1,0c-.38.06-.82.23-.79.35s.15.09.3.11a5.86,5.86,0,0,1,.93.12c.22.08.17.29-.24.41a2.86,2.86,0,0,1-.51.09c-.66.08-1.31.13-2,.24a6.67,6.67,0,0,0-1.89.53c-.48.24-.59.55-.09.6l1.88-.39a1.45,1.45,0,0,1,.44-.06c.23,0,.07.18.19.24.3.17,1.45-.32,2-.29a2,2,0,0,1,.4.1,18.37,18.37,0,0,0,2.86-.35,10.29,10.29,0,0,0,1.22,0c1-.18,1.43-.82,2.35-.89a3.86,3.86,0,0,1,1,.16,6.51,6.51,0,0,0,2.52-.54c-.05.27,1.69,0,1.58.25,0,.07-.17.14-.21.21s.38.22.83.14a6.57,6.57,0,0,0,1.23-.4,4.69,4.69,0,0,1,1-.31l.52,0a5.08,5.08,0,0,0,2.57-.83,37,37,0,0,0-4-.12l4.12-.46c-.41-.1,0-.43.62-.6a11.65,11.65,0,0,1,1.89-.32,31.63,31.63,0,0,0,3.5-.62,3.62,3.62,0,0,0,.72-.22c.16-.08.24-.17.41-.25a6.4,6.4,0,0,1,1.08-.3c.36-.1.72-.3.48-.37a2.33,2.33,0,0,0-.39,0l-2,.1a11.69,11.69,0,0,0-1.53.16c-.54.1-1,.28-1.57.4a5.53,5.53,0,0,1-2,.09,5.7,5.7,0,0,1,1.32-.5,1.35,1.35,0,0,0-.74-.13,5.17,5.17,0,0,1,2.26-.16c.07,0,.1.08.19.11a4.08,4.08,0,0,0,1.82-.3c.1-.15-.7-.12-.46-.27a1.23,1.23,0,0,1,.43-.11,11,11,0,0,0,1.41-.14c.23-.05.43-.12.66-.18a8.15,8.15,0,0,1,1.62-.1,10.81,10.81,0,0,0,2.74-.44,8.67,8.67,0,0,1,1.29-.24c0-.18.62-.39,1.18-.49s1.12-.14,1.67-.26a13,13,0,0,0,1.56-.46c4-1.33,9.42-1.51,13.46-2.79a26,26,0,0,0-3.94.41l8.73-1.73c-.11-.26-1-.3-1.72-.32l-6.08-.13a6.29,6.29,0,0,0-1.21,0,8.25,8.25,0,0,0-1.93.64,13.76,13.76,0,0,1-3.84.84c.65-.62,3.35-.83,4.55-1.41l-6.51.43a10.12,10.12,0,0,0-2.38.36c-.28.09-.51.2-.8.29a8,8,0,0,1-1.65.27L203.93,9l2.48.46A9.91,9.91,0,0,1,203,9.34a33.55,33.55,0,0,1-4.79.7c-.14.2.55.2,1.06.2s.85.22.3.36a20.82,20.82,0,0,1-4-.38c-.58.11-.64.39-.42.53s.51.29.12.49l-1.3-.4-.44.39c-.15-.49-2.15-.34-3.41-.45-.4,0-.74-.1-1.19-.11a4.18,4.18,0,0,0-1.46.24c-.41.18-.36.42.14.37l-3,.5a9.47,9.47,0,0,0,3.07-.07c.83-.13,2-.35,2.19-.13A7.94,7.94,0,0,1,188,12a16,16,0,0,0-3.81.47,2.65,2.65,0,0,0-2.1-.17c-.36.11-.6.26-.94.38-1.44.53-3.28.13-4.77.64-.27.1-.51.23-.44.32s1.27-.13,1.8-.1c-.62.11-1.18.42-1,.59a16,16,0,0,1,4.44-.76,5.58,5.58,0,0,1-1.91.45c-.69.1-1.62.47-1.17.56a19,19,0,0,1,4.8-.57,4.94,4.94,0,0,0,1.25-.07c.23-.05.45-.13.69-.18.77-.15.94.18.81.45a34.39,34.39,0,0,1,5.53-1.21c1.85-.26,3.63-.35,5.47-.54,2.59-.28,5.24-.77,7.87-1.25-1.05.72-4.63.7-5.48,1.44a16.89,16.89,0,0,0,2.58-.3,12.44,12.44,0,0,1-4.07.71,19.56,19.56,0,0,0-4.15.47c-.25.47.77.76,2.11.6a3.67,3.67,0,0,1-2.1.41,1.47,1.47,0,0,1-1-.52,1.61,1.61,0,0,0-1.2-.45,10.49,10.49,0,0,0-1.85.18l-2.22.36a11.1,11.1,0,0,0-1.74.39c-.52.18-.85.47-.52.57l-1.42.19c.35-.43-.58-.64-1.67-.61s-2.34.24-3.5.35-2.37.11-2.66-.21c-.09-.09-.09-.21-.25-.29a6,6,0,0,0-2.2.08c-.83.11-1.83.15-1.8-.12,0-.09.12-.19,0-.25a1.62,1.62,0,0,0-.6,0,18.42,18.42,0,0,0-3.26.64c0,.21.79.15,1.4.1s1.3.05.88.28a10.65,10.65,0,0,0-3.18.56l3.83-.08a2.53,2.53,0,0,1-1.15.42,10.2,10.2,0,0,0-1.4.3c-.42.15-.59.41-.15.39a14.43,14.43,0,0,1,3.69-.77c.43.09-.48.47-1.18.58a7.82,7.82,0,0,0-2,.42c-.54.28,0,.5.69.48s1.54-.18,2.22-.18c-.63.19-1.29.36-2,.51a30,30,0,0,0,4.78-.59c-.16.38-2,.63-2.68,1s.1.57,1,.52,1.82-.27,2.74-.4a14,14,0,0,0,1.7-.28,11.84,11.84,0,0,0,1.35-.49,23.07,23.07,0,0,1,3.93-.91l2.25-.39a16.9,16.9,0,0,0,2.23-.48c.68-.23,1.23-.56,1.06-.77.67-.09,1.24,0,1.27.22s-.47.51-1.13.67a9.66,9.66,0,0,1,3.09-.09c-2.16.58-4.57.45-6.61.67a9.69,9.69,0,0,0-1.76.38,6.8,6.8,0,0,1-1,.26c-.31.05-.59.06-.9.11-.58.11-1.08.4-.94.56s.84.14,1.38,0l.3-.08h.27a7.42,7.42,0,0,0,1.71-.39,7,7,0,0,1,2-.21c.23,0,.44.07.4.17a.12.12,0,0,1,0,.05l-.12,0c-.36.05-.7.07-1.05.11a3.82,3.82,0,0,0-1,.24c-.05,0-.1.05-.11.07s.19.08.4.06c.76-.06,1.53-.12,2.31-.22l.74-.09a3.08,3.08,0,0,1,1,.09c.37.07.79.11,1.13.2A34.14,34.14,0,0,1,180.73,18Z"/><path class="cls-2" d="M161,18.48a2.48,2.48,0,0,0-.58.09,1.07,1.07,0,0,0-.55.3c-.35.38,0,.68.6.83a13.54,13.54,0,0,0,2.31.23c.16,0,.32,0,.36.07s-.08.16-.1.24.69.19,1.31.12l4.43-.44a4.76,4.76,0,0,0,1.27-.24c.59-.24.33-.51-.27-.52a14.54,14.54,0,0,0-2,.24,8.31,8.31,0,0,1-3.12-.55A11.63,11.63,0,0,0,161,18.48Z"/><path class="cls-2" d="M233.06,16a15.81,15.81,0,0,0,1.86.05c3.8,0,5.67,1.48,3.76,3-.94.73-2.56,1.72-1.15,2,1.09.24,2.92-.23,4.47-.45,3.76-.52,6.5.87,4.32,2.22a10.57,10.57,0,0,0-1.76,1.08c-.75.82,1.14,1.37.51,2.19s-3.72,1.39-5,1c-1.35,1-.55,1.94.29,2.74L242.67,32a6,6,0,0,0,3.09,1.79c2.32.55,6.13.37,7.77,1.21a2.69,2.69,0,0,0,.78.35,5.88,5.88,0,0,0,3.72-.76,1.44,1.44,0,0,0,.63-1.63,1.41,1.41,0,0,1,.63-1.61c1.36-1,4.92-1.55,5.65-2.53.28-.38.07-.76.69-1.11.92-.52,2.75-.53,4.24-.65,2.82-.24,5.62-1.29,6.17-2.33.85.39,3-.06,4-.59a13.76,13.76,0,0,1,3.17-1.52c2.61-.66,5.56.06,8.34-.43a15.63,15.63,0,0,0,2.92-1,4.65,4.65,0,0,1,1.84-.27,2.38,2.38,0,0,0,.55.06,1.61,1.61,0,0,0,.63-.18,6,6,0,0,1,1.5-.49c.25,0,.51-.06.77-.09.42-.06.8-.16,1.21-.23,1.1-.2,1.62,0,2.5-.44.54-.28.75-.71-.24-.77-.4,0-.82.05-1.24,0a8.36,8.36,0,0,0-1.36-.08c-.62.05-1.14.25-1.74.35a10,10,0,0,1-2.5,0,.54.54,0,0,1-.25,0c-.1-.07.19-.17.27-.25s-.16-.19-.44-.19a5,5,0,0,0-.86.1c-.7.13-3.76.61-3.38.09a1.82,1.82,0,0,1,.68-.37,3,3,0,0,1,.68-.2c.34,0,.67,0,1,0s.53-.1.8-.14a5.63,5.63,0,0,1,.59,0c.82,0,1.62,0,2.38,0,0,0-.07-.07-.07-.11a6,6,0,0,1,2.58.06c1,.13,2.06.24,3.19.28a4.89,4.89,0,0,0,1.85-.21c.63-.29,0-.62-.65-.8a30.14,30.14,0,0,0-6-.86,7.51,7.51,0,0,1-1.72-.19c-1.14-.38.49-1.26,2.26-1.47a38.81,38.81,0,0,1,5.17,0c1.73,0,4-.29,4.58-.91-.72-.34-2.93-.18-3-.65s1.9-.68,2.82-1.08.6-.92.41-1.37,0-1.18,1.87-1.21a1.28,1.28,0,0,1,.29,0c.15,0,.12.13.18.19a1.4,1.4,0,0,0,.73.19,3.91,3.91,0,0,0,.92.05c.32,0,.66-.15.61-.25s-.1-.08-.11-.12.18-.17.41-.21.46-.08.67-.14c.93-.27.73-1,.21-1.24a6.36,6.36,0,0,0-1.77-.4c-.6-.06-1.4-.11-1.11-.42a4.8,4.8,0,0,1,1.06-.5c.36-.17.45-.44-.07-.47l2.24-.31a4.94,4.94,0,0,0,1.11-.25c.27-.12.24-.32-.15-.34a2.48,2.48,0,0,1-.29,0c-.15,0-.06-.12.09-.18a3,3,0,0,1,1.19-.16,5.07,5.07,0,0,0,.56,0,4,4,0,0,0,.93-.12,3.05,3.05,0,0,0,1-.35c.17-.15-.16-.33-.6-.27a1.79,1.79,0,0,1,.84-.17c.32,0,.65,0,1,0,.79-.09,1.21-.47,2-.52.19,0,.38,0,.57,0a3.16,3.16,0,0,0,.61-.17A6.59,6.59,0,0,1,325.68,3a2,2,0,0,0,.54-.09c.21-.09,0-.21-.29-.23s-.62,0-.93,0a10.22,10.22,0,0,1-1.4-.33,14.73,14.73,0,0,0-2.6-.08,44.69,44.69,0,0,0-4.82.6c-4.48.7-9.12,1.26-13.78,1.66a46,46,0,0,0,4.81-1.44c-.85-.34-2.74.09-4.2.32a34.55,34.55,0,0,1-5.18.23A83.09,83.09,0,0,0,287,4.44a97.29,97.29,0,0,1,20.57-1.68c1.31,0,3.45-.18,3.17-.6a1.06,1.06,0,0,0-.59-.23c-1.95-.35-5.54.17-6.48-.5-.17-.13-.22-.28-.47-.38-1-.4-3.14.31-4.86.59a19.47,19.47,0,0,1-4.1.08,75,75,0,0,0-18.31,1,19.91,19.91,0,0,1-2.71.47,29.73,29.73,0,0,1-3.29-.06,6.57,6.57,0,0,0-3.15.55c.52.16.74.43.59.71a29.92,29.92,0,0,0-6.78.55c-.79.77,4,.29,4.22,1,.14.49-2.3.93-3.48.73a5,5,0,0,1-2.16-1.08,5.52,5.52,0,0,0-3.61-.28c-1.43.37-1.53,1-1.39,1.51a18.42,18.42,0,0,0-7,.5c1.05-.4.58-.93-.54-1a19.15,19.15,0,0,0-3.88.3l-4.51.67a10.94,10.94,0,0,0-3.51.9c.38-.31-1-.31-1.76-.05s-1.12.61-1.89.87a17,17,0,0,1-3.46.48,24,24,0,0,0-6.85,1.6c1.49.37,5.55-.68,6.05,0,.39.51-2.08,1.13-3.87,1.39q-6.47.94-13,1.94c.27.78,3.18.76,5.71.47a39.76,39.76,0,0,1,7.33-.55,9.27,9.27,0,0,1-2.5.52l-8.93,1.05a4.5,4.5,0,0,0-1.87.5c-.43.4,1.09.35,2.1.34,1.49,0,2.27.35,2.41.85a51.7,51.7,0,0,1,9.44-1.76c1.67-.14,3.47-.3,5.08-.36C231,15.31,231.41,15.73,233.06,16Z"/><path class="cls-2" d="M305.74,24.54a4.46,4.46,0,0,0-1.45.15,3.17,3.17,0,0,1-.37.15c-.4.12-.87,0-.93-.17s.1-.34,0-.49-.81-.36-1.49-.29a2.25,2.25,0,0,0-1.47.57c-.13.19,0,.37-.07.57s-.31.42-.83.5c-.33.06-.69,0-1,.12-.49.13-.31.41.16.47a12.12,12.12,0,0,0,1.6,0c.54,0,1.13.08,1.11.28s-.72.39-1.3.52-1.24.36-1.07.55a1.09,1.09,0,0,0,.58.16,5.09,5.09,0,0,0,1.74-.19,11.52,11.52,0,0,1,1.33-.44,4,4,0,0,1,2.1.22,4.55,4.55,0,0,0,1.79.49,7.92,7.92,0,0,0,2.94-.65,7.19,7.19,0,0,1,3-.55c.38,0,.66.14,1,.19a10.24,10.24,0,0,0,4.48-.76,4.75,4.75,0,0,0,1.37-.64c.27-.25.15-.55-.46-.63-.33-.05-.75,0-1.09-.07-1.16-.17-.28-1.09-1.56-1.15a6.18,6.18,0,0,0-2.38.68c-1.52.48-2-.05-3.23,0C308.83,24.11,307.33,24.54,305.74,24.54Z"/><path class="cls-2" d="M220.91,50.33c.3.42-1.21,1-2.36,1.34a6.68,6.68,0,0,0-2.4,1.19c-.43.46-.09.93.93.92,1.29,0,2.58-.69,3.94-1a10.19,10.19,0,0,1,4.2.12l1.12.22a9.64,9.64,0,0,0,2.74.24c1.07-.07,2.38-.48,2.57-.92s-1-.69-2.14-.7-2.45,0-2.89-.37c-.14-.13-.17-.29-.4-.38-.67-.27-2.57.17-3-.19-.71-.65,4.65-2.11,1.66-2.26C222.81,48.46,220.49,49.75,220.91,50.33Z"/><path class="cls-2" d="M473,9.82a14.46,14.46,0,0,0-2.07,0,4.93,4.93,0,0,1-1,.07,5.49,5.49,0,0,1-.61-.12,7.32,7.32,0,0,0-2-.18c-1.22.09-1.92.5-3.14.59a12.89,12.89,0,0,0-2.45.17c-.27.09-.4.22-.7.3a6.6,6.6,0,0,1-2,0,4.17,4.17,0,0,0-1.87.09c-.31.2.12.52-.34.67a2.64,2.64,0,0,1-.6.08,6.64,6.64,0,0,0-2.57.38.61.61,0,0,1-.21.16c-.39.14-1.4,0-1.55.19s.26.24.6.29a6.09,6.09,0,0,1,1,.19c.18.07.26.16.28.25s-.42.45-1.07.49-1.1,0-1.57,0-.71.29-.5.48.69.31.71.48c0,.4-2.11.28-2.35.65-.06.1,0,.2.13.31a1.05,1.05,0,0,0,.63.34,2.6,2.6,0,0,0,1.08,0c.3-.07.53-.17.83-.24a4.92,4.92,0,0,1,2.47.13c.66.24.67.67,0,.82-.2.05-.46.07-.61.13-.43.18.19.5.89.58a11.42,11.42,0,0,0,2-.07,9.19,9.19,0,0,1,1.05,0,4.54,4.54,0,0,1,.86.09c.08,0,.12.06.19.08a1,1,0,0,0,.52.05c.18,0,.26-.12.46-.14a3.62,3.62,0,0,1,.46,0c.15,0,.34,0,.31-.08a.13.13,0,0,0-.07-.05,1.23,1.23,0,0,0-.23-.11c-.1,0-.25-.1-.19-.14a.85.85,0,0,1,.33,0c.69.09,1.4.14,2.1.17l1.07,0a2.19,2.19,0,0,0,.73,0c.08,0,0-.09-.17-.12-.46-.1-1-.09-1.52-.15s-.77-.15-1.17-.19-.8-.07-1.19-.13c-1.64-.26-2.53-1.06-1.71-1.53.34-.2.92-.36.88-.6s-.34-.31-.71-.42c-.18-.06-.39-.1-.56-.15l-.59-.2a1.49,1.49,0,0,1-.63-.27s0,0,0,0l.08,0a4.32,4.32,0,0,1,.8,0c.42,0,.79,0,1.2,0a4.47,4.47,0,0,0,.75,0c.73-.11.62-.49,1-.73a.5.5,0,0,1,.16-.05,1.17,1.17,0,0,1,.37,0,1.87,1.87,0,0,0,1.6-.49,1.75,1.75,0,0,1,1.55-.51c.32,0,.62.11.94.13a4.45,4.45,0,0,0,1.65-.31,9.2,9.2,0,0,1,1.41-.2l.9-.08c1.16-.1,2.33-.2,3.56-.22a11.18,11.18,0,0,0,1.46-.08c.42-.06.72-.18,1.13-.25a19.27,19.27,0,0,1,2.94,0,10.51,10.51,0,0,0,1.91-.11,2.55,2.55,0,0,0,1-.32c.8-.6-1.86-.93-3-.71A19.48,19.48,0,0,1,473,9.82Z"/><path class="cls-2" d="M445.8,18.87A2.52,2.52,0,0,0,447,19c1.36-.21,1.5-1.05-.29-1.22S444.87,18.51,445.8,18.87Z"/><path class="cls-2" d="M654,61.31c0,.16.37.36.39.52s-.06.15-.11.22c-.19.28.08.68.35,1.06l.29.41a.26.26,0,0,0,.11.09.22.22,0,0,0,.21,0,.77.77,0,0,0,.19-.79.19.19,0,0,1,0-.18.39.39,0,0,1,.34,0,1.12,1.12,0,0,1,.35.15,4.72,4.72,0,0,1,.81.57,1,1,0,0,0,.19.15.77.77,0,0,0,.32.09h.09a.63.63,0,0,1,.37.13c.07.07.07.13.12.19a.6.6,0,0,0,.32.17c.21,0,.24-.06.21-.15a.85.85,0,0,0-.56-.52l-.31-.12c-.36-.15-.41-.34-.62-.51s-1.2-.55-1.45-.84a.61.61,0,0,1-.4-.31,1.24,1.24,0,0,1-.1-.31c-.08-.22-.39-.5-.19-.65s.22-.09.13-.19-.22-.12-.31-.19.08-.22.13-.34-.13-.26-.21-.39.05-.46.52-.5a2.46,2.46,0,0,1,.53,0,1.74,1.74,0,0,1,.57.2,2.71,2.71,0,0,1,.25.19,2.44,2.44,0,0,0,.46.25,2.1,2.1,0,0,0,.46.18c.17,0,.35,0,.33,0l-.06-.07a4.26,4.26,0,0,0-1.1-.63,2.26,2.26,0,0,1-.41-.19c-.07,0-.11-.09-.17-.13a3.4,3.4,0,0,0-.85-.35,1.83,1.83,0,0,1-.78-.36.93.93,0,0,1-.17-.56.84.84,0,0,0-.5-.59l-.35-.18c-.33-.22-.12-.38-.19-.58s-.28-.32-.46-.49a1.42,1.42,0,0,1-.48-.71.53.53,0,0,0-.12-.31,3.69,3.69,0,0,0-1-.57c-.37-.19-.73-.42-.64-.56-.15-.16,0-.23,0-.37s-.45-.56-1-.83a.94.94,0,0,0-.32-.11.16.16,0,0,0-.11,0c-.18.09-.16.26.06.43l0,0s-.14,0-.24,0-.23.08-.13.18a2.82,2.82,0,0,0,.44.27c.16.09.31.19.3.27s-.06.07,0,.11.15.14.14.2-.1.07-.22.08a2.85,2.85,0,0,1-.7,0c-.23,0-.26.08-.16.18s.2.13.26.19-.1.22-.11.35.23.28.45.43.43.32.35.42-.15.09-.17.15.1.18.22.28l1,.78A6,6,0,0,1,652,58a2.39,2.39,0,0,1,.14.43,2.19,2.19,0,0,0,.49.77,2.58,2.58,0,0,1,.39.46c.08.18,0,.32,0,.49C653.16,60.55,653.91,61,654,61.31Z"/><path class="cls-2" d="M654.32,64l-.33.13a14.06,14.06,0,0,1,1.6.79c.37.34-.13.53,0,.84a3.52,3.52,0,0,0,.32.37c.1.12.13.25-.05.29s-.26,0-.28.07,0,.07,0,.11c.22.21.75.47.63.62s-.5.07-.85,0a6.29,6.29,0,0,1-1-.39,3,3,0,0,0-.36-.14l-.27,0a1,1,0,0,0-.46,0c-.09,0-.07.14.09.22a1.73,1.73,0,0,0,.24.1c.2.09.33.21.32.29s-.18.13-.39.1l-.27,0c-.22,0-.23.1-.19.2a.36.36,0,0,0,.12.17,1.38,1.38,0,0,0,.27.16A4.74,4.74,0,0,1,655,68.89a1.31,1.31,0,0,0,.73,0,4.68,4.68,0,0,1,.45-.19,1.52,1.52,0,0,1,.79.09c0-.07-.25-.16-.45-.21l-1-.25a3.2,3.2,0,0,1-.55-.19c-.15-.09-.18-.2,0-.19,0-.12,0-.24.24-.25a4,4,0,0,1,.82,0l.14,0,.09.06.21.19c.34.07.41-.1.69-.11a2.29,2.29,0,0,1,1,.31,5,5,0,0,0,.87.44,5.5,5.5,0,0,0,1.37.16,3.67,3.67,0,0,0,.78.05c.23,0,.28-.15.27-.27s-.08-.26,0-.37c.15-.28,1.14-.24,2,0a1.83,1.83,0,0,0,.39.09c.15,0,.25,0,.25-.08s-.11-.15,0-.18a1.66,1.66,0,0,1,.55.11,1.76,1.76,0,0,0,.93,0l-.8-.35a1,1,0,0,1-.2-.11c-.12-.1,0-.17,0-.23s0-.17-.16-.25a1.55,1.55,0,0,0-.63-.07,4,4,0,0,1-1.5-.33,2.24,2.24,0,0,0-.76-.27,1.55,1.55,0,0,0-.32,0,2.75,2.75,0,0,1-.94-.19,14.35,14.35,0,0,1-1.53-.58c-.48-.23-.84-.49-1.33-.73-.24-.11-.52-.22-.72-.34s-.19-.14-.3-.2a3.88,3.88,0,0,0-.5-.25l-.71-.31A1.63,1.63,0,0,0,654.32,64Z"/><path class="cls-2" d="M655.36,70.63c0,.33,1.25.8,1.38,1.16.08.2-.19.3-.34.43-.49.45.34,1.31-.36,1.68-.36.2-1.1.22-1.4.44s-.19.34-.39.48a2.08,2.08,0,0,1-.73.24,2.66,2.66,0,0,1-.84.07,1.74,1.74,0,0,1-.93-.35c-.11-.14.07-.23.27-.27s.47-.07.55-.16-.11-.3-.42-.37a1.32,1.32,0,0,0-.34,0c-.62.07-.71.41-.74.73l-.12.93a.62.62,0,0,0,.07.47c.06.08.15.18.14.26,0,.23-.8.13-1.4,0a11.19,11.19,0,0,0-3.88,0,2.65,2.65,0,0,0-.49-.41c-.38.22-.8.41-1.23.61l-.38.17a1.86,1.86,0,0,1-1,.2c-.37,0-.78-.14-1.15-.17s-.64.11-.35.28,1,.1,1.53.25c.16,0,.32.12.49.15.43.09.75-.12,1.11.06a1.67,1.67,0,0,0,.23.12.45.45,0,0,0,.31,0l1.07-.43a1.81,1.81,0,0,0,1,.33,5,5,0,0,0,.85-.12,5.81,5.81,0,0,1,2.36.24,1.53,1.53,0,0,1,.51.22c.19.16-.09.24-.09.38s1.18.69,1.1,1a1.25,1.25,0,0,0,1,0,1,1,0,0,1,.64-.31c.17,0,.39,0,.56,0,.32,0,.39-.2.23-.38a2.34,2.34,0,0,0-.89-.53,1.42,1.42,0,0,1,.57-.12,1.71,1.71,0,0,1,.81.21c.1.07.15.14.25.2a1.92,1.92,0,0,0,1.19.19,2.53,2.53,0,0,1,1.13,0c.12,0,.25.09.38.12.59.14.55-.29,1.12-.22.32.14.52.34.43.45a4.37,4.37,0,0,1,.77.28c.2,0,.14-.2,0-.33s-.23-.29-.17-.39.45-.1.69,0a1,1,0,0,1-.28-.89.11.11,0,0,1,.11-.09.84.84,0,0,1,.52.18.23.23,0,0,1,.09.25,1.17,1.17,0,0,0,.19.61.44.44,0,0,0,.15.16c.31.19.81.12.8,0s-.2-.4,0-.5.32-.07.4-.13-.1-.3-.4-.44a5.65,5.65,0,0,0-1-.34c.49,0,.6-.33.23-.63a8,8,0,0,1-.7-.52c-.39-.42.5-.63-.06-1.06-.18-.13-.47-.26-.68-.39-.8-.51-.06-.75.34-1,.15-.09.39-.17.5-.26s0-.13.08-.27-.11-.22,0-.3.19-.07.2-.14-.09-.14-.18-.22l-1.35-1.14c-.14-.12-.28-.23-.45-.35a10.44,10.44,0,0,0-1.21-.66,2.42,2.42,0,0,0-.7-.24,3.22,3.22,0,0,1-.43,0c-.37-.1-.33-.34-.67-.47s-.52,0-.48.09.58.46.47.66S655.36,70.4,655.36,70.63Z"/><path class="cls-2" d="M640.44,77.43c0,.06.06.15,0,.22s-.47.09-.82.06-.74,0-.62.15.86.3,1.24.5a.52.52,0,0,1,.32.4l-.91,0a2.76,2.76,0,0,0,1.68.66c.43,0,.49-.29.14-.54-.14-.09-.34-.19-.34-.27s.39-.07.64,0a1.11,1.11,0,0,1,.47.38,1,1,0,0,1,.27.53c0,.16-.19.29-.55.28a2,2,0,0,0-.35,0c-.1,0-.08.11,0,.19l.3.79a.32.32,0,0,0,.24.2.36.36,0,0,0,.36,0l.33-.3c.4.14.5.37.46.53s0,.18.15.27a.78.78,0,0,0,.46.06.25.25,0,0,0,.16-.16L644.6,80a.22.22,0,0,0,0-.21c-.05-.09-.19-.19-.2-.27s.59-.16.54-.35-.31-.25-.58-.35a4.7,4.7,0,0,1-.78-.3c-.39-.21,0-.21-.08-.35a2.08,2.08,0,0,0-1-.42C642.05,77.67,640.55,77.2,640.44,77.43Z"/><path class="cls-2" d="M645.69,78.34a1,1,0,0,0-.62,0c-.11.06,0,.21.2.31l.38.14a2.83,2.83,0,0,1,.65.36l1.63,1.12c.28-.15.47-.37.11-.65l-.2-.14c-.07-.08-.08-.14,0-.19s.48-.18.89-.15a1.33,1.33,0,0,1,.44.09,1.78,1.78,0,0,1,.27.17,1,1,0,0,0,.61.12c.14,0,.12-.15-.06-.25a1.55,1.55,0,0,1-.22-.12c-.16-.11,0-.18.14-.23s.14-.21-.12-.28l-.14,0c-.05,0,0-.06,0-.07s-.12-.31-.47-.41a2.37,2.37,0,0,0-.93-.07,1,1,0,0,1-.5,0,1.13,1.13,0,0,1-.22-.11A1.73,1.73,0,0,0,645.69,78.34Z"/><path class="cls-2" d="M728.64,47.41a7,7,0,0,1-.72-.14A14.07,14.07,0,0,1,725.55,46a6.35,6.35,0,0,0-2-.46c-.6,0-1.08,0-1.66,0a20.55,20.55,0,0,1-6.1-1.54c-2-.8-3.38-1.72-5.28-2.51-1.67-.69-3.54-1.43-5.35-2a86.46,86.46,0,0,0-12.76-3c-1.6-.28-3.44-.56-4-.22-1,.58,1.69,2.67-1.05,2.15a13,13,0,0,1-3.17-1.31,25.41,25.41,0,0,0-7.9-1.86c-1.49-.15-6.3-.23-7.81-1.06-.54-.3-.36-.6-1-.88s-1.76-.37-2.31-.68c-.31-.18-.24-.34-.37-.51a3.78,3.78,0,0,0-2.15-.73,2.28,2.28,0,0,0-.73.13c-2.35.69-7.58-.55-11.48-1.54-4.65-1.18-10.08-2.5-13.3-2.07.15-.19-.83-.5-1.54-.65a59,59,0,0,0-8.8-1.36c-2.7-.11-4.84.46-4.1,1.56a46.3,46.3,0,0,0-13.45-2.24c.43.65.1,1.22-.89,1.53-1.34-.64-2.72-1.28-4.15-1.9-1.19-.51-2.67-.93-4.06-1.37a7.75,7.75,0,0,0-1.08-.27c-.61-.08-1,0-1.64,0a7,7,0,0,1-1.4-.29,3.46,3.46,0,0,1-1.34-.54c-.13-.17.11-.29.44-.34s.76-.05,1.12-.09a.8.8,0,0,0,.32-.07c.13-.1-.15-.27-.48-.39s-.72-.2-1.06-.31c-.59-.19-1-.45-1.51-.66a10,10,0,0,0-3.35-.58,2,2,0,0,0-.51,0c-.28.09-.11.3.16.48s2.22,1.42,2,1.43c-2.35.15-10.14-.47-11.36-2a.89.89,0,0,0-.56-.4,5.52,5.52,0,0,0-1.52,0,9.25,9.25,0,0,1-2.08-.59,4.17,4.17,0,0,0-2.25-.08,1.39,1.39,0,0,1-.82.22c-.27,0-.58-.1-.83-.1A.81.81,0,0,0,572,19c-.78.34-.32,1-1.23,1.31-.38-.1-.26-.26-.12-.37a.64.64,0,0,0,.1-1.06,31.49,31.49,0,0,0-6.27.08,36,36,0,0,1-4.26.37,29,29,0,0,1-3.61.07c0-.24.55-.38,1.12-.45a14.19,14.19,0,0,0,2.09-.32,5.37,5.37,0,0,1,1.45-.47c.57-.07,1.25,0,1.78-.11a14.69,14.69,0,0,0,1.84-.61,18.85,18.85,0,0,1,2.83-.29c1-.08,1.93-.24,2.07-.61s-.43-.75-1.22-1.1c-4.82-2.16-8.32-.39-13.29-1.64-2-.5-3-1.41-4.92-2-2.86-.83-6.32-.4-7.13.51-.48.53-.51,1.25-2,1.41-2.15.22-5-.82-7.59-1.05a24.68,24.68,0,0,0-6.77.71,12,12,0,0,1-2.94.22c-1.25-.1-2.49-.74-3.69-.63a.88.88,0,0,0-.41.11c-.17.14.18.34.12.49-.17.44-1.26.21-.54.76.39.29,1.63.86,1.39,1.13-.05.06-.23.08-.39.1a20.35,20.35,0,0,1-2.27.12h-.18c-.2,0-.29-.14-.21-.19a1.41,1.41,0,0,1,.43-.11c.16,0,.31-.07.29-.15s-.47-.2-.81-.23c-1.47-.14-3-.12-4.45-.2-1-.06-1.91,0-2.95,0-.29,0-.59,0-.88,0a3.24,3.24,0,0,0-1.5.29c-.08.16.44.38.46.55s-.36.43-.17.7a2.5,2.5,0,0,0,1.33.58,13.71,13.71,0,0,0,1.94.24,6.77,6.77,0,0,1,1,.11,2.84,2.84,0,0,1,.87.37c.87.49,1.77,1.1,1.13,1.49-.06,0-.14.07-.15.12s.33.23.6.34c1.3.52.17,1.64-1.14.93-.23-.13-.27-.28-.43-.42a1.47,1.47,0,0,0-.91-.24.62.62,0,0,0-.24.07l-.9.4c-.41-.24-.18-.53.45-.58-.44-.05-.48-.28-.26-.39s.56-.21.43-.37-.31-.17-.41-.26.17-.33.56-.4.86-.16.88-.33l-2.45-.24-.49-.07a3.61,3.61,0,0,1-.47-.17,7.15,7.15,0,0,0-.78-.25,22.5,22.5,0,0,0-3-.66,6.39,6.39,0,0,0-2.83.11c.21.19.9.37.81.55s-.46.15-.82.14a14.16,14.16,0,0,1-2.19-.34c-.6-.07-1.11.14-.84.35a4,4,0,0,0,1.88.31c.73.46,1,1-1,.7a12.37,12.37,0,0,0-1.42-.37c-.31,0-.56,0-.86,0a1.59,1.59,0,0,1-.84-.27.61.61,0,0,1-.17-.39,2.4,2.4,0,0,0-.62-1.09c-.11-.12-1.36-.86-1.34-.89-.25.26.05.59.26.9s.27.66-.32.83c-.44.13-1.18.13-1.52.29s-.06.51.6.65a1.91,1.91,0,0,1,.3.07.31.31,0,0,1,.16.13,3.39,3.39,0,0,0,2.41,1.63,34.14,34.14,0,0,0,4.13.35A6.43,6.43,0,0,1,505,21.76c.2.12.4.26.25.36s-.34.09-.46.15,0,.27.37.37a6,6,0,0,0,1.09.18l1.91.21c.39,0,.9.13.92.27s-.6.13-1,.08L506,23.11a2.07,2.07,0,0,0-.49,0c-.23.05-.12.18-.1.29s-.31.21-.5.11-.07-.1-.12-.14-.84-.1-1.25-.2a.72.72,0,0,1-.44-.27,2.28,2.28,0,0,1-.55-1.42c0-.21-.05-.49-.63-.61a5,5,0,0,0-1.64.08,16.83,16.83,0,0,1-1.87,0c-.64,0-1.31.07-1.39.29s.13.27.25.4c.45.51,0,1.75-1.4,1.92a10.53,10.53,0,0,0-1.42.18c-.06,0-.11,0-.12.07s.11.14.24.2a7,7,0,0,1,1,.55c.13.1.25.2.26.29s-.11.19-.35.21a1.58,1.58,0,0,1-1.06-.34,1.36,1.36,0,0,0-.62-.45,2.84,2.84,0,0,0-.42-.09,24.8,24.8,0,0,0-4.39-.3c-.63-.55-.55-1,1.31-.78.59.06,1.17.17,1.76.22,1.15.1,2.31-.07,2.58-.44a2.3,2.3,0,0,0,.15-.32c.24-.39,1.2-.71.74-1.13a5.76,5.76,0,0,0-1.48-.65c-1.68-.65-1.15-1.28-1.51-2l-1.37-2.66a1.66,1.66,0,0,0-.82-.83c-1.66-.82-4.91-.4-6.15.29-1.83,1-2.83,2.56-.71,3.91.76.48,1.6,1,1.55,1.5,0,.11-.07.22-.29.29a1.58,1.58,0,0,1-.86,0c-.29-.11-.23-.26-.35-.4-.33-.38-1.67-.43-2.46-.62a23,23,0,0,1-2.57-.87c-.09.14-.19.27-.29.41a.41.41,0,0,1-.39.15,1.27,1.27,0,0,1-.36-.09c-.64-.27-.7-.67-1.44-.91a11.52,11.52,0,0,0-2.64-.24c-.91,0-1.83-.17-2.74-.19s-1.88.11-2,.42a.11.11,0,0,0,0,.14,1.12,1.12,0,0,0,.38.18,3.38,3.38,0,0,1,1.15.49c.21.19-.09.44-.64.4a3.74,3.74,0,0,0-.73-.05c-.27,0-.19.18-.19.3s-.87.43-1.6.3c.34-.22-.13-.56-.84-.69a10.07,10.07,0,0,0-2.71.12c-1.05.1-2.15.18-3.28.19a18.92,18.92,0,0,1-5.73-.71,27.35,27.35,0,0,0-4.93.32,34,34,0,0,0-4.52.85c-1.75.47-2,2-5.35,1.45a1.08,1.08,0,0,1-.3-.08.24.24,0,0,1-.12-.13c-.06-.13-.11-.26-.16-.39s-.18-.51.27-.68a14.87,14.87,0,0,0,1.6-.34c.32-.18,0-.45-.47-.61a14.52,14.52,0,0,0-1.66-.38,14.91,14.91,0,0,0-3.53-.66,1.34,1.34,0,0,0-.73.14c-.1.1.09.23.34.31s.56.13.8.21c1.23.42.15.94.21,1.39.09.62.33,1-.68,1.51a1.09,1.09,0,0,1-1,0c-.35-.14-.64-.31-1-.45a4.21,4.21,0,0,0-1.39-.23c-1.19.05-1.32.7-2.39.87-.26,0-.57.05-.84.1s-.48.15-.38.25a.76.76,0,0,0,.3.14l1.34.45c.18.06.37.13.4.22s-.17.17-.41.2a4,4,0,0,1-.77,0,15,15,0,0,1-2.91-.57,5.66,5.66,0,0,0-.93-.28,1.55,1.55,0,0,0-1,.08c.1.06.14.13.13.19a11.19,11.19,0,0,0-1.27.21c-.26.15.14.36.59.44s1,.12,1.4.23c.8.22.68.72-.12.89a4.76,4.76,0,0,1-2.6-.25,2.09,2.09,0,0,0-.95-.29c-.21,0-.4,0-.61,0a1.63,1.63,0,0,1-.82-.24c-.69-.38-1.41-.81-1.18-1.23.12-.22.48-.44.25-.65a5,5,0,0,0-2.06-.38,9.62,9.62,0,0,1-2.92-.66c-.2-.09-.39-.2-.31-.3s.71-.18,1.17-.18a38.18,38.18,0,0,1,4,.17c1.18.17,2.33.39,3.54.54,3.36.42,8.33,0,7.57-1.27s-5.79-1.18-9.2-1.61a30.43,30.43,0,0,1-3.71-.74,27.42,27.42,0,0,0-9-1c-.46,0-1.17,0-1.14-.16s.12-.09.22-.13a3.68,3.68,0,0,1,1.48-.32c.28,0,.54,0,.81.06s.6,0,.65-.12-.16-.18-.4-.22-.52-.05-.76-.08c-1-.13-1.57-.65-2.59-.58a.36.36,0,0,1-.23.34,1.35,1.35,0,0,1-.87.05c-.26-.09-.11-.24-.12-.37s-.35-.31-.78-.36a2.17,2.17,0,0,0-1.16.17.79.79,0,0,0-.2.26,2.41,2.41,0,0,1-1.56.54,2.89,2.89,0,0,0,.78-.65c0-.05.07-.12,0-.16a1.05,1.05,0,0,0-.4,0,1.77,1.77,0,0,0-1.09.42c-.2.19-.26.39-.45.58a4.83,4.83,0,0,1-1.6.82c-.16-.26-.06-1-.49-1.14a6.89,6.89,0,0,0-2.45-.1,1.24,1.24,0,0,0-.49.29,1.78,1.78,0,0,1-.77.36,2.78,2.78,0,0,1-1.22,0c-.38-.12-.39-.34-.78-.46a1.84,1.84,0,0,0-1.24.11.26.26,0,0,0-.07.21c0,.61-.31.8-2.07.95-1.34.11-2.74.07-4.07.19a1.73,1.73,0,0,0-.45.08c-.15.06-.13.15-.19.23s-.71.28-1.18.38-1,.26-.84.45c.48-.06.93.15.81.32s-.58.3-1.06.35-.85.09-.93.23.05.14.11.21c.3.35-.48.78-1.52.83-.29,0-.59,0-.86.05a1.44,1.44,0,0,0-.86.43l-1.3,1.29a24.4,24.4,0,0,0-4.28.84c-1.44.51-2.64,1.16-3.94,1.73a18.5,18.5,0,0,1-3.28,1.22c-1.29.31-2.89.44-4.09.8a15.64,15.64,0,0,1-2.45.81c-.36,0-.76.07-1.11.13s-.7.19-.67.33.48.24.56.39-.25.3-.44.45c-.58.47.67,1,2,.91.43.22-.29.53-.9.73s-1.18.57-.57.73a2.51,2.51,0,0,1,1.52-.21c.51.09.74.35.47.55s-1.12.36-1.33.61.51.55,1.28.6c3.47.26,6.49-1.68,10-1.43.28,0,.59.06.67.17s-.08.19-.16.29c-.31.39.53.73,1.15,1,1.22.62,1.72,1.44,1.37,2.23-.15.32-.33.73.39.89a7.37,7.37,0,0,0,2.77-.39,25.33,25.33,0,0,1,2.54-.21c.86-.06,1.79-.24,2-.56-.53-.07-.6-.36-.35-.55s.71-.35,1-.54c.67-.5-.21-1.09,0-1.64.35-1.07,4.47-1.1,4.78-2.11.17-.53-1.05-1-2-1.33-2.43-1-2.79-3,.73-3.29,1.13-.11,2.41,0,3.42-.2a1.93,1.93,0,0,0,1.66-1.38c.37-.83,1.38-1.69,3.4-2.08s5.12-.05,5.5.77-2.4,1.55-4.29,2.2c-2.12.74-3.34,1.87-2.65,2.92s3.63,1.91,6.55,1.75c2.59-.14,5.07-1,7.47-.58a8,8,0,0,0,2.75.31c1-.2.45-.77.81-1.16.73-.79,4-.4,5.87.12,1,.27,2.06.65,1.83,1.07s-1.37.55-2.38.66a91.34,91.34,0,0,1-13.34.79c-1.64-.07-3.67-.15-4.52.37-1.25.76,1.24,2.15-1,2.48a23.35,23.35,0,0,1-2.88-.06c-2.38,0-2.95,1.27-2.79,2.17a5.63,5.63,0,0,0-3.68.64A8.05,8.05,0,0,1,383.61,38c-2.4.7-5.73,0-8.7.08-2.45.1-5.42.74-7,.05-.67-.29-1.17-.73-1-1.13s.34-.51.21-.75S367,36,367,35.88s.5-.31.68-.48c.41-.37-.47-.77-.19-1.15.14-.19.53-.34.77-.52s.22-.43-.24-.5a3.17,3.17,0,0,0-.92.06l-1,.18A8.26,8.26,0,0,0,364,34a1.58,1.58,0,0,0-.66.69l-.46.8a.64.64,0,0,0-.14.46c.05.21.33.38.59.56.66.46,1.22,1,1.08,1.52-.28,1.13-3.64,1.42-5.88,1.85-1.81.34-3.59.73-5.41,1.08a34.45,34.45,0,0,0-3.73.93,5.3,5.3,0,0,0-1.12.35c-.2.15.14.25,0,.4a2.22,2.22,0,0,1-1,.57,4.21,4.21,0,0,1-.46.14l-2.16.6c-.26.07-.53.14-.82.19a5.07,5.07,0,0,1-2.21-.07,2.21,2.21,0,0,0-.56-.12c-.41,0-.72.2-.67.35s.31.28.51.41.36.29.17.44a3.09,3.09,0,0,1-1.49.26c-1.58,0-5-.11-5.24.89,0,.14.1.31.46.32.14,0,.28,0,.42,0a1,1,0,0,1,.89.32c.56,1,1.29.91,3.39,1.24,1.56.25,2.1.8,2.27,1.47a2.07,2.07,0,0,1-.77,2.58,1.87,1.87,0,0,1-.68.3,11.23,11.23,0,0,1-2.39,0c-.32,0-.64,0-1,0s-.65,0-1,0a66.71,66.71,0,0,0-9.79,0,5.76,5.76,0,0,0-2.52.57.68.68,0,0,0-.28.45,1.58,1.58,0,0,0,.29,1.29c.17.23.4.48.17.74a3.41,3.41,0,0,1-.82.48c-1.87,1-.14,1.78-.55,2.8-.2.47-1.3,1-.69,1.38a4.84,4.84,0,0,0,2.62,0,5.94,5.94,0,0,1,2.71-.14c.7.27.27.86,1,1.12,1,.33,2.66-.27,3.95-.15a7.9,7.9,0,0,1,.87.14,8.14,8.14,0,0,0,3.6-.43c.53-.17,1-.54,1.52-.67s1-.06,1.33-.16a3.39,3.39,0,0,0,1-.56,3.56,3.56,0,0,1,.35-.22,5.24,5.24,0,0,1,.52-.18,7.06,7.06,0,0,0,2.32-1.11c.06,0,.12-.11.11-.16s-.81-.23-.78-.42.09-.11.15-.16.13-.29.16-.43c.1-.62,1-1.24,2.34-1.61a14.68,14.68,0,0,1,2-.29c.71-.12,1.07-.42,1.75-.54l.64-.1c.67-.15.9-.49.92-.79s-.05-.6.29-.87A5,5,0,0,1,354,52a29,29,0,0,1,2.9.37,1.68,1.68,0,0,0,.5,0,.84.84,0,0,0,.3-.14,5.88,5.88,0,0,1,3.27-.54c0-.6,1.36-1.19,2.87-1.13a6.22,6.22,0,0,1,1.85.34c.32.11.62.26.6.44s-.09.17-.05.24a.56.56,0,0,0,.2.16c.48.25,1.14.43,1.59.68s.71.49,1.13.72a31.05,31.05,0,0,0,7.24,2.55,5.2,5.2,0,0,1,1.15.36,1.45,1.45,0,0,1,.6.61c.26.44.51.93,0,1.35-.2.16-.51.33-.38.5s.72.22,1.13.14a1.74,1.74,0,0,0,.84-.43c1-.94,0-1.8,1-2.68l1.8.45a2.28,2.28,0,0,0,.6.09c.52,0,.83-.27.68-.46a2.22,2.22,0,0,0-1-.46c-1.15-.34-2.32-.68-3.61-.93-.19,0-.42-.08-.43-.17s.09-.12.12-.18-.2-.24-.49-.27a7,7,0,0,0-.92,0A5.41,5.41,0,0,1,374.8,53c-.3-.22-.32-.48-.52-.72a4.77,4.77,0,0,0-2.21-.93,9,9,0,0,1-1.25-.34c-.34-.15-.55-.37-.37-.57s.54-.3.55-.47-.26-.25-.43-.37c-.86-.61,1.77-.71,2.68-.77a2.15,2.15,0,0,1,.57,0c.32.07.27.27.14.41s-.27.28-.24.42.34.29.7.26c.62-.06.52-.49,1.1-.6A14.07,14.07,0,0,1,377,50.4c.18.14.33.34,0,.46a1.39,1.39,0,0,0-.27.1c-.18.11.16.24.48.26a4,4,0,0,1,.94.06,2,2,0,0,1,.44.22,4,4,0,0,0,1.08.19c2,.2,2.68,1,4.69,1.31.67.1,1.4.15,2,.3s1.05.46.77.73c-.11.11-.32.2-.38.31-.18.29.64.53.7.82,0,.12-.07.24-.08.35,0,.65,2.26.88,2.79,1.49.14.15.15.33.35.47s.94.33,1.11.56-.08.38-.14.58.15.44.63.44c-.55,0-.12.51.13.57a5.26,5.26,0,0,0,1.85-.22c.91-.29,1-.65.89-1.09-.34-1-2.27-1.93-1.35-2.9,1.54-1.63,8.64-.21,11.58-1.44a2.82,2.82,0,0,0,1.37-1.21c.72-1.06,1.37-4.18,3.45-4.84,1.7-.54,7.11-.3,7,.91,0,.16-.14.31-.11.48.07.38,1,.69,2,.76a14.77,14.77,0,0,0,2.83-.11l2.49-.25a2.48,2.48,0,0,0,.59-.11c.39-.15.08-.45-.43-.57a9.07,9.07,0,0,0-1.68-.14c-1.4,0-3-.34-3.38-.88,3.83.43,7.08-1,10.94-1.1a2.31,2.31,0,0,1,.53,0c.49.09.5.37.31.55-.85.85-3.69,1.3-3.58,2.24.06.56,1.19,1,2.3,1.42s2.13.67,3.27,1a7.3,7.3,0,0,1,3,1.13c.48.52-.14,1.08-1.15,1.41-3.23,1-6-.16-9.58-.18s-6.76.69-10.31.71-8-.57-10.26.52c-1.84.87-.95,2.27.49,3.31a8.78,8.78,0,0,0,2.48,1c.77.26,1.27.58,2.07.87a4.4,4.4,0,0,0,2.41.13,2,2,0,0,0,1-.75,1.94,1.94,0,0,1,1.51-.5,2.64,2.64,0,0,1,1.14.37,7.22,7.22,0,0,0,1.6.77,4.5,4.5,0,0,0,2.24.1c.73-.21.77-.66,1.33-.94a4.13,4.13,0,0,1,2.35-.16c2,.46.36,1.31.75,2s2.35,1.09.87,1.75c-.37.16-.9.25-1.23.43s-.39.33-.34.52.25.35.37.52c.21.34.11.69-.29,1a8.58,8.58,0,0,1-3.19.88,60.2,60.2,0,0,1-7,.23,59.12,59.12,0,0,1-6.4.11,54.36,54.36,0,0,1-5.91-.69,40.29,40.29,0,0,1-4.88-.76c-.34-.11-.61-.26-.94-.38a12.87,12.87,0,0,0-3.85-.38,10.58,10.58,0,0,0-1.71.09c-.73.14-1.25.46-1.28.79s.42.68,1.12.83c-2.13.69-2.55.73-1.72,1.82a25.17,25.17,0,0,1-6.08-.41,8.44,8.44,0,0,1-2.62-1L376.66,66A7.7,7.7,0,0,0,373,65c-.68,0-1.34.11-2,.12a12.64,12.64,0,0,1-3.47-.49,2.34,2.34,0,0,1-.86-.33c-.36-.35.48-.75.41-1.13,0-.22-.36-.4-.45-.61-.23-.52,1-1,1.85-1.37s1.37-1.16.23-1.37a5.77,5.77,0,0,0-1.11,0c-3.15.09-6.39,0-9.5.29a89.25,89.25,0,0,0-14.17,2.11c-1.24.33-2.42.71-3.77.94a21.92,21.92,0,0,1-6-.07c-.91-.11-3.65-.72-4.59-.4A1.3,1.3,0,0,0,329,63c-1.05,1.13-4.61,2.87-7,3.59-2,.61-4.78,1.28-4.74,2.26,0,.5.85.88,1,1.37.36,1.14-2.76,2.1-5.12,2.91a37.66,37.66,0,0,0-11.62,6.78c-1,.76-3.26,2.07-2.46,2.85A15.14,15.14,0,0,0,301,83.88c1.26.87.8,2.16-.16,3.31s-2.36,2.28-2.93,3.47c-.44.91-.4,1.87-1.52,2.71-.4.3-.93.59-1.06.91s.17.61.49.86c2.16,1.67,5.67,2.56,8.38,4a16.26,16.26,0,0,1,6.44,5.4,4,4,0,0,0,3.42,2.33,18.44,18.44,0,0,0,4.78-.61c3.26-.61,6.68-.57,10-1s6.87-1.58,7.29-3.17a37,37,0,0,0,3.84,1.06c1.66,0,2.68-.94,4.07-1.27a11.48,11.48,0,0,1,4.37.09c1.26.21,2.65.46,3.13,1.06.27.34.19.72.22,1.09a1.09,1.09,0,0,0,.87,1c1.89.57,4.37-.29,6.33-.18,2.13.13,3.2,1.37,3.09,2.33-.09.77-1.8,1.45-1,2.16.47.39,1.25.73,1.25,1.2s-1.16,1-1.6,1.54,0,1.31.82,1.81,1.84.91,2.59,1.44a11.34,11.34,0,0,1,1.81,1.87,50.18,50.18,0,0,0,3.95,3.17c1.28,1.09,2.23,2.38,1.75,3.68a6.19,6.19,0,0,0-.59,1.42c-.07.72.58,1.39.94,2.09,2.73,5.32-10.6,10.89-4.75,16.42,1.11,1,2.65,1.95,3.85,3a7.58,7.58,0,0,1,2.73,4.57c.34,2.39-1.09,5.14.53,7.47a21.71,21.71,0,0,0,5.57,5.25,9.79,9.79,0,0,1,2.28,2.14c1.22,1.49,2.14,3.22,1.26,4.83a10,10,0,0,0-.54,1c-.68,1.74,1.42,4,4.1,4.77,4.31,1.23,8.87-1.1,13.08-2.4,3.6-1.11,7.73-1.49,11.44-2.42,5.31-1.34,9.39-3.9,11.62-6.9a9.88,9.88,0,0,0,1.6-3.15c.32-1.12-.21-2-.15-3.1a2.05,2.05,0,0,1,1.52-1.76,20.18,20.18,0,0,1,3-.51,4.67,4.67,0,0,0,3.16-1.72c.84-1.35.2-3.63-.6-5-.62-1-1.65-2-1.66-3.12s1.59-2,2.51-3a7.53,7.53,0,0,1,5.22-2,17.46,17.46,0,0,0,3.45-.2,3.63,3.63,0,0,0,1.91-1.24c3.88-4.45,1.36-9.19-.88-13.78-1.76-3.62-3-7.47-.18-10.52,1.73-1.85,4.81-3.21,7.56-4.64,7.26-3.8,8.25-8.41,14.79-12.21,1.1-.63,2.23-1.32,2.35-2.18s-1.22-1.93-3.09-2a10,10,0,0,0-2.08.16c-4.32.67-12.51,3-15.48-.42-.09-.11-.18-.24-.13-.35s.26-.23.37-.35c.28-.28,0-.64-.32-.95a9.93,9.93,0,0,0-5.65-3.31,12.62,12.62,0,0,1-1.34-.29c-1-.34-1.1-1-1.4-1.51-1.21-2.19-6.83-3.68-7.34-5.84-.22-.93.45-2-1.09-2.68-.7-.3-1.69-.42-2.35-.74-1.43-.67-.48-1.73-1.15-2.58a8.1,8.1,0,0,0-2.59-1.47c-1.6-.74-2.13-1.92-2.89-2.85a11.66,11.66,0,0,0-.95-1.08c-.36-.33-1.46-.79-1.54-1.12,0-.17.4-.34.7-.23a.62.62,0,0,1,.2.11,11.1,11.1,0,0,0,2.88,1.6.75.75,0,0,0,.56,0c.07,0,0-.1,0-.15s.28-.18.53-.17a3.2,3.2,0,0,1,.71.1,5.28,5.28,0,0,1,1.47.48,2.91,2.91,0,0,1,.4.37c.85.87,3.15,1.5,3.87,2.34a1.92,1.92,0,0,1,.25.55,2.37,2.37,0,0,0,1.18,1c.55.26,1.24.47,1.78.74,2.45,1.22.74,2.88,2.56,4.16a15.44,15.44,0,0,0,2.72,1.16,7.35,7.35,0,0,1,3.53,2.78c.34.51.39,1.16.87,1.65s1.29.74,1.57,1.25a1.88,1.88,0,0,1,.19.72,8.36,8.36,0,0,1,0,1.5,1.35,1.35,0,0,0,.08.68c.28.57,4.79,2.67,5.52,2.27.38-.21.17-.55-.05-.83,5.35.41,10.72-.39,14-2.08a6.47,6.47,0,0,1,2.61-1c.71-.06,1.51,0,2.21-.07a5.17,5.17,0,0,0,1.9-.66q5.25-2.82,10.4-5.54c1-.51,2-1.09,1.91-1.83-.16-1.39-3.58-2.36-5.84-3.18-1.28-.47-2.48-1.11-2.44-1.76,0-.24,0-.57-.5-.65a1.05,1.05,0,0,0-.88.28,8.56,8.56,0,0,1-2.8,1.69,1.75,1.75,0,0,1-.86.14c-.55-.07-.86-.45-1.4-.44-1.22,0-2.29.58-3.57.53-2.11-.09-1.63-.86-1.27-1.39a.72.72,0,0,0,0-.84.57.57,0,0,0-.33-.26,1.23,1.23,0,0,0-1.4.36c-.12.29-.15.67-.79.75a1.66,1.66,0,0,1-1.53-.54c-.13-.31.16-.59.42-.86s.48-.57.23-.87a4.51,4.51,0,0,0-1.85-.81c-1.59-.5-7-3.13-3.5-3.66a7.82,7.82,0,0,1,2.44.14,11.19,11.19,0,0,1,6.3,3.27,4.62,4.62,0,0,0,1.36,1.25,8.69,8.69,0,0,0,3.61.84,12.87,12.87,0,0,0,3.64-.39,8.14,8.14,0,0,1,1.22-.27c1.6-.19,3.52.57,4,1.34a1,1,0,0,0,.36.43,3.83,3.83,0,0,0,1.28.29c3,.32,6.15.78,9.15,1.09s5.42-.32,8.33-.06a16.28,16.28,0,0,1,6.09,1.82c.88.46,1.69,1.07,2.63,1.48a8,8,0,0,0,3.84.36,1.43,1.43,0,0,1,.46,0c.35.11.17.32-.07.42-1.14.52-3.09,1.22-1.47,2.2a4.44,4.44,0,0,0,2.11.49c1.68,0,2.42-1.2,4-.94,1.25.2,1.33,1,1.22,1.51-.8,3.94,7.68,8.2,11,12.6,1.35,1.81,2.43,4,6.15,5,3.58-1.86,5-4.62,4-7.52-.2-.57-.91-1.24,0-1.58a21,21,0,0,0,2.09-.47c.63-.35.11-1.05.66-1.43a4.07,4.07,0,0,1,1.47-.38,15.25,15.25,0,0,0,6.41-2.39c1.3-.79,2.16-2,5-1.9.44,0,.89.08,1.3.07,1.48-.05,1.57-.92,2.51-1.33a7.05,7.05,0,0,1,4.86.48c.81.4,1.29.89,2.08,1.3.51.27,1.12.49,1.69.73,3.16,1.32,4.94,3.35,4.2,4.8-.18.35-.47.75.1,1.16,1.08.78,5.5,1.24,6.16.67a1.6,1.6,0,0,1,1.53-.36,2.54,2.54,0,0,1,1,.48c1.33,1,2.71,2,3.07,2.93a2.36,2.36,0,0,0,.51,1.11,7.72,7.72,0,0,0,.86.65,5.73,5.73,0,0,1,1,1,10.06,10.06,0,0,1,2.19,4.44,3.4,3.4,0,0,0,.77,2,16,16,0,0,0,3.38,2.23,18.42,18.42,0,0,1,4.79,3.87,12.81,12.81,0,0,0,3.21,3.4,23.92,23.92,0,0,0,6,2.38A12.68,12.68,0,0,0,605,119c.83,0,1.54-.19,1.38-.62s-1.43-1-2.29-1.49c-1.66-1-1.95-2.1-3-3.14-1.66-1.56-4.92-2.73-7.5-4.06a16.61,16.61,0,0,1-5.24-3.9,4.55,4.55,0,0,1-1-1.84c-.14-.59.21-1.22-.47-1.86-.17-.16-.42-.32-.59-.48-.58-.54-.25-1,.1-1.43a.74.74,0,0,1,.52-.31,3.26,3.26,0,0,1,1.47.3c2,.77,3.06,1.93,4.65,2.91s4,1.92,6,2.91c.7.36,1.42.78,1.56,1.18.08.25-.07.45-.09.68s.19.54.68.73a2.47,2.47,0,0,0,1.22.08c1.08-.19,1.32-.94.51-1.64-.14-.13-.33-.27-.3-.38s.18-.13.33-.16c2.83-.66,6.16-1.08,5.19-3.28s-4.52-4.25-7.65-6.26-6.11-4.27-5.57-6c.37-1.18,3.25-1.37,5.94-1.1a4.51,4.51,0,0,1,1.74.45.67.67,0,0,1,.37.74.65.65,0,0,0,.24.73c.32.26,1.17.46,1.35.27s0-.25.09-.33.61,0,1,0c1,0,1.11-.45,1.46-.79a4.21,4.21,0,0,1,1.83-.75,46.26,46.26,0,0,1,5.89-.81A17.39,17.39,0,0,0,619.42,88c1.06-.41,1.09-1.25,2.12-1.67A24.4,24.4,0,0,0,624,85.6c1.27-.76-.46-2.5,1-3.16.55-.25,1.54-.46.93-.94s-1.8-.7-1.87-1,.79-.29.69-.57c-.05-.13-.3-.28-.54-.42-2.69-1.5-5.92-3.06-8.29-4.58-1.33-.86-2-1.92-1.8-2.65s1.65-.9,2.67-1.22a3,3,0,0,1,1-.18,9.68,9.68,0,0,0,2.27.1c.36-.16-.08-.57-.73-.82a8,8,0,0,0-2-.4,20,20,0,0,0-3.36,0,8.28,8.28,0,0,1-2.34,0,6.34,6.34,0,0,1-2.31-.91c-.27-.17-.4-.35-.64-.51s-.67-.32-.94-.51-.45-.41-.28-.54a.94.94,0,0,1,.56-.09c.19,0,.39,0,.58.07a2.9,2.9,0,0,0,1.83-.68c.69-.33,1.44-.64,2.09-1a1.75,1.75,0,0,1,.6-.24,6.6,6.6,0,0,1,1.53,0,7.28,7.28,0,0,1,1.37.19c.46.12.93.33,1,.52s-.2.26-.41.35c-1,.44-1.14.87-.16,1.7,1.58-.56,5.11-1.46,8,.38.52.33.81.75.32.88-.27.07-.73,0-1,.11-.59.19.39.84,1.39,1.09s1.95.27,2.95.45,2.25.67,2.2,1c0,.17-.32.27-.34.44,0,.32.82.74,1.27,1.12,1,.82,0,1.38-.21,2,0,.06,0,.14.11.21a1.24,1.24,0,0,0,.44.11c.73.09,2.16.25,1.92-.17-.13-.23.11-.39.5-.45s1.5.11,1.75-.1c.05,0,.07-.12.2-.13a2,2,0,0,1,.33,0,1.5,1.5,0,0,0,1-.1c.17-.13.1-.35-.17-.55s-.48-.28-.72-.43c-.83-.5-.75-.88-1.17-1.36a7.85,7.85,0,0,0-1.4-1.17c-.77-.52-4.55-2.83-6-2.8,2.93,0,3.12-1.54,4-2.59.28-.34,1-.46,1.36-.73s.45-.6.86-.83a4.13,4.13,0,0,1,3.15-.12.93.93,0,0,1,.6.84,1.53,1.53,0,0,0,1.25.76,1.36,1.36,0,0,0,.54-.07,5.28,5.28,0,0,0,1-.49c1.2-.72,2-1.65,3.38-2.26a4.92,4.92,0,0,0,2.38-2.08,6.45,6.45,0,0,0,.55-5.88c-.32-.9-1.14-2-3.34-2.77-3-1-6.89-.69-9-2-1.35-.81-.44-1.44.51-1.86l7.44-3.21a7.22,7.22,0,0,1,4.1-.61c1.39.17,2.89.65,4.32.88a23.1,23.1,0,0,0,4.78.13,39.46,39.46,0,0,1,5.3.55,8.42,8.42,0,0,1,1.45.28c.48.15.93.4.86.55s-1.08.09-1.17.31.77.57,1.44.68c1.68.28,2.17-.37,3.63-.33.6,0,1.34.15,1.88.12s.7-.33.06-.58a4.64,4.64,0,0,0-1.08-.12,2.24,2.24,0,0,1-1.06-.27.24.24,0,0,1-.09-.16c-.06-.2-.11-.41.17-.51a4.85,4.85,0,0,1,.73-.09c1.56-.14,1.46-.93,2.84-1.15a14.19,14.19,0,0,1,5.22.63c2.15.62,3.5,1.73,4.73,1.12a3.17,3.17,0,0,1,1.11-.46c.54-.08,1.39,0,1.37-.34,0-.09-.11-.2-.14-.29-.07-.25.38-.34.9-.37a12.77,12.77,0,0,1,3.13.33c-.14.36-.58.63-1.26.78a1.67,1.67,0,0,0-.62.2c-.16.17.1.45.24.69s.12.5-.41.48-1.35-.3-1.84-.28a.65.65,0,0,0-.47.17,4.15,4.15,0,0,1-2,1.16c-.94.23-2.08.37-2.44.85-.2.27-.14.67-.89.71-.27,0-.63,0-.89,0-1,.09.25,1.05-.33,1.36a5.85,5.85,0,0,1-1.34.2c-1.2.2-.79,1.06,0,1.84,2.13,2.15,4,4.21,6.54,6.47a2.56,2.56,0,0,0,1.2.62,1.16,1.16,0,0,0,.8-.09l.94-.45c.15-.07.31-.15.25-.29s-.32-.3-.54-.45-.62-.5-.56-.67.54-.24,1.08-.08c.25.07.47.17.72.25.9.28,1.48,0,1.28-.35s-.84-.78-1.11-1.16.12-.69,1-.47a5.2,5.2,0,0,0,2.64.4c.54-.16.37-.62-.37-1-.18-.11-.39-.2-.54-.31-.49-.33-.18-.57.34-.64A15.13,15.13,0,0,0,690,55.5c.42-.11.4-.48-.3-.77-.23-.09-.49-.16-.73-.24-1.48-.5-1.19-.81-1.42-1.22a12.56,12.56,0,0,0-1.64-1.6c-.66-.66-.82-1.26-.53-1.72a1,1,0,0,1,.9-.55,9.7,9.7,0,0,1,1.86.58c.17-.21.25-.46.6-.61a3.38,3.38,0,0,1,1.82,0,1.35,1.35,0,0,0,.58.85c1.07.08,1.77-.13,1.74-.54,0-.13-.08-.29,0-.4.21-.31,1.54-.14,2.64.19a10.71,10.71,0,0,1,3,1.35,4.43,4.43,0,0,0,.8.51,4.56,4.56,0,0,0,1.7.38,2.28,2.28,0,0,0,1-.24c1.06-.51,1.55-1.24,2.58-1.76a8,8,0,0,1,4.61-.46c.62.09,6,1.14,6.08,1.58-.15-.91-2.6-2.66-5.43-3.5-.71-.2-1.4-.33-2.1-.49a8.23,8.23,0,0,1-2-.68c-.25-.13-.43-.29-.32-.36a1.11,1.11,0,0,1,.64,0c1,.16,2.14.59,3.22.85,1.33.32,5.11.72,4.74,0a2.78,2.78,0,0,0-1-.7,3.1,3.1,0,0,1-1-.71c-.13-.22.16-.35.67-.31a4,4,0,0,1,1,.24c1.11.45.63,1,1.71,1.44a4.14,4.14,0,0,0,2.22.26,4.09,4.09,0,0,1,2.14.15c1.31.47,1.19,1.17,2.49,1.65a7.91,7.91,0,0,0,1.85.35,18.37,18.37,0,0,1,2.94.64,17.44,17.44,0,0,0,2.4.67c.74.11,1.12-.17.41-.49-.25-.12-.55-.2-.82-.31-.47-.18-.82-.44-.8-.59.07-.52,3.65.27,4.56.08C734.56,48.69,730,47.62,728.64,47.41ZM463.9,56a7.94,7.94,0,0,0-2.16-.39c-.93.09-.53.71.26,1s1.89.55,2.16,1-.9.95-.62,1.48c.18.36,1,.64,1.55,1s.8.82,0,.94c-.31,0-.68,0-1,0-1.08,0-1.88.45-3,.34-1.58-.16-2.29-1.29-3.84-1.26-.68,0-1.16.28-1.85.26a2.58,2.58,0,0,1-1.81-.78c-.77-.75-1.54-1.59-.83-2.25.44-.42,1.45-.73,1.5-1.2S453,55,451.84,54.62a3.27,3.27,0,0,1-1.21-.52c-.27-.27,0-.55-.12-.83-.18-.51-1.41-.86-2.34-1.24s-1.6-1-.65-1.31c-.78-.56-1.56-1.27-.66-1.71a4.56,4.56,0,0,1,.9-.28c1.28-.3,6.13-.72,6.38-1.3.13-.3-.17-.67.32-.88s1.81,0,2,.3-.21.64.45.74a3.36,3.36,0,0,0,.9-.06,6.65,6.65,0,0,1,3.44.75c.92.42,1.91.9,1.93,1.41s-1.65.9-2.61.49a2.74,2.74,0,0,0-1-.39c-.61-.07-.9.24-.83.49s.2.55-.29.67c-.82.21-2.05-.4-2.95-.25-.74.13-.36.64.38.85s1.67.25,2.47.41c1.82.39,2.53,1.49,1.28,2a16.07,16.07,0,0,1,4-.06c1.36.18,2.66.68,2.83,1.25S465.23,56.22,463.9,56Z"/><path class="cls-2" d="M373.7,59.53a1.86,1.86,0,0,0-.43-.06c-.11,0-.22,0-.33,0a.91.91,0,0,1-.48-.14l-1-.56c-.09,0-.19-.12-.14-.18a.65.65,0,0,1,.46-.09,3.09,3.09,0,0,1,.48.11,5.18,5.18,0,0,0,2.29,0,1.19,1.19,0,0,1,.33,0c.31,0,.21.31.53.29a.54.54,0,0,0,.32-.16,1,1,0,0,1,.9,0c.06.09,0,.18,0,.27s.6.36.37.53a3.78,3.78,0,0,0-.35.17c-.15.11,0,.24.19.35s.24.28,0,.35a.93.93,0,0,1-.63-.08c-.15-.08-.2-.18-.33-.27A9.91,9.91,0,0,0,373.7,59.53Z"/><path class="cls-2" d="M361.72,55.21c-.12,0-.26.06-.28.11s.39.12.51.22,0,.14,0,.21.19.11.29.16c.53.28-.37.74,0,1.07a2.15,2.15,0,0,1,.24.18c.1.11,0,.25.23.33a1.49,1.49,0,0,0,1-.09,4.23,4.23,0,0,1,.74-.34l.24-.07c.31-.12.08-.32.09-.49s.73-.53.44-.76c-.06-.05-.17-.1-.18-.15s.33-.18.38-.29-.84-.23-.9-.43.05-.13,0-.17a.76.76,0,0,0-.27,0A11.58,11.58,0,0,0,361.72,55.21Z"/><path class="cls-2" d="M362.65,52.81a1.49,1.49,0,0,0-.46.1c-.2.09-.11.23,0,.33s.32.2.29.31-.19.18-.3.26-.15.2,0,.26.82-.07,1.12,0c.13,0,.17.11.28.15a1,1,0,0,0,.76-.1.24.24,0,0,0,.06-.35c-.05-.12-.13-.24-.07-.36s.4-.29.44-.45-.44-.41-.4-.64c0-.05,0-.1,0-.16a.21.21,0,0,0-.1-.12c-.5-.3-.62.1-.69.19A1.26,1.26,0,0,1,362.65,52.81Z"/><path class="cls-2" d="M466.42,135.39a.69.69,0,0,1-.4.69,12.3,12.3,0,0,1-1.65.28c-1.65.42-.22,2.18-1.82,2.65-.91.27-2.22-.09-3.22.09s-1.33.82-2.09,1.2c-1.18.59-3.5.65-3.71,1.55-.14.59.79,1.15,1.44,1.69,1.64,1.35,1.71,3.14.18,4.33a8.87,8.87,0,0,0-1.41,1.08,2,2,0,0,0-.38,1.36c.08,2.7,2.2,5.54,5.77,7.71a3.84,3.84,0,0,0,1,.48,3.78,3.78,0,0,0,2.68-.46c3.45-1.94,3.44-5.13,4.67-7.81.82-1.78,2.26-3.45,2.22-5.32a2.72,2.72,0,0,1,.15-1.5c.38-.63,1.48-1.13,1.21-1.82s-2.13-1.42-1.76-2.11c.25-.48,1.8-.47,2.33,0,.53-.19.47-.64.18-1s-.73-.69-.84-1.06.16-.72.22-1.08c.14-.84-.82-1.69-1.74-2.46C466.55,131.45,466.5,134.33,466.42,135.39Z"/><path class="cls-2" d="M578.85,109.86c-.73.57.52,1.62,1.94,2.32.92.46,1.91.88,2.84,1.33s1.46.83,2.24,1.24a3.75,3.75,0,0,1,1.54,1.17c.08.16.09.33.32.48a3.45,3.45,0,0,0,1,.33,7,7,0,0,1,4.16,2.79,13.45,13.45,0,0,0,4.64,3,3.85,3.85,0,0,1,1.32.74,1.55,1.55,0,0,1,.19.47,3.81,3.81,0,0,0,1.47,1.27l5.9,3.8a18.73,18.73,0,0,0,4.39,2,2.5,2.5,0,0,0,.53.11c.16,0,.29-.05.26-.14a.51.51,0,0,0-.09-.13c-.08-.11,0-.22.13-.26a1,1,0,0,1,.59.08c.21.08.35.2.55.29a1.55,1.55,0,0,0,.74.16c.22,0,.35-.11.34-.23s-.09-.21-.1-.31.12-.18.32-.13.2.08.3.11.37,0,.35-.12-.67-.7-.85-1-.44-.77-.17-1c.06-.07.16-.13.16-.22s-.08-.2-.23-.3a5.85,5.85,0,0,0-.67-.27c-1-.42-.78-.71-1-1.13a1.2,1.2,0,0,0-.77-.49c-.43-.09-.6.11-1,0s-.64-.47-1-.72c-.13-.09-.31-.16-.46-.25-.47-.25-.76-.57-.75-.83s.1-.33-.16-.49a1.44,1.44,0,0,0-1.13,0,10.46,10.46,0,0,1-1.27-.41c-.39-.18-.73-.41-.8-.62s.07-.31.06-.48c0-.54-1.2-1.13-2.09-1.55s-2.56-.91-3-1.39c-.09-.11-.12-.22-.21-.33-.44-.5-1.84-.78-2.38-1.28a1.66,1.66,0,0,0-.46-.39c-.53-.24-1.27-.1-1.81-.34a.92.92,0,0,1-.31-.2,2.83,2.83,0,0,1-.65-.64,2.62,2.62,0,0,0-.21-.34,1,1,0,0,0-.49-.3c-.2-.05-.46-.07-.55-.17a1.93,1.93,0,0,1-.68-.28c-.11-.08-.18-.16-.29-.24a10.57,10.57,0,0,0-1.86-.66c-1-.4-1.21-1.13-2.25-1.46-.26-.08-.54-.13-.78-.23-.4-.17-.51-.42-.77-.64a5.41,5.41,0,0,0-2.46-.77,10.85,10.85,0,0,1-2.64-.53c-.32-.14-.6-.31-1-.43A1.32,1.32,0,0,0,578.85,109.86Z"/><path class="cls-2" d="M629,115.49c0,.14.41.29.71.34a3.78,3.78,0,0,1,.9.18c.33.15.44.37.32.49a1.41,1.41,0,0,1-.65.22l-2.34.4c-.6.1-1.24.23-1.34.57-.05.16,0,.36,0,.52-.22,1.09-4.59.19-5,1.24-.1.29.16.66.13,1s-.58.55-1.26.32a7.68,7.68,0,0,1-1.24-.78,2.3,2.3,0,0,0-2.2,0c-.32.33-.09.82.15,1.29a11.24,11.24,0,0,0,3.1,4,1.34,1.34,0,0,0,.29.2,1,1,0,0,0,1.16-.15q1.35,1.59,2.7,3.21a6.59,6.59,0,0,1,1.72-.14,4,4,0,0,1,1.94.64,3.13,3.13,0,0,0,.86.6,1.94,1.94,0,0,0,.66.09,8.21,8.21,0,0,0,2.13-.2,5.17,5.17,0,0,1,1.18-.21,2.79,2.79,0,0,1,1.5.4c.39.27.45.63,1,.82a8.4,8.4,0,0,0,1.51.15,4.52,4.52,0,0,0,.75.18c.37,0,.35-.23.4-.41.18-.73,2.32-.61,2.54-1.32.17-.54-.83-1.35-.52-1.84.16-.25.66-.37.77-.64.24-.63-1.68-1.75-1-2.23.35-.26,1.42-.19,1.37-.59s-1.52-.89-2.18-1.4-.38-1-1-1.5-1.94-.91-2.27-1.42c-.52-.82,2.14-.6,2.2-1.31,0-.17-.15-.38-.46-.56a3.35,3.35,0,0,0,1.8-.51,15.47,15.47,0,0,1-2.56-.91c-1.36-.68-2.68-2-4.56-2C630.76,114.06,630.07,115.19,629,115.49Z"/><path class="cls-2" d="M614.09,132a2.16,2.16,0,0,1,1.87-.27,4.78,4.78,0,0,0,1.15.23c.38,0,.42-.27.71-.36.61-.19,1.71.34,2.54.73a24.35,24.35,0,0,0,5.19,1.56,15.53,15.53,0,0,0,4.71.48,6.86,6.86,0,0,1,.82-.09,3.58,3.58,0,0,1,2.75,1.27,1.32,1.32,0,0,0,.19.45,3.15,3.15,0,0,0,1.71.72,16.36,16.36,0,0,1,1.92.32c.66.18,1.36.63,1.2.89-.05.08-.17.13-.18.22,0,.34,1.22.67,1.53,1.06s-.62.45-1.32.19a19.23,19.23,0,0,1-1.86-1c-1.8-.86-3.85-.74-5.84-1.22-1.48-.36-2.95-1.06-4.39-1.27-.8-.11-1.51,0-2.31-.16-1.33-.18-2.72-.8-4.07-1-.76-.14-1.48-.15-2.25-.27a4.23,4.23,0,0,1-2.07-.81,1.62,1.62,0,0,0-.48-.4c-.7-.31-1.06.23-1.69-.16C613.47,132.87,613.93,132.2,614.09,132Z"/><path class="cls-2" d="M645.65,128.7a4,4,0,0,1,.22,1,4.24,4.24,0,0,0,0,1.12,2.26,2.26,0,0,0,1.27,1.23A1.66,1.66,0,0,1,648,132c.75.82.31,1.48.33,2.21a1.2,1.2,0,0,0,.52,1,2.48,2.48,0,0,0,1.66.52c.32-.06.35-.29.49-.45a1,1,0,0,1,1,0c.66-.24-1-1.13-1-1.64,0-.23.35-.34.31-.58s-.35-.44-.55-.67-.23-.49.15-.49a2.2,2.2,0,0,1,1.14.54c1.36,1.12,2.8,2.35,2.77,3.33a1.63,1.63,0,0,0,1.54.07c.25-.2.22-.53.4-.76a1.25,1.25,0,0,1,1.36-.15l-2.17-1.7a17.29,17.29,0,0,0-1.72-1.22,12.66,12.66,0,0,0-3.94-1.46c.11-.62,2.26-.13,3-.5.36-.18.28-.55.47-.81a1.4,1.4,0,0,1,1.53,0c.37,0-.2-.41-.65-.55a6.55,6.55,0,0,0-3.21-.23,1.34,1.34,0,0,1-.76,0c-.36-.09-.64-.34-1-.42a6.25,6.25,0,0,0-.87,0c-.6-.06-1.08-.54-1.08-.83s.17-.57-.22-.9c-.2-.17-.55-.35-.54-.49s.4-.14.72-.1l4.09.46a3.6,3.6,0,0,1,1.57.45,1.92,1.92,0,0,0,.38.25c.32.13.51,0,.74-.07.6-.13,1.94.43,2.32.17.17-.11,0-.34.06-.5s.59-.35.91-.52.33-.57-.29-.82a1.41,1.41,0,0,0-1.09,0c-.21.12-.29.31-.51.43a5.11,5.11,0,0,1-2.36.06l-3.35-.36a2.06,2.06,0,0,1-.77-.18,2.36,2.36,0,0,1-.44-.38,2.92,2.92,0,0,0-2.14-.3c-1.25.25-2.22.29-2.06,1.15C644.83,126.5,645.33,127.64,645.65,128.7Z"/><path class="cls-2" d="M627.38,91.13c0,.16-.26.28,0,.46a1.41,1.41,0,0,0,.45.18,3.49,3.49,0,0,0,2,0l.13-.09c.26-.21.17-.56-.25-.88a3.89,3.89,0,0,1-.41-.34c-.31-.38.46-.52.49-.84a2.69,2.69,0,0,0-.8-1.89s-1.51-1.4-1.67-1.21a3.93,3.93,0,0,0-.65,1.79c-.13.5-1,.76-.88,1.35S627.38,90.72,627.38,91.13Z"/><path class="cls-2" d="M604.93,92.46l-2.44.31c-.44,0-.92.13-.93.36,0,.44,1.48.89,1.87,1.38.1.13.14.26.35.37a2.08,2.08,0,0,0,.4.14,2.94,2.94,0,0,0,2.2-.27,4,4,0,0,1,1.3-.85c.3-.08.71-.19.46-.41s-1.19-.41-1.14-.62.15-.09.15-.17-.38-.24-.67-.29a4.14,4.14,0,0,0-1.41,0"/><path class="cls-2" d="M631.44,98.81c-.1.24-.37.42-.41.67s.26.63.87.83a3.2,3.2,0,0,1-1.78-.45c-.31.12,0,.46.42.71a9.41,9.41,0,0,1,1.28.74c.32.27.35.53.53.79a1.89,1.89,0,0,0,1.2.68.77.77,0,0,1,1-.14.31.31,0,0,1,.18.27c0,.27-.15.49,0,.78a1.74,1.74,0,0,0,1.27.74,2.49,2.49,0,0,0,.8-.07,6.49,6.49,0,0,1,3.58.75c.27.14.5.3.78.44a10.55,10.55,0,0,0,1.64.63,4.78,4.78,0,0,0,1.05.27c.33,0,.59-.09.42-.27-1.56-.52-1.94-1.67-3.51-2.16a8.19,8.19,0,0,0-1.18-.23,9.57,9.57,0,0,1-3.83-1.29c-.77-.58-.69-1.15-.31-1.54s1-.69,1.3-1.13,0-1.07-1-1.59a3.54,3.54,0,0,1-1-.58c-.15-.2.09-.33.06-.52s-.48-.5-1-.62-1-.07-1.05.12c-.24.63-1.62-.67-2.25-.12S631.7,98.22,631.44,98.81Z"/><path class="cls-2" d="M645.31,112.52a2.43,2.43,0,0,0-.44-.06,4,4,0,0,0-1.51.12c-.36.17-.34.5-.3.81l.18,1.36a.32.32,0,0,0,.26.26h.17a1.94,1.94,0,0,0,1.25-.52,2,2,0,0,1,1.7-.17,5.89,5.89,0,0,0,.68.21c.2,0,.38,0,.58.07a2,2,0,0,1,1.12.57.38.38,0,0,1,0,.59c-.12.09-.28.17-.24.31s.64.5,1.15.66a5.46,5.46,0,0,1,1.42.57,1.32,1.32,0,0,0,.26.18,1.46,1.46,0,0,0,.74.06,3,3,0,0,1,1.7.54,1.53,1.53,0,0,0,.8-.49s.07-.1,0-.17a1.5,1.5,0,0,0-.44-.23c-.63-.27-.83-.69-.67-.94s.55-.39.81-.6.33-.53-.11-.86a6.44,6.44,0,0,1-.61-.43c-.18-.2-.07-.35-.14-.54a2.47,2.47,0,0,0-.9-.77,3.48,3.48,0,0,0-1.59-.64c-.83,0-.28.7-.58.94s-.7.25-1.51.24a22.37,22.37,0,0,1-2.69-.16C645.72,113.2,646,112.74,645.31,112.52Z"/><path class="cls-2" d="M632.25,109.67a.88.88,0,0,0,.12.71c.16.26.2.55-.16.64a5.4,5.4,0,0,1-.92,0c-.83,0-1.18.46-.78.94,1.26.19,1.64-.42,2.32-.74a2.92,2.92,0,0,0,.47-.22,1.31,1.31,0,0,0,.34-.51,2.15,2.15,0,0,1,.41-.45c.73-.69,2.54-1.48.37-2.73A2.3,2.3,0,0,0,633,107c-.43.12-.07.53.09.85C633.5,108.72,632.46,109,632.25,109.67Z"/><path class="cls-2" d="M642.59,108.53c1.07-.07-1.37-1-1.54-1.25-1,.58-.66,1.19-.93,2a.08.08,0,0,0,0,.07c.08.15.55.2.72.13s.33-.39.42-.61.35-.42.89-.37C642.29,108.5,642.46,108.53,642.59,108.53Z"/><path class="cls-2" d="M678.84,131.51a15.39,15.39,0,0,0-2.34-.47c-.73-.06-1.36.05-1.45.38s.54.9,1.34,1.11,1.33.05,2.05.31a16.26,16.26,0,0,1,1.62.94c1,.47,2.35.5,3.05,1.06-1.27-.05-2.57-.13-3.88-.23.38.69,2.74,1.12,3.27,1.82.09.12.11.24.27.36a1.44,1.44,0,0,0,1,.24.49.49,0,0,0,.39-.34,3.36,3.36,0,0,1,1.87.68,7.44,7.44,0,0,0,1.7,1c1.06.39,2.16.21,3.1.73a5.2,5.2,0,0,0,2.77.91,2.78,2.78,0,0,0,1.62,1,4,4,0,0,0,.5,0,5.4,5.4,0,0,1,3,1.19,22.26,22.26,0,0,1,1.8,1.86c.5.48,1.16,1,1.62,1.45s.7,1,.3,1.25c-.57-.34-1.28-.28-1.43,0s0,.62-.27.83c1.92.54,2.84-.48,4.76.13,1.46.47,2.39,1.54,3.81,2.16a6.46,6.46,0,0,0,3.36.46,1.75,1.75,0,0,1,.75,0,5,5,0,0,1,.61.22c1,.38,2,.41,2.27.08s-.4-1.35.25-1.64l2.34.79a6.09,6.09,0,0,0,.83.25c.3.07.57.1.86.15a7.78,7.78,0,0,1,3.07,1.3,8.46,8.46,0,0,0,1.75,1.21c.44.18.9.26,1.32.47.73.34,1,.88,1.73,1.25s1.53.44,2.13.83c.18.12.32.25.52.36.69.37,1.26.1,2,.31a5.94,5.94,0,0,1,.75.31,16.56,16.56,0,0,0,3.12.9c.15,0,.32.06.37,0s-.15-.24-.35-.35c-.88-.51-1.92-.9-2.72-1.43l-.61-.44c-.41-.28-.89-.54-1.36-.8l-4.63-2.52a3.41,3.41,0,0,1-.69-.43c-.2-.18-.27-.34-.45-.52-.48-.45-1.59-.81-2-1.26s.67-.64.79-1.07-1-1.22-2-1.38a4.38,4.38,0,0,1-.76-.14c-.58-.2-.86-.62-1.39-.91-1-.53-2.19-.28-3.12-.84-.75-.45-.54-1-1.34-1.41a12.85,12.85,0,0,0-2.72-1.25,3.49,3.49,0,0,1-.79-.26c-.42-.22-.52-.53-1-.74a2.71,2.71,0,0,0-.86-.21c-2-.29-4.23-1.42-6.36-2-.72-.2-1.44-.35-2.15-.6a35,35,0,0,0-4.07-1.57c-.72-.15-1.36-.12-2.09-.34s-1.44-.66-2.2-.93a9,9,0,0,0-1.91-.4,3.56,3.56,0,0,0-1.25,0,.73.73,0,0,0-.4.32,5.27,5.27,0,0,1-1.76,1.4,1.41,1.41,0,0,1-1.31-.1,1,1,0,0,1-.25-.32,2.9,2.9,0,0,0-1.65-.88,2.1,2.1,0,0,1-.55-.13.81.81,0,0,1-.45-.42,27.37,27.37,0,0,0-1.44-2.45,1.25,1.25,0,0,0-.65-.54,2.37,2.37,0,0,0-.5-.11C681.26,131.84,680,131.8,678.84,131.51Z"/><path class="cls-2" d="M663.47,126.05c.2.2.4.4.32.52s-.1.08-.1.13.6.38.79.59-.12.32-.13.5.19.33.39.51a8.22,8.22,0,0,0,2,1.34c.27.12.72.21.66.07a7.21,7.21,0,0,1-1.39-1c-.35-.29-.7-.62-.65-.86s.76-.26,1.2,0c.15.1.24.2.39.3.32.2.86.27,1,.14s-.12-.42-.51-.58a7.76,7.76,0,0,0-.79-.22,1.55,1.55,0,0,1-.67-.33c-.24-.32.76-.23.75-.5s-.29-.33-.59-.41a.8.8,0,0,0-.67,0,.3.3,0,0,1-.38.12.68.68,0,0,1-.21-.12c-.65-.56-.19-1.15-.85-1.71a1,1,0,0,0-.7-.2c-.08,0,0,.14,0,.22.17.41-.23.6-.2,1C663.17,125.74,663.32,125.9,663.47,126.05Z"/><path class="cls-2" d="M664.31,123.77l.71.94a1.33,1.33,0,0,0,.43.42c.4.24,1.07.33,1.21.15s0-.13-.06-.2-.61-.24-.81-.4-.11-.13-.17-.2a1.74,1.74,0,0,0-1-.47"/><path class="cls-2" d="M646.16,140.69c.32,0,.81.18,1.16.17s.43-.19.74-.2.55.08.76.05c.47-.07,0-.62.41-.72a1.93,1.93,0,0,1,1.18.36c.33.23.54.48.89.7s.93.4,1.16.28c.5.21.72.61.41.72a2.7,2.7,0,0,1-1.22-.1,7.21,7.21,0,0,0-2.81-.32c-.67.18-.82.47-1.9,0C646.43,141.42,645.39,140.76,646.16,140.69Z"/><path class="cls-2" d="M659.5,143.85a1.36,1.36,0,0,1-.4-.14c-.31-.16-.22-.37,0-.43.7-.15,2,.39,2.77.26.45-.09.58-.43,1.19-.34s1.15.5,1.71.57a1.76,1.76,0,0,0,.58,0l2.79-.63a1.76,1.76,0,0,1,.84,0c.42.08.84.32,1.26.41a2.59,2.59,0,0,0,1.24-.08,2,2,0,0,1,1.41.28c.24.19.18.39,0,.46a3.11,3.11,0,0,1-.89,0,50.77,50.77,0,0,0-5.37,0,3.72,3.72,0,0,0-1.25.2c-.26.11-.4.3-.73.36C663.67,144.91,660.81,144.2,659.5,143.85Z"/><path class="cls-2" d="M773.23,201.67c0,.34.72.86.9,1.26s-.07.54.15.88.64.61.88.91c.52.67-.22,1,.26,1.66.09.12.21.24.29.36.2.33,0,.52-.28.63s-.59.21-.62.47.58,1,.33,1.27-1,.06-1.35.19-.28.49-.42.74c0,.09-.13.18-.07.31s.65.58.84.86a2.41,2.41,0,0,1,.49,2.23c-.2.48-.67.87-.32,1.56a6.85,6.85,0,0,1,.6,1c.1.37-.21.56-.38.81s-.15.68.4,1.09l.25.18c.42.39-.35.47,0,.86s1.54.53,2,1c.22.24.06.39-.15.45s-.47.11-.45.3.38.52.39.72-.09.17-.23.2c-.84.12-2.5-1-3.55-1.08a3.34,3.34,0,0,1-1.34-.12,2.12,2.12,0,0,0-.51-.21.23.23,0,0,0-.18.05c-.3.22-.08.71.1,1.15s.26.91-.23,1a1.1,1.1,0,0,0-.4.07c-.18.14.2.55.1.73s-.55.09-.88.09-.49.26-.09.5a2.88,2.88,0,0,1-1.36-.5c-.43-.3-.71-.66-.7-.91s0-.22-.11-.35a1.45,1.45,0,0,0-.39-.21l-2.21-.91c0-.16.3-.22.62-.16.12-.15-.48-.52-.83-.57s-.59,0-.94,0c-.5-.48.62-.49.26-1a1.55,1.55,0,0,0-1.21-.46c-.35.06-.51.28-.81.38s-.47.14-.16.48.65.54.6.8-.64.2-1.09.11a1.5,1.5,0,0,0-.35,0c-.31,0-.27.28-.38.45s-.78.22-1.39,0a5.53,5.53,0,0,1-1.69-1,4.18,4.18,0,0,0-1.27-1,8.33,8.33,0,0,0-1-.21,14.87,14.87,0,0,0-1.6-.57c-.17,0-.31,0-.48,0a4.2,4.2,0,0,1-1.85-.85,7.27,7.27,0,0,0-1.82-1.06"/><path class="cls-2" d="M750,216.35A16.81,16.81,0,0,1,747.3,215a3.53,3.53,0,0,1-.47-.33c-.5-.46-.19-.81-.52-1.27s-.81-.68-1-1c-.09-.15-.1-.28-.18-.42a4.19,4.19,0,0,0-1.31-1.13c-.52-.36-1.09-.78-1.19-1.13-.05-.17,0-.32-.18-.5a1.76,1.76,0,0,0-.93-.39,1.67,1.67,0,0,0-.87.08.88.88,0,0,1-1.11-.33c-.1-.18,0-.34,0-.51a1.74,1.74,0,0,0-.37-.67c-.18-.21-.42-.43-.58-.64a4,4,0,0,1-.44-.76,2.27,2.27,0,0,0-.65-.78,1.89,1.89,0,0,0-1.12-.42c-.33.05-.25.36-.11.64s.33.6.15.75-.18.09-.21.16a.61.61,0,0,0,0,.19c0,.3-.52.34-1,.35a2,2,0,0,1-.58-.06,1,1,0,0,1-.56-.35c-.07-.13.06-.2.22-.21s.36,0,.51,0a.43.43,0,0,0,.38-.35.73.73,0,0,0-.24-.8c-.33-.32-.55-.46-.58-.76a1.56,1.56,0,0,1,.18-.68,2.26,2.26,0,0,0-.59-1.93.93.93,0,0,0-.53-.35.17.17,0,0,0-.18.1,1.74,1.74,0,0,1-1.35,1.23,6.17,6.17,0,0,0-.64.09c-.48.12-.6.5-.4,1a.7.7,0,0,1,.12.34c0,.08-.1.14-.21.17a1.82,1.82,0,0,1-1.13-.08,1.93,1.93,0,0,1-1-.76.39.39,0,0,0-.14-.22.77.77,0,0,0-.24-.12l-.72-.29a1.86,1.86,0,0,1-.75-.44,1,1,0,0,1-.18-.54,2.76,2.76,0,0,0-1.72-1.55c-.24-.09-.48-.15-.72-.23a5.28,5.28,0,0,1-1-.49,1.07,1.07,0,0,1-.29-.25c-.16-.3.67-.21.47-.51a1.18,1.18,0,0,0-.68-.33,4.58,4.58,0,0,1-.71-.12,1.31,1.31,0,0,1-.69-.48c-.11-.2,0-.38-.29-.58a2.39,2.39,0,0,0-.32-.16c-.43-.18-1-.34-1.17-.22-.06,0-.09.08-.16.1a1.41,1.41,0,0,1-.83-.28,3.55,3.55,0,0,0-.84-.44,1,1,0,0,0-.78.11,1,1,0,0,1-.89,0c-.31-.15-.45-.4-.42-.55.18,0,.31.13.45.13a7.61,7.61,0,0,0-2.38-.9,8,8,0,0,0-2.11-.06l-4.59.33a6.62,6.62,0,0,1-2-.08,10.9,10.9,0,0,0-2-.44c-.7,0-1,.56-1.87.24-.31-.11-.59-.31-.91-.43-1.37-.51-1.41,1-2.77.46-.19-.08-.36-.19-.55-.28-1-.43-1.56,0-1.55.56s.21,1.2-.5,1.32c-1.07.18-3.39-1-3.9-.48-.07.08-.09.19-.19.25-.26.17-.93,0-1.44-.29a8,8,0,0,0-1.56-.66,7.43,7.43,0,0,0-1.5,0,13.49,13.49,0,0,1-1.83-.37c-.61-.11-1.25-.07-1.21.28,0,.18.25.42.23.59s-.34.25-.63.29l-3,.4c-.45.07-.94.15-1,.44s0,.46-.32.42a2.31,2.31,0,0,1-.78-.37,3.45,3.45,0,0,0-2.12-.29,3.14,3.14,0,0,1-2.13-.41c-.39-.28-.51-.61-.87-.9a5.15,5.15,0,0,0-.65-.41c-1.05-.56-2.08-1.13-3.12-1.7-.41-.22-.88-.52-.84-.74s.61-.16,1,0a10.11,10.11,0,0,0,1.31.51c.59-.53-.76-1.82-1.19-2.69a15,15,0,0,1-.5-1.72,11.48,11.48,0,0,0-2.49-3.14c-1.71-1.77-3.24-3.54-4.76-5.3l-1.95-2.25a5,5,0,0,0-1-.91,11,11,0,0,0-1-.61,16.21,16.21,0,0,1-2.8-1.86c-.29-.27-.75-.59-.55-.81.39-.42,1.25.3,1.93.43,2.83.54-1.69-3.24-3.2-3.88-.3-.13-.68-.32-.62-.46s.29-.08.49-.07c.87,0,1.06-.64.35-1.18,0-.38-.28-.82-.3-1.2-.64-.15-1.25-.65-1.14-.94s.9-.29,1.48,0a2.39,2.39,0,0,0,.54.25.7.7,0,0,0,.42,0l2.55-.93c.25-.09.49-.18.57-.35s0-.42,0-.61c.09-.58,1.34-.59,2.48-.44a9.46,9.46,0,0,0,3.22.2c.77-.23.8-.89,1.42-1.21a9.9,9.9,0,0,1,3.24-.31c2.12-.12,3.45-1,3.43-2.29a1.52,1.52,0,0,0-.39-1.26c-.22-.24-.55-.47-.75-.71s-.29-.58-.1-.76a.27.27,0,0,1,.12-.05,1.55,1.55,0,0,1,.34.05.5.5,0,0,0,.62-.29l.21-.44a.1.1,0,0,1,.14,0l.1,0c.53.33.65.7,1,1a14.23,14.23,0,0,0,1.39,1.17c.21.18.47-.31.46-.37a2.78,2.78,0,0,0-.43-.81A6.27,6.27,0,0,0,673,158c-.22-.25-.25-.5,0-.58a1.44,1.44,0,0,1,1.11.28,1.65,1.65,0,0,0,.45.37c.16.07.33.08.49.14a1.76,1.76,0,0,0,.44.15.11.11,0,0,0,.12-.09c.09-.28-.06-.64-.42-1-.16-.17-.37-.33-.5-.5s-.14-.34.06-.38c.39-.09,1.28.36,1.61.22a.24.24,0,0,0,.12-.16.39.39,0,0,0-.18-.5,2.11,2.11,0,0,1-.29-.2c-.13-.12,0-.21.11-.25s.29-.08.28-.19-.21-.26-.24-.37c-.11-.44,1.16.28,1.46.31s.35,0,.35-.16-.51-.57-.33-.71a.48.48,0,0,1,.23-.07,1.72,1.72,0,0,1,.77,0,1.66,1.66,0,0,0,.29.1c.23,0,.28-.1.47-.11a1,1,0,0,1,.28,0,2.18,2.18,0,0,1,1.25.75.46.46,0,0,0,.21.24,1.46,1.46,0,0,0,.36.09,2.1,2.1,0,0,1,.87.53,2.81,2.81,0,0,1,.74.87c.08.21,0,.39,0,.59a.88.88,0,0,0,.6.56c.4.14.66,0,.6-.22s-.31-.45-.47-.68-.17-.32,0-.39a1.14,1.14,0,0,1,.57,0c.22.06.44.14.65.21a3,3,0,0,1,.86.4,1,1,0,0,0,.54.16,4.43,4.43,0,0,1,.7,0c.31.07.51.24.78.31a.33.33,0,0,0,.25,0l.14-.07s0,0,0,0-.1-.1-.18-.14a8.12,8.12,0,0,1-.93-.48c-.19-.11-.35-.23-.55-.34s-.32-.15-.47-.24c-.8-.48-.2-.95.7-.6a.49.49,0,0,0,.16,0,.07.07,0,0,0,.07,0,.68.68,0,0,0,0-.4.92.92,0,0,0-.43-.46,1.16,1.16,0,0,1-.22-.13c-.15-.12,0-.22.17-.2a2.61,2.61,0,0,1,.64.16,1.15,1.15,0,0,0,.58.06c.14-.07,0-.24-.14-.39A3.64,3.64,0,0,0,687,154a1.84,1.84,0,0,1-.54-.33s0,0,0-.07l.07,0c.26,0,.71.07.74-.08s.42-.39,0-.71a4.72,4.72,0,0,1,.81.08,2.46,2.46,0,0,1,.83.34l.28-.37a.26.26,0,0,1,.29-.09c.29.06.38.29.6.45a1.65,1.65,0,0,0,1,.23,2,2,0,0,1,1,.11,3.62,3.62,0,0,0,.48.25.9.9,0,0,0,.52.06.57.57,0,0,0,.26-.18c.05-.06.1-.13,0-.23a2,2,0,0,0-.46-.25c-.42-.2-.64-.49-1-.7a5.81,5.81,0,0,0-1.26-.41c-.42-.12-.94-.37-1-.58s.33-.22.7-.12a5.82,5.82,0,0,1,1.06.45,1.67,1.67,0,0,0,.65.22.58.58,0,0,1,.64.26,1.52,1.52,0,0,0,.74.29,1.13,1.13,0,0,0,.58-.07.41.41,0,0,1,.26-.05.93.93,0,0,1,.47.25,2.62,2.62,0,0,0,.34.31,1.75,1.75,0,0,0,.7.23c.23,0,.44,0,.68.08a.92.92,0,0,1,.32.1,2.4,2.4,0,0,1,.23.21,1.27,1.27,0,0,0,.73.19,1.55,1.55,0,0,1,.72.09l.28.14a1.36,1.36,0,0,0,.64.09l.56,0a1.57,1.57,0,0,1,.59.05,2.91,2.91,0,0,1,.93.51,2,2,0,0,0,1,.38c.08-.08,0-.18-.06-.31s0-.26.15-.27a2.26,2.26,0,0,1,.35,0c.33,0,.56-.06.56-.22a.28.28,0,0,1,.09.42c-.05.13,0,.31.24.45s.44.14.63.25.26.29.14.36a1.49,1.49,0,0,1-.51.1,1.44,1.44,0,0,0-.47.15c-.06,0-.12.07-.12.13s.07.14.19.2l.23.07a1.21,1.21,0,0,1,.59.4.58.58,0,0,1,.12.4c0,.06,0,.12-.1.13s-.4-.17-.59-.29a3.3,3.3,0,0,0-1.14-.36,1.28,1.28,0,0,0-.27,0c-.21,0-.06.26.14.43s.47.36.5.51,0,.11.07.18l.13.08c.25.14.23.3.18.41a.81.81,0,0,0,.08,1,2.74,2.74,0,0,1,.23.31c.07.15,0,.26,0,.4a.57.57,0,0,0,.42.44,13.1,13.1,0,0,0,1.22.55,8.9,8.9,0,0,1,1.43.39,12.48,12.48,0,0,0,1.34.73c.19.06.37.09.56.16s.35.18.52.26c.41.19.86.25,1.25.45a6.45,6.45,0,0,0,.74.46c.21.09.42.11.62.18a3.51,3.51,0,0,1,.67.34c.82.5,1.72.95,2.61,1.4a4.88,4.88,0,0,0,.66.29c.17.06.34.09.51.15.92.33,1.21,1.1,2.11,1.5a3.7,3.7,0,0,0,1.17.26l1.32.13a1,1,0,0,0,.43,0c.2-.07,0-.33-.12-.54s-.4-.65-.27-.86.41-.31.12-.58c0-.13-.22-.28-.4-.43a.68.68,0,0,1-.12-.13c0-.09.1-.11.2-.13.28-.07.31-.31.08-.56a.56.56,0,0,1-.16-.21c0-.09.14-.11.18-.18s-.47-.48-.56-.7.21-.26.25-.42-.18-.39-.43-.59a9.22,9.22,0,0,1-.72-.62,5.56,5.56,0,0,1-.43-.73,9.34,9.34,0,0,0-.88-.93c-.1-.11-.19-.22-.17-.31s.17-.12.28-.17.15-.15,0-.27c.24-.29-.06-.71-.39-1.18a5,5,0,0,1-.84-1.38c0-.28,0-.53-.26-.85a3.8,3.8,0,0,1-.53-.54.3.3,0,0,1,0-.28.47.47,0,0,1,.59-.25c0,.13.25.3.49.42a5.83,5.83,0,0,1,.7.4,5.37,5.37,0,0,0,.67.56c.16.09.34.15.49.23.4.23.39.52.77.76s.62.24.89.39c.56.32.38.7.87,1,.23.16.55.27.8.42a2.18,2.18,0,0,1,.64.59l.64.8a1.43,1.43,0,0,1,.22.3,2.27,2.27,0,0,1,.08.49,3.07,3.07,0,0,0,.85,1.12,1.07,1.07,0,0,0,.25.21,2,2,0,0,0,.46.17c.27.05.54.07.62,0s-.22-.51.09-.54a1.69,1.69,0,0,1,.93.42,2.32,2.32,0,0,0,.91.53,1.35,1.35,0,0,1,.49.11.45.45,0,0,1,.16.14,2.71,2.71,0,0,0,.75.63,5.19,5.19,0,0,1,1.16.71,1.35,1.35,0,0,1,.41.88,1.89,1.89,0,0,0,.67,1c.24.21.55.4.82.61.52.37,1,.78,1.54,1.13.38.22.81.42,1.15.66a2.39,2.39,0,0,1,.81,1,4.89,4.89,0,0,0,1.17,1.85,7.56,7.56,0,0,1,.86.8,3.79,3.79,0,0,0,.29.45,1.18,1.18,0,0,0,.66.38,2.05,2.05,0,0,0,1.2.38,2.09,2.09,0,0,1,.81.06,2,2,0,0,1,.72.54,2.75,2.75,0,0,0,.58.44,1.67,1.67,0,0,0,.72.23c.17,0,.25-.07.41-.08a1.74,1.74,0,0,1,.88.27,3.24,3.24,0,0,1,.69.54,2.48,2.48,0,0,0,.9.69c.19.06.36.08.54.15a1.44,1.44,0,0,1,.55.41,1,1,0,0,1,.31.78c0,.09-.07.18,0,.3a1.67,1.67,0,0,0,.65.43,11.18,11.18,0,0,1,1.82.82,2,2,0,0,1,.8,1.11,3.78,3.78,0,0,0,1.48,1.57,2.69,2.69,0,0,0,1.12.41,3.87,3.87,0,0,1,.59,0,2.47,2.47,0,0,1,1.06.56,6.92,6.92,0,0,0,.86.71c.26.17.58.31.81.49.5.39.23.71.6,1.12a3.75,3.75,0,0,0,.6.45l2.26,1.51a3.68,3.68,0,0,0,.58.34c.25.12.52.19.75.32.58.32.58.73,1,1.11s1.6.7,2.13,1.17c.29.26.36.53.73.77a5.68,5.68,0,0,0,.55.28,2.26,2.26,0,0,1,1,.9c.5,1,.11,1.68,1.45,2.85a15.08,15.08,0,0,1,2.18,1.83,2.07,2.07,0,0,0,.54.7,3.66,3.66,0,0,0,.42.26c.59.36,1,.83,1,1.14s-.26.39-.38.59,0,.55.44.86a3.14,3.14,0,0,1,.54.35c.2.19,0,.32-.21.3s-.28,0-.28,0,.08.12.17.19l.7.58"/><path class="cls-2" d="M771.2,228.86c-.43-.23-.83-.52-1.26-.74a4.19,4.19,0,0,0-1.39-.46,2.47,2.47,0,0,1-1.37-.34c-.08-.06-.15-.13-.24-.19s-.49-.16-.55,0,.06.29.21.45c.4.45,1.06.87,1.45,1.32a4.48,4.48,0,0,0,.94,1c.2.13.42.23.62.35.62.38.87.91,1.46,1.31.38.25.84.41,1.23.65s.7.68.37.68c-.16,0-.39-.11-.53-.09s0,.3.2.49.57.35.82.55.47.54.76.8c.6.53,1.61.86,2.15,1.4.23.23.53.57.79.57s.17-.07.3,0,.19.18.26.27a1.43,1.43,0,0,0,.68.42,2,2,0,0,0,.66.08.39.39,0,0,0,.26,0c.13-.16-.51-.59-.53-.83s.61-.08.71-.28-.06-.28-.11-.43,0-.28.25-.21a4.2,4.2,0,0,1,.71.59,2.89,2.89,0,0,0,.74.58c.29.15.64.2.64,0s-.38-.44-.66-.66c-.51-.4-.81-.87-.76-1.17s.16-.29.07-.51a6.44,6.44,0,0,0-.42-.58c-.13-.19-.09-.39.19-.31s.29.13.37.1,0,0,0-.08c-.08-.58-1.08-1.39-1.31-2-.07-.19-.07-.35-.14-.54a3.23,3.23,0,0,0-1.46-1.35,1.92,1.92,0,0,0-.37-.15c-.48-.11-.3.37-.52.52s-.78,0-1.17-.06a3.84,3.84,0,0,1-1.06,0A14.51,14.51,0,0,1,771.2,228.86Z"/><path class="cls-2" d="M775.06,227.1a3.66,3.66,0,0,1,.66.32c.27.2.3.44.57.65a1.35,1.35,0,0,0,.69.28.34.34,0,0,0,.36-.18.19.19,0,0,0,0-.15c-.11-.28-.78-.59-1-.9a1.79,1.79,0,0,1-.13-.22c-.23-.39-1.14-1-1.4-.73-.09.08,0,.36,0,.48S774.4,226.82,775.06,227.1Z"/><path class="cls-2" d="M142.56,94.07a3.43,3.43,0,0,1,.51-.3,4,4,0,0,1,.77-.21,14.7,14.7,0,0,1,1.81-.17l2.13-.11a2,2,0,0,1,.49,0,1.19,1.19,0,0,0,.59.09c.16,0,.31-.11.46-.15a16,16,0,0,1,2.77.35c1,.12,2.62,0,3.27.43.37.22.45.62,1.18.61a3.59,3.59,0,0,1,.87,0c.11,0,.13.12.18.18.3.36,1.89.12,2.52-.38.41-.07.45.17.26.37s-.49.43-.36.56c.27.28,1.76-.26,2.13,0s-.53.62-1.16.71a16.77,16.77,0,0,1-1.73,0c-1.7.08-3.92,1.12-5.43,1a3,3,0,0,1,1.37-.73c-.18-.53-2.11-.31-2.33-.82-.07-.17.07-.4-.07-.55-.33-.33-1.7,0-2.61,0a3.4,3.4,0,0,1-1.58-.38,6,6,0,0,0-2.35-.58,7.44,7.44,0,0,0-3.41.77c-.4.22-1.59,1.06-2.07.77C140.53,95.41,142.25,94.29,142.56,94.07Z"/><path class="cls-2" d="M154.27,98.53a9.62,9.62,0,0,1-2,.11,1.92,1.92,0,0,0-.48,0A2,2,0,0,0,151,99a.83.83,0,0,0-.36.42c0,.13.13.23.4.21a9.12,9.12,0,0,0,.93-.24c.5-.11.93,0,.85.24s-.28.36-.11.45a1.48,1.48,0,0,0,.7,0,12.5,12.5,0,0,0,2.72-1,4.56,4.56,0,0,1,.59-.26c.21-.06.47-.07.51,0,.28-.11.39-.29.3-.4a1,1,0,0,0-.57-.16,14.13,14.13,0,0,0-2.72.23"/><path class="cls-2" d="M161.34,97.45a.85.85,0,0,0-.24.09c-.69.33-.74.83-.1.88.86.08,2.07-.49,3.11-.63s2,.19,3.17-.18l.09.48a3.19,3.19,0,0,0,1.74-.48c.44-.29.49-.63.12-.78.52-.09,1,0,1.08.19s0,.21.14.27a2.14,2.14,0,0,0,1.37-.22,7.35,7.35,0,0,1,1.39-.56,7.67,7.67,0,0,1,1.5-.1c.5,0,1.25-.28,1.24-.51s-.17-.16-.36-.19c-.65-.11-1.54,0-2.25,0a15.72,15.72,0,0,1-1.89-.39,5,5,0,0,0-2.38.15,8.15,8.15,0,0,1-.83.29c-.93.23-1.33-.2-2.08-.27-1.16-.1-.56,1.17-.87,1.42C164.05,97.85,162.6,97.1,161.34,97.45Z"/></g><g id="Layer_11" data-name="Layer 11"><path class="cls-3" d="M183.37,60.41S242.56-22.06,349,45.78"/><path class="cls-3" d="M178.65,66.44s81.42-27.09,241.49,77.1c0,0-20.62-93.11-78.48-95.77"/><path class="cls-3" d="M539.19,77C494.63,49.77,422.8,144.87,422.8,144.87"/><path class="cls-3" d="M353.63,42.45s79.14-25.94,183.56,31.26"/><path class="cls-3" d="M763.32,196.09S688.83,85,536.53,73.71"/></g><g id="Layer_5" data-name="Layer 5"><circle class="cls-4" cx="178.31" cy="59.42" r="24.65"/><circle class="cls-5" cx="535.3" cy="75.59" r="13.18"/><circle class="cls-6" cx="341.04" cy="47.24" r="18.27"/><circle class="cls-7" cx="421.41" cy="139.15" r="22.91"/><circle class="cls-8" cx="755.56" cy="195.19" r="18.45"/></g><g id="Layer_3" data-name="Layer 3"><circle class="cls-9" cx="178.31" cy="59.34" r="13.24"/><circle class="cls-10" cx="755.56" cy="195.19" r="7.93"/><circle class="cls-11" cx="421.41" cy="139.15" r="10.56"/><circle class="cls-12" cx="341.04" cy="47.24" r="6.63"/><circle class="cls-13" cx="535.3" cy="75.59" r="5.05"/></g></g></svg>