<svg xmlns="http://www.w3.org/2000/svg" viewBox="0 0 173.35 173.35"><defs><style>.cls-1{fill:#c9c9c9;}.cls-2{fill:#898a8b;}.cls-3{fill:#545759;}.cls-4{fill:#a21f34;}.cls-5{fill:#e5e5e5;}</style></defs><g id="Layer_2" data-name="Layer 2"><g id="Enable"><circle class="cls-1" cx="86.67" cy="86.67" r="86.67"/><path class="cls-2" d="M30.79,99a28.22,28.22,0,0,1-1.44-9.77c0-1.39,0-6,1.25-6.89C32.55,81,35.09,84,35.66,85.53c.75,2.07.59,4.35,1,6.51.93,4.84,4.6,8.61,8.09,12.08,2.42,2.4,5.41,5,8.77,4.4-1.25-3.58-4.56-6-7-8.86a8.15,8.15,0,0,1-2.27-4.74c-.08-1.78,1.11-3.72,2.89-3.92a4.51,4.51,0,0,1,2.54.63c3.79,2,6.21,5.75,9.44,8.53,5.52,4.76,13.57,6.72,17.4,12.92A21,21,0,0,1,79,119.89c1.74,8.53,1.14,17.34.53,26l-16.15-.23c.82-4.39,1.61-9.06-.06-13.19-1.57-3.9-5.09-6.66-8.71-8.78s-7.55-3.81-10.78-6.5a43.62,43.62,0,0,1-6.3-7,53.81,53.81,0,0,1-4.67-6.66A26.62,26.62,0,0,1,30.79,99Z"/><path class="cls-2" d="M140.61,99a27.75,27.75,0,0,0,1.44-9.77c-.05-1.39,0-6-1.25-6.89-2-1.36-4.48,1.57-5.05,3.15-.75,2.07-.6,4.35-1,6.51-.93,4.84-4.6,8.61-8.09,12.08-2.42,2.4-5.41,5-8.76,4.4,1.24-3.58,4.55-6,7-8.86a8.15,8.15,0,0,0,2.27-4.74c.08-1.78-1.11-3.72-2.88-3.92a4.55,4.55,0,0,0-2.55.63c-3.78,2-6.21,5.75-9.44,8.53-5.52,4.76-13.57,6.72-17.4,12.92a21,21,0,0,0-2.44,6.81c-1.74,8.53-1.14,17.34-.53,26l16.16-.23c-.82-4.39-1.62-9.06,0-13.19,1.57-3.9,5.09-6.66,8.71-8.78s7.55-3.81,10.78-6.5a43.62,43.62,0,0,0,6.3-7,53.81,53.81,0,0,0,4.67-6.66A25.86,25.86,0,0,0,140.61,99Z"/><path class="cls-3" d="M109.93,76c0-.73,0-1.44-.1-2.15l4.77-1.24-2.14-8.18L107.6,65.7a23.72,23.72,0,0,0-3.95-5.82l3.12-4.05-6.68-5.16-3.16,4.1a23.61,23.61,0,0,0-6.59-2.22V47.34H81.89v5.21a23.74,23.74,0,0,0-6.28,2.06l-3.1-4.14-6.77,5.06,3.07,4.1a23.44,23.44,0,0,0-3.09,4L61,61.93l-2.92,7.93,4.65,1.71A23.75,23.75,0,0,0,62.3,76c0,.52,0,1,.05,1.55l-4.72,1.24L59.77,87l4.62-1.21a23.6,23.6,0,0,0,3.94,6.08l-2.88,3.72,6.69,5.16L75,97a23.63,23.63,0,0,0,6.92,2.38V104h8.45V99.42A23.65,23.65,0,0,0,97,97.19l2.77,3.71,6.76-5.06-2.81-3.76a23.94,23.94,0,0,0,3.12-4.28l4.46,1.64,2.92-7.93-4.55-1.67A24.39,24.39,0,0,0,109.93,76ZM86.11,91.9a16.22,16.22,0,1,1,16.22-16.21A16.22,16.22,0,0,1,86.11,91.9Z"/><path class="cls-3" d="M103.78,91.94a31.32,31.32,0,0,1-10.57-1.67,16.22,16.22,0,0,1-18.9-25.7A20.46,20.46,0,0,1,75,59.66a23.28,23.28,0,0,1,2.5-5.87c-.64.25-1.27.52-1.88.82l-3.1-4.14-6.77,5.06,3.07,4.1a24,24,0,0,0-3.09,4L61,61.93l-2.92,7.93,4.65,1.71A23.75,23.75,0,0,0,62.3,76c0,.52,0,1,.05,1.55l-4.72,1.24L59.77,87l4.62-1.21a23.6,23.6,0,0,0,3.94,6.08l-2.88,3.72,6.69,5.16L75,97a23.63,23.63,0,0,0,6.92,2.38V104h8.45V99.42A23.65,23.65,0,0,0,97,97.19l2.77,3.71,6.76-5.06-2.81-3.76A.76.76,0,0,0,103.78,91.94Z"/><polygon class="cls-4" points="79.53 40.41 132.98 40.41 132.98 81.17 121.47 81.27 121.47 88.25 111.33 81.36 79.53 81.36 79.53 40.41"/><circle class="cls-5" cx="93.4" cy="61.17" r="2.45"/><circle class="cls-5" cx="106.17" cy="61.17" r="2.45"/><circle class="cls-5" cx="118.95" cy="61.17" r="2.45"/></g></g></svg>