<svg xmlns="http://www.w3.org/2000/svg" viewBox="0 0 218.33 758.84"><defs><style>.cls-1{fill:gray;}.cls-2{fill:#666;}.cls-3{fill:#e4e0ee;}.cls-4{fill:#ccc4df;}.cls-5{fill:#91d5ab;}.cls-6{fill:#1a1a1a;}.cls-7{fill:#0a0a0a;}.cls-11,.cls-12,.cls-8,.cls-9{fill:none;}.cls-8{stroke:#000;}.cls-11,.cls-12,.cls-13,.cls-8,.cls-9{stroke-miterlimit:10;}.cls-8,.cls-9{stroke-width:2.31px;}.cls-9{stroke:#91d5ab;}.cls-10,.cls-13{fill:#fff;}.cls-11{stroke:#4d4d4d;}.cls-12{stroke:#1a1a1a;stroke-width:3px;}.cls-13{stroke:#b2b2b2;stroke-width:2.76px;}</style></defs><title>Asset 22</title><g id="Layer_2" data-name="Layer 2"><g id="Layer_1-2" data-name="Layer 1"><rect class="cls-1" x="108.63" y="69.44" width="39.2" height="79.61" rx="19.6"/><polygon class="cls-2" points="147.83 122 108.63 88.81 147.83 88.81 147.83 122"/><rect class="cls-1" x="27.69" y="119.75" width="27.41" height="134.63" rx="13.7" transform="matrix(0.86, 0.52, -0.52, 0.86, 102.54, 5.49)"/><circle class="cls-1" cx="69.07" cy="141.17" r="13.71"/><circle class="cls-1" cx="69.07" cy="141.17" r="13.71"/><rect class="cls-1" x="174.21" y="127.43" width="27.41" height="134.63" rx="13.7" transform="translate(381.17 384.19) rotate(178.41)"/><path class="cls-1" d="M190.63,234.6h.48a13.46,13.46,0,0,1,13.46,13.46V353.8a13.7,13.7,0,0,1-13.7,13.7h0a13.7,13.7,0,0,1-13.7-13.7V248.06a13.46,13.46,0,0,1,13.46-13.46Z" transform="translate(390.04 596.68) rotate(178.41)"/><path class="cls-1" d="M217.74,383.7l-8.14,9.63,0,0-1.73,0-1.26-1.07a2.52,2.52,0,0,1-.3-3.54l4.14-4.9,3.13-3.71a2.52,2.52,0,0,1,3.54-.3l.34.28A2.54,2.54,0,0,1,217.74,383.7Z"/><polygon class="cls-2" points="210.45 383.86 212.33 381.63 209.9 390.09 210.45 383.86"/><rect class="cls-2" x="203.94" y="373.26" width="5.46" height="19.52" rx="2.73" transform="matrix(0.76, 0.65, -0.65, 0.76, 295.81, -42.98)"/><path class="cls-1" d="M211,376.84l-1.36,16.49v0l-27.5.7-.91-36a12.56,12.56,0,0,1,12.23-12.88h0A12.56,12.56,0,0,1,206,354.93Z"/><circle class="cls-1" cx="186.42" cy="141.17" r="13.71"/><circle class="cls-1" cx="189.41" cy="248.33" r="13.71"/><path class="cls-1" d="M189.81,127.91h0l-.13,0-.76-.17-61.19-13.79L66.54,127.7l-.77.17-.12,0h0a13.68,13.68,0,0,0,2.71,26.92l0,0V262.49H187.07V154.86l0,0a13.68,13.68,0,0,0,2.71-26.92Z"/><rect class="cls-3" x="27.69" y="119.75" width="27.41" height="134.63" rx="13.7" transform="matrix(0.86, 0.52, -0.52, 0.86, 102.54, 5.49)"/><rect class="cls-3" x="174.21" y="127.43" width="27.41" height="134.63" rx="13.7" transform="translate(381.17 384.19) rotate(178.41)"/><path class="cls-3" d="M175.7,248.71l2.73,98.21,27.41-.77-2.73-98.21a13.71,13.71,0,1,0-27.41.77Z"/><polygon class="cls-4" points="182.51 194.67 178.43 346.92 201.29 346.23 182.51 194.67"/><circle class="cls-5" cx="179.88" cy="339.69" r="3.36"/><path class="cls-3" d="M200.1,141.16a13.7,13.7,0,0,1-13,13.67l0,0V262.49H68.39V154.86l0,0a13.68,13.68,0,0,1-2.71-26.92h0l.13,0,.76-.17,42.09-9.49,3.93-.88,10.19,16.48,5.48,15.24,5.48-15.24h0l10.07-16.27,4.05.91,41.09,9.26.77.17.12,0h0A13.69,13.69,0,0,1,200.1,141.16Z"/><rect class="cls-1" x="68.38" y="262.49" width="118.69" height="68.04"/><rect class="cls-6" x="68.38" y="262.49" width="118.69" height="68.04"/><rect class="cls-1" x="139.75" y="285.32" width="40.11" height="240.58" rx="20.05"/><rect class="cls-1" x="139.75" y="485.79" width="40.11" height="261.93" rx="20.05"/><circle class="cls-1" cx="159.79" cy="505.82" r="20.04"/><circle class="cls-1" cx="159.79" cy="305.35" r="20.04"/><path class="cls-1" d="M159.81,707.61h0a20.05,20.05,0,0,1,20.05,20.05V745a0,0,0,0,1,0,0H139.75a0,0,0,0,1,0,0V727.66A20.05,20.05,0,0,1,159.81,707.61Z"/><polygon class="cls-7" points="139.75 758.84 189.51 758.84 179.86 729.23 139.75 729.23 139.75 758.84"/><rect class="cls-1" x="75.51" y="285.32" width="40.11" height="240.58" rx="20.05"/><rect class="cls-1" x="75.51" y="485.79" width="40.11" height="261.93" rx="20.05"/><circle class="cls-1" cx="95.54" cy="505.82" r="20.04"/><circle class="cls-1" cx="95.54" cy="305.35" r="20.04"/><path class="cls-1" d="M75.51,707.61h40.11a0,0,0,0,1,0,0V725A20.05,20.05,0,0,1,95.56,745h0A20.05,20.05,0,0,1,75.51,725V707.61A0,0,0,0,1,75.51,707.61Z" transform="translate(191.12 1452.64) rotate(-180)"/><polygon class="cls-7" points="115.61 758.84 65.85 758.84 75.5 729.23 115.61 729.23 115.61 758.84"/><rect class="cls-6" x="132.56" y="277" width="54.5" height="256.9" rx="27.01"/><path class="cls-6" d="M159.57,477.74H160a27,27,0,0,1,27,27V736.41a0,0,0,0,1,0,0h-54.5a0,0,0,0,1,0,0V504.76A27,27,0,0,1,159.57,477.74Z"/><rect class="cls-6" x="68.31" y="277" width="54.5" height="256.9" rx="27.01"/><path class="cls-6" d="M95.32,477.74h.48a27,27,0,0,1,27,27V736.41a0,0,0,0,1,0,0H68.31a0,0,0,0,1,0,0V504.76A27,27,0,0,1,95.32,477.74Z"/><polyline class="cls-8" points="123.68 279.92 123.73 328.72 131.78 328.72 131.78 298.65"/><line class="cls-8" x1="95.18" y1="277.84" x2="76.99" y2="300.55"/><line class="cls-8" x1="160.27" y1="277.84" x2="178.47" y2="300.55"/><rect x="68.31" y="262.49" width="118.76" height="17.35"/><polygon class="cls-7" points="187.07 279.84 76.06 279.84 187.07 289.33 187.07 279.84"/><rect class="cls-9" x="116.09" y="262.49" width="23.29" height="16.19" transform="translate(255.46 541.17) rotate(-180)"/><line class="cls-9" x1="139.37" y1="270.74" x2="125.4" y2="270.74"/><polygon class="cls-10" points="122.75 133.81 113.29 151.89 108.63 126.99 108.63 110.98 112.56 117.33 122.75 133.81"/><polygon class="cls-10" points="147.83 110.98 147.83 126.99 143.17 151.89 133.71 133.81 133.71 133.8 143.78 117.53 147.83 110.98"/><polygon class="cls-4" points="128.23 149.05 128.23 235.91 137.05 140.2 133.71 133.81 128.23 149.05"/><path class="cls-1" d="M66,173.54h0a13.7,13.7,0,0,1,13.7,13.7V293a13.46,13.46,0,0,1-13.46,13.46h-.48A13.46,13.46,0,0,1,52.28,293V187.24A13.7,13.7,0,0,1,66,173.54Z" transform="translate(-180.65 273.45) rotate(-82.35)"/><path class="cls-1" d="M124.82,233.52l35,8.2.49,17.89-15.22,14.14-30.82-16.36c-6.1-3.24-8.75-10-6.27-16h0C110.52,235.27,117.77,231.87,124.82,233.52Z"/><circle class="cls-1" cx="13.72" cy="232.97" r="13.71"/><path class="cls-3" d="M15.53,219.39l97.38,13.07-3.65,27.17L11.89,246.56a13.71,13.71,0,1,1,3.64-27.17Z"/><circle class="cls-5" cx="102.54" cy="251.73" r="3.36"/><path class="cls-1" d="M153.23,10.37A35.74,35.74,0,0,0,128,0,35.44,35.44,0,0,0,92.51,35.44v39q11.19,18.35,35.38,27.68c16.18-6.49,28.29-16,36.05-28.63v-38A35.68,35.68,0,0,0,153.23,10.37Z"/><circle class="cls-1" cx="92.43" cy="56.29" r="7.4"/><circle class="cls-1" cx="163.27" cy="56.29" r="7.4"/><path class="cls-6" d="M163.11,48.76v.14l0-.09Z"/><circle class="cls-6" cx="114.74" cy="64.36" r="2.82"/><circle class="cls-6" cx="141.71" cy="64.36" r="2.82"/><path class="cls-11" d="M123.34,88.22a27.77,27.77,0,0,0,14.14-2.15"/><polygon class="cls-2" points="125.38 81.64 129.11 84.47 133.33 81.64 125.38 81.64"/><line class="cls-12" x1="107.79" y1="53.46" x2="122.02" y2="51.46"/><line class="cls-12" x1="134.83" y1="51.08" x2="148.92" y2="53.03"/><path class="cls-6" d="M92.51,50.81l.15-37.32,14.47-8a43.34,43.34,0,0,1,42.2,0l14.46,8,.15,37.32-7.94-19a144,144,0,0,0-55.75,0Z"/><polygon class="cls-6" points="127.17 234.66 127.16 234.7 122.79 259.85 122.48 261.65 122.41 262.14 115.23 261.18 116.05 255.96 119.59 235.58 119.92 233.65 127.17 234.66"/><circle class="cls-13" cx="122.67" cy="238.93" r="5.65"/></g></g></svg>