<svg xmlns="http://www.w3.org/2000/svg" viewBox="0 0 272.41 757.63"><defs><style>.cls-1{fill:#b2b2b2;}.cls-2{fill:#ccc;}.cls-3{fill:#74aa89;}.cls-4{fill:#4e2a84;}.cls-10,.cls-12,.cls-5,.cls-9{fill:none;stroke-miterlimit:10;}.cls-5{stroke:#4e2a84;stroke-linecap:round;stroke-width:5px;}.cls-6{fill:#1a1a1a;}.cls-7{fill:#91d5ab;}.cls-8{fill:#666;}.cls-9{stroke:#1a1a1a;stroke-width:3px;}.cls-10{stroke:#4d4d4d;}.cls-11{fill:#fff;}.cls-12{stroke:#000;stroke-width:2.31px;}</style></defs><title>Asset 21</title><g id="Layer_2" data-name="Layer 2"><g id="Layer_1-2" data-name="Layer 1"><rect class="cls-1" x="162.93" y="132.57" width="27.41" height="117.84" rx="13.7" transform="translate(407.85 311.53) rotate(160.13)"/><circle class="cls-2" cx="161.27" cy="148.97" r="13.71"/><path class="cls-3" d="M177,143.73l19,52.54-31.19,10.47L146.1,154.9A16.44,16.44,0,1,1,177,143.73Z"/><path class="cls-1" d="M182.38,224.27h0a13.7,13.7,0,0,1,19.38.09l52.8,60.19a10,10,0,0,1-.07,14.21l-.24.24a10,10,0,0,1-14.2-.07l-57.77-55.28A13.71,13.71,0,0,1,182.38,224.27Z"/><circle class="cls-1" cx="192.02" cy="234.01" r="13.71"/><path class="cls-1" d="M269.55,311.77l-13.68,8.87a2.6,2.6,0,0,1-3.51-1.06l-7.91-12.19-4.65-10.5c-2.22-5-1-10.48,2.92-13h0c4.5-2.91,10.93-1,14.37,4.33L270,308.13A2.61,2.61,0,0,1,269.55,311.77Z"/><rect class="cls-1" x="265.84" y="306.76" width="5.6" height="15.67" rx="2.8" transform="translate(592.96 571.4) rotate(168.87)"/><rect class="cls-1" x="266.76" y="316.73" width="5.6" height="14.85" rx="2.8" transform="translate(535.58 651.23) rotate(-179.38)"/><circle class="cls-1" cx="269.61" cy="319.53" r="2.8"/><circle class="cls-1" cx="267.67" cy="309.65" r="2.8"/><circle class="cls-1" cx="259.03" cy="315.26" r="2.8"/><rect class="cls-1" x="257.29" y="312.34" width="5.6" height="15.67" rx="2.8" transform="translate(581.91 578.23) rotate(167.81)"/><rect class="cls-1" x="258.14" y="322.29" width="5.6" height="14.85" rx="2.8" transform="translate(506 671.4) rotate(-177.29)"/><circle class="cls-1" cx="261.15" cy="325.1" r="2.8"/><circle class="cls-1" cx="254.71" cy="318.06" r="2.8"/><rect class="cls-1" x="251.87" y="315.26" width="5.6" height="15.67" rx="2.8" transform="translate(506.92 648.08) rotate(-179.57)"/><rect class="cls-1" x="250.7" y="325.11" width="5.6" height="11.72" rx="2.8" transform="translate(367.01 732.12) rotate(-158.35)"/><circle class="cls-1" cx="254.63" cy="328.13" r="2.8"/><circle class="cls-1" cx="263.35" cy="312.46" r="2.8"/><rect class="cls-1" x="261.41" y="309.59" width="5.6" height="17.65" rx="2.8" transform="translate(571.26 595.76) rotate(171.77)"/><rect class="cls-1" x="262.44" y="321.58" width="5.6" height="14.85" rx="2.8" transform="translate(541.92 648.44) rotate(177.98)"/><circle class="cls-1" cx="265.07" cy="324.38" r="2.8"/><path class="cls-4" d="M171,42.72A42.72,42.72,0,0,0,85.8,38.29c-.26,2.49-.6,5-1,7.44l-10,64.94,94.36-3.56,1.76-62Q171,43.91,171,42.72Z"/><rect class="cls-2" x="113.26" y="78.85" width="31.21" height="76.56" rx="15.6" transform="translate(0.26 -0.28) rotate(0.13)"/><polygon class="cls-1" points="144.49 124.98 144.41 96.59 113.2 96.66 144.49 124.98"/><line class="cls-5" x1="254.08" y1="283.03" x2="238.87" y2="297.97"/><path class="cls-2" d="M98.83,521.25h-.26a20.49,20.49,0,0,1-20.48-19.74l-7-190.2a27.62,27.62,0,0,1,27.6-28.62h0a27.6,27.6,0,0,1,27.59,28.62l-7,190.2A20.49,20.49,0,0,1,98.83,521.25Z"/><path class="cls-2" d="M57.89,738.43h0a11.76,11.76,0,0,1-9.67-13.13l30-227.36a20.67,20.67,0,0,1,24-17.67h0a20.68,20.68,0,0,1,16.72,24.66L71.38,729.28A11.76,11.76,0,0,1,57.89,738.43Z"/><circle class="cls-2" cx="98.7" cy="500.65" r="20.66"/><circle class="cls-2" cx="98.69" cy="310.67" r="27.92"/><path class="cls-2" d="M204.84,514.79l-.25.07a20.5,20.5,0,0,1-25-13.66L122.78,319.57a27.63,27.63,0,0,1,19.08-34.89h0A27.61,27.61,0,0,1,176,305l43.37,185.31A20.5,20.5,0,0,1,204.84,514.79Z"/><path class="cls-2" d="M219.36,735.37h0a11.77,11.77,0,0,1-12.65-10.29L178.77,497.46a20.66,20.66,0,0,1,18.79-23.11h0A20.67,20.67,0,0,1,219.93,494l10.2,229.1A11.77,11.77,0,0,1,219.36,735.37Z"/><circle class="cls-2" cx="199.28" cy="494.95" r="20.66"/><circle class="cls-2" cx="149.22" cy="311.68" r="27.92"/><path class="cls-2" d="M71.11,248.82H177.42a0,0,0,0,1,0,0V292a44.28,44.28,0,0,1-44.28,44.28h-62a0,0,0,0,1,0,0V248.82A0,0,0,0,1,71.11,248.82Z" transform="translate(248.53 585.06) rotate(-180)"/><path class="cls-2" d="M48,715.1H71.87a0,0,0,0,1,0,0v10.33a11.93,11.93,0,0,1-11.93,11.93h0A11.93,11.93,0,0,1,48,725.43V715.1a0,0,0,0,1,0,0Z" transform="translate(-126.06 1430.79) rotate(-160.49)"/><polygon class="cls-6" points="42.23 740.48 48.9 720.49 71.38 728.47 94.71 757.63 42.23 740.48"/><path class="cls-2" d="M206.81,714.51h23.55a0,0,0,0,1,0,0v10.2a11.77,11.77,0,0,1-11.77,11.77h0a11.77,11.77,0,0,1-11.77-11.77v-10.2A0,0,0,0,1,206.81,714.51Z" transform="translate(549.22 1407.27) rotate(170.89)"/><polygon class="cls-6" points="209.98 746.22 207.08 728.14 230.48 725.34 263.89 741.34 209.98 746.22"/><path class="cls-6" d="M115.39,248.82h62v60.46L212.7,444.4,69.29,460.47,71.11,293.1A44.28,44.28,0,0,1,115.39,248.82Z"/><path class="cls-7" d="M188.39,187.59l-10.93,18.8V263.7H82.28L76.22,146.88a13.71,13.71,0,0,1,10.2-13.25l26.82-9.29a15.64,15.64,0,0,0,31.17,1.37l22.85,7.91a13.71,13.71,0,0,1,10.2,13.25Z"/><path class="cls-2" d="M156.75,18.81a40.19,40.19,0,0,0-52.83-5.4A40.87,40.87,0,0,0,93.24,24.35q-.42.63-.81,1.29c-4.62,7.67-6.19,18-4.85,26.89L91,74.92c12.08,21.44,29.11,29.3,53.15,32.66,13.42-14.08,18.09-21,22.53-37.72L167.43,49C167.84,37.87,163.78,26.38,156.75,18.81Z"/><circle class="cls-6" cx="133.09" cy="64.07" r="2.82"/><circle class="cls-6" cx="157.66" cy="64.07" r="2.82"/><polygon class="cls-8" points="143.93 81.26 148.62 83.49 152.69 81.26 143.93 81.26"/><line class="cls-9" x1="125.56" y1="53.17" x2="139.78" y2="53.17"/><line class="cls-9" x1="151.59" y1="50.8" x2="165.68" y2="52.74"/><path class="cls-10" d="M151,87.66a27.77,27.77,0,0,1-14.14-2.15"/><path class="cls-4" d="M166.73,35.93,112.35,51.81V37.76L92.24,80.32l-9.12-14L87,39.65A40.64,40.64,0,0,1,127.21,4.82h0a40.66,40.66,0,0,1,39.37,30.5Z"/><path class="cls-2" d="M104,72.22a8.15,8.15,0,1,1,0-16.3"/><circle class="cls-11" cx="113.23" cy="123.93" r="2.93"/><circle class="cls-11" cx="114.74" cy="130.64" r="2.93"/><circle class="cls-11" cx="118.8" cy="135.9" r="2.93"/><circle class="cls-11" cx="124.72" cy="139.02" r="2.93"/><circle class="cls-11" cx="131.71" cy="139.33" r="2.93"/><circle class="cls-11" cx="137.93" cy="136.7" r="2.93"/><circle class="cls-11" cx="142.41" cy="131.79" r="2.93"/><circle class="cls-11" cx="144.46" cy="125.28" r="2.93"/><circle class="cls-11" cx="113.23" cy="123.93" r="2.93"/><circle class="cls-11" cx="144.46" cy="125.28" r="2.93"/><circle class="cls-11" cx="100.51" cy="67.56" r="1.66"/><rect class="cls-2" x="53.93" y="129.1" width="27.41" height="117.84" rx="13.7" transform="translate(25.84 383.41) rotate(-148.14)"/><circle class="cls-2" cx="91.49" cy="149.62" r="13.71"/><path class="cls-7" d="M105.38,158.75,75.89,206.21l-27.54-18,29.09-46.82a16.45,16.45,0,1,1,27.94,17.37Z"/><path class="cls-2" d="M45.46,212.83h0A13.69,13.69,0,0,1,57.38,228.1L42.83,306.84a10,10,0,0,1-11.19,8.74l-.34,0a10,10,0,0,1-8.74-11.2l7.62-79.58A13.69,13.69,0,0,1,45.46,212.83Z"/><circle class="cls-2" cx="43.78" cy="226.43" r="13.71"/><path class="cls-2" d="M30.75,335.46l-15.44-5.24A2.63,2.63,0,0,1,14,326.8L18.64,313,24,302.89c2.56-4.85,7.62-7.27,12-5.77h0c5.08,1.72,7.54,8,5.51,14L33.9,333.57A2.62,2.62,0,0,1,30.75,335.46Z"/><rect class="cls-2" x="25.17" y="328.66" width="5.6" height="15.67" rx="2.8" transform="translate(-169.77 610.19) rotate(-139.4)"/><rect class="cls-2" x="18.23" y="335.71" width="5.6" height="14.85" rx="2.8" transform="translate(-237.82 569.38) rotate(-127.65)"/><circle class="cls-2" cx="24.69" cy="340.32" r="2.8"/><circle class="cls-2" cx="31.24" cy="332.67" r="2.8"/><circle class="cls-2" cx="21.49" cy="329.36" r="2.8"/><rect class="cls-2" x="15.49" y="325.41" width="5.6" height="15.67" rx="2.8" transform="translate(-179.77 601.86) rotate(-140.46)"/><rect class="cls-2" x="8.52" y="332.39" width="5.6" height="14.85" rx="2.8" transform="translate(-258.53 546.65) rotate(-125.56)"/><circle class="cls-2" cx="15.08" cy="337.12" r="2.8"/><circle class="cls-2" cx="16.62" cy="327.71" r="2.8"/><rect class="cls-2" x="9.84" y="322.96" width="5.6" height="15.67" rx="2.8" transform="translate(-240.83 543.71) rotate(-127.84)"/><rect class="cls-2" x="2.93" y="328.89" width="5.6" height="11.72" rx="2.8" transform="translate(-313.39 435.99) rotate(-106.62)"/><circle class="cls-2" cx="8.67" cy="333.88" r="2.8"/><circle class="cls-2" cx="26.37" cy="331.02" r="2.8"/><rect class="cls-2" x="19.42" y="326.56" width="5.6" height="17.65" rx="2.8" transform="translate(-192.54 593.95) rotate(-136.5)"/><rect class="cls-2" x="11.75" y="335.32" width="5.6" height="14.85" rx="2.8" transform="translate(-237.48 575.49) rotate(-130.29)"/><circle class="cls-2" cx="18.07" cy="339.76" r="2.8"/><polygon class="cls-3" points="90.88 190.15 94.52 174.59 79.09 201.19 82.12 263.79 92.03 223.33 172.91 204.43 97.83 205.3 90.88 190.15"/><line class="cls-12" x1="169.02" y1="310.44" x2="110.49" y2="342.37"/><line class="cls-12" x1="155.48" y1="302.07" x2="125.51" y2="318.41"/></g></g></svg>