<svg xmlns="http://www.w3.org/2000/svg" viewBox="0 0 322.41 758.62"><defs><style>.cls-1{fill:#b2b2b2;}.cls-2{fill:#ccc;}.cls-3{fill:#482476;}.cls-4,.cls-5,.cls-7,.cls-8{fill:none;stroke-miterlimit:10;}.cls-4{stroke:#1a1a1a;stroke-width:3px;}.cls-5{stroke:gray;}.cls-6{fill:#1a1a1a;}.cls-7,.cls-8{stroke:#333;stroke-width:2px;}.cls-8{stroke-dasharray:6.72 6.72;}</style></defs><title>Asset 18</title><g id="Layer_2" data-name="Layer 2"><g id="Layer_5" data-name="Layer 5"><rect class="cls-1" x="206.48" y="123.02" width="27.41" height="117.84" rx="13.7" transform="translate(499.95 239.54) rotate(152.07)"/><path class="cls-1" d="M262,203h.45a13.48,13.48,0,0,1,13.48,13.48V305.6a13.7,13.7,0,0,1-13.7,13.7h0a13.7,13.7,0,0,1-13.7-13.7V216.46A13.48,13.48,0,0,1,262,203Z" transform="translate(616.15 369.05) rotate(152.07)"/><rect class="cls-1" x="307.8" y="322.89" width="6.85" height="19.17" rx="3.43" transform="translate(737.65 492.39) rotate(153.67)"/><rect class="cls-1" x="313.05" y="333.98" width="6.85" height="18.18" rx="3.43" transform="translate(752.29 510.15) rotate(153.67)"/><circle class="cls-1" cx="313.96" cy="338" r="3.43"/><path class="cls-1" d="M310,330l-21.11,10.45a3.43,3.43,0,0,1-4.59-1.56L276.43,323l-3.81-13.6a14,14,0,0,1,7.28-16.34h0a14,14,0,0,1,18.78,6.34l12.89,26.05A3.43,3.43,0,0,1,310,330Z"/><circle class="cls-1" cx="308.5" cy="326.96" r="3.43"/><circle class="cls-1" cx="301.46" cy="330.44" r="3.43"/><circle class="cls-1" cx="294.43" cy="333.92" r="3.43"/><circle class="cls-1" cx="287.39" cy="337.4" r="3.43"/><rect class="cls-1" x="293.73" y="329.86" width="6.85" height="19.17" rx="3.43" transform="translate(714.06 511.84) rotate(153.67)"/><rect class="cls-1" x="298.98" y="340.95" width="6.85" height="18.18" rx="3.43" transform="translate(728.7 529.6) rotate(153.67)"/><circle class="cls-1" cx="299.89" cy="344.96" r="3.43"/><rect class="cls-1" x="286.7" y="333.34" width="6.85" height="19.17" rx="3.43" transform="translate(702.27 521.56) rotate(153.67)"/><rect class="cls-1" x="291.09" y="344.63" width="6.85" height="14.34" rx="3.43" transform="translate(714.53 536.44) rotate(153.67)"/><circle class="cls-1" cx="292.85" cy="348.45" r="3.43"/><rect class="cls-1" x="301.31" y="326.25" width="6.85" height="21.6" rx="3.43" transform="translate(727.36 503.94) rotate(153.67)"/><rect class="cls-1" x="307.09" y="339.64" width="6.85" height="18.18" rx="3.43" transform="translate(743.5 523.52) rotate(153.67)"/><circle class="cls-1" cx="308" cy="343.66" r="3.43"/><rect class="cls-1" x="297.02" y="286.24" width="7.7" height="31.21" rx="3.85" transform="matrix(0.46, -0.89, 0.89, 0.46, -105.76, 429.48)"/><circle class="cls-1" cx="290.44" cy="296.43" r="3.85"/><circle class="cls-1" cx="199.01" cy="142" r="13.71"/><circle class="cls-1" cx="241.36" cy="221.87" r="13.71"/><rect class="cls-2" x="111.03" y="262.27" width="101.2" height="68.04"/><rect class="cls-2" x="172.13" y="285.09" width="40.11" height="240.58" rx="20.05"/><rect class="cls-2" x="172.13" y="485.57" width="40.11" height="261.93" rx="20.05"/><circle class="cls-2" cx="192.16" cy="505.6" r="20.04"/><rect class="cls-2" x="111.08" y="285.09" width="40.11" height="240.58" rx="20.05"/><rect class="cls-2" x="111.08" y="485.57" width="40.11" height="261.93" rx="20.05"/><polygon class="cls-2" points="111.03 758.62 160.79 758.62 151.14 729.01 111.03 729.01 111.03 758.62"/><path class="cls-2" d="M111.08,707.38h40.11a0,0,0,0,1,0,0v17.37a20.05,20.05,0,0,1-20.05,20.05h0a20.05,20.05,0,0,1-20.05-20.05V707.38A0,0,0,0,1,111.08,707.38Z" transform="translate(262.26 1452.2) rotate(-180)"/><circle class="cls-2" cx="131.13" cy="505.6" r="20.04"/><circle class="cls-2" cx="192.16" cy="305.13" r="20.04"/><circle class="cls-2" cx="131.13" cy="305.13" r="20.04"/><rect class="cls-2" x="142.47" y="67.78" width="39.2" height="79.61" rx="19.6"/><polygon class="cls-1" points="181.67 120.33 142.47 87.15 181.67 87.15 181.67 120.33"/><polygon class="cls-2" points="172.13 758.62 172.13 729.01 212.24 729.04 247.66 758.62 172.13 758.62"/><path class="cls-2" d="M172.13,707.38h40.11a0,0,0,0,1,0,0v17.37a20.05,20.05,0,0,1-20.05,20.05h0a20.05,20.05,0,0,1-20.05-20.05V707.38A0,0,0,0,1,172.13,707.38Z" transform="translate(384.36 1452.2) rotate(-180)"/><path class="cls-2" d="M161.63,113.69l-40.43,14A13.71,13.71,0,0,0,111,140.94l0,121.33H212.24V140.93A13.7,13.7,0,0,0,202,127.69Z"/><path class="cls-2" d="M191.53,12.87a40.24,40.24,0,0,0-52.84-5.4A41.17,41.17,0,0,0,128,18.41c-.27.43-.54.85-.8,1.29-4.62,7.67-6.19,18-4.85,26.9L125.77,69c12.08,21.44,29.11,29.3,53.15,32.65,13.42-14.08,18.09-21,22.53-37.72l.76-20.85C202.61,31.94,198.56,20.45,191.53,12.87Z"/><circle class="cls-3" cx="167.87" cy="58.14" r="2.82"/><circle class="cls-3" cx="192.44" cy="58.14" r="2.82"/><polygon class="cls-1" points="178.71 75.32 183.39 77.56 187.47 75.32 178.71 75.32"/><line class="cls-4" x1="160.33" y1="47.24" x2="174.56" y2="47.24"/><line class="cls-4" x1="186.37" y1="44.86" x2="200.46" y2="46.81"/><path class="cls-1" d="M142.82,66.29a8.15,8.15,0,0,1,0-16.3"/><path class="cls-5" d="M185.77,81.72a27.73,27.73,0,0,1-14.13-2.15"/><circle class="cls-1" cx="161.13" cy="190.27" r="2.34"/><circle class="cls-1" cx="202.18" cy="190.27" r="2.34"/><circle class="cls-1" cx="183.08" cy="275.44" r="1.95"/><rect class="cls-2" x="90.34" y="123.04" width="27.41" height="117.84" rx="13.7" transform="translate(110.89 391.44) rotate(-152.11)"/><path class="cls-2" d="M61.88,203h.45a13.48,13.48,0,0,1,13.48,13.48v89.15a13.7,13.7,0,0,1-13.7,13.7h0a13.7,13.7,0,0,1-13.7-13.7V216.51A13.48,13.48,0,0,1,61.88,203Z" transform="translate(-5.17 521.1) rotate(-152.11)"/><rect class="cls-2" x="27.22" y="332.26" width="6.85" height="19.17" rx="3.43" transform="translate(-110.95 654.49) rotate(-150.51)"/><rect class="cls-2" x="21.4" y="343.04" width="6.85" height="18.18" rx="3.43" transform="translate(-126.89 670.87) rotate(-150.51)"/><circle class="cls-2" cx="27.61" cy="347.2" r="3.43"/><path class="cls-2" d="M32,339.46l-20.5-11.59a3.41,3.41,0,0,1-1.29-4.67L19,307.72l9.11-10.79a14,14,0,0,1,17.61-3.16h0a14,14,0,0,1,5.3,19.1l-14.31,25.3A3.41,3.41,0,0,1,32,339.46Z"/><circle class="cls-2" cx="33.68" cy="336.48" r="3.43"/><circle class="cls-2" cx="26.84" cy="332.62" r="3.43"/><circle class="cls-2" cx="20.01" cy="328.75" r="3.43"/><circle class="cls-2" cx="13.18" cy="324.89" r="3.43"/><rect class="cls-2" x="13.55" y="324.53" width="6.85" height="19.17" rx="3.43" transform="translate(-132.7 633.3) rotate(-150.51)"/><rect class="cls-2" x="7.73" y="335.31" width="6.85" height="18.18" rx="3.43" transform="translate(-148.65 649.68) rotate(-150.51)"/><circle class="cls-2" cx="13.95" cy="339.47" r="3.43"/><rect class="cls-2" x="6.72" y="320.66" width="6.85" height="19.17" rx="3.43" transform="translate(-143.58 622.71) rotate(-150.51)"/><rect class="cls-2" x="1.84" y="331.7" width="6.85" height="14.34" rx="3.43" transform="translate(-156.94 636.44) rotate(-150.51)"/><circle class="cls-2" cx="7.11" cy="335.61" r="3.43"/><rect class="cls-2" x="19.79" y="328.23" width="6.85" height="21.6" rx="3.43" transform="translate(-123.46 645.58) rotate(-150.51)"/><rect class="cls-2" x="13.37" y="341.29" width="6.85" height="18.18" rx="3.43" transform="translate(-141.05 663.64) rotate(-150.51)"/><circle class="cls-2" cx="19.58" cy="345.45" r="3.43"/><rect class="cls-2" x="46.31" y="300.45" width="7.7" height="31.21" rx="3.85" transform="translate(-36.52 8.01) rotate(-6.7)"/><circle class="cls-2" cx="48.79" cy="304.39" r="3.85"/><circle class="cls-2" cx="125.19" cy="142" r="13.71"/><circle class="cls-2" cx="82.9" cy="221.9" r="13.71"/><polygon class="cls-6" points="212.25 285.04 111.08 285.04 111.08 323.85 151.25 330.3 172.07 330.3 212.25 323.85 212.25 285.04"/><line class="cls-7" x1="114.13" y1="290.54" x2="117.63" y2="290.54"/><line class="cls-8" x1="124.35" y1="290.54" x2="201.62" y2="290.54"/><line class="cls-7" x1="204.98" y1="290.54" x2="208.48" y2="290.54"/><line class="cls-7" x1="163.25" y1="329.05" x2="151.75" y2="297.32"/><line class="cls-7" x1="184.13" y1="327.08" x2="194.92" y2="297.32"/></g></g></svg>