<svg xmlns="http://www.w3.org/2000/svg" viewBox="0 0 214.25 204.81"><defs><style>.cls-1{fill:#e4e0ee;}.cls-2,.cls-6{fill:#4e2a84;}.cls-10,.cls-2{stroke:#b6acd1;}.cls-10,.cls-2,.cls-7,.cls-9{stroke-miterlimit:10;}.cls-2{stroke-width:10px;}.cls-3{fill:#91d5ab;}.cls-4{fill:#d3eedd;}.cls-5{fill:#fff;}.cls-10,.cls-7,.cls-9{fill:none;}.cls-7,.cls-9{stroke:#91d5ab;stroke-width:2px;}.cls-8{fill:#b6acd1;}.cls-10,.cls-9{stroke-dasharray:7.21 7.21;}.cls-10{stroke-width:2.1px;}</style></defs><title>Asset 8</title><g id="Layer_2" data-name="Layer 2"><g id="Layer_1-2" data-name="Layer 1"><circle class="cls-1" cx="109.92" cy="102.41" r="102.41"/><rect class="cls-2" x="18.84" y="61.46" width="149.42" height="103.93"/><polygon class="cls-3" points="118.13 100.1 81.75 136.48 70.97 125.69 107.34 89.31 118.08 100.05 118.13 100.1"/><polygon class="cls-4" points="122.47 95.76 118.13 100.1 118.08 100.05 107.34 89.31 111.68 84.97 122.47 95.76"/><polygon class="cls-4" points="81.75 136.48 68.48 138.95 70.97 125.69 81.75 136.48"/><circle class="cls-5" cx="168.26" cy="61.46" r="42.99" transform="translate(-10.71 69.07) rotate(-22.5)"/><path class="cls-6" d="M168.26,21.47a40,40,0,1,1-40,40,40,40,0,0,1,40-40m0-6a46,46,0,1,0,46,46,46,46,0,0,0-46-46Z"/><circle class="cls-3" cx="168.26" cy="61.46" r="3.62"/><line class="cls-7" x1="154.85" y1="74.88" x2="191.3" y2="38.42"/><circle class="cls-6" cx="168.26" cy="32.46" r="2.22"/><circle class="cls-6" cx="153.62" cy="36.42" r="2.22"/><circle class="cls-6" cx="143.22" cy="46.82" r="2.22"/><circle class="cls-6" cx="139.26" cy="61.46" r="2.22"/><circle class="cls-6" cx="143.22" cy="76.1" r="2.22"/><circle class="cls-6" cx="153.62" cy="86.5" r="2.22"/><circle class="cls-6" cx="168.26" cy="90.46" r="2.22"/><circle class="cls-6" cx="182.9" cy="86.5" r="2.22"/><circle class="cls-6" cx="193.3" cy="76.1" r="2.22"/><circle class="cls-6" cx="197.26" cy="61.46" r="2.22"/><circle class="cls-6" cx="193.3" cy="46.82" r="2.22"/><circle class="cls-6" cx="182.9" cy="36.42" r="2.22"/><path class="cls-8" d="M.49,160.3H186.61a.49.49,0,0,1,.49.49v0a11.29,11.29,0,0,1-11.29,11.29H11.29A11.29,11.29,0,0,1,0,160.79v0A.49.49,0,0,1,.49,160.3Z"/><polyline class="cls-9" points="46.87 96.81 124.47 19.21 124.48 19.2"/><line class="cls-10" x1="90.39" y1="81.07" x2="41.26" y2="130.2"/></g></g></svg>