<svg xmlns="http://www.w3.org/2000/svg" viewBox="0 0 249.27 204.81"><defs><style>.cls-1{fill:#482476;}.cls-2{fill:#ccc4df;}.cls-3{fill:#fff;}.cls-4{fill:#91d5ab;}.cls-5{fill:none;stroke:#91d5ab;stroke-miterlimit:10;stroke-width:2.1px;stroke-dasharray:7.21 7.21;}</style></defs><title>Asset 3</title><g id="Layer_2" data-name="Layer 2"><g id="Layer_1-2" data-name="Layer 1"><circle class="cls-1" cx="115.95" cy="102.41" r="102.41"/><path class="cls-2" d="M239.75,76.67A14.73,14.73,0,0,0,236.49,74a2.43,2.43,0,0,1-.41-3.79L249.27,57l-14.6-14.59a2.44,2.44,0,0,1,.8-4A14.81,14.81,0,1,0,219.76,14.1a14.59,14.59,0,0,0-3.37,5.21,2.46,2.46,0,0,1-4,.79L197.78,5.52,184.59,18.71a2.43,2.43,0,0,1-3.79-.41,14.63,14.63,0,0,0-2.68-3.25,14.8,14.8,0,0,0-20.43,21.42,14.59,14.59,0,0,0,2.73,2.15,2.44,2.44,0,0,1,.45,3.81L146.29,57l14.14,14.15a2.45,2.45,0,0,0,3.92-.64,14.93,14.93,0,0,1,5-5.63c4.49-3,12.1-3,16.54.15a14.82,14.82,0,0,1-1.65,25.41,2.45,2.45,0,0,0-.63,3.91l14.15,14.15,14.58-14.59a2.45,2.45,0,0,1,3.82.45,14.22,14.22,0,0,0,2.14,2.73,14.79,14.79,0,0,0,21.21-.28A15,15,0,0,0,239.75,76.67Z"/><path class="cls-3" d="M93.46,120a14.46,14.46,0,0,0-3.26-2.68,2.43,2.43,0,0,1-.4-3.79L103,100.36,88.39,85.76a2.44,2.44,0,0,1,.8-4,14.72,14.72,0,0,0,5.81-4A14.81,14.81,0,0,0,73.47,57.45a14.73,14.73,0,0,0-3.37,5.21,2.46,2.46,0,0,1-4,.79L51.49,48.87,38.31,62.05a2.42,2.42,0,0,1-3.79-.4,14.78,14.78,0,0,0-2.69-3.26A14.8,14.8,0,0,0,11.41,79.82,14.47,14.47,0,0,0,14.13,82a2.45,2.45,0,0,1,.45,3.82L0,100.36,14.14,114.5a2.44,2.44,0,0,0,3.92-.63,15,15,0,0,1,5-5.63c4.49-3,12.1-3,16.55.15a14.81,14.81,0,0,1,2.09,22.68A14.37,14.37,0,0,1,38,133.79a2.45,2.45,0,0,0-.63,3.92l14.14,14.14,14.58-14.58a2.45,2.45,0,0,1,3.82.45A14.59,14.59,0,0,0,72,140.45,14.8,14.8,0,0,0,93.46,120Z"/><path class="cls-4" d="M122.62,109.86a14.46,14.46,0,0,0-2.68,3.26,2.43,2.43,0,0,1-3.79.4L103,100.34l-14.6,14.6a2.44,2.44,0,0,1-4-.81,14.8,14.8,0,1,0-19.1,19.09,2.46,2.46,0,0,1,.79,4L51.47,151.83,64.65,165a2.43,2.43,0,0,1-.4,3.8A14.46,14.46,0,0,0,61,171.49a14.81,14.81,0,0,0,21.43,20.43,14.53,14.53,0,0,0,2.14-2.73,2.45,2.45,0,0,1,3.82-.45L103,203.32l14.14-14.14a2.45,2.45,0,0,0-.63-3.92,14.93,14.93,0,0,1-5.63-5c-3-4.49-3-12.1.15-16.54a14.81,14.81,0,0,1,22.68-2.1,14.54,14.54,0,0,1,2.72,3.74,2.45,2.45,0,0,0,3.92.63l14.14-14.14-14.58-14.58a2.45,2.45,0,0,1,.45-3.82,14.19,14.19,0,0,0,2.73-2.15,14.8,14.8,0,0,0-20.43-21.42Z"/><line class="cls-5" x1="121.18" y1="95.94" x2="148.83" y2="68.29"/><polygon class="cls-4" points="132.19 97.09 132.12 94.99 121.76 95.37 122.13 85.01 120.03 84.93 119.57 97.55 132.19 97.09"/><line class="cls-5" x1="158.86" y1="133.61" x2="186.51" y2="105.96"/><polygon class="cls-4" points="169.87 134.77 169.79 132.66 159.43 133.04 159.81 122.68 157.71 122.61 157.25 135.23 169.87 134.77"/></g></g></svg>