<svg xmlns="http://www.w3.org/2000/svg" viewBox="0 0 238.35 234.49"><defs><style>.cls-1{fill:#482476;}.cls-2{fill:#ccc4df;}.cls-3,.cls-4,.cls-5{fill:#ccc;}.cls-11,.cls-4,.cls-8{stroke:#91d5ab;}.cls-10,.cls-11,.cls-4,.cls-5,.cls-8,.cls-9{stroke-miterlimit:10;}.cls-4,.cls-5,.cls-8,.cls-9{stroke-width:3px;}.cls-5{stroke:#ccc;}.cls-6{fill:#fff;}.cls-7{fill:#4e2a84;}.cls-10,.cls-11,.cls-8,.cls-9{fill:none;}.cls-9{stroke:#ccc4df;}.cls-10{stroke:#fff;}.cls-10,.cls-11{stroke-width:2.1px;stroke-dasharray:7.21 7.21;}.cls-12{fill:#91d5ab;}.cls-13{fill:#d3eedd;}</style></defs><title>Asset 6</title><g id="Layer_2" data-name="Layer 2"><g id="Layer_1-2" data-name="Layer 1"><circle class="cls-1" cx="119.17" cy="116.91" r="102.41"/><rect class="cls-2" x="61.43" y="44.37" width="102.53" height="145.62" transform="translate(-49.85 114) rotate(-45)"/><rect class="cls-3" x="61.87" y="104.2" width="16.67" height="16.67" transform="translate(-59.01 82.6) rotate(-45)"/><rect class="cls-3" x="86.03" y="128.35" width="16.67" height="16.67" transform="translate(-69.02 106.76) rotate(-45)"/><rect class="cls-3" x="110.19" y="152.51" width="16.67" height="16.67" transform="translate(-79.02 130.92) rotate(-45)"/><polyline class="cls-4" points="63.9 112.35 74.35 112.35 74.35 92.93"/><polyline class="cls-4" points="88.33 136.77 98.78 136.77 98.78 117.36"/><line class="cls-5" x1="85.32" y1="97.42" x2="113.64" y2="69.1"/><line class="cls-5" x1="109.48" y1="121.57" x2="137.79" y2="93.26"/><line class="cls-5" x1="133.64" y1="145.73" x2="161.95" y2="117.42"/><rect class="cls-6" x="74.4" y="44.37" width="102.53" height="145.62" transform="translate(-46.05 123.18) rotate(-45)"/><rect class="cls-7" x="74.84" y="104.2" width="16.67" height="16.67" transform="translate(-55.21 91.78) rotate(-45)"/><rect class="cls-7" x="99" y="128.35" width="16.67" height="16.67" transform="translate(-65.22 115.93) rotate(-45)"/><rect class="cls-7" x="123.16" y="152.51" width="16.67" height="16.67" transform="translate(-75.22 140.09) rotate(-45)"/><polyline class="cls-8" points="76.88 112.35 87.32 112.35 87.32 92.93"/><line class="cls-9" x1="98.29" y1="97.42" x2="126.61" y2="69.1"/><line class="cls-9" x1="122.45" y1="121.57" x2="150.77" y2="93.26"/><line class="cls-9" x1="146.61" y1="145.73" x2="174.92" y2="117.42"/><polyline class="cls-10" points="99.22 1.61 1.49 98.81 73.6 170.93"/><polygon class="cls-6" points="88.21 0.43 88.28 2.53 98.64 2.18 98.24 12.54 100.34 12.62 100.83 0 88.21 0.43"/><polyline class="cls-11" points="139 232.88 236.86 135.54 170.31 68.99"/><polygon class="cls-12" points="150.01 234.06 149.94 231.96 139.58 232.31 139.98 221.95 137.88 221.87 137.39 234.49 150.01 234.06"/><polygon class="cls-12" points="189.53 69.57 139.12 119.97 124.18 105.03 174.58 54.63 189.47 69.51 189.53 69.57"/><polygon class="cls-13" points="195.53 63.57 189.53 69.57 189.47 69.51 174.58 54.63 180.58 48.63 195.53 63.57"/><polygon class="cls-13" points="139.12 119.97 120.75 123.42 124.18 105.03 139.12 119.97"/></g></g></svg>