<svg xmlns="http://www.w3.org/2000/svg" viewBox="0 0 117.73 108.46"><defs><style>.cls-1{fill:#335b57;}.cls-2{fill:#668481;}.cls-3{fill:#00322d;}.cls-4{fill:#fff;stroke:#00322d;stroke-width:1.26px;}.cls-4,.cls-5,.cls-6,.cls-7{stroke-linejoin:round;}.cls-5{fill:#f03826;stroke:#f03826;stroke-width:1.42px;}.cls-6,.cls-7{fill:none;}.cls-6{stroke:#fff;stroke-width:1.56px;}.cls-7{stroke:#99adab;stroke-width:1.31px;}</style></defs><g id="Layer_2" data-name="Layer 2"><g id="Board_3" data-name="Board 3"><g id="Layer_55" data-name="Layer 55"><circle class="cls-1" cx="63.5" cy="54.23" r="54.23"/><path class="cls-2" d="M74.81,29.51,55.76,18.75a3.93,3.93,0,0,0-3.52-.2,1.82,1.82,0,0,0-.31.16h0l-.12.07-.12.07-3.33,2,.18,5.86,1.28-1.47V70.85a10.31,10.31,0,0,0,5.22,9l17.69,10,.88,2.3s2.41-1.4,3.3-1.9l.27-.14h0a3.94,3.94,0,0,0,2-3.45V37A8.59,8.59,0,0,0,74.81,29.51Z"/><path class="cls-3" d="M70,91.94,51.78,81.67a10.3,10.3,0,0,1-5.21-9V24.08a4,4,0,0,1,5.94-3.47L71.56,31.38a8.57,8.57,0,0,1,4.35,7.47V88.48A4,4,0,0,1,70,91.94Z"/><polygon class="cls-4" points="70.28 81.36 50.49 69.89 50.49 26.46 70.28 37.92 70.28 81.36"/><polygon class="cls-5" points="39.44 27.01 0.71 27.01 0.71 53.09 24.79 53.09 33.28 61.58 33.28 53.09 39.44 53.09 39.44 27.01"/><line class="cls-6" x1="6.54" y1="33.62" x2="19.25" y2="33.62"/><line class="cls-6" x1="6.54" y1="37.97" x2="28.48" y2="37.97"/><line class="cls-6" x1="6.54" y1="46.65" x2="20.35" y2="46.65"/><line class="cls-6" x1="6.54" y1="42.31" x2="33.1" y2="42.31"/><path class="cls-7" d="M93,36.09A17.64,17.64,0,0,0,78.33,15.88"/><path class="cls-7" d="M88.18,35.32A12.79,12.79,0,0,0,77.56,20.66"/><path class="cls-7" d="M83.68,34.6a8.24,8.24,0,0,0-6.84-9.44"/></g></g></g></svg>