<svg xmlns="http://www.w3.org/2000/svg" viewBox="0 0 218.3 151.75"><defs><style>.cls-1{fill:#92461e;}.cls-2{fill:#833f1b;}.cls-3{fill:#668481;}.cls-12,.cls-4{fill:#ffb014;}.cls-4{stroke:#e59e12;stroke-miterlimit:10;stroke-width:0.97px;}.cls-5{fill:#ec3826;}.cls-6{fill:#f06051;}.cls-7{fill:#b12a1d;}.cls-8{opacity:0.5;}.cls-9{fill:#f69f97;}.cls-10{fill:#49230f;}.cls-11{fill:#ffd272;}</style></defs><g id="Layer_2" data-name="Layer 2"><g id="additional_assets" data-name="additional assets"><path class="cls-1" d="M218.3,10.88v130c0,.31,0,.63,0,.93a11.2,11.2,0,0,1-3.84,7.78h0a9,9,0,0,1-5.79,2.17H9.68c-5.34,0-9.68-4.87-9.68-10.88v-130A12,12,0,0,1,.14,9.07a10.82,10.82,0,0,1,5.1-7.85h0A8.57,8.57,0,0,1,9.68,0H208.62a9.36,9.36,0,0,1,7.83,4.49h0v0A11.77,11.77,0,0,1,218.3,10.88Z"/><path class="cls-2" d="M19.38,28.41q29.42,1.38,58.84,2.32t58.63,1.36q16.59.22,33.17.28c3.86,0,3.87-7.89,0-7.9q-29.43-.09-58.86-.74t-58.63-1.8Q36,21.3,19.38,20.52c-3.86-.18-3.86,7.71,0,7.89Z"/><path class="cls-2" d="M75,44.23q26.67,2.49,53.42,3.66t53.46,1.27c4.53,0,9-.06,13.54-.41,4-.31,8.21-.66,12.14.78,3.73,1.36,5.32-6.26,1.6-7.62-7.37-2.68-15.28-.63-22.79-.63q-13.57,0-27.13-.29-27-.54-53.93-2.26-15.17-1-30.31-2.39c-1.62-.15-3,1.92-3,3.94,0,2.27,1.37,3.8,3,3.95Z"/><path class="cls-2" d="M58.45,79.82c27.07,0,54.14-.37,81.2-1.46,3.75-.15,7.51-.34,11.26-.5,3.36-.13,6.76-.2,10.05.84,3.75,1.17,5.36-6.44,1.6-7.62-6.33-2-13-1-19.42-.76q-10.33.44-20.67.74-20.43.61-40.85.77-11.58.11-23.17.1c-3.86,0-3.87,7.89,0,7.89Z"/><path class="cls-2" d="M64.83,106.52q27.32,1.8,54.65,2.67t54.67.8a105.69,105.69,0,0,1,14.76.74c5,.69,9.93,1.67,14.92,2.22,1.62.17,3-1.94,3-4,0-2.28-1.38-3.77-3-4-8.76-1-17.38-3-26.2-3q-13.68.06-27.36-.12-27.32-.34-54.62-1.61-15.42-.72-30.82-1.74c-1.62-.1-3,1.9-3,3.95,0,2.23,1.38,3.84,3,4Z"/><path class="cls-2" d="M0,122.64c8.45,0,16.91,0,25.36.17,5.71.11,11.42.32,17.12.49S54,123.59,59.62,125c1.6.38,2.5,2.94,2.1,4.86-.46,2.17-2.1,3.13-3.69,2.75-6.08-1.48-12.32-1.25-18.48-1.49-13.18-.5-26.37-.53-39.55-.56Z"/><path class="cls-2" d="M218.26,141.8a11.2,11.2,0,0,1-3.84,7.78h0c-19.26-.87-38.5-2.41-57.73-3.78-20.58-1.46-41.18-2.71-61.79-2.69-3.87,0-3.86-7.9,0-7.9,11.58,0,23.17.38,34.74,1,20.61,1.06,41.19,2.81,61.78,4.18C200.36,141,209.31,141.29,218.26,141.8Z"/><path class="cls-2" d="M0,66.94c4.71-.16,9.41-.32,14.12-.45,3.87-.12,3.85,7.78,0,7.9-4.71.13-9.41.29-14.12.45Z"/><path class="cls-2" d="M218.3,12.28c-14.93.85-29.87,1.64-44.8,2.51-8.82.51-17.64,1-26.45,1.91s-17.47,1.85-26.24,1.83c-3.87,0-3.86-7.91,0-7.9,10,0,19.95-1.25,29.91-2.18,17.87-1.69,35.81-2.29,53.7-3.28l12-.68Z"/><path class="cls-2" d="M0,40c14.43,1.93,28.9,3.36,43.42,2.81,3.87-.16,3.85,7.73,0,7.89-14.52.56-29-.88-43.42-2.8Z"/><path class="cls-2" d="M218.3,64v7.9c-9.33-.19-18.66-.24-28,0-3.87.1-3.86-7.8,0-7.89q7.92-.18,15.84-.15Q212.22,63.9,218.3,64Z"/><path class="cls-2" d="M22.76,109a147.79,147.79,0,0,1,15-.49c1.57,0,3.07-1.82,3-4s-1.32-4-3-4a147.8,147.8,0,0,0-15,.5,3.64,3.64,0,0,0-3,3.94c.07,2,1.32,4.12,3,3.95Z"/><path class="cls-2" d="M135.46,126.79c12.27.45,24.55.77,36.82,1.48,1.62.1,3-1.88,3-4s-1.38-3.85-3-3.94c-12.27-.72-24.55-1-36.82-1.49-3.86-.14-3.86,7.76,0,7.9Z"/><path class="cls-2" d="M51.31,61c11.25-2,22.71-.42,33.86-3.6,1.58-.45,2.5-2.88,2.09-4.86-.45-2.15-2.1-3.21-3.69-2.76C73,52.85,62,51.27,51.31,53.14a3.71,3.71,0,0,0-3,4c0,1.92,1.38,4.23,3,3.95Z"/><path class="cls-2" d="M47.06,9.7c-.46,2.21-2.09,3.09-3.69,2.75C29.09,9.45,14.59,9,.14,9.07a10.82,10.82,0,0,1,5.1-7.85h0c13.28.15,26.56.86,39.71,3.62C46.58,5.17,47.46,7.82,47.06,9.7Z"/><circle class="cls-3" cx="67.28" cy="109.58" r="2.49"/><circle class="cls-3" cx="67.27" cy="114.47" r="2.49"/><circle class="cls-3" cx="62.05" cy="110.33" r="2.49"/><circle class="cls-3" cx="67.83" cy="104.69" r="2.49"/><circle class="cls-3" cx="55.86" cy="112.81" r="2.49"/><circle class="cls-3" cx="58.33" cy="120.95" r="2.49"/><circle class="cls-3" cx="58.92" cy="127.95" r="2.49"/><circle class="cls-3" cx="63.9" cy="127.45" r="2.49"/><circle class="cls-3" cx="67.26" cy="118.48" r="2.49"/><circle class="cls-3" cx="73.32" cy="120.35" r="2.49"/><circle class="cls-3" cx="70.1" cy="118.54" r="2.49"/><circle class="cls-3" cx="55.88" cy="106.29" r="2.49"/><circle class="cls-3" cx="76.89" cy="114.85" r="2.49"/><circle class="cls-3" cx="74.4" cy="112.85" r="2.49"/><circle class="cls-3" cx="70.31" cy="108.81" r="2.49"/><circle class="cls-3" cx="62.31" cy="119.15" r="2.49"/><circle class="cls-3" cx="79.39" cy="109.34" r="2.49"/><circle class="cls-3" cx="75.29" cy="107.1" r="2.49"/><circle class="cls-3" cx="74.42" cy="103.84" r="2.49"/><circle class="cls-3" cx="53.36" cy="117.82" r="2.49"/><circle class="cls-3" cx="53.34" cy="124.93" r="2.49"/><circle class="cls-3" cx="71.28" cy="114.57" r="2.49"/><circle class="cls-3" cx="73.34" cy="109.59" r="2.49"/><circle class="cls-3" cx="60.85" cy="107.84" r="2.49"/><circle class="cls-3" cx="59.55" cy="114.81" r="2.49"/><circle class="cls-3" cx="63.33" cy="114.82" r="2.49"/><circle class="cls-3" cx="63.31" cy="124.23" r="2.49"/><circle class="cls-3" cx="59.53" cy="123.5" r="2.49"/><circle class="cls-3" cx="68.77" cy="124.24" r="2.49"/><circle class="cls-3" cx="65.81" cy="121.03" r="2.49"/><path class="cls-4" d="M140.68,37.52s29.06,2,37.32,6.66l-.48,5.32-37.34-8Z"/><path class="cls-4" d="M145.06,44.73S173.28,52,180.57,58l-1.43,5.14L143.86,48.52Z"/><path class="cls-4" d="M143.37,51s25.38-14.29,34.83-15l2.52,4.7-35.6,13.84Z"/><path class="cls-4" d="M125.73,31.15S154,24,163.27,25.85l1.2,5.2-38,4Z"/><path class="cls-4" d="M155,62.47s28.24-7.12,37.54-5.3l1.2,5.2-38,4Z"/><path class="cls-4" d="M170,63.59S199.12,65,207.49,69.4l-.36,5.32-37.51-7.17Z"/><path class="cls-4" d="M122.32,40.19s29.1,1.36,37.46,5.8l-.35,5.33-37.52-7.17Z"/><path class="cls-4" d="M158.64,46s29.09,1.49,37.44,6l-.38,5.33L158.21,50Z"/><path class="cls-4" d="M150.2,63.27s4.22-28.82,9.47-36.71l5.26.88L154.1,64.07Z"/><path class="cls-4" d="M135.19,54.86s4.22-28.83,9.46-36.71l5.27.87L139.09,55.65Z"/><path class="cls-4" d="M182.68,85.76s4.22-28.82,9.46-36.71l5.27.88L186.58,86.55Z"/><path class="cls-4" d="M183.12,75.38s-19.55-21.6-22.3-30.66l4-3.5,21.36,31.66Z"/><path class="cls-4" d="M148.07,49.65S128.52,28.06,125.77,19l4-3.5,21.36,31.66Z"/><path class="cls-4" d="M126.67,21.15s29.08-1.78,37.87,1.73l.22,5.33-38.07-3.08Z"/><path class="cls-4" d="M143,23.94s28.27,7,35.61,13l-1.39,5.16L141.87,27.75Z"/><path class="cls-5" d="M104.41,42.47a3.9,3.9,0,0,1-.59,0L71.38,38.09a4.39,4.39,0,0,1-3.77-4.93l.87-6.51a4.4,4.4,0,0,1,4.34-3.81,5.85,5.85,0,0,1,.59,0l32.44,4.35a4.39,4.39,0,0,1,3.77,4.93l-.87,6.51A4.41,4.41,0,0,1,104.41,42.47Z"/><path class="cls-6" d="M72.82,24.05h0a3.11,3.11,0,0,1,.43,0l32.44,4.34A3.17,3.17,0,0,1,108.42,32l-.87,6.51a3.18,3.18,0,0,1-3.14,2.75l-.43,0L71.54,36.89a3.17,3.17,0,0,1-2.11-1.22,3.11,3.11,0,0,1-.62-2.35l.87-6.51a3.19,3.19,0,0,1,3.14-2.76m0-2.41a5.58,5.58,0,0,0-5.53,4.85L66.42,33a5.58,5.58,0,0,0,4.8,6.28l32.44,4.34a4.73,4.73,0,0,0,.75.05,5.6,5.6,0,0,0,5.53-4.84l.87-6.51A5.6,5.6,0,0,0,106,26L73.57,21.69a6.3,6.3,0,0,0-.75-.05Z"/><path class="cls-5" d="M104.41,44.08a5.52,5.52,0,0,1-.81-.06L71.16,39.68A6,6,0,0,1,66,32.94l.87-6.51a6,6,0,0,1,5.93-5.19,5.37,5.37,0,0,1,.8.05l32.45,4.34a6,6,0,0,1,5.14,6.74l-.87,6.51A6,6,0,0,1,104.41,44.08Z"/><path class="cls-7" d="M72.82,21.64a6.3,6.3,0,0,1,.75.05L106,26a5.6,5.6,0,0,1,4.8,6.29l-.87,6.51a5.6,5.6,0,0,1-5.53,4.84,4.73,4.73,0,0,1-.75-.05L71.22,39.28A5.58,5.58,0,0,1,66.42,33l.87-6.51a5.58,5.58,0,0,1,5.53-4.85m0-.8h0a6.41,6.41,0,0,0-6.33,5.54l-.87,6.51a6.41,6.41,0,0,0,5.49,7.19l32.44,4.34a6.11,6.11,0,0,0,.86.06,6.42,6.42,0,0,0,6.33-5.55l.87-6.51a6.39,6.39,0,0,0-5.49-7.18L73.68,20.89a6.2,6.2,0,0,0-.86-.05Z"/><g class="cls-8"><path class="cls-5" d="M104.41,42.47a4,4,0,0,1-.6,0L71.38,38.09a4.34,4.34,0,0,1-2.17-.94,4.4,4.4,0,0,1-1.6-4l.87-6.51a4.4,4.4,0,0,1,4.34-3.81,5.85,5.85,0,0,1,.59,0l32.44,4.35a4.41,4.41,0,0,1,3.77,4.93l-.87,6.5a4.43,4.43,0,0,1-4,3.8Z"/><path class="cls-9" d="M72.82,24.05a3,3,0,0,1,.43,0l9.42,1.26,23,3.08a3.18,3.18,0,0,1,2.15,1.29,3.14,3.14,0,0,1,.58,2.29l-.87,6.5a3.21,3.21,0,0,1-2.93,2.76h-.21a3.11,3.11,0,0,1-.43,0L71.54,36.89a3.2,3.2,0,0,1-2.73-3.57l.87-6.51a3.19,3.19,0,0,1,3.14-2.76m0-2.41a5.58,5.58,0,0,0-5.53,4.85L66.42,33a5.59,5.59,0,0,0,4.8,6.28l32.44,4.35a6.3,6.3,0,0,0,.75,0l.41,0a5.61,5.61,0,0,0,5.12-4.84l.87-6.5A5.62,5.62,0,0,0,106,26L83,23l-9.42-1.26a4.73,4.73,0,0,0-.75-.05Z"/></g><g class="cls-8"><path class="cls-7" d="M80.37,22.6,68.44,38.08a5.55,5.55,0,0,1-2-5.08l.19-1.45,7.54-9.78Z"/></g><g class="cls-8"><polygon class="cls-7" points="92.67 24.25 80.15 40.48 73.92 39.64 86.44 23.41 92.67 24.25"/></g><g class="cls-8"><polygon class="cls-7" points="104.96 25.89 92.45 42.13 86.22 41.29 98.74 25.06 104.96 25.89"/></g><g class="cls-8"><path class="cls-7" d="M110.81,32.32l-.58,4.31-5.41,7a5.65,5.65,0,0,1-1.16,0l-5.15-.69L109.79,28.3A5.52,5.52,0,0,1,110.81,32.32Z"/></g><path class="cls-5" d="M67.12,63.64a5.47,5.47,0,0,1-5.34-4.38l-1.63-8a5.45,5.45,0,0,1,4.27-6.43l39.92-8.1a5.76,5.76,0,0,1,1.09-.11A5.47,5.47,0,0,1,110.77,41l1.63,8a5.47,5.47,0,0,1-4.27,6.43l-39.92,8.1A5.76,5.76,0,0,1,67.12,63.64Z"/><path class="cls-6" d="M105.43,38.11h0a4,4,0,0,1,3.87,3.17l1.63,8a4,4,0,0,1-3.1,4.66l-39.92,8.1a4.23,4.23,0,0,1-.79.08A4,4,0,0,1,63.25,59l-1.63-8a4,4,0,0,1,3.1-4.66l39.92-8.1a4.23,4.23,0,0,1,.79-.08m0-3a7.36,7.36,0,0,0-1.39.14l-39.92,8.1a7,7,0,0,0-5.44,8.2l1.63,8a7,7,0,0,0,6.81,5.58A7.36,7.36,0,0,0,68.51,65l39.92-8.1a7,7,0,0,0,5.44-8.2l-1.63-8a7,7,0,0,0-6.81-5.58Z"/><path class="cls-5" d="M67.12,65.64a7.48,7.48,0,0,1-7.3-6l-1.63-8A7.47,7.47,0,0,1,64,42.86l39.92-8.1a7.45,7.45,0,0,1,8.79,5.83l1.63,8a7.47,7.47,0,0,1-5.83,8.79l-39.92,8.1A7.46,7.46,0,0,1,67.12,65.64Z"/><path class="cls-7" d="M105.43,35.11a7,7,0,0,1,6.81,5.58l1.63,8a7,7,0,0,1-5.44,8.2L68.51,65a7.36,7.36,0,0,1-1.39.14,7,7,0,0,1-6.81-5.58l-1.63-8a7,7,0,0,1,5.44-8.2L104,35.25a7.36,7.36,0,0,1,1.39-.14m0-1h0a8.57,8.57,0,0,0-1.59.16l-39.92,8.1a8,8,0,0,0-6.22,9.38l1.63,8a8,8,0,0,0,7.79,6.38A8.57,8.57,0,0,0,68.71,66l39.92-8.1a8,8,0,0,0,6.22-9.38l-1.63-8a8,8,0,0,0-7.79-6.38Z"/><g class="cls-8"><path class="cls-5" d="M67.13,63.64a5.22,5.22,0,0,1-1.84-.34,5.43,5.43,0,0,1-3.51-4l-1.63-8a5.45,5.45,0,0,1,4.27-6.43l39.92-8.1a5.76,5.76,0,0,1,1.09-.11A5.49,5.49,0,0,1,110.77,41l1.63,8a5.48,5.48,0,0,1-3.19,6.09,4.7,4.7,0,0,1-1.08.34l-39.92,8.1A5.65,5.65,0,0,1,67.13,63.64Z"/><path class="cls-9" d="M105.43,38.11a4,4,0,0,1,3.87,3.18l1.63,8a4,4,0,0,1-2.33,4.43,3.47,3.47,0,0,1-.77.24l-39.91,8.1a4.32,4.32,0,0,1-.79.08,3.66,3.66,0,0,1-1.31-.24h0A3.87,3.87,0,0,1,63.25,59l-1.63-8a4,4,0,0,1,3.1-4.66l11.59-2.35,28.32-5.75a4.34,4.34,0,0,1,.8-.08m0-3a7.28,7.28,0,0,0-1.39.14L75.71,41,64.12,43.35a7,7,0,0,0-5.44,8.2l1.63,8a6.92,6.92,0,0,0,4.45,5.15,6.73,6.73,0,0,0,2.37.43A7.26,7.26,0,0,0,68.51,65l39.92-8.1a6.95,6.95,0,0,0,5.44-8.2l-1.63-8a7,7,0,0,0-6.81-5.58Z"/></g><g class="cls-8"><path class="cls-7" d="M72.49,41.65,64.76,64.71a6.92,6.92,0,0,1-4.45-5.15L60,57.77,64.83,43.2Z"/></g><g class="cls-8"><polygon class="cls-7" points="87.62 38.58 79.51 62.77 71.84 64.32 79.96 40.14 87.62 38.58"/></g><g class="cls-8"><polygon class="cls-7" points="102.75 35.52 94.64 59.7 86.98 61.25 95.09 37.07 102.75 35.52"/></g><g class="cls-8"><path class="cls-7" d="M112.24,40.69,113.32,46l-3.51,10.47a6.93,6.93,0,0,1-1.38.43l-6.33,1.29,7.31-21.81A6.89,6.89,0,0,1,112.24,40.69Z"/></g><path class="cls-5" d="M73.37,90.16a6.13,6.13,0,0,1-5.51-3.41L63.74,78.5a6.16,6.16,0,0,1,2.76-8.26l41.11-20.53a6.16,6.16,0,0,1,8.26,2.75L120,60.71A6.16,6.16,0,0,1,117.24,69L76.12,89.51A6.14,6.14,0,0,1,73.37,90.16Z"/><path class="cls-6" d="M110.36,50.75h0a4.46,4.46,0,0,1,4,2.47l4.12,8.25a4.47,4.47,0,0,1-2,6L75.36,88a4.29,4.29,0,0,1-2,.47,4.45,4.45,0,0,1-4-2.47l-4.12-8.25a4.47,4.47,0,0,1,2-6l41.12-20.53a4.48,4.48,0,0,1,2-.47m0-3.39a7.82,7.82,0,0,0-3.5.83L65.74,68.73a7.83,7.83,0,0,0-3.51,10.52l4.12,8.25A7.83,7.83,0,0,0,76.87,91L118,70.49A7.86,7.86,0,0,0,121.51,60l-4.12-8.25a7.87,7.87,0,0,0-7-4.35Z"/><path class="cls-5" d="M73.37,92.41a8.37,8.37,0,0,1-7.53-4.65l-4.12-8.25a8.43,8.43,0,0,1,3.77-11.29l41.12-20.53a8.39,8.39,0,0,1,11.28,3.77L122,59.71A8.41,8.41,0,0,1,118.24,71L77.13,91.52A8.35,8.35,0,0,1,73.37,92.41Z"/><path class="cls-7" d="M110.36,47.36a7.87,7.87,0,0,1,7,4.35L121.51,60A7.86,7.86,0,0,1,118,70.49L76.87,91A7.83,7.83,0,0,1,66.35,87.5l-4.12-8.25a7.83,7.83,0,0,1,3.51-10.52l41.12-20.54a7.82,7.82,0,0,1,3.5-.83m0-1.12h0a8.88,8.88,0,0,0-4,.94L65.24,67.72a9,9,0,0,0-4,12L65.34,88a9,9,0,0,0,12,4L118.5,71.5a9,9,0,0,0,4-12L118.4,51.2a8.93,8.93,0,0,0-8-5Z"/><g class="cls-8"><path class="cls-5" d="M73.44,90.15a5.44,5.44,0,0,1-.57,0,6.15,6.15,0,0,1-5-3.37L63.74,78.5a6.16,6.16,0,0,1,2.76-8.26l41.11-20.53a6.1,6.1,0,0,1,2.74-.65,6,6,0,0,1,2.1.37,6.08,6.08,0,0,1,3.42,3L120,60.71a6.2,6.2,0,0,1-1.68,7.58,6.87,6.87,0,0,1-1.08.69L76.12,89.51A6,6,0,0,1,73.44,90.15Z"/><path class="cls-9" d="M110.35,50.75h0a4.36,4.36,0,0,1,1.54.28,4.43,4.43,0,0,1,2.47,2.19l4.12,8.25a4.51,4.51,0,0,1-1.23,5.5,4.22,4.22,0,0,1-.77.49L75.37,88a4.29,4.29,0,0,1-1.93.47l-.4,0H73A4.38,4.38,0,0,1,69.37,86l-4.11-8.25a4.47,4.47,0,0,1,2-6l11.93-6,29.18-14.57a4.4,4.4,0,0,1,2-.47m0-3.39a7.78,7.78,0,0,0-3.49.83L77.68,62.76l-11.94,6a7.86,7.86,0,0,0-3.51,10.54l4.12,8.24a7.75,7.75,0,0,0,6.36,4.3,5.85,5.85,0,0,0,.73,0A7.73,7.73,0,0,0,76.88,91L118,70.49a8.52,8.52,0,0,0,1.38-.88A7.86,7.86,0,0,0,121.51,60l-4.12-8.25A7.8,7.8,0,0,0,113,47.84a7.94,7.94,0,0,0-2.69-.48Z"/></g><g class="cls-8"><path class="cls-7" d="M74.36,64.42,72.71,91.8a7.75,7.75,0,0,1-6.36-4.3l-.92-1.83,1-17.31Z"/></g><g class="cls-8"><polygon class="cls-7" points="89.95 56.63 88.2 85.36 80.31 89.31 82.06 60.58 89.95 56.63"/></g><g class="cls-8"><polygon class="cls-7" points="105.52 48.86 103.79 77.58 95.89 81.52 97.64 52.79 105.52 48.86"/></g><g class="cls-8"><path class="cls-7" d="M117.39,51.71l2.73,5.47-.75,12.43a8.52,8.52,0,0,1-1.38.88l-6.52,3.26L113,47.84A7.8,7.8,0,0,1,117.39,51.71Z"/></g><path class="cls-5" d="M91.52,104.25a5.5,5.5,0,0,1-4-1.77l-5.52-6a5.47,5.47,0,0,1,.34-7.71l30-27.51a5.46,5.46,0,0,1,7.71.34l5.52,6A5.37,5.37,0,0,1,127,71.52a5.43,5.43,0,0,1-1.76,3.79l-30,27.51A5.44,5.44,0,0,1,91.52,104.25Z"/><path class="cls-6" d="M116,61.3A3.91,3.91,0,0,1,119,62.58l5.52,6a4,4,0,0,1-.25,5.59l-30,27.51a4,4,0,0,1-5.59-.24l-5.52-6a4,4,0,0,1,.25-5.59l30-27.51a3.94,3.94,0,0,1,2.67-1m0-3a7,7,0,0,0-4.7,1.82l-30,27.51a7,7,0,0,0-.43,9.83l5.52,6a7,7,0,0,0,9.83.43l30-27.51a6.94,6.94,0,0,0,.43-9.82l-5.52-6A6.93,6.93,0,0,0,116,58.3Z"/><path class="cls-5" d="M91.52,106.25a7.46,7.46,0,0,1-5.5-2.42l-5.52-6A7.47,7.47,0,0,1,81,87.26l30-27.51a7.47,7.47,0,0,1,10.54.47l5.52,6a7.45,7.45,0,0,1-.46,10.53l-30,27.51A7.44,7.44,0,0,1,91.52,106.25Z"/><path class="cls-7" d="M116,58.3a6.93,6.93,0,0,1,5.13,2.26l5.52,6a6.94,6.94,0,0,1-.43,9.82l-30,27.51a7,7,0,0,1-9.83-.43l-5.52-6a7,7,0,0,1,.43-9.83l30-27.51A7,7,0,0,1,116,58.3m0-1h0a7.9,7.9,0,0,0-5.37,2.09l-30,27.51a8,8,0,0,0-.49,11.24l5.52,6a8,8,0,0,0,11.24.49l30-27.51a8,8,0,0,0,.5-11.24l-5.52-6A8,8,0,0,0,116,57.3Z"/><g class="cls-8"><path class="cls-5" d="M91.49,104.24a5.45,5.45,0,0,1-4-1.76l-5.52-6a5.47,5.47,0,0,1,.34-7.71l30-27.51A5.43,5.43,0,0,1,116,59.8l.4,0a5.42,5.42,0,0,1,3.66,1.75l5.51,6a5.49,5.49,0,0,1,.42,6.86,5,5,0,0,1-.76.85l-30,27.51a5.29,5.29,0,0,1-2.63,1.31A5.1,5.1,0,0,1,91.49,104.24Z"/><path class="cls-9" d="M116,61.3h.31A3.93,3.93,0,0,1,119,62.58l5.52,6a4,4,0,0,1,.29,5,3.76,3.76,0,0,1-.54.6l-30,27.51a3.89,3.89,0,0,1-1.87,1h-.06a4,4,0,0,1-3.66-1.21l-5.52-6a4,4,0,0,1,.25-5.6l8.72-8,21.32-19.52a3.87,3.87,0,0,1,2.64-1m0-3a6.91,6.91,0,0,0-4.67,1.82L90,79.64l-8.72,8a7,7,0,0,0-.43,9.83l5.52,6a7,7,0,0,0,6.46,2.12,6.75,6.75,0,0,0,3.37-1.69l30-27.5a6.58,6.58,0,0,0,1-1.09,7,7,0,0,0-.53-8.75l-5.52-6a6.92,6.92,0,0,0-4.65-2.24l-.51,0Z"/></g><g class="cls-8"><path class="cls-7" d="M87.6,81.86l5.25,23.75a6.91,6.91,0,0,1-6.46-2.12l-1.23-1.34-3.33-15Z"/></g><g class="cls-8"><polygon class="cls-7" points="98.99 71.44 104.49 96.34 98.73 101.63 93.22 76.72 98.99 71.44"/></g><g class="cls-8"><polygon class="cls-7" points="110.37 61.02 115.88 85.92 110.11 91.2 104.61 66.29 110.37 61.02"/></g><g class="cls-8"><path class="cls-7" d="M121.17,60.56l3.66,4,2.39,10.78a6.58,6.58,0,0,1-1,1.09l-4.77,4.36-5-22.46A6.92,6.92,0,0,1,121.17,60.56Z"/></g><path class="cls-5" d="M113.09,119.09a5.42,5.42,0,0,1-2.77-.76l-7-4.16a5.45,5.45,0,0,1-1.92-7.47l20.71-35.08a5.5,5.5,0,0,1,4.71-2.68,5.39,5.39,0,0,1,2.76.76l7,4.16a5.46,5.46,0,0,1,1.93,7.47L117.8,116.4A5.49,5.49,0,0,1,113.09,119.09Z"/><path class="cls-6" d="M126.78,70.44h0a3.94,3.94,0,0,1,2,.55l7,4.16a3.88,3.88,0,0,1,1.82,2.42,3.94,3.94,0,0,1-.42,3L116.5,115.64a3.94,3.94,0,0,1-5.41,1.4l-7-4.16a4,4,0,0,1-1.4-5.42l20.71-35.08a4,4,0,0,1,3.42-1.94m0-3a7,7,0,0,0-6,3.42l-20.71,35.08a6.94,6.94,0,0,0,2.45,9.52l7,4.16a6.89,6.89,0,0,0,3.53,1,7,7,0,0,0,6-3.42L139.8,82.09a7,7,0,0,0-2.45-9.53l-7-4.15a6.89,6.89,0,0,0-3.53-1Z"/><path class="cls-5" d="M113.09,121.09a7.39,7.39,0,0,1-3.78-1l-7-4.16a7.45,7.45,0,0,1-2.63-10.21l20.71-35.07A7.44,7.44,0,0,1,130.56,68l7,4.15a7.45,7.45,0,0,1,2.63,10.21l-20.71,35.08A7.51,7.51,0,0,1,113.09,121.09Z"/><path class="cls-7" d="M126.78,67.44a6.89,6.89,0,0,1,3.53,1l7,4.15a7,7,0,0,1,2.45,9.53l-20.71,35.08a7,7,0,0,1-6,3.42,6.89,6.89,0,0,1-3.53-1l-7-4.16a6.94,6.94,0,0,1-2.45-9.52l20.71-35.08a7,7,0,0,1,6-3.42m0-1h0a8,8,0,0,0-6.86,3.91L99.21,105.43a7.94,7.94,0,0,0,2.8,10.89l7,4.16a8,8,0,0,0,10.9-2.8L140.66,82.6a8,8,0,0,0-2.8-10.9l-7-4.15a7.93,7.93,0,0,0-4-1.11Z"/><g class="cls-8"><path class="cls-5" d="M113.08,119.09a5.51,5.51,0,0,1-2.76-.76l-7-4.16a5.43,5.43,0,0,1-1.93-7.47l20.71-35.08a5.46,5.46,0,0,1,7.48-1.92l7,4.15A5.49,5.49,0,0,1,139,80.3a5.57,5.57,0,0,1-.47,1L117.8,116.4a5.34,5.34,0,0,1-2.12,2A5.44,5.44,0,0,1,113.08,119.09Z"/><path class="cls-9" d="M126.79,70.44h0a3.94,3.94,0,0,1,2,.55l7,4.15a4,4,0,0,1,1.73,4.7,3.85,3.85,0,0,1-.33.73l-20.71,35.07a3.78,3.78,0,0,1-1.52,1.45h0l0,0a4,4,0,0,1-1.86.47,3.94,3.94,0,0,1-2-.55l-7-4.16a4,4,0,0,1-1.4-5.42l6-10.19,14.69-24.88a4.06,4.06,0,0,1,3.43-2m0-3a7,7,0,0,0-6,3.42l-14.7,24.89-6,10.18a7,7,0,0,0,2.45,9.53l7,4.16a6.88,6.88,0,0,0,6.8.14,6.81,6.81,0,0,0,2.73-2.6L139.8,82.09a6.41,6.41,0,0,0,.6-1.31,7,7,0,0,0-3.05-8.22l-7-4.15a6.85,6.85,0,0,0-3.52-1Z"/></g><g class="cls-8"><path class="cls-7" d="M104.41,98.58l12,21.18a6.93,6.93,0,0,1-6.8-.14l-1.57-.93-7.55-13.38Z"/></g><g class="cls-8"><polygon class="cls-7" points="112.26 85.28 124.8 107.5 120.82 114.24 108.29 92.02 112.26 85.28"/></g><g class="cls-8"><polygon class="cls-7" points="120.11 72 132.65 94.21 128.67 100.94 116.14 78.72 120.11 72"/></g><g class="cls-8"><path class="cls-7" d="M130.31,68.41,135,71.16l5.42,9.62a6.41,6.41,0,0,1-.6,1.31l-3.28,5.57-11.31-20A6.89,6.89,0,0,1,130.31,68.41Z"/></g><path class="cls-5" d="M134.1,121.59a5,5,0,0,1-.95-.1L126.67,120a4.32,4.32,0,0,1-3.25-5.14l6.92-30.76a4.34,4.34,0,0,1,4.19-3.36,4.4,4.4,0,0,1,.95.11L142,82.34a4.25,4.25,0,0,1,2.69,1.89,4.2,4.2,0,0,1,.56,3.24l-6.91,30.76A4.33,4.33,0,0,1,134.1,121.59Z"/><path class="cls-6" d="M134.53,82h0a3.25,3.25,0,0,1,.69.08l6.47,1.46a3.09,3.09,0,0,1,2.36,3.72L137.14,118a3.14,3.14,0,0,1-3,2.44,3.25,3.25,0,0,1-.69-.08l-6.48-1.45a3.13,3.13,0,0,1-2-1.38,3.08,3.08,0,0,1-.4-2.35l6.91-30.76a3.15,3.15,0,0,1,3-2.44m0-2.36a5.47,5.47,0,0,0-5.34,4.28l-6.92,30.76a5.48,5.48,0,0,0,4.15,6.55l6.47,1.46a5.6,5.6,0,0,0,1.21.13,5.48,5.48,0,0,0,5.34-4.28l6.92-30.76a5.49,5.49,0,0,0-4.15-6.55l-6.47-1.45a5.62,5.62,0,0,0-1.21-.14Z"/><path class="cls-5" d="M134.1,123.17a5.55,5.55,0,0,1-1.29-.15l-6.48-1.46a5.86,5.86,0,0,1-4.44-7l6.91-30.76a5.92,5.92,0,0,1,5.73-4.59,6.21,6.21,0,0,1,1.29.14l6.48,1.46a5.88,5.88,0,0,1,4.44,7l-6.92,30.76A5.9,5.9,0,0,1,134.1,123.17Z"/><path class="cls-7" d="M134.53,79.59a5.62,5.62,0,0,1,1.21.14l6.47,1.45a5.49,5.49,0,0,1,4.15,6.55l-6.92,30.76a5.48,5.48,0,0,1-5.34,4.28,5.6,5.6,0,0,1-1.21-.13l-6.47-1.46a5.48,5.48,0,0,1-4.15-6.55l6.92-30.76a5.47,5.47,0,0,1,5.34-4.28m0-.78h0a6.31,6.31,0,0,0-6.11,4.89l-6.92,30.76a6.27,6.27,0,0,0,4.74,7.49l6.48,1.45a5.85,5.85,0,0,0,1.38.16,6.31,6.31,0,0,0,6.11-4.9l6.91-30.75a6.25,6.25,0,0,0-4.74-7.49L135.91,79a6.48,6.48,0,0,0-1.38-.15Z"/><g class="cls-8"><path class="cls-5" d="M134.08,121.58a4.69,4.69,0,0,1-1-.11L126.74,120a4.38,4.38,0,0,1-2.75-1.89,4.14,4.14,0,0,1-.58-3.19l6.94-30.9a4.19,4.19,0,0,1,2-2.68,4.42,4.42,0,0,1,2.21-.6,4.77,4.77,0,0,1,1,.11l6.35,1.43a4.36,4.36,0,0,1,3.43,4.22,3.75,3.75,0,0,1-.1.87l-6.95,30.89a4,4,0,0,1-1.09,2A4.35,4.35,0,0,1,134.08,121.58Z"/><path class="cls-9" d="M134.55,82a3.55,3.55,0,0,1,.73.08l6.35,1.43a3.18,3.18,0,0,1,2.51,3.07,2.66,2.66,0,0,1-.07.61L137.12,118a2.84,2.84,0,0,1-.8,1.43,3.15,3.15,0,0,1-2.24.93,3.55,3.55,0,0,1-.73-.08L127,118.89a3.23,3.23,0,0,1-2-1.39,2.94,2.94,0,0,1-.42-2.28l2-9,4.93-21.92a2.92,2.92,0,0,1,1.43-1.92,3.17,3.17,0,0,1,1.61-.44m0-2.36a5.52,5.52,0,0,0-2.8.76,5.3,5.3,0,0,0-2.55,3.44l-4.93,21.93-2,9a5.46,5.46,0,0,0,4.22,6.49l6.35,1.43a5.38,5.38,0,0,0,1.25.14,5.51,5.51,0,0,0,3.93-1.63,5.26,5.26,0,0,0,1.42-2.57l6.94-30.9a4.73,4.73,0,0,0,.13-1.11,5.52,5.52,0,0,0-4.35-5.38l-6.35-1.43a6,6,0,0,0-1.25-.14Z"/></g><g class="cls-8"><path class="cls-7" d="M123.71,108.22,138,121.13a5.54,5.54,0,0,1-5.18,1.49l-1.42-.32-9-8.15Z"/></g><g class="cls-8"><polygon class="cls-7" points="126.34 96.51 141.34 110.05 140.01 115.98 125.01 102.44 126.34 96.51"/></g><g class="cls-8"><polygon class="cls-7" points="128.98 84.81 143.97 98.34 142.64 104.27 127.64 90.73 128.98 84.81"/></g><g class="cls-8"><path class="cls-7" d="M135.8,79.74l4.21,1,6.49,5.86a4.73,4.73,0,0,1-.13,1.11l-1.1,4.9-13.52-12.2A5.62,5.62,0,0,1,135.8,79.74Z"/></g><circle class="cls-10" cx="107.43" cy="135.33" r="8.37"/><circle class="cls-10" cx="182.68" cy="15.49" r="8.37"/><circle class="cls-10" cx="98.53" cy="131.42" r="4.7"/><circle class="cls-10" cx="190.11" cy="23.02" r="4.7"/><circle class="cls-10" cx="94.86" cy="123.37" r="3.05"/><circle class="cls-10" cx="92.67" cy="114.58" r="0.82"/><circle class="cls-10" cx="194.8" cy="31.65" r="1.34"/><circle class="cls-10" cx="193.26" cy="40.39" r="1.15"/><path class="cls-11" d="M38.43,81.52s-12.56-8.61-18.67,1.13-4.1,15.09-7,17S9.41,112.4,15.12,111.6s5.55,9.43,12.81,10.45,8.24-4.74,12.51-5S50.29,120,53,113.81s.29-9.74,3.79-14.14,4-11-3-12S38.43,81.52,38.43,81.52Z"/><path class="cls-12" d="M48,93.49a4.52,4.52,0,0,0-3.62,3.73,13.82,13.82,0,0,0-.16,2.57c0,.4,0,.79,0,1.19,0,.17,0,.34,0,.51s0,.19,0,.28c0,.44.06-.28,0,.15,0,.15-.06.3-.1.45l-.08.24c-.08.21.08-.16,0,0s-.28.45-.21.36-.44.38-.09.13a2.5,2.5,0,0,1-.39.23c.27-.14,0,0-.11,0l-.23,0c-.21,0,.27,0,0,0l-.54,0-.51,0-.26,0h0c-.36-.05-.72-.12-1.08-.19-.83-.16-1.67-.33-2.51-.41a5.08,5.08,0,0,0-5,2.13,1.51,1.51,0,0,0,.53,2,1.54,1.54,0,0,0,2.06-.54c.17-.25.06-.08,0,0l.18-.2.19-.17s-.19.14,0,0,.46-.24.31-.18.24-.06.33-.09c.34-.11-.14,0,.22,0l.44,0,.53,0c.1,0,.56.06.27,0a29.57,29.57,0,0,0,4.47.66,4.33,4.33,0,0,0,3.93-2.29,10.29,10.29,0,0,0,.69-4.83c0-.43,0-.87.05-1.31,0-.18,0,0,0,0s.05-.26.08-.4a4.13,4.13,0,0,1,.15-.5c-.11.28.12-.19.17-.27s0,0,0,0a2.47,2.47,0,0,1,.28-.28c-.19.16.21-.1.3-.14-.19.08.06,0,.09,0l.51-.13c1.89-.42,1.09-3.31-.8-2.89Z"/><path class="cls-12" d="M31.32,96.71c-1.91.73-4,.77-5.84,1.73a5.7,5.7,0,0,0-3,5.57c.15,2.3,1.16,4.68,3.42,5.57a9.43,9.43,0,0,0,2.75.46,3.47,3.47,0,0,1,2,.6c.19.14-.15-.12,0,0s.24.2.35.31l.53.46a6.25,6.25,0,0,0,1.37,1,3.24,3.24,0,0,0,3.82-.8,1.5,1.5,0,0,0-2.12-2.12,1.13,1.13,0,0,1-.34.27l-.06,0c.11,0,.11-.06,0,0s-.08,0,.07,0c.38,0-.18-.07,0,0s-.09,0-.13-.07l-.29-.2c.16.12-.18-.15-.23-.19l-.41-.36a10.88,10.88,0,0,0-1.06-.87,5.17,5.17,0,0,0-2.23-.86c-.44-.07-.88-.12-1.31-.15l-.61-.05c-.09,0-.58-.07-.35,0a4.64,4.64,0,0,1-.51-.11c-.06,0-.48-.17-.26-.07a1.47,1.47,0,0,1-.68-.52,4,4,0,0,1-.73-2,4.14,4.14,0,0,1,.19-2.07c0,.14.12-.23.16-.29a.67.67,0,0,1,.21-.27,2.47,2.47,0,0,1,.81-.61c1.41-.77,3.54-.83,5.2-1.47a1.54,1.54,0,0,0,1.05-1.84,1.51,1.51,0,0,0-1.85-1.05Z"/><path class="cls-12" d="M42.22,114.38l.06,0-.35.16a1.45,1.45,0,0,1,.42-.12l-.4.06a5.14,5.14,0,0,1,1.24.07,4.45,4.45,0,0,0,1.5-.09,6.24,6.24,0,0,0,2.77-1.54,1.5,1.5,0,1,0-2.13-2.12l-.27.24c-.14.12.28-.2.07-.06l-.17.12a5.41,5.41,0,0,1-.71.38l.36-.15a3.84,3.84,0,0,1-1,.29l.4,0a7.82,7.82,0,0,1-1.37-.09,3.46,3.46,0,0,0-1.9.35,1.5,1.5,0,0,0-.53,2,1.54,1.54,0,0,0,2,.54Z"/><path class="cls-12" d="M40.56,88.74a17.56,17.56,0,0,1-5.63-.53A16.35,16.35,0,0,0,29.35,88c-2.94.49-6,2.29-6.79,5.34a1.5,1.5,0,0,0,2.89.79c.57-2.18,3.26-3.18,5.31-3.29a21.85,21.85,0,0,1,5,.58,16.81,16.81,0,0,0,5.57.22,1.5,1.5,0,0,0,1-1.85,1.53,1.53,0,0,0-1.84-1Z"/><path class="cls-12" d="M16.87,99.24a6.54,6.54,0,0,0-1.41,5.53,5.76,5.76,0,0,0,3.11,4.29,1.5,1.5,0,1,0,1.51-2.59,2.38,2.38,0,0,1-.45-.23l-.21-.13c-.25-.17.26.23,0,0a3.85,3.85,0,0,1-.35-.35s-.18-.25-.05,0,0,0,0-.08a4,4,0,0,1-.27-.44l-.09-.19c-.12-.25,0-.11,0,0a3.28,3.28,0,0,0-.17-.5,4.7,4.7,0,0,1-.12-.51c0-.13,0-.37,0,0,0-.09,0-.18,0-.27a3.85,3.85,0,0,1,0-.48c0-.16,0-.32,0-.48s-.07.33,0,.05c0-.09,0-.17,0-.26a4.1,4.1,0,0,1,.14-.5,2.25,2.25,0,0,0,.08-.24c0,.29-.09.21,0,0s.16-.3.25-.44a1.77,1.77,0,0,0,.12-.17l-.1.13.11-.12a1.5,1.5,0,0,0-2.12-2.13Z"/><path class="cls-12" d="M27.34,85.3a4.67,4.67,0,0,1,.44-.45c.07-.07.27-.16,0,0,.08,0,.15-.1.23-.15l.24-.13c.07,0,.39-.16,0,0a4.72,4.72,0,0,1,.53-.18c.18,0,.36-.07.55-.11-.38.08,0,0,.06,0l.28,0c.2,0,.4,0,.59,0l.3,0c.06,0,.46.06.08,0a9.92,9.92,0,0,1,1.18.25l.63.2.28.1.15.06.14.06.31.15a4.67,4.67,0,0,1,.49.27l.46.28.25.18c-.18-.12-.14-.11,0,0a1.53,1.53,0,0,0,2.12,0,1.51,1.51,0,0,0,0-2.12c-3-2.45-8.61-3.88-11.48-.5a1.5,1.5,0,1,0,2.12,2.12Z"/><path class="cls-12" d="M51.69,92.52a10.18,10.18,0,0,1,1.62.43L53,92.79l.29.15.14.09s-.35-.32-.16-.11l.1.11c.17.16-.22-.33-.11-.14a3.12,3.12,0,0,1,.2.35l-.16-.35a3,3,0,0,1,.22.78l0-.4a3.29,3.29,0,0,1,0,.83l0-.4a6,6,0,0,1-.42,1.43l.15-.36q-.12.3-.27.6a1.67,1.67,0,0,0-.15,1.16,1.54,1.54,0,0,0,.69.89,1.51,1.51,0,0,0,2.05-.53,8.32,8.32,0,0,0,.91-3,4.26,4.26,0,0,0-.62-2.51A3.51,3.51,0,0,0,54,90a13.06,13.06,0,0,0-1.52-.4,1.5,1.5,0,0,0-.8,2.9Z"/><path class="cls-12" d="M50.92,101.7c-.93,1.25-1.46,2.73-2.28,4a1.5,1.5,0,0,0,2.59,1.51c.82-1.32,1.35-2.8,2.28-4.05a1.5,1.5,0,0,0-1.69-2.2l-.36.15a1.4,1.4,0,0,0-.54.54Z"/><path class="cls-12" d="M24.35,115a6.3,6.3,0,0,0,2.75,3.22,4.7,4.7,0,0,0,2.24.49,6.72,6.72,0,0,0,2.63-.77,1.51,1.51,0,0,0,.54-2,1.53,1.53,0,0,0-2-.54l-.25.12c-.1,0-.36.11.05,0-.16,0-.31.12-.46.16l-.44.1c-.24,0,.33,0,.15,0l-.2,0a2.64,2.64,0,0,1-.4,0c-.26,0,.14,0,.18,0a1.08,1.08,0,0,0-.19,0l-.36-.11c-.24-.07.36.17.13.06l-.16-.08-.32-.2c-.06,0-.22-.16,0,0s0,0,0,0a5.58,5.58,0,0,1-.53-.56c.34.38,0,0-.05-.1s-.16-.24-.24-.37-.28-.55-.41-.84a1.5,1.5,0,0,0-.89-.69,1.57,1.57,0,0,0-1.16.16,1.5,1.5,0,0,0-.69.89,1.79,1.79,0,0,0,.15,1.16Z"/><path class="cls-12" d="M38.32,95.37a2.73,2.73,0,0,1,0,.41l.05-.4a3.52,3.52,0,0,1-.23.86l.15-.36a4,4,0,0,1-.51.88l.23-.31a5.39,5.39,0,0,1-.74.77,1.52,1.52,0,0,0-.44,1.06,1.5,1.5,0,0,0,1.5,1.5l.4,0a1.49,1.49,0,0,0,.66-.39,5.37,5.37,0,0,0,2-4,1.56,1.56,0,0,0-.44-1.06,1.52,1.52,0,0,0-1.06-.44,1.5,1.5,0,0,0-1.5,1.5Z"/><path class="cls-12" d="M20,91.85a1.59,1.59,0,0,1,.1-.33l-.15.36a1.72,1.72,0,0,1,.28-.47l-.24.3a3.74,3.74,0,0,1,.64-.62l-.3.23a12.1,12.1,0,0,1,1.13-.73,1.53,1.53,0,0,0,.69-.89,1.22,1.22,0,0,0,0-.6,1.12,1.12,0,0,0-.18-.56,1.52,1.52,0,0,0-.9-.69A1.59,1.59,0,0,0,20,88a12.07,12.07,0,0,0-1.63,1.12,4.47,4.47,0,0,0-.75.87,1.51,1.51,0,0,0-.2.35,3.55,3.55,0,0,0-.26.71,1.61,1.61,0,0,0,.15,1.16,1.48,1.48,0,0,0,2.05.53,1.47,1.47,0,0,0,.69-.89Z"/><path class="cls-3" d="M189.44,102a5.7,5.7,0,0,1-3.37-.12,5.1,5.1,0,0,1,6.08-1.91A5.81,5.81,0,0,1,189.44,102Z"/><path class="cls-3" d="M185.15,98.65a5.82,5.82,0,0,0,.91,3.25,5.09,5.09,0,0,0,.42-6.36A5.8,5.8,0,0,0,185.15,98.65Z"/><path class="cls-3" d="M181.57,108a5.75,5.75,0,0,1-2.86-1.8,5.74,5.74,0,0,1,3.36-.38,5.81,5.81,0,0,1,2.86,1.81A5.78,5.78,0,0,1,181.57,108Z"/><path class="cls-3" d="M179.58,102.91a5.81,5.81,0,0,0-.87,3.27,5.11,5.11,0,0,0,3.59-5.27A5.79,5.79,0,0,0,179.58,102.91Z"/><path class="cls-3" d="M175.52,112.26a5.78,5.78,0,0,1-2.79,1.91,5.12,5.12,0,0,1,3.76-5.15A5.74,5.74,0,0,1,175.52,112.26Z"/><path class="cls-3" d="M170.06,112.09a5.72,5.72,0,0,0,2.66,2.08,5.06,5.06,0,0,0-3.43-5.36A5.72,5.72,0,0,0,170.06,112.09Z"/><path class="cls-3" d="M176.68,121.6a5.77,5.77,0,0,1-2.75,2,5.1,5.1,0,0,1,3.68-5.2A5.77,5.77,0,0,1,176.68,121.6Z"/><path class="cls-3" d="M171.23,121.5a5.81,5.81,0,0,0,2.69,2,5.09,5.09,0,0,0-3.51-5.32A5.75,5.75,0,0,0,171.23,121.5Z"/><path class="cls-3" d="M172.69,132.61a5.83,5.83,0,0,1-3.37.25,5.11,5.11,0,0,1,5.85-2.55A5.74,5.74,0,0,1,172.69,132.61Z"/><path class="cls-3" d="M168.07,129.71a5.79,5.79,0,0,0,1.24,3.14,5.75,5.75,0,0,0,1-3.23,5.84,5.84,0,0,0-1.25-3.14A5.7,5.7,0,0,0,168.07,129.71Z"/><path class="cls-3" d="M159.52,139.05a5.79,5.79,0,0,1-1.45-3.06,5.11,5.11,0,0,1,4.49,4.53A5.75,5.75,0,0,1,159.52,139.05Z"/><path class="cls-3" d="M160.55,133.68a5.81,5.81,0,0,0-2.48,2.3,5.09,5.09,0,0,0,5.85-2.54A5.78,5.78,0,0,0,160.55,133.68Z"/><path class="cls-3" d="M186.27,101.65a21.23,21.23,0,0,1-2.74,2.53,12.31,12.31,0,0,1-3.24,1.93,7.69,7.69,0,0,1-.93.29l-.94.14a4.72,4.72,0,0,0-1.62.59,7.57,7.57,0,0,0-2.54,2.4,7,7,0,0,0-1.15,3.25,11.87,11.87,0,0,0,.62,3.51,17.62,17.62,0,0,1,.52,7.55,18.45,18.45,0,0,1-2.94,7,15,15,0,0,1-1.11,1.54l-.58.74a6.42,6.42,0,0,1-.71.68,12.29,12.29,0,0,1-3.29,1.94,12.45,12.45,0,0,1-3.71.81,11.91,11.91,0,0,1-1.89-.06l-.94-.11c-.31-.05-.61-.14-.92-.21a20.2,20.2,0,0,1-6.71-3.21,21.15,21.15,0,0,0,6.79,2.83c.3.05.6.13.9.16l.91.07a11.06,11.06,0,0,0,1.82,0,11.74,11.74,0,0,0,3.51-.87,11.55,11.55,0,0,0,3-1.91,7,7,0,0,0,.61-.61l.54-.74a15.51,15.51,0,0,0,1.05-1.5,17.58,17.58,0,0,0,2.75-6.66,16.66,16.66,0,0,0-.58-7.17,12.6,12.6,0,0,1-.58-3.8,7.86,7.86,0,0,1,1.35-3.67,7.61,7.61,0,0,1,2.89-2.57,5.4,5.4,0,0,1,1.89-.58l.9-.1a6.38,6.38,0,0,0,.86-.22A19.62,19.62,0,0,0,186.27,101.65Z"/><path class="cls-3" d="M23.52,47.87a5.77,5.77,0,0,1,3.38.05A5.79,5.79,0,0,1,24.23,50a5.77,5.77,0,0,1-3.38,0A5.86,5.86,0,0,1,23.52,47.87Z"/><path class="cls-3" d="M27.87,51.16a5.71,5.71,0,0,0-1-3.23,5.11,5.11,0,0,0-.29,6.37A5.82,5.82,0,0,0,27.87,51.16Z"/><path class="cls-3" d="M31.28,41.75a5.79,5.79,0,0,1,2.89,1.75,5.81,5.81,0,0,1-3.35.44,5.73,5.73,0,0,1-2.89-1.75A5.78,5.78,0,0,1,31.28,41.75Z"/><path class="cls-3" d="M33.37,46.79a5.77,5.77,0,0,0,.8-3.28,5.09,5.09,0,0,0-3.48,5.34A5.79,5.79,0,0,0,33.37,46.79Z"/><path class="cls-3" d="M37.25,37.37a5.8,5.8,0,0,1,2.74-2,5.8,5.8,0,0,1-.91,3.26,5.74,5.74,0,0,1-2.74,2A5.76,5.76,0,0,1,37.25,37.37Z"/><path class="cls-3" d="M42.71,37.43a5.83,5.83,0,0,0-2.71-2,5.79,5.79,0,0,0,.84,3.28,5.77,5.77,0,0,0,2.7,2A5.79,5.79,0,0,0,42.71,37.43Z"/><path class="cls-3" d="M35.9,28.05a5.79,5.79,0,0,1,2.72-2,5.76,5.76,0,0,1-.86,3.27,5.84,5.84,0,0,1-2.73,2A5.81,5.81,0,0,1,35.9,28.05Z"/><path class="cls-3" d="M41.36,28a5.74,5.74,0,0,0-2.73-2,5.83,5.83,0,0,0,.88,3.26,5.84,5.84,0,0,0,2.73,2A5.76,5.76,0,0,0,41.36,28Z"/><path class="cls-3" d="M39.69,17a5.7,5.7,0,0,1,3.36-.31A5.76,5.76,0,0,1,40.62,19a5.75,5.75,0,0,1-3.36.32A5.75,5.75,0,0,1,39.69,17Z"/><path class="cls-3" d="M44.37,19.78a5.83,5.83,0,0,0-1.31-3.12,5.72,5.72,0,0,0-.93,3.25A5.69,5.69,0,0,0,43.44,23,5.8,5.8,0,0,0,44.37,19.78Z"/><path class="cls-3" d="M52.74,10.28a5.79,5.79,0,0,1,1.5,3,5.79,5.79,0,0,1-3.07-1.42,5.74,5.74,0,0,1-1.5-3A5.82,5.82,0,0,1,52.74,10.28Z"/><path class="cls-3" d="M51.81,15.66a5.76,5.76,0,0,0,2.43-2.34,5.7,5.7,0,0,0-3.36.31A5.81,5.81,0,0,0,48.44,16,5.74,5.74,0,0,0,51.81,15.66Z"/><path class="cls-3" d="M26.7,48.19a21.26,21.26,0,0,1,2.69-2.59,12.11,12.11,0,0,1,3.2-2,7.8,7.8,0,0,1,.93-.31l.93-.16a4.58,4.58,0,0,0,1.62-.62,7.51,7.51,0,0,0,2.48-2.44,6.88,6.88,0,0,0,1.09-3.28A11.84,11.84,0,0,0,39,33.31a17.43,17.43,0,0,1-.66-7.54,18.22,18.22,0,0,1,2.8-7,15.3,15.3,0,0,1,1.08-1.55l.56-.76a9.31,9.31,0,0,1,.71-.7,12.22,12.22,0,0,1,3.25-2,12.41,12.41,0,0,1,3.69-.87,12.05,12.05,0,0,1,1.9,0l.94.1c.31,0,.61.13.92.19a20.21,20.21,0,0,1,6.77,3.09,21.15,21.15,0,0,0-6.85-2.71c-.3,0-.6-.12-.9-.14l-.91-.05a13.79,13.79,0,0,0-1.82,0,11.64,11.64,0,0,0-3.49.94,11.37,11.37,0,0,0-3,2,7.08,7.08,0,0,0-.61.62l-.52.75c-.35.5-.72,1-1,1.52a17.46,17.46,0,0,0-2.62,6.71,16.66,16.66,0,0,0,.71,7.16,12.44,12.44,0,0,1,.65,3.79,7.67,7.67,0,0,1-1.28,3.69,7.56,7.56,0,0,1-2.84,2.63,5.34,5.34,0,0,1-1.87.61l-.91.12a6.7,6.7,0,0,0-.85.23A19.74,19.74,0,0,0,26.7,48.19Z"/></g></g></svg>