<svg xmlns="http://www.w3.org/2000/svg" viewBox="0 0 212.93 174.39"><defs><style>.cls-1{fill:#00322d;}.cls-2{fill:#335b57;}.cls-3{fill:#e3e7eb;}.cls-4{fill:#f4887d;}.cls-5{fill:#ec3826;}.cls-6{fill:#a5271b;}.cls-11,.cls-12,.cls-15,.cls-16,.cls-7{fill:#fff;}.cls-12,.cls-15,.cls-16,.cls-7{stroke:#002147;stroke-miterlimit:10;}.cls-7{stroke-width:2.17px;}.cls-8{fill:#ef5c4d;}.cls-9{fill:#668481;}.cls-10{fill:#ffb014;}.cls-12{stroke-width:0.85px;}.cls-13{fill:#f16e61;}.cls-14{fill:#ffd272;}.cls-15{stroke-width:0.91px;}.cls-16{stroke-width:2.02px;}.cls-17{fill:#ffbe3f;}.cls-18{fill:#587976;}.cls-19{fill:#99adab;}.cls-20{fill:#6b8885;}.cls-21{fill:#dcac93;}</style></defs><g id="Layer_2" data-name="Layer 2"><g id="additional_assets" data-name="additional assets"><rect class="cls-1" y="27.24" width="212.93" height="121.97" rx="11.22"/><path class="cls-2" d="M183.07,174.39H29.77c-4.57,0-8.27-4.27-8.27-9.55V9.55C21.5,4.27,25.2,0,29.77,0h153.3c4.56,0,8.27,4.27,8.27,9.55V164.84C191.34,170.12,187.63,174.39,183.07,174.39Z"/><path class="cls-3" d="M174.9,165.1h-137c-4.08,0-7.39-3.82-7.39-8.53V17.82c0-4.71,3.31-8.53,7.39-8.53h137c4.08,0,7.39,3.82,7.39,8.53V156.57C182.29,161.28,179,165.1,174.9,165.1Z"/><path class="cls-4" d="M86.55,41.14s6.31-.76,6.52-1.91,6,1.12,6,1.12,3.56-3.77,3.59-4.23,1-6.4,1-6.4l0-3.12-3.65-4.22L96,17.79,91,17.23l-4.69,1.36L83,20.72s-2.7,4.36-2.81,4.34a25.23,25.23,0,0,0-2,3,6.11,6.11,0,0,1-1.55,1.28l-.43,4.13.63,3.66L78.17,40a50.91,50.91,0,0,1,5.73-.22A22,22,0,0,1,86.55,41.14Z"/><path class="cls-5" d="M90.63,36.5s1,.13,1.51-3.54-1.08-5.84-2.48-4.13-2.77,6.81-1.88,7.7S90,37.92,90.63,36.5Z"/><path class="cls-5" d="M90.58,39A.57.57,0,0,1,91,38c2.7.12,9.34.18,9.47-1.91.09-1.3-2.91-3.07-5.05-4.17a.4.4,0,0,1,.21-.75c3.08.22,8.06.07,7.25-3.37a4.55,4.55,0,0,0-8.3-1.11c-.65,1.18-1.77.4-1.44-.35,1-2.26,2.33-6,.64-7.18-2.28-1.56-5.44.9-6.37,7a.5.5,0,0,1-.93.17c-1-1.94-2.93-4.93-3.92-3.23s1.06,4.7,2.31,6.23a.45.45,0,0,1-.44.73c-2.3-.42-7-1-7.6.81s4,2.9,7,3.5a.2.2,0,0,1,0,.4c-2.38.06-5.7.41-5.71,1.89,0,2.3,6.14,2.26,8.44,4.44s4.78,7,4,9.21c0,0-5.85-4.78-5.64-3.74a14.49,14.49,0,0,0,2,4s-8.35-6-9.6-9.53S72.69,26.8,82.12,19.34s19.4-.9,22.39,5.8c2.59,5.79.55,16.34-5.76,16.72C94,42.14,91.63,40.22,90.58,39Z"/><path class="cls-4" d="M131.29,22.55s-6.32.63-6.55,1.77-6-1.24-6-1.24-3.64,3.7-3.67,4.16-1.14,6.38-1.14,6.38l-.08,3.12L117.4,41l4,4.67,4.9.66L131,45.1,134.38,43s2.79-4.3,2.9-4.28a25.82,25.82,0,0,0,2.11-2.94A6.22,6.22,0,0,1,141,34.57l.52-4.12-.55-3.67-1.28-2.86a51.77,51.77,0,0,1-5.74.1A23.43,23.43,0,0,1,131.29,22.55Z"/><path class="cls-5" d="M127.11,27.11s-1-.16-1.58,3.51,1,5.85,2.4,4.17,2.9-6.75,2-7.65S127.75,25.7,127.11,27.11Z"/><path class="cls-5" d="M127.22,24.63a.57.57,0,0,1-.48.93c-2.7-.17-9.34-.38-9.51,1.71-.11,1.3,2.85,3.14,5,4.28a.39.39,0,0,1-.22.74c-3.08-.29-8-.23-7.32,3.23a4.55,4.55,0,0,0,8.28,1.27c.67-1.16,1.78-.36,1.42.38-1,2.24-2.45,6-.78,7.16,2.24,1.61,5.46-.78,6.52-6.86a.49.49,0,0,1,.92-.15c1,2,2.84,5,3.86,3.31s-1-4.72-2.18-6.28a.45.45,0,0,1,.45-.71c2.3.46,6.93,1.16,7.62-.66.63-1.67-4-3-6.91-3.65a.2.2,0,0,1,0-.39c2.38,0,5.71-.3,5.75-1.78.06-2.3-6.09-2.38-8.35-4.61s-4.64-7.1-3.79-9.28c0,0,5.74,4.89,5.55,3.84a14.41,14.41,0,0,0-1.94-4s8.22,6.21,9.4,9.74,4.35,14.37-5.24,21.63-19.41.49-22.26-6.26c-2.47-5.85-.22-16.35,6.1-16.6C123.84,21.4,126.2,23.37,127.22,24.63Z"/><path class="cls-5" d="M69.38,30.62a41.69,41.69,0,0,1-4.32,6.67c-1,1.27-2.09,2.54-3.26,3.78a46.7,46.7,0,0,1-4.31,4,39.11,39.11,0,0,1-3.27,2.4,30.27,30.27,0,0,1-4.31,2.35A22.92,22.92,0,0,1,46.65,51a16.74,16.74,0,0,1-4.31.53c-.28,0-.57,0-.84,0a4.93,4.93,0,0,1-2.43-1,11.27,11.27,0,0,1-4.31-9A13.43,13.43,0,0,1,39.07,32a23,23,0,0,1,3.27-2.72,34.08,34.08,0,0,1,4.31-2.55l1.81-.85,1.45-.62c1.5-.64,2.93-1.21,4.31-1.7q1.71-.62,3.27-1.08a34.32,34.32,0,0,1,4.31-1,19.49,19.49,0,0,1,3.26-.28,8.19,8.19,0,0,1,4.32,1.07,5.12,5.12,0,0,1,1.29,1.21C71.59,24.67,71,27.37,69.38,30.62Z"/><path class="cls-6" d="M66.07,21.45a28.62,28.62,0,0,1,.62,6.29,28.65,28.65,0,0,1-.62,6.3,28,28,0,0,1-.61-6.3A29.22,29.22,0,0,1,66.07,21.45Z"/><path class="cls-6" d="M61.4,22.87A47.37,47.37,0,0,1,62,31a47.37,47.37,0,0,1-.62,8.13A47.37,47.37,0,0,1,60.78,31,47.37,47.37,0,0,1,61.4,22.87Z"/><path class="cls-6" d="M38,34.58a34.46,34.46,0,0,1,.62,6.77A33,33,0,0,1,38,48.12a33,33,0,0,1-.62-6.77A33,33,0,0,1,38,34.58Z"/><path class="cls-6" d="M56.77,24.38A66.61,66.61,0,0,1,57.34,34a66.61,66.61,0,0,1-.67,9.65A66.61,66.61,0,0,1,56.1,34,68.16,68.16,0,0,1,56.77,24.38Z"/><path class="cls-6" d="M52.1,26a75.31,75.31,0,0,1,.56,10.27A73.66,73.66,0,0,1,52,46.5a75.14,75.14,0,0,1-.56-10.27A75.22,75.22,0,0,1,52.1,26Z"/><path class="cls-6" d="M47.43,27.9A84,84,0,0,1,48,38.75a84,84,0,0,1-.68,10.85,83.91,83.91,0,0,1-.56-10.85A84.07,84.07,0,0,1,47.43,27.9Z"/><path class="cls-6" d="M42.75,29.79a68,68,0,0,1,.56,9.77,66.84,66.84,0,0,1-.67,9.77,68.26,68.26,0,0,1-.56-9.78A66.71,66.71,0,0,1,42.75,29.79Z"/><path class="cls-1" d="M51.51,23.82c-.76.06-7.8,3.88-7.8,3.88l13.2,18.8,6.93-6.22Z"/><circle class="cls-7" cx="161.82" cy="34.58" r="13.77"/><path class="cls-8" d="M161.82,42.35a7.77,7.77,0,1,1,7.77-7.77A7.78,7.78,0,0,1,161.82,42.35Z"/><path class="cls-9" d="M161.82,29a5.54,5.54,0,1,1-5.54,5.54A5.54,5.54,0,0,1,161.82,29m0-4.45a10,10,0,1,0,10,10,10,10,0,0,0-10-10Z"/><path class="cls-10" d="M161.82,29a5.54,5.54,0,1,1-5.54,5.54A5.54,5.54,0,0,1,161.82,29m0-2.67A8.21,8.21,0,1,0,170,34.58a8.22,8.22,0,0,0-8.21-8.21Z"/><circle class="cls-11" cx="170.33" cy="26.46" r="2.05"/><circle class="cls-11" cx="171.85" cy="28.51" r="2.05"/><circle class="cls-11" cx="170.37" cy="26.56" r="2.05"/><circle class="cls-11" cx="168.51" cy="24.96" r="2.05"/><circle class="cls-11" cx="166.37" cy="23.78" r="2.05"/><circle class="cls-11" cx="164.02" cy="23.07" r="2.05"/><circle class="cls-11" cx="161.58" cy="22.86" r="2.05"/><circle class="cls-11" cx="159.15" cy="23.17" r="2.05"/><circle class="cls-11" cx="156.83" cy="23.97" r="2.05"/><circle class="cls-11" cx="154.74" cy="25.24" r="2.05"/><circle class="cls-11" cx="152.95" cy="26.92" r="2.05"/><circle class="cls-11" cx="151.55" cy="28.93" r="2.05"/><circle class="cls-11" cx="150.6" cy="31.19" r="2.05"/><circle class="cls-11" cx="150.14" cy="33.6" r="2.05"/><circle class="cls-11" cx="150.19" cy="36.05" r="2.05"/><circle class="cls-11" cx="150.75" cy="38.43" r="2.05"/><circle class="cls-11" cx="151.8" cy="40.65" r="2.05"/><circle class="cls-11" cx="153.28" cy="42.6" r="2.05"/><circle class="cls-11" cx="155.13" cy="44.2" r="2.05"/><circle class="cls-11" cx="157.28" cy="45.39" r="2.05"/><circle class="cls-11" cx="159.62" cy="46.09" r="2.05"/><circle class="cls-11" cx="162.07" cy="46.3" r="2.05"/><circle class="cls-11" cx="164.5" cy="45.99" r="2.05"/><circle class="cls-11" cx="166.81" cy="45.19" r="2.05"/><circle class="cls-11" cx="168.91" cy="43.92" r="2.05"/><circle class="cls-11" cx="170.69" cy="42.24" r="2.05"/><circle class="cls-11" cx="172.09" cy="40.23" r="2.05"/><circle class="cls-11" cx="173.04" cy="37.97" r="2.05"/><circle class="cls-11" cx="173.5" cy="35.56" r="2.05"/><circle class="cls-11" cx="173.45" cy="33.11" r="2.05"/><circle class="cls-11" cx="172.89" cy="30.73" r="2.05"/><circle class="cls-12" cx="91.68" cy="107.55" r="14.4"/><circle class="cls-5" cx="82.94" cy="104.04" r="1.87"/><circle class="cls-5" cx="86.06" cy="98.42" r="1.87"/><circle class="cls-5" cx="88.24" cy="105.18" r="1.87"/><circle class="cls-13" cx="92.32" cy="98.68" r="1.87"/><circle class="cls-13" cx="91.82" cy="96.67" r="1.87"/><circle class="cls-13" cx="88.46" cy="102.57" r="1.87"/><circle class="cls-13" cx="90.72" cy="103.31" r="1.87"/><circle class="cls-13" cx="83.99" cy="105.46" r="1.87"/><circle class="cls-13" cx="81.93" cy="105.67" r="1.87"/><circle class="cls-13" cx="89.8" cy="100.03" r="1.87"/><circle class="cls-13" cx="86.06" cy="102.98" r="1.87"/><circle class="cls-13" cx="85.95" cy="105.41" r="1.87"/><circle class="cls-13" cx="86.98" cy="100.29" r="1.87"/><circle class="cls-13" cx="84.36" cy="101.11" r="1.87"/><circle class="cls-5" cx="83.96" cy="107.55" r="1.87"/><circle class="cls-5" cx="86.98" cy="101.67" r="1.87"/><circle class="cls-5" cx="89.5" cy="97.72" r="1.87"/><circle class="cls-5" cx="89.89" cy="117.12" r="1.87"/><circle class="cls-5" cx="84.08" cy="114.4" r="1.87"/><circle class="cls-5" cx="90.67" cy="111.75" r="1.87"/><circle class="cls-13" cx="83.9" cy="108.13" r="1.87"/><circle class="cls-13" cx="81.93" cy="108.78" r="1.87"/><circle class="cls-13" cx="88.04" cy="111.72" r="1.87"/><circle class="cls-13" cx="88.63" cy="109.41" r="1.87"/><circle class="cls-13" cx="85.42" cy="110.55" r="1.87"/><circle class="cls-13" cx="88.62" cy="114.08" r="1.87"/><circle class="cls-13" cx="91.06" cy="114.01" r="1.87"/><circle class="cls-13" cx="85.88" cy="113.35" r="1.87"/><circle class="cls-13" cx="86.88" cy="115.91" r="1.87"/><circle class="cls-5" cx="93.32" cy="115.86" r="1.87"/><circle class="cls-5" cx="87.25" cy="113.26" r="1.87"/><circle class="cls-5" cx="83.14" cy="111.02" r="1.87"/><circle class="cls-5" cx="101.41" cy="107.08" r="1.87"/><circle class="cls-5" cx="99.82" cy="113.31" r="1.87"/><circle class="cls-5" cx="95.99" cy="107.33" r="1.87"/><circle class="cls-13" cx="93.7" cy="114.66" r="1.87"/><circle class="cls-13" cx="94.7" cy="116.47" r="1.87"/><circle class="cls-13" cx="91.83" cy="115.95" r="1.87"/><circle class="cls-13" cx="96.44" cy="109.91" r="1.87"/><circle class="cls-13" cx="94.07" cy="109.77" r="1.87"/><circle class="cls-13" cx="86.98" cy="107.9" r="1.87"/><circle class="cls-13" cx="95.79" cy="112.71" r="1.87"/><circle class="cls-13" cx="94.64" cy="112.53" r="1.87"/><circle class="cls-13" cx="92.19" cy="111.38" r="1.87"/><circle class="cls-13" cx="98.66" cy="108.9" r="1.87"/><circle class="cls-13" cx="98.14" cy="106.52" r="1.87"/><circle class="cls-13" cx="98.45" cy="111.73" r="1.87"/><circle class="cls-13" cx="100.78" cy="110.28" r="1.87"/><circle class="cls-5" cx="99.52" cy="103.95" r="1.87"/><circle class="cls-5" cx="91.83" cy="105.18" r="1.87"/><circle class="cls-5" cx="91.37" cy="108.96" r="1.87"/><circle class="cls-5" cx="98.1" cy="110.4" r="1.87"/><circle class="cls-5" cx="90.5" cy="111.48" r="1.87"/><circle class="cls-5" cx="96.67" cy="114.86" r="1.87"/><circle class="cls-5" cx="93.07" cy="115.63" r="1.87"/><circle class="cls-13" cx="83.42" cy="104.98" r="1.87"/><circle class="cls-13" cx="81.37" cy="105.24" r="1.87"/><circle class="cls-13" cx="98.5" cy="108.07" r="1.87"/><circle class="cls-5" cx="100.6" cy="106.04" r="1.87"/><circle class="cls-5" cx="92.86" cy="96.97" r="1.87"/><circle class="cls-5" cx="98.85" cy="99.29" r="1.87"/><circle class="cls-5" cx="92.45" cy="102.38" r="1.87"/><circle class="cls-13" cx="99.45" cy="105.53" r="1.87"/><circle class="cls-13" cx="101.37" cy="104.75" r="1.87"/><circle class="cls-13" cx="100.51" cy="107.54" r="1.87"/><circle class="cls-13" cx="95.07" cy="102.24" r="1.87"/><circle class="cls-13" cx="94.64" cy="104.58" r="1.87"/><circle class="cls-13" cx="97.77" cy="103.22" r="1.87"/><circle class="cls-13" cx="97.04" cy="105.61" r="1.87"/><circle class="cls-13" cx="94.33" cy="99.92" r="1.87"/><circle class="cls-13" cx="91.91" cy="100.15" r="1.87"/><circle class="cls-13" cx="97.12" cy="100.46" r="1.87"/><circle class="cls-13" cx="95.95" cy="97.97" r="1.87"/><circle class="cls-5" cx="89.52" cy="98.46" r="1.87"/><circle class="cls-5" cx="89.82" cy="106.25" r="1.87"/><circle class="cls-5" cx="93.51" cy="107.16" r="1.87"/><circle class="cls-5" cx="95.75" cy="100.65" r="1.87"/><circle class="cls-5" cx="98.5" cy="106.63" r="1.87"/><circle class="cls-5" cx="94.95" cy="107.33" r="1.87"/><circle class="cls-5" cx="100.01" cy="102.6" r="1.87"/><circle class="cls-5" cx="84.55" cy="106.26" r="1.87"/><circle class="cls-5" cx="81.27" cy="107.16" r="1.87"/><circle class="cls-13" cx="91.39" cy="106.45" r="1.87"/><circle class="cls-13" cx="88.04" cy="104.65" r="1.87"/><path class="cls-5" d="M70.27,101.85A41.09,41.09,0,0,1,66,108.51c-1,1.28-2.09,2.55-3.26,3.78a45.36,45.36,0,0,1-4.31,4,35.09,35.09,0,0,1-3.27,2.4A28.88,28.88,0,0,1,50.81,121a21.47,21.47,0,0,1-3.27,1.13,16.67,16.67,0,0,1-4.3.54l-.84,0a5.08,5.08,0,0,1-2.43-1,11.29,11.29,0,0,1-4.31-9,13.43,13.43,0,0,1,4.31-9.5,22.49,22.49,0,0,1,3.27-2.73,33.92,33.92,0,0,1,4.3-2.55c.59-.28,1.19-.56,1.82-.84l1.45-.63c1.49-.63,2.93-1.2,4.31-1.7,1.13-.4,2.23-.77,3.27-1.07a34.05,34.05,0,0,1,4.31-1A19.49,19.49,0,0,1,66,92.38a8.06,8.06,0,0,1,4.31,1.08,4.77,4.77,0,0,1,1.29,1.2C72.49,95.9,71.91,98.6,70.27,101.85Z"/><path class="cls-6" d="M67,92.68a32.22,32.22,0,0,1,0,12.58,32.22,32.22,0,0,1,0-12.58Z"/><path class="cls-6" d="M62.29,94.1a53.55,53.55,0,0,1,0,16.25,46.27,46.27,0,0,1-.61-8.12A48.39,48.39,0,0,1,62.29,94.1Z"/><path class="cls-6" d="M38.91,105.81a37.22,37.22,0,0,1,0,13.53,32.21,32.21,0,0,1-.61-6.76A33.64,33.64,0,0,1,38.91,105.81Z"/><path class="cls-6" d="M57.67,95.61a68,68,0,0,1,.57,9.65,68,68,0,0,1-.67,9.65,65.18,65.18,0,0,1-.57-9.65A68,68,0,0,1,57.67,95.61Z"/><path class="cls-6" d="M53,97.2a75.14,75.14,0,0,1,.56,10.27,75.22,75.22,0,0,1-.67,10.26,73.76,73.76,0,0,1-.57-10.27A75.24,75.24,0,0,1,53,97.2Z"/><path class="cls-6" d="M48.32,99.13A83.91,83.91,0,0,1,48.88,110a82.31,82.31,0,0,1-.67,10.85A84.07,84.07,0,0,1,47.65,110,85.72,85.72,0,0,1,48.32,99.13Z"/><path class="cls-6" d="M43.64,101a69.7,69.7,0,0,1,.57,9.77,69.64,69.64,0,0,1-.67,9.77,66.8,66.8,0,0,1-.57-9.77A69.64,69.64,0,0,1,43.64,101Z"/><path class="cls-1" d="M52,95.16c-.75.06-7.79,3.89-7.79,3.89l13.2,18.79,6.92-6.22Z"/><circle class="cls-12" cx="125.43" cy="107.55" r="14.4"/><circle class="cls-10" cx="121.63" cy="106.27" r="1.79"/><circle class="cls-10" cx="121.63" cy="103.4" r="1.79"/><circle class="cls-10" cx="119.84" cy="102.13" r="1.79"/><circle class="cls-10" cx="118.05" cy="103.21" r="1.79"/><circle class="cls-14" cx="123.99" cy="104.11" r="1.79"/><circle class="cls-14" cx="123.84" cy="101.42" r="1.79"/><circle class="cls-14" cx="121.82" cy="100.34" r="1.79"/><circle class="cls-14" cx="121.13" cy="98.15" r="1.79"/><circle class="cls-14" cx="118.61" cy="100.53" r="1.79"/><circle class="cls-14" cx="116.6" cy="102.32" r="1.79"/><circle class="cls-14" cx="125.93" cy="102.55" r="1.79"/><circle class="cls-14" cx="124.14" cy="98.96" r="1.79"/><circle class="cls-14" cx="122.35" cy="108.64" r="1.79"/><circle class="cls-14" cx="124.93" cy="106.84" r="1.79"/><circle class="cls-14" cx="119.84" cy="108.07" r="1.79"/><circle class="cls-14" cx="116.6" cy="113.16" r="1.79"/><circle class="cls-14" cx="117.68" cy="108.86" r="1.79"/><circle class="cls-14" cx="116.45" cy="111.47" r="1.79"/><circle class="cls-14" cx="115.48" cy="106.84" r="1.79"/><circle class="cls-14" cx="118.24" cy="105.9" r="1.79"/><circle class="cls-10" cx="120.03" cy="105.19" r="1.79"/><circle class="cls-10" cx="123.42" cy="97.17" r="1.79"/><circle class="cls-10" cx="119.29" cy="99.81" r="1.79"/><circle class="cls-10" cx="126.4" cy="97.17" r="1.79"/><circle class="cls-10" cx="126.36" cy="105" r="1.79"/><circle class="cls-10" cx="115.03" cy="109.04" r="1.79"/><circle class="cls-10" cx="126.36" cy="108.64" r="1.79"/><circle class="cls-10" cx="120.4" cy="110.43" r="1.79"/><circle class="cls-10" cx="115.7" cy="104.64" r="1.79"/><circle class="cls-10" cx="118.61" cy="112.54" r="1.79"/><circle class="cls-10" cx="123.84" cy="109.86" r="1.79"/><circle class="cls-10" cx="129.17" cy="104.75" r="1.79"/><circle class="cls-10" cx="130.59" cy="107.25" r="1.79"/><circle class="cls-10" cx="132.78" cy="107.46" r="1.79"/><circle class="cls-10" cx="133.8" cy="105.64" r="1.79"/><circle class="cls-14" cx="128.19" cy="107.79" r="1.79"/><circle class="cls-14" cx="129.66" cy="110.06" r="1.79"/><circle class="cls-14" cx="131.94" cy="110" r="1.79"/><circle class="cls-14" cx="133.63" cy="111.56" r="1.79"/><circle class="cls-14" cx="134.81" cy="111.79" r="1.79"/><circle class="cls-14" cx="130.96" cy="115.66" r="1.79"/><circle class="cls-14" cx="125.63" cy="117.45" r="1.79"/><circle class="cls-14" cx="134.64" cy="108.24" r="1.79"/><circle class="cls-14" cx="135.49" cy="105.69" r="1.79"/><circle class="cls-14" cx="135.88" cy="106.79" r="1.79"/><circle class="cls-14" cx="127.28" cy="110.12" r="1.79"/><circle class="cls-14" cx="130.61" cy="112.34" r="1.79"/><circle class="cls-14" cx="120.55" cy="116.36" r="1.79"/><circle class="cls-14" cx="124.86" cy="114.57" r="1.79"/><circle class="cls-14" cx="127.89" cy="112.54" r="1.79"/><circle class="cls-14" cx="122.92" cy="114.13" r="1.79"/><circle class="cls-14" cx="118.24" cy="114.95" r="1.79"/><circle class="cls-14" cx="127.38" cy="103.05" r="1.79"/><circle class="cls-14" cx="126.02" cy="105.89" r="1.79"/><circle class="cls-14" cx="130.11" cy="100.3" r="1.79"/><circle class="cls-14" cx="133.02" cy="101.36" r="1.79"/><circle class="cls-14" cx="132.3" cy="103.39" r="1.79"/><circle class="cls-14" cx="130.33" cy="102.73" r="1.79"/><circle class="cls-10" cx="131.1" cy="104.9" r="1.79"/><circle class="cls-10" cx="132.12" cy="113.54" r="1.79"/><circle class="cls-10" cx="134.41" cy="109.2" r="1.79"/><circle class="cls-10" cx="135.49" cy="109.25" r="1.79"/><circle class="cls-10" cx="122.49" cy="111.85" r="1.79"/><circle class="cls-10" cx="125.43" cy="111.91" r="1.79"/><circle class="cls-10" cx="120.4" cy="113.35" r="1.79"/><circle class="cls-10" cx="133.02" cy="114.13" r="1.79"/><circle class="cls-10" cx="128.16" cy="117.22" r="1.79"/><circle class="cls-10" cx="129.32" cy="114.57" r="1.79"/><circle class="cls-10" cx="123.14" cy="117.22" r="1.79"/><circle class="cls-10" cx="126.72" cy="114.84" r="1.79"/><circle class="cls-10" cx="125.69" cy="108.2" r="1.79"/><circle class="cls-10" cx="131.85" cy="99.3" r="1.79"/><circle class="cls-10" cx="123.89" cy="105.04" r="1.79"/><circle class="cls-10" cx="128.18" cy="100.53" r="1.79"/><circle class="cls-10" cx="126.36" cy="99.94" r="1.79"/><circle class="cls-10" cx="134.81" cy="102.84" r="1.79"/><circle class="cls-10" cx="128.69" cy="97.81" r="1.79"/><circle class="cls-10" cx="125.47" cy="102.73" r="1.79"/><circle class="cls-14" cx="126.36" cy="97.17" r="1.79"/><rect class="cls-15" x="149.95" y="94.43" width="26.24" height="26.24" rx="5.3"/><path class="cls-5" d="M169.74,103.57v8a2.69,2.69,0,0,1-2.7,2.69h-7.95a2.69,2.69,0,0,1-2-.94,2.72,2.72,0,0,1-.65-1.75v-8a2.68,2.68,0,0,1,2.69-2.69H167a2.73,2.73,0,0,1,2,.83A2.62,2.62,0,0,1,169.74,103.57Z"/><polygon class="cls-4" points="163.51 100.88 156.4 110.27 156.4 106.04 160.31 100.88 163.51 100.88"/><path class="cls-4" d="M169,101.71l-9.45,12.51h-.46a2.69,2.69,0,0,1-2-.94l9.39-12.4h.6A2.73,2.73,0,0,1,169,101.71Z"/><polygon class="cls-4" points="169.74 104.59 169.74 108.82 165.66 114.22 162.48 114.22 169.74 104.59"/><circle class="cls-16" cx="126.44" cy="143.49" r="12.8"/><circle class="cls-8" cx="126.44" cy="143.49" r="5.15"/><circle class="cls-11" cx="134.34" cy="135.94" r="1.91"/><circle class="cls-11" cx="135.75" cy="137.85" r="1.91"/><circle class="cls-11" cx="134.38" cy="136.04" r="1.91"/><circle class="cls-11" cx="132.66" cy="134.55" r="1.91"/><circle class="cls-11" cx="130.66" cy="133.45" r="1.91"/><circle class="cls-11" cx="128.48" cy="132.79" r="1.91"/><circle class="cls-11" cx="126.21" cy="132.6" r="1.91"/><circle class="cls-11" cx="123.95" cy="132.89" r="1.91"/><circle class="cls-11" cx="121.8" cy="133.64" r="1.91"/><circle class="cls-11" cx="119.85" cy="134.82" r="1.91"/><circle class="cls-11" cx="118.19" cy="136.37" r="1.91"/><circle class="cls-11" cx="116.89" cy="138.24" r="1.91"/><circle class="cls-11" cx="116.01" cy="140.34" r="1.91"/><circle class="cls-11" cx="115.58" cy="142.58" r="1.91"/><circle class="cls-11" cx="115.63" cy="144.86" r="1.91"/><circle class="cls-11" cx="116.15" cy="147.07" r="1.91"/><circle class="cls-11" cx="117.12" cy="149.13" r="1.91"/><circle class="cls-11" cx="118.5" cy="150.95" r="1.91"/><circle class="cls-11" cx="120.22" cy="152.43" r="1.91"/><circle class="cls-11" cx="122.22" cy="153.53" r="1.91"/><circle class="cls-11" cx="124.39" cy="154.19" r="1.91"/><circle class="cls-11" cx="126.66" cy="154.38" r="1.91"/><circle class="cls-11" cx="128.92" cy="154.1" r="1.91"/><circle class="cls-11" cx="131.07" cy="153.35" r="1.91"/><circle class="cls-11" cx="133.02" cy="152.17" r="1.91"/><circle class="cls-11" cx="134.68" cy="150.61" r="1.91"/><circle class="cls-11" cx="135.98" cy="148.74" r="1.91"/><circle class="cls-11" cx="136.86" cy="146.64" r="1.91"/><circle class="cls-11" cx="137.29" cy="144.41" r="1.91"/><circle class="cls-11" cx="137.24" cy="142.13" r="1.91"/><circle class="cls-11" cx="136.72" cy="139.91" r="1.91"/><circle class="cls-16" cx="90.13" cy="143.49" r="12.8"/><circle class="cls-17" cx="90.13" cy="143.49" r="5.15"/><circle class="cls-11" cx="98.04" cy="135.94" r="1.91"/><circle class="cls-11" cx="99.45" cy="137.85" r="1.91"/><circle class="cls-11" cx="98.07" cy="136.04" r="1.91"/><circle class="cls-11" cx="96.35" cy="134.55" r="1.91"/><circle class="cls-11" cx="94.36" cy="133.45" r="1.91"/><circle class="cls-11" cx="92.18" cy="132.79" r="1.91"/><circle class="cls-11" cx="89.91" cy="132.6" r="1.91"/><circle class="cls-11" cx="87.65" cy="132.89" r="1.91"/><circle class="cls-11" cx="85.5" cy="133.64" r="1.91"/><circle class="cls-11" cx="83.55" cy="134.82" r="1.91"/><circle class="cls-11" cx="81.89" cy="136.37" r="1.91"/><circle class="cls-11" cx="80.59" cy="138.24" r="1.91"/><circle class="cls-11" cx="79.71" cy="140.34" r="1.91"/><circle class="cls-11" cx="79.28" cy="142.58" r="1.91"/><circle class="cls-11" cx="79.33" cy="144.86" r="1.91"/><circle class="cls-11" cx="79.85" cy="147.07" r="1.91"/><circle class="cls-11" cx="80.82" cy="149.13" r="1.91"/><circle class="cls-11" cx="82.19" cy="150.95" r="1.91"/><circle class="cls-11" cx="83.92" cy="152.43" r="1.91"/><circle class="cls-11" cx="85.91" cy="153.53" r="1.91"/><circle class="cls-11" cx="88.09" cy="154.19" r="1.91"/><circle class="cls-11" cx="90.36" cy="154.38" r="1.91"/><circle class="cls-11" cx="92.62" cy="154.1" r="1.91"/><circle class="cls-11" cx="94.77" cy="153.35" r="1.91"/><circle class="cls-11" cx="96.72" cy="152.17" r="1.91"/><circle class="cls-11" cx="98.38" cy="150.61" r="1.91"/><circle class="cls-11" cx="99.68" cy="148.74" r="1.91"/><circle class="cls-11" cx="100.56" cy="146.64" r="1.91"/><circle class="cls-11" cx="100.99" cy="144.41" r="1.91"/><circle class="cls-11" cx="100.94" cy="142.13" r="1.91"/><circle class="cls-11" cx="100.42" cy="139.91" r="1.91"/><circle class="cls-16" cx="53.83" cy="143.49" r="12.8"/><circle class="cls-18" cx="53.83" cy="143.49" r="5.15"/><circle class="cls-11" cx="61.73" cy="135.94" r="1.91"/><circle class="cls-11" cx="63.15" cy="137.85" r="1.91"/><circle class="cls-11" cx="61.77" cy="136.04" r="1.91"/><circle class="cls-11" cx="60.05" cy="134.55" r="1.91"/><circle class="cls-11" cx="58.05" cy="133.45" r="1.91"/><circle class="cls-11" cx="55.87" cy="132.79" r="1.91"/><circle class="cls-11" cx="53.6" cy="132.6" r="1.91"/><circle class="cls-11" cx="51.34" cy="132.89" r="1.91"/><circle class="cls-11" cx="49.19" cy="133.64" r="1.91"/><circle class="cls-11" cx="47.25" cy="134.82" r="1.91"/><circle class="cls-11" cx="45.59" cy="136.37" r="1.91"/><circle class="cls-11" cx="44.29" cy="138.24" r="1.91"/><circle class="cls-11" cx="43.4" cy="140.34" r="1.91"/><circle class="cls-11" cx="42.98" cy="142.58" r="1.91"/><circle class="cls-11" cx="43.02" cy="144.86" r="1.91"/><circle class="cls-11" cx="43.54" cy="147.07" r="1.91"/><circle class="cls-11" cx="44.51" cy="149.13" r="1.91"/><circle class="cls-11" cx="45.89" cy="150.95" r="1.91"/><circle class="cls-11" cx="47.61" cy="152.43" r="1.91"/><circle class="cls-11" cx="49.61" cy="153.53" r="1.91"/><circle class="cls-11" cx="51.79" cy="154.19" r="1.91"/><circle class="cls-11" cx="54.06" cy="154.38" r="1.91"/><circle class="cls-11" cx="56.31" cy="154.1" r="1.91"/><circle class="cls-11" cx="58.46" cy="153.35" r="1.91"/><circle class="cls-11" cx="60.41" cy="152.17" r="1.91"/><circle class="cls-11" cx="62.07" cy="150.61" r="1.91"/><circle class="cls-11" cx="63.37" cy="148.74" r="1.91"/><circle class="cls-11" cx="64.26" cy="146.64" r="1.91"/><circle class="cls-11" cx="64.68" cy="144.41" r="1.91"/><circle class="cls-11" cx="64.63" cy="142.13" r="1.91"/><circle class="cls-11" cx="64.12" cy="139.91" r="1.91"/><rect class="cls-15" x="149.95" y="130.37" width="26.24" height="26.24" rx="5.3"/><path class="cls-5" d="M169.74,139.51v8a2.7,2.7,0,0,1-2.7,2.7h-7.95a2.69,2.69,0,0,1-2-.94,2.74,2.74,0,0,1-.65-1.76v-8a2.68,2.68,0,0,1,2.69-2.69H167a2.74,2.74,0,0,1,2,.84A2.62,2.62,0,0,1,169.74,139.51Z"/><polygon class="cls-4" points="163.51 136.82 156.4 146.22 156.4 141.99 160.31 136.82 163.51 136.82"/><path class="cls-4" d="M169,137.66l-9.45,12.51h-.46a2.69,2.69,0,0,1-2-.94l9.39-12.41h.6A2.74,2.74,0,0,1,169,137.66Z"/><polygon class="cls-4" points="169.74 140.53 169.74 144.77 165.66 150.17 162.48 150.17 169.74 140.53"/><circle class="cls-12" cx="125.43" cy="71.55" r="14.4"/><circle class="cls-5" cx="116.69" cy="68.04" r="1.87"/><circle class="cls-5" cx="119.81" cy="62.43" r="1.87"/><circle class="cls-5" cx="121.99" cy="69.19" r="1.87"/><circle class="cls-13" cx="126.07" cy="62.69" r="1.87"/><circle class="cls-13" cx="125.57" cy="60.68" r="1.87"/><circle class="cls-13" cx="122.21" cy="66.57" r="1.87"/><circle class="cls-13" cx="124.47" cy="67.32" r="1.87"/><circle class="cls-13" cx="117.74" cy="69.46" r="1.87"/><circle class="cls-13" cx="115.68" cy="69.68" r="1.87"/><circle class="cls-13" cx="123.56" cy="64.04" r="1.87"/><circle class="cls-13" cx="119.81" cy="66.99" r="1.87"/><circle class="cls-13" cx="119.71" cy="69.42" r="1.87"/><circle class="cls-13" cx="120.73" cy="64.3" r="1.87"/><circle class="cls-13" cx="118.11" cy="65.12" r="1.87"/><circle class="cls-5" cx="117.71" cy="71.55" r="1.87"/><circle class="cls-5" cx="120.73" cy="65.68" r="1.87"/><circle class="cls-5" cx="123.25" cy="61.73" r="1.87"/><circle class="cls-5" cx="123.65" cy="81.13" r="1.87"/><circle class="cls-5" cx="117.83" cy="78.4" r="1.87"/><circle class="cls-5" cx="124.42" cy="75.76" r="1.87"/><circle class="cls-13" cx="117.65" cy="72.14" r="1.87"/><circle class="cls-13" cx="115.68" cy="72.78" r="1.87"/><circle class="cls-13" cx="121.8" cy="75.72" r="1.87"/><circle class="cls-13" cx="122.38" cy="73.41" r="1.87"/><circle class="cls-13" cx="119.17" cy="74.56" r="1.87"/><circle class="cls-13" cx="122.38" cy="78.09" r="1.87"/><circle class="cls-13" cx="124.81" cy="78.02" r="1.87"/><circle class="cls-13" cx="119.63" cy="77.36" r="1.87"/><circle class="cls-13" cx="120.63" cy="79.91" r="1.87"/><circle class="cls-5" cx="127.08" cy="79.86" r="1.87"/><circle class="cls-5" cx="121.01" cy="77.26" r="1.87"/><circle class="cls-5" cx="116.89" cy="75.02" r="1.87"/><circle class="cls-5" cx="135.16" cy="71.09" r="1.87"/><circle class="cls-5" cx="133.57" cy="77.32" r="1.87"/><circle class="cls-5" cx="129.74" cy="71.34" r="1.87"/><circle class="cls-13" cx="127.45" cy="78.66" r="1.87"/><circle class="cls-13" cx="128.45" cy="80.48" r="1.87"/><circle class="cls-13" cx="125.58" cy="79.96" r="1.87"/><circle class="cls-13" cx="130.2" cy="73.92" r="1.87"/><circle class="cls-13" cx="127.82" cy="73.78" r="1.87"/><circle class="cls-13" cx="120.73" cy="71.9" r="1.87"/><circle class="cls-13" cx="129.54" cy="76.71" r="1.87"/><circle class="cls-13" cx="128.39" cy="76.53" r="1.87"/><circle class="cls-13" cx="125.95" cy="75.39" r="1.87"/><circle class="cls-13" cx="132.41" cy="72.91" r="1.87"/><circle class="cls-13" cx="131.89" cy="70.53" r="1.87"/><circle class="cls-13" cx="132.21" cy="75.74" r="1.87"/><circle class="cls-13" cx="134.53" cy="74.28" r="1.87"/><circle class="cls-5" cx="133.28" cy="67.96" r="1.87"/><circle class="cls-5" cx="125.58" cy="69.19" r="1.87"/><circle class="cls-5" cx="125.12" cy="72.96" r="1.87"/><circle class="cls-5" cx="131.86" cy="74.41" r="1.87"/><circle class="cls-5" cx="124.25" cy="75.49" r="1.87"/><circle class="cls-5" cx="130.42" cy="78.87" r="1.87"/><circle class="cls-5" cx="126.83" cy="79.64" r="1.87"/><circle class="cls-13" cx="117.17" cy="68.99" r="1.87"/><circle class="cls-13" cx="115.12" cy="69.25" r="1.87"/><circle class="cls-13" cx="132.25" cy="72.08" r="1.87"/><circle class="cls-5" cx="134.35" cy="70.05" r="1.87"/><circle class="cls-5" cx="126.61" cy="60.98" r="1.87"/><circle class="cls-5" cx="132.6" cy="63.3" r="1.87"/><circle class="cls-5" cx="126.2" cy="66.39" r="1.87"/><circle class="cls-13" cx="133.2" cy="69.54" r="1.87"/><circle class="cls-13" cx="135.12" cy="68.76" r="1.87"/><circle class="cls-13" cx="134.26" cy="71.55" r="1.87"/><circle class="cls-13" cx="128.82" cy="66.24" r="1.87"/><circle class="cls-13" cx="128.39" cy="68.59" r="1.87"/><circle class="cls-13" cx="131.52" cy="67.23" r="1.87"/><circle class="cls-13" cx="130.79" cy="69.62" r="1.87"/><circle class="cls-13" cx="128.08" cy="63.92" r="1.87"/><circle class="cls-13" cx="125.66" cy="64.15" r="1.87"/><circle class="cls-13" cx="130.87" cy="64.46" r="1.87"/><circle class="cls-13" cx="129.7" cy="61.98" r="1.87"/><circle class="cls-5" cx="123.27" cy="62.47" r="1.87"/><circle class="cls-5" cx="123.57" cy="70.26" r="1.87"/><circle class="cls-5" cx="127.26" cy="71.17" r="1.87"/><circle class="cls-5" cx="129.51" cy="64.65" r="1.87"/><circle class="cls-5" cx="132.25" cy="70.63" r="1.87"/><circle class="cls-5" cx="128.7" cy="71.34" r="1.87"/><circle class="cls-5" cx="133.76" cy="66.61" r="1.87"/><circle class="cls-5" cx="118.3" cy="70.27" r="1.87"/><circle class="cls-5" cx="115.02" cy="71.17" r="1.87"/><circle class="cls-13" cx="125.14" cy="70.46" r="1.87"/><circle class="cls-13" cx="121.8" cy="68.66" r="1.87"/><path class="cls-5" d="M70.27,65.86A41.09,41.09,0,0,1,66,72.52c-1,1.28-2.09,2.55-3.26,3.78a45.36,45.36,0,0,1-4.31,4,37,37,0,0,1-3.27,2.4,29.82,29.82,0,0,1-4.31,2.35,21.47,21.47,0,0,1-3.27,1.13,17.12,17.12,0,0,1-4.3.54l-.84,0a5,5,0,0,1-2.43-1,11.29,11.29,0,0,1-4.31-9A13.45,13.45,0,0,1,40,67.21a23.11,23.11,0,0,1,3.27-2.72,33.92,33.92,0,0,1,4.3-2.55c.59-.28,1.19-.56,1.82-.84l1.45-.63c1.49-.63,2.93-1.21,4.31-1.7,1.13-.41,2.23-.77,3.27-1.08a35.71,35.71,0,0,1,4.31-1A19.49,19.49,0,0,1,66,56.39a8.06,8.06,0,0,1,4.31,1.08,4.77,4.77,0,0,1,1.29,1.2C72.49,59.91,71.91,62.6,70.27,65.86Z"/><path class="cls-6" d="M67,56.69A28.5,28.5,0,0,1,67.59,63,28.62,28.62,0,0,1,67,69.27,28.62,28.62,0,0,1,66.35,63,28.5,28.5,0,0,1,67,56.69Z"/><path class="cls-6" d="M62.29,58.11a47.26,47.26,0,0,1,.62,8.12,47.37,47.37,0,0,1-.62,8.13,46.38,46.38,0,0,1-.61-8.13A48.27,48.27,0,0,1,62.29,58.11Z"/><path class="cls-6" d="M38.91,69.81a33.07,33.07,0,0,1,.62,6.77,32.94,32.94,0,0,1-.62,6.77,32.25,32.25,0,0,1-.61-6.77A33.77,33.77,0,0,1,38.91,69.81Z"/><path class="cls-6" d="M57.67,59.62a67.92,67.92,0,0,1,.57,9.65,68,68,0,0,1-.67,9.65A65.18,65.18,0,0,1,57,69.27,68,68,0,0,1,57.67,59.62Z"/><path class="cls-6" d="M53,61.21a75.08,75.08,0,0,1,.56,10.26,75.12,75.12,0,0,1-.67,10.26,73.53,73.53,0,0,1-.57-10.26A75.13,75.13,0,0,1,53,61.21Z"/><path class="cls-6" d="M48.32,63.13A84.07,84.07,0,0,1,48.88,74a82.16,82.16,0,0,1-.67,10.84A83.91,83.91,0,0,1,47.65,74,85.88,85.88,0,0,1,48.32,63.13Z"/><path class="cls-6" d="M43.64,65a69.61,69.61,0,0,1,.57,9.77,69.74,69.74,0,0,1-.67,9.77A66.85,66.85,0,0,1,43,74.78,69.6,69.6,0,0,1,43.64,65Z"/><path class="cls-1" d="M52,59.17c-.75.06-7.79,3.88-7.79,3.88l13.2,18.8,6.92-6.22Z"/><circle class="cls-12" cx="91.68" cy="71.55" r="14.4"/><circle class="cls-19" cx="89.89" cy="81.13" r="1.87"/><circle class="cls-19" cx="90.95" cy="79.52" r="1.87"/><circle class="cls-20" cx="94.7" cy="81.39" r="1.87"/><circle class="cls-20" cx="96.57" cy="77.92" r="1.87"/><circle class="cls-20" cx="97.01" cy="80.25" r="1.87"/><circle class="cls-20" cx="94.17" cy="75.59" r="1.87"/><circle class="cls-20" cx="94.17" cy="71.76" r="1.87"/><circle class="cls-20" cx="90.09" cy="73.01" r="1.87"/><circle class="cls-20" cx="85.61" cy="74.89" r="1.87"/><circle class="cls-20" cx="88.22" cy="74.54" r="1.87"/><circle class="cls-20" cx="82.87" cy="76.05" r="1.87"/><circle class="cls-20" cx="91.83" cy="82.12" r="1.87"/><circle class="cls-20" cx="87.21" cy="80.95" r="1.87"/><circle class="cls-20" cx="89.35" cy="77.47" r="1.87"/><circle class="cls-20" cx="92.57" cy="77.47" r="1.87"/><circle class="cls-20" cx="85.34" cy="79.79" r="1.87"/><circle class="cls-20" cx="85" cy="77.92" r="1.87"/><circle class="cls-20" cx="83.47" cy="73.19" r="1.87"/><circle class="cls-19" cx="93.89" cy="79.08" r="1.87"/><circle class="cls-19" cx="82.87" cy="78.28" r="1.87"/><circle class="cls-19" cx="90.95" cy="75.59" r="1.87"/><circle class="cls-19" cx="94.81" cy="73.91" r="1.87"/><circle class="cls-19" cx="92" cy="73.01" r="1.87"/><circle class="cls-19" cx="87.21" cy="72.67" r="1.87"/><circle class="cls-19" cx="81.19" cy="73.72" r="1.87"/><circle class="cls-19" cx="87.21" cy="76.41" r="1.87"/><circle class="cls-19" cx="88.15" cy="78.63" r="1.87"/><circle class="cls-19" cx="84.48" cy="71.55" r="1.87"/><circle class="cls-19" cx="84.55" cy="65.05" r="1.87"/><circle class="cls-19" cx="84.75" cy="66.97" r="1.87"/><circle class="cls-20" cx="81.25" cy="68.6" r="1.87"/><circle class="cls-20" cx="81.43" cy="71.76" r="1.87"/><circle class="cls-20" cx="84.76" cy="72.04" r="1.87"/><circle class="cls-20" cx="89.55" cy="71.45" r="1.87"/><circle class="cls-20" cx="91.83" cy="67.16" r="1.87"/><circle class="cls-20" cx="90.03" cy="69.08" r="1.87"/><circle class="cls-20" cx="91.04" cy="61.19" r="1.87"/><circle class="cls-20" cx="83.1" cy="66.24" r="1.87"/><circle class="cls-20" cx="86.74" cy="63.49" r="1.87"/><circle class="cls-20" cx="87.3" cy="67.54" r="1.87"/><circle class="cls-20" cx="84.81" cy="69.58" r="1.87"/><circle class="cls-20" cx="87.24" cy="64.93" r="1.87"/><circle class="cls-20" cx="89.17" cy="63.79" r="1.87"/><circle class="cls-20" cx="85.34" cy="63.06" r="1.87"/><circle class="cls-19" cx="82.76" cy="69.17" r="1.87"/><circle class="cls-19" cx="88.22" cy="61.58" r="1.87"/><circle class="cls-19" cx="87.24" cy="70" r="1.87"/><circle class="cls-19" cx="92" cy="69.89" r="1.87"/><circle class="cls-19" cx="90.95" cy="64.36" r="1.87"/><circle class="cls-19" cx="89.62" cy="67" r="1.87"/><circle class="cls-19" cx="94.81" cy="69.02" r="1.87"/><circle class="cls-19" cx="93.64" cy="61.58" r="1.87"/><circle class="cls-20" cx="91.06" cy="74.08" r="1.87"/><circle class="cls-20" cx="91.04" cy="69.81" r="1.87"/><circle class="cls-20" cx="92.79" cy="63.42" r="1.87"/><circle class="cls-19" cx="88.82" cy="74.07" r="1.87"/><circle class="cls-19" cx="90.5" cy="71.63" r="1.87"/><circle class="cls-19" cx="92.21" cy="67.15" r="1.87"/><circle class="cls-19" cx="94.07" cy="64.86" r="1.87"/><circle class="cls-19" cx="100.27" cy="66.81" r="1.87"/><circle class="cls-19" cx="98.38" cy="66.45" r="1.87"/><circle class="cls-20" cx="97.82" cy="62.62" r="1.87"/><circle class="cls-20" cx="94.74" cy="61.87" r="1.87"/><circle class="cls-20" cx="93.52" cy="64.99" r="1.87"/><circle class="cls-20" cx="92.7" cy="69.74" r="1.87"/><circle class="cls-20" cx="96.15" cy="73.17" r="1.87"/><circle class="cls-20" cx="94.83" cy="70.88" r="1.87"/><circle class="cls-20" cx="102.1" cy="74.14" r="1.87"/><circle class="cls-20" cx="99.55" cy="76.76" r="1.87"/><circle class="cls-20" cx="99.61" cy="78.38" r="1.87"/><circle class="cls-20" cx="99.55" cy="65.08" r="1.87"/><circle class="cls-20" cx="101.13" cy="69.36" r="1.87"/><circle class="cls-20" cx="97.09" cy="68.72" r="1.87"/><circle class="cls-20" cx="95.86" cy="65.74" r="1.87"/><circle class="cls-20" cx="99.61" cy="69.41" r="1.87"/><circle class="cls-20" cx="100.14" cy="71.59" r="1.87"/><circle class="cls-20" cx="101.95" cy="68.14" r="1.87"/><circle class="cls-19" cx="96.84" cy="63.91" r="1.87"/><circle class="cls-19" cx="102.53" cy="71.32" r="1.87"/><circle class="cls-19" cx="94.75" cy="67.95" r="1.87"/><circle class="cls-19" cx="93.48" cy="72.53" r="1.87"/><circle class="cls-19" cx="99.08" cy="73.13" r="1.87"/><circle class="cls-19" cx="98.88" cy="75.92" r="1.87"/><circle class="cls-19" cx="96.94" cy="71.1" r="1.87"/><circle class="cls-19" cx="93.51" cy="75.49" r="1.87"/><circle class="cls-19" cx="100.96" cy="76.51" r="1.87"/><circle class="cls-19" cx="96.84" cy="75.79" r="1.87"/><rect class="cls-15" x="149.95" y="58.43" width="26.24" height="26.24" rx="5.3"/><path class="cls-5" d="M169.74,67.58v8a2.7,2.7,0,0,1-2.7,2.69h-7.95a2.69,2.69,0,0,1-2-.94,2.72,2.72,0,0,1-.65-1.75v-8a2.69,2.69,0,0,1,2.69-2.7H167a2.74,2.74,0,0,1,2,.84A2.62,2.62,0,0,1,169.74,67.58Z"/><polygon class="cls-4" points="163.51 64.88 156.4 74.28 156.4 70.05 160.31 64.88 163.51 64.88"/><path class="cls-4" d="M169,65.72l-9.45,12.51h-.46a2.69,2.69,0,0,1-2-.94l9.39-12.41h.6A2.74,2.74,0,0,1,169,65.72Z"/><polygon class="cls-4" points="169.74 68.59 169.74 72.83 165.66 78.23 162.48 78.23 169.74 68.59"/><path class="cls-21" d="M196.52,138.73l7.54-101.12a.42.42,0,0,1,.44-.38.41.41,0,0,1,.38.44l-6.27,101.2a1.05,1.05,0,0,1-1.11,1,1.07,1.07,0,0,1-1-1.12Z"/><path class="cls-21" d="M204.77,138.87,198.5,37.67a.41.41,0,0,1,.82-.06l7.55,101.12a1.05,1.05,0,0,1-2.1.15Z"/></g></g></svg>