<svg xmlns="http://www.w3.org/2000/svg" xmlns:xlink="http://www.w3.org/1999/xlink" viewBox="0 0 416.94 236.75"><defs><style>.cls-1{fill:#e0b097;}.cls-2{fill:#5c3960;}.cls-3,.cls-8{fill:#cb7c51;}.cls-3{opacity:0.43;}.cls-4{fill:#fdd072;}.cls-5{fill:#ffb014;}.cls-6{fill:#c65552;}.cls-7{fill:#d59674;}.cls-9{fill:#002147;}.cls-10{fill:#7d4921;}.cls-11{fill:#eed5c7;}.cls-12{fill:#a28ea4;}.cls-13{fill:#ffb414;}.cls-14{fill:#aab5c2;}.cls-15{fill:none;stroke:#a28ea4;stroke-width:5px;}.cls-15,.cls-20{stroke-miterlimit:10;}.cls-16{fill:#e3e7eb;}.cls-17{fill:#395370;}.cls-18{fill:#fff;}.cls-19{fill:#718399;}.cls-20,.cls-22{fill:#8e9dad;}.cls-20{stroke:#002147;stroke-linecap:round;stroke-width:2px;}.cls-21{fill:#c6cdd6;}.cls-23{fill:url(#linear-gradient);}</style><linearGradient id="linear-gradient" x1="319.88" y1="181.18" x2="322.34" y2="140.67" gradientUnits="userSpaceOnUse"><stop offset="0" stop-color="#fff"/><stop offset="1" stop-color="#fff" stop-opacity="0"/></linearGradient></defs><g id="Layer_2" data-name="Layer 2"><g id="illustrations"><path class="cls-1" d="M139.59,143.93,133,168.44l15.94,1.65s8.62-2.34,9.53-3.19,12.1-17.71,12.1-17.71l-1.28-3.48Z"/><path class="cls-2" d="M175.32,130.91S148,157.32,169.06,172l.5,51.33,12.7-.17,6.12-51.79Z"/><polygon class="cls-1" points="81.28 208.85 118.38 202.68 113.83 219.06 80.73 219.06 81.28 208.85"/><circle class="cls-1" cx="134.12" cy="206.1" r="10.5"/><path class="cls-1" d="M96.06,201.47c1.48.21,35.7-3.09,35.7-3.09l4.8,17.93a80.7,80.7,0,0,1-21.44-.67c-10.24-1.68-13.69-1.39-20-1.88-2.62-.2-1.46-4.82-1.46-4.82Z"/><path class="cls-1" d="M182.93,100.65l-5,17.67,21.64,5.33s10.42-3.84,11.75-3.89,31.14-13.58,31.14-13.58a111.8,111.8,0,0,1-11.82-5.13C224.62,98,218.22,93.86,217,89.73c-.8-2.55-1.58-5.09-2.38-7.65l-5.36-17.27L194,68.14l-2.76,17.25,2,11.08C189.07,100,182.93,100.65,182.93,100.65Z"/><path class="cls-3" d="M191.27,85.39l1.49,8.15c8.12-1.37,18.74-8.9,21.07-13.86-.06-.19-2.89-9.29-4.62-14.87L194,68.14Z"/><polygon class="cls-4" points="161.18 39.61 160.73 43.63 162.74 49.38 164.03 52.32 165.37 52.05 166.96 48.27 163.53 36.38 161.18 39.61"/><path class="cls-5" d="M221.28,69.42s14.49-2.07,10.88-29.17l-8,1L216.06,61.2Z"/><path class="cls-1" d="M163.58,47.74c1,25,15.38,43.47,26.26,42.61,22-1.75,35-15.28,37.67-42.61,2.32-24-14.31-43.65-32-43.65S162.57,23.65,163.58,47.74Z"/><path class="cls-6" d="M195.14,75.76a5.69,5.69,0,0,1-2.25,4.09,7.8,7.8,0,0,1-9.32.13,5.79,5.79,0,0,1-2.38-4,15.34,15.34,0,0,0,3.66,1.6,11.77,11.77,0,0,0,3.35.43,11.55,11.55,0,0,0,3.35-.51A13.73,13.73,0,0,0,195.14,75.76Z"/><path class="cls-6" d="M197.5,75.91a30.23,30.23,0,0,1-4.7,1,33.6,33.6,0,0,1-4.7.28,26.23,26.23,0,0,1-4.74-.45,13.93,13.93,0,0,1-4.61-1.64,37.37,37.37,0,0,1,4.73-.71,45.2,45.2,0,0,1,4.65-.2,33.94,33.94,0,0,1,4.7.37A15.62,15.62,0,0,1,197.5,75.91Z"/><path class="cls-7" d="M181.9,68.17l3.36,0L186.84,50l-1-.68-1.38,14.89a4.56,4.56,0,0,1-1.54,3Z"/><polygon class="cls-8" points="186.72 70.62 185.26 68.19 181.9 68.17 186.72 70.62"/><polygon class="cls-7" points="186.72 70.62 185.26 68.19 192.89 68.25 186.72 70.62"/><path class="cls-7" d="M181.58,45.5s4.39.19,5.26,4.5l-.37,4.26a2.57,2.57,0,0,1-.85-2.21C185.83,49.77,185.09,48.48,181.58,45.5Z"/><circle class="cls-9" cx="173.67" cy="52.31" r="1.94"/><path class="cls-9" d="M168.34,52.16A5.45,5.45,0,0,1,170.52,50a7.88,7.88,0,0,1,2.81-1,7.79,7.79,0,0,1,3,.15,5.86,5.86,0,0,1,2.7,1.4l0,.18a18.37,18.37,0,0,0-5.39,0,16.86,16.86,0,0,0-2.63.56,16,16,0,0,0-2.51,1Z"/><circle class="cls-9" cx="201.8" cy="52.3" r="1.94"/><path class="cls-9" d="M207.11,51.93a5.36,5.36,0,0,0-2.26-2.08,7.87,7.87,0,0,0-5.79-.59,5.87,5.87,0,0,0-2.65,1.51l0,.17a18.68,18.68,0,0,1,5.38-.21A16.31,16.31,0,0,1,207,52.08Z"/><path class="cls-10" d="M193.84,43.5a20.46,20.46,0,0,1,6.44-3.06,13,13,0,0,1,2.56-.29,13.79,13.79,0,0,1,2.57.32,11.13,11.13,0,0,1,2.38.94,9.1,9.1,0,0,1,3.57,3.44l-.11.17a19.15,19.15,0,0,0-4-2.11,13.34,13.34,0,0,0-4.42-.76,18,18,0,0,0-4.47.62q-2.24.49-4.47.93Z"/><path class="cls-10" d="M181.58,43.83a17.57,17.57,0,0,0-4.11-2.39,16.3,16.3,0,0,0-2.25-.83,13.61,13.61,0,0,0-2.56-.36,13,13,0,0,0-2.57.27,10.67,10.67,0,0,0-2.41.87A9,9,0,0,0,164,44.74l.1.17a19.38,19.38,0,0,1,4.06-2,13.11,13.11,0,0,1,4.43-.65,18,18,0,0,1,4.46.73c1.48.36,3,.71,4.45,1Z"/><polygon class="cls-1" points="291.85 206.17 273.5 208.01 235.77 132.13 263.95 119.33 291.85 206.17"/><circle class="cls-11" cx="244.75" cy="123.66" r="13.8"/><circle class="cls-1" cx="281.61" cy="208.46" r="10.5"/><path class="cls-2" d="M228.69,100s-8.62,23.31-31.19,20.17c-11.19-1.56-14.57-19.53-14.57-19.53l-27.76,6.22,16.63,30.58-2.24,85.86,82.58-2.37s-4-39.44,0-71.63C253.81,135.76,228.69,100,228.69,100Z"/><path class="cls-1" d="M243.7,201.69c5.61-.16,38.55-.44,38.55-.44l-2.2,17.59s-31.13-4.53-37.41-5c-2.62-.21-1.46-4.82-1.46-4.82Z"/><path class="cls-2" d="M279,157.87l-27.52,9L232,140.18l35.62-17.83Z"/><circle class="cls-2" cx="252.14" cy="127.68" r="16.37"/><path class="cls-2" d="M161.75,161.66c-1.65-1.5-25.7-9.56-25.7-9.56l9.79-35.53,30.22,12.37Z"/><circle class="cls-2" cx="161.27" cy="122.06" r="16.37"/><rect class="cls-12" y="218.97" width="416.94" height="17.78"/><path class="cls-2" d="M259.15,112.88,228.69,100l-3.83,11.88.65,5.75,16.6,5s5.75-7.71,5.75-8.24S259.15,112.88,259.15,112.88Z"/><path class="cls-1" d="M247.5,214.1l-21.87-.9a8.94,8.94,0,0,1-3.44-.85l-4.15-2a2.65,2.65,0,0,1-1.06-2.6c.26-1.51.8-3.63,1.85-4.55a6.39,6.39,0,0,1,4.28-1.27l34.62-.4Z"/><path class="cls-4" d="M202.52,4.38a16.8,16.8,0,0,1,3-2.06c.52-.28,1.06-.53,1.59-.78s1.08-.45,1.65-.62a17.38,17.38,0,0,1,6.88-.86,14,14,0,0,1,1.71.23l.84.14.83.23c.54.17,1.09.31,1.62.5l1.55.68c.25.11.52.21.76.34l.72.43,1.44.85c.92.63,1.78,1.32,2.66,2-.95-.55-1.88-1.14-2.85-1.65l-1.5-.67-.74-.33c-.25-.1-.52-.17-.77-.25l-1.55-.47c-.52-.13-1.06-.2-1.58-.29L218,1.64l-.8,0a11.91,11.91,0,0,0-1.58,0,15.45,15.45,0,0,0-6,1.46c-.47.2-.91.47-1.37.7s-.88.54-1.29.84a13.88,13.88,0,0,0-2.24,1.92Z"/><path class="cls-3" d="M174.36,39.08c-2.93.4-4.83.56-11.62,1.57l31.79-21.13,7.83-6.67,7.62-1,4.72,7.64L216.06,42s-9.56-5.27-11.4-16.3a45.54,45.54,0,0,1-4.19,5c-.58.56-1.11,1.17-1.73,1.68L196.92,34c-.62.5-1.3.94-1.94,1.42l-1,.69-1,.61a35.94,35.94,0,0,1-8.66,3.77,35.49,35.49,0,0,0,8-4.67l.93-.69.85-.78c.56-.53,1.15-1,1.68-1.57l1.56-1.69c.53-.54,1-1.18,1.45-1.77a45.9,45.9,0,0,0,2.7-4C197.81,30,189.88,36.93,174.36,39.08Z"/><path class="cls-4" d="M227.78,52.05s-22.56-14.28-22.86-33.88c-.21-13.84.69-14.69.69-14.69a19.61,19.61,0,0,1,17.87,1.75c10.44,6.75,18,29.33,6.21,44.07Z"/><path class="cls-1" d="M225.33,46.87c.73-2.5,4.3-10.44,9.09-5.15s-3.12,20-7.68,19.47-3-4.9-3-4.9S223.47,53.25,225.33,46.87Z"/><path class="cls-4" d="M204.92,18.17S194.57,34.82,175.6,37.35c-17,2.27-11.57,15-11.57,15s-7.18-7.06-7.18-19.57C156.85,18.12,165-.5,189.11.12c4.65.12,11.51,0,16.5,3.36L207,7.94Z"/><path class="cls-4" d="M208.15,16.79a36.28,36.28,0,0,1-2.45,4.37,48.37,48.37,0,0,1-2.83,4A45.09,45.09,0,0,1,196.1,32c-.64.5-1.22,1-1.9,1.48l-2,1.36c-.68.43-1.39.8-2.08,1.2l-1,.58-1.1.49a35.78,35.78,0,0,1-9,2.8,35.61,35.61,0,0,0,8.5-3.76l1-.59.94-.68c.62-.46,1.25-.88,1.85-1.37L193,32c.58-.49,1.08-1.08,1.63-1.61a42.53,42.53,0,0,0,5.58-7.18c.78-1.29,1.52-2.61,2.18-4a34.82,34.82,0,0,0,1.69-4Z"/><path class="cls-9" d="M27.11,211.41H55.67a0,0,0,0,1,0,0v0A7.64,7.64,0,0,1,48,219.06H34.76a7.64,7.64,0,0,1-7.64-7.64v0A0,0,0,0,1,27.11,211.41Z" transform="translate(82.79 430.47) rotate(-180)"/><path class="cls-13" d="M313.15,179.18V217.7a1.44,1.44,0,0,0,1.44,1.44h26.07a1.44,1.44,0,0,0,1.44-1.44v-7.48a21,21,0,0,0,2.68.39l.63,0a7.69,7.69,0,0,0,6.57-3.84c3.06-4.76,3.22-13.48.34-18.66-1.49-2.67-3.69-4.14-6.21-4.14H346a12,12,0,0,0-3.9.68v-5.49a1.44,1.44,0,0,0-1.44-1.44H314.59A1.44,1.44,0,0,0,313.15,179.18Zm29,26.51v-15.9a5.37,5.37,0,0,1,4-1.38c.89,0,1.69.62,2.39,1.87,2.08,3.74,2,10.73-.2,14.13a3.18,3.18,0,0,1-3.13,1.79A15.39,15.39,0,0,1,342.1,205.69Z"/><rect class="cls-4" x="315.52" y="179.82" width="10.48" height="37.25" rx="1.28" transform="translate(641.52 396.88) rotate(-180)"/><path class="cls-1" d="M188.25,211l13.8-9.78,15-5.08a1.85,1.85,0,0,1,1.54.15l10.69,6.08.24,3.25L216,199.68l-22.08,12.1a4,4,0,0,1-2.06.46C190.83,212.21,189.68,212.54,188.25,211Z"/><path class="cls-1" d="M196,208.14l-5.5,4.38s1.56,2.54,5,.54S206,207.49,206,207.49l12.71-1.31a56.35,56.35,0,0,0,5.48-2.4c0-.24-.11-2.52-.11-2.52l-6.46-3.18-7.93,2.08Z"/><path class="cls-1" d="M208.83,206l-11.28,8.91s.43,2,3.71,1.23,9.64-4.7,9.64-4.7l7.8-.55,6.77,2.14,4.05-7.47-8.25-4.92-9.37-.06Z"/><path class="cls-1" d="M208,199.68l5.59-2.89a2.24,2.24,0,0,1,1.81-.11l2.14.81-.82.5s-5,1.46-5.2,1.6A28.6,28.6,0,0,1,208,199.68Z"/><path class="cls-14" d="M238.68,208a12.77,12.77,0,0,1-.51,3.39h0a5.87,5.87,0,0,1-1,2.09,1.54,1.54,0,0,1-1.3.57l-2.74-.12a5.37,5.37,0,0,0,2-2.54,8.75,8.75,0,0,0,.68-3.41,8,8,0,0,0-1.1-4.18,8.16,8.16,0,0,0-2.3-2.54h3.11a1.39,1.39,0,0,1,1,.4,6.72,6.72,0,0,1,1.36,2A9.74,9.74,0,0,1,238.68,208Z"/><path class="cls-15" d="M182.93,100.65s4.34,16.94,14.57,19.53c9.61,2.43,24-2.54,31.19-20.17"/><path class="cls-13" d="M230.38,202.81s0,.05,0,.07h-.05Z"/><path class="cls-9" d="M238.68,208a12.77,12.77,0,0,1-.51,3.39h-3a8.75,8.75,0,0,0,.68-3.41,8,8,0,0,0-1.1-4.18l.09,0,3.11-.1A9.74,9.74,0,0,1,238.68,208Z"/><path class="cls-16" d="M235.54,211.41a3.36,3.36,0,0,1-2.51,2.53,2.08,2.08,0,0,1-.43,0,1.33,1.33,0,0,1-1.24-.63l.44-.24c.26.47.94.38,1.14.34a3,3,0,0,0,2.17-2.31,11.79,11.79,0,0,0,.41-3.88,8.57,8.57,0,0,0-.8-3.18c-.58-1.3-1.4-2.25-2-2.31-1.44-.14-1.69.48-1.7.51l-.48-.14c0-.06.35-1.06,2.23-.87.83.1,1.73,1.12,2.38,2.47,0,0,0,0,0,0a9.21,9.21,0,0,1,.88,3.46A12.13,12.13,0,0,1,235.54,211.41Z"/><path class="cls-17" d="M235.54,211.41l-.43-.27a11.79,11.79,0,0,0,.41-3.88,8.57,8.57,0,0,0-.8-3.18l.42-.3a9.21,9.21,0,0,1,.88,3.46A12.13,12.13,0,0,1,235.54,211.41Z"/><path class="cls-1" d="M230.16,201.79l2.05,0s-.11.38-.19.41l-1.19.4s-.06.18-.23,0a1,1,0,0,1-.25-.32Z"/><path class="cls-1" d="M231,213.42l1.54.07a3.72,3.72,0,0,0,0-.58,7.56,7.56,0,0,0-1-.56h-.72V213Z"/><polygon class="cls-18" points="228.93 49.05 226.88 53.94 226.66 54.19 221.21 60.48 220.27 59.48 225.5 53.19 228.93 49.05"/><path class="cls-18" d="M230.65,51.63a2.81,2.81,0,0,1-2.81,2.81,2.8,2.8,0,0,1-2.34-1.26L228.93,49A2.82,2.82,0,0,1,230.65,51.63Z"/><path class="cls-1" d="M31.16,210.3c1.3-.4,15.65-7.64,15.65-7.64l21.45,9.12-9.42,3.15L48,208.26l-11.75,3.83a4.36,4.36,0,0,1-4.69-1.33Z"/><path class="cls-1" d="M35.88,210.37c1.29-.4,15.63-7.69,15.63-7.69l14.12,5.95L73,211.74l-9.41,3.17-10.87-6.64L41,212.14a4.36,4.36,0,0,1-4.69-1.31Z"/><path class="cls-1" d="M48.27,214.06c-1.24.05-3.33,1.11-3.34,2.36,0,1-.12,2.64,4.5,2.64H85v-7.95S55.28,213.79,48.27,214.06Z"/><path class="cls-1" d="M81.28,208.85s-10.73,1.86-14.6.23,2,6,2,6l12.07.89a13.51,13.51,0,0,1,2.1-2.23,13.21,13.21,0,0,0,2.13-1.8Z"/><path class="cls-1" d="M52.28,213l-4.38,1.07a29.26,29.26,0,0,0,3.44,2.61c.22-.09,1.89-.24,1.89-.35S52.28,213,52.28,213Z"/><path class="cls-1" d="M59.5,214c-.11-.07-7.22-.94-7.22-.94l.48,2.93s3,.55,3.19.48S59.5,214,59.5,214Z"/><rect class="cls-19" x="184.36" y="216.35" width="56.94" height="2.71" rx="0.57" transform="translate(425.65 435.41) rotate(-180)"/><path class="cls-19" d="M85.59,219.06h98.32a1.43,1.43,0,0,0,1.37-1.86l-19.64-62.53a1.43,1.43,0,0,0-1.36-1H66a1.43,1.43,0,0,0-1.36,1.86l19.63,62.53A1.44,1.44,0,0,0,85.59,219.06Z"/><path class="cls-9" d="M83.76,219.06h98.33a1.43,1.43,0,0,0,1.36-1.86l-19.63-62.53a1.44,1.44,0,0,0-1.37-1H64.12a1.43,1.43,0,0,0-1.36,1.86L82.4,218.06A1.43,1.43,0,0,0,83.76,219.06Z"/><ellipse class="cls-19" cx="122.23" cy="187.14" rx="7.38" ry="8.96" transform="matrix(0.52, -0.86, 0.86, 0.52, -101.14, 195.38)"/><path class="cls-20" d="M398.57,218.41H351.9a1.46,1.46,0,0,1-1.46-1.47v-2.29a1.46,1.46,0,0,1,1.46-1.47h46.67"/><polygon class="cls-13" points="355.81 215.79 355.81 221.63 356.62 220.91 357.29 221.63 357.36 215.79 355.81 215.79"/><line class="cls-21" x1="352.5" y1="215.79" x2="393.14" y2="215.79"/><path class="cls-22" d="M352.5,215.79a37.57,37.57,0,0,1,5.08-.24l5.08,0,10.16.05,10.16,0,10.16.12-10.16.13-10.16.05-10.16.05-5.08,0A36,36,0,0,1,352.5,215.79Z"/><path class="cls-23" d="M341.54,177.74l-5.21-5.21a8.91,8.91,0,0,1,0-12.62h0a8.93,8.93,0,0,0,0-12.62l-8.16-8.16H301l8.16,8.16a8.93,8.93,0,0,1,0,12.62h0a8.93,8.93,0,0,0,0,12.62l5.21,5.21Z"/></g></g></svg>