<svg xmlns="http://www.w3.org/2000/svg" viewBox="0 0 126.08 126.08"><defs><style>.cls-1{fill:#475977;}.cls-2{fill:#8e9dad;}.cls-3{fill:#002147;}.cls-4{fill:#c6cdd6;}.cls-5,.cls-9{fill:#fff;}.cls-6{fill:#1c395b;}.cls-7{fill:#f4887d;}.cls-8{fill:#ec3826;}.cls-9{font-size:21.43px;font-family:OpenSans-Bold, Open Sans;font-weight:700;}.cls-10{fill:none;stroke:#e3e7eb;stroke-miterlimit:10;stroke-width:0.96px;}</style></defs><g id="Layer_2" data-name="Layer 2"><g id="icons"><circle class="cls-1" cx="63.04" cy="63.04" r="63.04"/><polygon class="cls-2" points="88.39 104.97 86.56 106.05 86.56 103.72 86.56 64.82 88.39 63.75 88.39 104.97"/><polygon class="cls-3" points="34.73 33.36 88.39 63.75 86.56 64.82 62.06 74.48 45.69 70.41 32.07 33.36 34.73 33.36"/><polygon class="cls-3" points="32.07 33.36 59.31 19.62 88.39 63.75 32.07 33.36"/><polygon class="cls-2" points="79.83 87.35 41.64 65.3 41.64 18.66 79.83 40.71 79.83 87.35"/><polygon class="cls-4" points="77.67 91.56 39.47 69.51 39.47 22.87 77.67 44.92 77.67 91.56"/><polygon class="cls-5" points="75.5 96.75 37.31 74.71 37.31 28.06 75.5 50.11 75.5 96.75"/><path class="cls-6" d="M38.84,39.75a22.68,22.68,0,0,0-6.77-6.39V74.59L59.31,68.2Z"/><path class="cls-6" d="M79.78,63.39,59.31,68.2l27.25,37.85V64.82A9.46,9.46,0,0,0,79.78,63.39Z"/><polygon class="cls-3" points="32.07 74.59 86.56 106.05 59.31 68.19 32.07 74.59"/><path class="cls-7" d="M74.28,76.91,86.93,47.38A1.28,1.28,0,0,1,88.8,47c.12.06,3,1.81,3,1.81l9.71,12.5a1.74,1.74,0,0,1-.44,2.64l-22.4,13,.13,0,.33,1.4L77.6,80.09l-2.81-1.63h0A1.23,1.23,0,0,1,74.28,76.91Z"/><path class="cls-8" d="M92.17,49.13,104,62.78a2.29,2.29,0,0,1-.58,3.48L79.26,80.2a1.61,1.61,0,0,1-2.29-2l12.38-28.6A1.68,1.68,0,0,1,92.17,49.13Z"/><text class="cls-9" transform="matrix(-0.87, 0.5, 0, 1, 93.56, 68.67)">!</text><line class="cls-10" x1="19.12" y1="41.07" x2="29.83" y2="47.25"/><line class="cls-10" x1="22.27" y1="48.34" x2="29.83" y2="52.71"/><line class="cls-10" x1="16.6" y1="50.53" x2="29.83" y2="58.17"/><line class="cls-10" x1="23.22" y1="59.81" x2="29.83" y2="63.63"/><line class="cls-10" x1="90.92" y1="78.6" x2="96.42" y2="81.78"/><line class="cls-10" x1="90.92" y1="84.06" x2="97.66" y2="87.95"/><line class="cls-10" x1="90.92" y1="89.52" x2="102.7" y2="96.32"/><line class="cls-10" x1="90.92" y1="94.98" x2="96.92" y2="98.44"/></g></g></svg>