<svg xmlns="http://www.w3.org/2000/svg" viewBox="0 0 170.54 170.54"><defs><style>.cls-1{fill:#335b57;}.cls-2{fill:#00322d;}.cls-3{fill:#668481;}.cls-4{fill:#ffb014;}.cls-5{fill:#ffd272;}.cls-6{fill:none;stroke-linecap:round;stroke-linejoin:round;stroke-width:1.5px;}.cls-10,.cls-6{stroke:#fff;}.cls-7{fill:#99adab;}.cls-10,.cls-8{fill:#fff;}.cls-9{fill:#a3b5b3;}.cls-10{stroke-miterlimit:10;stroke-width:0.29px;}</style></defs><g id="Layer_2" data-name="Layer 2"><g id="Final_gfx" data-name="Final gfx"><circle class="cls-1" cx="85.27" cy="85.27" r="85.27"/><circle class="cls-2" cx="122.14" cy="90.94" r="6.31"/><path class="cls-3" d="M131.4,87.44V83.3l-1.73,1a9.33,9.33,0,0,0-1-.67,14.54,14.54,0,0,0-12.85-.13l-3-.25v4.35h0c.08,1.3,1,2.59,2.7,3.59a14.47,14.47,0,0,0,13.1,0c1.76-1,2.66-2.35,2.7-3.68h0v-.11Z"/><ellipse class="cls-2" cx="122.14" cy="83.3" rx="9.26" ry="5.35"/><path class="cls-3" d="M131.4,81.52V77.38s-.84.49-1.73,1.05a8.07,8.07,0,0,0-1-.68,14.54,14.54,0,0,0-12.85-.13l-3-.24v4.34h0a4.68,4.68,0,0,0,2.7,3.59,14.47,14.47,0,0,0,13.1,0c1.76-1,2.66-2.34,2.7-3.68h0v-.11Z"/><ellipse class="cls-2" cx="122.14" cy="77.38" rx="9.26" ry="5.35"/><path class="cls-4" d="M141.24,51.72c0-10.14-8.55-18.37-19.1-18.37S103,41.58,103,51.72a17.94,17.94,0,0,0,.75,5.11v0a22.39,22.39,0,0,0,4.56,8.52c4.62,5.57,1.81,7,4.79,10.91,2.64,3.42,9,3.1,9,3.1s6.37.32,9-3.1c3-3.87.17-5.34,4.79-10.91a22.39,22.39,0,0,0,4.56-8.52h0A17.92,17.92,0,0,0,141.24,51.72Z"/><path class="cls-5" d="M107,56.35a13.78,13.78,0,0,1-.81-8c1.09-5.29,6.09-11.42,14.66-12.39V46.68S109.9,48.18,107,56.35Z"/><polyline class="cls-6" points="128.06 58.78 124.04 70.92 119.79 68.46 115.54 51.29"/><line class="cls-6" x1="114.18" y1="27.79" x2="115.2" y2="30.94"/><line class="cls-6" x1="101.3" y1="37.15" x2="103.98" y2="39.1"/><line class="cls-6" x1="96.38" y1="52.29" x2="99.69" y2="52.29"/><line class="cls-6" x1="147.9" y1="52.29" x2="144.59" y2="52.29"/><line class="cls-6" x1="142.98" y1="37.15" x2="140.3" y2="39.1"/><line class="cls-6" x1="130.1" y1="27.79" x2="129.08" y2="30.94"/><line class="cls-6" x1="121.8" y1="75.82" x2="121.8" y2="69.75"/><path class="cls-7" d="M97.62,150.11l9.94-5.74s-5.57-8.61-5.64-8.91-4.69-4.56-4.69-4.56l-3.52-1.31-2.24.23L90.4,135.3l2.15,6.45Z"/><polygon class="cls-7" points="107.56 144.37 118.69 137.95 118.69 128.43 106.88 120.88 102.11 120.5 99.25 124.51 101.88 132.43 107.56 144.37"/><path class="cls-7" d="M116,123.91l11.12-6.42s-2.65-4.32-3.08-4.78-9.78-3.42-9.78-3.42-3.56,1.31-3.45,2.44,0,6.06,0,6.06Z"/><path class="cls-7" d="M112.4,95l11.12-6.42L116,84l-6.58,3.41s-5.19,2.69-4.27,3.6S112.4,95,112.4,95Z"/><path class="cls-7" d="M89.25,54.87l11.12-6.43s1.77,5.83,1.62,6.43-6.37,5.68-6.37,5.68L89.25,62Z"/><path class="cls-7" d="M34.09,40.09l11.13-6.42,7.15,4v7l2.15,5s-4.62,7.62-4.89,7.71-10-2.45-10-2.45Z"/><path class="cls-7" d="M44,34.34l11.12-6.42,7.16,4v7l2.15,4.94s-4.63,7.63-4.89,7.71-9.95-2.45-9.95-2.45Z"/><path class="cls-7" d="M66,37.31l11.12-6.42,7.16,4v7l2.15,4.95s-4.63,7.62-4.89,7.71-10-2.45-10-2.45Z"/><polygon class="cls-7" points="25.62 60.54 47.76 47.76 59.33 54.55 39.91 67.68 25.62 60.54"/><polygon class="cls-7" points="29.26 89.5 51.4 76.72 56.52 83.11 29.26 89.5"/><path class="cls-7" d="M52.41,129.59l15.73-9.08s-2.15-6.13-2.59-6.83-5.27-5.1-5.27-5.1l-2.35,1.22Z"/><path class="cls-7" d="M75.66,147.22,85,141.93s.21-13.35,0-13.5S82,125.81,82,125.81l-6.76,2-2.77,7Z"/><polygon class="cls-7" points="88.71 55.56 75.19 47.75 77.12 30.82 86.78 36.4 88.71 55.56"/><polygon class="cls-7" points="73.02 47.17 61.31 48.21 55.16 27.92 63.53 27.18 73.02 47.17"/><polygon class="cls-7" points="59.72 49.13 52.96 58.75 40.38 40.54 45.97 37.7 59.72 49.13"/><polygon class="cls-7" points="52.37 60.93 52.37 76.53 36.74 65.29 36.74 54.13 52.37 60.93"/><polygon class="cls-7" points="52.96 79.39 59.72 96.81 45.22 95.53 40.38 83.08 52.96 79.39"/><polygon class="cls-7" points="61.31 99.57 73.02 114.13 63.53 123.17 55.16 112.76 61.31 99.57"/><polygon class="cls-7" points="75.19 116.06 88.71 123.86 86.78 140.8 77.12 135.22 75.19 116.06"/><polygon class="cls-7" points="90.89 124.45 102.59 123.4 106.88 141.82 100.37 144.44 90.89 124.45"/><polygon class="cls-7" points="104.19 122.48 110.95 112.87 123.52 131.07 118.69 137.95 104.19 122.48"/><polygon class="cls-7" points="111.53 110.69 111.53 95.08 127.16 106.33 127.16 117.49 111.53 110.69"/><polygon class="cls-7" points="110.95 92.23 104.19 74.81 118.69 76.08 123.52 88.54 110.95 92.23"/><polygon class="cls-7" points="102.59 72.05 90.89 57.49 100.37 48.44 108.74 58.86 102.59 72.05"/><ellipse class="cls-7" cx="81.95" cy="85.81" rx="26.54" ry="45.96" transform="translate(-31.92 52.47) rotate(-30)"/><polygon class="cls-3" points="77.59 61.98 64.07 54.17 66 37.24 75.66 42.82 77.59 61.98"/><polygon class="cls-3" points="61.89 53.59 50.19 54.63 44.04 34.35 52.41 33.6 61.89 53.59"/><polygon class="cls-3" points="48.59 55.56 41.84 65.17 29.26 46.96 34.1 40.09 48.59 55.56"/><polygon class="cls-3" points="41.25 67.35 41.25 82.96 25.62 71.71 25.62 60.55 41.25 67.35"/><polygon class="cls-3" points="41.84 85.81 48.59 103.23 34.1 101.95 29.26 89.5 41.84 85.81"/><polygon class="cls-3" points="50.19 105.99 61.89 120.55 52.41 129.59 44.04 119.18 50.19 105.99"/><polygon class="cls-3" points="64.07 122.48 77.59 130.28 75.66 147.22 66 141.64 64.07 122.48"/><polygon class="cls-3" points="79.77 130.87 91.47 129.82 97.62 150.11 89.25 150.86 79.77 130.87"/><polygon class="cls-3" points="93.07 128.9 99.83 119.29 112.4 137.5 107.56 144.37 93.07 128.9"/><polygon class="cls-3" points="100.41 117.11 100.41 101.5 116.04 112.75 116.04 123.91 100.41 117.11"/><polygon class="cls-3" points="99.83 98.65 93.07 81.23 107.56 82.5 112.4 94.96 99.83 98.65"/><polygon class="cls-3" points="91.47 78.47 79.77 63.91 89.25 54.87 97.62 65.28 91.47 78.47"/><ellipse class="cls-3" cx="70.83" cy="92.23" rx="26.54" ry="45.96" transform="translate(-36.63 47.77) rotate(-30)"/><ellipse class="cls-7" cx="68.45" cy="91.49" rx="22.18" ry="38.42" transform="translate(-36.57 46.48) rotate(-30)"/><ellipse class="cls-2" cx="68.45" cy="91.49" rx="19.74" ry="34.2" transform="translate(-36.57 46.48) rotate(-30)"/><path class="cls-3" d="M79.44,112c-11.52-.51-19.55-5.92-23.24-11a2.83,2.83,0,0,1-.52-1.64V94.06c0-3.78,3.37-6.15,6.62-4.27l14.53,7a8.82,8.82,0,0,1,4.39,7.65v5.81A1.71,1.71,0,0,1,79.44,112Z"/><path class="cls-8" d="M71.88,87.38V97c-2.64,2.31-5.66,2.58-7,1.29A3.33,3.33,0,0,1,64,95.78a11.43,11.43,0,0,0,.48-2.39c.11-.79.18-1.58.22-2a8.73,8.73,0,0,0-.62-4Z"/><path class="cls-9" d="M71.88,87.38v4A7.19,7.19,0,0,1,66.29,94a3.4,3.4,0,0,1-1.86-.61c.11-.79.18-1.58.22-2a8.73,8.73,0,0,0-.62-4Z"/><path class="cls-10" d="M72.67,85c0,4.57-3.14,8.27-7.52,8.27-3,0-6-5.1-6-9.66,0-8.44,2.91-8.42,6-8.42S72.67,80.39,72.67,85Z"/><path class="cls-3" d="M72.57,87.09a9.79,9.79,0,0,1-.69,2v1.65C72.17,89.13,77,86.42,77,79.5a8.94,8.94,0,0,0-8.65-8.44c-9.18-.75-8.94,8.09-8.94,8.09.47-1.1.64-1.63,1-2a1.14,1.14,0,0,1,.54-.26c1.24-.22,2.1,2.71,4.09,4.19.87.65,2.22,1.14,4.81.89,0,.34.47,1.1.4,1.56a3.9,3.9,0,0,0-.06,1.64l.93-.13c.14-1.79.58-1.85.79-1.83,1,.14,1.85.56,1.68,1.84C73.52,86.15,73.3,86.7,72.57,87.09Z"/><path class="cls-8" d="M71.42,83.79s.25-1.05,1.51-.67,1.78,3.24-.55,4Z"/></g></g></svg>