<svg xmlns="http://www.w3.org/2000/svg" viewBox="0 0 126.08 126.08"><defs><style>.cls-1{fill:#475977;}.cls-2{fill:#e3e7eb;}.cls-3{fill:#c6cdd6;}.cls-4{fill:#aab5c2;}.cls-5{fill:#556b84;}.cls-6{fill:#002147;}.cls-7{fill:#1c395b;}.cls-8{fill:#718399;}.cls-9{fill:#ffb414;}.cls-10{opacity:0.2;}.cls-11,.cls-14{fill:#fff;}.cls-12{fill:none;stroke:#fff;stroke-miterlimit:10;}.cls-13{fill:#fdd072;}.cls-14{font-size:12.73px;font-family:OpenSans-Bold, Open Sans;font-weight:700;}</style></defs><g id="Layer_2" data-name="Layer 2"><g id="icons"><circle class="cls-1" cx="63.04" cy="63.04" r="63.04"/><path class="cls-2" d="M51.7,62.47l-22,12.7,19.13,13.4,18,15.46-.75,2.25v2.58a2.18,2.18,0,0,0,1.29-.28L97.94,91a1,1,0,0,0,.5-.87V88.49Z"/><path class="cls-3" d="M66.86,104l-18-15.46L29.71,75.17l-9.9,5.72a.87.87,0,0,0,0,1.52l45.33,26.17a2.09,2.09,0,0,0,1,.28v-2.58Z"/><polygon class="cls-3" points="19.37 80.08 19.37 81.65 20.28 81.86 20.8 80.97 20.8 80.49 19.37 80.08"/><path class="cls-4" d="M65.14,107,19.81,80.84a.87.87,0,0,1,0-1.52l31-17.92a1.69,1.69,0,0,1,1.71,0L97.92,87.59a1,1,0,0,1,0,1.8L67.4,107A2.23,2.23,0,0,1,65.14,107Z"/><path class="cls-5" d="M74.43,96.42,37,74.81a.66.66,0,0,1,0-1.14l15.83-9.14a1.32,1.32,0,0,1,1.33,0L91.88,86.31a.68.68,0,0,1,0,1.17L76.39,96.42A1.91,1.91,0,0,1,74.43,96.42Z"/><path class="cls-2" d="M98.23,47.24,53.34,21.3a.8.8,0,0,0-.75,0h0l0,0h0l-.49.28a4.21,4.21,0,0,0,0,.7s.05,0,.08,0V59.17a1.36,1.36,0,0,0,.67,1.17l45,26,.29.37.56-.33A.67.67,0,0,0,99,85.8V48.5A1.46,1.46,0,0,0,98.23,47.24Z"/><path class="cls-6" d="M98.44,48.8V86.09a.69.69,0,0,1-1,.6L70.31,71l-5.17-3-1-.58-8.9-5.13-2.93-1.7a1.35,1.35,0,0,1-.67-1.16V22.28a.79.79,0,0,1,1.18-.69L78.14,36.22,87,41.36l1,.58,5.17,3,4.51,2.61A1.46,1.46,0,0,1,98.44,48.8Z"/><polygon class="cls-7" points="96.38 83.62 53.7 58.96 53.7 24.74 96.38 49.4 96.38 83.62"/><path class="cls-8" d="M49.71,95.59l-10-5.78a.69.69,0,0,1,0-1.2l8.72-5a1.28,1.28,0,0,1,1.31,0l10.31,6a.55.55,0,0,1,0,1l-8.85,5.11A1.5,1.5,0,0,1,49.71,95.59Z"/><polygon class="cls-9" points="79.93 58.04 79.93 42.12 71.08 37.01 71.08 52.93 67.08 50.62 75.51 69.63 83.94 60.35 79.93 58.04"/><g class="cls-10"><polygon class="cls-11" points="88.38 42.15 65.49 68.25 56.59 63.12 79.49 37.01 88.38 42.15"/><polygon class="cls-11" points="94.55 45.71 71.66 71.82 66.49 68.83 89.38 42.73 94.55 45.71"/></g><line class="cls-12" x1="67.67" y1="2.94" x2="67.67" y2="27.04"/><line class="cls-12" x1="73.05" y1="6.04" x2="73.05" y2="30.14"/><line class="cls-12" x1="78.42" y1="9.14" x2="78.42" y2="33.25"/><line class="cls-12" x1="83.79" y1="12.25" x2="83.79" y2="36.35"/><line class="cls-12" x1="89.16" y1="15.35" x2="89.16" y2="39.45"/><rect class="cls-1" x="87.29" y="13.33" width="4.54" height="10.55"/><rect class="cls-1" x="82.17" y="24.3" width="4.54" height="4.54"/><rect class="cls-1" x="81.52" y="10.24" width="4.54" height="4.54"/><rect class="cls-1" x="65.41" y="14.02" width="4.54" height="4.54"/><rect class="cls-1" x="65.41" y="1.78" width="4.54" height="4.54"/><rect class="cls-1" x="76.54" y="7.71" width="4.54" height="12.29"/><rect class="cls-1" x="70.78" y="5.18" width="4.54" height="5.07"/><path class="cls-13" d="M91.92,39.52,94,38.3l.18.54a.47.47,0,0,1-.13.37c-.17.15-.72.75-.72.75l-.88.21Z"/><ellipse class="cls-13" cx="100.05" cy="48.87" rx="7.02" ry="12.15" transform="translate(-11.03 56.57) rotate(-30)"/><path class="cls-13" d="M104,60.64l2.3-1.33-.81-.44-1.22-.07s-.37,0-.46.14-.24.07-.31.42S104,60.64,104,60.64Z"/><ellipse class="cls-9" cx="97.87" cy="50.1" rx="7.02" ry="12.15" transform="translate(-11.94 55.65) rotate(-30)"/><text class="cls-14" transform="matrix(0.87, 0.5, 0, 1, 93.06, 51.88)">%</text></g></g></svg>