<svg xmlns="http://www.w3.org/2000/svg" viewBox="0 0 121.29 119.31"><defs><style>.cls-1{fill:#335b57;}.cls-2{fill:#99adab;}.cls-3{fill:#ccd6d5;}.cls-4{fill:#00322d;}.cls-5{fill:#fff;}.cls-6{fill:#f03826;}.cls-7,.cls-8{fill:none;}.cls-7{stroke:#fff;stroke-miterlimit:10;stroke-width:1.51px;}.cls-8{stroke:#99adab;stroke-linejoin:round;stroke-width:1.44px;}</style></defs><g id="Layer_2" data-name="Layer 2"><g id="Board_3" data-name="Board 3"><g id="Green_icon_2" data-name="Green icon 2"><circle class="cls-1" cx="61.64" cy="59.65" r="59.65"/><polygon class="cls-2" points="77.75 29.93 52.05 15.17 52.05 69.76 85.25 88.83 85.25 42.65 77.75 29.93"/><polygon class="cls-3" points="78.45 38.88 78.45 32.49 83.55 41.13 78.45 38.88"/><path class="cls-3" d="M79.15,35.05l2.69,4.56-2.69-1.19V35.05m-1.4-5.12v9.4l7.5,3.32-7.5-12.72Z"/><polygon class="cls-4" points="67.23 35.47 41.54 20.7 41.54 75.29 74.74 94.37 74.74 48.19 67.23 35.47"/><polygon class="cls-5" points="57.27 42.66 31.57 27.9 31.57 82.48 64.78 101.56 64.78 55.38 57.27 42.66"/><polygon class="cls-3" points="57.97 51.6 57.97 45.22 63.07 53.86 57.97 51.6"/><path class="cls-3" d="M58.67,47.78l2.69,4.56-2.69-1.19V47.78m-1.4-5.12v9.4l7.51,3.32L57.27,42.66Z"/><circle class="cls-6" cx="20.23" cy="79.1" r="20.23"/><line class="cls-7" x1="11.67" y1="71.24" x2="46.75" y2="71.24"/><line class="cls-7" x1="11.67" y1="75.99" x2="31.79" y2="75.99"/><line class="cls-7" x1="11.67" y1="85.49" x2="24.33" y2="85.49"/><line class="cls-7" x1="11.67" y1="80.74" x2="36.04" y2="80.74"/><polygon class="cls-3" points="67.93 44.41 67.93 38.02 73.03 46.67 67.93 44.41"/><path class="cls-3" d="M68.63,40.58l2.69,4.57L68.63,44V40.58m-1.4-5.11v9.39l7.51,3.32L67.23,35.47Z"/><line class="cls-8" x1="90.34" y1="45.05" x2="111.69" y2="45.05"/><line class="cls-8" x1="90.34" y1="51.61" x2="102.59" y2="51.61"/><line class="cls-8" x1="90.34" y1="64.73" x2="98.05" y2="64.73"/><line class="cls-8" x1="90.34" y1="58.17" x2="105.17" y2="58.17"/></g></g></g></svg>