<svg xmlns="http://www.w3.org/2000/svg" viewBox="0 0 131.59 119.31"><defs><style>.cls-1,.cls-3{fill:#334d6c;}.cls-2{fill:none;}.cls-2,.cls-3{stroke:#99a6b5;stroke-miterlimit:10;stroke-width:1.2px;}.cls-4,.cls-7{fill:#002147;}.cls-4,.cls-5{stroke:#002147;stroke-width:1.26px;}.cls-4,.cls-5,.cls-8,.cls-9{stroke-linejoin:round;}.cls-5{fill:#667a91;}.cls-6{fill:#fff;}.cls-8,.cls-9{fill:#ffb414;stroke-width:1.25px;}.cls-8{stroke:#ffb414;}.cls-9{stroke:#fff;}</style></defs><g id="Layer_2" data-name="Layer 2"><g id="Board_5" data-name="Board 5"><g id="Trophy_icon" data-name="Trophy icon"><circle class="cls-1" cx="59.65" cy="59.65" r="59.65"/><polyline class="cls-2" points="124.68 58.31 118.19 58.31 108.56 48.69 86.06 48.69"/><rect class="cls-3" x="85.02" y="47.18" width="11.78" height="2.9"/><circle class="cls-3" cx="123.84" cy="58.31" r="1.52"/><polyline class="cls-2" points="119.69 72.45 110.2 72.45 100.58 62.82 78.07 62.82"/><rect class="cls-3" x="84.94" y="61.31" width="11.78" height="2.9"/><circle class="cls-3" cx="118.85" cy="72.45" r="1.52"/><polyline class="cls-2" points="130.32 65.43 113.45 65.43 103.82 55.8 81.32 55.8"/><circle class="cls-3" cx="129.48" cy="65.43" r="1.52"/><rect class="cls-3" x="85.02" y="54.35" width="11.78" height="2.9"/><polyline class="cls-2" points="15.98 21.27 25.46 21.27 35.09 30.9 57.59 30.9"/><rect class="cls-3" x="38.94" y="29.51" width="11.78" height="2.9" transform="translate(89.67 61.92) rotate(180)"/><circle class="cls-3" cx="16.82" cy="21.27" r="1.52"/><polyline class="cls-2" points="5.35 28.29 22.22 28.29 31.85 37.92 54.35 37.92"/><circle class="cls-3" cx="6.19" cy="28.29" r="1.52"/><rect class="cls-3" x="38.87" y="36.47" width="11.78" height="2.9" transform="translate(89.52 75.84) rotate(180)"/><polyline class="cls-4" points="50.98 53.65 48.66 58.5 14.02 69.23 14.02 72.59 53.91 95.51 87.92 82.13 87.94 78.55"/><polygon class="cls-5" points="54.47 92.47 87.94 79.31 81.11 39.45 14.02 69.23 54.47 92.47"/><polygon class="cls-4" points="47.11 55.82 87.92 79.27 87.92 39.45 47.11 16 47.11 55.82"/><polygon class="cls-6" points="50.58 53.19 50.58 22.35 84.42 41.95 84.42 72.78 50.58 53.19"/><path class="cls-7" d="M51.28,23.55l32.45,18.8V71.58L51.28,52.79V23.55m-1.39-2.4V53.58L85.12,74V41.55L49.89,21.15Z"/><circle class="cls-8" cx="49.6" cy="58.85" r="15.77"/><line class="cls-9" x1="36.34" y1="50.31" x2="42.83" y2="50.31"/><line class="cls-9" x1="37.56" y1="69.26" x2="44.04" y2="69.26"/><line class="cls-9" x1="33.83" y1="55.13" x2="48.09" y2="55.13"/><line class="cls-9" x1="35.05" y1="64.67" x2="48.09" y2="64.67"/><line class="cls-9" x1="33.83" y1="60.08" x2="45.06" y2="60.08"/><line class="cls-8" x1="62.86" y1="50.31" x2="54.29" y2="50.31"/><line class="cls-8" x1="61.57" y1="69.26" x2="53.07" y2="69.26"/><line class="cls-8" x1="64.93" y1="55.13" x2="57.03" y2="55.13"/><line class="cls-8" x1="64.26" y1="64.67" x2="55.85" y2="64.67"/><line class="cls-8" x1="65.57" y1="60.08" x2="52.06" y2="60.08"/></g></g></g></svg>