<svg xmlns="http://www.w3.org/2000/svg" viewBox="0 0 129.62 174.24"><defs><style>.cls-1,.cls-2{fill:#002147;}.cls-1{stroke:#002147;stroke-width:1.26px;}.cls-1,.cls-12,.cls-7{stroke-miterlimit:10;}.cls-3{fill:#cb7c51;}.cls-12,.cls-4{fill:#f0d0b4;}.cls-5{fill:#334d6c;}.cls-6{fill:#dfb28b;}.cls-7{fill:none;stroke:#334d6c;stroke-width:0.97px;}.cls-8{fill:#d59674;}.cls-9{fill:#ecc19c;}.cls-10{fill:#5c7189;}.cls-11{fill:#8e9dad;}.cls-12{stroke:#d59674;stroke-width:0.5px;}</style></defs><g id="Layer_2" data-name="Layer 2"><g id="illustrations"><path class="cls-1" d="M80.16,127.83H43.85A212.64,212.64,0,0,0,41,89.52C39.3,79.26,38.16,66.75,36.8,62.41c10.32-3.16,15.44-5,25.77-8.17H77.21"/><path class="cls-1" d="M96.73,127.83c1,4.9,2.17,20,2.59,23.08-17.81,3.58-52.92,1.74-57.54,0,.42-3.06,1.15-18.18,2.18-23.08Z"/><path class="cls-1" d="M70.18,127.8H96.69a211.57,211.57,0,0,1,2.89-38.31,247.21,247.21,0,0,1,5.62-26.33C94.88,60,88.29,57.36,78,54.21H63.32"/><path class="cls-2" d="M101.28,155.75l-61.8-1c.07-2.56.25-5.34.6-8.3.26-2.15.58-4.19.94-6.1a108,108,0,0,0,58.68,0C100.59,145.47,101,146.34,101.28,155.75Z"/><path class="cls-3" d="M101.28,148.55a128.92,128.92,0,0,1-32.06,4,131.88,131.88,0,0,1-29.74-3.68c.06-2.09.44-4.3.5-6.11a100.77,100.77,0,0,0,30.18,4.72,98.31,98.31,0,0,0,30.63-4.72C100.92,145.13,101.28,148.55,101.28,148.55Z"/><polygon class="cls-2" points="59.37 153.84 56.69 153.46 58.01 143.9 60.68 144.28 59.37 153.84"/><polygon class="cls-2" points="97.4 142.38 94.72 142.76 96.04 152.32 98.71 151.94 97.4 142.38"/><polygon class="cls-2" points="81.88 143.9 79.2 144.28 80.52 153.84 83.19 153.46 81.88 143.9"/><polygon class="cls-2" points="43.85 152.32 41.17 151.94 42.49 142.38 45.16 142.76 43.85 152.32"/><path class="cls-4" d="M78.27,53.53c-.08,0-6.33,9.1-6.33,9.1L69.1,70.76l-2.41-8.13c-2.66-2.49-6.57-9-6.77-9.1L60,40.92H78.17Z"/><polygon class="cls-5" points="59.55 69.94 54.05 54.57 59.13 51.63 66.69 62.63 59.55 69.94"/><polygon class="cls-5" points="79.05 69.94 84.01 54.23 78.93 51.29 71.91 62.63 79.05 69.94"/><polygon class="cls-1" points="109.59 115.39 124.62 111.52 112.14 70.86 92.17 76 109.59 115.39"/><circle class="cls-1" cx="101.9" cy="72.53" r="10.28" transform="translate(14.72 162.22) rotate(-81.26)"/><circle class="cls-4" cx="119.46" cy="121.22" r="7.71"/><circle class="cls-4" cx="20.59" cy="121.22" r="7.71"/><path class="cls-5" d="M112.28,123.84l16-4.79-1.71-8-18.46,5,1.34,6.18A2.25,2.25,0,0,0,112.28,123.84Z"/><path class="cls-6" d="M78.05,27H60.17L60,48.22c2.63,2,5.85,4.11,9.25,4.13h.06c3.29,0,6.38-2.11,9-4Z"/><circle class="cls-1" cx="38.58" cy="72.51" r="10.28"/><polyline class="cls-7" points="69.41 147.35 69.24 70.76 72.28 62.47"/><circle class="cls-5" cx="73.3" cy="66.95" r="1.03"/><circle class="cls-5" cx="71.91" cy="80.13" r="1.03"/><circle class="cls-5" cx="71.91" cy="93.31" r="1.03"/><circle class="cls-5" cx="71.91" cy="107.97" r="1.03"/><circle class="cls-5" cx="71.91" cy="122.63" r="1.03"/><circle class="cls-5" cx="71.91" cy="137.29" r="1.03"/><ellipse class="cls-4" cx="54.17" cy="27.46" rx="2.32" ry="4.24" transform="translate(-1.15 2.39) rotate(-2.5)"/><ellipse class="cls-4" cx="84.97" cy="30.67" rx="4.24" ry="2.32" transform="translate(31.79 103.69) rotate(-73.78)"/><path class="cls-4" d="M71.88,9.11l.71-6.84s-.77,6.83-.8,6.83l-.1,0h0C63.3,8.31,56,12.44,54.74,24.49c-.42,4-.27,11.29-.22,14.67,0,3,4.92,9.5,13,10.36h0c8.11.82,14.24-4.22,14.72-7.17.55-3.35,2.56-10.68,3-14.68C87,11.72,80.25,10.07,71.88,9.11Z"/><polygon class="cls-8" points="63.88 40.42 73.27 41.4 69.5 39.8 68.59 40.06 67.83 39.62 63.88 40.42"/><polygon class="cls-8" points="66.09 41.92 70.74 42.41 68.33 43.26 66.09 41.92"/><circle class="cls-2" cx="62.09" cy="25.07" r="0.79"/><path class="cls-2" d="M59.84,25.24a2.62,2.62,0,0,1,1.1-1.39,3.3,3.3,0,0,1,1.7-.52,3.07,3.07,0,0,1,1.76.51,2.31,2.31,0,0,1,1,1.51l-.08.09a4.35,4.35,0,0,0-1.27-.69,3.74,3.74,0,0,0-1.41-.2,5.59,5.59,0,0,0-2.75.8Z"/><circle class="cls-2" cx="76.26" cy="26.55" r="0.79"/><path class="cls-2" d="M74.2,26.23a2.56,2.56,0,0,1,1.38-1.07,3.49,3.49,0,0,1,1.7-.11,5.62,5.62,0,0,1,.82.27,3.68,3.68,0,0,1,.73.51,2.38,2.38,0,0,1,.81,1.56l-.08.09a4.87,4.87,0,0,0-2.51-1.23,5.94,5.94,0,0,0-2.81.09Z"/><path class="cls-9" d="M71.92,35.72l-2.77-.3.85-8,.8-.44,0,6.66c0,.53.53.8,1,1.2Z"/><polygon class="cls-6" points="69.07 36.12 69.15 35.42 71.93 35.72 69.07 36.12"/><polygon class="cls-9" points="69.09 36.13 69.17 35.43 66.39 35.14 69.09 36.13"/><path class="cls-9" d="M72.87,24.9A5.84,5.84,0,0,0,70,27.4l-.21,2s.31.53.81-1.05A8.14,8.14,0,0,1,72.87,24.9Z"/><path class="cls-2" d="M80.2,22.07l-.75-.42-6.36-1.07v1a1.71,1.71,0,0,0,1.54,1.69l4.56.46,2,.72h0A2.13,2.13,0,0,0,80.2,22.07Z"/><path class="cls-2" d="M60.2,20l.83-.26,6.44.2-.21,1a1.72,1.72,0,0,1-1.84,1.35l-4.56-.45-2.15.3h0A2.12,2.12,0,0,1,60.2,20Z"/><path class="cls-2" d="M71.79,37.24,66,36.63a4.14,4.14,0,0,0-4.52,3.72l-.74,7.06a18.11,18.11,0,0,0,6.82,2.11h0a17.17,17.17,0,0,0,7.12-.7l.73-7A4.14,4.14,0,0,0,71.79,37.24ZM73,45.44,70,46l.18-1.76-3.86-.41-.18,1.76-2.79-1.17-.24-4a8.07,8.07,0,0,1,2.82-1l5.54.58a7.86,7.86,0,0,1,2.56,1.52Z"/><path class="cls-2" d="M73.55,43.66l1.07-4.48c1.56,2.75,8.57,0,9.58-4.75-.41,1.78-1.65,7.26-1.92,8.45-.53,2.24-4.63,5.82-10.53,6.61Z"/><path class="cls-2" d="M63.05,42.61,63,37.55c-2.09,2.37-8.6-1.38-8.61-6.18,0,1.82.14,6.75.16,8,0,2.3,3.11,7.44,9.1,9.33Z"/><path class="cls-6" d="M72.6,13.71s-2.47.85-7.39-.34c-2.79-.67-6.56-.35-7.29,2.71A7.42,7.42,0,0,1,58,12.49c.51-2.33,5.16-2.33,6.59-1.53A78.49,78.49,0,0,0,72.6,13.71Z"/><path class="cls-2" d="M89.94,12.24C89.55,11,87.62,9.38,87.31,8.6,88,8.69,89,9.85,89,9.85a8.33,8.33,0,0,0-3-3.32c-1.33-.75-4.7-5.46-13.3-6.36a15,15,0,0,0-7.18,1.54C65.69.56,67.6.05,67.6.05a3.51,3.51,0,0,0-3.73,1.89c-4.21-.23-5,1.53-6.1,2.53s-2.86,1.09-4.46,4c1.13-.84,1.6-.63,1.6-.63s-2.3,7.05-1.34,9.16-.35,5.51,2.74,10.83c.39-5.39,1.65-5.89,2.12-7s-1.59-4.65.29-7.51c1.38-2.11,3.79-1.93,7.89-.54a28.4,28.4,0,0,0,4.49.89h0l.18,0,.18,0h0a27.83,27.83,0,0,0,4.58,0c4.3-.52,6.7-.19,7.62,2.16,1.24,3.18-1.5,6.2-1.28,7.41s1.36,2,.63,7.31c4.13-4.57,3.54-8.15,4.92-10s.57-9.24.57-9.24S89,11.18,89.94,12.24Z"/><path class="cls-6" d="M64.1,17.8a25.84,25.84,0,0,1,6-.22,21.35,21.35,0,0,1,5.86,1.19c-2-.24-3.93-.45-5.9-.58Z"/><path class="cls-6" d="M66.59,16.25A12.4,12.4,0,0,1,70.23,16a10.36,10.36,0,0,1,3.55.84c-1.22-.05-2.4-.15-3.59-.23S67.81,16.44,66.59,16.25Z"/><path class="cls-10" d="M56.65,6.2a9.8,9.8,0,0,0,1.54-.37,1.57,1.57,0,0,0,1-1,2.68,2.68,0,0,1,2-1.84l-.45,1.59a4.53,4.53,0,0,1,2-1.16L61.49,5A5.73,5.73,0,0,1,68,4.34a6.77,6.77,0,0,0-4.49,1,5.22,5.22,0,0,1,5.14,1.15,6.09,6.09,0,0,0-5.09.14,7,7,0,0,1,6.3,2.2S66,6.88,63.29,8c0,0,5,.18,6.51,3.88,0,0-3.4-2.92-6.77-1.9,0,0,6.47,3.69,12.5,3.79,0,0-7.07.87-12.83-1.75a2.58,2.58,0,0,0-2.6.22c-1.11.82-2.22,2.72-1.72,7.13,0,0-2.71-3.73.64-8.57a.5.5,0,0,0-.59-.74,2.58,2.58,0,0,0-1,.73l.89-1.62a.57.57,0,0,0-.78-.77,2.61,2.61,0,0,0-.75.64S58.65,6.81,56.65,6.2Z"/><path class="cls-10" d="M78.69,13.47s5.65-.76,5.25,4.81C83.94,18.28,86.36,11.59,78.69,13.47Z"/><path class="cls-10" d="M83.94,18.28s-.8,1.82-1.33,3.18a3.48,3.48,0,0,0,0,3.52c.76,1.69.37,5.58.37,5.58s1.91-3.81,1.33-6.35a3.27,3.27,0,0,1,.86,2.1,4.83,4.83,0,0,0-.82-3.26s1.22.23,1.4,2a6.34,6.34,0,0,0-.47-2.58A18.21,18.21,0,0,1,84,18.74Z"/><path class="cls-10" d="M57.37,15.12s.65,2.18,1,3.61.67,1.6-.76,3.6C56.48,23.84,56.31,28,56.31,28S55,23.71,56,21.29a3.3,3.3,0,0,0-1,1.84,3.9,3.9,0,0,1,1.11-3s-1,0-1.49,1.7a4.59,4.59,0,0,1,.67-2.4A17.91,17.91,0,0,0,57,16.5a5.44,5.44,0,0,0,.34-1.08Z"/><rect class="cls-11" y="128.37" width="129.62" height="45.87"/><polygon class="cls-1" points="30.75 115.04 15.73 111.17 28.21 70.5 48.17 75.64 30.75 115.04"/><path class="cls-5" d="M28.07,123.49l-16-4.8,1.7-8,18.47,5-1.34,6.17A2.25,2.25,0,0,1,28.07,123.49Z"/><polygon class="cls-4" points="50.7 130.72 51.32 121.48 31.03 116.77 16.11 119.92 18.75 127.67 50.7 130.72"/><path class="cls-4" d="M122.75,120.61s-4-4.63-13.5-3.48"/><path class="cls-4" d="M17.54,120.24s4-4.63,13.5-3.47"/><path class="cls-4" d="M70.78,125.36s0-1.34,0-3.24a20.37,20.37,0,0,0-.67-5.31,6.13,6.13,0,0,1,.14-4.66,1.14,1.14,0,0,1,1.38-.66c.8.15.83.77,1,1.43a8,8,0,0,0,1.69,4.18,55.69,55.69,0,0,0,3.18,5c1.08,1.32,2.11,2.45,2.86,2.52"/><path class="cls-4" d="M67.35,125.36s0-1.34,0-3.24a20.37,20.37,0,0,1,.67-5.31,6.13,6.13,0,0,0-.14-4.66,1.14,1.14,0,0,0-1.38-.66c-.79.15-.83.77-1,1.43a8.05,8.05,0,0,1-1.68,4.18c-.44.57-1.79,3.24-3.19,5-1.08,1.32-2.1,2.45-2.86,2.52"/><path class="cls-12" d="M75.21,119.35s-3.63-3.11-6.78-3.15a41.83,41.83,0,0,0-4.83.37c-.81.17-3.11.77-3.41.9a1,1,0,0,0-.75,1.17,1.13,1.13,0,0,0,1.35.84c.55-.06,3.52-.61,3.52-.61l4.47-.16,5.3,3.12"/><path class="cls-4" d="M109.32,117.12,87.8,121.73a15.69,15.69,0,0,1-4,.33c-1.48-.07-3.35-.19-4.25-.34-1.14-.2-3.2-2.6-4.3-4-.45-.56-4.33-1.58-4.33-1.58l.31,16c1.86-.07,10.48-1.48,10.48-1.48l1.81.2a24.22,24.22,0,0,0,4.74,0L121.6,128l2.64-7.74Z"/><path class="cls-12" d="M63.66,118.5s5.37-2.65,6.28-2.65,4.2-.09,5,0,3.43.38,3.74.48a1,1,0,0,1,.85,1.09,1.12,1.12,0,0,1-1.26,1c-.55,0-3.57-.27-3.57-.27l-4.9.27-6.16,2.79"/><path class="cls-4" d="M62.69,118.34c-3.15,1.6-3.85,2.46-6,3.14a13.26,13.26,0,0,1-5.41,0l-.62,9.24s4.8.25,5.89.32a77.16,77.16,0,0,0,11.78,1.5"/><path class="cls-4" d="M74.51,119.15s-5.58-1.34-6.48-1.41a40.36,40.36,0,0,0-5.1.93,33.19,33.19,0,0,0-4,1.37,1,1,0,0,0-.55,1.44,1.18,1.18,0,0,0,1.48.61s2.7-.85,3.66-1,4.66-.51,4.66-.51l6.2,1.56"/><path class="cls-8" d="M74.51,119.16c-1.47-.24-2.93-.52-4.39-.8A21.52,21.52,0,0,0,68,118a15.13,15.13,0,0,0-2.14.31,36.31,36.31,0,0,0-4.29,1.06c-.7.23-1.4.46-2.08.74a2,2,0,0,0-.82.48.75.75,0,0,0,0,.77h0v0a.86.86,0,0,0,.76.49,4.44,4.44,0,0,0,1.15-.28c.82-.25,1.64-.49,2.49-.69s1.71-.21,2.56-.32l2.55-.28h.1l6.19,1.6-.12.49-6.21-1.52h.1l-2.54.28c-.83.1-1.71.15-2.51.3s-1.63.42-2.44.66l-.61.19a2.11,2.11,0,0,1-.73.11,1.4,1.4,0,0,1-1.25-.84v0a1.31,1.31,0,0,1,.07-1.35,2.42,2.42,0,0,1,1.06-.66c.7-.28,1.41-.52,2.12-.75a36.71,36.71,0,0,1,4.35-1,14.83,14.83,0,0,1,2.26-.31c.8.1,1.49.29,2.22.45,1.45.35,2.88.75,4.3,1.2Z"/><path class="cls-12" d="M63.17,121.2s5.17-1.23,6.3-1.37a50,50,0,0,1,6.31-.06,27.87,27.87,0,0,1,3.73,2c.21.17.72.75.48,1.27s-.75.75-1.81.58-3-.76-3-.76l-6,.43-5.14,1.29"/><path class="cls-12" d="M74,122.9s-5.88.36-6.64.53l-5.1,1.1a15.89,15.89,0,0,0-3.63.75,1.35,1.35,0,0,0-.62,1.23,1.24,1.24,0,0,0,1.13,1.1,20.78,20.78,0,0,0,3.6-.24s3.63-.38,4.8-.55,6.54-.75,6.54-.75"/><path class="cls-12" d="M64,127.23l7.39-1c.54-.08,4.5-.43,4.5-.43a20,20,0,0,1,3.39-.38,1.29,1.29,0,0,1,.93,1.1,1.22,1.22,0,0,1-.83,1.27c-.65.2-2.87.85-3.18.92a27.29,27.29,0,0,1-4.39.86c-1.2,0-7.6,1-7.6,1"/><path class="cls-12" d="M66.16,130.3l6.1,1.55s1.85-.34,3.26-.44a1.53,1.53,0,0,1,1.71.89s.17.69-.69.72-3.35.82-4.18.79-7.81-1.62-7.81-1.62"/><path class="cls-12" d="M75.25,129l-1.61.29c-.69.13-4.67.59-4.67.59s-3.65,0-5.78.11c-2.4.18-2.39,1.34-2.39,1.34s-.24,1.13,2.39,1,4.1.24,4.83.2,6.54-1.08,7.16-1.1"/></g></g></svg>