<svg xmlns="http://www.w3.org/2000/svg" viewBox="0 0 1936.41 1485.38"><defs><style>.cls-1{fill:#cea891;}.cls-2{fill:#b67f58;}.cls-3{fill:#5c7773;}.cls-4{fill:#0e0e0e;}.cls-24,.cls-5,.cls-72{fill:#667a91;}.cls-6{fill:#ccd2da;}.cls-23,.cls-28,.cls-47,.cls-7,.cls-71{fill:#002147;}.cls-35,.cls-8{fill:#f03826;}.cls-25,.cls-26,.cls-31,.cls-43,.cls-73,.cls-74,.cls-9{fill:#ffb414;}.cls-10{fill:#335b57;}.cls-11{stroke:#7a7a7a;stroke-width:4.11px;}.cls-11,.cls-18,.cls-21,.cls-22,.cls-40,.cls-41,.cls-51,.cls-52,.cls-55,.cls-68,.cls-69,.cls-70,.cls-78,.cls-79{stroke-miterlimit:10;}.cls-12,.cls-17,.cls-29,.cls-30,.cls-32,.cls-34,.cls-63{fill:#fff;}.cls-12{opacity:0.15;}.cls-13{opacity:0.4;}.cls-14{fill:#99adab;}.cls-15{fill:#ccd6d5;}.cls-16{fill:#00322d;}.cls-18,.cls-19,.cls-21,.cls-27,.cls-36,.cls-40,.cls-51,.cls-52,.cls-55,.cls-57,.cls-64,.cls-68,.cls-69,.cls-78,.cls-79{fill:none;}.cls-18,.cls-26,.cls-36,.cls-74{stroke:#fff;}.cls-18{stroke-width:1.37px;}.cls-19,.cls-64{stroke:#99adab;}.cls-19,.cls-23,.cls-24,.cls-25,.cls-26,.cls-27,.cls-28,.cls-29,.cls-30,.cls-31,.cls-32,.cls-34,.cls-35,.cls-36,.cls-38,.cls-39,.cls-43,.cls-47,.cls-57,.cls-64,.cls-71,.cls-72,.cls-73,.cls-74{stroke-linejoin:round;}.cls-19{stroke-width:1.31px;}.cls-20,.cls-22,.cls-70{fill:#334d6c;}.cls-21,.cls-22,.cls-27,.cls-69,.cls-70{stroke:#99a6b5;}.cls-21,.cls-22{stroke-width:1.09px;}.cls-23,.cls-24,.cls-28,.cls-29,.cls-30,.cls-32,.cls-47,.cls-57,.cls-71,.cls-72{stroke:#002147;}.cls-23,.cls-24{stroke-width:1.15px;}.cls-25,.cls-31,.cls-43,.cls-68,.cls-73{stroke:#ffb414;}.cls-25,.cls-26{stroke-width:1.13px;}.cls-27{stroke-width:1.46px;}.cls-28{stroke-width:1.4px;}.cls-29{stroke-width:1.13px;}.cls-30,.cls-57{stroke-width:1.28px;}.cls-31{stroke-width:1.23px;}.cls-32{stroke-width:1.13px;}.cls-33{fill:#668481;}.cls-34{stroke:#00322d;stroke-width:1.26px;}.cls-35{stroke:#f03826;stroke-width:1.42px;}.cls-36{stroke-width:1.56px;}.cls-37{fill:#57335b;}.cls-38,.cls-65{fill:#ab99ad;}.cls-38{stroke:#ab99ad;}.cls-38,.cls-39{stroke-width:1.4px;}.cls-39,.cls-42{fill:#816684;}.cls-39{stroke:#816684;}.cls-40{stroke:#d5ccd6;stroke-width:1.16px;}.cls-41,.cls-54{fill:#2d0032;}.cls-41{stroke:#2d0032;stroke-width:1.26px;}.cls-43{stroke-width:1.07px;}.cls-44{isolation:isolate;}.cls-45{fill:#586d85;}.cls-46{fill:#012147;}.cls-47,.cls-55,.cls-57{stroke-linecap:round;}.cls-47{stroke-width:0.45px;}.cls-48{fill:#ffa200;}.cls-49{fill:#ffd272;}.cls-50{fill:#ffb100;}.cls-51{stroke:#ffa200;stroke-width:2.09px;}.cls-52,.cls-55{stroke:#ffb100;stroke-width:2.55px;}.cls-53{fill:#735a77;}.cls-56{fill:#99a6b5;}.cls-58{fill:#f4887d;}.cls-59{fill:#fffffc;}.cls-60{fill:#254741;}.cls-61{fill:#39605a;}.cls-62{fill:#ec3826;}.cls-63{font-size:20.25px;font-family:OpenSans-Bold, Open Sans;font-weight:700;}.cls-64{stroke-width:1.3px;}.cls-66{fill:#765c7a;}.cls-67{fill:#556b84;}.cls-68{stroke-width:1.59px;}.cls-69,.cls-70{stroke-width:1.2px;}.cls-71,.cls-72{stroke-width:1.26px;}.cls-73,.cls-74{stroke-width:1.25px;}.cls-75{fill:#bc937d;}.cls-76{fill:#dbb8a5;}.cls-77{fill:#e5c4b5;}.cls-78{stroke:#bc937d;stroke-width:1.46px;}.cls-79{stroke:#334d6c;stroke-width:12px;}</style></defs><g id="Layer_2" data-name="Layer 2"><g id="Board_1" data-name="Board 1"><g id="Layer_48" data-name="Layer 48"><path class="cls-1" d="M850.58,554.58c45.83,64.78,103.06,162.48,100.66,243.83,0,0-104.52,112.46-156.12,120.4S685.31,920.13,646.94,895s-90-96.58-88.65-136.27c.89-26.5,106.11-140.23,176-212.94A75.64,75.64,0,0,1,850.58,554.58Z"/><path class="cls-2" d="M725.08,566.67l-56.4,34.08s-19.18,76.7-19.18,131.31a97,97,0,0,0,6.59,34.3c1.26,14.66.42,31.17-6.59,43.44a48.19,48.19,0,0,0,21.3-15.52c14.48,24.79,61.7,23.46,61.7,23.46,96.44-2.33,120.22-34,131.36-63.52Z"/><path class="cls-3" d="M1878.29,797.86,769.86,799.45a58.19,58.19,0,0,1-58.28-58.11l-1-681.47A58.19,58.19,0,0,1,768.72,1.59L1877.15,0a58.2,58.2,0,0,1,58.28,58.12l1,681.46A58.2,58.2,0,0,1,1878.29,797.86Z"/><path class="cls-4" d="M1868.1,802.23,760.76,803.82a58.21,58.21,0,0,1-58.29-58.12l-1-677A58.21,58.21,0,0,1,759.62,10.4L1867,8.81a58.2,58.2,0,0,1,58.28,58.12l1,677A58.2,58.2,0,0,1,1868.1,802.23Z"/><rect class="cls-5" x="823.02" y="53.28" width="1022.03" height="706.01" transform="translate(-0.58 1.91) rotate(-0.08)"/><polygon class="cls-6" points="1650.69 727.7 853.07 728.84 852.96 115.02 1650.58 115.19 1650.69 727.7"/><polygon class="cls-7" points="1813.92 115.08 853.11 115.02 853.11 84.65 1813.88 83.27 1813.92 115.08"/><path class="cls-8" d="M883,99.41a6,6,0,1,1-6-6A6,6,0,0,1,883,99.41Z"/><path class="cls-9" d="M905.59,99.38a6,6,0,1,1-6-6A6,6,0,0,1,905.59,99.38Z"/><path class="cls-10" d="M926.39,99.35a6,6,0,1,1-6-6A6,6,0,0,1,926.39,99.35Z"/><rect class="cls-11" x="735" y="379.62" width="54.99" height="54.97" rx="25.91" transform="translate(-0.58 1.09) rotate(-0.08)"/><rect class="cls-10" x="1650.98" y="115.08" width="162.9" height="612.51"/><polygon class="cls-12" points="1846.02 749.56 849.55 54.02 1845.01 52.55 1846.02 749.56"/><g class="cls-13"><circle class="cls-10" cx="1169.4" cy="429.29" r="54.23"/><polygon class="cls-14" points="1184.05 402.27 1160.69 388.85 1160.69 438.47 1190.87 455.81 1190.87 413.83 1184.05 402.27"/><polygon class="cls-15" points="1184.68 410.4 1184.68 404.59 1189.32 412.45 1184.68 410.4"/><path class="cls-15" d="M1185.32,406.92l2.45,4.15-2.45-1.09v-3.06m-1.27-4.65v8.54l6.82,3-6.82-11.56Z"/><polygon class="cls-16" points="1174.49 407.3 1151.13 393.88 1151.13 443.5 1181.31 460.84 1181.31 418.86 1174.49 407.3"/><polygon class="cls-17" points="1165.43 413.84 1142.07 400.42 1142.07 450.04 1172.25 467.38 1172.25 425.4 1165.43 413.84"/><polygon class="cls-15" points="1166.07 421.97 1166.07 416.17 1170.7 424.02 1166.07 421.97"/><path class="cls-15" d="M1166.7,418.49l2.45,4.15-2.45-1.08v-3.07m-1.27-4.65v8.54l6.82,3-6.82-11.56Z"/><circle class="cls-8" cx="1131.76" cy="446.96" r="18.39"/><line class="cls-18" x1="1123.97" y1="439.82" x2="1155.86" y2="439.82"/><line class="cls-18" x1="1123.97" y1="444.14" x2="1142.27" y2="444.14"/><line class="cls-18" x1="1123.97" y1="452.78" x2="1135.49" y2="452.78"/><line class="cls-18" x1="1123.97" y1="448.46" x2="1146.13" y2="448.46"/><polygon class="cls-15" points="1175.12 415.43 1175.12 409.62 1179.76 417.48 1175.12 415.43"/><path class="cls-15" d="M1175.76,412l2.45,4.15-2.45-1.08V412m-1.27-4.65v8.54l6.82,3-6.82-11.56Z"/><line class="cls-19" x1="1195.49" y1="416.01" x2="1214.9" y2="416.01"/><line class="cls-19" x1="1195.49" y1="421.97" x2="1206.63" y2="421.97"/><line class="cls-19" x1="1195.49" y1="433.9" x2="1202.5" y2="433.9"/><line class="cls-19" x1="1195.49" y1="427.94" x2="1208.98" y2="427.94"/><circle class="cls-20" cx="988.98" cy="238.03" r="54.23"/><polyline class="cls-21" points="1048.1 236.82 1042.2 236.82 1033.45 228.07 1012.99 228.07"/><rect class="cls-22" x="1012.04" y="226.69" width="10.71" height="2.63"/><circle class="cls-22" cx="1047.33" cy="236.82" r="1.38"/><polyline class="cls-21" points="1043.57 249.67 1034.94 249.67 1026.19 240.92 1005.73 240.92"/><rect class="cls-22" x="1011.97" y="239.54" width="10.71" height="2.63"/><circle class="cls-22" cx="1042.8" cy="249.67" r="1.38"/><polyline class="cls-21" points="1053.23 243.28 1037.89 243.28 1029.14 234.53 1008.68 234.53"/><circle class="cls-22" cx="1052.46" cy="243.29" r="1.38"/><rect class="cls-22" x="1012.04" y="233.22" width="10.71" height="2.63"/><polyline class="cls-21" points="949.28 203.14 957.9 203.14 966.66 211.89 987.11 211.89"/><rect class="cls-22" x="970.16" y="210.64" width="10.71" height="2.63" transform="translate(1951.03 423.9) rotate(180)"/><circle class="cls-22" cx="950.04" cy="203.14" r="1.38"/><polyline class="cls-21" points="939.61 209.52 954.96 209.52 963.71 218.28 984.16 218.28"/><circle class="cls-22" cx="940.38" cy="209.52" r="1.38"/><rect class="cls-22" x="970.09" y="216.96" width="10.71" height="2.63" transform="translate(1950.89 436.55) rotate(180)"/><polyline class="cls-23" points="981.1 232.58 978.99 236.99 947.5 246.74 947.5 249.8 983.76 270.63 1014.68 258.46 1014.7 255.21"/><polygon class="cls-24" points="984.28 267.87 1014.7 255.9 1008.49 219.67 947.5 246.74 984.28 267.87"/><polygon class="cls-23" points="977.58 234.55 1014.68 255.87 1014.68 219.67 977.58 198.35 977.58 234.55"/><polygon class="cls-17" points="980.74 232.15 980.74 204.13 1011.5 221.94 1011.5 249.97 980.74 232.15"/><path class="cls-7" d="M981.37,205.22l29.5,17.08v26.58l-29.5-17.09V205.22M980.11,203v29.49l32,18.54V221.58l-32-18.55Z"/><circle class="cls-25" cx="979.85" cy="237.3" r="14.34"/><line class="cls-26" x1="967.79" y1="229.54" x2="973.69" y2="229.54"/><line class="cls-26" x1="968.9" y1="246.77" x2="974.79" y2="246.77"/><line class="cls-26" x1="965.51" y1="233.93" x2="978.48" y2="233.93"/><line class="cls-26" x1="966.62" y1="242.59" x2="978.48" y2="242.59"/><line class="cls-26" x1="965.51" y1="238.42" x2="975.71" y2="238.42"/><line class="cls-25" x1="991.9" y1="229.54" x2="984.11" y2="229.54"/><line class="cls-25" x1="990.73" y1="246.77" x2="983" y2="246.77"/><line class="cls-25" x1="993.78" y1="233.93" x2="986.6" y2="233.93"/><line class="cls-25" x1="993.17" y1="242.59" x2="985.52" y2="242.59"/><line class="cls-25" x1="994.37" y1="238.42" x2="982.08" y2="238.42"/><circle class="cls-20" cx="1168.87" cy="238.03" r="54.23"/><circle class="cls-27" cx="1137.33" cy="221.56" r="17.88"/><line class="cls-27" x1="1144.9" y1="214.62" x2="1113.9" y2="214.62"/><line class="cls-27" x1="1144.9" y1="218.82" x2="1127.11" y2="218.82"/><line class="cls-27" x1="1144.9" y1="227.22" x2="1133.71" y2="227.22"/><line class="cls-27" x1="1144.9" y1="223.02" x2="1123.36" y2="223.02"/><path class="cls-28" d="M1192.73,272.48c-24.58,0-41.31-11.64-48-22V239.13c0-7,6.33-11.43,12.43-7.95l27.35,13a16.37,16.37,0,0,1,8.25,14.22Z"/><path class="cls-29" d="M1158.22,230.77,1150.91,244c4.68,8.84,17.24,12.16,25.85,11.6,2.67-3.4,7.72-11.34,7.72-11.34Z"/><path class="cls-30" d="M1160.25,242.32c.53-1.41,1-6.29,1.12-8.25a18.12,18.12,0,0,0-1-7.35H1173V244.5"/><path class="cls-31" d="M1155.56,218.12s.9,25.92-8.66,29.39c0,0,15.87-5.21,17.31-22.2Z"/><path class="cls-30" d="M1179.33,217.47c-.83,10-8.84,18.23-16.78,18.23s-12-8.16-12-18.23,6.44-18.22,14.38-18.22S1180.48,203.65,1179.33,217.47Z"/><path class="cls-31" d="M1166.5,198.85h0c-6.85-.5-15.58,4.08-16.55,12.26a38,38,0,0,0,19.33,7.95s11.81,26.61-6.6,39.62c0,0,17.41-6.19,21.81-21C1187,229.17,1189.92,198.85,1166.5,198.85Z"/><line class="cls-32" x1="1179.79" y1="263.62" x2="1179.79" y2="270.44"/><line class="cls-29" x1="1146.17" y1="252.56" x2="1148.34" y2="248.66"/><circle class="cls-10" cx="988.98" cy="429.29" r="54.23"/><path class="cls-33" d="M1000.29,404.57l-19-10.76a3.93,3.93,0,0,0-3.52-.2,1.82,1.82,0,0,0-.31.16h0l-.12.07-.11.07-3.34,2,.19,5.86,1.28-1.47v45.62a10.29,10.29,0,0,0,5.21,8.95l17.69,10,.88,2.3,3.31-1.9a2.1,2.1,0,0,0,.26-.13h0a4,4,0,0,0,2-3.45V412A8.58,8.58,0,0,0,1000.29,404.57Z"/><path class="cls-16" d="M995.45,467l-18.18-10.27a10.29,10.29,0,0,1-5.22-9V399.14a4,4,0,0,1,5.94-3.47l19.06,10.77a8.59,8.59,0,0,1,4.35,7.46v49.64A4,4,0,0,1,995.45,467Z"/><polygon class="cls-34" points="995.76 456.41 975.97 444.95 975.97 401.51 995.76 412.98 995.76 456.41"/><polygon class="cls-35" points="964.92 402.07 926.19 402.07 926.19 428.14 950.27 428.14 958.76 436.64 958.76 428.14 964.92 428.14 964.92 402.07"/><line class="cls-36" x1="932.02" y1="408.68" x2="944.73" y2="408.68"/><line class="cls-36" x1="932.02" y1="413.02" x2="953.96" y2="413.02"/><line class="cls-36" x1="932.02" y1="421.71" x2="945.83" y2="421.71"/><line class="cls-36" x1="932.02" y1="417.37" x2="958.58" y2="417.37"/><path class="cls-19" d="M1018.44,411.14a17.63,17.63,0,0,0-14.63-20.2"/><path class="cls-19" d="M1013.66,410.38a12.8,12.8,0,0,0-10.61-14.67"/><path class="cls-19" d="M1009.16,409.66a8.24,8.24,0,0,0-6.84-9.44"/><circle class="cls-37" cx="1169.4" cy="605.72" r="54.23"/><polygon class="cls-38" points="1195.03 591.99 1154.42 568.66 1154.42 600.67 1195.03 624.01 1195.03 591.99"/><polygon class="cls-39" points="1185.18 598.59 1144.58 575.26 1144.58 607.27 1185.18 630.6 1185.18 598.59"/><line class="cls-40" x1="1131.21" y1="608.85" x2="1113.31" y2="608.85"/><line class="cls-40" x1="1131.21" y1="604.79" x2="1120.94" y2="604.79"/><line class="cls-40" x1="1131.21" y1="596.68" x2="1124.75" y2="596.68"/><line class="cls-40" x1="1131.21" y1="600.74" x2="1118.78" y2="600.74"/><polygon class="cls-41" points="1176.92 607.16 1136.31 583.83 1136.31 615.85 1176.92 639.18 1176.92 607.16"/><path class="cls-17" d="M1168.37,607.81a6.1,6.1,0,0,1,.11-1.13l-22.76-13.22a6.7,6.7,0,0,1-5.53,3.47v10.73a6.67,6.67,0,0,1,3.07,5.63,6.78,6.78,0,0,1-.35,2.12l24.25,14.1a6.27,6.27,0,0,1,5.38-3h.2V613.8A6.3,6.3,0,0,1,1168.37,607.81Z"/><path class="cls-42" d="M1162.43,611.59c.81,6.12-1.69,10.87-5.57,10.59s-7.68-5.4-8.48-11.4,1.69-10.7,5.57-10.53S1161.63,605.48,1162.43,611.59Z"/><path class="cls-43" d="M1205.07,604.31a1.32,1.32,0,0,1-.42.9c-1,1-3.68,1.78-6.84,1.78-4,0-7.25-1.2-7.25-2.68s3.25-2.68,7.25-2.68S1205.07,602.83,1205.07,604.31Z"/><path class="cls-43" d="M1205.07,608.61a1.3,1.3,0,0,1-.42.89c-1,1-3.68,1.78-6.84,1.78-4,0-7.25-1.19-7.25-2.67s3.25-2.68,7.25-2.68S1205.07,607.13,1205.07,608.61Z"/><path class="cls-43" d="M1205.07,612.91a1.3,1.3,0,0,1-.42.89c-1,1-3.68,1.78-6.84,1.78-4,0-7.25-1.19-7.25-2.67s3.25-2.68,7.25-2.68S1205.07,611.43,1205.07,612.91Z"/><path class="cls-43" d="M1205.07,617.21a1.3,1.3,0,0,1-.42.89c-1,1-3.68,1.78-6.84,1.78-4,0-7.25-1.2-7.25-2.67s3.25-2.68,7.25-2.68S1205.07,615.73,1205.07,617.21Z"/><path class="cls-43" d="M1205.07,621.5a1.3,1.3,0,0,1-.42.9c-1,1-3.68,1.78-6.84,1.78-4,0-7.25-1.2-7.25-2.68s3.25-2.67,7.25-2.67S1205.07,620,1205.07,621.5Z"/><circle class="cls-20" cx="1516.9" cy="238.03" r="54.23"/><g class="cls-44"><path class="cls-45" d="M1508.79,216.45c12,6.92,21.66,23.69,21.62,37.46s-9.78,19.33-21.77,12.41S1487,242.63,1487,228.86,1496.8,209.53,1508.79,216.45Zm-.13,45.12c9.7,5.6,17.59,1.1,17.62-10s-7.81-24.73-17.51-30.33-17.59-1.1-17.62,10.05,7.81,24.72,17.51,30.32"/><path class="cls-46" d="M1508.72,239.24a3.39,3.39,0,0,1,.5.37,4.16,4.16,0,0,1,1.36,2.85c0,1.18-.84,1.66-1.87,1.07a4.21,4.21,0,0,1-1.8-2.63,3,3,0,0,1-.06-.59,1.72,1.72,0,0,1,.07-.52,1,1,0,0,1,1.3-.76A1.91,1.91,0,0,1,1508.72,239.24Z"/><path class="cls-17" d="M1508.77,221.2c9.7,5.6,17.54,19.18,17.51,30.33s-7.92,15.64-17.62,10-17.54-19.18-17.51-30.32S1499.07,215.6,1508.77,221.2Zm-.06,22.33c1,.59,1.86.11,1.87-1.07a4.16,4.16,0,0,0-1.36-2.85l-.17-13.91a.69.69,0,0,0-.28-.49c-.16-.09-.3,0-.3.16l-.25,13.66a1,1,0,0,0-1.3.76l-8.06-4.37c-.13-.07-.23,0-.23.13a.54.54,0,0,0,.23.43l8.05,4.92a4.21,4.21,0,0,0,1.8,2.63"/><path class="cls-47" d="M1506.92,239.79a1.72,1.72,0,0,0-.07.52,3,3,0,0,0,.06.59l-8.05-4.92a.54.54,0,0,1-.23-.43c0-.15.1-.2.23-.13Z"/><path class="cls-47" d="M1508.77,225.21a.69.69,0,0,1,.28.49l.17,13.91a3.39,3.39,0,0,0-.5-.37,1.91,1.91,0,0,0-.5-.21l.25-13.66C1508.47,225.19,1508.61,225.12,1508.77,225.21Z"/><path class="cls-46" d="M1538.35,248.31c0-.06,0-.12,0-.18s0-.27,0-.4,0-.31,0-.47l0-.35,0-.43a2.45,2.45,0,0,1,0-.27c0-.2,0-.4-.07-.6s0-.23,0-.35,0-.08,0-.12c0-.37-.1-.73-.16-1.1v0a.36.36,0,0,1,0-.11c-.05-.32-.11-.65-.17-1l0-.14c0-.16-.06-.31-.1-.47s-.07-.38-.11-.56l-.06-.25-.12-.52c0-.14-.07-.29-.1-.43l-.09-.32c-.05-.2-.11-.4-.16-.61s-.07-.24-.1-.36-.07-.22-.1-.33l-.21-.69c0-.11-.06-.23-.1-.35s-.07-.2-.11-.3c-.08-.26-.17-.52-.26-.78l-.12-.36-.09-.23c-.13-.38-.28-.76-.42-1.14l-.12-.32,0-.08c-.23-.58-.47-1.15-.72-1.72a1,1,0,0,0-.07-.15c0-.06-.06-.12-.08-.18-.34-.75-.7-1.5-1.07-2.23l0-.08-.09-.16c-.39-.76-.79-1.5-1.22-2.24l-.07-.12c-.44-.75-.9-1.5-1.37-2.23l0-.06c-.47-.72-1-1.43-1.47-2.12l-.13-.19c-.49-.66-1-1.31-1.51-2l-.12-.16-.08-.08c-.51-.63-1-1.25-1.59-1.84l-.13-.15a1.59,1.59,0,0,0-.13-.13q-.6-.66-1.23-1.29l0,0-.19-.18-.9-.86-.12-.12-.32-.28c-.21-.19-.42-.38-.64-.56l-.17-.16-.35-.28-.5-.41-.18-.15-.4-.31-.44-.34-.15-.11-.52-.37-.36-.25-.08-.06-.93-.62h0l-.08-.06-.83-.5-.21-.13-.69-.38-.26-.14-.36-.18-.27-.14-.44-.21-.31-.15-.13-.06-.86-.36h0l-.88-.33-.11,0-.31-.1-.45-.15-.21-.06-.39-.11-.29-.08-.31-.07-.38-.08-.2,0-.36-.06-.44-.08-.15,0-.36,0-.47,0h-.45l-.55,0h-.39c-.23,0-.46,0-.68,0h-.21l-.15,0c-.34,0-.68.08-1,.15h-.1l-.2,0-.62.16c-.1,0-.19.06-.29.09l-.39.12-.09,0-.58.23-.27.12q-.42.19-.81.42l-8,4.62q.39-.23.81-.42l.27-.12.58-.23.48-.16c.1,0,.19-.07.29-.09l.62-.16.2,0,.1,0c.34-.07.68-.11,1-.15l.36,0c.22,0,.45,0,.68,0h.39l.55,0,.45,0,.47,0,.51.06.44.08.56.1.38.08.6.15.39.11c.21.06.44.13.66.21l.31.1,1,.36h0l1,.42.31.15.71.35.36.18,1,.52,1,.63.08.06c.34.21.68.44,1,.68l.36.25.67.48.44.34.58.46.5.4.53.45.62.55.45.41.9.86.22.21c.42.42.83.85,1.23,1.28l.26.29c.54.6,1.08,1.21,1.59,1.84l.2.24c.52.64,1,1.29,1.51,2l.13.19c.51.69,1,1.4,1.47,2.12l0,.07c.47.73.93,1.47,1.37,2.22l.07.12c.43.74.83,1.49,1.22,2.24l.13.24c.37.73.73,1.48,1.07,2.23l.15.33c.25.57.49,1.14.72,1.72.05.13.1.27.16.4.14.38.29.76.42,1.14.08.19.14.39.21.59l.27.78c.07.21.13.43.2.65l.21.69c.07.23.13.46.2.69s.11.41.16.61.13.5.19.75l.12.52c.06.27.12.54.17.81s.07.31.1.47c.07.37.14.74.2,1.11a.69.69,0,0,0,0,.13c.06.41.12.82.17,1.23,0,.12,0,.23,0,.35l.09.87,0,.43c0,.27,0,.55,0,.82s0,.27,0,.4c0,.39,0,.78,0,1.16s0,.8,0,1.19c0,.12,0,.22,0,.33,0,.27,0,.54,0,.8s0,.3,0,.45,0,.44-.08.65,0,.32-.07.48-.07.39-.1.59-.07.34-.11.51a4.37,4.37,0,0,1-.12.52c0,.21-.1.4-.15.6s-.09.3-.13.45-.15.47-.23.69-.08.25-.13.37c-.14.38-.3.74-.46,1.1s-.26.53-.4.78v0q-.21.39-.45.75c-.22.34-.46.67-.7,1-.06.07-.12.15-.19.22a9.77,9.77,0,0,1-.74.82l-.06.06c-.28.27-.57.52-.87.76l-.22.16a10,10,0,0,1-1,.64l8-4.62a10,10,0,0,0,1-.64l.22-.16c.3-.24.59-.49.87-.76l.06-.06a9.87,9.87,0,0,0,.75-.82l.18-.22c.24-.31.48-.64.7-1l0,0c.15-.23.29-.47.43-.72v0c.13-.24.26-.49.38-.74,0,0,0,0,0,0,.16-.36.32-.72.46-1.1a1,1,0,0,1,0-.1l.09-.27c.08-.22.16-.45.23-.69l.06-.18a2.68,2.68,0,0,0,.07-.27c.05-.2.11-.39.15-.6s0-.16.07-.24,0-.18,0-.28.08-.34.11-.51,0-.18,0-.27,0-.22,0-.32,0-.32.07-.48,0-.16,0-.24,0-.27,0-.41,0-.3,0-.45,0-.12,0-.18,0-.41,0-.61,0-.22,0-.34,0,0,0-.08c0-.34,0-.69,0-1.05v-.06C1538.36,249,1538.36,248.64,1538.35,248.31Z"/></g><g class="cls-44"><path class="cls-46" d="M1536.49,228c-.67-.38-1.21-.07-1.22.69a2.69,2.69,0,0,0,.81,1.78l-.71,2.22,1.1.64,1.1.63-.69-3c.47.08.81-.23.82-.84A2.67,2.67,0,0,0,1536.49,228Z"/><polygon class="cls-48" points="1543.4 242.67 1547.83 240.1 1547.88 224.14 1543.45 226.71 1543.4 242.67"/><polygon class="cls-49" points="1543.45 226.71 1547.88 224.14 1533.98 216.12 1529.56 218.69 1543.45 226.71"/><path class="cls-50" d="M1543.4,242.67l-13.89-8,0-16,13.89,8Zm-8-10,1.1.64,1.1.63-.69-3c.47.08.81-.23.82-.84a2.67,2.67,0,0,0-1.21-2.09c-.67-.38-1.21-.07-1.22.69a2.69,2.69,0,0,0,.81,1.78l-.71,2.22"/></g><path class="cls-51" d="M1543.41,223.9v-5.6a10.35,10.35,0,0,0-4.69-8.12c-2.59-1.49-4.69-.28-4.69,2.71v1.52"/><ellipse class="cls-46" cx="1534.03" cy="218.69" rx="1.27" ry="0.73"/><ellipse class="cls-48" cx="1534.04" cy="214.37" rx="1.05" ry="0.61"/><ellipse class="cls-48" cx="1543.4" cy="223.9" rx="1.05" ry="0.61"/><path class="cls-27" d="M1499.81,274.39a66.77,66.77,0,0,1-17.38-22.74"/><path class="cls-27" d="M1482.57,237.2c3.52,14,12.49,27.8,23.58,35.53"/><path class="cls-45" d="M1512.48,208.13a44.14,44.14,0,0,1,7.74,5.76l-1,1.78a39.63,39.63,0,0,0-6.79-5c-6.86-4-13.07-4.35-17.58-1.78s-7.31,8.1-7.33,16,2.74,16.61,7.22,24.37,10.67,14.53,17.53,18.5,13.07,4.34,17.58,1.78,7.31-8.09,7.33-16c0-.7.5-1,1.11-.63a2.44,2.44,0,0,1,1.11,1.91c-.06,17.16-12.2,24.08-27.14,15.46s-27-29.53-27-46.69S1497.54,199.51,1512.48,208.13Z"/><polygon class="cls-45" points="1521.65 211.24 1526.67 222.47 1517.87 218.25 1519.26 215.67 1520.22 213.89 1521.65 211.24"/><circle class="cls-37" cx="988.98" cy="605.72" r="54.23"/><circle class="cls-40" cx="1009.46" cy="584.58" r="14.19"/><line class="cls-40" x1="1002.77" y1="579.07" x2="1027.37" y2="579.07"/><line class="cls-40" x1="1002.77" y1="582.4" x2="1016.89" y2="582.4"/><line class="cls-40" x1="1002.77" y1="589.06" x2="1011.65" y2="589.06"/><line class="cls-40" x1="1002.77" y1="585.73" x2="1019.86" y2="585.73"/><path class="cls-52" d="M993,590.87a34,34,0,0,0-8.66-7.11c-11.06-6.17-20.17-.91-20.36,11.75s8.63,27.93,19.69,34.1,20.17.91,20.36-11.76"/><g class="cls-44"><path class="cls-53" d="M952.84,617.65c-.16-3.95.37-16.23,13.33-15,2.41.48,13,4.32,12.9,19.63a1.93,1.93,0,0,1-1.11,1.82c-4,1.82-15.7,2.81-24.09-4.41A3,3,0,0,1,952.84,617.65Z"/><path class="cls-54" d="M966.17,602.67a13.11,13.11,0,0,0-7.12,1,10.4,10.4,0,0,0,7.12,5,7.06,7.06,0,0,0,6.92-2.27A15.64,15.64,0,0,0,966.17,602.67Z"/><ellipse class="cls-42" cx="966.17" cy="599.97" rx="6.87" ry="8.2" transform="translate(-151.57 809.99) rotate(-42.48)"/><ellipse class="cls-17" cx="968.68" cy="598.19" rx="2.06" ry="2.6" transform="translate(-163.25 720.28) rotate(-37.85)"/></g><g class="cls-44"><path class="cls-53" d="M973.7,590.41c-.17-3.95.36-16.23,13.32-15,2.41.49,13,4.33,12.91,19.63a2,2,0,0,1-1.12,1.82c-4,1.82-15.7,2.81-24.09-4.41A2.93,2.93,0,0,1,973.7,590.41Z"/><path class="cls-54" d="M987,575.43a13.11,13.11,0,0,0-7.12,1,10.42,10.42,0,0,0,7.12,5,7.08,7.08,0,0,0,6.93-2.27A15.71,15.71,0,0,0,987,575.43Z"/><ellipse class="cls-42" cx="987.02" cy="572.74" rx="6.87" ry="8.2" transform="translate(-127.7 816.92) rotate(-42.48)"/><ellipse class="cls-17" cx="989.53" cy="570.96" rx="2.06" ry="2.6" transform="translate(-142.15 727.35) rotate(-37.85)"/></g><path class="cls-55" d="M1004,617.85c.13-9.09-4.38-19.54-11-27"/><path class="cls-55" d="M974.16,621.52a35,35,0,0,0,9.5,8.09c11.06,6.17,20.17.91,20.36-11.76"/><g class="cls-44"><path class="cls-53" d="M990.28,632c-.16-4,.36-16.23,13.32-15,2.41.49,13,4.33,12.91,19.63a2,2,0,0,1-1.12,1.83c-4,1.81-15.7,2.8-24.08-4.42A2.94,2.94,0,0,1,990.28,632Z"/><path class="cls-54" d="M1003.6,617a13.15,13.15,0,0,0-7.12,1,10.45,10.45,0,0,0,7.12,5,7.09,7.09,0,0,0,6.93-2.26A15.6,15.6,0,0,0,1003.6,617Z"/><ellipse class="cls-42" cx="1003.6" cy="614.31" rx="6.87" ry="8.2" transform="translate(-151.42 839.03) rotate(-42.48)"/><ellipse class="cls-17" cx="1006.12" cy="612.53" rx="2.06" ry="2.6" transform="translate(-164.17 746.27) rotate(-37.85)"/></g><circle class="cls-37" cx="1516.9" cy="605.72" r="54.23"/><path class="cls-54" d="M1538.12,639.72l-39.94-23.05a7.2,7.2,0,0,1-3-5.73V579.11c0-2.7,3-2.78,4.74-2l38.2,22a3.52,3.52,0,0,1,1.48,2.82V638.6C1539.6,639.69,1538.94,640.19,1538.12,639.72Z"/><polygon class="cls-50" points="1531.18 581.28 1511.94 607.72 1496.91 588.78 1516.15 562.35 1531.18 581.28"/><polygon class="cls-49" points="1511.61 606.05 1498.2 589.15 1516.48 564.02 1529.89 580.92 1511.61 606.05"/><ellipse class="cls-50" cx="1508.25" cy="593" rx="2.17" ry="3.76" transform="translate(-94.43 833.58) rotate(-30)"/><ellipse class="cls-50" cx="1519.83" cy="577.09" rx="2.17" ry="3.76" transform="translate(-84.92 837.24) rotate(-30)"/><ellipse class="cls-50" cx="1514.05" cy="585.03" rx="5.56" ry="11.18" transform="translate(-74.28 919.43) rotate(-33.02)"/><path class="cls-50" d="M1514.76,566.39c1.61,2,3.68,2.6,4.63,1.3a2.14,2.14,0,0,0,.36-.81l-3.6-4.53-2.13,2.92A9,9,0,0,0,1514.76,566.39Z"/><path class="cls-50" d="M1500.51,593.32a1.61,1.61,0,0,0,.6-.51c1-1.3.41-4-1.19-6a7.06,7.06,0,0,0-.88-.92l-2.13,2.92Z"/><path class="cls-50" d="M1527.58,576.75a1.61,1.61,0,0,0-.6.51c-1,1.3-.41,4,1.19,6a7.06,7.06,0,0,0,.88.92l2.13-2.92Z"/><path class="cls-50" d="M1513.33,603.68c-1.61-2-3.68-2.6-4.63-1.3a2.14,2.14,0,0,0-.36.81l3.6,4.53,2.13-2.92A9,9,0,0,0,1513.33,603.68Z"/><polygon class="cls-50" points="1538.86 597.16 1509.7 608.08 1498.6 586.12 1527.76 575.2 1538.86 597.16"/><polygon class="cls-49" points="1509.83 606.63 1499.92 587.03 1527.63 576.65 1537.54 596.25 1509.83 606.63"/><ellipse class="cls-50" cx="1509.94" cy="594.93" rx="2.17" ry="3.76" transform="translate(-95.17 834.68) rotate(-30)"/><ellipse class="cls-50" cx="1527.49" cy="588.36" rx="2.17" ry="3.76" transform="translate(-89.53 842.58) rotate(-30)"/><ellipse class="cls-50" cx="1518.73" cy="591.64" rx="5.52" ry="11.25" transform="translate(-97.05 805.73) rotate(-28.83)"/><path class="cls-50" d="M1525,577.63c1.19,2.35,3.32,3.81,4.76,3.27a1.47,1.47,0,0,0,.63-.44l-2.66-5.26-3.22,1.21A7.23,7.23,0,0,0,1525,577.63Z"/><path class="cls-50" d="M1501.26,591.38a2,2,0,0,0,.81-.1c1.44-.54,1.64-2.88.46-5.23a9.12,9.12,0,0,0-.7-1.14l-3.23,1.21Z"/><path class="cls-50" d="M1536.2,591.9a2,2,0,0,0-.81.1c-1.44.54-1.65,2.88-.46,5.23a8.07,8.07,0,0,0,.7,1.14l3.23-1.21Z"/><path class="cls-50" d="M1512.44,605.65c-1.19-2.34-3.32-3.81-4.76-3.27a1.57,1.57,0,0,0-.64.44l2.66,5.26,3.23-1.21A8.18,8.18,0,0,0,1512.44,605.65Z"/><path class="cls-42" d="M1535.16,641.06l-38.5-22.24a3.55,3.55,0,0,1-1.48-2.82V579.36c0-1.09.67-1.59,1.48-1.12l38.5,22.24a3.54,3.54,0,0,1,1.47,2.82V640C1536.63,641,1536,641.53,1535.16,641.06Z"/><path class="cls-42" d="M1496.66,578.24s-.75-.53,0-1.36a2.13,2.13,0,0,0-1.48,2.34A10.47,10.47,0,0,1,1496.66,578.24Z"/><path class="cls-17" d="M1528,620.69l9,5.23v-8.53l-9-5.23c-1.77-1-3.2.06-3.2,2.42h0A7.66,7.66,0,0,0,1528,620.69Z"/><ellipse class="cls-46" cx="1528.56" cy="616.77" rx="1.18" ry="2.04" transform="translate(-103.6 846.92) rotate(-30)"/><path class="cls-17" d="M1537,625.92s2.59.57,2.59-.92v-8.53c0,1.49-2.59.92-2.59.92Z"/><line class="cls-40" x1="1503.1" y1="629.62" x2="1485.17" y2="619.23"/><line class="cls-40" x1="1503.1" y1="624.86" x2="1487.59" y2="615.86"/><line class="cls-40" x1="1503.1" y1="615.34" x2="1492.09" y2="608.94"/><line class="cls-40" x1="1503.1" y1="620.1" x2="1485.04" y2="609.62"/><line class="cls-40" x1="1503.1" y1="610.58" x2="1483.16" y2="599.02"/><circle class="cls-20" cx="1342.7" cy="238.03" r="54.23"/><g class="cls-44"><path class="cls-50" d="M1346.36,203.78c9.24,5.33,17.86,15.87,22.66,27.78l-22.75,2.73-1.07-31.15C1345.59,203.34,1346,203.55,1346.36,203.78Z"/><path class="cls-49" d="M1347.86,204.69l.8.54.22.14c.34.23.68.48,1,.73l.25.18.82.63.3.23,1,.86.07.06,1,.87.28.25c.33.29.65.59,1,.89l.09.09,1,1,.27.28c.26.26.52.53.77.81l.23.24.93,1,.18.21.74.87.27.32.82,1a1.34,1.34,0,0,0,.11.14c.33.43.67.86,1,1.3.07.09.13.18.2.26.44.61.88,1.23,1.31,1.86l.15.22c.35.51.69,1,1,1.57l.17.27c.34.54.66,1.07,1,1.62,0,.07.09.15.14.23.37.65.74,1.31,1.1,2,.05.11.11.21.17.32.2.39.41.78.61,1.18a2.26,2.26,0,0,0,.11.22l.6,1.24.16.36.38.83c.07.16.14.31.2.47s.22.48.32.73l.35.84,3.72-2.17c-.08-.21-.17-.41-.25-.62s-.07-.14-.1-.22l-.31-.73-.13-.31a1,1,0,0,1-.07-.15l-.38-.84-.14-.29,0-.06c-.19-.42-.39-.83-.6-1.24l0-.06-.09-.17c-.2-.4-.4-.79-.61-1.18,0-.07-.07-.13-.1-.2l-.07-.11c-.35-.67-.72-1.33-1.1-2,0,0,0-.08-.07-.13l-.06-.1c-.32-.54-.65-1.08-1-1.61l-.18-.28c-.33-.53-.68-1.05-1-1.57l-.06-.1a.76.76,0,0,1-.08-.11q-.65-.95-1.32-1.86a1,1,0,0,0-.08-.11l-.11-.15c-.33-.44-.66-.88-1-1.31l0,0-.09-.11-.82-1-.12-.15a2.09,2.09,0,0,1-.14-.17c-.25-.29-.49-.58-.74-.86a2.09,2.09,0,0,1-.14-.17l0-.05c-.31-.35-.61-.69-.93-1l-.06-.07c-.06-.05-.11-.11-.16-.16l-.78-.82-.15-.16-.12-.11c-.33-.34-.67-.68-1-1l0,0a.46.46,0,0,0-.07-.07l-1-.89-.14-.13-.14-.13-1-.87,0,0h0c-.34-.3-.7-.58-1-.87l-.12-.09-.17-.13c-.27-.22-.55-.43-.82-.63l-.18-.13-.07-.06-1-.73,0,0-.17-.11-.81-.53-.15-.1-.18-.11-.7-.43-.21-.13-.25-.15-.84-.46-.32-.18-3.73,2.17c.39.2.78.41,1.16.64l.47.27.69.43Z"/></g><g class="cls-44"><polygon class="cls-56" points="1339.14 209.76 1342.87 207.6 1344 238.78 1340.28 240.95 1339.14 209.76"/><path class="cls-46" d="M1327.87,206.81h.63c.36,0,.72,0,1.09,0h.17l.93.1.22,0c.33.05.67.1,1,.17l.21,0,.8.18.28.07c.3.07.59.15.89.24l.09,0c.32.1.65.2,1,.32l.28.1.7.26.31.12.76.33.21.09,1,.45.75.38,3.73-2.16-.7-.36-.06,0-1-.46-.05,0-.16-.07-.76-.32-.14-.06-.17-.06-.7-.27-.19-.07-.1,0-1-.32h0l-.08,0-.88-.25-.13,0-.16,0-.8-.18-.15,0h-.06l-1-.17h-.23c-.31,0-.62-.08-.93-.1h-.16c-.37,0-.74,0-1.1,0h-.62l-.4,0-.31,0h-.14l-.46.05q-.51.06-1,.15l-.12,0-.1,0c-.28.05-.55.12-.83.19l0,0c-.26.07-.51.15-.76.24l-.1,0-.09,0c-.32.11-.64.24-1,.38l-.12.06a10.46,10.46,0,0,0-.94.49l-3.73,2.16.94-.49a.52.52,0,0,0,.13-.06c.31-.14.62-.26.94-.38l.2-.07c.24-.09.5-.17.75-.24h0c.27-.08.55-.14.83-.2l.21,0c.33-.06.66-.12,1-.16l.59-.06.32,0Z"/><path class="cls-46" d="M1370.51,254.08v0c0-.21,0-.42,0-.63s0-.4,0-.6v0l0-.71,0-.54v0c0-.34,0-.68-.08-1,0-.09,0-.18,0-.27h0c0-.43-.09-.86-.15-1.3h0c0-.13,0-.25,0-.37,0-.32-.09-.63-.14-.94v0l-.09-.54c-.05-.26-.09-.52-.14-.77v-.05l-.12-.61c-.05-.24-.09-.48-.15-.71,0,0,0-.05,0-.07l-.15-.63c0-.23-.1-.46-.16-.69l0-.08c-.05-.21-.11-.43-.17-.65s-.11-.44-.18-.67l0-.1c0-.2-.11-.4-.17-.6l-.2-.68s0-.09,0-.14c-.06-.2-.13-.4-.2-.6s-.13-.42-.2-.64l-.06-.18c-.07-.19-.14-.38-.2-.57s-.13-.38-.2-.58-.07-.18-.1-.26-.14-.38-.22-.57l-.17-.47-.27-.67-3.72,2.17c.15.38.29.76.44,1.13l.21.57.3.84c.07.19.14.38.2.57l.27.82.19.61c.09.27.16.54.24.81l.18.61c.07.25.14.51.2.76l.18.65.18.78c.05.21.1.42.14.63s.11.52.16.78.09.4.13.6.09.55.14.83.07.36.09.53c.06.33.1.65.14,1l.06.37c0,.45.1.89.14,1.32l0,.31c0,.33,0,.66.08,1s0,.37,0,.55,0,.49,0,.73,0,.41,0,.61,0,.44,0,.65,0,.59,0,.88c0,.13,0,.26,0,.38,0,.41,0,.82-.08,1.23,0,0,0,.1,0,.15,0,.37-.07.73-.11,1.09l-.06.39-.12.83c0,.14-.06.28-.08.42s-.11.56-.17.83-.06.28-.1.42c-.07.32-.15.64-.24.95l-.09.32c-.13.43-.27.85-.42,1.27-.08.22-.17.44-.26.66l-.07.19c-.12.28-.25.57-.38.84s-.25.48-.37.72a1.24,1.24,0,0,0-.1.2c-.17.29-.34.58-.52.86s-.33.5-.5.74l-.15.19-.39.51-.21.24-.37.42-.23.24-.38.37-.25.24-.41.34-.25.21c-.15.12-.31.23-.47.34l-.22.17q-.36.24-.72.45l3.72-2.16c.25-.15.49-.3.72-.46l.23-.16.46-.34.26-.21.4-.35a2.73,2.73,0,0,0,.25-.23c.13-.12.26-.24.38-.37l.24-.25.36-.41c.07-.08.15-.16.22-.25l.39-.5a2.43,2.43,0,0,0,.14-.2c.17-.23.34-.47.49-.71l0,0c.17-.28.35-.57.51-.87a1.74,1.74,0,0,0,.1-.19c.13-.24.25-.48.37-.72,0,0,0,0,0-.05.13-.26.25-.53.36-.8a1.34,1.34,0,0,0,.07-.18c.08-.19.16-.38.23-.58l0-.09c.16-.41.3-.83.43-1.27a.24.24,0,0,1,0-.08l.06-.24c.09-.31.17-.62.25-.94a1.6,1.6,0,0,0,0-.21c0-.07,0-.14,0-.21.06-.28.11-.55.16-.83l.06-.29s0-.09,0-.13c.05-.28.09-.56.13-.84,0-.11,0-.21,0-.32a.15.15,0,0,0,0-.07c0-.35.08-.72.11-1.09,0,0,0-.09,0-.14h0c0-.4.06-.81.07-1.23h0c0-.12,0-.24,0-.37C1370.5,254.66,1370.51,254.38,1370.51,254.08Z"/><path class="cls-5" d="M1339.14,209.76l1.13,31.19,22.75-2.73c7.52,18.67,3.44,35.27-9,36.77-4.27.51-9-.81-13.69-3.51-9-5.2-17.81-15.52-22.76-27.8-7.52-18.67-3.44-35.27,9-36.77C1330.37,206.45,1334.7,207.43,1339.14,209.76Z"/><path class="cls-17" d="M1366.61,252.38a51.36,51.36,0,0,0-3.59-14.16l-22.71,2.72Z"/><polygon class="cls-46" points="1340.28 240.95 1344 238.78 1366.74 236.05 1363.02 238.22 1340.28 240.95"/></g><polyline class="cls-57" points="1316.03 237.59 1340.31 240.94 1356 274.01"/><line class="cls-27" x1="1326.15" y1="248.37" x2="1300.82" y2="248.37"/><line class="cls-27" x1="1326.15" y1="253.31" x2="1311.61" y2="253.31"/><line class="cls-27" x1="1326.15" y1="263.19" x2="1317" y2="263.19"/><line class="cls-27" x1="1326.15" y1="258.25" x2="1308.55" y2="258.25"/><circle class="cls-10" cx="1342.7" cy="429.29" r="54.23"/><path class="cls-16" d="M1354.44,463.08l5.5-3.18s-3.08-4.76-3.12-4.93-2.59-2.52-2.59-2.52l-2-.72-1.24.13-.59,3,1.19,3.56Z"/><polygon class="cls-16" points="1359.94 459.9 1366.09 456.35 1366.09 451.09 1359.57 446.91 1356.92 446.7 1355.35 448.92 1356.8 453.3 1359.94 459.9"/><path class="cls-16" d="M1364.63,448.59l6.15-3.56s-1.46-2.39-1.7-2.64-5.41-1.89-5.41-1.89-2,.72-1.91,1.35,0,3.35,0,3.35Z"/><path class="cls-16" d="M1362.62,432.57l6.15-3.55-4.14-2.52-3.64,1.88s-2.87,1.49-2.36,2A34.52,34.52,0,0,0,1362.62,432.57Z"/><path class="cls-16" d="M1349.81,410.4l6.15-3.56a28.29,28.29,0,0,1,.9,3.56,41.41,41.41,0,0,1-3.52,3.14l-3.53.79Z"/><path class="cls-16" d="M1319.3,402.22l6.16-3.55,4,2.23v3.85l1.18,2.74s-2.56,4.21-2.7,4.26-5.5-1.35-5.5-1.35Z"/><path class="cls-16" d="M1324.81,399l6.15-3.55,4,2.23v3.85l1.19,2.74s-2.56,4.22-2.71,4.26-5.5-1.35-5.5-1.35Z"/><path class="cls-16" d="M1336.94,400.69l6.15-3.56,4,2.23v3.85l1.19,2.74s-2.56,4.22-2.71,4.27-5.5-1.36-5.5-1.36Z"/><polygon class="cls-16" points="1314.62 413.53 1326.86 406.47 1333.26 410.22 1322.52 417.48 1314.62 413.53"/><polygon class="cls-16" points="1316.63 429.55 1328.87 422.49 1331.71 426.02 1316.63 429.55"/><path class="cls-16" d="M1329.43,451.73l8.71-5s-1.2-3.4-1.44-3.78-2.91-2.82-2.91-2.82l-1.3.67Z"/><path class="cls-16" d="M1342.3,461.48l5.17-2.93s.11-7.38,0-7.46-1.69-1.45-1.69-1.45l-3.74,1.13-1.54,3.87Z"/><polygon class="cls-16" points="1349.51 410.78 1342.04 406.46 1343.1 397.09 1348.45 400.18 1349.51 410.78"/><polygon class="cls-16" points="1340.83 406.14 1334.36 406.72 1330.96 395.49 1335.59 395.08 1340.83 406.14"/><polygon class="cls-16" points="1333.48 407.23 1329.74 412.54 1322.78 402.47 1325.88 400.9 1333.48 407.23"/><polygon class="cls-16" points="1329.41 413.75 1329.41 422.38 1320.77 416.16 1320.77 409.99 1329.41 413.75"/><polygon class="cls-14" points="1329.74 423.96 1333.48 433.59 1325.46 432.89 1322.78 426 1329.74 423.96"/><polygon class="cls-14" points="1334.36 435.12 1340.83 443.18 1335.59 448.18 1330.96 442.42 1334.36 435.12"/><polygon class="cls-16" points="1342.04 444.24 1349.51 448.56 1348.45 457.93 1343.1 454.84 1342.04 444.24"/><polygon class="cls-16" points="1350.72 448.88 1357.19 448.31 1359.57 458.49 1355.96 459.94 1350.72 448.88"/><polygon class="cls-16" points="1358.08 447.8 1361.81 442.48 1368.77 452.55 1366.09 456.35 1358.08 447.8"/><polygon class="cls-16" points="1362.14 441.27 1362.14 432.64 1370.78 438.86 1370.78 445.04 1362.14 441.27"/><polygon class="cls-16" points="1361.81 431.06 1358.08 421.43 1366.09 422.13 1368.77 429.02 1361.81 431.06"/><polygon class="cls-16" points="1357.19 419.9 1350.72 411.85 1355.96 406.84 1360.59 412.6 1357.19 419.9"/><ellipse class="cls-16" cx="1345.78" cy="427.51" rx="14.68" ry="25.42" transform="translate(-33.45 730.17) rotate(-30)"/><path class="cls-14" d="M1364.63,448.59v-6.18l-7.39-5.31c-.15-.92-.35-1.85-.58-2.78l6-1.75-2.68-6.89-6.87-.6c-.48-.91-1-1.8-1.54-2.67l2.91-6.25-4.63-5.76-4.49,4.28c-.69-.67-1.39-1.3-2.11-1.89l-.91-9.06-5.35-3.08-.91,8a14.61,14.61,0,0,0-2.11-.55l-4.49-9.47-4.63.42,2.91,9.62a7.9,7.9,0,0,0-1.54.89l-6.87-7.34-2.68,3.8,6,8.63a13.16,13.16,0,0,0-.58,2.1l-7.39-3.21v6.17L1322,425a27.29,27.29,0,0,0,.58,2.77l-6,1.75,2.68,6.89,6.87.6c.48.91,1,1.8,1.54,2.68l-2.91,6.25,4.63,5.76,4.49-4.28c.69.66,1.39,1.3,2.11,1.89l.91,9.05,5.35,3.09.91-8a16.12,16.12,0,0,0,2.11.56l4.49,9.46,4.63-.41-2.91-9.62a8.44,8.44,0,0,0,1.54-.89l6.87,7.33,2.68-3.8-6-8.62a15.82,15.82,0,0,0,.58-2.11Z"/><path class="cls-19" d="M1365.11,404.19c7.63,8.68,12.4,20.28,12.4,31.5"/><path class="cls-19" d="M1330.07,463.08c-13.84-8-23.51-24.74-23.51-40.72"/><ellipse class="cls-17" cx="1338.31" cy="430.65" rx="9.97" ry="17.27" transform="translate(-36.03 726.86) rotate(-30)"/><path class="cls-16" d="M1348,436.23a13.11,13.11,0,0,1-.08,1.43c-.64,5.09-4.67,7-9.57,4.13-5.32-3.07-9.65-10.56-9.65-16.71,0-5.64,3.66-8.21,8.38-6.2a11.63,11.63,0,0,1,1.27.64C1343.64,422.59,1348,430.08,1348,436.23Z"/><path class="cls-10" d="M1348,436.23a13.11,13.11,0,0,1-.08,1.43,13.75,13.75,0,0,1-1.27-.64c-5.34-3.09-9.65-10.55-9.65-16.72a12.65,12.65,0,0,1,.08-1.42,11.63,11.63,0,0,1,1.27.64C1343.64,422.59,1348,430.08,1348,436.23Z"/><path class="cls-19" d="M1381.66,433.47a66.67,66.67,0,0,0-1.93-11.11"/><path class="cls-19" d="M1302.69,426.32a66.84,66.84,0,0,0,1.93,11.11"/><path class="cls-58" d="M1350.08,414.89c-1.68-7.52,2.26-17.87,8.79-23.13,3.22-2.58,6.47-3.44,9.14-2.76l1.75.45.73.79a9.58,9.58,0,0,1,3.26,5.63c1.68,7.52-2.26,17.87-8.79,23.12a12.5,12.5,0,0,1-6.44,2.93c-.41.21-.75.35-.75.35l-2.27-.61C1352.91,420.85,1350.9,418.55,1350.08,414.89Z"/><ellipse class="cls-8" cx="1363.83" cy="405.88" rx="17.54" ry="10.83" transform="translate(435.44 1484.23) rotate(-65.85)"/><path class="cls-59" d="M1359.93,398.53l3.45-5.89.44,2.05a5.86,5.86,0,0,1,5.77,0c2.74,1.72,3.76,6.19,2.52,11.12l-1.13,0c1.07-4.26.19-8.12-2.18-9.6a4.93,4.93,0,0,0-4.68-.14l.42,1.94Z"/><path class="cls-59" d="M1355.5,406.07l1.13,0c-1.07,4.26-.19,8.12,2.18,9.61a5,5,0,0,0,4.68.13l-.42-1.94,4.61-.51-3.45,5.88-.44-2a5.88,5.88,0,0,1-5.77,0C1355.28,415.47,1354.26,411,1355.5,406.07Z"/><circle class="cls-10" cx="1516.9" cy="429.29" r="54.23"/><polygon class="cls-16" points="1500.91 447.55 1493.79 443.43 1505.72 436.55 1512.84 438.12 1512.84 440.66 1500.91 447.55"/><polygon class="cls-60" points="1500.91 445.01 1493.79 440.9 1505.72 434.01 1512.84 438.12 1500.91 445.01"/><polygon class="cls-14" points="1493.79 440.9 1493.79 443.43 1500.91 447.55 1500.89 444.99 1493.79 440.9"/><polygon class="cls-16" points="1522.88 460.2 1515.76 456.09 1527.68 449.2 1534.8 450.78 1534.8 453.31 1522.88 460.2"/><polygon class="cls-60" points="1522.88 457.66 1515.76 453.55 1527.68 446.67 1534.8 450.78 1522.88 457.66"/><polygon class="cls-14" points="1515.76 453.55 1515.76 456.09 1522.88 460.2 1522.86 457.65 1515.76 453.55"/><polygon class="cls-60" points="1549.63 431.58 1545.95 433.7 1486.25 426.99 1486.25 399.24 1489.93 397.11 1549.63 431.58"/><polygon class="cls-14" points="1545.95 433.7 1545.95 461.46 1486.25 426.99 1486.25 399.24 1545.95 433.7"/><polygon class="cls-61" points="1498.26 406.17 1486.25 417.86 1486.25 407.4 1491.52 402.28 1498.26 406.17"/><polygon class="cls-14" points="1504.96 410.04 1487.05 427.45 1486.25 426.99 1486.25 417.77 1498.21 406.14 1504.96 410.04"/><polygon class="cls-61" points="1511.65 413.9 1493.74 431.31 1486.99 427.42 1504.89 410 1511.65 413.9"/><polygon class="cls-14" points="1518.34 417.76 1500.43 435.18 1493.68 431.28 1511.58 413.86 1518.34 417.76"/><polygon class="cls-61" points="1525.03 421.63 1507.12 439.04 1500.38 435.15 1518.28 417.73 1525.03 421.63"/><polygon class="cls-14" points="1531.72 425.49 1513.82 442.91 1507.07 439.01 1524.97 421.59 1531.72 425.49"/><polygon class="cls-61" points="1538.41 429.35 1520.51 446.77 1513.76 442.88 1531.66 425.45 1538.41 429.35"/><polygon class="cls-14" points="1545.11 433.22 1527.19 450.63 1520.45 446.74 1538.35 429.32 1545.11 433.22"/><polygon class="cls-61" points="1545.95 433.7 1545.95 442.76 1533.88 454.49 1527.14 450.6 1545.04 433.18 1545.95 433.7"/><polygon class="cls-14" points="1545.95 442.67 1545.95 453.13 1540.57 458.35 1533.83 454.46 1545.95 442.67"/><polygon class="cls-61" points="1545.95 453.05 1545.95 461.46 1540.53 458.33 1545.95 453.05"/><polygon class="cls-16" points="1549.63 459.34 1545.95 461.46 1545.95 433.7 1549.63 431.58 1549.63 459.34"/><path class="cls-58" d="M1549.75,419.7l-12-27.9a1.22,1.22,0,0,0-1.77-.4l-2.8,1.72-9.17,11.81a1.64,1.64,0,0,0,.42,2.49l21.16,12.3-.13,0-.31,1.32,1.41,1.62,2.66-1.55h0A1.15,1.15,0,0,0,1549.75,419.7Z"/><path class="cls-62" d="M1532.84,393.45l-11.17,12.89a2.16,2.16,0,0,0,.56,3.29L1545,422.81a1.53,1.53,0,0,0,2.17-1.93l-11.7-27A1.59,1.59,0,0,0,1532.84,393.45Z"/><text class="cls-63" transform="matrix(0.87, 0.5, 0, 1, 1531.48, 411.88)">!</text><line class="cls-64" x1="1509.36" y1="467.51" x2="1468.22" y2="467.51"/><line class="cls-64" x1="1509.36" y1="463.46" x2="1491.4" y2="463.46"/><line class="cls-64" x1="1509.36" y1="455.35" x2="1499.69" y2="455.35"/><line class="cls-64" x1="1509.36" y1="459.4" x2="1483.85" y2="459.4"/><circle class="cls-37" cx="1342.7" cy="605.72" r="54.23"/><polygon class="cls-65" points="1342.7 640.87 1320.24 627.9 1320.24 623.22 1342.7 635.31 1342.7 640.87"/><polygon class="cls-54" points="1342.7 640.87 1365.16 627.9 1365.16 623.24 1342.7 635.31 1342.7 640.87"/><polygon class="cls-66" points="1342.7 636.18 1320.24 623.22 1342.7 610.27 1365.16 623.24 1342.7 636.18"/><polygon class="cls-65" points="1342.7 634.33 1323.86 623.46 1323.86 618.79 1342.7 629.67 1342.7 634.33"/><polygon class="cls-54" points="1342.7 634.33 1361.54 623.46 1361.54 618.79 1342.7 629.67 1342.7 634.33"/><polygon class="cls-66" points="1342.7 629.65 1323.86 618.77 1342.7 607.91 1361.54 618.79 1342.7 629.65"/><path class="cls-54" d="M1356.23,615.78h0v-4.69l-1.15,2.22a6.68,6.68,0,0,0-2.81-3.06c-5.29-3-13.85-3-19.14,0a9.13,9.13,0,0,0-3,2.65l-.95-1.58v4.46h0V616h0c.09,1.93,1.4,3.83,3.94,5.3,5.29,3.05,13.85,3.05,19.14,0,2.52-1.45,3.82-3.34,3.94-5.25h0Z"/><ellipse class="cls-66" cx="1342.7" cy="611.09" rx="13.53" ry="7.81"/><path class="cls-65" d="M1352.51,607.4h0c-8.42-8.15-4.16-16.07-4.16-16.07l-5.66.18-5.66-.18s4.26,7.92-4.15,16.07h0c-2.34,2.45-1.71,5.6,1.89,7.68a17.48,17.48,0,0,0,15.84,0C1354.22,613,1354.85,609.85,1352.51,607.4Z"/><path class="cls-54" d="M1351.56,582.7l-.68.17c-.41-.77-.87,1.51-1.92.9a13.81,13.81,0,0,0-12.52,0c-.89.51-1.56-1.4-2-.77l-.6-.22v4.75a4.45,4.45,0,0,0,2.58,3.47,13.81,13.81,0,0,0,12.52,0,4.48,4.48,0,0,0,2.58-3.44Z"/><ellipse class="cls-66" cx="1342.7" cy="582.7" rx="8.86" ry="5.11"/><circle class="cls-67" cx="1342.7" cy="577.72" r="7.14"/><circle class="cls-65" cx="1342.7" cy="577.72" r="7.14"/><line class="cls-40" x1="1316.27" y1="584.44" x2="1325.72" y2="593.9"/><line class="cls-40" x1="1316.27" y1="593.9" x2="1325.72" y2="584.44"/><line class="cls-40" x1="1360.43" y1="584.44" x2="1369.88" y2="593.9"/><line class="cls-40" x1="1360.43" y1="593.9" x2="1369.88" y2="584.44"/><path class="cls-9" d="M1379,607h-8.33s-1.12,15.29,8.33,19.29Z"/><path class="cls-68" d="M1372.49,609.85h-6.14s.16,10.7,8.48,10.7"/><path class="cls-9" d="M1379,607h8.33s1.13,15.29-8.33,19.29Z"/><path class="cls-68" d="M1385,609.85h6.14s-.16,10.7-8.48,10.7"/><rect class="cls-9" x="1372.42" y="629.64" width="13.09" height="1.29"/><polygon class="cls-9" points="1389.1 635.93 1368.82 635.93 1370.35 630.61 1387.58 630.61 1389.1 635.93"/><rect class="cls-9" x="1377.67" y="624.63" width="2.58" height="5.98"/><circle class="cls-40" cx="1309.43" cy="613.62" r="5.65"/></g><circle class="cls-20" cx="988.43" cy="238.03" r="59.65"/><polyline class="cls-69" points="1053.45 236.7 1046.96 236.7 1037.34 227.07 1014.83 227.07"/><rect class="cls-70" x="1013.79" y="225.56" width="11.78" height="2.9"/><circle class="cls-70" cx="1052.61" cy="236.7" r="1.52"/><polyline class="cls-69" points="1048.46 250.83 1038.97 250.83 1029.35 241.2 1006.85 241.2"/><rect class="cls-70" x="1013.72" y="239.69" width="11.78" height="2.9"/><circle class="cls-70" cx="1047.62" cy="250.83" r="1.52"/><polyline class="cls-69" points="1059.09 243.81 1042.22 243.81 1032.59 234.18 1010.09 234.18"/><circle class="cls-70" cx="1058.25" cy="243.81" r="1.52"/><rect class="cls-70" x="1013.79" y="232.74" width="11.78" height="2.9"/><polyline class="cls-69" points="944.75 199.65 954.24 199.65 963.86 209.28 986.37 209.28"/><rect class="cls-70" x="967.72" y="207.9" width="11.78" height="2.9" transform="translate(1947.21 418.69) rotate(180)"/><circle class="cls-70" cx="945.59" cy="199.65" r="1.52"/><polyline class="cls-69" points="934.12 206.67 950.99 206.67 960.62 216.3 983.12 216.3"/><circle class="cls-70" cx="934.96" cy="206.67" r="1.52"/><rect class="cls-70" x="967.64" y="214.85" width="11.78" height="2.9" transform="translate(1947.06 432.6) rotate(180)"/><polyline class="cls-71" points="979.75 232.03 977.43 236.88 942.8 247.62 942.8 250.97 982.68 273.89 1016.7 260.51 1016.71 256.93"/><polygon class="cls-72" points="983.25 270.86 1016.71 257.69 1009.88 217.83 942.8 247.62 983.25 270.86"/><polygon class="cls-71" points="975.89 234.2 1016.7 257.65 1016.7 217.83 975.89 194.38 975.89 234.2"/><polygon class="cls-17" points="979.36 231.57 979.36 200.73 1013.2 220.33 1013.2 251.17 979.36 231.57"/><path class="cls-7" d="M980.05,201.94l32.45,18.79V250l-32.45-18.79V201.94m-1.39-2.41V232l35.23,20.4V219.93l-35.23-20.4Z"/><circle class="cls-73" cx="978.37" cy="237.23" r="15.77"/><line class="cls-74" x1="965.12" y1="228.69" x2="971.6" y2="228.69"/><line class="cls-74" x1="966.33" y1="247.64" x2="972.82" y2="247.64"/><line class="cls-74" x1="962.6" y1="233.52" x2="976.87" y2="233.52"/><line class="cls-74" x1="963.82" y1="243.05" x2="976.87" y2="243.05"/><line class="cls-74" x1="962.6" y1="238.46" x2="973.83" y2="238.46"/><line class="cls-73" x1="991.63" y1="228.69" x2="983.06" y2="228.69"/><line class="cls-73" x1="990.35" y1="247.64" x2="981.85" y2="247.64"/><line class="cls-73" x1="993.7" y1="233.52" x2="985.81" y2="233.52"/><line class="cls-73" x1="993.03" y1="243.05" x2="984.62" y2="243.05"/><line class="cls-73" x1="994.35" y1="238.46" x2="980.83" y2="238.46"/><path class="cls-75" d="M1088,513.89l38.69-102.72a32.55,32.55,0,0,0-18.29-41.45h0a32.53,32.53,0,0,0-41.64,16.22l-24.24,52.24Z"/><circle class="cls-75" cx="1096.14" cy="399.89" r="32.56" transform="translate(89.13 989.27) rotate(-50.38)"/><polygon class="cls-1" points="1266.47 729.05 1051.9 763.32 1139.49 1485.38 1406.11 1442.8 1266.47 729.05"/><path class="cls-1" d="M1077.38,490.45c70.39-1.22,163.88,6.84,222.31,49.25,0,0,24,152.76,8,196.21-19.8,53.63-47.43,81.79-85,97.35s-115.75,17.67-144.19-3.13c-13-9.54-33.61-86.22-51.18-161.67-8-34.41-17.06-96.33-18.17-124.35C1007.39,502,1035.23,491.18,1077.38,490.45Z"/><path class="cls-1" d="M1150.48,768.7c-17.59-22.23-49.35-53.42-102.67-79.93l-56.49-110.3-67.63,26.27S945,640.8,975.4,744.52c0,0,2.88,27,67.84,67.53,54.78,34.19,69.83,45.73,104.38,10.48A40.7,40.7,0,0,0,1150.48,768.7Z"/><ellipse class="cls-1" cx="959.12" cy="595.2" rx="36.29" ry="36.28" transform="translate(-18.53 30.95) rotate(-1.83)"/><path class="cls-1" d="M989.92,576S956,516.81,926.73,506.31s-40.54,6.44-43.4,17.1S913,579,927,612.11Z"/><path class="cls-76" d="M882.29,528a1.89,1.89,0,0,1,1.4-2.54c6.43-1.22,25.2-3.59,33.76,8.35,10.41,14.53,17.81,33.21,7.56,38.9s-15.54,4.81-15.54,4.81S894.37,558.65,882.29,528Z"/><path class="cls-77" d="M917.45,533.78c-8.56-11.94-27.33-9.57-33.76-8.35a1.89,1.89,0,0,0-1.4,2.54c.67,1.71,1.35,3.37,2,5C884.38,533,895.08,529.7,917.45,533.78Z"/><path class="cls-1" d="M1163,492.56l-36.13-103.65a32.54,32.54,0,0,0-40.6-20.1h0A32.53,32.53,0,0,0,1064.65,408l28.32,106Z"/><circle class="cls-1" cx="1096.15" cy="399.82" r="32.56" transform="matrix(1, -0.08, 0.08, 1, -29.27, 91.87)"/><circle class="cls-1" cx="1128.4" cy="504.62" r="36.63" transform="translate(-37.81 94.89) rotate(-4.74)"/><path class="cls-1" d="M1238.53,496.94l-43.39-100.82A32.53,32.53,0,0,0,1153.22,379h0a32.52,32.52,0,0,0-18.74,40.57l35.76,103.68Z"/><circle class="cls-1" cx="1165.32" cy="409.18" r="32.56" transform="translate(-56.15 226.38) rotate(-10.84)"/><circle class="cls-1" cx="1204.93" cy="511.42" r="36.63" transform="translate(-74.66 235.65) rotate(-10.84)"/><path class="cls-1" d="M1297.76,534l-43-88.14a29.08,29.08,0,0,0-38.14-13.56h0a29.07,29.07,0,0,0-15,37l36.29,91Z"/><circle class="cls-1" cx="1228.72" cy="458.81" r="29.09" transform="translate(-70.46 278.81) rotate(-12.59)"/><circle class="cls-1" cx="1268.38" cy="548.38" r="32.73" transform="translate(-89.02 289.6) rotate(-12.59)"/><circle class="cls-1" cx="1024.35" cy="413.23" r="32.59" transform="translate(584.61 1426.49) rotate(-88.51)"/><path class="cls-1" d="M1079.8,513.15,1056.07,406a32.53,32.53,0,0,0-38-24.72h0a32.54,32.54,0,0,0-26,36.34l15.69,108.54Z"/><circle class="cls-1" cx="1024.33" cy="413.22" r="32.56" transform="translate(584.61 1426.46) rotate(-88.51)"/><circle class="cls-1" cx="1006.78" cy="317.28" r="30.78" transform="translate(663.43 1315.47) rotate(-88.51)"/><circle class="cls-1" cx="1044.08" cy="521.07" r="36.63" transform="translate(496.02 1551.25) rotate(-88.51)"/><path class="cls-1" d="M1036.89,310.55l-14.63-61.15a27.4,27.4,0,0,0-32-20.82h0a27.4,27.4,0,0,0-21.91,30.6l7.88,62.31Z"/><circle class="cls-1" cx="995.53" cy="255.5" r="27.42" transform="translate(714.23 1244.04) rotate(-88.51)"/><circle class="cls-1" cx="1006.81" cy="317.22" r="30.85" transform="translate(663.51 1315.44) rotate(-88.51)"/><polygon class="cls-1" points="1036.85 310.68 976.33 321.8 992.11 417.94 1056.19 406.17 1036.85 310.68"/><path class="cls-78" d="M991.86,316.82a39.49,39.49,0,0,1,28.81-5.29"/><path class="cls-78" d="M1007.3,420.6a49.1,49.1,0,0,1,35.81-6.57"/><path class="cls-78" d="M1046,430a49.09,49.09,0,0,1-35.8,6.57"/><path class="cls-75" d="M1132.89,406.31l30.46,87.32a17.31,17.31,0,0,0,12.57,4.44c-3.91-4.94-32-64.65-41.76-96.35A25.81,25.81,0,0,0,1132.89,406.31Z"/><path class="cls-75" d="M1020.71,635.85h0l-29.39-57.38h0c-.43-.84-.89-1.66-1.39-2.47h0s-19.27-33.6-41.28-54.66h0c12.12,14.57,27.62,41.62,38.83,72.06s9.47,50.05,46.48,112.82C1028.67,686.17,1020.71,635.85,1020.71,635.85Z"/><path class="cls-75" d="M1212.89,437.36l21.82,50.7s.94,2.19,9,2.07c-5.87-9.46-16-22.22-29.38-53.88C1212.63,438,1212.89,437.36,1212.89,437.36Z"/><path class="cls-76" d="M1000.39,282.21h0a17.23,17.23,0,0,1-19.9-13.07l-4.79-20.7a9.32,9.32,0,0,1,6.49-11,95.11,95.11,0,0,1,19.3-3.55,9.34,9.34,0,0,1,10,8l2.88,21.05A17.23,17.23,0,0,1,1000.39,282.21Z"/><path class="cls-77" d="M981.48,243.18a131.82,131.82,0,0,1,22.73-4.18,11.93,11.93,0,0,1,6.93,1.38,9.33,9.33,0,0,0-9.65-6.53,95.11,95.11,0,0,0-19.3,3.55,9.32,9.32,0,0,0-6.7,9.53A11.85,11.85,0,0,1,981.48,243.18Z"/><polygon class="cls-1" points="753.22 914.24 567.13 728.15 0 1248.39 231.23 1479.62 753.22 914.24"/><path class="cls-1" d="M661.27,786.82c9.53-30.49,18.41-79.88,9.23-146.38l30.88-60.1-8.73-86.14s-36.13-1.17-120,114.22c0,0-23.31,19.81-19.81,106.06,3,72.73,1.75,94.07,56.52,103.87A45.91,45.91,0,0,0,661.27,786.82Z"/><circle class="cls-1" cx="699.72" cy="537.13" r="43.5"/><path class="cls-1" d="M699.72,580.63S740.11,613,775,610.37s38.8-25.22,36.86-37.51-69.55-54.5-84.89-69.6Z"/><path class="cls-76" d="M807.84,565a1.89,1.89,0,0,1-.27,2.89c-5.39,3.7-21.63,13.42-34.26,5.93-15.38-9.11-29.67-23.24-22.57-32.57S763,530.6,763,530.6,784.43,541.78,807.84,565Z"/><path class="cls-77" d="M773.31,573.83c12.63,7.49,28.87-2.23,34.26-5.93a1.89,1.89,0,0,0,.27-2.89c-1.3-1.29-2.6-2.54-3.88-3.76C803.92,561.29,795.43,568.57,773.31,573.83Z"/><rect class="cls-54" x="1688.87" y="480.37" width="87.12" height="39.88" rx="4.28"/><polyline class="cls-54" points="1772.74 479.64 1774.84 481.73 1772.74 481.73 1772.74 479.64"/><polygon class="cls-54" points="1688.25 517.12 1690.15 519.02 1690.13 517.09 1688.25 517.12"/><rect class="cls-37" x="1687.08" y="478.57" width="87.12" height="39.88" rx="4.28"/><rect class="cls-16" x="1689.34" y="557.36" width="87.97" height="39.88" rx="4.28"/><polyline class="cls-16" points="1774.07 556.63 1776.16 558.72 1774.07 558.72 1774.07 556.63"/><polygon class="cls-16" points="1688.72 594.11 1690.62 596.01 1690.6 594.08 1688.72 594.11"/><rect class="cls-10" x="1687.55" y="555.56" width="87.97" height="39.88" rx="4.28"/><line class="cls-79" x1="1687.08" y1="198.3" x2="1777.32" y2="198.3"/><line class="cls-79" x1="1687.08" y1="236.88" x2="1777.32" y2="236.88"/><line class="cls-79" x1="1687.08" y1="275.47" x2="1777.32" y2="275.47"/><line class="cls-79" x1="1687.08" y1="314.05" x2="1777.32" y2="314.05"/><line class="cls-79" x1="1687.08" y1="352.63" x2="1777.32" y2="352.63"/><line class="cls-79" x1="1687.08" y1="391.22" x2="1777.32" y2="391.22"/></g></g></g></svg>