<svg xmlns="http://www.w3.org/2000/svg" viewBox="0 0 126.08 126.08"><defs><style>.cls-1{fill:#475977;}.cls-2{fill:#002147;}.cls-3{fill:#1c395b;}.cls-4{fill:#fff;}.cls-5{fill:#aab5c2;}.cls-6{fill:#556b84;stroke:#f03826;stroke-width:0.84px;}.cls-6,.cls-7{stroke-miterlimit:10;}.cls-7{fill:none;stroke:#002147;stroke-width:0.82px;}.cls-8{fill:#f4887d;}.cls-9{fill:#f03826;}.cls-10{fill:#fffffc;}</style></defs><g id="Layer_2" data-name="Layer 2"><g id="icons"><circle class="cls-1" cx="63.04" cy="63.04" r="63.04"/><polygon class="cls-2" points="97.81 104.12 36.86 68.94 36.86 22.38 97.81 57.57 97.81 104.12"/><polygon class="cls-3" points="93.68 106.52 32.74 71.34 32.74 24.78 93.68 59.97 93.68 106.52"/><polygon class="cls-4" points="89.28 109.11 28.34 73.92 28.34 27.36 89.28 62.55 89.28 109.11"/><polygon class="cls-5" points="40.24 45.36 30.75 39.88 30.75 33.57 40.24 39.05 40.24 45.36"/><polygon class="cls-6" points="40.24 55.56 30.75 50.08 30.75 43.77 40.24 49.25 40.24 55.56"/><polygon class="cls-5" points="40.24 65.77 30.75 60.29 30.75 53.98 40.24 59.46 40.24 65.77"/><polygon class="cls-5" points="40.24 75.98 30.75 70.5 30.75 64.19 40.24 69.67 40.24 75.98"/><polygon class="cls-5" points="85.96 102.37 42.2 77.11 42.2 40.18 85.96 65.44 85.96 102.37"/><line class="cls-7" x1="46.22" y1="47.12" x2="81.03" y2="67.22"/><line class="cls-7" x1="46.22" y1="52.05" x2="81.03" y2="72.14"/><line class="cls-7" x1="46.22" y1="56.97" x2="81.03" y2="77.07"/><line class="cls-7" x1="46.22" y1="61.89" x2="81.03" y2="81.99"/><line class="cls-7" x1="46.22" y1="66.81" x2="67.07" y2="78.85"/><path class="cls-8" d="M79.39,62.5c0-8.51,6-18.87,13.35-23.13,3.64-2.1,6.93-2.32,9.34-1l1.58.88.53,1a11.29,11.29,0,0,1,1.91,6.81c0,8.52-6,18.87-13.36,23.13A11.29,11.29,0,0,1,86,72l-.8.2-2-1.16C80.81,69.58,79.39,66.65,79.39,62.5Z"/><ellipse class="cls-9" cx="94.46" cy="55.75" rx="18.89" ry="10.9" transform="translate(-1.05 109.68) rotate(-60)"/><path class="cls-10" d="M92.31,46.93l4.56-5.62,0,2.31a5.19,5.19,0,0,1,5.52,1.26c2.26,2.46,2.28,7.53,0,12.6l-1.08-.23c1.93-4.38,1.91-8.76,0-10.89a4.41,4.41,0,0,0-4.45-1.17v2.19Z"/><path class="cls-10" d="M86.45,54.13l1.09.23c-1.93,4.38-1.92,8.76,0,10.89A4.42,4.42,0,0,0,92,66.42V64.23l4.52.45L92,70.3V68a5.2,5.2,0,0,1-5.52-1.26C84.23,64.27,84.22,59.2,86.45,54.13Z"/></g></g></svg>