<svg xmlns="http://www.w3.org/2000/svg" viewBox="0 0 118.35 182.99"><defs><style>.cls-1,.cls-3{fill:#ffc343;}.cls-14,.cls-2,.cls-4{fill:#fff;}.cls-12,.cls-2,.cls-4,.cls-5{stroke:#ffb414;}.cls-12,.cls-2,.cls-3,.cls-4,.cls-5{stroke-miterlimit:10;}.cls-2{stroke-width:0.67px;}.cls-3{stroke:#ffc343;}.cls-3,.cls-5{stroke-width:1.46px;}.cls-4{stroke-width:0.66px;}.cls-5{fill:#ffb414;}.cls-6{fill:#99a6b5;}.cls-7{fill:#92461e;}.cls-8{fill:#d6dbe1;}.cls-9{fill:#742d10;}.cls-10{fill:#002147;}.cls-11{fill:#5d1905;}.cls-12,.cls-15{fill:none;}.cls-12{stroke-width:2.9px;}.cls-13{fill:#8e9dad;}.cls-15{stroke:#000;stroke-linecap:round;stroke-linejoin:round;stroke-width:0.35px;}</style></defs><g id="Layer_2" data-name="Layer 2"><g id="illustrations"><path class="cls-1" d="M97.65,141.74c.16-.32,2.55-9.42,2.55-9.42l-5.47-1L89,134.08s-5.8-2.58-5.22.07-1.86-.81.59,2.65,2.17,3.45,2.17,3.45Z"/><circle class="cls-1" cx="91.93" cy="130.22" r="8.52"/><circle class="cls-2" cx="87.99" cy="89.11" r="7.6"/><polygon class="cls-2" points="86.83 135.44 97.28 135.44 95.78 88.98 80.61 88.98 86.83 135.44"/><circle class="cls-2" cx="88.18" cy="89.3" r="7.6"/><path class="cls-3" d="M81.25,89c0-.12,0-.23,0-.35v-.06h0a7.68,7.68,0,0,1,15.33.52h0l2.94,39.5c-.2,6.08-2,5.4-3,7.09h0v.1l-10.63-.37h0a12.79,12.79,0,0,1-2-6.14L81.55,91.38A7.7,7.7,0,0,1,81.25,89Z"/><path class="cls-4" d="M80.61,134.15H38.54c.53-11.86-8.94-40.95-11.92-52l27.06-9.61H63.79L91,82.16C86.05,94.91,79.81,127.39,80.61,134.15Z"/><circle class="cls-2" cx="29.57" cy="89.11" r="7.6"/><path class="cls-1" d="M37,90.78c0-.12,0-.23.07-.35l0-.06h0a7.68,7.68,0,0,0-14.88-3.72h0L5.86,126.7c-1.48,5.89,3.08,2.84,3.58,4.74h0l0,.1,10.32,2.58h0a12.73,12.73,0,0,0,3.63-5.34L36.07,93A7.6,7.6,0,0,0,37,90.78Z"/><path class="cls-5" d="M91.25,82,64,72.12H53.9L26.84,82c3,11.38,12.77,51.23,5.31,65.21-3.3,6.17,14.1,11.41,27.7,10.76,16.7-.48,29.48-6.28,27.52-11.92C81.45,129,88.76,88.62,91.25,82Z"/><polygon class="cls-6" points="51.69 70.77 66.39 70.77 66.39 72.96 60.82 77.07 56.87 77.07 51.69 70.77"/><path class="cls-6" d="M62.64,80.2l-3.12-3.37-1.34.24-2.72,3.3A15.16,15.16,0,0,0,62.64,80.2Z"/><path class="cls-7" d="M65,73c-.13.15-4,4.49-7.35,4.05-2.37-.31-4-4.12-4.3-4.49.42-4.86,1.31-9.72,1.73-14.58h7.29Z"/><path class="cls-3" d="M59,80.1c-4.24,0-7.86-3-9.38-6.55l-3.46,1.32c2.07,5,7.43,8.9,12.84,8.9s10.52-4,12.59-9l-3.08-1.24C67,77,63.23,80.1,59,80.1Z"/><polygon class="cls-8" points="54.7 81.69 49.19 73.36 51.69 70.77 59.06 76.92 54.7 81.69"/><polygon class="cls-8" points="63.38 81.69 68.88 73.36 66.39 70.77 59.01 76.92 63.38 81.69"/><path class="cls-9" d="M53.85,67.61a13.6,13.6,0,0,0,4.88.61,14,14,0,0,0,5.18-1.34L63,58.66H54.71Q54.29,63.15,53.85,67.61Z"/><circle class="cls-10" cx="60.3" cy="38.92" r="20.29"/><path class="cls-7" d="M74.8,45.68C73.71,57.82,66.07,67.05,57.7,66.3S43.47,55.09,44.56,43,53.07,24.28,61.42,25,75.9,33.54,74.8,45.68Z"/><circle class="cls-10" cx="66.5" cy="47.46" r="0.92"/><path class="cls-10" d="M69.57,48.21A2.51,2.51,0,0,0,68.71,47a3.54,3.54,0,0,0-1.24-.66,3.67,3.67,0,0,0-1.4-.16,2.83,2.83,0,0,0-1.37.46v.08a9.41,9.41,0,0,1,2.53.4,8,8,0,0,1,1.19.47,7.16,7.16,0,0,1,1.1.64Z"/><circle class="cls-10" cx="50.82" cy="45.84" r="0.92"/><path class="cls-10" d="M48.87,46a2.57,2.57,0,0,1,1.09-1,3.72,3.72,0,0,1,2.75-.23,2.7,2.7,0,0,1,1.24.74l0,.08a9,9,0,0,0-2.54-.15,7.81,7.81,0,0,0-1.27.2,7.46,7.46,0,0,0-1.21.4Z"/><path class="cls-10" d="M55.93,42.46A7.83,7.83,0,0,0,54,41.28a7.4,7.4,0,0,0-1-.42,5.17,5.17,0,0,0-2.43-.09,4.59,4.59,0,0,0-1.15.39,4.24,4.24,0,0,0-1.77,1.55l0,.08a9,9,0,0,1,1.94-.91,6,6,0,0,1,2.11-.26,8.37,8.37,0,0,1,2.1.39q1.05.29,2.1.54Z"/><path class="cls-10" d="M63.42,42.87a7.68,7.68,0,0,1,2.2-.5,8,8,0,0,1,1.13-.06,6.13,6.13,0,0,1,1.21.21,6.61,6.61,0,0,1,1.13.48,5.34,5.34,0,0,1,1,.74,4.28,4.28,0,0,1,1.18,2l-.07.06a9.48,9.48,0,0,0-1.55-1.49,6.19,6.19,0,0,0-1.92-.92,8.75,8.75,0,0,0-2.12-.31c-.72,0-1.44-.1-2.16-.16Z"/><path class="cls-9" d="M61.89,55.65l-3.37-.3.77-8.6.49-.27,0,7.09a2.15,2.15,0,0,0,.59,1.5Z"/><path class="cls-9" d="M54.4,58.52a8.89,8.89,0,0,0,2.05.76,12,12,0,0,0,1.83.29,11.28,11.28,0,0,0,1.84,0,8.37,8.37,0,0,0,2.14-.42,3,3,0,0,1-1.56,2.07,4.5,4.5,0,0,1-2.61.55,4.58,4.58,0,0,1-2.47-1A3,3,0,0,1,54.4,58.52Z"/><path class="cls-9" d="M53.07,58.5a6.87,6.87,0,0,1,2.74-.93,12.52,12.52,0,0,1,2.66-.06,14.88,14.88,0,0,1,5.19,1.34A5.88,5.88,0,0,1,61,60.06a9.77,9.77,0,0,1-2.74.16,11.78,11.78,0,0,1-2.63-.52A11.32,11.32,0,0,1,53.07,58.5Z"/><polygon class="cls-11" points="58.41 56.49 58.52 55.35 61.89 55.65 58.41 56.49"/><polygon class="cls-9" points="58.43 56.5 58.53 55.35 55 55.03 58.43 56.5"/><path class="cls-9" d="M62,45a3.41,3.41,0,0,0-2.7,1.76l-.17,2A5.29,5.29,0,0,1,62,45Z"/><path class="cls-9" d="M49.19,28.33s1.33,7.47,12.94,9,11.72,5.52,12.12,8.89c0,0,1.36-7.42-.28-10.42S49.19,28.33,49.19,28.33Z"/><path class="cls-10" d="M49,27.82s1.58,7.75,17.16,8.62a6.32,6.32,0,0,1,3.07,1c2.44,1.55,6.27,5.36,4.63,13.34l1,.11,1.06-15.53-5.65-8.6L59.15,23.28Z"/><circle class="cls-10" cx="63.05" cy="12.08" r="12.08"/><path class="cls-12" d="M53.1,19.17a24.11,24.11,0,0,1,9.57-1.37,24,24,0,0,1,8.83,3.29"/><rect class="cls-13" y="137.12" width="118.35" height="45.87"/><polygon class="cls-14" points="82.08 143.84 31.45 143.84 41.47 138.45 72.06 138.45 82.08 143.84"/><path class="cls-7" d="M39.73,128.69c.28,0,11.44-1.16,11.44-1.16l-2.56,9.59-9.16-.37Z"/><path class="cls-7" d="M55.63,124.32a35.1,35.1,0,0,0,5,2,2.84,2.84,0,0,1,2.64,2.08,26.73,26.73,0,0,0,.75,3.5c.3.62.88,1.47.3,2s-2.09.48-3.1-1a6.67,6.67,0,0,1-1.16-2.61,11.36,11.36,0,0,1-3.26-.26"/><polygon class="cls-10" points="63.94 138.89 63.95 140.87 62.58 139.44 53.48 117.07 54.84 116.52 63.94 138.89"/><line class="cls-15" x1="62.58" y1="139.44" x2="63.94" y2="138.89"/><path class="cls-7" d="M47,135.62s2.63,2.48,3.29,3,3,.27,3.47.1a1.22,1.22,0,0,0,.94-1.17,1.41,1.41,0,0,0-1.39-1.31,4.21,4.21,0,0,1-2.14-.63c-.28-.29-1.78-2-1.78-2"/><path class="cls-7" d="M48.61,133.93s2.89,3.45,3.57,4.09,3.4.71,4,.58a1.43,1.43,0,0,0,1.24-1.22,1.66,1.66,0,0,0-1.43-1.7,5,5,0,0,1-2.38-1c-.29-.38-2.57-3.76-2.57-3.76"/><path class="cls-7" d="M50.61,131.23a14.71,14.71,0,0,1,1.9,2.11,14.11,14.11,0,0,0,1.69,2.15,38,38,0,0,0,3.86,3.11c.6.36,1.65,0,2.2-.35a1.53,1.53,0,0,0,0-2.21c-.69-.68-3.58-3.39-3.58-3.39l-3.32-4.3"/><path class="cls-7" d="M57,126l2.47,4.06,2.64,3.67a13.5,13.5,0,0,1,1.85,3c.13.78,0,1.24-.33,1.52a1.55,1.55,0,0,1-2.2-.23,67.78,67.78,0,0,1-5-5.37l-3.12-4.22"/><path class="cls-7" d="M57,126c-1.39-2.64-3-2.09-3.64-1.69s-1.06,1-1.79,1.37-1.84.46-2.43,1.1-.28,1.43-.55,2.16-1.29,1.05-1.33,2.39-.33,1.14-.74,1.83a2.13,2.13,0,0,0-.06,1.62,3.17,3.17,0,0,0,.76,1"/><polygon class="cls-1" points="12.64 122.25 45.13 126.04 43.54 137.09 12.56 137.12 12.64 122.25"/><circle class="cls-1" cx="13.17" cy="129.36" r="7.78"/></g></g></svg>