<svg xmlns="http://www.w3.org/2000/svg" viewBox="0 0 768.75 836.91"><defs><style>.cls-1{fill:#ab99ad;}.cls-14,.cls-16,.cls-2,.cls-3,.cls-5{fill:none;}.cls-2{stroke:#334d6c;}.cls-14,.cls-2,.cls-3,.cls-5{stroke-linecap:round;stroke-linejoin:round;stroke-width:19.81px;}.cls-3{stroke:#57335b;}.cls-4{fill:#fff;}.cls-5{stroke:#002147;}.cls-6{fill:#002147;}.cls-7{fill:#667a91;}.cls-8{fill:#334d6c;}.cls-9{fill:#57335b;}.cls-10{fill:#99a6b5;}.cls-11{fill:#ccd3da;}.cls-12{fill:#ec3826;}.cls-13{fill:#2d0032;}.cls-14{stroke:#2d0032;}.cls-15{fill:#9a859d;}.cls-16{stroke:#ec3826;stroke-miterlimit:10;stroke-width:0.92px;}</style></defs><g id="Layer_2" data-name="Layer 2"><g id="not_layered" data-name="not layered"><ellipse class="cls-1" cx="549.47" cy="642.69" rx="25.26" ry="14.58"/><line class="cls-2" x1="535.97" y1="679.53" x2="678.58" y2="696.96"/><line class="cls-3" x1="549.47" y1="642.69" x2="692.09" y2="660.12"/><ellipse class="cls-4" cx="549.47" cy="642.69" rx="3.44" ry="1.98"/><polyline class="cls-5" points="692.09 660.12 678.6 696.91 758.84 766.13"/><ellipse class="cls-4" cx="692.09" cy="660.12" rx="3.44" ry="1.98"/><ellipse class="cls-4" cx="678.91" cy="696.08" rx="3.44" ry="1.98"/><path class="cls-6" d="M446.47,514.45h0a64.28,64.28,0,0,1,4.13,21.61c0,9.94-3.06,17.29-8.14,21.46-.28.23-.57.43-.86.64v0l-.11.06a16.71,16.71,0,0,1-2.72,1.57l-11.49,6.66,6.57-9.23c3.78-12.1-16.32-81.31-15.06-80.43l-22-62.89a100.3,100.3,0,0,0,11.9-7.37Z"/><path class="cls-7" d="M376.53,534.81c-.93-1.72-1.79-3.48-2.6-5.25L330.4,441.82l64-34.66,40,114.21h0A64.37,64.37,0,0,1,438.53,543c0,22.71-15.94,31.92-35.61,20.56-10.46-6-19.87-16.67-26.38-28.72h0Z"/><ellipse class="cls-6" cx="402.92" cy="522.42" rx="21.59" ry="37.39" transform="matrix(0.87, -0.5, 0.5, 0.87, -207.23, 271.45)"/><path class="cls-8" d="M230,542.08l150-86.91h0c8.91-5.28,21.28-4.6,35,3.3a76.2,76.2,0,0,1,11.16,7.93v0l79.4,66.94v68.27L429,577.78l-76.95,44.43-9.86-5.7c-7.68,3.31-24.07,10.29-24.35,9.65-.37-.84-42.77-41.85-42.77-41.85l-48.59-40.22Z"/><polygon class="cls-7" points="352.08 690.48 505.45 601.93 505.45 533.67 352.08 622.21 352.08 690.48"/><path class="cls-9" d="M261.52,547.35a76.5,76.5,0,0,1,11.16,7.94v0l79.4,66.94v68.27l-79.24-24.69v0a54.22,54.22,0,0,1-11.32-5c-27.12-15.66-49.11-53.74-49.11-85.06S234.4,531.7,261.52,547.35Z"/><path class="cls-6" d="M378.38,532.11l64.93,10.63c-.55-8-4.41-15.65-12-23.55Z"/><path class="cls-6" d="M378.38,532.11l28.91,40.95c23.38-2.65,37.13-14.22,36-30.32Z"/><path class="cls-6" d="M378.38,532.11l-62.91-21.9c-9,19.46,11.8,45,46.54,57.12,15.77,5.49,30.69,7.38,45.28,5.73Z"/><path class="cls-6" d="M378.38,532.11l53-12.92c-20.8-21.77-61.38-33.63-90.63-26.5-13.29,3.24-21.14,8.69-25.24,17.52Z"/><path class="cls-7" d="M378.37,532.1l54,8.85c-.46-6.69-3.68-13-10-19.59Z"/><path class="cls-10" d="M378.37,532.1l24.06,34.06c19.44-2.2,30.87-11.82,30-25.21Z"/><path class="cls-11" d="M378.37,532.1l-52.32-18.2c-7.51,16.18,9.82,37.45,38.71,47.5,13.12,4.57,25.53,6.14,37.67,4.76Z"/><path class="cls-12" d="M378.37,532.1l44.06-10.74c-17.3-18.1-51.06-28-75.39-22-11,2.69-17.57,7.23-21,14.58Z"/><path class="cls-9" d="M415.24,620.94c0-7.61,5.34-16.87,11.93-20.68,3.06-1.76,5.85-2,8-1.06v0l.18.11.56.32,32.26,18.63-8.68,11.68-8.06,17.6-32.66-18.85h0C416.58,627.43,415.24,624.75,415.24,620.94Z"/><ellipse class="cls-13" cx="459.46" cy="632.7" rx="16.88" ry="9.75" transform="translate(-318.21 714.25) rotate(-60)"/><line class="cls-2" x1="503.41" y1="698.33" x2="533.59" y2="780.67"/><line class="cls-2" x1="439.59" y1="706.13" x2="469.77" y2="788.47"/><ellipse class="cls-4" cx="439.59" cy="706.13" rx="3.44" ry="1.98"/><polyline class="cls-5" points="469.77 788.47 533.5 780.68 653.4 827.01"/><ellipse class="cls-4" cx="469.77" cy="788.47" rx="3.44" ry="1.98"/><ellipse class="cls-4" cx="532.06" cy="780.86" rx="3.44" ry="1.98"/><path class="cls-7" d="M396.17,721.59l-7.95-24.88-.32-41,66.63-4.38,60.74-35.07c4.69-2.7,11.38-3.91,17.9-3.21l43.09,4.59c8.42.89,23.48-1.23,23.48-1.23l-.23,36.87c.23,4.57-1.12,7.39-5.67,10l-59.29,34.24-59.3,34.23c-4.55,2.63-11,3.84-17.34,3.27l-45-4C404.43,730.21,397.72,726.45,396.17,721.59Z"/><path class="cls-8" d="M396.17,683l-7.95-24.88c-1.2-3.76.88-7.62,5.57-10.33l60.74-35.07,60.74-35.07c4.69-2.7,11.38-3.9,17.9-3.21l43.09,4.59c8.42.9,14.93,4.77,16.25,9.65l7,26c1,3.66-1.12,7.38-5.67,10L534.55,659l-59.3,34.24c-4.55,2.62-11,3.83-17.34,3.26l-45-4C404.43,691.66,397.72,687.9,396.17,683Z"/><ellipse class="cls-1" cx="439.59" cy="667.58" rx="25.26" ry="14.58"/><line class="cls-3" x1="503.41" y1="659.79" x2="533.59" y2="742.13"/><line class="cls-3" x1="439.59" y1="667.58" x2="469.77" y2="749.92"/><ellipse class="cls-4" cx="439.59" cy="667.58" rx="3.44" ry="1.98"/><polyline class="cls-14" points="469.77 749.92 533.5 742.14 653.4 788.46"/><ellipse class="cls-4" cx="469.77" cy="749.92" rx="3.44" ry="1.98"/><ellipse class="cls-4" cx="532.06" cy="742.31" rx="3.44" ry="1.98"/><ellipse class="cls-1" cx="549.47" cy="604.14" rx="25.26" ry="14.58"/><line class="cls-3" x1="535.97" y1="640.99" x2="678.58" y2="658.41"/><line class="cls-3" x1="549.47" y1="604.14" x2="692.09" y2="621.57"/><ellipse class="cls-4" cx="549.47" cy="604.14" rx="3.44" ry="1.98"/><polyline class="cls-14" points="692.09 621.57 678.6 658.36 758.84 727.58"/><ellipse class="cls-4" cx="692.09" cy="621.57" rx="3.44" ry="1.98"/><ellipse class="cls-4" cx="678.91" cy="657.53" rx="3.44" ry="1.98"/><path class="cls-6" d="M12.07,138.42c0-16.1,4.08-28.73,11.12-37.25l-2.7-1.07L31.6,93.76q1.29-.8,2.64-1.47h0L181.91,7.42h0c12.81-10.18,32-10.27,53.46,2.12,27.34,15.78,51,47.59,62.46,80.64h0L408.67,406.56a100.3,100.3,0,0,1-11.9,7.37l-2.37-6.77L251.51,484.54,293,603h0a64.37,64.37,0,0,1,4.13,21.61c0,10-3.06,17.3-8.14,21.47-.28.23-.57.43-.85.64h0l-.11.07a16.71,16.71,0,0,1-2.72,1.57L273.83,655l-1.11-5.47a37,37,0,0,1-11.2-4.37c-10.45-6-19.86-16.68-26.37-28.73h0c-.93-1.72-1.8-3.48-2.61-5.25L28.35,199.58h0C18.19,179.7,12.07,158.12,12.07,138.42Z"/><polygon class="cls-13" points="145.86 164.14 249.32 462.45 383.15 390.08 277.24 88.2 145.86 164.14"/><polygon class="cls-15" points="246.03 423.4 252.08 440.85 356.67 384.07 350.62 366.63 246.03 423.4"/><polygon class="cls-15" points="235.5 393.02 241.54 410.46 346.13 353.69 340.08 336.25 235.5 393.02"/><polygon class="cls-15" points="224.96 362.64 231.01 380.08 335.59 323.31 329.55 305.87 224.96 362.64"/><polygon class="cls-15" points="214.42 332.26 220.47 349.7 325.06 292.93 319.01 275.49 214.42 332.26"/><polygon class="cls-15" points="203.89 301.88 209.94 319.32 314.52 262.55 308.47 245.11 203.89 301.88"/><polygon class="cls-15" points="193.35 271.5 199.4 288.94 303.99 232.17 297.94 214.73 193.35 271.5"/><polygon class="cls-15" points="182.81 241.12 188.86 258.56 293.45 201.79 287.4 184.34 182.81 241.12"/><polygon class="cls-15" points="172.28 210.74 178.33 228.18 282.91 171.41 276.87 153.96 172.28 210.74"/><polygon class="cls-15" points="161.74 180.36 167.79 197.8 272.38 141.02 266.33 123.58 161.74 180.36"/><polygon class="cls-12" points="246.03 423.4 252.08 440.85 341.44 392.34 335.39 374.9 246.03 423.4"/><polygon class="cls-12" points="235.5 393.02 241.54 410.46 284.32 387.25 278.27 369.8 235.5 393.02"/><polygon class="cls-12" points="224.96 362.64 231.01 380.08 260.22 364.23 254.17 346.79 224.96 362.64"/><polygon class="cls-12" points="214.42 332.26 220.47 349.7 267.06 324.41 261.01 306.97 214.42 332.26"/><polygon class="cls-12" points="203.89 301.88 209.94 319.32 247.19 299.1 241.14 281.66 203.89 301.88"/><polygon class="cls-12" points="193.35 271.5 199.4 288.94 257.82 257.23 251.78 239.78 193.35 271.5"/><polygon class="cls-12" points="182.81 241.12 188.86 258.56 278.23 210.05 272.18 192.61 182.81 241.12"/><polygon class="cls-12" points="172.28 210.74 178.33 228.18 228.72 200.82 222.68 183.38 172.28 210.74"/><polygon class="cls-12" points="161.74 180.36 167.79 197.8 199.3 180.69 193.25 163.25 161.74 180.36"/><polyline class="cls-16" points="370.94 385.12 254.59 448.04 158.07 169.73"/><path class="cls-7" d="M16.28,206.5h0C6.13,186.62,0,165,0,145.33,0,100.79,31.27,82.74,69.84,105c27.34,15.79,51,47.6,62.46,80.65h0L280.94,609.93h0a64.33,64.33,0,0,1,4.13,21.61c0,22.71-15.94,31.92-35.61,20.56-10.46-6-19.86-16.67-26.38-28.72h0c-.93-1.72-1.79-3.48-2.6-5.25Z"/><ellipse class="cls-6" cx="249.46" cy="610.98" rx="21.59" ry="37.39" transform="translate(-272.07 206.59) rotate(-30)"/><ellipse class="cls-6" cx="64.03" cy="176.55" rx="39.7" ry="68.77" transform="translate(-79.7 55.67) rotate(-30)"/></g></g></svg>