<svg xmlns="http://www.w3.org/2000/svg" viewBox="0 0 444.82 820.95"><defs><style>.cls-1,.cls-13{fill:#ccd3da;}.cls-1{opacity:0.4;}.cls-2{fill:#d59674;}.cls-3{fill:#002147;}.cls-4{fill:#99a6b5;}.cls-5{fill:#e0b097;}.cls-6{fill:#985d3d;}.cls-7{fill:#92461e;}.cls-8{fill:#c77c51;}.cls-9{opacity:0.2;}.cls-10{fill:#cb7c51;}.cls-11{fill:#2d0032;stroke:#2d0032;stroke-miterlimit:10;stroke-width:1.46px;}.cls-12{fill:#ffb014;}.cls-14{fill:#fff;}.cls-15{fill:#667a91;}.cls-16{fill:#57335b;}</style></defs><g id="Layer_2" data-name="Layer 2"><g id="Layer_1-2" data-name="Layer 1"><circle class="cls-1" cx="222.41" cy="277.27" r="222.41"/><path class="cls-2" d="M284.38,297.77,288,320l7.86-3.4s2.56-9.47,2.67-11.6-2.12-7.2-2.12-7.2Z"/><path class="cls-3" d="M221.1,361.56v76.91h-1.78c-42.18,0-74-5.34-75.43-26.53-4-58.07,33.25-50.4,75.43-50.4Z"/><path class="cls-3" d="M220.86,361.56v76.91h1.78c42.18,0,74.15-4.94,75.61-26.13,4-58.07-33.43-50.8-75.61-50.8Z"/><path class="cls-3" d="M162.24,144.87c1.36-5.09-.1-5.74-2.36-10.44-2.94-6.12-5.45-14.36-.72-19.06a13.57,13.57,0,0,0,3-3.42c1.83-3.71-1.57-11.26-3.64-14.77-14.53-24.61,6-51.89,9.69-61.83,2.7-7.21,5.61,36.68,9.14,30.2l-.16,5.94,14,16c-.43,16.52,3,20.82,15.55,30.25,6,24.42.77,38.73.77,38.73-8.48,2.69-29.45,8-31.81,13.34-.05.17-1.85,6.75,4,10.76,5.29,3.65,7.21,12.13-.4,20.39,0,0,3.19-7-6.18-9.62-.62-.13-1.23-.25-1.84-.42l-.24-.06v0c-6.92-2-17.73-5.86-21.13-12.52-4-7.88-2.76-19.55,3.64-25.41C156.4,150.39,161.22,148.65,162.24,144.87Z"/><polygon class="cls-4" points="199.1 148.5 242.12 148.5 242.12 154.88 225.83 166.93 214.27 166.93 199.1 148.5"/><path class="cls-2" d="M146.27,335.53c1.91-2.64,3.65-5.35,5.32-8.09s3.27-5.51,4.84-8.3l.2-.37c1.16-1.64,2.31-3.29,3.36-5a47.28,47.28,0,0,0,2.92-5.26,3.69,3.69,0,0,1,6.7,3.11,4.65,4.65,0,0,1-.36.61,45.71,45.71,0,0,0-3.17,5.11c-1,1.75-1.86,3.56-2.72,5.38l.19-.38c-1,3-2.06,6.05-3,9.13s-1.81,6.17-2.51,9.35A6.6,6.6,0,0,1,145.18,338,6.79,6.79,0,0,1,146.27,335.53Z"/><polygon class="cls-5" points="211.55 152.94 145.02 177.32 145.02 213.44 221.73 213.44 221.73 152.94 211.55 152.94"/><polygon class="cls-5" points="231.89 152.94 298.42 177.32 298.42 213.44 221.71 213.44 221.71 152.94 231.89 152.94"/><ellipse class="cls-2" cx="263.78" cy="83.01" rx="12.76" ry="6" transform="translate(145.23 332.84) rotate(-82.08)"/><path class="cls-2" d="M237.89,158.58c-.46.53-8.43,9.47-20.35,7.91a22.55,22.55,0,0,1-14.21-7.91q1-11.51,2-23,1.23-14.19,2.45-28.39h25.68l2.5,29Z"/><path class="cls-6" d="M236,136.17A30.68,30.68,0,0,1,221.72,140a31.13,31.13,0,0,1-16.4-4.45q1.23-14.19,2.45-28.39h25.68Z"/><path class="cls-2" d="M262.87,71.83c.61,33.93-17.75,61.78-41.15,62.21S179,107.29,178.35,73.36s17.94-54.24,41.28-54.66S262.25,37.9,262.87,71.83Z"/><path class="cls-3" d="M181.39,89.6c-2.86-21.81,7.05-27.11,7.05-27.11,35.64-3.22,49.73-27.94,49.73-27.94S242,55,261.27,67c0,0,1.66,1,1.53,10.31a19.8,19.8,0,0,0,10-10.32c4.52-10.28,4.33-15.7-.49-30.29-8.94-27-23.56-28-32.77-24.34,0,0-10.28-14.09-24.51-12.13S171.9,9.2,163,46.06c0,0,.71,3.32,1.67,3,0,0-8.22,13.25,5.73,51.55,0,0,4.92,7.2,12,7.33a9,9,0,0,0,1.88-2.17Z"/><circle class="cls-3" cx="200.62" cy="79.81" r="2.54"/><path class="cls-3" d="M193.24,81a7.2,7.2,0,0,1,2.56-3.12A10.47,10.47,0,0,1,203.23,76a7.79,7.79,0,0,1,3.72,1.5l0,.22a32.31,32.31,0,0,0-3.55.1,21.48,21.48,0,0,0-3.48.61,20.71,20.71,0,0,0-3.37,1.09,20.36,20.36,0,0,0-3.15,1.62Z"/><circle class="cls-3" cx="242.84" cy="79.81" r="2.54"/><path class="cls-3" d="M250.22,81a7.2,7.2,0,0,0-2.56-3.12A10.44,10.44,0,0,0,240.23,76a7.79,7.79,0,0,0-3.72,1.5l0,.22a32.31,32.31,0,0,1,3.55.1,21.79,21.79,0,0,1,3.49.61,21.35,21.35,0,0,1,3.37,1.09,20.72,20.72,0,0,1,3.14,1.62Z"/><path class="cls-3" d="M187.28,73.61c.78-2.38,2.9-4.14,5.14-5.26a19.73,19.73,0,0,1,7.33-1.78,19.37,19.37,0,0,1,3.73.21,15.73,15.73,0,0,1,3.7,1.15A14.82,14.82,0,0,1,213,72.44a27.9,27.9,0,0,1-7-.85,30.07,30.07,0,0,0-3-.59c-1.06,0-2.14-.21-3.19-.24a21.67,21.67,0,0,0-6.33.31A17.65,17.65,0,0,0,187.28,73.61Z"/><path class="cls-3" d="M256.18,73.61a17.6,17.6,0,0,0-6.11-2.54,21.67,21.67,0,0,0-6.33-.31c-1.06,0-2.14.19-3.2.24a30.07,30.07,0,0,0-3,.59,27.84,27.84,0,0,1-7,.85,14.82,14.82,0,0,1,5.78-4.51,15.88,15.88,0,0,1,3.7-1.15,19.37,19.37,0,0,1,3.73-.21A19.73,19.73,0,0,1,251,68.35,9.69,9.69,0,0,1,256.18,73.61Z"/><polygon class="cls-7" points="221.73 106.22 221.73 103.04 230.81 102.74 221.73 106.22"/><polygon class="cls-8" points="221.73 106.22 221.73 103.04 212.66 102.74 221.73 106.22"/><path class="cls-8" d="M230.81,102.74l-3.24-2.22a6,6,0,0,1-2.41-4.68l-1.61-9.57a12.9,12.9,0,0,1,4.87-12.47l.1-.07a6.36,6.36,0,0,0-6.81,3.63l0,7.3V103Z"/><path class="cls-6" d="M210.22,111.8a15.27,15.27,0,0,0,5.76,2.47,30.44,30.44,0,0,0,5.94.66,29.4,29.4,0,0,0,5.94-.46c1.94-.42,3.85-.89,5.4-2.67a5.06,5.06,0,0,1-1.35,3.39,9.78,9.78,0,0,1-3,2.24,15.42,15.42,0,0,1-7.07,1.5,15.62,15.62,0,0,1-7-1.74A8.69,8.69,0,0,1,210.22,111.8Z"/><path class="cls-6" d="M207.44,112.16a29.28,29.28,0,0,1,7.49-1.74,65.2,65.2,0,0,1,7.5-.39c2.49,0,5,.14,7.44.36a72.9,72.9,0,0,1,7.52,1,26.06,26.06,0,0,1-7.43,2.1,50.49,50.49,0,0,1-7.55.5,64.78,64.78,0,0,1-7.49-.47A57.71,57.71,0,0,1,207.44,112.16Z"/><g class="cls-9"><circle class="cls-6" cx="209.93" cy="92.7" r="0.85"/><circle class="cls-6" cx="202.73" cy="88.5" r="0.85"/><circle class="cls-6" cx="199.5" cy="93.69" r="0.85"/><circle class="cls-6" cx="201.82" cy="99.64" r="0.85"/><circle class="cls-6" cx="192.24" cy="93.44" r="0.85"/><circle class="cls-6" cx="206.25" cy="96.16" r="0.85"/><circle class="cls-6" cx="195.47" cy="97.97" r="0.85"/></g><g class="cls-9"><circle class="cls-6" cx="233.26" cy="91.97" r="0.8"/><circle class="cls-6" cx="238.97" cy="86.6" r="0.8"/><circle class="cls-6" cx="243.03" cy="90.68" r="0.8"/><circle class="cls-6" cx="242.16" cy="96.62" r="0.8"/><circle class="cls-6" cx="249.63" cy="88.92" r="0.8"/><circle class="cls-6" cx="237.36" cy="94.37" r="0.8"/><circle class="cls-6" cx="247.63" cy="93.76" r="0.8"/></g><path class="cls-8" d="M238.9,116.69a10.73,10.73,0,0,0,.61-3.21,6,6,0,0,0-.18-1.5c-.11-.53-.3-1-.46-1.69a3.28,3.28,0,0,1,1.4,1.29,3.49,3.49,0,0,1,.55,1.9,3.71,3.71,0,0,1-.53,1.91A3.07,3.07,0,0,1,238.9,116.69Z"/><path class="cls-8" d="M204.52,116.69a3.09,3.09,0,0,1-1.4-1.3,3.81,3.81,0,0,1-.53-1.91,3.57,3.57,0,0,1,.55-1.9,3.28,3.28,0,0,1,1.4-1.29c-.15.64-.35,1.16-.46,1.69a6,6,0,0,0-.18,1.5A10.46,10.46,0,0,0,204.52,116.69Z"/><path class="cls-10" d="M50.6,263.15l73.11-65.59c9.22-7.85,24-6.16,31.85,3.06s6.73,21.32,4,26.38c-.34.61-1.08.88-1.64,1.27L156.68,225,76.91,277.27l-1.49,8.47c-7.74,5.39-21,7.17-26.41-.57C44,277.9,44,268.79,50.6,263.15Z"/><path class="cls-2" d="M135.58,350.79,52.36,291.38a18.17,18.17,0,0,1-4.19-25.5,18.52,18.52,0,0,1,25.72-4.15c.72.52-8.23,1.61,0,0,0,0,24.1,33.43,39.49,46.92,12.46,10.92,36.38,29.68,36.38,29.68,4.1,4,6.77,10.44,2.78,14.51C148.9,356.53,139.68,353.72,135.58,350.79Z"/><polygon class="cls-2" points="204.9 750.21 213.15 820.22 160.79 820.22 184.41 799.56 186.97 750.21 204.9 750.21"/><polygon class="cls-2" points="238.53 750.21 230.28 820.22 282.63 820.22 259.02 799.56 256.46 750.21 238.53 750.21"/><polygon class="cls-11" points="215.24 820.22 151.87 820.22 151.87 818.16 199.93 815.07 211.12 801.69 215.24 820.22"/><polygon class="cls-11" points="229.59 820.22 292.95 820.22 292.95 818.16 244.89 815.07 233.71 801.69 229.59 820.22"/><path class="cls-12" d="M90.26,268.85s59.48-35.13,74.23-43.39c11.28-6.31,2.32-23.56-6.33-33.15l-25.68-14-69.06,67.2Z"/><circle class="cls-12" cx="152.04" cy="201.73" r="30.55"/><path class="cls-13" d="M222.25,166.49c-12.41,0-19.79-.05-24.25-10.3l-15.42,4.49c6,14.65,23.67,25.85,39.49,25.85s30.77-11.68,36.84-26.27l-11.54-3.56C242.88,166.89,234.62,166.49,222.25,166.49Z"/><polygon class="cls-14" points="55.08 249.44 87.28 278.52 106.45 262.19 73.48 230.65 55.08 249.44"/><path class="cls-3" d="M235.91,756.66l25.39-.33,11-154.8-39-2.61c-5.92,24.76-1.68,44.19-1.68,58C231.65,686.49,236.94,699,235.91,756.66Z"/><circle class="cls-3" cx="252.94" cy="597.92" r="19.74"/><path class="cls-3" d="M206.27,757.53l-25.89-.33L169.85,601.53l39-2.61c5.93,24.76,1.69,44.19,1.68,58C210.53,686.49,205.24,699.82,206.27,757.53Z"/><circle class="cls-3" cx="189.25" cy="597.92" r="19.74"/><polygon class="cls-3" points="209 598.63 169.92 601.86 144.38 417.95 222.63 413.22 209 598.63"/><circle class="cls-3" cx="180.85" cy="411.95" r="36.96"/><polygon class="cls-3" points="233.13 598.63 272.22 601.86 297.76 417.95 220.86 413.11 233.13 598.63"/><circle class="cls-3" cx="261.29" cy="411.95" r="36.96"/><path class="cls-12" d="M287.6,288.74s-10-64.11-15.27-80.18c-4-12.28,5.21-27.4,18.07-28.59l30.21,19.54,3.67,87.57Z"/><circle class="cls-12" cx="290.15" cy="201.74" r="30.55"/><path class="cls-12" d="M298.81,172.16l-46.08-13.81s-8,22.57-31.75,22.69c-24.4.44-31.82-22.28-31.82-22.28l-45.78,13.39c-6.1,2.48-9.27,16.32-7.14,22.55,13.85,40.54,25.67,106.69,25.67,113.81,0,7.81-10.51,32.3-10.75,45.6-.12,7.2-7.85,23.35-2.77,29.16,2.42,2.75,34.63,13.87,73.67,13.86,26,0,69.29-11.06,71.74-13.85,5.08-5.81-2.64-21.95-2.77-29.16-.23-13.3-10.75-37.79-10.75-45.6,0-7.12,11.82-73.27,25.67-113.81C308.08,188.48,304.91,174.64,298.81,172.16Z"/><polygon class="cls-14" points="207.91 180.44 191.81 156.06 199.1 148.5 220.68 166.49 207.91 180.44"/><polygon class="cls-14" points="233.31 180.44 249.41 156.06 242.12 148.5 220.54 166.49 233.31 180.44"/><path class="cls-2" d="M149.2,346,170,347.47H170a2.77,2.77,0,0,1,1.28.41c1.62,1,3.21,2,4.8,3.08l4.74,3.16c1.3.86.17,1.18-.7,2.47a3.56,3.56,0,0,1-2.39,1.74s-8.28-4-10-4.75l1.56.64L148.5,352.1a3.07,3.07,0,0,1,.7-6.1Z"/><path class="cls-2" d="M138,329.06s8.29,6.19,20.63-2.35c8.57-5.94-.07,36.24-17.44,27.94-1.63-.79-6.76-4.89-9.58-7.06C116.83,336.3,138,329.06,138,329.06Z"/><path class="cls-2" d="M152,328.85l11.72-10.16.21-.18a3.27,3.27,0,0,1,2.6-.76l24.59,3.52a1.37,1.37,0,0,1,1.3,1.88c-.14.55-1,2-1.9,2.05l-24.5.32,2.81-.95-11.72,10.18a3.91,3.91,0,0,1-5.12-5.9Z"/><path class="cls-2" d="M150.05,330.48l27-3.64.27,0a3.07,3.07,0,0,1,1.92.35l19.84,10.92c1.08.6-.4.95-1,2a2.89,2.89,0,0,1-3.11,1.23L176,334.55l2.19.32-27,3.5a4,4,0,0,1-1-7.89Z"/><path class="cls-2" d="M152.85,338.59l26.79-1.51h.53a2.61,2.61,0,0,1,1.6.48l12.69,8.93c1,.7.79,1.29.09,2.27a2.77,2.77,0,0,1-2.82,1.1l-14.4-6.09-20.6,2.54-3.4.95a4.76,4.76,0,0,1-5.09-4.42,4.83,4.83,0,0,1,4.49-5.1C152.8,337.73,152.78,338.59,152.85,338.59Z"/><path class="cls-2" d="M189.55,321.05l3.68.53s0,3.22-2.64,3.61Z"/><path class="cls-2" d="M196.21,336.52l4.67,2.47s-1.8,3.8-5.5,2.48l-2.72-1s1.41-1.8,1.42-1.84S196.21,336.52,196.21,336.52Z"/><path class="cls-2" d="M193.24,345.62l3.85,2.65s-2.78,2.93-5.36,1.58C189.74,348.8,193.24,345.62,193.24,345.62Z"/><path class="cls-2" d="M179.53,353.24l4.87,3.33s-3,3.67-6.81,1.68C174,356.39,179.53,353.24,179.53,353.24Z"/><polygon class="cls-14" points="323.1 306.32 282.68 304.68 283.1 284.03 328.61 285.77 323.1 306.32"/><polygon class="cls-15" points="318 194.12 318 191.28 319.83 190.71 320.7 190.71 321.45 191.92 320.51 193.8 318 194.12"/><path class="cls-15" d="M402.56,162v3.05l-2.44-.19-.58-.8a3.15,3.15,0,0,1,0-1A19.05,19.05,0,0,1,402.56,162Z"/><path class="cls-15" d="M340.17,205l-21.9-12.87a1.49,1.49,0,0,1,.36-2.08l59.68-42.19a1.49,1.49,0,0,1,2.08.35l21.9,12.87a1.5,1.5,0,0,1-.36,2.09l-59.68,42.19A1.5,1.5,0,0,1,340.17,205Z"/><path class="cls-3" d="M340.17,207.93l-21.9-12.87a1.49,1.49,0,0,1,.36-2.08l59.68-42.2a1.5,1.5,0,0,1,2.08.36L402.29,164a1.49,1.49,0,0,1-.36,2.08l-59.68,42.2A1.5,1.5,0,0,1,340.17,207.93Z"/><path class="cls-2" d="M326,211.19l17.57,6.74-29,104.31-27.26-7.5c1.27-7.28-2.8-16.93,15.24-48C307.16,258.64,320.65,227.39,326,211.19Z"/><polygon class="cls-2" points="327.1 208.67 342.49 219.49 373.39 194.2 373.79 193.75 373.95 193.52 354.06 179.53 327.1 208.67"/><circle class="cls-2" cx="334.6" cy="214.03" r="9.59"/><rect class="cls-2" x="372.21" y="179.08" width="7.39" height="14.23" transform="translate(228.83 -206.67) rotate(43.13)"/><path class="cls-2" d="M388.63,161.92h0a3.55,3.55,0,0,0-3.68,1.23l-.83,1a18,18,0,0,0-3.5,6.57l-2.54,8.75,7.26,1.27Z"/><circle class="cls-2" cx="381.63" cy="180.01" r="3.7"/><rect class="cls-2" x="365.94" y="173.42" width="7.39" height="14.23" transform="translate(171.08 -179.74) rotate(35.11)"/><path class="cls-2" d="M376.16,154.06h0a3.52,3.52,0,0,0-3.25,2.22l-.55,1.21a19.47,19.47,0,0,0-1.73,7.68l-.24,9.67,7.34-.58Z"/><circle class="cls-2" cx="374.05" cy="174.37" r="3.7"/><rect class="cls-2" x="359.58" y="169.48" width="7.39" height="14.23" transform="translate(167.65 -176.8) rotate(35.11)"/><path class="cls-2" d="M370.47,152.94h0a3.58,3.58,0,0,0-3.42,1.78l-.65,1.05a16.86,16.86,0,0,0-2.37,6.86L363,171.42l7.37.05Z"/><circle class="cls-2" cx="366.67" cy="170.95" r="3.7"/><rect class="cls-2" x="354.55" y="170.32" width="7.39" height="14.23" transform="translate(75.58 -105.26) rotate(18.65)"/><path class="cls-2" d="M360.49,156.78h0a3.89,3.89,0,0,0-3,2.18l-.44,1a11.75,11.75,0,0,0-1,5.86l.65,7.06,7.17-1.7Z"/><circle class="cls-2" cx="360.28" cy="171.53" r="3.7"/><circle class="cls-2" cx="370.91" cy="191.43" r="3.7"/><circle class="cls-2" cx="365.52" cy="186.39" r="3.7"/><circle class="cls-2" cx="356.11" cy="183.9" r="3.7"/><circle class="cls-2" cx="359.2" cy="182.48" r="3.7"/><circle class="cls-2" cx="301.64" cy="316.57" r="14.05"/><circle class="cls-16" cx="264.02" cy="94.09" r="2.92"/></g></g></svg>