<svg xmlns="http://www.w3.org/2000/svg" viewBox="0 0 429.46 267.22"><defs><style>.cls-1{fill:#556b84;}.cls-2{fill:#395370;}.cls-3{fill:#8e9dad;}.cls-4{fill:#002147;}.cls-5{fill:#1c395b;}.cls-6{fill:#718399;}.cls-7{fill:#fff;}.cls-8{fill:#ffb414;}</style></defs><g id="Layer_2" data-name="Layer 2"><g id="thumbnail"><path class="cls-1" d="M379.18,124.4c-7-15.06-20.66-29.29-41.09-41.08-62.13-35.88-163.24-35.88-225.37,0-21.49,12.4-35.54,27.5-42.16,43.43l-4.44-7.91v29.44h0c0,21.52,12.92,43,38.79,60.28l17,18.46,54.39,11.06,74.74,6.51,55.86-4.25,42.85-21.14,5-17.08c19.25-15.42,29.2-33.54,29.87-51.76l.09-.07V118.84S381.33,122.07,379.18,124.4ZM124.27,90c55.77-32.2,146.51-32.2,202.27,0,22.72,13.11,36.18,29.58,40.39,46.67l-263.87-7.94L82.77,153.66C80.26,130.79,94.06,107.42,124.27,90Z"/><path class="cls-1" d="M43.68,165.29l-10.46,7s4,15,5.23,16.35S78,225.6,78,225.6l53,22,37.79,9.92,59.77,3.21,52.27-6.16,40.74-8.85s21.44-9.38,23.86-10.18,29.75-17.16,29.75-17.16l22-16.88,20.37-24.13-7.51-20.1-18.49,30L359.69,205l-33.77,12.87-81,18.22s-34.84-1.34-35.65-1.34-39.13-7.23-39.13-7.23-24.12-6.44-26.27-7-39.4-13.14-39.4-13.14L69.68,190.49s-12.33-6.44-12.6-7.24S43.68,165.29,43.68,165.29Z"/><path class="cls-1" d="M116.09,21.65,84.38,41.38V58.91l6.35,4,13.08-4,46-16.66,39-4.38,28.94-3.1,42.09,3.54,27.18,3.94,35.52,8.33,28.94,12.28,35.07,25.43,21.05,20.47h7.45L417.74,94,398,62.86s-33.32-23.24-35.07-24.11-63.14-25-63.14-25l-38.15-5.7-78-2.19-44.29,7.89Z"/><path class="cls-1" d="M429.46,150.55V118.84l-5.21,1.08s-2,4.1-2,5.35-1.78,7.3-1.07,10.32,2.14,16,3.21,16.92S429.46,150.55,429.46,150.55Z"/><path class="cls-1" d="M369.24,232.45C289,278.81,158.31,278.81,78,232.45c-45.14-26.06-66.56-62-58.77-98.64l17.85,1.26c-7.12,33.44,12.43,66.25,53.64,90,73.28,42.31,192.51,42.31,265.79,0s73.28-111.15,0-153.46S164,29.34,90.73,71.65L78,64.31C158.31,18,289,18,369.25,64.31S449.54,186.09,369.24,232.45Z"/><polygon class="cls-1" points="54.38 144.25 41.12 105.6 2.04 137.1 54.38 144.25"/><polygon class="cls-2" points="90.73 42.11 90.73 71.65 78.02 64.31 78.02 34.77 90.73 42.11"/><path class="cls-2" d="M54.38,144.25V114.7l-18.11-5.94-6.62,4.92s1,18.7,1,19.27S40,142.29,40,142.29Z"/><polygon class="cls-2" points="0 107.28 0 136.84 24.72 140.29 18.3 109.78 0 107.28"/><polygon class="cls-1" points="17.68 149.37 17.68 119.28 25.82 125.61 29.65 149.37 17.68 149.37"/><path class="cls-3" d="M369.24,202.9C289,249.26,158.31,249.26,78,202.9c-45.14-26.06-66.56-62-58.77-98.64l17.85,1.27C30,139,49.53,171.78,90.74,195.57c73.28,42.3,192.51,42.3,265.79,0s73.28-111.15,0-153.45S164-.2,90.73,42.11L78,34.77c80.29-46.36,210.94-46.36,291.23,0S449.54,156.55,369.24,202.9Z"/><polygon class="cls-3" points="54.38 114.7 41.12 76.05 0 107.28 54.38 114.7"/><ellipse class="cls-4" cx="225.41" cy="118.84" rx="151.2" ry="87.29"/><polygon class="cls-5" points="116.92 55.25 225.41 118.83 227.9 29.46 193.12 31.8 144.87 41.88 116.92 55.25"/><polygon class="cls-2" points="306.92 42.45 225.41 118.83 227.9 29.46 262.25 32.4 292.11 38.26 306.92 42.45"/><polygon class="cls-4" points="380.77 120.49 225.41 118.83 306.92 42.45 327.32 51 353.84 69.53 365.89 81.54 381.43 111.2 380.77 120.49"/><polygon class="cls-2" points="373.36 148.28 225.41 118.83 380.77 120.49 373.36 148.28"/><path class="cls-5" d="M280.93,203.56l-55.52-84.72,148,29.44s-15.6,17.56-17.06,18.44-26.55,18.81-29.24,20S280.93,203.56,280.93,203.56Z"/><polygon class="cls-2" points="163.47 201.62 225.41 118.83 280.93 203.56 268.92 205.13 216.51 209.52 183.25 206.48 163.47 201.62"/><polygon class="cls-4" points="127.24 187.94 225.41 118.83 163.47 201.62 150.83 197.43 127.24 187.94"/><polygon class="cls-2" points="90.43 164.36 225.41 118.83 127.24 187.94 117.68 182.43 90.43 164.36"/><ellipse class="cls-6" cx="142.42" cy="69.98" rx="6.6" ry="3.81"/><ellipse class="cls-6" cx="310.03" cy="166.75" rx="6.6" ry="3.81"/><path class="cls-3" d="M338.09,183.9c-62.13,35.87-163.24,35.87-225.37,0s-62.14-94.25,0-130.13S276,17.9,338.09,53.77,400.23,148,338.09,183.9ZM124.27,60.44c-55.77,32.2-55.77,84.59,0,116.79s146.51,32.19,202.27,0,55.77-84.59,0-116.79S180,28.25,124.27,60.44Z"/><ellipse class="cls-6" cx="142.42" cy="166.75" rx="6.6" ry="3.81"/><ellipse class="cls-6" cx="310.03" cy="69.98" rx="6.6" ry="3.81"/><path class="cls-7" d="M217.49,170.43a9.18,9.18,0,0,1-5.21,1c-3.35-.28-5.67-2.07-5.19-4l11.66-46.75L112.5,84.61c-2.92-1-3.89-3.16-2.18-4.85s5.47-2.24,8.39-1.25l109.8,37.28c2.14.72,3.31,2.13,3,3.55l-12.25,49.1A3.43,3.43,0,0,1,217.49,170.43Z"/><path class="cls-8" d="M191.77,129.33,329.34,75,197.94,134.2a8.06,8.06,0,0,1-7.33-.52c-1.78-1.31-1.37-3.21.9-4.23Z"/></g></g></svg>