<svg xmlns="http://www.w3.org/2000/svg" viewBox="0 0 136.94 206.6"><defs><style>.cls-1{fill:#f03826;}.cls-2{fill:#395370;}.cls-3{fill:#fdd072;}.cls-4{fill:#ffb014;}.cls-5{fill:#1c395b;}.cls-6{fill:#557673;}.cls-7{fill:#e0b097;}.cls-8{fill:#002147;}.cls-9{fill:#8e9dad;}.cls-10{fill:#718399;}.cls-11{fill:#cb7c51;opacity:0.43;}.cls-12{fill:#fff;}.cls-13{fill:#d59674;}.cls-14{fill:#c65552;}.cls-15{fill:#7d4921;}.cls-16{fill:#f4887d;}</style></defs><g id="Layer_2" data-name="Layer 2"><g id="mobile"><path class="cls-1" d="M95.93.73S95.63,0,94.09,0s-1.48.37-1.48.37-.29.76.28.8,2.81.26,2.81.26Z"/><path class="cls-2" d="M94.14,32.65s2.72,1,2.78,5.32,0,8.75,0,8.75-3.71-9.06-3.65-10.88A7.37,7.37,0,0,1,94.14,32.65Z"/><path class="cls-3" d="M101.68,7.13s-7.22,1.71,0,2.56c5.23.61,3,7.46,3,7.46A9.21,9.21,0,0,0,108,10c0-5.54-2.21-8.71-7.85-8.71-2.36,0-4.88,1.89-6.33,4.15Z"/><path class="cls-2" d="M71.88,37.41s-3.22-3.47,3.38-6.26,12.39-3,14.36-1,6.42,7,6.42,7L94.87,43l-6.52,2.41-10.16-1Z"/><path class="cls-4" d="M88.89,24.33s-8.42-1.41-7.13-10.87h0l7.86,8Z"/><path class="cls-5" d="M71,107.74,58.33,136.67a1.4,1.4,0,0,1-1.48.82A70.51,70.51,0,0,0,45.33,137c-4.54.09-11.34,3.08-17.13,5.07a8.58,8.58,0,0,0,1.63,9.38c11.49-1.69,27.47-1.11,33.41-.81A4.72,4.72,0,0,0,67.11,149l19.68-24Z"/><path class="cls-6" d="M7,143.86c.24,0,.8.47.39,1.86-.25.85,2.23.91,2.28.72a21,21,0,0,0-1.12-2.5Z"/><path class="cls-6" d="M2.28,172.49s1,.14.9-1.51c0-1.13,1.55-1,1.55-1s.65.82.59,1.15A2.56,2.56,0,0,1,2.28,172.49Z"/><path class="cls-5" d="M6.55,143.83a1.69,1.69,0,0,0-1.61,1,53.33,53.33,0,0,0-2.88,8.27C.53,158.92-.56,161.7.31,164.84s.52,8.63,2.93,7.63,3.35-16,3.35-16,1.83-3.36,2.26-4.53-1-8-1-8Z"/><path class="cls-7" d="M11.42,146.53s5.68-.21,8.66-1.34,5.17-2,9.38-3.54.37,9.82.37,9.82-13.44,2.68-17.42,6.73S11.42,146.53,11.42,146.53Z"/><path class="cls-1" d="M7.89,143.9s5.78.23,6.35,1.14S13,149.4,13.1,151.47a8.44,8.44,0,0,0,1.81,4.36,1,1,0,0,1,0,1.31c-2,2.34-7.95,9.33-8.52,11-.68,2-1.25,4.53-3.17,4.3,0,0-.57-10.2.9-15.19S7.89,143.9,7.89,143.9Z"/><path class="cls-5" d="M120.69,203.53s-5.26,3.29-8.3,3.06-.32-4.31-.32-4.31l6.52-1.53,13.16-6,4.62-6.14s1.15.76.19,2.69-2.55,6.69-6.4,8.33S121.44,203.09,120.69,203.53Z"/><path class="cls-7" d="M103.37,182.34s4.92,11.82,5.5,14.54,1.49,3.42,2.08,3.42,6-1.74,7-2.09.93-7.44.93-7.44-4.7-1.77-6.48-11.18-4.53-2.43-4.53-2.43Z"/><path class="cls-8" d="M106.18,146.5s-6-23.18-8.17-28.91S96.4,94.77,96.4,94.77s.68-3.53-8.93-4.55-11.16-3.37-11.16-3.37c-5.61,4.05-10.57,11.29-8.38,19.89S93.37,150,93.37,150Z"/><path class="cls-8" d="M106.18,154.48c.66-2.76,0-8,0-8L93.37,150c-.66,16.32,5.75,22.59,8.66,29.12.44,1,.9,2.07,1.34,3.18h0c.28,0,5.88,1.2,9-2.75C109.22,169.74,105.77,156.16,106.18,154.48Z"/><path class="cls-1" d="M107.86,197.92s4.8.94,6.82-.59c1.09-.82,2.35-4.5,3-6.47a1.64,1.64,0,0,1,1.69-1.17c3.07.18,10.57.51,12.54-.35,2.5-1.09,4.68-1.87,4.68,0s-5.29,9.4-8.72,10S111,205.56,111,205.56a9,9,0,0,1-.51-2C110.42,202.74,107.86,199.79,107.86,197.92Z"/><path class="cls-7" d="M116.48,57.74a6.64,6.64,0,0,0,1.5-2.83c.18-1.34-.39-4,.25-5s2.91-3.73,3-4.6.21-1.45.72-1.21,2.54-1.16,3-.27a2,2,0,0,1,0,1.54s1.92-.24,2.39.17c.76.68,0,2.16,0,2.16s1.52,1.08.65,2.25.69.7.69,2.06c0,1-1.81,3.73-3.15,4.49s-4,4-4,4-2.67-.92-2.85-1-2.79-1.69-2.79-1.69"/><path class="cls-9" d="M102.28,57.18,106,64.85s9.8-7.74,11.22-9.27a.7.7,0,0,0,.17-.22l4.73,4.37s-2.57,3.39-3.65,5.12c-.79,1.26-10.74,12.48-13.9,12.64s-6.86-5.81-6.86-5.81l.39-8.36Z"/><path class="cls-7" d="M95.73,39.09s-.87,3.65-1.32,3.68-5,.1-5,.1l-1.29-.76-4.57-2.66-2-2.6L80,31.63l4.15,0s3.25-6.48,3.7-10.39l-.38-.82c.06.08.39.76.4.76l0,0s.23,0,.34.07a4.74,4.74,0,0,1,.48.42h0c.44.42,1,1.06,1.65,1.78,2,2.29,4.53,5.53,5,6.06l.06.07a1.85,1.85,0,0,0-.1.18,19.11,19.11,0,0,0-.82,1.92l0,.06v0A8.22,8.22,0,0,0,93.88,36Z"/><path class="cls-10" d="M105,54.06C105,51.12,96,37.19,96,37.19s-1.38,5.34-4.13,4.31c-1.82-.69-3.21-3.78-5.74-6.7-1.32-1.52-6.17-3.35-8-2.5-5,2.35-15.1,7.14-22.22,11.24a49.87,49.87,0,0,1,7.56,6.85l7-2.76L74.75,61s3.45,9.75,2.92,16.17C77.06,84.6,73,86.62,71,89.69A20.38,20.38,0,0,0,67.5,101H97s-.8-9.84,1.95-16.2S105,61.61,105,54.06Z"/><path class="cls-7" d="M85.43,81.56V75.38H83l1,4.49S84.22,81.43,85.43,81.56Z"/><path class="cls-7" d="M85.43,75.38l-6-4.16s-3.12.45-4.38,0A24,24,0,0,1,69.48,68c-.9-.9-3.35,4.08-3.35,4.08s2.24,4.72,3.49,4.91,3.6.4,4.69.49a.75.75,0,0,1,.66.65l.15,1.31H73.86a1.62,1.62,0,0,0,.87,1.29l.65.32a1.16,1.16,0,0,0,.84.07l2.54-.79Z"/><path class="cls-10" d="M56,43.54c-3.85,2.22-6.84,4.23-7.7,5.55-2.69,4.08,15.34,22.45,20.13,27.1a3.35,3.35,0,0,0,2.26.54A11.54,11.54,0,0,1,72.05,73c1.22-2.18,1.87-2.25,1.87-2.25L59.44,52l4.08-1.62A49.87,49.87,0,0,0,56,43.54Z"/><path class="cls-7" d="M82.43,77.2l-.12,2.39a1.77,1.77,0,0,1-.38,1l-.37.46a1.23,1.23,0,0,1-1,.47l-2.81-.15a1.43,1.43,0,0,1-.64-.18L76,80.62a9.7,9.7,0,0,1,.59-1,8,8,0,0,0,1.48-.78A39,39,0,0,1,82.43,77.2Z"/><path class="cls-10" d="M72.82,77.31s-2.08-1.92-1.06-3.77c1.65-3-3.57,0-3.57,0s-.71,2.54,1.11,3.3A16.65,16.65,0,0,0,72.82,77.31Z"/><path class="cls-10" d="M72.05,73c.52-.8,2-2.21,3.21-1.72A21.52,21.52,0,0,1,72.58,69c-.52-.68-1.53.76-1.53.76v.82Z"/><path class="cls-11" d="M88.34,21.43a.06.06,0,0,1,0,0l0,0h0C88.17,21.53,88.2,20.9,88.34,21.43Z"/><path class="cls-11" d="M95.39,29.56a1.85,1.85,0,0,0-.1.18,19.11,19.11,0,0,0-.82,1.92l0,.06c-3.8-1.44-5.2-5.67-5.52-8.69-.08-.67-.14-1.1-.19-1.38h0a.84.84,0,0,0,0-.18l1.69,2c2,2.29,4.53,5.53,5,6.06Z"/><path class="cls-3" d="M90.13,3.6a15.42,15.42,0,0,0,1.47,3,16.66,16.66,0,0,0,2.11,2.72,12.67,12.67,0,0,0,2.71,2.17A13.12,13.12,0,0,0,99.64,13a13.83,13.83,0,0,1-3.42-1.06A13.93,13.93,0,0,1,93.15,10a17.08,17.08,0,0,1-2.56-2.61,16.94,16.94,0,0,1-2-3.16Z"/><polygon class="cls-12" points="86.34 17.49 87.11 19.35 87.2 19.44 89.26 21.83 89.62 21.45 87.64 19.06 86.34 17.49"/><path class="cls-12" d="M85.69,18.47a1.06,1.06,0,0,0,1.06,1.07,1.14,1.14,0,0,0,.45-.1,1.08,1.08,0,0,0,.44-.38l-1.3-1.57A1.08,1.08,0,0,0,85.69,18.47Z"/><path class="cls-7" d="M104.21,24.28l2.44,0-2-6.85a1.13,1.13,0,0,1,.19-.83,4.24,4.24,0,0,0,.6-1.25c2.25-21.4-7.15-3.07-13.84-3.07S88.58,8.83,88.58,18c0,3.12,0,4.86,1.44,7.82,1.13,2.27,3.25,5.17,10.45,6.36,1.33.22,3.45-.62,2.73-2.73-.23-.68.16-.44.31-1.11.11-.51.22-1.08.33-1.69l.86-.24,0-1.59-.54-.32Z"/><path class="cls-2" d="M88.35,38.37S94.7,42,95,38h1.2l.74,8.75s-7.21-5.82-7.3-6S88.35,38.37,88.35,38.37Z"/><ellipse class="cls-8" cx="102.41" cy="18.8" rx="0.43" ry="0.73"/><path class="cls-8" d="M100.47,18.78a1.93,1.93,0,0,1,.66-.81,2,2,0,0,1,.81-.35,1.8,1.8,0,0,1,.83.07,1.49,1.49,0,0,1,.73.54v.07a3.89,3.89,0,0,0-1.52,0,4.31,4.31,0,0,0-1.48.57Z"/><polygon class="cls-13" points="104.74 25.17 106.66 24.32 103.11 24.27 104.74 25.17"/><path class="cls-14" d="M101.32,27.48a6.72,6.72,0,0,1,3.38-1.1l-1,1.06S101.2,27.56,101.32,27.48Z"/><path class="cls-14" d="M103.73,27.44c.46.09.43.95.28,1.25s-.33.4-.9.15a8.82,8.82,0,0,1-1.79-1.36A14.38,14.38,0,0,1,103.73,27.44Z"/><path class="cls-3" d="M86.12,18.59s12.51.34,17.87-9.42c1.49-2.71,1.68-3.63.12-5C95.85-2.85,83.4,2.07,81.59,5.73,77.37,14.29,86.12,18.59,86.12,18.59Z"/><path class="cls-7" d="M89.4,17.75c-.09-1-.92-4.16-3.53-2.89s-.52,7.37,1.55,7.72,1.79-1.35,1.79-1.35A8.47,8.47,0,0,0,89.4,17.75Z"/><path class="cls-15" d="M104.91,16.34c-.16-.56-.44-1-.83-1.06a6.63,6.63,0,0,0-1.55,0,8,8,0,0,0-1.59.3,7.74,7.74,0,0,0-1.52.63,4.52,4.52,0,0,1,1.39-1,6.3,6.3,0,0,1,1.65-.5,6.38,6.38,0,0,1,.87-.07,3,3,0,0,1,.91.08,1.07,1.07,0,0,1,.72.71A1.31,1.31,0,0,1,104.91,16.34Z"/><path class="cls-3" d="M107,7.59s-1.88,6.66-7.32,6.6c0,0,2.13-6,2.45-6.29a34.59,34.59,0,0,0,1.94-3.69Z"/><path class="cls-2" d="M94.79,37.54c1.17,2.4,2.13,9.18,2.13,9.18s.08-7.93,0-9.59S95.48,36,95.48,36,94.61,37.16,94.79,37.54Z"/><path class="cls-2" d="M96.92,46.72S82.31,35,75.78,36.26s-6-1-4-4c3-4.28,11.2-4,13.6.94S96.92,46.72,96.92,46.72Z"/><path class="cls-2" d="M97,101a39.42,39.42,0,0,1-1.35-14.46L96,84.69l.38-1.79c.33-1.18.71-2.33,1-3.5.63-2.34,1.1-4.73,1.52-7.12a121.45,121.45,0,0,0,1.73-14.45A14.71,14.71,0,0,0,98.91,51a46.35,46.35,0,0,0-3.57-6.28l.62-.42a46.82,46.82,0,0,1,3.55,6.43,15.35,15.35,0,0,1,1.66,7.17,121.64,121.64,0,0,1-1.92,14.5c-.45,2.39-1,4.78-1.62,7.13-.34,1.17-.73,2.32-1.07,3.48l-.41,1.77-.27,1.8A39.1,39.1,0,0,0,97,101Z"/><ellipse class="cls-1" cx="87.58" cy="18.67" rx="4.02" ry="4.76"/><path class="cls-1" d="M89.36,15.39S87.55,2.66,94.09.62V0H91.21a2.5,2.5,0,0,0-1.77.72c-1.51,1.52-4.4,5.59-3.1,13.63"/><ellipse class="cls-16" cx="86.34" cy="18.52" rx="2.17" ry="2.57"/></g></g></svg>