<svg xmlns="http://www.w3.org/2000/svg" xmlns:xlink="http://www.w3.org/1999/xlink" viewBox="0 0 136.6 186.62"><defs><style>.cls-1{fill:none;}.cls-2{fill:#335b57;}.cls-3{fill:#c6d1d0;}.cls-4{clip-path:url(#clip-path);}.cls-5{fill:#002147;}.cls-6{fill:#99a6b5;}.cls-12,.cls-7{fill:#00322d;}.cls-7{stroke:#00322d;stroke-miterlimit:10;}.cls-8{fill:#cb7c51;}.cls-9{fill:#985d3d;}.cls-10{fill:#72462e;}.cls-11{fill:#d6dbe1;}.cls-13{fill:#f03826;}.cls-14{fill:#aab5c2;}</style><clipPath id="clip-path"><rect class="cls-1" x="2.81" y="3.04" width="120.67" height="84.21"/></clipPath></defs><g id="Layer_2" data-name="Layer 2"><g id="other"><polygon class="cls-2" points="136.59 0 0 0 0 90.09 34.65 90.09 34.65 103.27 57.75 90.09 136.59 90.09 136.59 0"/><rect class="cls-3" x="2.81" y="3.04" width="131.63" height="84.21"/><g class="cls-4"><path class="cls-5" d="M74.2,51.79l-8.71.46A18.53,18.53,0,0,1,46.07,34.76l-1.28-6.1c-.54-10.15,8.29-18.9,18.44-19.43l8.7-.46c10.15-.53,19.85,7.34,20.39,17.49l-.64,6.1A18.54,18.54,0,0,1,74.2,51.79Z"/><rect class="cls-5" x="46.16" y="27.42" width="45.68" height="16.89" transform="translate(-1.79 3.68) rotate(-3.01)"/><polygon class="cls-6" points="105.58 165.96 33.34 165.96 29.16 123.34 23.61 87.51 57.16 75.39 83.17 75.39 118.05 88.68 110.77 123.34 105.58 165.96"/><circle class="cls-7" cx="28.84" cy="102.6" r="15.97"/><path class="cls-8" d="M82,79.09A27.44,27.44,0,0,1,68,81.65a22.37,22.37,0,0,1-9.73-2.56l.12-19.49H81.86Z"/><path class="cls-9" d="M79.84,30.06,57,31.27l1.89,37.15c3.54,3.2,7.57,5.17,11.92,5h.08c4.21-.24,7.9-2.51,11-5.88Z"/><path class="cls-8" d="M51.3,48.5c.57,2.83-.57,5.44-2.56,5.84s-2.17-2.14-2.74-5-2.53-4.75-.54-5.15S50.73,45.68,51.3,48.5Z"/><path class="cls-8" d="M87.62,46.59c-.27,2.87,1.16,5.35,3.19,5.54s1.94-2.35,2.21-5.22,2-5,0-5.18S87.89,43.73,87.62,46.59Z"/><path class="cls-8" d="M67.74,15.89H67.5v0c-10.75.67-20.23,4.61-19.16,24.85.26,4.94,1,15,1.71,19.07.65,3.62,10,11.82,20.45,11.3h.06c12.59-.7,19.06-12.23,19.14-13.39.3-4.14,0-14.2-.29-19.14C88.29,17.42,78.5,15.44,67.74,15.89Z"/><circle class="cls-5" cx="59.95" cy="45.83" r="1.03"/><path class="cls-5" d="M56.32,45.77a3.87,3.87,0,0,1,1.54-1.32,5.89,5.89,0,0,1,1.87-.58,5.82,5.82,0,0,1,2,.08,4.08,4.08,0,0,1,1.83.82v.1a15.2,15.2,0,0,0-3.63.09,12.37,12.37,0,0,0-3.5.91Z"/><circle class="cls-5" cx="78.57" cy="44.85" r="1.03"/><path class="cls-5" d="M74.91,44.09a3.94,3.94,0,0,1,1.77-1,5.82,5.82,0,0,1,1.94-.21,5.91,5.91,0,0,1,1.9.44,4.33,4.33,0,0,1,1.65,1.16l0,.1A15.6,15.6,0,0,0,78.56,44a12.55,12.55,0,0,0-3.62.23Z"/><path class="cls-9" d="M75,54.57l-4.88.25-.51-10,1.28-.72,1.62,6.25c.14.64,1.22,2.73,2.13,3.11Z"/><polygon class="cls-10" points="70.19 56.61 70.1 54.83 75 54.57 70.19 56.61"/><polygon class="cls-9" points="70.22 56.62 70.13 54.83 65.23 55.09 70.22 56.62"/><path class="cls-9" d="M72.9,42.55s-2.62,1.15-3.26,3.12l.11,2.22s2.3.74,1.83-1.09A4.57,4.57,0,0,1,72.9,42.55Z"/><polygon class="cls-5" points="72.8 36.87 73.22 40.16 85.2 40.7 84.87 38.12 73.76 36.44 73.74 37.93 72.8 36.87"/><polygon class="cls-5" points="64.57 37.3 64.49 40.62 52.64 42.41 52.7 39.81 63.56 36.97 63.74 38.46 64.57 37.3"/><path class="cls-9" d="M62.44,61.2a31,31,0,0,1,3.91-.53c1.27-.12,2.52-.19,3.77-.26l3.74-.18c1.26-.07,2.52-.14,3.9-.16a9.81,9.81,0,0,1-3.56,2,14.87,14.87,0,0,1-4,.72,16.6,16.6,0,0,1-4-.26A12.41,12.41,0,0,1,62.44,61.2Z"/><path class="cls-9" d="M67.57,65.57a8,8,0,0,1,5.54-.29,7.33,7.33,0,0,1-2.74.63A7.54,7.54,0,0,1,67.57,65.57Z"/><path class="cls-9" d="M69.38,35.88l.26,9.79,3.78-3.62S69.58,39.7,69.38,35.88Z"/><path class="cls-5" d="M90.46,34.77s0-10.1-.17-10.72c-.08-.23-2.37-5.52-6.38-7.85-6.71-3.88-16.56-5.5-16.56-5.5L47.21,25.3l-.55,11.77,1.06,0-.38,6.26,1.31,1.52L49,50.6l.93-1.6-.28-5.23,1.69-6.94h0l-1.14-8A2.38,2.38,0,0,1,51.6,26l5.17-3a3,3,0,0,1,1-.26L79,21.68a2.88,2.88,0,0,1,1.16.18l4.9,2.37a2.36,2.36,0,0,1,1.59,2.6L86.06,35l0,0,2.41,6.73L88.7,47l1.08,1.44-.25-5.54,2.13-3.23-1.52-4.9Z"/><path class="cls-7" d="M118,88.68,86.52,76.29A18,18,0,0,1,54,76.22L24.11,87.4l7,35.95c.35,16.48,1,31.81,1.56,48.29a19.57,19.57,0,0,1,0,2.3,4.67,4.67,0,0,0,3.19,4.93c7,2.17,17.94,7.24,33.61,7.25s26.65-5.07,33.66-7.25a4.64,4.64,0,0,0,3.21-4.76l-.2-2.71,2.75-48.05Z"/><path class="cls-2" d="M70.26,86.57A17.65,17.65,0,0,1,54,76.22l-4.85,1.27c3.58,8.68,11.64,14.73,21,14.73s17.41-6,21-14.68l-4.63-1.25A17.63,17.63,0,0,1,70.26,86.57Z"/><polygon class="cls-11" points="62.95 89.97 53.41 75.53 57.73 71.05 70.52 81.71 62.95 89.97"/><polygon class="cls-11" points="78 89.97 87.54 75.53 83.22 71.05 70.43 81.71 78 89.97"/><polygon class="cls-7" points="27.63 156.06 6.97 153.78 12.75 100.5 37.77 105.08 27.63 156.06"/><circle class="cls-7" cx="110.43" cy="102.6" r="15.97"/><polygon class="cls-7" points="111.65 155.1 132.31 152.82 126.53 100.5 101.51 105.08 111.65 155.1"/></g><rect class="cls-12" x="2.81" y="80.65" width="131.63" height="6.7"/><circle class="cls-13" cx="62.64" cy="83.99" r="1.86"/><circle class="cls-14" cx="68.63" cy="83.99" r="1.86"/><circle class="cls-14" cx="74.61" cy="83.99" r="1.86"/></g></g></svg>