<svg xmlns="http://www.w3.org/2000/svg" viewBox="0 0 311.73 373.15"><defs><style>.cls-1{fill:#ffb100;}.cls-2{fill:#999;opacity:0.5;}.cls-3{fill:#f2f0f1;}.cls-4{fill:#fff;}</style></defs><g id="Layer_2" data-name="Layer 2"><g id="Unsorted"><path class="cls-1" d="M0,346.34a15.79,15.79,0,0,0,15.1,16.42l245.38,10.37a14.05,14.05,0,0,0,14.73-13.33l14-334.93a14,14,0,0,0-13.56-14.48L30.34,0A15.78,15.78,0,0,0,13.91,15.12Z"/><path class="cls-1" d="M91.43,50.56H297a12.79,12.79,0,0,1,12.79,12.79v100A12.79,12.79,0,0,1,297,176.11H91.43a4.94,4.94,0,0,1-4.94-4.94V55.5a4.94,4.94,0,0,1,4.94-4.94Z" transform="matrix(1, 0.04, -0.04, 1, 4.84, -8.07)"/><polygon class="cls-2" points="272.35 342.63 31.72 333.29 43.88 31.55 284.51 40.89 272.35 342.63"/><polygon class="cls-3" points="269.5 345.94 28.87 336.6 41.33 27.46 281.95 36.8 269.5 345.94"/><polygon class="cls-2" points="273.6 348.86 36.9 372.29 1.95 60.31 241.14 32.39 273.78 344.64 273.6 348.86"/><polygon class="cls-3" points="276.08 344.37 36.9 372.29 1.48 56.11 240.66 28.19 276.08 344.37"/><polygon class="cls-2" points="265.66 356.26 26.18 343.13 26.18 21.99 265.66 31.96 265.66 356.26"/><polygon class="cls-4" points="262.25 346.88 26.18 343.13 26.18 25.23 262.25 28.98 262.25 346.88"/><polygon class="cls-2" points="262.25 338.89 26.18 336.13 26.18 20.07 262.25 20.07 262.25 338.89"/><rect class="cls-4" x="21.44" y="18.24" width="240.81" height="317.89"/></g></g></svg>