<svg id="Layer_1" data-name="Layer 1" xmlns="http://www.w3.org/2000/svg" viewBox="0 0 300 300"><defs><style>.cls-1,.cls-5{fill:#e8a788;}.cls-1,.cls-2,.cls-5{stroke:#d14500;}.cls-1,.cls-2,.cls-3,.cls-4,.cls-5,.cls-6{stroke-linecap:round;}.cls-1,.cls-2,.cls-3,.cls-4,.cls-6{stroke-miterlimit:10;}.cls-1,.cls-2,.cls-3,.cls-4,.cls-5{stroke-width:2px;}.cls-2{fill:#fff;}.cls-3,.cls-4{fill:none;}.cls-3,.cls-4,.cls-6{stroke:#6f777d;}.cls-4{stroke-dasharray:5.3 12.71;}.cls-5{stroke-linejoin:round;}.cls-6{fill:#6f777d;}</style></defs><title>SYR Icons</title><rect class="cls-1" x="108.21" y="85.15" width="106.11" height="48.52" transform="translate(222.98 -75.44) rotate(74.31)"/><path class="cls-2" d="M153.87,149.61a10.09,10.09,0,0,1,12.45,7l.06.26,15.29-4.3-.09-.25a10.1,10.1,0,0,1,7-12.45L168.65,69a10.09,10.09,0,0,1-12.45-7l-15.32,4.3a10.09,10.09,0,0,1-7,12.45l19.93,70.92Z"/><circle class="cls-1" cx="160.99" cy="108.43" r="12.01"/><rect class="cls-1" x="87.82" y="95.34" width="106.11" height="48.52" transform="translate(107.2 -62.1) rotate(39.17)"/><path class="cls-2" d="M158,156.73a10.08,10.08,0,0,1,14.2-1.45c.07.05.13.12.2.18l10-12.32-.22-.16a10.1,10.1,0,0,1-1.45-14.2l-57.1-46.52a10.1,10.1,0,0,1-14.2,1.45L99.37,96a10.11,10.11,0,0,1,1.45,14.21l57.1,46.52Z"/><circle class="cls-1" cx="140.08" cy="118.95" r="12.01"/><path class="cls-1" d="M104.87,120.75H213.76a10,10,0,0,1,10,10V240.57a10,10,0,0,1-10,10H104.87a10.92,10.92,0,0,1-10.92-10.92v-108a10.92,10.92,0,0,1,10.92-10.92Z"/><rect class="cls-2" x="78.77" y="120.75" width="129.82" height="129.82"/><polyline class="cls-3" points="197.56 134.28 197.56 131.78 195.06 131.78"/><line class="cls-4" x1="182.34" y1="131.78" x2="98.65" y2="131.78"/><polyline class="cls-3" points="92.29 131.78 89.79 131.78 89.79 134.28"/><line class="cls-4" x1="89.79" y1="146.99" x2="89.79" y2="230.69"/><polyline class="cls-3" points="89.79 237.04 89.79 239.54 92.29 239.54"/><line class="cls-4" x1="105" y1="239.54" x2="188.7" y2="239.54"/><polyline class="cls-3" points="195.06 239.54 197.56 239.54 197.56 237.04"/><line class="cls-4" x1="197.56" y1="224.33" x2="197.56" y2="140.63"/><rect class="cls-5" x="104.04" y="240.32" width="39.33" height="10.24"/><rect class="cls-1" x="104.04" y="230.08" width="39.33" height="10.24"/><path class="cls-2" d="M179.73,172.38h54a0,0,0,0,1,0,0v22.85a0,0,0,0,1,0,0h-54a4.84,4.84,0,0,1-4.84-4.84V177.22A4.84,4.84,0,0,1,179.73,172.38Z"/><rect class="cls-5" x="69.02" y="240.32" width="39.33" height="10.24"/><rect class="cls-1" x="66.32" y="230.08" width="39.33" height="10.24"/><rect class="cls-1" x="69.8" y="219.83" width="39.33" height="10.24"/><circle class="cls-1" cx="91.63" cy="203.15" r="17"/><circle class="cls-1" cx="84.66" cy="203.15" r="17"/><circle class="cls-3" cx="212.49" cy="67.29" r="17.85"/><path class="cls-6" d="M217.75,70.12a3.3,3.3,0,0,1-1.2,2.63A6.25,6.25,0,0,1,213.22,74V76.9h-1V74.09a15,15,0,0,1-2.43-.28,8.92,8.92,0,0,1-2.1-.61V72a11.09,11.09,0,0,0,2.18.74,10.29,10.29,0,0,0,2.35.3V66.83a11.44,11.44,0,0,1-2.61-1.07,3.54,3.54,0,0,1-1.24-1.26,3.85,3.85,0,0,1-.38-1.77,3.29,3.29,0,0,1,1.14-2.54,5.58,5.58,0,0,1,3.09-1.26V56.6h1v2.3a13,13,0,0,1,4.27.88l-.41,1.09a11.27,11.27,0,0,0-3.86-.88v5.9a9.23,9.23,0,0,1,3.56,1.75A3.3,3.3,0,0,1,217.75,70.12Zm-8.42-7.39a2.29,2.29,0,0,0,.69,1.71,5.57,5.57,0,0,0,2.22,1.13v-5.5a3.69,3.69,0,0,0-2.18.92A2.36,2.36,0,0,0,209.33,62.73Zm7.09,7.34a2.19,2.19,0,0,0-.77-1.71,6.54,6.54,0,0,0-2.43-1.16v5.72a4.08,4.08,0,0,0,2.34-.91A2.47,2.47,0,0,0,216.42,70.07Z"/><line class="cls-3" x1="196.2" y1="113.13" x2="188.09" y2="79.63"/><line class="cls-3" x1="186.92" y1="74.11" x2="184.99" y2="66.17"/><line class="cls-3" x1="203.71" y1="112.96" x2="198.87" y2="93.1"/></svg>