<svg id="Layer_1" data-name="Layer 1" xmlns="http://www.w3.org/2000/svg" viewBox="0 0 300 300"><defs><style>.cls-1{fill:#e8a788;}.cls-1,.cls-4{stroke:#d14500;}.cls-1,.cls-3,.cls-4{stroke-linecap:round;stroke-miterlimit:10;stroke-width:2px;}.cls-2{fill:#fff;}.cls-3,.cls-4{fill:none;}.cls-3{stroke:#6f777d;}</style></defs><title>SYR Icons</title><path class="cls-1" d="M207.38,140.64a56.19,56.19,0,1,0-97.56,38,27.14,27.14,0,0,1,7.1,18.36v2.4a10.92,10.92,0,0,0,10.92,10.91h57.63V197a27.22,27.22,0,0,1,7.13-18.39A56,56,0,0,0,207.38,140.64Z"/><ellipse class="cls-1" cx="152.67" cy="228.63" rx="22.12" ry="18.84"/><path class="cls-2" d="M171.21,210.3V192.58a16.5,16.5,0,0,1,5-11.79,56.16,56.16,0,0,0-32.13-95.86A56.15,56.15,0,0,0,112,180.85a16.35,16.35,0,0,1,4.94,11.72V210.3Z"/><line class="cls-3" x1="224.9" y1="145.59" x2="240.55" y2="145.59"/><line class="cls-3" x1="59.45" y1="145.59" x2="75.1" y2="145.59"/><line class="cls-3" x1="202.96" y1="92.63" x2="214.03" y2="81.56"/><line class="cls-3" x1="152.91" y1="68.18" x2="152.91" y2="52.53"/><line class="cls-3" x1="85.97" y1="81.56" x2="97.04" y2="92.63"/><path class="cls-3" d="M146.39,208.54V155.63a10.45,10.45,0,0,0-10.45-10.45h-.7a10.45,10.45,0,0,0-10.45,10.45h0a10.45,10.45,0,0,0,10.45,10.46h17.08"/><path class="cls-3" d="M158.24,208.54V155.63a10.45,10.45,0,0,1,10.45-10.45h.7a10.46,10.46,0,0,1,10.46,10.45h0a10.46,10.46,0,0,1-10.46,10.46H152.31"/><path class="cls-4" d="M207.38,140.64a56.19,56.19,0,1,0-97.56,38,27.14,27.14,0,0,1,7.1,18.36V210.3h68.55V197a27.22,27.22,0,0,1,7.13-18.39A56,56,0,0,0,207.38,140.64Z"/><rect class="cls-1" x="113.26" y="209.74" width="76.39" height="10.96"/><rect class="cls-1" x="118.5" y="221.05" width="65.93" height="10.96" rx="5.43"/></svg>