<svg id="Layer_1" data-name="Layer 1" xmlns="http://www.w3.org/2000/svg" viewBox="0 0 300 300"><defs><style>.cls-1,.cls-2,.cls-4,.cls-7{fill:#e8a788;}.cls-1,.cls-2,.cls-3,.cls-5,.cls-7{stroke:#d14500;}.cls-1,.cls-2,.cls-3,.cls-5,.cls-6,.cls-7,.cls-8{stroke-miterlimit:10;}.cls-1,.cls-2,.cls-3,.cls-5,.cls-6,.cls-7{stroke-width:2px;}.cls-2,.cls-3,.cls-5,.cls-6,.cls-7,.cls-8{stroke-linecap:round;}.cls-3{fill:#fff;}.cls-5,.cls-6{fill:none;}.cls-6,.cls-8{stroke:#6f777d;}.cls-7{font-size:87.1px;font-family:OpenSans-Extrabold, Open Sans;font-weight:800;}.cls-8{fill:#6f777d;}</style></defs><title>SYR Icons</title><line class="cls-1" x1="188.57" y1="74.02" x2="198.48" y2="74.02"/><path class="cls-2" d="M240.18,99.5a53.59,53.59,0,0,0-53.59-53.6H176.26l-6.87,2.84a53.59,53.59,0,0,0,0,101.52l6.87,2.84,16-.31A53.6,53.6,0,0,0,240.18,99.5Z"/><circle class="cls-3" cx="175.21" cy="99.5" r="53.6"/><path class="cls-4" d="M175.21,56.76a42,42,0,0,0-5.42.36,42.73,42.73,0,0,1,0,84.76,42,42,0,0,0,5.42.36,42.74,42.74,0,0,0,0-85.48Z"/><circle class="cls-5" cx="175.21" cy="99.5" r="42.74"/><line class="cls-1" x1="228.81" y1="91.24" x2="240.18" y2="91.24"/><line class="cls-1" x1="224.12" y1="78.19" x2="236.18" y2="78.19"/><line class="cls-1" x1="216.85" y1="65.4" x2="228.22" y2="65.4"/><line class="cls-1" x1="204.1" y1="54.34" x2="215.47" y2="54.34"/><line class="cls-1" x1="192.65" y1="48.52" x2="202.87" y2="48.52"/><line class="cls-1" x1="228.54" y1="107.77" x2="239.91" y2="107.77"/><line class="cls-1" x1="224.54" y1="120.82" x2="235.91" y2="120.82"/><line class="cls-1" x1="216.57" y1="133.61" x2="227.95" y2="133.61"/><line class="cls-1" x1="203.83" y1="144.67" x2="215.2" y2="144.67"/><line class="cls-1" x1="192.37" y1="150.49" x2="202.59" y2="150.49"/><circle class="cls-6" cx="93.2" cy="76.12" r="16.35"/><circle class="cls-6" cx="242.55" cy="166.4" r="20.23"/><line class="cls-1" x1="134.6" y1="139.08" x2="149.01" y2="139.08"/><path class="cls-2" d="M208.79,176.14a78,78,0,0,0-77.95-77.95h-15l-10,4.13a77.95,77.95,0,0,0,0,147.65l10,4.13,23.32-.45A78,78,0,0,0,208.79,176.14Z"/><circle class="cls-3" cx="115.17" cy="176.14" r="77.95"/><path class="cls-4" d="M115.17,114a62.4,62.4,0,0,0-7.9.51,62.14,62.14,0,0,1,0,123.28A62.15,62.15,0,1,0,115.17,114Z"/><circle class="cls-5" cx="115.17" cy="176.14" r="62.16"/><line class="cls-1" x1="193.12" y1="164.13" x2="208.66" y2="164.13"/><line class="cls-1" x1="186.3" y1="145.15" x2="202.84" y2="145.15"/><line class="cls-1" x1="175.71" y1="126.55" x2="191.26" y2="126.55"/><line class="cls-1" x1="157.17" y1="110.47" x2="172.71" y2="110.47"/><line class="cls-1" x1="140.52" y1="102" x2="154.38" y2="102"/><line class="cls-1" x1="192.72" y1="188.17" x2="208.26" y2="188.17"/><line class="cls-1" x1="186.9" y1="207.15" x2="202.44" y2="207.15"/><line class="cls-1" x1="175.32" y1="225.75" x2="190.86" y2="225.75"/><line class="cls-1" x1="156.78" y1="241.83" x2="172.32" y2="241.83"/><line class="cls-1" x1="140.12" y1="250.3" x2="154.99" y2="250.3"/><text class="cls-7" transform="translate(88.96 209.75)">$</text><path class="cls-8" d="M248.52,169.61a3.73,3.73,0,0,1-1.36,3,7.16,7.16,0,0,1-3.77,1.46v3.24h-1.12v-3.19a16.77,16.77,0,0,1-2.75-.31,10.62,10.62,0,0,1-2.38-.69v-1.42a12.48,12.48,0,0,0,2.47.84,11.47,11.47,0,0,0,2.66.34v-7a12.28,12.28,0,0,1-3-1.21,3.85,3.85,0,0,1-1.41-1.43,4.25,4.25,0,0,1-.44-2,3.71,3.71,0,0,1,1.3-2.87,6.25,6.25,0,0,1,3.5-1.44v-2.64h1.12v2.61a14.4,14.4,0,0,1,4.83,1l-.46,1.24a12.45,12.45,0,0,0-4.37-1v6.69a10.3,10.3,0,0,1,4,2A3.74,3.74,0,0,1,248.52,169.61ZM239,161.24a2.58,2.58,0,0,0,.79,1.94,6.15,6.15,0,0,0,2.51,1.27v-6.23a4.25,4.25,0,0,0-2.47,1.05A2.68,2.68,0,0,0,239,161.24Zm8,8.32a2.48,2.48,0,0,0-.87-1.94,7.57,7.57,0,0,0-2.75-1.31v6.48a4.66,4.66,0,0,0,2.65-1A2.82,2.82,0,0,0,247,169.56Z"/><path class="cls-8" d="M98.78,79.43a3.07,3.07,0,0,1-1.12,2.46,5.84,5.84,0,0,1-3.12,1.21v2.68h-.92V83.14a13.91,13.91,0,0,1-2.27-.25,8.44,8.44,0,0,1-2-.58V81.14a9.9,9.9,0,0,0,2,.7,9.39,9.39,0,0,0,2.19.28V76.35a10.72,10.72,0,0,1-2.44-1A3.26,3.26,0,0,1,90,74.17a3.54,3.54,0,0,1-.36-1.66,3.07,3.07,0,0,1,1.07-2.37A5.26,5.26,0,0,1,93.62,69V66.77h.92v2.16a11.83,11.83,0,0,1,4,.82l-.37,1A10.45,10.45,0,0,0,94.54,70v5.53a8.35,8.35,0,0,1,3.33,1.63A3.07,3.07,0,0,1,98.78,79.43ZM90.9,72.51a2.1,2.1,0,0,0,.65,1.6,5.09,5.09,0,0,0,2.07,1.06V70a3.38,3.38,0,0,0-2,.87A2.19,2.19,0,0,0,90.9,72.51Zm6.63,6.87a2,2,0,0,0-.71-1.59,6,6,0,0,0-2.28-1.09v5.35a3.83,3.83,0,0,0,2.19-.85A2.3,2.3,0,0,0,97.53,79.38Z"/></svg>