<svg id="Layer_1" data-name="Layer 1" xmlns="http://www.w3.org/2000/svg" viewBox="0 0 300 300"><defs><style>.cls-1{fill:#e8a788;}.cls-1,.cls-2{stroke:#d14500;}.cls-1,.cls-2,.cls-3{stroke-linecap:round;stroke-miterlimit:10;stroke-width:2px;}.cls-2{fill:#fff;}.cls-3{fill:none;stroke:#6f777d;}</style></defs><title>SYR Icons</title><path class="cls-1" d="M174.41,72.42H155.9v2.19a79.4,79.4,0,0,0,0,154.43v2.19h18.51a79.41,79.41,0,0,0,0-158.81Z"/><circle class="cls-2" cx="158.9" cy="151.82" r="79.41"/><circle class="cls-1" cx="158.9" cy="151.82" r="62.47"/><circle class="cls-2" cx="158.9" cy="151.82" r="43.81"/><circle class="cls-1" cx="158.9" cy="151.82" r="26.55"/><circle class="cls-2" cx="158.9" cy="151.82" r="10.21"/><line class="cls-1" x1="158.83" y1="151.75" x2="59.35" y2="126.74"/><path class="cls-2" d="M104.49,137.49,93.22,120.13l-27-6.79,10.12,16.9Z"/><line class="cls-1" x1="80.94" y1="117.76" x2="90.78" y2="134.2"/><path class="cls-2" d="M104.21,138.6l-18.14,10-27-6.79L76,131.66Z"/><line class="cls-1" x1="74.13" y1="144.85" x2="90.57" y2="135.01"/><line class="cls-3" x1="79.15" y1="107.92" x2="30.52" y2="94.48"/><line class="cls-3" x1="84.16" y1="100.85" x2="61.85" y2="93.75"/><line class="cls-3" x1="72.31" y1="155.66" x2="41.67" y2="148.48"/><line class="cls-3" x1="57.4" y1="133.44" x2="48.46" y2="131.65"/><path class="cls-3" d="M255.77,71.2a12.23,12.23,0,1,0,7.13,14.15"/><polyline class="cls-3" points="245.53 82.13 250.14 87.19 269.48 68.77"/></svg>