<svg xmlns="http://www.w3.org/2000/svg" xmlns:xlink="http://www.w3.org/1999/xlink" viewBox="0 0 810.53 1094.28"><defs><style>.cls-1,.cls-13,.cls-19,.cls-20,.cls-25,.cls-28,.cls-33,.cls-34,.cls-39,.cls-42,.cls-47,.cls-6,.cls-9{fill:none;}.cls-2,.cls-22{fill:#e1e1e1;}.cls-3{fill:#46aa7f;}.cls-14,.cls-23,.cls-26,.cls-27,.cls-4,.cls-51,.cls-52,.cls-8{fill:#fff;}.cls-19,.cls-23,.cls-25,.cls-28,.cls-4,.cls-9{stroke:#212b5c;}.cls-13,.cls-23,.cls-28,.cls-33,.cls-34,.cls-39,.cls-4,.cls-42,.cls-43,.cls-47,.cls-9{stroke-linecap:round;}.cls-13,.cls-23,.cls-28,.cls-33,.cls-34,.cls-4,.cls-9{stroke-linejoin:round;}.cls-13,.cls-19,.cls-20,.cls-28,.cls-4,.cls-42,.cls-43,.cls-6,.cls-8,.cls-9{stroke-width:0.75px;}.cls-5{fill:#00ab7c;}.cls-13,.cls-26,.cls-27,.cls-51,.cls-52,.cls-6,.cls-8{stroke:#1f2a5d;}.cls-19,.cls-20,.cls-22,.cls-25,.cls-26,.cls-27,.cls-35,.cls-39,.cls-42,.cls-43,.cls-45,.cls-47,.cls-51,.cls-52,.cls-6,.cls-8{stroke-miterlimit:10;}.cls-35,.cls-45,.cls-7{fill:#4990cd;}.cls-10{fill:#f87c05;}.cls-11{fill:#ea5757;}.cls-12{fill:#ffc502;}.cls-15{fill:#995ead;}.cls-16,.cls-21{fill:#212b5c;}.cls-17{fill:#fa903f;}.cls-18{fill:#ffc300;}.cls-20,.cls-22,.cls-33,.cls-34{stroke:#fff;}.cls-21{font-size:14px;font-family:OpenSans-SemiBold, Open Sans;font-weight:600;}.cls-23{stroke-width:0.74px;}.cls-24{fill:#857965;}.cls-25{stroke-width:0.6px;}.cls-26{stroke-width:0.57px;}.cls-27{stroke-width:0.55px;}.cls-28{stroke-dasharray:3.07 3.07;}.cls-29{fill:#2290d1;}.cls-30{fill:#b5b5b6;}.cls-31{fill:#8b8b8b;}.cls-32{fill:#545554;}.cls-33,.cls-34{stroke-width:0.83px;}.cls-34{stroke-dasharray:11.98 11.98;}.cls-35,.cls-45{stroke:#4990cd;}.cls-35,.cls-39{stroke-width:0.99px;}.cls-36,.cls-43{fill:#1f2a5d;}.cls-37{fill:#212b5d;}.cls-38{fill:#b3b3b3;}.cls-39,.cls-42,.cls-43,.cls-47{stroke:#212b5d;}.cls-40{fill:#e6e6e6;}.cls-41{fill:#ccc;}.cls-44{fill:#f2f2f3;}.cls-45{stroke-width:0.94px;}.cls-46{clip-path:url(#clip-path);}.cls-47{stroke-width:0.9px;}.cls-48{clip-path:url(#clip-path-2);}.cls-49{clip-path:url(#clip-path-3);}.cls-50{clip-path:url(#clip-path-4);}.cls-51{stroke-width:0.6px;}.cls-52{stroke-width:0.64px;}.cls-53{fill:#fefefe;}</style><clipPath id="clip-path"><path class="cls-1" d="M389.5,387.09h21.91l-.56-12.55,6.37-2L431,374.67,441.78,380l6.53,4.59,6.77-20.18-15.66-21.51-29.21-3.45L390.3,351l-6.77,22.7Z"/></clipPath><clipPath id="clip-path-2"><path class="cls-1" d="M762.6,252.88c.08.39-.5,28.26-.5,28.26l11.8.17.67,35.25,16.5.11,18-19.59-2.38-29.32-15.24-17.24-23.59-2.16Z"/></clipPath><clipPath id="clip-path-3"><path class="cls-1" d="M297.54,358.44h23.94l.45,12,13.41.77,8.31,4.33,4.77,5.1,6.76-17.74-13.08-18L317.72,342l-16.63,9.64Z"/></clipPath><clipPath id="clip-path-4"><path class="cls-1" d="M601.84,576.73h23.94l.44,12,13.42.78L648,593.8l4.77,5.1,6.76-17.74L646.4,563.21,622,560.32,605.38,570Z"/></clipPath></defs><g id="Layer_2" data-name="Layer 2"><g id="Layer_3" data-name="Layer 3"><path class="cls-2" d="M649.87,1094.28H.41v-60H649.87a77.75,77.75,0,0,0,0-155.49H203.93C128,878.79,66.18,817,66.18,741.05S128,603.3,203.93,603.3H649.87a77.74,77.74,0,1,0,0-155.48H15.38v-60H649.87c76,0,137.74,61.79,137.74,137.74S725.82,663.3,649.87,663.3H203.93a77.75,77.75,0,1,0,0,155.49H649.87c76,0,137.74,61.79,137.74,137.74S725.82,1094.28,649.87,1094.28Z"/><rect class="cls-2" x="219" y="755.87" width="432.43" height="64.05"/><rect class="cls-2" x="204.97" y="539.61" width="417.57" height="64.05"/><path class="cls-3" d="M652.89,598.87a6,6,0,0,0-4.23-1.75h-1.95l-.31,0a9.73,9.73,0,0,0-9.41-7.27,9.61,9.61,0,0,0-4.15.94,13.06,13.06,0,0,0-25.58.22,9.74,9.74,0,0,0-14.13,6.53,6,6,0,0,0-8.26,5.54h69.78A6,6,0,0,0,652.89,598.87Z"/><path class="cls-3" d="M671.52,814.36a6,6,0,0,0-4.24-1.75h-1.95l-.31,0a9.7,9.7,0,0,0-13.56-6.34,13.06,13.06,0,0,0-25.58.23,9.72,9.72,0,0,0-14.13,6.52,6,6,0,0,0-8.26,5.55h69.78A6,6,0,0,0,671.52,814.36Z"/><path class="cls-3" d="M255.18,598.87a6,6,0,0,0-4.24-1.75H249l-.31,0a9.73,9.73,0,0,0-9.41-7.27,9.61,9.61,0,0,0-4.15.94,13.06,13.06,0,0,0-25.58.22,9.74,9.74,0,0,0-14.13,6.53,6,6,0,0,0-8.26,5.54h69.78A6,6,0,0,0,255.18,598.87Z"/><path class="cls-2" d="M225.37,1034.61c0-26.44,49.49-47.88,110.53-47.88s110.52,21.44,110.52,47.88"/><path class="cls-2" d="M353.07,1034.61c0-36.44,68.19-66,152.3-66s152.31,29.54,152.31,66"/><line class="cls-4" x1="169.51" y1="992.05" x2="169.51" y2="1033.95"/><line class="cls-4" x1="200.77" y1="992.05" x2="200.77" y2="1033.95"/><path class="cls-5" d="M283.82,964.29a6.35,6.35,0,0,1-1.43-5.17A15.37,15.37,0,0,0,280,948a9.62,9.62,0,0,1-1.32-7.64,11.44,11.44,0,0,0,.29-3.53A12.18,12.18,0,0,0,268,926a11.68,11.68,0,0,0-12.09,14.25,9.82,9.82,0,0,1-1.3,7.75,15.41,15.41,0,0,0-2.43,11.16,6.41,6.41,0,0,1-1.43,5.18,21.58,21.58,0,1,0,33.09,0Z"/><line class="cls-4" x1="267.27" y1="937.12" x2="267.27" y2="1027.09"/><line class="cls-4" x1="267.27" y1="988.21" x2="276.49" y2="978.99"/><line class="cls-4" x1="261.34" y1="956.36" x2="267.27" y2="962.3"/><line class="cls-4" x1="267.27" y1="967.44" x2="273.23" y2="961.48"/><path class="cls-5" d="M336.61,971.38a6.37,6.37,0,0,1-1.43-5.16,15.43,15.43,0,0,0,.21-2.56,15.27,15.27,0,0,0-2.64-8.61,9.55,9.55,0,0,1-1.33-7.63,11.5,11.5,0,0,0,.29-3.54,12.19,12.19,0,0,0-10.94-10.83,11.68,11.68,0,0,0-12.09,14.25,9.85,9.85,0,0,1-1.29,7.75A15.4,15.4,0,0,0,305,966.22a6.35,6.35,0,0,1-1.43,5.17,21.58,21.58,0,1,0,33.09,0Z"/><line class="cls-4" x1="320.07" y1="944.22" x2="320.07" y2="1034.19"/><line class="cls-4" x1="320.07" y1="995.3" x2="329.28" y2="986.09"/><line class="cls-4" x1="314.13" y1="963.46" x2="320.07" y2="969.39"/><line class="cls-4" x1="320.07" y1="974.53" x2="326.02" y2="968.58"/><polygon class="cls-4" points="232.76 1007.54 230.68 1005.23 228.6 1007.54 228.6 1033.74 232.76 1033.74 232.76 1007.54"/><polygon class="cls-4" points="244.88 1007.54 242.8 1005.23 240.72 1007.54 240.72 1033.74 244.88 1033.74 244.88 1007.54"/><polygon class="cls-4" points="257 1007.54 254.92 1005.23 252.84 1007.54 252.84 1033.74 257 1033.74 257 1007.54"/><polygon class="cls-4" points="269.12 1007.54 267.04 1005.23 264.96 1007.54 264.96 1033.74 269.12 1033.74 269.12 1007.54"/><polygon class="cls-4" points="281.25 1007.54 279.17 1005.23 277.08 1007.54 277.08 1033.74 281.25 1033.74 281.25 1007.54"/><polygon class="cls-4" points="293.37 1007.54 291.29 1005.23 289.21 1007.54 289.21 1033.74 293.37 1033.74 293.37 1007.54"/><polygon class="cls-4" points="305.49 1007.54 303.41 1005.23 301.33 1007.54 301.33 1033.74 305.49 1033.74 305.49 1007.54"/><polygon class="cls-4" points="316.56 1007.54 314.48 1005.23 312.4 1007.54 312.4 1033.74 316.56 1033.74 316.56 1007.54"/><polygon class="cls-4" points="328.68 1007.54 326.6 1005.23 324.52 1007.54 324.52 1033.74 328.68 1033.74 328.68 1007.54"/><polygon class="cls-4" points="340.8 1007.54 338.72 1005.23 336.64 1007.54 336.64 1033.74 340.8 1033.74 340.8 1007.54"/><polygon class="cls-4" points="352.92 1007.54 350.84 1005.23 348.76 1007.54 348.76 1033.74 352.92 1033.74 352.92 1007.54"/><polygon class="cls-4" points="365.05 1007.54 362.96 1005.23 360.88 1007.54 360.88 1033.74 365.05 1033.74 365.05 1007.54"/><polygon class="cls-4" points="389.29 1007.54 387.21 1005.23 385.13 1007.54 385.13 1033.74 389.29 1033.74 389.29 1007.54"/><polygon class="cls-4" points="377.32 1007.54 375.24 1005.23 373.16 1007.54 373.16 1033.74 377.32 1033.74 377.32 1007.54"/><polygon class="cls-4" points="310.87 1013.94 309.37 1013.94 225.57 1013.94 225.57 1018.12 309.37 1018.12 310.87 1018.12 394.67 1018.12 394.67 1013.94 310.87 1013.94"/><polygon class="cls-4" points="310.87 1024.44 309.37 1024.44 225.57 1024.44 225.57 1028.62 309.37 1028.62 310.87 1028.62 394.67 1028.62 394.67 1024.44 310.87 1024.44"/><polygon class="cls-4" points="464.31 1007.73 462.23 1005.42 460.15 1007.73 460.15 1033.93 464.31 1033.93 464.31 1007.73"/><polygon class="cls-4" points="476.44 1007.73 474.36 1005.42 472.27 1007.73 472.27 1033.93 476.44 1033.93 476.44 1007.73"/><polygon class="cls-4" points="488.56 1007.73 486.48 1005.42 484.4 1007.73 484.4 1033.93 488.56 1033.93 488.56 1007.73"/><polygon class="cls-4" points="500.68 1007.73 498.6 1005.42 496.52 1007.73 496.52 1033.93 500.68 1033.93 500.68 1007.73"/><polygon class="cls-4" points="512.8 1007.73 510.72 1005.42 508.64 1007.73 508.64 1033.93 512.8 1033.93 512.8 1007.73"/><polygon class="cls-4" points="523.87 1007.73 521.79 1005.42 519.71 1007.73 519.71 1033.93 523.87 1033.93 523.87 1007.73"/><polygon class="cls-4" points="535.99 1007.73 533.91 1005.42 531.83 1007.73 531.83 1033.93 535.99 1033.93 535.99 1007.73"/><polygon class="cls-4" points="548.11 1007.73 546.03 1005.42 543.95 1007.73 543.95 1033.93 548.11 1033.93 548.11 1007.73"/><polygon class="cls-4" points="560.24 1007.73 558.15 1005.42 556.08 1007.73 556.08 1033.93 560.24 1033.93 560.24 1007.73"/><polygon class="cls-4" points="572.36 1007.73 570.28 1005.42 568.2 1007.73 568.2 1033.93 572.36 1033.93 572.36 1007.73"/><polygon class="cls-4" points="584.48 1007.73 582.4 1005.42 580.32 1007.73 580.32 1033.93 584.48 1033.93 584.48 1007.73"/><polygon class="cls-4" points="596.6 1007.73 594.52 1005.42 592.44 1007.73 592.44 1033.93 596.6 1033.93 596.6 1007.73"/><polygon class="cls-4" points="518.18 1014.13 516.68 1014.13 458.15 1014.13 458.15 1018.31 516.68 1018.31 518.18 1018.31 601.98 1018.31 601.98 1014.13 518.18 1014.13"/><polygon class="cls-4" points="518.18 1024.64 516.68 1024.64 458.15 1024.64 458.15 1028.81 516.68 1028.81 518.18 1028.81 601.98 1028.81 601.98 1024.64 518.18 1024.64"/><path class="cls-5" d="M635.42,965.73a6.41,6.41,0,0,1-1.43-5.17,15.22,15.22,0,0,0-2.43-11.16,9.6,9.6,0,0,1-1.32-7.63,11.84,11.84,0,0,0,.29-3.54,12.19,12.19,0,0,0-10.94-10.83,11.68,11.68,0,0,0-12.09,14.25,9.82,9.82,0,0,1-1.3,7.75,15.41,15.41,0,0,0-2.43,11.16,6.45,6.45,0,0,1-1.43,5.18,21.58,21.58,0,1,0,33.08,0Z"/><line class="cls-4" x1="618.88" y1="938.56" x2="618.88" y2="1028.53"/><line class="cls-4" x1="618.88" y1="989.65" x2="628.1" y2="980.43"/><line class="cls-4" x1="612.94" y1="957.8" x2="618.88" y2="963.74"/><line class="cls-4" x1="618.88" y1="968.88" x2="624.84" y2="962.93"/><rect class="cls-2" x="399.21" y="497.65" width="106.75" height="104.68"/><rect class="cls-2" x="246.22" y="713.58" width="147.76" height="104.68"/><rect class="cls-2" x="415.29" y="731.92" width="154.89" height="86.7"/><path id="Power_line_right" data-name="Power line right" class="cls-6" d="M279.84,289.39c5.31,24.95,25,37.41,40.61,37.41a52.56,52.56,0,0,0,22-4.83"/><path class="cls-6" d="M342.28,322.19S293,340.7,273.07,255"/><rect class="cls-7" x="216.29" y="254.86" width="34.35" height="37.71"/><rect class="cls-6" x="216.29" y="292.57" width="34.35" height="15.13"/><line class="cls-6" x1="192.76" y1="254.86" x2="275.62" y2="254.86"/><line class="cls-6" x1="185.31" y1="292.57" x2="283.07" y2="292.57"/><polyline class="cls-6" points="250.64 307.71 266.02 372.54 204.52 292.57"/><polyline class="cls-6" points="216.29 307.71 200.92 372.54 262.41 292.57"/><line class="cls-6" x1="196.12" y1="254.86" x2="196.12" y2="265.67"/><line class="cls-6" x1="188.23" y1="293.02" x2="188.23" y2="303.83"/><line class="cls-6" x1="280.84" y1="293.02" x2="280.84" y2="303.83"/><line class="cls-6" x1="272.98" y1="254.86" x2="272.98" y2="265.67"/><polyline class="cls-6" points="216.29 292.57 233.47 273.71 250.64 292.57"/><polyline class="cls-6" points="250.64 254.86 233.47 273.71 216.29 254.86"/><polygon class="cls-6" points="204.7 254.86 212.46 241.2 254.47 241.2 262.24 254.86 204.7 254.86"/><polygon class="cls-2" points="341.6 375.19 240.43 375.37 240.43 334.1 341.6 334.1 341.6 375.19"/><rect class="cls-8" x="274.65" y="351.69" width="13.14" height="24"/><rect class="cls-8" x="294.23" y="350.69" width="15.86" height="11.67"/><rect class="cls-8" x="318.39" y="350.69" width="15.86" height="11.67"/><rect class="cls-8" x="251.17" y="350.69" width="15.86" height="11.67"/><rect class="cls-8" x="354.27" y="337.9" width="9.93" height="3.89"/><rect class="cls-8" x="354.27" y="346.14" width="9.93" height="3.89"/><rect class="cls-8" x="354.27" y="354.38" width="9.93" height="3.89"/><rect class="cls-8" x="354.27" y="362.61" width="9.93" height="3.89"/><rect class="cls-8" x="370.69" y="337.9" width="9.93" height="3.89"/><rect class="cls-8" x="370.69" y="346.14" width="9.93" height="3.89"/><rect class="cls-8" x="370.69" y="354.38" width="9.93" height="3.89"/><rect class="cls-8" x="370.69" y="362.61" width="9.93" height="3.89"/><rect class="cls-8" x="387.11" y="337.9" width="9.93" height="3.89"/><rect class="cls-8" x="387.11" y="346.14" width="9.93" height="3.89"/><rect class="cls-8" x="387.11" y="354.38" width="9.93" height="3.89"/><rect class="cls-8" x="387.11" y="362.61" width="9.93" height="3.89"/><rect class="cls-2" x="666.33" y="241.25" width="71.06" height="133.19"/><polyline class="cls-4" points="760.19 241.51 760.14 374.47 737.38 374.46 737.44 237.7"/><rect class="cls-9" x="666.35" y="237.69" width="93.84" height="3.57"/><rect class="cls-10" x="671.43" y="214.52" width="82.15" height="3.66"/><rect class="cls-10" x="671.43" y="221.83" width="82.15" height="3.66"/><rect class="cls-9" x="637.27" y="250.06" width="12.43" height="12.43"/><line class="cls-9" x1="637.27" y1="250.06" x2="649.7" y2="262.49"/><line class="cls-9" x1="649.7" y1="250.06" x2="637.27" y2="262.49"/><rect class="cls-9" x="637.27" y="237.63" width="12.43" height="12.43"/><line class="cls-9" x1="637.27" y1="237.63" x2="649.7" y2="250.06"/><line class="cls-9" x1="649.7" y1="237.63" x2="637.27" y2="250.06"/><rect class="cls-9" x="637.27" y="225.2" width="12.43" height="12.43"/><line class="cls-9" x1="637.27" y1="225.2" x2="649.7" y2="237.63"/><line class="cls-9" x1="649.7" y1="225.2" x2="637.27" y2="237.63"/><rect class="cls-9" x="637.27" y="212.76" width="12.43" height="12.43"/><line class="cls-9" x1="637.27" y1="212.76" x2="649.7" y2="225.2"/><line class="cls-9" x1="649.7" y1="212.76" x2="637.27" y2="225.2"/><rect class="cls-9" x="637.27" y="299.78" width="12.43" height="12.43"/><line class="cls-9" x1="637.27" y1="299.78" x2="649.7" y2="312.21"/><line class="cls-9" x1="649.7" y1="299.78" x2="637.27" y2="312.21"/><rect class="cls-9" x="637.27" y="312.21" width="12.43" height="12.43"/><line class="cls-9" x1="637.27" y1="312.21" x2="649.7" y2="324.64"/><line class="cls-9" x1="649.7" y1="312.21" x2="637.27" y2="324.64"/><rect class="cls-9" x="637.27" y="287.35" width="12.43" height="12.43"/><line class="cls-9" x1="637.27" y1="287.35" x2="649.7" y2="299.78"/><line class="cls-9" x1="649.7" y1="287.35" x2="637.27" y2="299.78"/><rect class="cls-9" x="637.27" y="274.92" width="12.43" height="12.43"/><line class="cls-9" x1="637.27" y1="274.92" x2="649.7" y2="287.35"/><line class="cls-9" x1="649.7" y1="274.92" x2="637.27" y2="287.35"/><rect class="cls-9" x="637.27" y="349.61" width="12.43" height="12.43"/><line class="cls-9" x1="637.27" y1="349.61" x2="649.7" y2="362.04"/><line class="cls-9" x1="649.7" y1="349.61" x2="637.27" y2="362.04"/><rect class="cls-9" x="637.27" y="362.04" width="12.43" height="12.43"/><line class="cls-9" x1="637.27" y1="362.04" x2="649.7" y2="374.47"/><line class="cls-9" x1="649.7" y1="362.04" x2="637.27" y2="374.47"/><rect class="cls-9" x="637.27" y="337.18" width="12.43" height="12.43"/><line class="cls-9" x1="637.27" y1="337.18" x2="649.7" y2="349.61"/><line class="cls-9" x1="649.7" y1="337.18" x2="637.27" y2="349.61"/><rect class="cls-9" x="637.27" y="324.75" width="12.43" height="12.43"/><line class="cls-9" x1="637.27" y1="324.75" x2="649.7" y2="337.18"/><line class="cls-9" x1="649.7" y1="324.75" x2="637.27" y2="337.18"/><rect class="cls-9" x="637.27" y="262.49" width="12.43" height="12.43"/><line class="cls-9" x1="637.27" y1="262.49" x2="649.7" y2="274.92"/><line class="cls-9" x1="649.7" y1="262.49" x2="637.27" y2="274.92"/><rect class="cls-9" x="637.27" y="200.33" width="12.43" height="12.43"/><line class="cls-9" x1="637.27" y1="200.33" x2="649.7" y2="212.76"/><line class="cls-9" x1="649.7" y1="200.33" x2="637.27" y2="212.76"/><rect class="cls-9" x="637.27" y="187.9" width="12.43" height="12.43"/><line class="cls-9" x1="637.27" y1="187.9" x2="649.7" y2="200.33"/><line class="cls-9" x1="649.7" y1="187.9" x2="637.27" y2="200.33"/><rect class="cls-9" x="637.27" y="175.47" width="12.43" height="12.43"/><line class="cls-9" x1="637.27" y1="175.47" x2="649.7" y2="187.9"/><line class="cls-9" x1="649.7" y1="175.47" x2="637.27" y2="187.9"/><line class="cls-9" x1="649.7" y1="163.04" x2="637.27" y2="175.47"/><rect class="cls-9" x="637.27" y="163.04" width="12.43" height="12.43"/><polygon class="cls-9" points="745.63 163.04 637.27 163.04 637.27 150.61 732.54 150.61 745.63 163.04"/><line class="cls-9" x1="637.27" y1="163.04" x2="649.7" y2="175.47"/><polyline class="cls-9" points="736.72 163.04 724.29 150.61 711.86 163.04 699.43 150.61 687 163.04 674.57 150.61 662.13 163.04 649.71 150.61 637.27 163.04"/><polygon class="cls-9" points="577.78 163.04 637.27 163.04 637.27 150.61 590.86 150.61 577.78 163.04"/><polyline class="cls-9" points="587.55 163.04 599.98 150.61 612.41 163.04 624.84 150.61 637.27 163.04"/><polygon class="cls-9" points="643.49 126.55 637.27 150.61 649.71 150.61 643.49 126.55"/><polyline class="cls-9" points="712.79 183.07 718.63 163.24 706.2 163.24 712.03 183.03"/><circle class="cls-9" cx="712.41" cy="184.5" r="1.43"/><path class="cls-9" d="M715.54,192.88a3.32,3.32,0,1,1-3.13-4.44v-2.5"/><polyline class="cls-9" points="599.98 150.61 643.49 126.55 724.29 150.61"/><polyline class="cls-9" points="734.29 214.52 712.51 194.55 690.85 214.4"/><rect class="cls-4" x="671.43" y="218.18" width="82.15" height="3.66"/><rect class="cls-2" x="688.39" y="214.1" width="5.99" height="11.99"/><rect class="cls-2" x="731.13" y="214.1" width="5.99" height="11.99"/><path class="cls-9" d="M806.62,234.55h-2.93a10.4,10.4,0,0,0-19.12-1,5.58,5.58,0,0,0-6.82-.09v0a5.53,5.53,0,0,0-2.19,4.41,1.34,1.34,0,0,0,0,.2h34.58A3.54,3.54,0,0,0,806.62,234.55Z"/><polyline class="cls-9" points="701.79 306.18 714.67 306.18 714.67 317.56 701.79 317.56"/><line class="cls-9" x1="703.29" y1="317.56" x2="703.29" y2="306.18"/><line class="cls-9" x1="703.29" y1="328.94" x2="703.29" y2="317.56"/><polyline class="cls-9" points="701.79 317.56 714.67 317.56 714.67 328.94 701.79 328.94"/><polyline class="cls-9" points="701.79 294.81 714.67 294.81 714.67 306.18 701.79 306.18"/><line class="cls-9" x1="703.29" y1="306.18" x2="703.29" y2="294.81"/><line class="cls-9" x1="703.29" y1="294.81" x2="703.29" y2="283.43"/><polyline class="cls-9" points="701.79 283.43 714.67 283.43 714.67 294.81 701.79 294.81"/><line class="cls-9" x1="703.29" y1="272.05" x2="714.67" y2="272.05"/><polyline class="cls-9" points="714.67 270.25 714.67 283.43 703.29 283.43 703.29 270.25"/><rect class="cls-9" x="714.67" y="306.18" width="11.38" height="11.38"/><rect class="cls-9" x="714.67" y="317.56" width="11.38" height="11.38"/><rect class="cls-9" x="714.67" y="294.81" width="11.38" height="11.38"/><rect class="cls-9" x="714.67" y="283.43" width="11.38" height="11.38"/><rect class="cls-9" x="726.05" y="306.18" width="11.38" height="11.38"/><rect class="cls-9" x="726.05" y="317.56" width="11.38" height="11.38"/><rect class="cls-9" x="726.05" y="294.81" width="11.38" height="11.38"/><rect class="cls-9" x="726.05" y="283.43" width="11.38" height="11.38"/><rect class="cls-9" x="737.42" y="306.18" width="11.38" height="11.38"/><rect class="cls-9" x="737.42" y="317.56" width="11.38" height="11.38"/><rect class="cls-9" x="737.42" y="294.81" width="11.38" height="11.38"/><rect class="cls-9" x="737.42" y="283.43" width="11.38" height="11.38"/><rect class="cls-9" x="748.8" y="306.18" width="11.38" height="11.38"/><rect class="cls-9" x="748.8" y="317.56" width="11.38" height="11.38"/><rect class="cls-9" x="748.8" y="294.81" width="11.38" height="11.38"/><rect class="cls-9" x="748.8" y="283.43" width="11.38" height="11.38"/><line class="cls-9" x1="771.55" y1="306.18" x2="771.55" y2="317.56"/><polyline class="cls-9" points="772.98 317.56 760.18 317.56 760.18 306.18"/><line class="cls-9" x1="771.55" y1="317.56" x2="771.55" y2="328.94"/><polyline class="cls-9" points="772.98 328.94 760.18 328.94 760.18 317.56 772.98 317.56"/><line class="cls-9" x1="771.55" y1="294.81" x2="771.55" y2="306.18"/><polyline class="cls-9" points="772.98 306.18 760.18 306.18 760.18 294.81 772.98 294.81"/><polyline class="cls-9" points="772.98 294.81 760.18 294.81 760.18 283.43 772.98 283.43"/><line class="cls-9" x1="771.55" y1="283.43" x2="771.55" y2="294.81"/><polyline class="cls-9" points="701.79 351.69 714.67 351.69 714.67 363.07 701.79 363.07"/><line class="cls-9" x1="703.29" y1="363.07" x2="703.29" y2="351.69"/><line class="cls-9" x1="703.29" y1="374.45" x2="703.29" y2="363.07"/><polyline class="cls-9" points="701.79 363.07 714.67 363.07 714.67 374.45 701.79 374.45"/><polyline class="cls-9" points="701.79 340.32 714.67 340.32 714.67 351.69 701.79 351.69"/><line class="cls-9" x1="703.29" y1="351.69" x2="703.29" y2="340.32"/><line class="cls-9" x1="703.29" y1="340.32" x2="703.29" y2="328.94"/><polyline class="cls-9" points="701.79 328.94 714.67 328.94 714.67 340.32 701.79 340.32"/><line class="cls-9" x1="714.67" y1="328.94" x2="703.29" y2="328.94"/><rect class="cls-9" x="714.67" y="351.69" width="11.38" height="11.38"/><rect class="cls-9" x="714.67" y="363.07" width="11.38" height="11.38"/><rect class="cls-9" x="714.67" y="340.32" width="11.38" height="11.38"/><rect class="cls-9" x="714.67" y="328.94" width="11.38" height="11.38"/><rect class="cls-9" x="726.05" y="351.69" width="11.38" height="11.38"/><rect class="cls-9" x="726.05" y="363.07" width="11.38" height="11.38"/><rect class="cls-9" x="726.05" y="340.32" width="11.38" height="11.38"/><rect class="cls-9" x="726.05" y="328.94" width="11.38" height="11.38"/><rect class="cls-9" x="737.42" y="351.69" width="11.38" height="11.38"/><rect class="cls-9" x="737.42" y="363.07" width="11.38" height="11.38"/><rect class="cls-9" x="737.42" y="340.32" width="11.38" height="11.38"/><rect class="cls-9" x="737.42" y="328.94" width="11.38" height="11.38"/><rect class="cls-9" x="748.8" y="351.69" width="11.38" height="11.38"/><rect class="cls-9" x="748.8" y="363.07" width="11.38" height="11.38"/><rect class="cls-9" x="748.8" y="340.32" width="11.38" height="11.38"/><rect class="cls-9" x="748.8" y="328.94" width="11.38" height="11.38"/><line class="cls-9" x1="771.55" y1="351.69" x2="771.55" y2="363.07"/><polyline class="cls-9" points="772.98 363.07 760.18 363.07 760.18 351.69 772.98 351.69"/><line class="cls-9" x1="771.55" y1="363.07" x2="771.55" y2="374.45"/><polyline class="cls-9" points="772.98 374.45 760.18 374.45 760.18 363.07 772.98 363.07"/><line class="cls-9" x1="771.55" y1="340.32" x2="771.55" y2="351.69"/><polyline class="cls-9" points="772.98 351.69 760.18 351.69 760.18 340.32 772.98 340.32"/><polyline class="cls-9" points="772.98 340.32 760.18 340.32 760.18 328.94 772.98 328.94"/><line class="cls-9" x1="771.55" y1="328.94" x2="771.55" y2="340.32"/><polyline class="cls-9" points="726.04 283.43 737.42 294.81 726.04 306.18 737.42 317.56 726.04 328.94"/><line class="cls-9" x1="669.79" y1="275.29" x2="669.79" y2="279.86"/><line class="cls-9" x1="666.29" y1="279.86" x2="678.29" y2="279.86"/><line class="cls-9" x1="666.29" y1="284.41" x2="682.36" y2="284.41"/><line class="cls-9" x1="666.33" y1="288.85" x2="672.71" y2="288.85"/><line class="cls-9" x1="666.29" y1="279.86" x2="666.29" y2="284.41"/><line class="cls-9" x1="670.27" y1="284.3" x2="670.27" y2="288.85"/><line class="cls-9" x1="674.04" y1="279.86" x2="674.04" y2="284.41"/><path class="cls-9" d="M590.46,253.47h-9.34a10.4,10.4,0,0,0-19.13-1,5.56,5.56,0,0,0-8.54,2,4.84,4.84,0,0,0-7.66,2.5H594A3.54,3.54,0,0,0,590.46,253.47Z"/><path class="cls-9" d="M747.09,180.69h-2.36a3.76,3.76,0,0,0-3.18-1.76,3.68,3.68,0,0,0-2.12.67,6.16,6.16,0,0,0-11.74,1.46,3.75,3.75,0,0,0-5.37,3.4,3.86,3.86,0,0,0,.17,1.13H752A4.89,4.89,0,0,0,747.09,180.69Z"/><g id="smoke_right" data-name="smoke right"><circle class="cls-2" cx="499.04" cy="178.88" r="8.7"/><circle class="cls-2" cx="498.55" cy="189.27" r="5.98"/><circle class="cls-2" cx="504.42" cy="194.77" r="4.26"/><circle class="cls-2" cx="507.74" cy="184.69" r="8.18"/><circle class="cls-2" cx="521.42" cy="177.12" r="15.51"/><circle class="cls-2" cx="534.11" cy="165.35" r="14.12"/></g><g id="smoke_right-2" data-name="smoke right"><circle class="cls-2" cx="558.31" cy="130.13" r="8.7"/><circle class="cls-2" cx="556.7" cy="119.85" r="5.98"/><circle class="cls-2" cx="549.84" cy="115.65" r="4.26"/><circle class="cls-2" cx="548.62" cy="126.2" r="8.18"/><circle class="cls-2" cx="536.75" cy="136.37" r="15.51"/><circle class="cls-2" cx="526.69" cy="150.45" r="14.12"/></g><g id="smoke_right-3" data-name="smoke right"><circle class="cls-2" cx="471.78" cy="101.96" r="12.92"/><circle class="cls-2" cx="460.12" cy="91.83" r="8.88"/><circle class="cls-2" cx="448.3" cy="93.62" r="6.33"/><circle class="cls-2" cx="457.01" cy="106.76" r="12.15"/><circle class="cls-2" cx="453.26" cy="129.68" r="23.03"/><circle class="cls-2" cx="455.32" cy="155.3" r="20.97"/></g><g id="smoke_right-4" data-name="smoke right"><circle class="cls-2" cx="602.48" cy="89.5" r="12.04"/><circle class="cls-2" cx="600.26" cy="75.29" r="8.27"/><circle class="cls-2" cx="590.76" cy="69.46" r="5.9"/><circle class="cls-2" cx="589.07" cy="84.06" r="11.32"/><circle class="cls-2" cx="572.64" cy="98.14" r="21.46"/><circle class="cls-2" cx="558.72" cy="117.64" r="19.54"/></g><g id="smoke_right-5" data-name="smoke right"><circle class="cls-2" cx="575.88" cy="86.84" r="12.04"/><circle class="cls-2" cx="573.65" cy="72.63" r="8.27"/><circle class="cls-2" cx="564.15" cy="66.8" r="5.9"/><circle class="cls-2" cx="562.47" cy="81.4" r="11.32"/><circle class="cls-2" cx="546.04" cy="95.48" r="21.46"/><circle class="cls-2" cx="532.12" cy="114.98" r="19.54"/></g><g id="smoke_right-6" data-name="smoke right"><circle class="cls-2" cx="441" cy="37.7" r="25.87"/><circle class="cls-2" cx="417.36" cy="17.78" r="17.78"/><circle class="cls-2" cx="393.75" cy="21.71" r="12.67"/><circle class="cls-2" cx="411.58" cy="47.77" r="24.33"/><circle class="cls-2" cx="404.76" cy="93.76" r="46.12"/><circle class="cls-2" cx="409.64" cy="144.99" r="41.99"/></g><g id="Facory_right" data-name="Facory right"><polygon class="cls-8" points="520.37 374.69 487.36 374.69 490.34 303.73 490.79 293.23 491.26 281.97 491.7 271.48 492.18 260.22 492.62 249.72 493.09 238.46 493.53 227.97 494.51 204.59 512.05 204.59 513.19 227.97 513.7 238.46 514.25 249.72 514.77 260.22 515.32 271.48 515.84 281.97 516.39 293.23 516.9 303.73 520.37 374.69"/><polygon class="cls-11" points="513.7 238.46 493.09 238.46 493.53 227.97 513.19 227.97 513.7 238.46"/><polygon class="cls-11" points="514.77 260.22 492.18 260.22 492.62 249.72 514.25 249.72 514.77 260.22"/><polygon class="cls-11" points="515.84 281.97 491.26 281.97 491.7 271.48 515.32 271.48 515.84 281.97"/><polygon class="cls-11" points="516.9 303.73 490.34 303.73 490.79 293.23 516.39 293.23 516.9 303.73"/><polygon class="cls-8" points="627.98 276.1 627.98 292.95 627.98 374.71 520.92 374.79 520.92 292.95 556.65 276.1 556.65 292.84 592.16 276.1 592.16 292.95 627.98 276.1"/><polygon class="cls-6" points="520.37 374.69 487.36 374.69 490.34 303.73 490.79 293.23 491.26 281.97 491.7 271.48 492.18 260.22 492.62 249.72 493.09 238.46 493.53 227.97 494.51 204.59 512.05 204.59 513.19 227.97 513.7 238.46 514.25 249.72 514.77 260.22 515.32 271.48 515.84 281.97 516.39 293.23 516.9 303.73 520.37 374.69"/><rect class="cls-8" x="529.86" y="307.62" width="8.49" height="2.56"/><rect class="cls-8" x="529.86" y="313.06" width="8.49" height="2.56"/><rect class="cls-8" x="541.86" y="307.62" width="8.49" height="2.56"/><rect class="cls-8" x="541.86" y="313.06" width="8.49" height="2.56"/><rect class="cls-8" x="562.83" y="307.62" width="8.49" height="2.56"/><rect class="cls-8" x="562.83" y="313.06" width="8.49" height="2.56"/><rect class="cls-8" x="574.83" y="307.62" width="8.49" height="2.56"/><rect class="cls-8" x="574.83" y="313.06" width="8.49" height="2.56"/><rect class="cls-8" x="601.87" y="307.62" width="8.49" height="2.56"/><rect class="cls-8" x="601.87" y="313.06" width="8.49" height="2.56"/><rect class="cls-8" x="613.87" y="307.62" width="8.49" height="2.56"/><rect class="cls-8" x="613.87" y="313.06" width="8.49" height="2.56"/><polyline class="cls-6" points="520.92 292.95 520.92 286.82 556.65 269.69 556.65 276.1"/><polygon class="cls-8" points="556.65 286.61 592.16 269.69 592.16 276.1 556.65 292.84 556.65 286.61"/><polygon class="cls-8" points="627.98 276.1 627.98 269.69 592.24 286.82 592.24 292.95 627.98 276.1"/><polygon class="cls-2" points="587.24 374.69 486.65 374.87 486.65 333.6 587.24 333.6 587.24 374.69"/><rect class="cls-8" x="520.37" y="350.69" width="13.14" height="24"/><rect class="cls-8" x="539.95" y="350.69" width="15.86" height="11.67"/><rect class="cls-8" x="564.11" y="350.69" width="15.86" height="11.67"/><rect class="cls-8" x="496.89" y="350.69" width="15.86" height="11.67"/><rect class="cls-8" x="587.24" y="328.62" width="68.28" height="46.06"/><rect class="cls-8" x="600" y="337.9" width="9.93" height="3.89"/><rect class="cls-8" x="600" y="346.14" width="9.93" height="3.89"/><rect class="cls-8" x="600" y="354.38" width="9.93" height="3.89"/><rect class="cls-8" x="600" y="362.61" width="9.93" height="3.89"/><rect class="cls-8" x="616.41" y="337.9" width="9.93" height="3.89"/><rect class="cls-8" x="616.41" y="346.14" width="9.93" height="3.89"/><rect class="cls-8" x="616.41" y="354.38" width="9.93" height="3.89"/><rect class="cls-8" x="616.41" y="362.61" width="9.93" height="3.89"/><rect class="cls-8" x="632.83" y="337.9" width="9.93" height="3.89"/><rect class="cls-8" x="632.83" y="346.14" width="9.93" height="3.89"/><rect class="cls-8" x="632.83" y="354.38" width="9.93" height="3.89"/><rect class="cls-8" x="632.83" y="362.61" width="9.93" height="3.89"/><rect class="cls-8" x="490.87" y="203.34" width="25.05" height="6.96"/><line class="cls-8" x1="494.52" y1="334.03" x2="580.91" y2="334.03"/></g><rect class="cls-9" x="659.35" y="361.13" width="2.44" height="13.82"/><rect class="cls-9" x="687.74" y="361.13" width="2.44" height="13.82"/><rect class="cls-12" x="654.46" y="351.3" width="41.46" height="12.31"/><polygon class="cls-11" points="665.51 363.61 659.72 363.61 669.5 351.3 675.28 351.3 665.51 363.61"/><polygon class="cls-11" points="680.74 363.61 674.95 363.61 684.73 351.3 690.52 351.3 680.74 363.61"/><polygon class="cls-11" points="660.05 351.3 654.46 351.3 654.46 358.33 660.05 351.3"/><polygon class="cls-11" points="690.18 363.61 695.92 363.61 695.92 356.38 690.18 363.61"/><line class="cls-13" x1="661.25" y1="361.67" x2="667.5" y2="353.81"/><line class="cls-13" x1="676.3" y1="361.84" x2="682.55" y2="353.97"/><rect class="cls-8" x="189.29" y="370.48" width="50.88" height="5.07"/><g id="house"><rect class="cls-14" x="249.54" y="771.37" width="125.51" height="47.45" transform="translate(624.6 1590.19) rotate(-180)"/><polygon class="cls-15" points="246.82 771.37 377.91 771.37 361.05 746.95 263.68 746.95 246.82 771.37"/><polygon class="cls-4" points="288.23 818.82 335.02 818.82 335.02 765.74 311.63 748.89 288.23 765.74 288.23 818.82"/><rect class="cls-4" x="303.01" y="786.52" width="17.23" height="32.3" transform="translate(623.25 1605.34) rotate(-180)"/><rect class="cls-2" x="260.31" y="786.52" width="17.23" height="18" transform="translate(537.85 1591.04) rotate(-180)"/><rect class="cls-2" x="346.53" y="786.52" width="17.23" height="18" transform="translate(710.29 1591.04) rotate(-180)"/><circle class="cls-4" cx="311.63" cy="768.68" r="9.12"/><path class="cls-16" d="M312.76,765.1a1.55,1.55,0,0,1-1.15.4,1.51,1.51,0,0,1-1.12-.4,1.46,1.46,0,0,1-.4-1.1,1.51,1.51,0,0,1,.4-1.13,1.54,1.54,0,0,1,1.12-.39,1.59,1.59,0,0,1,1.15.39,1.51,1.51,0,0,1,.4,1.13A1.46,1.46,0,0,1,312.76,765.1Zm-2.49,2.31H313v7.07h-2.73Z"/><line class="cls-9" x1="335.05" y1="771.37" x2="377.16" y2="771.37"/><line class="cls-9" x1="246.66" y1="771.37" x2="288.06" y2="771.37"/></g><rect class="cls-14" x="425.87" y="765.74" width="215.43" height="52.7"/><polyline class="cls-17" points="526.78 775.05 654.1 775.05 637.24 750.62 520.46 750.62"/><rect class="cls-2" x="466.57" y="783.09" width="52.15" height="21.99"/><rect class="cls-8" x="435.86" y="783.09" width="18.67" height="35.36"/><path id="Power_line_right-2" data-name="Power line right" class="cls-6" d="M188,292.89c-6.43,27.49-30.32,41.22-49.17,41.22a69.26,69.26,0,0,1-26.68-5.32"/><path id="Power_line_right-3" data-name="Power line right" class="cls-6" d="M112.11,328.31c-12.38,12.46-45.85,9.36-55.39.93"/><path id="Power_line_right-4" data-name="Power line right" class="cls-6" d="M56.9,328.31c-12.37,12.46-45.85,9.36-55.38.93"/><polyline class="cls-6" points="100.42 325.45 100.42 328.87 124.08 328.87 124.08 325.45"/><line class="cls-6" x1="112.25" y1="325.75" x2="112.25" y2="376.52"/><line class="cls-6" x1="118.97" y1="326.88" x2="118.97" y2="328.86"/><line class="cls-6" x1="105.63" y1="326.88" x2="105.63" y2="328.86"/><polyline class="cls-6" points="44.78 325.45 44.78 328.87 68.43 328.87 68.43 325.45"/><line class="cls-6" x1="56.6" y1="325.75" x2="56.6" y2="376.52"/><line class="cls-6" x1="63.32" y1="326.88" x2="63.32" y2="328.86"/><line class="cls-6" x1="49.99" y1="326.88" x2="49.99" y2="328.86"/><path class="cls-6" d="M112.37,329s59.63,20.4,83.8-74"/><rect class="cls-8" x="449.47" y="523.98" width="107.9" height="28.04"/><polyline class="cls-8" points="527.9 549.12 604.06 549.12 604.06 603.13 444.21 603.13 444.21 549.12 477.57 549.12"/><rect class="cls-2" x="489.09" y="569.81" width="31.96" height="33.29"/><rect class="cls-2" x="527.63" y="569.81" width="31.96" height="33.29"/><rect class="cls-2" x="564.59" y="569.81" width="31.96" height="33.29"/><rect class="cls-6" x="452.66" y="558.33" width="8.71" height="13.85"/><rect class="cls-6" x="467.6" y="558.33" width="8.71" height="13.85"/><rect class="cls-6" x="452.66" y="579.17" width="8.71" height="13.85"/><rect class="cls-6" x="467.6" y="579.17" width="8.71" height="13.85"/><circle class="cls-8" cx="502.31" cy="547.68" r="14.38"/><path class="cls-18" d="M496.27,551.55a6.31,6.31,0,0,0,6.31,6.32h0a6.33,6.33,0,0,0,5.1-10l-4.92-7.31-.19-.27-.18.27-4.92,7.31A6.35,6.35,0,0,0,496.27,551.55Z"/><path class="cls-19" d="M500.21,555.5a2.37,2.37,0,0,0,2.37,2.37h0A2.37,2.37,0,0,0,505,555.5a2.33,2.33,0,0,0-.46-1.4l-1.85-2.75-.07-.1-.06.1-1.85,2.75A2.33,2.33,0,0,0,500.21,555.5Z"/><line class="cls-20" x1="492.54" y1="575.04" x2="518.13" y2="575.04"/><line class="cls-20" x1="492.54" y1="580.73" x2="518.13" y2="580.73"/><line class="cls-20" x1="492.54" y1="586.42" x2="518.13" y2="586.42"/><line class="cls-20" x1="492.54" y1="592.1" x2="518.13" y2="592.1"/><line class="cls-20" x1="492.54" y1="597.79" x2="518.13" y2="597.79"/><line class="cls-20" x1="530.77" y1="575.04" x2="556.36" y2="575.04"/><line class="cls-20" x1="530.77" y1="580.73" x2="556.36" y2="580.73"/><line class="cls-20" x1="530.77" y1="586.42" x2="556.36" y2="586.42"/><line class="cls-20" x1="530.77" y1="592.1" x2="556.36" y2="592.1"/><line class="cls-20" x1="530.77" y1="597.79" x2="556.36" y2="597.79"/><line class="cls-20" x1="567.73" y1="575.04" x2="593.32" y2="575.04"/><line class="cls-20" x1="567.73" y1="580.73" x2="593.32" y2="580.73"/><line class="cls-20" x1="567.73" y1="586.42" x2="593.32" y2="586.42"/><line class="cls-20" x1="567.73" y1="592.1" x2="593.32" y2="592.1"/><line class="cls-20" x1="567.73" y1="597.79" x2="593.32" y2="597.79"/><rect class="cls-8" x="443.89" y="525.76" width="117.83" height="6"/><path class="cls-18" d="M443.79,524.48l59.7-21.24,59.7,21.24a1.88,1.88,0,0,1-.63,3.65H444.42A1.88,1.88,0,0,1,443.79,524.48Z"/><text class="cls-21" transform="translate(381.35 118.94)">Air pollution</text><text class="cls-21" transform="translate(665.77 119.61)">Building regulations</text><text class="cls-21" transform="translate(431.88 650.12)">Traffic and parking</text><text class="cls-21" transform="translate(161.06 216.71)">Electrical planning</text><text class="cls-21" transform="translate(529.41 504.42)">Fire-fighting services</text><text class="cls-21" transform="translate(162.67 476.73)">Municipal health <tspan x="0" y="16.8">services</tspan></text><text class="cls-21" transform="translate(262.15 735.16)">Local tourism</text><text class="cls-21" transform="translate(416.48 701.3)">Licensing and control of businesses <tspan x="0" y="16.8">that sell food to the public</tspan></text><path class="cls-8" d="M230.33,489.13V598.56H302.6V489.13Z"/><path class="cls-8" d="M359.2,489.13V598.56h72.28V489.13Z"/><rect class="cls-11" x="227.65" y="484.36" width="205.85" height="4.77"/><path class="cls-8" d="M302.6,472V598.56h56.6V472Z"/><rect class="cls-8" x="312.67" y="572.96" width="18.15" height="25.61"/><rect class="cls-8" x="330.82" y="572.96" width="18.15" height="25.61"/><rect class="cls-22" x="237.66" y="523.01" width="14.99" height="16.7"/><rect class="cls-2" x="237.66" y="498.03" width="14.99" height="16.71"/><rect class="cls-4" x="223.48" y="598.56" width="214.18" height="5.04"/><circle class="cls-11" cx="330.9" cy="498.03" r="18.23"/><polygon class="cls-14" points="341.66 494.21 334.65 494.21 334.65 487.21 326.99 487.21 326.99 494.21 319.99 494.21 319.99 501.88 326.99 501.88 326.99 508.88 334.65 508.88 334.65 501.88 341.66 501.88 341.66 494.21"/><rect class="cls-11" x="298.68" y="468.44" width="63.78" height="4.61"/><rect class="cls-22" x="258.98" y="523.01" width="14.98" height="16.7"/><rect class="cls-22" x="280.29" y="523.01" width="14.98" height="16.7"/><rect class="cls-22" x="258.98" y="498.03" width="14.98" height="16.71"/><rect class="cls-22" x="280.29" y="498.03" width="14.98" height="16.71"/><rect class="cls-22" x="237.66" y="547.98" width="14.99" height="16.71"/><rect class="cls-22" x="258.98" y="547.98" width="14.98" height="16.71"/><rect class="cls-22" x="280.29" y="547.98" width="14.98" height="16.71"/><rect class="cls-22" x="237.66" y="572.96" width="14.99" height="16.71"/><rect class="cls-22" x="258.98" y="572.96" width="14.98" height="16.71"/><rect class="cls-22" x="280.29" y="572.96" width="14.98" height="16.71"/><rect class="cls-22" x="366.54" y="523.01" width="14.98" height="16.7"/><rect class="cls-22" x="387.85" y="523.01" width="14.98" height="16.7"/><rect class="cls-22" x="409.16" y="523.01" width="14.99" height="16.7"/><rect class="cls-22" x="366.54" y="498.03" width="14.98" height="16.71"/><rect class="cls-22" x="387.85" y="498.03" width="14.98" height="16.71"/><rect class="cls-22" x="409.16" y="498.03" width="14.99" height="16.71"/><rect class="cls-22" x="366.54" y="547.98" width="14.98" height="16.71"/><rect class="cls-22" x="387.85" y="547.98" width="14.98" height="16.71"/><rect class="cls-22" x="409.16" y="547.98" width="14.99" height="16.71"/><rect class="cls-22" x="366.54" y="572.96" width="14.98" height="16.71"/><rect class="cls-22" x="387.85" y="572.96" width="14.98" height="16.71"/><rect class="cls-22" x="409.16" y="572.96" width="14.99" height="16.71"/><rect class="cls-4" x="434.43" y="816.43" width="23.38" height="2.47"/><rect class="cls-4" x="300.08" y="816.43" width="23.38" height="2.47"/><rect class="cls-8" x="206.18" y="533.2" width="1.57" height="41.81"/><polygon class="cls-8" points="210.69 601.34 203.24 601.34 204.52 576.64 209.41 576.64 210.69 601.34"/><polygon class="cls-8" points="208.14 575.01 205.79 575.01 204.52 576.64 209.41 576.64 208.14 575.01"/><rect class="cls-8" x="201.64" y="601.34" width="10.65" height="1.92"/><polygon class="cls-8" points="203.24 523.26 210.69 523.26 209.41 531.25 204.52 531.25 203.24 523.26"/><polygon class="cls-8" points="206.18 533.2 207.75 533.2 209.41 531.25 204.52 531.25 206.18 533.2"/><polygon class="cls-8" points="203.24 523.26 210.69 523.26 209.41 520.71 204.52 520.71 203.24 523.26"/><rect class="cls-8" x="202.39" y="523.26" width="9.16" height="1.07"/><polygon class="cls-8" points="205.93 520.71 208 520.71 207.65 519.75 206.28 519.75 205.93 520.71"/><circle class="cls-8" cx="206.97" cy="518.94" r="1.06"/><rect class="cls-8" x="623.85" y="533.14" width="1.57" height="41.81"/><polygon class="cls-8" points="628.36 601.28 620.91 601.28 622.19 576.58 627.09 576.58 628.36 601.28"/><polygon class="cls-8" points="625.81 574.95 623.47 574.95 622.19 576.58 627.09 576.58 625.81 574.95"/><rect class="cls-8" x="619.31" y="601.28" width="10.65" height="1.92"/><polygon class="cls-8" points="620.91 523.2 628.36 523.2 627.09 531.19 622.19 531.19 620.91 523.2"/><polygon class="cls-8" points="623.85 533.14 625.42 533.14 627.09 531.19 622.19 531.19 623.85 533.14"/><polygon class="cls-8" points="620.91 523.2 628.36 523.2 627.09 520.65 622.19 520.65 620.91 523.2"/><rect class="cls-8" x="620.06" y="523.2" width="9.16" height="1.07"/><polygon class="cls-8" points="623.6 520.65 625.67 520.65 625.32 519.69 623.96 519.69 623.6 520.65"/><circle class="cls-8" cx="624.64" cy="518.87" r="1.06"/><rect class="cls-8" x="235.69" y="748.79" width="1.57" height="41.81"/><polygon class="cls-8" points="240.2 816.93 232.75 816.93 234.02 792.23 238.92 792.23 240.2 816.93"/><polygon class="cls-8" points="237.64 790.6 235.3 790.6 234.02 792.23 238.92 792.23 237.64 790.6"/><rect class="cls-8" x="231.15" y="816.93" width="10.65" height="1.92"/><polygon class="cls-8" points="232.75 738.86 240.2 738.86 238.92 746.84 234.02 746.84 232.75 738.86"/><polygon class="cls-8" points="235.69 748.79 237.26 748.79 238.92 746.84 234.02 746.84 235.69 748.79"/><polygon class="cls-8" points="232.75 738.86 240.2 738.86 238.92 736.3 234.02 736.3 232.75 738.86"/><rect class="cls-8" x="231.89" y="738.86" width="9.16" height="1.07"/><polygon class="cls-8" points="235.44 736.3 237.51 736.3 237.15 735.34 235.79 735.34 235.44 736.3"/><circle class="cls-8" cx="236.47" cy="734.53" r="1.06"/><rect class="cls-23" x="554.81" y="737.02" width="61.81" height="21.28"/><text class="cls-21" transform="translate(558.93 752.32)">LIQUOR</text><rect class="cls-8" x="528.44" y="773.98" width="3.25" height="44.52"/><rect class="cls-8" x="528.44" y="772.6" width="127.36" height="2.99"/><path class="cls-24" d="M428.33,750.09l-7.39,20.41a3.78,3.78,0,0,0,3.94,4.8,6.35,6.35,0,0,0,6.05-4.8h0l6.33-20.41Z"/><path class="cls-24" d="M437,750.09l-6.09,20.41a4,4,0,0,0,4.15,4.8,6,6,0,0,0,5.84-4.8h0l5-20.41Z"/><path class="cls-24" d="M454.4,750.09l-3.5,20.41a4.37,4.37,0,0,0,4.58,4.8,5.38,5.38,0,0,0,5.41-4.8h0l2.43-20.41Z"/><path class="cls-24" d="M463.09,750.09l-2.2,20.41a4.6,4.6,0,0,0,4.78,4.8,5.11,5.11,0,0,0,5.21-4.8h0L472,750.09Z"/><path class="cls-24" d="M445.71,750.09l-4.79,20.41a4.15,4.15,0,0,0,4.36,4.8,5.67,5.67,0,0,0,5.62-4.8h0l3.73-20.41Z"/><path class="cls-24" d="M480.51,750.09h-8.66L471,770.5a5,5,0,0,0,10,0h0Z"/><path class="cls-24" d="M531.06,770.5l-7.36-20.41h-9l6.3,20.41h0a6.33,6.33,0,0,0,6,4.8A3.79,3.79,0,0,0,531.06,770.5Z"/><path class="cls-24" d="M521.07,770.5,515,750.09h-8.95l5,20.41h0a6,6,0,0,0,5.83,4.8A4,4,0,0,0,521.07,770.5Z"/><path class="cls-24" d="M501.09,770.5l-3.46-20.41h-8.95l2.4,20.41h0a5.37,5.37,0,0,0,5.4,4.8A4.37,4.37,0,0,0,501.09,770.5Z"/><path class="cls-24" d="M491.11,770.5l-2.17-20.41H480l1.1,20.41h0a5.09,5.09,0,0,0,5.2,4.8A4.61,4.61,0,0,0,491.11,770.5Z"/><path class="cls-24" d="M511.08,770.5l-4.76-20.41h-8.95l3.7,20.41h0a5.69,5.69,0,0,0,5.62,4.8A4.16,4.16,0,0,0,511.08,770.5Z"/><path class="cls-6" d="M420.94,770.5a3.78,3.78,0,0,0,3.94,4.8,6.35,6.35,0,0,0,6.05-4.8,4,4,0,0,0,4.15,4.8,6,6,0,0,0,5.84-4.8,4.15,4.15,0,0,0,4.36,4.8,5.67,5.67,0,0,0,5.62-4.8,4.37,4.37,0,0,0,4.58,4.8,5.38,5.38,0,0,0,5.41-4.8,4.6,4.6,0,0,0,4.78,4.8,5.11,5.11,0,0,0,5.21-4.8H471a5,5,0,0,0,10,0h.17a5.09,5.09,0,0,0,5.2,4.8,4.61,4.61,0,0,0,4.79-4.8,5.37,5.37,0,0,0,5.4,4.8,4.37,4.37,0,0,0,4.58-4.8,5.69,5.69,0,0,0,5.62,4.8,4.16,4.16,0,0,0,4.37-4.8,6,6,0,0,0,5.83,4.8,4,4,0,0,0,4.16-4.8,6.33,6.33,0,0,0,6,4.8,3.79,3.79,0,0,0,3.95-4.8"/><rect class="cls-23" x="442.97" y="737.02" width="58.08" height="21.28"/><text class="cls-21" transform="translate(447.08 752.32)">BISTRO</text><rect class="cls-2" x="157.55" y="947.71" width="58.08" height="46.61"/><text class="cls-21" transform="translate(168.71 965)">PARK</text><line class="cls-4" x1="163.53" y1="969.43" x2="209.65" y2="969.43"/><text class="cls-21" transform="translate(544.2 837.59)">Liquor sales</text><rect class="cls-25" x="550.28" y="785.35" width="40.33" height="33.7"/><rect class="cls-2" x="595.95" y="784.46" width="40.33" height="18.73"/><path class="cls-4" d="M293.9,1029.5a6,6,0,0,0-4.23-1.75h-2l-.31,0a9.72,9.72,0,0,0-13.56-6.34,13.06,13.06,0,0,0-25.58.23,9.73,9.73,0,0,0-14.12,6.52,6.21,6.21,0,0,0-2.28-.44,6,6,0,0,0-6,6h69.77A6,6,0,0,0,293.9,1029.5Z"/><path class="cls-3" d="M259,1029.5a6,6,0,0,0-4.23-1.75h-1.95l-.32,0a9.72,9.72,0,0,0-13.56-6.34,13.06,13.06,0,0,0-25.58.23,9.73,9.73,0,0,0-14.12,6.52,6.17,6.17,0,0,0-2.28-.44,6,6,0,0,0-6,6h69.77A6,6,0,0,0,259,1029.5Z"/><path class="cls-3" d="M642.1,1029.5a6,6,0,0,0-4.24-1.75h-2l-.31,0a9.72,9.72,0,0,0-13.56-6.34,13.06,13.06,0,0,0-25.58.23,9.74,9.74,0,0,0-14.13,6.52,6.12,6.12,0,0,0-2.27-.44,6,6,0,0,0-6,6h69.77A6,6,0,0,0,642.1,1029.5Z"/><rect class="cls-4" x="162.63" y="973.87" width="12.41" height="12.41"/><rect class="cls-4" x="179.97" y="973.87" width="12.41" height="12.41"/><rect class="cls-4" x="197.31" y="973.87" width="12.41" height="12.41"/><text class="cls-21" transform="translate(145.31 929.73)">Public places</text><line class="cls-4" x1="225.21" y1="819.02" x2="714.05" y2="819.02"/><line class="cls-4" x1="92.79" y1="1034.17" x2="668.82" y2="1034.17"/><text class="cls-21" transform="translate(498.25 991.69)">Fencing</text><rect class="cls-4" x="652.74" y="964.56" width="1.57" height="41.81"/><polygon class="cls-4" points="657.25 1032.7 649.8 1032.7 651.08 1008 655.97 1008 657.25 1032.7"/><polygon class="cls-4" points="654.7 1006.36 652.35 1006.36 651.08 1008 655.97 1008 654.7 1006.36"/><rect class="cls-4" x="648.2" y="1032.7" width="10.65" height="1.92"/><polygon class="cls-4" points="649.8 954.62 657.25 954.62 655.97 962.61 651.08 962.61 649.8 954.62"/><polygon class="cls-4" points="652.74 964.56 654.31 964.56 655.97 962.6 651.08 962.6 652.74 964.56"/><polygon class="cls-4" points="649.8 954.62 657.25 954.62 655.97 952.06 651.08 952.06 649.8 954.62"/><rect class="cls-4" x="648.95" y="954.62" width="9.16" height="1.07"/><polygon class="cls-4" points="652.49 952.06 654.56 952.06 654.2 951.11 652.84 951.11 652.49 952.06"/><circle class="cls-4" cx="653.52" cy="950.29" r="1.06"/><text class="cls-21" transform="translate(105.58 417.34)">Municipal roads</text><text class="cls-21" transform="translate(376.42 912.93)">Water and <tspan x="0" y="16.8">sanitation services</tspan></text><text class="cls-21" transform="translate(575.36 1052.13)">Street trading</text><rect class="cls-23" x="610.23" y="1028.43" width="1.97" height="6.14"/><rect class="cls-23" x="610.29" y="1000.48" width="1.56" height="14.03"/><rect class="cls-23" x="637.58" y="1000.48" width="1.56" height="14.03"/><path class="cls-16" d="M607.61,994.08l-2.79,7.68a1.43,1.43,0,0,0,1.49,1.81,2.4,2.4,0,0,0,2.28-1.81h0l2.38-7.68Z"/><path class="cls-16" d="M610.88,994.08l-2.29,7.68a1.49,1.49,0,0,0,1.56,1.81,2.27,2.27,0,0,0,2.2-1.81h0l1.89-7.68Z"/><path class="cls-16" d="M617.42,994.08l-1.31,7.68a1.64,1.64,0,0,0,1.72,1.81,2,2,0,0,0,2-1.81h0l.92-7.68Z"/><path class="cls-16" d="M620.7,994.08l-.83,7.68a1.73,1.73,0,0,0,1.8,1.81,1.92,1.92,0,0,0,2-1.81h0l.43-7.68Z"/><path class="cls-16" d="M614.15,994.08l-1.8,7.68a1.57,1.57,0,0,0,1.64,1.81,2.15,2.15,0,0,0,2.12-1.81h0l1.4-7.68Z"/><path class="cls-16" d="M627.26,994.08H624l-.34,7.68a1.89,1.89,0,0,0,3.77,0h0Z"/><path class="cls-16" d="M646.3,1001.76l-2.78-7.68h-3.37l2.37,7.68h0a2.4,2.4,0,0,0,2.28,1.81A1.43,1.43,0,0,0,646.3,1001.76Z"/><path class="cls-16" d="M642.53,1001.76l-2.28-7.68h-3.37l1.88,7.68h0a2.27,2.27,0,0,0,2.2,1.81A1.49,1.49,0,0,0,642.53,1001.76Z"/><path class="cls-16" d="M635,1001.76l-1.3-7.68h-3.37l.9,7.68h0a2,2,0,0,0,2,1.81A1.64,1.64,0,0,0,635,1001.76Z"/><path class="cls-16" d="M631.25,1001.76l-.82-7.68h-3.37l.42,7.68h0a1.92,1.92,0,0,0,2,1.81A1.73,1.73,0,0,0,631.25,1001.76Z"/><path class="cls-16" d="M638.77,1001.76,637,994.08h-3.37l1.39,7.68h0a2.15,2.15,0,0,0,2.12,1.81A1.57,1.57,0,0,0,638.77,1001.76Z"/><rect class="cls-23" x="609.12" y="1014.15" width="31.97" height="16.06"/><circle class="cls-23" cx="635.25" cy="1030.1" r="4.71"/><circle class="cls-23" cx="635.25" cy="1030.1" r="1.37"/><rect class="cls-26" x="607" y="1013.8" width="36.17" height="2.79"/><rect class="cls-27" x="606.75" y="992.7" width="37.29" height="2.52"/><line class="cls-9" x1="403.91" y1="951.6" x2="403.91" y2="953.1"/><line class="cls-28" x1="403.91" y1="956.17" x2="403.91" y2="973.05"/><line class="cls-9" x1="403.91" y1="974.58" x2="403.91" y2="976.08"/><path class="cls-9" d="M424.67,976.08V951.6a10.38,10.38,0,0,0-10.38-10.38h0a10.38,10.38,0,0,0-10.38,10.38"/><line class="cls-9" x1="445.44" y1="951.6" x2="445.44" y2="953.1"/><line class="cls-28" x1="445.44" y1="956.17" x2="445.44" y2="973.05"/><line class="cls-9" x1="445.44" y1="974.58" x2="445.44" y2="976.08"/><path class="cls-9" d="M424.67,976.08V951.6a10.39,10.39,0,0,1,10.39-10.38h0a10.38,10.38,0,0,1,10.38,10.38"/><rect class="cls-4" x="417.17" y="1012.88" width="14.82" height="16.69"/><rect class="cls-4" x="419.5" y="974.49" width="10.16" height="9.99"/><rect class="cls-4" x="416.93" y="991.78" width="15.31" height="15.05"/><path class="cls-29" d="M410.09,969.31h29a0,0,0,0,1,0,0v1.31a5.43,5.43,0,0,1-5.43,5.43H415.52a5.43,5.43,0,0,1-5.43-5.43v-1.31A0,0,0,0,1,410.09,969.31Z"/><path class="cls-29" d="M402.76,984h43.65a0,0,0,0,1,0,0v2a8.18,8.18,0,0,1-8.18,8.18H410.94a8.18,8.18,0,0,1-8.18-8.18v-2A0,0,0,0,1,402.76,984Z"/><rect class="cls-4" x="400.3" y="982.43" width="48.56" height="2.65"/><path class="cls-29" d="M396.39,1004.33h56.37a0,0,0,0,1,0,0v2.54a10.57,10.57,0,0,1-10.57,10.57H407a10.57,10.57,0,0,1-10.57-10.57v-2.54A0,0,0,0,1,396.39,1004.33Z"/><rect class="cls-4" x="393.22" y="1002.33" width="62.71" height="3.42"/><rect class="cls-8" x="341.52" y="317.1" width="68.28" height="57.59"/><path class="cls-29" d="M404.44,1027.42h40.28a6.65,6.65,0,0,1,6.65,6.65v0a0,0,0,0,1,0,0H397.79a0,0,0,0,1,0,0v0A6.65,6.65,0,0,1,404.44,1027.42Z"/><rect class="cls-7" x="338.72" y="315.79" width="20.98" height="8.69"/><rect class="cls-4" x="423.01" y="960.23" width="3.55" height="9.42" rx="1.77"/><rect class="cls-4" x="408.46" y="967.44" width="32.24" height="2.61"/><rect class="cls-7" x="236.18" y="330.36" width="105.08" height="6.32"/><line class="cls-8" x1="248.26" y1="336.77" x2="334.65" y2="336.77"/><g id="Power_Plant_Tube" data-name="Power Plant Tube"><path class="cls-30" d="M484.56,164.79c-36.2,94.76,22,210,22,210l-174.25.67s58.79-115.92,22.58-210.68Z"/><path class="cls-6" d="M356,310c8.48-32.36,14.45-72.89,7.69-112.5"/><path class="cls-6" d="M476.49,193.13c-8.19,41.68-1.86,84.68,7.06,118.37"/><rect class="cls-8" x="351.36" y="158.08" width="136.72" height="9.58"/></g><line class="cls-6" x1="156.42" y1="603.77" x2="660.11" y2="603.12"/><path class="cls-31" d="M396.16,797.89a.84.84,0,0,0-1.08-.26c-.51.26-.86,1.1-1.54.86-.27-.09-.28-.36-.37-.61h0a.61.61,0,0,0-.05-.12h0a.42.42,0,0,0,0-.1.83.83,0,0,0-.73-.43h-.07a.84.84,0,0,0-.73.43s0,.07,0,.1h0a.61.61,0,0,0-.05.12h0c-.09.25-.1.52-.37.61-.68.24-1-.6-1.54-.86a.84.84,0,0,0-1.08.26,1.43,1.43,0,0,0-.15,1.07A6.63,6.63,0,0,0,390,802.5h4.61a6.63,6.63,0,0,0,1.69-3.54A1.38,1.38,0,0,0,396.16,797.89Z"/><path class="cls-31" d="M395.17,802.74l-.25-.18h-5.2l-.26.18c-1.11.81-5.59,4.38-5.51,9.55,0,0-.11,6.6,8.08,6.8h.57c8.2-.2,8.08-6.8,8.08-6.8C400.76,807.12,396.29,803.55,395.17,802.74Z"/><path class="cls-6" d="M389.29,817.41a5.39,5.39,0,0,1-4.08-5.11,7.92,7.92,0,0,1,.37-2.46"/><line class="cls-6" x1="389.76" y1="802.56" x2="394.76" y2="802.56"/><line class="cls-6" x1="392.07" y1="802.63" x2="390.8" y2="805.57"/><line class="cls-6" x1="392.51" y1="802.56" x2="394.26" y2="805.69"/><path class="cls-31" d="M422.76,797.89a.86.86,0,0,0-1.09-.27c-.5.26-.85,1.11-1.54.87-.27-.09-.28-.36-.36-.62h0l0-.12h0a.42.42,0,0,0,0-.1.81.81,0,0,0-.73-.43h-.06a.81.81,0,0,0-.73.43.42.42,0,0,0,0,.1h0l-.05.12h0c-.08.26-.09.53-.36.62-.69.24-1-.61-1.55-.87a.85.85,0,0,0-1.08.27,1.4,1.4,0,0,0-.14,1.06,6.42,6.42,0,0,0,1.69,3.54h4.6A6.42,6.42,0,0,0,422.9,799,1.4,1.4,0,0,0,422.76,797.89Z"/><path class="cls-31" d="M421.76,802.74l-.25-.18h-5.2l-.25.18c-1.12.81-5.59,4.37-5.52,9.54,0,0-.11,6.6,8.09,6.81h.56c8.2-.21,8.09-6.81,8.09-6.81C427.35,807.11,422.88,803.55,421.76,802.74Z"/><path class="cls-6" d="M415.88,817.41a5.38,5.38,0,0,1-4.07-5.11,7.92,7.92,0,0,1,.36-2.46"/><line class="cls-6" x1="416.36" y1="802.56" x2="421.35" y2="802.56"/><line class="cls-6" x1="418.66" y1="802.63" x2="417.4" y2="805.56"/><line class="cls-6" x1="419.11" y1="802.56" x2="420.86" y2="805.69"/><path class="cls-32" d="M409.82,798.26a.84.84,0,0,0-1.08-.26c-.5.26-.85,1.11-1.54.87-.27-.1-.28-.36-.36-.62h0a.56.56,0,0,0,0-.12h0a.3.3,0,0,0,0-.1.81.81,0,0,0-.73-.43H406a.84.84,0,0,0-.74.43.69.69,0,0,1,0,.1h0a.61.61,0,0,0-.05.12h0c-.08.26-.09.52-.37.62-.68.24-1-.61-1.54-.87a.84.84,0,0,0-1.08.26,1.48,1.48,0,0,0-.15,1.07,6.6,6.6,0,0,0,1.69,3.54h4.61a6.52,6.52,0,0,0,1.69-3.54A1.39,1.39,0,0,0,409.82,798.26Z"/><path class="cls-32" d="M408.83,803.11l-.25-.17h-5.2l-.25.17c-1.12.82-5.59,4.38-5.52,9.55,0,0-.11,6.6,8.08,6.81h.57c8.2-.21,8.09-6.81,8.09-6.81C414.42,807.49,410,803.93,408.83,803.11Z"/><path class="cls-6" d="M403,817.79a5.37,5.37,0,0,1-4.07-5.11,7.59,7.59,0,0,1,.36-2.46"/><line class="cls-6" x1="403.42" y1="802.94" x2="408.42" y2="802.94"/><line class="cls-6" x1="405.73" y1="803" x2="404.46" y2="805.94"/><line class="cls-6" x1="406.18" y1="802.94" x2="407.92" y2="806.07"/><path class="cls-32" d="M434.19,797.88a.84.84,0,0,0-1.08-.26c-.51.26-.86,1.11-1.54.87-.27-.1-.28-.36-.37-.62h0a.61.61,0,0,0-.05-.12h0a.3.3,0,0,0,0-.1.82.82,0,0,0-.73-.43h-.07a.82.82,0,0,0-.73.43.3.3,0,0,0,0,.1h0a.61.61,0,0,0-.05.12h0c-.09.26-.1.52-.37.62-.68.24-1-.61-1.54-.87a.84.84,0,0,0-1.08.26,1.43,1.43,0,0,0-.15,1.07,6.56,6.56,0,0,0,1.69,3.54h4.61a6.56,6.56,0,0,0,1.69-3.54A1.43,1.43,0,0,0,434.19,797.88Z"/><path class="cls-32" d="M433.2,802.74l-.25-.18h-5.21l-.25.18c-1.12.81-5.59,4.37-5.51,9.54,0,0-.12,6.6,8.08,6.81h.57c8.2-.21,8.08-6.81,8.08-6.81C438.79,807.11,434.32,803.55,433.2,802.74Z"/><path class="cls-6" d="M427.32,817.41a5.38,5.38,0,0,1-4.08-5.11,7.87,7.87,0,0,1,.37-2.46"/><line class="cls-6" x1="427.79" y1="802.56" x2="432.79" y2="802.56"/><line class="cls-6" x1="430.1" y1="802.62" x2="428.83" y2="805.56"/><line class="cls-6" x1="430.54" y1="802.56" x2="432.29" y2="805.69"/><line class="cls-25" x1="570.73" y1="789.46" x2="570.73" y2="816.51"/><line class="cls-9" x1="29.34" y1="376.13" x2="793.52" y2="374.13"/><line class="cls-33" x1="0.41" y1="1064.28" x2="6.41" y2="1064.28"/><path class="cls-34" d="M18.39,1064.28H649.87A107.75,107.75,0,0,0,757.61,956.53h0A107.74,107.74,0,0,0,649.87,848.79H203.93A107.75,107.75,0,0,1,96.18,741.05h0A107.75,107.75,0,0,1,203.93,633.3H649.87A107.74,107.74,0,0,0,757.61,525.56h0A107.74,107.74,0,0,0,649.87,417.82H271.78"/><line class="cls-33" x1="265.8" y1="417.82" x2="259.8" y2="417.82"/><path class="cls-35" d="M520.55,378.59l6.9-14.36,9.08-.12a2,2,0,0,1,2,1.5l2.55,9.55,0,3.16Z"/><polygon class="cls-7" points="518.92 378.62 547.38 378.24 547.56 392.32 549.81 392.3 549.85 395.46 484.48 396.33 484.38 388.73 514.21 388.33 518.92 378.62"/><polygon class="cls-35" points="546.93 362.36 523.46 362.67 512.36 385.38 456.96 375.28 464.37 367.5 516.33 366.81 521.61 360.16 546.9 359.83 546.93 362.36"/><polygon class="cls-36" points="458.63 378.65 456.88 375.31 512.34 384.58 523.46 362.67 525.31 362.65 512.48 388.35 458.63 378.65"/><polygon class="cls-7" points="515.34 386.01 517.41 386.47 520.14 380.51 540.39 380.24 543.16 395.55 549.85 395.46 549.81 392.3 547.56 392.32 547.38 378.24 518.92 378.62 515.34 386.01"/><circle class="cls-37" cx="528.65" cy="395.07" r="13.14"/><circle class="cls-37" cx="485.43" cy="395.52" r="13.14"/><circle class="cls-38" cx="485.56" cy="395.52" r="4.66"/><circle class="cls-38" cx="528.65" cy="394.95" r="4.66"/><rect class="cls-37" x="503.61" y="387.43" width="10.92" height="10.92" transform="translate(-5.15 6.77) rotate(-0.76)"/><path class="cls-3" d="M464.37,367.5s-1.26-1,.27-2.19c.59-.46,1.85,0,2.48,0a1.8,1.8,0,0,0,1.61-.94,8,8,0,0,1,6.88-3.35s1.12.19,1.64-1.48a2,2,0,0,1,1.38-1.4,7.55,7.55,0,0,1,3.06,0c.6.17,1.16-1.32,1.91-1.52,1.16-.31,1.56.51,3.13.3s8.62-2.45,12.3-1.41,9.21-.37,10.71-.66,1.77-.53,4,.92a13.11,13.11,0,0,0,6,2.38c1.53,0,1.81.19,1.79.82s-.26.76,0,.91.09.3.09.3l-5.28,6.65Z"/><polyline class="cls-39" points="546.66 392.4 543.74 392.44 541.6 380.45"/><polyline class="cls-39" points="464.96 369.29 515.32 368.62 508.47 381.69"/><line class="cls-39" x1="499.45" y1="368.83" x2="494.52" y2="378.94"/><path class="cls-40" d="M528.26,367.09l7-.12a1.75,1.75,0,0,1,1.76,1.32l2,7.73,0,2.58-16.57.22Z"/><line class="cls-39" x1="521.75" y1="378.89" x2="539.93" y2="378.65"/><path class="cls-35" d="M759.37,365.94l7.09-14.27h9.08a2,2,0,0,1,2,1.53l2.42,9.58v3.16Z"/><polygon class="cls-7" points="757.74 365.94 786.2 365.94 786.2 380.03 788.44 380.03 788.44 383.2 723.07 383.2 723.07 375.59 752.9 375.59 757.74 365.94"/><polygon class="cls-35" points="785.96 350.06 762.49 350.06 751.09 372.62 695.83 361.79 703.34 354.11 755.3 354.11 760.67 347.52 785.96 347.52 785.96 350.06"/><polygon class="cls-36" points="697.45 365.18 695.74 361.82 751.08 371.82 762.49 350.06 764.34 350.06 751.17 375.59 697.45 365.18"/><polygon class="cls-7" points="754.06 373.29 756.13 373.77 758.94 367.85 779.18 367.85 781.75 383.2 788.44 383.2 788.44 380.03 786.2 380.03 786.2 365.94 757.74 365.94 754.06 373.29"/><circle class="cls-37" cx="767.25" cy="382.52" r="13.14"/><circle class="cls-37" cx="724.03" cy="382.4" r="13.14"/><circle class="cls-38" cx="724.15" cy="382.4" r="4.66"/><circle class="cls-38" cx="767.25" cy="382.4" r="4.66"/><rect class="cls-37" x="742.24" y="374.63" width="10.92" height="10.92"/><polyline class="cls-39" points="785.29 380.09 782.37 380.09 780.39 368.07"/><polyline class="cls-39" points="703.91 355.9 754.27 355.9 747.25 368.87"/><line class="cls-39" x1="738.4" y1="355.9" x2="733.33" y2="365.94"/><path class="cls-40" d="M767.23,354.54l7,0a1.77,1.77,0,0,1,1.75,1.34l1.92,7.76v2.57H761.36Z"/><line class="cls-39" x1="760.56" y1="366.25" x2="778.74" y2="366.25"/><rect class="cls-41" x="403.77" y="397.64" width="8.26" height="3.84"/><rect class="cls-3" x="361.63" y="389.93" width="51.96" height="7.71" transform="translate(775.22 787.57) rotate(-180)"/><line class="cls-42" x1="413.59" y1="386.63" x2="413.59" y2="402.23"/><path class="cls-3" d="M419.07,375.47H445.5a0,0,0,0,1,0,0v23.38a3.38,3.38,0,0,1-3.38,3.38h-4.41a22.7,22.7,0,0,1-22.7-22.7v0a4.06,4.06,0,0,1,4.06-4.06Z" transform="translate(860.51 777.7) rotate(180)"/><path class="cls-14" d="M424,378.27l-4.05.08a1.57,1.57,0,0,0-1.55,1.57v4.29a1.58,1.58,0,0,0,1.58,1.58h8.9a1.62,1.62,0,0,1,.9.28l2.73,1.9a1.56,1.56,0,0,0,.9.29h1.38a1.58,1.58,0,0,0,1.42-2.27,15.17,15.17,0,0,0-2.42-3.49A12.82,12.82,0,0,0,424,378.27Z"/><line class="cls-42" x1="421.46" y1="389.17" x2="418.2" y2="389.17"/><path class="cls-42" d="M417.49,385.32c0,.23,0,6.17,0,9.59a2.38,2.38,0,0,1-2.38,2.39h0"/><path class="cls-14" d="M438.35,391.1h5.14a0,0,0,0,1,0,0v.28a2.57,2.57,0,0,1-2.57,2.57h0a2.57,2.57,0,0,1-2.57-2.57v-.28A0,0,0,0,1,438.35,391.1Z" transform="translate(881.84 785.05) rotate(-180)"/><polygon class="cls-38" points="365.71 398.05 375.81 401.49 402.7 401.49 402.7 398.07 365.71 398.05"/><line class="cls-42" x1="405.63" y1="397.64" x2="405.63" y2="401.26"/><line class="cls-42" x1="410.58" y1="401.28" x2="410.58" y2="397.64"/><circle class="cls-43" cx="426.73" cy="402.77" r="5.57"/><circle class="cls-44" cx="426.73" cy="402.77" r="3.02"/><circle class="cls-43" cx="383.25" cy="402.77" r="5.57"/><circle class="cls-44" cx="383.25" cy="402.77" r="3.02"/><line class="cls-42" x1="415.01" y1="393.95" x2="445.13" y2="393.95"/><rect class="cls-41" x="309.77" y="394.98" width="8.26" height="3.84"/><rect class="cls-45" x="267.63" y="360.23" width="51.96" height="34.75" transform="translate(587.22 755.21) rotate(-180)"/><line class="cls-42" x1="319.59" y1="383.97" x2="319.59" y2="399.57"/><path class="cls-45" d="M325.07,372.81H351.5a0,0,0,0,1,0,0v23.38a3.38,3.38,0,0,1-3.38,3.38h-4.41a22.7,22.7,0,0,1-22.7-22.7v0a4.06,4.06,0,0,1,4.06-4.06Z" transform="translate(672.51 772.38) rotate(180)"/><path class="cls-14" d="M330,375.61l-4.05.08a1.57,1.57,0,0,0-1.55,1.57v4.29a1.58,1.58,0,0,0,1.58,1.58h8.9a1.62,1.62,0,0,1,.9.28l2.73,1.9a1.56,1.56,0,0,0,.9.29h1.38a1.58,1.58,0,0,0,1.42-2.27,15.17,15.17,0,0,0-2.42-3.49A12.82,12.82,0,0,0,330,375.61Z"/><line class="cls-42" x1="327.46" y1="386.51" x2="324.2" y2="386.51"/><path class="cls-42" d="M323.49,382.66c0,.23,0,6.17,0,9.59a2.38,2.38,0,0,1-2.38,2.39h0"/><path class="cls-14" d="M344.35,388.44h5.14a0,0,0,0,1,0,0v.28a2.57,2.57,0,0,1-2.57,2.57h0a2.57,2.57,0,0,1-2.57-2.57v-.28A0,0,0,0,1,344.35,388.44Z" transform="translate(693.84 779.73) rotate(-180)"/><polygon class="cls-38" points="271.72 395.39 281.82 398.82 308.7 398.82 308.7 395.41 271.72 395.39"/><line class="cls-42" x1="311.63" y1="394.98" x2="311.63" y2="398.59"/><line class="cls-42" x1="316.58" y1="398.62" x2="316.58" y2="394.98"/><circle class="cls-43" cx="332.73" cy="400.11" r="5.57"/><circle class="cls-44" cx="332.73" cy="400.11" r="3.02"/><circle class="cls-43" cx="289.25" cy="400.11" r="5.57"/><circle class="cls-44" cx="289.25" cy="400.11" r="3.02"/><line class="cls-42" x1="321.01" y1="391.29" x2="351.13" y2="391.29"/><g class="cls-46"><circle class="cls-47" cx="419.14" cy="372.45" r="9.03"/><circle class="cls-47" cx="419.14" cy="372.45" r="20.16"/><circle class="cls-47" cx="419.14" cy="372.45" r="28.64"/></g><rect class="cls-41" x="447.13" y="610.22" width="8.26" height="3.84"/><rect class="cls-3" x="405" y="602.51" width="51.96" height="7.71" transform="translate(861.96 1212.74) rotate(-180)"/><line class="cls-42" x1="456.96" y1="599.21" x2="456.96" y2="614.81"/><path class="cls-3" d="M462.44,588.05h26.43a0,0,0,0,1,0,0v23.38a3.38,3.38,0,0,1-3.38,3.38h-4.41a22.7,22.7,0,0,1-22.7-22.7v0a4.06,4.06,0,0,1,4.06-4.06Z" transform="translate(947.24 1202.87) rotate(-180)"/><path class="cls-14" d="M467.41,590.85l-4.06.08a1.57,1.57,0,0,0-1.54,1.57v4.3a1.57,1.57,0,0,0,1.57,1.57h8.91a1.57,1.57,0,0,1,.89.28l2.74,1.91a1.6,1.6,0,0,0,.9.28h1.38a1.58,1.58,0,0,0,1.42-2.26,15,15,0,0,0-2.42-3.5A12.82,12.82,0,0,0,467.41,590.85Z"/><line class="cls-42" x1="464.83" y1="601.76" x2="461.57" y2="601.76"/><path class="cls-42" d="M460.86,597.9c0,.23,0,6.17,0,9.6a2.38,2.38,0,0,1-2.38,2.38h0"/><path class="cls-14" d="M481.72,603.68h5.14a0,0,0,0,1,0,0V604a2.57,2.57,0,0,1-2.57,2.57h0a2.57,2.57,0,0,1-2.57-2.57v-.28A0,0,0,0,1,481.72,603.68Z" transform="translate(968.58 1210.21) rotate(-180)"/><polygon class="cls-38" points="409.08 610.64 419.18 614.07 446.07 614.07 446.07 610.65 409.08 610.64"/><line class="cls-42" x1="448.99" y1="610.22" x2="448.99" y2="613.84"/><line class="cls-42" x1="453.95" y1="613.86" x2="453.95" y2="610.22"/><circle class="cls-43" cx="470.1" cy="615.35" r="5.57"/><circle class="cls-44" cx="470.1" cy="615.35" r="3.02"/><circle class="cls-43" cx="426.62" cy="615.35" r="5.57"/><circle class="cls-44" cx="426.62" cy="615.35" r="3.02"/><line class="cls-42" x1="458.38" y1="606.53" x2="488.5" y2="606.53"/><g class="cls-48"><circle class="cls-47" cx="776.08" cy="283.03" r="9.03"/><circle class="cls-47" cx="776.08" cy="283.03" r="20.16"/><circle class="cls-47" cx="776.08" cy="283.03" r="28.64"/></g><g class="cls-49"><circle class="cls-42" cx="325.17" cy="369.6" r="7.54"/><circle class="cls-42" cx="325.17" cy="369.6" r="16.84"/><circle class="cls-42" cx="325.17" cy="369.6" r="23.92"/></g><rect class="cls-41" x="614.06" y="613.27" width="8.26" height="3.84"/><rect class="cls-45" x="571.93" y="578.52" width="51.96" height="34.75" transform="translate(1195.82 1191.79) rotate(-180)"/><line class="cls-42" x1="623.89" y1="602.26" x2="623.89" y2="617.86"/><path class="cls-45" d="M629.37,591.11H655.8a0,0,0,0,1,0,0v23.38a3.38,3.38,0,0,1-3.38,3.38H648a22.7,22.7,0,0,1-22.7-22.7v0a4.06,4.06,0,0,1,4.06-4.06Z" transform="translate(1281.1 1208.97) rotate(180)"/><path class="cls-14" d="M634.34,593.9l-4.06.08a1.58,1.58,0,0,0-1.54,1.57v4.3a1.57,1.57,0,0,0,1.57,1.57h8.91a1.57,1.57,0,0,1,.89.28l2.74,1.91a1.6,1.6,0,0,0,.9.28h1.38a1.58,1.58,0,0,0,1.42-2.26,15,15,0,0,0-2.42-3.5A12.82,12.82,0,0,0,634.34,593.9Z"/><line class="cls-42" x1="631.76" y1="604.81" x2="628.5" y2="604.81"/><path class="cls-42" d="M627.79,601c0,.23,0,6.17,0,9.6a2.38,2.38,0,0,1-2.38,2.38h0"/><path class="cls-14" d="M648.65,606.73h5.14a0,0,0,0,1,0,0V607a2.57,2.57,0,0,1-2.57,2.57h0a2.57,2.57,0,0,1-2.57-2.57v-.28A0,0,0,0,1,648.65,606.73Z" transform="translate(1302.44 1216.31) rotate(-180)"/><polygon class="cls-38" points="576.01 613.69 586.11 617.12 613 617.12 613 613.7 576.01 613.69"/><line class="cls-42" x1="615.92" y1="613.27" x2="615.92" y2="616.89"/><line class="cls-42" x1="620.88" y1="616.91" x2="620.88" y2="613.27"/><circle class="cls-43" cx="637.03" cy="618.4" r="5.57"/><circle class="cls-44" cx="637.03" cy="618.4" r="3.02"/><circle class="cls-43" cx="593.55" cy="618.4" r="5.57"/><circle class="cls-44" cx="593.55" cy="618.4" r="3.02"/><line class="cls-42" x1="625.31" y1="609.58" x2="655.43" y2="609.58"/><g class="cls-50"><circle class="cls-42" cx="629.47" cy="587.9" r="7.54"/><circle class="cls-42" cx="629.47" cy="587.9" r="16.84"/><circle class="cls-42" cx="629.47" cy="587.9" r="23.92"/></g><text class="cls-21" transform="translate(354.02 840.3)">Refuse removal</text><rect class="cls-8" x="657.46" y="748.36" width="1.57" height="41.81"/><polygon class="cls-8" points="661.97 816.5 654.52 816.5 655.79 791.8 660.69 791.8 661.97 816.5"/><polygon class="cls-8" points="659.41 790.17 657.07 790.17 655.79 791.8 660.69 791.8 659.41 790.17"/><rect class="cls-8" x="652.92" y="816.5" width="10.65" height="1.92"/><polygon class="cls-8" points="654.52 738.43 661.97 738.43 660.69 746.41 655.79 746.41 654.52 738.43"/><polygon class="cls-8" points="657.46 748.36 659.03 748.36 660.69 746.41 655.79 746.41 657.46 748.36"/><polygon class="cls-8" points="654.52 738.42 661.97 738.42 660.69 735.87 655.79 735.87 654.52 738.42"/><rect class="cls-8" x="653.67" y="738.42" width="9.16" height="1.07"/><polygon class="cls-8" points="657.21 735.87 659.28 735.87 658.92 734.91 657.57 734.91 657.21 735.87"/><circle class="cls-8" cx="658.24" cy="734.1" r="1.06"/><text class="cls-21" transform="translate(386.98 435.92)">Noise pollution</text><rect class="cls-51" x="488.2" y="567.52" width="33.55" height="3.7"/><rect class="cls-52" x="311.13" y="570.85" width="38.81" height="3.64"/><rect class="cls-51" x="526.94" y="567.52" width="33.55" height="3.7"/><rect class="cls-51" x="563.69" y="567.52" width="33.55" height="3.7"/><rect class="cls-22" x="312.67" y="523.01" width="14.99" height="16.7"/><rect class="cls-22" x="333.98" y="523.01" width="14.99" height="16.7"/><rect class="cls-22" x="312.67" y="547.98" width="14.99" height="16.71"/><rect class="cls-22" x="333.98" y="547.98" width="14.99" height="16.71"/><rect class="cls-4" x="546.82" y="816.43" width="46.18" height="2.47"/><path class="cls-17" d="M542.83,598.82l-5.57-4.1a2.39,2.39,0,0,0-1.41-.47H512a2.41,2.41,0,0,0-1.78.8l-7.37,8.27a2.4,2.4,0,0,0-.57,2l1.34,7.4a2.4,2.4,0,0,0,2.35,2h53.52a2.39,2.39,0,0,0,2.22-1.51l1.35-3.35a4.12,4.12,0,0,0-3.83-5.66h0C547.44,604.26,547.57,602.31,542.83,598.82Z"/><path class="cls-14" d="M557.73,607.4h4.33a0,0,0,0,1,0,0v.23a2.17,2.17,0,0,1-2.17,2.17h0a2.17,2.17,0,0,1-2.17-2.17v-.23A0,0,0,0,1,557.73,607.4Z" transform="translate(1119.79 1217.2) rotate(-180)"/><circle class="cls-43" cx="550.1" cy="614.32" r="5.57"/><circle class="cls-44" cx="550.1" cy="614.32" r="3.02"/><circle class="cls-43" cx="513.52" cy="614.32" r="5.57"/><circle class="cls-44" cx="513.52" cy="614.32" r="3.02"/><path class="cls-53" d="M540.86,602.12h-32a.89.89,0,0,1-.69-1.46l3.51-4.3a.9.9,0,0,1,.7-.33h23.3a.9.9,0,0,1,.58.21l5.15,4.29A.9.9,0,0,1,540.86,602.12Z"/><rect class="cls-17" x="524.5" y="595.03" width="4.77" height="13.19"/><line class="cls-42" x1="527.16" y1="595.14" x2="527.16" y2="613.87"/><line class="cls-42" x1="530.59" y1="603.9" x2="534.14" y2="603.9"/><line class="cls-42" x1="510.2" y1="603.9" x2="513.75" y2="603.9"/><line class="cls-42" x1="562.74" y1="609.99" x2="556.75" y2="609.99"/><line class="cls-42" x1="508.65" y1="609.99" x2="502.99" y2="609.99"/><line class="cls-42" x1="529.32" y1="609.72" x2="543.79" y2="609.72"/><path class="cls-11" d="M370.18,598.82l-5.57-4.1a2.42,2.42,0,0,0-1.42-.47H339.3a2.45,2.45,0,0,0-1.79.8l-7.37,8.27a2.42,2.42,0,0,0-.56,2l1.34,7.4a2.38,2.38,0,0,0,2.35,2h53.52A2.41,2.41,0,0,0,389,613.2l1.35-3.35a4.13,4.13,0,0,0-3.83-5.66h0A27.58,27.58,0,0,1,370.18,598.82Z"/><path class="cls-14" d="M385.08,607.4h4.33a0,0,0,0,1,0,0v.23a2.17,2.17,0,0,1-2.17,2.17h0a2.17,2.17,0,0,1-2.17-2.17v-.23a0,0,0,0,1,0,0Z" transform="translate(774.48 1217.2) rotate(-180)"/><circle class="cls-43" cx="377.45" cy="614.32" r="5.57"/><circle class="cls-44" cx="377.45" cy="614.32" r="3.02"/><circle class="cls-43" cx="340.87" cy="614.32" r="5.57"/><circle class="cls-44" cx="340.87" cy="614.32" r="3.02"/><path class="cls-53" d="M368.21,602.12h-32a.9.9,0,0,1-.7-1.46l3.52-4.3a.9.9,0,0,1,.7-.33h23.3a.86.86,0,0,1,.57.21l5.16,4.29A.9.9,0,0,1,368.21,602.12Z"/><rect class="cls-11" x="351.85" y="595.03" width="4.77" height="13.19"/><line class="cls-42" x1="354.51" y1="595.14" x2="354.51" y2="613.87"/><line class="cls-42" x1="357.94" y1="603.9" x2="361.49" y2="603.9"/><line class="cls-42" x1="337.55" y1="603.9" x2="341.09" y2="603.9"/><line class="cls-42" x1="390.09" y1="609.99" x2="384.1" y2="609.99"/><line class="cls-42" x1="335.99" y1="609.99" x2="330.34" y2="609.99"/><line class="cls-42" x1="356.67" y1="609.72" x2="371.13" y2="609.72"/></g></g></svg>